<?xml version="1.0" encoding="utf-8"?>
<!-- Generator: Adobe Illustrator 17.0.1, SVG Export Plug-In . SVG Version: 6.00 Build 0)  -->
<!DOCTYPE svg PUBLIC "-//W3C//DTD SVG 1.1//EN" "http://www.w3.org/Graphics/SVG/1.1/DTD/svg11.dtd">
<svg version="1.1" id="レイヤー_1" xmlns="http://www.w3.org/2000/svg" xmlns:xlink="http://www.w3.org/1999/xlink" x="0px"
	 y="0px" width="841.89px" height="595.28px" viewBox="0 0 841.89 595.28" enable-background="new 0 0 841.89 595.28"
	 xml:space="preserve">
<rect x="349.655" y="226.924" fill="#FFFFFF" stroke="#A660A3" stroke-width="2" stroke-miterlimit="10" width="141.732" height="141.732"/>
<path fill="#FFFFFF" d="M397.454,339.872c-0.345-1.442-1.257-2.851-1.408-4.324c-0.096-0.937,1.846-1.347,1.327-2.326
	c-0.33-0.622-1.356-0.534-1.901-0.261c-0.952,0.475-1.621,1.262-1.829,2.244c-0.561,0.516-0.141,1.397,0.476,1.889
	c0.665,1.293,1.913,2.679,2.291,3.22C396.776,340.835,397.61,340.524,397.454,339.872z"/>
<g>
	<path fill="#231815" d="M401.11,255.885c0.104,0.051,0.224,0.057,0.333,0.018c0.523-0.187,1.318-0.042,1.731,0.1
		c0.045,0.015,0.092,0.023,0.139,0.023c0.091,0,0.181-0.029,0.256-0.085c0.113-0.084,0.178-0.219,0.172-0.36l-0.09-2.313
		c0,0,0.009-0.056,0.009-0.057l2.156-5.616c0.022-0.055,0.084-0.088,0.161-0.089c0.068,0.013,0.116,0.072,0.115,0.141l-0.009,1.385
		c-0.001,0.206,0.144,0.384,0.346,0.423c0.207,0.036,0.405-0.071,0.48-0.262c1.427-3.592,3.002-6.379,3.019-6.408
		c0.026-0.046,0.082-0.067,0.141-0.071c3.383,0.407,8.704,3.737,11.576,5.685c0.172,0.118,0.405,0.094,0.55-0.057
		c0.144-0.151,0.159-0.383,0.036-0.551c-1.933-2.618-3.652-4.582-3.848-4.804c-0.047-0.052-0.048-0.13-0.006-0.183
		c0.044-0.054,0.121-0.07,0.182-0.037c0.451,0.251,11.062,6.218,11.918,12.054c0,0,0.001,0.058,0.001,0.059
		c0.004,0.136,0.072,0.261,0.183,0.339c0.111,0.078,0.252,0.098,0.381,0.056c0.116-0.039,0.243-0.058,0.378-0.058
		c0.183,0,0.346-0.117,0.405-0.29c0.294-0.857,0.981-3.226,1.026-6.704c0.04-3.095-2.889-8.225-7.69-11.114
		c-5.013-3.017-10.792-2.999-16.617,0.181c-0.05,0.017-4.993,1.672-7.403,6.475c-1.657,3.302-1.742,7.295-0.25,11.867
		C400.927,255.743,401.007,255.834,401.11,255.885z"/>
	<path fill="#FFFFFF" d="M403.307,256.357c-0.23-0.099-0.751-0.268-1.243-0.268c-0.316,0-0.575,0.07-0.772,0.209
		c-0.361,0.256-0.516,0.758-0.463,1.492c0.229,3.125,1.243,4.847,3.1,5.267c0.031,0.007,0.063,0.01,0.094,0.01
		c0.112,0,0.22-0.043,0.301-0.123c0.104-0.103,0.148-0.251,0.118-0.394c-0.529-2.489-0.638-5.041-0.658-5.765
		C403.778,256.556,403.536,256.36,403.307,256.357z"/>
	<path fill="#FFFFFF" d="M430.188,254.805c-0.561-3.628-5.062-7.377-8.74-9.883c-0.175-0.12-0.41-0.093-0.555,0.062
		c-0.144,0.155-0.154,0.392-0.022,0.558c1.31,1.656,2.488,3.274,3.504,4.81c0.039,0.058,0.03,0.135-0.021,0.183
		c-0.032,0.031-0.072,0.037-0.133,0.031c-0.006-0.001-0.012-0.003-0.018-0.004c-0.008-0.005-0.016-0.009-0.025-0.013l0.002-0.005
		l-0.029-0.012c-0.45-0.337-8.888-6.612-13.714-7.473c-0.185-0.032-0.364,0.056-0.453,0.218c-0.602,1.112-2.662,5.063-3.929,9.181
		c-0.018,0.059-0.061,0.099-0.158,0.099c-0.07-0.011-0.122-0.07-0.121-0.142l0.011-1.632c0.001-0.207-0.146-0.386-0.349-0.424
		c-0.205-0.038-0.405,0.075-0.48,0.268l-0.991,2.577c-0.02,0.054-0.03,0.112-0.028,0.17l0.123,3.145
		c0.004,0.237,0.109,5.829,1.604,8.977c1.188,2.499,9.028,5.74,10.191,6.083c0.578,0.172,1.006,0.284,1.65,0.284
		c0.676,0,1.577-0.133,2.834-0.419c2.692-0.609,8.038-5.474,8.926-6.941c1.059-1.751,0.93-9.32,0.924-9.64
		C430.192,254.843,430.191,254.824,430.188,254.805z M426.023,252.778c-0.079,0.103-0.146,0.07-0.195,0.034
		c-0.01-0.008-1.125-0.849-2.357-1.329c-0.24-0.093-0.493-0.141-0.753-0.141c-1.588,0-2.942,1.75-3.001,1.829
		c-0.093,0.127-0.157,0.061-0.2,0.029c-0.041-0.031-0.053-0.072-0.056-0.094c-0.003-0.022-0.004-0.065,0.027-0.107
		c0.014-0.019,1.47-1.948,3.215-1.948c0.295,0,0.589,0.056,0.871,0.166c0.064,0.025,0.128,0.053,0.191,0.08
		c0.001,0.001,0.076,0.034,0.077,0.034c0.018,0.008,0.036,0.014,0.055,0.02c0.014,0.008,0.028,0.016,0.043,0.022
		c1.126,0.504,2.045,1.198,2.056,1.207C426.057,252.626,426.069,252.716,426.023,252.778z"/>
	<path fill="#FFFFFF" d="M432.612,256.419c-0.369-0.592-0.759-0.901-1.195-0.922c-0.378,0-0.669,0.241-0.808,0.384
		c-0.078,0.08-0.121,0.187-0.121,0.297c-0.004,1.464-0.052,3.598-0.26,5.446c-0.02,0.177,0.072,0.349,0.231,0.43
		c0.061,0.031,0.128,0.047,0.195,0.047c0.104,0,0.208-0.038,0.288-0.111C433.883,259.311,433.304,257.528,432.612,256.419z"/>
</g>
<path fill="#595757" d="M434.184,277.541c-1.458-1.354-5.291-2.963-8.236-3.885c-0.117-0.036-0.247-0.021-0.352,0.044
	c-0.105,0.065-0.178,0.173-0.199,0.295l-1.117,6.702c-0.008,0.046-0.038,0.086-0.079,0.106c-0.041,0.018-0.092,0.019-0.132-0.004
	l-2.901-1.616c-0.134-0.074-0.296-0.072-0.428,0.006c-0.131,0.078-0.211,0.221-0.209,0.373l0.608,50.628
	c0.003,0.229,0.185,0.416,0.415,0.424c0.864,0.028,2.594,0.076,4.477,0.076c3.458,0,5.725-0.158,6.757-0.473
	c0.011,0,0.031,0.002,0.062,0.012c0.133,0.046,0.278,0.022,0.39-0.06c0.112-0.083,0.177-0.215,0.175-0.354l-0.175-8.406
	c-0.165-8.617-0.517-30.539-0.621-37.053l-0.004-0.251c-0.001-0.051,0.024-0.086,0.04-0.101c0.016-0.016,0.049-0.043,0.081-0.044
	c0.081,0.002,0.164,0.051,0.165,0.141l0.004,0.25c0.104,6.513,0.456,28.435,0.621,37.052l0.108,5.163
	c0.005,0.232,0.193,0.418,0.425,0.42h0.066c1.86,0,2.59-0.624,2.817-0.893c0.069-0.082,0.106-0.186,0.101-0.293
	c-0.278-7.469-0.415-14.55-0.534-20.808C436.193,288.546,435.93,279.162,434.184,277.541z"/>
<path fill="#595757" d="M420.846,278.676l2.655,1.479c0.065,0.036,0.137,0.054,0.209,0.054c0.064,0,0.127-0.014,0.186-0.042
	c0.126-0.06,0.214-0.178,0.237-0.316l1.074-6.446c0.033-0.203-0.082-0.402-0.276-0.473l-2.542-0.929
	c-0.117-0.044-0.248-0.033-0.356,0.028c-0.109,0.061-0.186,0.166-0.211,0.288c-0.071,0.343-0.136,0.759-0.211,1.236
	c-0.178,1.143-0.422,2.708-0.97,4.628C420.589,278.375,420.673,278.579,420.846,278.676z"/>
<path fill="#FFFFFF" d="M417.077,275.356c0.646,0,1.321-0.103,2.066-0.316c0.995-0.284,1.608-0.672,1.822-1.153
	c0.155-0.346,0.044-0.636,0.003-0.724c-0.013-0.027-0.022-0.062-0.024-0.075l-0.041-1.048c-0.005-0.126-0.065-0.244-0.165-0.321
	c-0.1-0.078-0.229-0.11-0.352-0.081c-1.043,0.221-1.817,0.324-2.436,0.324c-0.681,0-1.128-0.117-1.732-0.296
	c-0.239-0.07-1.946-0.732-3.973-1.678c-0.138-0.063-0.298-0.052-0.423,0.035c-0.125,0.086-0.195,0.231-0.185,0.382l0.113,1.702
	c0.006,0.088,0.039,0.172,0.094,0.241C413.52,274.428,415.135,275.356,417.077,275.356z"/>
<path fill="#D3D3D4" d="M421.032,275.285c0.031-0.165-0.037-0.333-0.174-0.43c-0.136-0.097-0.318-0.105-0.463-0.02
	c-0.324,0.189-0.718,0.35-1.174,0.48c-1.499,0.428-2.777,0.444-4.072-0.027c-0.181-0.068-0.385-0.003-0.497,0.156
	c-0.111,0.158-0.103,0.372,0.021,0.521l2.595,3.119c0.011,0.021,0.017,0.043,0.016,0.076l0.572,46.768
	c0.002,0.123,0.056,0.24,0.149,0.32c0.078,0.067,0.178,0.103,0.279,0.103c0.02,0,0.04-0.001,0.061-0.005l2.087-0.297
	c0.212-0.03,0.37-0.214,0.368-0.429l-0.565-47.03c0-0.002,0.009-0.062,0.009-0.064C420.558,277.486,420.816,276.425,421.032,275.285
	z"/>
<path fill="#595757" d="M410.13,271.488c-0.9,0.469-2.11,1.17-2.559,1.599c-0.143,0.137-0.174,0.355-0.074,0.526
	c0.776,1.328,4.358,6.909,4.764,7.541c0.082,0.127,0.219,0.197,0.361,0.197c0.068,0,0.137-0.016,0.202-0.051l3.631-1.944
	c0.113-0.061,0.193-0.17,0.218-0.296c0.025-0.127-0.009-0.257-0.091-0.356l-5.925-7.11
	C410.528,271.438,410.309,271.395,410.13,271.488z"/>
<path fill="#575554" d="M402.21,326.432c0.079-3.179,0.707-31.385-1.588-42.681c-0.016-0.078,0.035-0.153,0.137-0.171
	c0.06,0,0.127,0.035,0.143,0.114c2.414,11.884,1.617,41.928,1.582,43.202c0,0.02,0.001,0.04,0.003,0.06
	c0.026,0.227,0.16,1.433,0.269,2.866c0.016,0.212,0.186,0.381,0.398,0.395c2.443,0.166,4.953,0.25,7.459,0.25
	c3.289,0,5.716-0.147,6.606-0.211c0.227-0.016,0.401-0.205,0.398-0.432l-0.608-49.73c-0.002-0.15-0.082-0.288-0.211-0.364
	c-0.13-0.076-0.288-0.08-0.42-0.009l-3.885,2.08c-0.065,0.035-0.148,0.012-0.188-0.049c-0.53-0.825-3.242-5.045-4.544-7.153
	c-0.109-0.176-0.33-0.249-0.522-0.173c-1.588,0.629-6.937,2.798-9.064,4.271c-2.298,1.59-7.257,30.157-5.096,48.787
	c0.013,0.113,0.071,0.217,0.161,0.287c0.09,0.071,0.203,0.103,0.317,0.089l8.275-1.014
	C402.045,326.821,402.205,326.645,402.21,326.432z"/>
<path fill="#FFFFFF" d="M400.593,336.422c-0.123-0.189-0.219-0.417-0.295-0.696c-0.574-2.104-0.391-3.072-0.383-3.113
	c0.013-0.065,0.067-0.115,0.168-0.111c0.051,0.01,0.079,0.042,0.091,0.061c0.012,0.018,0.032,0.057,0.017,0.13
	c-0.015,0.103-0.135,1.064,0.382,2.959c0.076,0.281,0.25,0.773,0.555,0.906c0.074,0.032,0.156,0.043,0.236,0.032
	c0.494-0.074,1.1-1.07,1.214-2.436c0.149-1.785-0.173-5.233-0.318-6.633c-0.012-0.114-0.069-0.22-0.159-0.291
	c-0.09-0.072-0.205-0.103-0.319-0.09l-5.657,0.693c-0.189,0.023-0.34,0.168-0.371,0.355c-0.2,1.214-0.728,8.364,1.735,10.827
	c0.48,0.481,0.923,0.724,1.316,0.724c0.098,0,0.194-0.015,0.284-0.046c1.125-0.371,1.549-2.864,1.567-2.97
	C400.673,336.62,400.651,336.512,400.593,336.422z"/>
<path fill="#9FA0A0" d="M432.86,331.154c0.004-0.019,0.009-0.043,0.011-0.054c0.022-0.138-0.025-0.279-0.126-0.376
	c-0.102-0.097-0.244-0.139-0.381-0.112c-1.204,0.238-3.427,0.365-6.426,0.365c-2.609,0-4.917-0.095-4.94-0.096
	c-0.076-0.003-0.136-0.065-0.137-0.141l-0.047-3.966c-0.002-0.124-0.056-0.24-0.15-0.32c-0.094-0.081-0.219-0.117-0.339-0.099
	l-2.087,0.297c-0.213,0.03-0.371,0.215-0.368,0.43l0.04,3.273c0.001,0.076-0.055,0.138-0.13,0.145
	c-0.028,0.003-2.882,0.252-7.178,0.252c-2.448,0-4.909-0.081-7.312-0.24c-0.123-0.006-0.243,0.037-0.33,0.123
	c-0.087,0.087-0.133,0.207-0.126,0.33c0.082,1.396,0.092,2.477,0.03,3.213c-0.135,1.613-0.875,2.639-1.561,2.7
	c-0.209-0.015-0.404,0.125-0.451,0.332c-0.063,0.279-0.138,0.548-0.224,0.801c-0.051,0.153-0.013,0.322,0.1,0.437
	c0.019,0.019,0.041,0.052,0.042,0.095l0.522,23.336h17.868l0.179-31.523c0.001-0.156,0.286-0.157,0.286,0.002l-0.179,31.521h13.237
	L432.86,331.154z"/>
<path fill="#FFFFFF" d="M436.38,327.048c-0.109-0.068-0.242-0.082-0.364-0.04c-0.523,0.181-1.149,0.272-1.861,0.272
	c-0.004,0-0.064-0.002-0.067-0.002c-0.115,0-0.226,0.046-0.306,0.129c-0.081,0.082-0.125,0.193-0.122,0.308l0.059,2.829
	c0.001,0.051-0.024,0.086-0.04,0.101c-0.015,0.016-0.049,0.043-0.104,0.044c-0.236,0-0.428,0.192-0.428,0.428
	c0,0.007,0,0.013,0.001,0.019l-0.022,3.729c-0.001,0.154,0.08,0.296,0.214,0.373c0.066,0.039,0.141,0.058,0.215,0.058
	s0.148-0.019,0.215-0.058c3.257-1.887,3.052-6.143,2.813-7.885C436.563,327.228,436.489,327.115,436.38,327.048z"/>
<path fill="#DCDDDD" d="M405.736,302.892c-0.352-8.484-0.747-17.238-3.469-25.322c-0.234-0.695-1.337-0.397-1.101,0.303
	c2.7,8.016,2.981,16.616,3.428,25.019c0.478,8.985-0.098,18.023-0.116,27.014c-0.002,0.737,1.141,0.737,1.143,0
	C405.638,320.905,406.11,311.891,405.736,302.892z"/>
<path fill="#DCDDDD" d="M410.404,299.782c-0.072-8.441-0.623-16.781-4.005-24.634c-0.291-0.675-1.275-0.093-0.987,0.577
	c3.45,8.01,3.785,16.561,3.858,25.146c0.083,9.765,0.443,19.557,0.349,29.321c-0.007,0.737,1.135,0.737,1.143,0
	C410.859,320.065,410.489,309.911,410.404,299.782z"/>
<path fill="#DCDDDD" d="M414.756,318.171c-0.14-4.174,0.134-8.376,0.222-12.55c0.17-8.039-0.251-16.069-0.788-24.09
	c-0.049-0.731-1.192-0.736-1.143,0c0.536,8.023,0.941,16.05,0.788,24.09c-0.08,4.183-0.285,8.367-0.222,12.55
	c0.061,4.044,1.047,7.986,1.148,12.021c0.018,0.735,1.161,0.737,1.143,0C415.803,326.159,414.89,322.209,414.756,318.171z"/>
<path fill="#9FA0A0" d="M411.087,272.791c-0.816,0.14-1.619,0.73-2.25,1.352c-0.066,0.027-0.132,0.067-0.193,0.128
	c-0.127,0.127-0.254,0.254-0.38,0.381c-0.351,0.353-0.095,0.975,0.404,0.975c0.507,0,0.829-0.533,1.184-0.844
	c0.431-0.378,0.961-0.791,1.539-0.891C412.116,273.768,411.807,272.667,411.087,272.791z"/>
<path fill="#9FA0A0" d="M413.902,276.181c-0.53,0.279-1.002,0.649-1.479,1.008c-0.405,0.305-0.843,0.69-1.336,0.839
	c-0.704,0.211-0.404,1.315,0.304,1.102c1.173-0.353,2.02-1.399,3.088-1.962C415.131,276.824,414.553,275.837,413.902,276.181z"/>
<path fill="#DCDDDD" d="M400.541,302.915c-0.156-3.899-0.775-7.747-1.095-11.631c-0.289-3.513-0.289-7.482-1.37-10.857
	c-0.224-0.699-1.327-0.4-1.101,0.303c1.144,3.574,1.109,7.881,1.416,11.616c0.32,3.89,0.893,7.726,1.049,11.632
	c0.297,7.413,0.602,14.89,0.656,22.309c0.005,0.737,1.148,0.737,1.143,0C401.183,318.514,400.852,310.683,400.541,302.915z"/>
<path fill="#DCDDDD" d="M395.87,310.213c-0.11-3.092-0.461-6.175-0.725-9.256c-0.187-2.179,0.359-4.38-0.02-6.532
	c-0.127-0.725-1.229-0.417-1.101,0.303c0.411,2.334-0.137,4.874,0.068,7.256c0.264,3.084,0.563,6.161,0.673,9.256
	c0.187,5.24,0.571,10.468,0.571,15.712c0,0.737,1.143,0.737,1.143,0C396.478,321.367,396.069,315.795,395.87,310.213z"/>
<path fill="#DCDDDD" d="M423.656,321.062c-0.051-4.626-0.343-9.191-0.238-13.823c0.2-8.856-0.001-17.713,0.105-26.565
	c0.009-0.737-1.134-0.737-1.143,0c-0.098,8.159-0.007,16.317-0.091,24.482c-0.044,4.22-0.086,8.37,0.148,12.585
	c0.122,2.21,0.078,4.43,0.134,6.642c0.048,1.893,0.868,3.658,0.306,5.562c-0.209,0.709,0.894,1.009,1.102,0.304
	C424.802,327.459,423.688,323.928,423.656,321.062z"/>
<path fill="#DCDDDD" d="M428.454,330.136c-0.608-1.526-0.512-3.67-0.646-5.276c-0.2-2.392-0.302-4.801-0.41-7.199
	c-0.221-4.953-0.056-9.931-0.141-14.888c-0.084-4.918-0.472-9.824-0.533-14.742c-0.057-4.617,0.257-9.232,0.226-13.833
	c-0.002-0.312-0.258-0.571-0.571-0.571h-0.286c-0.62,0-0.711,0.801-0.289,1.058c0.011,4.436-0.228,8.896-0.223,13.345
	c0.005,4.914,0.432,9.828,0.533,14.742c0.101,4.962-0.031,9.928,0.14,14.888c0.083,2.401,0.27,4.8,0.41,7.199
	c0.101,1.727,0.049,3.977,0.687,5.58C427.621,331.116,428.727,330.821,428.454,330.136z"/>
<path fill="#DCDDDD" d="M431.261,316.765c-0.353-4.702-0.439-9.413-0.481-14.126c-0.041-4.618-0.003-9.234,0.021-13.852
	c0.011-2.061-0.046-4.113-0.149-6.171c-0.093-1.843-0.637-4.98,0.221-6.701c0.328-0.657-0.658-1.236-0.987-0.577
	c-1.422,2.85-0.315,7.312-0.245,10.363c0.11,4.909-0.032,9.828-0.016,14.738c0.016,5.093,0.067,10.196,0.417,15.279
	c0.329,4.756,1.116,9.619,1.099,14.378c-0.003,0.737,1.14,0.737,1.143,0C432.299,325.687,431.591,321.17,431.261,316.765z"/>
<path fill="#DCDDDD" d="M434.819,300.739c0.24-4.39,0.017-8.79-0.372-13.161c-0.169-1.894-0.21-3.813-0.196-5.713
	c0.01-1.432,0.273-2.908-0.178-4.294c-0.226-0.698-1.33-0.399-1.101,0.303c0.408,1.253,0.184,2.697,0.137,3.991
	c-0.068,1.9,0.079,3.819,0.196,5.713c0.274,4.406,0.52,8.737,0.372,13.161c-0.288,8.537,1.251,16.949,1.369,25.454
	c0.01,0.736,1.153,0.737,1.143,0C436.07,317.701,434.352,309.261,434.819,300.739z"/>
<path fill="#9FA0A0" d="M424.055,276.886c-0.826-0.326-1.581-0.823-2.476-0.952c-0.72-0.105-1.031,0.997-0.303,1.101
	c0.888,0.129,1.652,0.628,2.476,0.953C424.438,278.258,424.733,277.153,424.055,276.886z"/>
<path fill="#B5B5B6" d="M407.899,302.22c-0.03-4.003-0.224-8.134-0.788-12.105c-0.649-4.569-2.12-8.969-2.939-13.496
	c-0.131-0.724-1.232-0.417-1.101,0.303c0.758,4.19,1.923,8.324,2.77,12.505c0.892,4.404,0.89,9.242,0.924,13.721
	c0.033,4.467-0.522,8.948-0.424,13.427c0.098,4.46,0.305,8.868,0.234,13.332c-0.012,0.737,1.131,0.736,1.143,0
	c0.072-4.464-0.072-8.87-0.234-13.332C407.308,311.789,407.934,306.997,407.899,302.22z"/>
<path fill="#B5B5B6" d="M397.616,307.152c-0.434-3.846-0.648-7.708-1.074-11.552c-0.252-2.268-0.048-4.677-0.467-6.905
	c-0.061-0.327-0.417-0.448-0.703-0.399c-0.031,0.005-0.062,0.011-0.093,0.016c-0.466,0.081-0.502,0.561-0.279,0.864
	c0.409,2.345,0.238,4.972,0.502,7.352c0.392,3.533,0.571,7.087,0.971,10.623c0.719,6.367,1.277,13.018,1.148,19.422
	c-0.015,0.737,1.128,0.736,1.143,0C398.893,320.17,398.334,313.519,397.616,307.152z"/>
<path fill="#B5B5B6" d="M411.408,276.406c0.603-0.355,1.24-0.777,1.657-1.347c0.435-0.597-0.557-1.166-0.987-0.577
	c-0.267,0.366-0.755,0.632-1.129,0.866c-0.322,0.202-0.918,0.597-1.234,0.565c-0.301-0.031-0.47,0.147-0.523,0.369
	c-0.398-0.305-1.099,0.203-0.827,0.777c1.69,3.561,2.162,8.604,2.398,12.472c0.259,4.248,0.978,8.381,1.042,12.662
	c0.141,9.362-0.268,18.732-0.28,28.096c-0.001,0.737,1.142,0.737,1.143,0c0.012-9.708,0.411-19.421,0.264-29.129
	c-0.07-4.623-0.759-9.102-1.185-13.695c-0.31-3.344-0.822-7.305-2.171-10.451c0.045,0.016,0.086,0.037,0.139,0.043
	C410.288,277.114,410.941,276.681,411.408,276.406z"/>
<path fill="#B5B5B6" d="M415.215,277.89c-0.584,0.532-1.498,0.84-2.192,1.201c-0.47,0.244-1.518,0.631-1.498,1.297
	c0.019,0.645,0.899,0.725,1.102,0.239c0.004-0.003,0.006-0.003,0.011-0.007c0.117-0.081,0.242-0.15,0.365-0.221
	c0.37-0.212,0.753-0.404,1.133-0.598c0.632-0.325,1.356-0.619,1.888-1.104C416.568,278.2,415.758,277.394,415.215,277.89z"/>
<path fill="#B5B5B6" d="M417.272,319.444c-0.125-1.926-0.407-3.789-0.32-5.726c0.022-0.487-0.313-2.33,0.023-2.643
	c0.358-0.334,0.12-0.794-0.237-0.924c-0.37-2.649,0.056-5.368,0.059-8.03c0.003-3.366-0.603-7.122-0.056-10.438
	c0.026-0.159-0.013-0.294-0.083-0.406c-0.041-1.784-0.204-3.557-0.329-5.336c-0.122-1.729-0.527-3.473-0.255-5.209
	c0.114-0.72-0.987-1.03-1.101-0.303c-0.563,3.575,0.494,7.487,0.551,11.102c0.002,0.099,0.026,0.183,0.063,0.255
	c-0.416,2.993-0.076,6.364,0.032,9.363c0.119,3.317-0.52,6.678,0.116,9.959c0.002,0.01,0.008,0.016,0.011,0.026
	c-0.383,1.602,0.041,4.553,0.104,5.478c0.293,4.346,0.582,8.647,0.436,13.009c-0.025,0.736,1.118,0.734,1.143,0
	C417.541,326.24,417.491,322.822,417.272,319.444z"/>
<path fill="#A4A4A5" d="M423.847,278.314c-0.406,0.063-0.872-0.222-1.226-0.382c-0.448-0.204-0.887-0.375-1.384-0.401
	c-0.737-0.039-0.733,1.103,0,1.143c0.483,0.025,0.941,0.313,1.378,0.498c0.509,0.215,0.984,0.329,1.535,0.243
	C424.877,279.303,424.568,278.202,423.847,278.314z"/>
<path fill="#9FA0A0" d="M424.436,275.172c-0.88-0.17-1.716-1.238-2.684-0.857c-0.678,0.266-0.383,1.372,0.303,1.101
	c0.265-0.104,0.653,0.194,0.873,0.316c0.38,0.209,0.772,0.459,1.204,0.541C424.853,276.412,425.159,275.311,424.436,275.172z"/>
<path fill="#B5B5B6" d="M425.475,319.948c-0.211-4.459-0.065-8.911-0.048-13.372c0.016-4.071-0.075-8.142-0.094-12.213
	c-0.009-2.12,0.05-4.237-0.024-6.356c-0.082-2.365-0.752-4.605-0.379-6.99c0.113-0.72-0.988-1.03-1.101-0.303
	c-0.584,3.733,0.408,7.692,0.366,11.484c-0.048,4.427,0.066,8.856,0.088,13.283c0.021,4.461-0.17,8.92,0.002,13.381
	c0.145,3.759,0.706,7.489,0.857,11.236c0.03,0.734,1.172,0.737,1.143,0C426.148,326.713,425.635,323.34,425.475,319.948z"/>
<path fill="#B5B5B6" d="M429.423,316.313c-0.013-4.808-0.17-9.614-0.192-14.422c-0.021-4.623-0.312-9.242-0.371-13.865
	c-0.054-4.2,0.661-8.925-0.311-13.026c-0.17-0.717-1.272-0.413-1.101,0.304c0.937,3.958,0.251,8.666,0.27,12.723
	c0.021,4.624,0.312,9.242,0.371,13.865c0.062,4.807,0.153,9.615,0.192,14.422c0.038,4.76,1.048,9.414,1.146,14.165
	c0.015,0.736,1.158,0.737,1.143,0C430.472,325.726,429.437,321.074,429.423,316.313z"/>
<path fill="#B5B5B6" d="M433.705,324.578c-0.121-1.987-0.377-3.956-0.46-5.948c-0.191-4.58-0.348-9.167-0.462-13.749
	c-0.116-4.645-0.249-9.32,0.005-13.961c0.118-2.15-0.115-4.206-0.314-6.342c-0.204-2.19-0.759-5.241-0.211-7.371
	c0.184-0.714-0.918-1.017-1.101-0.303c-0.407,1.578-0.055,3.067,0.036,4.675c0.138,2.43,0.411,4.856,0.515,7.285
	c0.197,4.572-0.193,9.242-0.117,13.833c0.077,4.633,0.333,9.26,0.448,13.891c0.058,2.359,0.188,4.696,0.439,7.043
	c0.222,2.075-0.077,4.134,0.088,6.181c0.058,0.729,1.202,0.735,1.143,0C433.573,328.086,433.81,326.327,433.705,324.578z"/>
<path fill="#B5B5B6" d="M400.668,286.007c-0.315-2.348-1.189-4.621-1.428-6.952c-0.075-0.725-1.218-0.733-1.143,0
	c0.243,2.368,1.183,4.559,1.428,6.952c0.286,2.79,1.125,5.467,1.237,8.285c0.029,0.734,1.173,0.737,1.143,0
	C401.794,291.479,401.041,288.788,400.668,286.007z"/>
<path fill="#FFFFFF" d="M408.572,276.77c-1.753,0.089-3.441,0.607-5.127,1.063c-1.648,0.447-3.527,0.718-4.97,1.681
	c-0.609,0.407-0.038,1.397,0.577,0.987c1.343-0.896,3.159-1.137,4.696-1.566c1.57-0.439,3.19-0.94,4.824-1.023
	C409.305,277.876,409.309,276.732,408.572,276.77z"/>
<path fill="#FFFFFF" d="M410.42,280.028c-3.482,0.937-7.185,0.769-10.421,2.533c-0.276,0.15-0.321,0.412-0.242,0.64
	c-0.067-0.03-0.143-0.05-0.231-0.051c-0.951-0.017-1.99-0.317-2.914,0.021c-0.686,0.251-0.39,1.355,0.303,1.101
	c0.806-0.295,1.775,0.006,2.61,0.02c0.449,0.008,0.62-0.411,0.522-0.744c0.151,0.082,0.334,0.105,0.528-0.001
	c3.131-1.706,6.777-1.511,10.148-2.418C411.435,280.939,411.133,279.836,410.42,280.028z"/>
<path fill="#FFFFFF" d="M416.857,283.055c-5.17,0.126-10.568,1.441-15.483,2.973c-0.161,0.05-0.264,0.15-0.327,0.267
	c0.034-0.388-0.387-0.824-0.858-0.59c-0.873,0.433-3.079,0.681-3.879-0.006c-0.556-0.478-1.367,0.327-0.808,0.808
	c1.246,1.072,3.873,0.875,5.263,0.185c0.111-0.055,0.177-0.133,0.223-0.216c-0.057,0.372,0.224,0.799,0.688,0.655
	c4.807-1.498,10.132-2.808,15.18-2.932C417.592,284.18,417.594,283.037,416.857,283.055z"/>
<path fill="#FFFFFF" d="M416.19,287.721c-4.774,0.198-9.923,0.598-14.531,1.925c-0.14,0.04-0.231,0.121-0.296,0.215
	c-0.075-0.187-0.241-0.335-0.505-0.331c-1.733,0.024-3.381,0.099-5.087-0.14c-0.071-0.032-0.152-0.051-0.246-0.05
	c-0.042,0-0.084,0-0.126,0c-0.625,0.004-0.804,1.021-0.152,1.123c1.894,0.295,3.694,0.237,5.61,0.21
	c0.219-0.003,0.364-0.111,0.453-0.254c0.097,0.24,0.328,0.422,0.651,0.329c4.5-1.295,9.551-1.69,14.227-1.884
	C416.924,288.833,416.927,287.69,416.19,287.721z"/>
<path fill="#FFFFFF" d="M416.515,291.455c-4.747,0.719-9.561,0.819-14.284,1.714c-0.724,0.137-0.416,1.238,0.303,1.102
	c4.722-0.894,9.538-0.995,14.284-1.714C417.546,292.447,417.235,291.346,416.515,291.455z"/>
<path fill="#FFFFFF" d="M416.19,296.481c-4.565,0.136-9.73,0.114-14.15,1.354c-0.336,0.094-0.439,0.39-0.385,0.655
	c-0.085-0.06-0.186-0.106-0.32-0.105c-2.352,0.02-4.682,0.217-6.99-0.36c-0.715-0.179-1.018,0.923-0.303,1.101
	c2.41,0.604,4.835,0.422,7.294,0.401c0.413-0.003,0.586-0.363,0.536-0.678c0.121,0.094,0.28,0.14,0.473,0.086
	c4.277-1.2,9.412-1.181,13.846-1.312C416.925,297.603,416.927,296.46,416.19,296.481z"/>
<path fill="#FFFFFF" d="M416.857,300.196c-4.737,0.213-9.773,0.739-14.436,1.639c-0.723,0.14-0.416,1.24,0.303,1.101
	c4.503-0.869,9.544-1.391,14.132-1.598C417.59,301.305,417.594,300.163,416.857,300.196z"/>
<path fill="#FFFFFF" d="M416.801,305.169c-4.681,0.833-9.502,0.824-14.189,1.714c-0.723,0.137-0.416,1.238,0.304,1.101
	c4.688-0.889,9.517-0.882,14.189-1.714C417.829,306.141,417.521,305.04,416.801,305.169z"/>
<path fill="#FFFFFF" d="M416.818,309.929c-1.613-0.367-3.238,0.012-4.853,0.24c-2.973,0.422-5.935,0.906-8.917,1.263
	c-0.337,0.04-0.512,0.311-0.535,0.579c-0.094-0.248-0.331-0.446-0.663-0.369c-2.633,0.616-6.033,0.753-8.648,0
	c-0.71-0.205-1.01,0.898-0.303,1.102c2.858,0.824,6.38,0.673,9.255,0c0.257-0.06,0.379-0.242,0.401-0.44
	c0.075,0.176,0.236,0.302,0.494,0.271c2.063-0.247,4.117-0.543,6.172-0.85c2.24-0.336,5.043-1.206,7.294-0.694
	C417.232,311.194,417.537,310.092,416.818,309.929z"/>
<path fill="#FFFFFF" d="M416.857,314.48c-4.689,0.05-9.333,0.639-13.998,1.047c-0.374,0.033-0.554,0.349-0.545,0.641
	c-0.01,0.005-0.019,0.003-0.03,0.008c-1.33,0.657-2.878,0.603-4.32,0.786c-1.496,0.189-3.407,0.491-4.721-0.405
	c-0.611-0.416-1.182,0.575-0.577,0.987c1.4,0.953,3.238,0.776,4.84,0.614c1.778-0.18,3.729-0.191,5.355-0.996
	c0.239-0.117,0.312-0.322,0.281-0.52c4.57-0.406,9.121-0.972,13.714-1.021C417.594,315.615,417.594,314.472,416.857,314.48z"/>
<path fill="#FFFFFF" d="M417.047,319.051c-4.725,0.077-9.369,1.064-14.093,1.143c-0.736,0.012-0.737,1.155,0,1.143
	c4.724-0.079,9.368-1.066,14.093-1.143C417.783,320.181,417.784,319.038,417.047,319.051z"/>
<path fill="#FFFFFF" d="M417.467,323.832c-4.852,0.917-9.809,0.13-14.664,1.048c-0.724,0.136-0.416,1.237,0.303,1.101
	c4.852-0.917,9.809-0.13,14.665-1.047C418.494,324.797,418.187,323.696,417.467,323.832z"/>
<path fill="#FFFFFF" d="M401.335,294.101c-2.152,0.017-4.233,0.182-6.323-0.456c-0.706-0.216-1.006,0.887-0.303,1.101
	c2.189,0.668,4.369,0.515,6.627,0.497C402.071,295.237,402.072,294.095,401.335,294.101z"/>
<path fill="#FFFFFF" d="M401.468,303.073c-1.285,0.212-2.55,0.375-3.854,0.352c-1.25-0.021-2.315-0.507-3.516-0.658
	c-0.73-0.092-0.721,1.051,0,1.143c1.191,0.15,2.287,0.592,3.516,0.658c1.392,0.076,2.79-0.166,4.158-0.393
	C402.498,304.055,402.189,302.954,401.468,303.073z"/>
<path fill="#FFFFFF" d="M401.62,307.623c-2.659,0.038-5.31,0.498-7.942-0.075c-0.718-0.157-1.023,0.945-0.303,1.102
	c2.742,0.597,5.475,0.155,8.246,0.116C402.357,308.756,402.357,307.613,401.62,307.623z"/>
<path fill="#FFFFFF" d="M400.992,320.595c-2.136,0.422-5.74,0.976-7.749-0.133c-0.645-0.357-1.222,0.63-0.577,0.986
	c2.374,1.311,6.095,0.751,8.63,0.248C402.019,321.554,401.712,320.452,400.992,320.595z"/>
<path fill="#FFFFFF" d="M401.468,324.88c-2.562,0.523-5.038,0.701-7.6,0.19c-0.719-0.144-1.026,0.957-0.303,1.102
	c2.768,0.553,5.438,0.376,8.207-0.191C402.494,325.834,402.188,324.733,401.468,324.88z"/>
<path fill="#FFFFFF" d="M416.857,328.002c-4.426,0.055-8.864,1.268-13.275,0.496c-0.72-0.126-1.028,0.975-0.303,1.102
	c4.535,0.794,9.033-0.399,13.579-0.455C417.594,329.136,417.594,327.993,416.857,328.002z"/>
<path fill="#FFFFFF" d="M414.69,279.032c-0.883-1.006-1.787-1.99-2.654-3.012c-0.424-0.5-0.782-1.051-1.212-1.545
	c-0.412-0.472-1.098-0.925-1.225-1.572c-0.141-0.723-1.242-0.416-1.101,0.304c0.215,1.097,1.45,1.982,2.097,2.834
	c1.015,1.336,2.183,2.541,3.287,3.798C414.369,280.395,415.174,279.584,414.69,279.032z"/>
<path fill="#FFFFFF" d="M423.067,272.714c-0.34,2.024-1.279,3.88-1.619,5.904c-0.121,0.72,0.98,1.029,1.101,0.303
	c0.34-2.024,1.28-3.88,1.619-5.904C424.29,272.297,423.189,271.988,423.067,272.714z"/>
<path fill="#FFFFFF" d="M431.102,275.743c-1.95-0.354-3.894-0.308-5.866-0.211c-0.733,0.036-0.737,1.179,0,1.143
	c1.863-0.092,3.717-0.164,5.562,0.17C431.519,276.975,431.827,275.874,431.102,275.743z"/>
<path fill="#FFFFFF" d="M433.807,278.198c-1.41,0-2.82-0.001-4.231,0.001c-1.473,0.001-3.322,0.457-4.759,0.21
	c-0.72-0.124-1.029,0.977-0.303,1.101c1.28,0.221,2.585-0.121,3.877-0.158c1.803-0.051,3.612-0.012,5.416-0.012
	C434.545,279.341,434.545,278.198,433.807,278.198z"/>
<path fill="#FFFFFF" d="M432.054,282.98c-1.701-0.429-3.431-0.279-5.171-0.342c-1.988-0.072-3.922-0.185-5.893,0.152
	c-0.725,0.123-0.417,1.225,0.303,1.101c1.626-0.277,3.233-0.222,4.872-0.144c1.851,0.087,3.778-0.122,5.585,0.334
	C432.465,284.262,432.769,283.16,432.054,282.98z"/>
<path fill="#FFFFFF" d="M432.572,287.704c-1.069-0.674-2.622-0.441-3.817-0.389c-2.625,0.116-5.27,0.108-7.899,0.121
	c-0.737,0.003-0.737,1.146,0,1.143c2.381-0.011,4.761-0.084,7.142-0.096c1.169-0.005,2.964-0.443,3.997,0.208
	C432.621,289.084,433.194,288.095,432.572,287.704z"/>
<path fill="#FFFFFF" d="M432.34,291.646c-3.724-0.956-7.682,0.49-11.427-0.095c-0.72-0.113-1.03,0.988-0.303,1.101
	c3.728,0.584,7.731-0.853,11.427,0.095C432.751,292.931,433.054,291.829,432.34,291.646z"/>
<path fill="#FFFFFF" d="M432.245,296.312c-3.602-0.906-7.57,0.11-11.198-0.021c-0.737-0.027-0.735,1.116,0,1.143
	c3.513,0.127,7.414-0.896,10.895-0.021C432.656,297.594,432.959,296.492,432.245,296.312z"/>
<path fill="#FFFFFF" d="M432.569,300.196c-3.937-0.007-7.872-0.089-11.808-0.095c-0.737-0.001-0.737,1.141,0,1.143
	c3.936,0.007,7.872,0.089,11.808,0.095C433.306,301.34,433.306,300.197,432.569,300.196z"/>
<path fill="#FFFFFF" d="M432.436,304.597c-1.67-0.38-3.352-0.078-5.047-0.151c-2.186-0.094-4.351-0.179-6.532,0.035
	c-0.65,0.064-0.768,0.891-0.152,1.122c0.174,0.066,0.32,0.066,0.494,0c0.003-0.001,0.004-0.003,0.007-0.004
	c1.792-0.151,3.574-0.123,5.372-0.047c1.815,0.077,3.778-0.257,5.554,0.146C432.849,305.861,433.154,304.76,432.436,304.597z"/>
<path fill="#FFFFFF" d="M432.569,309.623c-2.036-0.083-4.071,0.043-6.107-0.035c-1.838-0.071-3.675-0.226-5.472,0.246
	c-0.713,0.187-0.41,1.289,0.303,1.102c1.686-0.442,3.447-0.285,5.169-0.205c2.035,0.095,4.07-0.048,6.107,0.035
	C433.306,310.796,433.304,309.653,432.569,309.623z"/>
<path fill="#FFFFFF" d="M432.569,314.194c-3.821,0.052-8.072-0.574-11.769,0.497c-0.706,0.204-0.406,1.307,0.303,1.101
	c3.556-1.029,7.777-0.406,11.466-0.455C433.306,315.327,433.306,314.184,432.569,314.194z"/>
<path fill="#FFFFFF" d="M432.95,318.669c-3.909,0.039-7.805,0.513-11.713,0.191c-0.735-0.06-0.729,1.083,0,1.143
	c3.908,0.322,7.804-0.152,11.713-0.191C433.687,319.805,433.688,318.662,432.95,318.669z"/>
<path fill="#FFFFFF" d="M432.95,322.86c-1.682-0.162-3.393,0.109-5.086,0.068c-2.126-0.052-4.224-0.138-6.341,0.122
	c-0.721,0.089-0.73,1.233,0,1.143c1.851-0.227,3.688-0.205,5.549-0.147c1.95,0.06,3.946-0.229,5.879-0.043
	C433.684,324.073,433.677,322.929,432.95,322.86z"/>
<path fill="#FFFFFF" d="M432.569,327.145c-2.02-0.032-4.005,0.396-6.028,0.426c-1.659,0.025-3.767-0.353-5.361,0.166
	c-0.698,0.226-0.399,1.33,0.303,1.101c1.457-0.473,3.543-0.121,5.057-0.124c2.025-0.004,4.009-0.459,6.028-0.426
	C433.306,328.3,433.305,327.157,432.569,327.145z"/>
<path fill="#FFFFFF" d="M434.893,282.314c-0.279,0.056-0.537,0.18-0.786,0.316c-0.186,0.102-0.369,0.225-0.586,0.234
	c-0.734,0.032-0.737,1.175,0,1.143c0.341-0.014,0.634-0.114,0.937-0.267c0.248-0.125,0.462-0.268,0.738-0.325
	C435.919,283.269,435.613,282.167,434.893,282.314z"/>
<path fill="#0E9B94" d="M433.723,287.57C433.67,287.55,433.676,287.563,433.723,287.57L433.723,287.57z"/>
<path fill="#FFFFFF" d="M435.274,287.17c-0.311,0.058-0.612,0.161-0.913,0.254c-0.155,0.048-0.311,0.091-0.469,0.127
	c-0.032,0.001-0.061,0.007-0.089,0.02c-0.033,0.004-0.06,0.002-0.08-0.001c0.021,0.008,0.046,0.017,0.087,0.039
	c-0.655-0.335-1.233,0.651-0.577,0.987c0.725,0.37,1.621-0.188,2.345-0.323C436.302,288.136,435.994,287.035,435.274,287.17z"/>
<path fill="#FFFFFF" d="M435.522,291.625c-0.752,0.024-1.445,0.357-2.191,0.381c-0.735,0.023-0.737,1.166,0,1.143
	c0.752-0.024,1.445-0.357,2.191-0.381C436.256,292.745,436.259,291.602,435.522,291.625z"/>
<path fill="#FFFFFF" d="M435.715,296.274c-0.415-0.217-0.911-0.116-1.348-0.03c-0.408,0.081-0.869,0.193-1.228,0.411
	c-0.629,0.381-0.055,1.37,0.577,0.986c0.201-0.122,0.5-0.188,0.772-0.254c0.153-0.038,0.311-0.072,0.468-0.089
	c0.074-0.008,0.148-0.01,0.222-0.011c0.029,0,0.04-0.001,0.048-0.001C435.838,297.5,436.338,296.6,435.715,296.274z"/>
<path fill="#FFFFFF" d="M436.036,300.216c-0.799,0.202-1.587,0.428-2.42,0.361c-0.735-0.06-0.729,1.084,0,1.143
	c0.928,0.075,1.832-0.176,2.723-0.402C437.054,301.137,436.751,300.035,436.036,300.216z"/>
<path fill="#FFFFFF" d="M435.807,304.957c-0.729,0.014-1.434,0.197-2.151,0.306c-0.308,0.047-0.474,0.43-0.399,0.702
	c0.09,0.326,0.395,0.446,0.703,0.399c0.617-0.093,1.221-0.252,1.848-0.264C436.543,306.085,436.544,304.942,435.807,304.957z"/>
<path fill="#FFFFFF" d="M435.941,309.263c-0.69,0.195-1.386,0.369-2.095,0.477c-0.309,0.046-0.474,0.43-0.399,0.702
	c0.09,0.327,0.395,0.446,0.703,0.399c0.71-0.107,1.406-0.281,2.095-0.476C436.953,310.164,436.651,309.061,435.941,309.263z"/>
<path fill="#FFFFFF" d="M436.321,314.405c-0.697,0.105-1.46,0.521-2.172,0.381c-0.72-0.142-1.026,0.959-0.303,1.101
	c0.971,0.192,1.836-0.238,2.779-0.381C437.352,315.397,437.042,314.296,436.321,314.405z"/>
<path fill="#FFFFFF" d="M436.09,318.653c-0.66,0.348-1.449,0.363-2.149,0.609c-0.691,0.242-0.394,1.345,0.303,1.101
	c0.802-0.281,1.66-0.322,2.422-0.724C437.319,319.296,436.741,318.309,436.09,318.653z"/>
<path fill="#FFFFFF" d="M435.975,322.837c0.076-0.068-0.119,0.069-0.147,0.084c-0.119,0.064-0.244,0.118-0.37,0.17
	c-0.327,0.135-0.659,0.256-0.987,0.387c-0.409,0.165-1.201,0.422-1.141,1c0.065,0.626,0.923,0.714,1.108,0.256
	c0.096-0.052,0.196-0.095,0.295-0.138c0.24-0.105,0.489-0.192,0.733-0.287c0.451-0.175,0.949-0.337,1.316-0.665
	C437.333,323.152,436.522,322.347,435.975,322.837z"/>
<circle fill="#231815" cx="410.331" cy="257.653" r="1.334"/>
<circle fill="#231815" cx="423.853" cy="257.462" r="1.334"/>
<g>
	<path fill="#FFFFFF" d="M391.893,326.816c0.073,0.05,0.158,0.076,0.243,0.076c0.065,0,0.131-0.015,0.191-0.045
		c1.286-0.64,1.98-1.543,1.953-2.542c-0.025-0.94-0.666-1.651-1.259-1.844c-0.455-0.143-0.841-0.019-1.194,0.409
		c-0.136,0.09-0.21,0.25-0.189,0.412c0.143,1.12,0.168,2.177,0.073,3.139C391.694,326.576,391.764,326.727,391.893,326.816z"/>
	<path fill="#FFFFFF" d="M364.082,326.154c0.017,0.002,0.034,0.003,0.05,0.003c0.111,0,0.219-0.044,0.299-0.122
		c0.093-0.091,0.14-0.219,0.127-0.348c-0.095-0.982-0.08-2.008,0.045-3.051c0.022-0.179-0.072-0.353-0.234-0.434
		c-0.896-0.447-1.501-0.551-1.926-0.333c-0.383,0.197-0.625,0.666-0.739,1.433c-0.108,0.715,0.066,1.372,0.503,1.9
		C362.641,325.724,363.307,326.063,364.082,326.154z"/>
	<path fill="#FFFFFF" d="M363.018,321.482c0.341,0.016,0.724,0.12,1.17,0.318c0.12,0.053,0.257,0.049,0.372-0.011
		c0.116-0.06,0.198-0.17,0.223-0.298c0.099-0.506,0.196-0.863,0.245-1.032c0.029-0.099,0.006-0.248-0.037-0.34
		c-0.007-0.078,0.05-0.148,0.13-0.155c0.223-0.023,5.496-0.617,7.292-6.521c0.007-0.023,0.038-0.049,0.055-0.062
		c0.125-0.098,0.186-0.257,0.158-0.413c-0.21-1.176-0.086-2.018-0.085-2.023c0.011-0.068,0.054-0.144,0.164-0.117
		c0.078,0.013,0.131,0.087,0.118,0.165c-0.031,0.191-0.701,4.712,4.3,7.533c0.069,0.038,0.093,0.126,0.054,0.195
		c-0.037,0.067-0.127,0.093-0.195,0.054c-1.86-1.05-3.167-2.461-3.883-4.193c-0.066-0.159-0.222-0.264-0.396-0.264h0
		c-0.173,0-0.329,0.104-0.396,0.264c-1.716,4.105-5.23,5.271-6.661,5.581c-0.149,0.033-0.27,0.142-0.317,0.287
		c-0.018,0.057-1.8,5.727,1.186,9.929c1.973,2.775,5.564,4.261,10.674,4.418c0.384,0.012,0.759,0.017,1.128,0.017
		c5.527,0,9.371-1.336,11.423-3.971c1.939-2.491,2.26-6.078,0.958-10.659c-0.001-0.02-0.003-0.042-0.004-0.052
		c-0.019-0.153-0.12-0.284-0.263-0.342c-4.4-1.804-4.641-4.968-4.649-5.103c-0.005-0.079,0.055-0.147,0.134-0.152
		c0.084,0,0.146,0.054,0.151,0.137c0.013,0.169,0.396,4.157,6.775,5.56c0.05,0.011,0.077,0.044,0.089,0.063
		c0.012,0.019,0.03,0.057,0.019,0.107c-0.016,0.074-0.079,0.111-0.17,0.109c-0.368-0.081-0.728-0.174-1.1-0.285
		c-0.149-0.046-0.308-0.005-0.419,0.101c-0.112,0.107-0.157,0.266-0.118,0.416c0.109,0.429,0.205,0.849,0.286,1.261
		c0.027,0.136,0.118,0.251,0.244,0.308c0.125,0.056,0.272,0.05,0.392-0.02c0.29-0.17,0.625-0.212,0.968-0.118
		c0.192,0.052,0.395-0.038,0.49-0.214c3.853-7.271-3.009-11.743-3.334-11.957c-2.583-2.931-6.097-4.418-10.443-4.418
		c-4.14,0-7.503,1.395-7.531,1.407c-0.031,0.01-0.068,0.011-0.067,0.014c-0.766,0.003-7.54,0.216-9.659,6.787
		c-1.086,3.366-0.164,6.517,0.145,7.403C362.691,321.36,362.844,321.473,363.018,321.482z"/>
	<path fill="#FFFFFF" d="M365.436,357.045l-5.106-2.442c-0.176-0.084-0.387-0.038-0.513,0.112c-0.424,0.506-1.116,1.513-0.987,2.558
		c0.093,0.751,0.602,1.399,1.515,1.926c0.595,0.343,1.203,0.517,1.81,0.517c1.646,0,2.86-1.268,3.437-2.024
		c0.079-0.103,0.106-0.235,0.077-0.361C365.638,357.205,365.553,357.1,365.436,357.045z"/>
	<path fill="#C5C5C0" d="M385.696,354.331c-0.061-0.216-0.279-0.344-0.495-0.303c-1.006,0.199-2.727,0.437-5.218,0.437
		c-3.599,0-7.69-0.49-12.157-1.458c-0.219-0.046-0.443,0.086-0.504,0.305l-0.809,2.936c-0.006,0.019-0.01,0.04-0.012,0.06
		c-0.001,0.011-0.002,0.022-0.003,0.034c-0.397,2.046-0.038,4.162,0.15,5.26c0.036,0.206,0.214,0.356,0.423,0.356h10.436
		c0.122,0,0.238-0.052,0.319-0.143c0.082-0.091,0.121-0.211,0.107-0.333l-0.321-2.542c-0.009-0.078,0.048-0.149,0.137-0.158
		c0.079,0,0.14,0.052,0.148,0.126l0.335,2.669c0.024,0.217,0.207,0.381,0.426,0.381h7.23c0.114,0,0.223-0.045,0.303-0.126
		c0.08-0.081,0.126-0.19,0.125-0.304c-0.027-6.028-0.427-6.796-0.56-7.086C385.744,354.417,385.711,354.352,385.696,354.331z"/>
	<path fill="#FFFFFF" d="M397.121,341.736l-3.853-5.065c-0.084-0.11-0.205-0.167-0.355-0.169c-0.138,0.005-0.267,0.077-0.343,0.193
		l-1.319,1.993l-1.714,2c-0.027,0.032-0.066,0.05-0.131,0.051c-0.025,0-0.057-0.018-0.084-0.048
		c-2.072-2.316-5.133-5.428-5.593-5.894c-0.1-0.123-0.259-0.181-0.416-0.15c-1.784,0.359-3.843,0.505-6.131,0.434
		c-2.074-0.063-3.935-0.353-5.534-0.861c-0.117-0.038-0.3,0.001-0.406,0.065c-0.268,0.059-6.621,1.65-10.985,19.587
		c-0.048,0.197,0.049,0.401,0.232,0.488l5.059,2.42c0.058,0.028,0.122,0.042,0.185,0.042c0.061,0,0.121-0.013,0.178-0.038
		c0.115-0.053,0.201-0.154,0.235-0.276l4.056-14.705c0.02-0.071,0.09-0.098,0.175-0.099c0.05,0.014,0.076,0.049,0.087,0.068
		c0.01,0.019,0.027,0.058,0.013,0.108l-2.849,10.329c-0.032,0.113-0.014,0.235,0.046,0.336c0.061,0.101,0.161,0.172,0.276,0.197
		c4.393,0.946,8.438,1.426,12.021,1.426c3.026,0,4.904-0.344,5.755-0.549c0.204-0.05,0.342-0.239,0.327-0.448l-0.892-12.114
		c-0.004-0.051,0.019-0.087,0.034-0.103c0.015-0.017,0.046-0.046,0.117-0.05c0.058,0,0.128,0.054,0.134,0.132l0.242,3.287
		c0.005,0.066,0.025,0.128,0.057,0.185c0.092,0.156,2.255,3.812,4.043,3.812c0.126,0,0.247-0.017,0.361-0.052
		c1.706-0.512,6.411-5.419,6.942-5.977C397.236,342.138,397.248,341.903,397.121,341.736z"/>
</g>
<path fill="#B5B5B6" d="M395.016,315.834c-0.013-0.019-0.03-0.031-0.044-0.048c-0.175-0.896-0.558-1.731-1.283-2.353
	c-0.118-0.101-0.247-0.135-0.372-0.136c-0.586-0.847-1.336-1.598-2.22-2.222c-1.629-3.081-5.818-4.628-8.966-5.329
	c-2.707-0.603-7.278-0.463-9.94,1.173c-4.126-0.26-8.09,2.755-9.476,6.566c-0.498,1.369-1.678,8.02,1.094,7.977
	c0.199,0.526,1.113,0.465,1.099-0.197c-0.035-1.644,3.096-2.342,4.33-3.31c1.655-1.298,2.568-3.171,3.262-5.101
	c0.786,2.507,1.807,5.002,4.485,6.078c1.473,0.592,3.671,1.418,5.311,0.979c1.585-0.424,3.665,0.221,5.361,0.224
	c1.026,0.003,1.955,0.387,3.002,0.35c0.386-0.013,0.399,0.789,0.618,1.007c0.089,0.089,0.18,0.163,0.27,0.226
	c0.003,0.008,0.003,0.017,0.007,0.025c0.298,0.646,1.243,0.489,1.788,0.358c0.317-0.076,0.426-0.334,0.396-0.583
	C395.147,320.588,395.931,317.192,395.016,315.834z"/>
<g>
	<path fill="#231815" d="M413.499,252.905c-0.844-1.013-3.044-2.603-5.329-1.37c-1.508,0.815-2.035,1.872-2.056,1.917
		c-0.137,0.282-0.02,0.619,0.26,0.759c0.081,0.041,0.167,0.06,0.253,0.06c0.209,0,0.411-0.115,0.512-0.314
		c0.004-0.008,0.411-0.787,1.574-1.416c2.026-1.095,3.828,1.001,3.908,1.097c0.202,0.241,0.562,0.274,0.804,0.072
		C413.668,253.508,413.701,253.147,413.499,252.905z"/>
	<path fill="#231815" d="M422.424,265.391c0.278-0.149,0.382-0.496,0.232-0.774c-0.15-0.278-0.496-0.381-0.774-0.232
		c-0.039,0.021-4.022,2.123-7.909,0.274c-0.284-0.135-0.626-0.015-0.761,0.271c-0.135,0.285-0.014,0.626,0.271,0.761
		c1.37,0.651,2.736,0.878,3.972,0.878C420.192,266.569,422.299,265.459,422.424,265.391z"/>
	<path fill="#231815" d="M417.918,261.557c0.009,0,0.017,0,0.026-0.001c0.316-0.014,0.56-0.281,0.546-0.596l-0.144-3.261
		c-0.014-0.316-0.299-0.557-0.596-0.546c-0.315,0.014-0.56,0.281-0.546,0.596l0.144,3.261
		C417.362,261.318,417.614,261.557,417.918,261.557z"/>
	<path fill="#231815" d="M437.364,305.281l-0.013-0.691c-0.006-0.316-0.271-0.542-0.582-0.561c-0.316,0.007-0.566,0.267-0.561,0.583
		l0.013,0.692c0.12,6.265,0.257,13.361,0.535,20.822c-0.182,0.215-0.834,0.757-2.553,0.742l-0.108-5.164
		c-0.188-9.79-0.621-37.027-0.625-37.301c-0.005-0.312-0.26-0.562-0.571-0.562c-0.003,0-0.006,0-0.009,0
		c-0.315,0.005-0.567,0.265-0.562,0.581c0.004,0.274,0.437,27.512,0.625,37.305l0.176,8.406c-0.109-0.036-0.226-0.05-0.343-0.013
		c-2.02,0.622-9.061,0.442-11.075,0.375l-0.608-50.628l2.901,1.616c0.163,0.09,0.359,0.097,0.526,0.016
		c0.168-0.081,0.285-0.238,0.316-0.421l1.117-6.703c2.993,0.937,6.714,2.528,8.072,3.79c1.644,1.526,1.901,13.429,2.071,21.306
		c0.007,0.311,0.261,0.559,0.571,0.559c0.004,0,0.008,0,0.012,0c0.316-0.007,0.566-0.268,0.559-0.583
		c-0.297-13.729-0.738-20.541-2.436-22.119c-1.525-1.416-5.469-3.109-8.683-4.096c-0.016-0.22-0.151-0.418-0.366-0.497l-3.537-1.293
		c2.988-1.596,6.842-5.225,7.654-6.568c0.263-0.435,0.46-1.156,0.608-2.016c0.083,0.043,0.171,0.071,0.262,0.071
		c0.132,0,0.266-0.046,0.373-0.139c2.756-2.382,3.44-4.59,2.094-6.747c-0.226-0.362-0.469-0.642-0.727-0.849
		c0.286-0.817,1.028-3.276,1.075-6.96c0.043-3.365-2.951-8.675-8.036-11.735c-3.689-2.219-9.674-3.995-17.261,0.132
		c-0.584,0.202-5.326,1.969-7.759,6.801c-1.773,3.523-1.855,7.761-0.244,12.594c0.03,0.091,0.086,0.163,0.15,0.225
		c-0.238,0.407-0.347,0.931-0.299,1.593c0.102,1.389,0.413,5.603,4.198,6.001c0.195,0.699,0.426,1.367,0.707,1.958
		c0.756,1.59,3.504,3.256,6.027,4.501c-0.002,0.027-0.013,0.052-0.011,0.08l0.05,0.753l-0.034-0.041
		c-0.17-0.204-0.457-0.264-0.694-0.146c-0.036,0.018-0.906,0.452-1.758,0.962c-1.356,0.81-2.075,1.412-1.736,2.091
		c0.017,0.034,0.044,0.083,0.075,0.138c-1.543,0.613-6.857,2.773-9.032,4.278c-2.144,1.485-5.036,17.863-5.749,32.294
		c-0.696-0.677-1.285-1.101-1.487-1.239c-6.717-7.542-17.451-3.645-18.638-3.181c-1.009,0.034-8.045,0.515-10.228,7.281
		c-1.122,3.477-0.27,6.643,0.119,7.775c-0.49,0.342-0.796,0.947-0.931,1.847c-0.137,0.909,0.098,1.782,0.66,2.461
		c0.618,0.745,1.581,1.197,2.645,1.242c0.255,1.302,0.749,2.647,1.626,3.885c0.987,1.392,2.346,2.476,4.056,3.257
		c-2.178,1.194-7.005,5.409-10.493,19.962c-0.388,0.413-1.559,1.801-1.371,3.351c0.12,0.989,0.748,1.817,1.867,2.464
		c0.759,0.437,1.485,0.618,2.163,0.618c1.41,0,2.61-0.782,3.46-1.66c0.048,1.836,0.407,3.368,0.429,3.46
		c0.061,0.257,0.291,0.438,0.556,0.438h19.864c0.316,0,0.571-0.256,0.571-0.571c0-5.835-0.341-7.43-0.588-7.948
		c0.229-0.093,0.376-0.319,0.357-0.567l-0.518-7.025c0.914,1.171,2.221,2.47,3.527,2.469c0.182,0,0.364-0.025,0.544-0.079
		c1.995-0.598,7.025-5.92,7.592-6.525c0.191-0.203,0.206-0.515,0.038-0.737l-0.37-0.486c0.236-0.2,0.461-0.395,0.665-0.581
		c0.223,0.086,0.443,0.144,0.66,0.144c0.174,0,0.346-0.028,0.516-0.084c0.296-0.099,0.553-0.279,0.774-0.51l0.539,21.552
		c0.007,0.31,0.261,0.557,0.571,0.557h31.043c0.106,0,0.2-0.037,0.286-0.088c0.084,0.05,0.177,0.087,0.282,0.088
		c0.002,0,0.003,0,0.004,0c0.314,0,0.569-0.254,0.571-0.568l0.159-25.248c4.671-2.093,3.886-8.127,3.677-9.331
		c0.338-0.291,0.47-0.557,0.499-0.624c0.034-0.077,0.049-0.162,0.046-0.246C437.623,318.747,437.486,311.593,437.364,305.281z
		 M422.383,272.715l2.542,0.929l-1.074,6.446l-2.655-1.478c0.554-1.941,0.799-3.511,0.981-4.68
		C422.251,273.462,422.314,273.053,422.383,272.715z M430.653,261.674c0.213-1.888,0.259-4.085,0.263-5.493
		c0.09-0.092,0.292-0.267,0.515-0.254c0.245,0.012,0.536,0.268,0.818,0.72C432.916,257.716,433.314,259.25,430.653,261.674z
		 M401.257,257.76c-0.029-0.395-0.003-0.908,0.283-1.112c0.389-0.276,1.244-0.049,1.597,0.103c0.071,0.031,0.146,0.046,0.219,0.047
		c0.023,0.796,0.138,3.35,0.667,5.842C402.356,262.262,401.472,260.698,401.257,257.76z M403.26,253.058
		c-0.028,0.072-0.04,0.149-0.037,0.227l0.09,2.312c-0.434-0.149-1.277-0.362-2.014-0.097c-1.454-4.459-1.38-8.342,0.225-11.542
		c2.319-4.62,7.105-6.244,7.153-6.259c0.033-0.011,0.065-0.025,0.096-0.042c7.134-3.898,12.73-2.249,16.168-0.18
		c4.671,2.811,7.521,7.764,7.483,10.742c-0.045,3.459-0.743,5.81-1.003,6.57c-0.186-0.002-0.358,0.025-0.513,0.077
		c-0.001-0.018-0.001-0.039-0.001-0.053c0-0.024-0.002-0.048-0.006-0.072c-0.884-6.019-11.673-12.09-12.133-12.346
		c-0.243-0.136-0.549-0.076-0.723,0.141c-0.175,0.218-0.167,0.529,0.018,0.737c0.023,0.026,1.797,2.029,3.824,4.773
		c-3.157-2.142-8.356-5.347-11.764-5.757c-0.231-0.029-0.452,0.085-0.566,0.285c-0.02,0.036-1.618,2.871-3.043,6.461l0.009-1.385
		c0.002-0.276-0.194-0.514-0.466-0.565c-0.272-0.053-0.541,0.099-0.639,0.357L403.26,253.058z M406.055,265.312
		c-1.467-3.088-1.561-8.728-1.563-8.799l-0.123-3.155l0.99-2.578l-0.01,1.632c-0.002,0.283,0.204,0.525,0.484,0.568
		c0.279,0.041,0.55-0.126,0.633-0.397c1.252-4.07,3.275-7.953,3.897-9.103c4.847,0.864,13.46,7.339,13.549,7.406
		c0.031,0.024,0.067,0.035,0.101,0.051c-0.094-0.041-0.186-0.083-0.282-0.121c-2.413-0.938-4.498,1.809-4.586,1.926
		c-0.189,0.253-0.137,0.611,0.116,0.8c0.103,0.077,0.223,0.113,0.341,0.113c0.174,0,0.346-0.079,0.459-0.23
		c0.016-0.022,1.669-2.161,3.256-1.545c1.173,0.457,2.236,1.258,2.247,1.266c0.251,0.19,0.61,0.141,0.8-0.11
		c0.191-0.251,0.142-0.609-0.109-0.8c-0.044-0.033-0.985-0.74-2.142-1.257c0.185,0.048,0.388,0.004,0.535-0.133
		c0.203-0.19,0.239-0.5,0.086-0.732c-1.203-1.818-2.477-3.513-3.526-4.839c3.235,2.204,8.004,6.009,8.558,9.595
		c0.041,2.191-0.035,8.044-0.862,9.411c-0.758,1.252-5.115,5.256-7.83,6.452c-0.115,0.012-0.214,0.06-0.298,0.13
		c-0.185,0.07-0.361,0.127-0.526,0.163c-1.226,0.278-2.096,0.408-2.74,0.408h0c-0.587,0-0.969-0.1-1.528-0.266
		C414.578,270.754,407.129,267.57,406.055,265.312z M420.513,325.935l-2.087,0.297l-0.572-46.769
		c0.001-0.092-0.021-0.187-0.067-0.274c-0.02-0.038-0.045-0.074-0.073-0.105l-2.57-3.085c0.668,0.244,1.36,0.377,2.09,0.377
		c0.712,0,1.458-0.115,2.247-0.34c0.502-0.143,0.923-0.319,1.271-0.522c-0.175,0.926-0.413,1.993-0.775,3.198
		c-0.02,0.063-0.029,0.129-0.027,0.193L420.513,325.935z M420.714,274.022c-0.091,0.203-0.412,0.591-1.549,0.916
		c-2.759,0.789-4.753,0.049-6.848-2.551l-0.102-1.529c1.703,0.781,3.115,1.31,3.441,1.407c0.619,0.183,1.115,0.313,1.853,0.313h0
		c0.741,0,1.663-0.134,2.992-0.436c0.03-0.007,0.065-0.021,0.096-0.029l0.059,1.305c0.004,0.078,0.033,0.173,0.066,0.243
		C420.732,273.677,420.8,273.829,420.714,274.022z M410.47,272.177l5.925,7.11l-3.631,1.944c-1.371-2.136-4.106-6.415-4.754-7.526
		C408.37,273.361,409.44,272.714,410.47,272.177z M398.561,279.358c2.14-1.481,7.766-3.744,8.979-4.225
		c1.336,2.164,4.155,6.549,4.548,7.159c0.161,0.251,0.488,0.334,0.75,0.195l3.884-2.08l0.608,49.73
		c-1.672,0.119-7.156,0.425-14.006-0.039c-0.111-1.454-0.246-2.664-0.271-2.884c0.035-1.276,0.83-31.382-1.591-43.297
		c-0.062-0.309-0.364-0.509-0.674-0.446c-0.309,0.063-0.509,0.365-0.446,0.674c2.265,11.151,1.679,38.574,1.579,42.586l-8.275,1.013
		c-0.029-0.254-0.057-0.51-0.084-0.767c-0.002-0.016-0.011-0.029-0.014-0.044c1.307-0.985,1.458-2.117,1.444-2.647
		c-0.02-0.75-0.355-1.46-0.862-1.951c2.469-4.614,0.866-8.229-0.904-10.447c0.01-0.038,0.026-0.074,0.028-0.115
		C393.97,294.963,397.212,280.293,398.561,279.358z M392.136,326.464c0.099-1.004,0.073-2.085-0.074-3.237
		c0.052-0.034,0.103-0.072,0.143-0.124c0.191-0.248,0.409-0.32,0.685-0.232c0.458,0.149,0.942,0.73,0.961,1.447
		C393.874,325.152,393.268,325.9,392.136,326.464z M392.481,327.567c0.033,0.296,0.064,0.594,0.1,0.885
		c0.036,0.289,0.282,0.5,0.566,0.5c0.023,0,0.046-0.001,0.07-0.005l1.934-0.236c-0.095,0.794-0.179,2.128-0.146,3.605
		c-1.148,0.618-1.763,2.004-2.076,3.061c-0.018-0.001-0.036-0.005-0.054-0.003c-0.185,0.006-0.356,0.101-0.458,0.256l-1.732,2.622
		l-1.268,1.48c-1.683-1.851-3.796-4.024-4.726-4.974c2.468-0.694,4.348-1.853,5.612-3.478c0.782-1.005,1.323-2.168,1.62-3.483
		c0.011-0.003,0.023-0.002,0.034-0.006C392.144,327.718,392.317,327.644,392.481,327.567z M364.133,325.728
		c-0.65-0.077-1.226-0.354-1.596-0.801c-0.357-0.43-0.499-0.971-0.41-1.562c0.063-0.421,0.203-0.957,0.512-1.117
		c0.284-0.145,0.803-0.03,1.538,0.336C364.071,323.481,364.02,324.568,364.133,325.728z M366.865,330.129
		c-2.831-3.983-1.145-9.495-1.128-9.55c0-0.001,0-0.001,0-0.001c1.406-0.303,5.155-1.503,6.966-5.834
		c0.613,1.482,1.799,3.122,4.07,4.403c0.089,0.05,0.185,0.073,0.28,0.073c0.199,0,0.393-0.104,0.498-0.291
		c0.155-0.275,0.058-0.623-0.217-0.778c-4.734-2.67-4.117-6.912-4.088-7.091c0.051-0.311-0.159-0.604-0.47-0.656
		c-0.312-0.054-0.606,0.159-0.658,0.47c-0.004,0.022-0.139,0.913,0.086,2.168c-0.089,0.071-0.165,0.159-0.201,0.275
		c-1.715,5.635-6.714,6.198-6.925,6.22c-0.314,0.03-0.543,0.309-0.514,0.622c0.006,0.064,0.027,0.123,0.052,0.178
		c-0.05,0.174-0.152,0.549-0.255,1.072c-0.402-0.179-0.863-0.332-1.324-0.354c-0.315-0.905-1.182-3.907-0.141-7.13
		c2.081-6.451,8.945-6.503,9.253-6.49c0.066,0.002,0.154-0.015,0.226-0.046c0.109-0.046,10.964-4.508,17.492,2.898
		c0.035,0.041,0.077,0.076,0.123,0.105c0.285,0.181,6.821,4.449,3.154,11.368c-0.459-0.123-0.908-0.062-1.295,0.163
		c-0.082-0.42-0.18-0.848-0.292-1.285c0.357,0.106,0.732,0.205,1.131,0.292c0.041,0.009,0.083,0.013,0.124,0.013
		c0.262,0,0.499-0.182,0.557-0.449c0.068-0.308-0.127-0.613-0.435-0.681c-6.069-1.335-6.426-5.011-6.439-5.176
		c-0.021-0.314-0.289-0.547-0.606-0.531c-0.315,0.019-0.555,0.291-0.535,0.606c0.01,0.165,0.286,3.575,4.915,5.473
		c0.004,0.027-0.001,0.052,0.006,0.078c1.275,4.463,0.981,7.933-0.873,10.316c-2.1,2.696-6.213,3.975-12.2,3.789
		C372.233,334.215,368.755,332.789,366.865,330.129z M360.559,358.827c-0.79-0.456-1.228-0.996-1.303-1.607
		c-0.11-0.89,0.518-1.787,0.89-2.232l5.107,2.443C364.537,358.366,362.803,360.121,360.559,358.827z M378.653,361.53l-0.333-2.675
		c-0.039-0.314-0.327-0.541-0.638-0.497c-0.313,0.039-0.535,0.324-0.496,0.637l0.315,2.535H367.06
		c-0.177-0.939-0.521-3.211-0.135-5.141c0.002-0.009-0.002-0.017,0-0.026l0.81-2.937c5.212,1.129,9.269,1.467,12.247,1.467
		c2.529,0,4.279-0.242,5.31-0.446c0.027,0.096,0.07,0.185,0.14,0.252c0.094,0.236,0.431,1.457,0.454,6.832H378.653z
		 M390.025,347.857c-1.184,0.356-3.107-2.194-3.911-3.565l-0.242-3.287c-0.024-0.315-0.296-0.557-0.612-0.528
		c-0.315,0.023-0.551,0.297-0.528,0.612l0.892,12.113c-1.52,0.367-7.197,1.36-17.586-0.879l2.849-10.329
		c0.084-0.304-0.095-0.619-0.399-0.703c-0.306-0.083-0.619,0.095-0.703,0.399l-4.056,14.703l-5.059-2.419
		c4.309-17.713,10.559-19.248,10.661-19.27c0.068-0.013,0.128-0.042,0.184-0.076c1.63,0.518,3.513,0.816,5.65,0.881
		c0.384,0.011,0.761,0.017,1.131,0.017c1.887,0,3.585-0.155,5.097-0.459c0.002,0.002,0.003,0.005,0.005,0.007
		c0.034,0.034,3.385,3.425,5.602,5.903c0.11,0.122,0.273,0.195,0.432,0.19c0.165-0.002,0.321-0.075,0.428-0.2l1.714-1.999
		c0.015-0.018,0.03-0.037,0.043-0.056l1.308-1.981l3.853,5.065C394.611,344.275,391.25,347.49,390.025,347.857z M396.921,340.293
		l-3.047-4.006c0.19-0.855,0.811-3.014,2.263-3.146c0.458-0.042,0.814,0.1,0.928,0.262c0.071,0.101,0.06,0.252-0.031,0.451
		c-0.078,0.167-0.394,0.298-0.701,0.424c-0.29,0.119-0.591,0.243-0.84,0.448c-0.185,0.152-0.248,0.394-0.182,0.61
		c-0.02,0.077-0.027,0.158-0.013,0.241c0.338,1.948,0.953,3.378,1.826,4.253c0.055,0.054,0.108,0.093,0.162,0.142
		C397.166,340.079,397.05,340.184,396.921,340.293z M400.756,333.063c0.062-0.309-0.139-0.61-0.448-0.672
		c-0.31-0.065-0.61,0.138-0.672,0.448c-0.022,0.111-0.2,1.147,0.389,3.309c0.095,0.35,0.216,0.611,0.349,0.816
		c-0.162,0.979-0.658,2.429-1.278,2.634c-0.368,0.123-0.834-0.246-1.163-0.575c-0.691-0.691-1.191-1.886-1.49-3.546
		c0.1-0.048,0.213-0.095,0.325-0.141c0.462-0.191,1.037-0.427,1.302-1.001c0.361-0.78,0.11-1.331-0.072-1.588
		c-0.359-0.509-1.063-0.786-1.855-0.746c-0.018-1.586,0.101-2.917,0.179-3.433l5.653-0.692c0.14,1.355,0.464,4.798,0.317,6.553
		c-0.114,1.37-0.698,2.025-0.85,2.048c-0.042-0.018-0.19-0.173-0.314-0.627C400.61,333.952,400.756,333.065,400.756,333.063z
		 M432.573,331.424l-0.187,29.714c-0.001,0-0.003,0-0.004,0h-12.377l0.189-30.47c0.002-0.315-0.252-0.573-0.568-0.575
		c-0.001,0-0.002,0-0.004,0c-0.314,0-0.569,0.253-0.571,0.568l-0.189,30.476h-16.966l-0.558-22.298
		c-0.004-0.149-0.068-0.28-0.166-0.379c0.106-0.313,0.183-0.606,0.238-0.848c0.007,0.001,0.015,0.001,0.022,0.001
		c0.036,0,0.069-0.001,0.097-0.004c0.96-0.089,1.76-1.387,1.902-3.088c0.072-0.865,0.04-2.08-0.029-3.274
		c2.71,0.179,5.208,0.241,7.341,0.241c4.343,0,7.175-0.25,7.217-0.254c0.297-0.028,0.523-0.278,0.52-0.577l-0.04-3.274l2.087-0.297
		l0.048,3.967c0.004,0.304,0.244,0.552,0.548,0.564c0.187,0.008,2.418,0.097,4.958,0.097c2.377,0,5.022-0.079,6.51-0.373
		C432.586,331.369,432.573,331.395,432.573,331.424z M433.692,335.179l0.024-3.748c0-0.001-0.001-0.003-0.001-0.003l0-0.001
		c0.004,0,0.008,0,0.012,0c0.316-0.007,0.566-0.268,0.56-0.583l-0.059-2.829c0.021,0,0.045,0.002,0.065,0.002
		c0.85,0,1.502-0.122,2.004-0.296C436.502,329.223,436.763,333.403,433.692,335.179z"/>
	<path fill="#231815" d="M382.037,319.852c0.06,0.02,0.121,0.03,0.181,0.03c0.239,0,0.462-0.151,0.542-0.391
		c0.1-0.299-0.062-0.623-0.362-0.722c-4.337-1.446-4.759-5.558-4.776-5.732c-0.028-0.314-0.296-0.553-0.618-0.519
		c-0.314,0.027-0.547,0.303-0.52,0.618C376.502,313.34,376.972,318.164,382.037,319.852z"/>
	<path fill="#231815" d="M385.379,320.028c-0.993,0.032-1.773,0.489-2.174,0.89c-0.222,0.222-0.222,0.579-0.002,0.803
		c0.22,0.224,0.581,0.226,0.806,0.009c0.143-0.139,1.447-1.306,3.353,0.175c0.104,0.082,0.228,0.121,0.35,0.121
		c0.17,0,0.339-0.076,0.452-0.22c0.193-0.25,0.149-0.608-0.101-0.802c-0.304-0.236-0.602-0.418-0.894-0.562
		c0.114-0.077,0.202-0.191,0.237-0.335c0.074-0.307-0.115-0.616-0.422-0.689c-3.353-0.809-4.663-4.877-4.727-5.423
		c-0.01-0.307-0.262-0.552-0.571-0.552c-0.316,0-0.571,0.255-0.571,0.571C381.117,314.401,382.176,318.405,385.379,320.028z"/>
	<path fill="#231815" d="M381.947,330.321c0.23-0.217,0.24-0.578,0.023-0.808c-0.217-0.229-0.579-0.239-0.807-0.023
		c-1.919,1.81-3.543,0.425-3.721,0.26c-0.23-0.214-0.591-0.201-0.805,0.029c-0.216,0.23-0.204,0.592,0.026,0.807
		c0.486,0.455,1.394,0.966,2.484,0.966C380.007,331.553,380.98,331.234,381.947,330.321z"/>
	<path fill="#231815" d="M368.836,320.761c-0.222,0.222-0.221,0.579-0.002,0.803c0.221,0.224,0.581,0.226,0.807,0.008
		c0.142-0.138,1.447-1.305,3.353,0.176c0.104,0.081,0.228,0.121,0.35,0.121c0.17,0,0.339-0.076,0.451-0.221
		c0.194-0.249,0.149-0.608-0.1-0.802C371.494,319.134,369.554,320.042,368.836,320.761z"/>
</g>
<circle fill="#231815" cx="372.144" cy="325.74" r="1.428"/>
<circle fill="#231815" cx="385.286" cy="325.74" r="1.428"/>
<g>
	<g>
		<path fill="#FFFFFF" d="M444.69,286.943c0.058,0.028,0.122,0.042,0.185,0.042c0.087,0,0.172-0.026,0.246-0.078
			c2.74-1.919,8.24-2.997,9.86-3.281c0.205-0.036,0.354-0.213,0.354-0.422v-2.238c0-0.17-0.1-0.324-0.256-0.392
			c-3.044-1.336-6.362-3.893-7.154-4.841c-1.06-1.267-1.761-8.382-2.043-14.129c0.002-0.025,0.002-0.049,0-0.072
			c-0.011-0.131-0.081-0.249-0.19-0.322c-0.039-0.026-0.061-0.055-0.066-0.09c-0.72-4.318,2.066-7.013,2.185-7.126
			c0.063-0.06,0.121-0.081,0.202,0.005c0.034,0.035,0.04,0.074,0.039,0.101c-0.001,0.022-0.007,0.065-0.046,0.102
			c-0.114,0.109-2.773,2.72-2.105,6.832c-0.001,0.021-0.002,0.048-0.002,0.059c0.003,0.142,0.075,0.273,0.194,0.35
			c0.021,0.013,0.071,0.052,0.073,0.107c0.006,0.123,0.614,12.366,1.979,13.997c1.329,1.589,7.208,5.636,10.338,5.635
			c0.21,0,0.408-0.017,0.591-0.051c3.214-0.603,10.192-4.436,10.957-6.35c0.79-1.975,1.928-10.484,1.975-10.846
			c0.004-0.03,0.022-0.058,0.052-0.084c0.097-0.084,0.152-0.207,0.148-0.335c-0.003-0.129-0.064-0.249-0.166-0.328
			c-6.068-4.702-7.395-10.411-7.448-10.652c-0.017-0.077,0.032-0.153,0.136-0.173c0.058,0,0.126,0.038,0.142,0.112
			c0.015,0.066,1.578,6.622,8.544,11.358c0.066,0.044,0.082,0.133,0.038,0.199c-0.088,0.128-0.156,0.067-0.199,0.038
			c-0.075-0.051-0.148-0.103-0.221-0.155l-0.095-0.068c-0.122-0.086-0.281-0.103-0.418-0.043c-0.138,0.06-0.234,0.187-0.254,0.335
			c-0.121,0.9-1.21,8.847-1.971,10.747c-0.525,1.311-3.792,3.583-7.6,5.284c-0.182,0.081-0.284,0.277-0.246,0.473
			c0.004,0.018,0.009,0.036,0.014,0.055l0.162,1.94c0.015,0.19,0.156,0.347,0.343,0.384c1.85,0.367,8.135,1.716,11.34,3.66
			c0.125,0.075,0.279,0.082,0.411,0.018c0.132-0.064,0.22-0.191,0.237-0.336c0.438-3.798,2.495-23.167-0.045-31.514
			c-2.755-9.054-13.696-9.443-13.781-9.444c-0.087-0.007-0.406-0.031-0.909-0.031c-3.168,0-13.687,0.966-16.072,13.398
			c-0.773,4.379-0.673,13.735,0.297,27.809C444.457,286.74,444.55,286.877,444.69,286.943z"/>
		<path fill="#FFFFFF" d="M453.076,285.299c0.034,0.377,0.281,1.097,0.862,1.886c0.559,0.756,1.817,2.073,3.975,2.396
			c0.414,0.062,0.83,0.094,1.234,0.094c3.8,0,6.167-2.685,7.048-5.001c0.011-0.016,0.029-0.042,0.034-0.051
			c0.07-0.117,0.08-0.26,0.027-0.385c-0.052-0.126-0.16-0.219-0.292-0.251c-1.211-0.3-2.476-0.578-3.472-0.763
			c-0.063-0.012-0.11-0.065-0.116-0.129l-0.175-2.102c-0.011-0.135-0.086-0.257-0.201-0.329c-0.117-0.071-0.258-0.084-0.385-0.034
			c-0.984,0.392-1.846,0.662-2.491,0.783c-0.745,0.143-1.74,0.009-2.937-0.401c-0.131-0.046-0.275-0.024-0.388,0.056
			c-0.113,0.08-0.18,0.21-0.18,0.348v2.271c0,0.071-0.051,0.131-0.121,0.141c-0.564,0.088-1.285,0.223-2.031,0.382
			c-0.131,0.028-0.242,0.116-0.299,0.238c-0.057,0.121-0.053,0.263,0.009,0.382c0.003,0.006,0.015,0.026,0.026,0.043
			c0.006,0.04-0.005,0.081-0.031,0.112C453.101,285.074,453.066,285.186,453.076,285.299z"/>
		<path fill="#D3D3D4" d="M442.738,299.33c0.73,0.26,1.353,0.683,1.906,1.291c0.214,0.235,0.345,0.508,0.472,0.772
			c0.063,0.132,0.189,0.222,0.333,0.241c0.005,0,0.023,0.005,0.062,0.034c0.182,0.138,0.441,0.109,0.589-0.068
			c0.672-0.813,1.408-1.519,2.188-2.099c0.093-0.068,0.153-0.172,0.169-0.286c0.015-0.114-0.016-0.23-0.087-0.321
			c-0.017-0.021-0.036-0.056-0.032-0.099l0.571-6c0.007-0.075,0.06-0.128,0.151-0.128c0.001,0,0.003,0,0.004,0
			c0.051,0.004,0.082,0.034,0.096,0.051c0.014,0.017,0.037,0.053,0.032,0.104l-0.533,5.595c-0.015,0.16,0.061,0.315,0.196,0.402
			c0.136,0.086,0.309,0.09,0.447,0.008c1.721-1.009,3.661-1.521,5.765-1.521c1.861,0,3.296,0.404,3.826,0.579
			c0.087,0.028,0.183,0.028,0.271-0.001c0.532-0.18,1.975-0.599,3.853-0.599c2.21,0,4.245,0.573,6.048,1.703
			c0.138,0.086,0.312,0.087,0.451,0.003c0.138-0.084,0.218-0.24,0.204-0.401l-0.243-2.912c-0.004-0.048,0.016-0.084,0.034-0.104
			c0.017-0.02,0.048-0.046,0.127-0.052c0.062,0,0.118,0.059,0.124,0.133l0.285,3.427c0.002,0.022-0.008,0.05-0.03,0.084
			c-0.117,0.185-0.076,0.428,0.096,0.565c0.789,0.624,1.533,1.381,2.216,2.248c0.081,0.103,0.205,0.164,0.337,0.164
			c0.007,0,0.014,0,0.022-0.001c0.139-0.007,0.266-0.081,0.34-0.199c0.583-0.926,1.922-1.76,3.581-2.23
			c0.171-0.048,0.294-0.197,0.31-0.373c0.721-7.905-0.919-10.677-1.439-11.338c-1.225-1.561-5.277-2.896-8.46-3.742
			c-0.13-0.036-0.27-0.006-0.376,0.078c-0.106,0.084-0.167,0.214-0.163,0.349c0.001,0.022-0.002,0.041-0.009,0.058
			c-0.903,2.407-3.361,5.218-7.316,5.218c-0.422,0-0.855-0.033-1.288-0.097c-3.312-0.498-4.965-3.25-5.077-4.544
			c-0.01-0.124-0.004-0.231,0.02-0.319c0.039-0.146-0.002-0.301-0.107-0.41c-0.105-0.108-0.256-0.152-0.407-0.118
			c-2.923,0.699-6.68,1.879-7.995,3.555c-0.273,0.415-1.009,3.217-1.847,10.85C442.435,299.078,442.551,299.264,442.738,299.33z"/>
		<path fill="#FFFFFF" d="M470.966,328.414c-0.297-0.284-1.869-1.703-3.564-1.703c-0.463,0-0.882,0.104-1.279,0.318
			c-1.378,0.742-1.658,1.858-1.703,2.458c-0.069,0.917,0.323,1.838,1,2.345c0.844,0.633,2.355,1.372,3.832,1.372
			c1.152,0,2.09-0.443,2.79-1.316c0.012-0.015,0.024-0.032,0.034-0.048c0.487-0.815,0.475-1.668-1.084-3.401
			C470.984,328.431,470.976,328.422,470.966,328.414z"/>
		<path fill="#FFFFFF" d="M446.958,328.012c-1.543,1.715-1.55,2.564-1.063,3.378c0.01,0.017,0.021,0.033,0.034,0.048
			c0.7,0.873,1.638,1.317,2.789,1.317c1.478,0,2.989-0.739,3.833-1.373c0.676-0.507,1.069-1.427,1-2.345
			c-0.045-0.6-0.326-1.717-1.702-2.458c-0.398-0.214-0.816-0.318-1.279-0.318C448.729,326.261,447.044,327.924,446.958,328.012z"/>
		<path fill="#D3D3D4" d="M446.027,328.372c0.018,0.002,0.037,0.003,0.055,0.003c0.127,0,0.249-0.057,0.331-0.157l0.045-0.055
			c0.098-0.12,0.195-0.238,0.294-0.349c0.018-0.018,1.793-1.791,3.744-1.834c0.192-0.005,0.358-0.136,0.405-0.322
			c0.048-0.185-0.034-0.381-0.2-0.477c-1.217-0.709-2.219-1.64-2.975-2.77c-0.591-0.881-1.044-1.896-1.349-3.017
			c-0.042-0.157-0.17-0.276-0.329-0.308c-0.162-0.034-0.323,0.029-0.422,0.156c-0.025,0.032-0.05,0.051-0.073,0.056
			c-0.723,0.167-1.373,0.042-1.89-0.366c-0.028-0.023-0.054-0.048-0.121-0.111c-0.136-0.128-0.34-0.15-0.503-0.06
			c-0.163,0.092-0.247,0.279-0.209,0.462c0.907,4.307,2.181,7.426,2.86,8.902C445.754,328.26,445.881,328.353,446.027,328.372z"/>
		<path fill="#FFFFFF" d="M445.82,314.571c-0.081-0.085-0.192-0.132-0.309-0.132c-0.001,0-0.002,0-0.004,0
			c-0.898,0.007-1.676,0.048-2.095,0.47c-0.311,0.314-0.454,0.862-0.45,1.726c0.004,0.853,0.34,1.646,0.878,2.072
			c0.316,0.25,0.689,0.377,1.109,0.377c0.173,0,0.355-0.022,0.555-0.066c0.021,0,0.047,0.007,0.075,0.02
			c0.146,0.07,0.32,0.052,0.448-0.048c0.128-0.099,0.189-0.262,0.157-0.421c-0.228-1.151-0.311-2.388-0.246-3.679
			C445.945,314.771,445.902,314.657,445.82,314.571z"/>
		<path fill="#FFEA7E" d="M442.946,315.084c0.075-0.15,0.162-0.273,0.264-0.376c0.027-0.027,0.056-0.048,0.121-0.1
			c0.158-0.127,0.205-0.347,0.114-0.528c-0.298-0.589-0.53-1.216-0.688-1.866c-0.052-0.216-0.259-0.351-0.48-0.322
			c-0.219,0.033-0.377,0.228-0.364,0.449c0.051,0.877,0.127,1.751,0.224,2.6c0.022,0.188,0.165,0.34,0.351,0.373
			c0.025,0.005,0.05,0.007,0.075,0.007C442.723,315.32,442.872,315.231,442.946,315.084z"/>
		<path fill="#FFFFFF" d="M473.175,314.283l0.138,0.058c0.015,0.006,0.034,0.026,0.056,0.056c0.095,0.132,0.254,0.199,0.418,0.173
			c0.16-0.027,0.292-0.142,0.34-0.298c1.68-5.499,0.345-8.539-0.799-10.337c-3.158-5.296-7.329-6.408-10.273-6.408
			c-2.203,0-3.795,0.619-3.969,0.689l0.16,0.397l-0.269-0.397c-0.175-0.067-1.766-0.661-3.937-0.661
			c-2.439,0-5.956,0.764-8.866,4.401c-4.589,5.737-3.497,10.022-2.438,12.066c0.087,0.168,0.272,0.26,0.459,0.224
			c0.391-0.072,0.848-0.089,1.416-0.093c0.216-0.001,0.398-0.164,0.423-0.379c0.042-0.363,0.09-0.673,0.133-0.916
			c0.03-0.167-0.042-0.335-0.182-0.43c-0.024-0.016-0.041-0.034-0.05-0.053c-0.034-0.071-0.004-0.157,0.066-0.191
			c5.487-2.655,9.659-5.895,9.701-5.927c0.013-0.011,0.04-0.017,0.06-0.022c0.183-0.034,0.322-0.181,0.347-0.365
			c0.148-1.11,0.347-1.954,0.445-2.248c0.022-0.067,0.085-0.103,0.181-0.091c0.075,0.024,0.115,0.106,0.091,0.18
			c-0.011,0.036-1.134,3.936-0.355,8.216c0.009,0.05-0.01,0.088-0.023,0.105c-0.013,0.019-0.041,0.05-0.118,0.062
			c-0.058,0-0.126-0.04-0.14-0.117c-0.262-1.439-0.337-3.013-0.224-4.678c0.012-0.166-0.075-0.324-0.221-0.404
			c-0.145-0.081-0.326-0.069-0.46,0.03c-1.205,0.882-4.447,3.157-8.512,5.193c-0.116,0.058-0.198,0.165-0.227,0.29
			c-0.132,0.595-1.216,5.92,1.423,9.849c1.513,2.253,3.969,3.646,7.301,4.144c1.613,0.24,3.154,0.363,4.577,0.363
			c4.14,0,7.335-0.998,9.497-2.966c2.25-2.048,3.358-5.13,3.292-9.157c-0.003-0.169-0.104-0.32-0.259-0.387
			c-5.276-2.27-9.066-5.335-10.856-6.96c-0.132-0.12-0.324-0.146-0.481-0.065c-0.158,0.081-0.251,0.25-0.232,0.427
			c0.097,0.932,0.361,3.249,0.704,4.622c0.013,0.05-0.004,0.089-0.015,0.108s-0.038,0.052-0.123,0.069
			c-0.053,0-0.12-0.034-0.138-0.108c-0.542-2.165-1.095-7.764-0.898-8.365c0.022-0.067,0.084-0.099,0.18-0.091
			c0.074,0.025,0.115,0.101,0.082,0.224c-0.04,0.231-0.022,0.842,0.052,1.817c0.009,0.116,0.064,0.224,0.154,0.298
			c0.016,0.013,0.032,0.025,0.05,0.036c0.414,0.418,4.724,4.668,11.294,7.58c0.177,0.079,0.387,0.027,0.509-0.126
			c0.028-0.035,0.062-0.054,0.125-0.058c0.054,0,0.121,0.059,0.125,0.136l0.428-0.023l-0.424,0.13
			C472.916,314.072,473.02,314.219,473.175,314.283z"/>
		<path fill="#D3D3D4" d="M474.065,319.436c-0.09-0.101-0.236-0.154-0.374-0.138c-0.284,0.027-0.598,0.034-0.957,0.003
			c-0.216-0.021-0.385,0.106-0.445,0.298c-0.559,1.77-1.484,3.254-2.754,4.409c-0.673,0.612-1.485,1.153-2.416,1.609
			c-0.181,0.088-0.275,0.29-0.228,0.485c0.046,0.192,0.219,0.328,0.416,0.328c0.003,0,0.005,0,0.008,0l0.087-0.005
			c1.956,0,3.779,1.8,3.782,1.802l0.131,0.156c0.083,0.094,0.2,0.146,0.322,0.146c0.029,0,0.057-0.003,0.085-0.008
			c0.151-0.031,0.274-0.14,0.322-0.287c0.741-2.249,1.46-5.084,2.138-8.428C474.208,319.674,474.156,319.537,474.065,319.436z"/>
		<path fill="#FFFFFF" d="M474.735,315.31c-0.492-0.377-1.063-0.408-1.599-0.087c-0.125,0.075-0.204,0.208-0.208,0.354
			c-0.032,1.043-0.148,2.028-0.346,2.931c-0.027,0.124,0.001,0.252,0.078,0.352c0.077,0.101,0.194,0.161,0.32,0.167
			c0.089,0.005,0.177,0.007,0.262,0.007c1.581,0,2.101-0.729,2.27-1.163C475.837,317.039,475.488,315.89,474.735,315.31z"/>
		<path fill="#D3D3D4" d="M476.368,302.853c-0.761-0.227-1.874-0.497-2.856-0.497l-0.072,0.001c-0.156,0.002-0.3,0.09-0.373,0.228
			c-0.073,0.139-0.065,0.306,0.022,0.438c0.16,0.241,0.319,0.491,0.481,0.763c0.945,1.485,1.468,3.078,1.598,4.872
			c0.015,0.218,0.195,0.39,0.414,0.397c0.005,0,0.009,0,0.013,0c0.214,0,0.396-0.158,0.425-0.371
			c0.338-2.509,0.554-4.444,0.653-5.373C476.694,303.103,476.566,302.912,476.368,302.853z"/>
		<path fill="#B5B5B6" d="M444.606,301.426c0.068-0.138,0.057-0.303-0.029-0.43c-0.045-0.066-0.091-0.127-0.143-0.183
			c-0.874-0.959-1.894-1.425-3.309-1.508c-0.112-0.006-0.23-0.009-0.355-0.009c-1.14,0-3.618,0.335-4.837,1.603
			c-0.485,0.504-0.697,1.096-0.632,1.762c0.061,0.627,0.281,1.047,0.653,1.249c0.19,0.103,0.421,0.154,0.689,0.154
			c1.023,0,2.521-0.777,3.416-1.242c0.282-0.147,0.53-0.275,0.726-0.365c1.005-0.459,2.106-0.71,3.463-0.792
			C444.401,301.655,444.538,301.565,444.606,301.426z"/>
		<path fill="#D3D3D4" d="M442.229,308.591c0.015,0.001,0.03,0.002,0.045,0.002c0.203,0,0.381-0.144,0.42-0.346
			c0.353-1.811,1.22-3.685,2.574-5.568c0.119-0.166,0.105-0.393-0.034-0.542c-0.007-0.007-0.044-0.041-0.051-0.048
			c-0.084-0.106-0.206-0.169-0.347-0.162c-0.919,0.024-1.681,0.112-2.396,0.277c-0.183,0.042-0.317,0.197-0.332,0.384
			c-0.146,1.909-0.235,3.783-0.264,5.571C441.842,308.379,442.008,308.567,442.229,308.591z"/>
		<path fill="#D3D3D4" d="M447.021,332.674c-0.516-0.245-0.967-0.612-1.332-1.066c-0.011-0.025-0.03-0.058-0.045-0.081
			c-0.105-0.15-0.296-0.217-0.471-0.165c-0.176,0.052-0.3,0.209-0.308,0.393l-0.316,7.404c-0.005,0.116,0.037,0.229,0.116,0.313
			c0.08,0.085,0.19,0.132,0.306,0.134l1.094,0.013c0.002,0,0.004,0,0.005,0c0.232,0,0.421-0.184,0.429-0.416
			c0.101-3.397,0.644-5.623,0.752-6.035C447.303,332.97,447.207,332.762,447.021,332.674z"/>
		<path fill="#898989" d="M448.321,350.584c0.106,0.055,0.23,0.064,0.344,0.023l5.45-1.968c0.196-0.071,0.313-0.273,0.276-0.479
			c-0.395-2.199-1.645-9.657-1.175-13.259c0.009-0.078,0.092-0.12,0.159-0.123c0.051,0.007,0.082,0.037,0.095,0.055
			c0.013,0.017,0.035,0.053,0.028,0.105c-0.374,2.871,0.394,8.417,0.886,11.467c0.031,0.194,0.19,0.342,0.386,0.359
			c0.527,0.045,3.295,0.271,6.075,0.271c0.886,0,1.689-0.024,2.387-0.071c0.2-0.013,0.363-0.163,0.395-0.36
			c0.473-2.98,1.213-8.399,0.846-11.218c-0.007-0.05,0.015-0.087,0.028-0.104c0.013-0.017,0.044-0.048,0.116-0.056
			c0.07,0,0.13,0.054,0.138,0.125c0.464,3.556-0.763,10.94-1.15,13.118c-0.034,0.195,0.069,0.389,0.252,0.468
			c0.019,0.009,0.042,0.02,0.06,0.039c0.001,0.003,0.003,0.007,0.005,0.011c0.049,0.099,0.134,0.174,0.238,0.211l5.082,1.835
			c0.047,0.017,0.096,0.026,0.146,0.026c0.055,0,0.11-0.011,0.162-0.032c0.018-0.005,0.048-0.014,0.058-0.017
			c0.134-0.048,0.234-0.157,0.271-0.293c2.406-9.011,0.772-16.182,0.578-16.971c-0.054-0.218-0.27-0.354-0.488-0.32
			c-0.257,0.044-0.491,0.065-0.715,0.065c-1.548,0-3.125-0.77-4.004-1.429c-0.763-0.574-1.19-1.568-1.113-2.595
			c0.066-0.894,0.522-1.715,1.282-2.31c0.161-0.126,0.211-0.349,0.118-0.532c-0.093-0.182-0.299-0.274-0.499-0.218
			c-2.716,0.77-5.995,0.846-9.811,0.277c-0.631-0.094-1.27-0.236-1.954-0.434c-0.189-0.053-0.391,0.026-0.49,0.197
			c-0.099,0.169-0.069,0.385,0.071,0.522c0.585,0.57,0.924,1.278,0.982,2.048c0.078,1.027-0.349,2.021-1.113,2.594
			c-0.88,0.659-2.456,1.429-4.004,1.429c-0.224,0-0.458-0.021-0.714-0.065c-0.223-0.036-0.435,0.101-0.489,0.32
			c-0.195,0.792-1.834,7.989,0.59,17.02C448.136,350.431,448.214,350.528,448.321,350.584z"/>
		<path fill="#FFFFFF" d="M469.299,351.358l-5.427-1.96c-0.138-0.05-0.292-0.026-0.408,0.064c-0.861,0.667-0.924,1.403-0.827,1.902
			c0.242,1.242,1.702,2.473,3.186,2.687c0.124,0.019,0.252,0.028,0.385,0.028c0.828,0,1.785-0.361,2.577-0.982
			c0.222-0.196,0.581-0.794,0.753-1.149c0.053-0.109,0.057-0.236,0.011-0.348C469.503,351.487,469.413,351.399,469.299,351.358z"/>
		<path fill="#FFFFFF" d="M454.137,348.934l-5.189,1.874c-0.185,0.066-0.301,0.251-0.281,0.447c0.078,0.763,0.378,1.328,0.89,1.679
			c0.401,0.277,0.936,0.423,1.545,0.423c0.535,0,1.117-0.114,1.684-0.33c0.754-0.286,1.921-1.773,2.082-2.9
			c0.065-0.452-0.026-0.815-0.27-1.08C454.482,348.921,454.3,348.874,454.137,348.934z"/>
		<path fill="#FFFFFF" d="M469.419,353.167c-0.154-0.043-0.316,0.003-0.425,0.118c-0.021,0.022-0.039,0.042-0.052,0.052
			c-0.718,0.563-1.979,1.168-3.156,0.997c-1.596-0.23-3.166-1.566-3.429-2.916c-0.101-0.522-0.058-1.294,0.723-2.008
			c0.095-0.087,0.141-0.248,0.134-0.377c0.004-0.021,0.093-0.499,0.224-1.273c0.022-0.128-0.016-0.26-0.103-0.357
			c-0.087-0.097-0.204-0.152-0.344-0.142c-0.733,0.042-1.461,0.063-2.164,0.063c-2.44,0-4.862-0.175-5.79-0.25
			c-0.133-0.011-0.26,0.04-0.351,0.137c-0.089,0.099-0.129,0.232-0.106,0.363c0.097,0.567,0.164,0.929,0.176,0.984l0.425,0.001
			v0.001l-0.427,0.059c-0.004,0.105,0.031,0.208,0.098,0.289c0.268,0.325,0.372,0.76,0.301,1.26
			c-0.177,1.235-1.424,2.809-2.263,3.128c-1.104,0.419-2.232,0.463-3.08,0.096c-0.114-0.05-0.244-0.046-0.357,0.008
			c-0.112,0.054-0.195,0.154-0.227,0.275c-0.15,0.563-1.473,5.556-1.706,7.49c-0.014,0.114,0.018,0.229,0.09,0.319
			c0.072,0.09,0.178,0.147,0.292,0.158c1.729,0.175,8.047,0.211,13.042,0.211c3.229,0,6.821-0.016,10.114-0.045
			c0.129-0.001,0.251-0.06,0.332-0.162c0.081-0.101,0.111-0.233,0.082-0.36l-1.746-7.799
			C469.688,353.331,469.572,353.208,469.419,353.167z"/>
		<path fill="#666464" d="M472.694,340.254l-0.772-0.01c-0.105,0.014-0.226,0.044-0.307,0.124c-0.081,0.081-0.127,0.191-0.127,0.305
			c0.007,3.535-0.485,7.095-1.462,10.579c-0.009,0.032-0.015,0.064-0.015,0.097c-0.006,0.13-0.049,0.36-0.22,0.724
			c-0.04,0.087-0.051,0.183-0.03,0.276l2.054,9.175c0.044,0.196,0.218,0.334,0.418,0.334c0.005,0,0.01,0,0.015,0
			c0.159-0.006,0.346-0.014,0.542-0.024c0.226-0.013,0.403-0.199,0.405-0.426c0.041-6.509,0.071-18.205-0.078-20.752
			C473.103,340.433,472.919,340.257,472.694,340.254z"/>
		<path fill="#D3D3D4" d="M474.233,322.708c-0.207-0.026-0.412,0.117-0.462,0.328c-0.548,2.338-1.121,4.36-1.699,6.009
			c-0.044,0.124-0.027,0.262,0.044,0.373c0.64,1.003,0.694,1.756,0.176,2.618c-0.374,0.477-0.826,0.843-1.341,1.089
			c-0.186,0.088-0.283,0.296-0.231,0.495c0.106,0.405,0.64,2.592,0.749,5.924c0.007,0.228,0.194,0.412,0.423,0.414l1.147,0.015
			c0.036,0.006,0.154-0.003,0.192-0.013c0.038,0.011,0.077,0.017,0.115,0.017l1.223,0.016c0.001,0,0.004,0,0.005,0
			c0.114,0,0.224-0.046,0.305-0.128c0.082-0.083,0.127-0.195,0.124-0.312l-0.386-16.429
			C474.612,322.909,474.448,322.73,474.233,322.708z"/>
		<path fill="#B5B5B6" d="M482.173,301.436c-0.487-1.004-1.946-1.652-3.073-1.752c-1.37-0.124-3.813,0.513-5.17,1.662
			c-0.131,0.111-0.183,0.291-0.132,0.455c0.051,0.164,0.196,0.281,0.367,0.298c1.084,0.107,2.226,0.442,2.993,0.705
			c0.363,0.124,0.745,0.318,1.149,0.524c0.951,0.482,1.617,0.762,2.205,0.762c0.595,0,1.072-0.289,1.46-0.882
			C482.377,302.592,482.444,301.995,482.173,301.436z"/>
	</g>
	<path fill="#B5B5B6" d="M472.251,302.006c-0.939-0.994-1.952-1.702-3.022-2.218c-2.41-2.314-7.37-2.827-10.112-1.715
		c-2.933-1.648-7.189-0.724-9.782,1.082c-3.628,2.526-6.557,6.685-6.723,11.159c-0.033,0.89-0.203,2.863,0.759,3.446
		c0.6,0.364,1.831,1.021,2.4,0.271c0.348-0.458,0.425-0.927,0.554-1.49c0.261-1.147,2.886-2.214,3.813-2.781
		c1.99-1.218,3.84-2.419,5.647-3.826c-0.176,2.158-0.587,4.222,0.428,6.287c0.194,0.395,0.779,0.348,0.986,0
		c0.645-1.083,0.788-2.559,1.041-3.94c0.452,1.587,0.634,3.177,1.966,4.437c0.285,0.269,0.881,0.193,0.955-0.252
		c0.185-1.101,0.018-2.044-0.197-3.139c-0.174-0.886-0.157-1.793-0.085-2.705c1.201,1.08,2.347,2.217,3.517,3.335
		c0.136,0.129,0.303,0.16,0.464,0.136c0.538,0.491,1.094,0.963,1.693,1.392c1.952,1.396,4.594,1.936,6.719,3.037
		c0.418,0.217,0.804-0.062,0.86-0.493C474.693,309.681,475.531,305.481,472.251,302.006z"/>
	<path fill="#595757" d="M475.771,272.507c0.113-2.006,0.483-3.999,0.457-5.998c-0.003-0.23-0.121-0.38-0.275-0.466
		c0.042-4.677,0.077-9.776-2.469-13.821c-0.968-1.538-1.393-3.517-3.019-4.561c-1.605-1.031-3.414-1.524-5.302-1.756
		c-5.305-0.65-10.361-0.296-14.922,2.639c-1.828,1.178-2.684,2.629-3.752,4.478c-0.73,1.265-1.571,2.5-1.761,3.918
		c-0.595,1.695-0.956,3.479-1.067,5.283c-0.001,0.02,0.007,0.034,0.007,0.052c-0.54,2.449-0.854,4.905-0.605,7.673
		c0.247,2.748,0.39,5.403,0.371,8.166c-0.021,2.902,0.501,5.543,0.798,8.392c0.046,0.436,0.448,0.704,0.86,0.493
		c2.979-1.525,5.769-2.121,8.934-2.936c1.739-0.448,1.424-2.167,1.348-3.557c-0.016-0.294-0.212-0.466-0.436-0.524
		c-0.125-0.16-0.321-0.266-0.573-0.217c-1.139,0.223-2.677-1.184-3.496-1.864c-0.784-0.652-1.81-1.124-2.584-1.821
		c-1.285-2.387-1.532-5.323-1.968-7.953c-0.023-0.139-0.116-0.576-0.235-1.183c0.231-0.063,0.432-0.245,0.436-0.531
		c0.013-1.177,0.063-2.347,0-3.524c-0.011-0.195-0.045-0.432-0.081-0.687c0.199-0.038,0.377-0.175,0.441-0.399
		c0.102-0.357,0.224-0.703,0.353-1.044c0.668-1.186,1.748-2.214,2.643-3.212c0.255-0.285,0.499-0.581,0.74-0.88
		c-0.622,1.098-1.123,2.11-1.144,3.461c-0.007,0.451,0.485,0.687,0.86,0.493c0.624-0.324,1.043-0.83,1.408-1.396
		c0.075,0.274,0.165,0.545,0.287,0.81c0.173,0.378,0.81,0.369,0.987,0c1.273-2.662,2.444-5.454,4.664-7.453
		c0.813,2.218,1.705,4.391,2.752,6.536c0.994,2.034,2.776,3.619,5.136,3.675c0.356,0.008,0.671-0.374,0.551-0.723
		c-0.062-0.181-0.134-0.361-0.21-0.539c0.491,0.435,1.031,0.827,1.545,1.214c1.317,0.995,2.898,1.457,4.509,1.652
		c-0.188,3.147-0.396,6.519-1.05,9.659c-0.078,0.026-0.154,0.069-0.225,0.142c-1.3,1.341-2.892,2.223-4.285,3.428
		c-0.752,0.65-2.052,2.176-3.12,2.118c-0.152-0.008-0.264,0.042-0.354,0.114c-0.185,0.029-0.346,0.15-0.387,0.401
		c-0.122,0.739-0.136,1.398-0.116,2.151c0.006,0.233,0.168,0.511,0.42,0.551c3.774,0.596,8.132,1.594,11.386,3.656
		c0.512,0.325,0.988-0.282,0.801-0.728c0.034-0.069,0.055-0.149,0.058-0.242c0.08-2.232,0.509-4.441,0.639-6.675
		c0.02-0.344,0.025-0.688,0.037-1.032c0.052-0.69,0.055-1.383,0.038-2.079C475.801,274.745,475.787,273.626,475.771,272.507z"/>
	<path fill="#D3D3D4" d="M461.042,274.051c-0.107-0.125-0.262-0.209-0.431-0.209c-0.588,0-1.208-0.011-1.83,0.006
		c-0.025-0.001-0.05-0.005-0.075-0.006c-0.921-0.013-1.84-0.084-2.761-0.095c-0.431-0.005-0.715,0.49-0.493,0.86
		c0.021,0.035,0.04,0.069,0.06,0.105c-0.036,0.099-0.052,0.206-0.023,0.329c0.598,2.556,5.138,3.628,5.664,0.507
		c0.147-0.173,0.289-0.354,0.432-0.54C461.909,274.592,461.635,273.888,461.042,274.051z"/>
	<path fill="#E6E6E6" d="M459.542,361.584c-0.51-1.33-0.295-2.744-0.265-4.134c0.042-1.861-0.236-3.706-0.142-5.57
		c0.037-0.737-1.106-0.733-1.143,0c-0.093,1.862,0.11,3.709,0.142,5.57c0.026,1.514-0.251,2.985,0.307,4.437
		C458.702,362.569,459.807,362.273,459.542,361.584z"/>
	<path fill="#E6E6E6" d="M464.134,358.45c-0.054-1.717-0.062-3.47-0.449-5.151c-0.165-0.718-1.266-0.414-1.101,0.303
		c0.367,1.596,0.291,3.225,0.408,4.847c0.071,1.001,0.233,1.999,0.286,3c0.038,0.733,1.181,0.737,1.143,0
		C464.367,360.446,464.165,359.458,464.134,358.45z"/>
	<path fill="#E6E6E6" d="M469.341,360.876c-0.188-0.321-0.205-1.586-0.29-2.119c-0.254-1.589-0.622-3.166-0.939-4.743
		c-0.144-0.723-1.245-0.416-1.101,0.303c0.316,1.579,0.669,3.156,0.938,4.744c0.117,0.69,0.047,1.779,0.405,2.391
		C468.726,362.089,469.714,361.514,469.341,360.876z"/>
	<path fill="#E6E6E6" d="M454.07,353.02c-0.454,1.044-0.389,2.103-0.298,3.221c0.137,1.683,0.077,3.379,0.077,5.066
		c0,0.737,1.143,0.737,1.143,0v-3.856c0-1.239-0.452-2.667,0.064-3.854C455.348,352.928,454.364,352.346,454.07,353.02z"/>
	<path fill="#E6E6E6" d="M450.85,353.594c-0.05,2.604-0.67,5.139-1,7.713c-0.094,0.73,1.05,0.72,1.143,0
		c0.331-2.577,0.95-5.104,1-7.713C452.006,352.857,450.863,352.858,450.85,353.594z"/>
	<circle fill="#231815" cx="451.564" cy="318.027" r="1.428"/>
	<circle fill="#231815" cx="465.848" cy="318.027" r="1.428"/>
	<g>
		<path fill="#231815" d="M452.013,312.025c-1.377-0.145-2.52,0.979-2.568,1.027c-0.223,0.222-0.223,0.582-0.001,0.806
			c0.222,0.223,0.583,0.225,0.807,0.004c0.008-0.009,0.813-0.792,1.645-0.7c0.436,0.047,0.835,0.347,1.187,0.89
			c0.109,0.169,0.293,0.261,0.48,0.261c0.106,0,0.214-0.03,0.31-0.091c0.264-0.172,0.34-0.525,0.169-0.79
			C453.494,312.583,452.811,312.109,452.013,312.025z"/>
		<path fill="#231815" d="M463.941,314.17c0.009-0.008,0.975-0.83,2.04-0.709c0.622,0.075,1.189,0.473,1.684,1.18
			c0.111,0.159,0.289,0.244,0.469,0.244c0.113,0,0.228-0.034,0.327-0.103c0.259-0.181,0.322-0.537,0.141-0.796
			c-0.692-0.988-1.531-1.547-2.494-1.66c-1.578-0.185-2.871,0.941-2.925,0.989c-0.236,0.209-0.256,0.568-0.048,0.804
			C463.343,314.356,463.704,314.377,463.941,314.17z"/>
		<path fill="#231815" d="M447.295,262.125c0.014,0.001,0.029,0.002,0.042,0.002c0.297,0,0.547-0.229,0.569-0.529
			c0.004-0.057,0.43-5.209,4.048-8.029c-0.986,1.66-2.033,3.784-2.663,6.12c-0.082,0.305,0.098,0.618,0.403,0.701
			c0.05,0.013,0.1,0.02,0.149,0.02c0.252,0,0.482-0.168,0.551-0.423c1.357-5.038,4.877-9.191,4.912-9.233
			c0.206-0.24,0.178-0.6-0.062-0.805c-0.24-0.206-0.601-0.177-0.805,0.062c-0.055,0.064-0.558,0.659-1.242,1.634
			c-0.127-0.031-0.264-0.026-0.39,0.037c-5.458,2.729-6.02,9.544-6.041,9.833C446.744,261.828,446.98,262.101,447.295,262.125z"/>
		<path fill="#231815" d="M457.69,271.271c0.26,0,0.495-0.179,0.556-0.443l0.604-2.615c0.07-0.308-0.122-0.614-0.429-0.685
			c-0.305-0.071-0.614,0.121-0.685,0.428l-0.604,2.614c-0.071,0.307,0.121,0.615,0.428,0.685
			C457.604,271.266,457.648,271.271,457.69,271.271z"/>
		<path fill="#231815" d="M461.914,273.548h-6.235c-0.157,0-0.308,0.065-0.416,0.179c-0.108,0.114-0.163,0.268-0.154,0.425
			c0.08,1.369,0.891,3.957,3.387,3.957c3.034,0,3.938-3.702,3.975-3.86c0.04-0.17,0-0.348-0.109-0.485
			C462.253,273.628,462.089,273.548,461.914,273.548z M458.495,276.967c-1.468,0-1.983-1.43-2.159-2.276h4.786
			C460.765,275.571,459.967,276.967,458.495,276.967z"/>
		<path fill="#231815" d="M451.474,260.222c-1.428,0.157-2.253,1.237-2.287,1.283c-0.189,0.251-0.138,0.606,0.112,0.796
			c0.25,0.19,0.608,0.141,0.799-0.107c0.006-0.007,0.581-0.741,1.513-0.837c0.716-0.072,1.485,0.237,2.287,0.925
			c0.107,0.092,0.24,0.138,0.372,0.138c0.161,0,0.321-0.068,0.434-0.199c0.205-0.239,0.178-0.6-0.062-0.806
			C453.587,260.509,452.519,260.108,451.474,260.222z"/>
		<path fill="#231815" d="M451.429,265.007c-1.016,0.13-1.578,0.844-1.639,0.925c-0.189,0.252-0.138,0.611,0.115,0.8
			c0.103,0.077,0.223,0.114,0.342,0.114c0.174,0,0.345-0.079,0.458-0.229c0.003-0.004,0.327-0.408,0.868-0.476
			c0.466-0.057,0.981,0.136,1.535,0.58c0.245,0.197,0.605,0.157,0.803-0.089c0.197-0.246,0.157-0.606-0.089-0.803
			C453.017,265.183,452.21,264.907,451.429,265.007z"/>
		<path fill="#231815" d="M462.98,266.42c-0.25,0.188-0.3,0.541-0.115,0.793c0.186,0.253,0.544,0.307,0.796,0.124
			c0.128-0.091,1.282-0.849,2.678,0.547c0.111,0.111,0.258,0.167,0.403,0.167c0.146,0,0.293-0.056,0.404-0.167
			c0.223-0.223,0.223-0.585,0-0.808C465.438,265.368,463.674,265.9,462.98,266.42z"/>
		<path fill="#231815" d="M456.685,252.403c-0.096,0.08-2.371,2.007-3.93,6.293c-0.108,0.296,0.045,0.624,0.342,0.732
			c0.064,0.023,0.13,0.035,0.195,0.035c0.234,0,0.453-0.144,0.537-0.377c1.162-3.196,2.76-4.992,3.353-5.584
			c0.812,2.693,2.241,6.358,4.461,8.644c0.112,0.115,0.261,0.173,0.41,0.173c0.114,0,0.224-0.044,0.322-0.112
			c0.02,0.067,0.05,0.132,0.095,0.191c0.193,0.248,0.551,0.293,0.8,0.102c0.047-0.036,0.612-0.448,1.509-0.555
			c0.69,0.845,1.451,1.598,2.28,2.175c0.099,0.069,0.214,0.102,0.326,0.102c0.181,0,0.359-0.086,0.47-0.245
			c0.18-0.259,0.115-0.615-0.143-0.795c-0.42-0.292-0.822-0.64-1.207-1.026c0.684,0.244,1.441,0.698,2.246,1.503
			c0.111,0.111,0.258,0.167,0.404,0.167c0.146,0,0.292-0.056,0.404-0.167c0.224-0.223,0.224-0.585,0-0.808
			c-1.568-1.568-3.045-2.042-4.235-2.066c-2.696-3.565-4.228-8.66-4.248-8.724c-0.089-0.302-0.406-0.475-0.71-0.386
			c-0.303,0.09-0.475,0.407-0.386,0.71c0.077,0.261,1.474,4.908,4.038,8.555c-0.794,0.208-1.311,0.557-1.426,0.64
			c-0.025-0.084-0.064-0.165-0.13-0.232c-3.525-3.63-5.002-11.396-5.016-11.474c-0.058-0.31-0.358-0.517-0.667-0.457
			c-0.31,0.057-0.515,0.356-0.457,0.666c0.019,0.106,0.185,0.974,0.521,2.232C456.789,252.338,456.734,252.362,456.685,252.403z"/>
		<path fill="#231815" d="M458.67,312.409c0.06,0,0.121-0.009,0.181-0.029c0.299-0.1,0.461-0.424,0.362-0.722
			c-0.275-0.824-0.463-3.679-0.512-4.71c-0.015-0.315-0.291-0.561-0.598-0.544c-0.316,0.015-0.559,0.283-0.543,0.598
			c0.019,0.395,0.195,3.893,0.568,5.016C458.207,312.258,458.431,312.409,458.67,312.409z"/>
		<path fill="#231815" d="M459.26,324.161c1.031,0,2.095-0.393,2.933-1.536c0.187-0.254,0.132-0.612-0.122-0.799
			c-0.256-0.187-0.612-0.132-0.8,0.123c-1.617,2.208-4.315,0.316-4.429,0.234c-0.257-0.185-0.612-0.127-0.796,0.129
			c-0.185,0.256-0.128,0.613,0.128,0.798C456.869,323.611,458.041,324.161,459.26,324.161z"/>
		<path fill="#231815" d="M482.816,301.011c-0.608-1.253-2.297-2.032-3.652-2.152c-0.44-0.039-0.957-0.011-1.504,0.073
			c0.642-7.659-0.906-10.581-1.616-11.486c-0.135-0.172-0.299-0.34-0.486-0.505c0.026-0.055,0.05-0.112,0.058-0.176
			c0.116-0.933,2.799-22.969-0.02-32.233c-2.902-9.538-14.355-9.949-14.438-9.951c-0.15-0.011-14.828-1.077-17.709,13.948
			c-0.793,4.494-0.686,14.08,0.32,28.49c0.008,0.112,0.055,0.209,0.118,0.293c-0.039,0.044-0.087,0.086-0.122,0.132
			c-0.665,0.847-1.458,6.196-2,11.093c-0.193-0.027-0.391-0.048-0.597-0.06c-1.469-0.088-4.322,0.328-5.749,1.811
			c-0.627,0.651-0.913,1.456-0.827,2.326c0.086,0.879,0.43,1.486,1.022,1.807c0.305,0.165,0.651,0.234,1.019,0.234
			c1.224,0,2.698-0.766,3.756-1.315c0.269-0.14,0.506-0.264,0.694-0.349c0.095-0.043,0.19-0.079,0.285-0.117
			c-0.186,2.573-0.27,5.037-0.242,7.324c0.069,5.695,1.298,11.807,3.326,16.743c-0.061,0.086-0.107,0.183-0.112,0.295l-0.528,12.365
			c-0.007,0.154,0.05,0.305,0.156,0.417c0.106,0.112,0.253,0.177,0.408,0.179l1.68,0.022c0.003,2.974,0.359,6.674,1.529,10.773
			c0.044,0.152,0.148,0.279,0.289,0.352c0.03,0.015,0.063,0.013,0.094,0.022c0.101,0.719,0.373,1.227,0.683,1.586
			c-0.001,0.005-0.005,0.008-0.007,0.013c-0.192,0.709-1.877,6.976-1.877,8.577c0,0.152,0.069,0.315,0.177,0.422
			c0.175,0.174,0.5,0.497,13.299,0.497c3.006,0,6.708-0.017,11.248-0.059c0.137,0.046,0.321,0.066,0.571,0.066
			c0.32,0,0.746-0.03,1.313-0.071c0.297-0.021,0.528-0.268,0.531-0.566c0.098-14.711,0.009-19.58-0.097-21.25l1.343,0.017
			c0.002,0,0.005,0,0.007,0c0.152,0,0.299-0.061,0.406-0.17c0.109-0.11,0.169-0.26,0.165-0.415l-0.491-20.877
			c0.528-0.338,0.804-0.781,0.937-1.121c0.344-0.882,0.142-1.981-0.441-2.79c0.886-5.233,1.43-9.957,1.617-11.684
			c0.201,0.092,0.411,0.195,0.632,0.307c0.722,0.367,1.648,0.836,2.555,0.836c0.727,0,1.443-0.301,2.031-1.202
			C483.257,302.437,483.082,301.56,482.816,301.011z M444.571,258.737c2.684-13.994,15.929-13.064,16.523-13.015
			c0.107,0.003,10.742,0.384,13.407,9.143c2.541,8.349,0.391,28.206,0.03,31.34c-3.287-1.992-9.734-3.367-11.479-3.714l-0.165-1.982
			c-0.002-0.021-0.013-0.038-0.017-0.058c3.336-1.49,7.174-3.893,7.823-5.516c0.769-1.923,1.826-9.578,1.997-10.849
			c0.107,0.076,0.212,0.152,0.322,0.227c0.099,0.067,0.21,0.099,0.321,0.099c0.183,0,0.363-0.088,0.473-0.25
			c0.177-0.261,0.109-0.617-0.152-0.794c-6.853-4.66-8.353-11.035-8.367-11.099c-0.069-0.308-0.374-0.501-0.682-0.433
			c-0.307,0.069-0.502,0.373-0.434,0.681c0.058,0.262,1.418,6.105,7.604,10.898c-0.102,0.088-0.177,0.208-0.196,0.353
			c-0.012,0.088-1.18,8.82-1.949,10.743c-0.661,1.654-7.322,5.466-10.638,6.087c-2.838,0.532-9.208-3.867-10.521-5.437
			c-0.939-1.122-1.651-9.025-1.88-13.743c-0.009-0.19-0.118-0.345-0.267-0.442c0-0.029,0.008-0.057,0.003-0.087
			c-0.652-3.911,1.858-6.381,1.973-6.491c0.229-0.218,0.237-0.579,0.021-0.807c-0.218-0.228-0.578-0.237-0.808-0.021
			c-0.126,0.12-3.068,2.975-2.313,7.507c0.027,0.163,0.125,0.292,0.252,0.376c0,0.007-0.003,0.012-0.003,0.019
			c0.102,2.101,0.684,12.674,2.145,14.42c0.804,0.961,4.118,3.556,7.31,4.958v2.238c-1.684,0.295-7.227,1.387-10.032,3.352
			C443.908,272.407,443.805,263.079,444.571,258.737z M453.606,284.6c-0.011-0.032-0.033-0.055-0.048-0.084
			c0.797-0.169,1.498-0.298,2.008-0.378c0.278-0.044,0.484-0.283,0.484-0.565v-2.271c0.865,0.297,1.698,0.48,2.44,0.48
			c0.248,0,0.488-0.02,0.714-0.062c0.698-0.131,1.591-0.416,2.569-0.806l0.175,2.102c0.021,0.257,0.211,0.468,0.466,0.514
			c0.831,0.154,2.065,0.415,3.447,0.758c-0.018,0.03-0.044,0.055-0.056,0.09c-1.032,2.751-3.848,5.262-7.83,4.665
			c-2.005-0.301-3.174-1.525-3.693-2.227c-0.573-0.776-0.758-1.423-0.78-1.67C453.626,285,453.671,284.795,453.606,284.6z
			 M444.662,288.151c1.183-1.506,4.811-2.673,7.736-3.373c-0.034,0.126-0.049,0.278-0.033,0.466c0.122,1.408,1.895,4.398,5.441,4.93
			c0.465,0.07,0.915,0.103,1.351,0.103c3.894,0,6.644-2.634,7.718-5.496c0.028-0.073,0.038-0.148,0.036-0.221
			c3.333,0.885,7.125,2.181,8.234,3.592c0.498,0.634,2.054,3.299,1.348,11.035c-1.548,0.438-3.111,1.277-3.826,2.413
			c-0.733-0.933-1.502-1.698-2.286-2.319c0.064-0.102,0.105-0.219,0.094-0.348l-0.285-3.428c-0.026-0.314-0.295-0.548-0.617-0.522
			c-0.314,0.026-0.548,0.302-0.522,0.617l0.243,2.911c-4.517-2.829-9.221-1.499-10.266-1.146c-1.025-0.337-5.568-1.585-9.941,0.979
			l0.533-5.594c0.03-0.314-0.2-0.593-0.515-0.623c-0.316-0.03-0.593,0.2-0.623,0.515l-0.571,5.999
			c-0.014,0.151,0.034,0.293,0.12,0.403c-0.777,0.577-1.537,1.293-2.262,2.169c-0.078-0.059-0.165-0.105-0.267-0.117
			c-0.134-0.279-0.285-0.594-0.541-0.876c-0.602-0.661-1.283-1.122-2.079-1.406C443.735,291.038,444.474,288.438,444.662,288.151z
			 M469.253,332.662c-1.372,0-2.784-0.693-3.575-1.287c-0.563-0.422-0.888-1.195-0.83-1.97c0.038-0.513,0.281-1.469,1.478-2.113
			c0.334-0.18,0.686-0.268,1.076-0.268c1.652,0,3.27,1.588,3.272,1.588c1.627,1.807,1.319,2.419,1.035,2.894
			C471.094,332.274,470.268,332.662,469.253,332.662z M446.262,331.056c-0.284-0.475-0.592-1.086,1.014-2.872
			c0.016-0.017,1.628-1.609,3.293-1.609c0.39,0,0.742,0.087,1.076,0.267c1.197,0.645,1.44,1.601,1.478,2.113
			c0.058,0.775-0.268,1.548-0.83,1.97c-0.791,0.594-2.203,1.286-3.576,1.286C447.703,332.212,446.877,331.823,446.262,331.056z
			 M446.448,327.398c-0.136,0.15-0.249,0.291-0.366,0.434c-0.65-1.411-1.93-4.533-2.83-8.811c0.048,0.044,0.095,0.091,0.146,0.132
			c0.331,0.261,0.843,0.531,1.549,0.531c0.216,0,0.451-0.026,0.704-0.084c0.132-0.031,0.237-0.11,0.314-0.209
			c0.289,1.067,0.735,2.142,1.406,3.144c0.801,1.194,1.844,2.161,3.116,2.901C448.388,325.484,446.546,327.298,446.448,327.398z
			 M445.764,318.536c-0.113-0.054-0.24-0.079-0.372-0.049c-0.511,0.12-0.943,0.042-1.286-0.23c-0.438-0.346-0.712-1.012-0.716-1.738
			c-0.003-0.732,0.103-1.198,0.326-1.422c0.289-0.292,0.952-0.336,1.794-0.343C445.456,315.841,445.492,317.162,445.764,318.536z
			 M442.563,314.777c-0.095-0.832-0.171-1.691-0.222-2.576c0.186,0.764,0.449,1.421,0.722,1.959
			c-0.053,0.042-0.108,0.083-0.157,0.132C442.767,314.431,442.656,314.593,442.563,314.777z M448.324,321.905
			c-2.551-3.799-1.475-9.002-1.36-9.517c4.054-2.032,7.291-4.292,8.573-5.231c-0.097,1.423-0.078,3.096,0.23,4.784
			c0.05,0.277,0.291,0.469,0.561,0.469c0.034,0,0.068-0.003,0.103-0.009c0.311-0.056,0.517-0.354,0.46-0.664
			c-0.76-4.175,0.328-7.967,0.34-8.002c0.099-0.299-0.062-0.623-0.363-0.722c-0.298-0.098-0.622,0.062-0.722,0.362
			c-0.103,0.31-0.308,1.162-0.463,2.327c-0.087,0.017-0.172,0.046-0.247,0.105c-0.041,0.032-4.158,3.234-9.623,5.879
			c-0.284,0.138-0.403,0.479-0.266,0.763c0.046,0.093,0.115,0.167,0.196,0.222c-0.044,0.249-0.093,0.567-0.137,0.941
			c-0.563,0.003-1.06,0.02-1.491,0.1c-1.057-2.041-2.004-6.107,2.392-11.602c5.076-6.344,12.021-3.721,12.313-3.608
			c0.136,0.053,0.289,0.052,0.424-0.002c0.344-0.139,8.448-3.29,13.713,5.54c1.113,1.75,2.381,4.684,0.758,9.994
			c-0.062-0.085-0.138-0.16-0.243-0.203c-0.046-0.018-0.09-0.039-0.136-0.058c-0.002-0.038-0.002-0.074-0.004-0.111
			c-0.017-0.316-0.295-0.577-0.602-0.539c-0.17,0.009-0.313,0.094-0.411,0.218c-6.774-3.002-11.148-7.472-11.193-7.519
			c-0.015-0.015-0.035-0.021-0.051-0.036c-0.066-0.867-0.091-1.519-0.057-1.712c0.086-0.293-0.076-0.604-0.369-0.702
			c-0.299-0.098-0.622,0.062-0.722,0.362c-0.261,0.785,0.39,6.61,0.89,8.604c0.064,0.26,0.297,0.432,0.553,0.432
			c0.046,0,0.093-0.005,0.14-0.017c0.305-0.076,0.492-0.387,0.415-0.693c-0.269-1.076-0.522-2.914-0.694-4.562
			c1.684,1.529,5.579,4.715,10.974,7.035c0.062,3.884-0.986,6.862-3.153,8.834c-2.806,2.555-7.55,3.417-13.722,2.496
			C452.125,325.385,449.766,324.053,448.324,321.905z M471.502,327.826c-0.079-0.079-1.969-1.944-4.1-1.944
			c-0.032,0-0.063,0.005-0.095,0.006c0.935-0.457,1.782-1.008,2.517-1.676c1.335-1.216,2.293-2.755,2.874-4.598
			c0.195,0.017,0.382,0.026,0.557,0.026c0.183,0,0.344-0.017,0.507-0.032c-0.672,3.319-1.384,6.133-2.124,8.379
			C471.59,327.932,471.552,327.882,471.502,327.826z M475.112,317.601c-0.245,0.631-0.994,0.938-2.112,0.885
			c0.205-0.935,0.324-1.939,0.356-3.01c0.382-0.229,0.758-0.218,1.118,0.059C475.076,315.999,475.369,316.945,475.112,317.601z
			 M475.595,308.511c-0.134-1.854-0.688-3.537-1.663-5.07c-0.159-0.267-0.322-0.523-0.485-0.77c0.91-0.012,1.98,0.236,2.8,0.479
			C476.159,303.969,475.941,305.941,475.595,308.511z M440.606,301.953c-0.202,0.093-0.457,0.224-0.746,0.375
			c-1.019,0.529-2.917,1.515-3.703,1.09c-0.238-0.13-0.382-0.437-0.43-0.914c-0.053-0.543,0.115-1.007,0.514-1.422
			c1.002-1.042,3.165-1.472,4.529-1.472c0.116,0,0.226,0.003,0.329,0.009c1.294,0.077,2.225,0.499,3.017,1.368
			c0.038,0.042,0.073,0.087,0.105,0.136C443.072,301.192,441.827,301.395,440.606,301.953z M444.848,302.239
			c0.021,0.027,0.049,0.049,0.073,0.074c-1.526,2.122-2.318,4.046-2.647,5.736c0.028-1.77,0.115-3.625,0.262-5.544
			C443.326,302.323,444.113,302.259,444.848,302.239z M445.293,331.659c0.003,0.006,0.005,0.011,0.009,0.017
			c0.012,0.021,0.026,0.04,0.041,0.059c0.419,0.533,0.922,0.939,1.494,1.211c-0.129,0.492-0.664,2.734-0.765,6.13l-1.094-0.014
			L445.293,331.659z M447.93,333.284c0.255,0.044,0.516,0.071,0.788,0.071c1.654,0,3.329-0.816,4.261-1.515
			c0.88-0.66,1.372-1.798,1.284-2.97c-0.067-0.888-0.463-1.691-1.11-2.322c0.636,0.184,1.3,0.34,2.011,0.446
			c1.701,0.254,3.29,0.381,4.767,0.381c1.943,0,3.679-0.231,5.223-0.669c-0.848,0.664-1.369,1.583-1.446,2.615
			c-0.088,1.172,0.405,2.309,1.284,2.97c0.932,0.699,2.608,1.515,4.261,1.515c0.272,0,0.532-0.028,0.787-0.072
			c0.246,0.999,1.779,7.939-0.576,16.758c-0.025,0.009-0.053,0.011-0.077,0.025l-5.082-1.836c-0.004-0.007-0.003-0.015-0.008-0.023
			c-0.063-0.11-0.162-0.181-0.271-0.228c0.392-2.205,1.625-9.632,1.153-13.249c-0.04-0.313-0.328-0.536-0.64-0.493
			c-0.313,0.041-0.534,0.328-0.493,0.64c0.357,2.74-0.354,8.008-0.844,11.094c-3.268,0.218-7.739-0.144-8.397-0.201
			c-0.49-3.043-1.251-8.527-0.884-11.343c0.041-0.313-0.18-0.6-0.493-0.64c-0.309-0.039-0.599,0.179-0.64,0.492
			c-0.482,3.697,0.817,11.377,1.178,13.39l-5.45,1.969C446.145,341.247,447.684,334.284,447.93,333.284z M463.726,349.687
			l5.427,1.959c-0.191,0.395-0.512,0.892-0.651,1.014c-0.806,0.63-1.83,0.969-2.616,0.852c-1.3-0.187-2.622-1.283-2.829-2.345
			C462.949,350.609,463.177,350.112,463.726,349.687z M454.443,349.951c-0.145,1.021-1.235,2.342-1.81,2.561
			c-1.098,0.418-2.184,0.4-2.834-0.046c-0.413-0.283-0.642-0.75-0.706-1.37l5.19-1.874
			C454.399,349.349,454.499,349.558,454.443,349.951z M447.942,361.1c0.193-1.601,1.184-5.513,1.695-7.43
			c0.436,0.188,0.933,0.287,1.467,0.287c0.614,0,1.273-0.125,1.935-0.377c0.972-0.369,2.332-2.042,2.536-3.468
			c0.089-0.629-0.052-1.179-0.395-1.595c0.002-0.043,0.007-0.085-0.001-0.129c-0.003-0.019-0.072-0.391-0.178-1.004
			c0.927,0.075,3.371,0.252,5.825,0.252c0.747,0,1.483-0.024,2.189-0.064c-0.131,0.769-0.22,1.244-0.224,1.264
			c-0.009,0.048-0.003,0.095-0.001,0.141c-0.958,0.874-0.964,1.847-0.855,2.406c0.299,1.538,1.998,3,3.788,3.259
			c0.16,0.023,0.322,0.034,0.483,0.034c1.147,0,2.274-0.55,2.998-1.117c0.026-0.02,0.06-0.055,0.099-0.095l1.746,7.799
			C462.804,361.336,450.381,361.346,447.942,361.1z M472.766,361.292c-0.193,0.011-0.377,0.018-0.533,0.024l-2.054-9.175
			c0.144-0.306,0.248-0.618,0.259-0.888c1.143-4.075,1.484-7.748,1.478-10.696l0.772,0.01
			C472.827,342.925,472.814,353.723,472.766,361.292z M473.35,339.434c-0.1-0.03-0.203-0.032-0.306-0.004l-1.148-0.015
			c-0.109-3.334-0.635-5.532-0.762-6.018c0.572-0.272,1.076-0.678,1.494-1.211c0.015-0.019,0.029-0.038,0.041-0.059
			c0.585-0.974,0.549-1.894-0.193-3.055c0.59-1.68,1.163-3.71,1.713-6.053l0.386,16.43L473.35,339.434z M481.615,302.86
			c-0.686,1.049-1.515,0.783-3.113-0.028c-0.42-0.213-0.816-0.414-1.204-0.547c-0.863-0.295-2.001-0.618-3.09-0.725
			c1.225-1.038,3.528-1.684,4.854-1.563c1.024,0.091,2.323,0.682,2.725,1.512C481.991,301.928,481.935,302.371,481.615,302.86z"/>
	</g>
</g>
</svg>
