<?xml version="1.0" encoding="utf-8"?>
<!-- Generator: Adobe Illustrator 17.0.1, SVG Export Plug-In . SVG Version: 6.00 Build 0)  -->
<!DOCTYPE svg PUBLIC "-//W3C//DTD SVG 1.1//EN" "http://www.w3.org/Graphics/SVG/1.1/DTD/svg11.dtd">
<svg version="1.1" id="レイヤー_1" xmlns="http://www.w3.org/2000/svg" xmlns:xlink="http://www.w3.org/1999/xlink" x="0px"
	 y="0px" width="841.89px" height="595.28px" viewBox="0 0 841.89 595.28" enable-background="new 0 0 841.89 595.28"
	 xml:space="preserve">
<rect x="350.035" y="226.467" fill="#FFFFFF" stroke="#A660A3" stroke-width="2" stroke-miterlimit="10" width="141.732" height="141.732"/>
<g>
	<circle fill="#B3B3B4" cx="414.239" cy="294.564" r="39.085"/>
	<g>
		<path fill="#FFFFFF" d="M459.842,256.182c0,0-6.481-3.272-10.085-0.085c-3.604,3.186-5.937,4.179-5.937,4.179l-51.409,31.924
			c0,0-4.763,8.996,1.561,15.933c6.323,6.937,10.278,5.643,10.278,5.643l53.963-33.237c0,0,9.556,3.26,9.641-6.825L459.842,256.182z
			"/>
		<path fill="#D1D1D2" d="M361.032,339.611c0,0-3.399,11.82,1.556,12.391C367.542,352.574,363.52,346.981,361.032,339.611z"/>
		<path fill="#D1D1D2" d="M369.123,336.989c0,0,2.796,11.042,4.717,7.328C375.761,340.605,369.123,336.989,369.123,336.989z"/>
		<polygon fill="#EFEFEF" points="391.525,302.994 387.869,307.403 389.058,309.792 393.972,308.134 		"/>
		<path fill="#898989" d="M427.817,273.505l-4.714,4.478c0,0-1.911,12.531,7.663,16.662l5.504-4.073L427.817,273.505z"/>
		<path fill="#C9CACA" d="M462.415,246.941c0,0-7.051,0.191-1.22,15.517c5.83,15.326,12.092,14.909,17.005,13.251L462.415,246.941z"
			/>
		<path fill="#F7F8F8" d="M429.17,274.253c0,0-4.767,10.308,7.101,16.318l19.176-12.875c0,0-7.151-4.872-7.495-15.507
			L429.17,274.253z"/>
		<path fill="#DCDDDD" d="M452.074,261.541c0,0-1.705,8.894,7.993,14.925l6.255-3.403l-7.64-16.105L452.074,261.541z"/>
		<path fill="#898989" d="M464.938,246.472c0,0-7.288,6.947,13.261,29.237c0,0,9.307-2.101,3.45-15.558
			C475.795,246.693,473.75,243.717,464.938,246.472z"/>
		<path fill="#D1D1D2" d="M395.325,294.714c0,0-5.811,12.011,9.659,14.731l25.783-14.8c0,0-10.864-2.023-7.663-16.662
			L395.325,294.714z"/>
		<g>
			<path d="M470.94,247.665c-3.643-2.34-7.25-3.156-10.526-1.049c-0.33-0.029-0.669,0.088-0.908,0.353
				c-0.487,0.486-0.858,1.011-1.152,1.561c-0.043,0.058-0.093,0.11-0.135,0.169c-0.157,0.193-0.231,0.423-0.236,0.654
				c-0.55,1.494-0.566,3.139-0.319,4.773c-2.232-1.958-6.017-1.06-8.451,0.301c0.627,2.121-47.162,30.949-57.15,36.533
				c-0.34,0.063-1.303,1.022-1.35,1.393c-0.788,3.164-0.99,6.575-0.219,9.727c-0.191,0.054-3.8,5.028-3.8,5.028
				c-0.128,0.187-0.132,1.33-0.117,1.397c-6.943,4.386-10.958,7.746-17.743,12.876c-0.521,0.33-2.735,2.466-2.405,2.987
				c0.326,0.499,3.179-0.819,3.675-1.172c7.081-5.044,10.702-8.298,17.549-12.777l1.673,0.816c1.745-0.511,3.134-1.583,4.813-2.199
				c2.553,3.271,5.662,5.549,10.017,5.529c0.265,0.142,0.584,0.184,0.886,0.091c6.326-3.716,47.317-27.571,53.222-32.558
				c6.859,0.515,9.19-2.068,10.316-6.646c2.809,2.321,6.644,3.129,9.939,1.597c2.04-0.938,3.276-2.97,3.486-5.076
				C482.907,262.9,475.81,250.793,470.94,247.665z M458.519,275.285c-0.064,0.025-0.122,0.057-0.178,0.091
				c-0.09-0.093-0.177-0.189-0.255-0.291c-2.852-3.669-5.421-7.997-5.824-12.662c2.285-1.216,4.228-2.937,6.374-4.36
				c0.053,0.169,3.52,9.376,6.343,13.264C462.894,272.763,460.916,274.402,458.519,275.285z M390.073,309.23
				c0,0-0.896-0.556-0.892-0.533l-0.199-1.198l-0.018,0.027c0.738-1.101,1.291-2.328,2.239-3.284
				c0.321,0.771,1.673,3.248,1.733,3.339C391.95,308.035,390.073,309.23,390.073,309.23z M440.299,291.374
				c-0.425-0.336-0.736-0.749-0.993-1.199c1.746-1.038,3.402-2.217,5.014-3.465c0.445,0.506,0.956,0.958,1.479,1.362
				C443.964,289.169,442.119,290.253,440.299,291.374z M461.884,280.23c-2.557,0.288-2.727-0.752-4.166-0.345
				c-0.185,0.034-0.533,0.248-0.556,0.266c-3.188,2.834-6.742,5.128-10.365,7.318c-0.021-0.023-0.034-0.048-0.06-0.068
				c-0.524-0.405-1.087-0.855-1.56-1.367c1.338-1.062,2.654-2.156,3.978-3.24c0.314,0.536,0.705,1.024,1.185,1.421
				c0.208,0.241,0.559,0.246,0.777,0.042c0.219-0.204,0.246-0.559,0.042-0.777c-0.434-0.423-0.837-0.87-1.15-1.382
				c1.436-1.163,2.889-2.299,4.398-3.346c0.245-0.185,0.272-0.54,0.091-0.763c-0.185-0.245-0.54-0.272-0.763-0.091
				c-1.422,1.017-2.803,2.102-4.173,3.206c-0.081-0.269-0.143-0.552-0.17-0.861c-0.054-0.293-0.348-0.495-0.641-0.44
				c-0.293,0.055-0.495,0.348-0.44,0.641c0.078,0.464,0.206,0.924,0.375,1.37c-1.381,1.123-2.758,2.253-4.158,3.349
				c-0.22-0.384-0.379-0.798-0.423-1.257c-0.054-0.293-0.348-0.495-0.641-0.44c-0.293,0.054-0.495,0.348-0.44,0.641
				c0.084,0.63,0.319,1.201,0.639,1.725c-1.569,1.199-3.18,2.337-4.866,3.353c-0.205-0.425-0.411-0.848-0.676-1.231
				c-0.163-0.25-0.485-0.353-0.757-0.186c-0.254,0.14-0.353,0.485-0.213,0.738c0.267,0.385,0.484,0.807,0.697,1.233
				c-0.518,0.291-1.044,0.568-1.579,0.832c-5.753-2.816-9.035-10.232-7.101-16.318c6.159-3.841,12.087-7.94,18.498-11.334
				c0.28-0.122,0.406-0.448,0.284-0.729c-0.122-0.28-0.449-0.406-0.728-0.284c-4.236,2.418-14.377,8.684-15.347,9.237
				c-1.222,0.676-2.473,1.286-3.513,2.209c-0.012-0.027-0.02-0.053-0.031-0.082c-0.389-1.093-6.251,3.816-6.292,4.119
				c-0.037,0.024-0.071,0.052-0.108,0.076c-0.241,0.208-0.245,0.558-0.064,0.781c0.032,0.037,0.072,0.058,0.11,0.084
				c-0.343,6.798,2.779,13.396,8.321,17.335c0.002,0.003,0.002,0.007,0.004,0.01c0.181,0.223,0.54,0.272,0.789,0.11
				c1.499-1.095,6.472-4.446,6.368-4.592c0.302-0.154,0.604-0.309,0.901-0.472c0.259,0.463,0.56,0.898,0.957,1.263
				c-1.776,1.116-9.162,5.59-11.132,6.637c-0.025-0.023-0.046-0.049-0.076-0.068c-1.573-0.688-2.548-2.044-3.595-3.295
				c-0.185-0.245-0.54-0.272-0.763-0.091c-0.241,0.208-0.273,0.54-0.087,0.785c0.965,1.217,1.996,2.492,3.357,3.287
				c-1.745,0.935-3.482,1.885-5.211,2.849c0.074-0.259-0.046-0.533-0.299-0.654c-1.262-0.395-1.8-1.787-2.292-2.93
				c-0.122-0.281-0.43-0.433-0.714-0.334c-0.28,0.121-0.433,0.43-0.334,0.714c0.561,1.387,1.303,2.998,2.873,3.545
				c0.035,0.017,0.072,0.018,0.109,0.027c-1.745,0.976-3.482,1.966-5.209,2.973c-0.017-0.102-0.054-0.201-0.128-0.281
				c-0.889-1.023-1.969-1.942-2.323-3.344c-0.099-0.285-0.43-0.433-0.715-0.334c-0.284,0.099-0.433,0.43-0.333,0.714
				c0.465,1.499,1.488,2.614,2.556,3.721c0.017,0.018,0.039,0.025,0.057,0.04c-3.53,2.074-7.022,4.217-10.473,6.439
				c-5.387,0.017-9.477-4.496-11.368-9.193c-1.313-3.336-1.33-6.762-0.42-10.127c0.534-0.096,1.067-0.24,1.542-0.524
				c7.391-4.38,47.113-29.96,54.862-34.546c0.653-0.386,0.946-1.289,1.53-1.799c2.707-2.368,6.104,0.395,6.115,0.412
				c-1.542,1.047-4.781,3.256-4.781,3.256s1.314-2.085,0.888-2.496c-0.452-0.429-1.145-0.393-1.555,0.033
				c-0.188,0.245-1.047,1.639-1.047,1.639c-1.339,6.472,2.242,12.823,6.417,17.735c0.951,1.105,2.249,1.82,3.761,2.052
				c0.587,0.147,1.198-0.199,1.345-0.786c0.147-0.587-0.199-1.198-0.786-1.346c-0.07-0.012,3.447-2.394,5.233-3.633
				C466.46,273.231,467.965,279.544,461.884,280.23z M435.378,291.827c-0.048,0.011-0.096,0.018-0.141,0.042
				c-1.545,0.847-3.031,1.786-4.47,2.776c-5.308-3.749-8.131-10.163-7.663-16.662c1.601-1.184,2.952-2.711,4.68-3.739
				c0.019,0.103,0.143,0.299,0.148,0.305c-1.637,6.28,1.617,13.575,7.288,16.714c-0.026,0.084-0.039,0.173-0.022,0.265
				C435.219,291.649,435.29,291.749,435.378,291.827z M472.478,275.023c-2.027-0.935-5.388-4.224-5.495-4.288
				c-3.084-3.736-4.676-8.708-6.165-13.312c-0.77-2.359-1.713-5.338-0.58-7.698c0.393-0.461,0.837-0.853,1.33-1.171
				c-0.29,1.247,0.075,2.573,0.43,3.802c2.228,7.604,6.091,14.346,10.954,20.575c0.886,1.147,2.124,2.048,3.541,2.597
				C475.18,275.863,473.714,275.597,472.478,275.023z M480.048,270.727c-0.071,1.219-1.386,3.123-1.499,3.099
				c-1.623-0.328-3.075-1.247-4.059-2.532c-4.518-5.874-8.147-12.239-10.306-19.344c-0.353-1.146-0.087-4.13-0.183-4.382
				c2.201-0.484,4.049,0.726,5.947,1.913C473.14,251.475,480.539,263.829,480.048,270.727z"/>
			<path d="M360.677,337.323c-0.577,0.154-0.905,0.774-0.751,1.351c0.123,0.413,0.229,0.832,0.349,1.245
				c-0.025,0.04-0.052,0.08-0.071,0.125c-1.702,3.509-2.898,7.741-1.07,11.433c0.892,1.792,3.047,1.975,4.832,1.667l1.539-0.751
				c2.298-4.949-2.217-9.681-3.453-14.323C361.875,337.497,361.273,337.142,360.677,337.323z M363.822,350.94
				c0,0-2.196,0.402-2.57-0.228c-1.413-2.492-0.862-5.54,0.241-8.202c1.409,2.513,2.168,5.221,2.711,8.027L363.822,350.94z"/>
			<path d="M370.63,336.092c0.003-0.541,0.026-1.084,0.099-1.627c0.026-0.611-0.443-1.13-1.054-1.156
				c-0.253-0.011-0.487,0.067-0.68,0.2c-0.319-0.355-0.833-0.472-1.288-0.254c-0.557,0.266-0.786,0.915-0.519,1.471
				c0.38,0.87,0.77,1.734,1.393,2.463c0.048,3.572,0.286,7.542,3.758,8.958c0,0,2.35,0.1,2.61-0.252l0.611-0.976
				c0.61-1.862-0.059-3.835-1.244-5.316C373.247,338.232,371.772,337.297,370.63,336.092z M371.669,342.915
				c-0.266-1.169-0.538-2.349-0.74-3.535c1.197,1.028,2.305,2.102,2.662,3.714l-0.272,0.997l-0.245-0.015
				C372.456,344.144,371.877,343.785,371.669,342.915z"/>
			<path d="M363.283,327.632c-0.608,0.113-0.994,0.675-0.881,1.283c0.113,0.608,0.674,0.994,1.282,0.88
				c0.608-0.112,0.994-0.674,0.881-1.282C364.452,327.904,363.891,327.519,363.283,327.632z"/>
			<path d="M362.016,330.851c-0.608,0.112-0.994,0.674-0.881,1.282c0.113,0.609,0.674,0.994,1.282,0.881
				c0.609-0.113,0.994-0.674,0.881-1.283C363.185,331.123,362.624,330.738,362.016,330.851z"/>
			<path d="M407.214,305.767c-0.186-0.245-0.536-0.25-0.781-0.064c-0.219,0.204-0.246,0.559-0.042,0.777
				c0.684,0.922,1.523,1.675,2.536,2.233c0.263,0.161,0.597,0.076,0.762-0.165c0.161-0.263,0.098-0.601-0.165-0.762
				C408.632,307.252,407.836,306.608,407.214,305.767z"/>
			<path d="M418.09,280.742c-7.389,3.89-12.958,8.164-21.099,13.149l-1.666,0.822c-1.319,1.806-1.892,4.244-1.279,6.414
				c1.29,4.562,5.294,9.552,10.498,8.958c0.293-0.054,0.495-0.348,0.44-0.641c-0.055-0.293-0.348-0.495-0.641-0.44
				c-4.743,0.438-7.868-4.086-9.234-8.051c-0.518-1.536-0.164-3.14,0.553-4.555l0.805-1.251c0,0,20.076-12.952,22.042-13.411
				c0.285-0.099,0.41-0.426,0.288-0.706C418.674,280.75,418.37,280.62,418.09,280.742z"/>
		</g>
		<path fill="#FFFFFF" d="M404.423,295.005c5.027-3.055,10.066-6.041,15.167-8.947c0.28-0.122,0.379-0.467,0.235-0.743
			c-0.14-0.254-0.462-0.357-0.739-0.212c-5.154,2.868-10.204,5.927-15.257,8.964c-0.249,0.163-0.326,0.504-0.159,0.776
			C403.833,295.091,404.173,295.168,404.423,295.005L404.423,295.005z"/>
		<path fill="#FFFFFF" d="M424.583,281.191c0.054,0.293,0.348,0.495,0.641,0.44c0.293-0.054,0.495-0.348,0.44-0.641
			c-0.054-0.293-0.349-0.495-0.641-0.44C424.73,280.604,424.529,280.898,424.583,281.191L424.583,281.191z"/>
		<path fill="#FFFFFF" d="M427.511,280.391c5.134-4.357,10.99-7.845,16.711-11.425c0.25-0.163,0.327-0.503,0.186-0.757
			c-0.163-0.249-0.508-0.349-0.757-0.186c-5.763,3.611-11.681,7.134-16.857,11.522c-0.241,0.208-0.246,0.559-0.065,0.781
			C426.938,280.567,427.289,280.572,427.511,280.391L427.511,280.391z"/>
		<path fill="#FFFFFF" d="M477.511,269.24c-1.616-1.798-2.6-4.086-4.416-5.706c-0.222-0.192-0.568-0.174-0.783,0.052
			c-0.187,0.245-0.17,0.591,0.074,0.779c1.622,1.703,2.79,3.724,4.225,5.555c0.181,0.223,0.54,0.273,0.79,0.11
			C477.624,269.848,477.674,269.49,477.511,269.24L477.511,269.24z"/>
		<path fill="#FFFFFF" d="M470.454,261.111c0.054,0.293,0.349,0.495,0.641,0.44c0.293-0.055,0.495-0.348,0.441-0.641
			c-0.055-0.293-0.349-0.495-0.641-0.44C470.601,260.524,470.4,260.818,470.454,261.111L470.454,261.111z"/>
	</g>
</g>
</svg>
