<?xml version="1.0" encoding="utf-8"?>
<!-- Generator: Adobe Illustrator 17.0.1, SVG Export Plug-In . SVG Version: 6.00 Build 0)  -->
<!DOCTYPE svg PUBLIC "-//W3C//DTD SVG 1.1//EN" "http://www.w3.org/Graphics/SVG/1.1/DTD/svg11.dtd">
<svg version="1.1" id="レイヤー_1" xmlns="http://www.w3.org/2000/svg" xmlns:xlink="http://www.w3.org/1999/xlink" x="0px"
	 y="0px" width="841.89px" height="595.28px" viewBox="0 0 841.89 595.28" enable-background="new 0 0 841.89 595.28"
	 xml:space="preserve">
<rect x="350.035" y="227.246" fill="#A660A3" stroke="#A660A3" stroke-width="2" stroke-miterlimit="10" width="141.732" height="141.732"/>
<g>
	<g>
		<path fill="#CFDBE1" d="M452.438,276.043c-0.174-0.077-0.377-0.031-0.503,0.112c-4.392,5.016-17.668,8.386-33.036,8.386
			c-15.367,0-28.644-3.37-33.037-8.385c-0.125-0.143-0.328-0.189-0.502-0.112c-0.174,0.076-0.279,0.256-0.258,0.446l7.684,70.839
			c0.017,0.155,0.116,0.289,0.259,0.352c2.234,0.975,14.089,5.833,28.135,5.833c8.883,0,16.827-1.956,23.611-5.816
			c0.122-0.069,0.202-0.192,0.217-0.332l7.688-70.876C452.717,276.299,452.613,276.119,452.438,276.043z"/>
		<g>
			<path fill="#F4F4F4" d="M385.862,276.155c-0.125-0.143-0.328-0.189-0.502-0.112c-0.174,0.076-0.279,0.256-0.258,0.446
				l7.684,70.839c0.017,0.155,0.116,0.289,0.259,0.352c0.944,0.412,3.612,1.518,7.433,2.658l-7.104-69.624
				C389.989,279.44,387.388,277.897,385.862,276.155z"/>
			<path fill="#FDFDFB" d="M393.374,280.713l7.104,69.624c0.751,0.225,1.551,0.449,2.387,0.67l-5.883-69.125
				C395.702,281.523,394.493,281.134,393.374,280.713z"/>
			<path fill="#B1B1B2" d="M452.438,276.043c-0.174-0.077-0.377-0.031-0.503,0.112c-4.392,5.016-17.668,8.386-33.036,8.386
				c-8.265,0-15.919-0.977-21.917-2.658l5.883,69.125c4.973,1.319,11.372,2.506,18.314,2.506c8.883,0,16.827-1.956,23.611-5.816
				c0.122-0.069,0.202-0.192,0.217-0.332l7.688-70.876C452.717,276.299,452.613,276.119,452.438,276.043z"/>
			<path fill="#EBF0F3" d="M418.899,261.239c-18.827,0-34.17,5.152-34.2,11.535l0.085,0.762
				c1.218,6.008,16.203,10.714,34.115,10.714c17.916,0,32.901-4.707,34.122-10.756l0.081-0.768
				C453.072,266.392,437.728,261.239,418.899,261.239z"/>
		</g>
		<g>
			<path fill="#E8F5FA" d="M420.731,297.612h-2.446c-0.345,0-0.667,0.14-0.929,0.405c-0.327,0.33-0.512,0.813-0.507,1.324
				l0.475,46.428c0.006,0.598,0.523,1.083,1.153,1.083h1.964c0.63,0,1.148-0.486,1.155-1.083l0.568-46.428
				c0.006-0.511-0.177-0.993-0.504-1.324C421.397,297.752,421.076,297.612,420.731,297.612z"/>
			<path fill="#E8F5FA" d="M432.783,296.739l-2.478,0.521c-0.829,0.175-1.533,1.108-1.57,2.08l-1.736,46.431
				c-0.012,0.311,0.113,0.509,0.221,0.619c0.16,0.166,0.393,0.257,0.656,0.257c0.065,0,0.134-0.005,0.203-0.018l1.984-0.335
				c0.655-0.11,1.219-0.704,1.255-1.321l2.803-46.833c0.027-0.455-0.095-0.851-0.343-1.114
				C433.529,296.76,433.172,296.657,432.783,296.739z"/>
			<path fill="#E8F5FA" d="M444.924,294.437c-0.239-0.264-0.584-0.368-0.984-0.284l-2.525,0.531
				c-0.835,0.176-1.608,1.152-1.688,2.131l-3.812,47.289c-0.02,0.248,0.05,0.472,0.197,0.631c0.152,0.165,0.381,0.255,0.645,0.255
				c0.065,0,0.133-0.006,0.204-0.018l2.016-0.341c0.669-0.113,1.267-0.72,1.332-1.352l4.917-47.7
				C445.273,295.113,445.166,294.707,444.924,294.437z"/>
			<path fill="#E8F5FA" d="M408.206,297.26l-2.477-0.521c-0.392-0.083-0.746,0.022-0.995,0.286c-0.249,0.264-0.371,0.66-0.344,1.115
				l2.803,46.833c0.037,0.618,0.6,1.211,1.255,1.321l1.985,0.335c0.071,0.013,0.139,0.018,0.205,0.018
				c0.262,0,0.494-0.092,0.654-0.257c0.107-0.111,0.232-0.31,0.22-0.619l-1.736-46.432
				C409.74,298.367,409.036,297.434,408.206,297.26z"/>
			<path fill="#E8F5FA" d="M397.098,294.685l-2.525-0.531c-0.398-0.082-0.745,0.02-0.983,0.284
				c-0.242,0.269-0.349,0.675-0.301,1.143l4.916,47.7c0.065,0.631,0.662,1.238,1.332,1.352l2.015,0.341
				c0.072,0.012,0.141,0.018,0.208,0.018c0.261,0,0.489-0.091,0.64-0.255c0.149-0.162,0.218-0.38,0.197-0.632l-3.812-47.288
				C398.706,295.836,397.933,294.861,397.098,294.685z"/>
		</g>
		<g>
			<path fill="#D8D8D9" d="M420.731,297.612h-2.446c-0.345,0-0.667,0.14-0.929,0.405c-0.327,0.33-0.512,0.813-0.507,1.324
				l0.475,46.428c0.006,0.598,0.523,1.083,1.153,1.083h1.964c0.63,0,1.148-0.486,1.155-1.083l0.568-46.428
				c0.006-0.511-0.177-0.993-0.504-1.324C421.397,297.752,421.076,297.612,420.731,297.612z"/>
			<path fill="#E8F5FA" d="M430.305,297.26c-0.829,0.175-1.533,1.108-1.57,2.08l-1.736,46.431c-0.012,0.311,0.113,0.509,0.221,0.619
				c0.16,0.166,0.393,0.257,0.656,0.257c0.065,0,0.134-0.005,0.203-0.018l0.012-0.002l2.256-49.377L430.305,297.26z"/>
			<path fill="#D8D8D9" d="M433.778,297.026c-0.249-0.265-0.606-0.369-0.995-0.287l-2.436,0.512l-2.256,49.377l1.972-0.333
				c0.655-0.11,1.219-0.704,1.255-1.321l2.803-46.833C434.148,297.685,434.026,297.289,433.778,297.026z"/>
			<path fill="#E8F5FA" d="M441.414,294.685c-0.835,0.176-1.608,1.152-1.688,2.131l-3.812,47.289
				c-0.02,0.248,0.05,0.472,0.197,0.631c0.152,0.165,0.381,0.255,0.645,0.255c0.065,0,0.133-0.006,0.204-0.018l0.166-0.028
				l4.533-50.313L441.414,294.685z"/>
			<path fill="#D8D8D9" d="M444.924,294.437c-0.239-0.264-0.584-0.368-0.984-0.284l-2.279,0.479l-4.533,50.313l1.85-0.313
				c0.669-0.113,1.267-0.72,1.332-1.352l4.917-47.7C445.273,295.113,445.166,294.707,444.924,294.437z"/>
			<path fill="#D8D8D9" d="M405.729,296.739c-0.392-0.083-0.746,0.022-0.995,0.286c-0.249,0.264-0.371,0.66-0.344,1.115
				l2.803,46.833c0.037,0.618,0.6,1.211,1.255,1.321l1.574,0.266l-2.323-49.407L405.729,296.739z"/>
			<path fill="#E8F5FA" d="M409.777,299.339c-0.037-0.972-0.741-1.905-1.571-2.079l-0.506-0.106l2.323,49.407l0.411,0.069
				c0.071,0.013,0.139,0.018,0.205,0.018c0.262,0,0.494-0.092,0.654-0.257c0.107-0.111,0.232-0.31,0.22-0.619L409.777,299.339z"/>
			<path fill="#D8D8D9" d="M394.572,294.153c-0.398-0.082-0.745,0.02-0.983,0.284c-0.242,0.269-0.349,0.675-0.301,1.143l4.916,47.7
				c0.065,0.631,0.662,1.238,1.332,1.352l2.015,0.341c0.01,0.001,0.018,0.001,0.028,0.002l-4.706-50.338L394.572,294.153z"/>
			<path fill="#E8F5FA" d="M398.785,296.816c-0.079-0.979-0.852-1.955-1.688-2.131l-0.224-0.047l4.706,50.338
				c0.062,0.009,0.122,0.016,0.18,0.016c0.261,0,0.489-0.091,0.64-0.255c0.149-0.162,0.218-0.38,0.197-0.632L398.785,296.816z"/>
		</g>
		<ellipse fill="#D3D3D4" cx="419.214" cy="272.445" rx="31.543" ry="9.289"/>
		<path d="M419.159,282.428c17.805,0,31.752-4.317,31.752-9.829c0-5.511-13.947-9.828-31.752-9.828
			c-17.805,0-31.753,4.317-31.753,9.828C387.407,278.111,401.354,282.428,419.159,282.428z M419.159,263.771
			c18.396,0,30.752,4.565,30.752,8.828c0,4.264-12.357,8.829-30.752,8.829c-18.396,0-30.753-4.565-30.753-8.829
			C388.407,268.336,400.764,263.771,419.159,263.771z"/>
		<path d="M419.159,260.449c-19.542,0-34.849,5.337-34.849,12.151c0,0.016,0.003,0.032,0.003,0.049c0,0.002-0.001,0.004,0,0.005
			l0.002,0.022c0.004,0.258,0.035,0.512,0.083,0.766l8.043,74.142c0.019,0.174,0.127,0.325,0.286,0.399
			c0.195,0.091,13.176,6.024,28.725,6.024c7.844,0,16.343-1.511,24.18-6.045c0.138-0.08,0.229-0.22,0.247-0.379l8.043-74.147
			c0.046-0.247,0.076-0.496,0.081-0.748l0.004-0.035c0-0.003-0.001-0.005-0.001-0.008c0-0.015,0.003-0.03,0.003-0.046
			C454.008,265.786,438.701,260.449,419.159,260.449z M419.159,261.449c18.334,0,33.825,5.099,33.848,11.138l-0.078,0.718
			c-1.149,5.731-16.141,10.445-33.77,10.445c-17.625,0-32.615-4.713-33.77-10.442l-0.079-0.725
			C385.338,266.546,400.827,261.449,419.159,261.449z M444.911,347.223c-21.725,12.389-48.607,1.237-51.507-0.033l-7.05-64.996
			c4.864,4.739,17.981,7.975,32.806,7.975c14.612,0,27.77-3.248,32.808-7.994L444.911,347.223z M452.137,280.607
			c-0.064,0.03-0.124,0.071-0.173,0.128c-4.107,4.886-17.903,8.433-32.805,8.433c-15.458,0-28.958-3.491-32.829-8.489
			c-0.043-0.056-0.097-0.1-0.155-0.132l-0.489-4.504c4.164,5.084,17.377,8.706,33.473,8.706c16.096,0,29.31-3.623,33.473-8.707
			L452.137,280.607z"/>
		<path d="M420.585,297.112h-2.446c-0.514,0-1.007,0.212-1.388,0.596c-0.447,0.452-0.7,1.103-0.693,1.785l0.475,46.428
			c0.009,0.949,0.816,1.721,1.798,1.721h1.964c0.982,0,1.789-0.772,1.8-1.72l0.568-46.429c0.008-0.682-0.243-1.332-0.69-1.785
			C421.593,297.324,421.1,297.112,420.585,297.112z M421.095,345.911c-0.005,0.404-0.364,0.732-0.8,0.732h-1.964
			c-0.436,0-0.794-0.328-0.798-0.731l-0.475-46.429c-0.004-0.417,0.143-0.807,0.404-1.071c0.135-0.137,0.363-0.3,0.677-0.3h2.446
			c0.314,0,0.541,0.163,0.677,0.3c0.26,0.264,0.406,0.654,0.401,1.07L421.095,345.911z"/>
		<path d="M432.505,296.253l-2.477,0.521c-1.119,0.236-2.033,1.416-2.083,2.686l-1.736,46.432c-0.016,0.419,0.127,0.807,0.401,1.091
			c0.282,0.292,0.679,0.454,1.118,0.454c0.102,0,0.207-0.009,0.313-0.027l1.983-0.335c0.95-0.161,1.737-1.003,1.792-1.919
			l2.803-46.832c0.038-0.634-0.146-1.201-0.518-1.596C433.702,296.303,433.113,296.126,432.505,296.253z M430.819,345.097
			c-0.027,0.455-0.467,0.909-0.961,0.992l-1.984,0.335c-0.223,0.039-0.425-0.012-0.544-0.135c-0.085-0.089-0.127-0.213-0.122-0.36
			l1.736-46.431c0.031-0.805,0.622-1.605,1.29-1.746l2.477-0.521c0.063-0.013,0.125-0.02,0.185-0.02
			c0.191,0,0.352,0.068,0.479,0.202c0.181,0.192,0.269,0.494,0.248,0.85L430.819,345.097z"/>
		<path d="M445.257,294.151c-0.39-0.433-0.982-0.613-1.596-0.483l-2.525,0.531c-1.128,0.238-2.093,1.428-2.197,2.71l-3.812,47.289
			c-0.035,0.43,0.095,0.828,0.366,1.121c0.276,0.299,0.672,0.463,1.115,0.463c0.102,0,0.207-0.009,0.315-0.027l2.015-0.341
			c0.953-0.161,1.772-1.005,1.867-1.922l4.917-47.7C445.788,295.139,445.623,294.557,445.257,294.151z M444.726,295.689l-4.916,47.7
			c-0.048,0.467-0.533,0.952-1.039,1.038l-2.015,0.341c-0.225,0.038-0.419-0.01-0.529-0.128c-0.101-0.109-0.112-0.257-0.103-0.362
			l3.811-47.288c0.068-0.836,0.712-1.666,1.406-1.813l2.525-0.531c0.065-0.014,0.129-0.021,0.189-0.021
			c0.187,0,0.341,0.066,0.458,0.195C444.686,295.011,444.764,295.328,444.726,295.689z"/>
		<path d="M408.193,296.773l-2.477-0.521c-0.605-0.128-1.196,0.05-1.597,0.475c-0.372,0.395-0.556,0.961-0.518,1.596l2.803,46.832
			c0.054,0.915,0.842,1.758,1.792,1.919l1.983,0.335c0.107,0.018,0.212,0.027,0.314,0.027c0.439,0,0.836-0.162,1.118-0.455
			c0.274-0.285,0.416-0.672,0.401-1.091l-1.736-46.432C410.229,298.19,409.314,297.01,408.193,296.773z M410.892,346.289
			c-0.092,0.096-0.233,0.148-0.398,0.148c-0.047,0-0.096-0.004-0.147-0.013l-1.983-0.335c-0.493-0.083-0.933-0.538-0.96-0.992
			l-2.803-46.833c-0.021-0.356,0.067-0.658,0.248-0.851c0.126-0.134,0.287-0.202,0.478-0.202c0.059,0,0.122,0.007,0.185,0.02
			l2.476,0.521c0.669,0.141,1.259,0.94,1.29,1.745l1.736,46.432C411.019,346.076,410.977,346.201,410.892,346.289z"/>
		<path d="M397.086,294.199l-2.525-0.531c-0.614-0.13-1.206,0.051-1.596,0.483c-0.366,0.406-0.531,0.989-0.464,1.641l4.916,47.7
			c0.094,0.917,0.914,1.761,1.866,1.922l2.015,0.341c0.108,0.018,0.214,0.027,0.315,0.027c0.444,0,0.84-0.165,1.115-0.463
			c0.27-0.293,0.4-0.691,0.365-1.121l-3.812-47.289C399.179,295.627,398.214,294.436,397.086,294.199z M401.994,344.64
			c-0.109,0.119-0.306,0.167-0.529,0.128l-2.015-0.341c-0.505-0.085-0.99-0.57-1.038-1.038l-4.916-47.7
			c-0.037-0.362,0.04-0.678,0.211-0.869c0.117-0.13,0.271-0.195,0.458-0.195c0.06,0,0.124,0.007,0.19,0.021l2.525,0.531
			c0.695,0.146,1.339,0.976,1.406,1.812l3.812,47.289C402.107,344.383,402.095,344.53,401.994,344.64z"/>
	</g>
	<g>
		<g>
			<path fill="#C9CACA" d="M440.923,259.046l-0.12-0.058c-0.309-0.147-0.623-0.293-0.939-0.438l-0.265-0.124
				c-0.281-0.127-0.565-0.254-0.851-0.38l-0.378-0.168c-0.249-0.109-0.501-0.217-0.791-0.339l-0.468-0.199
				c-0.233-0.098-0.471-0.194-0.76-0.311l-1.199-0.478c-0.125-0.049-0.263-0.037-0.378,0.029c-0.114,0.067-0.192,0.183-0.211,0.314
				c0,0.001-0.008,0.059-0.008,0.061c-0.009,0.059-0.015,0.118-0.031,0.177l-0.221,0.779c-0.057,0.203,0.039,0.418,0.228,0.51
				l1.81,0.944l0.212-0.381l-0.151,0.415l0.584,0.336c0.003,0.003,0.006,0.004,0.008,0.006c2.342,1.387,3.775,2.706,4.151,3.828
				c0.02,0.061,0.038,0.121,0.059,0.229c0.009,0.048,0.02,0.097,0.025,0.162l0.005,0.09c0.001,0.025,0.004,0.052,0.003,0.081
				c0,0.026-0.003,0.052-0.01,0.109l-0.004,0.072c-0.009,0.061-0.022,0.122-0.039,0.182l-0.541,1.914
				c-0.493,1.742-4.423,2.296-10.515,1.484c-2.876-0.384-6.041-1.052-9.153-1.931c-4.869-1.376-9.313-3.15-12.514-4.995
				c-3.253-1.876-4.843-3.624-4.476-4.92l0.541-1.915c0.479-1.697,4.25-2.276,10.084-1.552c0.213,0.027,0.415-0.107,0.473-0.313
				l0.171-0.596c0.005-0.01,0.031-0.073,0.035-0.085c0.042-0.121,0.03-0.255-0.036-0.366c-0.066-0.111-0.177-0.187-0.305-0.207
				c-0.302-0.05-0.603-0.099-0.925-0.148c-0.373-0.057-0.742-0.109-1.109-0.161l-0.343-0.048l-0.689-0.088l-3.372-0.351
				c-0.246-0.02-0.491-0.04-0.734-0.057l-0.248-0.015c-0.31-0.021-0.62-0.042-0.924-0.057l-0.115-0.005
				c-8.616-0.439-14.784,0.963-16.92,3.847c-0.018,0.024-0.035,0.049-0.061,0.091c-0.079,0.113-0.157,0.226-0.224,0.343
				c-0.031,0.055-0.058,0.11-0.085,0.167l-0.061,0.121c-0.029,0.055-0.057,0.11-0.081,0.166c-0.066,0.156-0.123,0.315-0.168,0.477
				c-1.775,6.279,11.964,15.679,30.625,20.955c4.612,1.304,9.157,2.26,13.51,2.84c4.166,0.556,8.011,0.749,11.428,0.572
				c6.866-0.354,11.286-2.26,12.127-5.232c0.011-0.037,0.018-0.076,0.025-0.115l0.012-0.058c0.028-0.113,0.055-0.227,0.072-0.343
				C457.298,269.692,451.256,263.996,440.923,259.046z"/>
			<path fill="#EBF0F3" d="M434.141,262.756l-2.933-0.829c-0.484-0.137-0.887-0.455-1.133-0.896
				c-0.246-0.441-0.307-0.95-0.169-1.434l0.354-1.257c0.065-0.231-0.069-0.472-0.3-0.537l-11.173-3.158
				c-0.232-0.065-0.472,0.069-0.537,0.3l-0.356,1.257c-0.278,0.983-1.314,1.586-2.328,1.303l-2.932-0.829
				c-0.484-0.137-0.887-0.455-1.133-0.896c-0.246-0.44-0.306-0.95-0.169-1.434c0.106-0.375,0.333-0.708,0.656-0.961
				c0.143-0.112,0.201-0.301,0.147-0.474c-0.054-0.173-0.207-0.292-0.391-0.304c-4.056-0.221-6.584,0.363-6.934,1.603
				c-0.609,2.152,5.993,6.507,16.79,9.559c3.155,0.892,6.311,1.562,9.126,1.938c1.464,0.195,2.837,0.312,4.081,0.346
				c3.608,0.101,5.775-0.48,6.102-1.637c0.028-0.099,0.042-0.204,0.042-0.316c-0.003-1.038-1.348-2.43-3.786-3.919
				c-0.147-0.089-0.33-0.085-0.472,0.011c-0.141,0.096-0.214,0.266-0.185,0.434c0.049,0.288,0.037,0.566-0.037,0.828
				C436.192,262.437,435.152,263.039,434.141,262.756z"/>
			<path fill="#CFDBE1" d="M439.799,265.759c-1.103,0.443-2.833,0.645-5.002,0.585c-3.646-0.102-8.462-0.934-13.277-2.295
				c-7.902-2.234-14.518-5.502-16.464-8.132c-0.099-0.133-0.265-0.199-0.429-0.168c-0.163,0.03-0.295,0.15-0.34,0.31l-0.019,0.067
				c-0.327,1.157,1.215,2.788,4.342,4.59c3.18,1.833,7.6,3.597,12.448,4.967c3.194,0.903,6.241,1.552,9.057,1.927
				c4.396,0.587,9.719,0.604,10.266-1.327c0.046-0.16-0.004-0.332-0.127-0.443C440.13,265.728,439.953,265.697,439.799,265.759z"/>
			<path fill="#E3E3E4" d="M414.838,253.679l-1.259-0.356c-0.857-0.24-1.735,0.274-1.969,1.103c-0.24,0.847,0.254,1.731,1.102,1.971
				l2.932,0.829c0.857,0.244,1.736-0.27,1.971-1.102l0.513-1.815c0.02-0.069,0.091-0.121,0.179-0.101l12.29,3.475
				c0.077,0.022,0.122,0.102,0.101,0.179l-0.513,1.815c-0.24,0.848,0.254,1.732,1.102,1.971l2.931,0.829
				c0.076,0.022,0.152,0.037,0.228,0.047c0.78,0.104,1.53-0.39,1.745-1.149c0.116-0.41,0.065-0.842-0.144-1.213
				c-0.208-0.372-0.549-0.642-0.959-0.757l-1.258-0.356c-0.036-0.01-0.068-0.035-0.087-0.068c-0.019-0.034-0.023-0.074-0.012-0.111
				l0.513-1.816c0.239-0.847-0.255-1.731-1.103-1.971l-15.641-4.422c-0.856-0.244-1.736,0.269-1.971,1.102l-0.513,1.815
				C414.998,253.647,414.942,253.69,414.838,253.679z"/>
			<path fill="#959EA3" d="M455.525,277.065c-0.156-0.104-0.362-0.097-0.511,0.018c-2.088,1.627-5.734,2.619-10.543,2.867
				c-3.432,0.177-7.295-0.017-11.483-0.575c-4.369-0.583-8.927-1.541-13.549-2.848c-15.677-4.432-28.26-11.897-30.601-18.154
				c-0.065-0.177-0.238-0.289-0.426-0.282c-0.188,0.008-0.349,0.135-0.401,0.316l-0.826,2.919c-0.84,2.97,1.928,6.909,7.593,10.806
				c5.79,3.983,13.971,7.587,23.034,10.149c4.611,1.304,9.157,2.259,13.511,2.84c4.166,0.556,8.01,0.748,11.427,0.572
				c6.867-0.354,11.287-2.26,12.126-5.231l0.825-2.918C455.753,277.364,455.681,277.171,455.525,277.065z"/>
		</g>
		<path d="M434.762,255.733c-0.038-0.015-0.078-0.015-0.117-0.02c-0.26-0.593-0.764-1.075-1.434-1.265l-15.642-4.422
			c-0.199-0.056-0.405-0.085-0.611-0.085c-0.547,0-1.056,0.207-1.453,0.547c-0.052-0.031-0.109-0.055-0.172-0.066
			c-14.759-2.474-25.677-0.594-27.169,4.681c0,0,0,0,0,0.001l-1.707,6.034c-0.933,3.301,1.854,7.39,7.848,11.512
			c5.848,4.022,14.095,7.658,23.224,10.239c8.069,2.281,15.982,3.5,22.605,3.499c0.87,0,1.719-0.021,2.542-0.063
			c7.266-0.375,11.78-2.399,12.713-5.7l1.707-6.034c0,0,0,0,0,0C458.667,269.033,449.692,261.455,434.762,255.733z M437.071,260.595
			c2.58,1.617,3.601,2.96,3.388,3.711l0,0.001c-0.212,0.738-1.838,1.486-5.75,1.377c-3.641-0.102-8.3-0.909-13.121-2.271
			c-10.435-2.95-17.095-7.174-16.545-9.12c0.262-0.926,2.469-1.601,6.799-1.331c-0.454,0.289-0.806,0.733-0.959,1.275
			c-0.336,1.189,0.357,2.431,1.547,2.768l2.933,0.828c0.2,0.056,0.405,0.085,0.611,0.085c0.998,0,1.884-0.671,2.155-1.632
			l0.377-1.334l11.329,3.202l-0.377,1.334c-0.164,0.576-0.092,1.182,0.2,1.705c0.292,0.522,0.771,0.9,1.347,1.063l2.933,0.829
			c0.2,0.056,0.405,0.085,0.611,0.085c0.997,0,1.884-0.671,2.156-1.632c0.109-0.385,0.104-0.782,0.007-1.159
			c0.094,0.057,0.195,0.115,0.285,0.171C437.023,260.564,437.045,260.579,437.071,260.595z M404.502,256.207l0.06-0.211
			c2.031,2.952,9.414,6.303,16.754,8.378c4.897,1.384,9.644,2.204,13.364,2.309c0.251,0.007,0.506,0.011,0.764,0.011
			c1.619,0,3.341-0.156,4.532-0.683l-0.059,0.207c-0.55,1.946-8.435,2.058-18.872-0.893
			C410.612,262.376,403.952,258.153,404.502,256.207z M417.298,250.988l15.642,4.422c0.659,0.187,1.043,0.874,0.857,1.533
			l-0.514,1.815c-0.075,0.266,0.079,0.542,0.345,0.617l1.258,0.356c0.319,0.09,0.584,0.299,0.746,0.588
			c0.162,0.29,0.202,0.625,0.112,0.944c-0.182,0.642-0.881,1.041-1.534,0.857l-2.933-0.828c-0.319-0.091-0.584-0.3-0.746-0.589
			c-0.162-0.29-0.201-0.625-0.111-0.944l0.513-1.816c0.075-0.266-0.079-0.542-0.345-0.617l-12.291-3.474
			c-0.045-0.013-0.091-0.019-0.136-0.019c-0.218,0-0.418,0.144-0.481,0.364l-0.514,1.816c-0.181,0.641-0.88,1.041-1.532,0.856
			l-2.933-0.828c-0.659-0.187-1.043-0.874-0.857-1.533c0.181-0.643,0.884-1.04,1.532-0.857l1.258,0.355
			c0.267,0.075,0.542-0.079,0.617-0.345l0.513-1.815C415.947,251.203,416.648,250.804,417.298,250.988z M414.882,251.363
			c-0.028,0.07-0.058,0.137-0.079,0.21l-0.183,0.649c-3.107-0.392-9.775-0.9-10.538,1.798l0,0.001l-0.541,1.914
			c-0.932,3.297,8.184,7.795,17.235,10.354c4.958,1.402,10.236,2.318,14.151,2.317c3.231,0,5.533-0.624,5.955-2.116l0.54-1.913
			c0.044-0.155,0.065-0.311,0.067-0.467c0-0.018-0.002-0.037-0.003-0.055c-0.001-0.06-0.002-0.12-0.009-0.18
			c-0.005-0.041-0.014-0.083-0.021-0.125c-0.006-0.037-0.011-0.074-0.019-0.111c-0.015-0.063-0.034-0.126-0.055-0.189
			c-0.005-0.016-0.008-0.031-0.013-0.047c-0.026-0.074-0.056-0.149-0.089-0.224c-0.002-0.004-0.003-0.008-0.005-0.012
			c-0.601-1.336-2.376-2.667-4.215-3.753c-0.002-0.002-0.005-0.003-0.008-0.005c-0.091-0.054-0.182-0.107-0.273-0.159
			c-0.019-0.011-0.038-0.022-0.056-0.032c-0.075-0.043-0.15-0.085-0.225-0.127c-0.035-0.02-0.07-0.04-0.105-0.059
			c-0.06-0.033-0.119-0.065-0.178-0.098c-0.05-0.027-0.1-0.055-0.15-0.082c-0.044-0.024-0.087-0.047-0.131-0.071
			c-0.065-0.035-0.131-0.07-0.195-0.104c-0.028-0.015-0.056-0.029-0.083-0.044c-0.08-0.042-0.16-0.084-0.238-0.124
			c-0.014-0.007-0.027-0.014-0.041-0.021c-0.294-0.152-0.581-0.295-0.854-0.428l0.239-0.844c0.036-0.127,0.055-0.256,0.067-0.383
			c13.728,5.34,22.67,12.661,21.308,17.486c0,0,0,0,0,0l0,0.002c-0.797,2.814-5.099,4.626-11.803,4.972
			c-6.982,0.362-15.797-0.847-24.823-3.399c-9.027-2.552-17.17-6.139-22.929-10.1c-5.531-3.804-8.247-7.601-7.452-10.416l0-0.001v0
			C390.443,250.724,401.016,249.085,414.882,251.363z M442.625,285.326c-6.98,0.36-15.797-0.848-24.824-3.4
			c-9.026-2.551-17.169-6.138-22.929-10.1c-5.531-3.805-8.248-7.602-7.452-10.416l0.895-3.164c0.869,2.6,3.489,5.476,7.697,8.37
			c5.847,4.022,14.095,7.658,23.224,10.239c8.068,2.281,15.98,3.499,22.604,3.499c0.87,0,1.719-0.021,2.542-0.064
			c5.1-0.263,8.838-1.342,10.94-3.101l-0.895,3.163C453.632,283.168,449.33,284.98,442.625,285.326z"/>
		<path fill="#FCFBF7" d="M390.339,255.444c0,0,2.82-1.381,12.055,0.73c0,0-0.153,1.151,1.276,2.512c0,0-6.208,0.441-9.256,4.622
			C394.414,263.309,388.267,257.803,390.339,255.444z"/>
		<path fill="#FFFFFF" d="M404.524,259.972c0,0-6.125,1.282-7.919,4.85l1.013,0.818c0,0,2.309-3.401,7.801-5.06L404.524,259.972z"/>
		<path fill="#FFFFFF" d="M424.936,254.236c-0.066,0.231-0.308,0.363-0.539,0.297l-7.111-2.055
			c-0.231-0.066-0.364-0.308-0.297-0.539l0,0c0.066-0.231,0.308-0.364,0.539-0.297l7.111,2.054
			C424.87,253.763,425.003,254.005,424.936,254.236L424.936,254.236z"/>
	</g>
</g>
</svg>
