<?xml version="1.0" encoding="utf-8"?>
<!-- Generator: Adobe Illustrator 17.0.1, SVG Export Plug-In . SVG Version: 6.00 Build 0)  -->
<!DOCTYPE svg PUBLIC "-//W3C//DTD SVG 1.1//EN" "http://www.w3.org/Graphics/SVG/1.1/DTD/svg11.dtd">
<svg version="1.1" id="レイヤー_1" xmlns="http://www.w3.org/2000/svg" xmlns:xlink="http://www.w3.org/1999/xlink" x="0px"
	 y="0px" width="841.89px" height="595.28px" viewBox="0 0 841.89 595.28" enable-background="new 0 0 841.89 595.28"
	 xml:space="preserve">
<rect x="349.864" y="226.481" fill="none" stroke="#A660A3" stroke-width="2" stroke-miterlimit="10" width="141.732" height="141.732"/>
<path d="M379.904,348.261c0,0-4.086,3.454-2.799,4.862c1.399,1.531,9.461-1.865,9.727-3.064c0.266-1.199-0.066-2.398-0.066-2.398
	L379.904,348.261z"/>
<path d="M395.995,348.548c0,0,4.084,3.454,2.798,4.862c-1.399,1.531-9.46-1.865-9.726-3.064c-0.267-1.199,0.066-2.398,0.066-2.398
	L395.995,348.548z"/>
<path fill="#C2C3C3" d="M397.29,325.892l-7.694,0.277v-0.826h-4.397v0.642l-8.794,1.256c0.1,0.3,2.698,21.318,2.698,21.318
	s5.496,1.099,8.195,0.1l-0.388-22.217h0.483l1.256,22.204c0,0,4.396,0.966,8.393-0.034L397.29,325.892z"/>
<path fill="#AAABAC" d="M378.454,328.666c1.11,0.034,2.212,0.044,3.323,0.062c1.325,0.022,2.645-0.061,3.971-0.175
	c0.292-0.025,0.763-0.087,1.2-0.199l-0.038-1.911h0.483l0.129,2.01c2.097,0.337,4.094,0.38,6.233,0.288
	c1.159-0.049,2.324-0.146,3.506-0.267l0.028-2.582l-7.694,0.277l-4.397-0.826v0.642l-8.794,1.256c0.013,0.04,0.098,0.6,0.188,1.274
	C377.212,328.606,377.817,328.647,378.454,328.666z"/>
<rect x="380.614" y="294.865" fill="#FFFFFF" width="12.205" height="18.521"/>
<polygon fill="#AAABAB" points="386.012,302.522 384.408,309.655 386.666,313.092 389.316,309.819 387.975,302.554 "/>
<path fill="#D5D5D6" d="M388.536,305.594l-0.561-3.04l-1.963-0.032l-0.046,0.204C386.871,303.638,387.72,304.601,388.536,305.594z"
	/>
<path fill="#D5D5D6" d="M386.223,310.512c-0.48-0.682-0.971-1.37-1.57-1.946l-0.246,1.09l2.258,3.437l0.758-0.935
	C387.039,311.598,386.611,311.064,386.223,310.512z"/>
<path fill="#D5D5D6" d="M386.538,309.577c0.453,0.637,0.959,1.268,1.417,1.923l0.861-1.062c-0.578-0.764-1.252-1.484-1.82-2.199
	c-0.586-0.737-1.127-1.573-1.75-2.308l-0.39,1.733C385.509,308.206,386.043,308.879,386.538,309.577z"/>
<path fill="#D5D5D6" d="M388.193,308.463c0.356,0.447,0.748,0.896,1.121,1.358l0.002-0.002l-0.499-2.7
	c-0.377-0.451-0.772-0.887-1.127-1.31c-0.621-0.74-1.266-1.455-1.934-2.149l-0.292,1.298
	C386.492,305.994,387.309,307.348,388.193,308.463z"/>
<path fill="#FFFFFF" stroke="#000000" stroke-miterlimit="10" d="M403.653,323.886c0.127,0.281,1.789,3.997-0.536,4.34
	c-2.429,0.361-3.405-1.479-3.581-3.693v-0.031C401.493,324.597,402.941,324.166,403.653,323.886z"/>
<path d="M371.825,325.371c-2.068-0.677-3.664,0.982-3.751,2.671v1.698l1.154,0.377v-1.7c0-1.486,1.165-2.315,2.598-1.848
	c1.431,0.468,2.597,2.06,2.597,3.547v1.699l1.154,0.378v-1.699C375.576,328.348,373.893,326.048,371.825,325.371z"/>
<polygon fill="#484240" points="378.755,331.305 366.127,327.717 364.67,328.3 364.689,338.926 377.317,342.515 378.775,341.931 "/>
<g>
	<g>
		<g>
			<polygon fill="#DDDEDE" points="364.67,328.3 364.689,338.926 377.317,342.515 377.298,331.89 			"/>
		</g>
		<g>
			<polygon fill="#A4A4A5" points="377.317,342.515 378.775,341.931 378.755,331.305 377.298,331.89 			"/>
		</g>
		<g>
			<polygon fill="#DDDEDE" points="377.298,331.89 378.755,331.305 366.127,327.717 364.67,328.3 			"/>
		</g>
	</g>
</g>
<path d="M371.492,325.472c-2.069-0.676-3.664,0.982-3.751,2.671v1.7l1.154,0.376v-1.699c0-1.486,1.165-2.316,2.597-1.849
	c1.431,0.468,2.597,2.06,2.597,3.548v1.698l1.154,0.378v-1.698C375.242,328.447,373.56,326.148,371.492,325.472z"/>
<path fill="#FCFEFF" stroke="#000000" stroke-miterlimit="10" d="M370.861,324.081c-0.392,0.733-1.666,3.407,0.442,3.806
	c2.438,0.455,3.567-0.991,3.747-3.218c-0.066,0.004-0.14,0.016-0.205,0.019C372.986,324.766,371.61,324.368,370.861,324.081z"/>
<path fill="#C2C3C3" d="M375.213,298.693c0,0-2.159,0.099-3.386,4.418c-1.227,4.32-2.722,18.022-3.115,20.967
	c0,0,3.065,1.367,6.6,1.023L375.213,298.693z"/>
<path fill="#AAABAC" d="M375.312,325.101l-0.099-26.408c0,0-0.446,0.025-1.047,0.451v26
	C374.547,325.147,374.931,325.138,375.312,325.101z"/>
<path fill="#C2C3C3" d="M398.317,298.693c0,0,2.16,0.099,3.387,4.418c1.227,4.32,2.988,17.889,3.381,20.834
	c0,0-3.333,1.5-6.867,1.156L398.317,298.693z"/>
<path fill="#AAABAC" d="M398.218,325.101l0.099-26.408c0,0,0.447,0.025,1.047,0.451v26
	C398.983,325.147,398.599,325.138,398.218,325.101z"/>
<path fill="#C2C3C3" d="M398.439,298.738c-0.262-0.294-3.919-1.583-5.62-2.008c0,0-0.261,8.314-6.054,15.549
	c-5.794-7.235-6.054-15.549-6.054-15.549c-1.701,0.425-5.179,1.721-5.498,1.963c-0.313,0.24-0.315,28.256,0.197,28.862
	c0.746,0.886,9.948,0.49,9.948,0.49l1.739-0.353l1.074,0.353c0,0,9.418,0.396,9.948-0.49
	C398.673,326.632,398.702,299.031,398.439,298.738z"/>
<polygon fill="#AAABAB" points="386.231,298.528 384.334,300.637 385.914,302.85 388.022,302.85 389.392,300.741 387.601,298.528 
	"/>
<polygon fill="#D5D5D6" points="388.998,301.349 387.271,302.85 388.022,302.85 "/>
<path fill="#D5D5D6" d="M387.704,298.657l-0.103-0.129h-1.37l-1.897,2.108l0.557,0.781
	C385.86,300.531,386.761,299.571,387.704,298.657z"/>
<path fill="#D5D5D6" d="M386.019,302.85c0.947-0.92,1.907-1.822,2.926-2.662l-0.739-0.912c-0.956,0.925-1.872,1.891-2.855,2.786
	l0.563,0.788H386.019z"/>
<circle fill="#AAABAC" cx="386.503" cy="314.891" r="1.08"/>
<circle fill="#AAABAC" cx="386.601" cy="320.486" r="1.08"/>
<path fill="#AAABAC" d="M378.919,297.24l-0.63,8.489l3.271,0.72l-1.505,2.553c0,0,1.957,2.597,6.735,3.317
	c0,0-5.303-7.875-6.088-15.631L378.919,297.24z"/>
<path fill="#AAABAC" d="M394.59,297.204l0.651,8.524l-3.271,0.72l1.505,2.553c0,0-2.59,3.264-6.742,3.335
	c0,0,5.288-7.88,6.074-15.636L394.59,297.204z"/>
<path d="M378.721,244.078c0,0-7.341-2.314-13.514,4.784c-5.629,6.476-8.585,18.58-3.377,27.588l2.66-1.073
	c0,0,3.55-19.464,17.069-22.514c13.518-3.05,26.899,22.078,26.899,22.078l0.684,3.341l3.076-1.127c0,0,6.474-14.779-5.349-28.854
	C396.879,236.407,380.221,241.608,378.721,244.078z"/>
<path fill="#FFFFFF" stroke="#000000" stroke-miterlimit="10" d="M409.192,273.846c0,13.991-7.705,24.349-22.766,24.349
	c-14.923,0-22.767-10.358-22.767-24.349c0-13.992,6.178-26.531,22.767-26.531C402.111,247.315,409.192,259.854,409.192,273.846z"/>
<path fill="#FFFFFF" stroke="#000000" stroke-miterlimit="10" d="M364.996,275.605c0,0-1.266-2.111-3.519-1.83
	c-2.252,0.282-2.816,4.223-2.111,6.334c0.671,2.006,4.222,5.489,6.334,4.222L364.996,275.605z"/>
<path fill="#FFFFFF" stroke="#000000" stroke-miterlimit="10" d="M407.995,275.605c0,0,1.266-2.111,3.519-1.83
	c2.252,0.282,2.815,4.223,2.11,6.334c-0.669,2.006-4.222,5.489-6.333,4.222L407.995,275.605z"/>
<circle cx="374.119" cy="276.881" r="2.698"/>
<circle cx="398.559" cy="276.881" r="2.698"/>
<path d="M385.897,284.661c-0.083,0-0.168-0.026-0.239-0.08l-1.688-1.266c-0.168-0.126-0.21-0.362-0.095-0.538l1.583-2.429
	c0.12-0.185,0.368-0.237,0.553-0.117c0.185,0.121,0.237,0.368,0.117,0.553l-1.379,2.115l1.389,1.042
	c0.177,0.132,0.212,0.383,0.08,0.56C386.138,284.606,386.018,284.661,385.897,284.661L385.897,284.661z"/>
<path d="M386.537,289.001c-2.606,0-4.183-0.819-4.277-0.869c-0.195-0.104-0.268-0.346-0.164-0.541
	c0.103-0.194,0.344-0.268,0.54-0.165l0,0c0.031,0.016,3.098,1.59,7.719,0.183c0.212-0.065,0.434,0.055,0.499,0.266
	c0.064,0.211-0.055,0.434-0.266,0.499C389.061,288.839,387.697,289.001,386.537,289.001L386.537,289.001z"/>
<path d="M395.4,270.575c-0.307,0-0.6-0.177-0.732-0.476c-0.179-0.403,0.002-0.874,0.404-1.053c0.12-0.053,2.955-1.29,6.227-0.439
	c0.427,0.111,0.684,0.548,0.572,0.975c-0.111,0.427-0.546,0.683-0.975,0.572c-2.716-0.706-5.151,0.342-5.175,0.353
	C395.617,270.553,395.508,270.575,395.4,270.575L395.4,270.575z"/>
<path d="M376.819,270.576c-0.108,0-0.218-0.022-0.323-0.069l0,0c-0.024-0.011-2.46-1.059-5.175-0.353
	c-0.427,0.11-0.864-0.145-0.975-0.572c-0.111-0.427,0.145-0.864,0.572-0.975c3.274-0.852,6.108,0.386,6.227,0.439
	c0.403,0.18,0.584,0.652,0.405,1.056C377.417,270.399,377.125,270.576,376.819,270.576L376.819,270.576z"/>
<path d="M380.15,252.592c0,0,3.214,7.672,14.193,14.287c0,0-8.024-9.713-8.992-12.809c0,0,9.207,12.528,23.77,20.129
	c0,0,3.777-4.083-0.177-15.062c-3.953-10.979-18.763-14.921-26.46-13.653c-7.699,1.266-23.468,8.446-20.972,25.758l2.199,2.884
	C363.712,274.127,365.585,261.67,380.15,252.592z"/>
<ellipse fill="#DCDDDD" cx="372.707" cy="286.111" rx="2.42" ry="1.184"/>
<ellipse fill="#DCDDDD" cx="401.499" cy="286.303" rx="2.421" ry="1.184"/>
<path fill="#9B9B9C" d="M465.254,281.066c-0.046,0-0.093-0.015-0.131-0.046c-0.738-0.591-1.17-1.726-1.187-1.774
	c-0.041-0.109,0.014-0.23,0.123-0.271c0.109-0.041,0.23,0.014,0.271,0.123c0.004,0.011,0.41,1.075,1.057,1.593
	c0.091,0.073,0.105,0.205,0.033,0.296C465.377,281.039,465.316,281.066,465.254,281.066L465.254,281.066z"/>
<path fill="#9B9B9C" d="M462.981,291.935c-1.533,0-2.735-0.647-2.735-1.473c0-0.826,1.201-1.473,2.735-1.473
	s2.735,0.647,2.735,1.473C465.716,291.288,464.515,291.935,462.981,291.935L462.981,291.935z M462.981,289.41
	c-1.364,0-2.314,0.555-2.314,1.052c0,0.498,0.95,1.052,2.314,1.052s2.314-0.555,2.314-1.052
	C465.296,289.965,464.345,289.41,462.981,289.41L462.981,289.41z"/>
<path fill="#FFFFFF" stroke="#000000" stroke-miterlimit="10" d="M442.365,351.203l2.279-2.682l-0.396-5.008l4.525,0.038
	l-0.29,4.497c0,0,0.165,1.726,0.246,2.63c0.081,0.905-0.192,2.069-0.192,2.069h-0.912l-0.056-1.271c0,0-1.487,1.902-2.048,1.972
	c-1.157,0.145-5.06,0.826-5.499-0.161C439.702,352.567,441.205,351.451,442.365,351.203z"/>
<path d="M448.728,350.677c-0.04-0.447-0.069-0.843-0.09-1.131c-1.515,0.855-3.528,2.143-5.071,2.002
	c-0.424,0.005-0.84-0.12-1.185-0.365l-0.018,0.019c-1.159,0.248-2.663,1.364-2.344,2.084c0.439,0.986,4.342,0.306,5.499,0.161
	c0.561-0.07,2.048-1.972,2.048-1.972l-0.054,1.316l1.163,0.032C448.677,352.823,448.81,351.583,448.728,350.677z"/>
<path fill="#FFFFFF" d="M456.039,299.732c0,2.983-2.418,5.399-5.4,5.399l0,0c-2.982,0-5.4-2.416-5.4-5.399l0,0
	c0-2.982,2.418-5.4,5.4-5.4l0,0C453.621,294.332,456.039,296.75,456.039,299.732L456.039,299.732z"/>
<path fill="#D3D3D4" d="M445.906,297.032l-4.207,1.998c-5.189,4.068-8.239-0.489-8.239-0.489s-4.628,2.243-6.591-0.282
	c-1.963-2.524,0.56-5.47,0.56-5.47c-3.787,1.543-9.205,0.762-10.799-1.683c-2.104-3.225-1.121-6.171,0.561-8.975
	c1.683-2.805,1.824-2.665,2.525-6.031c0.281-5.89-1.543-15.287,4.067-22.86c5.61-7.574,10.097-6.452,10.097-6.452
	s2.104-5.61,15.849-7.012c13.745-1.403,25.387,8.975,27.209,19.635c1.823,10.659,0.886,8.549,2.383,14.165
	c1.123,4.208,3.564,6.435,4.349,8.555c1.402,3.786-0.14,9.537-6.453,9.397c0,0,0.344,3.47-2.664,4.909
	c-3.226,1.542-6.592-0.982-6.592-0.982s-1.123,5.75-8.134,3.646c-7.013-2.104-5.751-4.208-5.751-4.208L445.906,297.032z"/>
<path fill="#FFFFFF" stroke="#000000" stroke-miterlimit="10" d="M433.699,319.574c0,0-1.315,1.535-1.304,2.798
	c0.01,1.263,0.304,1.904,1.664,2.161c1.325,0.25,3.82-0.924,3.659-3.981L433.699,319.574z"/>
<path fill="#666464" d="M441.907,298.463c0,0-1.268,0.306-2.997,2.355c-1.42,1.683-2.367,3.997-3.434,7.321
	c-0.842,2.623-2.166,8.032-2.642,9.7c-0.477,1.667,0.227,2.638,2.209,3.126c1.983,0.489,3.197,0.374,3.904-0.289
	c1.087-1.015,0.238-7.043,0.61-8.715c0.373-1.67,1.109-4.803,1.109-4.803L441.907,298.463z"/>
<path fill="#FFFFFF" d="M439.898,299.786c-1.96,3.2-2.721,7.266,0.147,10.042c0.317-1.372,0.622-2.671,0.622-2.671l1.24-8.694
	C441.907,298.463,441.098,298.674,439.898,299.786z"/>
<path fill="#FFFFFF" stroke="#000000" stroke-miterlimit="10" d="M467.368,319.574c0,0,1.315,1.535,1.305,2.798
	c-0.01,1.263-0.304,1.904-1.665,2.161c-1.325,0.25-3.82-0.924-3.658-3.981L467.368,319.574z"/>
<path fill="#666464" d="M459.16,298.463c0,0,1.267,0.306,2.997,2.355c1.42,1.683,2.367,3.997,3.434,7.321
	c0.841,2.623,2.166,8.032,2.642,9.7c0.477,1.667-0.226,2.638-2.209,3.126c-1.983,0.489-3.197,0.374-3.905-0.289
	c-1.086-1.015-0.237-7.043-0.61-8.715c-0.371-1.67-1.109-4.803-1.109-4.803L459.16,298.463z"/>
<path fill="#FFFFFF" d="M461.171,299.786c1.959,3.2,2.72,7.266-0.148,10.042c-0.318-1.372-0.623-2.671-0.623-2.671l-1.239-8.694
	C459.16,298.463,459.971,298.674,461.171,299.786z"/>
<path fill="#BBBCBC" d="M442.434,327.431l1.402,17.393c0,0,3.787,0.981,5.47,0.279l0.421-17.531L442.434,327.431z"/>
<path fill="#FFFFFF" stroke="#000000" stroke-miterlimit="10" d="M458.914,351.203l-2.279-2.682l0.396-5.008l-4.525,0.038
	l0.29,4.497c0,0-0.164,1.726-0.245,2.63c-0.082,0.905,0.192,2.069,0.192,2.069h0.912l0.056-1.271c0,0,1.486,1.902,2.048,1.972
	c1.157,0.145,5.059,0.826,5.499-0.161C461.576,352.567,460.072,351.451,458.914,351.203z"/>
<path d="M452.55,350.677c0.04-0.447,0.069-0.843,0.089-1.131c1.515,0.855,3.528,2.143,5.072,2.002
	c0.424,0.005,0.84-0.12,1.185-0.365l0.018,0.019c1.159,0.248,2.663,1.364,2.344,2.084c-0.44,0.986-4.342,0.306-5.499,0.161
	c-0.562-0.07-2.048-1.972-2.048-1.972l-0.012,1.411l-1.164-0.048C452.534,352.839,452.468,351.583,452.55,350.677z"/>
<path fill="#BBBCBC" d="M458.843,327.431l-1.402,17.393c0,0-3.787,0.981-5.47,0.279l-0.421-17.531L458.843,327.431z"/>
<path fill="#666464" d="M461.438,300.434c-0.981-2.666-6.435-3.086-6.435-3.086s0.631,6.469-4.312,6.469
	c-4.996,0-4.68-6.469-4.68-6.469s-5.47,0.421-6.451,3.086c0,0-0.982,2.664-0.561,5.188c0.421,2.525,2.366,4.453,3.067,6.136
	l4.786,1.142v0.33h2.025l0.64,0.105l-0.002-0.105h1.968l-0.003,0.105l0.641-0.105h1.883v-0.307l4.839-0.85
	c0.702-1.682,2.734-3.926,3.156-6.451C462.42,303.098,461.438,300.434,461.438,300.434z"/>
<path fill="#666464" d="M442.382,313.617c0,0-3.945,5.452-5.891,13.13c0,0,2.314,2.314,4.628,2.314c2.314,0,5.47-0.737,7.468-0.421
	c1.998,0.316,4.312,0.737,6.311,1.052c1.998,0.316,3.997-0.526,5.68-1.156c1.683-0.631,3.682-1.263,3.682-1.263
	s-1.91-9.099-5.522-13.78L442.382,313.617z"/>
<path fill="#E2E2E3" d="M454.268,314.019c0,0,1.052,1.42,1.946,6.522c0,0,0.736-2.314-0.684-6.627L454.268,314.019z"/>
<path fill="#E2E2E3" d="M446.274,314.019c0,0-1.052,1.42-1.946,6.522c0,0-0.737-2.314,0.684-6.627L446.274,314.019z"/>
<polygon fill="#C9CACA" points="459.26,314.177 442.013,314.177 441.936,311.442 459.159,311.442 "/>
<path fill="#9DD6E4" d="M453.005,312.81c0,0.814-0.659,1.472-1.472,1.472h-2.682c-0.814,0-1.472-0.659-1.472-1.472l0,0
	c0-0.812,0.659-1.472,1.472-1.472h2.682C452.346,311.337,453.005,311.998,453.005,312.81L453.005,312.81z"/>
<path fill="#FFFFFF" d="M448.851,311.337c-0.814,0-1.472,0.66-1.472,1.472c0,0.687,0.471,1.259,1.107,1.422l1.922-2.894H448.851z"/>
<path fill="#D1D1D2" d="M452.587,311.785l-1.594,2.497h0.539c0.814,0,1.472-0.659,1.472-1.472
	C453.005,312.412,452.846,312.051,452.587,311.785z"/>
<path fill="#E6E6E6" d="M451.533,311.337h-1.125l-1.922,2.894c0.117,0.031,0.238,0.051,0.365,0.051h2.143l1.594-2.497
	C452.32,311.51,451.946,311.337,451.533,311.337z"/>
<path fill="#FFFFFF" stroke="#000000" stroke-miterlimit="10" d="M474.416,273.501c0,13.711-7.72,24.824-24.193,24.824
	c-16.205,0-24.193-11.113-24.193-24.824c0-13.709,10.832-24.824,24.193-24.824C463.585,248.677,474.416,259.792,474.416,273.501z"/>
<path d="M433.738,271.751c-0.092,0-0.185-0.03-0.263-0.093c-0.181-0.145-0.21-0.409-0.065-0.59c0.048-0.06,1.199-1.475,3.027-1.672
	c1.17-0.127,2.333,0.274,3.457,1.187c0.18,0.146,0.208,0.411,0.061,0.592c-0.146,0.181-0.412,0.208-0.592,0.061
	c-0.941-0.764-1.893-1.102-2.829-1.004c-1.476,0.155-2.459,1.35-2.468,1.362C433.983,271.697,433.861,271.751,433.738,271.751
	L433.738,271.751z"/>
<path d="M465.47,271.577c-0.119,0-0.238-0.05-0.321-0.148l0,0c-0.093-0.109-2.308-2.625-5.305-0.192
	c-0.181,0.147-0.446,0.119-0.592-0.061c-0.147-0.18-0.119-0.445,0.061-0.592c3.644-2.961,6.449,0.267,6.477,0.3
	c0.15,0.177,0.128,0.443-0.049,0.593C465.663,271.544,465.566,271.577,465.47,271.577L465.47,271.577z"/>
<path d="M449.692,285.146c-0.088,0-0.176-0.027-0.252-0.084l-1.683-1.263c-0.176-0.132-0.221-0.377-0.102-0.563l1.543-2.419
	c0.125-0.196,0.385-0.253,0.581-0.128c0.196,0.125,0.253,0.385,0.128,0.581l-1.334,2.09l1.371,1.029
	c0.186,0.139,0.224,0.403,0.084,0.589C449.947,285.088,449.82,285.146,449.692,285.146L449.692,285.146z"/>
<path fill="#A4A4A5" d="M449.919,289.831c-2.833,0-4.874-1.413-4.905-1.435c-0.284-0.202-0.351-0.596-0.149-0.88
	c0.202-0.284,0.595-0.351,0.879-0.15l0,0c0.164,0.115,4.065,2.784,8.4-0.148c0.289-0.195,0.682-0.119,0.877,0.169
	c0.195,0.289,0.12,0.681-0.169,0.876C453.106,289.443,451.404,289.831,449.919,289.831L449.919,289.831z"/>
<ellipse fill="#DCDDDD" cx="433.709" cy="286.758" rx="2.524" ry="1.263"/>
<ellipse fill="#DCDDDD" cx="466.528" cy="286.758" rx="2.524" ry="1.263"/>
<g>
	<path fill="#E8E8E8" d="M447.203,278.905c0,2.556-4.769,5.049-8.906,4.979c-4.957-0.084-8.907-1.473-8.975-4.629
		c-0.056-2.556,4.018-4.628,8.975-4.628C443.254,274.627,447.203,276.348,447.203,278.905z"/>
	<path fill="#898989" d="M438.469,284.392l-0.18-0.001c-5.952-0.1-9.405-1.968-9.473-5.125c-0.019-0.862,0.355-1.709,1.08-2.451
		c1.626-1.662,4.846-2.695,8.402-2.695c5.454,0,9.413,2.012,9.413,4.784C447.71,281.86,442.629,284.392,438.469,284.392
		L438.469,284.392z M438.297,275.134c-3.243,0-6.257,0.938-7.677,2.39c-0.538,0.55-0.805,1.129-0.792,1.72
		c0.054,2.499,3.223,4.044,8.477,4.133l0.163,0.001c3.922,0,8.228-2.341,8.228-4.474
		C446.697,276.755,443.086,275.134,438.297,275.134L438.297,275.134z"/>
</g>
<path fill="#C3C4C4" d="M436.544,250.995c0,0-14.586,3.646-12.622,26.928c0,0,4.768-13.184,14.024-22.16
	c0,0,15.288,15.989,37.588,17.672C475.534,273.435,477.498,238.091,436.544,250.995z"/>
<path fill="#898989" d="M429.497,278.815c-0.021,0-0.042-0.001-0.063-0.004l-3.366-0.421c-0.278-0.035-0.475-0.288-0.44-0.566
	c0.035-0.278,0.289-0.477,0.566-0.44l3.366,0.421c0.278,0.035,0.475,0.288,0.44,0.566
	C429.967,278.628,429.749,278.815,429.497,278.815L429.497,278.815z"/>
<g>
	<path fill="#E8E8E8" d="M453.128,278.905c0,2.556,4.768,5.049,8.905,4.979c4.957-0.084,8.907-1.473,8.975-4.629
		c0.056-2.556-4.017-4.628-8.975-4.628C457.078,274.627,453.128,276.348,453.128,278.905z"/>
	<path fill="#898989" d="M461.862,284.392c-4.16,0-9.241-2.532-9.241-5.487c0-2.772,3.958-4.784,9.412-4.784
		c3.556,0,6.775,1.033,8.402,2.695c0.726,0.742,1.099,1.589,1.08,2.451c-0.069,3.156-3.522,5.024-9.473,5.125L461.862,284.392
		L461.862,284.392z M462.033,275.134c-4.788,0-8.398,1.621-8.398,3.771c0,2.132,4.305,4.474,8.227,4.474l0.163-0.001
		c5.254-0.089,8.423-1.634,8.477-4.133c0.013-0.591-0.254-1.17-0.792-1.72C468.29,276.072,465.276,275.134,462.033,275.134
		L462.033,275.134z"/>
</g>
<path fill="#898989" d="M470.834,278.815c-0.252,0-0.47-0.188-0.502-0.444c-0.035-0.278,0.162-0.531,0.44-0.566l3.366-0.421
	c0.278-0.037,0.531,0.162,0.566,0.44c0.035,0.278-0.162,0.531-0.44,0.566l-3.366,0.421
	C470.876,278.814,470.855,278.815,470.834,278.815L470.834,278.815z"/>
<path fill="#898989" d="M453.128,279.411c-0.056,0-0.114-0.01-0.17-0.03c-3.594-1.283-5.392-0.11-5.467-0.06
	c-0.231,0.156-0.545,0.098-0.703-0.131c-0.158-0.229-0.103-0.541,0.124-0.701c0.09-0.064,2.258-1.536,6.386-0.062
	c0.264,0.094,0.401,0.384,0.307,0.648C453.532,279.282,453.336,279.411,453.128,279.411L453.128,279.411z"/>
<path fill="#EFEFEF" d="M475.675,266.703c0,0-1.384,8.121,1.683,12.622c3.295,4.839,4.036,7.465,1.753,9.748
	c-1.543,1.543-2.876,1.683-5.681,1.332c0,0,5.471,3.227,8.136-1.963c2.664-5.189-1.543-8.275-2.806-10.659
	C477.498,275.399,475.815,269.929,475.675,266.703z"/>
<path fill="#FFFFFF" d="M475.675,290.826c0,0-1.052,5.54-6.942,3.507c0,0,2.772,2.615,5.891,0.631
	C476.937,293.491,475.675,290.826,475.675,290.826z"/>
<path fill="#EFEFEF" d="M421.677,271.051c0,0,1.701,6.486-2.104,11.22c-3.156,3.927-2.829,8.6,1.403,9.256
	c4.067,0.63,6.451-0.561,6.451-0.561s-7.783,0-7.854-3.646c-0.062-3.237,2.175-4.067,3.156-6.943
	C423.604,277.814,423.22,273.294,421.677,271.051z"/>
<path fill="#FFFFFF" d="M429.391,290.756c0,0-3.367,5.749-0.561,7.153c0.841,0.279,2.034,0.771,4.278-0.562
	C433.108,297.348,427.357,299.03,429.391,290.756z"/>
<path fill="#EFEFEF" d="M433.738,250.154c0,0-10.239,4.067-10.519,18.373C423.219,268.526,426.866,256.465,433.738,250.154z"/>
<path fill="#EFEFEF" d="M439.629,249.733c0,0,9.817,14.306,32.397,19.915C472.026,269.648,454.636,261.794,439.629,249.733z"/>
<path fill="#EFEFEF" d="M444.818,248.05c0,0,16.55,11.36,27.349,18.093C472.167,266.142,464.313,255.483,444.818,248.05z"/>
<path fill="#EFEFEF" d="M446.642,245.105c0,0,20.056,0,26.928,16.97C473.57,262.075,465.856,250.434,446.642,245.105z"/>
<circle cx="437.841" cy="279.325" r="2.945"/>
<circle cx="462.559" cy="279.115" r="2.945"/>
<g>
	<circle fill="#DBDBD8" cx="448.188" cy="299.9" r="0.631"/>
	<circle fill="#DBDBD8" cx="447.058" cy="299.427" r="0.632"/>
	<circle fill="#DBDBD8" cx="446.032" cy="298.717" r="0.631"/>
	<circle fill="#DBDBD8" cx="449.364" cy="300.293" r="0.631"/>
	<circle fill="#DBDBD8" cx="452.994" cy="299.95" r="0.631"/>
	<circle fill="#DBDBD8" cx="454.073" cy="299.371" r="0.631"/>
	<circle fill="#DBDBD8" cx="455.072" cy="298.609" r="0.631"/>
	<circle fill="#DBDBD8" cx="451.816" cy="300.335" r="0.631"/>
	<circle fill="#DBDBD8" cx="450.586" cy="300.416" r="0.631"/>
</g>
</svg>
