<?xml version="1.0" encoding="utf-8"?>
<!-- Generator: Adobe Illustrator 17.0.1, SVG Export Plug-In . SVG Version: 6.00 Build 0)  -->
<!DOCTYPE svg PUBLIC "-//W3C//DTD SVG 1.1//EN" "http://www.w3.org/Graphics/SVG/1.1/DTD/svg11.dtd">
<svg version="1.1" id="レイヤー_1" xmlns="http://www.w3.org/2000/svg" xmlns:xlink="http://www.w3.org/1999/xlink" x="0px"
	 y="0px" width="841.89px" height="595.28px" viewBox="0 0 841.89 595.28" enable-background="new 0 0 841.89 595.28"
	 xml:space="preserve">
<rect x="349.945" y="227.012" fill="none" stroke="#A660A3" stroke-width="2" stroke-miterlimit="10" width="141.732" height="141.732"/>
<g>
	<path fill="#7E8C93" d="M474.97,258.426l-2.964,12.729c0,0-8.543,2.14-9.143,1.965c-0.6-0.175-9.554-1.62-10.126-6.345
		c0,0-0.205-1.259,0.686-2.795c0,0-1.295,0.491-0.827,5.111c0.716,1.412,2.111,2.975,4.839,3.797c5.721,1.724,8.559,1.46,9.276,1.59
		l0.073,0.908c0,0-3.76,1.012-7.708,5.432c-3.948,4.419-38.019,46.321-39.042,47.505c-0.954,1.105-4.087,5.348-2.593,12.756
		l1.56,0.851c0,0-0.192-5.135,0.056-8.032c0.247-2.897,3.156-7.595,6.797-11.766c3.642-4.171,30.795-37.467,30.795-37.467
		s3.904-4.537,6.654-6.104s4.667-2.153,8.235-2.958c3.569-0.806,5.25-4.508,5.118-6.995c-0.133-2.488-0.958-10.032-0.958-10.032
		L474.97,258.426z"/>
	<path fill="#AAABAB" d="M450.751,278.201c0,0,2.971-2.968,2.811-7.685c-0.413-0.471-0.729-0.957-0.967-1.426
		c0.058,0.573,0.141,1.205,0.259,1.912c-0.014,1.741-0.217,3.687-2.177,6.292c-1.96,2.605-29.669,35.842-30.05,36.252
		c-0.38,0.41-7.252,9.132-9.256,10.552c-2.003,1.421-7.167,5.095-12.682,6.766l1.087,0.592c2.522-1.17,9.996-4.797,13.072-8.044
		C416.578,319.473,450.751,278.201,450.751,278.201z"/>
	<path fill="#D7DEE2" d="M457.435,272.888c-1.82-0.548-3.046-1.428-3.873-2.371c0.16,4.717-2.811,7.685-2.811,7.685
		s-34.173,41.271-37.901,45.209c-3.077,3.248-10.55,6.875-13.072,8.044l17.665,9.624c-1.494-7.409,1.64-11.651,2.593-12.756
		c1.023-1.185,35.094-43.086,39.042-47.505c3.948-4.42,7.708-5.432,7.708-5.432l-0.073-0.908
		C465.994,274.347,463.156,274.612,457.435,272.888z"/>
	<path fill="#AFAFB0" d="M412.031,325.855c0,0,2.97,1.153,5.21,2.851l40.87-50.463c0,0-2.795-0.686-4.142-1.783
		C453.969,276.459,413.831,325.312,412.031,325.855z"/>
	
		<linearGradient id="SVGID_1_" gradientUnits="userSpaceOnUse" x1="462.5126" y1="320.1677" x2="518.9666" y2="320.1677" gradientTransform="matrix(0.9362 -0.3515 0.3515 0.9362 -136.7774 175.2511)">
		<stop  offset="0" style="stop-color:#FFFFFF"/>
		<stop  offset="0.31" style="stop-color:#F6F7F9"/>
		<stop  offset="0.8238" style="stop-color:#DCE3E7"/>
		<stop  offset="1" style="stop-color:#D2DBE0"/>
	</linearGradient>
	<path fill="url(#SVGID_1_)" d="M413.665,325.463c0,0,2.625,2.131,4.19,1.675l38.486-47.564c0,0,1.316-0.761-2.474-2.221
		C453.867,277.354,413.538,325.956,413.665,325.463z"/>
	<g>
		<path fill="#7E8C93" d="M459.539,263.197c0.16,1.096,0.865,1.903,1.601,2.42c-0.415-0.523-0.204-1.192,0.212-2.567
			c0.775-2.561,2.3-4.068,2.3-4.068l-1.043-2.256C461.554,258.256,459.321,261.709,459.539,263.197z"/>
		<path fill="#B5C4CC" d="M474.4,257.972l-3.406,8.355c0,0-3.686,1.918-7.095,0.661c-1.579-0.582-2.401-0.922-2.759-1.372
			c-0.736-0.517-1.441-1.324-1.601-2.42c-0.218-1.488,2.015-4.94,3.07-6.471l-0.499-1.081c0,0-8.395,5.555-9.418,8.876
			c-1.015,3.296,1.451,5.998,2.987,6.89c1.537,0.892,7.785,2.952,11.837,2.365c4.052-0.586,4.798-0.734,6.48-2.3
			c1.682-1.566,2.486-3.336,2.338-6.219c-0.147-2.881-0.646-6.7-0.646-6.7L474.4,257.972z"/>
	</g>
	<path fill="#7E8C93" d="M418.239,337.409c-1.084-2.531-7.212-8.775-14.78-8.069c-7.568,0.705-10.906,4.853-12.661,8.715
		c-1.754,3.862-0.112,12.503-0.112,12.503l1.132,2.068l0.937-0.352l5.145-10.478c0.507-0.547,3.081-2.225,7.88-0.823
		c1.906,0.558,3.126,1.539,3.909,2.52c0.186,0.548,0.228,0.912,0.228,0.912l-5.184,10.849l1.132,2.067l1.269,0.058
		c0,0,3.958-2.733,5.674-4.801c6.532-5.835,6.428-9.669,6.178-12.468C418.933,339.509,418.83,338.174,418.239,337.409z"/>
	
		<linearGradient id="SVGID_2_" gradientUnits="userSpaceOnUse" x1="432.1813" y1="346.4219" x2="462.0334" y2="346.4219" gradientTransform="matrix(0.9362 -0.3515 0.3515 0.9362 -136.7774 175.2511)">
		<stop  offset="0" style="stop-color:#F1F1F1"/>
		<stop  offset="0.2934" style="stop-color:#E5E8EA"/>
		<stop  offset="0.7795" style="stop-color:#C6D1D7"/>
		<stop  offset="1" style="stop-color:#B5C4CC"/>
	</linearGradient>
	<path fill="url(#SVGID_2_)" d="M396.769,339.731l-5.146,10.476l-0.936,0.352c0,0-1.642-8.642,0.112-12.503
		c1.754-3.863,4.405-7.708,11.974-8.413c7.568-0.707,14.34,5.475,15.083,8.4c0.742,2.926,0.354,6.633-6.179,12.467
		c-1.715,2.069-5.674,4.802-5.674,4.802l-1.268-0.058l5.184-10.849c0,0-0.469-4.096-5.269-5.498
		C399.85,337.505,397.275,339.183,396.769,339.731z"/>
</g>
<g>
	<g>
		<g>
			<g>
				<path fill="#F1F1F1" d="M370.673,303.802c-4.083-3.768-5.96-8.369-4.933-10.299c-0.166,0.088-0.314,0.197-0.439,0.332
					c-1.527,1.654,0.155,6.841,4.518,10.869c4.363,4.027,9.755,5.368,11.281,3.714c0.098-0.106,0.179-0.225,0.246-0.354
					C379.419,309.11,374.682,307.502,370.673,303.802z"/>
				<path fill="#221714" d="M379.015,309.389c-2.256,0-6.033-1.385-9.386-4.48c-2.06-1.902-3.672-4.185-4.539-6.429
					c-0.836-2.164-0.834-3.927,0.005-4.835c0.14-0.152,0.313-0.283,0.514-0.389c0.109-0.058,0.242-0.037,0.329,0.049
					c0.087,0.087,0.107,0.221,0.049,0.33c-0.941,1.769,0.794,6.194,4.876,9.962c3.368,3.109,6.95,4.501,9.006,4.501
					c0.55,0,1.002-0.094,1.344-0.28c0.108-0.058,0.242-0.04,0.33,0.046c0.088,0.086,0.109,0.22,0.053,0.329
					c-0.08,0.153-0.177,0.293-0.289,0.415C380.834,309.119,380.041,309.389,379.015,309.389L379.015,309.389z M365.181,294.59
					c-0.296,0.85-0.149,2.185,0.431,3.689c0.836,2.166,2.397,4.374,4.396,6.22c3.242,2.992,6.859,4.332,9.006,4.332
					c0.477,0,0.888-0.063,1.222-0.185c-0.119,0.009-0.241,0.013-0.368,0.013c-2.601,0-6.373-1.868-9.386-4.65
					C367.161,300.941,365.048,297.066,365.181,294.59L365.181,294.59z"/>
			</g>
			<g>
				<path fill="#B2B0AE" d="M375.965,298.131c-4.007-3.698-8.358-5.62-10.225-4.628c-1.027,1.93,0.851,6.531,4.933,10.299
					c4.008,3.7,8.746,5.308,10.673,4.262C382.323,306.176,380.048,301.9,375.965,298.131z"/>
				<path fill="#221714" d="M379.869,308.658L379.869,308.658c-2.601,0-6.373-1.869-9.386-4.65
					c-3.938-3.635-6.177-8.406-4.99-10.636c0.026-0.049,0.067-0.089,0.116-0.116c0.364-0.194,0.814-0.292,1.335-0.292
					c2.331,0,5.946,1.947,9.211,4.961c4.149,3.829,6.487,8.244,5.44,10.268c-0.026,0.05-0.066,0.091-0.115,0.117
					C381.055,308.541,380.513,308.658,379.869,308.658L379.869,308.658z M365.949,293.712c-0.852,1.818,0.891,6.17,4.914,9.885
					c3.368,3.109,6.95,4.501,9.006,4.501h0c0.509,0,0.934-0.081,1.266-0.24c0.816-1.821-1.511-5.969-5.36-9.521
					c-3.119-2.878-6.668-4.813-8.832-4.813C366.553,293.524,366.219,293.587,365.949,293.712L365.949,293.712z"/>
			</g>
		</g>
		<g>
			<g>
				<path fill="#F1F1F1" d="M372.773,301.702c-4.083-3.768-5.96-8.369-4.933-10.299c-0.166,0.088-0.314,0.197-0.439,0.332
					c-1.527,1.654,0.155,6.841,4.518,10.869c4.363,4.027,9.755,5.368,11.282,3.714c0.098-0.106,0.179-0.225,0.246-0.354
					C381.519,307.01,376.782,305.402,372.773,301.702z"/>
				<path fill="#221714" d="M381.115,307.289c-2.256,0-6.033-1.385-9.386-4.48c-2.06-1.902-3.672-4.185-4.539-6.429
					c-0.836-2.164-0.834-3.927,0.005-4.835c0.14-0.152,0.313-0.283,0.514-0.389c0.109-0.058,0.242-0.037,0.329,0.05
					c0.087,0.087,0.107,0.221,0.049,0.329c-0.941,1.769,0.794,6.194,4.876,9.962c3.368,3.109,6.95,4.501,9.006,4.501
					c0.55,0,1.002-0.094,1.344-0.28c0.108-0.059,0.242-0.04,0.33,0.046c0.088,0.086,0.109,0.22,0.053,0.329
					c-0.08,0.153-0.177,0.293-0.289,0.415C382.934,307.019,382.141,307.289,381.115,307.289L381.115,307.289z M367.281,292.49
					c-0.296,0.85-0.149,2.185,0.431,3.689c0.836,2.166,2.397,4.374,4.396,6.22c3.242,2.992,6.859,4.332,9.006,4.332
					c0.477,0,0.888-0.063,1.222-0.185c-0.119,0.009-0.241,0.013-0.368,0.013c-2.601,0-6.373-1.868-9.386-4.65
					C369.261,298.841,367.148,294.966,367.281,292.49L367.281,292.49z"/>
			</g>
			<g>
				<path fill="#B2B0AE" d="M378.065,296.031c-4.007-3.698-8.358-5.62-10.225-4.628c-1.027,1.931,0.851,6.531,4.933,10.299
					c4.008,3.7,8.746,5.308,10.673,4.262C384.423,304.076,382.148,299.8,378.065,296.031z"/>
				<path fill="#221714" d="M381.969,306.558L381.969,306.558c-2.601,0-6.373-1.869-9.386-4.65
					c-3.938-3.635-6.177-8.406-4.99-10.636c0.026-0.049,0.067-0.089,0.116-0.116c0.364-0.194,0.814-0.292,1.335-0.292
					c2.33,0,5.946,1.947,9.211,4.961c4.149,3.829,6.487,8.244,5.44,10.268c-0.026,0.05-0.066,0.09-0.115,0.117
					C383.155,306.441,382.613,306.558,381.969,306.558L381.969,306.558z M368.049,291.612c-0.852,1.818,0.891,6.17,4.914,9.885
					c3.368,3.109,6.95,4.501,9.006,4.501h0c0.509,0,0.934-0.081,1.266-0.24c0.816-1.821-1.511-5.969-5.36-9.521
					c-3.119-2.878-6.668-4.813-8.832-4.813C368.653,291.424,368.319,291.487,368.049,291.612L368.049,291.612z"/>
			</g>
		</g>
		<g>
			<g>
				<path fill="#F1F1F1" d="M374.873,299.602c-4.083-3.768-5.96-8.369-4.933-10.299c-0.166,0.088-0.314,0.197-0.439,0.332
					c-1.527,1.654,0.155,6.841,4.518,10.869c4.363,4.027,9.755,5.368,11.282,3.714c0.098-0.106,0.179-0.225,0.246-0.354
					C383.619,304.91,378.882,303.302,374.873,299.602z"/>
				<path fill="#221714" d="M383.215,305.189c-2.256,0-6.033-1.385-9.386-4.48c-2.06-1.902-3.672-4.185-4.539-6.429
					c-0.836-2.164-0.834-3.927,0.005-4.835c0.14-0.152,0.313-0.283,0.514-0.389c0.109-0.058,0.242-0.037,0.329,0.049
					c0.087,0.087,0.107,0.221,0.049,0.329c-0.941,1.769,0.794,6.194,4.876,9.962c3.368,3.109,6.95,4.501,9.006,4.501
					c0.55,0,1.002-0.094,1.344-0.28c0.108-0.059,0.242-0.04,0.33,0.046c0.088,0.086,0.109,0.22,0.053,0.329
					c-0.08,0.153-0.177,0.293-0.289,0.415C385.034,304.919,384.241,305.189,383.215,305.189L383.215,305.189z M369.381,290.39
					c-0.296,0.85-0.149,2.185,0.431,3.689c0.836,2.166,2.397,4.374,4.396,6.22c3.242,2.992,6.859,4.332,9.006,4.332
					c0.477,0,0.888-0.063,1.222-0.185c-0.119,0.009-0.241,0.013-0.367,0.013c-2.601,0-6.373-1.868-9.386-4.65
					C371.361,296.741,369.248,292.866,369.381,290.39L369.381,290.39z"/>
			</g>
			<g>
				<path fill="#B2B0AE" d="M380.165,293.931c-4.007-3.698-8.358-5.62-10.225-4.628c-1.027,1.931,0.851,6.531,4.933,10.299
					c4.008,3.7,8.746,5.308,10.673,4.262C386.523,301.976,384.248,297.7,380.165,293.931z"/>
				<path fill="#221714" d="M384.069,304.458L384.069,304.458c-2.601,0-6.373-1.869-9.386-4.65
					c-3.938-3.635-6.177-8.406-4.99-10.636c0.026-0.049,0.067-0.089,0.116-0.116c0.364-0.194,0.814-0.292,1.335-0.292
					c2.33,0,5.946,1.947,9.211,4.961c4.149,3.829,6.487,8.244,5.44,10.268c-0.026,0.05-0.066,0.09-0.115,0.117
					C385.255,304.341,384.713,304.458,384.069,304.458L384.069,304.458z M370.149,289.512c-0.852,1.818,0.891,6.17,4.915,9.885
					c3.368,3.109,6.95,4.501,9.006,4.501h0c0.509,0,0.934-0.081,1.266-0.24c0.816-1.821-1.511-5.969-5.36-9.521
					c-3.119-2.878-6.668-4.813-8.832-4.813C370.753,289.324,370.419,289.387,370.149,289.512L370.149,289.512z"/>
			</g>
		</g>
		<g>
			<g>
				<path fill="#F1F1F1" d="M376.973,297.502c-4.083-3.768-5.96-8.369-4.933-10.299c-0.166,0.088-0.314,0.197-0.439,0.332
					c-1.527,1.654,0.155,6.841,4.518,10.869c4.363,4.027,9.755,5.368,11.282,3.714c0.098-0.106,0.179-0.225,0.246-0.354
					C385.719,302.81,380.982,301.202,376.973,297.502z"/>
				<path fill="#221714" d="M385.315,303.089c-2.256,0-6.033-1.385-9.386-4.48c-2.06-1.902-3.672-4.185-4.539-6.429
					c-0.836-2.164-0.834-3.927,0.005-4.835c0.14-0.152,0.313-0.283,0.514-0.389c0.109-0.058,0.242-0.037,0.329,0.049
					c0.087,0.087,0.107,0.221,0.049,0.329c-0.941,1.769,0.794,6.194,4.876,9.962c3.368,3.109,6.95,4.501,9.006,4.501
					c0.55,0,1.002-0.094,1.344-0.28c0.108-0.058,0.242-0.04,0.33,0.046c0.088,0.086,0.109,0.22,0.053,0.329
					c-0.08,0.153-0.177,0.293-0.289,0.415C387.134,302.819,386.341,303.089,385.315,303.089L385.315,303.089z M371.481,288.29
					c-0.296,0.85-0.149,2.185,0.431,3.689c0.836,2.166,2.397,4.374,4.396,6.22c3.242,2.992,6.859,4.332,9.006,4.332
					c0.477,0,0.888-0.063,1.222-0.185c-0.119,0.009-0.241,0.013-0.367,0.013c-2.601,0-6.373-1.868-9.386-4.65
					C373.461,294.641,371.348,290.766,371.481,288.29L371.481,288.29z"/>
			</g>
			<g>
				<path fill="#B2B0AE" d="M382.265,291.831c-4.007-3.698-8.358-5.62-10.225-4.628c-1.027,1.93,0.851,6.531,4.933,10.299
					c4.008,3.7,8.746,5.308,10.673,4.262C388.623,299.876,386.348,295.6,382.265,291.831z"/>
				<path fill="#221714" d="M386.169,302.358L386.169,302.358c-2.601,0-6.373-1.869-9.386-4.65
					c-3.938-3.635-6.177-8.406-4.99-10.636c0.026-0.049,0.067-0.089,0.116-0.116c0.365-0.194,0.814-0.292,1.335-0.292
					c2.331,0,5.946,1.947,9.211,4.961c4.149,3.829,6.487,8.244,5.44,10.268c-0.026,0.05-0.066,0.09-0.115,0.117
					C387.355,302.241,386.813,302.358,386.169,302.358L386.169,302.358z M372.249,287.412c-0.852,1.818,0.891,6.17,4.915,9.885
					c3.368,3.109,6.95,4.501,9.006,4.501h0c0.509,0,0.934-0.081,1.266-0.24c0.816-1.821-1.511-5.969-5.36-9.521
					c-3.119-2.878-6.668-4.813-8.832-4.813C372.853,287.224,372.519,287.287,372.249,287.412L372.249,287.412z"/>
			</g>
		</g>
		<g>
			<g>
				<path fill="#F1F1F1" d="M379.073,295.402c-4.083-3.768-5.96-8.369-4.933-10.299c-0.166,0.088-0.314,0.197-0.439,0.332
					c-1.527,1.654,0.155,6.841,4.518,10.869c4.363,4.027,9.755,5.368,11.281,3.714c0.098-0.106,0.179-0.225,0.246-0.354
					C387.819,300.71,383.082,299.102,379.073,295.402z"/>
				<path fill="#221714" d="M387.415,300.989c-2.256,0-6.033-1.385-9.386-4.48c-2.06-1.902-3.672-4.185-4.539-6.429
					c-0.836-2.164-0.834-3.927,0.005-4.835c0.14-0.152,0.313-0.283,0.514-0.389c0.109-0.058,0.242-0.037,0.329,0.049
					c0.087,0.087,0.107,0.221,0.049,0.329c-0.941,1.769,0.794,6.194,4.876,9.962c3.368,3.109,6.95,4.501,9.006,4.501
					c0.55,0,1.002-0.094,1.344-0.28c0.108-0.059,0.242-0.04,0.33,0.046c0.088,0.086,0.109,0.22,0.053,0.329
					c-0.08,0.153-0.177,0.293-0.289,0.415C389.234,300.719,388.441,300.989,387.415,300.989L387.415,300.989z M373.581,286.19
					c-0.296,0.85-0.149,2.185,0.431,3.689c0.836,2.166,2.397,4.374,4.396,6.22c3.242,2.992,6.859,4.332,9.006,4.332
					c0.477,0,0.888-0.063,1.222-0.185c-0.119,0.009-0.241,0.013-0.367,0.013c-2.601,0-6.373-1.868-9.386-4.65
					C375.561,292.541,373.448,288.666,373.581,286.19L373.581,286.19z"/>
			</g>
			<g>
				<path fill="#B2B0AE" d="M384.365,289.731c-4.007-3.698-8.358-5.62-10.225-4.628c-1.027,1.93,0.851,6.531,4.933,10.299
					c4.008,3.7,8.746,5.308,10.673,4.262C390.723,297.776,388.448,293.5,384.365,289.731z"/>
				<path fill="#221714" d="M388.269,300.258L388.269,300.258c-2.601,0-6.373-1.869-9.386-4.65
					c-3.938-3.635-6.177-8.406-4.99-10.636c0.026-0.049,0.067-0.089,0.116-0.116c0.364-0.194,0.814-0.292,1.335-0.292
					c2.331,0,5.946,1.947,9.211,4.961c4.149,3.829,6.487,8.244,5.44,10.268c-0.026,0.05-0.066,0.091-0.115,0.117
					C389.455,300.141,388.913,300.258,388.269,300.258L388.269,300.258z M374.349,285.312c-0.852,1.818,0.891,6.17,4.914,9.885
					c3.368,3.109,6.95,4.501,9.006,4.501h0c0.509,0,0.934-0.081,1.266-0.24c0.816-1.821-1.511-5.969-5.36-9.521
					c-3.119-2.879-6.668-4.813-8.832-4.813C374.953,285.124,374.619,285.187,374.349,285.312L374.349,285.312z"/>
			</g>
		</g>
		<g>
			<g>
				<path fill="#F1F1F1" d="M381.173,293.302c-4.083-3.768-5.96-8.369-4.933-10.299c-0.166,0.088-0.314,0.197-0.439,0.332
					c-1.527,1.654,0.155,6.841,4.518,10.869c4.363,4.027,9.755,5.368,11.281,3.714c0.098-0.106,0.179-0.225,0.246-0.354
					C389.919,298.61,385.182,297.002,381.173,293.302z"/>
				<path fill="#221714" d="M389.515,298.889c-2.256,0-6.033-1.385-9.386-4.48c-2.06-1.902-3.672-4.185-4.539-6.429
					c-0.836-2.164-0.834-3.927,0.005-4.835c0.14-0.152,0.313-0.283,0.514-0.389c0.109-0.057,0.242-0.037,0.329,0.049
					c0.087,0.087,0.107,0.221,0.049,0.33c-0.941,1.769,0.794,6.194,4.876,9.962c3.368,3.109,6.95,4.501,9.006,4.501
					c0.55,0,1.002-0.094,1.344-0.28c0.108-0.059,0.242-0.04,0.33,0.046c0.088,0.086,0.109,0.22,0.053,0.329
					c-0.08,0.153-0.177,0.293-0.289,0.415C391.334,298.619,390.541,298.889,389.515,298.889L389.515,298.889z M375.681,284.09
					c-0.296,0.85-0.149,2.185,0.431,3.689c0.836,2.166,2.397,4.374,4.396,6.22c3.242,2.992,6.859,4.332,9.006,4.332
					c0.477,0,0.888-0.063,1.222-0.185c-0.119,0.009-0.241,0.013-0.368,0.013c-2.601,0-6.373-1.868-9.386-4.65
					C377.661,290.441,375.548,286.566,375.681,284.09L375.681,284.09z"/>
			</g>
			<g>
				<path fill="#B2B0AE" d="M386.465,287.631c-4.007-3.698-8.358-5.62-10.225-4.628c-1.027,1.93,0.851,6.531,4.933,10.299
					c4.008,3.7,8.746,5.308,10.673,4.262C392.823,295.676,390.548,291.4,386.465,287.631z"/>
				<path fill="#221714" d="M390.369,298.158L390.369,298.158c-2.601,0-6.373-1.869-9.386-4.65
					c-3.938-3.635-6.177-8.406-4.99-10.636c0.026-0.049,0.067-0.089,0.116-0.116c0.364-0.194,0.814-0.292,1.335-0.292
					c2.331,0,5.946,1.947,9.211,4.961c4.149,3.829,6.487,8.244,5.44,10.268c-0.026,0.05-0.066,0.091-0.115,0.117
					C391.555,298.041,391.013,298.158,390.369,298.158L390.369,298.158z M376.449,283.212c-0.852,1.818,0.891,6.17,4.914,9.885
					c3.368,3.109,6.95,4.501,9.006,4.501h0c0.509,0,0.934-0.081,1.266-0.24c0.816-1.821-1.511-5.969-5.36-9.521
					c-3.119-2.878-6.668-4.813-8.832-4.813C377.053,283.024,376.719,283.087,376.449,283.212L376.449,283.212z"/>
			</g>
		</g>
		<g>
			<g>
				<path fill="#F1F1F1" d="M383.273,291.202c-4.083-3.768-5.96-8.369-4.933-10.299c-0.166,0.088-0.314,0.197-0.439,0.332
					c-1.527,1.654,0.155,6.841,4.518,10.869c4.363,4.027,9.755,5.368,11.282,3.714c0.098-0.106,0.179-0.225,0.246-0.354
					C392.019,296.51,387.282,294.902,383.273,291.202z"/>
				<path fill="#221714" d="M391.615,296.789c-2.256,0-6.033-1.385-9.386-4.48c-2.06-1.902-3.672-4.185-4.539-6.429
					c-0.836-2.164-0.834-3.927,0.005-4.835c0.14-0.152,0.313-0.283,0.514-0.389c0.109-0.057,0.242-0.037,0.329,0.05
					c0.087,0.087,0.107,0.221,0.049,0.329c-0.941,1.769,0.794,6.194,4.876,9.962c3.368,3.109,6.95,4.501,9.006,4.501
					c0.55,0,1.002-0.094,1.344-0.28c0.108-0.058,0.242-0.04,0.33,0.046c0.088,0.086,0.109,0.22,0.053,0.329
					c-0.08,0.153-0.177,0.293-0.289,0.415C393.434,296.519,392.641,296.789,391.615,296.789L391.615,296.789z M377.781,281.99
					c-0.296,0.85-0.149,2.185,0.431,3.689c0.836,2.166,2.397,4.374,4.396,6.22c3.242,2.992,6.859,4.332,9.006,4.332
					c0.477,0,0.888-0.063,1.222-0.185c-0.119,0.009-0.241,0.013-0.368,0.013c-2.601,0-6.373-1.868-9.386-4.65
					C379.761,288.341,377.648,284.466,377.781,281.99L377.781,281.99z"/>
			</g>
			<g>
				<path fill="#B2B0AE" d="M388.565,285.531c-4.007-3.698-8.358-5.62-10.225-4.628c-1.027,1.931,0.851,6.531,4.933,10.299
					c4.008,3.7,8.746,5.308,10.673,4.262C394.923,293.576,392.648,289.3,388.565,285.531z"/>
				<path fill="#221714" d="M392.469,296.058L392.469,296.058c-2.601,0-6.373-1.869-9.386-4.65
					c-3.938-3.635-6.177-8.406-4.99-10.636c0.026-0.049,0.067-0.089,0.116-0.116c0.364-0.194,0.814-0.292,1.335-0.292
					c2.33,0,5.946,1.947,9.211,4.961c4.149,3.829,6.487,8.244,5.44,10.268c-0.026,0.05-0.066,0.09-0.115,0.117
					C393.655,295.941,393.113,296.058,392.469,296.058L392.469,296.058z M378.549,281.112c-0.852,1.818,0.891,6.17,4.914,9.885
					c3.368,3.109,6.95,4.501,9.006,4.501h0c0.509,0,0.934-0.081,1.266-0.24c0.816-1.821-1.511-5.969-5.36-9.521
					c-3.119-2.878-6.668-4.813-8.832-4.813C379.153,280.924,378.819,280.987,378.549,281.112L378.549,281.112z"/>
			</g>
		</g>
		<g>
			<g>
				<path fill="#F1F1F1" d="M385.373,289.102c-4.083-3.768-5.96-8.369-4.933-10.299c-0.166,0.088-0.314,0.197-0.439,0.332
					c-1.527,1.654,0.155,6.841,4.518,10.869c4.363,4.027,9.755,5.368,11.282,3.714c0.098-0.106,0.179-0.225,0.246-0.354
					C394.119,294.41,389.382,292.802,385.373,289.102z"/>
				<path fill="#221714" d="M393.715,294.689c-2.256,0-6.033-1.385-9.386-4.48c-2.06-1.902-3.672-4.185-4.539-6.429
					c-0.836-2.164-0.834-3.927,0.005-4.835c0.14-0.152,0.313-0.283,0.514-0.389c0.109-0.057,0.242-0.037,0.329,0.049
					c0.087,0.087,0.107,0.221,0.049,0.329c-0.941,1.769,0.794,6.194,4.876,9.962c3.368,3.109,6.95,4.501,9.006,4.501
					c0.55,0,1.002-0.094,1.344-0.28c0.108-0.059,0.242-0.04,0.33,0.046c0.088,0.086,0.109,0.22,0.053,0.329
					c-0.08,0.153-0.177,0.293-0.289,0.415C395.534,294.419,394.741,294.689,393.715,294.689L393.715,294.689z M379.881,279.89
					c-0.296,0.85-0.149,2.185,0.431,3.689c0.836,2.166,2.397,4.374,4.396,6.22c3.242,2.992,6.859,4.332,9.006,4.332
					c0.477,0,0.888-0.063,1.222-0.185c-0.119,0.009-0.241,0.013-0.367,0.013c-2.601,0-6.373-1.868-9.386-4.65
					C381.861,286.241,379.748,282.366,379.881,279.89L379.881,279.89z"/>
			</g>
			<g>
				<path fill="#B2B0AE" d="M390.665,283.431c-4.007-3.698-8.358-5.62-10.225-4.628c-1.027,1.93,0.851,6.531,4.933,10.299
					c4.008,3.7,8.746,5.308,10.673,4.262C397.023,291.476,394.748,287.2,390.665,283.431z"/>
				<path fill="#221714" d="M394.569,293.958L394.569,293.958c-2.601,0-6.373-1.869-9.386-4.65
					c-3.938-3.635-6.177-8.406-4.99-10.636c0.026-0.049,0.067-0.089,0.116-0.116c0.364-0.194,0.814-0.292,1.335-0.292
					c2.33,0,5.946,1.947,9.211,4.961c4.149,3.829,6.487,8.244,5.44,10.268c-0.026,0.05-0.066,0.09-0.115,0.117
					C395.755,293.841,395.213,293.958,394.569,293.958L394.569,293.958z M380.649,279.012c-0.852,1.818,0.891,6.17,4.915,9.885
					c3.368,3.109,6.95,4.501,9.006,4.501h0c0.509,0,0.934-0.081,1.266-0.24c0.816-1.821-1.511-5.969-5.36-9.521
					c-3.119-2.878-6.668-4.813-8.832-4.813C381.253,278.824,380.919,278.887,380.649,279.012L380.649,279.012z"/>
			</g>
		</g>
		<g>
			<g>
				<path fill="#F1F1F1" d="M387.473,287.002c-4.083-3.768-5.96-8.369-4.933-10.299c-0.166,0.088-0.314,0.197-0.439,0.332
					c-1.527,1.654,0.155,6.841,4.518,10.869c4.363,4.027,9.755,5.368,11.282,3.714c0.098-0.106,0.179-0.225,0.246-0.354
					C396.219,292.31,391.482,290.702,387.473,287.002z"/>
				<path fill="#221714" d="M395.815,292.589c-2.256,0-6.033-1.385-9.386-4.48c-2.06-1.902-3.672-4.185-4.539-6.429
					c-0.836-2.164-0.834-3.927,0.005-4.835c0.14-0.152,0.313-0.283,0.514-0.389c0.109-0.057,0.242-0.037,0.329,0.049
					c0.087,0.087,0.107,0.221,0.049,0.329c-0.941,1.769,0.794,6.194,4.876,9.962c3.368,3.109,6.95,4.501,9.006,4.501
					c0.55,0,1.002-0.094,1.344-0.28c0.108-0.059,0.242-0.04,0.33,0.046c0.088,0.086,0.109,0.22,0.053,0.329
					c-0.08,0.153-0.177,0.293-0.289,0.415C397.634,292.319,396.841,292.589,395.815,292.589L395.815,292.589z M381.981,277.79
					c-0.296,0.85-0.149,2.185,0.431,3.689c0.836,2.166,2.397,4.374,4.396,6.22c3.242,2.992,6.859,4.332,9.006,4.332
					c0.477,0,0.888-0.063,1.222-0.185c-0.119,0.009-0.241,0.013-0.367,0.013c-2.601,0-6.373-1.868-9.386-4.65
					C383.961,284.141,381.848,280.266,381.981,277.79L381.981,277.79z"/>
			</g>
			<g>
				<path fill="#B2B0AE" d="M392.765,281.331c-4.007-3.698-8.358-5.62-10.225-4.628c-1.027,1.93,0.851,6.531,4.933,10.299
					c4.008,3.7,8.746,5.308,10.673,4.262C399.123,289.376,396.848,285.1,392.765,281.331z"/>
				<path fill="#221714" d="M396.669,291.858L396.669,291.858c-2.601,0-6.373-1.869-9.386-4.65
					c-3.938-3.635-6.177-8.406-4.99-10.636c0.026-0.049,0.067-0.089,0.116-0.116c0.365-0.194,0.814-0.292,1.335-0.292
					c2.331,0,5.946,1.947,9.211,4.961c4.149,3.829,6.487,8.244,5.44,10.268c-0.026,0.05-0.066,0.09-0.115,0.117
					C397.855,291.741,397.313,291.858,396.669,291.858L396.669,291.858z M382.749,276.912c-0.852,1.818,0.891,6.17,4.915,9.885
					c3.368,3.109,6.95,4.501,9.006,4.501h0c0.509,0,0.934-0.081,1.266-0.24c0.816-1.821-1.511-5.969-5.36-9.521
					c-3.119-2.878-6.668-4.813-8.832-4.813C383.353,276.724,383.019,276.787,382.749,276.912L382.749,276.912z"/>
			</g>
		</g>
		<g>
			<g>
				<path fill="#F1F1F1" d="M389.573,284.902c-4.083-3.768-5.96-8.369-4.933-10.299c-0.166,0.088-0.314,0.197-0.439,0.332
					c-1.527,1.654,0.155,6.841,4.518,10.869c4.363,4.027,9.755,5.368,11.282,3.714c0.098-0.106,0.179-0.225,0.246-0.354
					C398.319,290.21,393.582,288.602,389.573,284.902z"/>
				<path fill="#221714" d="M397.915,290.489c-2.256,0-6.033-1.385-9.386-4.48c-2.06-1.902-3.672-4.185-4.539-6.429
					c-0.836-2.164-0.834-3.926,0.005-4.835c0.14-0.152,0.313-0.283,0.514-0.39c0.109-0.057,0.242-0.038,0.329,0.05
					c0.087,0.087,0.107,0.221,0.049,0.329c-0.941,1.769,0.794,6.194,4.876,9.962c3.368,3.109,6.95,4.501,9.006,4.501
					c0.55,0,1.002-0.094,1.344-0.28c0.107-0.058,0.241-0.04,0.329,0.046c0.088,0.086,0.109,0.219,0.053,0.328
					c-0.079,0.153-0.176,0.293-0.289,0.415C399.734,290.219,398.942,290.489,397.915,290.489L397.915,290.489z M384.081,275.69
					c-0.296,0.85-0.149,2.185,0.431,3.689c0.836,2.166,2.397,4.374,4.396,6.22c3.242,2.992,6.859,4.332,9.006,4.332
					c0.477,0,0.888-0.063,1.222-0.185c-0.119,0.009-0.241,0.013-0.368,0.013c-2.601,0-6.373-1.868-9.386-4.65
					C386.061,282.041,383.948,278.166,384.081,275.69L384.081,275.69z"/>
			</g>
			<g>
				<path fill="#B2B0AE" d="M394.865,279.231c-4.007-3.698-8.358-5.62-10.225-4.628c-1.027,1.93,0.851,6.531,4.933,10.299
					c4.008,3.7,8.746,5.308,10.673,4.262C401.224,287.276,398.948,283,394.865,279.231z"/>
				<path fill="#221714" d="M398.769,289.758L398.769,289.758c-2.601,0-6.373-1.869-9.386-4.65
					c-3.938-3.635-6.177-8.406-4.99-10.636c0.026-0.049,0.067-0.09,0.116-0.116c0.364-0.194,0.814-0.292,1.335-0.292
					c2.331,0,5.946,1.947,9.211,4.961c4.149,3.829,6.487,8.244,5.44,10.268c-0.026,0.05-0.066,0.091-0.115,0.117
					C399.955,289.641,399.413,289.758,398.769,289.758L398.769,289.758z M384.849,274.812c-0.852,1.818,0.891,6.17,4.914,9.885
					c3.368,3.109,6.95,4.501,9.006,4.501h0c0.509,0,0.934-0.081,1.266-0.24c0.816-1.821-1.511-5.968-5.36-9.521
					c-3.119-2.879-6.668-4.813-8.832-4.813C385.453,274.624,385.119,274.687,384.849,274.812L384.849,274.812z"/>
			</g>
		</g>
		<g>
			<g>
				<path fill="#F1F1F1" d="M391.673,282.802c-4.083-3.768-5.96-8.369-4.933-10.299c-0.166,0.088-0.314,0.197-0.439,0.332
					c-1.527,1.654,0.155,6.841,4.518,10.869c4.363,4.027,9.755,5.368,11.282,3.714c0.098-0.106,0.179-0.225,0.246-0.354
					C400.419,288.11,395.682,286.502,391.673,282.802z"/>
				<path fill="#221714" d="M400.015,288.389c-2.256,0-6.033-1.385-9.386-4.48c-2.06-1.902-3.672-4.185-4.539-6.429
					c-0.836-2.164-0.834-3.926,0.005-4.835c0.14-0.152,0.313-0.283,0.514-0.39c0.109-0.058,0.242-0.038,0.329,0.05
					c0.087,0.087,0.107,0.221,0.049,0.329c-0.941,1.769,0.794,6.194,4.876,9.962c3.368,3.109,6.95,4.501,9.006,4.501
					c0.55,0,1.002-0.094,1.344-0.28c0.107-0.058,0.241-0.04,0.329,0.046c0.088,0.086,0.109,0.219,0.053,0.328
					c-0.079,0.153-0.176,0.293-0.289,0.415C401.834,288.119,401.041,288.389,400.015,288.389L400.015,288.389z M386.181,273.59
					c-0.296,0.85-0.149,2.185,0.431,3.689c0.836,2.166,2.397,4.374,4.396,6.22c3.242,2.992,6.859,4.332,9.006,4.332
					c0.477,0,0.888-0.063,1.222-0.185c-0.119,0.009-0.241,0.013-0.368,0.013c-2.601,0-6.373-1.868-9.386-4.65
					C388.161,279.941,386.048,276.066,386.181,273.59L386.181,273.59z"/>
			</g>
			<g>
				<path fill="#B2B0AE" d="M396.965,277.131c-4.007-3.698-8.358-5.62-10.225-4.628c-1.027,1.93,0.851,6.531,4.933,10.299
					c4.008,3.7,8.746,5.308,10.673,4.262C403.324,285.176,401.049,280.9,396.965,277.131z"/>
				<path fill="#221714" d="M400.869,287.658L400.869,287.658c-2.601,0-6.373-1.869-9.386-4.65
					c-3.938-3.635-6.177-8.406-4.99-10.636c0.026-0.049,0.067-0.09,0.116-0.116c0.364-0.194,0.814-0.292,1.335-0.292
					c2.331,0,5.946,1.947,9.211,4.961c4.149,3.829,6.488,8.244,5.44,10.268c-0.026,0.05-0.066,0.091-0.115,0.117
					C402.055,287.541,401.513,287.658,400.869,287.658L400.869,287.658z M386.949,272.712c-0.852,1.818,0.891,6.17,4.914,9.885
					c3.368,3.109,6.95,4.501,9.006,4.501h0c0.509,0,0.934-0.081,1.266-0.24c0.816-1.821-1.511-5.969-5.36-9.521
					c-3.119-2.878-6.668-4.813-8.832-4.813C387.553,272.524,387.219,272.587,386.949,272.712L386.949,272.712z"/>
			</g>
		</g>
		<g>
			<g>
				<path fill="#F1F1F1" d="M393.773,280.702c-4.083-3.768-5.96-8.369-4.933-10.299c-0.166,0.088-0.314,0.197-0.439,0.332
					c-1.527,1.654,0.155,6.841,4.518,10.869c4.363,4.027,9.755,5.368,11.282,3.714c0.098-0.106,0.179-0.225,0.246-0.354
					C402.519,286.01,397.782,284.402,393.773,280.702z"/>
				<path fill="#221714" d="M402.115,286.289c-2.256,0-6.033-1.385-9.386-4.48c-2.06-1.902-3.672-4.185-4.539-6.429
					c-0.836-2.164-0.834-3.926,0.005-4.835c0.14-0.152,0.313-0.283,0.514-0.39c0.109-0.058,0.242-0.038,0.329,0.05
					c0.087,0.087,0.107,0.221,0.049,0.329c-0.941,1.769,0.794,6.194,4.876,9.962c3.368,3.109,6.95,4.501,9.006,4.501
					c0.55,0,1.002-0.094,1.344-0.28c0.107-0.059,0.241-0.04,0.329,0.046c0.088,0.086,0.109,0.219,0.053,0.328
					c-0.079,0.153-0.176,0.293-0.289,0.415C403.934,286.019,403.141,286.289,402.115,286.289L402.115,286.289z M388.281,271.49
					c-0.296,0.85-0.149,2.185,0.431,3.689c0.836,2.166,2.397,4.374,4.396,6.22c3.242,2.992,6.859,4.332,9.006,4.332
					c0.477,0,0.888-0.063,1.222-0.185c-0.119,0.009-0.241,0.013-0.368,0.013c-2.601,0-6.373-1.868-9.386-4.65
					C390.261,277.841,388.148,273.966,388.281,271.49L388.281,271.49z"/>
			</g>
			<g>
				<path fill="#B2B0AE" d="M399.065,275.031c-4.007-3.698-8.358-5.62-10.225-4.628c-1.027,1.931,0.851,6.531,4.933,10.299
					c4.008,3.7,8.746,5.308,10.673,4.262C405.424,283.076,403.149,278.8,399.065,275.031z"/>
				<path fill="#221714" d="M402.969,285.558L402.969,285.558c-2.602,0-6.373-1.869-9.386-4.65
					c-3.938-3.635-6.177-8.406-4.99-10.636c0.026-0.049,0.067-0.09,0.116-0.116c0.364-0.194,0.814-0.292,1.335-0.292
					c2.33,0,5.946,1.947,9.211,4.961c4.149,3.829,6.488,8.244,5.44,10.268c-0.026,0.05-0.066,0.09-0.115,0.117
					C404.155,285.441,403.613,285.558,402.969,285.558L402.969,285.558z M389.049,270.612c-0.852,1.818,0.891,6.17,4.915,9.885
					c3.368,3.109,6.95,4.501,9.006,4.501h0c0.509,0,0.934-0.081,1.266-0.24c0.816-1.821-1.511-5.969-5.36-9.521
					c-3.119-2.879-6.668-4.813-8.832-4.813C389.653,270.424,389.319,270.487,389.049,270.612L389.049,270.612z"/>
			</g>
		</g>
		<g>
			<g>
				<path fill="#F1F1F1" d="M395.873,278.602c-4.083-3.768-5.96-8.369-4.933-10.299c-0.166,0.088-0.314,0.197-0.439,0.332
					c-1.527,1.654,0.155,6.841,4.518,10.869c4.363,4.027,9.755,5.368,11.282,3.714c0.098-0.106,0.179-0.225,0.246-0.354
					C404.619,283.91,399.882,282.302,395.873,278.602z"/>
				<path fill="#221714" d="M404.215,284.189c-2.256,0-6.033-1.385-9.386-4.48c-2.06-1.902-3.672-4.185-4.539-6.429
					c-0.836-2.164-0.834-3.926,0.005-4.835c0.14-0.152,0.313-0.283,0.514-0.39c0.109-0.058,0.242-0.037,0.329,0.05
					c0.087,0.087,0.107,0.221,0.049,0.329c-0.941,1.769,0.794,6.194,4.876,9.962c3.368,3.109,6.95,4.501,9.006,4.501
					c0.55,0,1.002-0.094,1.344-0.28c0.107-0.058,0.241-0.04,0.329,0.046c0.088,0.086,0.109,0.219,0.053,0.328
					c-0.079,0.153-0.176,0.293-0.289,0.415C406.034,283.919,405.241,284.189,404.215,284.189L404.215,284.189z M390.381,269.39
					c-0.296,0.85-0.149,2.185,0.431,3.689c0.836,2.166,2.397,4.374,4.396,6.22c3.242,2.992,6.859,4.332,9.006,4.332
					c0.477,0,0.888-0.063,1.222-0.185c-0.119,0.009-0.241,0.013-0.368,0.013c-2.601,0-6.373-1.868-9.386-4.65
					C392.361,275.741,390.248,271.866,390.381,269.39L390.381,269.39z"/>
			</g>
			<g>
				<path fill="#B2B0AE" d="M401.165,272.931c-4.006-3.698-8.358-5.62-10.225-4.628c-1.027,1.93,0.851,6.531,4.933,10.299
					c4.008,3.7,8.746,5.308,10.673,4.262C407.524,280.976,405.249,276.7,401.165,272.931z"/>
				<path fill="#221714" d="M405.069,283.458L405.069,283.458c-2.602,0-6.373-1.869-9.386-4.65
					c-3.938-3.635-6.177-8.406-4.99-10.636c0.026-0.049,0.067-0.09,0.116-0.116c0.364-0.194,0.814-0.292,1.335-0.292
					c2.33,0,5.946,1.947,9.211,4.961c4.149,3.829,6.488,8.244,5.44,10.268c-0.026,0.05-0.066,0.09-0.115,0.117
					C406.255,283.341,405.713,283.458,405.069,283.458L405.069,283.458z M391.149,268.512c-0.852,1.818,0.891,6.17,4.915,9.885
					c3.368,3.109,6.95,4.501,9.006,4.501h0c0.509,0,0.934-0.081,1.266-0.24c0.816-1.821-1.511-5.969-5.36-9.521
					c-3.119-2.879-6.668-4.813-8.831-4.813C391.753,268.324,391.419,268.387,391.149,268.512L391.149,268.512z"/>
			</g>
		</g>
		<g>
			<g>
				<path fill="#F1F1F1" d="M397.973,276.502c-4.083-3.768-5.96-8.369-4.933-10.299c-0.166,0.088-0.314,0.197-0.439,0.332
					c-1.527,1.654,0.155,6.841,4.518,10.869c4.363,4.027,9.755,5.368,11.282,3.714c0.098-0.106,0.179-0.225,0.246-0.354
					C406.719,281.81,401.981,280.202,397.973,276.502z"/>
				<path fill="#221714" d="M406.315,282.089c-2.256,0-6.033-1.385-9.386-4.48c-2.06-1.902-3.672-4.185-4.539-6.429
					c-0.836-2.164-0.834-3.926,0.005-4.835c0.14-0.152,0.313-0.283,0.514-0.39c0.109-0.058,0.242-0.037,0.329,0.05
					c0.087,0.087,0.107,0.221,0.049,0.329c-0.941,1.769,0.794,6.194,4.876,9.962c3.368,3.109,6.95,4.501,9.006,4.501
					c0.55,0,1.002-0.094,1.344-0.28c0.107-0.058,0.241-0.04,0.329,0.046c0.088,0.086,0.109,0.219,0.053,0.328
					c-0.079,0.153-0.176,0.293-0.289,0.415C408.134,281.819,407.341,282.089,406.315,282.089L406.315,282.089z M392.481,267.29
					c-0.296,0.85-0.149,2.185,0.431,3.689c0.836,2.166,2.397,4.374,4.396,6.22c3.242,2.992,6.859,4.332,9.006,4.332
					c0.477,0,0.888-0.063,1.222-0.185c-0.119,0.009-0.241,0.013-0.368,0.013c-2.601,0-6.373-1.868-9.386-4.65
					C394.461,273.641,392.348,269.766,392.481,267.29L392.481,267.29z"/>
			</g>
			<g>
				<path fill="#B2B0AE" d="M403.265,270.831c-4.006-3.698-8.358-5.62-10.225-4.628c-1.027,1.93,0.851,6.531,4.933,10.299
					c4.008,3.7,8.746,5.308,10.673,4.262C409.624,278.876,407.349,274.6,403.265,270.831z"/>
				<path fill="#221714" d="M407.169,281.358L407.169,281.358c-2.602,0-6.373-1.869-9.386-4.65
					c-3.938-3.635-6.177-8.406-4.99-10.636c0.026-0.049,0.067-0.09,0.116-0.116c0.365-0.194,0.814-0.292,1.335-0.292
					c2.331,0,5.946,1.947,9.211,4.961c4.149,3.829,6.488,8.244,5.44,10.268c-0.026,0.05-0.066,0.09-0.115,0.117
					C408.355,281.241,407.813,281.358,407.169,281.358L407.169,281.358z M393.249,266.412c-0.852,1.818,0.891,6.17,4.915,9.885
					c3.368,3.109,6.95,4.501,9.006,4.501h0c0.509,0,0.934-0.081,1.266-0.24c0.816-1.821-1.511-5.968-5.36-9.521
					c-3.119-2.879-6.668-4.813-8.831-4.813C393.853,266.224,393.519,266.287,393.249,266.412L393.249,266.412z"/>
			</g>
		</g>
		<g>
			<g>
				<path fill="#F1F1F1" d="M400.073,274.402c-4.083-3.768-5.96-8.369-4.933-10.299c-0.166,0.088-0.314,0.197-0.439,0.332
					c-1.527,1.654,0.155,6.841,4.518,10.869c4.363,4.027,9.755,5.368,11.282,3.714c0.098-0.106,0.179-0.225,0.246-0.354
					C408.819,279.71,404.081,278.102,400.073,274.402z"/>
				<path fill="#221714" d="M408.415,279.989c-2.256,0-6.033-1.385-9.386-4.48c-2.06-1.902-3.672-4.185-4.539-6.429
					c-0.836-2.164-0.834-3.926,0.005-4.835c0.14-0.152,0.313-0.283,0.514-0.39c0.109-0.058,0.243-0.037,0.329,0.05
					c0.087,0.087,0.107,0.221,0.049,0.329c-0.941,1.769,0.794,6.194,4.876,9.962c3.368,3.109,6.95,4.501,9.006,4.501
					c0.55,0,1.002-0.094,1.344-0.28c0.108-0.059,0.241-0.04,0.329,0.046c0.088,0.086,0.109,0.219,0.053,0.328
					c-0.079,0.153-0.176,0.293-0.289,0.415C410.234,279.719,409.441,279.989,408.415,279.989L408.415,279.989z M394.581,265.19
					c-0.296,0.85-0.149,2.185,0.431,3.689c0.836,2.166,2.397,4.374,4.396,6.219c3.242,2.992,6.859,4.332,9.006,4.332
					c0.477,0,0.888-0.063,1.222-0.185c-0.119,0.009-0.241,0.013-0.368,0.013c-2.601,0-6.373-1.868-9.386-4.65
					C396.561,271.541,394.448,267.666,394.581,265.19L394.581,265.19z"/>
			</g>
			<g>
				<path fill="#B2B0AE" d="M405.365,268.731c-4.006-3.698-8.358-5.62-10.225-4.628c-1.027,1.93,0.851,6.531,4.933,10.299
					c4.008,3.7,8.746,5.308,10.673,4.262C411.724,276.776,409.449,272.5,405.365,268.731z"/>
				<path fill="#221714" d="M409.269,279.258L409.269,279.258c-2.602,0-6.373-1.869-9.386-4.65
					c-3.938-3.635-6.177-8.407-4.99-10.637c0.026-0.049,0.067-0.09,0.116-0.116c0.364-0.194,0.814-0.292,1.335-0.292
					c2.331,0,5.946,1.947,9.211,4.961c4.149,3.829,6.488,8.244,5.44,10.268c-0.026,0.05-0.066,0.091-0.115,0.117
					C410.455,279.141,409.913,279.258,409.269,279.258L409.269,279.258z M395.349,264.312c-0.852,1.818,0.891,6.17,4.915,9.884
					c3.368,3.109,6.95,4.501,9.006,4.501h0c0.509,0,0.934-0.081,1.266-0.24c0.816-1.821-1.511-5.968-5.36-9.521
					c-3.119-2.879-6.668-4.813-8.831-4.813C395.953,264.124,395.619,264.187,395.349,264.312L395.349,264.312z"/>
			</g>
		</g>
		<g>
			<g>
				<path fill="#F1F1F1" d="M402.173,272.302c-4.083-3.768-5.96-8.369-4.933-10.299c-0.166,0.088-0.314,0.197-0.439,0.332
					c-1.527,1.654,0.155,6.841,4.518,10.869c4.362,4.027,9.755,5.368,11.281,3.714c0.098-0.106,0.179-0.225,0.246-0.354
					C410.919,277.61,406.181,276.002,402.173,272.302z"/>
				<path fill="#221714" d="M410.515,277.889c-2.256,0-6.033-1.385-9.386-4.48c-2.06-1.902-3.672-4.185-4.539-6.429
					c-0.836-2.164-0.834-3.926,0.005-4.835c0.14-0.152,0.313-0.283,0.514-0.39c0.109-0.058,0.243-0.037,0.329,0.05
					c0.087,0.087,0.107,0.221,0.049,0.329c-0.941,1.769,0.794,6.194,4.876,9.962c3.368,3.109,6.95,4.501,9.006,4.501
					c0.55,0,1.002-0.094,1.344-0.28c0.107-0.058,0.241-0.04,0.329,0.046c0.088,0.086,0.109,0.219,0.053,0.328
					c-0.079,0.153-0.176,0.293-0.289,0.415C412.334,277.619,411.541,277.889,410.515,277.889L410.515,277.889z M396.681,263.09
					c-0.296,0.85-0.149,2.185,0.431,3.689c0.836,2.166,2.397,4.374,4.396,6.219c3.242,2.992,6.859,4.332,9.006,4.332
					c0.477,0,0.888-0.063,1.222-0.185c-0.119,0.009-0.241,0.013-0.368,0.013c-2.601,0-6.373-1.869-9.386-4.65
					C398.661,269.441,396.548,265.566,396.681,263.09L396.681,263.09z"/>
			</g>
			<g>
				<path fill="#B2B0AE" d="M407.465,266.631c-4.006-3.698-8.358-5.62-10.225-4.628c-1.027,1.93,0.851,6.531,4.933,10.299
					c4.008,3.7,8.746,5.308,10.673,4.262C413.824,274.676,411.549,270.4,407.465,266.631z"/>
				<path fill="#221714" d="M411.369,277.158L411.369,277.158c-2.602,0-6.373-1.869-9.386-4.65
					c-3.938-3.635-6.177-8.407-4.99-10.637c0.026-0.049,0.067-0.09,0.116-0.116c0.364-0.194,0.814-0.292,1.335-0.292
					c2.33,0,5.946,1.947,9.211,4.961c4.149,3.829,6.488,8.244,5.44,10.268c-0.026,0.05-0.066,0.091-0.115,0.117
					C412.555,277.041,412.013,277.158,411.369,277.158L411.369,277.158z M397.449,262.212c-0.852,1.818,0.891,6.17,4.915,9.885
					c3.368,3.109,6.95,4.501,9.006,4.501h0c0.509,0,0.934-0.081,1.266-0.24c0.816-1.821-1.511-5.968-5.36-9.521
					c-3.119-2.879-6.668-4.813-8.831-4.813C398.053,262.024,397.719,262.087,397.449,262.212L397.449,262.212z"/>
			</g>
		</g>
		<g>
			<g>
				<path fill="#F1F1F1" d="M404.273,270.202c-4.083-3.768-5.96-8.369-4.933-10.299c-0.166,0.088-0.314,0.197-0.439,0.332
					c-1.527,1.654,0.155,6.841,4.518,10.869c4.362,4.027,9.755,5.368,11.281,3.714c0.098-0.106,0.179-0.225,0.246-0.354
					C413.019,275.51,408.281,273.902,404.273,270.202z"/>
				<path fill="#221714" d="M412.615,275.789c-2.256,0-6.033-1.385-9.386-4.48c-2.06-1.902-3.672-4.185-4.539-6.429
					c-0.836-2.164-0.834-3.926,0.005-4.835c0.14-0.152,0.313-0.283,0.514-0.39c0.109-0.057,0.243-0.037,0.329,0.05
					c0.087,0.087,0.107,0.221,0.049,0.329c-0.941,1.769,0.794,6.194,4.876,9.962c3.368,3.109,6.95,4.501,9.006,4.501
					c0.55,0,1.002-0.094,1.344-0.28c0.107-0.059,0.241-0.04,0.329,0.046c0.088,0.086,0.109,0.219,0.053,0.329
					c-0.079,0.153-0.176,0.293-0.289,0.415C414.434,275.519,413.641,275.789,412.615,275.789L412.615,275.789z M398.781,260.99
					c-0.296,0.85-0.149,2.185,0.431,3.689c0.836,2.166,2.397,4.374,4.396,6.219c3.242,2.992,6.859,4.332,9.006,4.332
					c0.477,0,0.888-0.063,1.222-0.185c-0.119,0.009-0.241,0.014-0.368,0.014c-2.601,0-6.373-1.869-9.386-4.65
					C400.761,267.341,398.648,263.466,398.781,260.99L398.781,260.99z"/>
			</g>
			<g>
				<path fill="#B2B0AE" d="M409.565,264.531c-4.006-3.698-8.358-5.62-10.225-4.628c-1.027,1.931,0.85,6.531,4.933,10.299
					c4.008,3.7,8.746,5.308,10.673,4.262C415.924,272.576,413.649,268.3,409.565,264.531z"/>
				<path fill="#221714" d="M413.469,275.058L413.469,275.058c-2.602,0-6.373-1.869-9.386-4.65
					c-3.938-3.635-6.177-8.406-4.99-10.637c0.026-0.049,0.067-0.09,0.116-0.116c0.365-0.194,0.814-0.292,1.335-0.292
					c2.331,0,5.946,1.947,9.212,4.961c4.149,3.829,6.488,8.244,5.44,10.268c-0.026,0.05-0.066,0.091-0.115,0.117
					C414.655,274.941,414.113,275.058,413.469,275.058L413.469,275.058z M399.548,260.112c-0.852,1.818,0.891,6.17,4.915,9.885
					c3.368,3.109,6.95,4.501,9.006,4.501h0c0.509,0,0.934-0.081,1.266-0.24c0.816-1.821-1.511-5.968-5.36-9.521
					c-3.119-2.879-6.668-4.813-8.831-4.813C400.153,259.924,399.819,259.987,399.548,260.112L399.548,260.112z"/>
			</g>
		</g>
		<g>
			<g>
				<path fill="#F1F1F1" d="M406.373,268.102c-4.083-3.768-5.96-8.369-4.933-10.299c-0.166,0.088-0.314,0.197-0.439,0.332
					c-1.527,1.654,0.155,6.841,4.518,10.869c4.362,4.027,9.755,5.368,11.281,3.714c0.098-0.106,0.179-0.225,0.246-0.354
					C415.119,273.41,410.382,271.802,406.373,268.102z"/>
				<path fill="#221714" d="M414.715,273.689c-2.256,0-6.033-1.385-9.386-4.48c-2.06-1.902-3.672-4.185-4.539-6.429
					c-0.836-2.164-0.833-3.926,0.005-4.835c0.141-0.152,0.313-0.283,0.514-0.39c0.109-0.058,0.242-0.037,0.329,0.05
					c0.087,0.087,0.107,0.221,0.049,0.329c-0.941,1.769,0.794,6.194,4.876,9.962c3.368,3.109,6.95,4.501,9.006,4.501
					c0.55,0,1.002-0.094,1.344-0.28c0.107-0.059,0.241-0.04,0.329,0.046c0.088,0.086,0.109,0.219,0.053,0.329
					c-0.079,0.153-0.176,0.293-0.289,0.415C416.534,273.419,415.741,273.689,414.715,273.689L414.715,273.689z M400.881,258.89
					c-0.296,0.85-0.149,2.185,0.432,3.688c0.836,2.166,2.397,4.375,4.396,6.219c3.242,2.992,6.859,4.332,9.006,4.332
					c0.477,0,0.888-0.063,1.222-0.185c-0.119,0.009-0.241,0.014-0.368,0.014c-2.601,0-6.373-1.869-9.386-4.65
					C402.861,265.241,400.748,261.366,400.881,258.89L400.881,258.89z"/>
			</g>
			<g>
				<path fill="#B2B0AE" d="M411.665,262.431c-4.006-3.698-8.358-5.62-10.225-4.628c-1.027,1.93,0.85,6.531,4.933,10.299
					c4.008,3.7,8.746,5.308,10.673,4.262C418.024,270.476,415.749,266.2,411.665,262.431z"/>
				<path fill="#221714" d="M415.569,272.958L415.569,272.958c-2.602,0-6.373-1.869-9.386-4.65
					c-3.938-3.635-6.177-8.407-4.99-10.637c0.026-0.049,0.066-0.09,0.116-0.116c0.365-0.194,0.814-0.292,1.335-0.292
					c2.331,0,5.946,1.947,9.212,4.961c4.149,3.829,6.488,8.244,5.44,10.268c-0.026,0.05-0.066,0.091-0.115,0.117
					C416.755,272.841,416.213,272.958,415.569,272.958L415.569,272.958z M401.648,258.012c-0.852,1.818,0.891,6.17,4.915,9.884
					c3.368,3.109,6.95,4.501,9.006,4.501h0c0.509,0,0.934-0.081,1.266-0.24c0.816-1.821-1.511-5.968-5.36-9.521
					c-3.119-2.879-6.668-4.813-8.831-4.813C402.253,257.824,401.919,257.887,401.648,258.012L401.648,258.012z"/>
			</g>
		</g>
	</g>
	<path fill="#D1CFCD" d="M423.515,250.56c-3.223-3.705-9.005-8.032-14.696-8.032c-0.966,0-1.913,0.124-2.816,0.367
		c-0.034,0.009-0.065,0.027-0.091,0.051l-7.418,7.14c-0.407,0.407-0.341,0.743-0.241,1.251c0.028,0.142,0.058,0.294,0.078,0.46
		c0.092,0.734,2.032,7.574,2.051,7.642c0.005,0.019,0.013,0.036,0.023,0.052c0.063,0.112,0.273,0.443,0.895,1.134
		c0.814,0.904,11.12,11.392,11.558,11.838c0.007,0.007,0.014,0.013,0.021,0.019c0.219,0.17,1.348,1.033,2.02,1.285
		c0.734,0.275,7.388,1.57,7.465,1.586c0.007,0.002,0.015,0.005,0.023,0.006c0.059,0.013,0.119,0.016,0.159,0.016
		c0.191,0,0.584-0.062,1.056-0.475c0.723-0.632,7.234-6.696,7.51-6.954c0.025-0.023,0.044-0.052,0.055-0.084
		C431.422,267.138,433.364,260.496,423.515,250.56z"/>
	<path fill="#B5B2B0" d="M431.361,263.454c0.041-0.485-0.844-0.225-0.771,0.215c0.008,0.047,0.018,0.095,0.027,0.142
		c-0.101,0.011-0.216,0.07-0.304,0.156c-0.107,0.076-0.175,0.201-0.201,0.323c-0.924,0.84-2.948,0.019-3.865-0.386
		c-1.46-0.645-2.656-1.684-4.148-2.303c-0.383-0.293-0.764-0.589-1.134-0.895c-2.525-2.086-4.387-4.914-6.754-7.165
		c-0.074-0.07-0.208-0.099-0.344-0.094c-0.358-0.575-0.714-1.147-1.092-1.682c-0.437-0.619-0.937-1.187-1.324-1.84
		c-0.352-0.593-0.431-1.312-0.666-1.95c-0.229-0.623-0.575-1.388-0.731-2.139c0.021-0.156,0.03-0.316,0.031-0.482
		c0.002-0.436,0.08-0.85,0.158-1.264c0.13-0.217,0.309-0.42,0.561-0.597c0.224-0.158,0.435-0.672,0.008-0.701
		c-0.164-0.011-0.327-0.027-0.489-0.044c-0.029-0.033-0.067-0.056-0.121-0.059c-0.458-0.021-1.306-0.241-1.962-0.189
		c-0.31-0.027-0.623-0.044-0.943-0.041c-0.227,0.002-0.463,0.253-0.493,0.45c-0.214,0.055-0.354,0.225-0.1,0.436
		c0.287,0.238,0.551,0.515,0.794,0.822c0.251,0.742,0.746,1.451,1.191,2.131c0.331,0.848,0.562,1.764,0.685,2.674
		c-0.071,0.041-0.106,0.119-0.072,0.246c0.305,1.125-0.107,2.17-0.363,3.251c-0.014,0.029-0.022,0.06-0.022,0.092
		c-0.019,0.082-0.036,0.165-0.053,0.248c-0.072,0.367,0.302,0.376,0.54,0.212c0.016,0.002,0.031,0.005,0.05,0.005
		c0.004,0,0.008-0.002,0.013-0.002c1.882,1.091,3.954,2.042,5.547,3.522c0.02,0.07,0.088,0.118,0.223,0.119
		c0.213,0.252,0.433,0.494,0.658,0.731c0.44,0.517,0.87,1.035,1.304,1.525c0.774,0.873,1.546,1.755,2.24,2.693
		c0.817,1.105,1.368,2.543,1.946,3.792c-0.107,0.221-0.122,0.473,0.142,0.471c0.752-0.005,1.499-0.043,2.236-0.066
		c0.118,0.018,0.237,0.034,0.354,0.058c0.082,0.017,0.166-0.014,0.241-0.072c2.031-0.029,3.972,0.16,5.704,1.591
		c0.075,0.062,0.154,0.074,0.23,0.058c0.066,0.155,0.155,0.3,0.272,0.445c0.22,0.274,0.562-0.026,0.646-0.27
		c0.217-0.625,0.344-1.261,0.403-1.919C431.686,264.924,431.298,264.213,431.361,263.454z"/>
	<g>
		<path fill="#221714" d="M423.813,250.456c-3.422-3.934-9.145-8.139-14.948-8.139c-1.022,0-2.025,0.134-2.979,0.399
			c-0.045,0.012-0.086,0.036-0.119,0.068l-7.471,7.191c-0.542,0.542-0.445,1.041-0.341,1.57c0.027,0.135,0.055,0.279,0.075,0.436
			c0.095,0.759,1.981,7.412,2.065,7.707c0.026,0.079,0.175,0.406,0.991,1.312c0.835,0.927,11.143,11.416,11.582,11.862
			c0.008,0.008,0.017,0.016,0.027,0.024c0.055,0.043,1.35,1.057,2.128,1.349c0.751,0.281,7.078,1.515,7.499,1.597
			c0.044,0.012,0.137,0.032,0.271,0.032c0.295,0,0.757-0.097,1.287-0.561c0.742-0.649,7.288-6.746,7.567-7.006
			c0.029-0.027,0.051-0.059,0.067-0.095C431.634,267.918,434.358,261.094,423.813,250.456z M431.016,267.934
			c-0.612,0.57-6.803,6.335-7.505,6.949c-0.605,0.529-1.031,0.412-1.034,0.412h0c-0.012-0.004-0.023-0.007-0.035-0.009
			c-1.863-0.362-6.827-1.351-7.422-1.574c-0.658-0.247-1.825-1.145-1.965-1.254c-0.429-0.437-10.739-10.928-11.552-11.831
			c-0.737-0.819-0.87-1.103-0.872-1.103v0c-0.544-1.915-1.97-7.017-2.045-7.612c-0.021-0.171-0.052-0.328-0.081-0.475
			c-0.096-0.489-0.144-0.734,0.184-1.062l7.415-7.137c0.885-0.239,1.813-0.36,2.761-0.36c5.621,0,11.338,4.281,14.538,7.96
			C433.198,260.719,431.24,267.295,431.016,267.934z"/>
		<path fill="#221714" d="M421.638,265.698c0.005-0.042,0.003-0.084-0.012-0.126c-3.102-8.551-10.907-12.081-12.553-12.743
			c1.595-4.887-1.905-9.098-2.056-9.276c-0.1-0.118-0.277-0.132-0.394-0.033c-0.118,0.1-0.133,0.276-0.033,0.394
			c0.035,0.042,3.493,4.207,1.922,8.831c-0.01,0.007-0.022,0.013-0.031,0.022l-7,6.44c-0.114,0.105-0.121,0.282-0.017,0.396
			c0.105,0.114,0.283,0.121,0.396,0.016l6.874-6.324c1.215,0.468,9.241,3.85,12.367,12.466c0.006,0.016,0.015,0.028,0.023,0.042
			c-0.015,0.009-0.031,0.018-0.044,0.031l-6.814,6.347c-0.113,0.105-0.12,0.283-0.014,0.396c0.055,0.059,0.13,0.089,0.205,0.089
			c0.068,0,0.137-0.025,0.191-0.075l6.752-6.29c0.781-0.128,7.063-1.065,8.88,1.577c0.088,0.128,0.262,0.16,0.389,0.072
			c0.127-0.088,0.16-0.262,0.072-0.389C428.878,264.854,423.239,265.463,421.638,265.698z"/>
		<path fill="#221714" d="M417.367,256.89c-4.063-4.388-6.299-8.035-6.836-11.151c-0.215-1.249,0.025-1.582,0.138-1.667
			c0.182-0.137,0.486,0.004,0.489,0.006c0.138,0.068,0.305,0.012,0.374-0.126c0.069-0.138,0.013-0.307-0.125-0.376
			c-0.224-0.112-0.702-0.229-1.07,0.045c-0.441,0.327-0.558,1.051-0.357,2.213c0.556,3.225,2.839,6.966,6.977,11.436
			c2.642,2.853,8.629,7.528,11.933,7.528c0.207,0,0.404-0.018,0.589-0.057c0.73-0.152,1.229-0.595,1.481-1.315
			c0.051-0.146-0.026-0.306-0.172-0.357c-0.146-0.051-0.306,0.026-0.357,0.172c-0.185,0.53-0.534,0.842-1.067,0.952
			C426.687,264.749,420.47,260.24,417.367,256.89z"/>
	</g>
</g>
</svg>
