<?xml version="1.0" encoding="utf-8"?>
<!-- Generator: Adobe Illustrator 17.0.1, SVG Export Plug-In . SVG Version: 6.00 Build 0)  -->
<!DOCTYPE svg PUBLIC "-//W3C//DTD SVG 1.1//EN" "http://www.w3.org/Graphics/SVG/1.1/DTD/svg11.dtd">
<svg version="1.1" id="レイヤー_1" xmlns="http://www.w3.org/2000/svg" xmlns:xlink="http://www.w3.org/1999/xlink" x="0px"
	 y="0px" width="841.89px" height="595.28px" viewBox="0 0 841.89 595.28" enable-background="new 0 0 841.89 595.28"
	 xml:space="preserve">
<rect x="349.763" y="227.14" fill="#FFFFFF" stroke="#A660A3" stroke-width="2" stroke-miterlimit="10" width="141.732" height="141.732"/>
<g>
	<path fill="#CDCBCD" d="M444.106,279.717c0,0-36.72-0.864-53.04,13.536c-16.32,14.4-27.84,19.584-27.84,19.584l-1.92,0.288
		l-0.06,32.976h109.62l-0.6-47.088L444.106,279.717z"/>
	<path fill="#6A6969" d="M431.625,266.757c0,0,2.88-6.48,4.32-8.064c1.44-1.584,3.12-2.304,4.92-0.144
		c1.8,2.16,4.56,6.048,5.64,6.336c1.08,0.288,2.28-0.576,3.6-1.872c1.32-1.296,2.76-2.592,3.84-2.448
		c1.08,0.144,5.52,2.592,8.64,6.336l-0.48,9.936h-18.96L431.625,266.757z"/>
	<path fill="#888184" d="M395.026,269.061c0,0,5.76-3.168,8.16-6.48s5.04-5.76,6.24-7.776c1.2-2.016,5.04-4.608,7.44-4.176
		c2.4,0.432,3.84,0.72,4.32,0.432c0.48-0.288,3.24,0.72,4.92,3.744c1.68,3.024,5.88,9.792,6.36,10.512
		c0.48,0.72,7.92,8.928,12.6,10.944c0,0,0.24,2.592,0.36,3.024c0.12,0.432-10.68,5.328-12.12,5.76c-1.44,0.432-2.76,0-3.48,0.72
		s-0.72,1.152-1.08,2.304c-0.36,1.152-0.72,1.44-5.28,1.008c-4.56-0.432-26.64-9.792-26.64-9.792L395.026,269.061z"/>
	<path fill="#666464" d="M394.905,276.981c0,0,4.8-6.336,7.08-8.208s4.44-2.304,6.48,0s11.04,13.392,11.04,13.392l8.64,12.96
		c0,0-1.08,0.72-7.68,1.008c-6.6,0.288-14.28,0.144-14.28,0.144L394.905,276.981z"/>
	<path fill="#B0B195" d="M384.445,323.285c-1.518,0.947-2.675,1.949-3.557,3.813c-0.777,1.641-1.157,3.069-2.547,4.074
		c-1.307,0.945-2.715-0.17-4.136,0.342c-1.795,0.647-1.671,2.683-2.538,4.217c-0.408,0.721-1.422,1.369-0.432,2.079
		c0.689,0.495,2.179,0.283,2.967,0.297c1.978,0.037,3.99-0.842,5.942-0.437c1.843,0.382,3.526,1.271,5.31,1.839
		c1.628,0.518,3.084,0.832,4.765,0.33c0.936-0.28,1.737-0.983,2.656-1.272c1.44-0.454,2.478-1.168,3.965-0.902
		c0.608,0.109,2.79,0.674,2.408-0.853c-0.184-0.734-1.105-2.179-1.645-2.597c-0.645-0.499-1.521-0.621-2.25-1.05
		c-1.669-0.985-1.514-3.889-2.32-5.772c-0.831-1.94-1.721-4.38-3.459-5.421C387.988,321.02,385.839,322.416,384.445,323.285z"/>
	<path fill="#9E9D8A" d="M401.025,322.233c-0.643,0.471-0.981,1.519-1.64,2.028c-0.717,0.554-1.448,0.789-2.14,1.291
		c-0.947,0.687-1.197,1.849-0.546,2.935c1.321,2.206,3.692,0.101,5.316-0.097c1.212-0.148,2.35,0.42,3.516,0.706
		c1.306,0.32,2.549,0.142,3.864,0.05c0.666-0.047,1.628-0.313,2.255-0.005c0.749,0.368,0.934,1.219,1.885,0.677
		c0.641-0.365,0.864-1.182,0.655-1.992c-0.479-1.857-2.282-2.57-3.715-2.784c-0.827-0.123-1.388-0.18-2.073-0.837
		c-0.629-0.604-1.087-1.335-1.798-1.833c-1.318-0.922-4.472-2.654-5.22-0.03"/>
	<path fill="#B9B8A2" d="M407.145,294.801c0.108,0.919,0.198,1.557,0.7,2.292c0.412,0.602,1.021,1.076,1.392,1.788
		c0.581,1.116,1.796,4.182,0.428,4.778c-0.758,0.33-1.786,0.182-2.59,0.345c-0.701,0.143-1.669,0.309-2.365-0.102
		c-0.985-0.582-1.646-2.285-2.133-3.405c-0.667-1.534-1.59-3.075-1.712-4.83c-0.126-1.809,1.412-3.649,2.724-4.222
		C405.425,290.645,406.899,292.694,407.145,294.801z"/>
	<path fill="#B9B899" d="M402.56,295.77c0.865,1.692,1.367,3.87,1.953,5.727c0.284,0.901,0.401,1.887,0.833,2.7
		c0.451,0.849,1.091,1.402,1.625,2.133c0.503,0.689,0.863,1.556,1.235,2.348c0.361,0.769,0.827,1.431,1.17,2.22
		c0.316,0.727,0.337,1.156,0.097,1.922c-0.542,0.035-0.985-0.102-1.517-0.092c-0.613,0.012-1.197,0.352-1.825,0.438
		c-0.788,0.108-1.464,0.401-2.228,0.618c-1.43,0.405-2.797-0.846-3.847-1.893c-2.859-2.851-5.201-6.773-4.322-11.478
		c0.446-2.385,1.223-4.933,2.551-6.836C399.679,291.581,401.759,294.205,402.56,295.77z"/>
	<polygon fill="#D3D3D4" points="405.026,290.936 407.025,293.253 412.065,286.917 	"/>
	<polygon fill="#FFFFFF" points="406.665,292.677 413.026,285.621 416.745,284.181 406.906,294.981 	"/>
	<path fill="#C7C8C8" d="M396.585,276.837h62.4l1.56,3.744l-4.08,15.408l-2.64,1.872c0,0-14.28-19.584-34.68-14.832
		c-1.8,0.432-13.92,5.616-17.76,11.52l-2.52-2.016L396.585,276.837z"/>
	<g>
		<path fill="#BBBBBA" d="M454.771,297.785c0,0.757-0.257,1.372-0.574,1.372h-0.743c-0.317,0-0.574-0.614-0.574-1.372v-17.848
			c0-0.757,0.257-1.372,0.574-1.372h0.743c0.317,0,0.574,0.614,0.574,1.372V297.785z"/>
		<path fill="#BBBBBA" d="M425.145,281.552c0,0.338-0.229,0.612-0.51,0.612h-0.66c-0.282,0-0.51-0.274-0.51-0.612v-2.375
			c0-0.338,0.229-0.612,0.51-0.612h0.66c0.282,0,0.51,0.274,0.51,0.612V281.552z"/>
		<path fill="#BBBBBA" d="M421.905,281.876c0,0.338-0.229,0.612-0.51,0.612h-0.66c-0.282,0-0.51-0.274-0.51-0.612v-2.375
			c0-0.338,0.229-0.612,0.51-0.612h0.66c0.282,0,0.51,0.274,0.51,0.612V281.876z"/>
		<path fill="#BBBBBA" d="M428.506,281.696c0,0.338-0.229,0.612-0.51,0.612h-0.66c-0.282,0-0.51-0.274-0.51-0.612v-2.375
			c0-0.338,0.229-0.612,0.51-0.612h0.66c0.282,0,0.51,0.274,0.51,0.612V281.696z"/>
		<path fill="#BBBBBA" d="M431.866,281.552c0,0.338-0.229,0.612-0.51,0.612h-0.66c-0.282,0-0.51-0.274-0.51-0.612v-2.375
			c0-0.338,0.229-0.612,0.51-0.612h0.66c0.282,0,0.51,0.274,0.51,0.612V281.552z"/>
		<path fill="#BBBBBA" d="M434.986,282.389c0,0.433-0.229,0.784-0.51,0.784h-0.66c-0.282,0-0.51-0.351-0.51-0.784v-3.04
			c0-0.433,0.229-0.784,0.51-0.784h0.66c0.282,0,0.51,0.351,0.51,0.784V282.389z"/>
		<path fill="#BBBBBA" d="M438.346,283.559c0,0.582-0.229,1.053-0.51,1.053h-0.66c-0.282,0-0.51-0.472-0.51-1.053v-4.085
			c0-0.582,0.228-1.053,0.51-1.053h0.66c0.282,0,0.51,0.472,0.51,1.053V283.559z"/>
		<path fill="#BBBBBA" d="M441.811,285.257c0,0.757-0.257,1.372-0.574,1.372h-0.742c-0.317,0-0.574-0.614-0.574-1.372v-5.32
			c0-0.757,0.257-1.372,0.574-1.372h0.742c0.317,0,0.574,0.614,0.574,1.372V285.257z"/>
		<path fill="#BBBBBA" d="M445.051,287.849c0,0.757-0.257,1.372-0.574,1.372h-0.743c-0.317,0-0.574-0.614-0.574-1.372v-7.912
			c0-0.757,0.257-1.372,0.574-1.372h0.743c0.317,0,0.574,0.614,0.574,1.372V287.849z"/>
		<path fill="#BBBBBA" d="M448.291,290.333c0,0.757-0.257,1.372-0.574,1.372h-0.742c-0.317,0-0.574-0.614-0.574-1.372v-10.396
			c0-0.757,0.257-1.372,0.574-1.372h0.742c0.317,0,0.574,0.614,0.574,1.372V290.333z"/>
		<path fill="#BBBBBA" d="M416.895,281.896c0,0.398,0.229,0.722,0.51,0.722h0.66c0.282,0,0.51-0.323,0.51-0.722v-2.8
			c0-0.399-0.229-0.722-0.51-0.722h-0.66c-0.282,0-0.51,0.323-0.51,0.722V281.896z"/>
		<path fill="#BBBBBA" d="M413.775,282.882c0,0.51,0.229,0.924,0.51,0.924h0.66c0.282,0,0.51-0.414,0.51-0.924v-3.584
			c0-0.51-0.229-0.924-0.51-0.924h-0.66c-0.282,0-0.51,0.414-0.51,0.924V282.882z"/>
		<path fill="#BBBBBA" d="M410.415,284.262c0,0.686,0.229,1.242,0.51,1.242h0.66c0.282,0,0.51-0.556,0.51-1.242v-4.816
			c0-0.686-0.228-1.242-0.51-1.242h-0.66c-0.282,0-0.51,0.556-0.51,1.242V284.262z"/>
		<path fill="#BBBBBA" d="M406.95,286.263c0,0.893,0.257,1.617,0.574,1.617h0.742c0.317,0,0.574-0.724,0.574-1.617v-6.272
			c0-0.893-0.257-1.617-0.574-1.617h-0.742c-0.317,0-0.574,0.724-0.574,1.617V286.263z"/>
		<path fill="#BBBBBA" d="M403.71,289.319c0,0.893,0.257,1.617,0.574,1.617h0.743c0.317,0,0.574-0.724,0.574-1.617v-9.328
			c0-0.893-0.257-1.617-0.574-1.617h-0.743c-0.317,0-0.574,0.724-0.574,1.617V289.319z"/>
		<path fill="#BBBBBA" d="M400.47,292.247c0,0.893,0.257,1.617,0.574,1.617h0.742c0.317,0,0.574-0.724,0.574-1.617v-12.256
			c0-0.893-0.257-1.617-0.574-1.617h-0.742c-0.317,0-0.574,0.724-0.574,1.617V292.247z"/>
		<path fill="#BBBBBA" d="M451.531,293.573c0,0.757-0.257,1.371-0.574,1.371h-0.742c-0.317,0-0.574-0.614-0.574-1.371v-13.636
			c0-0.757,0.257-1.372,0.574-1.372h0.742c0.317,0,0.574,0.614,0.574,1.372V293.573z"/>
		<path fill="#BBBBBA" d="M458.011,285.257c0,0.757-0.257,1.372-0.574,1.372h-0.742c-0.317,0-0.574-0.614-0.574-1.372v-5.32
			c0-0.757,0.257-1.372,0.574-1.372h0.742c0.317,0,0.574,0.614,0.574,1.372V285.257z"/>
		<path fill="#BBBBBA" d="M398.971,285.257c0,0.757-0.257,1.372-0.574,1.372h-0.742c-0.317,0-0.574-0.614-0.574-1.372v-5.32
			c0-0.757,0.257-1.372,0.574-1.372h0.742c0.317,0,0.574,0.614,0.574,1.372V285.257z"/>
	</g>
	<rect x="396.825" y="276.238" fill="#FDFEFF" width="60.96" height="1.485"/>
	<path fill="#898989" d="M374.385,273.093c0.284-1.203,1.091-1.222,1.963-1.434c-1.028-0.05-1.791-0.428-1.873-1.698
		c-0.133-2.138,1.358-1.905,2.055-1.49c-0.243-0.897-0.611-2.13,0.015-3.02c0.805-1.146,1.415-0.608,2.25-0.241
		c0.038-0.993,0.156-2.152,1.305-1.055c-0.305-1.68-0.282-3.741,1.605-3.877c1.581-0.113,2.123,2.03,1.698,3.588
		c0.665-1.223,2.674-0.824,2.073,0.864c0.69-1.935,1.65,0.691,1.962,1.296c0.051-1.121,0.936-2.636,1.921-2.255
		c0.84,0.325,1.342,2.571,1.118,3.364c0.652-0.814,1.623-0.306,1.701,0.762c-0.183-2.504,6.518-3.472,3.82,1.978
		c0.71-0.56,2.37-0.99,1.91,0.634c-0.299,1.056-1.844,1.512-2.594,1.865c0.728,0.73,0.474,2.123,0.084,2.978
		c0.851-1.869,1.302,0.565,1.558,1.48c0.421,1.506,1.092,3.653,0.199,5.01c0.75-0.183,0.776-1.291,1.323-0.255
		c0.402,0.761,0.462,2.129,0.297,2.847c1.16-0.108,1.79,2.513,1.71,3.564c-0.102,1.33-1.203,2.728-2.061,3.611
		c1.848-0.983,0.374,2.239-0.264,2.772c0.435-0.257,0.958-0.147,1.275,0.349c0.484,0.757,0.057,1.203-0.408,1.846
		c1.673-0.286-0.042,2.691-0.481,3.166c1.181-0.059,0.483,1.821-0.045,2.3c-0.351,0.319-0.904,0.384-1.197,0.717
		c-0.293,0.334-0.316,0.804-0.501,1.27c-0.158-0.107-0.379-0.032-0.553-0.244c-0.356,1.805-2.142,3.351-3.354,4.329
		c-2.805,2.267-5.332,3.137-8.7,2.388c-3.895-0.867-6.134-5.184-8.781-8.208c-1-1.142-2.06-2.259-3.073-3.388
		c-0.589-0.656-1.43-1.456-2.221-1.701c-0.314-0.097-0.9,0.117-1.157-0.084c-0.181-0.141-0.714-1.155-0.269-1.401
		c-1.405,0.775-1.575-1.616-0.175-2.258c-0.677,0.335-1.285-0.825-1.43-1.504c-0.219-1.026,0.258-1.562,0.894-2.132
		c-1.196-0.103-1.902-2.053-1.037-3.024c0.892-1.002,2.129-0.656,3.197-0.601c-1.541-0.658,0.235-1.696,1.107-1.617
		c-0.775-0.992,0.208-2.036,1.083-2.167c-0.757-0.482-1.432-2.587-0.633-3.391c-0.227,0.229-1.371-2.054-1.463-2.324
		c-0.376-1.099-0.361-1.966,0.238-2.933c1.253-2.021,2.826-0.15,4.223,0.739"/>
	<path fill="#FFFFFF" d="M400.426,293.685l1.2,1.584c0,0,6.6-8.208,15.48-10.656c8.88-2.448,14.76-2.448,21.72,1.584
		c6.96,4.032,14.4,12.528,14.4,12.528l1.44-1.296c0,0-10.8-12.672-19.44-14.544c-8.64-1.872-15.6-2.016-22.08,1.296
		C406.665,287.493,400.426,293.685,400.426,293.685z"/>
	<path fill="#949481" d="M366.825,301.173c-1.571,0.481-1.211,2.622-2.002,3.974c-1.635,2.793-6.018,3.786-4.857,8.038
		c0.623,2.283,2.483,2.287,4.09,1.812c1.524-0.451,3.679-0.468,5.11,0.353c0.67,0.385,1.433,1.088,2.16,1.272
		c0.838,0.213,1.519-0.32,2.25-0.553c1.609-0.515,3.052,0.305,4.68,0.548c1.138,0.17,1.987,0.712,3.055,1.085
		c1.051,0.368,2.216-0.913,2.614-2.052c0.457-1.307-0.463-2.626-0.34-3.893c0.095-0.98,1.083-2.756,1.703-3.021
		c-0.899-0.026-1.608-4.081-1.836-4.971c-0.57-2.23-1.619-4.282-2.567-6.272c-0.702-1.474-1.928-3.087-3.35-3.34
		c-1.749-0.311-3.419-0.131-5.13,0.216c-0.82,0.166-2.014,0.221-2.545,1.158c-0.768,1.358,0.127,3.224-0.557,4.567
		C368.814,301.055,367.633,300.925,366.825,301.173z"/>
	<path fill="#B9B8A1" d="M388.086,306.594c-1.285,1.071-3.12,1.793-3.73,3.651c-0.261,0.796-0.603,1.728-0.617,2.592
		c-0.015,0.925,0.246,1.898,0.094,2.808c-0.305,1.828-2.143,2.795-2.855,4.425c-1.057,2.422,1.603,1.715,2.768,1.863
		c1.123,0.143,1.853,0.228,2.958-0.071c2.116-0.572,4.322,0.456,6.472,0.26c1.694-0.155,3.346-0.588,5.058-0.454
		c0.745,0.059,1.499,0.13,2.252,0.24c0.85,0.124,1.247-0.48,1.98-0.732c0.692-0.237,1.505,0.153,2.16-0.025
		c0.845-0.229,0.757-1.227,0.56-2.051c-0.571-2.394-1.331-4.231-2.535-6.261c-0.99-1.668-2.047-3.303-2.888-5.089
		c-0.675-1.434-1.253-2.676-2.427-3.664c-1.341-1.129-2.458-0.825-3.82-0.022c-0.621,0.366-0.972,1.323-1.644,1.514
		c-0.689,0.197-1.322-0.498-2.032-0.296C389.208,305.462,388.606,306.16,388.086,306.594z"/>
	<path fill="#9E9D8A" d="M456.346,294.693c-1.079,1.69-2.287,3.255-3.453,4.889c-1.179,1.652-2.598,2.615-3.176,4.759
		c-0.601,2.227,0.375,4.66-0.547,6.772c-0.833,1.908-2.739,2.985-2.897,5.181c-0.239,3.31,1.588,6.112,3.114,8.766
		c0.816-0.348,1.855-0.847,2.499,0.162c0.613,0.961,0.088,2.247,0.378,3.315c0.555,2.047,3.239,2.026,4.474,2.836
		c1.189,0.78,1.999,2.127,3.239,2.896c0.801,0.497,1.644,0.751,2.542,0.768c0.597,0.011,1.125-0.238,1.63,0.254
		c1.572,1.532,0.475,5.185-0.122,6.923c-0.398,1.156-1.28,2.198-0.164,3.191c1.002,0.892,2.259,0.454,3.379,0.624
		c1.566,0.239,2.994,1.033,4.612,1.086c1.741,0.058,4.307-1.401,4.174-1.447c0,0-0.6-47.52,0-47.52S456.346,294.693,456.346,294.693
		z"/>
	<path fill="#828282" d="M479.573,311.547c0.691,0.586,1.458-2.365,1.415-2.819c-0.108-1.166-1.115-1.604-1.355-2.709
		c-0.202-0.93,0.411-1.897,0.384-2.87c0.001,0.023-1.448-0.717-1.599-0.876c-0.464-0.486-0.738-1.163-0.859-1.881
		c1.006-0.414,0.997-1.315,0.822-2.37c-0.102-0.613-0.335-1.171-0.317-1.81c0.018-0.629,0.369-1.186,0.27-1.834
		c-0.127-0.827-1.327-1.512-1.036-2.367c0.152-0.446,1.012-0.473,1.244-0.978c0.283-0.616,0.278-1.493,0.242-2.173
		c-0.104-1.944-1.034-2.574-2.001-3.888c1.201-1.16,0.811-2.491,0.774-4.085c-0.034-1.507,0.148-2.717-0.559-4.094
		c1.474,0.753,2.365-1.241,1.576-2.588c-0.163,0.001-0.335-0.057-0.496-0.08c1.954-1.081,1.016-4.209-1.219-3.824
		c1.978-1.429,1.532-3.466-0.712-3.678c0.777-1.024,0.204-2.691-0.563-3.514c-1.14-1.225-1.24-0.186-1.582,0.72
		c-0.328-1.451-1.033-2.929-2.24-3.459c-0.715-0.313-1.195-0.106-1.798,0.492c-0.693,0.687-0.682,1.626-0.916,2.61
		c-0.858-0.546-1.456-1.287-2.414-0.61c-0.902,0.638-1.174,1.929-0.801,3.069c-0.583-1.47-2.344-1.473-2.259,0.432
		c-0.095-1.662-1.517-1.416-2.094-0.315c-0.593,1.132-0.042,2.365,0.198,3.544c-0.532-0.434-1.037-0.793-1.245-0.83
		c-1.232-0.218-1.656,1.56-1.292,2.574c-1.997-1.629-3.267,1.233-1.495,2.943c-0.594,0.639-0.807,1.684-0.611,2.588
		c0.176,0.812,0.951,1.348,1.207,2.118c0.155,0.466,0.051,0.752,0.364,1.258c0.263,0.426,0.728,0.686,1.034,1.071
		c-0.49-0.616-1.49,0.185-1.831,0.669c-0.789,1.121,0.06,2.111,0.173,3.293c-0.087-0.901-2.142,0.764-2.322,1.16
		c-0.645,1.417-0.182,2.48,0.377,3.736c-2.389-0.174-3.123,3.743-0.359,4.072c-0.745,2.624,1.322,5.181,3.46,3.71
		c0.019,1.018-0.066,2.419,0.703,3.066c0.76,0.64,1.739,0.41,1.839-0.863c0.269,1.21,0.941,2.374,1.742,3.185
		c-0.848-0.858-1.696,0.948-1.688,1.711c0.007,0.702,0.195,1.88,0.347,2.582c0.213,0.983,0.836,1.521,0.774,2.598
		c-0.056,0.973-0.596,1.623-0.089,2.603c0.786,1.518,1.476,0.917,2.494,0.238c-0.032,0.452,0.224,0.805,0.237,1.241
		c0.401,0.108,0.734,0.073,1.02-0.056c0.547,0.243,1.272,0.011,2.202-0.916c0.033,1.33-0.526,5.063,1.621,2.814
		c-0.148,1.177,0.244,3.607,1.247,4.201c1.357,0.804,2.239-1.786,2.199-3.185c0.833,2.552,3.415,3.796,3.227-0.216
		c0.592,0.448,1.072,1.161,1.737,1.63c0.675-0.678,0.878-1.58,0.742-2.646c0.965,0.936,1.975-0.129,1.993-1.377
		C481.503,313.28,480.298,312.161,479.573,311.547z"/>
	<path fill="#FFFFFF" d="M468.656,304.44c0.789,1.438,1.955,1.8,3.119,0.853c0.46,0.914,1.287,2.607,2.335,2.591
		c0.733-0.011,1.975-1.488,1.967-2.315c0.588,1.347,1.649,1.287,2.133-0.065c0.505-1.41-0.478-2.63-1.272-3.434
		c-1.185,1.982-1.656,2.974-3.507,1.264c-1.014-0.938-0.727-0.799-1.795-0.595c-1.027,0.197-1.155,0.822-2.074-0.216
		c-0.549-0.621-0.524-1.697-1.255-1.623c-0.676,0.069-1.175,1.399-1.746,1.786c-0.699,0.473-2.261,0.092-2.49,1.235
		C463.403,307.252,467.904,305.077,468.656,304.44z"/>
	<path fill="#C9CACA" d="M460.992,293.614c-2.06,0.975,2.907,6.185,3.214,1.793c0.304,1.708,1.733,2.163,2.39,0.389
		c0.949,1.024,1.691,0.583,1.967-0.822c1.071,1.886,2.259-1.38,1.083-2.208c-0.379,1.237-2.128,2.083-2.965,1.139
		c-0.817,2.07-1.679,0.891-2.606-0.048c-0.988,1.824-1.537-0.421-1.52-1.512c-0.012,0.796-1.682-0.616-1.776-0.735
		c-0.49-0.612-0.362-2.157-1.287-1.36C458.164,291.392,459.7,293.839,460.992,293.614z"/>
	<path fill="#A6A6A7" d="M381.526,279.605c-1.67,1.489,0.676,4.89,1.698,2.852c-0.349,0.69-0.066,1.949,0.698,2.103
		c0.782,0.158,1.429-1.264,1.664-1.946c0.761,1.73,3.15,0.997,2.283-0.601c0.821,2.284,2.362-0.019,1.588-1.787
		c-0.074,0.095-0.078,0.269-0.161,0.391c-2.143,0.17-2.219,2.143-4.065,0.052c-2.174,4.114-2.339-4.634-2.729-5.065
		C379.352,272.122,378.947,281.906,381.526,279.605z"/>
	<path fill="#A6A6A7" d="M389.461,299.643c0.046-0.297,0.21-0.556,0.261-0.829c0.237,0.294,0.822,0.726,1.012,1.045
		c-0.161-1.664,1.149-3.629,2.502-2.38c0.38-0.949,1.764-1.814,2.186-0.669c-1.593,0.866-2.676,2.704-3.068,4.767
		c-0.485-0.066-1.008-0.297-1.413-0.615c-0.77,1.114-0.306,1.742-1.296,1.992c-0.563,0.142-1.419-0.411-2.091-0.302
		c0.779-0.126-1.871-2.852-1.87-2.841C385.508,297.457,388.918,298.128,389.461,299.643z"/>
	<g>
		<path fill="#040000" d="M464.042,295.329c0.328,0.023,0.766-0.133,1.168-0.818c0.289,0.447,0.72,0.648,1.12,0.617
			c0.626-0.048,1.297-0.619,1.365-1.616c0.014-0.207-0.114-0.388-0.286-0.405c-0.172-0.017-0.323,0.137-0.337,0.343
			c-0.041,0.599-0.434,0.902-0.781,0.928c-0.144,0.011-0.623-0.01-0.753-0.741c-0.028-0.159-0.138-0.278-0.273-0.295
			c-0.135-0.017-0.263,0.072-0.319,0.22c-0.252,0.677-0.56,1.038-0.867,1.016c-0.348-0.024-0.686-0.506-0.798-0.938
			c-0.025-0.097-0.043-0.205-0.043-0.305c0-0.064,0.032-0.103,0.049-0.155c0.045-0.089,0.094-0.169,0.133-0.272
			c0.019-0.05,0.027-0.103,0.027-0.154c0-0.113-0.042-0.223-0.12-0.296c-0.114-0.107-0.273-0.107-0.386,0
			c-0.041,0.038-0.059,0.097-0.092,0.143c0-0.001,0-0.001,0-0.002c-0.001,0.002-0.002,0.003-0.002,0.005
			c-0.071,0.099-0.131,0.205-0.167,0.332c-0.229,0.342-0.484,0.318-0.672,0.254c-0.697-0.24-1.54-1.558-1.54-2.638
			c0-0.072,0.004-0.143,0.012-0.212c0.097-0.87,0.828-1.122,1.498-1.168c0.064,0.002,0.127,0,0.193-0.01c0.002,0,0.004,0,0.005,0
			c-0.001,0-0.002,0-0.003,0c0.018-0.003,0.035-0.002,0.053-0.006c0.151-0.031,0.259-0.189,0.259-0.37c0-0.012,0-0.023-0.001-0.035
			c-0.015-0.195-0.152-0.343-0.315-0.341c-0.065,0.001-0.115,0.013-0.176,0.016c-0.251-0.004-0.382-0.189-0.429-0.279
			c-0.049-0.093-0.075-0.199-0.075-0.289c0-0.058,0.011-0.11,0.033-0.147c0.056-0.095,0.214-0.116,0.423-0.058
			c-0.002-0.001-0.003-0.003-0.005-0.004c0.012,0.002,0.022,0.008,0.034,0.01c0.166,0.027,0.32-0.108,0.35-0.305
			c0.004-0.023,0.005-0.046,0.005-0.068c0-0.171-0.098-0.325-0.243-0.366c-0.022-0.006-0.039-0.004-0.06-0.009
			c0.011,0,0.021,0.001,0.032,0.003c-0.455-0.073-0.748-0.322-0.847-0.719c-0.097-0.389,0.016-0.848,0.275-1.116
			c0.17-0.177,0.467-0.335,0.916-0.085c0.157,0.087,0.343,0.005,0.416-0.183c0.073-0.188,0.004-0.412-0.153-0.499
			c-0.579-0.322-1.158-0.249-1.589,0.199c-0.336,0.35-0.525,0.871-0.525,1.395c0,0.17,0.02,0.34,0.061,0.504
			c0.08,0.321,0.238,0.587,0.45,0.796c-0.017,0.024-0.038,0.05-0.05,0.069c-0.098,0.166-0.147,0.371-0.147,0.585
			c0,0.231,0.057,0.472,0.17,0.687c0.012,0.023,0.034,0.031,0.047,0.053c-0.916,0.355-1.164,1.128-1.222,1.639
			c-0.011,0.097-0.016,0.196-0.016,0.297c0,1.358,0.952,3.019,1.993,3.376c0.31,0.106,0.593,0.074,0.847-0.059
			c0.001,0.004,0.001,0.008,0.002,0.011C462.863,294.558,463.388,295.283,464.042,295.329z"/>
		<path fill="#040000" d="M463.294,277.264c0.143,0.116,0.338,0.071,0.435-0.1c0.097-0.172,0.06-0.406-0.084-0.522
			c-0.215-0.175-0.212-0.451-0.171-0.652c0.085-0.417,0.393-0.802,0.674-0.842c0.291-0.041,0.502,0.301,0.628,0.595
			c-0.004-0.008-0.002-0.017-0.005-0.026c0.018,0.03,0.024,0.067,0.044,0.096c0.102,0.147,0.28,0.178,0.413,0.072
			c0.09-0.072,0.14-0.191,0.14-0.313c0-0.058-0.011-0.117-0.035-0.171c-0.012-0.029-0.026-0.043-0.039-0.07c0,0,0,0,0,0
			c-0.471-0.676-0.195-1.823,0.213-2.237c0.095-0.096,0.384-0.389,0.789,0.182c0.099,0.14,0.27,0.173,0.401,0.077
			c0.132-0.096,0.186-0.292,0.128-0.463c-0.17-0.501,0.012-1.153,0.28-1.338c0.158-0.108,0.337-0.006,0.533,0.304
			c0.061,0.096,0.155,0.152,0.255,0.149c0.1-0.002,0.192-0.061,0.25-0.159l0.127-0.218c0.257-0.445,0.644-1.118,0.945-1.108
			c0.161,0.005,0.361,0.225,0.563,0.62c0.091,0.177,0.283,0.232,0.431,0.123c0.147-0.109,0.193-0.34,0.103-0.517
			c-0.33-0.645-0.683-0.964-1.08-0.977c-0.59-0.019-1.027,0.663-1.385,1.277c-0.478-0.459-0.912-0.242-1.052-0.146
			c-0.373,0.256-0.602,0.8-0.645,1.375c-0.395-0.16-0.773-0.032-1.046,0.244c-0.411,0.416-0.676,1.166-0.678,1.909
			c-0.134-0.036-0.257-0.039-0.351-0.026c-0.541,0.077-1.061,0.683-1.208,1.41C462.746,276.405,462.905,276.949,463.294,277.264z
			 M466.222,273.028c0.003,0.013,0.004,0.027,0.006,0.04c-0.001-0.013-0.006-0.026-0.006-0.038
			C466.221,273.03,466.222,273.029,466.222,273.028z"/>
		<path fill="#040000" d="M468.327,281.772c-0.03,0.204,0.084,0.399,0.255,0.435c0.17,0.036,0.333-0.101,0.362-0.305
			c0.122-0.842,0.613-1.138,1.046-1.057c0.4,0.074,0.766,0.493,0.68,1.261c-0.023,0.205,0.096,0.393,0.266,0.422
			c0.171,0.029,0.328-0.113,0.354-0.317c0.066-0.541,0.364-0.803,0.63-0.824c0.3-0.023,0.543,0.232,0.649,0.683
			c0.045,0.193,0.209,0.309,0.372,0.264c0.163-0.045,0.268-0.236,0.237-0.434c-0.108-0.704,0.176-1.078,0.477-1.193
			c0.349-0.134,0.849,0.037,1.115,0.725c0.073,0.188,0.259,0.27,0.416,0.182c0.157-0.088,0.225-0.311,0.152-0.499
			c-0.427-1.101-1.27-1.354-1.873-1.124c-0.346,0.132-0.656,0.457-0.818,0.931c-0.219-0.197-0.481-0.307-0.767-0.285
			c-0.259,0.02-0.532,0.147-0.755,0.39c-0.219-0.511-0.609-0.846-1.038-0.925C469.352,279.965,468.512,280.495,468.327,281.772z"/>
		<path fill="#040000" d="M382.188,275.173c-0.2,0.249-0.364,0.545-0.455,0.901c-0.062,0.239-0.091,0.483-0.091,0.722
			c0,0.573,0.171,1.115,0.484,1.467c0.121,0.135,0.318,0.297,0.594,0.38c-0.141,0.265-0.229,0.562-0.229,0.901
			c0,0.094,0.006,0.191,0.017,0.29c0.11,0.952,0.76,1.871,1.36,1.966c0.137,0.485,0.497,0.952,0.961,1.188
			c0.725,0.369,1.517,0.113,2.172-0.705c0.12-0.15,0.116-0.387-0.008-0.531c-0.125-0.144-0.323-0.139-0.443,0.01
			c-0.605,0.755-1.137,0.707-1.476,0.534c-0.327-0.167-0.539-0.487-0.612-0.732c0.11-0.137,0.197-0.319,0.246-0.552
			c0.006-0.03,0.009-0.061,0.009-0.092c0-0.104-0.036-0.204-0.101-0.276c-0.084-0.093-0.204-0.124-0.313-0.079
			c-0.203,0.083-0.327,0.263-0.408,0.474c-0.267-0.096-0.692-0.667-0.767-1.308c-0.007-0.062-0.011-0.123-0.011-0.181
			c0-0.485,0.249-0.833,0.742-1.035c-0.002,0.001-0.004,0-0.006,0.001c0.006-0.003,0.011-0.003,0.016-0.006
			c0.125-0.057,0.201-0.2,0.201-0.351c0-0.043-0.006-0.086-0.019-0.128c-0.058-0.193-0.234-0.294-0.396-0.227
			c-0.005,0.002-0.009,0.006-0.015,0.008c0.002-0.001,0.002-0.003,0.004-0.004c-0.326,0.15-0.781,0.255-1.091-0.094
			c-0.269-0.302-0.36-0.885-0.223-1.419c0.07-0.271,0.307-0.915,1-1.042c-0.012,0.002-0.023,0.003-0.034,0.003
			c0.015-0.003,0.028-0.002,0.043-0.005c0.151-0.033,0.257-0.191,0.257-0.369c0-0.02-0.001-0.041-0.004-0.062
			c-0.028-0.203-0.187-0.34-0.356-0.309c-0.004,0.001-0.008,0.003-0.012,0.004c0.001,0,0.002-0.002,0.004-0.003
			c-0.642,0.139-1.107-0.042-1.308-0.509c-0.237-0.552-0.083-1.384,0.351-1.892c0.287-0.336,0.93-0.795,2.006-0.089
			c0.152,0.099,0.342,0.032,0.425-0.15c0.083-0.182,0.027-0.41-0.125-0.51c-1.483-0.973-2.412-0.177-2.743,0.211
			c-0.42,0.491-0.65,1.184-0.65,1.841c0,0.33,0.058,0.651,0.179,0.933C381.537,274.755,381.827,275.024,382.188,275.173z"/>
		<path fill="#040000" d="M387.47,276.814c0.109,0.161,0.306,0.185,0.44,0.055c0.076-0.074,0.116-0.182,0.116-0.292
			c0-0.083-0.023-0.167-0.07-0.237c0,0-0.079-0.117-0.082-0.121c0.173-0.317,0.39-0.529,0.662-0.551
			c0.346-0.029,0.718,0.205,0.927,0.582c0.057,0.103,0.112,0.272,0.14,0.471c-0.094,0.217-0.15,0.46-0.15,0.727
			c0,0.089,0.005,0.181,0.017,0.274c0.019,0.162,0.124,0.291,0.259,0.317c0.135,0.027,0.268-0.054,0.33-0.201
			c0.126-0.298,0.188-0.608,0.192-0.912c0.046-0.059,0.091-0.124,0.139-0.16c0.247-0.181,0.581-0.191,0.777-0.023
			c0.147,0.125,0.194,0.339,0.141,0.637c-0.032,0.181,0.05,0.363,0.194,0.429c0.144,0.066,0.307-0.003,0.384-0.164
			c0.261-0.548,0.63-0.799,1.013-0.689c0.357,0.103,0.731,0.554,0.762,1.329c0.008,0.207,0.155,0.367,0.328,0.357
			c0.173-0.01,0.306-0.186,0.298-0.393c-0.04-1.008-0.539-1.821-1.241-2.023c-0.425-0.123-0.844,0.019-1.198,0.352
			c-0.072-0.176-0.178-0.328-0.317-0.447c-0.393-0.334-0.978-0.338-1.436-0.02c-0.035-0.092-0.06-0.188-0.108-0.275
			c-0.334-0.605-0.919-0.964-1.492-0.917c-0.558,0.047-1.018,0.456-1.295,1.152c-0.052,0.131-0.037,0.286,0.039,0.399
			L387.47,276.814z"/>
		<path fill="#040000" d="M375.939,290.259c0.159-0.081,0.234-0.301,0.167-0.492c-0.338-0.965,0.163-1.742,0.325-1.958
			c0.313-0.416,0.666-0.565,0.853-0.496c0.168,0.061,0.233,0.322,0.258,0.529c0.022,0.188,0.158,0.326,0.316,0.322
			c0.158-0.004,0.289-0.149,0.305-0.338c0.057-0.673,0.33-1.194,0.679-1.297c0.308-0.09,0.655,0.17,0.954,0.714
			c0.081,0.148,0.238,0.208,0.376,0.143c0.121-0.057,0.199-0.197,0.199-0.35c0-0.02-0.001-0.041-0.004-0.062
			c-0.008-0.057-0.012-0.111-0.012-0.162c0-0.573,0.49-0.813,1.462-1.076c0,0,0.053-0.015,0.088-0.025
			c0.09,0.149,0.191,0.269,0.275,0.348l0.1,0.103c0.127,0.131,0.373,0.198,0.487,0.052c0.114-0.147,0.167-0.295,0.05-0.438
			l-0.251-0.308c-0.111-0.104-0.18-0.173-0.201-0.275c-0.041-0.2-0.214-0.322-0.381-0.275l-0.305,0.086
			c-0.608,0.165-1.516,0.422-1.831,1.196c-0.36-0.362-0.759-0.517-1.155-0.4c-0.398,0.117-0.714,0.495-0.921,1.007
			c-0.109-0.109-0.22-0.182-0.307-0.214c-0.46-0.168-1.049,0.111-1.5,0.712c-0.462,0.615-0.82,1.661-0.437,2.752
			C375.596,290.249,375.78,290.339,375.939,290.259z"/>
		<path fill="#040000" d="M384.846,291.141c-0.397,0.342-0.601,0.847-0.576,1.421c0.009,0.207,0.157,0.366,0.329,0.355
			c0.173-0.011,0.305-0.188,0.296-0.395c-0.018-0.397,0.162-0.637,0.316-0.77c0.3-0.259,0.755-0.322,1.106-0.154
			c0.533,0.255,0.639,0.617,0.639,1.307c0,0.157-0.005,0.33-0.012,0.523c0,0-0.007,0.2-0.009,0.278c0,0.014-0.002,0.025-0.002,0.039
			c0,0.011,0,0.022,0,0.032c0.001,0.204,0.138,0.368,0.308,0.372c0.17,0.003,0.311-0.158,0.318-0.362c0,0,0.002-0.054,0.003-0.089
			c0.008-0.726,0.173-1.181,0.451-1.214c0.361-0.043,0.991,0.553,1.157,1.583c0.025,0.154,0.127,0.274,0.257,0.3
			c0.129,0.025,0.258-0.049,0.323-0.186c0.385-0.815,1.082-1.729,1.617-1.819c0.275-0.046,0.888,0.225,1.328,0.688
			c0.253,0.267,0.343,0.493,0.342,0.616c-0.002,0.207,0.137,0.377,0.31,0.379c0.173,0.002,0.314-0.165,0.316-0.372
			c0.003-0.391-0.189-0.802-0.555-1.187c-0.467-0.491-1.266-0.962-1.828-0.867c-0.663,0.111-1.292,0.859-1.716,1.54
			c-0.35-0.884-0.993-1.495-1.613-1.421c-0.123,0.015-0.311,0.073-0.492,0.24c-0.126-0.436-0.374-0.821-0.909-1.077
			C385.993,290.634,385.325,290.729,384.846,291.141z"/>
		<path fill="#040000" d="M382.967,268.854c0.163-0.07,0.247-0.285,0.189-0.481c-0.051-0.169-0.116-0.475,0.021-0.617
			c0.128-0.133,0.443-0.16,0.777,0.052c0.218,0.139,0.715,0.565,0.62,1.53c-0.016,0.167,0.062,0.327,0.192,0.392
			c0.13,0.064,0.28,0.016,0.366-0.117c0.146-0.225,0.273-0.236,0.357-0.226c0.345,0.045,0.798,0.632,1.003,1.152
			c0.074,0.188,0.261,0.267,0.417,0.178c0.156-0.089,0.223-0.313,0.149-0.501c-0.231-0.585-0.822-1.487-1.501-1.576
			c-0.111-0.015-0.247-0.002-0.389,0.052c-0.096-0.665-0.41-1.223-0.921-1.548c-0.534-0.339-1.129-0.321-1.48,0.044
			c-0.179,0.187-0.444,0.622-0.199,1.439C382.625,268.823,382.804,268.924,382.967,268.854z"/>
		<path fill="#040000" d="M393.258,297.812c-0.371-0.11-0.748-0.029-1.091,0.298c-0.494,0.471-0.837,1.345-0.952,2.174
			c-0.452-0.059-0.967,0.285-1.357,0.647c-0.141-0.692-0.493-1.253-0.912-1.339c-0.15-0.031-0.369-0.011-0.584,0.204
			c-0.13-0.368-0.338-0.682-0.635-0.894c-0.508-0.363-1.142-0.365-1.542-0.005c-0.346,0.311-0.469,0.836-0.339,1.44
			c0.043,0.201,0.214,0.321,0.382,0.27c0.167-0.052,0.268-0.257,0.224-0.458c-0.066-0.308-0.03-0.526,0.108-0.651
			c0.196-0.176,0.559-0.155,0.846,0.049c0.214,0.153,0.559,0.53,0.46,1.339c-0.024,0.196,0.082,0.38,0.244,0.422
			c0.161,0.042,0.322-0.073,0.367-0.263c0.131-0.546,0.293-0.726,0.365-0.712c0.182,0.037,0.493,0.614,0.459,1.339
			c-0.008,0.161,0.071,0.31,0.196,0.37s0.268,0.018,0.355-0.104c0.364-0.51,1.082-1.001,1.328-0.913
			c0.016,0.259,0.055,0.501,0.14,0.697c0.065,0.149,0.206,0.229,0.343,0.193c0.138-0.035,0.239-0.177,0.247-0.346
			c0.002-0.051,0.004-0.101,0.004-0.149c0-0.29-0.05-0.494-0.118-0.657c0.019-0.693,0.305-1.628,0.763-2.065
			c0.304-0.29,0.597-0.27,0.921,0.063c0.119,0.122,0.295,0.121,0.412-0.004c0.117-0.124,0.139-0.334,0.052-0.49
			c-0.182-0.327-0.028-0.597,0.08-0.729c0.206-0.253,0.585-0.399,0.88-0.172c0.146,0.112,0.339,0.061,0.432-0.114
			c0.093-0.175,0.051-0.407-0.095-0.519c-0.58-0.445-1.277-0.197-1.665,0.278C393.381,297.247,393.287,297.527,393.258,297.812z"/>
		<path fill="#040000" d="M480.148,311.152c0.528-0.548,1.023-1.844,1.031-2.409c0-0.011,0-0.023,0-0.034
			c0-0.84-0.434-1.959-1.018-2.619c-0.222-0.251-0.457-0.397-0.695-0.492c0.069-0.143,0.142-0.293,0.142-0.293
			c0.309-0.578,0.676-1.266,0.676-1.899c0-0.181-0.03-0.356-0.1-0.524c-0.195-0.47-0.665-0.743-1.406-0.849
			c-0.05-0.116-0.116-0.248-0.2-0.411c0,0-0.205-0.431-0.225-0.473c-0.001-0.038-0.005-0.075-0.017-0.111
			c-0.051-0.171-0.119-0.274-0.189-0.334c0.26-0.691,0.426-1.498,0.426-2.247c0-0.477-0.066-0.929-0.214-1.309
			c-0.096-0.246-0.277-0.544-0.566-0.77c0.513-0.635,0.846-1.582,0.846-2.46c0-0.213-0.019-0.421-0.058-0.617
			c-0.086-0.425-0.265-0.769-0.518-1.027c0.623-0.315,1.077-0.892,1.29-1.723c0.1-0.391,0.146-0.808,0.146-1.231
			c0-1.611-0.659-3.317-1.467-4.071c-0.143-0.134-0.291-0.227-0.439-0.302c0.439-0.623,0.67-1.502,0.67-2.359
			c0-0.284-0.025-0.565-0.076-0.833c-0.101-0.531-0.303-0.946-0.563-1.258c0.316-0.162,0.561-0.427,0.609-0.865
			c0.001-0.011,0.002-0.022,0.002-0.034c0-0.049-0.009-0.106-0.019-0.147l-0.152-0.592c-0.146-0.576-0.25-0.981-0.333-1.281
			c0.91-0.072,1.262-0.772,1.37-1.116c0.072-0.231,0.106-0.48,0.106-0.727c0-0.62-0.214-1.231-0.577-1.526
			c-0.018-0.015-0.04-0.009-0.058-0.022c0.475-0.685,0.68-1.473,0.68-2.136c0-0.055-0.001-0.108-0.004-0.161
			c-0.038-0.83-0.36-1.486-0.861-1.755c-0.108-0.058-0.264-0.108-0.452-0.119c0.241-0.484,0.375-1.011,0.375-1.53
			c0-0.128-0.008-0.256-0.024-0.383c-0.102-0.789-0.53-1.39-1.143-1.608c-0.054-0.019-0.147-0.007-0.201,0.009
			c0,0-0.055,0.016-0.108,0.032c0.044-0.286,0.068-0.57,0.068-0.848c0-1.539-0.663-2.921-1.863-3.712
			c-0.126-0.082-0.282-0.052-0.38,0.073l-0.11,0.14c-0.272,0.347-0.542,0.706-0.751,1.117c-0.432-1.355-1.303-2.808-2.5-3.035
			c-0.689-0.13-1.416,0.359-1.851,1.245c-0.194,0.396-0.29,0.806-0.3,1.192c-0.694-0.437-1.414-0.499-2.059-0.13
			c-0.78,0.446-1.279,1.462-1.403,2.678c-0.589-0.543-1.168-0.728-1.642-0.495c-0.223,0.11-0.465,0.344-0.64,0.797
			c-0.072-0.136-0.157-0.259-0.265-0.355c-0.223-0.198-0.497-0.267-0.814-0.204c-0.032,0.006-0.063,0.019-0.092,0.036
			c-0.256,0.158-0.469,0.408-0.643,0.7c-1.246-1.354-6.415-6.765-8.424-5.652c-0.783,0.433-1.614,1.276-2.494,2.168
			c-1.419,1.439-2.886,2.926-4.013,2.51c-0.796-0.294-1.868-1.688-3.003-3.164c-1.584-2.06-3.38-4.396-5.179-4.737
			c-2.744-0.52-5.452,5.772-6.225,7.733c-0.882-1.295-1.811-2.887-3.085-5.072l-1.91-3.259c-3.3-5.573-4.606-5.582-7.208-5.6
			c-0.804-0.006-1.716-0.012-2.868-0.19c-4.643-0.719-7.807,3.595-11.156,8.162l-0.857,1.164c-3.088,4.168-6.751,7.086-7.875,7.935
			c-0.027-0.916-0.401-1.691-1.081-2.187c-0.695-0.506-1.583-0.492-2.436,0.038c-0.565,0.351-1.018,0.876-1.338,1.474
			c-0.242-0.324-0.562-0.582-0.906-0.646c-0.131-0.025-0.36-0.015-0.603,0.125c-0.03-0.549-0.128-1.129-0.322-1.607
			c-0.244-0.602-0.583-0.981-0.98-1.095c-0.375-0.108-0.795,0.016-1.212,0.358c-0.368,0.301-0.701,0.758-0.948,1.235
			c-0.212-0.646-0.554-1.295-1.032-1.439c-0.147-0.044-0.337-0.04-0.546,0.076c-0.109-0.815-0.549-1.26-0.995-1.377
			c-0.384-0.101-0.813,0.02-1.189,0.313c0-0.005,0.001-0.011,0.001-0.016c0-0.946-0.276-1.735-0.81-2.236
			c-0.574-0.538-1.324-0.595-1.912-0.145c-0.308,0.236-0.907,0.888-0.907,2.385c0,0.152,0.013,0.323,0.026,0.493
			c-0.29-0.11-0.561-0.054-0.765,0.091c-0.314,0.223-0.496,0.643-0.535,1.115c-0.716-0.385-1.411-0.06-1.883,0.471
			c-0.499,0.562-0.835,1.443-0.835,2.27c0,0.176,0.034,0.344,0.066,0.511c-0.568-0.18-1.155-0.297-1.587,0.067
			c-0.286,0.24-0.447,0.648-0.479,1.211c-0.002,0.036-0.003,0.072-0.003,0.108c0,0.79,0.483,1.615,1.076,2.143
			c-0.243,0.148-0.45,0.37-0.613,0.661c-0.234,0.42-0.351,0.956-0.351,1.506c0,0.124,0.028,0.247,0.04,0.372
			c-0.826-0.744-1.854-1.47-2.761-1.218c-0.544,0.152-0.969,0.627-1.263,1.412c-0.436,1.166-0.015,3.147,0.903,4.24
			c0.196,0.233,0.404,0.405,0.617,0.527c-0.006,0.008-0.012,0.014-0.018,0.022c-0.28,0.383-0.424,0.882-0.424,1.406
			c0,0.357,0.067,0.726,0.204,1.076c0.142,0.362,0.348,0.649,0.587,0.869c-0.611,0.344-1.192,0.92-1.26,1.519
			c-0.004,0.038-0.007,0.079-0.007,0.123c0,0.108,0.03,0.232,0.081,0.358c-0.675,0.094-1.428,0.33-1.58,0.925
			c-0.019,0.074-0.028,0.148-0.028,0.219c0,0.226,0.098,0.428,0.218,0.615c-0.876-0.056-1.965-0.125-2.515,0.805
			c-0.238,0.403-0.316,0.767-0.316,1.07c0,0.202,0.034,0.377,0.079,0.518c0.187,0.595,0.66,1.015,1.126,1.3
			c-0.143,0.113-0.286,0.227-0.395,0.405c-0.232,0.378-0.35,0.858-0.35,1.34c0,0.414,0.087,0.829,0.264,1.179
			c0.163,0.323,0.388,0.569,0.661,0.735c-0.107,0.124-0.201,0.256-0.27,0.391c-0.143,0.281-0.215,0.58-0.215,0.863
			c0,0.25,0.056,0.486,0.169,0.686c0.116,0.204,0.382,0.483,0.891,0.538c-0.031,0.119-0.066,0.24-0.066,0.351
			c0,0.236,0.065,0.447,0.171,0.609c0.2,0.305,0.516,0.423,0.844,0.349c-0.026,0.273-0.046,0.546-0.065,0.813
			c-0.059,0.842-0.123,1.631-0.362,2.205c-0.381,0.131-0.763,0.156-1.134,0.165c-0.756,0.019-1.539,0.039-2.194,1.073
			c-0.513,0.809-0.656,1.553-0.782,2.21c-0.161,0.84-0.288,1.502-1.138,2.179l-1.065,0.746c-0.913,0.597-1.776,1.161-2.207,2.279
			c-0.415,1.075-0.856,3.049-0.856,4.631c0,0.38,0.025,0.737,0.083,1.053c0.037,0.203,0.204,0.332,0.372,0.287
			c0.044-0.011,0.083-0.035,0.118-0.065c1.021,0.914,3.224,0.783,4.914,0.68l1.337-0.043c1.12,0.071,1.933,0.162,2.982,0.762
			c0.915,0.524,1.467,0.84,2.648,0.74c0.686-0.057,1.336-0.191,1.964-0.321c1.301-0.268,2.529-0.521,3.893-0.062
			c0.538,0.181,1.015,0.406,1.476,0.623c0.685,0.323,1.339,0.629,2.119,0.767c-0.856,1.11-1.629,2.281-1.438,3.234
			c0.097,0.482,0.416,0.839,0.947,1.061c0.095,0.04,0.192,0.016,0.27-0.045c0.036-0.002,0.073-0.008,0.108-0.025
			c0.721-0.357,1.446-0.099,2.213,0.174c0.255,0.091,0.513,0.179,0.774,0.249c-0.979,0.583-1.865,1.353-2.544,2.157
			c-0.963,1.141-1.501,2.37-2.071,3.671l-0.674,1.481c-0.558,1.144-1.162,1.134-2.163,1.119c-0.38-0.005-0.81-0.012-1.288,0.049
			c-1.16,0.149-2.749,0.354-3.451,2.037c-0.155,0.372-0.238,0.71-0.311,1.01c-0.101,0.411-0.187,0.766-0.438,1.148
			c-0.122,0.186-0.279,0.308-0.444,0.436c-0.352,0.273-0.79,0.613-0.676,1.576c0.024,0.205,0.183,0.348,0.354,0.319
			c0.018-0.003,0.033-0.015,0.05-0.022c0.979,0.905,3.409,0.826,5.866,0.648l1.044-0.06c2.628,0,4.668,0.66,7.031,1.424l1.417,0.452
			c2.385,0.741,5.157-0.262,7.181-0.994l0.927-0.362c0.68-0.275,1.321-0.535,2.004-0.671c0.392-0.078,0.84-0.029,1.274,0.018
			c0.416,0.045,0.842,0.089,1.233,0.024c-0.009,0.057-0.019,0.115-0.035,0.169c-0.059,0.195,0.026,0.41,0.187,0.481
			c0.163,0.071,0.342-0.03,0.401-0.225c0.488-1.614-1.062-3.904-1.996-4.628c-0.358-0.278-0.806-0.427-1.239-0.572
			c-0.434-0.145-0.843-0.281-1.101-0.521c-0.43-0.401-0.554-1.141-0.674-1.857l-0.193-0.953c-0.674-2.414-1.573-5.122-3.134-6.9
			c-0.202-0.23-0.414-0.427-0.632-0.6c0.292-0.028,0.628,0.015,0.957,0.057l0.965,0.064l1.657-0.092l1.79-0.101l1.52-0.167
			c1.109-0.144,2.164-0.281,3.254-0.064c-0.121,0.155-0.241,0.313-0.358,0.471c-0.4,0.538-0.777,1.046-1.255,1.385l-0.812,0.465
			c-0.868,0.455-1.852,0.971-2.143,1.947c-0.053,0.179-0.08,0.366-0.08,0.559c0,0.327,0.077,0.672,0.23,1.031
			c0.725,1.698,2.345,1.996,3.544,1.555c0.33-0.121,0.633-0.298,0.925-0.469c0.397-0.232,0.772-0.451,1.178-0.511
			c0.361-0.054,0.932,0.023,1.437,0.092l0.809,0.092c0.809,0.052,1.635,0.166,2.434,0.275c1.023,0.141,2.081,0.287,3.111,0.302
			l0.681-0.03c0.437-0.032,0.889-0.065,1.248,0.042c0.153,0.046,0.297,0.175,0.464,0.324c0.347,0.311,0.823,0.737,1.589,0.402
			c0.674-0.295,1.077-0.855,1.136-1.579c0.091-1.121-0.635-2.289-1.364-2.819c-0.769-0.559-1.548-0.6-2.301-0.641
			c-0.452-0.024-0.92-0.049-1.377-0.191c-0.613-0.19-1.057-0.738-1.527-1.319c-0.365-0.451-0.743-0.918-1.222-1.237l-0.197-0.132
			c-0.38-0.255-0.79-0.53-1.22-0.776c0.591-1.069-0.232-3.83-1.156-6.472l-0.065-0.185c-0.099-0.284-0.217-0.556-0.349-0.821
			c0.385-0.023,0.806-0.148,1.244-0.282l1.009-0.258c0.63-0.095,1.217-0.106,1.838-0.118c0.556-0.01,1.13-0.021,1.732-0.098
			c0.145-0.018,0.26-0.154,0.278-0.327c0.007-0.062,0.009-0.124,0.009-0.187c0-0.786-0.48-1.633-0.872-2.325l-0.284-0.516
			c-0.258-0.508-0.436-1.037-0.607-1.548l-0.475-1.261c-0.401-0.861-0.93-1.434-1.442-1.988c-0.155-0.167-0.306-0.333-0.453-0.503
			c1.454,0.06,3.306-0.319,4.558-0.956c0.108-0.055,0.181-0.178,0.19-0.318c0.077-1.224-0.385-2.462-0.792-3.556l-0.261-0.717
			c-0.307-0.88-0.705-1.35-1.091-1.806c-0.134-0.158-0.264-0.313-0.388-0.482c4.926,0.16,19.582,0.509,20.27-0.985
			c0.079-0.173,0.071-0.377-0.024-0.547c-0.146-0.263-1.789-2.68-3.613-5.347c1.141,0.099,3.217,0.177,3.784-0.486
			c0.43-0.503,0.489-1.151,0.542-1.723c0.053-0.582,0.099-1.085,0.479-1.461c0.289-0.286,1.1-0.387,1.692-0.46l0.945-0.162
			c0.538-0.165,0.998-0.368,1.378-0.545c0.086-0.04,0.147-0.122,0.177-0.219c9.758,3.187,17.19,11.663,19.169,14.096
			c-0.362,0.493-0.734,0.983-1.138,1.468c-0.822,0.987-1.445,1.78-1.969,2.994c-0.592,1.368-0.512,2.111-0.4,3.141l0.091,1.013
			c0.086,1.431-0.433,3.216-1.387,4.774c-0.218,0.356-0.517,0.708-0.832,1.08c-0.654,0.771-1.33,1.568-1.504,2.625
			c-0.23,1.396,0.422,2.774,0.997,3.99l0.41,0.903l0.978,2.524l0.769,2.006c0.066,0.172,0.226,0.254,0.376,0.196l0.136-0.052
			c1.212-0.461,2.172-0.724,2.594,0.428c0.2,0.545,0.117,1.064,0.029,1.615c-0.127,0.791-0.271,1.687,0.492,2.595
			c0.605,0.721,1.419,0.915,2.206,1.104c0.525,0.126,1.021,0.245,1.447,0.508c0.59,0.364,1.121,0.908,1.683,1.485
			c0.747,0.765,1.519,1.557,2.468,1.928c0.556,0.218,1.142,0.196,1.709,0.175c0.681-0.025,1.325-0.049,1.856,0.335
			c1.085,0.784,1.137,2.761,0.726,4.266c-0.092,0.335-0.337,0.818-0.598,1.329c-0.64,1.256-1.435,2.819-0.917,4.03
			c0.5,1.166,2.566,1,2.976,0.955c0.172-0.019,0.299-0.202,0.283-0.409c-0.016-0.206-0.168-0.359-0.341-0.34
			c-0.984,0.109-2.146-0.047-2.361-0.55c-0.358-0.836,0.336-2.199,0.894-3.295c0.292-0.573,0.544-1.068,0.658-1.487
			c0.486-1.78,0.381-4.147-0.998-5.144c-0.689-0.498-1.457-0.47-2.198-0.442c-0.537,0.02-1.044,0.038-1.496-0.138
			c-0.831-0.325-1.523-1.034-2.255-1.785c-0.565-0.579-1.149-1.177-1.804-1.582c-0.504-0.311-1.066-0.446-1.61-0.576
			c-0.729-0.175-1.417-0.34-1.888-0.901c-0.526-0.626-0.439-1.169-0.319-1.92c0.098-0.609,0.209-1.299-0.07-2.059
			c-0.657-1.791-2.164-1.288-3.226-0.886c-0.163-0.426-0.651-1.698-0.651-1.698l-0.988-2.549l-0.427-0.941
			c-0.455-0.961-0.962-2.034-0.962-3.036c0-0.147,0.011-0.293,0.034-0.437c0.137-0.829,0.742-1.544,1.329-2.235
			c0.319-0.377,0.65-0.766,0.898-1.171c0.964-1.573,1.518-3.38,1.518-4.913c0-0.122-0.004-0.242-0.011-0.36l-0.095-1.056
			c-0.04-0.37-0.073-0.679-0.073-0.98c0-0.506,0.094-0.992,0.408-1.718c0.484-1.118,1.075-1.869,1.857-2.809
			c1.083-1.301,1.962-2.603,2.892-3.982l0.098-0.145c0.076,0.525,0.251,0.992,0.512,1.318c0.896,1.12,2.021,0.691,2.917,0.247
			c-0.007,0.095-0.036,0.201-0.036,0.293c0,1.006,0.381,1.796,0.813,2.255c0.521,0.555,1.171,0.735,1.696,0.47
			c0.173-0.088,0.408-0.289,0.597-0.657c0.192,0.786,0.397,1.581,0.84,2.198c-0.415,0.105-0.745,0.402-0.953,0.728
			c-0.217,0.338-0.329,0.729-0.329,1.092c0,0.239,0.049,0.467,0.148,0.66c0.091,0.177,0.275,0.409,0.61,0.526
			c-0.368,0.534-0.597,1.238-0.597,1.887c0,0.203,0.02,0.398,0.063,0.577c0.121,0.513,0.401,0.835,0.785,0.951
			c-0.176,0.428-0.269,0.964-0.269,1.491c0,0.385,0.044,0.758,0.128,1.061c0.577,2.079,1.637,1.66,2.489,1.323
			c0.114-0.045,0.236-0.073,0.353-0.115c-0.034,0.19-0.051,0.362-0.051,0.515c0,0.562,0.202,0.886,0.417,1.072
			c0.637,0.552,1.799,0.197,2.665-0.389c-0.057,0.41-0.116,0.855-0.116,1.267c0,0.468,0.076,0.889,0.315,1.153
			c0.6,0.661,1.338,0.201,1.876-0.135c0,0,0.087-0.047,0.153-0.084c0.03,0.229,0.059,0.458,0.059,0.458
			c0.142,1.383,0.356,3.472,1.55,3.45c0.727-0.014,1.089-0.853,1.408-1.595c0.105-0.243,0.212-0.486,0.323-0.683
			c0.005,0.022,0.023,0.091,0.023,0.091c0.175,0.775,0.374,1.655,1.571,1.643c1.281-0.012,1.884-1.434,2.194-2.458
			c0.26,0.32,0.606,0.681,0.884,0.729c0.951,0.165,1.115-0.494,1.223-0.931c0.057-0.227,0.11-0.442,0.251-0.61
			c0.178-0.211,0.304-0.24,0.48-0.281c0.229-0.053,0.514-0.118,0.814-0.561c0.202-0.298,0.285-0.67,0.285-1.077
			C481.349,313.448,480.687,312.022,480.148,311.152z M478.838,302.23c0.005,0.014,0.004,0.029,0.007,0.043
			c-0.003-0.017-0.009-0.036-0.013-0.053C478.833,302.224,478.837,302.226,478.838,302.23z M478.348,301.184
			c0,0.001,0,0.002,0,0.003c0,0.037-0.008,0.082-0.024,0.129C478.338,301.274,478.346,301.229,478.348,301.184z M478.239,302.358
			c0-0.036,0.007-0.078,0.02-0.122c-0.012,0.04-0.018,0.081-0.02,0.123V302.358z M438.378,257.602
			c1.585,0.3,3.302,2.534,4.817,4.504c1.246,1.62,2.321,3.019,3.279,3.373c1.454,0.537,3.054-1.085,4.602-2.654
			c0.846-0.858,1.646-1.669,2.352-2.06c1.325-0.734,5.473,3.03,7.852,5.648c-0.105,0.298-0.182,0.606-0.227,0.889
			c-0.057,0.356-0.073,0.698-0.053,1.01c-0.566-0.398-1.232-0.67-1.788-0.048c-0.167,0.186-0.353,0.51-0.353,1.034
			c0,0.065,0.003,0.133,0.009,0.204c0.047,0.549,0.271,1.127,0.519,1.596c-0.836-0.261-1.866-0.571-2.595,0.32
			c-0.384,0.469-0.496,0.937-0.496,1.324c0,0.154,0.018,0.296,0.043,0.419c0.108,0.524,0.41,0.962,0.765,1.302
			c-0.188,0.112-0.354,0.272-0.486,0.484c-0.129,0.207-0.212,0.446-0.254,0.692h-11.097c-0.045-0.093-0.12-0.164-0.215-0.183
			c-2.622-0.524-4.674-2.54-6.846-4.673c-0.829-0.814-1.687-1.657-2.573-2.401c-1.18-0.991-2.059-1.948-2.937-3.155
			C433.623,262.758,436.207,257.191,438.378,257.602z M457.619,284.648c-0.367,0.013-0.719,0.17-1.036,0.415v-5.481
			c0-0.345,0.234-0.626,0.522-0.626s0.522,0.281,0.522,0.626v2.504c0,0.027,0.008,0.05,0.013,0.075
			c-0.132,0.185-0.234,0.39-0.297,0.623c-0.046,0.173-0.07,0.352-0.07,0.538C457.272,283.728,457.395,284.171,457.619,284.648z
			 M455.728,289.624c-0.204,0.069-0.408,0.171-0.606,0.306v-10.347c0-0.76-0.515-1.377-1.148-1.377
			c-0.633,0-1.148,0.618-1.148,1.377v15.731c-0.3-0.353-0.642-0.743-1.027-1.165c0.021-0.051,0.036-0.106,0.036-0.167v-14.399
			c0-0.76-0.515-1.377-1.148-1.377c-0.633,0-1.147,0.618-1.147,1.377v12.247c-0.319-0.306-0.651-0.618-0.999-0.934
			c0.001-0.015,0.007-0.029,0.007-0.044v-11.269c0-0.76-0.515-1.377-1.148-1.377c-0.633,0-1.148,0.618-1.148,1.377v9.359
			c-0.322-0.258-0.652-0.514-0.991-0.77v-8.589c0-0.76-0.515-1.377-1.148-1.377s-1.148,0.618-1.148,1.377v6.97
			c-0.308-0.202-0.622-0.402-0.94-0.599l-0.051-6.375c0-0.756-0.515-1.374-1.147-1.374c-0.633,0-1.148,0.618-1.148,1.377v5.035
			c-0.327-0.171-0.656-0.338-0.991-0.5v-4.535c0-0.76-0.515-1.377-1.148-1.377c-0.633,0-1.148,0.618-1.148,1.377v3.524
			c-0.326-0.128-0.658-0.247-0.991-0.366v-3.159c0-0.76-0.515-1.377-1.148-1.377c-0.633,0-1.147,0.618-1.147,1.377v2.448
			c-0.328-0.088-0.657-0.174-0.991-0.25v-2.197c0-0.76-0.515-1.377-1.148-1.377c-0.633,0-1.148,0.618-1.148,1.377v1.774
			c-0.328-0.047-0.659-0.085-0.991-0.12v-1.654c0-0.76-0.515-1.377-1.148-1.377c-0.633,0-1.147,0.618-1.147,1.377v1.509
			c-0.052-0.001-0.102-0.006-0.154-0.006c-0.283-0.003-0.559,0.006-0.837,0.011v-1.513c0-0.76-0.515-1.377-1.148-1.377
			c-0.633,0-1.148,0.618-1.148,1.377v1.623c-0.349,0.031-0.693,0.07-1.034,0.111l0.043-1.723c0-0.771-0.515-1.389-1.148-1.389
			c-0.633,0-1.148,0.618-1.148,1.377v2.094c-0.334,0.066-0.665,0.133-0.991,0.208v-2.302c0-0.76-0.515-1.377-1.148-1.377
			c-0.633,0-1.147,0.618-1.147,1.377v2.924c-0.336,0.105-0.665,0.217-0.991,0.332v-3.255c0-0.76-0.515-1.377-1.148-1.377
			s-1.148,0.618-1.148,1.377v4.158c-0.337,0.148-0.667,0.299-0.991,0.455v-4.613c0-0.76-0.515-1.377-1.148-1.377
			c-0.633,0-1.148,0.618-1.148,1.377v5.82c-0.339,0.195-0.67,0.393-0.991,0.593v-6.414c0-0.76-0.515-1.377-1.148-1.377
			s-1.148,0.618-1.148,1.377v7.974c-0.343,0.253-0.675,0.505-0.991,0.755v-8.729c0-0.76-0.515-1.377-1.148-1.377
			c-0.633,0-1.148,0.618-1.148,1.377v10.711c-0.362,0.34-0.693,0.665-0.991,0.969v-11.681c0-0.76-0.515-1.377-1.148-1.377
			s-1.148,0.618-1.148,1.377v5.921c-0.284-0.554-0.67-0.879-1.062-1.001l0.018-0.645c0.025-0.435,0.049-0.915,0.019-1.358
			c0.02-0.05,0.034-0.104,0.034-0.162v-2.754c0-0.76-0.515-1.377-1.148-1.377c-0.204,0-0.397,0.069-0.569,0.187
			c-0.064-0.11-0.134-0.216-0.21-0.312h60.32c-0.002,0.054-0.007,0.11-0.007,0.163c0,0.045,0.007,0.085,0.009,0.129
			c-0.161-0.103-0.341-0.166-0.535-0.166c-0.633,0-1.148,0.618-1.148,1.377v6.01c0,0.039,0.009,0.074,0.018,0.109
			c-0.175,0.243-0.329,0.512-0.447,0.799c-0.195,0.474-0.31,0.998-0.31,1.513C455.218,288.596,455.384,289.156,455.728,289.624z
			 M453.761,292.64c0.083,0.707,0.378,1.137,0.745,1.406c-0.003,0.021-0.01,0.04-0.01,0.062v2.538
			c-0.092,0.136-0.184,0.271-0.275,0.406c-0.127-0.172-0.381-0.509-0.769-0.987v-16.482c0-0.345,0.234-0.626,0.522-0.626
			c0.288,0,0.522,0.281,0.522,0.626v10.921c-0.478,0.568-0.749,1.252-0.749,1.887C453.747,292.474,453.752,292.558,453.761,292.64z
			 M451.209,293.513c-0.323-0.343-0.674-0.701-1.044-1.07v-12.86c0-0.345,0.234-0.626,0.522-0.626c0.288,0,0.522,0.281,0.522,0.626
			V293.513z M447.922,290.343c-0.336-0.296-0.684-0.593-1.044-0.891v-9.87c0-0.345,0.234-0.626,0.522-0.626s0.522,0.281,0.522,0.626
			V290.343z M444.635,287.704c-0.34-0.248-0.688-0.494-1.044-0.737v-7.384c0-0.345,0.234-0.626,0.522-0.626s0.522,0.281,0.522,0.626
			V287.704z M441.396,285.568c-0.357-0.211-0.722-0.418-1.092-0.62v-5.366c0-0.345,0.234-0.626,0.522-0.626
			c0.288,0,0.522,0.281,0.522,0.626C441.348,279.585,441.384,284.02,441.396,285.568z M438.062,283.824
			c-0.343-0.158-0.692-0.309-1.044-0.456v-3.785c0-0.345,0.234-0.626,0.522-0.626s0.522,0.281,0.522,0.626V283.824z
			 M433.731,282.196v-2.613c0-0.345,0.234-0.626,0.522-0.626c0.288,0,0.522,0.281,0.522,0.626v2.944
			C434.429,282.412,434.083,282.298,433.731,282.196z M431.488,281.648c-0.345-0.071-0.693-0.136-1.044-0.195v-1.871
			c0-0.345,0.234-0.626,0.522-0.626s0.522,0.281,0.522,0.626V281.648z M428.201,281.175c-0.345-0.028-0.694-0.045-1.044-0.059
			v-1.534c0-0.345,0.234-0.626,0.522-0.626c0.288,0,0.522,0.281,0.522,0.626V281.175z M424.914,281.103
			c-0.353,0.012-0.698,0.036-1.044,0.06v-1.58c0-0.345,0.234-0.626,0.522-0.626c0.288,0,0.522,0.281,0.522,0.626V281.103z
			 M421.582,281.4c-0.336,0.048-0.67,0.096-0.999,0.154v-1.971c0-0.345,0.234-0.626,0.522-0.626s0.522,0.281,0.522,0.626
			C421.626,279.583,421.596,280.809,421.582,281.4z M418.34,282.039c-0.353,0.089-0.701,0.184-1.044,0.283v-2.74
			c0-0.345,0.234-0.626,0.522-0.626c0.288,0,0.522,0.281,0.522,0.626V282.039z M415.069,283.058
			c-0.359,0.134-0.713,0.271-1.06,0.415v-3.89c0-0.345,0.234-0.626,0.522-0.626c0.288,0,0.522,0.281,0.522,0.626v3.38
			C415.053,282.996,415.062,283.027,415.069,283.058z M411.766,284.501c-0.356,0.18-0.704,0.363-1.044,0.55v-5.468
			c0-0.345,0.234-0.626,0.522-0.626s0.522,0.281,0.522,0.626V284.501z M408.479,286.398c-0.359,0.234-0.708,0.47-1.044,0.706v-7.521
			c0-0.345,0.234-0.626,0.522-0.626s0.522,0.281,0.522,0.626V286.398z M405.192,288.82c-0.369,0.306-0.717,0.606-1.044,0.899
			v-10.137c0-0.345,0.234-0.626,0.522-0.626c0.288,0,0.522,0.281,0.522,0.626V288.82z M400.861,293.112v-13.53
			c0-0.345,0.234-0.626,0.522-0.626c0.288,0,0.522,0.281,0.522,0.626v12.337C401.448,292.413,401.101,292.82,400.861,293.112z
			 M399.65,292.399c-0.009-0.069-0.022-0.138-0.04-0.209c-0.112-0.44-0.282-0.666-0.448-0.791c0.462-0.623,0.818-1.236,1.073-1.84
			v3.299c-0.143-0.124-0.29-0.238-0.441-0.342C399.761,292.472,399.711,292.433,399.65,292.399z M397.189,275.638
			c-0.036-0.092-0.077-0.184-0.131-0.275c-0.079-0.135-0.165-0.253-0.255-0.354c1.817-2.292,6.189-7.259,8.284-7.259
			c2.023,0,6.464,5.216,8.526,7.889H397.189z M397.918,279.845c0-0.267-0.035-0.528-0.102-0.777c0.084-0.066,0.177-0.111,0.28-0.111
			c0.288,0,0.522,0.281,0.522,0.626v1.541c-0.234-0.147-0.504-0.187-0.79-0.105c-0.038,0.011-0.074,0.039-0.111,0.054
			C397.832,280.67,397.918,280.256,397.918,279.845z M458.252,280.076c0.29,0.369,0.654,0.672,1.049,0.933
			c-0.377,0.155-0.737,0.337-1.049,0.56V280.076z M397.117,277.328c0.11-0.301,0.188-0.617,0.196-0.939h59.061
			c0.026,0.121,0.062,0.238,0.112,0.348c0.118,0.26,0.294,0.458,0.512,0.591H397.117z M405.634,260.298l0.859-1.167
			c3.377-4.605,6.293-8.581,10.606-7.913c1.189,0.184,2.122,0.191,2.944,0.196c2.463,0.017,3.588,0.025,6.702,5.284l1.908,3.254
			c1.383,2.374,2.386,4.093,3.382,5.502c0.023,0.065,0.065,0.118,0.116,0.16c0.931,1.294,1.87,2.331,3.122,3.383
			c0.867,0.728,1.716,1.562,2.536,2.367c1.688,1.657,3.421,3.355,5.445,4.275h-28.792c-0.827-1.099-6.604-8.64-9.374-8.64
			c-2.703,0-7.892,6.421-8.847,7.632c-0.098-0.026-0.196-0.033-0.292-0.019c-0.011,0.002-0.026,0.009-0.038,0.011
			c0-0.008,0.002-0.015,0.002-0.023c0-0.721-0.163-1.505-0.434-2.174c0.672-0.096,2.168-0.543,2.817-1.357
			c0.324-0.407,0.352-0.801,0.319-1.06c-0.049-0.375-0.186-0.643-0.408-0.795c-0.367-0.253-0.823-0.091-1.206,0.082
			c0.077-0.205,0.145-0.415,0.197-0.632c0.022-0.008,0.045-0.012,0.065-0.027C397.309,268.604,401.888,265.355,405.634,260.298z
			 M396.86,270.159l0.181-0.083c0.24-0.114,0.688-0.326,0.855-0.211c0.061,0.042,0.088,0.164,0.1,0.259
			c0.006,0.048,0.025,0.194-0.141,0.41c-0.575,0.748-2.34,1.185-2.596,1.162c-0.048-0.004-0.094,0.007-0.136,0.027
			c-0.064-0.1-0.132-0.19-0.201-0.277c0.554-0.143,1.069-0.516,1.478-1.034C396.554,270.328,396.713,270.223,396.86,270.159z
			 M369.653,296.417c-0.201,0.149-0.362,0.111-0.426,0.014c-0.075-0.115-0.049-0.353,0.181-0.626
			c0.097-0.115,0.121-0.293,0.058-0.439c-0.063-0.146-0.197-0.227-0.332-0.198c-0.437,0.09-0.757,0.02-0.878-0.194
			c-0.041-0.072-0.061-0.162-0.061-0.263c0-0.146,0.042-0.312,0.123-0.472c0.116-0.229,0.328-0.452,0.612-0.54
			c0.151,0.003,0.306-0.005,0.469-0.035c0.155-0.029,0.268-0.19,0.265-0.378c-0.003-0.188-0.12-0.344-0.275-0.367
			c-0.166-0.024-0.314,0-0.459,0.027c-0.454-0.011-0.799-0.214-1.001-0.614c-0.117-0.232-0.175-0.512-0.175-0.791
			c0-0.323,0.077-0.646,0.229-0.893c0.157-0.256,0.456-0.527,0.988-0.368c0,0,0.003,0.001,0.004,0.001
			c0.168,0.048,0.336-0.076,0.376-0.277c0.006-0.03,0.009-0.059,0.009-0.089c0-0.169-0.095-0.322-0.237-0.364
			c-0.015-0.004-0.029-0.003-0.044-0.007c0.013,0.002,0.027,0.002,0.04,0.006c-0.725-0.206-1.593-0.706-1.785-1.317
			c-0.085-0.269-0.032-0.56,0.162-0.888c0.35-0.593,1.212-0.537,1.972-0.489l0.895,0.011c0.139,0.002,0.246-0.106,0.287-0.265
			c0.04-0.159-0.028-0.331-0.144-0.423c-0.587-0.462-0.598-0.686-0.598-0.688c0.051-0.192,0.854-0.471,1.948-0.453
			c0.16,0.003,0.296-0.14,0.315-0.331c0.019-0.191-0.085-0.368-0.241-0.411c-0.308-0.084-0.506-0.217-0.493-0.33
			c0.046-0.41,1.049-1.196,1.636-1.193c0.018,0,0.036,0.002,0.054,0.001c0.168-0.005,0.303-0.17,0.305-0.372
			c0.002-0.202-0.13-0.37-0.298-0.379c-0.018-0.001-0.037-0.001-0.056-0.001c-0.429-0.003-0.809-0.323-1.021-0.865
			c-0.097-0.249-0.145-0.509-0.145-0.759c0-0.343,0.091-0.666,0.269-0.909c0.103-0.141,0.218-0.247,0.341-0.324
			c0.197-0.014,0.395-0.069,0.591-0.173c0.455-0.017,0.975,0.166,1.512,0.382c0.164,0.066,0.342-0.04,0.396-0.237
			c0.055-0.197-0.033-0.41-0.197-0.476c-0.643-0.259-1.62-0.648-2.445-0.242c-0.281-0.019-0.557-0.187-0.826-0.507
			c-0.727-0.866-1.102-2.518-0.773-3.399c0.213-0.568,0.485-0.891,0.834-0.988c0.923-0.257,2.276,1.089,3.003,1.812
			c0.117,0.116,0.288,0.116,0.403-0.003c0.116-0.119,0.144-0.319,0.067-0.477c-0.35-0.71-0.359-1.702-0.022-2.307
			c0.243-0.437,0.625-0.614,1.133-0.528c-0.001,0-0.002-0.002-0.003-0.002c0.004,0.001,0.009,0.003,0.013,0.004
			c0.17,0.022,0.323-0.123,0.345-0.327c0.002-0.016,0.002-0.031,0.002-0.047c0-0.184-0.113-0.345-0.269-0.371
			c-0.013-0.002-0.026-0.001-0.039-0.003c0.01,0,0.019,0.001,0.029,0.002c-0.659-0.086-1.615-1.177-1.568-2.006
			c0.018-0.326,0.09-0.544,0.213-0.647c0.281-0.237,0.913-0.019,1.421,0.156l0.28,0.095c0.133,0.045,0.273-0.02,0.347-0.16
			c0.074-0.14,0.062-0.322-0.028-0.447c-0.477-0.666-0.18-1.9,0.405-2.558c0.305-0.344,0.923-0.797,1.632,0.033
			c0.106,0.124,0.27,0.142,0.393,0.043c0.123-0.099,0.172-0.288,0.116-0.452c-0.168-0.502-0.047-0.96,0.167-1.112
			c0.251-0.178,0.523,0.162,0.629,0.317c0.092,0.135,0.25,0.176,0.381,0.099c0.131-0.077,0.2-0.252,0.166-0.422
			c-0.276-1.419-0.093-2.532,0.488-2.977c0.361-0.277,0.828-0.236,1.19,0.103c0.602,0.565,0.736,1.703,0.36,3.046
			c0.001-0.004,0.005-0.006,0.006-0.01c-0.003,0.012-0.009,0.02-0.012,0.033c-0.007,0.032-0.011,0.065-0.011,0.097
			c0,0.162,0.088,0.31,0.223,0.359c0.162,0.059,0.333-0.048,0.387-0.24c0.003-0.011,0.004-0.02,0.006-0.03
			c-0.001,0.003,0,0.005-0.001,0.008c0.201-0.899,0.814-1.308,1.291-1.183c0.432,0.113,0.626,0.633,0.519,1.389
			c-0.024,0.172,0.053,0.342,0.188,0.409c0.134,0.068,0.289,0.015,0.375-0.126c0.097-0.161,0.284-0.424,0.442-0.377
			c0.327,0.099,0.726,1.143,0.811,1.897c0.021,0.186,0.153,0.325,0.31,0.326c0.157,0,0.289-0.138,0.311-0.324
			c0.056-0.49,0.503-1.351,1.055-1.803c0.187-0.153,0.462-0.32,0.713-0.248c0.206,0.059,0.406,0.306,0.564,0.694
			c0.312,0.769,0.357,1.835,0.189,2.276c0.001-0.003,0.004-0.004,0.005-0.007c-0.004,0.011-0.009,0.016-0.012,0.027
			c-0.014,0.045-0.021,0.091-0.021,0.136c0,0.147,0.072,0.286,0.191,0.346c0.156,0.079,0.337-0.005,0.407-0.19
			c0.005-0.013,0.006-0.031,0.011-0.044c-0.002,0.008-0.001,0.016-0.004,0.024c0.16-0.493,0.371-0.719,0.626-0.672
			c0.262,0.049,0.532,0.347,0.685,0.649c-0.081,0.273-0.139,0.552-0.156,0.833c0,0.009-0.001,0.018-0.001,0.026
			c0,0.113,0.043,0.221,0.116,0.292c0.079,0.077,0.185,0.103,0.284,0.069c0.318-0.11,0.51-0.42,0.51-0.816
			c0-0.022-0.001-0.044-0.002-0.067c-0.005-0.099-0.046-0.208-0.074-0.314c0.247-0.636,0.693-1.22,1.265-1.575
			c0.655-0.407,1.32-0.43,1.824-0.063c0.634,0.462,0.784,1.13,0.784,1.659c0,0.177-0.017,0.339-0.038,0.472
			c-0.088,0.556-0.324,1.07-0.633,1.487c-0.507,0.289-1.014,0.625-1.419,0.995c-0.058,0.053-0.089,0.129-0.106,0.21
			c-0.369-0.243-1.231-0.564-2.153,0.823c-0.108,0.162-0.086,0.399,0.05,0.528c0.135,0.13,0.332,0.103,0.44-0.059
			c0.48-0.723,0.947-0.93,1.388-0.615c0.822,0.586,1.353,2.673,0.962,3.784c0.001-0.002,0.003-0.003,0.004-0.005
			c-0.002,0.007-0.005,0.01-0.008,0.017c-0.014,0.044-0.021,0.089-0.021,0.134c0,0.149,0.074,0.29,0.196,0.348
			c0.158,0.077,0.339-0.014,0.405-0.202c0.003-0.008,0.003-0.017,0.006-0.025c-0.001,0.004-0.001,0.009-0.002,0.013
			c0.044-0.139,0.14-0.374,0.284-0.396c0.039-0.006,0.089,0.01,0.142,0.036c0.022,0.015,0.043,0.03,0.067,0.039
			c0.098,0.069,0.207,0.183,0.313,0.363c0.358,0.612,0.009,1.351-0.484,2.253l-0.178,0.331c0.001-0.001,0.002-0.001,0.002-0.002
			c-0.002,0.004-0.004,0.005-0.006,0.008c-0.03,0.06-0.044,0.125-0.044,0.189c0,0.126,0.053,0.248,0.149,0.319
			c0.145,0.108,0.337,0.054,0.429-0.118c0,0,0.005-0.008,0.005-0.009c0.137-0.276,0.235-0.338,0.262-0.339
			c0.014,0,0.144,0.015,0.428,0.569c0.127,0.247,0.181,0.539,0.181,0.848c0,0.718-0.293,1.521-0.642,2.109
			c-0.11,0.149-0.204,0.294-0.264,0.419c-0.029,0.059-0.042,0.124-0.042,0.188c0,0.116,0.045,0.23,0.128,0.303
			c0.129,0.114,0.308,0.092,0.416-0.049c0.083-0.109,0.162-0.248,0.243-0.381c0.219-0.289,0.541-0.598,0.845-0.686
			c0.154-0.044,0.281-0.026,0.388,0.057c0.305,0.236,0.242,1.341,0.204,2.001l-0.016,0.667c-0.078,0.018-0.155,0.042-0.226,0.076
			c-0.285,0.137-0.522,0.42-0.653,0.809c-0.269-0.116-0.574-0.038-0.868,0.237c-0.155,0.145-0.298,0.358-0.426,0.595
			c-0.104-0.177-0.225-0.338-0.382-0.459c-0.512-0.395-1.209-0.383-1.695,0.028c-0.428,0.362-0.601,0.948-0.473,1.608
			c0.039,0.202,0.207,0.328,0.375,0.281c0.169-0.047,0.273-0.248,0.234-0.451c-0.069-0.358,0.008-0.643,0.224-0.825
			c0.274-0.232,0.703-0.236,0.996-0.01c0.235,0.181,0.353,0.501,0.375,0.901c-0.016,0.119-0.04,0.237-0.04,0.358
			c0,0.108,0.007,0.216,0.021,0.323c0.024,0.181,0.152,0.315,0.305,0.317c0.152,0.003,0.284-0.127,0.312-0.307
			c0.031-0.199,0.046-0.391,0.046-0.574c0-0.054-0.011-0.102-0.013-0.155c0.088-0.429,0.3-0.829,0.525-1.04
			c0.129-0.121,0.233-0.152,0.278-0.128c0.042,0.021,0.111,0.121,0.16,0.359c0.001,0.006,0.002,0.012,0.003,0.018
			c0.015,0.077,0.028,0.165,0.038,0.271c-0.001-0.009-0.001-0.018-0.001-0.027c0.01,0.039,0.005,0.07,0.016,0.109
			c0.052,0.181,0.208,0.286,0.364,0.245c0.145-0.038,0.246-0.192,0.246-0.366c0-0.013-0.001-0.026-0.002-0.039
			c-0.015-0.177-0.041-0.333-0.075-0.475c-0.005-0.053-0.025-0.115-0.025-0.164c0-0.358,0.128-0.626,0.369-0.742
			c0.374-0.18,0.938,0.063,1.248,0.866c0.666,1.729,0.065,3.594-1.84,5.701c0,0,0.001,0,0.001,0c-0.01,0.014-0.02,0.022-0.03,0.038
			c-0.048,0.07-0.072,0.154-0.072,0.239c0,0.1,0.033,0.199,0.098,0.272c0.12,0.136,0.306,0.138,0.428,0.004
			c0.012-0.014,0.02-0.027,0.033-0.041c0.19-0.274,0.326-0.328,0.377-0.316c0.059,0.014,0.147,0.143,0.212,0.4
			c0.032,0.125,0.031,0.246,0.013,0.365c-0.019,0.045-0.033,0.093-0.033,0.146c0,0,0,0.002,0,0.003
			c-0.122,0.402-0.482,0.78-0.904,1.182l-0.204,0.197c-0.121,0.117-0.151,0.321-0.071,0.482c0.079,0.161,0.246,0.226,0.39,0.154
			c0.417-0.205,0.793-0.181,1.033,0.068c0.127,0.132,0.198,0.312,0.198,0.493c0,0.046-0.005,0.092-0.014,0.138
			c-0.028,0.138-0.102,0.259-0.21,0.359c-0.24,0.066-0.459,0.216-0.551,0.293c-0.085,0.072-0.133,0.188-0.133,0.307
			c0,0.051,0.009,0.103,0.027,0.153c0.061,0.164,0.21,0.254,0.356,0.213c0.18-0.049,0.335-0.128,0.478-0.221
			c0.004,0.031,0.011,0.069,0.011,0.176c0,0.097-0.007,0.226-0.032,0.393c-0.114,0.767-0.493,1.643-0.811,1.875
			c-0.095,0.07-0.15,0.193-0.15,0.321c0,0.038,0.005,0.078,0.015,0.116c0.044,0.165,0.178,0.273,0.322,0.259
			c0.203-0.019,0.347,0.018,0.384,0.1c0.07,0.154-0.019,0.582-0.265,0.975c-0.282,0.451-1.297,1.052-1.809,1.205
			c-0.153,0.046-0.253,0.22-0.235,0.408c0.011,0.11-0.032,0.243-0.078,0.384l-0.067,0.298c-0.46-0.246-0.91-0.382-1.32-0.339
			c-0.977,0.103-2.006,1.03-2.917,2.106c-0.085-0.027-0.178-0.014-0.256,0.051c-0.24,0.2-0.462,0.122-0.866-0.046
			c-0.235-0.097-0.501-0.208-0.797-0.229c-1.29-0.094-1.704,0.394-2.456,1.279l-0.253,0.296c-0.503,0.581-1.055,0.924-1.588,1.257
			c-0.292,0.182-0.588,0.366-0.875,0.589c-0.01-0.009-0.016-0.022-0.027-0.03c-0.518-0.365-0.545-0.715-0.594-1.351l-0.142-1.058
			c-0.234-1.025-0.642-2.055-1.036-3.052l-0.436-1.126l-0.197-0.537c-1.015-2.778-2.548-6.975-5.035-7.201
			c-1.065-0.097-2.324-0.097-3.643-0.001l-0.842,0.012c-1.19-0.003-2.06,0.013-2.42,0.243c-0.78,0.498-1.114,1.353-1.28,2.289
			C369.679,296.407,369.665,296.408,369.653,296.417z M378.258,315.852c-1.5-0.505-2.796-0.238-4.168,0.045
			c-0.613,0.127-1.247,0.257-1.902,0.312c-1.017,0.086-1.43-0.151-2.335-0.669c-1.153-0.659-2.023-0.759-3.218-0.834l-1.401,0.043
			c-1.646,0.1-4.402,0.267-4.774-0.927c-0.011-0.037-0.031-0.066-0.05-0.096c-0.03-1.366,0.341-3.329,0.792-4.498
			c0.345-0.893,1.083-1.376,1.939-1.936l1.111-0.779c1.058-0.842,1.233-1.755,1.402-2.637c0.117-0.611,0.238-1.243,0.67-1.923
			c0.473-0.745,1.018-0.759,1.709-0.776c0.436-0.011,0.93-0.024,1.443-0.236c0.07-0.029,0.129-0.087,0.167-0.164
			c0.36-0.728,0.429-1.709,0.496-2.658c0.1-1.414,0.194-2.75,1.126-3.345c0.25-0.159,1.469-0.156,2.125-0.155l0.881-0.013
			c1.29-0.094,2.521-0.094,3.557,0c2.111,0.192,3.612,4.299,4.509,6.754l0.198,0.54l0.442,1.142
			c0.383,0.967,0.778,1.967,0.998,2.928c0,0,0.122,0.929,0.122,0.929c0.047,0.617,0.104,1.251,0.721,1.785
			c-0.283,0.298-0.549,0.66-0.781,1.133c-0.598,1.22-0.548,2.444-0.504,3.524c0.035,0.851,0.067,1.655-0.21,2.37
			c-0.138,0.356-0.61,0.951-1.112,1.581c-0.02-0.007-0.038-0.018-0.059-0.02c-0.88-0.077-1.599-0.416-2.36-0.774
			C379.318,316.275,378.827,316.044,378.258,315.852z M393.638,330.208l0.172,0.862c0.135,0.811,0.289,1.731,0.904,2.303
			c0.355,0.33,0.844,0.494,1.317,0.652c0.388,0.129,0.789,0.263,1.067,0.479c0.623,0.483,1.507,1.74,1.743,2.813
			c-0.326,0.068-0.72,0.032-1.138-0.014c-0.472-0.051-0.961-0.104-1.432-0.01c-0.732,0.145-1.428,0.427-2.102,0.699l-0.908,0.354
			c-1.953,0.707-4.628,1.674-6.844,0.986l-1.411-0.45c-2.406-0.778-4.483-1.45-7.194-1.45l-1.082,0.06
			c-1.552,0.113-5.143,0.37-5.6-0.7c0.05-0.18,0.178-0.281,0.384-0.441c0.192-0.149,0.41-0.318,0.596-0.603
			c0.325-0.496,0.438-0.956,0.547-1.401c0.069-0.282,0.14-0.573,0.27-0.885c0.508-1.218,1.64-1.457,2.958-1.627
			c0.44-0.056,0.833-0.051,1.213-0.045c1.057,0.016,1.969,0.03,2.711-1.491l0.688-1.512c0.547-1.247,1.063-2.426,1.957-3.486
			c1.973-2.339,5.825-4.409,8.212-1.69C392.128,325.278,392.989,327.881,393.638,330.208z M406.652,322.97
			c0.398,0.266,0.728,0.673,1.077,1.104c0.51,0.629,1.036,1.28,1.82,1.523c0.52,0.161,1.021,0.188,1.506,0.214
			c0.706,0.038,1.373,0.074,2.005,0.533c0.643,0.467,1.121,1.411,1.065,2.103c-0.035,0.432-0.28,0.75-0.727,0.945
			c-0.448,0.196-0.68-0.011-1.001-0.298c-0.193-0.173-0.412-0.368-0.687-0.451c-0.452-0.135-0.953-0.099-1.437-0.063l-0.635,0.029
			c-0.998-0.016-2.04-0.159-3.048-0.298c-0.808-0.111-1.643-0.227-2.472-0.279l-0.773-0.089c-0.565-0.077-1.149-0.156-1.585-0.091
			c-0.51,0.076-0.95,0.333-1.375,0.582c-0.283,0.165-0.55,0.321-0.834,0.426c-0.957,0.352-2.242,0.134-2.803-1.179
			c-0.164-0.384-0.203-0.71-0.118-0.995c0.199-0.67,1.052-1.117,1.804-1.511l0.879-0.506c0.562-0.399,0.99-0.975,1.404-1.532
			c0.567-0.763,1.102-1.483,1.926-1.681c1.289-0.31,2.686,0.628,3.809,1.381L406.652,322.97z M404.95,321.067
			c-0.009,0.005-0.014,0.015-0.022,0.021c-0.77-0.359-1.587-0.566-2.406-0.369c-0.547,0.132-0.98,0.436-1.359,0.813
			c-1.341-0.378-2.572-0.22-3.874-0.05l-1.489,0.164l-1.78,0.1l-1.666,0.092l-0.864-0.06c-0.622-0.08-1.265-0.162-1.785,0.171
			c-0.01,0.006-0.016,0.017-0.025,0.024c-0.967-0.462-2.028-0.489-3.071-0.229c-0.098-0.098-0.238-0.121-0.355-0.041
			c-0.722,0.496-1.45,0.238-2.291-0.061c-0.838-0.297-1.704-0.605-2.63-0.148c-0.006,0.003-0.011,0.01-0.017,0.014
			c-0.263-0.127-0.422-0.289-0.462-0.486c-0.15-0.748,0.979-2.167,1.804-3.203c0.564-0.709,1.051-1.321,1.233-1.79
			c0.342-0.883,0.304-1.819,0.267-2.724c-0.044-1.069-0.085-2.079,0.419-3.106c0.5-1.021,1.162-1.432,1.927-1.909
			c0.574-0.357,1.166-0.726,1.734-1.383l0.257-0.3c0.705-0.829,0.968-1.139,1.98-1.065c0.21,0.015,0.414,0.1,0.63,0.189
			c0.191,0.08,0.395,0.161,0.606,0.192c-0.391,0.519-0.746,1.03-1.046,1.462l-0.22,0.316c-0.111,0.159-0.094,0.397,0.039,0.53
			c0.133,0.133,0.329,0.112,0.44-0.047l0.221-0.318c0.983-1.417,2.813-4.055,4.258-4.207c1.48-0.156,4.12,3,4.698,4.786
			c0.486,1.503,0.719,2.091,1.62,3.306l0.219,0.294c0.698,0.936,1.42,1.904,1.798,2.992l0.065,0.186
			C405.56,320.239,405.125,320.964,404.95,321.067z M405.98,305.579c0.496,0.537,0.964,1.045,1.315,1.797l0.441,1.174
			c0.181,0.54,0.368,1.098,0.653,1.659l0.3,0.547c0.302,0.533,0.648,1.166,0.73,1.686c-0.464,0.043-0.926,0.068-1.369,0.077
			c-0.611,0.011-1.242,0.023-1.906,0.123l-1.085,0.275c-0.542,0.165-1.104,0.336-1.465,0.233c-0.021-0.006-0.042-0.002-0.063-0.003
			c-0.346-0.558-0.738-1.085-1.123-1.603l-0.217-0.292c-0.857-1.158-1.056-1.695-1.504-3.079c-0.434-1.34-1.95-3.499-3.48-4.59
			c0.022-0.04,0.042-0.081,0.053-0.124l0.062-0.237c0.039-0.121,0.075-0.266,0.098-0.423c0.586-0.231,1.562-0.792,1.94-1.394
			c0.217-0.346,0.415-0.835,0.415-1.287c0-0.176-0.03-0.347-0.101-0.501c-0.059-0.13-0.164-0.264-0.326-0.362
			c0.393-0.659,0.673-1.639,0.673-2.318c0-0.03,0-0.06-0.002-0.088c-0.011-0.286-0.075-0.476-0.155-0.61
			c0.073-0.13,0.131-0.27,0.163-0.425c0.022-0.106,0.033-0.214,0.033-0.321c0-0.396-0.148-0.783-0.415-1.06
			c-0.174-0.18-0.386-0.275-0.611-0.33c0.218-0.255,0.417-0.544,0.532-0.873c0.312,0.226,0.604,0.508,0.881,0.828
			c0.015,0.028,0.03,0.058,0.052,0.081c0.012,0.012,0.027,0.017,0.039,0.027c1.56,1.876,2.591,5.077,3.445,7.769l0.346,1.082
			C404.716,304.209,405.358,304.905,405.98,305.579z M409.063,299.261l0.268,0.734c0.364,0.979,0.739,1.989,0.744,2.951
			c-1.258,0.588-3.119,0.934-4.44,0.804c-0.078-0.008-0.151,0.023-0.209,0.075c-0.2-0.311-0.376-0.659-0.512-1.08l-0.344-1.077
			c-0.668-2.105-1.439-4.516-2.501-6.426c0.285-0.377,1.366-1.741,3.222-3.418c0.381,0.079,0.513,0.191,0.951,0.934
			c0.3,0.508,0.413,1.167,0.534,1.866c0.124,0.716,0.251,1.456,0.598,2.067c0.237,0.417,0.492,0.718,0.738,1.009
			C408.468,298.123,408.805,298.52,409.063,299.261z M407.277,293.862c-0.069-0.349-0.154-0.693-0.278-1.018
			c0.054-0.076,2.485-3.452,6.581-6.435c0.03-0.022,0.053-0.051,0.074-0.082c0.538-0.245,1.095-0.479,1.67-0.701
			C411.542,288.665,408.349,292.514,407.277,293.862z M406.658,292.171c-0.276-0.454-0.484-0.725-0.749-0.89
			c1.272-1.092,2.848-2.276,4.727-3.385C408.46,289.855,407.084,291.602,406.658,292.171z M407.913,295.923
			c-0.058-0.002-0.11,0.02-0.157,0.052c-0.148-0.362-0.239-0.78-0.319-1.224c0.617-0.798,4.669-5.932,9.356-9.365
			c0.1-0.073,0.149-0.204,0.145-0.335c1.02-0.331,2.09-0.62,3.21-0.855c0.008,0.015,0.012,0.032,0.022,0.046
			c1.235,1.799,2.508,3.653,3.654,5.329c0.002,0.002,0.003,0.004,0.005,0.007c1.937,2.83,3.513,5.146,3.943,5.81
			C426.467,296.025,417.992,296.262,407.913,295.923z M432.082,284.783l-0.855,0.143c-0.746,0.093-1.591,0.197-2.026,0.628
			c-0.576,0.57-0.643,1.308-0.703,1.958c-0.047,0.511-0.088,0.952-0.357,1.268c-0.358,0.419-2.723,0.4-3.899,0.216
			c-1.239-1.811-2.5-3.648-3.387-4.939c1.589-0.296,3.271-0.487,5.054-0.531c2.424-0.059,4.768,0.305,7.001,0.951
			C432.66,284.585,432.384,284.691,432.082,284.783z M425.898,282.775c-14.643,0.359-22.901,10.173-24.202,11.844
			c-0.175-0.277-0.359-0.537-0.55-0.782c0.224-0.282,0.633-0.776,1.225-1.414c0.036-0.025,0.066-0.057,0.091-0.097
			c3.217-3.432,11.461-10.631,23.908-10.49c2.387,0.027,4.659,0.391,6.805,0.981c0.057,0.087,0.142,0.146,0.242,0.146
			c0.051,0,0.098-0.018,0.141-0.045c0.437,0.126,0.867,0.263,1.292,0.408c0.057,0.082,0.14,0.137,0.237,0.137
			c0.031,0,0.06-0.011,0.089-0.022c0.431,0.152,0.857,0.313,1.276,0.482c0.057,0.098,0.146,0.166,0.253,0.166
			c0.032,0,0.061-0.011,0.09-0.022c8.132,3.391,13.917,9.72,16.09,12.375c0.021,0.038,0.047,0.069,0.078,0.095
			c0.502,0.617,0.789,1.01,0.855,1.1c-0.147,0.214-0.295,0.427-0.444,0.637C450.779,295.097,439.57,282.441,425.898,282.775z
			 M455.122,295.722v-1.371c0.157,0.05,0.315,0.089,0.466,0.114c-0.159,0.297-0.274,0.655-0.332,1.059L455.122,295.722z
			 M462.032,299.226c-0.046-0.173-0.186-0.271-0.336-0.247c-0.15,0.024-0.262,0.182-0.269,0.364
			c-0.027,0.661-0.209,1.11-0.513,1.264c-0.296,0.15-0.703,0.016-1.037-0.34c-0.548-0.583-0.737-1.512-0.506-2.484
			c0.033-0.139-0.002-0.289-0.092-0.385c-0.09-0.096-0.218-0.121-0.329-0.065l-0.238,0.12c-1.057,0.54-1.854,0.86-2.494,0.06
			c-0.278-0.348-0.422-1.013-0.367-1.676l0.034-0.051c0.047-0.07,0.071-0.154,0.071-0.238c0-0.058-0.013-0.115-0.035-0.168
			c0.096-0.407,0.27-0.728,0.491-0.891c0.116-0.085,0.173-0.249,0.142-0.408c-0.031-0.158-0.143-0.274-0.278-0.287l-0.123-0.012
			c-0.867-0.083-1.654-0.24-1.772-1.247c-0.053-0.452,0.142-0.989,0.52-1.455c0.091-0.034,0.165-0.113,0.198-0.22
			c0.444-0.442,0.969-0.665,1.376-0.569c0.153,0.036,0.305-0.069,0.356-0.246c0.051-0.177-0.014-0.371-0.154-0.457
			c-1.016-0.621-0.952-1.871-0.588-2.753c0.403-0.979,1.265-1.769,2.068-1.307c0.131,0.076,0.289,0.032,0.38-0.104
			c0.091-0.136,0.092-0.33,0.002-0.467c-0.528-0.806-0.731-1.458-0.601-1.94c0.204-0.757,1.218-1.199,2.284-1.565
			c0.126-0.043,0.216-0.176,0.226-0.333c0.01-0.157-0.063-0.305-0.182-0.37c-1.435-0.787-2.178-1.506-1.978-2.944
			c0.008-0.033,0.017-0.065,0.017-0.101c0-0.001-0.001-0.002-0.001-0.003c0.032-0.193,0.078-0.397,0.144-0.616
			c0.199-0.669,0.65-1.855,1.445-2.279c0.421-0.224,0.9-0.207,1.423,0.053c0.16,0.079,0.342-0.011,0.409-0.204
			c0.066-0.192-0.009-0.411-0.17-0.491c-0.688-0.341-1.333-0.356-1.917-0.045c-0.939,0.501-1.474,1.709-1.762,2.657
			c-0.021-0.003-0.041-0.012-0.063-0.01c-0.378,0.032-0.646-0.102-0.776-0.389c-0.131-0.289-0.098-0.692,0.082-0.981
			c0.196-0.313,0.519-0.429,0.912-0.327c0.163,0.043,0.326-0.076,0.369-0.27s-0.048-0.394-0.207-0.455
			c-0.52-0.199-1.114-0.731-1.245-1.365c-0.075-0.36,0.024-0.709,0.291-1.036c0.483-0.59,1.229-0.358,2.019-0.111l0.915,0.233
			c0.147,0.038,0.277-0.062,0.335-0.23c0.058-0.167-0.012-0.366-0.138-0.465c-0.152-0.118-0.822-1.153-0.881-1.969
			c-0.019-0.263,0.03-0.455,0.149-0.588c0.358-0.399,0.896-0.004,1.564,0.556l0.143,0.109c0.005,0.006,0.008,0.014,0.012,0.02
			c0.043,0.059,0.099,0.092,0.158,0.11l0.225,0.172c0.146,0.111,0.308,0.039,0.401-0.135c0.093-0.174,0.02-0.427-0.125-0.539
			l-0.229-0.177c-0.11-0.199-0.172-0.503-0.172-0.867c0-0.195,0.017-0.404,0.051-0.62c0.125-0.783,0.452-1.457,0.819-1.71
			c0.152-0.016,0.233,0.032,0.28,0.073c0.246,0.218,0.32,0.879,0.374,1.362l0.024,0.212c0.022,0.197,0.169,0.337,0.334,0.322
			c0.165-0.015,0.292-0.184,0.288-0.383c-0.017-1.021,0.164-1.7,0.495-1.863c0.338-0.166,0.904,0.166,1.442,0.847
			c0.09,0.114,0.23,0.149,0.351,0.086c0.12-0.062,0.196-0.208,0.189-0.365c-0.056-1.269,0.373-2.356,1.094-2.768
			c0.639-0.365,1.407-0.139,2.108,0.621c0.121,0.131,0.304,0.129,0.423-0.004c0.119-0.133,0.133-0.352,0.033-0.506
			c-0.276-0.425-0.138-1.058,0.064-1.47c0.249-0.508,0.721-0.978,1.214-0.885c1.302,0.246,2.109,2.462,2.251,3.594
			c0.024,0.188,0.161,0.325,0.32,0.319c0.159-0.006,0.288-0.154,0.302-0.344c0.051-0.715,0.435-1.24,0.856-1.781
			c0.864,0.671,1.349,1.698,1.349,2.872c0,0.487-0.081,0.998-0.246,1.513c-0.014,0.044-0.021,0.09-0.021,0.135
			c0,0.132,0.059,0.259,0.16,0.328c0.136,0.091,0.307,0.049,0.401-0.099c0.141-0.221,0.17-0.227,0.277-0.248
			c0,0,0.082-0.026,0.163-0.051c0.353,0.152,0.591,0.483,0.653,0.965c0.011,0.08,0.016,0.166,0.016,0.256
			c0,0.637-0.276,1.5-1.084,2.159c0.001-0.001,0.002,0,0.002-0.001c-0.007,0.007-0.014,0.011-0.021,0.018
			c-0.077,0.074-0.118,0.183-0.118,0.294c0,0.077,0.02,0.155,0.061,0.223c0.1,0.163,0.289,0.201,0.428,0.088
			c0.007-0.006,0.013-0.015,0.02-0.021c-0.001,0.001,0,0.003-0.001,0.004c0.45-0.429,0.862-0.578,1.161-0.417
			c0.279,0.15,0.467,0.576,0.492,1.111c0.035,0.756-0.254,1.796-1.171,2.445c0.003-0.002,0.007-0.001,0.01-0.003
			c-0.02,0.02-0.042,0.028-0.063,0.05c-0.067,0.074-0.101,0.175-0.101,0.277c0,0.078,0.02,0.156,0.061,0.223
			c0.096,0.154,0.272,0.198,0.411,0.1c0.021-0.015,0.033-0.036,0.054-0.051c-0.001,0.001,0,0.003-0.001,0.005
			c0.27-0.298,0.411-0.184,0.458-0.146c0.239,0.194,0.398,0.847,0.235,1.367c-0.15,0.479-0.526,0.697-1.085,0.641
			c-0.052-0.032-0.11-0.022-0.189-0.004c-0.149,0.033-0.256,0.189-0.256,0.369c0,0.004,0,0.007,0,0.011
			c0,0.019,0.014,0.031,0.017,0.049c0.004,0.037,0.006,0.074,0.018,0.108c0.046,0.131,0.307,1.156,0.446,1.706
			c0.058,0.226,0.096,0.375,0.129,0.49c-0.057,0.212-0.393,0.352-0.874,0.392c-0.237-0.045-0.482-0.065-0.752,0.007
			c-0.152,0.04-0.255,0.207-0.244,0.393c0.011,0.185,0.133,0.334,0.287,0.348c0.177,0.017,0.422,0.029,0.684,0.014
			c0.584,0.169,0.814,0.842,0.882,1.2c0.041,0.216,0.061,0.443,0.061,0.671c0,1.049-0.43,2.121-1.183,2.384
			c-0.049,0.028-0.1,0.044-0.148,0.079c-0.096,0.07-0.15,0.193-0.15,0.321c0,0.048,0.008,0.096,0.024,0.142
			c0.058,0.171,0.212,0.265,0.361,0.223c0.063-0.018,0.118-0.051,0.178-0.076c0.297-0.171,0.601-0.13,0.928,0.175
			c0.658,0.614,1.223,2.123,1.223,3.493c0,0.346-0.036,0.684-0.116,0.995c-0.231,0.904-0.784,1.396-1.644,1.463
			c-0.158,0.013-0.284,0.165-0.292,0.355c0,0.007,0,0.014,0,0.021c0,0.181,0.109,0.338,0.259,0.37
			c0.488,0.102,0.789,0.418,0.894,0.94c0.028,0.137,0.041,0.285,0.041,0.438c0,0.782-0.345,1.706-0.845,2.159
			c-0.014,0.013-0.029,0.018-0.043,0.03c-0.28-0.049-0.595-0.057-1.001,0.059c-0.125,0.036-0.219,0.16-0.237,0.313
			c-0.018,0.153,0.044,0.303,0.156,0.379c0.368,0.25,0.767,0.255,1.155,0.051c0.26,0.094,0.476,0.255,0.595,0.56
			c0.107,0.275,0.155,0.614,0.155,0.98c0,1.156-0.476,2.578-1.037,3.081c-0.28,0.251-0.446,0.147-0.572,0.013
			c0.001,0.001,0.001,0.004,0.002,0.005c-0.016-0.014-0.025-0.028-0.042-0.042c-0.138-0.104-0.32-0.065-0.418,0.092
			c-0.042,0.067-0.063,0.147-0.063,0.226c0,0.104,0.036,0.207,0.105,0.281c0.017,0.019,0.037,0.024,0.055,0.041
			c-0.005-0.003-0.01-0.002-0.014-0.005c0.23,0.174,0.337,0.383,0.33,0.638c-0.015,0.536-0.505,1.178-0.95,1.465
			c-0.962,0.621-1.276,0.055-1.841-1.179c-0.213-0.466-0.433-0.948-0.729-1.328c-0.063-0.081-0.152-0.124-0.244-0.119
			c-0.092,0.005-0.177,0.059-0.233,0.147c-0.657,1.034-1.209,1.532-1.642,1.478c-0.593-0.074-1.135-1.145-1.766-2.732
			c-0.048-0.121-0.147-0.203-0.259-0.213c-0.112-0.01-0.22,0.052-0.283,0.164c-1.264,2.235-2.643,3.093-4.216,2.624
			c-1.215-0.362-1.47-1.405-1.792-2.727L462.032,299.226z M480.577,315.199c-0.155,0.23-0.258,0.253-0.445,0.296
			c-0.207,0.047-0.49,0.112-0.804,0.485c-0.254,0.302-0.341,0.649-0.41,0.928c-0.103,0.412-0.118,0.475-0.534,0.403
			c-0.145-0.041-0.591-0.557-0.853-0.95c-0.072-0.109-0.188-0.161-0.302-0.135c-0.114,0.025-0.206,0.124-0.241,0.257
			c-0.308,1.182-0.789,2.541-1.776,2.55c-0.714,0.007-0.791-0.337-0.962-1.089l-0.189-0.729c-0.028-0.107-0.09-0.181-0.176-0.224
			c-0.086-0.043-0.18-0.026-0.262,0.026c-0.398,0.251-0.643,0.821-0.88,1.371c-0.25,0.581-0.508,1.182-0.861,1.188
			c-0.632,0.012-0.811-1.742-0.919-2.79l-0.137-1.012c-0.015-0.115-0.049-0.201-0.134-0.257c-0.085-0.055-0.161-0.047-0.25,0
			l-0.601,0.32c-0.536,0.334-0.907,0.532-1.165,0.248c-0.217-0.239-0.07-1.282,0.008-1.844l0.086-0.788
			c0.017-0.154-0.048-0.284-0.161-0.358c-0.114-0.075-0.255-0.038-0.353,0.062c-0.763,0.773-2.072,1.213-2.5,0.842
			c-0.294-0.255-0.111-0.973,0.024-1.378c0.042-0.125,0.025-0.268-0.046-0.374c-0.07-0.106-0.182-0.158-0.294-0.137
			c-0.346,0.066-0.676,0.196-0.966,0.311c-0.906,0.358-1.32,0.522-1.699-0.846c-0.253-0.911-0.003-2.191,0.352-2.337
			c0.158-0.065,0.245-0.268,0.198-0.461c-0.047-0.193-0.212-0.307-0.374-0.259c-0.669,0.194-0.777-0.263-0.812-0.414
			c-0.175-0.743,0.245-1.994,0.916-2.255c0.157-0.061,0.247-0.259,0.207-0.451c-0.041-0.192-0.2-0.313-0.362-0.276
			c-0.457,0.105-0.787,0.033-0.905-0.198c-0.111-0.217-0.051-0.596,0.145-0.901c0.098-0.154,0.469-0.639,1.086-0.417
			c0.073,0.026,0.147,0.014,0.212-0.019c0.163,0.089,0.342,0.165,0.543,0.224c1.696,0.505,3.224-0.346,4.561-2.446
			c0.553,1.329,1.182,2.514,2.049,2.621c0.608,0.076,1.234-0.39,1.94-1.396c0.15,0.258,0.292,0.54,0.425,0.831
			c0.505,1.105,1.134,2.481,2.687,1.479c0.617-0.398,1.254-1.247,1.279-2.1c0-0.017,0.001-0.035,0.001-0.052
			c0-0.115-0.019-0.245-0.05-0.379c0.14-0.048,0.279-0.121,0.416-0.244c0.169-0.151,0.329-0.362,0.477-0.608
			c0.013,0.006,0.024,0.015,0.038,0.019c0.005,0.002,0.01,0.001,0.014,0.002c0.057,0.136,0.137,0.292,0.231,0.475
			c0,0,0.19,0.394,0.199,0.412c0.004,0.029,0.005,0.058,0.014,0.085c0.045,0.132,0.148,0.222,0.266,0.233
			c0.607,0.056,0.997,0.223,1.1,0.47c0.024,0.057,0.034,0.124,0.034,0.197c0,0.405-0.328,1.019-0.578,1.486l-0.392,0.823
			c-0.026,0.054-0.038,0.108-0.038,0.162c0,0.069,0.019,0.137,0.054,0.203c0.062,0.118,0.182,0.162,0.298,0.151
			c0.288-0.027,0.555,0.202,0.729,0.398c0.511,0.577,0.822,1.518,0.822,2.073c0,0.007,0,0.014,0,0.021
			c-0.006,0.421-0.508,1.553-0.798,1.861c-0.018-0.022-0.04-0.054-0.056-0.072c-0.104-0.118-0.262-0.136-0.383-0.044
			c-0.092,0.07-0.145,0.192-0.145,0.317c0,0.039,0.005,0.079,0.016,0.117c0.021,0.076,0.06,0.103,0.089,0.159
			c-0.002-0.002-0.005-0.001-0.007-0.003c0.006,0.007,0.012,0.017,0.018,0.024c0.057,0.105,0.113,0.195,0.186,0.241
			c0.545,0.769,1.255,2.284,1.255,3.257C480.728,314.832,480.682,315.044,480.577,315.199z"/>
		<path fill="#040000" d="M453.059,317.793c0,1.612,0.133,3.14,1.186,3.816c0.129,0.083,0.289,0.047,0.385-0.086
			c0.288-0.402,0.467-0.985,0.657-1.603c0.263-0.855,0.483-1.465,0.811-1.696c0.024,1.463,0.076,2.95,1.119,3.624
			c0.254,0.164,0.466,0.146,0.637,0.131c0.185-0.016,0.318-0.028,0.574,0.206c0.274,0.251,0.546,0.767,0.786,1.223l0.408,0.729
			c0.096,0.172,0.279,0.199,0.422,0.083c0.143-0.115,0.171-0.368,0.074-0.54l-0.375-0.673c-0.281-0.535-0.572-1.088-0.936-1.42
			c-0.444-0.407-0.765-0.379-0.999-0.358c-0.139,0.012-0.205,0.015-0.295-0.043c-0.751-0.486-0.77-1.701-0.792-3.108l-0.006-0.35
			c-0.004-0.203-0.141-0.365-0.311-0.367c-0.996-0.009-1.373,1.217-1.705,2.298c-0.117,0.381-0.244,0.739-0.382,1.039
			c-0.526-0.589-0.632-1.701-0.632-2.92c0-0.265,0.004-0.533,0.007-0.8c0.004-0.274,0.008-0.545,0.008-0.811
			c0-1.223-0.08-2.323-0.606-3.002c-0.158-0.204-0.377-0.154-0.507-0.125c-0.197,0.044-0.236,0.035-0.296-0.07
			c-0.16-0.277,0.186-1.287,0.3-1.619l0.087-0.261c0.171-0.545,0.402-1.064,0.648-1.614c0.388-0.869,0.789-1.767,0.931-2.781
			c0.029-0.205-0.086-0.398-0.257-0.433c-0.171-0.035-0.332,0.103-0.361,0.308c-0.125,0.893-0.485,1.698-0.866,2.551
			c-0.244,0.547-0.496,1.112-0.682,1.704l-0.08,0.239c-0.235,0.684-0.589,1.719-0.237,2.331c0.296,0.513,0.72,0.427,0.913,0.384
			c0.322,0.511,0.386,1.422,0.386,2.413c0,0.255-0.004,0.515-0.007,0.773C453.063,317.242,453.059,317.518,453.059,317.793z"/>
		<path fill="#040000" d="M469.978,334.635c-0.082-0.412-0.16-0.802-0.309-1.045c-0.253-0.41-0.329-0.534-0.572-0.594
			c-0.061-0.015-0.164-0.041-0.425-0.213c-0.287-0.189-0.528-0.202-0.705-0.211c-0.215-0.012-0.288-0.016-0.446-0.344
			c-0.047-0.098-0.014-0.328,0.015-0.531c0.048-0.331,0.102-0.707-0.065-1.041c-0.442-0.878-0.985-0.985-1.344-1.055
			c-0.083-0.016-0.209-0.041-0.236-0.068c-0.001-0.003-0.073-0.137,0.064-0.865c0.066-0.348,0.238-0.721,0.42-1.115
			c0.328-0.71,0.7-1.516,0.512-2.407c-0.105-0.498-0.362-0.815-0.59-1.094l-0.368-0.527c-0.111-0.159-0.334-0.225-0.467-0.093
			c-0.082,0.081-0.13,0.184-0.13,0.289c0,0.066,0.019,0.132,0.062,0.194l0.455,0.662c0.205,0.252,0.367,0.451,0.431,0.753
			c0.021,0.102,0.031,0.205,0.031,0.308c0,0.503-0.236,1.015-0.484,1.551c-0.195,0.423-0.397,0.861-0.482,1.313
			c-0.066,0.35-0.099,0.628-0.099,0.855c0,0.256,0.043,0.446,0.128,0.598c0.164,0.292,0.423,0.342,0.652,0.387
			c0.303,0.059,0.616,0.121,0.908,0.702c0.017,0.034,0.024,0.086,0.024,0.147c0,0.109-0.02,0.248-0.039,0.377
			c-0.023,0.162-0.049,0.335-0.049,0.508c0,0.179,0.027,0.359,0.109,0.529c0.306,0.632,0.616,0.699,0.96,0.718
			c0.146,0.008,0.272,0.014,0.431,0.119c0.317,0.209,0.475,0.259,0.599,0.29c0.001,0.007,0.195,0.305,0.195,0.305
			c0.074,0.119,0.146,0.481,0.204,0.772c0.066,0.331,0.134,0.674,0.24,0.918c0.08,0.184,0.269,0.256,0.422,0.16
			s0.213-0.323,0.133-0.507C470.094,335.218,470.035,334.921,469.978,334.635z"/>
		<path fill="#040000" d="M420.419,258.876c0.152-0.099,0.208-0.327,0.126-0.509c-0.06-0.133-0.15-0.377-0.079-0.52
			c0.066-0.132,0.279-0.217,0.543-0.215c0.746,0.006,1.359,1.888,1.689,2.899l0.266,0.767c0.679,1.673,1.286,3.042,2.4,4.169
			l0.776,0.706c0.343,0.296,0.667,0.575,0.958,0.91c0.124,0.144,0.323,0.139,0.443-0.011c0.12-0.15,0.115-0.388-0.01-0.531
			c-0.323-0.372-0.68-0.68-1.026-0.978l-0.737-0.67c-1.022-1.034-1.574-2.278-2.241-3.923c0,0-0.245-0.711-0.245-0.711
			c-0.437-1.341-1.098-3.367-2.268-3.376c-0.503-0.004-0.898,0.208-1.084,0.581c-0.121,0.243-0.208,0.659,0.066,1.265
			C420.077,258.907,420.267,258.975,420.419,258.876z"/>
		<path fill="#040000" d="M438.953,266.24c0.17-0.038,0.282-0.235,0.25-0.438c-0.094-0.602,0.328-0.928,0.699-1.095
			c0.705-0.317,1.189,0.193,1.905,1.074l0.519,0.609l0.694,0.822c0.973,1.206,2.185,2.707,3.685,1.811
			c0.155-0.092,0.218-0.318,0.141-0.504c-0.077-0.186-0.265-0.262-0.42-0.169c-1.09,0.651-2.038-0.525-2.956-1.662l-0.728-0.861
			l-0.487-0.572c-0.672-0.828-1.434-1.766-2.573-1.254c-0.817,0.368-1.227,1.092-1.094,1.937
			C438.62,266.144,438.784,266.278,438.953,266.24z"/>
		<path fill="#040000" d="M417.916,298.49l-1.325,0.151c-0.92,0.147-1.871,0.299-2.724-0.123c-0.16-0.079-0.343,0.011-0.409,0.204
			c-0.066,0.192,0.01,0.412,0.17,0.49c1.008,0.499,2.044,0.334,3.045,0.174l1.254-0.146c0.172-0.02,0.322-0.205,0.305-0.411
			C418.217,298.623,418.088,298.47,417.916,298.49z"/>
		<path fill="#040000" d="M422.305,297.238l-2.079,0.024c-1.341,0.024-2.607,0.046-3.96-0.024c-0.173-0.009-0.319,0.152-0.326,0.359
			c-0.008,0.207,0.126,0.382,0.299,0.392c1.371,0.071,2.646,0.048,3.996,0.024l2.07-0.024c0.173-0.002,0.315-0.172,0.313-0.379
			C422.616,297.402,422.477,297.236,422.305,297.238z"/>
		<path fill="#040000" d="M406.026,314.267c-0.173,0-0.313,0.168-0.313,0.375s0.14,0.375,0.313,0.375h2.504
			c0.173,0,0.313-0.168,0.313-0.375s-0.14-0.375-0.313-0.375H406.026z"/>
		<path fill="#040000" d="M409.294,330.786c0.168,0.047,0.337-0.078,0.376-0.281c0.039-0.202-0.065-0.404-0.234-0.451
			c-1.898-0.53-4.871-0.707-6.641,0.01c-0.164,0.067-0.252,0.28-0.196,0.476c0.055,0.197,0.233,0.302,0.397,0.236
			C404.657,330.104,407.481,330.28,409.294,330.786z"/>
		<path fill="#040000" d="M410.753,331.808c-0.678,0.197-1.391,0.112-2.146,0.023c-0.957-0.113-1.946-0.23-2.908,0.246
			c-0.16,0.079-0.236,0.299-0.17,0.49c0.066,0.192,0.249,0.283,0.409,0.204c0.818-0.405,1.687-0.302,2.608-0.193
			c0.774,0.092,1.574,0.186,2.355-0.04c0.168-0.049,0.271-0.252,0.231-0.453C411.09,331.884,410.921,331.759,410.753,331.808z"/>
		<path fill="#040000" d="M379.425,319.301l-0.823-0.401c-1.66-0.83-3.542-1.77-5.31-0.309c-0.142,0.117-0.178,0.351-0.08,0.522
			c0.098,0.171,0.293,0.214,0.435,0.096c1.487-1.229,3.128-0.408,4.714,0.384l0.84,0.408c0.16,0.078,0.338-0.017,0.402-0.209
			C379.668,319.601,379.585,319.379,379.425,319.301z"/>
		<path fill="#040000" d="M377.944,320.41c-0.635-0.237-1.292-0.481-2.007-0.38c-0.172,0.024-0.294,0.211-0.274,0.417
			c0.02,0.206,0.176,0.353,0.348,0.329c0.582-0.083,1.148,0.128,1.747,0.351c0.628,0.234,1.277,0.475,1.999,0.401
			c0.172-0.018,0.3-0.2,0.285-0.406c-0.015-0.207-0.166-0.36-0.339-0.342C379.104,320.842,378.54,320.632,377.944,320.41z"/>
		<path fill="#040000" d="M398.722,340.813c0.173,0,0.313-0.168,0.313-0.375c0-0.208-0.14-0.376-0.313-0.375
			c-0.741,0-1.488-0.076-2.211-0.151c-1.056-0.108-2.147-0.221-3.198-0.084c-0.875,0.113-1.72,0.466-2.538,0.807
			c-1.251,0.522-2.432,1.015-3.673,0.688c-0.169-0.044-0.336,0.084-0.373,0.286c-0.037,0.203,0.07,0.403,0.239,0.448
			c1.413,0.372,2.735-0.178,4.013-0.712c0.784-0.327,1.595-0.666,2.399-0.77c0.99-0.129,2.004-0.024,3.077,0.086
			C397.193,340.736,397.954,340.814,398.722,340.813z"/>
		<path fill="#040000" d="M398.428,341.881l0.732-0.066c0.172-0.015,0.304-0.196,0.291-0.403c-0.013-0.207-0.161-0.362-0.333-0.346
			l-0.74,0.067c-1.221,0.116-2.484,0.235-3.552-0.058c-0.168-0.046-0.336,0.08-0.375,0.282c-0.039,0.203,0.067,0.404,0.235,0.45
			C395.848,342.125,397.16,342.001,398.428,341.881z"/>
		<path fill="#040000" d="M399.348,342.316l-0.669-0.022c-0.805-0.038-1.637-0.078-2.377,0.303
			c-0.159,0.082-0.232,0.302-0.164,0.493c0.068,0.191,0.252,0.279,0.411,0.197c0.609-0.314,1.369-0.278,2.104-0.243l0.693,0.022
			c0.173,0.006,0.308-0.158,0.313-0.365C399.665,342.494,399.521,342.322,399.348,342.316z"/>
		<path fill="#040000" d="M393.087,323.784c-0.173,0-0.313,0.168-0.313,0.375c0,0.208,0.14,0.375,0.313,0.375h2.296
			c0.173,0,0.313-0.168,0.313-0.375c0-0.208-0.14-0.375-0.313-0.375H393.087z"/>
		<path fill="#040000" d="M456.409,334.913c0.856,0.902,1.921,2.025,2.872,1.891c0.172-0.024,0.295-0.211,0.275-0.417
			c-0.02-0.206-0.175-0.354-0.347-0.329c-0.674,0.094-1.664-0.948-2.386-1.709l-0.779-0.78c-0.689-0.605-1.432-1.129-2.15-1.634
			c-0.595-0.419-1.21-0.853-1.776-1.321c-0.383-0.317-0.648-0.815-0.927-1.343c-0.331-0.623-0.673-1.267-1.24-1.622
			c-0.444-0.278-0.896-0.272-1.295-0.268c-0.699,0.008-1.049,0.012-1.207-1.272c-0.025-0.205-0.184-0.347-0.355-0.317
			c-0.171,0.03-0.289,0.221-0.264,0.427c0.237,1.932,1.121,1.922,1.832,1.913c0.357-0.004,0.694-0.008,1,0.183
			c0.418,0.261,0.701,0.794,1.001,1.359c0.301,0.567,0.612,1.154,1.1,1.558c0.584,0.484,1.21,0.925,1.814,1.351
			c0.705,0.497,1.433,1.01,2.097,1.593L456.409,334.913z"/>
		<path fill="#040000" d="M459.699,337.546c-0.458-0.049-0.851,0.005-1.198,0.052c-0.535,0.073-0.958,0.129-1.462-0.181
			c-0.36-0.221-0.586-0.587-0.825-0.974c-0.403-0.652-0.86-1.391-1.979-1.389c-0.173,0-0.313,0.168-0.313,0.376
			c0,0.208,0.14,0.375,0.313,0.375c0.803-0.001,1.1,0.478,1.475,1.085c0.259,0.419,0.553,0.894,1.042,1.195
			c0.673,0.414,1.255,0.335,1.818,0.259c0.333-0.045,0.678-0.092,1.074-0.05c1.934,0.205,1.893,1.157,1.82,2.885l-0.029,1.01
			c-0.006,0.208,0.129,0.37,0.302,0.377c0.173,0.007,0.318-0.167,0.324-0.374l0.028-0.974
			C462.164,339.468,462.234,337.815,459.699,337.546z"/>
		<path fill="#040000" d="M428.197,290.972c0.171-0.033,0.288-0.226,0.26-0.431c-0.028-0.205-0.187-0.344-0.358-0.311l-0.276,0.054
			c-0.527,0.104-1.024,0.201-1.549,0.193c-0.173-0.003-0.315,0.163-0.317,0.37c-0.002,0.208,0.136,0.378,0.308,0.381
			c0.581,0.01,1.13-0.098,1.66-0.202L428.197,290.972z"/>
		<path fill="#040000" d="M429.446,291.232c-0.509-0.09-0.995,0.008-1.443,0.289c-0.153,0.097-0.212,0.324-0.132,0.507
			c0.081,0.184,0.27,0.255,0.423,0.159c0.329-0.207,0.686-0.278,1.061-0.212c0.171,0.03,0.33-0.111,0.355-0.317
			C429.735,291.453,429.617,291.262,429.446,291.232z"/>
	</g>
</g>
</svg>
