<?xml version="1.0" encoding="utf-8"?>
<!-- Generator: Adobe Illustrator 17.0.1, SVG Export Plug-In . SVG Version: 6.00 Build 0)  -->
<!DOCTYPE svg PUBLIC "-//W3C//DTD SVG 1.1//EN" "http://www.w3.org/Graphics/SVG/1.1/DTD/svg11.dtd">
<svg version="1.1" id="レイヤー_1" xmlns="http://www.w3.org/2000/svg" xmlns:xlink="http://www.w3.org/1999/xlink" x="0px"
	 y="0px" width="841.89px" height="595.28px" viewBox="0 0 841.89 595.28" enable-background="new 0 0 841.89 595.28"
	 xml:space="preserve">
<rect x="349.647" y="233.439" fill="#FFFFFF" stroke="#A660A3" stroke-width="2" stroke-miterlimit="10" width="141.732" height="141.732"/>
<path fill-rule="evenodd" clip-rule="evenodd" fill="#898989" stroke="#898989" stroke-width="0.5" stroke-linecap="round" stroke-linejoin="round" stroke-miterlimit="2.6131" d="
	M385.357,297.128c2.714-7.538,15.641-33.694,27.74-27.74c6.897,3.394,20.202,20.202,20.202,29.248L385.357,297.128L385.357,297.128z
	"/>
<path fill-rule="evenodd" clip-rule="evenodd" fill="#8B8B8B" stroke="#B5B5B6" stroke-width="0.5" stroke-linecap="round" stroke-linejoin="round" stroke-miterlimit="2.6131" d="
	M404.956,307.079l76.587-0.302v-33.168c-9.698-24.245-28.393-9.827-36.183,4.523C428.174,260.945,405.56,290.796,404.956,307.079
	L404.956,307.079z"/>
<path fill-rule="evenodd" clip-rule="evenodd" fill="#B5B5B6" stroke="#B5B5B6" stroke-width="0.5" stroke-linecap="round" stroke-linejoin="round" stroke-miterlimit="2.6131" d="
	M359.426,306.859l0.302-31.139c23.866-56.255,59.4,32.263,59.4,31.961L359.426,306.859L359.426,306.859z"/>
<polygon fill-rule="evenodd" clip-rule="evenodd" fill="#DCDDDD" stroke="#DCDDDD" stroke-width="0.5" stroke-linecap="round" stroke-linejoin="round" stroke-miterlimit="2.6131" points="
	359.4,306.91 481.385,306.91 481.385,355.922 359.4,355.922 359.4,306.91 "/>
<path fill-rule="evenodd" clip-rule="evenodd" fill="#636262" stroke="#FFFFFF" stroke-width="0.5" stroke-linecap="round" stroke-linejoin="round" stroke-miterlimit="2.6131" d="
	M426.383,355.922c50.796-47.719,16.235-47.957-7.509-49.255l33.96,0.252c12.61,1.991,28.935,15.352,28.793,27.968l-0.241,21.278
	L426.383,355.922L426.383,355.922z"/>
<path fill-rule="evenodd" clip-rule="evenodd" fill="#DCDDDD" stroke="#000000" stroke-width="0.5" stroke-linecap="round" stroke-linejoin="round" stroke-miterlimit="2.6131" d="
	M406.277,328.039l-26.618-8.784l11.18-19.964c3.993-6.654,21.206-11.712,29.546-1.065l13.043,20.762L406.277,328.039
	L406.277,328.039z"/>
<polygon fill-rule="evenodd" clip-rule="evenodd" stroke="#000000" stroke-width="0.5" stroke-linecap="round" stroke-linejoin="round" stroke-miterlimit="2.6131" points="
	400.954,322.982 385.515,318.457 394.566,299.292 405.213,300.622 400.954,322.982 "/>
<path fill-rule="evenodd" clip-rule="evenodd" fill="#E2E2E3" stroke="#000000" stroke-width="0.5" stroke-linecap="round" stroke-linejoin="round" stroke-miterlimit="2.6131" d="
	M405.245,300.584c-3.456-0.262-12.76-1.604-15.406-3.032l-12.309-1.188c4.075,4.176,16.852,3.146,17.126,2.954L405.245,300.584
	L405.245,300.584z"/>
<polygon fill-rule="evenodd" clip-rule="evenodd" fill="#898989" stroke="#898989" stroke-width="0.5" stroke-linecap="round" stroke-linejoin="round" stroke-miterlimit="2.6131" points="
	379.143,296.865 378.749,296.803 373.787,324.916 374.181,324.978 379.143,296.865 "/>
<polygon fill-rule="evenodd" clip-rule="evenodd" fill="#B5B5B6" stroke="#C9CACA" stroke-width="0.5" stroke-linecap="round" stroke-linejoin="round" stroke-miterlimit="2.6131" points="
	425.228,320.66 425.697,320.66 425.697,333.097 425.228,333.097 425.228,320.66 "/>
<polygon fill-rule="evenodd" clip-rule="evenodd" fill="#C9CACA" stroke="#C9CACA" stroke-width="0.5" stroke-linecap="round" stroke-linejoin="round" stroke-miterlimit="2.6131" points="
	416.367,326.814 416.56,326.489 428.303,331.551 428.11,331.877 416.367,326.814 "/>
<polygon fill-rule="evenodd" clip-rule="evenodd" fill="#B5B5B6" stroke="#C9CACA" stroke-width="0.5" stroke-linecap="round" stroke-linejoin="round" stroke-miterlimit="2.6131" points="
	415.115,320.556 415.584,320.556 415.584,332.992 415.115,332.992 415.115,320.556 "/>
<path fill-rule="evenodd" clip-rule="evenodd" stroke="#000000" stroke-width="0.5" stroke-linecap="round" stroke-linejoin="round" stroke-miterlimit="2.6131" d="
	M415.219,332.239h0.261c0.143,0,0.261,0.106,0.261,0.235v0.565c0,0.13-0.117,0.235-0.261,0.235h-0.261
	c-0.143,0-0.261-0.106-0.261-0.235v-0.565C414.959,332.345,415.076,332.239,415.219,332.239L415.219,332.239z"/>
<polygon fill-rule="evenodd" clip-rule="evenodd" fill="#C9CACA" stroke="#C9CACA" stroke-width="0.5" stroke-linecap="round" stroke-linejoin="round" stroke-miterlimit="2.6131" points="
	404.169,326.866 404.362,326.541 416.105,331.603 415.912,331.929 404.169,326.866 "/>
<path fill-rule="evenodd" clip-rule="evenodd" stroke="#000000" stroke-width="0.5" stroke-linecap="round" stroke-linejoin="round" stroke-miterlimit="2.6131" d="
	M425.332,332.343h0.261c0.143,0,0.261,0.106,0.261,0.236v0.565c0,0.13-0.117,0.236-0.261,0.236h-0.261
	c-0.143,0-0.261-0.106-0.261-0.236v-0.565C425.071,332.449,425.189,332.343,425.332,332.343L425.332,332.343z"/>
<polygon fill-rule="evenodd" clip-rule="evenodd" fill="#C9CACA" stroke="#C9CACA" stroke-width="0.5" stroke-linecap="round" stroke-linejoin="round" stroke-miterlimit="2.6131" points="
	415.688,326.707 416.157,326.707 416.157,340.469 415.688,340.469 415.688,326.707 "/>
<path fill-rule="evenodd" clip-rule="evenodd" stroke="#000000" stroke-width="0.5" stroke-linecap="round" stroke-linejoin="round" stroke-miterlimit="2.6131" d="
	M415.793,339.635h0.261c0.143,0,0.261,0.117,0.261,0.261v0.626c0,0.143-0.117,0.261-0.261,0.261h-0.261
	c-0.143,0-0.261-0.117-0.261-0.261v-0.626C415.532,339.752,415.649,339.635,415.793,339.635L415.793,339.635z"/>
<polygon fill-rule="evenodd" clip-rule="evenodd" fill="#C9CACA" stroke="#C9CACA" stroke-width="0.5" stroke-linecap="round" stroke-linejoin="round" stroke-miterlimit="2.6131" points="
	404.012,326.655 404.481,326.655 404.481,340.417 404.012,340.417 404.012,326.655 "/>
<path fill-rule="evenodd" clip-rule="evenodd" stroke="#000000" stroke-width="0.5" stroke-linecap="round" stroke-linejoin="round" stroke-miterlimit="2.6131" d="
	M404.116,339.582h0.261c0.143,0,0.261,0.117,0.261,0.261v0.626c0,0.143-0.117,0.261-0.261,0.261h-0.261
	c-0.143,0-0.261-0.117-0.261-0.261v-0.626C403.855,339.7,403.973,339.582,404.116,339.582L404.116,339.582z"/>
<polygon fill-rule="evenodd" clip-rule="evenodd" fill="#EFEFEF" points="403.083,319.996 425.975,319.996 429.701,325.893 
	429.701,326.917 402.609,326.911 402.534,325.871 403.083,319.996 "/>
<polygon fill-rule="evenodd" clip-rule="evenodd" fill="#B5B5B6" stroke="#B5B5B6" stroke-width="0.5" stroke-linecap="round" stroke-linejoin="round" stroke-miterlimit="2.6131" points="
	402.76,325.873 429.502,325.873 429.502,326.759 402.76,326.759 402.76,325.873 "/>
<polygon fill-rule="evenodd" clip-rule="evenodd" fill="#C9CACA" stroke="#C9CACA" stroke-width="0.5" stroke-linecap="round" stroke-linejoin="round" stroke-miterlimit="2.6131" points="
	427.938,326.863 428.408,326.863 428.408,340.625 427.938,340.625 427.938,326.863 "/>
<path fill-rule="evenodd" clip-rule="evenodd" stroke="#000000" stroke-width="0.5" stroke-linecap="round" stroke-linejoin="round" stroke-miterlimit="2.6131" d="
	M428.043,339.791h0.261c0.143,0,0.261,0.117,0.261,0.261v0.626c0,0.143-0.117,0.261-0.261,0.261h-0.261
	c-0.143,0-0.261-0.117-0.261-0.261v-0.626C427.782,339.908,427.899,339.791,428.043,339.791L428.043,339.791z"/>
<polygon fill-rule="evenodd" clip-rule="evenodd" fill="#9FA0A0" stroke="#9FA0A0" stroke-width="0.5" stroke-linecap="round" stroke-linejoin="round" stroke-miterlimit="2.6131" points="
	403.81,330.61 403.29,332.998 405.056,344.212 405.575,344.316 403.81,332.998 404.329,330.818 403.81,330.61 "/>
<polygon fill-rule="evenodd" clip-rule="evenodd" fill="#9FA0A0" stroke="#9FA0A0" stroke-width="0.5" stroke-linecap="round" stroke-linejoin="round" stroke-miterlimit="2.6131" points="
	392.284,330.714 392.803,333.102 391.038,344.316 390.519,344.42 392.284,333.102 391.765,330.922 392.284,330.714 "/>
<polygon fill-rule="evenodd" clip-rule="evenodd" fill="#727171" stroke="#000000" stroke-width="0.5" stroke-linecap="round" stroke-linejoin="round" stroke-miterlimit="2.6131" points="
	389.792,334.556 406.198,334.556 405.471,338.502 390.727,338.502 389.792,334.556 "/>
<path fill-rule="evenodd" clip-rule="evenodd" fill="#9FA0A0" stroke="#000000" stroke-width="0.5" stroke-linecap="round" stroke-linejoin="round" stroke-miterlimit="2.6131" d="
	M392.907,329.26h10.695c0.685,0,1.552,0.246,1.661,0.704l1.038,4.368c0.109,0.459-0.561,0.845-1.246,0.845h-14.121
	c-0.685,0-1.384-0.39-1.246-0.845l1.35-4.439C391.177,329.439,392.222,329.26,392.907,329.26L392.907,329.26z"/>
<polygon fill-rule="evenodd" clip-rule="evenodd" fill="#9FA0A0" stroke="#9FA0A0" stroke-width="0.5" stroke-linecap="round" stroke-linejoin="round" stroke-miterlimit="2.6131" points="
	390.207,336.217 390.727,338.605 388.961,349.819 388.442,349.923 390.207,338.605 389.688,336.425 390.207,336.217 "/>
<polygon fill-rule="evenodd" clip-rule="evenodd" fill="#9FA0A0" stroke="#9FA0A0" stroke-width="0.5" stroke-linecap="round" stroke-linejoin="round" stroke-miterlimit="2.6131" points="
	405.99,336.217 405.471,338.605 407.236,349.819 407.755,349.923 405.99,338.605 406.509,336.425 405.99,336.217 "/>
<polygon fill-rule="evenodd" clip-rule="evenodd" fill="#C9CACA" stroke="#C9CACA" stroke-width="0.5" stroke-linecap="round" stroke-linejoin="round" stroke-miterlimit="2.6131" points="
	395.617,328.608 395.927,336.206 396.146,336.206 395.617,328.608 "/>
<path fill-rule="evenodd" clip-rule="evenodd" fill="#FDD000" stroke="#BDA7B2" stroke-width="0.5" stroke-linecap="round" stroke-linejoin="round" stroke-miterlimit="2.6131" d="
	M395.953,331.782c0.919,0,1.669,0.58,1.669,1.292c0,0.712-0.75,1.292-1.669,1.292s-1.669-0.58-1.669-1.292
	C394.284,332.362,395.033,331.782,395.953,331.782L395.953,331.782z"/>
<path fill-rule="evenodd" clip-rule="evenodd" fill="#969797" stroke="#969797" stroke-width="0.5" stroke-linecap="round" stroke-linejoin="round" stroke-miterlimit="2.6131" d="
	M394.556,334.498c1.038-0.266,2.077-0.22,3.115,0c0.251,0.053,0.467,0.21,0.467,0.467l0,0c0,0.257-0.213,0.506-0.467,0.467
	c-1.038-0.16-2.077-0.181-3.115,0c-0.253,0.044-0.467-0.21-0.467-0.467l0,0C394.089,334.708,394.307,334.561,394.556,334.498
	L394.556,334.498z"/>
<path fill-rule="evenodd" clip-rule="evenodd" fill="#DADBDB" stroke="#C7C8C8" stroke-width="0.5" stroke-linecap="round" stroke-linejoin="round" stroke-miterlimit="2.6131" d="
	M395.163,328.91c0.311-0.048,0.623-0.048,0.935,0c0.451,0.07,0.831,0.374,0.831,0.831l0,0c0,1.287-2.596,1.029-2.596,0l0,0
	C394.333,329.284,394.712,328.98,395.163,328.91L395.163,328.91z"/>
<path fill-rule="evenodd" clip-rule="evenodd" fill="#FFFCDB" d="M395.617,328.908c0.632,0,1.148,0.289,1.148,0.643
	c0,0.354-0.516,0.643-1.148,0.643s-1.148-0.289-1.148-0.643C394.469,329.196,394.985,328.908,395.617,328.908L395.617,328.908z"/>
<path fill-rule="evenodd" clip-rule="evenodd" fill="#B5B5B6" stroke="#B5B5B6" stroke-width="0.5" stroke-linecap="round" stroke-linejoin="round" stroke-miterlimit="2.6131" d="
	M395.851,330.475c0.841,0,1.825,0.582,1.825,0.931c0,0.349-1.878,0.41-2.719,0.41c-0.841,0-0.633-0.359-0.633-0.708
	C394.324,330.76,395.01,330.475,395.851,330.475L395.851,330.475z"/>
<path fill-rule="evenodd" clip-rule="evenodd" fill="#FFFFFF" d="M395.453,330.74c0.2-0.31,1.476-0.018,1.64,0.31
	c-0.382-0.189-1.221-0.11-1.64,0V330.74L395.453,330.74z"/>
<path fill-rule="evenodd" clip-rule="evenodd" fill="#FFFCDB" stroke="#C9CACA" stroke-width="0.5" stroke-linecap="round" stroke-linejoin="round" stroke-miterlimit="2.6131" d="
	M395.929,331.672c0.887,0,1.61,0.56,1.61,1.246c0,0.686-0.723,1.246-1.61,1.246c-0.886,0-1.609-0.56-1.609-1.246
	C394.32,332.232,395.043,331.672,395.929,331.672L395.929,331.672z"/>
<path fill="none" stroke="#DCDDDD" stroke-width="0.25" stroke-linecap="round" stroke-linejoin="round" stroke-miterlimit="2.6131" d="
	M395.929,331.926c0.706,0,1.282,0.446,1.282,0.992c0,0.547-0.576,0.992-1.282,0.992c-0.706,0-1.282-0.446-1.282-0.992
	C394.648,332.372,395.223,331.926,395.929,331.926L395.929,331.926z M395.929,332.13c0.561,0,1.018,0.354,1.018,0.788
	c0,0.434-0.457,0.788-1.018,0.788c-0.561,0-1.018-0.354-1.018-0.788C394.911,332.484,395.369,332.13,395.929,332.13L395.929,332.13z
	 M395.929,332.381c0.382,0,0.693,0.241,0.693,0.537c0,0.296-0.312,0.537-0.693,0.537c-0.382,0-0.693-0.241-0.693-0.537
	C395.236,332.623,395.548,332.381,395.929,332.381L395.929,332.381z M395.929,332.655c0.188,0,0.34,0.118,0.34,0.263
	c0,0.145-0.153,0.264-0.34,0.264c-0.187,0-0.34-0.118-0.34-0.264C395.589,332.773,395.742,332.655,395.929,332.655L395.929,332.655z
	"/>
<path fill="none" stroke="#C9CACA" stroke-width="0.5" stroke-linecap="round" stroke-linejoin="round" stroke-miterlimit="2.6131" d="
	M395.927,336.115c0.321,0,0.583,0.258,0.583,0.574c0,0.316-0.262,0.574-0.583,0.574c-0.321,0-0.583-0.258-0.583-0.574
	C395.344,336.373,395.606,336.115,395.927,336.115L395.927,336.115z"/>
<polygon fill-rule="evenodd" clip-rule="evenodd" fill="#C9CACA" stroke="#C9CACA" stroke-width="0.5" stroke-linecap="round" stroke-linejoin="round" stroke-miterlimit="2.6131" points="
	400.142,328.675 400.452,336.273 400.671,336.273 400.142,328.675 "/>
<path fill-rule="evenodd" clip-rule="evenodd" fill="#FDD000" stroke="#D8BFCB" stroke-width="0.5" stroke-linecap="round" stroke-linejoin="round" stroke-miterlimit="2.6131" d="
	M400.478,331.848c0.919,0,1.669,0.581,1.669,1.292s-0.75,1.292-1.669,1.292c-0.919,0-1.669-0.581-1.669-1.292
	S399.558,331.848,400.478,331.848L400.478,331.848z"/>
<path fill-rule="evenodd" clip-rule="evenodd" fill="#747374" stroke="#747374" stroke-width="0.5" stroke-linecap="round" stroke-linejoin="round" stroke-miterlimit="2.6131" d="
	M400.376,330.542c0.841,0,1.825,0.582,1.825,0.931c0,0.349-1.878,0.41-2.719,0.41s-0.633-0.359-0.633-0.708
	C398.849,330.826,399.535,330.542,400.376,330.542L400.376,330.542z"/>
<path fill-rule="evenodd" clip-rule="evenodd" fill="#FFFFFF" d="M399.978,330.807c0.2-0.31,1.476-0.018,1.64,0.31
	c-0.382-0.189-1.221-0.11-1.64,0V330.807L399.978,330.807z"/>
<path fill-rule="evenodd" clip-rule="evenodd" fill="#FFFCDB" stroke="#C9CACA" stroke-width="0.5" stroke-linecap="round" stroke-linejoin="round" stroke-miterlimit="2.6131" d="
	M400.455,331.739c0.886,0,1.609,0.56,1.609,1.246s-0.723,1.246-1.609,1.246c-0.887,0-1.609-0.56-1.609-1.246
	S399.568,331.739,400.455,331.739L400.455,331.739z"/>
<path fill="none" stroke="#EFEFEF" stroke-width="0.25" stroke-linecap="round" stroke-linejoin="round" stroke-miterlimit="2.6131" d="
	M400.455,331.992c0.706,0,1.282,0.446,1.282,0.992s-0.576,0.992-1.282,0.992c-0.706,0-1.282-0.446-1.282-0.992
	S399.749,331.992,400.455,331.992L400.455,331.992z M400.455,332.197c0.561,0,1.018,0.354,1.018,0.788s-0.457,0.788-1.018,0.788
	c-0.561,0-1.018-0.354-1.018-0.788S399.894,332.197,400.455,332.197L400.455,332.197z M400.455,332.448
	c0.382,0,0.693,0.241,0.693,0.537s-0.311,0.537-0.693,0.537c-0.382,0-0.693-0.241-0.693-0.537S400.073,332.448,400.455,332.448
	L400.455,332.448z M400.455,332.721c0.187,0,0.34,0.118,0.34,0.263c0,0.145-0.153,0.264-0.34,0.264c-0.188,0-0.34-0.118-0.34-0.264
	C400.114,332.84,400.267,332.721,400.455,332.721L400.455,332.721z"/>
<path fill="none" stroke="#C9CACA" stroke-width="0.5" stroke-linecap="round" stroke-linejoin="round" stroke-miterlimit="2.6131" d="
	M400.452,336.182c0.321,0,0.583,0.258,0.583,0.574c0,0.316-0.262,0.574-0.583,0.574c-0.321,0-0.583-0.258-0.583-0.574
	C399.869,336.44,400.131,336.182,400.452,336.182L400.452,336.182z"/>
<path fill-rule="evenodd" clip-rule="evenodd" fill="#B5B5B6" stroke="#B5B5B6" stroke-width="0.5" stroke-linecap="round" stroke-linejoin="round" stroke-miterlimit="2.6131" d="
	M401.885,330.301l-3.194,0.333c-0.466-0.732-0.466-1.73,0.399-2.129c0.932,0,2.529,0.665,3.061,0.665
	C402.152,329.436,402.152,330.235,401.885,330.301L401.885,330.301z"/>
<path fill-rule="evenodd" clip-rule="evenodd" fill="#B5B5B6" stroke="#B5B5B6" stroke-width="0.5" stroke-linecap="round" stroke-linejoin="round" stroke-miterlimit="2.6131" d="
	M400.652,334.202c-0.841,0-1.825,0.582-1.825,0.931s1.878,0.41,2.719,0.41s0.633-0.359,0.633-0.708S401.493,334.202,400.652,334.202
	L400.652,334.202z"/>
<path fill-rule="evenodd" clip-rule="evenodd" fill="#9FA0A0" d="M409.738,321.318c2.089,0,3.793,0.747,3.793,1.664
	c0,0.916-1.704,1.664-3.793,1.664c-2.089,0-3.793-0.747-3.793-1.664C405.945,322.065,407.649,321.318,409.738,321.318
	L409.738,321.318z"/>
<path fill-rule="evenodd" clip-rule="evenodd" fill="#FFFFFF" stroke="#FFFFFF" stroke-width="0.5" stroke-linecap="round" stroke-linejoin="round" stroke-miterlimit="2.6131" d="
	M409.738,320.719c2.089,0,3.793,0.747,3.793,1.664c0,0.916-1.704,1.664-3.793,1.664c-2.089,0-3.793-0.747-3.793-1.664
	C405.945,321.466,407.649,320.719,409.738,320.719L409.738,320.719z"/>
<path fill-rule="evenodd" clip-rule="evenodd" fill="#DCDDDD" stroke="#DCDDDD" stroke-width="0.5" stroke-linecap="round" stroke-linejoin="round" stroke-miterlimit="2.6131" d="
	M420.246,320.123h2.277v2.884c-0.074,0.684-2.155,0.662-2.277,0V320.123L420.246,320.123z"/>
<path fill-rule="evenodd" clip-rule="evenodd" fill="#B5B5B6" stroke="#DCDDDD" stroke-width="0.216" stroke-miterlimit="2.6131" d="
	M421.383,319.721c0.636,0,1.154,0.173,1.154,0.385c0,0.212-0.518,0.385-1.154,0.385c-0.635,0-1.154-0.173-1.154-0.385
	C420.229,319.894,420.748,319.721,421.383,319.721L421.383,319.721z"/>
<path fill-rule="evenodd" clip-rule="evenodd" fill="#DCDDDD" stroke="#DCDDDD" stroke-width="0.5" stroke-linecap="round" stroke-linejoin="round" stroke-miterlimit="2.6131" d="
	M422.452,320.873l0.735-0.112c0.144,0,0.131,0.007,0.243,0.158c0.051,0.655-0.124,1.467-0.925,1.855v-0.191
	c0.614-0.384,0.719-0.838,0.702-1.539l-0.741,0.184L422.452,320.873L422.452,320.873z"/>
<path fill-rule="evenodd" clip-rule="evenodd" fill="#DCDDDD" stroke="#DCDDDD" stroke-width="0.5" stroke-linecap="round" stroke-linejoin="round" stroke-miterlimit="2.6131" d="
	M419.693,320.922h-2.277v2.885c0.074,0.684,2.155,0.662,2.277,0V320.922L419.693,320.922z"/>
<path fill-rule="evenodd" clip-rule="evenodd" fill="#B5B5B6" stroke="#DCDDDD" stroke-width="0.216" stroke-miterlimit="2.6131" d="
	M418.557,320.519c-0.635,0-1.154,0.173-1.154,0.385c0,0.212,0.518,0.385,1.154,0.385c0.636,0,1.154-0.173,1.154-0.385
	C419.711,320.692,419.192,320.519,418.557,320.519L418.557,320.519z"/>
<path fill-rule="evenodd" clip-rule="evenodd" fill="#DCDDDD" stroke="#DCDDDD" stroke-width="0.5" stroke-linecap="round" stroke-linejoin="round" stroke-miterlimit="2.6131" d="
	M417.488,321.671l-0.735-0.112c-0.144,0-0.131,0.007-0.243,0.158c-0.051,0.655,0.124,1.467,0.925,1.855v-0.191
	c-0.614-0.384-0.719-0.838-0.702-1.539l0.741,0.184L417.488,321.671L417.488,321.671z"/>
<polygon fill-rule="evenodd" clip-rule="evenodd" fill="#C9CACA" stroke="#C9CACA" stroke-width="0.5" stroke-linecap="round" stroke-linejoin="round" stroke-miterlimit="2.6131" points="
	408.203,320.188 411.943,324.744 412.078,324.642 408.203,320.188 "/>
<path fill-rule="evenodd" clip-rule="evenodd" fill="#FFFFFF" stroke="#000000" stroke-width="0.5" stroke-linecap="round" stroke-linejoin="round" stroke-miterlimit="2.6131" d="
	M409.892,321.995c0.569-0.429,1.304-0.42,1.636,0.02c0.332,0.44,0.14,1.15-0.429,1.579c-0.569,0.429-1.303,0.42-1.636-0.02
	C409.131,323.133,409.324,322.424,409.892,321.995L409.892,321.995z"/>
<path fill-rule="evenodd" clip-rule="evenodd" fill="#FFFFFF" stroke="#A2A2A2" stroke-width="0.5" stroke-linecap="round" stroke-linejoin="round" stroke-miterlimit="2.6131" d="
	M410.297,324.327c0.518-0.649,1.182-1.106,1.927-1.455c0.18-0.084,0.387-0.088,0.507,0.071l0,0c0.12,0.159,0.104,0.413-0.071,0.507
	c-0.717,0.386-1.369,0.858-1.927,1.455c-0.136,0.145-0.387,0.088-0.507-0.071l0,0C410.106,324.676,410.172,324.483,410.297,324.327
	L410.297,324.327z"/>
<path fill-rule="evenodd" clip-rule="evenodd" fill="#FFFFFF" stroke="#949495" stroke-width="0.5" stroke-linecap="round" stroke-linejoin="round" stroke-miterlimit="2.6131" d="
	M408.063,320.587c0.17-0.176,0.363-0.321,0.578-0.436c0.312-0.167,0.688-0.157,0.902,0.126l0,0c0.601,0.796-1.125,1.849-1.606,1.212
	l0,0C407.724,321.206,407.816,320.841,408.063,320.587L408.063,320.587z"/>
<path fill-rule="evenodd" clip-rule="evenodd" fill="#FFFCDB" d="M408.343,320.374c0.391-0.295,0.845-0.357,1.01-0.138
	c0.165,0.219-0.019,0.638-0.41,0.934c-0.391,0.295-0.845,0.357-1.01,0.138C407.767,321.088,407.952,320.669,408.343,320.374
	L408.343,320.374z"/>
<path fill-rule="evenodd" clip-rule="evenodd" fill="#B5B5B6" stroke="#B5B5B6" stroke-width="0.5" stroke-linecap="round" stroke-linejoin="round" stroke-miterlimit="2.6131" d="
	M409.22,321.234c0.52-0.393,1.401-0.492,1.564-0.276c0.163,0.216-0.97,1.131-1.491,1.523c-0.52,0.393-0.559,0.074-0.722-0.142
	C408.408,322.123,408.699,321.627,409.22,321.234L409.22,321.234z"/>
<path fill-rule="evenodd" clip-rule="evenodd" fill="#FFFFFF" d="M409.097,321.584c-0.021-0.285,0.905-0.701,1.159-0.574
	c-0.325,0.061-0.807,0.502-1.014,0.766L409.097,321.584L409.097,321.584z"/>
<path fill-rule="evenodd" clip-rule="evenodd" fill="#FFFCDB" stroke="#D3D3D4" stroke-width="0.5" stroke-linecap="round" stroke-linejoin="round" stroke-miterlimit="2.6131" d="
	M409.827,321.938c0.548-0.414,1.257-0.405,1.578,0.019c0.321,0.424,0.135,1.108-0.414,1.522c-0.548,0.414-1.257,0.405-1.578-0.019
	C409.093,323.036,409.278,322.352,409.827,321.938L409.827,321.938z"/>
<path fill="none" stroke="#E6E6E6" stroke-width="0.5" stroke-linecap="round" stroke-linejoin="round" stroke-miterlimit="2.6131" d="
	M409.945,322.095c0.437-0.33,1.001-0.323,1.256,0.015c0.255,0.338,0.107,0.883-0.33,1.212c-0.437,0.33-1.001,0.323-1.256-0.015
	C409.361,322.969,409.509,322.425,409.945,322.095L409.945,322.095z M410.041,322.221c0.347-0.262,0.795-0.256,0.998,0.012
	c0.203,0.268,0.085,0.701-0.262,0.963c-0.347,0.262-0.795,0.256-0.998-0.012C409.576,322.916,409.694,322.483,410.041,322.221
	L410.041,322.221z M410.158,322.377c0.236-0.178,0.542-0.175,0.68,0.008c0.138,0.183,0.058,0.477-0.178,0.656
	c-0.236,0.178-0.541,0.175-0.68-0.008C409.842,322.85,409.922,322.555,410.158,322.377L410.158,322.377z M410.286,322.546
	c0.116-0.088,0.266-0.086,0.334,0.004c0.068,0.09,0.029,0.234-0.087,0.322c-0.116,0.087-0.266,0.086-0.334-0.004
	C410.13,322.778,410.17,322.633,410.286,322.546L410.286,322.546z"/>
<path fill="none" stroke="#C9CACA" stroke-width="0.5" stroke-linecap="round" stroke-linejoin="round" stroke-miterlimit="2.6131" d="
	M411.9,324.688c0.199-0.15,0.481-0.113,0.629,0.083c0.148,0.196,0.106,0.477-0.093,0.627c-0.199,0.15-0.481,0.113-0.629-0.083
	C411.66,325.119,411.702,324.837,411.9,324.688L411.9,324.688z"/>
<path fill-rule="evenodd" clip-rule="evenodd" fill="#DCDDDD" stroke="#DCDDDD" stroke-width="0.5" stroke-linecap="round" stroke-linejoin="round" stroke-miterlimit="2.6131" d="
	M420.832,319.075h-1.997v2.53c0.065,0.6,1.89,0.581,1.997,0V319.075L420.832,319.075z"/>
<path fill-rule="evenodd" clip-rule="evenodd" fill="#B5B5B6" stroke="#DCDDDD" stroke-width="0.216" stroke-miterlimit="2.6131" d="
	M419.835,318.723c-0.558,0-1.012,0.152-1.012,0.338c0,0.186,0.455,0.337,1.012,0.337c0.557,0,1.012-0.152,1.012-0.337
	C420.847,318.874,420.392,318.723,419.835,318.723L419.835,318.723z"/>
<path fill-rule="evenodd" clip-rule="evenodd" fill="#DCDDDD" stroke="#DCDDDD" stroke-width="0.5" stroke-linecap="round" stroke-linejoin="round" stroke-miterlimit="2.6131" d="
	M418.897,319.733l-0.644-0.098c-0.127,0-0.115,0.006-0.213,0.139c-0.045,0.574,0.108,1.287,0.811,1.627v-0.167
	c-0.539-0.336-0.631-0.735-0.616-1.35l0.65,0.162L418.897,319.733L418.897,319.733z"/>
<polygon fill-rule="evenodd" clip-rule="evenodd" fill="#DCDDDD" stroke="#000000" stroke-width="0.5" stroke-linecap="round" stroke-linejoin="round" stroke-miterlimit="2.6131" points="
	377.296,318.377 391.132,318.377 391.132,324.465 377.296,324.465 377.296,318.377 "/>
<path fill-rule="evenodd" clip-rule="evenodd" fill="#B5B5B6" stroke="#B5B5B6" stroke-width="0.5" stroke-linecap="round" stroke-linejoin="round" stroke-miterlimit="2.6131" d="
	M379.523,320.004c1.143,0,2.075,0.87,2.075,1.937s-0.932,1.937-2.075,1.937c-1.143,0-2.075-0.87-2.075-1.937
	S378.38,320.004,379.523,320.004L379.523,320.004z"/>
<path fill-rule="evenodd" clip-rule="evenodd" fill="#B5B5B6" stroke="#B5B5B6" stroke-width="0.5" stroke-linecap="round" stroke-linejoin="round" stroke-miterlimit="2.6131" d="
	M388.792,320.037c1.143,0,2.075,0.87,2.075,1.937c0,1.067-0.932,1.937-2.075,1.937c-1.143,0-2.075-0.87-2.075-1.937
	C386.717,320.907,387.649,320.037,388.792,320.037L388.792,320.037z"/>
<polygon fill-rule="evenodd" clip-rule="evenodd" fill="#B5B5B6" stroke="#B5B5B6" stroke-width="0.5" stroke-linecap="round" stroke-linejoin="round" stroke-miterlimit="2.6131" points="
	382.198,319.933 386.21,319.933 386.21,323.422 382.198,323.422 382.198,319.933 "/>
<polygon fill-rule="evenodd" clip-rule="evenodd" fill="#9FA0A0" points="377.231,318.239 391.204,318.239 391.204,319.484 
	377.231,319.484 377.231,318.239 "/>
<polygon fill-rule="evenodd" clip-rule="evenodd" fill="#FFFFFF" stroke="#FFFFFF" stroke-width="0.5" stroke-linecap="round" stroke-linejoin="round" stroke-miterlimit="2.6131" points="
	382.531,320.312 385.954,320.312 385.954,322.122 382.531,322.122 382.531,320.312 "/>
<path fill-rule="evenodd" clip-rule="evenodd" stroke="#000000" stroke-width="0.5" stroke-linecap="round" stroke-linejoin="round" stroke-miterlimit="2.6131" d="
	M383.098,322.534c0.195,0,0.354,0.159,0.354,0.354c0,0.195-0.159,0.354-0.354,0.354c-0.195,0-0.354-0.159-0.354-0.354
	C382.745,322.692,382.904,322.534,383.098,322.534L383.098,322.534z"/>
<path fill-rule="evenodd" clip-rule="evenodd" stroke="#000000" stroke-width="0.5" stroke-linecap="round" stroke-linejoin="round" stroke-miterlimit="2.6131" d="
	M384.234,322.534c0.195,0,0.354,0.159,0.354,0.354c0,0.195-0.159,0.354-0.354,0.354c-0.195,0-0.354-0.159-0.354-0.354
	C383.88,322.692,384.039,322.534,384.234,322.534L384.234,322.534z"/>
<path fill-rule="evenodd" clip-rule="evenodd" stroke="#000000" stroke-width="0.5" stroke-linecap="round" stroke-linejoin="round" stroke-miterlimit="2.6131" d="
	M385.386,322.517c0.195,0,0.354,0.159,0.354,0.354c0,0.195-0.159,0.354-0.354,0.354s-0.354-0.159-0.354-0.354
	C385.032,322.676,385.191,322.517,385.386,322.517L385.386,322.517z"/>
<path fill-rule="evenodd" clip-rule="evenodd" fill="#9FA0A0" stroke="#9FA0A0" stroke-width="0.5" stroke-linecap="round" stroke-linejoin="round" stroke-miterlimit="2.6131" d="
	M377.527,316.493h13.381c0.1,0,0.181,0.081,0.181,0.181v0.329c0,0.1-0.081,0.181-0.181,0.181h-13.381
	c-0.1,0-0.181-0.081-0.181-0.181v-0.329C377.346,316.575,377.428,316.493,377.527,316.493L377.527,316.493z"/>
<polygon fill-rule="evenodd" clip-rule="evenodd" fill="#DCDDDD" stroke="#DCDDDD" stroke-width="0.5" stroke-linecap="round" stroke-linejoin="round" stroke-miterlimit="2.6131" points="
	391.175,316.583 391.625,316.583 391.625,319.879 391.175,319.879 391.175,316.583 "/>
<polygon fill-rule="evenodd" clip-rule="evenodd" fill="#DCDDDD" stroke="#DCDDDD" stroke-width="0.5" stroke-linecap="round" stroke-linejoin="round" stroke-miterlimit="2.6131" points="
	376.942,316.583 377.391,316.583 377.391,319.879 376.942,319.879 376.942,316.583 "/>
<polygon fill-rule="evenodd" clip-rule="evenodd" fill="#898989" stroke="#898989" stroke-width="0.5" stroke-linecap="round" stroke-linejoin="round" stroke-miterlimit="2.6131" points="
	389.591,298.266 389.197,298.2 384.235,327.867 384.629,327.932 389.591,298.266 "/>
</svg>
