<?xml version="1.0" encoding="utf-8"?>
<!-- Generator: Adobe Illustrator 17.0.1, SVG Export Plug-In . SVG Version: 6.00 Build 0)  -->
<!DOCTYPE svg PUBLIC "-//W3C//DTD SVG 1.1//EN" "http://www.w3.org/Graphics/SVG/1.1/DTD/svg11.dtd">
<svg version="1.1" id="レイヤー_1" xmlns="http://www.w3.org/2000/svg" xmlns:xlink="http://www.w3.org/1999/xlink" x="0px"
	 y="0px" width="841.89px" height="595.28px" viewBox="0 0 841.89 595.28" enable-background="new 0 0 841.89 595.28"
	 xml:space="preserve">
<rect x="350.431" y="227.14" fill="#A660A3" stroke="#A660A3" stroke-width="2" stroke-miterlimit="10" width="141.732" height="141.732"/>
<polygon fill-rule="evenodd" clip-rule="evenodd" points="373.93,318.283 374.083,318.428 376.074,316.326 375.921,316.182 
	373.93,318.283 "/>
<polygon fill-rule="evenodd" clip-rule="evenodd" points="376.959,318.292 377.111,318.437 379.103,316.337 378.95,316.192 
	376.959,318.292 "/>
<polygon fill-rule="evenodd" clip-rule="evenodd" points="379.988,318.301 380.141,318.446 382.132,316.345 381.98,316.201 
	379.988,318.301 "/>
<polygon fill-rule="evenodd" clip-rule="evenodd" points="383.018,318.312 383.17,318.456 385.162,316.354 385.009,316.21 
	383.018,318.312 "/>
<polygon fill-rule="evenodd" clip-rule="evenodd" points="386.047,318.321 386.2,318.465 388.191,316.364 388.039,316.22 
	386.047,318.321 "/>
<polygon fill-rule="evenodd" clip-rule="evenodd" points="389.076,318.33 389.229,318.474 391.221,316.373 391.068,316.229 
	389.076,318.33 "/>
<polygon fill-rule="evenodd" clip-rule="evenodd" points="392.106,318.339 392.259,318.484 394.25,316.382 394.097,316.238 
	392.106,318.339 "/>
<polygon fill-rule="evenodd" clip-rule="evenodd" points="395.136,318.348 395.289,318.493 397.28,316.392 397.127,316.247 
	395.136,318.348 "/>
<polygon fill-rule="evenodd" clip-rule="evenodd" points="398.165,318.358 398.317,318.502 400.309,316.401 400.156,316.256 
	398.165,318.358 "/>
<polygon fill-rule="evenodd" clip-rule="evenodd" points="401.194,318.366 401.347,318.511 403.339,316.41 403.186,316.266 
	401.194,318.366 "/>
<polygon fill-rule="evenodd" clip-rule="evenodd" points="404.224,318.376 404.377,318.521 406.368,316.419 406.215,316.275 
	404.224,318.376 "/>
<polygon fill-rule="evenodd" clip-rule="evenodd" points="407.253,318.385 407.406,318.53 409.398,316.428 409.245,316.283 
	407.253,318.385 "/>
<polygon fill-rule="evenodd" clip-rule="evenodd" points="410.283,318.394 410.436,318.539 412.427,316.438 412.274,316.293 
	410.283,318.394 "/>
<polygon fill-rule="evenodd" clip-rule="evenodd" points="413.312,318.404 413.465,318.548 415.456,316.447 415.304,316.302 
	413.312,318.404 "/>
<polygon fill-rule="evenodd" clip-rule="evenodd" points="416.341,318.413 416.494,318.557 418.485,316.457 418.332,316.312 
	416.341,318.413 "/>
<polygon fill-rule="evenodd" clip-rule="evenodd" points="419.371,318.422 419.524,318.567 421.516,316.466 421.363,316.321 
	419.371,318.422 "/>
<polygon fill-rule="evenodd" clip-rule="evenodd" points="422.401,318.431 422.554,318.575 424.545,316.475 424.392,316.33 
	422.401,318.431 "/>
<polygon fill-rule="evenodd" clip-rule="evenodd" points="425.43,318.44 425.582,318.585 427.574,316.484 427.421,316.339 
	425.43,318.44 "/>
<polygon fill-rule="evenodd" clip-rule="evenodd" points="428.46,318.45 428.613,318.595 430.604,316.493 430.45,316.349 
	428.46,318.45 "/>
<polygon fill-rule="evenodd" clip-rule="evenodd" points="431.489,318.46 431.642,318.604 433.633,316.502 433.479,316.358 
	431.489,318.46 "/>
<polygon fill-rule="evenodd" clip-rule="evenodd" points="434.518,318.468 434.671,318.613 436.662,316.513 436.508,316.368 
	434.518,318.468 "/>
<polygon fill-rule="evenodd" clip-rule="evenodd" points="437.547,318.478 437.7,318.622 439.692,316.522 439.538,316.377 
	437.547,318.478 "/>
<polygon fill-rule="evenodd" clip-rule="evenodd" points="440.578,318.487 440.731,318.632 442.721,316.53 442.568,316.386 
	440.578,318.487 "/>
<polygon fill-rule="evenodd" clip-rule="evenodd" points="443.606,318.496 443.759,318.64 445.751,316.54 445.597,316.396 
	443.606,318.496 "/>
<polygon fill-rule="evenodd" clip-rule="evenodd" points="446.636,318.505 446.789,318.65 448.781,316.549 448.628,316.404 
	446.636,318.505 "/>
<polygon fill-rule="evenodd" clip-rule="evenodd" points="449.665,318.515 449.818,318.659 451.81,316.558 451.657,316.414 
	449.665,318.515 "/>
<polygon fill-rule="evenodd" clip-rule="evenodd" points="452.694,318.524 452.848,318.669 454.839,316.568 454.686,316.423 
	452.694,318.524 "/>
<polygon fill-rule="evenodd" clip-rule="evenodd" points="455.724,318.533 455.878,318.678 457.869,316.577 457.716,316.432 
	455.724,318.533 "/>
<polygon fill-rule="evenodd" clip-rule="evenodd" points="458.754,318.542 458.907,318.687 460.898,316.587 460.744,316.442 
	458.754,318.542 "/>
<polygon fill-rule="evenodd" clip-rule="evenodd" points="461.782,318.552 461.936,318.697 463.927,316.596 463.774,316.451 
	461.782,318.552 "/>
<polygon fill-rule="evenodd" clip-rule="evenodd" points="464.813,318.561 464.966,318.705 466.957,316.605 466.803,316.46 
	464.813,318.561 "/>
<polygon fill-rule="evenodd" clip-rule="evenodd" fill="#F7F8F8" points="374.771,297.645 468.033,297.645 468.033,348.67 
	374.771,348.67 374.771,297.645 "/>
<path fill-rule="evenodd" clip-rule="evenodd" d="M374.771,297.224c-0.233,0-0.421,0.189-0.421,0.421v51.024
	c0,0.233,0.189,0.421,0.421,0.421h93.262c0.233,0,0.421-0.189,0.421-0.421v-51.024c0-0.233-0.189-0.421-0.421-0.421H374.771
	L374.771,297.224z M467.612,298.066c0,0.822,0,49.36,0,50.182c-0.832,0-91.588,0-92.419,0c0-0.822,0-49.36,0-50.182
	C376.024,298.066,466.78,298.066,467.612,298.066L467.612,298.066z"/>
<polygon fill-rule="evenodd" clip-rule="evenodd" fill="#C9CACA" points="408.149,348.67 387.413,348.67 387.413,315.061 
	408.149,315.061 408.149,348.67 "/>
<path fill-rule="evenodd" clip-rule="evenodd" d="M387.413,314.639c-0.233,0-0.421,0.189-0.421,0.422v33.609
	c0,0.233,0.189,0.421,0.421,0.421h20.736c0.233,0,0.421-0.189,0.421-0.421v-33.609c0-0.233-0.189-0.422-0.421-0.422H387.413
	L387.413,314.639z M407.727,315.482c0,0.811,0,31.955,0,32.766c-0.792,0-19.101,0-19.893,0c0-0.811,0-31.955,0-32.766
	C388.626,315.482,406.935,315.482,407.727,315.482L407.727,315.482z"/>
<path fill-rule="evenodd" clip-rule="evenodd" fill="#DCDDDD" d="M388.817,332.197c0-1.242,1.006-2.247,2.247-2.247
	c1.241,0,2.247,1.005,2.247,2.247c0,1.242-1.006,2.248-2.247,2.248C389.823,334.445,388.817,333.438,388.817,332.197
	L388.817,332.197z"/>
<path fill-rule="evenodd" clip-rule="evenodd" d="M388.396,332.197c0,1.472,1.197,2.669,2.668,2.669
	c1.471,0,2.669-1.197,2.669-2.669c0-1.471-1.197-2.669-2.669-2.669C389.593,329.528,388.396,330.725,388.396,332.197
	L388.396,332.197z M389.239,332.197c0-1.007,0.819-1.826,1.826-1.826c1.007,0,1.826,0.819,1.826,1.826
	c0,1.007-0.819,1.827-1.826,1.827C390.058,334.023,389.239,333.204,389.239,332.197L389.239,332.197z"/>
<polygon fill-rule="evenodd" clip-rule="evenodd" fill="#E6E6E6" points="462.977,331.003 419.366,331.003 419.366,306.774 
	462.977,306.774 462.977,331.003 "/>
<path fill-rule="evenodd" clip-rule="evenodd" d="M419.366,306.352c-0.233,0-0.421,0.188-0.421,0.421v24.229
	c0,0.233,0.189,0.421,0.421,0.421h43.61c0.233,0,0.421-0.188,0.421-0.421v-24.229c0-0.233-0.189-0.421-0.421-0.421H419.366
	L419.366,306.352z M462.555,307.195c0,0.799,0,22.587,0,23.386c-0.818,0-41.949,0-42.767,0c0-0.799,0-22.587,0-23.386
	C420.606,307.195,461.737,307.195,462.555,307.195L462.555,307.195z"/>
<line fill="none" stroke="#FFFFFF" stroke-width="1.0001" stroke-miterlimit="2.6131" x1="441.171" y1="306.774" x2="441.171" y2="331.003"/>
<path fill-rule="evenodd" clip-rule="evenodd" d="M440.75,306.774v24.229c0,0.233,0.189,0.421,0.422,0.421
	c0.233,0,0.421-0.188,0.421-0.421v-24.229c0-0.233-0.188-0.421-0.421-0.421C440.938,306.352,440.75,306.541,440.75,306.774
	L440.75,306.774z"/>
<path fill-rule="evenodd" clip-rule="evenodd" fill="#FFFFFF" d="M438.045,319.102l-10.323,9.27
	c-0.173,0.155-0.187,0.422-0.032,0.595c0.155,0.173,0.422,0.187,0.595,0.032l10.323-9.27c0.173-0.155,0.187-0.422,0.032-0.595
	C438.486,318.961,438.219,318.947,438.045,319.102L438.045,319.102z"/>
<path fill-rule="evenodd" clip-rule="evenodd" fill="#FFFFFF" d="M437.601,322.916l-4.635,4.846
	c-0.161,0.168-0.155,0.435,0.014,0.596c0.168,0.161,0.435,0.155,0.596-0.014l4.635-4.846c0.161-0.168,0.155-0.435-0.014-0.596
	C438.028,322.742,437.762,322.748,437.601,322.916L437.601,322.916z"/>
<path fill-rule="evenodd" clip-rule="evenodd" fill="#FFFFFF" d="M458.235,318.506l-9.059,10.323
	c-0.153,0.175-0.136,0.441,0.039,0.595c0.175,0.153,0.441,0.136,0.595-0.039l9.059-10.323c0.153-0.175,0.136-0.441-0.039-0.595
	C458.655,318.313,458.389,318.331,458.235,318.506L458.235,318.506z"/>
<path fill-rule="evenodd" clip-rule="evenodd" fill="#FFFFFF" d="M458.444,323.776l-3.793,4.424
	c-0.151,0.177-0.131,0.443,0.045,0.594c0.177,0.151,0.443,0.131,0.594-0.045l3.793-4.424c0.151-0.177,0.131-0.443-0.045-0.594
	C458.861,323.579,458.595,323.599,458.444,323.776L458.444,323.776z"/>
<path fill-rule="evenodd" clip-rule="evenodd" fill="#FFFFFF" d="M459.487,326.736l-1.686,2.107
	c-0.146,0.182-0.116,0.447,0.066,0.592c0.182,0.146,0.447,0.116,0.592-0.066l1.686-2.107c0.146-0.182,0.116-0.447-0.066-0.592
	C459.898,326.525,459.633,326.555,459.487,326.736L459.487,326.736z"/>
<polygon fill-rule="evenodd" clip-rule="evenodd" points="435.467,322.864 435.616,323.013 437.661,320.947 437.512,320.799 
	435.467,322.864 "/>
<polygon fill-rule="evenodd" clip-rule="evenodd" points="453.793,323.243 453.942,323.392 455.986,321.327 455.837,321.179 
	453.793,323.243 "/>
<rect x="442.721" y="245.328" fill-rule="evenodd" clip-rule="evenodd" fill="#DEDFDF" stroke="#000000" stroke-miterlimit="10" width="16.464" height="47.333"/>
<polygon fill-rule="evenodd" clip-rule="evenodd" fill="#9FA0A0" points="421.403,244.223 484.887,302.038 357.917,302.038 
	421.403,244.223 "/>
<path fill-rule="evenodd" clip-rule="evenodd" d="M421.119,243.911l-63.486,57.815c-0.129,0.117-0.172,0.301-0.109,0.464
	c0.063,0.162,0.219,0.269,0.393,0.269h126.97c0.174,0,0.33-0.107,0.393-0.269c0.063-0.162,0.02-0.346-0.109-0.464l-63.485-57.815
	C421.525,243.765,421.279,243.765,421.119,243.911L421.119,243.911z M421.403,244.793c0.555,0.506,60.834,55.402,62.396,56.824
	c-2.122,0-122.672,0-124.794,0C360.567,300.194,420.847,245.298,421.403,244.793L421.403,244.793z"/>
</svg>
