<?xml version="1.0" encoding="utf-8"?>
<!-- Generator: Adobe Illustrator 17.0.1, SVG Export Plug-In . SVG Version: 6.00 Build 0)  -->
<!DOCTYPE svg PUBLIC "-//W3C//DTD SVG 1.1//EN" "http://www.w3.org/Graphics/SVG/1.1/DTD/svg11.dtd">
<svg version="1.1" id="レイヤー_1" xmlns="http://www.w3.org/2000/svg" xmlns:xlink="http://www.w3.org/1999/xlink" x="0px"
	 y="0px" width="841.89px" height="595.28px" viewBox="0 0 841.89 595.28" enable-background="new 0 0 841.89 595.28"
	 xml:space="preserve">
<rect x="349.889" y="227.212" fill="#FFFFFF" stroke="#A660A3" stroke-width="2" stroke-miterlimit="10" width="141.732" height="141.732"/>
<polygon fill="#C3C4C4" points="477.94,327.476 389.69,313.476 360.44,338.226 466.69,356.976 "/>
<polygon fill="#FFFFFF" points="440.44,324.642 419.273,336.976 420.773,337.142 419.44,338.476 420.44,338.976 419.106,340.476 
	441.273,345.642 461.606,331.142 461.106,330.476 461.773,329.809 458.94,328.976 460.273,327.476 "/>
<polygon fill="#84846F" points="381.44,328.809 397.44,317.476 431.273,322.476 413.773,332.476 "/>
<polygon fill="#D9D9D9" points="430.94,322.476 413.625,332.965 413.685,335.762 431.106,325.309 "/>
<polygon fill="#D9D9D9" points="413.606,332.976 381.106,328.976 381.106,331.809 413.606,335.809 413.685,335.762 413.625,332.965 
	"/>
<path fill="#D9D9D9" d="M370.273,302.976l10.5,24.166l32.5,4c0,0,1.5-0.833,0.667-2.666c-0.833-1.834-8.333-23.667-8.333-23.667
	s-1.333-1.167-4.333-1.5s-29-2.167-29-2.167S370.106,300.809,370.273,302.976z"/>
<path fill="#807F80" d="M450.773,302.309c0,0,7.5,0.333,8.833,5s2.333,17.5,2.333,17.5l-16.5-2.5l-0.167-7.5L450.773,302.309z"/>
<polygon fill="#FFFFFF" points="448.69,322.476 447.412,318.96 442.623,321.548 "/>
<path fill="#AAABAB" d="M452.565,307.976c0-3.5-1.5-23.5-3.625-25.75s-3.25-3.375-5-3.25l-7.375-3.75l-13,2.5l-5,3.75
	c0,0-2,0-2.875,2.875s-1.25,8.125-1.25,8.125l-2.25,12.75l-5.125,2.75l2.75,8.75l1.25-0.125c0,0,6.625-1.375,7.5-4.5
	s1.875-7.125,1.875-7.125l1.375,2.375l0.625,7l6.875-1.25l1.875,5.125l-2.125,1.25l13.558,2.072l4.789-2.588l-1.222-3.359
	C446.19,315.601,452.565,311.476,452.565,307.976z"/>
<path fill="#FFFFFF" d="M416.315,292.476l3.75,0.875v1.375l-3.625,1.375C416.44,296.101,415.315,294.101,416.315,292.476z"/>
<path fill="#FFFFFF" d="M434.065,293.226v1.5l3.625,1.125l2.875-1.75l0.125-1.375c0,0-5.875,0.5-6.25,0.5"/>
<polygon fill="#FFFFFF" points="427.19,273.851 422.815,277.976 422.44,286.101 427.565,282.476 432.565,286.351 437.94,275.476 
	433.815,272.851 432.315,274.101 "/>
<path fill="#FFFFFF" d="M430.47,318.131c-0.714,1.252-3.131,1.188-3.874,2.748c-0.334,0.702-0.474,1.563-0.747,2.25
	c-0.263,0.663-0.488,1.919-0.937,2.447c-0.865,1.018-1.326-0.081-1.347-0.947c-0.025-1.039,0.306-2.047,0.228-3.115
	c-1.047,1.216-1.958,4.739-3.956,4.818c-0.999-1.584,1.262-3.894,1.206-5.589c-0.64,0.081-1.907,1.667-2.471,2.136
	c-0.67,0.558-1.699,2.043-2.612,1.953c-0.063-0.524,0.276-0.937,0.209-1.459c-2.175-0.83,3.42-7.872,4.522-8.553
	c1.332-0.823,3.084-0.9,4.622-1.091c1.267-0.157,3.46-1.193,4.365-0.132C430.474,314.534,431.109,317.01,430.47,318.131z"/>
<path fill="#FFFFFF" d="M411.69,258.726l4.5,9c0,0-2,3.25,2.5,4.875s6.5,2.25,8.5,1.25l0.375,1.75c0,0-2,2.75-0.125,6.375
	l5.25-7.875l-0.25-2.875c0,0,2-2.75,2.5-3.625c0,0,2.75,0.375,4.25-2.125s1.375-4.625-0.875-6s-9-10.375-9-10.375L411.69,258.726z"
	/>
<path fill="#D5D5D6" d="M427.44,281.976l-2.125,2.125c0,0-2.25,7.5-0.625,8.75s5.875,0.25,5.875,0.25v-2.875l1.75-0.875l-2.5-5
	L427.44,281.976z"/>
<polygon fill="#4F4F42" points="384.44,326.142 384.773,328.642 388.94,329.476 388.273,326.476 "/>
<polygon fill="#4F4F42" points="403.606,328.642 403.94,331.142 408.106,331.976 407.44,328.976 "/>
<path fill="#9F9FA0" d="M370.106,302.476l33,3.333c0,0,2,1.667,2.333,3.667s7.833,21.666,7.833,21.666s1-0.666,0.667-1.833
	c-0.333-1.167-8-23.667-8-23.667s-0.833-1.499-3.333-1.833s-30.333-2.667-30.333-2.667S370.606,301.476,370.106,302.476z"/>
<path fill="#FFFFFF" d="M440.94,252.101c-0.653-0.856-0.746-2.239-0.875-3.25c-0.165-1.296-0.129-1.786,1.25-1.625
	c1.131,0.132,2.2-0.184,1.784,1.247c-0.321,1.107-1.188,2.095-1.659,3.128L440.94,252.101z"/>
<path fill="#C9CACA" d="M413.565,261.351c0,0-5.375-0.875-5.25-6.25c0.125-5.375,2.875-9.375,10.75-13.625s15-0.5,17,2.75
	s1.375,3,1.375,3s3.125,2.375,3.625,4.75c0,0,1-2.5,3.875-2s6,2.625,5.625,4.75c-0.375,2.125-1.625,4.25-1.375,5.5
	s0.125,1.75,1.625,1.75c0,0-1.5,4.125-4.5-0.625c0,0-0.375,1.625-2,1s-1.625-3.375-1.625-3.375l-1.375-0.875l-1.125,2.375
	c0,0-2.25-1.375-4.5,1.875l-6.5-12.75c0,0-12.125,5.25-13.75,6.625c-1.625,1.375-2.625,3.125-2.625,3.125L413.565,261.351z"/>
<g>
	<path fill="#040000" d="M477.643,326.732l-15.211-2.393c0.001-0.018,0.009-0.033,0.008-0.051
		c-0.021-0.479-0.522-11.794-2.192-16.803c-1.756-5.27-7.402-5.507-7.458-5.509c-0.028-0.001-0.052,0.01-0.079,0.014
		c-0.398-6.311-1.173-14.433-2.04-17.404c-1.652-5.665-5.507-5.884-6.343-5.864c-0.245-0.153-6.033-3.781-6.117-3.834l0,0
		l-4.167-2.666c-0.112-0.072-0.248-0.096-0.377-0.067c-0.13,0.029-0.243,0.108-0.314,0.22c0,0-0.091,0.144-0.247,0.388l-0.161-1.286
		c0.871-0.769,1.63-1.737,2.321-3.061c0.913-0.222,4.208-1.223,5.153-4.293c0.168-0.546,0.248-1.087,0.248-1.594
		c0-0.694-0.155-1.32-0.436-1.811c0.177-0.015,0.341-0.116,0.418-0.29c0.257-0.582,0.462-1.145,0.63-1.692
		c0.253,0.326,0.545,0.616,0.942,0.793c-0.062,0.247-0.102,0.494-0.102,0.736c0,0.749,0.293,1.458,0.861,2.021
		c0.782,0.776,1.89,1.069,2.695,0.712c0.218-0.097,0.505-0.308,0.719-0.673c0.741,0.91,1.81,1.637,2.849,1.62
		c0.537-0.009,1.527-0.237,2.133-1.67c0.077-0.181,0.04-0.39-0.093-0.534c-0.133-0.144-0.338-0.197-0.525-0.135
		c-0.299,0.099-0.693,0.179-0.873-0.009c-0.4-0.418-0.177-2.018,0.273-3.194c0.683-1.782,1.177-3.418,0.308-5.381
		c-0.934-2.11-4.456-3.928-6.978-3.603c-0.366,0.047-0.698,0.141-0.999,0.271l1.376-2.201c0.093-0.148,0.102-0.334,0.022-0.49
		c-0.079-0.156-0.233-0.26-0.408-0.273l-3.25-0.25c-0.146-0.011-0.289,0.042-0.392,0.145c-0.103,0.103-0.156,0.246-0.145,0.392
		l0.154,2.006c-0.859-1.19-1.728-1.905-1.999-2.112c-1.386-3.582-3.995-6.256-7.013-7.161c-4.029-1.343-9.241-0.275-14.285,2.938
		c-4.898,3.12-8.457,7.534-8.855,10.984c-0.778,6.741,5.096,8.226,5.376,8.292c0.967,2.348,2.436,5.917,2.56,6.217
		c-0.181,0.302-0.439,0.838-0.439,1.518c0,0.197,0.022,0.404,0.075,0.618c0.262,1.062,1.179,1.944,2.725,2.62
		c3.193,1.397,5.312,2.144,7.63,1.846l-3.154,2.469c-0.113,0.089-0.183,0.221-0.191,0.365l-0.014,0.237
		c-0.045,0.018-0.091,0.035-0.131,0.067c0,0-3.629,2.873-3.871,3.065c-0.24,0.012-0.593,0.082-1.021,0.395
		c-1.148,0.839-2.651,3.352-3.296,10.555c0.007-0.051-2.493,12.782-2.493,12.782c-0.031,0.156,0.021,0.305,0.118,0.417
		c-0.053,0.018-0.108,0.032-0.158,0.053c-1.054,0.452-3.73,2.036-4.404,2.437c-0.307-0.908-0.516-1.54-0.585-1.782
		c-0.58-2.031-2.324-2.344-2.398-2.356c-0.291-0.027-25.351-2.258-30.056-2.506c-2.24-0.118-3.591,0.226-4.131,1.05
		c-0.36,0.549-0.228,1.153-0.092,1.423c-0.01-0.021,10.49,23.895,10.49,23.895c0.072,0.165,0.228,0.278,0.408,0.296l1.179,0.118
		l-0.916,0.641c-0.009,0.006-0.013,0.016-0.022,0.022c-0.008,0.006-0.018,0.008-0.025,0.014c-0.016,0.014-0.023,0.035-0.037,0.051
		c-0.025,0.029-0.049,0.058-0.067,0.091c-0.013,0.025-0.021,0.052-0.03,0.08c-0.012,0.037-0.021,0.073-0.024,0.111
		c-0.001,0.014-0.009,0.026-0.009,0.04v3.029c0,0.254,0.19,0.468,0.443,0.497l32.667,3.765c0.019,0.002,0.036-0.005,0.055-0.005
		c0.038,0.001,0.075-0.002,0.112-0.011c0.031-0.007,0.059-0.018,0.088-0.031c0.019-0.008,0.039-0.009,0.057-0.02l17.333-10.294
		c0.152-0.09,0.245-0.253,0.245-0.43v-2.5c0-0.033-0.006-0.064-0.013-0.095c-0.001-0.009-0.001-0.018-0.003-0.026
		c-0.014-0.055-0.038-0.105-0.069-0.152c-0.007-0.012-0.016-0.022-0.025-0.033c-0.03-0.039-0.064-0.072-0.105-0.101
		c-0.008-0.006-0.015-0.013-0.023-0.018c-0.003-0.002-0.006-0.006-0.01-0.008c-0.048-0.028-0.101-0.044-0.154-0.055
		c-0.005-0.001-0.009-0.005-0.015-0.006l-4.388-0.749c0.092-0.363,0.172-0.702,0.237-0.993c0.123-0.058,0.557-0.262,1.098-0.516
		l5.471,0.911c0.062,0.01,0.123,0.005,0.181-0.006l0.618,0.425c0.087,0.06,0.19,0.09,0.296,0.088
		c0.568-0.014,1.164-0.095,1.776-0.222c0.043,0.021,0.085,0.042,0.134,0.05l40.792,6.417c0.273,0.042,0.529-0.144,0.572-0.417
		C478.102,327.031,477.916,326.775,477.643,326.732z M459.299,307.801c1.524,4.575,2.069,15.012,2.134,16.381l-12.342-1.941
		c-0.005-0.038-0.005-0.075-0.02-0.112l-2.333-6c-0.001-0.002-0.002-0.003-0.003-0.005c3.417-2.505,6.012-5.135,6.194-6.049
		c0.125-0.627,0.051-3.48-0.16-7.098C453.054,302.988,457.78,303.243,459.299,307.801z M447.975,322.065l-3.973-0.625l3.181-1.414
		L447.975,322.065z M444.193,278.727c-0.012,0.001-0.06,0.002-0.062,0.002C444.152,278.727,444.173,278.727,444.193,278.727z
		 M433.927,273.334c0.614,0.393,2.818,1.804,3.369,2.156c-0.341,0.703-4.501,9.277-5.011,10.325
		c-0.738-0.686-3.476-3.233-3.95-3.673C428.73,281.521,433.454,274.079,433.927,273.334z M427.16,286.004
		c-0.21-0.932,0.317-2.095,0.663-2.972c0.21,0.196,0.552,0.514,0.954,0.889c-0.008,0.077-0.045,0.435-0.045,0.874
		c0,0.519,0.052,1.151,0.262,1.572c0.182,0.385,0.674,3.445,1.068,6.313c-1.684,0.906-4.321,0.032-5.05-0.248
		c-0.264-0.662-0.385-1.404-0.385-2.179c0-2.861,1.418-6.028,1.436-6.069c0.019-0.04,0.02-0.082,0.027-0.124
		c0.147-0.111,0.289-0.217,0.423-0.318c-0.278,0.894-0.609,2.011-0.333,2.945c0.141,0.475,0.532,1.094,1.061,0.912
		C428.257,287.247,427.273,286.511,427.16,286.004z M430.26,287.438c0.387,0.757,0.826,1.544,1.267,2.185
		c-0.277,0.139-0.602,0.301-0.835,0.418C430.555,289.136,430.403,288.2,430.26,287.438z M432.194,273.538
		c0.018,0.143,0.096,0.261,0.203,0.34c-1.441,2.271-4.068,6.408-4.65,7.326c-0.278-0.67-0.612-1.738-0.612-3.041
		c0-0.393,0.036-0.808,0.107-1.237c0.09,0.201,0.3,0.33,0.528,0.293c0.272-0.044,0.458-0.301,0.414-0.573l-0.391-2.426
		c0.026-0.01,0.051-0.017,0.077-0.027c1.631-0.628,2.988-1.203,4.156-2.002L432.194,273.538z M443.615,250.412
		c2.074-0.268,5.181,1.311,5.936,3.016c0.266,0.601,0.375,1.169,0.375,1.729c0,0.945-0.311,1.867-0.703,2.89
		c-0.032,0.084-0.547,1.449-0.547,2.686c0,0.604,0.123,1.178,0.485,1.557c0.16,0.168,0.432,0.302,0.781,0.365
		c-0.21,0.188-0.448,0.288-0.717,0.292c-0.878,0.014-2.066-0.944-2.595-2.091c-0.1-0.217-0.34-0.333-0.572-0.277
		c-0.232,0.056-0.392,0.269-0.381,0.508c0.017,0.365-0.041,0.835-0.409,0.998c-0.423,0.188-1.104-0.031-1.585-0.508
		c-0.277-0.275-0.868-1.036-0.376-2.171c0.062-0.143,0.053-0.308-0.023-0.444c-0.077-0.136-0.213-0.229-0.368-0.25
		c-0.532-0.073-0.788-0.44-1.228-1.136l-0.075-0.118c-0.001-0.002-0.003-0.003-0.004-0.004c0.164-0.81,0.241-1.577,0.241-2.298
		c0-0.934-0.12-1.792-0.319-2.573c0.077-0.073,0.137-0.164,0.155-0.277C441.863,251.192,442.513,250.555,443.615,250.412z
		 M442.578,247.661c-0.49,0.784-1.273,2.038-1.697,2.715c0.018-0.051,0.059-0.093,0.059-0.15c0-0.013,0-0.026-0.001-0.039
		c0,0-0.145-1.884-0.205-2.668C441.275,247.561,441.88,247.607,442.578,247.661z M412.172,260.582
		c-2.098-9.714,10.107-15.595,10.231-15.653c0.25-0.118,0.357-0.416,0.239-0.666c-0.118-0.25-0.415-0.357-0.665-0.239
		c-0.127,0.06-12.324,5.927-10.939,15.884c-1.349-0.995-2.731-2.832-2.351-6.124c0.36-3.118,3.813-7.335,8.399-10.255
		c4.789-3.05,9.689-4.08,13.446-2.828c2.776,0.833,5.178,3.336,6.44,6.701c0.036,0.095,0.1,0.177,0.183,0.235
		c0.251,0.175,6.109,4.383,2.578,12.387c-0.011,0.024-0.01,0.05-0.016,0.074c-0.134-0.11-0.276-0.208-0.435-0.278
		c-0.248-0.108-0.668-0.212-1.205-0.073c0.068-7.431-3.052-10.163-3.189-10.278c-0.21-0.178-0.523-0.152-0.702,0.058
		c-0.179,0.209-0.154,0.524,0.054,0.704c0.03,0.026,3.04,2.718,2.826,10.032c-0.396,0.3-0.823,0.736-1.272,1.374
		c-0.784-1.911-2.837-6.624-6.017-11.905c0.28-0.102,0.554-0.197,0.815-0.28c0.263-0.084,0.409-0.365,0.325-0.628
		c-0.084-0.263-0.365-0.408-0.628-0.325c-4.03,1.282-10.324,4.747-13.553,6.599c3.036-3.447,6.481-6.45,6.532-6.494
		c0.114-0.099,0.172-0.238,0.172-0.378c0-0.116-0.04-0.233-0.122-0.327c-0.181-0.209-0.497-0.231-0.706-0.051
		c-0.309,0.268-7.599,6.617-10.36,11.637c-0.041,0.075-0.062,0.158-0.062,0.241c0,0.064,0.013,0.129,0.038,0.19
		c0,0,0.133,0.324,0.345,0.839C412.45,260.706,412.315,260.649,412.172,260.582z M418.39,272.018
		c-1.223-0.535-1.967-1.204-2.152-1.934c-0.034-0.132-0.048-0.262-0.048-0.386c0-0.651,0.387-1.156,0.392-1.162
		c0.07-0.09,0.107-0.201,0.107-0.312c0-0.064-0.012-0.128-0.037-0.189c0,0-3.225-7.831-3.405-8.269
		c0.468-0.821,1.065-1.682,1.732-2.547c0.074-0.006,0.148-0.024,0.217-0.065c0.01-0.006,0.135-0.081,0.345-0.205
		c0.118,0.037,0.249,0.033,0.369-0.026c0.112-0.054,1.109-0.51,1.6,0.309c0.142,0.237,0.449,0.314,0.686,0.171
		c0.237-0.142,0.314-0.449,0.171-0.686c-0.267-0.445-0.614-0.702-0.98-0.839c2.787-1.59,7.684-4.281,11.439-5.785
		c4.131,6.829,6.371,12.748,6.394,12.807c0.068,0.181,0.234,0.307,0.427,0.323c0.193,0.016,0.377-0.081,0.474-0.248
		c1.173-2.027,2.194-2.485,2.758-2.239c0.652,0.285,1.042,1.595,0.581,3.092c-0.897,2.916-4.578,3.649-4.615,3.656
		c-0.153,0.029-0.285,0.128-0.354,0.268c-1.662,3.324-3.736,4.259-6.982,5.507C424.483,274.423,422.407,273.775,418.39,272.018z
		 M426.912,275.039l0.072,0.449c-0.234-0.021-0.457,0.116-0.525,0.351c-0.237,0.832-0.33,1.622-0.33,2.348
		c0,1.825,0.583,3.24,0.915,3.9c-0.501,0.378-3.082,2.324-4.209,3.173c0.092-1.604,0.403-6.99,0.425-7.363
		C423.582,277.645,426.877,275.065,426.912,275.039z M370.648,303.025c-0.01-0.022-0.046-0.106-0.046-0.212
		c0-0.076,0.018-0.162,0.075-0.246c0.151-0.221,0.77-0.721,3.236-0.591c4.687,0.247,29.729,2.476,29.982,2.499
		c0.007,0.003,1.162,0.232,1.564,1.639c0.498,1.745,7.782,22.48,8.093,23.361c0.039,0.098,0.084,0.241,0.084,0.396
		c0,0.208-0.111,0.427-0.402,0.588c-0.034-0.004-0.122-0.014-0.236-0.028c0.023-0.091,0.03-0.188-0.002-0.283l-7.833-22.833
		c-0.015-0.044-0.407-1.186-1.725-1.939c-0.062-0.036-0.132-0.058-0.203-0.064l-31.5-2.833c-0.275-0.025-0.518,0.178-0.543,0.453
		c-0.001,0.015-0.002,0.03-0.002,0.045c0,0.256,0.195,0.474,0.455,0.498c0,0,31.104,2.797,31.367,2.821
		c0.906,0.553,1.193,1.31,1.204,1.343c0,0,7.089,20.664,7.779,22.675c-1.292-0.151-3.182-0.373-3.748-0.44l-0.238-1.011
		c-0.048-0.204-0.217-0.356-0.425-0.382l-4-0.5c-0.158-0.02-0.317,0.037-0.426,0.153c-0.109,0.116-0.156,0.278-0.127,0.435
		l0.133,0.707l-14.081-1.729c-0.057-0.007-0.112,0.001-0.165,0.013l-0.242-1.03c-0.048-0.204-0.217-0.356-0.425-0.382l-4-0.5
		c-0.158-0.02-0.317,0.037-0.426,0.153c-0.088,0.094-0.136,0.217-0.136,0.343c0,0.031,0.003,0.062,0.009,0.092l0.135,0.72
		c-0.647-0.064-2.41-0.241-2.803-0.28C380.801,326.151,370.648,303.025,370.648,303.025z M421.445,307.926
		c0.009,0.176,0.329,6.243,0.329,6.243c0,0.01,0.006,0.019,0.007,0.029l-1.439,0.288c-0.108,0.022-0.207,0.079-0.279,0.162
		c-0.224,0.257-1.199,1.394-2.214,2.783l-4.853-0.755c1.773-0.727,4.491-1.969,5.339-3.06c0.901-1.159,1.828-5.209,2.296-7.503
		C421.055,307.036,421.348,307.702,421.445,307.926z M417.205,318.343c-0.319,0.468-0.624,0.946-0.898,1.418l-5.421-0.926
		c-0.181-0.518-0.363-1.039-0.544-1.56L417.205,318.343z M415.621,323.614l-3.272-0.595c-0.343-0.979-0.709-2.027-1.086-3.105
		l4.547,0.776c-0.384,0.798-0.618,1.531-0.567,2.085C415.279,323.189,415.453,323.45,415.621,323.614z M414.357,332.866
		c0.631-0.356,2.409-1.357,4.583-2.582v1.691c0,0.008,0.004,0.016,0.005,0.024c-1.963,1.166-3.66,2.173-4.588,2.725V332.866z
		 M419.94,329.721c0.166-0.094,0.332-0.187,0.5-0.282v1.537c0,0.043,0.014,0.082,0.024,0.122c-0.176,0.104-0.35,0.208-0.524,0.312
		V329.721z M421.422,328.886c0.172-0.097,0.345-0.194,0.518-0.292v1.382c0,0.078,0.021,0.148,0.052,0.214
		c-0.185,0.11-0.368,0.219-0.552,0.328v-1.542C421.44,328.944,421.428,328.916,421.422,328.886z M422.94,328.031
		c0.167-0.094,0.334-0.188,0.5-0.281v1.227c0,0.111,0.043,0.209,0.105,0.292c-0.201,0.119-0.403,0.239-0.605,0.359V328.031z
		 M413.752,332.059l-5.129-0.591l-0.132-0.56l4.807,0.564c0.087,0.01,0.174-0.003,0.255-0.037c0.939-0.402,1.144-1.203,1.054-1.845
		l1.835,0.296c0.11,0.018,0.223-0.002,0.32-0.055l6.61-3.62c0.053,0.116,0.116,0.215,0.19,0.289
		c0.007,0.007,0.016,0.012,0.024,0.019L413.752,332.059z M384.808,326.723c0.839,0.105,2.506,0.314,2.975,0.372
		c0.087,0.372,0.257,1.094,0.416,1.769c-0.897-0.144-2.611-0.418-3.083-0.493c-0.078-0.415-0.223-1.19-0.223-1.19
		S384.849,326.944,384.808,326.723z M389.315,329.242l-0.16-0.681l14.141,1.737c0.021,0.002,0.039-0.004,0.059-0.004l0.109,0.579
		L389.315,329.242z M407.533,331.198c-0.897-0.144-2.611-0.417-3.083-0.493c-0.07-0.373-0.192-1.026-0.309-1.648
		c0.839,0.105,2.506,0.313,2.976,0.372C407.204,329.801,407.374,330.523,407.533,331.198z M419.621,327.126
		c-0.319,0.175-0.638,0.349-0.944,0.517c-0.071-0.078-0.162-0.139-0.273-0.159l-4.793-0.86c-0.076-0.216-0.156-0.444-0.239-0.682
		L419.621,327.126z M417.431,328.325c-0.542,0.297-0.927,0.507-0.997,0.546c-0.232-0.038-1.585-0.256-2.157-0.348
		c-0.077-0.218-0.173-0.494-0.286-0.816L417.431,328.325z M423.144,324.982l-1.086-0.197c0.411-0.602,0.818-1.28,1.191-1.944
		c-0.065,0.605-0.115,1.204-0.115,1.738C423.134,324.718,423.138,324.852,423.144,324.982z M421.392,325.679
		c0.168,0.03,0.418,0.076,0.653,0.119c-0.294,0.161-0.657,0.36-1.055,0.578c-0.014-0.004-0.025-0.013-0.04-0.016l-0.176-0.033
		C420.974,326.155,421.181,325.934,421.392,325.679z M419.52,324.323l-1.401-0.255c0.605-0.582,1.367-1.387,2.333-2.495
		C420.077,322.536,419.739,323.5,419.52,324.323z M419.311,325.301c-0.027,0.188-0.046,0.366-0.046,0.517
		c0,0.083,0.008,0.155,0.017,0.226l-3.055-0.579c0.216-0.065,0.514-0.227,0.934-0.554L419.311,325.301z M415.638,325.353
		l-2.605-0.494c-0.014-0.002-0.027,0.002-0.04,0c-0.086-0.244-0.174-0.497-0.265-0.755l2.683,0.488
		c-0.029,0.136-0.045,0.259-0.029,0.352L415.638,325.353z M383.973,327.973c0.018,0.002,0.033-0.005,0.051-0.005l0.127,0.678
		l-1.594-0.184l0.587-0.411c0.058-0.04,0.104-0.091,0.139-0.148L383.973,327.973z M381.69,329.37
		c1.062,0.122,30.82,3.552,31.667,3.65c0,0.507,0,1.412,0,2.022c-1.062-0.122-30.82-3.552-31.667-3.649
		C381.69,330.885,381.69,329.98,381.69,329.37z M430.69,325.024c-0.191,0.113-2.979,1.77-6.25,3.712v-1.51
		c0-0.013-0.006-0.023-0.007-0.036c3.048-1.717,5.721-3.223,6.257-3.525C430.69,324.277,430.69,324.75,430.69,325.024z
		 M429.717,323.065l-4.182,2.356c0.431-0.808,0.8-1.875,1.089-2.884L429.717,323.065z M426.477,319.773
		c-0.141,0.066-0.243,0.194-0.276,0.346c-0.567,2.61-1.444,5.016-1.977,5.508c-0.057-0.18-0.093-0.448-0.093-0.851
		c0-1.092,0.199-2.881,0.55-4.707c0.006-0.032,0.009-0.063,0.009-0.095c0-0.21-0.134-0.403-0.339-0.473
		c-0.237-0.08-0.496,0.027-0.608,0.25c-1.17,2.341-2.694,4.913-3.469,5.726c0.163-1.145,1.257-4.06,2.372-6.547
		c0.03-0.066,0.044-0.136,0.044-0.204c0-0.169-0.086-0.333-0.238-0.426c-0.213-0.131-0.491-0.084-0.65,0.11
		c-1.71,2.099-3.729,4.354-4.914,5.435l-0.099-0.018c0.783-1.428,2.584-4.038,4.299-6.298c0.068-0.09,0.102-0.197,0.102-0.302
		c0-0.151-0.068-0.3-0.198-0.399c-0.22-0.167-0.534-0.124-0.701,0.096c-1.235,1.629-2.996,4.035-4.041,5.834
		c-0.005-0.022-0.01-0.044-0.013-0.074c-0.002-0.03-0.004-0.061-0.004-0.093c0-1.436,2.677-5.068,4.476-7.16
		c0.313-0.063,7.729-1.546,8.508-1.702c0.447,1.021,1.146,2.74,1.429,4.081l-2.608,1.227c-0.122,0.01-0.229,0.062-0.313,0.147
		L426.477,319.773z M430.962,312.56c0.422,0.485,1.401,1.723,2.007,3.418c0.063,0.175,0.218,0.275,0.388,0.306
		c-0.146,0.896-0.417,1.644-0.576,2.026c-0.309,0-0.665,0-1.057,0c-0.195-1.745-1.288-4.318-1.77-5.382
		C430.359,312.78,430.675,312.665,430.962,312.56z M429.812,319.309c0.382-0.18,0.726-0.342,0.97-0.457
		c0.023,0.255,0.23,0.457,0.491,0.457h0.371c0.035,0.095,0.089,0.184,0.179,0.245l0.172,0.119L429.812,319.309z M433.21,319.295
		c0.146-0.031,0.274-0.125,0.343-0.262c0.058-0.116,1.411-2.866,0.703-5.519c-0.071-0.267-0.345-0.425-0.612-0.354
		c-0.224,0.06-0.371,0.262-0.371,0.482c0,0.043,0.005,0.086,0.017,0.129c0.055,0.206,0.05,0.413,0.077,0.621
		c-0.79-1.574-1.72-2.576-1.876-2.738c-0.016-0.023-0.103-0.152-0.064-0.285c0.028-0.095,0.167-0.342,0.85-0.591l11.835-4.333
		c0.039-0.014,0.085-0.04,0.12-0.064c0.044-0.03,1.102-0.722,3.065,0.82c0.217,0.171,0.532,0.133,0.702-0.084
		c0.171-0.217,0.133-0.532-0.084-0.702c-2.016-1.583-3.418-1.255-3.984-1.001c-0.063-1.652-0.491-12.842-0.491-15.438
		c0-2.76,0.983-8.859,0.994-8.92c0.044-0.273-0.141-0.529-0.414-0.574c-0.273-0.044-0.529,0.141-0.574,0.414
		c-0.041,0.253-1.006,6.239-1.006,9.08c0,2.81,0.495,15.558,0.501,15.686c0.002,0.048,0.018,0.091,0.033,0.135
		c-2.59,0.949-11.038,4.042-11.038,4.042c-0.832,0.303-1.329,0.731-1.475,1.275c-0.031,0.114-0.043,0.223-0.043,0.326
		c0,0.088,0.016,0.165,0.032,0.243l-1.346,0.49c-0.133,0.048-0.239,0.15-0.292,0.281c-0.044,0.109-0.039,0.228-0.004,0.339
		l-6.04,1.208l-0.328-6.218c-0.003-0.059-0.017-0.118-0.04-0.172c-0.013-0.029-0.598-1.379-1.471-3.231
		c-0.015-0.078-0.05-0.147-0.099-0.209c-0.997-2.107-2.338-4.802-3.627-6.952c-0.145-0.241-0.265-0.493-0.363-0.754l3.61-1.353
		c0.195-0.073,0.324-0.26,0.324-0.468v-1.5c0-0.253-0.189-0.466-0.44-0.497l-3.639-0.436c0.587-2.935,2.15-5.603,2.176-5.645
		c0.046-0.077,0.07-0.166,0.07-0.256v-1.833c0-0.276-0.224-0.5-0.5-0.5s-0.5,0.224-0.5,0.5c0,0,0,1.472,0,1.7
		c-0.365,0.632-2.468,4.43-2.468,8.073c0,1.227,0.241,2.432,0.873,3.484c1.266,2.109,2.584,4.758,3.568,6.838
		c-0.396,2.131-1.498,7.312-2.368,8.43c-0.884,1.137-4.951,2.795-6.443,3.338c-0.021,0.007-0.035,0.023-0.054,0.033l-0.906-0.141
		c-0.055-0.009-0.109-0.002-0.161,0.007c-1.005-2.888-1.972-5.678-2.648-7.656c0.01-0.005,0.021-0.005,0.031-0.011
		c0.033-0.02,3.317-1.988,4.439-2.469c0.874-0.374,3.475,0.288,4.548,1.975c0.148,0.233,0.458,0.302,0.69,0.153
		c0.233-0.148,0.301-0.458,0.153-0.69c-1.01-1.587-3.22-2.564-4.804-2.541c0.013-0.032,0.032-0.06,0.039-0.095l2.5-12.833
		c0.634-7.054,2.033-9.178,2.811-9.82c0.368-0.304,0.606-0.284,0.616-0.283c0.129,0.013,0.291-0.02,0.393-0.101l3.436-2.72
		l-0.412,7.132c-0.011,0.195,0.091,0.378,0.263,0.47c0.172,0.092,0.381,0.075,0.537-0.042c0,0,0.946-0.713,2.026-1.527
		c-0.665,1.916-1.558,5.372-0.45,7.833c0.051,0.113,0.143,0.204,0.257,0.253c0.166,0.073,4.115,1.759,6.484,0.12
		c0.154-0.107,0.236-0.292,0.211-0.478c-0.055-0.404-0.146-1.068-0.256-1.827l1.651-0.826c0.135-0.068,0.232-0.192,0.265-0.34
		c0.033-0.147-0.004-0.301-0.098-0.42c-0.819-1.023-1.719-2.869-2.262-4.066c0.913,0.849,1.698,1.579,1.698,1.579
		c0.116,0.107,0.276,0.154,0.432,0.125c0.156-0.029,0.289-0.13,0.358-0.273l5.257-10.832l5.778,3.621
		c0.095,0.06,0.21,0.085,0.321,0.073c0.157-0.017,3.863-0.348,5.464,5.143c1.197,4.103,2.294,19.336,2.294,23.856
		c0,0.571-0.018,0.971-0.055,1.156c-0.239,1.197-10.382,10.291-17.043,10.583C434.748,320.351,433.883,319.757,433.21,319.295z
		 M416.539,293.198c0.886,0.106,2.708,0.325,3.235,0.388c0,0.296,0,0.458,0,0.71c-0.414,0.155-2.294,0.86-3.194,1.198
		C416.449,294.757,416.45,293.978,416.539,293.198z M445.898,316.722l0.922,2.371l-4.333,1.926c-0.078,0.035-0.137,0.09-0.186,0.154
		l-3.546-0.558C441.148,319.736,443.661,318.286,445.898,316.722z"/>
	<path fill="#040000" d="M420.658,267.375c0.188,0.156,0.381,0.317,0.476,0.479c0.14,0.238,0.446,0.318,0.684,0.178
		c0.159-0.093,0.247-0.26,0.247-0.432c0-0.086-0.022-0.173-0.069-0.252c-0.143-0.243-0.34-0.428-0.535-0.596
		c0.136-0.123,0.28-0.252,0.28-0.252c0.118-0.106,0.185-0.265,0.185-0.419c0-0.114-0.036-0.226-0.114-0.313
		c-0.185-0.206-0.469-0.249-0.674-0.065l-0.792,0.711c-0.106,0.095-0.161,0.21-0.16,0.353c0.001,0.143,0.068,0.257,0.176,0.351
		L420.658,267.375z"/>
	<path fill="#040000" d="M425.239,268.893c-1.61,0.708-3.565,1.38-4.4,0.28c-0.167-0.22-0.481-0.263-0.701-0.096
		c-0.22,0.167-0.263,0.481-0.096,0.701c1.419,1.869,4.349,0.58,5.6,0.03c0.253-0.111,0.368-0.406,0.256-0.659
		C425.787,268.897,425.491,268.782,425.239,268.893z"/>
	<path fill="#040000" d="M426.774,257.798c0.21-0.488,0.51-0.736,0.919-0.758c0.79-0.042,1.786,0.72,2.186,1.431
		c0.136,0.241,0.44,0.326,0.681,0.19c0.24-0.135,0.326-0.44,0.19-0.681c-0.566-1.005-1.885-2.004-3.111-1.939
		c-0.791,0.043-1.424,0.526-1.784,1.361c-0.109,0.254,0.009,0.548,0.262,0.657C426.371,258.169,426.665,258.052,426.774,257.798z"/>
	<path fill="#040000" d="M435.928,265.151c0.348,0.215,2.195-1.628,1.931-1.922c-0.451-0.501-1.898,0.916-2.095,1.236
		C435.62,264.699,435.693,265.005,435.928,265.151z"/>
	<path fill="#040000" d="M429.127,264.476c0-0.611-0.091-2.031-0.938-2.031s-0.938,1.42-0.938,2.031
		c0,0.611,0.091,2.031,0.938,2.031S429.127,265.087,429.127,264.476z"/>
	<path fill="#040000" d="M419.101,264.003c-0.145-0.594-0.571-1.951-1.393-1.75c-0.822,0.201-0.574,1.602-0.429,2.196
		c0.145,0.593,0.571,1.951,1.393,1.75C419.495,265.998,419.246,264.596,419.101,264.003z"/>
	<path fill="#040000" d="M440.761,292.643l-6.833,0.166c-0.271,0.007-0.488,0.229-0.488,0.5v1.667c0,0.218,0.141,0.411,0.348,0.477
		l3.667,1.167c0.128,0.041,0.267,0.028,0.385-0.034l3.167-1.667c0.164-0.086,0.267-0.257,0.267-0.442v-1.333
		c0-0.135-0.054-0.264-0.151-0.358C441.026,292.691,440.896,292.64,440.761,292.643z M440.273,294.174
		c-0.419,0.221-2.416,1.271-2.715,1.429c-0.321-0.102-2.582-0.822-3.119-0.993c0-0.278,0-0.477,0-0.813
		c0.773-0.019,5.024-0.122,5.833-0.142C440.273,293.901,440.273,293.992,440.273,294.174z"/>
	<path fill="#040000" d="M454.838,305.898c0.024,0.016,2.468,1.67,2.937,7.618c0.489,6.196,0.335,8.401,0.333,8.422
		c-0.02,0.275,0.186,0.516,0.46,0.537c0.275,0.021,0.516-0.185,0.537-0.46c0.007-0.09,0.165-2.278-0.333-8.578
		c-0.514-6.51-3.283-8.311-3.4-8.384c-0.233-0.146-0.538-0.075-0.685,0.156C454.539,305.44,454.608,305.748,454.838,305.898z"/>
	<path fill="#040000" d="M462.203,331.038l-0.611-0.377c0.26-0.144,0.434-0.24,0.434-0.24c0.161-0.089,0.258-0.257,0.258-0.438
		c0-0.024-0.001-0.048-0.005-0.072c-0.03-0.206-0.184-0.372-0.387-0.417l-2.009-0.442c0.717-0.405,1.173-0.649,1.19-0.658
		c0.193-0.103,0.297-0.318,0.257-0.533c-0.04-0.215-0.214-0.379-0.431-0.405c-0.173-0.021-17.295-2.128-19.884-3.131
		c-0.141-0.054-0.298-0.043-0.429,0.032c-0.145,0.083-14.52,8.3-17.627,9.948c-3.2,1.698-4.052,2.69-4.086,2.731
		c-0.111,0.133-0.146,0.314-0.092,0.478c0.054,0.164,0.19,0.289,0.358,0.33c0.009,0.002,0.276,0.066,0.742,0.173l-1.197,0.716
		c-0.181,0.108-0.274,0.318-0.234,0.525c0.04,0.207,0.206,0.366,0.414,0.398c0.013,0.002,0.26,0.041,0.679,0.11l-0.836,0.444
		c-0.184,0.098-0.288,0.299-0.262,0.505c0.026,0.206,0.177,0.375,0.379,0.423c0.141,0.034,14.118,3.379,22.221,5.12
		c0.134,0.029,0.275,0.001,0.389-0.077l20.791-14.309c0.139-0.096,0.22-0.256,0.216-0.424
		C462.436,331.282,462.346,331.126,462.203,331.038z M423.427,335.19c2.926-1.552,15.754-8.878,17.466-9.856
		c2.706,0.889,14.177,2.395,18.356,2.924c-2.117,1.197-6.2,3.634-8.524,5.856c-2.832,2.707-9.737,6.507-10.835,7.103
		c-1.292-0.278-9.697-2.084-13.452-2.822c-2.705-0.532-4.919-1.025-6.111-1.299C420.891,336.67,421.847,336.029,423.427,335.19z
		 M426.247,339.376c4.043,0.794,13.52,2.837,13.615,2.857c0.116,0.025,0.237,0.008,0.341-0.048
		c0.327-0.175,8.051-4.325,11.214-7.349c1.895-1.812,5.114-3.833,7.31-5.12c0.068,0.08,0.16,0.141,0.27,0.165
		c0,0,0.693,0.153,1.384,0.305c-0.978,0.541-2.149,1.188-2.149,1.188c-2.797,1.663-15.901,10.799-17.443,11.876
		c-0.899-0.135-5.478-0.855-9.662-2.063c-3.485-1.006-8.411-1.897-10.76-2.295c0.375-0.224,0.749-0.448,0.927-0.554
		C422.552,338.618,424.275,338.988,426.247,339.376z M441.043,345.237c-6.666-1.437-17.095-3.904-20.699-4.762
		c0.155-0.082,0.405-0.215,0.405-0.215c0.106-0.056,0.179-0.146,0.222-0.249c2.52,0.44,6.784,1.244,9.879,2.138
		c4.705,1.358,9.939,2.113,9.991,2.121c0.125,0.018,0.253-0.013,0.357-0.085c0.146-0.103,14.667-10.239,17.532-11.943
		c0,0,0.97-0.536,1.857-1.027c0.033,0.021,0.238,0.147,0.438,0.271C459.848,332.296,441.383,345.004,441.043,345.237z"/>
</g>
<polygon fill="#B5B5B6" points="465.517,362.614 360.722,344.054 361.699,338.438 466.494,356.998 "/>
<circle fill="#B1B1B2" cx="390.5" cy="317.427" r="1.363"/>
<g>
	<path fill="#C9CACA" d="M390.264,318.23h-0.166l0.173-0.792c0.048-0.219,0.025-0.408-0.163-0.408c-0.128,0-0.316,0.13-0.37,0.376
		l-0.18,0.824h-0.166l0.429-1.968h0.166l-0.182,0.834h0.004c0.104-0.147,0.256-0.239,0.389-0.239c0.134,0,0.342,0.101,0.243,0.556
		L390.264,318.23z"/>
	<path fill="#C9CACA" d="M390.985,317.116c0.112-0.165,0.258-0.258,0.428-0.258c0.258,0,0.384,0.273,0.295,0.684
		c-0.107,0.492-0.39,0.719-0.63,0.719c-0.144,0-0.246-0.081-0.281-0.214h-0.004l-0.16,0.733h-0.166l0.318-1.459
		c0.038-0.175,0.064-0.31,0.086-0.433h0.15l-0.04,0.229H390.985z M390.868,317.697c-0.057,0.261,0.071,0.398,0.219,0.398
		c0.214,0,0.381-0.226,0.451-0.546c0.061-0.278,0-0.524-0.211-0.524c-0.186,0-0.36,0.221-0.403,0.416L390.868,317.697z"/>
</g>
</svg>
