<?xml version="1.0" encoding="utf-8"?>
<!-- Generator: Adobe Illustrator 17.0.1, SVG Export Plug-In . SVG Version: 6.00 Build 0)  -->
<!DOCTYPE svg PUBLIC "-//W3C//DTD SVG 1.1//EN" "http://www.w3.org/Graphics/SVG/1.1/DTD/svg11.dtd">
<svg version="1.1" id="レイヤー_1" xmlns="http://www.w3.org/2000/svg" xmlns:xlink="http://www.w3.org/1999/xlink" x="0px"
	 y="0px" width="841.89px" height="595.28px" viewBox="0 0 841.89 595.28" enable-background="new 0 0 841.89 595.28"
	 xml:space="preserve">
<rect x="350.455" y="226.779" fill="#FFFFFF" stroke="#A660A3" stroke-width="2" stroke-miterlimit="10" width="141.732" height="141.732"/>
<path fill="#898989" d="M388.347,285.638c0,0,1.559,34.642,1.582,34.975c0.022,0.332,3.368-23.79,3.368-23.79l-0.386,28.261
	c0,0,5.861-28.806,5.574-28.118c-0.286,0.688-1.751,23.008-1.751,23.008l5.501-21.931l-1.483,14.805l8.671-26.829
	C409.424,286.019,401.813,270.173,388.347,285.638z"/>
<path fill="#FFFFFF" d="M426.28,241.824c1.715,1.287,4.418,1.998,4.441,2.004c0.027,0.007,0.05,0.022,0.067,0.044
	c0.841,1.081,3.849,6.331,4.751,7.914c0.069,0.122,0.189,0.197,0.341,0.189c0.14-0.006,0.265-0.089,0.324-0.217
	c0.087-0.186,0.184-0.354,0.281-0.485c0.023-0.031,0.058-0.049,0.097-0.051c0.039,0,0.074,0.015,0.098,0.042
	c0.452,0.508,2.334,1.234,3.416,1.622c0.129,0.045,0.275,0.018,0.378-0.075c0.103-0.093,0.146-0.234,0.112-0.368
	c-0.21-0.847,0.19-1.512,0.194-1.519c0.023-0.038,0.062-0.06,0.112-0.06h0.001c0.045,0.002,0.086,0.029,0.106,0.069
	c0.336,0.671,1.563,1.52,2.265,1.966c0.061,0.039,0.131,0.059,0.201,0.059c0.066,0,0.132-0.017,0.19-0.052
	c0.122-0.072,0.192-0.206,0.184-0.346l-0.031-0.488c-0.003-0.058,0.033-0.11,0.113-0.125c0.13-0.01,0.246-0.087,0.305-0.203
	c0.06-0.116,0.055-0.255-0.013-0.366c-2.191-3.595-7.772-9.6-7.827-9.66c-0.014-0.015-0.024-0.034-0.03-0.057
	c-0.046-0.18-0.469-1.805-1.159-3.322c-1.119-2.142-1.681-2.292-2.58-2.374c-0.356-0.032-0.759-0.069-1.255-0.294
	c-0.598-0.271-1.198-0.409-1.784-0.409c-0.5,0-0.811,0.102-0.914,0.13c-0.03,0-0.059-0.01-0.082-0.029
	c-0.008-0.006-0.75-0.615-1.37-0.615c-0.074,0-0.146,0.009-0.209,0.026c-0.241,0.062-0.417,0.238-0.538,0.54
	c-0.554,1.384,0.424,3.788,0.434,3.812c0.026,0.064-0.004,0.137-0.116,0.173c-0.039,0-0.092-0.021-0.118-0.083l-0.02-0.05
	c-0.053-0.136-0.179-0.23-0.325-0.24c-0.146-0.01-0.284,0.066-0.354,0.194C425.198,240.528,425.259,241.058,426.28,241.824z"/>
<path fill="#3E3A39" d="M444.147,253.491c0.003,0.046-0.019,0.089-0.058,0.114c-0.038,0.024-0.087,0.025-0.127,0.003
	c-0.163-0.09-1.615-0.902-2.544-1.775c-0.116-0.109-0.287-0.133-0.427-0.061c-0.141,0.072-0.222,0.224-0.202,0.381
	c0.051,0.413,0.237,0.809,0.552,1.176c0.036,0.042,0.04,0.104,0.01,0.15c-0.024,0.036-0.063,0.055-0.143,0.05
	c-0.5-0.159-3.059-0.993-4.265-1.749c-0.093-0.058-0.206-0.073-0.311-0.04c-0.104,0.032-0.189,0.109-0.232,0.209
	c-0.299,0.695-0.614,2.064,0.639,3.437c0.035,0.039,0.042,0.096,0.018,0.143c-0.021,0.04-0.057,0.062-0.125,0.065
	c-0.007-0.001-0.737-0.1-1.71-0.1c-1.216,0-2.246,0.148-3.061,0.441c-0.095,0.034-0.172,0.105-0.214,0.197
	c-0.042,0.092-0.045,0.197-0.009,0.291c0.271,0.708,0.874,2.027,1.866,2.895c0.035,0.031,0.05,0.078,0.039,0.124
	c-0.011,0.045-0.045,0.08-0.091,0.092l-2.337,0.585c-0.133,0.033-0.237,0.136-0.272,0.269c-0.035,0.133,0.006,0.274,0.106,0.368
	l2.38,2.24c0.032,0.03,0.046,0.075,0.036,0.118l-0.452,2.033c-0.04,0.183,0.06,0.367,0.235,0.433
	c0.295,0.11,0.585,0.311,0.863,0.597c0.138,0.142,0.361,0.152,0.513,0.024c0.185-0.158,4.582-3.876,9.382-4.852
	c0.046,0,0.088,0.027,0.109,0.072c0.025,0.052,0.011,0.113-0.033,0.15c-0.011,0.009-1.11,0.917-2.305,2.017
	c-0.083,0.076-0.127,0.186-0.121,0.298c0.007,0.113,0.064,0.216,0.155,0.282c0.203,0.146,0.441,0.352,0.707,0.614
	c0.099,0.097,0.244,0.132,0.377,0.09c0.632-0.202,1.297-0.421,1.962-0.649c2.796-0.961,5.237-2.515,5.339-2.581
	c0.044-0.028,0.081-0.064,0.11-0.108c0.454-0.68,0.79-1.129,0.852-1.21c0.067-0.088,0.118-0.067,0.175-0.024
	c0.055,0.042,0.065,0.121,0.024,0.175c-0.019,0.025-1.893,2.491-3.026,5.134c-0.068,0.159-0.019,0.345,0.121,0.448
	c0.14,0.103,0.332,0.098,0.464-0.013c1.335-1.114,3.267-2.568,4.938-3.172c0.036,0,0.07,0.015,0.095,0.043
	c0.034,0.039,0.041,0.094,0.019,0.136c-0.009,0.018-0.938,1.831-1.125,4.383c-0.011,0.154,0.073,0.299,0.212,0.366
	c0.14,0.066,0.306,0.041,0.418-0.065l3.431-3.217c0.023-0.022,0.055-0.034,0.129-0.026c0.044,0.017,0.076,0.058,0.081,0.105
	c0.008,0.086,0.199,2.12-0.029,4.262c-0.002,0.011-0.004,0.027-0.005,0.042c0,0.003-0.001,0.007-0.001,0.01
	c-0.012,0.111-0.024,0.222-0.039,0.333c-0.021,0.164,0.068,0.323,0.219,0.39c0.15,0.067,0.329,0.028,0.436-0.097l1.082-1.248
	c0.023-0.027,0.06-0.043,0.134-0.037c0.048,0.016,0.082,0.06,0.085,0.11c0.01,0.162,0.247,3.996-0.119,6.912
	c-0.019,0.146,0.051,0.29,0.176,0.366c0.061,0.037,0.128,0.055,0.196,0.055c0.074,0,0.147-0.022,0.211-0.065
	c1.057-0.72,2.013-0.854,2.698-0.401c0.151,0.1,0.355,0.078,0.48-0.057c0.68-0.725,2.738-3.387,0.693-7.19
	c-0.017-0.031-0.02-0.068-0.008-0.102c0.086-0.245,2.048-6.05-2.821-9.44c-4.954-3.45-9.009-4.074-12.586-4.624l-0.082-0.013
	c-1.43-0.22-2.558-0.551-3.354-0.985c-0.12-0.065-0.266-0.06-0.381,0.013c-0.115,0.074-0.181,0.204-0.173,0.34L444.147,253.491z"/>
<path d="M441.219,264.297c-0.209,0.202-0.415,0.405-0.611,0.605c-0.12,0.122-0.142,0.31-0.053,0.457
	c0.069,0.115,0.192,0.181,0.321,0.181c0.036,0,0.072-0.005,0.108-0.016c0.307-0.092,0.647-0.196,1.009-0.308
	c0.131-0.04,0.229-0.149,0.256-0.283c0.028-0.134-0.02-0.272-0.124-0.361c-0.184-0.157-0.338-0.267-0.471-0.337
	C441.512,264.16,441.337,264.185,441.219,264.297z"/>
<path fill="#FFFFFF" d="M434.516,266.827c-0.007-0.011-0.016-0.022-0.026-0.034c-0.117-0.176-0.747-1.058-1.572-1.065
	c-0.525,0-1.034,0.37-1.512,1.098c-1.388,2.119-0.535,3.174-0.172,3.624c0.048,0.06,0.087,0.113,0.12,0.168
	c0.061,0.101,0.165,0.168,0.282,0.181c0.456,0.049,0.886,0.204,1.279,0.46c0.061,0.04,0.133,0.061,0.205,0.061
	c0.052,0,0.103-0.01,0.152-0.032c0.116-0.051,0.198-0.158,0.218-0.283c0.26-1.615,0.721-2.974,1.063-3.83
	C434.598,267.059,434.585,266.93,434.516,266.827z"/>
<path fill="#FFFFFF" d="M434.028,278.444c0.097-0.037,0.174-0.112,0.213-0.207c0.04-0.096,0.038-0.203-0.004-0.298
	c-0.78-1.73-1.077-3.7-0.883-5.856c0.015-0.17-0.124-0.345-0.284-0.403c-0.519-0.433-1.109-0.652-1.755-0.652
	c-0.921,0-1.629,0.456-1.711,0.511c-0.021,0.014-0.043,0.023-0.119,0.012c-0.542-0.225-1.004-0.253-1.366-0.088
	c-0.478,0.218-0.635,0.708-0.636,0.711c-0.018,0.052-0.069,0.092-0.121,0.092c-1.143,0-1.44,0.804-1.473,0.905
	c-1.399,4.644,1.018,6.978,1.123,7.077c0.023,0.021,0.037,0.05,0.04,0.08c0.17,1.837,4.803,15.162,6.829,15.294
	c0.278,0.018,0.598,0.026,0.946,0.026c1.846,0,4.449-0.225,5.483-0.322c0.175-0.016,0.315-0.152,0.337-0.327
	c0.293-2.363,0.196-5.204,0.007-7.075c-0.01-0.099-0.059-0.19-0.136-0.253c-0.077-0.063-0.177-0.091-0.275-0.082l-2.645,0.269
	c-0.047,0-0.09-0.026-0.111-0.068l-4.545-8.787c-0.016-0.032-0.018-0.069-0.005-0.103c0.012-0.033,0.039-0.059,0.072-0.072
	L434.028,278.444z"/>
<path fill="#B5B5B6" d="M440.182,299.239c0.043,0,0.085-0.007,0.126-0.022c0.258-0.093,0.545-0.197,0.853-0.311
	c0.13-0.048,0.223-0.164,0.242-0.3c0.004-0.031,0.011-0.054,0.02-0.064c2.402-2.762,1.613-9.385,1.314-11.348
	c-0.016-0.107-0.077-0.201-0.168-0.259c-0.09-0.058-0.202-0.073-0.306-0.045l-1.118,0.318c-0.177,0.05-0.292,0.22-0.271,0.403
	c0.146,1.304,0.784,7.965-1.017,11.066c-0.079,0.136-0.065,0.308,0.036,0.429C439.966,299.191,440.072,299.239,440.182,299.239z"/>
<path fill="#E6E6E6" d="M440.397,295.72c-0.079-0.087-0.194-0.131-0.312-0.121c-0.545,0.05-1.372,0.12-2.277,0.18
	c-0.125,0.009-0.239,0.079-0.301,0.189c-0.062,0.11-0.065,0.243-0.008,0.355c0.334,0.657,0.835,1.778,1.197,2.604
	c0.053,0.12,0.164,0.204,0.294,0.221c0.016,0.002,0.033,0.003,0.049,0.003c0.113,0,0.221-0.051,0.293-0.141
	c0.517-0.646,0.906-1.645,1.156-2.969C440.509,295.926,440.476,295.807,440.397,295.72z"/>
<path fill="#898989" d="M445.544,285.352c-0.017-0.178-0.156-0.319-0.334-0.338c-2.755-0.293-3.758-0.713-5.723-1.752
	c-0.891-0.48-1.707-1.031-2.425-1.638c-0.1-0.084-0.236-0.111-0.36-0.07c-0.124,0.041-0.218,0.143-0.248,0.27
	c-0.132,0.566-0.344,1.369-0.597,1.979c-0.043,0.102-0.038,0.218,0.013,0.316l1.683,3.253c0.065,0.125,0.194,0.203,0.333,0.203
	c0.013,0,0.025-0.001,0.038-0.002l2.354-0.239c0.12-0.012,0.228-0.082,0.288-0.187c0.01-0.017,0.032-0.047,0.073-0.058
	c0.019-0.005,2.256-0.629,4.639-1.344C445.449,285.694,445.561,285.53,445.544,285.352z"/>
<path fill="#E6E6E6" d="M426.905,320.622c0.025,0.005,0.05,0.008,0.075,0.008c0.118,0,0.231-0.056,0.302-0.153
	c0.087-0.118,0.097-0.276,0.025-0.404c-0.012-0.022-0.02-0.041-0.02-0.052c-0.505-10.951,3.148-15.532,5.371-17.288
	c0.13-0.103,0.177-0.278,0.117-0.432c-0.06-0.154-0.208-0.244-0.379-0.237c-3.717,0.301-8.398,0.847-9.588,1.739
	c-2.182,1.636-3.737,9.948-1.988,13.445C421.8,319.208,424.67,320.165,426.905,320.622z"/>
<path fill="#FFFFFF" d="M445.769,304.624c-0.985-2.094-4.605-2.678-5.691-2.807c-0.062-0.006-0.126,0.001-0.185,0.025
	c-0.115,0.046-0.26,0.092-0.467,0.156c-1.359,0.419-4.542,1.4-6.896,4.814c-2.465,3.573-2.924,8.499-2.568,11.631
	c0.021,0.189,0.182,0.333,0.373,0.333c0.002,0,0.004,0,0.006,0c0.707-0.011,2.076-0.136,3.306-0.847
	c0.107-0.062,0.176-0.172,0.186-0.294c0.19-2.358,0.341-4.131,0.362-4.29c0.031-0.066,3.117-6.588,9.469-6.588
	c0.765,0,1.558,0.096,2.358,0.284c0.123,0.027,0.254-0.007,0.346-0.095c0.092-0.088,0.133-0.217,0.108-0.342
	C446.369,306.061,446.131,305.395,445.769,304.624z"/>
<path fill="#898989" d="M433.214,318.425c-1.09,0.48-2.185,0.581-2.741,0.597c-0.109,0.003-0.212,0.055-0.281,0.14
	c-0.069,0.085-0.097,0.196-0.077,0.304c0.082,0.441,0.167,0.811,0.26,1.128c0.003,0.011,0.005,0.022,0.005,0.032
	c0.005,0.107,0.057,0.207,0.141,0.274c0.067,0.054,0.149,0.082,0.234,0.082c0.021,0,0.043-0.002,0.064-0.006
	c0.035-0.006,0.064-0.013,0.126-0.033c0.561-0.225,1.877-0.554,2.417-0.685c0.157-0.038,0.272-0.173,0.286-0.334l0.089-1.126
	c0.01-0.132-0.049-0.259-0.157-0.336C433.475,318.386,433.334,318.372,433.214,318.425z"/>
<path fill="#E6E6E6" d="M446.152,312.04c0.233-1.846,0.301-3.442,0.32-4.229c0.001-0.042-0.011-0.112-0.023-0.151
	c-0.015-0.158-0.127-0.29-0.281-0.329c-0.861-0.221-1.716-0.333-2.539-0.333c-5.909,0-8.853,5.715-9.169,6.367
	c-0.02,0.042-0.032,0.086-0.036,0.132l-0.013,0.157c-0.039,0.453-0.126,1.494-0.236,2.844c-0.013,0.153,0.069,0.298,0.207,0.367
	c0.053,0.026,0.11,0.039,0.167,0.039c0.09,0,0.18-0.033,0.25-0.095c1.231-1.101,5.799-4.817,10.954-4.442
	C445.94,312.38,446.127,312.238,446.152,312.04z"/>
<path fill="#B5B5B6" d="M437.201,301.773c-0.781,0.03-1.689,0.076-2.661,0.137c-0.085,0.005-0.206,0.065-0.27,0.123
	c-0.074,0.029-7.421,3.065-6.733,17.976c0.002,0.043-0.026,0.075-0.05,0.096c-0.113,0.094-0.16,0.245-0.122,0.386
	c0.039,0.141,0.156,0.247,0.3,0.271c0.719,0.119,1.446,0.203,2.048,0.235c0.006,0,0.013,0,0.02,0c0.113,0,0.221-0.051,0.292-0.14
	c0.076-0.094,0.102-0.218,0.069-0.335c-1.016-3.676-0.581-9.781,2.228-13.853c1.263-1.831,2.96-3.238,5.047-4.182
	c0.163-0.074,0.251-0.253,0.21-0.428C437.539,301.887,437.374,301.758,437.201,301.773z"/>
<path fill="#E6E6E6" d="M432.652,328.1L432.652,328.1l0.281,0.253c0.085-0.066,0.138-0.168,0.144-0.276
	c0.085-1.584,0.25-3.974,0.492-7.104c0.009-0.12-0.04-0.237-0.132-0.315c-0.092-0.078-0.216-0.108-0.333-0.078
	c-0.698,0.173-1.624,0.418-2.076,0.599c-0.001,0.001-0.147,0.052-0.702,0.052c-1.725,0-5.15-0.477-7.518-1.792
	c-0.095-0.051-0.206-0.063-0.307-0.025c-0.101,0.036-0.182,0.113-0.223,0.212l-1.086,2.667c-0.063,0.154-0.017,0.331,0.113,0.435
	c0.026,0.021,0.043,0.04,0.047,0.054c0.096,0.305,2.424,7.455,9.278,7.455c0.1,0,0.201-0.001,0.308-0.005
	c0.004,0,0.021,0.002,0.059,0.024c0.06,0.036,0.126,0.053,0.192,0.053c0.111,0,0.221-0.05,0.294-0.143l1.4-1.778L432.652,328.1z"/>
<path fill="#514A47" d="M403.529,354.274l-0.751-1.503c-0.052-0.104-0.149-0.178-0.264-0.201c-0.114-0.021-0.232,0.01-0.319,0.086
	l-3.831,3.371c-0.023,0.02-0.055,0.029-0.102,0.03c-0.623-0.096-1.045-0.341-1.255-0.729c-0.322-0.595-0.011-1.299,0.015-1.349
	l2.689-3.746c0.069-0.097,0.089-0.221,0.052-0.334c-0.037-0.113-0.125-0.202-0.238-0.24l-1.253-0.418
	c-0.132-0.043-0.275-0.011-0.376,0.083c-2.989,2.818-6.309,6.542-5.153,8.276c1,1.5,2.226,2.26,3.644,2.26c0.001,0,0.045,0,0.046,0
	c2.138-0.026,4.652-1.861,7.08-5.167c0.08-0.109,0.095-0.251,0.041-0.375C403.547,354.305,403.538,354.289,403.529,354.274z"/>
<path fill="#514A47" d="M397.593,353.85c-0.113,0.007-0.217,0.064-0.283,0.157l-0.051,0.072c-0.019,0.027-0.035,0.056-0.046,0.087
	c-0.053,0.142-0.207,0.638,0.018,1.05c0.143,0.258,0.416,0.44,0.813,0.542c0.031,0.008,0.062,0.012,0.093,0.012
	c0.09,0,0.179-0.033,0.248-0.093l0.301-0.265c0.076-0.066,0.121-0.161,0.127-0.261c0.005-0.101-0.029-0.199-0.097-0.273
	l-0.823-0.905C397.817,353.889,397.709,353.845,397.593,353.85z"/>
<path fill="#514A47" d="M399.189,354.844c0.088,0,0.177-0.031,0.248-0.094l0.763-0.672c0.082-0.072,0.128-0.176,0.127-0.285
	c-0.001-0.109-0.049-0.212-0.133-0.282l-1.263-1.068c-0.08-0.067-0.185-0.1-0.288-0.086c-0.104,0.013-0.198,0.068-0.259,0.153
	l-0.478,0.665c-0.103,0.144-0.092,0.34,0.027,0.471l0.977,1.075C398.985,354.803,399.087,354.844,399.189,354.844z"/>
<path fill="#514A47" d="M399.417,351.074l-0.447,0.622c-0.114,0.159-0.087,0.379,0.063,0.505l1.379,1.167
	c0.01,0.012,0.02,0.024,0.029,0.033c0.073,0.073,0.169,0.11,0.265,0.11c0.088,0,0.176-0.031,0.248-0.093l0.506-0.445
	c0.08-0.07,0.125-0.17,0.127-0.276c0.001-0.105-0.042-0.207-0.119-0.279l-1.49-1.397c-0.079-0.074-0.187-0.112-0.293-0.1
	C399.577,350.93,399.48,350.986,399.417,351.074z"/>
<path fill="#514A47" d="M401.709,352.3c0.068,0.064,0.159,0.095,0.25,0.095c0.097,0,0.196-0.035,0.271-0.102
	c0.125-0.113,0.161-0.296,0.085-0.447l-0.684-1.369c-0.044-0.089-0.123-0.157-0.217-0.188l-0.898-0.299
	c-0.158-0.052-0.33,0.005-0.426,0.141c-0.007,0.011-0.015,0.023-0.022,0.037l-0.063,0.088c-0.11,0.153-0.089,0.364,0.048,0.492
	L401.709,352.3z"/>
<path fill="#514A47" d="M405.339,351.102l-2.667-1.507c-0.025-0.015-0.045-0.038-0.055-0.066l-1.002-2.784
	c-0.042-0.115-0.136-0.202-0.253-0.234c-0.115-0.033-0.243-0.006-0.337,0.071c-0.769,0.627-1.537,1.288-2.284,1.965
	c-0.099,0.089-0.143,0.225-0.115,0.355c0.028,0.13,0.122,0.236,0.249,0.279l2.817,0.938c0.031,0.01,0.057,0.033,0.071,0.062
	l1.767,3.534c0.06,0.12,0.178,0.198,0.312,0.207c0.008,0,0.016,0.001,0.024,0.001c0.125,0,0.241-0.061,0.311-0.165
	c0.171-0.254,0.342-0.515,0.518-0.794l0.784-1.344c0.051-0.087,0.064-0.19,0.038-0.287
	C405.49,351.234,405.426,351.152,405.339,351.102z"/>
<path fill="#514A47" d="M402.187,346.075c-0.129-0.018-0.244,0.052-0.317,0.153c-0.074,0.101-0.093,0.231-0.051,0.349l0.97,2.693
	c0.031,0.085,0.09,0.155,0.168,0.2l2.713,1.533c0.01,0.006,0.023,0.021,0.037,0.042c0.072,0.108,0.191,0.168,0.313,0.168
	c0.055,0,0.11-0.012,0.162-0.037l0.597-0.287c0.129-0.061,0.211-0.191,0.213-0.334c0.013-1.325-0.372-2.38-1.143-3.137
	C404.744,346.333,403.08,346.111,402.187,346.075z"/>
<path fill="#E6E6E6" d="M419.826,339.742c-4.567-1.221-5.846-4.144-6.202-5.777c-0.029-0.136-0.132-0.245-0.267-0.281
	c-0.134-0.039-0.278,0.003-0.374,0.105l-10.692,11.421c-0.098,0.105-0.128,0.257-0.076,0.392c0.052,0.134,0.176,0.227,0.32,0.239
	c1.022,0.081,2.457,0.389,3.485,1.394c0.687,0.671,1.089,1.562,1.194,2.646c0.013,0.137,0.101,0.256,0.228,0.31
	c0.047,0.02,0.096,0.029,0.146,0.029c0.084,0,0.167-0.028,0.235-0.083l12.142-9.739c0.11-0.088,0.161-0.231,0.132-0.37
	C420.067,339.889,419.963,339.779,419.826,339.742z"/>
<path fill="#E6E6E6" d="M424.089,335.959c-0.27,0.055-0.529,0.081-0.792,0.081c-1.019,0-2.105-0.392-3.523-1.269
	c-2.338-1.447-2.215-3.991-2.054-5.018c0.023-0.146-0.042-0.291-0.165-0.372c-0.124-0.08-0.283-0.082-0.407-0.002
	c-0.884,0.564-2.181,1.627-3.345,3.495c-0.04,0.064-0.059,0.138-0.056,0.212c0.032,0.84,0.5,5.104,6.556,6.521
	c0.012,0.003,0.032,0.018,0.054,0.04c0.073,0.075,0.171,0.114,0.269,0.114c0.083,0,0.166-0.027,0.234-0.082l0.073-0.057
	c2.038-1.223,3.051-2.353,3.542-3.086c0.084-0.126,0.084-0.291,0-0.417C424.39,335.992,424.238,335.929,424.089,335.959z"/>
<path fill="#FFFFFF" d="M428.478,332.529c-5.8-0.869-7.57-4.432-8.108-6.478c-0.04-0.15-0.167-0.26-0.321-0.277
	c-0.158-0.017-0.303,0.063-0.375,0.2l-1.445,2.786c-0.008,0.016-0.016,0.033-0.021,0.05c-0.137,0.396-1.254,3.923,1.697,5.749
	c1.377,0.853,2.427,1.232,3.406,1.232c1.079,0,2.012-0.452,3.261-1.232c0.893-0.558,1.588-1.013,2.067-1.353
	c0.125-0.088,0.183-0.244,0.147-0.393C428.752,332.664,428.63,332.552,428.478,332.529z"/>
<path fill="#B5B5B6" d="M430.468,330.483c-5.591-0.086-8.221-4.884-9.092-6.943c-0.059-0.14-0.181-0.218-0.348-0.229
	c-0.152,0.001-0.288,0.093-0.345,0.233l-0.298,0.731c-0.02,0.047-0.029,0.098-0.028,0.148c0.013,0.734,0.383,7.198,9.145,7.981
	c0.011,0.001,0.022,0.001,0.033,0.001c0.114,0,0.223-0.052,0.294-0.143l0.926-1.174c0.088-0.112,0.105-0.265,0.044-0.394
	C430.74,330.568,430.611,330.485,430.468,330.483z"/>
<path fill="#514A47" d="M435.125,328.061c0.073-0.179-0.001-0.384-0.173-0.474c-0.173-0.091-0.383-0.034-0.489,0.127
	c-0.892,1.373-1.491,2.411-1.602,2.605c-0.019,0.033-0.033,0.069-0.041,0.106c-0.344,1.586-0.161,2.838,0.545,3.722
	c0.023,0.029,0.048,0.054,0.087,0.092c0.073,0.083,0.177,0.128,0.283,0.128c0.059,0,0.118-0.014,0.173-0.042
	c0.154-0.08,0.233-0.256,0.191-0.424C433.755,332.526,434.1,330.561,435.125,328.061z"/>
<circle fill="#514A47" cx="441.107" cy="331.482" r="0.888"/>
<circle fill="#514A47" cx="447.567" cy="325.902" r="0.887"/>
<circle fill="#514A47" cx="451.67" cy="322.656" r="0.888"/>
<path fill="#A29E9B" d="M451.777,315.976c-0.67-0.203-1.36-0.306-2.051-0.306c-3.943,0-7.599,3.337-10.272,5.776
	c-0.381,0.348-0.789,0.761-1.21,1.227c-0.015,0.016-0.027,0.033-0.039,0.051c-0.595,0.939-5.748,9.263-3.367,12.151
	c0.008,0.01,0.015,0.034,0.019,0.067c0.016,0.152,0.123,0.278,0.27,0.32c0.582,0.166,1.112,0.19,1.377,0.19
	c0.231,0,0.46-0.015,0.681-0.044c1.014-0.135,2.12-0.835,3.587-2.271c0.089-0.087,0.129-0.213,0.106-0.336s-0.105-0.227-0.22-0.276
	c-0.418-0.181-0.688-0.59-0.688-1.044c0-0.628,0.51-1.139,1.138-1.139c0.431,0,0.82,0.245,1.015,0.638
	c0.055,0.112,0.177,0.171,0.3,0.189c0.121,0.018,0.262-0.045,0.345-0.138l0.053-0.058c0.317-0.347,0.632-0.692,0.944-1.024
	c1.027-1.097,2.151-1.889,3.115-2.519c0.103-0.067,0.167-0.181,0.17-0.303c0.003-0.123-0.054-0.24-0.152-0.313
	c-0.297-0.219-0.468-0.552-0.468-0.913c0-0.627,0.51-1.138,1.138-1.138c0.543,0,1.013,0.388,1.116,0.922
	c0.023,0.122,0.105,0.224,0.219,0.273c0.115,0.049,0.245,0.039,0.349-0.027c0.834-0.527,1.55-1.009,2.254-1.515
	c0.118-0.085,0.176-0.229,0.15-0.373c-0.026-0.143-0.133-0.257-0.273-0.294c-0.501-0.132-0.851-0.582-0.851-1.095
	c0-0.627,0.511-1.138,1.138-1.138c0.561,0,1.032,0.405,1.119,0.963c0.023,0.146,0.13,0.266,0.273,0.304
	c0.142,0.039,0.295-0.01,0.389-0.125c1.042-1.282,1.523-2.696,1.318-3.881C454.542,317.47,453.507,316.5,451.777,315.976z"/>
<path fill="#E6E6E6" d="M433.607,328.055c0.038,0.012,0.077,0.018,0.116,0.018c0.125,0,0.246-0.063,0.316-0.173
	c0.945-1.476,2.401-3.601,3.965-5.336c0.014-0.015,0.026-0.032,0.038-0.049l0.171-0.264c0.012-0.018,0.045-0.033,0.064-0.04
	c0.053-0.02,0.101-0.051,0.141-0.093c0.298-0.314,0.591-0.602,0.869-0.856c1.585-1.447,3.558-3.249,5.754-4.467
	c0.084-0.047,0.147-0.124,0.176-0.216c0.32-1.018,0.586-2.208,0.792-3.537c0.016-0.104-0.012-0.21-0.078-0.292
	c-0.066-0.082-0.164-0.133-0.269-0.139c-5.864-0.382-10.915,4.577-11.122,4.781c-0.025,0.025-0.054,0.033-0.074,0.036
	c-0.205-0.019-0.378,0.143-0.395,0.344c-0.244,3.035-0.568,7.217-0.723,9.905C433.339,327.848,433.445,328.003,433.607,328.055z"/>
<path fill="#898989" d="M455.035,284.919c-0.979-0.639-2.14-1.021-3.104-1.021c-0.386,0-0.708,0.063-0.956,0.186
	c-0.861,0.431-3.611,1.328-7.744,2.527c-0.182,0.053-0.296,0.233-0.266,0.42c0.12,0.738,1.118,7.306-0.747,10.778
	c-0.074,0.138-0.055,0.307,0.049,0.425c0.103,0.117,0.268,0.16,0.415,0.103c2.801-1.061,6.393-2.474,8.12-3.151
	c0.039,0,0.093,0.021,0.116,0.079c0.025,0.064-0.006,0.137-0.07,0.163c-2.931,1.166-10.779,4.246-11.91,4.494
	c-0.05,0-0.095-0.03-0.116-0.08l-0.021-0.047c-0.013-0.031-0.03-0.06-0.05-0.086c-0.002-0.003-0.005-0.007-0.008-0.01
	c-0.004-0.009-0.007-0.021-0.009-0.035c-0.005-0.029-0.014-0.058-0.025-0.084c-0.202-0.466-1.214-2.794-1.597-3.452
	c-0.005-0.017-0.013-0.04-0.016-0.048c-0.059-0.149-0.209-0.245-0.368-0.236c-1.203,0.061-2.144,0.075-2.862,0.029
	c-0.2-0.013-0.646-0.189-1.383-1.224c-0.074-0.102-0.191-0.162-0.319-0.157c-0.126,0.004-0.241,0.072-0.307,0.179
	c-0.486,0.795-3.03,4.876-5.35,7.11c-0.118,0.114-0.148,0.291-0.075,0.438c0.073,0.146,0.234,0.231,0.395,0.203
	c3.933-0.629,9.374-0.913,11.981-0.913c0.984,0,1.188,0.043,1.255,0.056c0.49,0.054,4.824,0.598,5.933,2.955
	c0.165,0.352,0.306,0.685,0.427,1.015c0.045,0.124,0.152,0.214,0.281,0.239c0.024,0.005,0.047,0.007,0.071,0.007
	c0.105,0,0.207-0.044,0.279-0.125c1.083-1.207,4.809-5.316,7.281-7.542c2.697-2.428,3.491-6.787,3.577-7.321
	C458.069,287.421,456.177,285.665,455.035,284.919z"/>
<path fill="#FFFFFF" d="M459.242,276.259c-0.01,0.008-0.033,0.015-0.064,0.019c-0.157,0.019-0.286,0.134-0.321,0.289
	c-0.111,0.485-0.242,0.881-0.389,1.175c-0.039,0.077-0.117,0.081-0.168,0.056c-0.04-0.02-0.057-0.054-0.063-0.072
	c-0.006-0.018-0.013-0.055,0.007-0.095c0.862-1.724,0.819-6.168,0.761-7.999c-0.005-0.154-0.104-0.29-0.25-0.342
	c-0.146-0.051-0.308-0.009-0.409,0.108l-1.509,1.741c-0.038,0.043-0.106,0.056-0.154,0.029c-0.052-0.029-0.077-0.09-0.06-0.146
	c0.161-0.537,0.283-1.149,0.372-1.872c0.02-0.162-0.067-0.319-0.216-0.387c-0.313-0.144-0.683-0.217-1.097-0.217
	c-0.503,0-0.917,0.11-0.976,0.125c-0.046,0-0.1-0.028-0.119-0.089c-0.02-0.066,0.018-0.136,0.083-0.156
	c0.018-0.006,0.45-0.133,1.017-0.133c0.333,0,0.644,0.044,0.922,0.132c0.109,0.035,0.229,0.017,0.324-0.048
	c0.095-0.065,0.155-0.17,0.162-0.285c0.061-0.956,0.051-1.833,0.032-2.401c-0.005-0.147-0.096-0.278-0.232-0.334
	c-0.136-0.055-0.292-0.028-0.399,0.073l-3.521,3.301c-0.023,0.022-0.052,0.034-0.133,0.024c-0.045-0.019-0.075-0.063-0.077-0.112
	c-0.053-1.903,0.353-3.52,0.703-4.541c0.05-0.146,0.005-0.308-0.113-0.408c-0.118-0.1-0.286-0.116-0.421-0.043
	c-2.415,1.315-5.039,3.8-5.064,3.825c-0.04,0.038-0.104,0.043-0.149,0.017c-0.047-0.028-0.072-0.085-0.058-0.139
	c0.292-1.169,0.88-2.531,1.747-4.05c0.083-0.145,0.06-0.327-0.057-0.447c-0.117-0.12-0.298-0.148-0.446-0.069
	c-1.285,0.686-2.588,1.263-3.77,1.669c-0.509,0.175-1.02,0.345-1.515,0.506c-0.12,0.039-0.213,0.136-0.246,0.258
	c-0.033,0.122-0.003,0.252,0.081,0.347c0.257,0.292,0.446,0.523,0.496,0.585c0.043,0.054,0.035,0.133-0.019,0.177
	c-0.06,0.048-0.114,0.058-0.175-0.019c-0.226-0.28-0.515-0.613-0.792-0.911c-0.099-0.106-0.251-0.146-0.387-0.103
	c-1.775,0.558-3.167,0.951-3.215,0.96c-0.041,0-0.08-0.02-0.103-0.054c-0.03-0.044-0.029-0.102,0.002-0.145
	c0.547-0.743,1.627-1.844,3.124-3.184c0.134-0.12,0.164-0.319,0.071-0.473c-0.093-0.155-0.284-0.22-0.452-0.157
	c-3.047,1.137-5.668,3.07-6.653,3.848c-0.041,0.032-0.075,0.073-0.099,0.119c-0.244,0.461-5.844,11.344,4.351,16.833
	c2.433,1.286,3.365,1.591,7.719,1.903c0.011,0.001,0.029,0.009,0.052,0.023c0.06,0.037,0.128,0.055,0.196,0.055
	c0.038,0,0.077-0.006,0.114-0.018c1.644-0.523,2.683-0.898,3.177-1.145c0.367-0.184,0.9-0.246,1.505-0.184
	c0.098,0.01,0.194-0.018,0.272-0.079c0.024-0.02,0.046-0.032,0.06-0.033c0.108-0.011,2.654-0.313,4.204-2.896
	c0.023-0.038,0.064-0.061,0.107-0.061l0.05,0.011c0.113,0.042,0.718,0.251,1.539,0.251c0.911,0,2.232-0.264,3.352-1.524
	c1.176-1.323,1.192-3.003,0.471-3.743C461.76,274.922,460.549,275.153,459.242,276.259z"/>
<path fill="#727171" d="M441.663,276.403c0,0,3.416,2.417,7.833,2.167c0,0-1.5,5.25-5.667,4.167S441.663,276.403,441.663,276.403z"
	/>
<g>
	<circle fill="#514A47" cx="438.246" cy="329.236" r="0.833"/>
	<circle fill="#514A47" cx="444.246" cy="321.986" r="0.833"/>
	<circle fill="#514A47" cx="448.663" cy="319.236" r="0.833"/>
</g>
<g>
	<path d="M464.263,267.871c0.332-1.155,1.601-6.658-3.12-9.946c-5.073-3.533-9.384-4.196-12.848-4.729l-0.082-0.012
		c-1.227-0.189-2.068-0.443-2.642-0.682c-0.005-0.021-0.004-0.042-0.012-0.063c-1.322-3.198-7.686-10.125-8.546-11.053
		c-0.116-0.436-0.527-1.906-1.167-3.311c-1.252-2.4-2.002-2.633-3.089-2.732c-0.336-0.031-0.654-0.059-1.053-0.241
		c-1.303-0.593-2.365-0.485-2.85-0.38c-0.381-0.268-1.185-0.74-1.919-0.554c-0.305,0.077-0.72,0.298-0.966,0.914
		c-0.357,0.894-0.2,2.073,0.02,2.969c-0.052,0.039-0.097,0.088-0.132,0.148c-0.949,1.626-1.634,2.8,0.132,4.124
		c1.56,1.17,3.842,1.877,4.486,2.062c1.126,1.56,5.008,8.42,5.048,8.491c0.021,0.038,0.048,0.071,0.077,0.101
		c-0.037,0.59,0.061,1.245,0.406,1.906c-1.171-0.053-3.059-0.005-4.478,0.673c-0.221,0.106-0.333,0.356-0.264,0.591
		c0.023,0.079,0.502,1.687,1.581,2.988l-2.387,0.597c-0.178,0.044-0.316,0.182-0.363,0.359c-0.046,0.177,0.008,0.365,0.141,0.49
		l2.839,2.672l-0.419,1.884c-0.611,0.118-1.183,0.573-1.689,1.346c-1.341,2.046-0.827,3.354-0.392,4.014
		c-0.395,0.09-0.744,0.234-1.013,0.384c-0.618-0.207-1.168-0.2-1.64,0.023c-0.415,0.196-0.664,0.512-0.804,0.755
		c-1.384,0.156-1.729,1.281-1.743,1.328c-1.348,4.476,0.624,7.001,1.168,7.589c0.312,1.596,2.813,9.494,5.16,13.431
		c-0.079,0.041-0.152,0.096-0.201,0.178c-0.039,0.064-3.877,6.428-6.494,8.081c-0.069,0.043-0.118,0.103-0.157,0.168
		c-1.064,0.249-1.894,0.537-2.335,0.868c-2.587,1.94-3.928,10.714-2.173,14.224c0.331,0.661,0.863,1.218,1.509,1.694l-1.999,4.91
		c-0.023,0.057-0.036,0.117-0.037,0.178c0,0.007,0,0.085,0.007,0.219c-0.019,0.023-0.042,0.042-0.056,0.069l-1.941,3.744
		c-0.637,0.279-2.738,1.371-4.526,4.284l-12.688,13.552c-2.874,2.351-10.267,8.83-8.307,11.771c1.108,1.662,2.546,2.539,4.164,2.539
		c0.018,0,0.036,0,0.054,0c2.75-0.033,5.866-2.583,8.783-7.194l0.781-1.338l1.315-0.631c0.011-0.005,0.021-0.01,0.031-0.016
		c0.028-0.016,0.054-0.033,0.078-0.053l13.855-11.113c3.397-2.046,4.115-3.898,4.231-4.277c0.442-0.207,0.899-0.468,1.39-0.774
		c2.205-1.378,2.627-1.768,2.704-1.855c0.049-0.056,0.08-0.12,0.1-0.186c0.006,0,0.012,0.001,0.019,0.002
		c0.012,0.001,0.025,0.001,0.037,0.001c0.152,0,0.297-0.07,0.393-0.19l2.066-2.619c-0.401,1.803-0.182,3.248,0.655,4.294
		c0.783,0.98,2.105,1.542,3.626,1.542c0.257,0,0.515-0.017,0.763-0.05c2.033-0.272,4.049-2.479,5.998-4.613
		c0.321-0.352,0.64-0.701,0.956-1.039c1.284-1.369,2.746-2.28,4.439-3.335c1.073-0.668,2.289-1.426,3.596-2.392
		c2.241-1.657,3.469-4.003,3.128-5.977c-0.188-1.086-0.935-2.541-3.425-3.295c-0.728-0.221-1.479-0.332-2.232-0.332
		c-1.263,0-2.485,0.316-3.654,0.82c0.871-3.32,1.008-7.053,1.029-8.198c0.07-0.239,0.102-0.613-0.013-1.19
		c0.066-0.028,0.128-0.07,0.18-0.127c0.046-0.052,4.644-5.217,7.484-7.773c2.992-2.693,3.747-7.473,3.777-7.676
		c0.003-0.017,0.004-0.033,0.005-0.05c0.185-3.701-1.899-5.634-3.158-6.456c-0.373-0.244-0.766-0.446-1.162-0.614
		c0.916-0.377,2.092-1.095,3.018-2.466c0.936,0.227,3.327,0.536,5.186-1.556c1.119-1.259,1.421-2.964,0.811-4.1
		C464.071,274.851,466.338,271.945,464.263,267.871z M431.168,243.642c-0.067-0.087-0.161-0.149-0.267-0.177
		c-0.027-0.007-2.674-0.713-4.313-1.942c-0.83-0.623-0.919-0.923-0.208-2.222c0.012,0.032,0.021,0.055,0.025,0.063
		c0.105,0.256,0.397,0.377,0.653,0.272c0.255-0.105,0.377-0.397,0.272-0.653c-0.26-0.632-0.845-2.498-0.432-3.53
		c0.108-0.272,0.234-0.304,0.282-0.316c0.357-0.093,0.997,0.307,1.248,0.514c0.135,0.113,0.324,0.145,0.492,0.086
		c0.041-0.014,1.009-0.344,2.371,0.275c0.554,0.252,1.01,0.293,1.377,0.326c0.725,0.066,1.203,0.109,2.281,2.174
		c0.695,1.529,1.124,3.225,1.128,3.242c0.021,0.082,0.061,0.158,0.119,0.219c0.063,0.067,5.601,6.021,7.781,9.599
		c-0.035,0.003-0.07,0.003-0.105,0.013c-0.222,0.067-0.368,0.278-0.353,0.51l0.03,0.488c-0.881-0.56-1.874-1.304-2.13-1.817
		c-0.082-0.162-0.244-0.268-0.425-0.276c-0.184-0.008-0.353,0.083-0.448,0.238c-0.027,0.044-0.485,0.81-0.238,1.805
		c-1.405-0.504-2.929-1.143-3.262-1.518c-0.1-0.113-0.246-0.173-0.396-0.167c-0.15,0.007-0.29,0.081-0.38,0.202
		c-0.108,0.147-0.219,0.334-0.319,0.55C434.84,249.655,432.003,244.716,431.168,243.642z M431.588,260.48l2.337-0.584
		c0.181-0.045,0.321-0.187,0.365-0.368c0.044-0.181-0.017-0.371-0.157-0.494c-0.938-0.821-1.512-2.092-1.763-2.747
		c1.899-0.682,4.562-0.327,4.59-0.323c0.207,0.029,0.413-0.076,0.511-0.263c0.098-0.187,0.069-0.414-0.073-0.57
		c-1.104-1.209-0.843-2.406-0.572-3.035c1.237,0.775,3.776,1.605,4.351,1.788c0.216,0.068,0.445-0.014,0.569-0.2
		c0.123-0.186,0.108-0.432-0.038-0.602c-0.304-0.354-0.429-0.691-0.464-0.978c0.957,0.899,2.41,1.714,2.62,1.831
		c0.161,0.088,0.355,0.083,0.509-0.015c0.154-0.098,0.243-0.271,0.231-0.453l-0.02-0.321c0.664,0.362,1.742,0.76,3.476,1.026
		l0.082,0.013c3.538,0.544,7.546,1.161,12.429,4.561c4.637,3.229,2.763,8.775,2.681,9.009c-0.046,0.133-0.035,0.279,0.031,0.403
		c1.917,3.564,0.043,6.032-0.636,6.757c-0.52-0.343-1.554-0.659-3.115,0.405c0.371-2.95,0.135-6.767,0.121-6.982
		c-0.013-0.202-0.147-0.377-0.339-0.442c-0.192-0.065-0.405-0.007-0.538,0.146l-1.081,1.248c0.015-0.114,0.027-0.227,0.04-0.341
		c0.002-0.008,0.001-0.015,0.002-0.023c0.234-2.182,0.045-4.25,0.034-4.367c-0.018-0.19-0.143-0.353-0.321-0.42
		c-0.179-0.067-0.379-0.027-0.519,0.103l-3.431,3.217c0.18-2.456,1.071-4.215,1.082-4.235c0.094-0.183,0.067-0.405-0.07-0.56
		c-0.136-0.155-0.354-0.209-0.546-0.139c-1.696,0.621-3.69,2.129-5.007,3.229c1.104-2.575,2.956-5.024,2.979-5.054
		c0.167-0.22,0.125-0.533-0.095-0.701c-0.22-0.168-0.533-0.125-0.701,0.095c-0.04,0.053-0.391,0.518-0.865,1.23
		c-0.087,0.056-2.522,1.601-5.259,2.542c-0.663,0.228-1.325,0.445-1.955,0.647c-0.251-0.247-0.51-0.478-0.75-0.651
		c1.175-1.082,2.27-1.988,2.29-2.004c0.177-0.146,0.232-0.394,0.133-0.601c-0.099-0.207-0.323-0.323-0.551-0.275
		c-4.836,0.986-9.217,4.671-9.522,4.931c-0.249-0.257-0.587-0.533-1-0.688l0.452-2.033c0.038-0.172-0.017-0.352-0.146-0.472
		L431.588,260.48z M441.564,264.567c0.112,0.059,0.25,0.161,0.402,0.291c-0.36,0.112-0.7,0.215-1.006,0.307
		C441.153,264.968,441.357,264.767,441.564,264.567z M431.803,267.032c0.278-0.424,0.711-0.929,1.199-0.929c0.002,0,0.004,0,0.006,0
		c0.568,0.005,1.107,0.665,1.267,0.919c0.003,0.005,0.009,0.008,0.012,0.013c-0.361,0.906-0.824,2.288-1.084,3.909
		c-0.479-0.312-0.971-0.467-1.443-0.518c-0.041-0.069-0.089-0.136-0.149-0.211C431.271,269.795,430.565,268.922,431.803,267.032z
		 M427.351,279.973c-0.023-0.022-2.359-2.242-1.019-6.693c0.021-0.065,0.237-0.638,1.114-0.638c0.215,0,0.409-0.144,0.477-0.349
		c0.001-0.003,0.118-0.343,0.436-0.489c0.266-0.122,0.625-0.09,1.067,0.093c0.157,0.065,0.335,0.046,0.476-0.051
		c0.016-0.011,1.585-1.07,3.013,0.121c0.046,0.038,0.098,0.062,0.151,0.081c-0.17,1.894-0.001,4.014,0.915,6.044l-1.018,0.385
		c-0.133,0.051-0.239,0.156-0.29,0.289c-0.051,0.133-0.043,0.282,0.022,0.409l4.545,8.787c0.087,0.167,0.259,0.27,0.444,0.27
		c0.017,0,0.034-0.001,0.051-0.003l2.633-0.268c0.167,1.66,0.3,4.524-0.006,6.991c-1.174,0.11-4.633,0.409-6.37,0.295
		c-1.54-0.1-6.269-12.681-6.479-14.954C427.498,280.171,427.442,280.056,427.351,279.973z M441.223,298.296
		c-0.066,0.076-0.096,0.167-0.108,0.259c-0.307,0.113-0.592,0.217-0.849,0.31c1.863-3.208,1.208-10.016,1.065-11.296
		c0.273-0.077,0.657-0.186,1.12-0.318C442.666,288.672,443.574,295.591,441.223,298.296z M439.123,298.777
		c-0.345-0.788-0.862-1.947-1.207-2.623c0.909-0.06,1.739-0.131,2.287-0.181C439.984,297.131,439.64,298.13,439.123,298.777z
		 M440.623,286.728c-0.132,0.037-0.236,0.124-0.299,0.234l-2.353,0.239l-1.683-3.253c0.263-0.633,0.481-1.46,0.616-2.037
		c0.708,0.599,1.529,1.165,2.49,1.682c2.04,1.079,3.105,1.502,5.861,1.794C442.878,286.099,440.666,286.716,440.623,286.728z
		 M435.654,282.724l-1.815-3.51l0.505-0.191c0.031-0.012,0.053-0.034,0.081-0.051c0.424,0.741,0.958,1.463,1.627,2.15
		C436.004,281.359,435.856,282.047,435.654,282.724z M423.116,304.103c1.04-0.78,5.378-1.34,9.394-1.665
		c-2.267,1.791-6.026,6.467-5.513,17.6c0.003,0.08,0.03,0.151,0.067,0.217c-2.312-0.473-4.956-1.437-5.826-3.175
		C419.588,313.78,421.074,305.635,423.116,304.103z M439.619,302.356c0.22-0.068,0.375-0.117,0.497-0.167
		c0.714,0.085,4.468,0.622,5.396,2.594c0.412,0.875,0.597,1.482,0.677,1.892c-8.269-1.949-12.214,6.426-12.253,6.513
		c-0.024,0.052-0.039,0.108-0.043,0.166c-0.004,0.046-0.157,1.843-0.352,4.25c-1.175,0.679-2.515,0.787-3.124,0.796
		c-0.403-3.553,0.316-8.204,2.504-11.376C435.201,303.72,438.297,302.764,439.619,302.356z M433.359,319.895
		c-0.563,0.136-1.884,0.466-2.469,0.701c-0.015,0.004-0.032,0.008-0.051,0.012c-0.002-0.039-0.008-0.078-0.02-0.117
		c-0.1-0.342-0.181-0.712-0.252-1.094c0.645-0.02,1.762-0.136,2.881-0.629C433.419,319.137,433.389,319.513,433.359,319.895z
		 M446.159,307.694c0.003,0.037,0.01,0.072,0.022,0.107c-0.019,0.764-0.086,2.361-0.317,4.191c-5.24-0.379-9.81,3.266-11.231,4.537
		c0.126-1.542,0.223-2.681,0.249-3C435.297,312.674,438.87,305.829,446.159,307.694z M432.098,306.458
		c-2.889,4.189-3.327,10.379-2.281,14.165c-0.543-0.029-1.242-0.104-2.006-0.231c0.116-0.097,0.192-0.238,0.185-0.4
		c-0.676-14.644,6.393-17.57,6.495-17.609c0.06-0.023,0.112-0.058,0.157-0.099c0.968-0.061,1.874-0.107,2.652-0.137
		C435.725,302.859,433.706,304.126,432.098,306.458z M430.409,321.607c0.42,0,0.717-0.029,0.84-0.078
		c0.444-0.178,1.407-0.43,2.028-0.584c-0.199,2.581-0.393,5.27-0.492,7.113c-0.031,0.024-0.064,0.044-0.09,0.076l-1.421,1.801
		c-0.075-0.045-0.158-0.078-0.251-0.078c-0.006,0-0.011,0-0.017,0c-6.824,0.207-9.117-6.885-9.212-7.188
		c-0.031-0.099-0.095-0.174-0.171-0.234l1.086-2.667C425.213,321.159,428.761,321.607,430.409,321.607z M396.512,359.486
		c-0.014,0-0.028,0-0.042,0c-1.285,0-2.405-0.704-3.332-2.093c-0.925-1.387,1.906-4.786,5.098-7.795l1.253,0.418l-2.689,3.746
		c-0.019,0.026-0.036,0.055-0.049,0.085c-0.042,0.092-0.395,0.915,0.009,1.661c0.269,0.497,0.783,0.807,1.528,0.921
		c0.025,0.004,0.051,0.006,0.076,0.006c0.121,0,0.238-0.044,0.33-0.125l3.831-3.371l0.761,1.522
		c0.002,0.004,0.006,0.007,0.008,0.012C400.957,357.655,398.541,359.461,396.512,359.486z M397.648,354.297l0.051-0.072l0.823,0.905
		l-0.301,0.265c-0.234-0.06-0.472-0.168-0.578-0.36C397.509,354.792,397.591,354.448,397.648,354.297z M399.273,354.469
		l-0.977-1.075l0.478-0.665l1.263,1.068L399.273,354.469z M400.789,353.135c-0.009-0.009-0.014-0.022-0.024-0.03l-1.407-1.19
		l0.447-0.622l1.49,1.397L400.789,353.135z M402.049,352.026l-1.656-1.553l0.081-0.112c0.003-0.005,0.004-0.011,0.007-0.016
		l0.898,0.299l0.684,1.369L402.049,352.026z M403.948,353.547l-1.767-3.534c-0.06-0.119-0.164-0.209-0.289-0.25l-2.816-0.939
		c0.768-0.696,1.539-1.356,2.269-1.952l1.002,2.784c0.04,0.113,0.12,0.207,0.224,0.266l2.667,1.507l-0.784,1.344
		C404.286,353.038,404.117,353.296,403.948,353.547z M406.104,350.837c-0.042-0.064-0.095-0.121-0.166-0.161l-2.713-1.534
		l-0.97-2.693c0.81,0.033,2.385,0.226,3.415,1.235c0.696,0.683,1.042,1.646,1.03,2.866L406.104,350.837z M406.366,346.966
		c-1.133-1.106-2.706-1.419-3.717-1.5l10.692-11.421c0.367,1.682,1.695,4.782,6.472,6.059l-12.142,9.739
		C407.557,348.668,407.12,347.703,406.366,346.966z M420.823,339.3c-0.02,0.012-0.038,0.024-0.056,0.039l-0.059,0.047
		c-0.064-0.066-0.141-0.122-0.238-0.144c-5.792-1.355-6.236-5.381-6.267-6.17c1.133-1.817,2.396-2.845,3.229-3.376
		c-0.262,1.665,0.003,4.018,2.227,5.395c1.492,0.923,2.648,1.325,3.721,1.325c0.293,0,0.581-0.031,0.866-0.088
		C423.784,337.017,422.815,338.105,420.823,339.3z M426.457,334.241c-2.169,1.355-3.418,1.765-6.272-0.001
		c-2.707-1.675-1.664-4.949-1.54-5.307l1.445-2.786c0.592,2.249,2.474,5.863,8.415,6.753
		C428.149,333.154,427.526,333.573,426.457,334.241z M429.62,332.032c-8.385-0.749-8.788-6.779-8.803-7.614l0.298-0.731
		c0.816,1.928,3.549,7.081,9.431,7.172L429.62,332.032z M433.271,330.506c0.147-0.258,0.741-1.281,1.59-2.587
		c-0.869,2.119-1.464,4.39-1.041,6.075c-0.025-0.029-0.054-0.051-0.078-0.081C433.11,333.122,432.952,331.976,433.271,330.506z
		 M441.191,331.995c-0.283,0-0.513-0.23-0.513-0.513c0-0.283,0.23-0.514,0.513-0.514c0.283,0,0.513,0.23,0.513,0.514
		C441.703,331.765,441.473,331.995,441.191,331.995z M447.138,325.903c0-0.283,0.23-0.513,0.513-0.513
		c0.283,0,0.513,0.23,0.513,0.513c0,0.282-0.23,0.512-0.513,0.512C447.368,326.415,447.138,326.185,447.138,325.903z
		 M451.753,323.169c-0.283,0-0.513-0.23-0.513-0.513c0-0.283,0.23-0.513,0.513-0.513c0.283,0,0.513,0.23,0.513,0.513
		C452.266,322.939,452.036,323.169,451.753,323.169z M451.752,316.335c1.585,0.48,2.529,1.348,2.73,2.509
		c0.19,1.101-0.288,2.41-1.24,3.581c-0.113-0.724-0.735-1.281-1.489-1.281c-0.835,0-1.513,0.679-1.513,1.513
		c0,0.701,0.481,1.287,1.13,1.458c-0.783,0.563-1.523,1.052-2.235,1.502c-0.134-0.697-0.748-1.227-1.484-1.227
		c-0.834,0-1.513,0.679-1.513,1.513c0,0.499,0.246,0.939,0.62,1.215c-1.155,0.755-2.206,1.533-3.183,2.576
		c-0.319,0.34-0.641,0.693-0.965,1.048c-0.022,0.025-0.045,0.049-0.068,0.074c-0.247-0.499-0.757-0.847-1.351-0.847
		c-0.834,0-1.513,0.679-1.513,1.514c0,0.622,0.377,1.156,0.915,1.388c-1.165,1.14-2.314,2.025-3.375,2.167
		c-0.206,0.027-0.418,0.041-0.631,0.041c-0.279,0-0.759-0.029-1.274-0.176c-0.01-0.094-0.038-0.187-0.103-0.266
		c-1.883-2.284,1.634-8.932,3.395-11.711c0.392-0.433,0.789-0.84,1.186-1.202c2.625-2.396,6.22-5.678,10.019-5.678
		C450.465,316.045,451.118,316.143,451.752,316.335z M439.117,320.985c-0.297,0.271-0.594,0.565-0.888,0.875
		c-0.097,0.036-0.186,0.093-0.247,0.186c-0.04,0.061-0.099,0.152-0.173,0.268c-1.55,1.72-2.992,3.806-4.003,5.385
		c0.153-2.659,0.47-6.768,0.722-9.896c0.002,0,0.004,0.001,0.007,0.001c0.128,0,0.256-0.049,0.354-0.147
		c0.052-0.052,5.114-5.036,10.833-4.672c-0.181,1.166-0.431,2.373-0.78,3.482C442.727,317.696,440.743,319.501,439.117,320.985z
		 M457.621,290.775c-0.06,0.357-0.831,4.698-3.454,7.059c-2.495,2.246-6.304,6.449-7.31,7.57c-0.115-0.313-0.257-0.657-0.44-1.045
		c-1.179-2.505-5.485-3.085-6.231-3.168c-0.737-0.18-8.243,0.044-13.336,0.859c2.341-2.254,4.874-6.307,5.41-7.184
		c0.59,0.828,1.158,1.347,1.664,1.38c0.293,0.019,0.628,0.027,0.989,0.027c0.592,0,1.254-0.022,1.916-0.056
		c0.01,0.025,0.012,0.051,0.026,0.074c0.311,0.518,1.168,2.459,1.591,3.436c0.012,0.07,0.036,0.139,0.08,0.201
		c0.003,0.004,0.008,0.005,0.011,0.01c0.007,0.018,0.016,0.038,0.023,0.055c0.08,0.187,0.263,0.303,0.459,0.303
		c0.036,0,0.072-0.004,0.108-0.012c1.326-0.295,11.507-4.337,11.94-4.509c0.257-0.102,0.382-0.393,0.28-0.649
		c-0.103-0.257-0.393-0.382-0.649-0.28c-1.764,0.701-5.305,2.093-8.068,3.14c1.893-3.523,0.967-9.908,0.787-11.015
		c2.671-0.775,6.647-1.971,7.808-2.552c0.665-0.332,2.264-0.116,3.687,0.813C455.989,285.936,457.77,287.589,457.621,290.775z
		 M461.755,279.095c-1.885,2.121-4.376,1.209-4.48,1.17c-0.227-0.089-0.483,0-0.609,0.209c-1.454,2.423-3.818,2.705-3.922,2.716
		c-0.099,0.01-0.181,0.055-0.253,0.112c-0.66-0.067-1.261-0.004-1.711,0.222c-0.528,0.264-1.728,0.679-3.123,1.123
		c-0.066-0.041-0.139-0.072-0.222-0.077c-4.281-0.306-5.195-0.605-7.57-1.86c-9.837-5.297-4.509-15.731-4.194-16.327
		c0.938-0.74,3.538-2.667,6.552-3.791c-1.115,0.999-2.478,2.293-3.176,3.241c-0.127,0.172-0.13,0.406-0.009,0.581
		c0.121,0.175,0.341,0.255,0.547,0.197c0.02-0.006,1.401-0.396,3.192-0.958c0.293,0.316,0.572,0.64,0.775,0.892
		c0.099,0.123,0.243,0.186,0.39,0.186c0.11,0,0.221-0.036,0.313-0.111c0.215-0.173,0.249-0.488,0.076-0.703
		c-0.051-0.064-0.244-0.3-0.507-0.598c0.497-0.162,1.01-0.332,1.521-0.508c1.465-0.504,2.824-1.159,3.824-1.693
		c-0.715,1.253-1.433,2.738-1.785,4.145c-0.054,0.216,0.041,0.441,0.233,0.553c0.192,0.112,0.435,0.084,0.596-0.069
		c0.03-0.029,2.63-2.485,4.985-3.767c-0.361,1.055-0.777,2.716-0.723,4.673c0.006,0.197,0.126,0.372,0.308,0.448
		c0.181,0.075,0.391,0.038,0.534-0.097l3.521-3.301c0.021,0.623,0.027,1.466-0.031,2.364c-1.039-0.327-2.104-0.017-2.159-0.001
		c-0.265,0.079-0.415,0.358-0.335,0.623c0.079,0.265,0.356,0.415,0.623,0.335c0.011-0.004,0.998-0.276,1.772,0.079
		c-0.077,0.623-0.189,1.244-0.359,1.81c-0.068,0.226,0.032,0.468,0.238,0.582c0.205,0.113,0.464,0.067,0.619-0.111l1.509-1.742
		c0.076,2.385,0.03,6.317-0.722,7.819c-0.124,0.247-0.023,0.547,0.224,0.671c0.072,0.036,0.148,0.053,0.223,0.053
		c0.184,0,0.36-0.101,0.448-0.276c0.17-0.341,0.308-0.772,0.419-1.259c0.094-0.011,0.186-0.04,0.263-0.106
		c1.144-0.967,2.141-1.223,2.669-0.681C462.829,276.47,462.777,277.946,461.755,279.095z"/>
	<path d="M438.008,327.654c-0.834,0-1.513,0.679-1.513,1.513c0,0.834,0.679,1.512,1.513,1.512c0.834,0,1.513-0.678,1.513-1.512
		C439.521,328.333,438.842,327.654,438.008,327.654z M438.008,329.68c-0.283,0-0.513-0.23-0.513-0.512
		c0-0.283,0.23-0.513,0.513-0.513c0.283,0,0.513,0.23,0.513,0.513C438.521,329.45,438.291,329.68,438.008,329.68z"/>
	<path d="M444.234,323.582c0.834,0,1.513-0.679,1.513-1.513c0-0.834-0.679-1.513-1.513-1.513c-0.834,0-1.513,0.679-1.513,1.513
		C442.721,322.904,443.4,323.582,444.234,323.582z M444.234,321.557c0.283,0,0.513,0.23,0.513,0.513c0,0.283-0.23,0.513-0.513,0.513
		c-0.283,0-0.513-0.23-0.513-0.513C443.721,321.787,443.951,321.557,444.234,321.557z"/>
	<path d="M448.651,320.749c0.834,0,1.513-0.679,1.513-1.513c0-0.834-0.679-1.513-1.513-1.513c-0.834,0-1.513,0.679-1.513,1.513
		C447.138,320.071,447.817,320.749,448.651,320.749z M448.651,318.723c0.283,0,0.513,0.23,0.513,0.513s-0.23,0.513-0.513,0.513
		c-0.283,0-0.513-0.23-0.513-0.513S448.368,318.723,448.651,318.723z"/>
	<path d="M449.523,278.032c-0.25,0.03-0.516,0.045-0.789,0.045c-3.254,0-6.966-2.13-7.003-2.152
		c-0.137-0.079-0.304-0.089-0.45-0.026c-0.146,0.063-0.253,0.192-0.289,0.346c-0.031,0.135-0.751,3.344,0.58,5.452
		c0.547,0.868,1.356,1.426,2.404,1.658c0.327,0.073,0.653,0.11,0.969,0.11c3.609,0,5.055-4.596,5.115-4.792
		c0.049-0.162,0.014-0.337-0.095-0.467C449.857,278.078,449.693,278.013,449.523,278.032z M444.945,282.466
		c-0.243,0-0.497-0.029-0.752-0.086c-0.788-0.175-1.369-0.572-1.774-1.214c-0.786-1.244-0.688-3.071-0.562-4.039
		c1.266,0.646,4.228,1.961,6.978,1.948C448.325,280.243,447.072,282.466,444.945,282.466z"/>
	<path d="M444.663,276.135c0.115,0,0.231-0.04,0.325-0.12c0.21-0.18,0.234-0.495,0.054-0.705c-0.125-0.145-0.137-0.22-0.141-0.22
		c0.039-0.078,0.311-0.215,0.576-0.265c0.271-0.05,0.45-0.31,0.401-0.581c-0.049-0.272-0.31-0.45-0.581-0.403
		c-0.181,0.033-1.095,0.231-1.338,0.914c-0.095,0.267-0.115,0.693,0.324,1.205C444.382,276.075,444.523,276.135,444.663,276.135z"/>
	<path d="M442.786,269.57c0-1.04-0.846-1.886-1.885-1.886c-1.04,0-1.886,0.846-1.886,1.886s0.846,1.886,1.886,1.886
		C441.941,271.455,442.786,270.609,442.786,269.57z"/>
	<path d="M453.401,271.684c-1.04,0-1.886,0.846-1.886,1.886s0.846,1.886,1.886,1.886c1.04,0,1.885-0.846,1.885-1.886
		S454.441,271.684,453.401,271.684z"/>
</g>
<g>
	<g>
		<g>
			<circle fill="#FFFFFF" cx="399.107" cy="277.314" r="16.924"/>
			<path d="M399.107,294.738c-9.608,0-17.424-7.816-17.424-17.424c0-9.608,7.816-17.425,17.424-17.425
				c9.608,0,17.425,7.817,17.425,17.425C416.531,286.921,408.715,294.738,399.107,294.738L399.107,294.738z M399.107,260.889
				c-9.057,0-16.424,7.368-16.424,16.425c0,9.057,7.368,16.424,16.424,16.424c9.057,0,16.425-7.368,16.425-16.424
				C415.531,268.257,408.163,260.889,399.107,260.889L399.107,260.889z"/>
		</g>
		<g>
			<polygon points="384.552,268.776 392.275,266.312 395.891,270.253 390.961,277.314 386.031,276.001 			"/>
			<path d="M390.961,277.814c-0.043,0-0.086-0.005-0.129-0.017l-4.93-1.313c-0.184-0.049-0.323-0.197-0.361-0.383l-1.479-7.225
				c-0.051-0.251,0.094-0.499,0.338-0.577l7.724-2.464c0.185-0.06,0.388-0.005,0.52,0.138l3.616,3.941
				c0.158,0.173,0.176,0.432,0.042,0.625l-4.93,7.06C391.276,277.736,391.121,277.814,390.961,277.814L390.961,277.814z
				 M386.458,275.597l4.293,1.143l4.5-6.445l-3.129-3.41l-6.991,2.23L386.458,275.597L386.458,275.597z"/>
		</g>
		<g>
			<polygon points="406.046,265.466 401.307,270.375 405.707,276.806 412.985,276.129 412.985,268.851 			"/>
			<path d="M405.707,277.306c-0.164,0-0.318-0.081-0.412-0.218l-4.4-6.431c-0.134-0.196-0.112-0.459,0.053-0.63l4.739-4.908
				c0.15-0.156,0.384-0.197,0.579-0.102l6.94,3.385c0.172,0.084,0.28,0.258,0.28,0.449v7.277c0,0.258-0.196,0.474-0.453,0.498
				l-7.278,0.677C405.738,277.305,405.723,277.306,405.707,277.306L405.707,277.306z M401.95,270.429l4.004,5.852l6.531-0.608
				v-6.509l-6.331-3.089L401.95,270.429L401.95,270.429z"/>
		</g>
		<g>
			<polygon points="395.045,283.914 402.999,283.576 405.538,289.161 399.445,293.392 393.014,289.161 			"/>
			<path d="M399.445,293.892c-0.096,0-0.191-0.027-0.274-0.082l-6.432-4.231c-0.196-0.13-0.276-0.379-0.191-0.599l2.031-5.246
				c0.072-0.186,0.247-0.311,0.445-0.319l7.955-0.338c0.206-0.007,0.392,0.107,0.476,0.292l2.539,5.585
				c0.1,0.22,0.028,0.48-0.17,0.618l-6.093,4.231C399.645,293.862,399.545,293.892,399.445,293.892L399.445,293.892z
				 M393.626,288.965l5.812,3.824l5.472-3.801l-2.227-4.898l-7.29,0.311L393.626,288.965L393.626,288.965z"/>
		</g>
		<path d="M402.999,284.076c-0.062,0-0.125-0.012-0.186-0.036c-0.256-0.103-0.381-0.394-0.278-0.65l2.708-6.77
			c0.103-0.256,0.393-0.381,0.65-0.279c0.256,0.103,0.381,0.394,0.279,0.65l-2.708,6.77
			C403.385,283.957,403.197,284.076,402.999,284.076L402.999,284.076z"/>
		<path d="M395.045,284.414c-0.167,0-0.331-0.084-0.426-0.237l-4.084-6.601c-0.145-0.235-0.073-0.543,0.162-0.689
			c0.235-0.145,0.543-0.073,0.689,0.162l4.084,6.601c0.145,0.235,0.073,0.543-0.162,0.689
			C395.226,284.39,395.135,284.414,395.045,284.414L395.045,284.414z"/>
		<path d="M382.689,281.368c-0.097,0-0.196-0.028-0.282-0.088c-0.228-0.156-0.286-0.468-0.129-0.695l3.34-4.867
			c0.157-0.227,0.468-0.286,0.695-0.129c0.228,0.156,0.286,0.468,0.13,0.695l-3.341,4.867
			C383.006,281.292,382.849,281.368,382.689,281.368L382.689,281.368z"/>
		<path d="M393.015,289.661c-0.014,0-0.028,0-0.042-0.002l-6.093-0.507c-0.275-0.023-0.48-0.265-0.457-0.54
			c0.023-0.275,0.265-0.482,0.54-0.457l6.093,0.508c0.275,0.022,0.479,0.265,0.457,0.54
			C393.491,289.463,393.272,289.661,393.015,289.661L393.015,289.661z"/>
		<path d="M405.537,289.661c-0.269,0-0.491-0.214-0.5-0.485c-0.008-0.276,0.209-0.506,0.484-0.515l5.585-0.169
			c0.283-0.014,0.507,0.208,0.516,0.484c0.008,0.276-0.209,0.507-0.485,0.515l-5.585,0.169
			C405.548,289.661,405.543,289.661,405.537,289.661L405.537,289.661z"/>
		<path d="M415.016,282.383c-0.206,0-0.398-0.128-0.472-0.334l-2.031-5.754c-0.092-0.26,0.045-0.546,0.306-0.638
			c0.262-0.092,0.546,0.045,0.638,0.305l2.031,5.754c0.092,0.261-0.045,0.546-0.305,0.638
			C415.127,282.374,415.071,282.383,415.016,282.383L415.016,282.383z"/>
		<path d="M401.307,270.875c-0.004,0-0.007,0-0.011,0l-5.416-0.121c-0.276-0.006-0.495-0.235-0.488-0.511
			c0.006-0.276,0.23-0.507,0.511-0.488l5.416,0.121c0.276,0.006,0.495,0.235,0.488,0.511
			C401.801,270.658,401.578,270.875,401.307,270.875L401.307,270.875z"/>
		<path d="M406.046,265.966c-0.134,0-0.268-0.053-0.366-0.159l-4.569-4.908c-0.188-0.202-0.177-0.519,0.025-0.707
			c0.202-0.188,0.519-0.177,0.707,0.025l4.569,4.908c0.188,0.202,0.177,0.519-0.025,0.707
			C406.29,265.922,406.168,265.966,406.046,265.966L406.046,265.966z"/>
	</g>
	<path d="M392.275,266.812c-0.093,0-0.188-0.026-0.271-0.08c-0.231-0.15-0.298-0.46-0.148-0.691l3.616-5.585
		c0.15-0.232,0.459-0.298,0.691-0.148c0.231,0.15,0.298,0.46,0.148,0.691l-3.616,5.585
		C392.599,266.732,392.439,266.812,392.275,266.812L392.275,266.812z"/>
</g>
</svg>
