<?xml version="1.0" encoding="utf-8"?>
<!-- Generator: Adobe Illustrator 17.0.1, SVG Export Plug-In . SVG Version: 6.00 Build 0)  -->
<!DOCTYPE svg PUBLIC "-//W3C//DTD SVG 1.1//EN" "http://www.w3.org/Graphics/SVG/1.1/DTD/svg11.dtd">
<svg version="1.1" id="レイヤー_1" xmlns="http://www.w3.org/2000/svg" xmlns:xlink="http://www.w3.org/1999/xlink" x="0px"
	 y="0px" width="841.89px" height="595.28px" viewBox="0 0 841.89 595.28" enable-background="new 0 0 841.89 595.28"
	 xml:space="preserve">
<rect x="350.547" y="226.462" fill="#A660A3" stroke="#A660A3" stroke-width="2" stroke-miterlimit="10" width="141.732" height="141.732"/>
<path fill="#FFFFFF" stroke="#000000" stroke-width="4" stroke-miterlimit="10" d="M481.601,305.82
	c-0.664-0.336-1.455-0.024-1.764,0.703c-0.317,0.753-0.868,1.179-1.686,1.304c-0.214,0.033-0.436,0.043-0.658,0.034
	c0.048-0.059,0.096-0.119,0.145-0.183c1.336-1.736,2.281-4.426,1.373-6.518c-0.372-0.851-1.399-2.192-3.892-2.243
	c-1.639,0.021-2.973,0.99-3.659,2.655c-0.766,1.862-0.576,4.323,0.396,6.089c-0.386,0.021-1.012-0.059-1.588-0.193
	c-4.817-20.032-31.031-32.288-66.61-19.507l-4.137-1.128c0,0,4.728-2.415,1.184-8.699c0,0-3.25,2.095-6.35,2.095
	c-3.103,0-7.829,2.414-6.647,7.572c0,0-20.232,3.542-21.118,24.809h-6.35v13.293h8.714c0,0,5.683,10.631,22.743,10.39l3.25,17.4
	h5.317l0.738-14.983c0,0,17.72,10.633,38.544-1.932c0,0,0.885,6.281,9.745,7.731l1.331,9.184h5.315l2.659-9.184
	c0,0,15.057-14.147,12.248-34.016c0.65,0.072,1.211,0.075,1.527,0.029c0.54-0.083,1.265-0.239,2.043-0.536
	c0.957,0.473,2.083,0.778,3.216,0.778c0.296,0,0.598-0.02,0.893-0.066c1.704-0.263,3.028-1.31,3.726-2.953
	C482.56,307.018,482.27,306.156,481.601,305.82z M382.98,309.066c-1.793,0-3.247-1.587-3.247-3.544c0-1.957,1.454-3.544,3.247-3.544
	c1.796,0,3.25,1.587,3.25,3.544C386.231,307.479,384.777,309.066,382.98,309.066z M475.603,305.813
	c-0.268,0.347-0.616,0.656-1.03,0.922c-0.083-0.073-0.154-0.148-0.212-0.219c-0.718-0.912-0.937-2.627-0.474-3.754
	c0.344-0.835,0.888-0.939,1.269-0.943c0.017,0,0.036-0.002,0.054-0.002c0.537,0,1.193,0.107,1.399,0.585
	C476.895,303.063,476.596,304.523,475.603,305.813z"/>
<rect x="415.037" y="288.877" fill="#FFFFFF" stroke="#000000" stroke-width="4" stroke-miterlimit="10" width="29.403" height="4.86"/>
<ellipse fill="#FFFFFF" stroke="#000000" stroke-width="4" stroke-miterlimit="10" cx="429.904" cy="258.256" rx="21.825" ry="21.6"/>
<text transform="matrix(1.1344 0 0 1 412.7876 269.7354)" font-family="'KozGoPr6N-Regular-90ms-RKSJ-H'" font-size="29.9488">￥</text>
</svg>
