<?xml version="1.0" encoding="utf-8"?>
<!-- Generator: Adobe Illustrator 17.0.1, SVG Export Plug-In . SVG Version: 6.00 Build 0)  -->
<!DOCTYPE svg PUBLIC "-//W3C//DTD SVG 1.1//EN" "http://www.w3.org/Graphics/SVG/1.1/DTD/svg11.dtd">
<svg version="1.1" id="レイヤー_1" xmlns="http://www.w3.org/2000/svg" xmlns:xlink="http://www.w3.org/1999/xlink" x="0px"
	 y="0px" width="841.89px" height="595.28px" viewBox="0 0 841.89 595.28" enable-background="new 0 0 841.89 595.28"
	 xml:space="preserve">
<rect x="349.814" y="226.462" fill="#A660A3" stroke="#A660A3" stroke-width="2" stroke-miterlimit="10" width="141.732" height="141.732"/>
<rect x="371.675" y="281.68" fill="#C9CACA" stroke="#000000" stroke-width="3" stroke-miterlimit="10" width="77.333" height="76.667"/>
<polygon fill="#C9CACA" stroke="#000000" stroke-width="3" stroke-linejoin="round" stroke-miterlimit="10" points="472.008,265.68 
	394.675,265.68 371.675,281.68 449.008,281.68 "/>
<polygon fill="#C9CACA" stroke="#000000" stroke-width="3" stroke-linejoin="round" stroke-miterlimit="10" points="472.342,265.68 
	449.008,281.68 449.008,358.347 472.342,342.347 "/>
<rect x="407.397" y="269.028" fill="#FFFFFF" stroke="#000000" stroke-width="2" stroke-miterlimit="10" width="35.057" height="2.559"/>
<rect x="399.303" y="274.274" fill="#FFFFFF" stroke="#000000" stroke-width="2" stroke-miterlimit="10" width="35.057" height="2.559"/>
<rect x="412.865" y="237.426" stroke="#FFFFFF" stroke-width="3" stroke-miterlimit="10" width="27.252" height="25.333"/>
<circle fill="none" stroke="#000000" stroke-width="3" stroke-miterlimit="10" cx="393.929" cy="309.331" r="4.606"/>
<circle fill="none" stroke="#000000" stroke-width="3" stroke-miterlimit="10" cx="420.875" cy="309.331" r="4.606"/>
<circle cx="393.851" cy="309.905" r="2.109"/>
<circle cx="420.875" cy="309.905" r="2.109"/>
<path fill="none" stroke="#000000" stroke-width="3" stroke-miterlimit="10" d="M402.629,301.399c0,0-6.013-9.852-15.865,0"/>
<path fill="none" stroke="#000000" stroke-width="3" stroke-miterlimit="10" d="M428.807,301.399c0,0-6.013-9.852-15.865,0"/>
<rect x="393.46" y="320.014" fill="#FFFFFF" stroke="#000000" stroke-width="3" stroke-miterlimit="10" width="28.292" height="35.89"/>
<g>
	<path d="M405.226,329.154l-2.089,0.378v2.719c0,0.648-0.595,0.747-2.989,0.729c-0.054-0.145-0.233-0.396-0.396-0.559
		c0.846,0.009,1.62,0.009,1.854,0.009c0.233-0.009,0.342-0.045,0.342-0.171v-2.521c-0.847,0.153-1.62,0.288-2.232,0.387
		c0,0.072-0.09,0.126-0.217,0.145l-0.504-0.712c0.811-0.107,1.837-0.261,2.953-0.44v-2.106h-2.736v-0.567h2.736v-1.818l1.549,0.045
		c-0.019,0.071-0.108,0.107-0.36,0.126v1.647h2.07v0.567h-2.07v1.917l1.944-0.306L405.226,329.154z M413.813,328.551l0.811,0.18
		c-0.036,0.045-0.108,0.063-0.162,0.091c-0.685,1.053-1.837,1.89-3.277,2.557c1.333,0.495,2.972,0.864,4.862,1.071
		c-0.288,0.126-0.631,0.369-0.811,0.54c-1.963-0.252-3.638-0.657-5.023-1.216c-1.53,0.559-3.295,0.964-5.149,1.216
		c-0.126-0.153-0.414-0.405-0.666-0.531c1.764-0.207,3.457-0.576,4.915-1.099c-1.152-0.576-2.053-1.27-2.683-2.089l0.918-0.135
		h-1.584v-0.558h7.634L413.813,328.551z M408.196,325.562v0.352c0,0.783-0.469,1.765-2.467,2.422
		c-0.162-0.126-0.595-0.352-0.828-0.441c1.818-0.576,2.143-1.359,2.143-1.989v-0.909h5.941v2.224c0,0.197,0.072,0.233,0.414,0.233
		h1.08c0.36,0,0.433-0.135,0.469-1.107c0.252,0.1,0.72,0.189,1.026,0.234c-0.09,1.116-0.378,1.396-1.368,1.396h-1.387
		c-1.08,0-1.404-0.153-1.404-0.756v-1.657H408.196z M407.746,329.136c0.576,0.711,1.422,1.342,2.503,1.854
		c1.152-0.504,2.07-1.125,2.683-1.854H407.746z"/>
	<path d="M404.775,340.152c-0.055,0.055-0.198,0.09-0.396,0.072c-1.08,0.576-2.809,1.17-4.339,1.53
		c-0.217-0.107-0.612-0.297-0.883-0.387c1.513-0.333,3.241-0.892,4.249-1.485L404.775,340.152z M399.302,334.004h16.421v0.504h-5.6
		v0.747h4.321v2.098h-13.793v-2.098h4.088v-0.747h-5.438V334.004z M399.373,339.657v-0.504h16.295v0.504h-7.544v1.666
		c0,0.621-0.576,0.675-3.385,0.675c-0.055-0.171-0.234-0.396-0.396-0.559c0.631,0.01,1.188,0.019,1.603,0.019
		c0.954,0,0.954-0.009,0.954-0.153v-1.647H399.373z M401.606,337.982h11.829v0.496h-11.829V337.982z M401.786,335.732v1.144h2.953
		v-1.144H401.786z M408.971,335.255v-0.747h-3.098v0.747H408.971z M405.873,335.732v1.144h3.098v-1.144H405.873z M413.237,335.732
		h-3.114v1.144h3.114V335.732z M414.624,341.719c-0.937-0.414-2.863-1.053-4.411-1.494l0.9-0.324c1.53,0.405,3.457,1.018,4.465,1.44
		L414.624,341.719z"/>
	<path d="M404.163,345.29c-0.019,0.054-0.108,0.1-0.36,0.117v1.071h3.025v0.567h-3.025v0.521c0.756,0.315,2.484,1.126,2.899,1.351
		l-0.774,0.478c-0.396-0.261-1.351-0.792-2.125-1.206v2.8h-1.152v-3.025c-0.792,0.828-1.818,1.666-2.772,2.206
		c-0.162-0.145-0.505-0.352-0.793-0.469c1.171-0.585,2.467-1.674,3.241-2.655h-2.935v-0.567h3.259v-1.242l0.99,0.036
		c-0.162-0.324-0.54-0.811-0.937-1.216h-0.918c-0.522,0.504-1.135,0.973-1.746,1.323c-0.234-0.099-0.648-0.252-0.937-0.324
		c1.063-0.566,2.053-1.521,2.665-2.466l1.404,0.216c-0.036,0.063-0.181,0.099-0.378,0.09c-0.145,0.207-0.307,0.423-0.505,0.63h4.97
		v0.531h-3.349c0.359,0.36,0.684,0.766,0.828,1.045l-0.883,0.18L404.163,345.29z M410.339,342.806
		c-0.036,0.054-0.18,0.09-0.378,0.09c-0.162,0.207-0.343,0.423-0.559,0.63h6.41v0.531h-4.34c0.522,0.352,1.009,0.738,1.243,1.026
		l-1.045,0.216c-0.252-0.333-0.882-0.837-1.494-1.242h-1.368c-0.595,0.486-1.314,0.928-2.053,1.252
		c-0.216-0.1-0.648-0.262-0.937-0.343c1.261-0.521,2.431-1.422,3.079-2.376L410.339,342.806z M407.439,350.979v-5.419h7.563v5.365
		h-1.225v-0.324h-5.149v0.378H407.439z M413.777,346.109h-5.149v0.954h5.149V346.109z M408.628,348.549h5.149v-0.972h-5.149V348.549
		z M408.628,350.053h5.149v-0.99h-5.149V350.053z"/>
</g>
<text transform="matrix(1 0 0 0.75 419.8741 241.0922)" fill="#FFFFFF" font-family="'KozGoPr6N-Regular-90ms-RKSJ-H'" font-size="12" glyph-orientation-vertical="0" writing-mode="tb">〇〇</text>
<text transform="matrix(1 0 0 0.75 431.8741 241.0922)" fill="#FFFFFF" font-family="'KozGoPr6N-Regular-90ms-RKSJ-H'" font-size="12" glyph-orientation-vertical="0" writing-mode="tb">〇〇</text>
</svg>
