<?xml version="1.0" encoding="utf-8"?>
<!-- Generator: Adobe Illustrator 17.0.1, SVG Export Plug-In . SVG Version: 6.00 Build 0)  -->
<!DOCTYPE svg PUBLIC "-//W3C//DTD SVG 1.1//EN" "http://www.w3.org/Graphics/SVG/1.1/DTD/svg11.dtd">
<svg version="1.1" id="レイヤー_1" xmlns="http://www.w3.org/2000/svg" xmlns:xlink="http://www.w3.org/1999/xlink" x="0px"
	 y="0px" width="841.89px" height="595.28px" viewBox="0 0 841.89 595.28" enable-background="new 0 0 841.89 595.28"
	 xml:space="preserve">
<rect x="350.547" y="226.924" fill="#FFFFFF" stroke="#A660A3" stroke-width="2" stroke-miterlimit="10" width="141.732" height="141.732"/>
<g>
	<g>
		
			<line fill="none" stroke="#000000" stroke-width="3" stroke-miterlimit="10" x1="361.864" y1="358.313" x2="481.837" y2="358.313"/>
		<g>
			<g>
				
					<line fill="none" stroke="#000000" stroke-width="3" stroke-miterlimit="10" x1="361.864" y1="358.313" x2="361.864" y2="355.314"/>
				
					<line fill="none" stroke="#000000" stroke-width="3" stroke-miterlimit="10" x1="481.837" y1="358.313" x2="481.837" y2="355.314"/>
			</g>
			<g>
			</g>
		</g>
	</g>
	<g>
		<g>
			<text transform="matrix(1 0 0 0.75 356.8913 360.4225)" font-family="'KozGoPr6N-Regular-90ms-RKSJ-H'" font-size="5.6237">0</text>
			<text transform="matrix(1 0 0 0.75 356.8913 336.4274)" font-family="'KozGoPr6N-Regular-90ms-RKSJ-H'" font-size="5.6237">1</text>
			<text transform="matrix(1 0 0 0.75 356.8913 312.4333)" font-family="'KozGoPr6N-Regular-90ms-RKSJ-H'" font-size="5.6237">2</text>
			<text transform="matrix(1 0 0 0.75 356.8913 288.4382)" font-family="'KozGoPr6N-Regular-90ms-RKSJ-H'" font-size="5.6237">3</text>
			<text transform="matrix(1 0 0 0.75 356.8913 264.444)" font-family="'KozGoPr6N-Regular-90ms-RKSJ-H'" font-size="5.6237">4</text>
			<text transform="matrix(1 0 0 0.75 356.8913 240.4499)" font-family="'KozGoPr6N-Regular-90ms-RKSJ-H'" font-size="5.6237">5</text>
		</g>
		
			<line fill="none" stroke="#000000" stroke-width="3" stroke-miterlimit="10" x1="361.864" y1="358.313" x2="361.864" y2="238.341"/>
		<g>
			<g>
				
					<line fill="none" stroke="#000000" stroke-width="3" stroke-miterlimit="10" x1="361.864" y1="358.313" x2="364.864" y2="358.313"/>
				
					<line fill="none" stroke="#000000" stroke-width="3" stroke-miterlimit="10" x1="361.864" y1="334.319" x2="364.864" y2="334.319"/>
				
					<line fill="none" stroke="#000000" stroke-width="3" stroke-miterlimit="10" x1="361.864" y1="310.324" x2="364.864" y2="310.324"/>
				
					<line fill="none" stroke="#000000" stroke-width="3" stroke-miterlimit="10" x1="361.864" y1="286.33" x2="364.864" y2="286.33"/>
				
					<line fill="none" stroke="#000000" stroke-width="3" stroke-miterlimit="10" x1="361.864" y1="262.335" x2="364.864" y2="262.335"/>
				
					<line fill="none" stroke="#000000" stroke-width="3" stroke-miterlimit="10" x1="361.864" y1="238.341" x2="364.864" y2="238.341"/>
			</g>
			<g>
			</g>
		</g>
	</g>
	<g>
		<g>
			<g>
				
					<rect x="458.604" y="238.341" fill="#9F9F9F" stroke="#000000" stroke-width="3" stroke-miterlimit="10" width="17.276" height="119.972"/>
			</g>
		</g>
		<g>
			<g>
				
					<rect x="436.908" y="262.335" fill="#404040" stroke="#000000" stroke-width="3" stroke-miterlimit="10" width="17.276" height="95.978"/>
			</g>
		</g>
		<g>
			<g>
				
					<rect x="415.213" y="286.33" fill="#808080" stroke="#000000" stroke-width="3" stroke-miterlimit="10" width="17.276" height="71.983"/>
			</g>
		</g>
		<g>
			<g>
				
					<rect x="393.017" y="310.324" fill="#DFDFDF" stroke="#000000" stroke-width="3" stroke-miterlimit="10" width="17.276" height="47.989"/>
			</g>
		</g>
		<g>
			<g>
				<rect x="371.321" y="334.319" stroke="#000000" stroke-width="3" stroke-miterlimit="10" width="17.276" height="23.994"/>
			</g>
		</g>
	</g>
	<g>
		<g>
		</g>
		<g>
		</g>
		<g>
		</g>
		<g>
		</g>
		<g>
		</g>
	</g>
</g>
</svg>
