<?xml version="1.0" encoding="utf-8"?>
<!-- Generator: Adobe Illustrator 17.0.1, SVG Export Plug-In . SVG Version: 6.00 Build 0)  -->
<!DOCTYPE svg PUBLIC "-//W3C//DTD SVG 1.1//EN" "http://www.w3.org/Graphics/SVG/1.1/DTD/svg11.dtd">
<svg version="1.1" id="レイヤー_1" xmlns="http://www.w3.org/2000/svg" xmlns:xlink="http://www.w3.org/1999/xlink" x="0px"
	 y="0px" width="841.89px" height="595.28px" viewBox="0 0 841.89 595.28" enable-background="new 0 0 841.89 595.28"
	 xml:space="preserve">
<rect x="350.146" y="226.924" fill="#A660A3" stroke="#A660A3" stroke-width="2" stroke-miterlimit="10" width="141.732" height="141.732"/>
<g>
	<g>
		
			<line fill="none" stroke="#FFFFFF" stroke-width="3" stroke-miterlimit="10" x1="362.198" y1="358.313" x2="482.17" y2="358.313"/>
		<g>
			<g>
				
					<line fill="none" stroke="#000000" stroke-width="3" stroke-miterlimit="10" x1="362.198" y1="358.313" x2="362.198" y2="355.314"/>
				
					<line fill="none" stroke="#FFFFFF" stroke-width="3" stroke-miterlimit="10" x1="482.17" y1="358.313" x2="482.17" y2="355.314"/>
			</g>
			<g>
			</g>
		</g>
	</g>
	<g>
		<g>
			
				<text transform="matrix(1 0 0 0.75 357.2248 360.4225)" fill="#FFFFFF" font-family="'KozGoPr6N-Regular-90ms-RKSJ-H'" font-size="5.6237">0</text>
			
				<text transform="matrix(1 0 0 0.75 357.2248 336.4274)" fill="#FFFFFF" font-family="'KozGoPr6N-Regular-90ms-RKSJ-H'" font-size="5.6237">1</text>
			
				<text transform="matrix(1 0 0 0.75 357.2248 312.4333)" fill="#FFFFFF" font-family="'KozGoPr6N-Regular-90ms-RKSJ-H'" font-size="5.6237">2</text>
			
				<text transform="matrix(1 0 0 0.75 357.2248 288.4382)" fill="#FFFFFF" font-family="'KozGoPr6N-Regular-90ms-RKSJ-H'" font-size="5.6237">3</text>
			
				<text transform="matrix(1 0 0 0.75 357.2248 264.444)" fill="#FFFFFF" font-family="'KozGoPr6N-Regular-90ms-RKSJ-H'" font-size="5.6237">4</text>
			
				<text transform="matrix(1 0 0 0.75 357.2248 240.4499)" fill="#FFFFFF" font-family="'KozGoPr6N-Regular-90ms-RKSJ-H'" font-size="5.6237">5</text>
		</g>
		
			<line fill="none" stroke="#FFFFFF" stroke-width="3" stroke-miterlimit="10" x1="362.198" y1="358.313" x2="362.198" y2="238.341"/>
		<g>
			<g>
				
					<line fill="none" stroke="#FFFFFF" stroke-width="3" stroke-miterlimit="10" x1="362.198" y1="358.313" x2="365.197" y2="358.313"/>
				
					<line fill="none" stroke="#FFFFFF" stroke-width="3" stroke-miterlimit="10" x1="362.198" y1="334.319" x2="365.197" y2="334.319"/>
				
					<line fill="none" stroke="#FFFFFF" stroke-width="3" stroke-miterlimit="10" x1="362.198" y1="310.324" x2="365.197" y2="310.324"/>
				
					<line fill="none" stroke="#FFFFFF" stroke-width="3" stroke-miterlimit="10" x1="362.198" y1="286.33" x2="365.197" y2="286.33"/>
				
					<line fill="none" stroke="#FFFFFF" stroke-width="3" stroke-miterlimit="10" x1="362.198" y1="262.335" x2="365.197" y2="262.335"/>
				
					<line fill="none" stroke="#FFFFFF" stroke-width="3" stroke-miterlimit="10" x1="362.198" y1="238.341" x2="365.197" y2="238.341"/>
			</g>
			<g>
			</g>
		</g>
	</g>
	<g>
		<g>
			<g>
				<rect x="458.937" y="238.341" stroke="#FFFFFF" stroke-width="3" stroke-miterlimit="10" width="17.276" height="119.972"/>
			</g>
		</g>
		<g>
			<g>
				
					<rect x="437.242" y="262.335" fill="#B5B5B5" stroke="#FFFFFF" stroke-width="3" stroke-miterlimit="10" width="17.276" height="95.978"/>
			</g>
		</g>
		<g>
			<g>
				
					<rect x="415.546" y="286.33" fill="#808080" stroke="#FFFFFF" stroke-width="3" stroke-miterlimit="10" width="17.276" height="71.983"/>
			</g>
		</g>
		<g>
			<g>
				
					<rect x="393.85" y="310.324" fill="#404040" stroke="#FFFFFF" stroke-width="3" stroke-miterlimit="10" width="17.276" height="47.989"/>
			</g>
		</g>
		<g>
			<g>
				
					<rect x="372.155" y="334.319" fill="#FFFFFF" stroke="#FFFFFF" stroke-width="3" stroke-miterlimit="10" width="17.276" height="23.994"/>
			</g>
		</g>
	</g>
	<g>
		<g>
		</g>
		<g>
		</g>
		<g>
		</g>
		<g>
		</g>
		<g>
		</g>
	</g>
</g>
</svg>
