<?xml version="1.0" encoding="utf-8"?>
<!-- Generator: Adobe Illustrator 17.0.1, SVG Export Plug-In . SVG Version: 6.00 Build 0)  -->
<!DOCTYPE svg PUBLIC "-//W3C//DTD SVG 1.1//EN" "http://www.w3.org/Graphics/SVG/1.1/DTD/svg11.dtd">
<svg version="1.1" id="レイヤー_1" xmlns="http://www.w3.org/2000/svg" xmlns:xlink="http://www.w3.org/1999/xlink" x="0px"
	 y="0px" width="841.89px" height="595.28px" viewBox="0 0 841.89 595.28" enable-background="new 0 0 841.89 595.28"
	 xml:space="preserve">
<rect x="349.813" y="226.711" fill="#A660A3" stroke="#A660A3" stroke-width="2" stroke-miterlimit="10" width="141.732" height="141.732"/>
<polygon fill-rule="evenodd" clip-rule="evenodd" fill="#ECEDEE" points="356.837,261.857 356.806,261.194 356.806,260.52 
	357.576,254.782 359.832,249.402 363.375,244.544 368.063,240.284 373.735,236.763 380.241,234.111 387.399,232.426 395.073,231.84 
	402.755,232.426 409.913,234.111 416.412,236.763 422.084,240.284 426.779,244.544 430.322,249.402 432.562,254.782 433.349,260.52 
	433.333,261.194 433.309,261.857 432.165,280.473 432.197,279.854 432.205,279.202 431.434,273.616 429.266,268.421 
	425.826,263.693 421.282,259.563 415.768,256.151 409.468,253.564 402.509,251.945 395.073,251.358 387.63,251.945 380.686,253.564 
	374.378,256.151 368.873,259.563 364.337,263.693 360.889,268.421 358.704,273.616 357.95,279.202 357.965,279.854 357.989,280.473 
	356.837,261.857 "/>
<polygon fill="none" stroke="#131E1F" stroke-width="0.8555" stroke-miterlimit="2.6131" points="356.837,261.857 356.806,261.194 
	356.806,260.52 357.576,254.782 359.832,249.402 363.375,244.544 368.063,240.284 373.735,236.763 380.241,234.111 387.399,232.426 
	395.073,231.84 402.755,232.426 409.913,234.111 416.412,236.763 422.084,240.284 426.779,244.544 430.322,249.402 432.562,254.782 
	433.349,260.52 433.333,261.194 433.309,261.857 432.165,280.473 432.197,279.854 432.205,279.202 431.434,273.616 429.266,268.421 
	425.826,263.693 421.282,259.563 415.768,256.151 409.468,253.564 402.509,251.945 395.073,251.358 387.63,251.945 380.686,253.564 
	374.378,256.151 368.873,259.563 364.337,263.693 360.889,268.421 358.704,273.616 357.95,279.202 357.965,279.854 357.989,280.473 
	356.837,261.857 "/>
<polygon fill-rule="evenodd" clip-rule="evenodd" fill="#FFFFFF" stroke="#FFFFFF" stroke-miterlimit="10" points="433.309,261.857 
	432.237,267.377 429.806,272.518 426.183,277.169 421.496,281.212 415.895,284.559 409.524,287.081 402.541,288.657 
	395.073,289.232 387.614,288.657 380.631,287.081 374.259,284.559 368.659,281.212 363.963,277.169 360.333,272.518 
	357.918,267.377 356.837,261.857 357.989,280.473 359.038,285.831 361.374,290.808 364.901,295.329 369.445,299.253 
	374.871,302.491 381.06,304.937 387.828,306.48 395.073,307.034 402.311,306.48 409.095,304.937 415.268,302.491 420.71,299.253 
	425.254,295.329 428.765,290.808 431.125,285.831 432.165,280.473 433.309,261.857 "/>
<polygon fill="none" stroke="#131E1F" stroke-width="0.8555" stroke-miterlimit="2.6131" points="433.309,261.857 432.237,267.377 
	429.806,272.518 426.183,277.169 421.496,281.212 415.895,284.559 409.524,287.081 402.541,288.657 395.073,289.232 
	387.614,288.657 380.631,287.081 374.259,284.559 368.659,281.212 363.963,277.169 360.333,272.518 357.918,267.377 
	356.837,261.857 357.989,280.473 359.038,285.831 361.374,290.808 364.901,295.329 369.445,299.253 374.871,302.491 381.06,304.937 
	387.828,306.48 395.073,307.034 402.311,306.48 409.095,304.937 415.268,302.491 420.71,299.253 425.254,295.329 428.765,290.808 
	431.125,285.831 432.165,280.473 433.309,261.857 "/>
<polygon fill-rule="evenodd" clip-rule="evenodd" fill="#FFFFFF" points="433.349,260.52 432.562,266.291 430.322,271.659 
	426.779,276.528 422.084,280.788 416.412,284.298 409.913,286.961 402.755,288.646 395.073,289.232 387.399,288.646 
	380.241,286.961 373.735,284.298 368.063,280.788 363.375,276.528 359.832,271.659 357.576,266.291 356.806,260.52 357.576,254.782 
	359.832,249.402 363.375,244.544 368.063,240.284 373.735,236.763 380.241,234.111 387.399,232.426 395.073,231.84 402.755,232.426 
	409.913,234.111 416.412,236.763 422.084,240.284 426.779,244.544 430.322,249.402 432.562,254.782 433.349,260.52 "/>
<polygon fill="none" stroke="#131E1F" stroke-width="0.8555" stroke-miterlimit="2.6131" points="433.349,260.52 432.562,266.291 
	430.322,271.659 426.779,276.528 422.084,280.788 416.412,284.298 409.913,286.961 402.755,288.646 395.073,289.232 
	387.399,288.646 380.241,286.961 373.735,284.298 368.063,280.788 363.375,276.528 359.832,271.659 357.576,266.291 356.806,260.52 
	357.576,254.782 359.832,249.402 363.375,244.544 368.063,240.284 373.735,236.763 380.241,234.111 387.399,232.426 395.073,231.84 
	402.755,232.426 409.913,234.111 416.412,236.763 422.084,240.284 426.779,244.544 430.322,249.402 432.562,254.782 433.349,260.52 
	"/>
<polygon fill-rule="evenodd" clip-rule="evenodd" fill="#DCDDDD" points="429.409,260.52 429.361,259.292 429.234,258.074 
	429.011,256.879 428.71,255.705 428.32,254.542 427.859,253.412 427.319,252.293 426.7,251.206 426.016,250.141 425.254,249.109 
	424.428,248.109 423.53,247.131 422.568,246.196 421.552,245.294 420.471,244.414 419.335,243.588 418.136,242.795 416.888,242.034 
	415.593,241.327 414.243,240.654 412.853,240.034 411.415,239.447 409.937,238.915 408.412,238.436 406.855,238.013 
	405.266,237.632 403.637,237.306 401.977,237.035 400.285,236.828 398.577,236.676 396.837,236.578 395.073,236.546 393.31,236.578 
	391.57,236.676 389.854,236.828 388.17,237.035 386.509,237.306 384.881,237.632 383.284,238.013 381.727,238.436 380.21,238.915 
	378.724,239.447 377.286,240.034 375.896,240.654 374.545,241.327 373.25,242.034 372.003,242.795 370.811,243.588 369.675,244.414 
	368.595,245.294 367.57,246.196 366.609,247.131 365.719,248.109 364.893,249.109 364.13,250.141 363.439,251.206 362.819,252.293 
	362.279,253.412 361.819,254.542 361.437,255.705 361.127,256.879 360.913,258.074 360.778,259.292 360.738,260.52 360.778,261.759 
	360.913,262.965 361.127,264.171 361.437,265.345 361.819,266.508 362.279,267.638 362.819,268.758 363.439,269.844 364.13,270.899 
	364.893,271.942 365.719,272.942 366.609,273.909 367.57,274.854 368.595,275.757 369.675,276.626 370.811,277.463 372.003,278.256 
	373.25,279.017 374.545,279.723 375.896,280.397 377.286,281.016 378.724,281.603 380.21,282.125 381.727,282.614 383.284,283.038 
	384.881,283.418 386.509,283.744 388.17,284.016 389.854,284.223 391.57,284.375 393.31,284.472 395.073,284.494 396.837,284.472 
	398.577,284.375 400.285,284.223 401.977,284.016 403.637,283.744 405.266,283.418 406.855,283.038 408.412,282.614 
	409.937,282.125 411.415,281.603 412.853,281.016 414.243,280.397 415.593,279.723 416.888,279.017 418.136,278.256 
	419.335,277.463 420.471,276.626 421.552,275.757 422.568,274.854 423.53,273.909 424.428,272.942 425.254,271.942 426.016,270.899 
	426.7,269.844 427.319,268.758 427.859,267.638 428.32,266.508 428.71,265.345 429.011,264.171 429.234,262.965 429.361,261.759 
	429.409,260.52 "/>
<polyline fill="none" stroke="#131E1F" stroke-width="0.8555" stroke-miterlimit="2.6131" points="429.409,260.52 429.361,259.292 
	429.234,258.074 429.011,256.879 428.71,255.705 428.32,254.542 427.859,253.412 427.319,252.293 426.7,251.206 426.016,250.141 
	425.254,249.109 424.428,248.109 423.53,247.131 422.568,246.196 421.552,245.294 420.471,244.414 419.335,243.588 418.136,242.795 
	416.888,242.034 415.593,241.327 414.243,240.654 412.853,240.034 411.415,239.447 409.937,238.915 408.412,238.436 
	406.855,238.013 405.266,237.632 403.637,237.306 401.977,237.035 400.285,236.828 398.577,236.676 396.837,236.578 
	395.073,236.546 393.31,236.578 391.57,236.676 389.854,236.828 388.17,237.035 386.509,237.306 384.881,237.632 383.284,238.013 
	381.727,238.436 380.21,238.915 378.724,239.447 377.286,240.034 375.896,240.654 374.545,241.327 373.25,242.034 372.003,242.795 
	370.811,243.588 369.675,244.414 368.595,245.294 367.57,246.196 366.609,247.131 365.719,248.109 364.893,249.109 364.13,250.141 
	363.439,251.206 362.819,252.293 362.279,253.412 361.819,254.542 361.437,255.705 361.127,256.879 360.913,258.074 
	360.778,259.292 360.738,260.52 360.778,261.759 360.913,262.965 361.127,264.171 361.437,265.345 361.819,266.508 362.279,267.638 
	362.819,268.758 363.439,269.844 364.13,270.899 364.893,271.942 365.719,272.942 366.609,273.909 367.57,274.854 368.595,275.757 
	369.675,276.626 370.811,277.463 372.003,278.256 373.25,279.017 374.545,279.723 375.896,280.397 377.286,281.016 378.724,281.603 
	380.21,282.125 381.727,282.614 383.284,283.038 384.881,283.418 386.509,283.744 388.17,284.016 389.854,284.223 391.57,284.375 
	393.31,284.472 395.073,284.494 396.837,284.472 398.577,284.375 400.285,284.223 401.977,284.016 403.637,283.744 405.266,283.418 
	406.855,283.038 408.412,282.614 409.937,282.125 411.415,281.603 412.853,281.016 414.243,280.397 415.593,279.723 
	416.888,279.017 418.136,278.256 419.335,277.463 420.471,276.626 421.552,275.757 422.568,274.854 423.53,273.909 424.428,272.942 
	425.254,271.942 426.016,270.899 426.7,269.844 427.319,268.758 427.859,267.638 428.32,266.508 428.71,265.345 429.011,264.171 
	429.234,262.965 429.361,261.759 429.409,260.52 "/>
<polygon fill-rule="evenodd" clip-rule="evenodd" points="427.581,264.997 427.542,263.976 427.415,262.965 427.208,261.965 
	426.93,260.976 426.565,260.009 426.136,259.064 425.627,258.14 425.055,257.227 424.412,256.347 423.705,255.488 422.926,254.651 
	422.092,253.836 421.202,253.054 420.249,252.293 419.24,251.576 418.175,250.88 417.063,250.217 415.895,249.587 414.688,248.989 
	413.425,248.435 412.13,247.913 410.787,247.424 409.405,246.989 407.983,246.587 406.529,246.229 405.043,245.914 403.526,245.642 
	401.977,245.414 400.396,245.24 398.799,245.109 397.171,245.033 395.526,245.011 393.882,245.033 392.261,245.109 390.656,245.24 
	389.083,245.414 387.534,245.642 386.017,245.914 384.523,246.229 383.069,246.587 381.655,246.989 380.273,247.424 
	378.931,247.913 377.628,248.435 376.372,248.989 375.157,249.587 373.997,250.217 372.885,250.88 371.82,251.576 370.811,252.293 
	369.858,253.054 368.96,253.836 368.126,254.651 367.356,255.488 366.649,256.347 366.005,257.227 365.425,258.14 364.925,259.064 
	364.488,260.009 364.13,260.976 363.844,261.965 363.646,262.965 363.519,263.976 363.479,264.997 363.519,266.03 363.646,267.04 
	363.844,268.04 364.13,269.019 364.488,269.986 364.925,270.931 365.425,271.855 366.005,272.768 366.649,273.648 367.356,274.518 
	368.126,275.354 368.96,276.159 369.858,276.941 370.811,277.702 371.82,278.43 372.885,279.125 373.997,279.788 375.157,280.419 
	376.372,281.006 377.628,281.571 378.931,282.092 380.273,282.571 381.655,283.016 383.069,283.418 384.523,283.777 
	386.017,284.092 387.534,284.353 389.083,284.581 390.656,284.755 392.261,284.885 393.882,284.962 395.526,284.983 
	397.171,284.962 398.799,284.885 400.396,284.755 401.977,284.581 403.526,284.353 405.043,284.092 406.529,283.777 
	407.983,283.418 409.405,283.016 410.787,282.571 412.13,282.092 413.425,281.571 414.688,281.006 415.895,280.419 417.063,279.788 
	418.175,279.125 419.24,278.43 420.249,277.702 421.202,276.941 422.092,276.159 422.926,275.354 423.705,274.518 424.412,273.648 
	425.055,272.768 425.627,271.855 426.136,270.931 426.565,269.986 426.93,269.019 427.208,268.04 427.415,267.04 427.542,266.03 
	427.581,264.997 "/>
<polyline fill="none" stroke="#A2A5A6" stroke-width="0.8555" stroke-miterlimit="2.6131" points="427.581,264.997 427.542,263.976 
	427.415,262.965 427.208,261.965 426.93,260.976 426.565,260.009 426.136,259.064 425.627,258.14 425.055,257.227 424.412,256.347 
	423.705,255.488 422.926,254.651 422.092,253.836 421.202,253.054 420.249,252.293 419.24,251.576 418.175,250.88 417.063,250.217 
	415.895,249.587 414.688,248.989 413.425,248.435 412.13,247.913 410.787,247.424 409.405,246.989 407.983,246.587 406.529,246.229 
	405.043,245.914 403.526,245.642 401.977,245.414 400.396,245.24 398.799,245.109 397.171,245.033 395.526,245.011 393.882,245.033 
	392.261,245.109 390.656,245.24 389.083,245.414 387.534,245.642 386.017,245.914 384.523,246.229 383.069,246.587 381.655,246.989 
	380.273,247.424 378.931,247.913 377.628,248.435 376.372,248.989 375.157,249.587 373.997,250.217 372.885,250.88 371.82,251.576 
	370.811,252.293 369.858,253.054 368.96,253.836 368.126,254.651 367.356,255.488 366.649,256.347 366.005,257.227 365.425,258.14 
	364.925,259.064 364.488,260.009 364.13,260.976 363.844,261.965 363.646,262.965 363.519,263.976 363.479,264.997 363.519,266.03 
	363.646,267.04 363.844,268.04 364.13,269.019 364.488,269.986 364.925,270.931 365.425,271.855 366.005,272.768 366.649,273.648 
	367.356,274.518 368.126,275.354 368.96,276.159 369.858,276.941 370.811,277.702 371.82,278.43 372.885,279.125 373.997,279.788 
	375.157,280.419 376.372,281.006 377.628,281.571 378.931,282.092 380.273,282.571 381.655,283.016 383.069,283.418 
	384.523,283.777 386.017,284.092 387.534,284.353 389.083,284.581 390.656,284.755 392.261,284.885 393.882,284.962 
	395.526,284.983 397.171,284.962 398.799,284.885 400.396,284.755 401.977,284.581 403.526,284.353 405.043,284.092 
	406.529,283.777 407.983,283.418 409.405,283.016 410.787,282.571 412.13,282.092 413.425,281.571 414.688,281.006 415.895,280.419 
	417.063,279.788 418.175,279.125 419.24,278.43 420.249,277.702 421.202,276.941 422.092,276.159 422.926,275.354 423.705,274.518 
	424.412,273.648 425.055,272.768 425.627,271.855 426.136,270.931 426.565,269.986 426.93,269.019 427.208,268.04 427.415,267.04 
	427.542,266.03 427.581,264.997 "/>
<polygon fill-rule="evenodd" clip-rule="evenodd" fill="#EFEFEF" points="411.486,253.706 411.463,253.521 411.399,253.347 
	411.296,253.173 411.153,252.999 410.97,252.825 410.747,252.662 410.493,252.499 410.199,252.336 409.874,252.184 409.516,252.032 
	409.127,251.88 408.698,251.739 408.245,251.608 407.76,251.467 407.252,251.347 406.712,251.217 406.148,251.108 405.56,250.989 
	404.94,250.891 404.305,250.793 403.645,250.695 402.962,250.608 402.263,250.532 401.548,250.467 400.809,250.402 400.054,250.347 
	399.284,250.304 398.497,250.261 397.695,250.228 396.885,250.206 396.066,250.195 395.232,250.185 394.39,250.195 393.572,250.206 
	392.761,250.228 391.959,250.261 391.173,250.304 390.402,250.347 389.647,250.402 388.909,250.467 388.194,250.532 
	387.494,250.608 386.811,250.695 386.152,250.793 385.516,250.891 384.897,250.989 384.309,251.108 383.745,251.217 
	383.205,251.347 382.696,251.467 382.212,251.608 381.759,251.739 381.33,251.88 380.94,252.032 380.583,252.184 380.257,252.336 
	379.963,252.499 379.709,252.662 379.487,252.825 379.304,252.999 379.161,253.173 379.058,253.347 378.994,253.521 
	378.978,253.706 378.994,253.89 379.058,254.064 379.161,254.238 379.304,254.412 379.487,254.586 379.709,254.749 379.963,254.912 
	380.257,255.075 380.583,255.227 380.94,255.379 381.33,255.531 381.759,255.673 382.212,255.803 382.696,255.944 383.205,256.064 
	383.745,256.194 384.309,256.303 384.897,256.412 385.516,256.521 386.152,256.618 386.811,256.716 387.494,256.792 
	388.194,256.879 388.909,256.944 389.647,257.01 390.402,257.064 391.173,257.107 391.959,257.151 392.761,257.183 393.572,257.205 
	394.39,257.216 395.232,257.216 396.066,257.216 396.885,257.205 397.695,257.183 398.497,257.151 399.284,257.107 400.054,257.064 
	400.809,257.01 401.548,256.944 402.263,256.879 402.962,256.792 403.645,256.716 404.305,256.618 404.94,256.521 405.56,256.412 
	406.148,256.303 406.712,256.194 407.252,256.064 407.76,255.944 408.245,255.803 408.698,255.673 409.127,255.531 409.516,255.379 
	409.874,255.227 410.199,255.075 410.493,254.912 410.747,254.749 410.97,254.586 411.153,254.412 411.296,254.238 411.399,254.064 
	411.463,253.89 411.486,253.706 "/>
<polygon fill-rule="evenodd" clip-rule="evenodd" fill="#B5B5B6" points="416.436,296.731 415.482,295.069 415.109,292.721 
	415.911,289.439 417.81,288.081 418.525,288.255 419.168,288.743 464.419,335.377 463.76,334.888 463.045,334.714 461.146,336.084 
	460.344,339.366 460.717,341.692 461.678,343.376 416.436,296.731 "/>
<polygon fill="none" stroke="#131E1F" stroke-width="0.8555" stroke-miterlimit="2.6131" points="416.436,296.731 415.482,295.069 
	415.109,292.721 415.911,289.439 417.81,288.081 418.525,288.255 419.168,288.743 464.419,335.377 463.76,334.888 463.045,334.714 
	461.146,336.084 460.344,339.366 460.717,341.692 461.678,343.376 416.436,296.731 "/>
<polygon fill-rule="evenodd" clip-rule="evenodd" fill="#FFFFFF" stroke="#FFFFFF" stroke-miterlimit="10" points="421.067,303.98 
	420.821,303.339 420.551,301.535 420.884,298.84 422.481,295.438 424.769,293.308 426.763,293.112 428.177,293.819 428.725,294.286 
	478.345,338.898 479.617,340.659 482.032,345.147 482.961,348.038 483.358,351.168 482.945,354.374 481.46,357.504 478.973,360.395 
	476.161,361.351 472.244,360.004 466.429,355.961 465.388,354.961 463.561,353.005 461.059,350.233 458,346.778 450.676,338.409 
	442.548,329.03 434.58,319.771 427.709,311.762 424.984,308.577 422.878,306.11 421.536,304.545 421.067,303.98 "/>
<polygon fill="none" stroke="#131E1F" stroke-width="0.8555" stroke-miterlimit="2.6131" points="421.067,303.98 420.821,303.339 
	420.551,301.535 420.884,298.84 422.481,295.438 424.769,293.308 426.763,293.112 428.177,293.819 428.725,294.286 478.345,338.898 
	479.617,340.659 482.032,345.147 482.961,348.038 483.358,351.168 482.945,354.374 481.46,357.504 478.973,360.395 476.161,361.351 
	472.244,360.004 466.429,355.961 465.388,354.961 463.561,353.005 461.059,350.233 458,346.778 450.676,338.409 442.548,329.03 
	434.58,319.771 427.709,311.762 424.984,308.577 422.878,306.11 421.536,304.545 421.067,303.98 "/>
<polygon fill-rule="evenodd" clip-rule="evenodd" fill="#DCDDDD" points="427.025,311.348 426.437,310.566 425.421,308.393 
	425.111,305.132 426.596,301.068 428.511,298.709 430.322,297.568 431.983,297.394 433.397,297.959 435.526,299.622 
	436.765,300.916 437.361,301.752 437.504,302.046 436.797,301.513 434.962,300.72 432.491,300.872 429.853,303.198 428.352,306.599 
	428.098,309.61 428.527,311.87 429.011,313.109 429.011,313.414 428.296,312.74 427.438,311.816 427.025,311.348 "/>
<polygon fill="none" stroke="#131E1F" stroke-width="0.8555" stroke-miterlimit="2.6131" points="427.025,311.348 426.437,310.566 
	425.421,308.393 425.111,305.132 426.596,301.068 428.511,298.709 430.322,297.568 431.983,297.394 433.397,297.959 
	435.526,299.622 436.765,300.916 437.361,301.752 437.504,302.046 436.797,301.513 434.962,300.72 432.491,300.872 429.853,303.198 
	428.352,306.599 428.098,309.61 428.527,311.87 429.011,313.109 429.011,313.414 428.296,312.74 427.438,311.816 427.025,311.348 
	"/>
<polygon fill-rule="evenodd" clip-rule="evenodd" fill="#FFFFFF" stroke="#000000" stroke-miterlimit="10" points="431.839,311.74 
	468.701,350.527 469.805,351.288 472.419,352.614 475.517,352.983 478.059,350.918 479.442,347.94 479.998,346.299 480.085,345.615 
	480.046,345.484 480.586,346.56 481.412,349.451 481.356,353.668 479.188,358.678 476.614,360.319 473.476,359.928 470.433,358.417 
	468.129,356.743 465.945,354.428 461.591,349.603 455.831,343.115 449.42,335.834 443.105,328.639 437.663,322.423 433.849,318.054 
	432.412,316.391 431.522,315.391 429.996,313.337 429.52,312.359 429.536,311.642 430.235,311.381 431.839,311.74 "/>
<polygon fill-rule="evenodd" clip-rule="evenodd" points="436.09,302.828 478.059,340.833 478.345,341.789 478.727,343.648 
	478.417,344.756 476.629,343.55 473.833,340.681 468.749,335.54 462.187,328.954 454.973,321.727 447.951,314.685 441.905,308.632 
	439.522,306.252 437.679,304.415 436.511,303.241 436.09,302.828 "/>
</svg>
