<?xml version="1.0" encoding="utf-8"?>
<!-- Generator: Adobe Illustrator 17.0.1, SVG Export Plug-In . SVG Version: 6.00 Build 0)  -->
<!DOCTYPE svg PUBLIC "-//W3C//DTD SVG 1.1//EN" "http://www.w3.org/Graphics/SVG/1.1/DTD/svg11.dtd">
<svg version="1.1" id="レイヤー_1" xmlns="http://www.w3.org/2000/svg" xmlns:xlink="http://www.w3.org/1999/xlink" x="0px"
	 y="0px" width="841.89px" height="595.28px" viewBox="0 0 841.89 595.28" enable-background="new 0 0 841.89 595.28"
	 xml:space="preserve">
<rect x="350.035" y="226.523" fill="#A660A3" stroke="#A660A3" stroke-width="2" stroke-miterlimit="10" width="141.732" height="141.732"/>
<ellipse fill="#FFFFFF" cx="414.035" cy="331.433" rx="3.25" ry="4.25"/>
<path d="M410.035,331.433c0,2.757,1.794,5,4,5c2.206,0,4-2.243,4-5c0-2.757-1.794-5-4-5
	C411.829,326.433,410.035,328.676,410.035,331.433z M411.535,331.433c0-1.93,1.122-3.5,2.5-3.5s2.5,1.57,2.5,3.5
	c0,1.93-1.122,3.5-2.5,3.5S411.535,333.363,411.535,331.433z"/>
<path fill="#9FA0A0" d="M409.702,307.183c0,0,6,13.667,6.666,21l-7,2.667L409.702,307.183z"/>
<path d="M409.553,306.448c-0.346,0.07-0.596,0.372-0.601,0.725l-0.334,23.666c-0.003,0.249,0.116,0.483,0.32,0.625
	c0.204,0.142,0.465,0.175,0.697,0.086l7-2.667c0.314-0.12,0.51-0.434,0.48-0.769c-0.67-7.37-6.479-20.671-6.727-21.234
	C410.247,306.559,409.899,306.378,409.553,306.448z M410.4,310.821c1.737,4.331,4.546,11.904,5.149,16.872
	c-0.787,0.299-4.054,1.544-5.416,2.063C410.157,328.07,410.331,315.735,410.4,310.821z"/>
<path fill="#D3D3D4" d="M393.072,358.265c0,0-2.595,5.184-8.015,3.06c-5.42-2.123,1.275-4.784,1.275-4.784L393.072,358.265z"/>
<path d="M386.055,355.844c-0.647,0.257-3.871,1.637-3.866,3.592c0.004,1.572,1.953,2.335,2.594,2.586
	c4.792,1.878,7.958-1.418,8.959-3.422c0.102-0.203,0.106-0.441,0.012-0.647c-0.094-0.206-0.277-0.359-0.497-0.415l-6.74-1.724
	C386.364,355.775,386.202,355.786,386.055,355.844z M385.331,360.627c-1.209-0.474-1.641-0.927-1.641-1.193v-0.001
	c0-0.576,1.384-1.533,2.706-2.101c0.39,0.1,4.083,1.044,5.48,1.402C390.96,359.955,388.824,361.995,385.331,360.627z"/>
<path fill="#D3D3D4" d="M408.118,356.35c0,0,5.417,3,0.917,5s-8-4.167-8-4.167L408.118,356.35z"/>
<path d="M408.031,355.605l-7.084,0.833c-0.25,0.029-0.468,0.182-0.582,0.406c-0.113,0.224-0.107,0.491,0.017,0.709
	c0.157,0.276,3.894,6.732,8.957,4.482c1.435-0.638,2.186-1.482,2.23-2.511c0.088-2.012-2.763-3.651-3.088-3.831
	C408.344,355.618,408.186,355.587,408.031,355.605z M407.952,357.125c0.927,0.561,2.12,1.583,2.12,2.307
	c0,0.009,0,0.019-0.001,0.028c-0.024,0.541-0.851,0.987-1.341,1.205c-2.81,1.249-5.257-1.373-6.379-2.88
	C403.956,357.595,407.564,357.17,407.952,357.125z"/>
<path fill="#FFFFFF" d="M386.75,351.85l0.826-9.273l7.777,2.125l-0.899,8.686C391.768,353.837,389.099,353.166,386.75,351.85z"/>
<path d="M387.147,341.961c-0.182,0.127-0.299,0.328-0.319,0.549l-0.826,9.273c-0.026,0.294,0.123,0.576,0.38,0.721
	c2.693,1.509,5.527,2.07,8.195,1.622c0.333-0.056,0.587-0.327,0.622-0.663l0.899-8.686c0.038-0.365-0.194-0.704-0.548-0.801
	l-7.777-2.125C387.559,341.794,387.33,341.834,387.147,341.961z M388.243,343.536c1.245,0.34,5.382,1.47,6.298,1.72
	c-0.104,1.005-0.668,6.456-0.77,7.436c-2.028,0.215-4.156-0.219-6.229-1.29C387.616,350.582,388.121,344.906,388.243,343.536z"/>
<path fill="#FFFFFF" d="M394.454,353.386l-0.415,4.006c-1.911,2.757-7.707-0.852-7.707-0.852l0.418-4.691
	C389.099,353.166,391.768,353.837,394.454,353.386z"/>
<path d="M386.4,351.187c-0.225,0.119-0.374,0.343-0.397,0.597l-0.418,4.691c-0.025,0.282,0.111,0.554,0.351,0.703
	c0.261,0.163,6.429,3.948,8.72,0.642c0.072-0.104,0.116-0.224,0.13-0.35l0.415-4.006c0.024-0.233-0.062-0.464-0.233-0.624
	c-0.171-0.16-0.406-0.231-0.637-0.193c-2.328,0.391-4.82-0.11-7.213-1.451C386.895,351.071,386.625,351.068,386.4,351.187z
	 M387.4,353c2.06,0.962,4.17,1.364,6.214,1.206c-0.103,0.997-0.264,2.548-0.297,2.871c-1.217,1.415-4.618-0.053-6.197-0.941
	C387.172,355.566,387.301,354.113,387.4,353z M394.578,354.126c-0.041,0.007-0.083,0.01-0.124,0.01
	C394.494,354.13,394.537,354.133,394.578,354.126z"/>
<path fill="#FFFFFF" d="M400.618,352.588V343.6l8-1.75l-0.335,9.717C405.912,352.734,403.205,353.095,400.618,352.588z"/>
<path d="M408.458,341.117l-8,1.75c-0.344,0.076-0.59,0.38-0.59,0.733v8.989c0,0.359,0.254,0.667,0.606,0.736
	c2.74,0.537,5.632,0.151,8.141-1.085c0.248-0.122,0.409-0.371,0.418-0.647l0.335-9.717c0.008-0.231-0.091-0.454-0.269-0.602
	C408.92,341.126,408.684,341.067,408.458,341.117z M407.835,342.789c-0.051,1.48-0.259,7.501-0.285,8.274
	c-1.936,0.861-4.089,1.139-6.182,0.848c0-1.074,0-6.742,0-7.708C402.251,344.01,406.49,343.083,407.835,342.789z"/>
<path fill="#FFFFFF" d="M408.283,351.566l-0.165,4.783c0,0-5.25,2.75-7.5,0.5v-4.261
	C403.205,353.095,405.912,352.734,408.283,351.566z"/>
<path d="M407.952,350.894c-2.217,1.092-4.77,1.433-7.189,0.959c-0.22-0.043-0.447,0.014-0.621,0.157
	c-0.173,0.143-0.273,0.355-0.273,0.579v4.261c0,0.199,0.079,0.39,0.22,0.53c2.61,2.61,8.144-0.243,8.378-0.366
	c0.239-0.125,0.392-0.369,0.401-0.639l0.165-4.783c0.009-0.264-0.121-0.513-0.342-0.656
	C408.469,350.794,408.188,350.777,407.952,350.894z M400.474,353.324c0.048,0.009,0.097,0.005,0.144,0.014
	C400.57,353.338,400.522,353.334,400.474,353.324z M407.493,352.713c-0.04,1.166-0.09,2.604-0.109,3.152
	c-1.471,0.693-4.512,1.741-6.016,0.623c0-0.478,0-2.118,0-3.076C403.435,353.664,405.544,353.45,407.493,352.713z"/>
<path fill="#FFFFFF" d="M380.868,307.266c0,0-5-0.25-5.75,8.25s0.25,20.75,0.25,20.75l11.25,0.25
	C386.618,336.516,389.118,315.266,380.868,307.266z"/>
<path d="M374.371,315.45c-0.747,8.465,0.239,20.753,0.249,20.877c0.031,0.383,0.347,0.68,0.731,0.689l11.25,0.25
	c0.386,0.008,0.716-0.278,0.761-0.663c0.104-0.882,2.447-21.712-5.973-29.876c-0.131-0.127-0.303-0.202-0.485-0.211
	C380.672,306.505,375.175,306.336,374.371,315.45z M375.591,322.952c0-2.526,0.073-5.091,0.274-7.37
	c0.579-6.567,3.726-7.437,4.691-7.549c4.746,4.866,5.658,14.589,5.658,21.295c0,2.965-0.176,5.323-0.275,6.422
	c-1.145-0.025-8.753-0.195-9.875-0.22C375.934,333.703,375.591,328.418,375.591,322.952z"/>
<path fill="#FFFFFF" d="M412.035,318.85c0-8.667-2.167-12.583-2.167-12.583l-5,0.75l5.667,18.667
	C410.535,325.683,412.035,327.516,412.035,318.85z"/>
<path d="M409.757,305.525l-5,0.75c-0.215,0.032-0.406,0.157-0.523,0.341c-0.116,0.184-0.147,0.41-0.084,0.618l5.667,18.667
	c0.029,0.094,0.075,0.181,0.137,0.257c0.26,0.317,0.751,0.556,1.262,0.374c0.814-0.291,1.568-1.423,1.568-7.682
	c0-8.759-2.168-12.78-2.26-12.947C410.373,305.629,410.067,305.478,409.757,305.525z M409.42,307.092
	c0.516,1.203,1.864,4.977,1.864,11.758c0,3.093-0.195,4.662-0.377,5.479c-0.58-1.91-4.638-15.279-5.069-16.699
	C406.857,307.476,408.708,307.199,409.42,307.092z"/>
<path fill="#9FA0A0" d="M410.868,330.266l4.25,12c0,0-17.5,5.5-33.75-0.25l2.75-8.5l16.75-6L410.868,330.266z"/>
<path d="M400.615,326.81l-16.75,6c-0.219,0.079-0.389,0.254-0.461,0.475l-2.75,8.5c-0.125,0.387,0.08,0.802,0.463,0.938
	c16.298,5.767,34.048,0.314,34.225,0.258c0.194-0.061,0.355-0.198,0.446-0.38c0.091-0.182,0.104-0.394,0.036-0.585l-4.25-12
	c-0.082-0.231-0.272-0.408-0.508-0.473l-10-2.75C400.918,326.752,400.76,326.758,400.615,326.81z M400.898,328.302
	c0.42,0.115,8.711,2.396,9.394,2.583c0.23,0.648,3.399,9.598,3.853,10.878c-3.419,0.924-18.069,4.334-31.826-0.247
	c0.377-1.167,2.21-6.831,2.4-7.418C385.375,333.863,400.472,328.455,400.898,328.302z"/>
<g>
	<path fill="#9FA0A0" d="M397.102,334.766l-15.234,0.5c0,0,3.047-8.75,4.219-28.75l19.913,0.654c0,0,0.097,0.035,0.157,0.191
		c1.962,5.154,4.712,10.904,6.712,25.904l-10.176,0.888l-2.777-3.888L397.102,334.766z"/>
	<path d="M385.338,306.472c-1.15,19.629-4.148,28.461-4.178,28.548c-0.081,0.233-0.042,0.492,0.105,0.69
		c0.146,0.199,0.381,0.313,0.628,0.305l15.234-0.5c0.25-0.008,0.479-0.14,0.611-0.352c0,0,1.479-2.366,2.218-3.549
		c0.764,1.069,2.125,2.975,2.125,2.975c0.154,0.216,0.411,0.334,0.676,0.311l10.176-0.888c0.204-0.018,0.392-0.118,0.521-0.278
		c0.128-0.16,0.185-0.365,0.158-0.568c-1.788-13.407-4.162-19.452-6.069-24.309l-0.686-1.763c-0.114-0.299-0.339-0.535-0.602-0.63
		c-0.074-0.027-0.152-0.042-0.23-0.044l-19.913-0.654C385.705,305.753,385.362,306.066,385.338,306.472z M386.787,307.29
		c1.317,0.043,18.016,0.592,18.776,0.617c0.154,0.395,0.583,1.5,0.583,1.5c1.84,4.685,4.119,10.51,5.869,23.181
		c-1.28,0.111-8.242,0.719-8.962,0.782c-0.412-0.578-2.528-3.54-2.528-3.54c-0.145-0.204-0.383-0.321-0.633-0.313
		c-0.25,0.008-0.48,0.14-0.613,0.352c0,0-2.238,3.581-2.601,4.161c-0.704,0.023-12.012,0.394-13.783,0.452
		C383.7,331.693,385.81,323.115,386.787,307.29z"/>
</g>
<path fill="#FFFFFF" d="M404.868,304.85c0,0,3.75,5.667-2.25,6.667s-4-5.25-4-5.25s-0.167,7.5-6.5,6.5s-4.25-7.5-4.25-7.5
	L404.868,304.85z"/>
<path d="M404.85,304.1l-17,0.416c-0.319,0.008-0.598,0.217-0.696,0.521c-0.044,0.136-1.052,3.367,0.489,5.87
	c0.865,1.405,2.332,2.28,4.358,2.6c1.922,0.304,3.535-0.075,4.789-1.124c0.565-0.472,0.994-1.045,1.339-1.643
	c0.094,0.159,0.186,0.319,0.31,0.463c0.887,1.026,2.335,1.38,4.302,1.052c1.923-0.32,3.179-1.128,3.733-2.401
	c1.022-2.348-0.899-5.294-0.98-5.419C405.351,304.221,405.108,304.094,404.85,304.1z M398.101,305.766
	c-0.078,0.081-0.161,0.159-0.197,0.272c-0.023,0.072-0.304,1.009-0.339,2.138c-0.271,1.036-0.78,2.261-1.74,3.061
	c-0.908,0.756-2.116,1.022-3.589,0.79c-1.571-0.248-2.685-0.887-3.311-1.898c-0.49-0.792-0.634-1.719-0.634-2.535
	c0-0.65,0.089-1.206,0.17-1.59C389.089,305.986,393.477,305.879,398.101,305.766z M404.442,305.61
	c0.358,0.64,0.832,1.717,0.832,2.719c0,0.328-0.052,0.645-0.177,0.93c-0.339,0.776-1.215,1.286-2.603,1.517
	c-1.415,0.236-2.396,0.05-2.919-0.551c-0.397-0.458-0.525-1.143-0.527-1.816c0.281-1.142,0.317-2.049,0.319-2.126
	c0-0.006,0-0.011,0-0.017c0-0.212-0.104-0.387-0.249-0.525C401.505,305.682,404.171,305.617,404.442,305.61z"/>
<path fill="#D3D3D4" d="M421.368,287.016c0,0,1.5,2.25-7,2s-43,4-44.5,2C369.868,291.016,392.368,263.516,421.368,287.016z"/>
<path d="M384.405,279.409c-9.338,3.975-14.97,10.773-15.205,11.06c-0.252,0.308-0.261,0.747-0.022,1.065
	c1.022,1.363,7.155,1.091,26.327-0.483c7.962-0.654,15.482-1.271,18.838-1.172c6.034,0.177,7.333-0.887,7.785-1.704
	c0.353-0.635,0.198-1.28-0.041-1.639c-0.048-0.072-0.107-0.137-0.175-0.192C406.598,273.935,393.063,275.724,384.405,279.409z
	 M385.14,280.974c11.831-5.011,23.726-2.825,35.363,6.469c-0.325,0.245-1.582,0.843-6.109,0.71
	c-3.453-0.102-11.019,0.52-19.031,1.177c-8.783,0.721-20.428,1.675-23.963,1.277C373.284,288.61,378.187,283.919,385.14,280.974z"/>
<path fill="#FFFFFF" d="M376.358,292.482c0,0-3.333-1.185-3.333,2.539c0,3.723,3.833,3.216,3.833,3.216s1.833,9.476,18.5,9.983
	c5.667-0.169,14.5-0.846,18-10.323c0,0,4.167,0.508,4.5-3.214c0.333-3.723-3.833-2.708-3.833-2.708s0.999-12.184-9.834-15.06
	C393.358,274.036,379.025,277.421,376.358,292.482z"/>
<path d="M384.32,278.68c-4.429,2.826-7.354,7.287-8.53,12.909c-0.636-0.085-1.524-0.067-2.282,0.468
	c-0.818,0.578-1.233,1.575-1.233,2.963l0,0c0,1.299,0.406,2.314,1.207,3.016c0.911,0.798,2.088,0.952,2.814,0.966
	c0.729,2.211,4.246,9.516,19.039,9.967c4.781-0.142,14.533-0.457,18.505-10.3c0.785,0.001,2.219-0.136,3.324-1.03
	c0.846-0.684,1.331-1.656,1.441-2.891c0.113-1.266-0.208-2.234-0.956-2.877c-0.858-0.738-2.036-0.818-2.858-0.762
	c-0.027-2.982-0.88-12.391-10.408-14.921C397.24,274.291,389.739,275.223,384.32,278.68z M376.737,293.127
	c0.189-0.111,0.322-0.299,0.36-0.515c0.999-5.644,3.701-9.906,8.03-12.668c5.071-3.236,12.126-4.097,18.872-2.305
	c10.087,2.678,9.317,13.802,9.279,14.274c-0.019,0.239,0.078,0.473,0.261,0.629c0.182,0.156,0.429,0.216,0.663,0.16
	c0.461-0.11,1.806-0.269,2.472,0.308c0.358,0.31,0.505,0.849,0.438,1.604c-0.074,0.823-0.363,1.429-0.884,1.853
	c-1.068,0.87-2.763,0.685-2.78,0.683c-0.343-0.04-0.672,0.16-0.792,0.485c-3.057,8.278-10.131,9.618-17.319,9.833
	c-15.752-0.481-17.668-9.016-17.742-9.379c-0.078-0.384-0.442-0.646-0.831-0.598c-0.014,0.002-1.44,0.169-2.297-0.589
	c-0.458-0.405-0.69-1.038-0.69-1.883c0-0.87,0.2-1.454,0.594-1.735c0.54-0.385,1.44-0.199,1.741-0.096
	C376.318,293.261,376.548,293.239,376.737,293.127z"/>
<path d="M395.108,296.881v1.015c0,0.414,0.336,0.75,0.75,0.75c0.414,0,0.75-0.336,0.75-0.75v-1.015c0-0.414-0.336-0.75-0.75-0.75
	C395.444,296.131,395.108,296.467,395.108,296.881z"/>
<path d="M416.202,292.016c-0.011,0.045-12.189-7.683-13.159-9.708c-3.162,3.382-8.652,6.189-13.224,6.89
	c2.211-1.288,4.319-4.578,5.239-6.89c-2.592,2.544-5.705,4.413-9.023,5.875c-3.278,1.445-7.376,3.141-10.832,3.96
	c0,0-5-15.907,13.666-19.63c0,0,13.667-5.076,22.667,4.738C415.202,281.989,417.691,285.755,416.202,292.016z"/>
<path d="M388.656,271.793c-6.115,1.233-10.417,3.881-12.783,7.875c-1.599,2.7-2.039,5.546-2.039,7.859
	c0,2.713,0.604,4.691,0.651,4.841c0.118,0.375,0.506,0.596,0.889,0.505c3.645-0.864,8.002-2.699,10.962-4.003
	c2.368-1.044,4.406-2.222,6.217-3.526c-0.928,1.352-2.027,2.574-3.112,3.207c-0.236,0.137-0.373,0.387-0.373,0.648
	c0,0.083,0.014,0.167,0.043,0.25c0.12,0.34,0.465,0.546,0.821,0.491c4.521-0.694,9.725-3.326,13.018-6.504
	c0.729,0.782,2.417,2.238,6.582,5.105c6.214,4.279,6.615,4.236,6.747,4.222c0.316-0.034,0.577-0.263,0.65-0.572
	c1.552-6.526-1.012-10.496-4.803-15.397c-0.013-0.017-0.026-0.032-0.041-0.048C403.007,266.842,389.246,271.583,388.656,271.793z
	 M375.351,287.529c0-2.111,0.391-4.701,1.821-7.11c2.15-3.62,6.134-6.032,11.843-7.171c0.039-0.008,0.077-0.019,0.114-0.032
	c0.132-0.049,13.294-4.769,21.839,4.528c2.892,3.739,4.921,6.737,4.921,10.772c0,0.722-0.092,1.495-0.228,2.294
	c-2.902-1.836-11.278-7.441-11.941-8.826c-0.107-0.224-0.317-0.38-0.563-0.417c-0.245-0.038-0.493,0.048-0.662,0.229
	c-2.392,2.559-6.189,4.792-9.908,5.961c1.345-1.546,2.505-3.505,3.168-5.171c0.036-0.09,0.053-0.184,0.053-0.277
	c0-0.245-0.121-0.482-0.335-0.625c-0.295-0.196-0.688-0.159-0.941,0.089c-2.297,2.254-5.176,4.127-8.801,5.724
	c-2.714,1.196-6.612,2.835-9.988,3.728C375.578,290.465,375.351,289.14,375.351,287.529z"/>
<path d="M403.693,287.717c-0.389,0.143-0.587,0.575-0.444,0.963c0.143,0.389,0.575,0.587,0.963,0.444
	c1.359-0.501,1.494-0.415,2.787,0.404l0.052,0.033c0.35,0.222,0.813,0.118,1.035-0.232c0.222-0.35,0.118-0.813-0.232-1.035
	l-0.051-0.033C406.276,287.294,405.648,286.995,403.693,287.717z"/>
<path d="M383.73,289.107c-0.322,0.261-0.371,0.733-0.11,1.055c0.261,0.322,0.733,0.371,1.055,0.11
	c1.174-0.952,2.969-1.388,3.984-0.32c0.285,0.3,0.76,0.313,1.06,0.027c0.3-0.285,0.313-0.76,0.027-1.06
	C388.093,287.18,385.468,287.697,383.73,289.107z"/>
<path fill="#D3D3D4" d="M417.064,282.78c0,0-1.536-12.999-17.946-15.014c-16.411-2.016-25.24,8.393-25.528,17.317L417.064,282.78z"
	/>
<path d="M379.308,272.031c-4.027,3.448-6.426,8.196-6.581,13.025c-0.008,0.242,0.086,0.476,0.259,0.645
	c0.173,0.169,0.409,0.258,0.65,0.246l43.475-2.304c0.238-0.013,0.461-0.123,0.615-0.306c0.154-0.183,0.225-0.421,0.197-0.658
	c-0.016-0.137-1.811-13.696-18.699-15.77C389.151,265.672,382.833,269.011,379.308,272.031z M380.431,273.343
	c3.262-2.793,9.133-5.879,18.581-4.719c13.223,1.623,16.344,10.461,17.016,13.346c-1.845,0.098-39.631,2.1-41.489,2.198
	C374.95,280.191,377.091,276.204,380.431,273.343z"/>
<path fill="#D3D3D4" d="M421.368,287.016l-4.833-5.167c0,0-22.167-6.333-42.945,3.234l-4.055,6.099c0,0,14.083-7.417,27.583-7.167
	C414.033,284.33,418.035,286.016,421.368,287.016z"/>
<path d="M373.228,284.299c-0.145,0.067-0.269,0.173-0.358,0.306l-4.055,6.099c-0.219,0.329-0.187,0.764,0.078,1.057
	c0.264,0.293,0.694,0.37,1.043,0.186c0.139-0.073,14.051-7.31,27.165-7.067c15.415,0.286,19.9,1.684,23.175,2.704l0.843,0.26
	c0.374,0.115,0.775-0.037,0.983-0.369c0.207-0.332,0.163-0.763-0.104-1.049l-4.833-5.167c-0.107-0.114-0.243-0.198-0.394-0.24
	C416.547,280.955,394.057,274.709,373.228,284.299z M416.073,282.621c0.168,0.179,1.254,1.34,2.484,2.655
	c-3.41-0.918-8.865-1.891-21.423-2.123c-10.088-0.187-20.319,3.747-25.15,5.906c1.067-1.604,2.031-3.055,2.181-3.28
	C393.289,277.08,413.803,282.028,416.073,282.621z"/>
<path d="M405.301,293.393c-1.254,0.173-1.683,1.743-1.823,2.259c-0.109,0.399,0.127,0.812,0.526,0.921
	c0.399,0.109,0.812-0.127,0.921-0.526c0.285-1.045,0.578-1.167,0.581-1.168c0.174-0.024,0.716,0.468,1.053,1.024
	c0.214,0.354,0.675,0.468,1.029,0.254c0.354-0.214,0.469-0.673,0.256-1.028C407.651,294.808,406.621,293.211,405.301,293.393z"/>
<path d="M386.293,293.988c-1.009,0.067-1.813,0.915-2.458,2.592c-0.149,0.387,0.044,0.82,0.431,0.969
	c0.387,0.149,0.82-0.044,0.969-0.431c0.453-1.177,0.894-1.616,1.156-1.634c0.352-0.024,0.905,0.611,1.153,1.059
	c0.2,0.362,0.656,0.494,1.018,0.295c0.362-0.199,0.496-0.653,0.298-1.016C388.752,295.626,387.762,293.891,386.293,293.988z"/>
<path d="M375.119,313.979c-0.021,0.414,0.298,0.766,0.712,0.787l5,0.25c0.414,0.021,0.766-0.298,0.786-0.711
	c0.021-0.414-0.298-0.766-0.712-0.787l-5-0.25C375.492,313.247,375.14,313.565,375.119,313.979z"/>
<path d="M375.12,316.216c-0.028,0.413,0.285,0.771,0.698,0.798l3.75,0.25c0.413,0.027,0.771-0.285,0.798-0.699
	c0.028-0.413-0.285-0.771-0.698-0.798l-3.75-0.25C375.505,315.49,375.147,315.803,375.12,316.216z"/>
<circle fill="#9FA0A0" cx="399.368" cy="325.266" r="1.768"/>
<path d="M396.85,325.266c0,1.388,1.13,2.518,2.518,2.518c1.388,0,2.518-1.129,2.518-2.518c0-1.388-1.13-2.518-2.518-2.518
	C397.98,322.749,396.85,323.878,396.85,325.266z M398.35,325.266c0-0.561,0.457-1.018,1.018-1.018c0.561,0,1.018,0.457,1.018,1.018
	c0,0.561-0.457,1.018-1.018,1.018C398.807,326.284,398.35,325.827,398.35,325.266z"/>
<circle fill="#9FA0A0" cx="399.118" cy="317.266" r="1.768"/>
<path d="M396.6,317.266c0,1.388,1.13,2.518,2.518,2.518c1.388,0,2.518-1.129,2.518-2.518c0-1.388-1.13-2.518-2.518-2.518
	C397.73,314.749,396.6,315.878,396.6,317.266z M398.1,317.266c0-0.561,0.457-1.018,1.018-1.018c0.561,0,1.018,0.457,1.018,1.018
	c0,0.561-0.457,1.018-1.018,1.018C398.557,318.284,398.1,317.827,398.1,317.266z"/>
<path d="M394.129,267.391c-0.069,0.408,0.206,0.795,0.614,0.864c0.346,0.059,8.5,1.559,10.135,11.137
	c0.07,0.408,0.457,0.683,0.865,0.613c0.408-0.07,0.683-0.457,0.613-0.865c-1.819-10.653-11.271-12.348-11.366-12.364
	C394.583,266.708,394.198,266.984,394.129,267.391z"/>
<ellipse fill="#FFFFFF" cx="378.701" cy="336.1" rx="3.25" ry="4.25"/>
<path d="M374.701,336.1c0,2.757,1.794,5,4,5c2.206,0,4-2.243,4-5c0-2.757-1.794-5-4-5C376.496,331.1,374.701,333.343,374.701,336.1z
	 M376.201,336.1c0-1.93,1.122-3.5,2.5-3.5c1.378,0,2.5,1.57,2.5,3.5c0,1.93-1.122,3.5-2.5,3.5
	C377.323,339.6,376.201,338.029,376.201,336.1z"/>
<path d="M391.442,267.287c-0.317,0.076-7.78,2.017-9.07,14.401c-0.043,0.412,0.256,0.781,0.668,0.824
	c0.412,0.043,0.781-0.256,0.823-0.668c1.174-11.269,7.658-13.03,7.934-13.099c0.4-0.101,0.645-0.507,0.547-0.907
	C392.246,267.436,391.843,267.19,391.442,267.287z"/>
<path fill="#9FA0A0" d="M381.035,310.517c0,0,4.667-0.333,4.667,5.667s-2.333,18.333-2.333,18.333l-8.667-2.333
	C374.701,332.183,376.701,316.517,381.035,310.517z"/>
<path d="M380.981,309.769c-0.221,0.016-0.425,0.129-0.554,0.309c-4.395,6.085-6.387,21.363-6.469,22.011
	c-0.048,0.372,0.187,0.722,0.549,0.819l8.667,2.333c0.202,0.054,0.417,0.022,0.594-0.089c0.177-0.111,0.299-0.291,0.338-0.496
	c0.096-0.507,2.346-12.472,2.346-18.473c0-2.246-0.612-3.955-1.819-5.079C383.057,309.638,381.065,309.763,380.981,309.769z
	 M381.436,311.281c0.489,0.039,1.414,0.206,2.188,0.935c0.881,0.83,1.327,2.165,1.327,3.968c0,5.003-1.67,14.611-2.174,17.397
	c-1.194-0.321-6.252-1.683-7.242-1.95C375.954,328.725,377.883,316.567,381.436,311.281z"/>
<path fill="#FFFFFF" d="M386.368,307.016c0,0,6.75,8.5-0.5,18.25c0,0,1.5-14.25-6.5-17
	C379.368,308.266,381.118,306.516,386.368,307.016z"/>
<path d="M378.838,307.736c-0.183,0.183-0.259,0.447-0.2,0.699c0.058,0.252,0.242,0.456,0.487,0.54
	c7.341,2.523,6.012,16.076,5.998,16.213c-0.035,0.336,0.159,0.654,0.473,0.777c0.315,0.123,0.673,0.021,0.874-0.251
	c7.507-10.096,0.557-19.075,0.486-19.164c-0.127-0.16-0.313-0.261-0.516-0.28C380.995,305.751,379.042,307.531,378.838,307.736z
	 M385.974,307.747c0.625,0.886,2.52,3.909,2.52,8.028c0,2.022-0.464,4.307-1.756,6.727c-0.003-4.1-0.753-11.451-5.714-14.289
	C381.957,307.872,383.545,307.557,385.974,307.747z"/>
<circle cx="375.535" cy="302.85" r="3"/>
<path d="M371.785,302.85c0,2.068,1.682,3.75,3.75,3.75s3.75-1.682,3.75-3.75c0-2.068-1.682-3.75-3.75-3.75
	S371.785,300.782,371.785,302.85z M373.285,302.85c0-1.241,1.009-2.25,2.25-2.25s2.25,1.009,2.25,2.25c0,1.241-1.009,2.25-2.25,2.25
	S373.285,304.09,373.285,302.85z"/>
<circle cx="414.535" cy="302.516" r="3"/>
<path d="M410.785,302.516c0,2.068,1.682,3.75,3.75,3.75s3.75-1.682,3.75-3.75c0-2.068-1.682-3.75-3.75-3.75
	S410.785,300.448,410.785,302.516z M412.285,302.516c0-1.241,1.009-2.25,2.25-2.25s2.25,1.009,2.25,2.25
	c0,1.241-1.009,2.25-2.25,2.25S412.285,303.757,412.285,302.516z"/>
<circle cx="369.868" cy="310.85" r="1.154"/>
<path d="M367.965,310.85c0,1.05,0.854,1.904,1.904,1.904c1.05,0,1.904-0.854,1.904-1.904c0-1.05-0.854-1.904-1.904-1.904
	C368.819,308.946,367.965,309.8,367.965,310.85z M369.465,310.85c0-0.223,0.181-0.404,0.404-0.404c0.222,0,0.404,0.181,0.404,0.404
	c0,0.223-0.181,0.404-0.404,0.404C369.646,311.254,369.465,311.072,369.465,310.85z"/>
<circle cx="421.368" cy="308.85" r="1.154"/>
<path d="M419.464,308.85c0,1.05,0.854,1.904,1.904,1.904s1.904-0.854,1.904-1.904c0-1.05-0.854-1.904-1.904-1.904
	S419.464,307.8,419.464,308.85z M420.964,308.85c0-0.223,0.181-0.404,0.404-0.404s0.404,0.181,0.404,0.404
	c0,0.223-0.181,0.404-0.404,0.404S420.964,309.072,420.964,308.85z"/>
<circle cx="372.369" cy="307.515" r="2"/>
<path d="M369.619,307.515c0,1.516,1.234,2.75,2.75,2.75c1.516,0,2.75-1.234,2.75-2.75c0-1.516-1.234-2.75-2.75-2.75
	C370.852,304.765,369.619,305.999,369.619,307.515z M371.119,307.515c0-0.689,0.561-1.25,1.25-1.25c0.689,0,1.25,0.561,1.25,1.25
	c0,0.689-0.561,1.25-1.25,1.25C371.679,308.765,371.119,308.204,371.119,307.515z"/>
<circle cx="418.369" cy="306.515" r="2"/>
<path d="M418.227,303.769c-0.734,0.038-1.409,0.36-1.901,0.905c-0.492,0.546-0.741,1.25-0.703,1.983
	c0.038,0.733,0.359,1.408,0.905,1.9c0.546,0.492,1.25,0.742,1.983,0.704c0.734-0.038,1.409-0.36,1.901-0.906
	c0.459-0.509,0.707-1.156,0.707-1.837c0-0.049-0.001-0.098-0.004-0.146C421.036,304.859,419.741,303.691,418.227,303.769z
	 M417.532,307.444c-0.248-0.224-0.394-0.53-0.411-0.864c-0.018-0.334,0.096-0.654,0.319-0.902c0.224-0.248,0.53-0.394,0.864-0.411
	c0.333-0.017,0.654,0.096,0.902,0.32c0.248,0.224,0.394,0.53,0.411,0.864v0c0.018,0.333-0.096,0.653-0.319,0.901
	c-0.224,0.248-0.53,0.394-0.864,0.411C418.1,307.781,417.78,307.667,417.532,307.444z M421.115,306.373L421.115,306.373
	L421.115,306.373L421.115,306.373z"/>
<path fill="#B5B5B6" d="M395.451,305.714c1.647-0.04,5.006,0.096,5.428-4.687l-10.125-0.207
	C390.753,300.821,391.457,305.811,395.451,305.714z"/>
<path d="M390.192,300.323c-0.146,0.165-0.212,0.385-0.182,0.602c0.275,1.954,1.771,5.627,5.458,5.539c-0.001,0,0.001,0,0.001,0
	l0.203-0.004c1.643-0.031,5.489-0.105,5.953-5.366c0.018-0.207-0.05-0.412-0.189-0.567c-0.139-0.155-0.335-0.245-0.543-0.249
	l-10.125-0.207C390.549,300.066,390.338,300.159,390.192,300.323z M391.704,301.59c1.43,0.029,6.993,0.143,8.292,0.17
	c-0.595,3.088-2.739,3.169-4.352,3.2l-0.211,0.004h0C393.053,305.022,392.075,302.852,391.704,301.59z M395.432,304.965
	L395.432,304.965C395.433,304.965,395.433,304.965,395.432,304.965z"/>
<g>
	<path fill="#FFFFFF" d="M408.811,311.726c-0.581,1.313-1.295,2.377-1.596,2.377c-0.3,0-1.029-1.064-1.63-2.377
		c-0.6-1.313,0.115-2.376,1.596-2.376C408.663,309.349,409.393,310.413,408.811,311.726z"/>
	<path d="M404.957,309.662c-0.423,0.659-0.443,1.524-0.054,2.375c0.854,1.868,1.632,2.815,2.312,2.815
		c0.685,0,1.452-0.95,2.281-2.823c0.175-0.395,0.262-0.793,0.262-1.172c0-0.435-0.114-0.844-0.342-1.194
		c-0.44-0.676-1.254-1.064-2.235-1.064C406.202,308.599,405.392,308.987,404.957,309.662z M406.268,311.414
		c-0.096-0.211-0.145-0.407-0.145-0.578c0-0.139,0.032-0.262,0.097-0.363c0.153-0.237,0.503-0.374,0.962-0.374
		c0.463,0,0.82,0.139,0.978,0.382c0.068,0.105,0.102,0.233,0.102,0.378c0,0.168-0.045,0.358-0.136,0.563h0
		c-0.344,0.779-0.676,1.331-0.914,1.665C406.968,312.753,406.626,312.198,406.268,311.414z M409.497,312.029L409.497,312.029
		L409.497,312.029L409.497,312.029z"/>
	<path fill="#FFFFFF" d="M405.597,316.14c0.581-1.313,1.296-2.377,1.596-2.377s1.029,1.064,1.63,2.377
		c0.6,1.313-0.114,2.376-1.596,2.376C405.746,318.517,405.016,317.453,405.597,316.14z"/>
	<path d="M404.911,315.837c-0.175,0.395-0.262,0.793-0.262,1.172c0,0.435,0.115,0.844,0.343,1.195
		c0.44,0.676,1.255,1.063,2.235,1.063c0.979,0,1.79-0.387,2.224-1.063c0.423-0.659,0.443-1.524,0.054-2.375
		c-0.855-1.868-1.632-2.815-2.312-2.815C406.508,313.013,405.74,313.963,404.911,315.837z M406.249,317.385
		c-0.068-0.105-0.102-0.233-0.102-0.378c0-0.168,0.045-0.358,0.136-0.563l0,0c0.344-0.778,0.677-1.331,0.914-1.665
		c0.243,0.334,0.585,0.889,0.944,1.673c0.096,0.211,0.145,0.407,0.145,0.578c0,0.14-0.032,0.262-0.097,0.363
		c-0.153,0.237-0.503,0.374-0.962,0.374C406.764,317.767,406.407,317.628,406.249,317.385z M404.911,315.837L404.911,315.837
		L404.911,315.837z"/>
	<path fill="#FFFFFF" d="M409.524,315.54c-1.313-0.582-2.376-1.296-2.376-1.596c0-0.3,1.064-1.029,2.376-1.629
		c1.313-0.6,2.377,0.114,2.377,1.596S410.837,316.121,409.524,315.54z"/>
	<path d="M409.212,311.632c-1.868,0.854-2.815,1.632-2.815,2.312c0,0.684,0.95,1.452,2.823,2.282v0
		c0.849,0.375,1.711,0.346,2.367-0.081c0.676-0.44,1.063-1.255,1.063-2.235c0-0.979-0.387-1.79-1.063-2.224
		C410.929,311.263,410.063,311.243,409.212,311.632z M409.836,312.997c0.383-0.175,0.717-0.192,0.941-0.048
		c0.237,0.152,0.374,0.503,0.374,0.962c0,0.463-0.139,0.82-0.382,0.978c-0.226,0.147-0.56,0.135-0.941-0.034
		c-0.778-0.345-1.331-0.677-1.665-0.914C408.498,313.697,409.052,313.355,409.836,312.997z"/>
	<path fill="#FFFFFF" d="M404.544,312.213c1.313,0.582,2.376,1.296,2.376,1.596c0,0.3-1.064,1.03-2.376,1.63
		c-1.313,0.6-2.377-0.114-2.377-1.596C402.167,312.361,403.231,311.631,404.544,312.213z"/>
	<path d="M402.481,311.607c-0.676,0.44-1.064,1.255-1.064,2.235c0,0.979,0.387,1.79,1.063,2.224
		c0.659,0.423,1.525,0.443,2.376,0.054c1.868-0.854,2.815-1.632,2.815-2.312c0-0.684-0.95-1.452-2.823-2.281l0,0
		C404,311.151,403.137,311.18,402.481,311.607z M403.291,314.804c-0.237-0.152-0.374-0.503-0.374-0.962
		c0-0.463,0.139-0.82,0.382-0.978c0.226-0.147,0.56-0.135,0.941,0.034l0,0c0.778,0.345,1.33,0.677,1.665,0.915
		c-0.334,0.243-0.889,0.585-1.673,0.943C403.85,314.931,403.515,314.948,403.291,314.804z"/>
	<circle fill="#FFFFFF" cx="407.147" cy="313.989" r="1.584"/>
	<path d="M404.813,313.989c0,1.287,1.047,2.334,2.335,2.334c1.287,0,2.334-1.047,2.334-2.334c0-1.287-1.047-2.334-2.334-2.334
		C405.86,311.655,404.813,312.702,404.813,313.989z M406.313,313.989c0-0.46,0.375-0.834,0.835-0.834
		c0.46,0,0.834,0.375,0.834,0.834c0,0.46-0.375,0.834-0.834,0.834C406.688,314.824,406.313,314.449,406.313,313.989z"/>
</g>
<g>
	<path fill="#D3D3D4" d="M485.066,290.062l-0.218-1.702l1.553,0.523c-0.021-0.934-0.716-2.538-2.071-3.647
		c-1.868-1.525-3.832-2.139-4.21-1.779c-0.377,0.36,0.169,2.444,1.581,4.406C482.693,289.242,484.154,289.941,485.066,290.062z"/>
</g>
<g>
	<path fill="#D3D3D4" d="M467.566,262.062l-0.218-1.702l1.553,0.523c-0.021-0.934-0.716-2.538-2.071-3.647
		c-1.868-1.525-3.832-2.139-4.21-1.779c-0.377,0.36,0.169,2.444,1.581,4.406C465.193,261.242,466.654,261.941,467.566,262.062z"/>
</g>
<g>
	<path fill="#D3D3D4" d="M443.566,252.562l-0.218-1.702l1.553,0.523c-0.021-0.934-0.716-2.538-2.071-3.647
		c-1.868-1.525-3.832-2.139-4.21-1.779c-0.377,0.36,0.169,2.444,1.581,4.406C441.193,251.742,442.654,252.441,443.566,252.562z"/>
</g>
<g>
	<path fill="#D3D3D4" d="M383.531,255.517l0.722-1.557l1.036,1.27c0.479-0.802,0.745-2.53,0.188-4.19
		c-0.77-2.286-2.106-3.85-2.617-3.747c-0.511,0.104-1.158,2.159-1.007,4.571C381.959,253.559,382.824,254.929,383.531,255.517z"/>
</g>
<g>
	<path fill="#D3D3D4" d="M421.467,264.353l1.5-0.837l0.092,1.637c0.858-0.367,2.09-1.608,2.614-3.279
		c0.723-2.302,0.561-4.353,0.086-4.569c-0.475-0.216-2.205,1.065-3.502,3.106C421.346,261.845,421.242,263.462,421.467,264.353z"/>
</g>
<g>
	<path fill="#D3D3D4" d="M355.967,273.353l1.5-0.837l0.092,1.637c0.858-0.367,2.09-1.608,2.614-3.279
		c0.723-2.302,0.561-4.353,0.086-4.569c-0.475-0.216-2.205,1.065-3.502,3.106C355.846,270.845,355.742,272.462,355.967,273.353z"/>
</g>
<g>
	<g>
		<path fill="#D3D3D4" d="M366.674,289.63l-1.632,0.534l0.223-1.624c-0.913,0.197-2.359,1.179-3.193,2.719
			c-1.15,2.121-1.383,4.165-0.959,4.468c0.424,0.303,2.369-0.624,4.031-2.378C366.313,292.116,366.725,290.549,366.674,289.63z"/>
	</g>
	<g>
		<path fill="#D3D3D4" d="M369.601,299.698l-1.103-1.316l1.59-0.397c-0.522-0.774-1.972-1.752-3.711-1.953
			c-2.397-0.278-4.381,0.265-4.504,0.772c-0.124,0.507,1.46,1.967,3.708,2.857C367.16,300.288,368.768,300.088,369.601,299.698z"/>
	</g>
	<g>
		<path fill="#D3D3D4" d="M361.29,305.869l0.811-1.513l0.961,1.328c0.523-0.772,0.892-2.482,0.432-4.172
			c-0.633-2.328-1.876-3.967-2.392-3.894c-0.516,0.074-1.283,2.087-1.273,4.504C359.835,303.822,360.619,305.24,361.29,305.869z"/>
	</g>
	<g>
		<path fill="#D3D3D4" d="M352.496,299.947l1.706,0.19l-0.876,1.386c0.912,0.2,2.636-0.095,4.034-1.15
			c1.925-1.454,2.985-3.218,2.725-3.669c-0.261-0.451-2.415-0.414-4.655,0.494C353.854,297.836,352.83,299.09,352.496,299.947z"/>
	</g>
	<g>
		<path fill="#D3D3D4" d="M354.178,289.697l0.458,1.655l-1.612-0.298c0.154,0.921,1.068,2.411,2.568,3.316
			c2.065,1.246,4.096,1.574,4.418,1.165c0.322-0.411-0.514-2.396-2.189-4.137C356.644,290.173,355.098,289.689,354.178,289.697z"/>
	</g>
</g>
<g>
	<g>
		<path fill="#D3D3D4" d="M416.174,240.63l-1.632,0.534l0.223-1.624c-0.913,0.197-2.359,1.179-3.193,2.719
			c-1.15,2.121-1.383,4.165-0.959,4.468c0.424,0.303,2.369-0.624,4.031-2.378C415.813,243.116,416.225,241.549,416.174,240.63z"/>
	</g>
	<g>
		<path fill="#D3D3D4" d="M419.101,250.698l-1.103-1.316l1.59-0.397c-0.522-0.774-1.972-1.751-3.711-1.953
			c-2.397-0.278-4.381,0.265-4.504,0.772c-0.124,0.507,1.46,1.967,3.708,2.857C416.66,251.288,418.268,251.088,419.101,250.698z"/>
	</g>
	<g>
		<path fill="#D3D3D4" d="M410.79,256.869l0.811-1.513l0.961,1.328c0.523-0.772,0.892-2.482,0.432-4.172
			c-0.633-2.328-1.876-3.967-2.392-3.894c-0.516,0.074-1.283,2.087-1.273,4.504C409.335,254.822,410.119,256.24,410.79,256.869z"/>
	</g>
	<g>
		<path fill="#D3D3D4" d="M401.996,250.947l1.706,0.19l-0.876,1.386c0.912,0.2,2.636-0.095,4.034-1.15
			c1.925-1.454,2.985-3.218,2.725-3.669c-0.261-0.451-2.415-0.414-4.655,0.494C403.354,248.836,402.33,250.09,401.996,250.947z"/>
	</g>
	<g>
		<path fill="#D3D3D4" d="M403.678,240.697l0.458,1.655l-1.612-0.298c0.154,0.921,1.068,2.411,2.568,3.316
			c2.065,1.246,4.096,1.574,4.418,1.165c0.322-0.411-0.514-2.395-2.189-4.137C406.144,241.173,404.598,240.689,403.678,240.697z"/>
	</g>
</g>
<g>
	<g>
		<path fill="#D3D3D4" d="M487.174,299.63l-1.632,0.534l0.223-1.624c-0.913,0.197-2.359,1.179-3.193,2.719
			c-1.15,2.121-1.383,4.165-0.959,4.468c0.424,0.303,2.369-0.624,4.031-2.378C486.813,302.116,487.225,300.549,487.174,299.63z"/>
	</g>
	<g>
		<path fill="#D3D3D4" d="M490.101,309.698l-1.103-1.316l1.59-0.397c-0.522-0.774-1.972-1.752-3.711-1.953
			c-2.396-0.278-4.381,0.265-4.504,0.772c-0.124,0.507,1.46,1.967,3.708,2.857C487.66,310.288,489.268,310.088,490.101,309.698z"/>
	</g>
	<g>
		<path fill="#D3D3D4" d="M481.79,315.869l0.811-1.513l0.961,1.328c0.523-0.772,0.892-2.482,0.432-4.172
			c-0.633-2.328-1.876-3.967-2.392-3.894c-0.516,0.074-1.283,2.087-1.273,4.504C480.335,313.822,481.119,315.24,481.79,315.869z"/>
	</g>
	<g>
		<path fill="#D3D3D4" d="M472.996,309.947l1.706,0.19l-0.876,1.386c0.912,0.2,2.636-0.095,4.034-1.15
			c1.925-1.454,2.985-3.218,2.725-3.669c-0.261-0.451-2.415-0.414-4.655,0.494C474.354,307.836,473.33,309.09,472.996,309.947z"/>
	</g>
	<g>
		<path fill="#D3D3D4" d="M474.678,299.697l0.459,1.655l-1.612-0.298c0.154,0.921,1.068,2.411,2.568,3.316
			c2.065,1.246,4.096,1.574,4.418,1.165c0.322-0.411-0.514-2.396-2.189-4.137C477.144,300.173,475.598,299.689,474.678,299.697z"/>
	</g>
</g>
<path fill="#767676" d="M466.195,306.498c0,0,5-0.25,5.75,8.25s-0.25,20.75-0.25,20.75l-11.25,0.25
	C460.445,335.748,457.945,314.498,466.195,306.498z"/>
<path d="M466.158,305.749c-0.182,0.009-0.354,0.084-0.484,0.211c-8.419,8.164-6.077,28.993-5.973,29.876
	c0.045,0.384,0.375,0.671,0.762,0.663l11.25-0.25c0.384-0.009,0.7-0.306,0.731-0.689c0.01-0.123,0.997-12.412,0.25-20.877
	C471.888,305.568,466.391,305.737,466.158,305.749z M460.848,328.561c0-6.706,0.912-16.429,5.658-21.295
	c0.965,0.112,4.112,0.982,4.691,7.549c0.201,2.279,0.274,4.843,0.274,7.37c0,5.466-0.343,10.751-0.474,12.58
	c-1.122,0.025-8.73,0.194-9.875,0.22C461.024,333.884,460.848,331.526,460.848,328.561z"/>
<path fill="#D3D3D4" d="M451.115,356.921c0,0-1.666,6.167,8.247,5.161c5.792-0.588-0.583-4.917-0.583-4.917L451.115,356.921z"/>
<path d="M450.39,356.725c-0.025,0.095-0.611,2.348,0.923,4.155c1.438,1.693,4.171,2.349,8.123,1.948
	c0.665-0.067,2.687-0.272,3.054-1.723c0.466-1.841-2.401-3.956-3.291-4.56c-0.118-0.08-0.255-0.125-0.397-0.129l-7.664-0.244
	C450.791,356.16,450.481,356.39,450.39,356.725z M452.468,359.921c-0.582-0.678-0.712-1.467-0.712-2.036
	c0-0.078,0.01-0.124,0.014-0.193c1.091,0.035,6.365,0.203,6.756,0.215c1.382,0.978,2.52,2.219,2.52,2.754
	c0,0.027-0.003,0.052-0.009,0.076c-0.038,0.149-0.453,0.467-1.751,0.599C455.913,361.678,453.557,361.188,452.468,359.921z"/>
<path fill="#D3D3D4" d="M439.612,356.248c0,0-5.728,3.949-0.917,5c8.42,1.839,8.587-4.494,8.587-4.494L439.612,356.248z"/>
<path d="M439.186,355.63c-0.589,0.407-3.511,2.532-3.13,4.467c0.183,0.931,1.017,1.564,2.479,1.884
	c3.164,0.691,5.629,0.367,7.328-0.964c2.077-1.627,2.167-4.136,2.169-4.242c0.011-0.403-0.298-0.742-0.7-0.769l-7.67-0.506
	C439.493,355.489,439.325,355.535,439.186,355.63z M438.855,360.515c-0.777-0.169-1.273-0.434-1.327-0.708
	c-0.005-0.028-0.008-0.058-0.008-0.089c0-0.633,1.131-1.841,2.315-2.704c0.451,0.029,5.325,0.352,6.579,0.434
	c-0.164,0.67-0.555,1.671-1.492,2.398C443.592,360.879,441.551,361.105,438.855,360.515z"/>
<path fill="#FFFFFF" d="M459.03,352.462l0.498-9.297l-8,1l-0.342,8.725C453.781,353.717,456.517,353.432,459.03,352.462z"/>
<path d="M459.435,342.421l-8,1c-0.364,0.045-0.642,0.348-0.656,0.715l-0.342,8.725c-0.013,0.337,0.2,0.642,0.521,0.744
	c2.579,0.822,5.463,0.669,8.342-0.442c0.276-0.106,0.463-0.365,0.479-0.66l0.498-9.297c0.012-0.222-0.075-0.438-0.238-0.589
	S459.656,342.393,459.435,342.421z M458.731,344.021c-0.073,1.371-0.376,7.029-0.422,7.873c-2.201,0.765-4.373,0.91-6.35,0.409
	c0.039-0.982,0.253-6.462,0.293-7.472C453.195,344.712,457.45,344.181,458.731,344.021z"/>
<path fill="#FFFFFF" d="M451.186,352.89l-0.158,4.025c1.5,3,7.75,0.25,7.75,0.25l0.252-4.703
	C456.517,353.432,453.781,353.717,451.186,352.89z"/>
<path d="M458.76,351.762c-2.557,0.987-5.097,1.13-7.346,0.413c-0.223-0.071-0.466-0.034-0.658,0.1
	c-0.191,0.135-0.31,0.351-0.319,0.585l-0.158,4.025c-0.005,0.126,0.022,0.251,0.079,0.365c1.799,3.597,8.441,0.725,8.723,0.601
	c0.259-0.114,0.432-0.364,0.447-0.647l0.252-4.703c0.014-0.254-0.103-0.498-0.309-0.647
	C459.265,351.706,458.997,351.671,458.76,351.762z M458.225,353.474c-0.059,1.101-0.139,2.584-0.17,3.168
	c-1.673,0.656-5.262,1.646-6.268,0.051c0.013-0.336,0.074-1.869,0.113-2.869C453.902,354.271,456.051,354.133,458.225,353.474z"/>
<path fill="#FFFFFF" d="M447.112,352.487v-8.989l-8-1.75l0.335,9.717C441.818,352.633,444.525,352.993,447.112,352.487z"/>
<path d="M438.631,341.172c-0.178,0.148-0.277,0.371-0.269,0.602l0.335,9.717c0.009,0.276,0.17,0.525,0.418,0.647
	c2.51,1.236,5.4,1.622,8.141,1.085c0.352-0.069,0.606-0.377,0.606-0.736v-8.989c0-0.353-0.246-0.657-0.59-0.732l-8-1.75
	C439.046,340.966,438.808,341.025,438.631,341.172z M439.894,342.687c1.345,0.294,5.584,1.222,6.467,1.415c0,0.966,0,6.633,0,7.707
	c-2.093,0.292-4.247,0.014-6.182-0.848C440.153,350.189,439.946,344.167,439.894,342.687z"/>
<path fill="#FFFFFF" d="M439.447,351.465l0.165,4.783c0,0,5.25,2.75,7.5,0.5v-4.261
	C444.525,352.993,441.818,352.633,439.447,351.465z"/>
<path d="M439.039,350.835c-0.221,0.143-0.352,0.392-0.342,0.656l0.165,4.783c0.009,0.27,0.163,0.513,0.401,0.639
	c0.234,0.123,5.769,2.976,8.378,0.366c0.141-0.141,0.22-0.332,0.22-0.53v-4.261c0-0.224-0.1-0.437-0.273-0.579
	c-0.173-0.143-0.401-0.2-0.621-0.157c-2.42,0.474-4.973,0.133-7.189-0.959C439.541,350.675,439.261,350.692,439.039,350.835z
	 M440.237,352.611c1.949,0.738,4.059,0.951,6.125,0.698c0,0.958,0,2.598,0,3.076c-1.504,1.119-4.545,0.071-6.016-0.623
	C440.326,355.215,440.277,353.777,440.237,352.611z M447.256,353.223c-0.048,0.01-0.096,0.014-0.144,0.014
	C447.159,353.228,447.208,353.232,447.256,353.223z"/>
<polygon fill="#9FA0A0" points="437.553,343.797 436.72,327.11 461.637,327.241 461.47,343.796 "/>
<path d="M436.178,326.591c-0.143,0.149-0.217,0.35-0.207,0.556l0.833,16.688c0.02,0.399,0.35,0.712,0.749,0.712l23.917-0.002
	c0.411,0,0.746-0.331,0.75-0.742l0.167-16.556c0.002-0.199-0.076-0.392-0.216-0.534c-0.14-0.142-0.331-0.223-0.53-0.224
	l-24.917-0.131C436.517,326.359,436.32,326.442,436.178,326.591z M437.508,327.864c1.439,0.007,22,0.115,23.371,0.123
	c-0.013,1.309-0.139,13.769-0.152,15.059c-1.351,0-21.161,0.002-22.461,0.002C438.204,341.806,437.576,329.236,437.508,327.864z"/>
<path d="M448.284,332.046l-0.046,11.337c-0.001,0.414,0.332,0.751,0.747,0.753c0.414,0.001,0.751-0.332,0.753-0.747l0.046-11.337
	c0.001-0.414-0.333-0.751-0.747-0.753C448.623,331.297,448.285,331.632,448.284,332.046z"/>
<path fill="#9FA0A0" d="M434.945,312.748c0,0-5.75,10.25-0.25,12.25s3.75-10.25,3.75-10.25L434.945,312.748z"/>
<path d="M434.745,312.025c-0.193,0.053-0.356,0.181-0.454,0.356c-0.157,0.281-3.839,6.919-2.381,10.845
	c0.443,1.194,1.294,2.028,2.529,2.477c1.551,0.563,2.57,0.119,3.152-0.354c2.723-2.211,1.72-9.845,1.597-10.707
	c-0.033-0.229-0.169-0.43-0.371-0.545l-3.5-2C435.144,311.998,434.938,311.972,434.745,312.025z M434.951,324.293
	c-0.813-0.295-1.348-0.815-1.636-1.588c-0.174-0.47-0.25-1.012-0.25-1.596c0-2.434,1.308-5.596,2.18-7.326
	c0.775,0.443,2.064,1.18,2.494,1.425c0.128,1.014,0.223,2.213,0.223,3.438c0,2.371-0.328,4.735-1.318,5.538
	C436.381,324.4,435.917,324.645,434.951,324.293z"/>
<polygon fill="#767676" points="436.195,308.748 437.782,304.254 442.195,306.248 439.195,314.248 "/>
<path d="M437.487,303.565c-0.193,0.082-0.343,0.242-0.413,0.44l-1.586,4.494c-0.071,0.201-0.053,0.422,0.049,0.609l3,5.5
	c0.14,0.257,0.418,0.409,0.711,0.389c0.293-0.021,0.546-0.21,0.649-0.485l3-8c0.139-0.37-0.033-0.784-0.394-0.947l-4.414-1.994
	C437.899,303.484,437.68,303.482,437.487,303.565z M438.217,305.274c0.849,0.384,2.278,1.029,3.029,1.368
	c-0.329,0.876-1.502,4.006-2.178,5.807c-0.794-1.456-1.847-3.387-2.055-3.767C437.171,308.238,437.875,306.242,438.217,305.274z"/>
<g>
	<path fill="#9FA0A0" d="M449.961,333.998l15.234,0.5c0,0-3.047-8.75-4.219-28.75l-19.913,0.654c0,0-0.097,0.035-0.156,0.191
		c-1.962,5.154-4.712,10.904-6.712,25.904l10.176,0.888l2.777-3.888L449.961,333.998z"/>
	<path d="M460.952,304.999l-19.913,0.654c-0.196,0.006-0.096-0.097-0.232,0.045l-0.601,0.629l-0.686,1.763
		c-1.908,4.857-4.282,10.902-6.069,24.309c-0.027,0.203,0.03,0.408,0.158,0.568c0.128,0.16,0.316,0.26,0.52,0.278l10.176,0.888
		c0.265,0.023,0.521-0.095,0.676-0.311c0,0,1.362-1.906,2.126-2.975c0.739,1.183,2.218,3.549,2.218,3.549
		c0.133,0.212,0.362,0.344,0.612,0.352l15.234,0.5c0.247,0.008,0.482-0.106,0.628-0.305c0.146-0.199,0.186-0.457,0.104-0.69
		c-0.03-0.087-3.028-8.918-4.179-28.548C461.701,305.298,461.358,304.985,460.952,304.999z M441.261,307.146
		c-0.038,0.021-0.05,0.002-0.173,0.006C441.088,307.152,441.258,307.147,441.261,307.146z M460.276,306.522
		c0.977,15.826,3.086,24.404,3.892,27.192c-1.771-0.058-13.08-0.429-13.783-0.452c-0.362-0.58-2.601-4.161-2.601-4.161
		c-0.132-0.212-0.362-0.344-0.613-0.352c-0.25-0.008-0.488,0.11-0.633,0.314c0,0-2.116,2.962-2.528,3.54
		c-0.72-0.063-7.682-0.67-8.961-0.782c1.75-12.671,4.029-18.497,5.869-23.181c0,0,0.429-1.104,0.583-1.5
		C442.261,307.113,458.959,306.565,460.276,306.522z"/>
</g>
<path fill="#767676" d="M460.695,306.248c0,0-6.75,8.5,0.5,18.25c0,0-1.5-14.25,6.5-17
	C467.695,307.498,465.945,305.748,460.695,306.248z"/>
<path d="M460.624,305.502c-0.203,0.019-0.389,0.12-0.516,0.28c-0.071,0.089-7.021,9.068,0.485,19.164
	c0.202,0.271,0.56,0.374,0.875,0.251c0.315-0.123,0.509-0.441,0.474-0.777c-0.015-0.137-1.343-13.69,5.998-16.213
	c0.245-0.084,0.429-0.288,0.487-0.54c0.058-0.252-0.019-0.517-0.201-0.699C468.021,306.763,466.069,304.983,460.624,305.502z
	 M466.04,307.445c-4.961,2.838-5.711,10.188-5.714,14.289c-1.292-2.42-1.756-4.705-1.756-6.727c0-4.119,1.895-7.142,2.52-8.028
	C463.518,306.789,465.107,307.104,466.04,307.445z"/>
<path fill="#9FA0A0" d="M460.195,315.498c0,0,0.25,14.75,5.75,11.75s0.25-13.75,0.25-13.75L460.195,315.498z"/>
<path d="M465.958,312.787l-6,2c-0.311,0.104-0.518,0.396-0.513,0.724c0.018,1.07,0.276,10.516,3.689,12.503
	c0.656,0.382,1.739,0.673,3.17-0.107c6.06-3.305,0.792-14.272,0.564-14.737C466.704,312.831,466.315,312.668,465.958,312.787z
	 M465.789,314.424c0.578,1.329,1.928,4.747,1.928,7.735c0,1.871-0.535,3.56-2.131,4.431c-0.887,0.483-1.393,0.304-1.697,0.127
	c-1.932-1.125-2.791-6.926-2.921-10.686C461.751,315.77,464.866,314.732,465.789,314.424z"/>
<path fill="#FFFFFF" d="M442.195,304.082c0,0-3.75,5.666,2.25,6.666s4-5.25,4-5.25s0.166,7.5,6.5,6.5c6.333-1,4.25-7.5,4.25-7.5
	L442.195,304.082z"/>
<path d="M441.57,303.668c-0.082,0.124-2.002,3.071-0.98,5.419c0.554,1.273,1.81,2.081,3.732,2.401
	c1.967,0.328,3.415-0.027,4.302-1.052c0.124-0.144,0.216-0.305,0.311-0.464c0.344,0.598,0.773,1.17,1.338,1.643
	c1.256,1.049,2.867,1.427,4.79,1.124c2.026-0.32,3.492-1.194,4.357-2.6c1.542-2.503,0.534-5.734,0.49-5.87
	c-0.098-0.304-0.377-0.513-0.696-0.521l-17-0.417C441.955,303.326,441.712,303.452,441.57,303.668z M444.568,310.008
	c-1.388-0.231-2.263-0.742-2.603-1.517c-0.125-0.285-0.176-0.602-0.176-0.93c0-1.002,0.474-2.079,0.832-2.719
	c0.271,0.007,2.937,0.072,5.324,0.13c-0.146,0.138-0.25,0.313-0.25,0.525c0,0.006,0,0.011,0,0.017
	c0.002,0.077,0.038,0.984,0.319,2.127c-0.002,0.673-0.13,1.358-0.527,1.816C446.965,310.059,445.983,310.244,444.568,310.008z
	 M449.16,305.27c-0.036-0.113-0.119-0.191-0.197-0.272c4.624,0.113,9.011,0.221,9.64,0.236c0.081,0.384,0.169,0.94,0.169,1.59
	c0,0.816-0.144,1.743-0.634,2.535c-0.626,1.012-1.74,1.65-3.311,1.898c-1.473,0.233-2.681-0.034-3.589-0.79
	c-0.96-0.8-1.469-2.024-1.74-3.06C449.463,306.279,449.182,305.341,449.16,305.27z"/>
<path fill="#D3D3D4" d="M424.362,285.915c0,0-1.5,2.25,7,2s43,4,44.5,2C475.862,289.915,453.362,262.415,424.362,285.915z"/>
<path d="M423.818,285.244c-0.067,0.055-0.126,0.12-0.175,0.192c-0.239,0.359-0.394,1.003-0.041,1.639
	c0.452,0.816,1.751,1.881,7.785,1.704c3.356-0.099,10.876,0.519,18.838,1.172c19.172,1.573,25.305,1.845,26.327,0.483
	c0.238-0.318,0.229-0.758-0.022-1.065c-0.235-0.288-5.867-7.085-15.205-11.06C452.667,274.622,439.132,272.834,423.818,285.244z
	 M460.59,279.872c6.952,2.945,11.856,7.637,13.74,9.633c-3.535,0.398-15.18-0.556-23.963-1.277
	c-8.011-0.658-15.578-1.279-19.031-1.177c-4.527,0.133-5.784-0.465-6.109-0.71C436.864,277.047,448.76,274.861,460.59,279.872z"/>
<path fill="#FFFFFF" d="M469.371,291.38c0,0,3.333-1.185,3.333,2.539c0,3.723-3.833,3.216-3.833,3.216s-3.423,12.787-21.757,10.453
	c-7.923-0.196-14.333-3.666-14.743-10.793c0,0-4.167,0.508-4.5-3.214c-0.333-3.723,3.833-2.708,3.833-2.708
	s-0.999-12.184,9.834-15.06C452.371,272.935,466.704,276.32,469.371,291.38z"/>
<path d="M441.346,275.088c-9.528,2.53-10.381,11.939-10.408,14.921c-0.822-0.056-2,0.023-2.858,0.762
	c-0.65,0.559-0.978,1.364-0.978,2.397c0,0.155,0.007,0.315,0.022,0.48c0.11,1.234,0.595,2.207,1.441,2.891
	c1.03,0.833,2.327,1.001,3.137,1.021c0.759,6.439,6.556,10.547,15.356,10.777c16.481,2.081,21.376-7.909,22.339-10.433
	c0.722-0.009,1.925-0.157,2.85-0.968c0.801-0.702,1.207-1.717,1.207-3.016c0-1.389-0.415-2.386-1.233-2.963
	c-0.757-0.534-1.646-0.553-2.282-0.468c-1.176-5.622-4.101-10.083-8.53-12.909C455.991,274.121,448.49,273.19,441.346,275.088z
	 M432.191,291.441c0.183-0.156,0.28-0.39,0.261-0.629c-0.038-0.472-0.808-11.596,9.279-14.274c6.746-1.792,13.801-0.93,18.872,2.305
	c4.329,2.762,7.031,7.024,8.03,12.668c0.038,0.216,0.17,0.404,0.36,0.515c0.189,0.111,0.419,0.134,0.626,0.062
	c0.301-0.104,1.201-0.289,1.741,0.096c0.395,0.281,0.594,0.865,0.594,1.735c0,0.845-0.232,1.479-0.69,1.883
	c-0.857,0.758-2.283,0.591-2.297,0.589c-0.37-0.046-0.721,0.188-0.819,0.548c-0.135,0.496-3.513,12.123-20.938,9.905
	c-0.025-0.003-0.051-0.005-0.076-0.006c-8.423-0.209-13.662-3.979-14.013-10.086c-0.012-0.206-0.109-0.398-0.267-0.531
	c-0.158-0.133-0.365-0.195-0.57-0.171c-0.017,0.002-1.712,0.186-2.78-0.683c-0.522-0.425-0.811-1.031-0.884-1.854
	c-0.067-0.755,0.08-1.294,0.438-1.604c0.667-0.577,2.011-0.418,2.472-0.308C431.763,291.657,432.009,291.598,432.191,291.441z"/>
<path d="M449.121,295.78v1.015c0,0.414,0.336,0.75,0.75,0.75c0.414,0,0.75-0.336,0.75-0.75v-1.015c0-0.414-0.336-0.75-0.75-0.75
	C449.457,295.03,449.121,295.366,449.121,295.78z"/>
<path d="M437.095,287.994l-0.051,0.033c-0.35,0.222-0.454,0.685-0.232,1.035c0.222,0.35,0.685,0.454,1.035,0.232l0.052-0.033
	c1.293-0.82,1.428-0.906,2.787-0.404c0.389,0.143,0.82-0.056,0.963-0.444c0.144-0.388-0.056-0.82-0.444-0.963
	C439.249,286.727,438.621,287.025,437.095,287.994z"/>
<path d="M455.404,288.738c-0.285,0.301-0.273,0.775,0.027,1.061c0.3,0.285,0.775,0.273,1.061-0.027
	c0.899-0.947,3.315-0.017,4.65,1.066c0.321,0.261,0.794,0.212,1.055-0.11c0.261-0.322,0.211-0.794-0.11-1.055
	C460.311,288.232,457.064,286.99,455.404,288.738z"/>
<ellipse fill="#FFFFFF" cx="462.945" cy="313.498" rx="3.25" ry="4.25"/>
<path d="M458.945,313.498c0,2.757,1.794,5,4,5c2.206,0,4-2.243,4-5c0-2.757-1.794-5-4-5
	C460.74,308.498,458.945,310.741,458.945,313.498z M460.445,313.498c0-1.93,1.122-3.5,2.5-3.5c1.378,0,2.5,1.57,2.5,3.5
	c0,1.93-1.122,3.5-2.5,3.5C461.567,316.998,460.445,315.428,460.445,313.498z"/>
<ellipse fill="#FFFFFF" cx="436.195" cy="312.998" rx="3.25" ry="4.25"/>
<path d="M432.195,312.998c0,2.757,1.794,5,4,5c2.206,0,4-2.243,4-5c0-2.757-1.794-5-4-5
	C433.99,307.998,432.195,310.241,432.195,312.998z M433.695,312.998c0-1.93,1.122-3.5,2.5-3.5c1.378,0,2.5,1.57,2.5,3.5
	c0,1.93-1.122,3.5-2.5,3.5C434.817,316.498,433.695,314.928,433.695,312.998z"/>
<circle fill="#9FA0A0" cx="447.695" cy="324.498" r="1.768"/>
<path d="M445.178,324.498c0,1.388,1.129,2.518,2.518,2.518c1.388,0,2.518-1.129,2.518-2.518c0-1.388-1.129-2.518-2.518-2.518
	C446.307,321.981,445.178,323.11,445.178,324.498z M446.678,324.498c0-0.561,0.457-1.018,1.018-1.018
	c0.561,0,1.018,0.457,1.018,1.018c0,0.561-0.457,1.018-1.018,1.018C447.134,325.516,446.678,325.059,446.678,324.498z"/>
<circle fill="#9FA0A0" cx="447.945" cy="316.498" r="1.768"/>
<path d="M445.428,316.498c0,1.388,1.129,2.518,2.518,2.518c1.388,0,2.518-1.129,2.518-2.518c0-1.388-1.129-2.518-2.518-2.518
	C446.557,313.981,445.428,315.11,445.428,316.498z M446.928,316.498c0-0.561,0.457-1.018,1.018-1.018
	c0.561,0,1.018,0.457,1.018,1.018c0,0.561-0.457,1.018-1.018,1.018C447.384,317.516,446.928,317.059,446.928,316.498z"/>
<g>
	<path fill="#FFFFFF" d="M457.305,312.624c-0.582,1.313-1.296,2.377-1.596,2.377c-0.301,0-1.03-1.064-1.63-2.377
		c-0.601-1.313,0.114-2.376,1.596-2.376S457.887,311.312,457.305,312.624z"/>
	<path d="M453.451,310.561c-0.423,0.659-0.442,1.525-0.053,2.375c0.853,1.868,1.631,2.815,2.312,2.815
		c0.684,0,1.451-0.95,2.281-2.823v0c0.375-0.848,0.346-1.711-0.081-2.366c-0.44-0.676-1.254-1.064-2.235-1.064
		C454.696,309.498,453.885,309.885,453.451,310.561z M454.762,312.313c-0.097-0.211-0.145-0.408-0.145-0.579
		c0-0.139,0.032-0.262,0.096-0.362c0.153-0.238,0.503-0.374,0.962-0.374c0.463,0,0.82,0.139,0.978,0.382
		c0.068,0.105,0.103,0.233,0.103,0.378c0,0.168-0.045,0.359-0.136,0.563c-0.345,0.779-0.677,1.331-0.915,1.665
		C455.462,313.651,455.12,313.096,454.762,312.313z"/>
	<path fill="#FFFFFF" d="M454.091,317.039c0.582-1.313,1.296-2.377,1.596-2.377c0.301,0,1.03,1.064,1.63,2.377
		c0.601,1.313-0.114,2.376-1.596,2.376S453.51,318.351,454.091,317.039z"/>
	<path d="M453.405,316.735L453.405,316.735c-0.376,0.848-0.346,1.711,0.081,2.367c0.44,0.676,1.254,1.063,2.235,1.063
		c0.98,0,1.791-0.388,2.225-1.063c0.423-0.659,0.442-1.524,0.053-2.375c-0.853-1.868-1.631-2.815-2.312-2.815
		C455.003,313.912,454.235,314.861,453.405,316.735z M455.691,315.677c0.243,0.335,0.585,0.889,0.943,1.673
		c0.097,0.211,0.145,0.408,0.145,0.579c0,0.139-0.032,0.262-0.096,0.362c-0.153,0.238-0.503,0.374-0.962,0.374
		c-0.463,0-0.82-0.139-0.978-0.382c-0.068-0.105-0.103-0.233-0.103-0.378c0-0.168,0.045-0.358,0.136-0.563
		C455.121,316.564,455.453,316.011,455.691,315.677z"/>
	<path fill="#FFFFFF" d="M458.018,316.439c-1.313-0.582-2.377-1.296-2.377-1.596c0-0.3,1.064-1.029,2.377-1.629
		s2.376,0.114,2.376,1.596C460.394,316.29,459.331,317.02,458.018,316.439z"/>
	<path d="M457.706,312.531c-1.868,0.854-2.815,1.632-2.815,2.311c0,0.684,0.95,1.452,2.823,2.282v0.001
		c0.848,0.375,1.71,0.346,2.366-0.081c0.676-0.44,1.064-1.254,1.064-2.235c0-0.98-0.387-1.79-1.063-2.224
		C459.423,312.161,458.557,312.142,457.706,312.531z M458.33,313.895c0.383-0.175,0.717-0.192,0.94-0.048
		c0.237,0.152,0.374,0.503,0.374,0.962c0,0.463-0.139,0.82-0.382,0.978c-0.226,0.147-0.56,0.135-0.94-0.033
		c-0.778-0.345-1.331-0.677-1.665-0.915C456.992,314.595,457.546,314.253,458.33,313.895z"/>
	<path fill="#FFFFFF" d="M453.038,313.111c1.313,0.582,2.377,1.296,2.377,1.596c0,0.3-1.064,1.03-2.377,1.63
		s-2.377-0.114-2.377-1.596S451.725,312.529,453.038,313.111z"/>
	<path d="M450.975,312.506c-0.676,0.44-1.064,1.255-1.064,2.235c0,0.979,0.388,1.79,1.063,2.224
		c0.659,0.423,1.525,0.443,2.376,0.054c1.868-0.854,2.815-1.632,2.815-2.312c0-0.684-0.95-1.451-2.823-2.282
		C452.494,312.049,451.631,312.079,450.975,312.506z M451.785,315.703c-0.237-0.152-0.374-0.503-0.374-0.962
		c0-0.463,0.139-0.82,0.382-0.978c0.226-0.147,0.56-0.135,0.941,0.034c0.778,0.345,1.331,0.677,1.665,0.915
		c-0.334,0.243-0.889,0.585-1.673,0.943C452.343,315.83,452.009,315.847,451.785,315.703z"/>
	<circle fill="#FFFFFF" cx="455.641" cy="314.888" r="1.585"/>
	<path d="M453.306,314.888c0,1.287,1.047,2.334,2.335,2.334s2.335-1.047,2.335-2.334c0-1.287-1.047-2.334-2.335-2.334
		S453.306,313.601,453.306,314.888z M454.806,314.888c0-0.46,0.375-0.834,0.835-0.834s0.835,0.375,0.835,0.834
		c0,0.46-0.375,0.834-0.835,0.834S454.806,315.348,454.806,314.888z"/>
</g>
<path d="M437.272,293.831c-0.237,0.338-0.155,0.803,0.183,1.042c0.337,0.238,0.805,0.157,1.044-0.179
	c0.224-0.314,0.975-1.127,1.756-1.115c0.556,0.008,1.119,0.434,1.674,1.266c0.23,0.345,0.695,0.438,1.04,0.208
	c0.345-0.23,0.438-0.696,0.208-1.04c-0.848-1.271-1.826-1.922-2.909-1.934C438.533,292.058,437.322,293.758,437.272,293.831z"/>
<path d="M456.429,294.511c-0.23,0.344-0.137,0.81,0.208,1.04c0.345,0.23,0.81,0.137,1.04-0.208c0.456-0.684,0.906-1.02,1.338-0.999
	c0.895,0.042,1.843,1.443,2.105,1.931c0.196,0.365,0.65,0.502,1.015,0.307c0.365-0.195,0.503-0.648,0.309-1.013
	c-0.144-0.269-1.454-2.629-3.353-2.722C458.094,292.797,457.199,293.357,456.429,294.511z"/>
<path d="M453.386,266.736c-0.099,0.401,0.146,0.806,0.546,0.908c0.275,0.069,6.76,1.83,7.934,13.099
	c0.043,0.412,0.412,0.711,0.824,0.668c0.412-0.043,0.711-0.412,0.668-0.824c-1.29-12.385-8.753-14.325-9.07-14.401
	C453.887,266.089,453.484,266.335,453.386,266.736z"/>
<path d="M430.615,285.338c0,0-1,0.5,0.5,5.25l3.75-6.5l1.25,3.5l4-4C440.115,283.588,434.365,283.338,430.615,285.338z"/>
<path d="M430.276,284.669c-0.393,0.199-0.738,0.698-0.738,1.841c0,0.938,0.232,2.31,0.862,4.303c0.09,0.284,0.338,0.488,0.634,0.52
	c0.296,0.032,0.583-0.113,0.731-0.371c0,0,1.944-3.369,2.94-5.095c0.346,0.97,0.704,1.973,0.704,1.973
	c0.087,0.242,0.291,0.423,0.542,0.479c0.251,0.056,0.512-0.02,0.695-0.201l4-4c0.21-0.21,0.276-0.525,0.168-0.802
	c-0.107-0.277-0.369-0.464-0.666-0.477C439.904,282.828,434.161,282.605,430.276,284.669z M433.436,285.062
	c-0.683,1.184-1.321,2.29-2.076,3.598c-0.241-1.017-0.32-1.712-0.32-2.135c0-0.331,0.039-0.503,0.065-0.589
	C431.826,285.568,432.62,285.282,433.436,285.062z M438.28,284.361c-0.816,0.816-1.242,1.242-1.858,1.858
	c-0.254-0.711-0.388-1.088-0.584-1.637C436.748,284.456,437.582,284.393,438.28,284.361z M430.262,284.676
	c0.004-0.002,0.01-0.004,0.014-0.006c0.001,0,0.002-0.002,0.003-0.003C430.273,284.67,430.267,284.673,430.262,284.676z"/>
<path d="M451.365,283.338l2.75,4.5l1-4l4.5,3.417l1-2.167l3.75,4.75l1.5-3l2.917,5.417l1.583-4.167
	C470.365,288.088,459.615,282.088,451.365,283.338z"/>
<path d="M451.252,282.596c-0.249,0.038-0.461,0.197-0.567,0.425c-0.106,0.228-0.091,0.493,0.04,0.708l2.75,4.5
	c0.158,0.258,0.455,0.396,0.753,0.35c0.299-0.046,0.541-0.266,0.614-0.56c0,0,0.435-1.74,0.724-2.897
	c1.156,0.877,3.595,2.729,3.595,2.729c0.181,0.137,0.415,0.185,0.635,0.13c0.22-0.055,0.404-0.207,0.499-0.414
	c0,0,0.244-0.529,0.488-1.057c0.964,1.222,2.992,3.791,2.992,3.791c0.159,0.201,0.41,0.307,0.665,0.281
	c0.255-0.026,0.479-0.181,0.594-0.411c0,0,0.435-0.87,0.854-1.708c0.802,1.49,2.232,4.145,2.232,4.145
	c0.139,0.258,0.416,0.412,0.709,0.393c0.293-0.019,0.548-0.208,0.652-0.482l1.583-4.167c0.132-0.348-0.011-0.74-0.335-0.921
	C470.282,287.183,459.66,281.322,451.252,282.596z M454.316,283.938c-0.065,0.26-0.252,1.008-0.495,1.981
	c-0.527-0.863-0.755-1.236-1.175-1.924C453.198,283.958,453.749,283.921,454.316,283.938z M456.766,284.15
	c1.066,0.153,2.125,0.376,3.16,0.641c-0.01,0.021-0.315,0.682-0.601,1.302C458.619,285.557,457.766,284.909,456.766,284.15z
	 M461.74,285.303c1.237,0.382,2.398,0.803,3.444,1.22c-0.013,0.026-0.523,1.046-0.962,1.924
	C463.442,287.459,462.348,286.073,461.74,285.303z M466.944,287.26c1.106,0.49,1.962,0.913,2.483,1.181
	c-0.193,0.51-0.408,1.076-0.764,2.012C467.991,289.204,467.367,288.046,466.944,287.26z"/>
<path fill="#D3D3D4" d="M428.665,281.679c0,0,1.536-12.999,17.946-15.014c16.411-2.016,25.24,8.393,25.528,17.317L428.665,281.679z"
	/>
<path d="M446.506,265.808c-16.888,2.073-18.683,15.633-18.699,15.77c-0.028,0.237,0.043,0.475,0.197,0.658
	c0.154,0.183,0.376,0.293,0.615,0.306l43.475,2.304c0.242,0.013,0.478-0.076,0.65-0.246c0.173-0.169,0.267-0.403,0.259-0.645
	c-0.156-4.83-2.555-9.577-6.581-13.025C462.896,267.91,456.579,264.57,446.506,265.808z M446.717,267.522
	c9.448-1.16,15.319,1.926,18.582,4.719c3.341,2.861,5.481,6.849,5.891,10.826c-1.857-0.098-39.644-2.101-41.489-2.199
	C430.373,277.984,433.493,269.146,446.717,267.522z"/>
<path fill="#D3D3D4" d="M424.362,285.915l4.833-5.167c0,0,22.167-6.333,42.945,3.234l4.055,6.099c0,0-14.083-7.416-27.583-7.166
	C431.697,283.228,427.695,284.915,424.362,285.915z"/>
<path d="M428.957,279.918c-0.15,0.043-0.287,0.126-0.394,0.24l-4.833,5.167c-0.268,0.286-0.312,0.717-0.104,1.049
	c0.208,0.332,0.609,0.484,0.983,0.369l0.842-0.259c3.275-1.021,7.76-2.419,23.176-2.705c13.114-0.243,27.025,6.994,27.165,7.067
	c0.349,0.184,0.779,0.107,1.043-0.186c0.265-0.293,0.297-0.728,0.078-1.057l-4.055-6.099c-0.088-0.133-0.212-0.239-0.358-0.306
	C451.673,273.607,429.182,279.854,428.957,279.918z M471.565,284.677c0.149,0.225,1.114,1.675,2.18,3.28
	c-4.83-2.158-15.061-6.093-25.149-5.906c-12.559,0.233-18.013,1.205-21.423,2.123c1.23-1.315,2.316-2.476,2.484-2.655
	C431.926,280.927,452.441,275.978,471.565,284.677z"/>
<path d="M450.738,265.675c-0.095,0.016-9.547,1.711-11.366,12.364c-0.07,0.408,0.205,0.796,0.613,0.865
	c0.409,0.07,0.796-0.205,0.866-0.613c1.635-9.577,9.789-11.078,10.136-11.137c0.408-0.07,0.683-0.456,0.614-0.864
	C451.532,265.882,451.146,265.607,450.738,265.675z"/>
<path d="M456.039,300.662c-6.299,3.033-11.515,0.294-11.567,0.267c-0.364-0.196-0.819-0.061-1.016,0.302
	c-0.197,0.364-0.063,0.817,0.299,1.016c0.239,0.13,5.918,3.145,12.935-0.233c0.374-0.18,0.53-0.628,0.351-1.001
	C456.861,300.639,456.412,300.482,456.039,300.662z"/>
<path d="M455.118,266.907c-0.192,0.366-0.05,0.82,0.316,1.012c0.295,0.155,7.22,3.892,6.601,11.945
	c-0.032,0.413,0.277,0.773,0.69,0.805c0.413,0.032,0.773-0.277,0.805-0.69c0.697-9.056-7.319-13.347-7.4-13.389
	C455.762,266.398,455.31,266.54,455.118,266.907z"/>
<path d="M471.619,312.925l-4.75,0.5c-0.412,0.044-0.71,0.413-0.668,0.825c0.043,0.412,0.413,0.71,0.825,0.667l4.75-0.5
	c0.412-0.043,0.71-0.413,0.668-0.825C472.401,313.18,472.032,312.882,471.619,312.925z"/>
<path d="M471.645,316.173l-3.5,0.25c-0.414,0.029-0.725,0.388-0.695,0.801c0.029,0.414,0.388,0.725,0.801,0.695l3.5-0.25
	c0.414-0.029,0.725-0.388,0.695-0.801C472.417,316.454,472.058,316.143,471.645,316.173z"/>
</svg>
