<?xml version="1.0" encoding="utf-8"?>
<!-- Generator: Adobe Illustrator 17.1.0, SVG Export Plug-In . SVG Version: 6.00 Build 0)  -->
<!DOCTYPE svg PUBLIC "-//W3C//DTD SVG 1.1//EN" "http://www.w3.org/Graphics/SVG/1.1/DTD/svg11.dtd">
<svg version="1.1" id="Ebene_1" xmlns="http://www.w3.org/2000/svg" xmlns:xlink="http://www.w3.org/1999/xlink" x="0px" y="0px"
	 width="100px" height="100px" viewBox="0 0 100 100" enable-background="new 0 0 100 100" xml:space="preserve">
<circle fill="#B2B2B2" cx="50" cy="50" r="50"/>
<path fill="#FFFFFF" stroke="#000000" stroke-width="3" stroke-miterlimit="10" d="M16.8,57.3c4.9,0,9.9,0,14.8,0c0.3,0,4.7,0,4.7,0
	c0,1.6,0,3.2,0,4.8c0,6,0,11.9,0,17.9c0,0.7,0,1.4,0,2.1c0,0.3-0.2,0.2-0.6,0.2c-2.5,0-5,0-7.5,0c-3,0-6.1,0-9.1,0
	c-0.7,0-1.5,0-2.2,0c-0.3,0-0.1-0.4-0.1-0.6c0-5.5,0-11,0-16.5C16.8,62.5,16.8,59.9,16.8,57.3z"/>
<path fill="#FFFFFF" stroke="#000000" stroke-width="3" stroke-miterlimit="10" d="M12.2,51.9c9.9,0,19.8,0,29.7,0
	c0.7,0,1.4,0,2.1,0c0.4,0,0.5-0.1,0.5,0.4c0,2.6,0,5.2,0,7.8c0,0.2-10.4,0.1-11.2,0.1c-6,0-12,0-18,0c-0.3,0-3.1,0.1-3.1-0.1
	c0-2.6,0-5.2,0-7.8C12.2,52.1,12.2,52,12.2,51.9z"/>
<path fill="none" stroke="#000000" stroke-width="3" stroke-miterlimit="10" d="M24.5,50.7c1.8,0,3.6,0,5.3,0"/>
<path fill="none" stroke="#000000" stroke-width="3" stroke-miterlimit="10" d="M26.5,50.7c0-1.4,0-2.8,0-4.2c0-0.8,0-1.6,0-2.4
	c0-0.3,0-0.4,0.2-0.6c1.3-1.1,2.6-2.2,4-3.2c1.3-1,3.3-2.5,5-2.4"/>
<path d="M35.9,35c3,0,3,5.3,0,5.3C32.9,40.4,32.9,35,35.9,35z"/>
<path fill="#B5B5B6" stroke="#000000" stroke-miterlimit="10" d="M78.2,69.5c0.1-0.1,0.2-0.2,0.3-0.3c0,1.1,0,2.2-0.1,3.3
	c0,0.9,0,2-0.4,2.9c-0.1,0.4-0.3,1.3-0.6,1.5c-0.5,0.4-1,0.8-1.6,1.2c-0.7,0.5-1.9,0.8-2.8,0.8c-0.4,0-1.2,0.2-1.6,0
	c-0.3-0.2-1.3-0.4-1.5-0.7c-0.2-0.4-0.6-0.9-0.6-1.4c-0.1-0.6-0.1-1.2-0.2-1.9c-0.1-1.1-0.1-2.1-0.4-3.2c-0.3-1-2-0.7-2.6-0.1
	c-0.7,0.7-0.8,2.3-0.9,3.2c-0.2,1.1-0.5,2-1,2.9c-0.9,1.7-3.7,2.6-5.5,1.7c-2.1-1.1-1.6-3.9-1.6-5.8c0-0.8,0-2.3,0.8-2.9
	c1-0.8,1.8-1.4,2.9-1.9c1.4-0.7,2.8-1.2,4.4-1.5c1.6-0.3,3.2-0.3,4.8-0.3c1.2,0,3.1-0.2,4.2,0.4c0.7,0.4,1.4,0.8,2.1,1.3
	C76.8,69.2,77.7,70.1,78.2,69.5z"/>
<path fill="none" stroke="#000000" stroke-width="3" stroke-miterlimit="2.6131" d="M78.2,69.5c0.1-0.1,0.2-0.2,0.3-0.3
	c0,1.1,0,2.2-0.1,3.3c0,0.9,0,2-0.4,2.9c-0.1,0.4-0.3,1.3-0.6,1.5c-0.5,0.4-1,0.8-1.6,1.2c-0.7,0.5-1.9,0.8-2.8,0.8
	c-0.4,0-1.2,0.2-1.6,0c-0.3-0.2-1.3-0.4-1.5-0.7c-0.2-0.4-0.6-0.9-0.6-1.4c-0.1-0.6-0.1-1.2-0.2-1.9c-0.1-1.1-0.1-2.1-0.4-3.2
	c-0.3-1-2-0.7-2.6-0.1c-0.7,0.7-0.8,2.3-0.9,3.2c-0.2,1.1-0.5,2-1,2.9c-0.9,1.7-3.7,2.6-5.5,1.7c-2.1-1.1-1.6-3.9-1.6-5.8
	c0-0.8,0-2.3,0.8-2.9c1-0.8,1.8-1.4,2.9-1.9c1.4-0.7,2.8-1.2,4.4-1.5c1.6-0.3,3.2-0.3,4.8-0.3c1.2,0,3.1-0.2,4.2,0.4
	c0.7,0.4,1.4,0.8,2.1,1.3C76.8,69.2,77.7,70.1,78.2,69.5z"/>
<path fill="#CAD1E2" stroke="#000000" stroke-miterlimit="10" d="M59.9,56.3c0.2-0.1,0.4-0.2,0.5-0.3c-3.4,2.3-6.6,5.3-8.4,9.1
	c-0.5,1.1-0.8,2.1-1.2,3.2c-0.1,0.5-0.5,1-0.7,1.4c-0.2,0.4-1.2,0.5-1.6,0.7c-0.8,0.3-2,0.2-2.8,0.1c-0.6-0.1-1.2-0.1-1.7-0.3
	c-0.6-0.2-1.1-0.6-1.6-0.8c-0.3-0.2-0.6-1-0.7-1.4c-0.2-0.5-0.1-1.2,0-1.7c0-0.9,0.6-1.9,1.1-2.7c1.1-1.8,2.3-3.7,3.8-5.1
	c1.7-1.6,3.4-3,5.3-4.2c0.7-0.4,1.9-1.1,2.7-0.9c1.2,0.4,2,0.7,2.9,1.5C58.3,55.5,58.9,56.3,59.9,56.3z"/>
<path fill="#FFFFFF" stroke="#000000" stroke-width="3" stroke-miterlimit="2.6131" d="M59.9,56.3c0.2-0.1,0.4-0.2,0.5-0.3
	c-3.4,2.3-6.6,5.3-8.4,9.1c-0.5,1.1-0.8,2.1-1.2,3.2c-0.1,0.5-0.5,1-0.7,1.4c-0.2,0.4-1.2,0.5-1.6,0.7c-0.8,0.3-2,0.2-2.8,0.1
	c-0.6-0.1-1.2-0.1-1.7-0.3c-0.6-0.2-1.1-0.6-1.6-0.8c-0.3-0.2-0.6-1-0.7-1.4c-0.2-0.5-0.1-1.2,0-1.7c0-0.9,0.6-1.9,1.1-2.7
	c1.1-1.8,2.3-3.7,3.8-5.1c1.7-1.6,3.4-3,5.3-4.2c0.7-0.4,1.9-1.1,2.7-0.9c1.2,0.4,2,0.7,2.9,1.5C58.3,55.5,58.9,56.3,59.9,56.3z"/>
<path fill="#FFFFFF" stroke="#000000" stroke-miterlimit="10" d="M39.1,70.8c4.7,0,9.4,0,14,0c0.4,0,0.2-0.8,0.2-1.1
	c0-1.4,0-2.7,0-4.1c0-2.7,0-5.4,0-8.2c0-0.5-0.2-0.4-0.8-0.4c-1.2,0-2.5,0-3.7,0c-2.9,0-5.9,0-8.8,0c-0.4,0-1-0.2-1,0.2
	c0,1,0,2.1,0,3.1c0,3,0,6,0,9C39.1,69.9,39.1,70.3,39.1,70.8z"/>
<path fill="none" stroke="#000000" stroke-width="3" stroke-miterlimit="2.6131" d="M39.1,70.8c4.7,0,9.4,0,14,0
	c0.4,0,0.2-0.8,0.2-1.1c0-1.4,0-2.7,0-4.1c0-2.7,0-5.4,0-8.2c0-0.5-0.2-0.4-0.8-0.4c-1.2,0-2.5,0-3.7,0c-2.9,0-5.9,0-8.8,0
	c-0.4,0-1-0.2-1,0.2c0,1,0,2.1,0,3.1c0,3,0,6,0,9C39.1,69.9,39.1,70.3,39.1,70.8z"/>
<path fill="#FFFFFF" stroke="#000000" stroke-width="3" stroke-miterlimit="2.6131" d="M50.9,70.8c-0.1,0-0.2,0-0.3,0
	c0.3-0.9,0.5-1.5,0.5-2.5c0-0.7-1.4-0.7-2-0.7c-1.3,0-4.1-0.1-4.9,1.2c-0.2,0.4-0.5,0.7-0.4,1.1c0.1,0.3,0.1,1,0.3,1.1
	c0.4,0.2,0.8,0.6,1.3,0.7c0.4,0.1,1,0.1,1.4,0.2c0.8,0.1,1.6,0,2.4-0.2c0.4-0.1,0.9-0.3,1.3-0.4C50.8,71.3,51.5,70.9,50.9,70.8z"/>
<path fill="none" stroke="#000000" stroke-width="0.9638" stroke-miterlimit="2.6131" d="M50.9,70.8c-0.1,0-0.2,0-0.3,0
	c0.3-0.9,0.5-1.5,0.5-2.5c0-0.7-1.4-0.7-2-0.7c-1.3,0-4.1-0.1-4.9,1.2c-0.2,0.4-0.5,0.7-0.4,1.1c0.1,0.3,0.1,1,0.3,1.1
	c0.4,0.2,0.8,0.6,1.3,0.7c0.4,0.1,1,0.1,1.4,0.2c0.8,0.1,1.6,0,2.4-0.2c0.4-0.1,0.9-0.3,1.3-0.4C50.8,71.3,51.5,70.9,50.9,70.8z"/>
<path d="M83.4,37.6c0-4.4-0.3-8.8-0.8-13.1c-0.2-1.9-1.8-4.1-3.4-5c-0.9-0.6-1.8-1.1-2.9-1.6c-1.1-0.5-2.2-0.8-3.4-1.1
	c-1.9-0.5-4.1-0.3-6-0.3c-2.1,0-4.6-0.2-6.5,0.8c-1.1,0.6-2,1.1-3,1.9c-0.7,0.5-1.5,1.3-1.9,2.1c-1,2.1-1.4,4.1-1.2,6.5
	c0.2,2.1,1.2,4.2,0.7,6.3c-0.3,1.2-0.5,2.2-1,3.3c-0.4,0.9-0.7,1.9-0.8,2.9c-0.3,2.3,0.1,4.4,1.1,6.5c0.8,1.8,3.1,3.1,4.7,3.9
	c2.1,1,4.1,1.5,6.4,1.5c2.3-0.1,4.4-0.4,6.6-1.2c2-0.7,4-1.6,6-2.5c0.8-0.4,1.8-0.9,2.5-1.5c0.3-0.3,0.9-0.7,1.1-1.1
	c0.3-0.6,0.5-1.1,0.8-1.7c0.2-0.5,0.2-1.3,0.3-1.8c0.1-0.6,0.1-1.2,0.1-1.8C83,39.7,83.2,38.7,83.4,37.6z"/>
<path fill="#FFFFFF" stroke="#000000" stroke-width="3" stroke-miterlimit="2.6131" d="M83.4,37.6c0-4.4-0.3-8.8-0.8-13.1
	c-0.2-1.9-1.8-4.1-3.4-5c-0.9-0.6-1.8-1.1-2.9-1.6c-1.1-0.5-2.2-0.8-3.4-1.1c-1.9-0.5-4.1-0.3-6-0.3c-2.1,0-4.6-0.2-6.5,0.8
	c-1.1,0.6-2,1.1-3,1.9c-0.7,0.5-1.5,1.3-1.9,2.1c-1,2.1-1.4,4.1-1.2,6.5c0.2,2.1,1.2,4.2,0.7,6.3c-0.3,1.2-0.5,2.2-1,3.3
	c-0.4,0.9-0.7,1.9-0.8,2.9c-0.3,2.3,0.1,4.4,1.1,6.5c0.8,1.8,3.1,3.1,4.7,3.9c2.1,1,4.1,1.5,6.4,1.5c2.3-0.1,4.4-0.4,6.6-1.2
	c2-0.7,4-1.6,6-2.5c0.8-0.4,1.8-0.9,2.5-1.5c0.3-0.3,0.9-0.7,1.1-1.1c0.3-0.6,0.5-1.1,0.8-1.7c0.2-0.5,0.2-1.3,0.3-1.8
	c0.1-0.6,0.1-1.2,0.1-1.8C83,39.7,83.2,38.7,83.4,37.6z"/>
<path fill="#131E1F" d="M71.6,27.7c0.2,0,0.3-0.1,0.5-0.1c-0.2-0.6-0.1-1.1-0.8-0.9C71.4,27.1,71.5,27.4,71.6,27.7
	c-0.1-0.3-0.2-0.7-0.3-1C70.6,26.9,71,27.9,71.6,27.7z"/>
<path fill="#131E1F" d="M69.9,27.1c0.1,0.2,0.2,1,0.4,1c0.4-0.1,0.9-0.2,1.3-0.4c-0.1-0.2-0.2-1-0.4-1C70.8,26.9,70.3,27,69.9,27.1
	c-0.7,0.1-0.4,1.2,0.3,1C70.1,27.8,70,27.5,69.9,27.1z"/>
<path fill="#131E1F" d="M68,27.7c0.1,0.3,0.1,1.1,0.5,0.9c0.6-0.2,1.1-0.3,1.7-0.5c-0.1-0.5-0.1-1.1-0.6-0.9
	C69,27.4,68.5,27.5,68,27.7c-0.6,0.2-0.4,1.2,0.3,1C68.2,28.3,68.1,28,68,27.7z"/>
<path fill="#131E1F" d="M66.6,29.2c0.6-0.2,1.2-0.4,1.8-0.5c-0.1-0.3-0.2-0.6-0.3-1c0-0.1-0.8,0.2-0.9,0.2c-0.1,0-0.8,0.1-0.9,0.3
	C66.2,28.3,66.5,29,66.6,29.2c-0.1-0.3-0.2-0.7-0.3-1C65.5,28.4,66.1,29.4,66.6,29.2z"/>
<path fill="#131E1F" d="M64.9,29.4c0.5,0.2,1.1-0.1,1.7-0.2c-0.1-0.3-0.1-0.6-0.2-0.9c-0.1-0.3-0.4-0.1-0.7,0
	C65,28.5,65.1,28.6,64.9,29.4c0.1-0.3,0.1-0.6,0.2-0.9c-0.7,0.1-0.4,1.2,0.2,1C65.2,29.4,65.1,29.4,64.9,29.4z"/>
<path fill="#131E1F" d="M64.5,29.1c0.6,0.4,0.6,0,1-0.6C64.9,28.1,64.9,28.6,64.5,29.1z"/>
<path fill="#FFFFFF" d="M60.5,28.7c-1.6-0.8-3.5-1.5-4.9-2.6C57.2,26.9,58.8,27.8,60.5,28.7z"/>
<path fill="#131E1F" d="M59.8,29c0.6,0.4,0.6-0.3,0.9-0.7C60.1,27.8,60,28.5,59.8,29c0.2-0.3,0.3-0.6,0.5-0.9
	C59.6,27.7,59.2,28.7,59.8,29z"/>
<path fill="#131E1F" d="M59.1,27.4c-0.2,0.3-0.3,0.6-0.5,0.9c0.4,0.2,0.7,0.4,1.1,0.5c0.2,0.1,0.5-0.7,0.6-0.9
	C59.9,27.8,59.5,27.6,59.1,27.4c-0.6-0.3-1.1,0.6-0.5,0.9C58.7,28.1,58.9,27.7,59.1,27.4z"/>
<path fill="#131E1F" d="M57.2,27.7c0.4,0.2,0.9,0.4,1.3,0.6c0.2,0.1,0.5-0.7,0.6-0.9c-0.4-0.2-0.9-0.4-1.3-0.6
	C57.6,26.7,57.3,27.5,57.2,27.7c0.2-0.3,0.3-0.6,0.5-0.9C57.1,26.5,56.6,27.4,57.2,27.7z"/>
<path fill="#131E1F" d="M56.3,27.3c0.2,0.1,0.7,0.5,0.9,0.4c0.2-0.1,0.4-0.8,0.5-0.9c-0.1-0.1-0.7-0.4-0.8-0.4
	C56.7,26.4,56.4,27.1,56.3,27.3c0.2-0.3,0.4-0.6,0.5-0.9C56.1,26,55.9,27.3,56.3,27.3z"/>
<path fill="#131E1F" d="M55.7,26.9c0.1,0.1,0.5,0.4,0.6,0.4c0.2,0,0.5-0.7,0.6-0.9c-0.1-0.1-0.5-0.4-0.6-0.3
	C56.1,26.4,55.9,26.6,55.7,26.9c0.2-0.3,0.4-0.6,0.6-0.8c-0.3-0.2-0.6-0.1-0.8,0.2C55.5,26.5,55.7,27,55.7,26.9z"/>
<path fill="#131E1F" d="M55.2,26.5c0.1,0.1,0.5,0.5,0.6,0.4c0.2-0.3,0.5-0.5,0.7-0.8c-0.1-0.1-0.5-0.5-0.6-0.4
	C55.6,26,55.4,26.2,55.2,26.5z"/>
<path fill="#FFFFFF" stroke="#000000" stroke-miterlimit="2.6131" d="M70.9,32.1c0-1-0.3-2.2-1.3-2.7c-0.9-0.5-1.7,0.1-2.1,0.9
	c-0.7,1.3-0.5,5.4,1.9,4.7C70.4,34.6,70.9,33.1,70.9,32.1z"/>
<path fill="none" stroke="#131E1F" stroke-width="0.9638" stroke-miterlimit="2.6131" d="M70.9,32.1c0-1-0.3-2.2-1.3-2.7
	c-0.9-0.5-1.7,0.1-2.1,0.9c-0.7,1.3-0.5,5.4,1.9,4.7C70.4,34.6,70.9,33.1,70.9,32.1"/>
<path fill="#FFFFFF" stroke="#000000" stroke-miterlimit="2.6131" d="M60.5,32.1c0-1-0.3-2.2-1.3-2.7c-0.9-0.5-1.7,0.1-2.1,0.9
	c-0.7,1.3-0.5,5.4,1.9,4.7C60,34.6,60.5,33.1,60.5,32.1z"/>
<path fill="none" stroke="#131E1F" stroke-width="0.9638" stroke-miterlimit="2.6131" d="M60.5,32.1c0-1-0.3-2.2-1.3-2.7
	c-0.9-0.5-1.7,0.1-2.1,0.9c-0.7,1.3-0.5,5.4,1.9,4.7C60,34.6,60.5,33.1,60.5,32.1"/>
<path fill="#B5B5B6" stroke="#000000" stroke-miterlimit="10" d="M75.8,49.2c0.7,0.6,1.6,1.2,2.2,1.9c0.4,0.5,0.9,1,1.3,1.5
	c0.4,0.4,0.4,0.8,0.6,1.3c0.5,2,0.3,4.2,0.3,6.3c0,2.1,0.3,4.4-0.2,6.5c-0.1,0.4-0.1,1.2-0.4,1.5c-0.3,0.4-0.6,1-1.1,1.1
	c-1.2,0.3-2.3,0.4-3.6,0.4c-2.2,0.1-4.3,0.4-6.5,0.5c-2.1,0.1-4.2,0-6.3,0c-2.2,0-4.4-0.2-6-1.9c-0.4-0.4-0.8-0.9-1.3-1.3
	c-0.4-0.4-0.6-1.1-0.8-1.6c-0.4-0.9-0.6-2-0.9-2.9c-0.6-2.2-1-4.3-0.6-6.6c0.3-1.9,2.6-3.7,4.5-3.8c2.2-0.2,4.3,0.2,6.5,0.2
	c2.2,0.1,4.4-0.1,6.5-0.6c1-0.2,2-0.8,2.9-1.3c0.4-0.2,0.5-0.7,0.9-0.8C74.5,49.5,75.1,49.4,75.8,49.2z"/>
<path fill="none" stroke="#000000" stroke-width="3" stroke-miterlimit="2.6131" d="M75.8,49.2c0.7,0.6,1.6,1.2,2.2,1.9
	c0.4,0.5,0.9,1,1.3,1.5c0.4,0.4,0.4,0.8,0.6,1.3c0.5,2,0.3,4.2,0.3,6.3c0,2.1,0.3,4.4-0.2,6.5c-0.1,0.4-0.1,1.2-0.4,1.5
	c-0.3,0.4-0.6,1-1.1,1.1c-1.2,0.3-2.3,0.4-3.6,0.4c-2.2,0.1-4.3,0.4-6.5,0.5c-2.1,0.1-4.2,0-6.3,0c-2.2,0-4.4-0.2-6-1.9
	c-0.4-0.4-0.8-0.9-1.3-1.3c-0.4-0.4-0.6-1.1-0.8-1.6c-0.4-0.9-0.6-2-0.9-2.9c-0.6-2.2-1-4.3-0.6-6.6c0.3-1.9,2.6-3.7,4.5-3.8
	c2.2-0.2,4.3,0.2,6.5,0.2c2.2,0.1,4.4-0.1,6.5-0.6c1.3-0.3,2.8-0.9,3.6-2"/>
<path fill="#FFFFFF" d="M70.9,51.9c-0.5,0-1.1,0-1.6,0H70.9z"/>
<path fill="none" stroke="#131E1F" stroke-width="3" stroke-miterlimit="2.6131" d="M70.9,51.9c-0.5,0-1.1,0-1.6,0"/>
<path fill="#FFFFFF" stroke="#000000" stroke-miterlimit="10" d="M70.3,51.9c-1.5,5.3-2.9,10.5-4.4,15.8c-2.2-5.3-4.4-10.5-6.6-15.8
	C63,51.9,66.7,51.9,70.3,51.9z"/>
<path fill="none" stroke="#000000" stroke-width="3" stroke-miterlimit="2.6131" d="M70.3,51.9c-1.5,5.3-2.9,10.5-4.4,15.8
	c-2.2-5.3-4.4-10.5-6.6-15.8C63,51.9,66.7,51.9,70.3,51.9z"/>
<path fill="#71ACD9" stroke="#000000" stroke-miterlimit="10" d="M65.4,52.4c-0.7,0-0.5,0.1-0.5,0.7c0,0.4,0,0.8,0,1.3
	c0,0.9,0,1.9,0,2.8c0,1.9-0.1,3.9,0.1,5.8c1-1.7,1-3.8,1-5.7C66,56,67.1,52.9,65.4,52.4z"/>
<path fill="#FFFFFF" stroke="#000000" stroke-width="3" stroke-miterlimit="2.6131" d="M65.4,52.4c-0.7,0-0.5,0.1-0.5,0.7
	c0,0.4,0,0.8,0,1.3c0,0.9,0,1.9,0,2.8c0,1.9-0.1,3.9,0.1,5.8c1-1.7,1-3.8,1-5.7C66,56,67.1,52.9,65.4,52.4z"/>
<path fill="#FFFFFF" stroke="#000000" stroke-miterlimit="10" d="M59.1,47.4c-0.1-0.1-0.2-0.2-0.3-0.3c0,1.6,0,3.2,0,4.8
	c0,1,0.1,1.6,0.5,2.5c0.1,0.2,1.1,0.2,1.3,0.3c0.4,0.1,0.9-0.3,1.2-0.4c0.4-0.2,0.5-0.2,0.7-0.5c0.2-0.3,0.7-0.8,0.7-1.1
	c0-1,0.2-1.6-0.3-2.5c-0.5-0.8-0.9-1.3-1.7-2C60.6,47.6,59.7,47.7,59.1,47.4z"/>
<path fill="none" stroke="#000000" stroke-width="3" stroke-miterlimit="2.6131" d="M59.1,47.4c-0.1-0.1-0.2-0.2-0.3-0.3
	c0,1.6,0,3.2,0,4.8c0,1,0.1,1.6,0.5,2.5c0.1,0.2,1.1,0.2,1.3,0.3c0.4,0.1,0.9-0.3,1.2-0.4c0.4-0.2,0.5-0.2,0.7-0.5
	c0.2-0.3,0.7-0.8,0.7-1.1c0-1,0.2-1.6-0.3-2.5c-0.5-0.8-0.9-1.3-1.7-2C60.6,47.6,59.7,47.7,59.1,47.4z"/>
<path fill="#C6E2E0" d="M67.6,47.9c0-4.2-5.6-5.4-8.6-3.7c-1.7,1-2.8,2.9-2.1,4.9c0.7,1.9,2.5,3,4.4,3.2
	C64,52.7,67.5,51.1,67.6,47.9z"/>
<path fill="#B5B5B6" stroke="#131E1F" stroke-width="3" stroke-miterlimit="2.6131" d="M67.6,47.9c0-4.2-5.6-5.4-8.6-3.7
	c-1.7,1-2.8,2.9-2.1,4.9c0.7,1.9,2.5,3,4.4,3.2C64,52.7,67.5,51.1,67.6,47.9"/>
<path fill="#B5B5B6" stroke="#000000" stroke-miterlimit="10" d="M67,46.6c0-0.2,0-0.3,0-0.5c1.9,0.6,3.9,1.2,5.8,2
	c1.9,0.8,4.1,1.6,5.3,3.4c0.3,0.5,0.7,0.9,1,1.5c0.2,0.5,0.3,1.2,0.5,1.8c0.1,0.4-0.2,1-0.3,1.4c-0.2,0.6-0.5,0.8-0.9,1.3
	c-0.6,0.7-1.5,1.5-2.4,1.9c-0.6,0.2-1.2,0.4-1.7,0.7c-0.5,0.2-1.2,0.1-1.7,0.1c-1.3,0-3.2-0.5-4.3-1.1c-0.8-0.4-1.5-0.8-2.2-1.3
	c-0.8-0.7-1.3-1.1-1.9-2.1c-0.8-1.4,0.1-3.1,0.8-4.4C65.8,49.7,67,48.2,67,46.6z"/>
<path fill="none" stroke="#000000" stroke-width="3" stroke-miterlimit="2.6131" d="M67,46.6c0-0.2,0-0.3,0-0.5
	c1.9,0.6,3.9,1.2,5.8,2c1.9,0.8,4.1,1.6,5.3,3.4c0.3,0.5,0.7,0.9,1,1.5c0.2,0.5,0.3,1.2,0.5,1.8c0.1,0.4-0.2,1-0.3,1.4
	c-0.2,0.6-0.5,0.8-0.9,1.3c-0.6,0.7-1.5,1.5-2.4,1.9c-0.6,0.2-1.2,0.4-1.7,0.7c-0.5,0.2-1.2,0.1-1.7,0.1c-1.3,0-3.2-0.5-4.3-1.1
	c-0.8-0.4-1.5-0.8-2.2-1.3c-0.8-0.7-1.3-1.1-1.9-2.1c-0.8-1.4,0.1-3.1,0.8-4.4C65.8,49.7,67,48.2,67,46.6z"/>
<path fill="#FFFFFF" stroke="#000000" stroke-miterlimit="10" d="M56.6,47.4c0.2-0.1,0.4-0.2,0.5-0.3c-1-0.4-2-0.8-3.1-1.2
	c-0.9-0.3-2-0.7-2.9-0.6c-0.4,0-1.3-0.1-1.7,0.1c-0.6,0.3-1.1,0.6-1.7,0.9c-0.3,0.2-0.6,0.9-0.8,1.2c-0.1,0.1,0.7,1,0.8,1.2
	c0.1,0.2,1,1,0.9,1.2c-0.1,0.5-0.3,1-0.4,1.5c-0.1,0.3-0.5,1.2-0.3,1.5c0.3,0.3,0.7,1.2,1.1,1.3c0.6,0.2,1.1,0.4,1.7,0.7
	c0.5,0.2,1.1-0.2,1.6-0.3c0.9-0.2,1.8-0.8,2.8-1c0.8-0.1,1.6-0.2,2.4-0.5c0.5-0.2,0.6-0.1,0.7-0.6c0.1-0.3,0.3-0.8,0.2-1.1
	c-0.3-0.9-0.5-1.6-1-2.3C57.1,48.6,56.4,48.1,56.6,47.4z"/>
<path fill="none" stroke="#000000" stroke-width="3" stroke-miterlimit="2.6131" d="M56.6,47.4c0.2-0.1,0.4-0.2,0.5-0.3
	c-1-0.4-2-0.8-3.1-1.2c-0.9-0.3-2-0.7-2.9-0.6c-0.4,0-1.3-0.1-1.7,0.1c-0.6,0.3-1.1,0.6-1.7,0.9c-0.3,0.2-0.6,0.9-0.8,1.2
	c-0.1,0.1,0.7,1,0.8,1.2c0.1,0.2,1,1,0.9,1.2c-0.1,0.5-0.3,1-0.4,1.5c-0.1,0.3-0.5,1.2-0.3,1.5c0.3,0.3,0.7,1.2,1.1,1.3
	c0.6,0.2,1.1,0.4,1.7,0.7c0.5,0.2,1.1-0.2,1.6-0.3c0.9-0.2,1.8-0.8,2.8-1c0.8-0.1,1.6-0.2,2.4-0.5c0.5-0.2,0.6-0.1,0.7-0.6
	c0.1-0.3,0.3-0.8,0.2-1.1c-0.3-0.9-0.5-1.6-1-2.3C57.1,48.6,56.4,48.1,56.6,47.4z"/>
<path d="M85.4,34c-0.1,0-0.2,0-0.3,0c0.9-1.9,1.7-3.8,2-5.9c0.3-2.3,0.7-4.5,0.8-6.8c0.1-2-1.1-4-2.5-5.3c-1.5-1.4-3.3-3.2-5.4-3.3
	c-1.2-0.1-2.3-0.1-3.5,0c-1.2,0.1-2.1-0.1-3.3-0.4c-2.1-0.6-3.9-1-6.1-0.8c-1.3,0.1-2.2,0.4-3.4,0.8c-0.4,0.1-0.8,0.2-1.1,0.3
	C62,12.7,61.4,13,60.9,13c-1.2-0.2-2.3-0.4-3.4-0.8c-0.8-0.3-2-0.9-2.9-0.8c-0.5,0-1.3-0.1-1.7,0.1c-0.5,0.2-1,1-1.4,1.3
	c-0.5,0.5-1.1,1.8-1.2,2.5c-0.2,1.3-0.3,2.3-0.2,3.5c0.1,0.9,0.3,2.1,0.8,2.7c0.3,0.3,0.7,1,1,1.2c0.6,0.3,1.2,0.6,1.7,0.9
	c0.4,0.2,1,0.1,1.4,0.2c0.5,0,0.9,0.1,1.3-0.1c1-0.4,2-0.8,3.1-1.2c0.9-0.4,1.9-0.9,2.9-1.1c1.2-0.2,2.4-0.6,3.7-0.7
	c1.2-0.1,2.4,0.1,3.6,0.1c0.3,0,0.8,0.5,1,0.7c0.4,0.3,0.8,0.6,1.1,1c0.3,0.4,0.6,1.1,1.1,1.1c0.6,0,1.2-0.1,1.8-0.2
	c0.8-0.1,0.7,0,1,0.8c0.2,0.4,0,1.2-0.1,1.7c0,0.5-0.2,1-0.3,1.5c-0.1,0.5-0.1,1.1-0.1,1.6c0,0.7,2.4,0.6,2.8,0.7
	c0.5,0.1,1.1,0.2,1.6,0.4c0.3,0.1,1.1,0.7,1.1,1c0,0.5,0,1,0,1.5c-0.1,0.5-0.3,1.3-0.2,1.7c0.1,0.4,0.2,1.3,0.5,1.6
	c0.3,0.3,0.7,1.1,1,1.2c0.8,0.3,2.4,1.1,2.8-0.1c0.2-0.6,0.3-1.1,0.3-1.7c0-0.5,0.1-1,0.4-1.5C85.4,34,85.4,34,85.4,34z"/>
<path stroke="#131E1F" stroke-width="0.9638" stroke-miterlimit="2.6131" d="M85.4,34c-0.1,0-0.2,0-0.3,0c0.9-1.9,1.7-3.8,2-5.9
	c0.3-2.3,0.7-4.5,0.8-6.8c0.1-2-1.1-4-2.5-5.3c-1.5-1.4-3.3-3.2-5.4-3.3c-1.2-0.1-2.3-0.1-3.5,0c-1.2,0.1-2.1-0.1-3.3-0.4
	c-2.1-0.6-3.9-1-6.1-0.8c-1.3,0.1-2.2,0.4-3.4,0.8c-0.4,0.1-0.8,0.2-1.1,0.3C62,12.7,61.4,13,60.9,13c-1.2-0.2-2.3-0.4-3.4-0.8
	c-0.8-0.3-2-0.9-2.9-0.8c-0.5,0-1.3-0.1-1.7,0.1c-0.5,0.2-1,1-1.4,1.3c-0.5,0.5-1.1,1.8-1.2,2.5c-0.2,1.3-0.3,2.3-0.2,3.5
	c0.1,0.9,0.3,2.1,0.8,2.7c0.3,0.3,0.7,1,1,1.2c0.6,0.3,1.2,0.6,1.7,0.9c0.4,0.2,1,0.1,1.4,0.2c0.5,0,0.9,0.1,1.3-0.1
	c1-0.4,2-0.8,3.1-1.2c0.9-0.4,1.9-0.9,2.9-1.1c1.2-0.2,2.4-0.6,3.7-0.7c1.2-0.1,2.4,0.1,3.6,0.1c0.3,0,0.8,0.5,1,0.7
	c0.4,0.3,0.8,0.6,1.1,1c0.3,0.4,0.6,1.1,1.1,1.1c0.6,0,1.2-0.1,1.8-0.2c0.8-0.1,0.7,0,1,0.8c0.2,0.4,0,1.2-0.1,1.7
	c0,0.5-0.2,1-0.3,1.5c-0.1,0.5-0.1,1.1-0.1,1.6c0,0.7,2.4,0.6,2.8,0.7c0.5,0.1,1.1,0.2,1.6,0.4c0.3,0.1,1.1,0.7,1.1,1
	c0,0.5,0,1,0,1.5c-0.1,0.5-0.3,1.3-0.2,1.7c0.1,0.4,0.2,1.3,0.5,1.6c0.3,0.3,0.7,1.1,1,1.2c0.8,0.3,2.4,1.1,2.8-0.1
	c0.2-0.6,0.3-1.1,0.3-1.7c0-0.5,0.1-1,0.4-1.5C85.4,34,85.4,34,85.4,34z"/>
<path fill="#FFFFFF" stroke="#000000" stroke-miterlimit="10" d="M75.8,78.2c-1.1,0.1-2,0.3-3.1,0.7c-0.8,0.3-1.9,1.1-2.2,1.9
	c-0.1,0.4-0.6,1.1-0.2,1.4c0.4,0.3,0.8,0.7,1.3,0.8c1.2,0.2,2.4,0.4,3.6,0.5c0.9,0.1,1.9-0.3,2.5-0.9c0.5-0.5,1.8-2,0.8-2.5
	c-1.8-1-4.1-0.9-6-0.2C73.6,79.2,74.7,78.7,75.8,78.2z"/>
<path fill="none" stroke="#000000" stroke-width="3" stroke-miterlimit="2.6131" d="M75.8,78.2c-1.1,0.1-2,0.3-3.1,0.7
	c-0.8,0.3-1.9,1.1-2.2,1.9c-0.1,0.4-0.6,1.1-0.2,1.4c0.4,0.3,0.8,0.7,1.3,0.8c1.2,0.2,2.4,0.4,3.6,0.5c0.9,0.1,1.9-0.3,2.5-0.9
	c0.5-0.5,1.8-2,0.8-2.5c-1.8-1-4.1-0.9-6-0.2"/>
<path fill="#FFFFFF" stroke="#000000" stroke-miterlimit="10" d="M62.1,80.8c0,0.2,0,0.4,0,0.5c-0.4-0.6-0.6-1.3-1.1-1.8
	c-0.1-0.1-0.7-0.8-0.8-0.7c-0.5,0.1-1,0.1-1.5,0.2c-0.4,0.1-1.6,0.8-1.8,1.2c-0.5,0.8-1,1.5-1.1,2.4c0,0.2-0.2,0.9,0,1
	c0.4,0.2,0.9,0.4,1.3,0.7c0.4,0.2,1.8,0.1,2.3-0.1c1.6-0.6,3.4-1.4,2.8-3.4C62.1,80.7,62.1,80.7,62.1,80.8z"/>
<path fill="none" stroke="#000000" stroke-width="3" stroke-miterlimit="2.6131" d="M62.1,80.8c0,0.2,0,0.4,0,0.5
	c-0.4-0.6-0.6-1.3-1.1-1.8c-0.1-0.1-0.7-0.8-0.8-0.7c-0.5,0.1-1,0.1-1.5,0.2c-0.4,0.1-1.6,0.8-1.8,1.2c-0.5,0.8-1,1.5-1.1,2.4
	c0,0.2-0.2,0.9,0,1c0.4,0.2,0.9,0.4,1.3,0.7c0.4,0.2,1.8,0.1,2.3-0.1c1.6-0.6,3.4-1.4,2.8-3.4C62.1,80.7,62.1,80.7,62.1,80.8z"/>
<path fill="#FFFFFF" stroke="#000000" stroke-miterlimit="2.6131" d="M58.6,32.3c0.5,0,0.5,0.7,0,0.7C58.1,33,58.1,32.3,58.6,32.3z"
	/>
<path fill="#FFFFFF" stroke="#000000" stroke-miterlimit="2.6131" d="M68.7,32.3c0.5,0,0.5,0.7,0,0.7S68.2,32.3,68.7,32.3z"/>
</svg>
