<?xml version="1.0" encoding="utf-8"?>
<!-- Generator: Adobe Illustrator 17.1.0, SVG Export Plug-In . SVG Version: 6.00 Build 0)  -->
<!DOCTYPE svg PUBLIC "-//W3C//DTD SVG 1.1//EN" "http://www.w3.org/Graphics/SVG/1.1/DTD/svg11.dtd">
<svg version="1.1" id="Ebene_1" xmlns="http://www.w3.org/2000/svg" xmlns:xlink="http://www.w3.org/1999/xlink" x="0px" y="0px"
	 viewBox="256 346 100 100" enable-background="new 256 346 100 100" xml:space="preserve">
<ellipse fill="#B2B2B2" cx="305.4" cy="395.5" rx="50.6" ry="49.5"/>
<polygon fill="none" stroke="#000000" stroke-width="10" stroke-miterlimit="2.6131" points="320.7,425 320.4,425 320.2,425 
	320.6,424.2 321.6,422 322.6,419.1 323.2,416.1 323.6,413.3 324.1,410.3 324.4,407.4 324.5,404.4 324.1,401.6 322.8,399 
	320.8,396.5 318.1,394 315.1,392 312.2,391 309.2,390.8 306.6,391 303.9,391 301,390.2 297.7,389.3 293.7,388.9 289.6,389.4 
	286,390.6 282.7,391.6 279.2,391 275.9,389.8 272.8,388.9 270,389.1 267.7,391.5 266,394.9 265.5,398.6 265.8,402 266.8,404.8 
	268.7,407 271.5,408.7 275.1,408.9 279.2,407.4 284.2,405.3 290.8,404.1 296.5,404.2 299.3,406.5 300.9,408.8 303.1,408.7 
	305.1,408.3 305.7,409.9 305.5,412.5 304.8,415.3 304.8,417.5 306.6,418.3 309.1,418.5 311.7,419.1 313.4,420.5 313.4,422.9 
	313.1,425.7 313.8,428.3 315.4,430.3 317.7,431.2 319.6,430.8 320.2,428.7 320.4,426.4 320.7,425.4 320.9,425.1 "/>
<path fill="none" stroke="#000000" stroke-width="10" stroke-miterlimit="2.6131" d="M323,381.6c-0.1-1.2-0.2-2.6,0.2-3.8
	c0.6-1.9,2.1-3.4,3.5-4.7c2-1.8,3.9-3.6,6.3-4.8c1.6-0.8,3.4-1.5,3.6-3.3c0.1-0.8-0.3-1.5-0.8-2.2c-1.1-1.3-2.7-2-4.3-2.7
	c-3.1-1.2-6.5-2.4-9.8-2.9c-3.4-0.5-7-0.2-10.1,1.2c-0.3,0.2-0.7,0.4-0.9,0.7c-0.3,0.5-0.3,1.1-0.2,1.6c0.2,1.3,0.7,2.8,1.7,3.7
	c1.9,1.7,4.8,1.6,7.4,1.4c4.9-0.3,10,0.1,14.4,2.2c4.4,2.1,7.9,6.4,8.1,11.2c0,1.2-0.1,2.5-0.8,3.5c-1.2,1.8-3.5,2.4-5.7,2.8
	c-3.8,0.6-8,0.7-11.3-1.5c-0.4-0.3-0.8-0.6-1-1.1C323.1,382.6,323,382.1,323,381.6z"/>
</svg>
