<?xml version="1.0" encoding="utf-8"?>
<!-- Generator: Adobe Illustrator 17.1.0, SVG Export Plug-In . SVG Version: 6.00 Build 0)  -->
<!DOCTYPE svg PUBLIC "-//W3C//DTD SVG 1.1//EN" "http://www.w3.org/Graphics/SVG/1.1/DTD/svg11.dtd">
<svg version="1.1" id="レイヤー_1" xmlns="http://www.w3.org/2000/svg" xmlns:xlink="http://www.w3.org/1999/xlink" x="0px"
	 y="0px" viewBox="371.4 248.2 100 100" enable-background="new 371.4 248.2 100 100" xml:space="preserve">
<path fill="none" stroke="#000000" stroke-width="4" stroke-miterlimit="10" d="M398.7,264.6c-1.5-0.6-3.3,0.2-4.3,1.5
	c-1,1.3-1.3,2.9-1.3,4.5c0,0.9,0,1.7,0.4,2.5c0.3,0.6,0.7,1.1,1.2,1.5c1.3,1.3,3.1,2.2,4.9,2.6c2,0.4,4.1,0.2,6.1,0.7
	c2,0.5,3.9,2.3,3.5,4.3c0.7,0.4,1.4-0.3,1.9-0.9c0.8-1.2,1.4-2.5,1.7-3.9s0.1-2.9-0.7-4.1c-0.5-0.7-1.1-1.2-1.7-1.7
	c-1.9-1.5-3.7-3-5.6-4.5c-0.5-0.4-1.1-0.9-1.8-1.1c-0.6-0.1-1.2-0.1-1.7-0.2C400.3,265.6,399.6,264.9,398.7,264.6z"/>
<path fill="none" stroke="#000000" stroke-width="9" stroke-miterlimit="10" d="M391.8,305.4c1.1,3,3.6,5.2,6.5,6.5
	c2.9,1.3,6.1,1.6,9.3,1.5c14.2-0.3,28-8.6,34.9-21.1c0.5-0.9,0.9-1.8,0.9-2.8c0-1-0.7-2-1.7-2.1c-0.8-0.1-1.6,0.6-2.1,1.3
	c-1.3,1.8-1.6,4.1-1.8,6.3c-0.2,2.3-0.4,4.9,1.1,6.6c1.3,1.5,3.4,2,5.4,2.3c2,0.4,4.4,0.7,5.9-0.6c1.4-1.1,1.7-3.1,1.9-4.8
	c0.5-6.4-1.2-13.8-6.9-16.8c-1.1-0.6-2.4-1-3.6-1c-3.2,0-5.8,2.6-7.6,5.3c-6.3,9.8-5.7,22.4-10,33.2c-2.2,5.4-5.6,10.9-4.7,16.7"/>
</svg>
