<?xml version="1.0" encoding="UTF-8" standalone="no"?>
<!-- Created with Inkscape (http://www.inkscape.org/) -->

<svg
   xmlns:dc="http://purl.org/dc/elements/1.1/"
   xmlns:cc="http://creativecommons.org/ns#"
   xmlns:rdf="http://www.w3.org/1999/02/22-rdf-syntax-ns#"
   xmlns:svg="http://www.w3.org/2000/svg"
   xmlns="http://www.w3.org/2000/svg"
   version="1.1"
   width="100"
   height="100"
   viewBox="0 0 100 100"
   id="レイヤー_1"
   xml:space="preserve"><metadata
     id="metadata3305"><rdf:RDF><cc:Work
         rdf:about=""><dc:format>image/svg+xml</dc:format><dc:type
           rdf:resource="http://purl.org/dc/dcmitype/StillImage" /><dc:title></dc:title></cc:Work></rdf:RDF></metadata><defs
     id="defs3303" /><circle
     cx="50"
     cy="50"
     r="50"
     id="circle3264"
     style="fill:#b2b2b2" /><g
     id="レイヤー_2"><path
       d="M 59.958,159.059"
       id="path3267"
       style="fill:none;stroke:#231815;stroke-miterlimit:10" /></g><rect
     width="17.605234"
     height="23.710546"
     x="14.436701"
     y="55.361877"
     id="rect3147"
     style="fill:#ffffff;stroke:#000000;stroke-width:1.70526326;stroke-miterlimit:10" /><rect
     width="29.021063"
     height="7.8104057"
     x="10.310418"
     y="50.201103"
     id="rect3149"
     style="fill:#ffffff;stroke:#000000;stroke-width:1.70526326;stroke-miterlimit:10" /><polyline
     stroke-miterlimit="10"
     points="378.337,303.945 381.547,303.945   386.837,303.945 "
     id="polyline3151"
     transform="matrix(0.56446936,0,0,0.57240056,-192.13202,-124.87389)"
     style="fill:none;stroke:#000000;stroke-width:3;stroke-miterlimit:10" /><path
     d="m 23.239592,49.104388 v -6.678197 c 0,0 5.902667,-5.628414 8.348502,-5.533396"
     id="path3153"
     style="fill:none;stroke:#000000;stroke-width:1.70526326;stroke-miterlimit:10" /><ellipse
     cx="396.42599"
     cy="282.362"
     rx="3.5769999"
     ry="4.4169998"
     transform="matrix(0.56446936,0,0,0.57240056,-192.13202,-124.87389)"
     id="ellipse3155" /><polygon
     points="438.69,351.67 435.745,352.317 433.013,351.67 431.035,349.806 430.388,346.861 430.388,343.482 430.388,340.317 431.377,337.486 434.322,335.074 438.035,333.217 441.3,332.03 444.465,331.375 447.844,331.162 451.223,331.162 454.388,331.162 457.333,331.695 460.065,333.339 462.142,334.975 463.131,335.515 463.565,335.416 463.999,335.074 463.999,335.074 464.319,334.762 464.433,334.64 464.433,335.416 464.433,337.706 464.319,340.872 463.999,344.251 462.796,347.295 460.065,349.494 456.686,350.696 453.521,350.795 451.108,349.707 450.02,347.295 449.701,344.136 449.586,340.75 448.955,338.239 446.976,337.706 444.899,338.795 443.91,341.184 443.377,344.251 442.601,347.295 441.201,349.927 "
     transform="matrix(0.56446936,0,0,0.57240056,-192.13202,-124.87389)"
     id="polygon3157"
     style="fill:#b5b5b6;fill-rule:evenodd;stroke:#000000;stroke-miterlimit:10" /><polygon
     points="438.69,351.67 435.745,352.317 433.013,351.67 431.035,349.806 430.388,346.861 430.388,343.482 430.388,340.317 431.377,337.486 434.322,335.074 438.035,333.217 441.3,332.03 444.465,331.375 447.844,331.162 451.223,331.162 454.388,331.162 457.333,331.695 460.065,333.339 462.142,334.975 463.131,335.515 463.565,335.416 463.999,335.074 463.999,335.074 464.319,334.762 464.433,334.64 464.433,335.416 464.433,337.706 464.319,340.872 463.999,344.251 462.796,347.295 460.065,349.494 456.686,350.696 453.521,350.795 451.108,349.707 450.02,347.295 449.701,344.136 449.586,340.75 448.955,338.239 446.976,337.706 444.899,338.795 443.91,341.184 443.377,344.251 442.601,347.295 441.201,349.927 "
     transform="matrix(0.56446936,0,0,0.57240056,-192.13202,-124.87389)"
     id="polygon3159"
     style="fill:none;stroke:#000000;stroke-width:3;stroke-miterlimit:2.61310005" /><polygon
     points="416.424,314.14 419.803,311.408 422.968,309.331 425.913,308.463 428.645,309.331 430.936,310.974 432.579,312.397 433.766,313.265 434.756,313.265 434.756,313.265 435.41,312.93 435.623,312.831 434.87,313.364 432.579,315.007 429.634,317.518 426.903,320.684 424.491,324.063 422.535,327.228 421.112,330.295 420.358,333.339 419.156,335.751 416.424,336.839 412.947,336.938 409.446,336.398 406.715,334.975 405.512,332.464 405.627,329.405 406.836,326.353 408.67,323.294 410.748,320.243 413.259,317.184 "
     transform="matrix(0.56446936,0,0,0.57240056,-192.13202,-124.87389)"
     id="polygon3161"
     style="fill:#cad1e2;fill-rule:evenodd;stroke:#000000;stroke-miterlimit:10" /><polygon
     points="416.424,314.14 419.803,311.408 422.968,309.331 425.913,308.463 428.645,309.331 430.936,310.974 432.579,312.397 433.766,313.265 434.756,313.265 434.756,313.265 435.41,312.93 435.623,312.831 434.87,313.364 432.579,315.007 429.634,317.518 426.903,320.684 424.491,324.063 422.535,327.228 421.112,330.295 420.358,333.339 419.156,335.751 416.424,336.839 412.947,336.938 409.446,336.398 406.715,334.975 405.512,332.464 405.627,329.405 406.836,326.353 408.67,323.294 410.748,320.243 413.259,317.184 "
     transform="matrix(0.56446936,0,0,0.57240056,-192.13202,-124.87389)"
     id="polygon3163"
     style="fill:#ffffff;stroke:#000000;stroke-width:3;stroke-miterlimit:2.61310005" /><polygon
     points="424.277,314.574 401.593,314.574 401.593,337.273 401.593,337.273 424.277,337.273 "
     transform="matrix(0.56446936,0,0,0.57240056,-192.13202,-124.87389)"
     id="polygon3165"
     style="fill:#ffffff;fill-rule:evenodd;stroke:#000000;stroke-miterlimit:10" /><polygon
     points="424.277,314.574 401.593,314.574 401.593,337.273 401.593,337.273 424.277,337.273 "
     transform="matrix(0.56446936,0,0,0.57240056,-192.13202,-124.87389)"
     id="polygon3167"
     style="fill:none;stroke:#000000;stroke-width:3;stroke-miterlimit:2.61310005" /><polygon
     points="420.145,336.618 420.792,334.64 420.693,332.684 418.601,332.03 415.557,332.129 412.49,332.464 410.101,333.438 409.013,335.515 409.446,337.706 411.623,339.015 414.682,339.449 417.733,339.015 420.024,338.239 420.792,337.706 420.678,337.372 420.358,337.273 420.358,337.273 420.024,337.273 419.925,337.273 "
     transform="matrix(0.56446936,0,0,0.57240056,-192.13202,-124.87389)"
     id="polygon3169"
     style="fill:#ffffff;fill-rule:evenodd;stroke:#000000;stroke-width:3;stroke-miterlimit:2.61310005" /><polygon
     points="420.145,336.618 420.792,334.64 420.693,332.684 418.601,332.03 415.557,332.129 412.49,332.464 410.101,333.438 409.013,335.515 409.446,337.706 411.623,339.015 414.682,339.449 417.733,339.015 420.024,338.239 420.792,337.706 420.678,337.372 420.358,337.273 420.358,337.273 420.024,337.273 419.925,337.273 "
     transform="matrix(0.56446936,0,0,0.57240056,-192.13202,-124.87389)"
     id="polygon3171"
     style="fill:none;stroke:#000000;stroke-width:0.96380001;stroke-miterlimit:2.61310005" /><polygon
     points="426.903,258.279 426.256,261.322 426.035,264.389 426.256,267.433 426.903,270.499 427.435,273.543 427.336,276.61 426.69,279.654 425.601,282.72 424.612,285.764 424.277,288.823 424.491,291.989 425.145,295.375 426.667,298.654 429.513,301.485 432.899,303.776 436.057,305.419 439.222,306.386 442.601,306.721 445.987,306.607 449.153,306.287 452.433,305.518 456.131,304.095 460.065,302.353 463.999,300.61 467.378,298.654 469.676,296.242 470.977,293.412 471.411,290.132 471.51,286.966 471.852,284.455 472.187,282.819 472.286,282.279 472.286,282.279 472.286,281.191 472.286,277.911 472.187,273.756 471.852,270.058 471.51,266.679 471.411,263.514 471.076,260.455 470.109,257.403 468.367,254.558 465.742,252.168 462.576,250.213 459.197,248.668 455.377,247.702 450.911,247.359 446.421,247.359 442.601,247.359 439.222,247.702 436.057,248.668 433.112,250.311 430.388,252.602 428.211,255.334 "
     transform="matrix(0.56446936,0,0,0.57240056,-192.13202,-124.87389)"
     id="polygon3173"
     style="fill-rule:evenodd" /><polygon
     points="426.903,258.279 426.256,261.322 426.035,264.389 426.256,267.433 426.903,270.499 427.435,273.543 427.336,276.61 426.69,279.654 425.601,282.72 424.612,285.764 424.277,288.823 424.491,291.989 425.145,295.375 426.667,298.654 429.513,301.485 432.899,303.776 436.057,305.419 439.222,306.386 442.601,306.721 445.987,306.607 449.153,306.287 452.433,305.518 456.131,304.095 460.065,302.353 463.999,300.61 467.378,298.654 469.676,296.242 470.977,293.412 471.411,290.132 471.51,286.966 471.852,284.455 472.187,282.819 472.286,282.279 472.286,282.279 472.286,281.191 472.286,277.911 472.187,273.756 471.852,270.058 471.51,266.679 471.411,263.514 471.076,260.455 470.109,257.403 468.367,254.558 465.742,252.168 462.576,250.213 459.197,248.668 455.377,247.702 450.911,247.359 446.421,247.359 442.601,247.359 439.222,247.702 436.057,248.668 433.112,250.311 430.388,252.602 428.211,255.334 "
     transform="matrix(0.56446936,0,0,0.57240056,-192.13202,-124.87389)"
     id="polygon3175"
     style="fill:#ffffff;stroke:#000000;stroke-width:3;stroke-miterlimit:2.61310005" /><polygon
     points="452.372,265.279 452.394,265.355 452.425,265.431 452.463,265.508 452.509,265.568 452.562,265.637 452.615,265.69 452.676,265.743 452.745,265.789 452.813,265.835 452.889,265.865 452.973,265.888 453.056,265.903 453.148,265.911 453.247,265.911 453.338,265.896 453.445,265.873 453.445,265.873 453.445,265.873 454.198,265.652 453.711,263.986 452.965,264.206 453.445,265.873 452.965,264.206 452.859,264.244 452.775,264.282 452.691,264.328 452.615,264.381 452.554,264.442 452.501,264.511 452.448,264.579 452.41,264.648 452.379,264.724 452.356,264.8 452.341,264.876 452.334,264.96 452.334,265.043 452.341,265.119 452.349,265.203 "
     transform="matrix(0.56446936,0,0,0.57240056,-192.13202,-124.87389)"
     id="polygon3177"
     style="fill:#131e1f;fill-rule:evenodd" /><polygon
     points="450.073,265.926 450.096,266.01 450.127,266.086 450.165,266.154 450.211,266.223 450.264,266.284 450.317,266.345 450.378,266.398 450.447,266.443 450.515,266.489 450.591,266.52 450.675,266.542 450.758,266.558 450.85,266.565 450.949,266.565 451.048,266.55 451.147,266.527 450.667,264.861 450.667,264.861 451.147,266.527 453.445,265.873 452.965,264.206 450.675,264.853 450.667,264.861 450.675,264.853 450.568,264.891 450.477,264.929 450.401,264.975 450.325,265.028 450.264,265.089 450.203,265.157 450.157,265.226 450.119,265.294 450.089,265.371 450.066,265.447 450.043,265.53 450.035,265.606 450.035,265.69 450.043,265.774 450.051,265.85 "
     transform="matrix(0.56446936,0,0,0.57240056,-192.13202,-124.87389)"
     id="polygon3179"
     style="fill:#131e1f;fill-rule:evenodd" /><polygon
     points="447.129,266.809 447.159,266.885 447.19,266.961 447.228,267.03 447.273,267.098 447.319,267.159 447.38,267.22 447.441,267.273 447.509,267.319 447.578,267.357 447.654,267.387 447.737,267.418 447.821,267.433 447.912,267.441 448.004,267.433 448.103,267.418 448.209,267.395 447.699,265.736 447.699,265.736 448.209,267.395 451.154,266.527 450.667,264.861 447.715,265.728 447.699,265.736 447.715,265.728 447.616,265.766 447.524,265.804 447.448,265.858 447.372,265.911 447.311,265.972 447.258,266.033 447.205,266.101 447.167,266.17 447.136,266.246 447.113,266.329 447.098,266.406 447.091,266.489 447.091,266.565 447.098,266.649 447.113,266.725 "
     transform="matrix(0.56446936,0,0,0.57240056,-192.13202,-124.87389)"
     id="polygon3181"
     style="fill:#131e1f;fill-rule:evenodd" /><polygon
     points="444.412,267.692 444.435,267.768 444.473,267.844 444.511,267.912 444.557,267.981 444.61,268.042 444.663,268.103 444.724,268.148 444.793,268.194 444.869,268.232 444.945,268.262 445.029,268.285 445.112,268.3 445.204,268.308 445.295,268.3 445.394,268.285 445.493,268.255 445.424,268.278 445.424,268.278 445.493,268.255 448.224,267.387 447.699,265.736 444.975,266.603 445.424,268.278 444.975,266.603 444.876,266.641 444.785,266.687 444.701,266.733 444.633,266.794 444.572,266.855 444.519,266.915 444.473,266.992 444.435,267.06 444.405,267.136 444.382,267.212 444.366,267.296 444.366,267.372 444.366,267.456 444.374,267.532 444.389,267.616 "
     transform="matrix(0.56446936,0,0,0.57240056,-192.13202,-124.87389)"
     id="polygon3183"
     style="fill:#131e1f;fill-rule:evenodd" /><polygon
     points="442.411,268.08 442.434,268.156 442.456,268.232 442.494,268.308 442.532,268.376 442.578,268.445 442.631,268.506 442.692,268.567 442.753,268.612 442.822,268.658 442.898,268.696 442.981,268.726 443.065,268.742 443.156,268.757 443.248,268.757 443.347,268.749 443.453,268.734 442.761,268.597 442.761,268.597 443.453,268.734 445.424,268.278 445.044,266.588 443.065,267.037 442.761,268.597 443.065,267.037 442.959,267.068 442.867,267.106 442.784,267.151 442.707,267.197 442.639,267.258 442.586,267.319 442.532,267.38 442.487,267.448 442.456,267.524 442.426,267.6 442.403,267.676 442.395,267.76 442.388,267.836 442.388,267.92 442.395,268.004 "
     transform="matrix(0.56446936,0,0,0.57240056,-192.13202,-124.87389)"
     id="polygon3185"
     style="fill:#131e1f;fill-rule:evenodd" /><polygon
     points="443.75,267.174 443.103,266.718 442.106,268.148 442.106,268.148 442.761,268.597 "
     transform="matrix(0.56446936,0,0,0.57240056,-192.13202,-124.87389)"
     id="polygon3187"
     style="fill:#131e1f;fill-rule:evenodd" /><polygon
     points="427.778,263.08 435.623,267.433 435.623,267.433 434.969,267.113 433.013,266.124 430.822,265.036 429.513,264.389 428.645,263.833 "
     transform="matrix(0.56446936,0,0,0.57240056,-192.13202,-124.87389)"
     id="polygon3189"
     style="fill:#ffffff;fill-rule:evenodd" /><polygon
     points="434.192,266.74 434.154,266.816 434.132,266.892 434.109,266.969 434.101,267.052 434.094,267.128 434.101,267.212 434.109,267.288 434.124,267.372 434.154,267.448 434.185,267.524 434.231,267.593 434.284,267.669 434.345,267.73 434.421,267.791 434.504,267.844 434.596,267.897 434.581,267.889 434.581,267.889 434.596,267.897 435.25,268.217 436.003,266.649 435.349,266.337 434.581,267.889 435.349,266.337 435.25,266.291 435.159,266.261 435.068,266.246 434.976,266.238 434.885,266.238 434.801,266.246 434.725,266.268 434.641,266.299 434.573,266.329 434.504,266.375 434.436,266.421 434.375,266.474 434.322,266.535 434.276,266.596 434.231,266.664 "
     transform="matrix(0.56446936,0,0,0.57240056,-192.13202,-124.87389)"
     id="polygon3191"
     style="fill:#131e1f;fill-rule:evenodd" /><polygon
     points="432.237,265.736 432.207,265.812 432.176,265.888 432.161,265.964 432.146,266.048 432.138,266.124 432.138,266.208 432.146,266.284 432.161,266.367 432.191,266.443 432.222,266.52 432.267,266.596 432.321,266.664 432.382,266.733 432.45,266.794 432.534,266.847 432.625,266.9 433.401,265.348 433.401,265.348 432.625,266.9 434.581,267.889 435.364,266.337 433.409,265.355 433.401,265.348 433.409,265.355 433.31,265.31 433.211,265.279 433.12,265.256 433.036,265.249 432.945,265.249 432.861,265.256 432.777,265.272 432.701,265.302 432.625,265.332 432.557,265.378 432.488,265.424 432.435,265.477 432.374,265.538 432.321,265.599 432.275,265.667 "
     transform="matrix(0.56446936,0,0,0.57240056,-192.13202,-124.87389)"
     id="polygon3193"
     style="fill:#131e1f;fill-rule:evenodd" /><polygon
     points="430.038,264.655 430.007,264.731 429.984,264.807 429.962,264.884 429.946,264.967 429.946,265.043 429.946,265.127 429.954,265.211 429.969,265.287 430,265.363 430.03,265.439 430.076,265.515 430.129,265.584 430.19,265.652 430.258,265.713 430.342,265.766 430.434,265.819 430.434,265.819 430.434,265.819 432.633,266.908 433.401,265.348 431.202,264.26 430.434,265.819 431.202,264.26 431.103,264.222 431.012,264.191 430.921,264.168 430.829,264.161 430.746,264.161 430.662,264.168 430.578,264.191 430.502,264.214 430.426,264.252 430.357,264.29 430.289,264.343 430.228,264.397 430.175,264.45 430.121,264.518 430.083,264.587 "
     transform="matrix(0.56446936,0,0,0.57240056,-192.13202,-124.87389)"
     id="polygon3195"
     style="fill:#131e1f;fill-rule:evenodd" /><polygon
     points="428.736,264.001 428.706,264.077 428.676,264.153 428.653,264.229 428.645,264.313 428.638,264.389 428.638,264.473 428.645,264.549 428.668,264.632 428.691,264.709 428.721,264.785 428.767,264.861 428.82,264.929 428.881,264.998 428.949,265.059 429.033,265.112 429.124,265.165 429.048,265.119 429.048,265.119 429.124,265.165 430.434,265.819 431.21,264.26 429.901,263.605 429.048,265.119 429.901,263.605 429.802,263.567 429.71,263.537 429.619,263.514 429.528,263.506 429.436,263.506 429.353,263.514 429.277,263.537 429.201,263.56 429.124,263.598 429.056,263.636 428.988,263.681 428.927,263.735 428.873,263.795 428.82,263.864 428.774,263.925 "
     transform="matrix(0.56446936,0,0,0.57240056,-192.13202,-124.87389)"
     id="polygon3197"
     style="fill:#131e1f;fill-rule:evenodd" /><polygon
     points="427.915,263.369 427.869,263.438 427.839,263.514 427.808,263.59 427.785,263.666 427.77,263.742 427.77,263.826 427.77,263.91 427.778,263.986 427.793,264.069 427.816,264.145 427.854,264.222 427.899,264.298 427.953,264.366 428.021,264.435 428.09,264.503 428.181,264.564 428.074,264.488 428.074,264.488 428.181,264.564 429.048,265.119 429.977,263.658 429.109,263.103 428.074,264.488 429.109,263.103 429.018,263.05 428.927,263.012 428.835,262.981 428.752,262.958 428.66,262.951 428.577,262.951 428.493,262.966 428.417,262.981 428.341,263.012 428.265,263.042 428.196,263.08 428.128,263.126 428.067,263.179 428.014,263.24 427.96,263.301 "
     transform="matrix(0.56446936,0,0,0.57240056,-192.13202,-124.87389)"
     id="polygon3199"
     style="fill:#131e1f;fill-rule:evenodd" /><polygon
     points="429.216,263.179 428.341,262.426 427.207,263.735 427.207,263.735 428.074,264.488 "
     transform="matrix(0.56446936,0,0,0.57240056,-192.13202,-124.87389)"
     id="polygon3201"
     style="fill:#131e1f;fill-rule:evenodd" /><polygon
     points="450.606,268.902 450.477,268.795 450.34,268.696 450.203,268.612 450.058,268.536 449.914,268.475 449.762,268.422 449.617,268.376 449.465,268.346 449.305,268.331 449.153,268.323 448.993,268.331 448.833,268.346 448.681,268.376 448.529,268.422 448.384,268.475 448.24,268.536 448.095,268.612 447.958,268.696 447.821,268.795 447.692,268.902 447.562,269.016 447.441,269.137 447.319,269.274 447.205,269.419 447.091,269.571 446.984,269.723 446.885,269.891 446.786,270.066 446.695,270.248 446.611,270.431 446.528,270.629 446.451,270.827 446.391,271.032 446.322,271.245 446.269,271.466 446.223,271.686 446.178,271.915 446.147,272.143 446.117,272.379 446.101,272.622 446.086,272.858 446.086,273.109 446.086,273.353 446.101,273.597 446.117,273.833 446.147,274.068 446.178,274.304 446.223,274.525 446.269,274.753 446.322,274.966 446.391,275.179 446.451,275.385 446.528,275.583 446.611,275.78 446.695,275.971 446.786,276.146 446.885,276.321 446.984,276.488 447.091,276.648 447.205,276.8 447.319,276.937 447.441,277.074 447.562,277.196 447.692,277.31 447.821,277.416 447.958,277.515 448.095,277.599 448.24,277.675 448.384,277.744 448.529,277.797 448.681,277.835 448.833,277.865 448.993,277.888 449.153,277.888 449.305,277.888 449.465,277.865 449.617,277.835 449.762,277.797 449.914,277.744 450.058,277.675 450.203,277.599 450.34,277.515 450.477,277.416 450.606,277.31 450.736,277.196 450.857,277.074 450.979,276.937 451.093,276.8 451.207,276.648 451.314,276.488 451.413,276.321 451.512,276.146 451.603,275.971 451.687,275.78 451.771,275.583 451.839,275.385 451.908,275.179 451.976,274.966 452.029,274.753 452.075,274.525 452.121,274.304 452.151,274.068 452.181,273.833 452.197,273.597 452.212,273.353 452.212,273.109 452.212,273.109 452.212,272.858 452.197,272.622 452.181,272.379 452.151,272.143 452.121,271.915 452.075,271.686 452.029,271.466 451.976,271.245 451.908,271.032 451.839,270.827 451.771,270.629 451.687,270.431 451.603,270.248 451.512,270.066 451.413,269.891 451.314,269.723 451.207,269.571 451.093,269.419 450.979,269.274 450.857,269.137 450.736,269.016 "
     transform="matrix(0.56446936,0,0,0.57240056,-192.13202,-124.87389)"
     id="polygon3203"
     style="fill:#ffffff;fill-rule:evenodd;stroke:#000000;stroke-miterlimit:2.61310005" /><polyline
     stroke-miterlimit="2.6131"
     points="452.212,273.109 452.212,272.858   452.197,272.622 452.181,272.379 452.151,272.143 452.121,271.915 452.075,271.686 452.029,271.466 451.976,271.245   451.908,271.032 451.839,270.827 451.771,270.629 451.687,270.431 451.603,270.248 451.512,270.066 451.413,269.891   451.314,269.723 451.207,269.571 451.093,269.419 450.979,269.274 450.857,269.137 450.736,269.016 450.606,268.902   450.477,268.795 450.34,268.696 450.203,268.612 450.058,268.536 449.914,268.475 449.762,268.422 449.617,268.376 449.465,268.346   449.305,268.331 449.153,268.323 448.993,268.331 448.833,268.346 448.681,268.376 448.529,268.422 448.384,268.475 448.24,268.536   448.095,268.612 447.958,268.696 447.821,268.795 447.692,268.902 447.562,269.016 447.441,269.137 447.319,269.274   447.205,269.419 447.091,269.571 446.984,269.723 446.885,269.891 446.786,270.066 446.695,270.248 446.611,270.431   446.528,270.629 446.451,270.827 446.391,271.032 446.322,271.245 446.269,271.466 446.223,271.686 446.178,271.915   446.147,272.143 446.117,272.379 446.101,272.622 446.086,272.858 446.086,273.109 446.086,273.353 446.101,273.597   446.117,273.833 446.147,274.068 446.178,274.304 446.223,274.525 446.269,274.753 446.322,274.966 446.391,275.179   446.451,275.385 446.528,275.583 446.611,275.78 446.695,275.971 446.786,276.146 446.885,276.321 446.984,276.488 447.091,276.648   447.205,276.8 447.319,276.937 447.441,277.074 447.562,277.196 447.692,277.31 447.821,277.416 447.958,277.515 448.095,277.599   448.24,277.675 448.384,277.744 448.529,277.797 448.681,277.835 448.833,277.865 448.993,277.888 449.153,277.888 449.305,277.888   449.465,277.865 449.617,277.835 449.762,277.797 449.914,277.744 450.058,277.675 450.203,277.599 450.34,277.515 450.477,277.416   450.606,277.31 450.736,277.196 450.857,277.074 450.979,276.937 451.093,276.8 451.207,276.648 451.314,276.488 451.413,276.321   451.512,276.146 451.603,275.971 451.687,275.78 451.771,275.583 451.839,275.385 451.908,275.179 451.976,274.966 452.029,274.753   452.075,274.525 452.121,274.304 452.151,274.068 452.181,273.833 452.197,273.597 452.212,273.353 452.212,273.109 "
     id="polyline3205"
     transform="matrix(0.56446936,0,0,0.57240056,-192.13202,-124.87389)"
     style="fill:none;stroke:#131e1f;stroke-width:0.96380001;stroke-miterlimit:2.61310005" /><polygon
     points="434.025,268.902 433.896,268.795 433.766,268.696 433.622,268.612 433.485,268.536 433.34,268.475 433.188,268.422 433.044,268.376 432.891,268.346 432.739,268.331 432.579,268.323 432.42,268.331 432.267,268.346 432.115,268.376 431.971,268.422 431.818,268.475 431.674,268.536 431.537,268.612 431.4,268.696 431.263,268.795 431.134,268.902 431.004,269.016 430.883,269.137 430.761,269.274 430.647,269.419 430.532,269.571 430.426,269.723 430.327,269.891 430.228,270.066 430.144,270.248 430.053,270.431 429.977,270.629 429.901,270.827 429.832,271.032 429.771,271.245 429.718,271.466 429.672,271.686 429.627,271.915 429.596,272.143 429.566,272.379 429.551,272.622 429.535,272.858 429.535,273.109 429.535,273.353 429.551,273.597 429.566,273.833 429.596,274.068 429.627,274.304 429.672,274.525 429.718,274.753 429.771,274.966 429.832,275.179 429.901,275.385 429.977,275.583 430.053,275.78 430.144,275.971 430.228,276.146 430.327,276.321 430.426,276.488 430.532,276.648 430.647,276.8 430.761,276.937 430.883,277.074 431.004,277.196 431.134,277.31 431.263,277.416 431.4,277.515 431.537,277.599 431.674,277.675 431.818,277.744 431.971,277.797 432.115,277.835 432.267,277.865 432.42,277.888 432.579,277.888 432.739,277.888 432.891,277.865 433.044,277.835 433.188,277.797 433.34,277.744 433.485,277.675 433.622,277.599 433.766,277.515 433.896,277.416 434.025,277.31 434.154,277.196 434.276,277.074 434.398,276.937 434.512,276.8 434.626,276.648 434.733,276.488 434.832,276.321 434.931,276.146 435.014,275.971 435.106,275.78 435.182,275.583 435.258,275.385 435.326,275.179 435.387,274.966 435.44,274.753 435.486,274.525 435.532,274.304 435.562,274.068 435.593,273.833 435.608,273.597 435.623,273.353 435.623,273.109 435.623,273.109 435.623,272.858 435.608,272.622 435.593,272.379 435.562,272.143 435.532,271.915 435.486,271.686 435.44,271.466 435.387,271.245 435.326,271.032 435.258,270.827 435.182,270.629 435.106,270.431 435.014,270.248 434.931,270.066 434.832,269.891 434.733,269.723 434.626,269.571 434.512,269.419 434.398,269.274 434.276,269.137 434.154,269.016 "
     transform="matrix(0.56446936,0,0,0.57240056,-192.13202,-124.87389)"
     id="polygon3207"
     style="fill:#ffffff;fill-rule:evenodd;stroke:#000000;stroke-miterlimit:2.61310005" /><polyline
     stroke-miterlimit="2.6131"
     points="435.623,273.109 435.623,272.858   435.608,272.622 435.593,272.379 435.562,272.143 435.532,271.915 435.486,271.686 435.44,271.466 435.387,271.245 435.326,271.032   435.258,270.827 435.182,270.629 435.106,270.431 435.014,270.248 434.931,270.066 434.832,269.891 434.733,269.723   434.626,269.571 434.512,269.419 434.398,269.274 434.276,269.137 434.154,269.016 434.025,268.902 433.896,268.795   433.766,268.696 433.622,268.612 433.485,268.536 433.34,268.475 433.188,268.422 433.044,268.376 432.891,268.346 432.739,268.331   432.579,268.323 432.42,268.331 432.267,268.346 432.115,268.376 431.971,268.422 431.818,268.475 431.674,268.536 431.537,268.612   431.4,268.696 431.263,268.795 431.134,268.902 431.004,269.016 430.883,269.137 430.761,269.274 430.647,269.419 430.532,269.571   430.426,269.723 430.327,269.891 430.228,270.066 430.144,270.248 430.053,270.431 429.977,270.629 429.901,270.827   429.832,271.032 429.771,271.245 429.718,271.466 429.672,271.686 429.627,271.915 429.596,272.143 429.566,272.379   429.551,272.622 429.535,272.858 429.535,273.109 429.535,273.353 429.551,273.597 429.566,273.833 429.596,274.068   429.627,274.304 429.672,274.525 429.718,274.753 429.771,274.966 429.832,275.179 429.901,275.385 429.977,275.583 430.053,275.78   430.144,275.971 430.228,276.146 430.327,276.321 430.426,276.488 430.532,276.648 430.647,276.8 430.761,276.937 430.883,277.074   431.004,277.196 431.134,277.31 431.263,277.416 431.4,277.515 431.537,277.599 431.674,277.675 431.818,277.744 431.971,277.797   432.115,277.835 432.267,277.865 432.42,277.888 432.579,277.888 432.739,277.888 432.891,277.865 433.044,277.835 433.188,277.797   433.34,277.744 433.485,277.675 433.622,277.599 433.766,277.515 433.896,277.416 434.025,277.31 434.154,277.196 434.276,277.074   434.398,276.937 434.512,276.8 434.626,276.648 434.733,276.488 434.832,276.321 434.931,276.146 435.014,275.971 435.106,275.78   435.182,275.583 435.258,275.385 435.326,275.179 435.387,274.966 435.44,274.753 435.486,274.525 435.532,274.304 435.562,274.068   435.593,273.833 435.608,273.597 435.623,273.353 435.623,273.109 "
     id="polyline3209"
     transform="matrix(0.56446936,0,0,0.57240056,-192.13202,-124.87389)"
     style="fill:none;stroke:#131e1f;stroke-width:0.96380001;stroke-miterlimit:2.61310005" /><polygon
     points="429.079,333.773 426.568,331.041 425.145,328.096 424.277,324.93 423.402,321.552 422.755,318.173 422.535,315.007 423.067,312.062 424.711,309.331 427.123,307.253 429.946,306.287 433.013,306.066 436.057,306.287 439.124,306.607 442.167,306.721 445.234,306.607 448.278,306.287 451.223,305.632 453.954,304.529 455.933,303.342 456.587,302.353 460.065,301.485 460.065,301.485 460.932,302.231 463.565,304.529 466.175,307.687 467.043,311.073 467.043,314.673 467.043,318.508 467.043,322.419 467.043,326.353 466.83,329.952 466.175,332.905 464.653,334.876 461.807,335.515 458.322,335.629 454.822,335.949 451.443,336.284 448.278,336.398 445.112,336.398 441.733,336.398 438.355,336.398 435.189,336.398 432.146,335.751 "
     transform="matrix(0.56446936,0,0,0.57240056,-192.13202,-124.87389)"
     id="polygon3211"
     style="fill:#b5b5b6;fill-rule:evenodd;stroke:#000000;stroke-miterlimit:10" /><polyline
     stroke-miterlimit="2.6131"
     points="460.065,301.485 460.932,302.231   463.565,304.529 466.175,307.687 467.043,311.073 467.043,314.673 467.043,318.508 467.043,322.419 467.043,326.353 466.83,329.952   466.175,332.905 464.653,334.876 461.807,335.515 458.322,335.629 454.822,335.949 451.443,336.284 448.278,336.398   445.112,336.398 441.733,336.398 438.355,336.398 435.189,336.398 432.146,335.751 429.079,333.773 426.568,331.041   425.145,328.096 424.277,324.93 423.402,321.552 422.755,318.173 422.535,315.007 423.067,312.062 424.711,309.331 427.123,307.253   429.946,306.287 433.013,306.066 436.057,306.287 439.124,306.607 442.167,306.721 445.234,306.607 448.278,306.287   451.223,305.632 453.954,304.529 455.933,303.342 456.587,302.353 "
     id="polyline3213"
     transform="matrix(0.56446936,0,0,0.57240056,-192.13202,-124.87389)"
     style="fill:none;stroke:#000000;stroke-width:3;stroke-miterlimit:2.61310005" /><polygon
     points="449.586,305.853 452.212,305.853 452.212,305.853 451.344,305.853 "
     transform="matrix(0.56446936,0,0,0.57240056,-192.13202,-124.87389)"
     id="polygon3215"
     style="fill:#ffffff;fill-rule:evenodd" /><polyline
     stroke-miterlimit="2.6131"
     points="452.212,305.853 451.344,305.853   449.586,305.853 "
     id="polyline3217"
     transform="matrix(0.56446936,0,0,0.57240056,-192.13202,-124.87389)"
     style="fill:none;stroke:#131e1f;stroke-width:3;stroke-miterlimit:2.61310005" /><polygon
     points="433.888,305.853 451.344,305.853 451.344,305.853 444.366,332.03 "
     transform="matrix(0.56446936,0,0,0.57240056,-192.13202,-124.87389)"
     id="polygon3219"
     style="fill:#ffffff;fill-rule:evenodd;stroke:#000000;stroke-miterlimit:10" /><polygon
     points="433.888,305.853 451.344,305.853 451.344,305.853 444.366,332.03 "
     transform="matrix(0.56446936,0,0,0.57240056,-192.13202,-124.87389)"
     id="polygon3221"
     style="fill:none;stroke:#000000;stroke-width:3;stroke-miterlimit:2.61310005" /><polygon
     points="442.601,318.287 442.601,322.419 442.822,324.397 443.476,323.294 444.146,320.585 444.366,317.633 444.465,314.574 444.8,311.53 445.013,308.996 444.8,307.588 444.245,306.941 443.476,306.721 443.476,306.721 442.822,306.721 442.601,306.721 442.601,308.227 442.601,312.831 "
     transform="matrix(0.56446936,0,0,0.57240056,-192.13202,-124.87389)"
     id="polygon3223"
     style="fill:#71acd9;fill-rule:evenodd;stroke:#000000;stroke-miterlimit:10" /><polygon
     points="442.601,318.287 442.601,322.419 442.822,324.397 443.476,323.294 444.146,320.585 444.366,317.633 444.465,314.574 444.8,311.53 445.013,308.996 444.8,307.588 444.245,306.941 443.476,306.721 443.476,306.721 442.822,306.721 442.601,306.721 442.601,308.227 442.601,312.831 "
     transform="matrix(0.56446936,0,0,0.57240056,-192.13202,-124.87389)"
     id="polygon3225"
     style="fill:#ffffff;stroke:#000000;stroke-width:3;stroke-miterlimit:2.61310005" /><polygon
     points="433.013,304.864 433.013,308.03 433.766,310.221 436.057,310.639 438.568,309.551 439.991,307.154 440.113,304.209 438.69,301.485 436.711,299.507 435.189,298.868 434.101,298.753 433.447,298.419 433.447,298.419 433.112,298.099 433.013,297.985 433.013,298.852 433.013,301.485 "
     transform="matrix(0.56446936,0,0,0.57240056,-192.13202,-124.87389)"
     id="polygon3227"
     style="fill:#ffffff;fill-rule:evenodd;stroke:#000000;stroke-miterlimit:10" /><polygon
     points="433.013,304.864 433.013,308.03 433.766,310.221 436.057,310.639 438.568,309.551 439.991,307.154 440.113,304.209 438.69,301.485 436.711,299.507 435.189,298.868 434.101,298.753 433.447,298.419 433.447,298.419 433.112,298.099 433.013,297.985 433.013,298.852 433.013,301.485 "
     transform="matrix(0.56446936,0,0,0.57240056,-192.13202,-124.87389)"
     id="polygon3229"
     style="fill:none;stroke:#000000;stroke-width:3;stroke-miterlimit:2.61310005" /><polygon
     points="442.403,292.772 442.03,292.605 441.642,292.46 441.246,292.323 440.843,292.209 440.432,292.11 440.006,292.027 439.58,291.958 439.146,291.912 438.705,291.882 438.256,291.874 437.807,291.882 437.366,291.912 436.932,291.958 436.498,292.027 436.08,292.11 435.669,292.209 435.258,292.323 434.862,292.46 434.482,292.605 434.101,292.772 433.736,292.955 433.386,293.145 433.044,293.351 432.716,293.571 432.397,293.807 432.092,294.051 431.803,294.31 431.529,294.584 431.271,294.865 431.027,295.154 430.799,295.459 430.586,295.771 430.395,296.09 430.22,296.417 430.068,296.752 429.931,297.102 429.809,297.452 429.71,297.81 429.634,298.175 429.581,298.548 429.543,298.928 429.535,299.309 429.543,299.689 429.581,300.062 429.634,300.435 429.71,300.801 429.809,301.158 429.931,301.516 430.068,301.858 430.22,302.193 430.395,302.528 430.586,302.847 430.799,303.159 431.027,303.456 431.271,303.753 431.529,304.034 431.803,304.301 432.092,304.559 432.397,304.803 432.716,305.039 433.044,305.26 433.386,305.465 433.736,305.663 434.101,305.838 434.482,306.005 434.862,306.158 435.258,306.287 435.669,306.409 436.08,306.508 436.498,306.591 436.932,306.652 437.366,306.705 437.807,306.728 438.256,306.743 438.705,306.728 439.146,306.705 439.58,306.652 440.006,306.591 440.432,306.508 440.843,306.409 441.246,306.287 441.642,306.158 442.03,306.005 442.403,305.838 442.768,305.663 443.126,305.465 443.468,305.26 443.796,305.039 444.115,304.803 444.412,304.559 444.701,304.301 444.975,304.034 445.234,303.753 445.477,303.456 445.706,303.159 445.919,302.847 446.109,302.528 446.284,302.193 446.444,301.858 446.581,301.516 446.695,301.158 446.794,300.801 446.87,300.435 446.931,300.062 446.961,299.689 446.976,299.309 446.976,299.309 446.961,298.928 446.931,298.548 446.87,298.175 446.794,297.81 446.695,297.452 446.581,297.102 446.444,296.752 446.284,296.417 446.109,296.09 445.919,295.771 445.706,295.459 445.477,295.154 445.234,294.865 444.975,294.584 444.701,294.31 444.412,294.051 444.115,293.807 443.796,293.571 443.468,293.351 443.126,293.145 442.768,292.955 "
     transform="matrix(0.56446936,0,0,0.57240056,-192.13202,-124.87389)"
     id="polygon3231"
     style="fill:#c6e2e0;fill-rule:evenodd" /><path
     d="m 60.172264,46.450739 -0.0079,-0.218084 -0.01747,-0.217512 -0.0344,-0.213505 -0.04294,-0.208926 -0.05594,-0.204921 -0.06434,-0.20034 -0.07735,-0.20034 -0.09034,-0.191754 -0.09876,-0.187176 -0.107286,-0.183168 -0.120287,-0.178588 -0.12869,-0.17401 -0.137161,-0.165423 -0.146208,-0.160845 -0.154653,-0.156838 -0.163136,-0.148252 -0.167652,-0.139664 -0.180062,-0.135089 -0.184579,-0.126494 -0.193049,-0.117917 -0.202085,-0.108761 -0.206023,-0.104754 -0.210554,-0.09559 -0.21901,-0.083 -0.223529,-0.07842 -0.22748,-0.06525 -0.231998,-0.05667 -0.240468,-0.04808 -0.240468,-0.03951 -0.244973,-0.02633 -0.248937,-0.01717 -0.253443,-0.0045 -0.253442,0.0045 -0.248937,0.01717 -0.244985,0.02633 -0.244973,0.03951 -0.235951,0.04808 -0.231997,0.05667 -0.231998,0.06525 -0.223528,0.07842 -0.214494,0.083 -0.214507,0.09559 -0.206023,0.104754 -0.197567,0.108761 -0.193049,0.117917 -0.18458,0.126494 -0.180626,0.135089 -0.171605,0.139664 -0.163135,0.148252 -0.154666,0.156838 -0.146196,0.160845 -0.137725,0.165423 -0.128691,0.17401 -0.120286,0.178588 -0.107287,0.183168 -0.09875,0.187176 -0.08575,0.191754 -0.07735,0.20034 -0.06882,0.20034 -0.05594,0.204921 -0.04294,0.208926 -0.02994,0.213505 -0.02141,0.217512 -0.0039,0.218084 0.0039,0.217513 0.02141,0.213505 0.02994,0.213505 0.04294,0.208926 0.05594,0.20492 0.06882,0.204347 0.07735,0.196333 0.08575,0.191755 0.09875,0.191753 0.107287,0.182596 0.120286,0.17859 0.128691,0.170002 0.137725,0.170004 0.146196,0.160844 0.154666,0.152258 0.163135,0.148252 0.171605,0.139666 0.180626,0.135088 0.18458,0.126494 0.193049,0.117341 0.197567,0.113332 0.206023,0.10017 0.214507,0.09616 0.214494,0.087 0.223528,0.07384 0.231998,0.06983 0.231997,0.05667 0.235951,0.04808 0.244973,0.03492 0.244985,0.03034 0.248937,0.01318 0.253442,0.0087 0.253443,-0.0087 0.248937,-0.01318 0.244973,-0.03034 0.240468,-0.03492 0.240468,-0.04808 0.231998,-0.05667 0.22748,-0.06983 0.223529,-0.07384 0.21901,-0.087 0.210554,-0.09616 0.206023,-0.10017 0.202085,-0.113332 0.193049,-0.117341 0.184579,-0.126494 0.180062,-0.135088 0.167652,-0.139666 0.163136,-0.148252 0.154653,-0.152258 0.146208,-0.160844 0.137161,-0.170004 0.12869,-0.170002 0.120287,-0.17859 0.107286,-0.182596 0.09876,-0.191753 0.09034,-0.191755 0.07735,-0.196333 0.06434,-0.204347 0.05594,-0.20492 0.04294,-0.208926 0.0344,-0.213505 0.01747,-0.213505 0.0079,-0.217513"
     id="path3233"
     style="fill:#b5b5b6;stroke:#131e1f;stroke-width:1.70526326;stroke-miterlimit:2.61310005" /><polygon
     points="441.3,308.03 442.723,304.963 444.366,301.919 445.668,299.507 446.101,298.419 446.101,297.886 446.101,297.11 446.101,297.11 446.101,296.463 446.101,296.242 446.756,296.463 448.711,297.11 451.565,298.099 454.822,299.309 458.109,300.709 460.932,302.353 463.345,304.529 465.308,307.588 466.175,310.875 465.308,313.699 463.23,316.096 460.499,318.074 457.455,319.261 454.388,319.375 451.344,318.721 448.278,317.633 445.333,315.997 442.601,313.699 440.965,310.974 "
     transform="matrix(0.56446936,0,0,0.57240056,-192.13202,-124.87389)"
     id="polygon3235"
     style="fill:#b5b5b6;fill-rule:evenodd;stroke:#000000;stroke-miterlimit:10" /><polygon
     points="441.3,308.03 442.723,304.963 444.366,301.919 445.668,299.507 446.101,298.419 446.101,297.886 446.101,297.11 446.101,297.11 446.101,296.463 446.101,296.242 446.756,296.463 448.711,297.11 451.565,298.099 454.822,299.309 458.109,300.709 460.932,302.353 463.345,304.529 465.308,307.588 466.175,310.875 465.308,313.699 463.23,316.096 460.499,318.074 457.455,319.261 454.388,319.375 451.344,318.721 448.278,317.633 445.333,315.997 442.601,313.699 440.965,310.974 "
     transform="matrix(0.56446936,0,0,0.57240056,-192.13202,-124.87389)"
     id="polygon3237"
     style="fill:none;stroke:#000000;stroke-width:3;stroke-miterlimit:2.61310005" /><polygon
     points="430.388,300.61 429.3,299.187 429.513,298.419 429.513,298.419 430.167,298.099 430.388,297.985 429.634,297.665 427.336,296.676 424.277,295.588 421.226,294.934 418.281,295.154 415.557,296.676 414.233,298.753 415.557,300.61 417.094,302.566 416.424,304.963 415.869,307.474 417.733,309.764 420.792,310.974 423.836,310.198 426.903,308.897 429.946,308.463 432.146,307.71 432.579,305.419 431.811,302.665 "
     transform="matrix(0.56446936,0,0,0.57240056,-192.13202,-124.87389)"
     id="polygon3239"
     style="fill:#ffffff;fill-rule:evenodd;stroke:#000000;stroke-miterlimit:10" /><polygon
     points="430.388,300.61 429.3,299.187 429.513,298.419 429.513,298.419 430.167,298.099 430.388,297.985 429.634,297.665 427.336,296.676 424.277,295.588 421.226,294.934 418.281,295.154 415.557,296.676 414.233,298.753 415.557,300.61 417.094,302.566 416.424,304.963 415.869,307.474 417.733,309.764 420.792,310.974 423.836,310.198 426.903,308.897 429.946,308.463 432.146,307.71 432.579,305.419 431.811,302.665 "
     transform="matrix(0.56446936,0,0,0.57240056,-192.13202,-124.87389)"
     id="polygon3241"
     style="fill:none;stroke:#000000;stroke-width:3;stroke-miterlimit:2.61310005" /><polygon
     points="447.844,238.638 443.689,239.08 439.991,240.381 436.498,241.37 433.013,240.815 429.634,239.613 426.469,238.638 423.623,238.836 421.226,241.249 419.59,244.848 419.034,248.668 419.369,252.282 420.358,255.212 422.2,257.502 425.145,259.146 428.866,259.481 433.013,257.845 438.134,255.646 444.8,254.345 450.69,254.558 453.521,256.97 455.157,259.268 457.455,259.146 459.41,258.811 460.065,260.455 459.844,263.179 459.197,266.124 459.197,268.422 460.932,269.191 463.565,269.411 466.175,270.058 467.933,271.466 467.918,274 467.598,276.945 468.351,279.654 469.987,281.731 472.286,282.72 474.264,282.279 474.896,280.087 475.01,277.69 475.352,276.61 475.565,276.267 475.352,276.169 475.352,276.169 475.01,276.169 474.896,276.169 475.23,275.423 476.22,273.109 477.308,270.058 477.962,266.999 478.396,263.955 478.83,260.889 479.165,257.845 479.264,254.778 478.83,251.833 477.521,249.124 475.451,246.491 472.719,243.881 469.676,241.804 466.609,240.815 463.664,240.602 460.932,240.815 458.208,240.815 455.256,239.947 451.877,238.958 "
     transform="matrix(0.56446936,0,0,0.57240056,-192.13202,-124.87389)"
     id="polygon3243"
     style="fill-rule:evenodd" /><polygon
     points="447.844,238.638 443.689,239.08 439.991,240.381 436.498,241.37 433.013,240.815 429.634,239.613 426.469,238.638 423.623,238.836 421.226,241.249 419.59,244.848 419.034,248.668 419.369,252.282 420.358,255.212 422.2,257.502 425.145,259.146 428.866,259.481 433.013,257.845 438.134,255.646 444.8,254.345 450.69,254.558 453.521,256.97 455.157,259.268 457.455,259.146 459.41,258.811 460.065,260.455 459.844,263.179 459.197,266.124 459.197,268.422 460.932,269.191 463.565,269.411 466.175,270.058 467.933,271.466 467.918,274 467.598,276.945 468.351,279.654 469.987,281.731 472.286,282.72 474.264,282.279 474.896,280.087 475.01,277.69 475.352,276.61 475.565,276.267 475.352,276.169 475.352,276.169 475.01,276.169 474.896,276.169 475.23,275.423 476.22,273.109 477.308,270.058 477.962,266.999 478.396,263.955 478.83,260.889 479.165,257.845 479.264,254.778 478.83,251.833 477.521,249.124 475.451,246.491 472.719,243.881 469.676,241.804 466.609,240.815 463.664,240.602 460.932,240.815 458.208,240.815 455.256,239.947 451.877,238.958 "
     transform="matrix(0.56446936,0,0,0.57240056,-192.13202,-124.87389)"
     id="polygon3245"
     style="stroke:#131e1f;stroke-width:0.96380001;stroke-miterlimit:2.61310005" /><polygon
     points="451.778,353.405 451.01,355.916 453.087,357.339 456.465,357.993 459.631,358.214 462.355,357.461 464.433,355.163 464.988,352.75 463.131,351.67 460.377,351.327 458.322,351.229 456.587,351.449 454.822,352.104 460.065,349.494 460.065,349.494 459.312,349.593 457.021,349.927 454.175,351.015 "
     transform="matrix(0.56446936,0,0,0.57240056,-192.13202,-124.87389)"
     id="polygon3247"
     style="fill:#ffffff;fill-rule:evenodd;stroke:#000000;stroke-miterlimit:10" /><polyline
     stroke-miterlimit="2.6131"
     points="460.065,349.494 459.312,349.593   457.021,349.927 454.175,351.015 451.778,353.405 451.01,355.916 453.087,357.339 456.465,357.993 459.631,358.214 462.355,357.461   464.433,355.163 464.988,352.75 463.131,351.67 460.377,351.327 458.322,351.229 456.587,351.449 454.822,352.104 "
     id="polyline3249"
     transform="matrix(0.56446936,0,0,0.57240056,-192.13202,-124.87389)"
     style="fill:none;stroke:#000000;stroke-width:3;stroke-miterlimit:2.61310005" /><polygon
     points="435.189,350.46 432.579,350.795 429.946,352.636 428.211,355.604 428.09,358.328 430.388,359.515 433.667,359.416 436.498,358.214 438.355,356.472 438.69,354.714 438.355,353.626 438.256,353.839 438.256,353.839 438.256,354.516 438.256,354.714 437.921,354.082 436.932,352.104 "
     transform="matrix(0.56446936,0,0,0.57240056,-192.13202,-124.87389)"
     id="polygon3251"
     style="fill:#ffffff;fill-rule:evenodd;stroke:#000000;stroke-miterlimit:10" /><polygon
     points="435.189,350.46 432.579,350.795 429.946,352.636 428.211,355.604 428.09,358.328 430.388,359.515 433.667,359.416 436.498,358.214 438.355,356.472 438.69,354.714 438.355,353.626 438.256,353.839 438.256,353.839 438.256,354.516 438.256,354.714 437.921,354.082 436.932,352.104 "
     transform="matrix(0.56446936,0,0,0.57240056,-192.13202,-124.87389)"
     id="polygon3253"
     style="fill:none;stroke:#000000;stroke-width:3;stroke-miterlimit:2.61310005" /><circle
     cx="432.621"
     cy="274.03799"
     r="0.588"
     transform="matrix(0.56446936,0,0,0.57240056,-192.13202,-124.87389)"
     id="circle3255"
     style="fill:#ffffff;fill-rule:evenodd;stroke:#000000;stroke-miterlimit:2.61310005" /><circle
     cx="448.737"
     cy="274.03799"
     r="0.588"
     transform="matrix(0.56446936,0,0,0.57240056,-192.13202,-124.87389)"
     id="circle3257"
     style="fill:#ffffff;fill-rule:evenodd;stroke:#000000;stroke-miterlimit:2.61310005" /></svg>