<?xml version="1.0" encoding="utf-8"?>
<!-- Generator: Adobe Illustrator 17.1.0, SVG Export Plug-In . SVG Version: 6.00 Build 0)  -->
<!DOCTYPE svg PUBLIC "-//W3C//DTD SVG 1.1//EN" "http://www.w3.org/Graphics/SVG/1.1/DTD/svg11.dtd">
<svg version="1.1"
	 id="レイヤー_1" xmlns:inkscape="http://www.inkscape.org/namespaces/inkscape" xmlns:sodipodi="http://sodipodi.sourceforge.net/DTD/sodipodi-0.dtd" xmlns:dc="http://purl.org/dc/elements/1.1/" xmlns:cc="http://creativecommons.org/ns#" xmlns:rdf="http://www.w3.org/1999/02/22-rdf-syntax-ns#" xmlns:svg="http://www.w3.org/2000/svg" inkscape:version="0.48.4 r" sodipodi:docname="1-2r.svg"
	 xmlns="http://www.w3.org/2000/svg" xmlns:xlink="http://www.w3.org/1999/xlink" x="0px" y="0px" viewBox="0 0 100 100"
	 enable-background="new 0 0 100 100" xml:space="preserve">
<sodipodi:namedview  pagecolor="#ffffff" showgrid="false" guidetolerance="10" inkscape:cx="50" gridtolerance="10" inkscape:cy="50" objecttolerance="10" inkscape:zoom="2.36" borderopacity="1" bordercolor="#666666" id="namedview3301" inkscape:window-maximized="0" inkscape:pageopacity="0" inkscape:window-y="0" inkscape:window-height="480" inkscape:current-layer="レイヤー_1" inkscape:window-x="0" inkscape:pageshadow="2" inkscape:window-width="834">
	</sodipodi:namedview>
<circle id="circle3264" fill="#B2B2B2" cx="50" cy="50" r="50"/>
<g id="レイヤー_2">
	<path id="path3267" fill="none" stroke="#231815" stroke-miterlimit="10" d="M60,159.1"/>
</g>
<polygon id="polygon3173" points="38.7,32.4 37.9,34 37.6,35.8 37.4,37.5 37.6,39.3 37.9,41 38.2,42.8 38.2,44.5 37.8,46.3 37.2,48 
	36.6,49.8 36.5,51.5 36.6,53.3 36.9,55.3 37.8,57.1 39.4,58.8 41.3,60.1 43.1,61 44.9,61.6 46.8,61.8 48.7,61.7 50.5,61.5 
	52.3,61.1 54.4,60.3 56.7,59.3 58.9,58.3 60.8,57.1 62.1,55.8 62.8,54.1 63.1,52.3 63.1,50.5 63.3,49 63.5,48.1 63.5,47.8 
	63.5,47.8 63.5,47.2 63.5,45.3 63.5,42.9 63.3,40.8 63.1,38.8 63.1,37 62.9,35.3 62.3,33.5 61.3,31.9 59.9,30.5 58.1,29.4 
	56.2,28.5 54,28 51.5,27.8 48.9,27.8 46.8,27.8 44.9,28 43.1,28.5 41.4,29.5 39.9,30.8 "/>
<polygon id="polygon3215" fill="#FFFFFF" points="62.6,50.2 61.6,50.2 63.1,50.2 63.1,50.2 "/>
</svg>
