<?xml version="1.0" encoding="utf-8"?>
<!-- Generator: Adobe Illustrator 17.1.0, SVG Export Plug-In . SVG Version: 6.00 Build 0)  -->
<!DOCTYPE svg PUBLIC "-//W3C//DTD SVG 1.1//EN" "http://www.w3.org/Graphics/SVG/1.1/DTD/svg11.dtd">
<svg version="1.1" id="レイヤー_1" xmlns="http://www.w3.org/2000/svg" xmlns:xlink="http://www.w3.org/1999/xlink" x="0px"
	 y="0px" viewBox="371.4 248.2 100 100" enable-background="new 371.4 248.2 100 100" xml:space="preserve">
<rect x="394.5" y="304.1" fill="#FFFFFF" stroke="#000000" stroke-width="3" stroke-miterlimit="10" width="15.8" height="20.7"/>
<rect x="390.8" y="299.6" fill="#FFFFFF" stroke="#000000" stroke-width="3" stroke-miterlimit="10" width="26.1" height="6.8"/>
<polyline fill="none" stroke="#000000" stroke-width="3" stroke-miterlimit="10" points="400.8,298.6 402.4,298.6 405.1,298.6 "/>
<path fill="none" stroke="#000000" stroke-width="3" stroke-miterlimit="10" d="M402.4,298.6v-5.8c0,0,5.3-4.9,7.5-4.8"/>
<ellipse cx="410" cy="287.8" rx="1.8" ry="2.2"/>
<polygon fill="#B5B5B6" stroke="#000000" stroke-miterlimit="10" points="444.3,314.2 444.5,314.1 444.5,314 444.5,314.4 
	444.5,315.5 444.5,317.1 444.3,318.8 443.7,320.4 442.3,321.5 440.6,322.1 439,322.1 437.7,321.6 437.2,320.4 437,318.8 437,317.1 
	436.7,315.8 435.7,315.5 434.6,316.1 434.1,317.3 433.8,318.8 433.4,320.4 432.7,321.7 431.4,322.5 430,322.9 428.6,322.5 
	427.6,321.6 427.2,320.1 427.2,318.4 427.2,316.9 427.7,315.4 429.2,314.2 431.1,313.3 432.8,312.7 434.4,312.4 436.1,312.3 
	437.8,312.3 439.4,312.3 440.9,312.5 442.3,313.4 443.4,314.2 443.9,314.5 444.1,314.4 "/>
<polygon fill="none" stroke="#000000" stroke-width="3" stroke-miterlimit="2.6131" points="444.3,314.2 444.5,314.1 444.5,314 
	444.5,314.4 444.5,315.5 444.5,317.1 444.3,318.8 443.7,320.4 442.3,321.5 440.6,322.1 439,322.1 437.7,321.6 437.2,320.4 
	437,318.8 437,317.1 436.7,315.8 435.7,315.5 434.6,316.1 434.1,317.3 433.8,318.8 433.4,320.4 432.7,321.7 431.4,322.5 430,322.9 
	428.6,322.5 427.6,321.6 427.2,320.1 427.2,318.4 427.2,316.9 427.7,315.4 429.2,314.2 431.1,313.3 432.8,312.7 434.4,312.4 
	436.1,312.3 437.8,312.3 439.4,312.3 440.9,312.5 442.3,313.4 443.4,314.2 443.9,314.5 444.1,314.4 "/>
<polygon fill="#CAD1E2" stroke="#000000" stroke-miterlimit="10" points="429.4,303.3 429.8,303.1 429.9,303.1 429.5,303.4 
	428.3,304.2 426.8,305.4 425.5,307 424.2,308.7 423.2,310.3 422.5,311.8 422.1,313.4 421.5,314.6 420.1,315.1 418.4,315.2 
	416.6,314.9 415.2,314.2 414.6,312.9 414.7,311.4 415.3,309.9 416.2,308.3 417.3,306.8 418.5,305.3 420.1,303.8 421.9,302.4 
	423.5,301.3 425,300.9 426.3,301.3 427.5,302.2 428.3,302.9 428.9,303.3 "/>
<polygon fill="#FFFFFF" stroke="#000000" stroke-width="3" stroke-miterlimit="2.6131" points="429.4,303.3 429.8,303.1 
	429.9,303.1 429.5,303.4 428.3,304.2 426.8,305.4 425.5,307 424.2,308.7 423.2,310.3 422.5,311.8 422.1,313.4 421.5,314.6 
	420.1,315.1 418.4,315.2 416.6,314.9 415.2,314.2 414.6,312.9 414.7,311.4 415.3,309.9 416.2,308.3 417.3,306.8 418.5,305.3 
	420.1,303.8 421.9,302.4 423.5,301.3 425,300.9 426.3,301.3 427.5,302.2 428.3,302.9 428.9,303.3 "/>
<polygon fill="#FFFFFF" stroke="#000000" stroke-miterlimit="10" points="412.6,315.3 424.1,315.3 424.1,304 412.6,304 "/>
<polygon fill="none" stroke="#000000" stroke-width="3" stroke-miterlimit="2.6131" points="412.6,315.3 424.1,315.3 424.1,304 
	412.6,304 "/>
<polygon fill="#FFFFFF" stroke="#000000" stroke-width="3" stroke-miterlimit="2.6131" points="422.1,315.3 422,315.3 421.9,315.3 
	422,315 422.4,314 422.3,313 421.2,312.7 419.7,312.8 418.1,312.9 416.9,313.4 416.4,314.5 416.6,315.5 417.7,316.2 419.3,316.4 
	420.8,316.2 422,315.8 422.4,315.5 422.3,315.4 "/>
<polygon fill="none" stroke="#000000" stroke-width="0.9638" stroke-miterlimit="2.6131" points="422.1,315.3 422,315.3 
	421.9,315.3 422,315 422.4,314 422.3,313 421.2,312.7 419.7,312.8 418.1,312.9 416.9,313.4 416.4,314.5 416.6,315.5 417.7,316.2 
	419.3,316.4 420.8,316.2 422,315.8 422.4,315.5 422.3,315.4 "/>
<polygon points="448.5,287.8 448.5,287.3 448.5,285.6 448.5,283.5 448.3,281.7 448.1,280 448.1,278.4 447.9,276.9 447.4,275.3 
	446.5,273.9 445.2,272.7 443.6,271.7 441.9,271 439.9,270.5 437.6,270.3 435.4,270.3 433.4,270.3 431.7,270.5 430.1,271 
	428.6,271.8 427.2,272.9 426.1,274.3 425.5,275.8 425.1,277.3 425,278.8 425.1,280.4 425.5,281.9 425.7,283.4 425.7,285 
	425.4,286.5 424.8,288 424.3,289.5 424.1,291.1 424.2,292.7 424.6,294.4 425.3,296 426.8,297.4 428.5,298.6 430.1,299.4 
	431.7,299.9 433.4,300 435.1,300 436.8,299.8 438.4,299.4 440.3,298.7 442.3,297.8 444.3,297 446,296 447.2,294.8 447.8,293.4 
	448.1,291.7 448.1,290.1 448.3,288.9 448.5,288.1 "/>
<polygon fill="#FFFFFF" stroke="#000000" stroke-width="3" stroke-miterlimit="2.6131" points="448.5,287.8 448.5,287.3 
	448.5,285.6 448.5,283.5 448.3,281.7 448.1,280 448.1,278.4 447.9,276.9 447.4,275.3 446.5,273.9 445.2,272.7 443.6,271.7 
	441.9,271 439.9,270.5 437.6,270.3 435.4,270.3 433.4,270.3 431.7,270.5 430.1,271 428.6,271.8 427.2,272.9 426.1,274.3 
	425.5,275.8 425.1,277.3 425,278.8 425.1,280.4 425.5,281.9 425.7,283.4 425.7,285 425.4,286.5 424.8,288 424.3,289.5 424.1,291.1 
	424.2,292.7 424.6,294.4 425.3,296 426.8,297.4 428.5,298.6 430.1,299.4 431.7,299.9 433.4,300 435.1,300 436.8,299.8 438.4,299.4 
	440.3,298.7 442.3,297.8 444.3,297 446,296 447.2,294.8 447.8,293.4 448.1,291.7 448.1,290.1 448.3,288.9 448.5,288.1 "/>
<polygon fill="#131E1F" points="438.9,279.6 438.9,279.6 439.3,279.5 439.1,278.6 438.7,278.7 438.9,279.6 438.7,278.7 438.6,278.8 
	438.6,278.8 438.6,278.8 438.5,278.8 438.5,278.9 438.5,278.9 438.4,278.9 438.4,279 438.4,279 438.4,279 438.4,279.1 438.4,279.1 
	438.4,279.2 438.4,279.2 438.4,279.2 438.4,279.3 438.4,279.3 438.4,279.4 438.4,279.4 438.5,279.4 438.5,279.5 438.5,279.5 
	438.5,279.5 438.6,279.5 438.6,279.6 438.7,279.6 438.7,279.6 438.7,279.6 438.8,279.6 438.8,279.6 438.9,279.6 "/>
<polygon fill="#131E1F" points="437.5,279.1 437.8,279.9 438.9,279.6 438.7,278.7 437.5,279.1 437.5,279.1 437.5,279.1 437.5,279.1 
	437.4,279.1 437.4,279.1 437.4,279.2 437.3,279.2 437.3,279.2 437.3,279.3 437.2,279.3 437.2,279.3 437.2,279.4 437.2,279.4 
	437.2,279.5 437.2,279.5 437.2,279.5 437.2,279.6 437.2,279.6 437.2,279.7 437.3,279.7 437.3,279.7 437.3,279.8 437.3,279.8 
	437.3,279.8 437.4,279.8 437.4,279.9 437.4,279.9 437.5,279.9 437.5,279.9 437.6,279.9 437.6,279.9 437.7,279.9 437.7,279.9 
	437.8,279.9 "/>
<polygon fill="#131E1F" points="436,279.5 436.3,280.3 437.8,279.9 437.5,279.1 436,279.5 436,279.5 436,279.5 436,279.5 
	435.9,279.5 435.9,279.6 435.9,279.6 435.8,279.6 435.8,279.7 435.8,279.7 435.7,279.7 435.7,279.8 435.7,279.8 435.7,279.9 
	435.7,279.9 435.7,279.9 435.7,280 435.7,280 435.7,280.1 435.7,280.1 435.8,280.1 435.8,280.2 435.8,280.2 435.8,280.2 
	435.9,280.3 435.9,280.3 435.9,280.3 436,280.3 436,280.3 436,280.4 436.1,280.4 436.1,280.4 436.2,280.4 436.2,280.4 436.3,280.3 
	"/>
<polygon fill="#131E1F" points="434.9,280.8 434.9,280.8 436.3,280.3 436,279.5 434.6,279.9 434.9,280.8 434.6,279.9 434.6,280 
	434.5,280 434.5,280 434.5,280 434.4,280.1 434.4,280.1 434.4,280.1 434.4,280.2 434.3,280.2 434.3,280.3 434.3,280.3 434.3,280.3 
	434.3,280.4 434.3,280.4 434.3,280.5 434.4,280.5 434.4,280.5 434.4,280.6 434.4,280.6 434.4,280.6 434.5,280.7 434.5,280.7 
	434.5,280.7 434.5,280.7 434.6,280.8 434.6,280.8 434.7,280.8 434.7,280.8 434.8,280.8 434.8,280.8 434.8,280.8 434.9,280.8 "/>
<polygon fill="#131E1F" points="433.5,280.9 433.9,281 434.9,280.8 434.7,279.9 433.7,280.2 433.5,280.9 433.7,280.2 433.6,280.2 
	433.6,280.2 433.5,280.2 433.5,280.2 433.5,280.3 433.4,280.3 433.4,280.3 433.4,280.4 433.4,280.4 433.3,280.4 433.3,280.5 
	433.3,280.5 433.3,280.6 433.3,280.6 433.3,280.7 433.3,280.7 433.3,280.7 433.4,280.8 433.4,280.8 433.4,280.8 433.4,280.9 
	433.4,280.9 433.5,280.9 433.5,281 433.5,281 433.6,281 433.6,281 433.7,281 433.7,281 433.8,281 433.8,281 433.9,281 "/>
<polygon fill="#131E1F" points="433.2,280.7 433.5,280.9 434,280.2 433.7,280 "/>
<polygon fill="#FFFFFF" points="429.9,280.4 429.6,280.2 428.6,279.7 427.5,279.2 426.8,278.8 426.3,278.6 425.9,278.2 "/>
<polygon fill="#131E1F" points="429.4,280.6 429.4,280.6 429.7,280.8 430.1,280 429.7,279.8 429.4,280.6 429.7,279.8 429.7,279.8 
	429.7,279.8 429.6,279.8 429.6,279.8 429.5,279.8 429.5,279.8 429.4,279.8 429.4,279.8 429.4,279.8 429.3,279.8 429.3,279.9 
	429.3,279.9 429.2,279.9 429.2,279.9 429.2,280 429.2,280 429.1,280.1 429.1,280.1 429.1,280.1 429.1,280.2 429.1,280.2 
	429.1,280.3 429.1,280.3 429.1,280.3 429.1,280.4 429.2,280.4 429.2,280.4 429.2,280.5 429.2,280.5 429.3,280.5 429.3,280.6 
	429.4,280.6 "/>
<polygon fill="#131E1F" points="428.8,279.3 428.4,280.1 429.4,280.6 429.8,279.8 428.8,279.3 428.8,279.3 428.8,279.3 428.7,279.3 
	428.7,279.3 428.6,279.3 428.6,279.3 428.5,279.3 428.5,279.3 428.4,279.3 428.4,279.3 428.4,279.3 428.3,279.3 428.3,279.4 
	428.3,279.4 428.2,279.4 428.2,279.4 428.2,279.5 428.2,279.5 428.2,279.6 428.1,279.6 428.1,279.6 428.1,279.7 428.1,279.7 
	428.1,279.8 428.1,279.8 428.1,279.8 428.1,279.9 428.2,279.9 428.2,279.9 428.2,280 428.2,280 428.3,280 428.3,280.1 428.4,280.1 
	"/>
<polygon fill="#131E1F" points="427.3,279.6 427.3,279.6 428.4,280.1 428.8,279.3 427.6,278.8 427.3,279.6 427.6,278.8 427.6,278.8 
	427.5,278.7 427.5,278.7 427.5,278.7 427.4,278.7 427.4,278.7 427.3,278.7 427.3,278.8 427.2,278.8 427.2,278.8 427.2,278.8 
	427.1,278.8 427.1,278.9 427.1,278.9 427.1,278.9 427.1,279 427,279 427,279.1 427,279.1 427,279.1 427,279.2 427,279.2 427,279.3 
	427,279.3 427,279.3 427,279.4 427.1,279.4 427.1,279.4 427.1,279.5 427.2,279.5 427.2,279.5 "/>
<polygon fill="#131E1F" points="426.6,279.2 426.6,279.2 427.3,279.6 427.6,278.8 427,278.4 426.6,279.2 427,278.4 426.9,278.4 
	426.9,278.4 426.8,278.4 426.8,278.4 426.7,278.4 426.7,278.4 426.7,278.4 426.6,278.4 426.6,278.4 426.6,278.5 426.5,278.5 
	426.5,278.5 426.5,278.5 426.4,278.6 426.4,278.6 426.4,278.6 426.4,278.7 426.4,278.7 426.3,278.8 426.3,278.8 426.3,278.8 
	426.3,278.9 426.3,278.9 426.4,279 426.4,279 426.4,279 426.4,279.1 426.4,279.1 426.5,279.1 426.5,279.2 426.5,279.2 426.6,279.2 
	"/>
<polygon fill="#131E1F" points="426.1,278.9 426.1,278.9 426.6,279.2 427,278.5 426.6,278.2 426.1,278.9 426.6,278.2 426.5,278.2 
	426.5,278.2 426.4,278.1 426.4,278.1 426.4,278.1 426.3,278.1 426.3,278.1 426.2,278.1 426.2,278.2 426.2,278.2 426.1,278.2 
	426.1,278.2 426.1,278.2 426,278.3 426,278.3 426,278.3 426,278.4 425.9,278.4 425.9,278.4 425.9,278.5 425.9,278.5 425.9,278.6 
	425.9,278.6 425.9,278.6 425.9,278.7 425.9,278.7 425.9,278.8 426,278.8 426,278.8 426,278.9 426.1,278.9 426.1,278.9 "/>
<polygon fill="#131E1F" points="425.6,278.5 426.1,278.9 426.6,278.2 426.2,277.9 "/>
<polygon fill="#FFFFFF" stroke="#000000" stroke-miterlimit="2.6131" points="438.3,283.2 438.3,283.1 438.3,283 438.3,282.8 
	438.3,282.7 438.3,282.6 438.2,282.5 438.2,282.4 438.2,282.3 438.2,282.2 438.1,282.1 438.1,282 438,281.9 438,281.8 438,281.7 
	437.9,281.6 437.9,281.5 437.8,281.4 437.7,281.4 437.7,281.3 437.6,281.2 437.6,281.2 437.5,281.1 437.4,281 437.4,281 437.3,281 
	437.2,280.9 437.1,280.9 437.1,280.9 437,280.8 436.9,280.8 436.8,280.8 436.8,280.8 436.7,280.8 436.6,280.8 436.5,280.8 
	436.4,280.9 436.4,280.9 436.3,280.9 436.2,281 436.2,281 436.1,281 436,281.1 435.9,281.2 435.9,281.2 435.8,281.3 435.8,281.4 
	435.7,281.4 435.7,281.5 435.6,281.6 435.6,281.7 435.5,281.8 435.5,281.9 435.4,282 435.4,282.1 435.4,282.2 435.3,282.3 
	435.3,282.4 435.3,282.5 435.2,282.6 435.2,282.7 435.2,282.8 435.2,283 435.2,283.1 435.2,283.2 435.2,283.3 435.2,283.5 
	435.2,283.6 435.2,283.7 435.2,283.8 435.3,283.9 435.3,284 435.3,284.1 435.4,284.2 435.4,284.3 435.4,284.4 435.5,284.5 
	435.5,284.6 435.6,284.7 435.6,284.8 435.7,284.9 435.7,285 435.8,285.1 435.8,285.1 435.9,285.2 435.9,285.3 436,285.3 
	436.1,285.4 436.2,285.4 436.2,285.5 436.3,285.5 436.4,285.5 436.4,285.6 436.5,285.6 436.6,285.6 436.7,285.6 436.8,285.6 
	436.8,285.6 436.9,285.6 437,285.6 437.1,285.6 437.1,285.5 437.2,285.5 437.3,285.5 437.4,285.4 437.4,285.4 437.5,285.3 
	437.6,285.3 437.6,285.2 437.7,285.1 437.7,285.1 437.8,285 437.9,284.9 437.9,284.8 438,284.7 438,284.6 438,284.5 438.1,284.4 
	438.1,284.3 438.2,284.2 438.2,284.1 438.2,284 438.2,283.9 438.3,283.8 438.3,283.7 438.3,283.6 438.3,283.5 438.3,283.3 "/>
<polyline fill="none" stroke="#131E1F" stroke-width="0.9638" stroke-miterlimit="2.6131" points="438.3,283.2 438.3,283.1 
	438.3,283 438.3,282.8 438.3,282.7 438.3,282.6 438.2,282.5 438.2,282.4 438.2,282.3 438.2,282.2 438.1,282.1 438.1,282 438,281.9 
	438,281.8 438,281.7 437.9,281.6 437.9,281.5 437.8,281.4 437.7,281.4 437.7,281.3 437.6,281.2 437.6,281.2 437.5,281.1 437.4,281 
	437.4,281 437.3,281 437.2,280.9 437.1,280.9 437.1,280.9 437,280.8 436.9,280.8 436.8,280.8 436.8,280.8 436.7,280.8 436.6,280.8 
	436.5,280.8 436.4,280.9 436.4,280.9 436.3,280.9 436.2,281 436.2,281 436.1,281 436,281.1 435.9,281.2 435.9,281.2 435.8,281.3 
	435.8,281.4 435.7,281.4 435.7,281.5 435.6,281.6 435.6,281.7 435.5,281.8 435.5,281.9 435.4,282 435.4,282.1 435.4,282.2 
	435.3,282.3 435.3,282.4 435.3,282.5 435.2,282.6 435.2,282.7 435.2,282.8 435.2,283 435.2,283.1 435.2,283.2 435.2,283.3 
	435.2,283.5 435.2,283.6 435.2,283.7 435.2,283.8 435.3,283.9 435.3,284 435.3,284.1 435.4,284.2 435.4,284.3 435.4,284.4 
	435.5,284.5 435.5,284.6 435.6,284.7 435.6,284.8 435.7,284.9 435.7,285 435.8,285.1 435.8,285.1 435.9,285.2 435.9,285.3 
	436,285.3 436.1,285.4 436.2,285.4 436.2,285.5 436.3,285.5 436.4,285.5 436.4,285.6 436.5,285.6 436.6,285.6 436.7,285.6 
	436.8,285.6 436.8,285.6 436.9,285.6 437,285.6 437.1,285.6 437.1,285.5 437.2,285.5 437.3,285.5 437.4,285.4 437.4,285.4 
	437.5,285.3 437.6,285.3 437.6,285.2 437.7,285.1 437.7,285.1 437.8,285 437.9,284.9 437.9,284.8 438,284.7 438,284.6 438,284.5 
	438.1,284.4 438.1,284.3 438.2,284.2 438.2,284.1 438.2,284 438.2,283.9 438.3,283.8 438.3,283.7 438.3,283.6 438.3,283.5 
	438.3,283.3 438.3,283.2 "/>
<polygon fill="#FFFFFF" stroke="#000000" stroke-miterlimit="2.6131" points="429.9,283.2 429.9,283.1 429.9,283 429.9,282.8 
	429.9,282.7 429.8,282.6 429.8,282.5 429.8,282.4 429.8,282.3 429.7,282.2 429.7,282.1 429.7,282 429.6,281.9 429.6,281.8 
	429.5,281.7 429.5,281.6 429.4,281.5 429.4,281.4 429.3,281.4 429.3,281.3 429.2,281.2 429.1,281.2 429.1,281.1 429,281 428.9,281 
	428.9,281 428.8,280.9 428.7,280.9 428.7,280.9 428.6,280.8 428.5,280.8 428.4,280.8 428.3,280.8 428.3,280.8 428.2,280.8 
	428.1,280.8 428,280.9 428,280.9 427.9,280.9 427.8,281 427.7,281 427.7,281 427.6,281.1 427.5,281.2 427.5,281.2 427.4,281.3 
	427.4,281.4 427.3,281.4 427.2,281.5 427.2,281.6 427.1,281.7 427.1,281.8 427.1,281.9 427,282 427,282.1 426.9,282.2 426.9,282.3 
	426.9,282.4 426.9,282.5 426.8,282.6 426.8,282.7 426.8,282.8 426.8,283 426.8,283.1 426.8,283.2 426.8,283.3 426.8,283.5 
	426.8,283.6 426.8,283.7 426.8,283.8 426.9,283.9 426.9,284 426.9,284.1 426.9,284.2 427,284.3 427,284.4 427.1,284.5 427.1,284.6 
	427.1,284.7 427.2,284.8 427.2,284.9 427.3,285 427.4,285.1 427.4,285.1 427.5,285.2 427.5,285.3 427.6,285.3 427.7,285.4 
	427.7,285.4 427.8,285.5 427.9,285.5 428,285.5 428,285.6 428.1,285.6 428.2,285.6 428.3,285.6 428.3,285.6 428.4,285.6 
	428.5,285.6 428.6,285.6 428.7,285.6 428.7,285.5 428.8,285.5 428.9,285.5 428.9,285.4 429,285.4 429.1,285.3 429.1,285.3 
	429.2,285.2 429.3,285.1 429.3,285.1 429.4,285 429.4,284.9 429.5,284.8 429.5,284.7 429.6,284.6 429.6,284.5 429.7,284.4 
	429.7,284.3 429.7,284.2 429.8,284.1 429.8,284 429.8,283.9 429.8,283.8 429.9,283.7 429.9,283.6 429.9,283.5 429.9,283.3 "/>
<polyline fill="none" stroke="#131E1F" stroke-width="0.9638" stroke-miterlimit="2.6131" points="429.9,283.2 429.9,283.1 
	429.9,283 429.9,282.8 429.9,282.7 429.8,282.6 429.8,282.5 429.8,282.4 429.8,282.3 429.7,282.2 429.7,282.1 429.7,282 
	429.6,281.9 429.6,281.8 429.5,281.7 429.5,281.6 429.4,281.5 429.4,281.4 429.3,281.4 429.3,281.3 429.2,281.2 429.1,281.2 
	429.1,281.1 429,281 428.9,281 428.9,281 428.8,280.9 428.7,280.9 428.7,280.9 428.6,280.8 428.5,280.8 428.4,280.8 428.3,280.8 
	428.3,280.8 428.2,280.8 428.1,280.8 428,280.9 428,280.9 427.9,280.9 427.8,281 427.7,281 427.7,281 427.6,281.1 427.5,281.2 
	427.5,281.2 427.4,281.3 427.4,281.4 427.3,281.4 427.2,281.5 427.2,281.6 427.1,281.7 427.1,281.8 427.1,281.9 427,282 427,282.1 
	426.9,282.2 426.9,282.3 426.9,282.4 426.9,282.5 426.8,282.6 426.8,282.7 426.8,282.8 426.8,283 426.8,283.1 426.8,283.2 
	426.8,283.3 426.8,283.5 426.8,283.6 426.8,283.7 426.8,283.8 426.9,283.9 426.9,284 426.9,284.1 426.9,284.2 427,284.3 427,284.4 
	427.1,284.5 427.1,284.6 427.1,284.7 427.2,284.8 427.2,284.9 427.3,285 427.4,285.1 427.4,285.1 427.5,285.2 427.5,285.3 
	427.6,285.3 427.7,285.4 427.7,285.4 427.8,285.5 427.9,285.5 428,285.5 428,285.6 428.1,285.6 428.2,285.6 428.3,285.6 
	428.3,285.6 428.4,285.6 428.5,285.6 428.6,285.6 428.7,285.6 428.7,285.5 428.8,285.5 428.9,285.5 428.9,285.4 429,285.4 
	429.1,285.3 429.1,285.3 429.2,285.2 429.3,285.1 429.3,285.1 429.4,285 429.4,284.9 429.5,284.8 429.5,284.7 429.6,284.6 
	429.6,284.5 429.7,284.4 429.7,284.3 429.7,284.2 429.8,284.1 429.8,284 429.8,283.9 429.8,283.8 429.9,283.7 429.9,283.6 
	429.9,283.5 429.9,283.3 429.9,283.2 "/>
<polygon fill="#B5B5B6" stroke="#000000" stroke-miterlimit="10" points="442.3,297.4 442.7,297.8 444.1,298.9 445.4,300.5 
	445.8,302.2 445.8,304 445.8,305.9 445.8,307.9 445.8,309.9 445.7,311.7 445.4,313.1 444.6,314.1 443.2,314.5 441.4,314.5 
	439.6,314.7 437.9,314.8 436.3,314.9 434.7,314.9 433,314.9 431.3,314.9 429.7,314.9 428.1,314.6 426.6,313.6 425.3,312.2 
	424.6,310.7 424.1,309.2 423.7,307.5 423.4,305.8 423.2,304.2 423.5,302.7 424.3,301.3 425.6,300.3 427,299.8 428.6,299.7 
	430.1,299.8 431.7,300 433.2,300 434.8,300 436.3,299.8 437.8,299.5 439.2,298.9 440.2,298.3 440.5,297.8 "/>
<polyline fill="none" stroke="#000000" stroke-width="3" stroke-miterlimit="2.6131" points="442.3,297.4 442.7,297.8 444.1,298.9 
	445.4,300.5 445.8,302.2 445.8,304 445.8,305.9 445.8,307.9 445.8,309.9 445.7,311.7 445.4,313.1 444.6,314.1 443.2,314.5 
	441.4,314.5 439.6,314.7 437.9,314.8 436.3,314.9 434.7,314.9 433,314.9 431.3,314.9 429.7,314.9 428.1,314.6 426.6,313.6 
	425.3,312.2 424.6,310.7 424.1,309.2 423.7,307.5 423.4,305.8 423.2,304.2 423.5,302.7 424.3,301.3 425.6,300.3 427,299.8 
	428.6,299.7 430.1,299.8 431.7,300 433.2,300 434.8,300 436.3,299.8 437.8,299.5 439.2,298.9 440.2,298.3 440.5,297.8 "/>
<polygon fill="#FFFFFF" points="438.3,299.6 437.9,299.6 437,299.6 "/>
<polyline fill="none" stroke="#131E1F" stroke-width="3" stroke-miterlimit="2.6131" points="438.3,299.6 437.9,299.6 437,299.6 "/>
<polygon fill="#FFFFFF" stroke="#000000" stroke-miterlimit="10" points="437.9,299.6 434.3,312.7 429,299.6 "/>
<polygon fill="none" stroke="#000000" stroke-width="3" stroke-miterlimit="2.6131" points="437.9,299.6 434.3,312.7 429,299.6 "/>
<polygon fill="#71ACD9" stroke="#000000" stroke-miterlimit="10" points="433.9,300 433.5,300 433.4,300 433.4,300.8 433.4,303.1 
	433.4,305.8 433.4,307.9 433.5,308.9 433.9,308.3 434.2,307 434.3,305.5 434.4,304 434.5,302.4 434.7,301.2 434.5,300.5 
	434.3,300.1 "/>
<polygon fill="#FFFFFF" stroke="#000000" stroke-width="3" stroke-miterlimit="2.6131" points="433.9,300 433.5,300 433.4,300 
	433.4,300.8 433.4,303.1 433.4,305.8 433.4,307.9 433.5,308.9 433.9,308.3 434.2,307 434.3,305.5 434.4,304 434.5,302.4 
	434.7,301.2 434.5,300.5 434.3,300.1 "/>
<polygon fill="#FFFFFF" stroke="#000000" stroke-miterlimit="10" points="428.8,295.9 428.6,295.7 428.6,295.7 428.6,296.1 
	428.6,297.4 428.6,299.1 428.6,300.7 428.9,301.8 430.1,302 431.4,301.5 432.1,300.3 432.2,298.8 431.4,297.4 430.4,296.4 
	429.7,296.1 429.1,296 "/>
<polygon fill="none" stroke="#000000" stroke-width="3" stroke-miterlimit="2.6131" points="428.8,295.9 428.6,295.7 428.6,295.7 
	428.6,296.1 428.6,297.4 428.6,299.1 428.6,300.7 428.9,301.8 430.1,302 431.4,301.5 432.1,300.3 432.2,298.8 431.4,297.4 
	430.4,296.4 429.7,296.1 429.1,296 "/>
<polygon fill="#C6E2E0" points="435.7,296.3 435.6,296.1 435.6,295.9 435.6,295.8 435.6,295.6 435.5,295.4 435.5,295.2 435.4,295 
	435.3,294.9 435.2,294.7 435.1,294.6 435,294.4 434.9,294.2 434.8,294.1 434.6,294 434.5,293.8 434.4,293.7 434.2,293.6 434,293.5 
	433.9,293.3 433.7,293.2 433.5,293.1 433.3,293.1 433.1,293 432.9,292.9 432.7,292.8 432.5,292.8 432.3,292.7 432.1,292.7 
	431.9,292.6 431.7,292.6 431.5,292.6 431.2,292.6 431,292.6 430.8,292.6 430.6,292.6 430.3,292.7 430.1,292.7 429.9,292.8 
	429.7,292.8 429.5,292.9 429.3,293 429.1,293.1 428.9,293.1 428.8,293.2 428.6,293.3 428.4,293.5 428.3,293.6 428.1,293.7 
	427.9,293.8 427.8,294 427.7,294.1 427.6,294.2 427.4,294.4 427.3,294.6 427.2,294.7 427.1,294.9 427.1,295 427,295.2 426.9,295.4 
	426.9,295.6 426.8,295.8 426.8,295.9 426.8,296.1 426.8,296.3 426.8,296.5 426.8,296.7 426.8,296.9 426.9,297.1 426.9,297.3 
	427,297.4 427.1,297.6 427.1,297.8 427.2,297.9 427.3,298.1 427.4,298.3 427.6,298.4 427.7,298.6 427.8,298.7 427.9,298.8 
	428.1,299 428.3,299.1 428.4,299.2 428.6,299.3 428.8,299.4 428.9,299.5 429.1,299.6 429.3,299.7 429.5,299.8 429.7,299.8 
	429.9,299.9 430.1,299.9 430.3,300 430.6,300 430.8,300 431,300 431.2,300 431.5,300 431.7,300 431.9,300 432.1,300 432.3,299.9 
	432.5,299.9 432.7,299.8 432.9,299.8 433.1,299.7 433.3,299.6 433.5,299.5 433.7,299.4 433.9,299.3 434,299.2 434.2,299.1 
	434.4,299 434.5,298.8 434.6,298.7 434.8,298.6 434.9,298.4 435,298.3 435.1,298.1 435.2,297.9 435.3,297.8 435.4,297.6 
	435.5,297.4 435.5,297.3 435.6,297.1 435.6,296.9 435.6,296.7 435.6,296.5 "/>
<path fill="#B5B5B6" stroke="#131E1F" stroke-width="3" stroke-miterlimit="2.6131" d="M435.7,296.3l0-0.2l0-0.2l0-0.2l0-0.2
	l-0.1-0.2l-0.1-0.2l-0.1-0.2l-0.1-0.2l-0.1-0.2l-0.1-0.2l-0.1-0.2l-0.1-0.2l-0.1-0.1l-0.1-0.1l-0.1-0.1l-0.1-0.1l-0.2-0.1l-0.2-0.1
	l-0.2-0.1l-0.2-0.1l-0.2-0.1l-0.2-0.1l-0.2-0.1l-0.2-0.1l-0.2-0.1l-0.2-0.1l-0.2,0l-0.2,0l-0.2,0l-0.2,0l-0.2,0l-0.2,0l-0.2,0
	l-0.2,0l-0.2,0l-0.2,0l-0.2,0l-0.2,0l-0.2,0.1l-0.2,0.1l-0.2,0.1l-0.2,0.1l-0.2,0.1l-0.2,0.1l-0.2,0.1l-0.2,0.1l-0.2,0.1l-0.2,0.1
	l-0.1,0.1l-0.1,0.1l-0.1,0.1l-0.1,0.1l-0.1,0.2l-0.1,0.2l-0.1,0.2l-0.1,0.2l-0.1,0.2l-0.1,0.2l-0.1,0.2l-0.1,0.2l0,0.2l0,0.2l0,0.2
	l0,0.2l0,0.2l0,0.2l0,0.2l0,0.2l0.1,0.2l0.1,0.2l0.1,0.2l0.1,0.2l0.1,0.2l0.1,0.2l0.1,0.2l0.1,0.1l0.1,0.1l0.1,0.1l0.1,0.1l0.1,0.1
	l0.2,0.1l0.2,0.1l0.2,0.1l0.2,0.1l0.2,0.1l0.2,0.1l0.2,0.1l0.2,0.1l0.2,0.1l0.2,0.1l0.2,0l0.2,0l0.2,0l0.2,0l0.2,0l0.2,0l0.2,0
	l0.2,0l0.2,0l0.2,0l0.2,0l0.2,0l0.2-0.1l0.2-0.1l0.2-0.1l0.2-0.1l0.2-0.1l0.2-0.1l0.2-0.1l0.2-0.1l0.2-0.1l0.2-0.1l0.1-0.1l0.1-0.1
	l0.1-0.1l0.1-0.1l0.1-0.1l0.1-0.2l0.1-0.2l0.1-0.2l0.1-0.2l0.1-0.2l0.1-0.2l0.1-0.2l0-0.2l0-0.2l0-0.2L435.7,296.3"/>
<polygon fill="none" stroke="#000000" stroke-width="3" stroke-miterlimit="2.6131" points="435.2,295.2 435.2,294.9 435.2,294.8 
	435.5,294.9 436.5,295.2 438,295.7 439.6,296.3 441.3,297 442.7,297.8 444,298.9 445,300.5 445.4,302.1 445,303.5 443.9,304.7 
	442.5,305.7 441,306.3 439.4,306.4 437.9,306 436.3,305.5 434.8,304.7 433.4,303.5 432.6,302.2 432.8,300.7 433.5,299.2 
	434.3,297.6 435,296.4 435.2,295.9 435.2,295.6 "/>
<polygon fill="#FFFFFF" stroke="#000000" stroke-miterlimit="10" points="426.8,295.9 427.1,295.7 427.2,295.7 426.8,295.5 
	425.7,295 424.1,294.5 422.6,294.1 421.1,294.2 419.7,295 419,296 419.7,297 420.5,298 420.1,299.2 419.9,300.4 420.8,301.6 
	422.4,302.2 423.9,301.8 425.5,301.1 427,300.9 428.1,300.5 428.3,299.4 428,298 427.2,297 426.7,296.3 "/>
<polygon fill="none" stroke="#000000" stroke-width="3" stroke-miterlimit="2.6131" points="426.8,295.9 427.1,295.7 427.2,295.7 
	426.8,295.5 425.7,295 424.1,294.5 422.6,294.1 421.1,294.2 419.7,295 419,296 419.7,297 420.5,298 420.1,299.2 419.9,300.4 
	420.8,301.6 422.4,302.2 423.9,301.8 425.5,301.1 427,300.9 428.1,300.5 428.3,299.4 428,298 427.2,297 426.7,296.3 "/>
<polygon points="450.1,284.7 449.9,284.7 449.8,284.7 450,284.4 450.5,283.2 451.1,281.7 451.4,280.1 451.6,278.6 451.8,277.1 
	452,275.6 452,274 451.8,272.6 451.2,271.2 450.1,269.9 448.7,268.6 447.2,267.5 445.6,267 444.1,266.9 442.7,267 441.4,267 
	439.9,266.6 438.1,266.1 436.1,265.9 434,266.2 432.1,266.8 430.3,267.3 428.6,267 426.8,266.4 425.2,265.9 423.8,266 422.6,267.3 
	421.7,269.1 421.5,271 421.6,272.8 422.1,274.2 423.1,275.4 424.6,276.2 426.5,276.4 428.6,275.6 431.2,274.5 434.5,273.8 
	437.5,273.9 439,275.1 439.8,276.3 441,276.2 442,276 442.3,276.9 442.2,278.2 441.9,279.7 441.9,280.9 442.7,281.2 444.1,281.4 
	445.4,281.7 446.3,282.4 446.3,283.7 446.1,285.1 446.5,286.5 447.3,287.5 448.5,288 449.5,287.8 449.8,286.7 449.9,285.5 
	450.1,285 450.2,284.8 "/>
<polygon stroke="#131E1F" stroke-width="0.9638" stroke-miterlimit="2.6131" points="450.1,284.7 449.9,284.7 449.8,284.7 
	450,284.4 450.5,283.2 451.1,281.7 451.4,280.1 451.6,278.6 451.8,277.1 452,275.6 452,274 451.8,272.6 451.2,271.2 450.1,269.9 
	448.7,268.6 447.2,267.5 445.6,267 444.1,266.9 442.7,267 441.4,267 439.9,266.6 438.1,266.1 436.1,265.9 434,266.2 432.1,266.8 
	430.3,267.3 428.6,267 426.8,266.4 425.2,265.9 423.8,266 422.6,267.3 421.7,269.1 421.5,271 421.6,272.8 422.1,274.2 423.1,275.4 
	424.6,276.2 426.5,276.4 428.6,275.6 431.2,274.5 434.5,273.8 437.5,273.9 439,275.1 439.8,276.3 441,276.2 442,276 442.3,276.9 
	442.2,278.2 441.9,279.7 441.9,280.9 442.7,281.2 444.1,281.4 445.4,281.7 446.3,282.4 446.3,283.7 446.1,285.1 446.5,286.5 
	447.3,287.5 448.5,288 449.5,287.8 449.8,286.7 449.9,285.5 450.1,285 450.2,284.8 "/>
<polygon fill="#FFFFFF" stroke="#000000" stroke-miterlimit="10" points="442.3,321.5 441.9,321.5 440.8,321.7 439.3,322.2 
	438.1,323.4 437.7,324.7 438.8,325.4 440.5,325.7 442.1,325.8 443.5,325.4 444.5,324.3 444.8,323.1 443.9,322.5 442.5,322.4 
	441.4,322.3 440.5,322.4 439.6,322.8 "/>
<polyline fill="none" stroke="#000000" stroke-width="3" stroke-miterlimit="2.6131" points="442.3,321.5 441.9,321.5 440.8,321.7 
	439.3,322.2 438.1,323.4 437.7,324.7 438.8,325.4 440.5,325.7 442.1,325.8 443.5,325.4 444.5,324.3 444.8,323.1 443.9,322.5 
	442.5,322.4 441.4,322.3 440.5,322.4 439.6,322.8 "/>
<polygon fill="#FFFFFF" stroke="#000000" stroke-miterlimit="10" points="431.2,323.6 431.2,324 431.2,324.1 431.1,323.7 
	430.6,322.8 429.7,321.9 428.3,322.1 427,323 426.1,324.5 426.1,325.9 427.2,326.5 428.9,326.4 430.3,325.8 431.3,324.9 
	431.4,324.1 431.3,323.5 "/>
<polygon fill="none" stroke="#000000" stroke-width="3" stroke-miterlimit="2.6131" points="431.2,323.6 431.2,324 431.2,324.1 
	431.1,323.7 430.6,322.8 429.7,321.9 428.3,322.1 427,323 426.1,324.5 426.1,325.9 427.2,326.5 428.9,326.4 430.3,325.8 
	431.3,324.9 431.4,324.1 431.3,323.5 "/>
<circle fill="#FFFFFF" stroke="#000000" stroke-miterlimit="2.6131" cx="428.4" cy="283.7" r="0.3"/>
<circle fill="#FFFFFF" stroke="#000000" stroke-miterlimit="2.6131" cx="436.5" cy="283.7" r="0.3"/>
<path fill="none" stroke="#000000" stroke-width="4" stroke-miterlimit="10" d="M398.7,264.6c-1.5-0.6-3.3,0.2-4.3,1.5
	c-1,1.3-1.3,2.9-1.3,4.5c0,0.9,0,1.7,0.4,2.5c0.3,0.6,0.7,1.1,1.2,1.5c1.3,1.3,3.1,2.2,4.9,2.6c2,0.4,4.1,0.2,6.1,0.7
	c2,0.5,3.9,2.3,3.5,4.3c0.7,0.4,1.4-0.3,1.9-0.9c0.8-1.2,1.4-2.5,1.7-3.9s0.1-2.9-0.7-4.1c-0.5-0.7-1.1-1.2-1.7-1.7
	c-1.9-1.5-3.7-3-5.6-4.5c-0.5-0.4-1.1-0.9-1.8-1.1c-0.6-0.1-1.2-0.1-1.7-0.2C400.3,265.6,399.6,264.9,398.7,264.6z"/>
</svg>
