<?xml version="1.0" encoding="utf-8"?>
<!-- Generator: Adobe Illustrator 17.1.0, SVG Export Plug-In . SVG Version: 6.00 Build 0)  -->
<!DOCTYPE svg PUBLIC "-//W3C//DTD SVG 1.1//EN" "http://www.w3.org/Graphics/SVG/1.1/DTD/svg11.dtd">
<svg version="1.1" id="Ebene_1" xmlns="http://www.w3.org/2000/svg" xmlns:xlink="http://www.w3.org/1999/xlink" x="0px" y="0px"
	 width="100px" height="100px" viewBox="0 0 100 100" enable-background="new 0 0 100 100" xml:space="preserve">
<circle fill="#B2B2B2" cx="50" cy="50" r="50"/>
<polygon fill="none" stroke="#000000" stroke-width="3" stroke-miterlimit="2.6131" points="28.8,46.2 23.1,43.7 17.7,47 18.3,40.7 
	13.6,36.7 19.7,35.3 22.1,29.5 25.2,34.9 31.5,35.4 27.3,40.1 "/>
<path fill="none" stroke="#000000" stroke-width="3" stroke-miterlimit="2.6131" d="M63.5,33.8c-0.5-0.2-0.9-0.5-1.4-0.7
	c-0.6-0.1-1.2,0.1-1.8,0.3c-3.5,1.5-6.1,4.6-7.5,8.1C51.4,45,51,48.8,51,52.6c0,6.1,1.7,13.1,7.1,16.1c3.4,1.9,7.6,1.8,11.6,1.6
	c1.3-0.1,2.6-0.2,3.6-1c0.8-0.7,1.1-1.8,1.4-2.8c1.2-4.5,2.1-9,2.8-13.6c0.5-3.7,0.8-7.7-0.7-11.2c-1.7-4-5.7-7-10-7.4
	C65.7,34.2,64.5,34.3,63.5,33.8z"/>
</svg>
