<?xml version="1.0" encoding="utf-8"?>
<!-- Generator: Adobe Illustrator 17.1.0, SVG Export Plug-In . SVG Version: 6.00 Build 0)  -->
<!DOCTYPE svg PUBLIC "-//W3C//DTD SVG 1.1//EN" "http://www.w3.org/Graphics/SVG/1.1/DTD/svg11.dtd">
<svg version="1.1"
	 id="レイヤー_1" xmlns:inkscape="http://www.inkscape.org/namespaces/inkscape" xmlns:sodipodi="http://sodipodi.sourceforge.net/DTD/sodipodi-0.dtd" xmlns:dc="http://purl.org/dc/elements/1.1/" xmlns:cc="http://creativecommons.org/ns#" xmlns:rdf="http://www.w3.org/1999/02/22-rdf-syntax-ns#" xmlns:svg="http://www.w3.org/2000/svg" inkscape:version="0.48.4 r" sodipodi:docname="1-2r.svg"
	 xmlns="http://www.w3.org/2000/svg" xmlns:xlink="http://www.w3.org/1999/xlink" x="0px" y="0px" viewBox="0 0 100 100"
	 enable-background="new 0 0 100 100" xml:space="preserve">
<sodipodi:namedview  pagecolor="#ffffff" showgrid="false" guidetolerance="10" inkscape:cx="50" gridtolerance="10" inkscape:cy="50" objecttolerance="10" inkscape:zoom="2.36" borderopacity="1" bordercolor="#666666" id="namedview3301" inkscape:window-maximized="0" inkscape:pageopacity="0" inkscape:window-y="0" inkscape:window-height="480" inkscape:current-layer="レイヤー_1" inkscape:window-x="0" inkscape:pageshadow="2" inkscape:window-width="834">
	</sodipodi:namedview>
<g id="レイヤー_2">
	<path id="path3267" fill="none" stroke="#231815" stroke-miterlimit="10" d="M60,159.1"/>
</g>
<polygon id="polygon3215" points="86.5,78.1 85,78.1 87.3,78.1 87.3,78.1 "/>
<polygon points="54.2,33.6 53.8,35.7 53,37.7 51.6,39.5 49.9,41.1 47.8,42.4 45.5,43.4 42.9,44 40.2,44.2 37.4,44 34.9,43.4 
	32.5,42.4 30.5,41.1 28.7,39.5 27.4,37.7 26.5,35.7 26.1,33.6 26.5,40.8 26.9,42.9 27.8,44.8 29.1,46.6 30.8,48.1 32.7,49.4 
	35,50.3 37.5,50.9 40.2,51.1 42.8,50.9 45.3,50.3 47.6,49.4 49.6,48.1 51.3,46.6 52.6,44.8 53.4,42.9 53.8,40.8 "/>
<polygon stroke="#FFFFFF" stroke-width="0.8555" stroke-miterlimit="2.6131" points="54.2,33.6 53.8,35.7 53,37.7 51.6,39.5 
	49.9,41.1 47.8,42.4 45.5,43.4 42.9,44 40.2,44.2 37.4,44 34.9,43.4 32.5,42.4 30.5,41.1 28.7,39.5 27.4,37.7 26.5,35.7 26.1,33.6 
	26.5,40.8 26.9,42.9 27.8,44.8 29.1,46.6 30.8,48.1 32.7,49.4 35,50.3 37.5,50.9 40.2,51.1 42.8,50.9 45.3,50.3 47.6,49.4 
	49.6,48.1 51.3,46.6 52.6,44.8 53.4,42.9 53.8,40.8 "/>
<polygon stroke="#FFFFFF" stroke-width="0.8555" stroke-miterlimit="2.6131" points="54.3,33.1 54,35.3 53.1,37.4 51.8,39.3 
	50.1,40.9 48,42.3 45.6,43.3 43,44 40.2,44.2 37.4,44 34.7,43.3 32.3,42.3 30.2,40.9 28.5,39.3 27.2,37.4 26.4,35.3 26.1,33.1 
	26.4,30.8 27.2,28.8 28.5,26.9 30.2,25.2 32.3,23.8 34.7,22.8 37.4,22.2 40.2,21.9 43,22.2 45.6,22.8 48,23.8 50.1,25.2 51.8,26.9 
	53.1,28.8 54,30.8 "/>
<polygon points="49.7,49.9 49.6,49.7 49.5,49 49.7,47.9 50.3,46.6 51.1,45.8 51.8,45.7 52.4,46 52.6,46.2 70.8,63.5 71.3,64.2 
	72.2,65.9 72.5,67 72.7,68.3 72.5,69.5 72,70.7 71,71.8 70,72.2 68.6,71.7 66.4,70.1 66,69.7 65.4,69 64.4,67.9 63.3,66.6 
	60.6,63.3 57.6,59.7 54.7,56.1 52.2,53 51.2,51.7 50.4,50.8 49.9,50.2 "/>
<polygon stroke="#FFFFFF" stroke-width="0.8555" stroke-miterlimit="2.6131" points="49.7,49.9 49.6,49.7 49.5,49 49.7,47.9 
	50.3,46.6 51.1,45.8 51.8,45.7 52.4,46 52.6,46.2 70.8,63.5 71.3,64.2 72.2,65.9 72.5,67 72.7,68.3 72.5,69.5 72,70.7 71,71.8 
	70,72.2 68.6,71.7 66.4,70.1 66,69.7 65.4,69 64.4,67.9 63.3,66.6 60.6,63.3 57.6,59.7 54.7,56.1 52.2,53 51.2,51.7 50.4,50.8 
	49.9,50.2 "/>
</svg>
