<?xml version="1.0" encoding="UTF-8" standalone="no"?>
<!-- Created with Inkscape (http://www.inkscape.org/) -->

<svg
   xmlns:dc="http://purl.org/dc/elements/1.1/"
   xmlns:cc="http://creativecommons.org/ns#"
   xmlns:rdf="http://www.w3.org/1999/02/22-rdf-syntax-ns#"
   xmlns:svg="http://www.w3.org/2000/svg"
   xmlns="http://www.w3.org/2000/svg"
   version="1.1"
   width="100"
   height="100"
   viewBox="0 0 100 100"
   id="Ebene_1"
   xml:space="preserve"><metadata
     id="metadata6773"><rdf:RDF><cc:Work
         rdf:about=""><dc:format>image/svg+xml</dc:format><dc:type
           rdf:resource="http://purl.org/dc/dcmitype/StillImage" /><dc:title></dc:title></cc:Work></rdf:RDF></metadata><defs
     id="defs6771" /><circle
     cx="50"
     cy="50"
     r="50"
     id="circle6765" /><path
     d="m 85.862,67.224 c -0.021,-1.075 -1.089,-1.106 -1.671,-1.62 -0.413,-1.767 -0.682,-3.684 -1.64,-4.904 -0.092,-0.384 -0.228,-0.718 -0.335,-1.08 0.007,-0.12 0.109,-0.144 0.153,-0.228 -0.009,-0.175 0.026,-0.304 0.078,-0.415 -0.149,-1.345 -0.173,-2.824 -0.745,-3.75 -0.176,-0.149 -0.338,-0.312 -0.488,-0.486 -0.547,-0.371 -1.453,-0.38 -2.056,-0.693 -0.088,-0.046 -0.145,-0.129 -0.206,-0.204 -0.357,-0.089 -0.619,-0.271 -0.822,-0.515 0.011,-0.229 0.087,-0.393 0.155,-0.567 0.1,-0.055 0.197,-0.11 0.31,-0.153 0.641,-0.582 1.177,-1.268 1.204,-2.462 0.116,-0.305 0.123,-0.773 0.206,-1.029 0.014,0.1 0.026,0.047 0.052,0.152 0.073,-0.094 -0.025,-0.207 0.026,-0.306 0.08,0.001 -0.05,0.178 0.025,0.101 0.104,0.08 0.004,-0.219 0.104,-0.229 0.044,0.007 0.059,0.041 0.051,0.103 0.046,-0.056 0.015,-0.146 0.078,-0.13 -0.005,0.041 0.033,0.177 0.052,0 0.047,0.068 -0.009,0.089 0.05,0.156 0.061,-0.692 -0.359,-1.327 -0.517,-1.977 -0.371,-0.332 -0.764,-0.639 -1.358,-0.747 -0.12,0.041 0.117,0.129 0.182,0.154 -0.157,0.034 -0.248,-0.084 -0.258,-0.104 -0.073,-0.036 -0.031,-0.017 -0.027,0.053 -0.143,-0.137 -0.522,-0.037 -0.847,-0.18 -0.016,0.07 0.052,0.05 0.052,0.102 -0.47,-0.231 -1.182,-0.09 -1.849,0.103 -0.05,0.055 -0.098,0.107 -0.179,0.129 -0.154,0.191 -0.341,0.343 -0.438,0.592 -0.064,0.02 -0.068,0.105 -0.103,0.153 -0.024,0.018 -0.038,0.046 -0.052,0.075 0.026,0.05 0.014,-0.028 0.052,-0.026 0.041,-0.121 0.116,-0.206 0.181,-0.306 0.081,-0.108 0.176,-0.2 0.281,-0.284 -0.208,0.289 -0.408,0.587 -0.617,0.875 -0.031,0.155 -0.079,0.296 -0.129,0.438 -0.053,0.343 0.091,-0.2 0.129,-0.312 -0.208,0.997 -0.357,2 0,3.005 -0.017,0.12 0.097,0.037 0.104,0.079 -0.007,0.066 0.041,0.221 0,0.103 -0.038,0.123 0.144,0.105 0.104,0.335 0.044,-0.135 0.129,0.136 0.15,0.202 0.025,-0.176 0.141,0.095 0.132,-0.075 0.053,0.004 0.009,0.109 0.022,0.154 0.08,-0.202 0.069,0.08 0.131,-0.079 0.052,-0.022 0.008,0.177 0.052,0.079 0.198,0.889 -0.14,1.849 -0.671,2.26 -0.162,-0.136 -0.218,-0.379 -0.356,-0.539 -1.036,-0.693 -2.899,-0.562 -4.369,-0.822 -0.158,-0.003 -0.139,0.164 -0.281,0.18 -0.486,-0.068 -0.927,-0.187 -1.386,-0.284 -0.515,-1.412 -1.823,-2.032 -2.657,-3.126 0.085,-0.173 0.151,-0.364 0.19,-0.583 -0.1,-0.235 -0.2,-0.47 -0.3,-0.704 C 65.822,47.722 65.786,47.58 65.646,47.504 64.292,44.363 62.954,41.208 62.577,37.091 62.326,36.76 62.195,36.312 62.085,35.838 61.626,35.12 61.28,34.29 60.877,33.513 c 0.127,-0.321 -0.049,-0.707 0.045,-0.986 0.059,-0.175 0.281,-0.138 0.27,-0.356 -0.071,-0.817 -0.052,-1.59 -0.27,-2.416 -0.117,-2.028 0.509,-3.311 0.447,-5.281 -0.096,-0.336 -0.2,-0.667 -0.269,-1.027 -1.243,-2.117 -3.125,-3.829 -6.218,-3.939 -0.143,-0.261 -0.486,-0.324 -0.583,-0.626 0.142,-0.139 0.273,-0.292 0.358,-0.492 0.154,-1.402 0.784,-2.922 0.491,-4.338 0.133,-0.215 0.184,-0.781 0.046,-1.209 0.674,-1.331 -0.31,-2.46 -0.585,-3.446 C 54.136,8.634 53.518,8.017 52.688,7.61 51.726,7.545 51,7.429 50.184,7.295 c -0.292,0.207 -0.499,0.12 -0.85,0.134 -0.361,0.238 -0.955,0.239 -1.389,0.402 -0.327,0.57 -0.858,0.932 -1.118,1.566 -0.088,0.314 0.184,0.35 0.089,0.537 -0.423,1.258 -0.767,3.046 -0.402,4.608 0.125,0.234 0.444,0.274 0.402,0.671 0.737,0.188 1.215,0.636 1.566,1.208 -0.007,0.869 -0.092,1.709 0,2.551 -0.119,0.087 -0.391,0.027 -0.58,0.046 -0.133,0.508 -0.388,0.9 -0.673,1.251 -0.836,0.06 -1.433,0.354 -2.235,0.447 -0.293,0.188 -0.588,0.369 -0.94,0.492 -0.488,0.526 -0.999,1.033 -1.524,1.521 -0.716,1.266 -1.363,2.604 -1.341,4.61 -0.27,0.801 -0.267,1.88 -0.268,2.953 -0.119,0.46 -0.246,0.916 -0.405,1.342 0.102,0.387 0.021,0.81 -0.086,1.116 0.015,0.269 0.304,0.262 0.355,0.495 -0.296,0.879 -0.592,1.762 -1.027,2.503 0.044,0.724 -0.029,1.362 -0.211,1.932 -0.083,-0.325 -0.167,-0.65 -0.255,-0.971 -0.604,-0.827 -0.807,-1.987 -1.002,-3.21 -0.211,-1.329 -0.625,-2.654 -0.665,-4.043 0.266,-0.954 0.173,-2.276 -0.042,-3.21 -0.266,-0.43 -0.469,-0.921 -0.711,-1.374 -0.458,-0.166 -0.817,-0.433 -1.25,-0.625 -0.607,0.009 -1.217,0.021 -1.625,-0.169 -0.287,-0.388 -0.717,-0.707 -1.292,-0.792 -0.44,-0.063 -0.933,0.14 -1.335,-0.083 -0.022,-0.247 0.042,-0.403 0.083,-0.583 0.155,0.201 0.561,0.109 0.793,0.042 0.021,-0.464 -0.132,-0.757 -0.208,-1.126 0.587,-0.458 0.91,0.3 1.542,0.125 -0.007,-0.158 -0.231,-0.101 -0.25,-0.25 0.212,-0.148 0.401,-0.323 0.334,-0.75 0.222,0.137 0.215,0.508 0.583,0.499 -0.102,-0.175 -0.496,-0.417 -0.458,-0.874 0.117,-0.049 0.159,-0.175 0.208,-0.292 0.235,0.244 1.089,0.435 1.125,-0.124 -0.232,-0.16 -0.689,-0.449 -0.75,-0.919 0.435,-0.341 0.154,-0.902 0.333,-1.5 0.162,0.021 0.266,-0.01 0.335,-0.083 0.082,-0.46 0.285,-0.742 0.25,-1.251 -0.102,-1.434 -0.871,-2.679 -1.585,-3.5 -0.917,-0.31 -1.788,-1.229 -3.044,-0.793 -0.281,-0.108 -0.571,-0.207 -0.957,-0.208 -0.296,0.053 -0.539,0.157 -0.709,0.334 -0.169,-0.117 -0.355,0.043 -0.585,0 -2.134,1.103 -2.647,3.827 -2.75,6.96 -0.064,0.203 -0.337,0.193 -0.417,0.375 0.121,0.16 0.3,-0.194 0.374,-0.081 -0.031,0.507 -0.425,0.657 -0.415,1.208 0.869,-0.132 0.521,-1.477 1.083,-1.918 0.195,0.736 -0.119,1.392 -0.459,1.836 0.236,0.013 0.472,0.036 0.544,0 -0.064,0.29 -0.63,0.279 -0.502,0.625 0.265,0.136 0.554,-0.06 0.752,-0.124 -0.095,0.293 -0.47,0.307 -0.501,0.666 0.434,0.11 -0.168,0.288 0,0.584 0.262,0.103 0.574,-0.016 0.668,-0.21 0.267,-0.063 0.183,-0.485 0.542,-0.458 -0.05,0.385 -0.513,0.566 -0.377,1 0.296,0.144 0.407,-0.41 0.543,-0.415 -0.203,1.256 -1.826,1.094 -2.501,1.874 -0.541,0.156 -1.152,0.239 -1.835,0.25 -0.32,0.25 -0.777,0.364 -1.125,0.583 -0.138,0.467 -0.549,0.917 -0.709,1.46 -0.352,1.193 -0.03,2.542 0.165,3.71 -0.179,1.556 -0.415,3.058 -0.749,4.46 -1.361,1.419 -2.142,3.409 -2.751,5.544 -0.301,1.055 -0.657,2.106 -1.002,3.128 -0.351,1.048 -0.62,2.113 -1.208,2.96 -0.389,1.389 -1.125,2.43 -1.333,4 0.115,0.659 -0.206,1.346 0.041,1.919 0.177,-0.021 0.339,-0.272 0.458,-0.211 -0.061,0.259 0.027,0.466 0,0.795 0.182,-0.123 0.397,-0.141 0.542,-0.375 0.121,-0.288 -0.051,-0.83 0.084,-1.003 0.061,0.342 0.106,0.696 0.165,1.044 0.897,-0.207 0.164,-1.803 0.585,-2.501 0.169,0.412 0.137,1.027 0.458,1.291 0.546,-0.329 -0.031,-1.199 0.125,-1.916 0.145,-0.286 0.174,-0.689 0.25,-1.043 0.346,-0.557 0.704,-1.104 0.917,-1.794 -0.485,-1.143 0.48,-2.071 1.001,-2.875 1.374,-2.123 2.98,-4.208 3.541,-6.879 0.246,-0.369 0.37,-0.854 0.627,-1.209 0.158,-0.968 0.528,-1.722 0.875,-2.5 0.074,0.815 0.294,1.485 0.417,2.251 0.308,2.698 -0.536,4.568 -1.126,6.502 -0.093,0.085 0.22,0.14 0.084,0.291 -0.705,1.407 -1.013,3.211 -1.5,4.837 -0.566,1.546 -0.826,3.4 -1.042,5.295 0,0.348 0,0.695 0,1.043 0.208,0.804 0.415,1.61 0.917,2.122 0.398,2.328 0.79,4.66 1.001,7.177 0.102,0.173 0.129,0.421 0.208,0.623 -0.795,0.632 -1.31,2.177 -1.21,3.5 0.15,1.995 0.861,4.234 1.084,5.963 -0.048,0.007 -0.047,0.065 -0.042,0.127 -0.052,0.267 -0.291,0.346 -0.336,0.621 -0.082,0.31 0.018,0.678 0.085,0.961 -0.136,1.352 -0.157,2.815 -0.542,3.918 -0.041,1.962 0.995,2.842 2.502,3.251 0.349,-0.009 0.661,-0.06 0.917,-0.168 0.38,-0.341 0.556,-0.889 0.583,-1.582 -0.198,-2.122 -1.077,-3.563 -1.376,-5.587 0.271,-0.297 0.082,-0.843 -0.083,-1.17 0.358,-1.212 0.672,-2.467 1.084,-3.624 0.403,-1.181 1.01,-2.155 1.043,-3.709 -0.065,-0.144 -0.038,-0.38 -0.043,-0.584 -0.053,-0.154 -0.064,-0.353 -0.124,-0.502 1.124,-1.849 0.525,-5.421 0.958,-7.96 0.677,-0.171 1.177,-0.521 1.917,-0.625 0.489,3.433 -0.448,7.136 0.168,10.337 -0.517,1.428 -1.339,3.013 -1.502,4.877 -0.298,3.392 0.304,7.187 -0.167,10.549 -0.136,0.31 -0.241,0.648 -0.417,0.917 -0.01,0.227 -0.069,0.406 -0.041,0.666 0.1,0.414 0.385,0.646 0.458,1.086 -0.043,0.707 -0.23,1.47 -0.041,2.167 -0.26,0.474 -0.041,1.132 0.041,1.501 0.113,0.079 0.213,0.177 0.292,0.289 0.368,0.124 0.78,0.199 1.25,0.17 0.934,-0.06 2.167,-0.325 2.419,-0.96 0.021,-1.759 -2.089,-1.875 -2.168,-3.669 0.358,-0.568 -0.048,-1.328 -0.041,-2.042 0.537,-1.771 1.062,-3.575 1.666,-5.379 1,-2.978 2.289,-6.106 1.545,-10.087 0.854,-3.538 1.515,-7.269 2.375,-10.8 0.547,-0.161 0.833,-0.584 0.876,-1.248 -0.015,0.303 -0.018,0.598 0.126,0.75 0.229,-0.106 0.372,-0.296 0.499,-0.502 0.106,-2.783 -0.133,-5.555 -0.833,-7.671 -0.273,-1.658 -0.522,-3.337 -1.127,-4.668 0.064,-0.103 0.26,-0.076 0.251,-0.251 -0.958,-2.405 -1.388,-6.463 -0.167,-8.92 0.283,1.817 1.247,2.953 1.377,4.918 0.961,3.139 2.874,5.328 3.293,9.004 -0.468,0.521 -0.884,1.094 -1.209,1.753 0.057,0.43 0.055,0.918 0.167,1.293 0.236,0.118 0.487,0.224 0.733,0.334 0.168,0.535 0.289,1.121 0.531,1.581 0.184,0.184 0.298,-0.187 0.401,-0.089 0.194,0.227 0.217,0.622 0.585,0.673 0.404,-0.216 0.345,-0.689 0.185,-1.092 0.167,-0.173 0.289,-0.43 0.44,-0.616 0.153,0.191 0.445,-0.007 0.708,0.041 0.153,-0.305 0.556,-0.359 0.876,-0.498 0.068,-0.163 0.224,-0.341 0.125,-0.541 0.24,-0.067 0.351,-0.263 0.542,-0.377 -0.241,-0.721 -0.556,-1.368 -0.916,-1.969 0.131,-0.35 0.188,-0.773 0.273,-1.168 -0.206,-0.672 -0.899,-0.858 -1.074,-1.563 -0.074,-2.629 0.785,-4.318 1.122,-6.534 -0.154,-1.285 0.224,-2.299 0.672,-3.041 0.364,-0.613 0.97,-1.023 1.25,-1.703 0.164,-0.395 0.095,-0.872 0.358,-1.295 0.92,2.474 1.397,5.896 0.807,9.17 0.06,0.06 0.043,0.195 0.043,0.315 10e-4,0.22 0.34,0.293 0.268,0.447 -0.71,5.887 0.388,11.668 0.628,17.358 0.028,0.712 0.024,1.373 0.134,2.058 0.095,0.61 0.271,1.255 0.312,1.881 0.05,0.705 -0.08,1.387 -0.135,2.103 -0.201,2.599 0.255,5.209 0.492,7.742 0.272,2.926 0.912,5.684 1.029,8.545 0.2,0.126 0.697,-0.038 0.895,0.09 0.041,1.341 -0.713,2.344 -0.672,3.487 0.021,0.67 0.099,1.455 0.179,2.193 0.132,0.123 0.33,0.182 0.493,0.269 1.396,-0.177 2.873,-0.337 4.34,-0.356 -0.066,-0.693 0.213,-1.304 0.089,-1.881 -0.155,-0.711 -0.602,-1.351 -0.628,-2.193 -0.012,-0.45 0.083,-0.844 -0.041,-1.34 -0.236,-0.036 -0.221,-0.317 -0.229,-0.582 0.561,-0.024 1.073,-0.098 1.302,-0.447 0.017,-0.435 -0.065,-0.773 -0.134,-1.117 0.276,-0.022 0.371,-0.225 0.536,-0.361 1.053,-2.055 0.678,-5.533 -0.27,-7.425 0.208,-0.182 0.403,-0.375 0.582,-0.582 1.233,-2.542 3.294,-4.252 4.342,-6.981 0.81,-0.56 1.401,-1.342 1.788,-2.324 0.21,-1.412 -0.22,-2.866 0.045,-4.34 -0.01,-5.943 -0.767,-11.133 -1.341,-16.511 0.928,1.338 1.82,2.712 2.55,4.248 -0.394,0.771 0.05,1.527 0.37,2.209 -0.063,0.077 -0.131,0.152 -0.166,0.259 -0.007,0.105 0.039,0.119 0,0.205 0.062,0.2 0.149,0.371 0.256,0.527 -0.108,0.188 -0.244,0.346 -0.237,0.65 0.693,-0.005 0.571,0.801 0.984,1.073 0.305,0.104 0.488,0.1 0.851,0.178 0.028,-0.034 0.06,-0.064 0.089,-0.097 0.832,1.081 1.564,2.265 2.449,3.292 0.455,0.453 1.402,0.41 2.157,0.564 -0.021,0.354 0.065,0.604 0.178,0.823 0.963,-0.007 1.714,0.206 2.57,0.305 0.058,0.091 0.117,0.175 0.13,0.309 0.207,0.176 0.387,0.382 0.535,0.618 -0.004,0.028 0.009,0.048 0.027,0.051 0,0.163 0.024,0.302 0.051,0.437 0.026,1.523 0.117,3.033 0.052,4.495 -0.063,1.434 -0.296,2.786 -0.54,4.033 0.075,0.104 0.228,0.134 0.309,0.231 -0.092,0.284 -0.043,0.709 -0.279,0.846 0.04,0.909 0.155,1.746 0.149,2.698 0.015,0.105 -0.047,0.139 -0.075,0.205 0.049,0.072 0.072,0.166 0.103,0.257 0.079,0.843 0.038,1.571 0.103,2.362 0.088,1.068 0.562,2.087 0.617,3.157 0.198,1.051 0.458,2.04 0.589,3.16 0.02,0.462 -0.017,0.874 -0.104,1.232 -0.038,0.714 0.271,1.085 0.26,1.771 -0.041,0.156 -0.093,0.3 -0.156,0.438 0.044,0.237 0.023,0.539 0.131,0.717 0.245,0.106 0.599,0.103 0.924,0.131 -0.115,0.121 -0.26,0.332 -0.438,0.435 -0.152,0.614 -0.844,0.7 -1.309,1.001 0.017,0.134 -0.029,0.231 0,0.311 0.488,0.482 1.493,0.568 2.336,0.614 0.094,-0.059 0.221,-0.084 0.284,-0.182 0.122,0.05 0.286,0.057 0.436,0.079 -0.124,0.724 -0.154,1.542 -0.311,2.233 0,0.156 0.062,0.248 0.081,0.387 0.072,0.038 0.152,0.069 0.202,0.129 0.888,-0.046 1.898,0.029 2.441,-0.359 -0.005,-0.152 0.044,-0.248 0.025,-0.414 -0.364,-0.547 -0.627,-1.202 -0.925,-1.822 0.603,0.033 1.181,0.223 1.749,0.206 0.11,-0.161 0.119,-0.423 0.175,-0.643 -0.122,-0.464 -0.395,-0.782 -0.457,-1.31 0.085,-0.387 0.166,-0.79 0.282,-1.155 0,-0.118 0,-0.239 0,-0.357 -0.438,-1.866 -0.257,-4.345 -0.156,-6.522 0.033,-0.725 0.034,-1.416 0.156,-2.056 -0.098,-1.484 0.222,-2.771 0.226,-4.237 -0.115,-1.039 0.015,-2.326 -0.179,-3.29 0,-0.093 0.162,-0.025 0.155,-0.127 -0.258,-1.724 -0.06,-3.656 0.206,-5.264 0.183,-0.031 0.35,-0.082 0.564,-0.077 0.142,0.335 0.219,0.743 0.284,1.153 0.429,1.123 0.969,2.13 1.542,3.111 0.649,0.896 0.896,2.197 1.206,3.438 0.291,0.247 0.291,0.786 0.564,1.055 0.723,-0.1 -0.137,-0.839 0.156,-1.183 0.088,-0.079 0.063,0.123 0.178,0.103 0.26,-0.022 0.446,-0.118 0.59,-0.259 0.054,0.182 -0.198,0.262 -0.256,0.414 -0.221,-0.012 -0.405,0.11 -0.334,0.307 0.262,0.063 0.571,-0.041 0.719,-0.18 -0.056,0.218 -0.533,0.312 -0.282,0.591 0.192,-0.043 0.352,-0.127 0.485,-0.229 0.09,0.073 0.071,0.254 0.259,0.229 0.084,-0.373 0.355,-0.553 0.564,-0.796 -0.052,-0.309 -0.355,-0.375 -0.48,-0.616 z M 78.544,46.471 c -0.021,-0.007 -0.052,0 -0.052,-0.025 0.021,0.004 0.052,0 0.052,0.025 z m -3.493,1.18 c 0.063,-0.147 -0.091,0.224 0,0 l 0,0 z m 0.128,-0.155 c -0.032,0.104 -0.032,-0.1 0,0 l 0,0 z m 0.08,-0.076 c -0.08,0.072 0.069,-0.077 0,0 l 0,0 z m 0.127,3.674 c -0.012,0.157 -0.051,-0.1 0,0 l 0,0 z m 0.052,-3.802 c -0.082,0.071 0.067,-0.078 0,0 l 0,0 z m -59.156,2.299 c 0.026,0.027 -0.019,-0.018 0,0 l 0,0 z m 17.55,-25.597 c 0.027,0.027 -0.017,-0.017 0,0 l 0,0 z m 19.62,24.415 c 0.027,0.031 -0.018,-0.018 0,0 l 0,0 z m 0.803,12.84 c -0.007,-0.442 0.091,-1.161 0.136,-1.698 0.213,0.246 0.15,0.771 0.313,1.073 -0.074,0.28 -0.307,0.411 -0.449,0.625 z M 75.591,46.831 c 0.052,-0.066 0.151,-0.223 0.256,-0.153 -0.047,0.063 -0.283,0.184 -0.256,0.153 z m 0.33,-0.231 c -0.074,0.071 0.074,-0.079 0,0 l 0,0 z m 1.8,-0.31 c -0.002,-0.016 -0.002,-0.031 -0.021,-0.025 0,-0.032 0.007,-0.059 0.046,-0.052 -0.005,0.031 0.008,0.075 -0.025,0.077 z"
     id="path6767"
     style="fill:#0000ff" /></svg>