<?xml version="1.0" encoding="utf-8"?>
<!-- Generator: Adobe Illustrator 17.1.0, SVG Export Plug-In . SVG Version: 6.00 Build 0)  -->
<!DOCTYPE svg PUBLIC "-//W3C//DTD SVG 1.1//EN" "http://www.w3.org/Graphics/SVG/1.1/DTD/svg11.dtd">
<svg version="1.1" id="レイヤー_1" xmlns="http://www.w3.org/2000/svg" xmlns:xlink="http://www.w3.org/1999/xlink" x="0px"
	 y="0px" width="122.6px" height="122.9px" viewBox="357.1 238.2 122.6 122.9" enable-background="new 357.1 238.2 122.6 122.9"
	 xml:space="preserve">
<path fill="#FFFFFF" stroke="#000000" stroke-width="3" stroke-miterlimit="10" d="M366,314.9c9.8,0,19.6,0,29.4,0
	c0.5,0,1.8-0.3,1.8,0.3c0,1.5,0,3,0,4.5c0,6,0,12,0,18c0,5.4,0,10.8,0,16.3c0,0.2,0,2.4,0,2.4c-1.4,0-2.9,0-4.3,0
	c-6.2,0-12.4,0-18.6,0c-2.3,0-4.6,0-6.9,0c-0.4,0-0.9,0-1.3,0c-0.1,0,0-0.5,0-0.5c0-10.8,0-21.7,0-32.5
	C366,320.5,366,317.7,366,314.9z"/>
<path fill="#FFFFFF" stroke="#000000" stroke-width="3" stroke-miterlimit="10" d="M358.6,305.9c9,0,18.1,0,27.1,0
	c5.9,0,11.9,0,17.8,0c1.8,0,3.5,0,5.3,0c0.4,0,0.8,0,1.1,0c0.3,0,0.1,0.5,0.1,0.7c0,2.9,0,5.7,0,8.6c0,0.4,0.2,4.4-0.1,4.4
	c-3.4,0-6.8,0-10.2,0c-12,0-24,0-36,0c-1.4,0-2.8,0-4.1,0c-0.9,0-0.9,0.2-0.9-0.7C358.6,314.5,358.6,310.2,358.6,305.9z"/>
<path fill="none" stroke="#000000" stroke-width="3" stroke-miterlimit="10" d="M378.3,303.9c2.8,0,5.7,0,8.5,0"/>
<path fill="none" stroke="#000000" stroke-width="3" stroke-miterlimit="10" d="M381.5,303.9c0-2.3,0-4.5,0-6.8c0-1.3,0-2.6,0-3.9
	c0-0.5-0.1-0.8,0.3-1.1c2-1.9,4.2-3.7,6.4-5.3c1.4-1,2.8-2,4.3-2.9c1.1-0.6,2.5-1.3,3.8-1.2"/>
<path d="M396.4,277.9c4.7,0,4.7,8.8,0,8.8S391.7,277.9,396.4,277.9z"/>
<path fill="#B5B5B6" stroke="#000000" stroke-miterlimit="10" d="M464,335.1c0.1-0.1,0.3-0.3,0.4-0.4c0,2.1,0.1,4.2-0.1,6.3
	c-0.1,0.6-0.1,1.2-0.2,1.8c0,0.4,0,1.1-0.1,1.5c-0.2,0.5-0.4,1.1-0.6,1.6c-0.1,0.3-0.3,1.2-0.6,1.4c-0.9,0.7-1.8,1.5-2.7,2.2
	c-0.3,0.2-0.9,0.3-1.2,0.4c-0.7,0.2-1.4,0.5-2,0.7c-0.9,0.3-2.3,0.1-3.2,0.1c-0.4,0-0.9-0.4-1.3-0.5c-0.4-0.2-1.1-0.3-1.3-0.7
	c-0.5-1-1-2-1.1-3.1c-0.1-1.1-0.2-2.2-0.3-3.3c0-1.1,0-2.2-0.3-3.3c-0.1-0.4-0.1-1.3-0.4-1.6c-0.3-0.3-1.4-0.4-1.8-0.5
	c-0.4-0.1-0.9,0.3-1.2,0.5c-0.4,0.2-1,0.3-1.1,0.8c-0.4,1.1-0.9,2-1.1,3.1c-0.4,2.2-0.7,4.4-1.8,6.4c-0.2,0.4-0.4,1-0.7,1.4
	c-0.4,0.4-1,0.7-1.5,1c-0.3,0.2-0.7,0.6-1.1,0.7c-0.7,0.2-1.4,0.3-2.1,0.5c-1.1,0.2-2.1-0.1-3.2-0.4c-0.9-0.2-1.7-1.3-2.3-1.9
	c-0.2-0.2-0.3-1.1-0.3-1.4c-0.1-0.5-0.3-1.1-0.3-1.6c0-1.1,0-2.2,0-3.4c0-0.5,0-1.1,0-1.6c0-0.4-0.1-1.2,0-1.6
	c0.2-0.6,0.4-1.1,0.6-1.7c0.1-0.3,0.2-1,0.5-1.2c0.9-0.8,1.9-1.6,2.8-2.3c0.8-0.7,2.2-1.1,3.1-1.6c1.9-0.9,3.9-1.5,5.9-1.9
	c2.1-0.4,4.2-0.4,6.4-0.4c2.2,0,4.4,0,6.6,0.4c1.4,0.2,2.7,1,3.8,1.9c0.7,0.5,1.3,1.1,2,1.6C462.9,335.5,463.3,335.6,464,335.1z"/>
<path fill="none" stroke="#000000" stroke-width="3" stroke-miterlimit="2.6131" d="M464,335.1c0.1-0.1,0.3-0.3,0.4-0.4
	c0,2.1,0.1,4.2-0.1,6.3c-0.1,0.6-0.1,1.2-0.2,1.8c0,0.4,0,1.1-0.1,1.5c-0.2,0.5-0.4,1.1-0.6,1.6c-0.1,0.3-0.3,1.2-0.6,1.4
	c-0.9,0.7-1.8,1.5-2.7,2.2c-0.3,0.2-0.9,0.3-1.2,0.4c-0.7,0.2-1.4,0.5-2,0.7c-0.9,0.3-2.3,0.1-3.2,0.1c-0.4,0-0.9-0.4-1.3-0.5
	c-0.4-0.2-1.1-0.3-1.3-0.7c-0.5-1-1-2-1.1-3.1c-0.1-1.1-0.2-2.2-0.3-3.3c0-1.1,0-2.2-0.3-3.3c-0.1-0.4-0.1-1.3-0.4-1.6
	c-0.3-0.3-1.4-0.4-1.8-0.5c-0.4-0.1-0.9,0.3-1.2,0.5c-0.4,0.2-1,0.3-1.1,0.8c-0.4,1.1-0.9,2-1.1,3.1c-0.4,2.2-0.7,4.4-1.8,6.4
	c-0.2,0.4-0.4,1-0.7,1.4c-0.4,0.4-1,0.7-1.5,1c-0.3,0.2-0.7,0.6-1.1,0.7c-0.7,0.2-1.4,0.3-2.1,0.5c-1.1,0.2-2.1-0.1-3.2-0.4
	c-0.9-0.2-1.7-1.3-2.3-1.9c-0.2-0.2-0.3-1.1-0.3-1.4c-0.1-0.5-0.3-1.1-0.3-1.6c0-1.1,0-2.2,0-3.4c0-0.5,0-1.1,0-1.6
	c0-0.4-0.1-1.2,0-1.6c0.2-0.6,0.4-1.1,0.6-1.7c0.1-0.3,0.2-1,0.5-1.2c0.9-0.8,1.9-1.6,2.8-2.3c0.8-0.7,2.2-1.1,3.1-1.6
	c1.9-0.9,3.9-1.5,5.9-1.9c2.1-0.4,4.2-0.4,6.4-0.4c2.2,0,4.4,0,6.6,0.4c1.4,0.2,2.7,1,3.8,1.9c0.7,0.5,1.3,1.1,2,1.6
	C462.9,335.5,463.3,335.6,464,335.1z"/>
<path fill="#CAD1E2" stroke="#000000" stroke-miterlimit="10" d="M434.8,313.3c0.3-0.1,0.6-0.3,0.9-0.4c-3.5,2.5-6.7,5-9.2,8.5
	c-1.4,1.9-2.6,3.9-3.9,5.9c-1.2,1.9-1.7,4-2.2,6.1c-0.1,0.4-0.4,0.9-0.6,1.3c-0.2,0.3-0.3,1-0.7,1.2c-0.9,0.4-1.9,1-2.9,1
	c-1.1,0-2.2,0.2-3.3,0.1c-0.6-0.1-1.3-0.2-1.9-0.3c-0.4-0.1-1.1,0-1.5-0.2c-0.5-0.3-1-0.5-1.5-0.8c-0.3-0.1-1.1-0.4-1.2-0.7
	c-0.4-0.9-1.2-1.9-1.2-3c0-1.1,0-2.2,0.4-3.3c0.4-1,0.7-2,1.3-3c1.1-1.9,2.2-3.9,3.6-5.5c1.6-1.9,3.1-3.6,4.9-5.3
	c1.4-1.3,2.9-2.6,4.5-3.7c0.8-0.6,1.9-1.5,2.8-1.8c0.6-0.2,1.3-0.4,1.9-0.6c0.4-0.1,0.8-0.3,1.2-0.2c0.7,0.2,1.9,0.4,2.5,0.8
	c0.7,0.5,1.5,1.1,2.2,1.6c0.6,0.4,1.1,1,1.7,1.5c0.4,0.3,0.7,0.5,1.1,0.8C433.9,313.4,434.5,313.3,434.8,313.3z"/>
<path fill="#FFFFFF" stroke="#000000" stroke-width="3" stroke-miterlimit="2.6131" d="M434.8,313.3c0.3-0.1,0.6-0.3,0.9-0.4
	c-3.5,2.5-6.7,5-9.2,8.5c-1.4,1.9-2.6,3.9-3.9,5.9c-1.2,1.9-1.7,4-2.2,6.1c-0.1,0.4-0.4,0.9-0.6,1.3c-0.2,0.3-0.3,1-0.7,1.2
	c-0.9,0.4-1.9,1-2.9,1c-1.1,0-2.2,0.2-3.3,0.1c-0.6-0.1-1.3-0.2-1.9-0.3c-0.4-0.1-1.1,0-1.5-0.2c-0.5-0.3-1-0.5-1.5-0.8
	c-0.3-0.1-1.1-0.4-1.2-0.7c-0.4-0.9-1.2-1.9-1.2-3c0-1.1,0-2.2,0.4-3.3c0.4-1,0.7-2,1.3-3c1.1-1.9,2.2-3.9,3.6-5.5
	c1.6-1.9,3.1-3.6,4.9-5.3c1.4-1.3,2.9-2.6,4.5-3.7c0.8-0.6,1.9-1.5,2.8-1.8c0.6-0.2,1.3-0.4,1.9-0.6c0.4-0.1,0.8-0.3,1.2-0.2
	c0.7,0.2,1.9,0.4,2.5,0.8c0.7,0.5,1.5,1.1,2.2,1.6c0.6,0.4,1.1,1,1.7,1.5c0.4,0.3,0.7,0.5,1.1,0.8
	C433.9,313.4,434.5,313.3,434.8,313.3z"/>
<path fill="#FFFFFF" stroke="#000000" stroke-miterlimit="10" d="M401.6,337.3c4.7,0,9.5,0,14.2,0c2.5,0,5,0,7.5,0
	c0.1,0,0.9,0,0.9,0c0-0.6,0-1.1,0-1.7c0-5.8,0-11.7,0-17.5c0-0.4,0.2-3.4-0.1-3.4c-2,0-3.9,0-5.9,0c-5.4,0-10.8,0-16.3,0
	c-0.4,0-0.4-0.1-0.4,0.3c0,0.8,0,1.6,0,2.4c0,3,0,5.9,0,8.9C401.6,329.9,401.6,333.6,401.6,337.3z"/>
<path fill="none" stroke="#000000" stroke-width="3" stroke-miterlimit="2.6131" d="M401.6,337.3c4.7,0,9.5,0,14.2,0
	c2.5,0,5,0,7.5,0c0.1,0,0.9,0,0.9,0c0-0.6,0-1.1,0-1.7c0-5.8,0-11.7,0-17.5c0-0.4,0.2-3.4-0.1-3.4c-2,0-3.9,0-5.9,0
	c-5.4,0-10.8,0-16.3,0c-0.4,0-0.4-0.1-0.4,0.3c0,0.8,0,1.6,0,2.4c0,3,0,5.9,0,8.9C401.6,329.9,401.6,333.6,401.6,337.3z"/>
<path fill="#FFFFFF" stroke="#000000" stroke-width="3" stroke-miterlimit="2.6131" d="M420.4,337.3c-0.1,0-0.3,0-0.4,0
	c0.3-0.9,0.9-1.9,0.9-2.8c0-0.4,0.1-1.4-0.1-1.8c-0.2-0.3-1.5-0.5-1.8-0.6c-1-0.3-2.3,0-3.3,0c-1,0-2.1,0.2-3.1,0.3
	c-0.4,0-1,0.4-1.4,0.6c-0.4,0.2-0.9,0.2-1.2,0.7c-0.3,0.6-0.6,1.2-0.9,1.7c-0.2,0.3,0.2,1.3,0.3,1.6c0.1,0.6,0.1,0.6,0.6,0.9
	c0.6,0.3,1.1,0.7,1.7,1c0.3,0.2,1,0.1,1.4,0.2c0.6,0.1,1.2,0.2,1.7,0.2c1,0,2.3-0.2,3.3-0.5c0.7-0.2,1.3-0.5,2-0.7
	C420.4,338.1,421.3,337.3,420.4,337.3z"/>
<path fill="none" stroke="#000000" stroke-width="0.9638" stroke-miterlimit="2.6131" d="M420.4,337.3c-0.1,0-0.3,0-0.4,0
	c0.3-0.9,0.9-1.9,0.9-2.8c0-0.4,0.1-1.4-0.1-1.8c-0.2-0.3-1.5-0.5-1.8-0.6c-1-0.3-2.3,0-3.3,0c-1,0-2.1,0.2-3.1,0.3
	c-0.4,0-1,0.4-1.4,0.6c-0.4,0.2-0.9,0.2-1.2,0.7c-0.3,0.6-0.6,1.2-0.9,1.7c-0.2,0.3,0.2,1.3,0.3,1.6c0.1,0.6,0.1,0.6,0.6,0.9
	c0.6,0.3,1.1,0.7,1.7,1c0.3,0.2,1,0.1,1.4,0.2c0.6,0.1,1.2,0.2,1.7,0.2c1,0,2.3-0.2,3.3-0.5c0.7-0.2,1.3-0.5,2-0.7
	C420.4,338.1,421.3,337.3,420.4,337.3z"/>
<path d="M472.3,282.3c0-4.2-0.1-8.4-0.5-12.7c-0.2-2.2-0.2-4.4-0.4-6.6c-0.2-2.1-0.4-4.3-1.6-6.1c-1.1-1.9-2.3-3.7-4.2-4.8
	c-2.1-1.3-4.1-2.4-6.3-3.4c-1-0.5-2.3-0.6-3.3-0.9c-1-0.2-2-0.2-3-0.3c-2.2-0.2-4.3-0.2-6.5-0.2c-2.3,0-4.6,0.1-6.9,0.3
	c-2.2,0.2-4.2,1.4-6,2.4c-1.9,1-3.3,2.8-4.6,4.4c-1.4,1.7-2,3.8-2.4,5.9c-0.9,4.4,0.2,8.6,0.9,13c0.4,2-0.3,4.3-0.7,6.3
	c-0.2,1-0.7,2.1-1.1,3.1c-0.4,1-0.7,2-1,3c-0.3,0.9-0.2,2.1-0.4,3.1c-0.1,1,0.1,2.2,0.2,3.2c0.1,1.1,0.4,2.3,0.7,3.4
	c0.2,1,1,2.2,1.4,3.1c0.4,0.9,1.6,1.6,2.2,2.3c0.7,0.7,1.5,1.2,2.3,1.8c1.7,1.2,3.5,2.4,5.5,3c2.1,0.6,4.2,1.2,6.4,1.1
	c2.1-0.1,4.4,0,6.5-0.5c2.3-0.5,4.4-1.2,6.5-2.1c2-0.8,4-1.8,6-2.7c1.8-0.8,3.5-1.8,5.2-2.8c0.8-0.5,1.6-1.6,2.2-2.3
	c0.6-0.6,0.9-1.9,1.3-2.7c0.4-0.8,0.3-2,0.4-2.9c0.1-1,0.1-2,0.2-3C471.5,285.9,472,284.1,472.3,282.3z"/>
<path fill="#FFFFFF" stroke="#000000" stroke-width="3" stroke-miterlimit="2.6131" d="M472.3,282.3c0-4.2-0.1-8.4-0.5-12.7
	c-0.2-2.2-0.2-4.4-0.4-6.6c-0.2-2.1-0.4-4.3-1.6-6.1c-1.1-1.9-2.3-3.7-4.2-4.8c-2.1-1.3-4.1-2.4-6.3-3.4c-1-0.5-2.3-0.6-3.3-0.9
	c-1-0.2-2-0.2-3-0.3c-2.2-0.2-4.3-0.2-6.5-0.2c-2.3,0-4.6,0.1-6.9,0.3c-2.2,0.2-4.2,1.4-6,2.4c-1.9,1-3.3,2.8-4.6,4.4
	c-1.4,1.7-2,3.8-2.4,5.9c-0.9,4.4,0.2,8.6,0.9,13c0.4,2-0.3,4.3-0.7,6.3c-0.2,1-0.7,2.1-1.1,3.1c-0.4,1-0.7,2-1,3
	c-0.3,0.9-0.2,2.1-0.4,3.1c-0.1,1,0.1,2.2,0.2,3.2c0.1,1.1,0.4,2.3,0.7,3.4c0.2,1,1,2.2,1.4,3.1c0.4,0.9,1.6,1.6,2.2,2.3
	c0.7,0.7,1.5,1.2,2.3,1.8c1.7,1.2,3.5,2.4,5.5,3c2.1,0.6,4.2,1.2,6.4,1.1c2.1-0.1,4.4,0,6.5-0.5c2.3-0.5,4.4-1.2,6.5-2.1
	c2-0.8,4-1.8,6-2.7c1.8-0.8,3.5-1.8,5.2-2.8c0.8-0.5,1.6-1.6,2.2-2.3c0.6-0.6,0.9-1.9,1.3-2.7c0.4-0.8,0.3-2,0.4-2.9
	c0.1-1,0.1-2,0.2-3C471.5,285.9,472,284.1,472.3,282.3z"/>
<path fill="#131E1F" d="M453.4,265.9c0.5-0.1,0.8,0,0.7-0.6c-0.1-0.4-0.3-0.9-0.4-1.3c-0.5,0.1-0.8,0-0.7,0.6
	C453.2,265,453.3,265.4,453.4,265.9c-0.2-0.6-0.3-1.1-0.5-1.7C451.9,264.5,452.4,266.2,453.4,265.9z"/>
<path fill="#131E1F" d="M450.7,264.9c0.1,0.2,0.4,1.7,0.6,1.6c0.7-0.2,1.5-0.4,2.2-0.6c-0.1-0.2-0.4-1.7-0.6-1.6
	C452.1,264.4,451.4,264.6,450.7,264.9c-1.1,0.2-0.6,2,0.5,1.7C451,266,450.8,265.4,450.7,264.9z"/>
<path fill="#131E1F" d="M447.7,265.7c0.2,0.5,0.3,1.1,0.5,1.6c0,0.1,1.4-0.4,1.5-0.4c0.1,0,1.5-0.4,1.5-0.5
	c-0.2-0.5-0.3-1.1-0.5-1.6C449.7,265.2,448.7,265.4,447.7,265.7c-1,0.3-0.6,2,0.5,1.7C448,266.8,447.9,266.3,447.7,265.7z"/>
<path fill="#131E1F" d="M445.4,268.3c0.9-0.3,1.9-0.6,2.8-0.9c-0.2-0.6-0.4-1.1-0.5-1.7c-0.8,0.3-1.7,0.5-2.5,0.8
	C444.7,266.7,445.3,267.8,445.4,268.3c-0.1-0.6-0.3-1.1-0.4-1.7c-0.5,0.2-0.7,0.6-0.6,1.1C444.5,268.1,445.4,268.5,445.4,268.3z"/>
<path fill="#131E1F" d="M442.8,268.6c0.8,0.2,1.4,0,2.2-0.2c0.5-0.1,0.5,0,0.4-0.5c-0.1-0.4-0.2-0.9-0.3-1.3
	c-0.6,0.1-1.3,0.3-1.9,0.4C442.9,267.1,442.8,268.3,442.8,268.6c0.1-0.5,0.2-1,0.3-1.6c-1.1,0.3-0.7,1.9,0.4,1.7
	C443.2,268.7,443,268.6,442.8,268.6z"/>
<path fill="#131E1F" d="M442.1,268.1c0.7,0.5,0.6,0.5,1.1-0.2c0.2-0.3,0.4-0.5,0.5-0.8c0-0.1-0.5-0.4-0.6-0.5
	C442.8,267.2,442.4,267.7,442.1,268.1z"/>
<path fill="#FFFFFF" d="M435.6,267.4c-2.6-1.3-5.6-2.4-7.8-4.4C430.4,264.5,433,266,435.6,267.4z"/>
<path fill="#131E1F" d="M434.6,267.9c0.2,0.1,0.4,0.2,0.7,0.3c0.3-0.5,0.5-1,0.8-1.6c-0.3-0.2-0.6-0.5-0.8-0.1
	C435,267,434.8,267.4,434.6,267.9c0.3-0.5,0.5-1,0.8-1.6C434.3,265.8,433.6,267.5,434.6,267.9z"/>
<path fill="#131E1F" d="M433.4,265.3c-0.1,0.2-0.8,1.5-0.8,1.6c0.6,0.3,1.3,0.7,1.9,1c0.3-0.5,0.5-1,0.8-1.6
	C434.7,266,434,265.7,433.4,265.3c-1-0.5-1.8,1.1-0.8,1.6C432.9,266.4,433.1,265.9,433.4,265.3z"/>
<path fill="#131E1F" d="M430.4,265.8c0.7,0.4,1.5,0.7,2.2,1.1c0.1-0.2,0.8-1.5,0.7-1.6c-0.7-0.4-1.4-0.7-2.1-1.1
	C430.9,264.8,430.7,265.3,430.4,265.8c0.3-0.5,0.5-1,0.8-1.6C430.2,263.8,429.4,265.3,430.4,265.8z"/>
<path fill="#131E1F" d="M429,265.1c0.4,0.3,0.9,0.5,1.4,0.7c0.2-0.4,0.4-0.7,0.5-1.1c0.3-0.5,0.2-0.5-0.3-0.7
	c-0.5-0.2-0.6-0.5-0.9-0.1C429.5,264.3,429.3,264.7,429,265.1c0.3-0.5,0.6-1,0.9-1.5c-0.4-0.2-1,0-1.2,0.4c-0.1,0.2-0.1,0.4,0,0.6
	c0,0.1,0.1,0.2,0.2,0.3C428.9,265.1,429.1,265.2,429,265.1z"/>
<path fill="#131E1F" d="M428.1,264.5c0.3,0.2,0.6,0.4,1,0.6c0.2-0.3,0.4-0.7,0.6-1c0.3-0.5,0.4-0.4-0.1-0.8c-0.4-0.3-0.4-0.3-0.7,0
	C428.6,263.8,428.3,264.1,428.1,264.5c0.3-0.5,0.7-0.9,1-1.4c-0.9-0.6-1.9,0.9-0.9,1.5C428.1,264.5,428.1,264.5,428.1,264.5z"/>
<path fill="#131E1F" d="M427.2,263.7c0.2,0.1,0.8,0.8,0.9,0.7c0.4-0.4,0.7-0.8,1.1-1.2c-0.2-0.2-0.8-0.8-0.9-0.7
	C427.9,262.9,427.6,263.3,427.2,263.7z"/>
<path fill="#FFFFFF" stroke="#000000" stroke-miterlimit="2.6131" d="M452.2,273.1c0-1.6-0.5-3.7-2-4.5c-1.4-0.8-2.8,0.2-3.4,1.5
	c-0.9,1.6-0.9,3.8-0.3,5.5c0.5,1.3,1.7,2.7,3.2,2.2C451.6,277.2,452.2,274.8,452.2,273.1z"/>
<path fill="none" stroke="#131E1F" stroke-width="0.9638" stroke-miterlimit="2.6131" d="M452.2,273.1c0-1.6-0.5-3.7-2-4.5
	c-1.4-0.8-2.8,0.2-3.4,1.5c-0.9,1.6-0.9,3.8-0.3,5.5c0.5,1.3,1.7,2.7,3.2,2.2C451.6,277.2,452.2,274.8,452.2,273.1"/>
<path fill="#FFFFFF" stroke="#000000" stroke-miterlimit="2.6131" d="M435.6,273.1c0-1.6-0.5-3.7-2-4.5c-1.4-0.8-2.7,0.2-3.4,1.5
	c-0.9,1.6-0.9,3.8-0.3,5.5c0.5,1.3,1.7,2.7,3.2,2.2C435,277.2,435.7,274.8,435.6,273.1z"/>
<path fill="none" stroke="#131E1F" stroke-width="0.9638" stroke-miterlimit="2.6131" d="M435.6,273.1c0-1.6-0.5-3.7-2-4.5
	c-1.4-0.8-2.7,0.2-3.4,1.5c-0.9,1.6-0.9,3.8-0.3,5.5c0.5,1.3,1.7,2.7,3.2,2.2C435,277.2,435.7,274.8,435.6,273.1"/>
<path fill="#B5B5B6" stroke="#000000" stroke-miterlimit="10" d="M460.1,301.5c1.6,1.4,3.2,2.7,4.6,4.4c0.7,0.8,1.4,1.5,1.7,2.5
	c0.3,1,0.7,2.1,0.7,3.1c0,4.6,0,9.1,0,13.7c0,2.1-0.1,4.2-0.5,6.2c-0.1,0.5-0.1,1.1-0.3,1.6c-0.2,0.5-0.8,1-1.2,1.5
	c-0.7,0.9-2,0.8-3.1,1.1c-1,0.2-2.3,0.1-3.3,0.1c-1.1,0-2.2,0.2-3.2,0.3c-2.2,0.2-4.3,0.4-6.5,0.5c-4.4,0.2-8.7,0-13.1,0
	c-1.1,0-2.1-0.3-3.2-0.5c-1-0.2-1.9-1-2.8-1.6c-1.8-1.1-3.1-2.9-4-4.8c-0.9-2-1.4-4-2-6.1c-0.5-2.1-1-4.2-1.2-6.4
	c-0.1-1.2-0.1-2.2,0.1-3.4c0.1-0.5,0.1-1.1,0.3-1.6c0.2-0.5,0.6-1.1,0.9-1.5c0.7-1.1,1.3-1.7,2.2-2.5c0.3-0.2,0.6-0.7,1-0.8
	c0.7-0.2,1.3-0.5,2-0.7c2.1-0.7,4.4-0.5,6.5-0.3c2.1,0.2,4.3,0.4,6.4,0.5c1.9,0.1,4.3,0,6.2-0.4c2.1-0.5,4.2-0.9,6-2
	c0.5-0.3,1.1-0.6,1.6-1c0.3-0.2,0.4-0.9,0.7-1C457.8,302.1,458.9,301.8,460.1,301.5z"/>
<path fill="none" stroke="#000000" stroke-width="3" stroke-miterlimit="2.6131" d="M460.1,301.5c1.6,1.4,3.2,2.7,4.6,4.4
	c0.7,0.8,1.4,1.5,1.7,2.5c0.3,1,0.7,2.1,0.7,3.1c0,4.6,0,9.1,0,13.7c0,2.1-0.1,4.2-0.5,6.2c-0.1,0.5-0.1,1.1-0.3,1.6
	c-0.2,0.5-0.8,1-1.2,1.5c-0.7,0.9-2,0.8-3.1,1.1c-1,0.2-2.3,0.1-3.3,0.1c-1.1,0-2.2,0.2-3.2,0.3c-2.2,0.2-4.3,0.4-6.5,0.5
	c-4.4,0.2-8.7,0-13.1,0c-1.1,0-2.1-0.3-3.2-0.5c-1-0.2-1.9-1-2.8-1.6c-1.8-1.1-3.1-2.9-4-4.8c-0.9-2-1.4-4-2-6.1
	c-0.5-2.1-1-4.2-1.2-6.4c-0.1-1.2-0.1-2.2,0.1-3.4c0.1-0.5,0.1-1.1,0.3-1.6c0.2-0.5,0.6-1.1,0.9-1.5c0.7-1.1,1.3-1.7,2.2-2.5
	c0.3-0.2,0.6-0.7,1-0.8c0.7-0.2,1.3-0.5,2-0.7c2.1-0.7,4.4-0.5,6.5-0.3c2.1,0.2,4.3,0.4,6.4,0.5c1.9,0.1,4.3,0,6.2-0.4
	c2.1-0.5,4.2-0.9,6-2c0.5-0.3,1-0.6,1.5-0.9c0.3-0.2,0.5-0.7,0.7-1"/>
<path fill="#FFFFFF" d="M452.2,305.9c-0.9,0-1.8,0-2.6,0H452.2z"/>
<path fill="none" stroke="#131E1F" stroke-width="3" stroke-miterlimit="2.6131" d="M452.2,305.9c-0.9,0-1.8,0-2.6,0"/>
<path fill="#FFFFFF" stroke="#000000" stroke-miterlimit="10" d="M451.3,305.9c-2.3,8.7-4.6,17.4-7,26.1c0,0,0,0,0,0
	c-3.5-8.6-6.9-17.3-10.4-25.9c0-0.1-0.1-0.2-0.1-0.2C439.7,305.9,445.5,305.9,451.3,305.9z"/>
<path fill="none" stroke="#000000" stroke-width="3" stroke-miterlimit="2.6131" d="M451.3,305.9c-2.3,8.7-4.6,17.4-7,26.1
	c0,0,0,0,0,0c-3.5-8.6-6.9-17.3-10.4-25.9c0-0.1-0.1-0.2-0.1-0.2C439.7,305.9,445.5,305.9,451.3,305.9z"/>
<path fill="#71ACD9" stroke="#000000" stroke-miterlimit="10" d="M443.5,306.7c-0.1,0-0.9,0-0.9,0c0,0.5,0,0.9,0,1.4
	c0,0.7,0,1.4,0,2.1c0,1.5,0,3,0,4.4c0,3.2-0.1,6.5,0.2,9.7c1.7-2.8,1.5-6.3,1.6-9.5c0-1.4,0.3-2.9,0.4-4.3c0.1-0.9,0.1-1.6,0-2.4
	C444.8,307.3,444.3,307,443.5,306.7z"/>
<path fill="#FFFFFF" stroke="#000000" stroke-width="3" stroke-miterlimit="2.6131" d="M443.5,306.7c-0.1,0-0.9,0-0.9,0
	c0,0.5,0,0.9,0,1.4c0,0.7,0,1.4,0,2.1c0,1.5,0,3,0,4.4c0,3.2-0.1,6.5,0.2,9.7c1.7-2.8,1.5-6.3,1.6-9.5c0-1.4,0.3-2.9,0.4-4.3
	c0.1-0.9,0.1-1.6,0-2.4C444.8,307.3,444.3,307,443.5,306.7z"/>
<path fill="#FFFFFF" stroke="#000000" stroke-miterlimit="10" d="M433.4,298.4c-0.2-0.1-0.3-0.3-0.4-0.4c0,2.3,0,4.5,0,6.8
	c0,1.1,0,2.2,0,3.2c0,0.4,0.3,0.9,0.4,1.3c0.2,0.6,0.1,0.9,0.7,1c0.6,0.1,1.2,0.2,1.8,0.3c0.4,0.1,1.2-0.5,1.5-0.7
	c0.3-0.1,0.9-0.2,1.1-0.6c0.4-0.6,0.8-1.3,1.1-1.9c0.5-0.8,0.3-2.2,0.3-3.2c0-0.3-0.3-0.7-0.4-1c-0.3-0.6-0.6-1.2-0.9-1.8
	c-0.2-0.4-0.7-0.7-0.9-1c-0.3-0.3-0.7-0.9-1.2-1.1c-0.5-0.2-1-0.6-1.6-0.6C434.4,298.8,434,298.7,433.4,298.4z"/>
<path fill="none" stroke="#000000" stroke-width="3" stroke-miterlimit="2.6131" d="M433.4,298.4c-0.2-0.1-0.3-0.3-0.4-0.4
	c0,2.3,0,4.5,0,6.8c0,1.1,0,2.2,0,3.2c0,0.4,0.3,0.9,0.4,1.3c0.2,0.6,0.1,0.9,0.7,1c0.6,0.1,1.2,0.2,1.8,0.3
	c0.4,0.1,1.2-0.5,1.5-0.7c0.3-0.1,0.9-0.2,1.1-0.6c0.4-0.6,0.8-1.3,1.1-1.9c0.5-0.8,0.3-2.2,0.3-3.2c0-0.3-0.3-0.7-0.4-1
	c-0.3-0.6-0.6-1.2-0.9-1.8c-0.2-0.4-0.7-0.7-0.9-1c-0.3-0.3-0.7-0.9-1.2-1.1c-0.5-0.2-1-0.6-1.6-0.6
	C434.4,298.8,434,298.7,433.4,298.4z"/>
<path fill="#C6E2E0" d="M447,299.3c-0.2-8.9-14.7-10-17.2-1.9c-1.3,4.1,2,8,5.9,9c3.7,0.9,7.9-0.2,10.1-3.5
	C446.6,301.9,446.9,300.6,447,299.3z"/>
<path fill="#B5B5B6" stroke="#131E1F" stroke-width="3" stroke-miterlimit="2.6131" d="M447,299.3c-0.2-8.9-14.7-10-17.2-1.9
	c-1.3,4.1,2,8,5.9,9c3.7,0.9,7.9-0.2,10.1-3.5C446.6,301.9,446.9,300.6,447,299.3"/>
<path fill="#B5B5B6" stroke="#000000" stroke-miterlimit="10" d="M446.1,297.1c0-0.3,0-0.6,0-0.9c1.9,0.6,3.9,1.3,5.8,2
	c2,0.8,4.4,1.4,6.3,2.5c0.9,0.5,2.1,1,2.8,1.6c0.7,0.7,1.9,1.4,2.4,2.2c0.6,1,1.3,2,1.9,3c0.2,0.3,0.2,0.8,0.3,1.1
	c0.2,0.7,0.4,1.4,0.5,2.1c0.1,0.3-0.2,0.8-0.3,1.1c-0.2,0.6-0.4,1.2-0.6,1.8c-0.1,0.4-0.7,0.8-0.9,1.1c-0.4,0.4-0.7,1-1.2,1.3
	c-1.7,1.6-3.7,2.3-5.8,3.2c-0.4,0.1-1,0-1.4,0.1c-0.6,0-1.2,0.1-1.7,0.1c-1-0.1-2.1-0.3-3.1-0.7c-2.1-0.7-4.2-1.4-6-2.7
	c-0.8-0.6-1.5-1.3-2.3-1.9c-0.7-0.6-1-1.3-1.5-2.1c-0.2-0.3-0.5-0.7-0.6-1c-0.1-0.4,0.1-1,0.2-1.4c0.1-0.9,0.2-1.6,0.6-2.4
	c0.8-1.8,1.7-3.5,2.6-5.2c0.4-0.8,0.9-1.6,1.3-2.4C446.1,298.7,446.1,298,446.1,297.1z"/>
<path fill="none" stroke="#000000" stroke-width="3" stroke-miterlimit="2.6131" d="M446.1,297.1c0-0.3,0-0.6,0-0.9
	c1.9,0.6,3.9,1.3,5.8,2c2,0.8,4.4,1.4,6.3,2.5c0.9,0.5,2.1,1,2.8,1.6c0.7,0.7,1.9,1.4,2.4,2.2c0.6,1,1.3,2,1.9,3
	c0.2,0.3,0.2,0.8,0.3,1.1c0.2,0.7,0.4,1.4,0.5,2.1c0.1,0.3-0.2,0.8-0.3,1.1c-0.2,0.6-0.4,1.2-0.6,1.8c-0.1,0.4-0.7,0.8-0.9,1.1
	c-0.4,0.4-0.7,1-1.2,1.3c-1.7,1.6-3.7,2.3-5.8,3.2c-0.4,0.1-1,0-1.4,0.1c-0.6,0-1.2,0.1-1.7,0.1c-1-0.1-2.1-0.3-3.1-0.7
	c-2.1-0.7-4.2-1.4-6-2.7c-0.8-0.6-1.5-1.3-2.3-1.9c-0.7-0.6-1-1.3-1.5-2.1c-0.2-0.3-0.5-0.7-0.6-1c-0.1-0.4,0.1-1,0.2-1.4
	c0.1-0.9,0.2-1.6,0.6-2.4c0.8-1.8,1.7-3.5,2.6-5.2c0.4-0.8,0.9-1.6,1.3-2.4C446.1,298.7,446.1,298,446.1,297.1z"/>
<path fill="#FFFFFF" stroke="#000000" stroke-miterlimit="10" d="M429.5,298.4c0.3-0.1,0.6-0.3,0.9-0.4c-2-0.9-4-1.7-6.1-2.4
	c-0.9-0.3-2.1-0.6-3.1-0.7c-0.5,0-1.1,0.1-1.6,0.1c-0.4,0-1.1-0.1-1.4,0.1c-0.5,0.3-1.1,0.6-1.6,0.9c-0.3,0.2-0.9,0.4-1.1,0.7
	c-0.4,0.6-0.7,1.1-1.1,1.7c-0.3,0.4,0.2,0.8,0.5,1.2c0.7,0.9,1.4,1.8,2.1,2.8c0.4,0.5-0.5,2.1-0.6,2.7c-0.1,0.7-0.3,1.3-0.4,2
	c-0.1,0.5,0.1,0.6,0.4,1c0.4,0.5,0.8,1,1.3,1.5c0.2,0.3,0.8,0.4,1.2,0.5c0.6,0.2,1.2,0.5,1.9,0.7c0.3,0.1,0.9-0.2,1.3-0.2
	c1.1-0.3,2.1-0.6,3.2-1c1.1-0.5,2-0.8,3.1-1c1.2-0.2,2.2-0.4,3.3-0.8c0.6-0.2,0.6-0.2,0.7-0.8c0.1-0.4,0.4-1.3,0.3-1.7
	c-0.3-0.9-0.4-2.2-0.9-3c-0.4-0.6-0.9-1.3-1.3-1.9c-0.3-0.4-0.6-0.8-0.9-1.2C429.2,299.1,429.4,298.8,429.5,298.4z"/>
<path fill="none" stroke="#000000" stroke-width="3" stroke-miterlimit="2.6131" d="M429.5,298.4c0.3-0.1,0.6-0.3,0.9-0.4
	c-2-0.9-4-1.7-6.1-2.4c-0.9-0.3-2.1-0.6-3.1-0.7c-0.5,0-1.1,0.1-1.6,0.1c-0.4,0-1.1-0.1-1.4,0.1c-0.5,0.3-1.1,0.6-1.6,0.9
	c-0.3,0.2-0.9,0.4-1.1,0.7c-0.4,0.6-0.7,1.1-1.1,1.7c-0.3,0.4,0.2,0.8,0.5,1.2c0.7,0.9,1.4,1.8,2.1,2.8c0.4,0.5-0.5,2.1-0.6,2.7
	c-0.1,0.7-0.3,1.3-0.4,2c-0.1,0.5,0.1,0.6,0.4,1c0.4,0.5,0.8,1,1.3,1.5c0.2,0.3,0.8,0.4,1.2,0.5c0.6,0.2,1.2,0.5,1.9,0.7
	c0.3,0.1,0.9-0.2,1.3-0.2c1.1-0.3,2.1-0.6,3.2-1c1.1-0.5,2-0.8,3.1-1c1.2-0.2,2.2-0.4,3.3-0.8c0.6-0.2,0.6-0.2,0.7-0.8
	c0.1-0.4,0.4-1.3,0.3-1.7c-0.3-0.9-0.4-2.2-0.9-3c-0.4-0.6-0.9-1.3-1.3-1.9c-0.3-0.4-0.6-0.8-0.9-1.2
	C429.2,299.1,429.4,298.8,429.5,298.4z"/>
<path d="M475.4,276.2c-0.1,0-0.3,0-0.5,0c0.9-2,1.7-4,2.4-6.1c0.7-1.9,0.8-4.2,1.1-6.1c0.3-2.1,0.7-4.2,0.8-6.3
	c0.1-2.1,0.3-4.5-0.6-6.4c-0.9-1.9-2-3.7-3.6-5.2c-0.8-0.7-1.5-1.6-2.4-2.2c-0.6-0.4-1.1-0.8-1.7-1.1c-0.4-0.2-0.8-0.7-1.2-0.8
	c-2-0.7-4-1.4-6.1-1.2c-2.2,0.2-4.4,0.5-6.6-0.2c-2-0.6-4-1.4-6-1.6c-1-0.1-2.2-0.3-3.2-0.2c-1.3,0.1-2.6,0.3-3.9,0.4
	c-1,0.1-2.2,0.7-3.2,1.1c-1,0.3-2,0.6-2.9,0.9c-0.3,0.1-0.9,0.4-1.2,0.3c-0.6-0.1-1.2-0.2-1.8-0.3c-1.1-0.2-2-0.4-3.1-0.8
	c-2-0.7-4.2-1.7-6.4-1.6c-0.4,0-1.2-0.1-1.6,0.1c-0.4,0.2-0.9,0.9-1.2,1.2c-0.9,0.9-1.3,1.4-1.8,2.5c-0.4,0.9-1,1.9-1.1,2.9
	c-0.2,1-0.6,2.3-0.5,3.4c0.1,1.1,0.1,2.4,0.3,3.5c0.1,0.5,0.3,1,0.5,1.5c0.1,0.4,0.2,1.1,0.5,1.5c0.5,0.7,1.2,1.9,1.9,2.3
	c0.6,0.3,1.1,0.6,1.7,0.9c0.3,0.2,0.8,0.6,1.2,0.6c1.2,0.1,2.4,0.2,3.6,0.3c0.3,0,0.7-0.2,0.9-0.3c0.8-0.3,1.5-0.6,2.3-0.9
	c2-0.8,4-1.7,6.1-2.6c0.8-0.3,1.9-0.4,2.7-0.5c1.3-0.3,2.6-0.5,3.9-0.8c0.9-0.2,1.9,0,2.8,0.1c0.7,0,1.5,0.1,2.2,0.1
	c0.2,0,0.9-0.1,1,0c0.9,0.8,1.9,1.6,2.8,2.4c0.3,0.3,0.5,0.7,0.7,1c0.1,0.2,0.8,1.3,0.9,1.3c1.1-0.1,2.2-0.1,3.4-0.3
	c0.7-0.1,0.8-0.3,1.1,0.3c0.2,0.5,0.5,0.9,0.4,1.4c-0.1,1.1-0.1,2.2-0.4,3.3c-0.3,1.2-0.5,2.2-0.5,3.5c0,0.5-0.2,0.9,0.3,1.1
	c0.4,0.2,1,0.6,1.5,0.6c1.1,0.1,2.2,0.1,3.2,0.4c0.6,0.2,1.2,0.3,1.9,0.5c0.4,0.1,1,0.7,1.3,1c0.5,0.4,0.5,0.4,0.5,0.9
	c0,0.7,0,1.3,0,2c0,0.5-0.1,0.9-0.1,1.4c0,0.4-0.3,1.2-0.2,1.6c0.2,0.9,0.3,2.2,0.9,2.9c0.4,0.5,0.9,1.1,1.3,1.6
	c0.3,0.4,0.8,0.5,1.2,0.7c0.3,0.1,1,0.6,1.3,0.5c0.6-0.1,1.2-0.3,1.9-0.4c0.2,0,0.4-1.3,0.4-1.5c0.1-0.5,0.2-0.9,0.2-1.4
	c0-1,0-2.3,0.6-3.2C475.5,276.2,475.4,276.2,475.4,276.2z"/>
<path stroke="#131E1F" stroke-width="0.9638" stroke-miterlimit="2.6131" d="M475.4,276.2c-0.1,0-0.3,0-0.5,0c0.9-2,1.7-4,2.4-6.1
	c0.7-1.9,0.8-4.2,1.1-6.1c0.3-2.1,0.7-4.2,0.8-6.3c0.1-2.1,0.3-4.5-0.6-6.4c-0.9-1.9-2-3.7-3.6-5.2c-0.8-0.7-1.5-1.6-2.4-2.2
	c-0.6-0.4-1.1-0.8-1.7-1.1c-0.4-0.2-0.8-0.7-1.2-0.8c-2-0.7-4-1.4-6.1-1.2c-2.2,0.2-4.4,0.5-6.6-0.2c-2-0.6-4-1.4-6-1.6
	c-1-0.1-2.2-0.3-3.2-0.2c-1.3,0.1-2.6,0.3-3.9,0.4c-1,0.1-2.2,0.7-3.2,1.1c-1,0.3-2,0.6-2.9,0.9c-0.3,0.1-0.9,0.4-1.2,0.3
	c-0.6-0.1-1.2-0.2-1.8-0.3c-1.1-0.2-2-0.4-3.1-0.8c-2-0.7-4.2-1.7-6.4-1.6c-0.4,0-1.2-0.1-1.6,0.1c-0.4,0.2-0.9,0.9-1.2,1.2
	c-0.9,0.9-1.3,1.4-1.8,2.5c-0.4,0.9-1,1.9-1.1,2.9c-0.2,1-0.6,2.3-0.5,3.4c0.1,1.1,0.1,2.4,0.3,3.5c0.1,0.5,0.3,1,0.5,1.5
	c0.1,0.4,0.2,1.1,0.5,1.5c0.5,0.7,1.2,1.9,1.9,2.3c0.6,0.3,1.1,0.6,1.7,0.9c0.3,0.2,0.8,0.6,1.2,0.6c1.2,0.1,2.4,0.2,3.6,0.3
	c0.3,0,0.7-0.2,0.9-0.3c0.8-0.3,1.5-0.6,2.3-0.9c2-0.8,4-1.7,6.1-2.6c0.8-0.3,1.9-0.4,2.7-0.5c1.3-0.3,2.6-0.5,3.9-0.8
	c0.9-0.2,1.9,0,2.8,0.1c0.7,0,1.5,0.1,2.2,0.1c0.2,0,0.9-0.1,1,0c0.9,0.8,1.9,1.6,2.8,2.4c0.3,0.3,0.5,0.7,0.7,1
	c0.1,0.2,0.8,1.3,0.9,1.3c1.1-0.1,2.2-0.1,3.4-0.3c0.7-0.1,0.8-0.3,1.1,0.3c0.2,0.5,0.5,0.9,0.4,1.4c-0.1,1.1-0.1,2.2-0.4,3.3
	c-0.3,1.2-0.5,2.2-0.5,3.5c0,0.5-0.2,0.9,0.3,1.1c0.4,0.2,1,0.6,1.5,0.6c1.1,0.1,2.2,0.1,3.2,0.4c0.6,0.2,1.2,0.3,1.9,0.5
	c0.4,0.1,1,0.7,1.3,1c0.5,0.4,0.5,0.4,0.5,0.9c0,0.7,0,1.3,0,2c0,0.5-0.1,0.9-0.1,1.4c0,0.4-0.3,1.2-0.2,1.6
	c0.2,0.9,0.3,2.2,0.9,2.9c0.4,0.5,0.9,1.1,1.3,1.6c0.3,0.4,0.8,0.5,1.2,0.7c0.3,0.1,1,0.6,1.3,0.5c0.6-0.1,1.2-0.3,1.9-0.4
	c0.2,0,0.4-1.3,0.4-1.5c0.1-0.5,0.2-0.9,0.2-1.4c0-1,0-2.3,0.6-3.2C475.5,276.2,475.4,276.2,475.4,276.2z"/>
<path fill="#FFFFFF" stroke="#000000" stroke-miterlimit="10" d="M460.1,349.5c-1,0.1-2.2,0.1-3.1,0.4c-0.6,0.2-1.1,0.4-1.7,0.6
	c-0.4,0.1-0.9,0.2-1.2,0.5c-0.5,0.5-0.9,0.9-1.4,1.4c-0.3,0.3-0.8,0.6-0.9,1c-0.2,0.6-0.4,1.3-0.6,1.9c-0.2,0.7-0.1,0.6,0.5,1
	c0.4,0.3,0.9,0.8,1.4,1c0.5,0.2,1.2,0.2,1.7,0.3c1.1,0.2,2.1,0.4,3.3,0.4c0.5,0,1.1,0.2,1.6,0.1c0.6-0.1,1.2-0.3,1.7-0.5
	c0.3-0.1,0.9-0.1,1.1-0.4c0.5-0.5,1-1.1,1.4-1.6c0.3-0.4,0.5-0.5,0.6-1c0.1-0.4,0.6-1.6,0.5-2c-0.1-0.3-1.4-0.8-1.7-1
	c-0.4-0.3-1.1-0.2-1.6-0.3c-1.1-0.1-2.3-0.4-3.4-0.3c-1.3,0.2-2.3,0.4-3.5,0.9C456.6,351.2,458.3,350.4,460.1,349.5z"/>
<path fill="none" stroke="#000000" stroke-width="3" stroke-miterlimit="2.6131" d="M460.1,349.5c-1,0.1-2.2,0.1-3.1,0.4
	c-0.6,0.2-1.1,0.4-1.7,0.6c-0.4,0.1-0.9,0.2-1.2,0.5c-0.5,0.5-0.9,0.9-1.4,1.4c-0.3,0.3-0.8,0.6-0.9,1c-0.2,0.6-0.4,1.3-0.6,1.9
	c-0.2,0.7-0.1,0.6,0.5,1c0.4,0.3,0.9,0.8,1.4,1c0.5,0.2,1.2,0.2,1.7,0.3c1.1,0.2,2.1,0.4,3.3,0.4c0.5,0,1.1,0.2,1.6,0.1
	c0.6-0.1,1.2-0.3,1.7-0.5c0.3-0.1,0.9-0.1,1.1-0.4c0.5-0.5,1-1.1,1.4-1.6c0.3-0.4,0.5-0.5,0.6-1c0.1-0.4,0.6-1.6,0.5-2
	c-0.1-0.3-1.4-0.8-1.7-1c-0.4-0.3-1.1-0.2-1.6-0.3c-1.1-0.1-2.3-0.4-3.4-0.3c-1.3,0.2-2.3,0.4-3.5,0.9"/>
<path fill="#FFFFFF" stroke="#000000" stroke-miterlimit="10" d="M438.3,353.8c0,0.3,0,0.6,0,0.9c-0.4-0.8-0.8-2.1-1.4-2.7
	c-0.5-0.5-1-0.9-1.5-1.4c-0.4-0.3-0.8-0.1-1.3-0.1c-0.4,0-1.2,0-1.5,0.2c-0.5,0.4-1,0.7-1.5,1.1c-0.3,0.2-0.9,0.5-1.1,0.8
	c-0.3,0.5-0.6,1.1-1,1.6c-0.2,0.4-0.6,0.9-0.8,1.3c-0.2,0.5-0.1,1.3-0.1,1.8c0,0.4-0.2,0.8,0.2,1c0.6,0.3,1.3,0.7,1.9,1
	c0.3,0.2,0.8,0.1,1.1,0c0.7,0,1.5,0,2.2-0.1c0.9,0,2.1-0.8,2.9-1.2c0.3-0.1,0.6-0.5,0.8-0.8c0.3-0.3,0.9-0.6,1.1-1
	c0.5-0.9,0.3-2,0-2.8C438.3,353.7,438.3,353.8,438.3,353.8z"/>
<path fill="none" stroke="#000000" stroke-width="3" stroke-miterlimit="2.6131" d="M438.3,353.8c0,0.3,0,0.6,0,0.9
	c-0.4-0.8-0.8-2.1-1.4-2.7c-0.5-0.5-1-0.9-1.5-1.4c-0.4-0.3-0.8-0.1-1.3-0.1c-0.4,0-1.2,0-1.5,0.2c-0.5,0.4-1,0.7-1.5,1.1
	c-0.3,0.2-0.9,0.5-1.1,0.8c-0.3,0.5-0.6,1.1-1,1.6c-0.2,0.4-0.6,0.9-0.8,1.3c-0.2,0.5-0.1,1.3-0.1,1.8c0,0.4-0.2,0.8,0.2,1
	c0.6,0.3,1.3,0.7,1.9,1c0.3,0.2,0.8,0.1,1.1,0c0.7,0,1.5,0,2.2-0.1c0.9,0,2.1-0.8,2.9-1.2c0.3-0.1,0.6-0.5,0.8-0.8
	c0.3-0.3,0.9-0.6,1.1-1c0.5-0.9,0.3-2,0-2.8C438.3,353.7,438.3,353.8,438.3,353.8z"/>
<path fill="#FFFFFF" stroke="#000000" stroke-miterlimit="2.6131" d="M432.6,273.4c0.8,0,0.8,1.2,0,1.2S431.9,273.4,432.6,273.4z"/>
<path fill="#FFFFFF" stroke="#000000" stroke-miterlimit="2.6131" d="M448.7,273.4c0.8,0,0.8,1.2,0,1.2S448,273.4,448.7,273.4z"/>
</svg>
