<?xml version="1.0" encoding="utf-8"?>
<!-- Generator: Adobe Illustrator 17.1.0, SVG Export Plug-In . SVG Version: 6.00 Build 0)  -->
<!DOCTYPE svg PUBLIC "-//W3C//DTD SVG 1.1//EN" "http://www.w3.org/Graphics/SVG/1.1/DTD/svg11.dtd">
<svg version="1.1" id="Ebene_1" xmlns="http://www.w3.org/2000/svg" xmlns:xlink="http://www.w3.org/1999/xlink" x="0px" y="0px"
	 viewBox="0 0 612 792" enable-background="new 0 0 612 792" xml:space="preserve">
<circle fill="#B2B2B2" cx="306" cy="396" r="306"/>
<polygon points="473.3,419.5 471.5,419.5 470.3,419.5 472.7,414.6 478.9,400.5 485.6,382.1 489.3,363.2 491.7,344.8 494.8,325.8 
	496.6,307.5 497.2,288.5 494.8,270.1 486.8,253.6 474,237.7 457.4,221.8 438.5,208.9 420.1,202.8 401.7,201.6 385.2,202.8 
	368.7,202.8 350.3,197.9 329.5,191.8 305,189.4 279.3,192.4 256.7,200.4 235.9,206.5 214.5,202.8 193.7,195.5 174.1,189.4 
	156.9,190.6 142.3,205.9 131.8,227.9 128.8,251.2 130.6,273.2 136.7,290.9 148.4,305 166.1,315.4 188.8,317.3 214.5,307.5 
	245.7,294 286.7,286 322.2,287.3 339.9,302 349.7,316 363.8,315.4 376,313 379.7,323.4 378.5,339.9 374.2,357.7 374.2,371.7 
	385.2,376.6 401.1,377.8 417,382.1 428.1,390.7 428.1,406 426.2,424.4 430.5,440.9 440.3,453.1 454.4,459.2 466.6,456.8 
	470.3,443.3 471.5,428.6 473.3,421.9 474.6,420.1 "/>
<path stroke="#000000" stroke-miterlimit="2.6131" d="M213.8,517.7c-0.6-8-1.2-16.5,1.2-24.5c3.7-12.2,12.9-21.4,22-30
	c12.2-11.6,24.5-23.3,39.2-30.6c9.8-4.9,21.4-9.8,22.6-20.8c0.6-4.9-1.8-9.8-4.9-14.1c-6.7-8.6-17.1-12.9-26.9-17.1
	c-19.6-8-40.4-15.3-61.2-18.4c-21.4-3.1-43.5-1.2-63,8c-1.8,1.2-4.3,2.4-5.5,4.3c-1.8,3.1-1.8,6.7-1.2,10.4
	c1.2,8.6,4.3,17.7,10.4,23.9c11.6,11,30,10.4,45.9,9.2c30.6-1.8,62.4,0.6,90,14.1c27.5,13.5,49.6,41,50.8,71.6c0,8-0.6,15.9-4.9,22
	c-7.3,11.6-22,15.3-35.5,17.7c-23.9,3.7-50.2,4.3-70.4-9.8c-2.4-1.8-4.9-3.7-6.1-6.7C214.4,523.8,213.8,520.7,213.8,517.7z"/>
</svg>
