<?xml version="1.0" encoding="UTF-8" standalone="no"?>
<!-- Created with Inkscape (http://www.inkscape.org/) -->

<svg
   xmlns:dc="http://purl.org/dc/elements/1.1/"
   xmlns:cc="http://creativecommons.org/ns#"
   xmlns:rdf="http://www.w3.org/1999/02/22-rdf-syntax-ns#"
   xmlns:svg="http://www.w3.org/2000/svg"
   xmlns="http://www.w3.org/2000/svg"
   version="1.1"
   width="100"
   height="100"
   viewBox="0 0 100 100"
   id="Ebene_1"
   xml:space="preserve"><metadata
     id="metadata7509"><rdf:RDF><cc:Work
         rdf:about=""><dc:format>image/svg+xml</dc:format><dc:type
           rdf:resource="http://purl.org/dc/dcmitype/StillImage" /><dc:title></dc:title></cc:Work></rdf:RDF></metadata><defs
     id="defs7507" /><circle
     cx="50"
     cy="50"
     r="50"
     id="circle7502" /><path
     d="M 46.022505,2.8275085 43.810273,3.172562 42.092201,2.9766418 40.737567,3.269791 39.109997,3.0738708 35.645121,3.3670201 34.210043,3.7581294 33.15995,3.8553584 31.714817,4.2464677 h -0.959593 l -0.100561,-0.2419761 -2.01112,0.1491333 -0.676599,-0.4473998 -0.576042,0.09796 -1.535635,1.1265415 -3.364317,0.9313512 -1.05153,0.734701 -0.293049,0.87433 -0.10056,0.05117 -0.767098,0.488338 -1.920621,0.684259 -1.716636,0.200306 -1.258386,0.879448 -1.152086,0.3392062 -0.959592,1.023462 -1.333085,0.550478 -2.0312336,1.506685 -0.4754864,0.684258 0.2729378,-0.241976 0.5860982,0.679142 -0.6665431,0.637471 0.181001,1.177714 -1.1520852,1.511803 -1.344578,0.689375 1.0615846,0.627238 -0.1019922,0.396226 1.1635772,-0.09723 -0.9610286,0.195189 -0.3936051,-0.144016 -0.2930491,0.632354 h 0.6866538 l -0.6866542,0.144017 0.9595919,0.05117 -0.4754864,0.19592 0.5760426,0.05117 -0.1910566,0.190803 1.3445781,-0.190803 -0.7685355,0.149133 0.5760426,0.138899 -0.6665431,0.200307 0.2930491,0.241975 0.373494,-0.09211 -0.181001,0.190072 0.4754862,-0.149132 0.192493,0.689375 0.576043,0.144016 0.576043,0.149133 -0.293049,0.241976 0.485542,0.09796 0.0905,0.637472 0.484107,-0.04606 -0.666544,0.09796 1.051528,0.535125 -0.0905,0.293149 1.627572,0.437165 3.173261,1.51692 1.637627,0.345053 1.919184,-0.488339 2.982205,-0.19592 2.77822,0.39111 2.880213,-0.684258 2.021176,-0.396228 3.558249,-0.38526 -0.587536,0.195189 1.445134,0.05117 0.959594,0.437165 0.485541,-0.149864 -0.485541,0.201038 0.676598,0.04605 -0.484106,0.04606 0.202549,0.149133 0.475487,-0.149133 -0.475487,0.293149 0.959592,0.689377 1.051529,-0.05117 v -0.195921 l 0.192494,0.195921 -0.0905,-0.246362 0.284429,0.246362 0.191056,-0.293149 0.383551,0.19592 1.354633,-0.05191 -0.100561,-0.288032 0.47405,0.339205 0.485543,-0.19592 0.475485,0.586299 0.777156,-0.09796 0.182438,0.19592 h -0.374926 l 0.567424,0.586298 -0.961029,1.465747 0.586099,0.05117 -0.100561,0.488338 -0.485542,-0.05117 0.961029,0.246363 -0.66798,0.09796 -0.293049,-0.195188 -0.29305,0.781487 h -0.672287 l 1.445133,1.32173 3.173262,1.563706 0.666542,0.977408 0.768536,0.19592 -0.667979,0.09723 1.728128,1.758895 -0.576043,0.488338 0.66798,0.689376 0.666542,0.776371 -0.271502,0.935738 -1.646245,0.874331 -1.05153,1.815185 0.191058,1.563706 3.941796,3.270698 0.676599,2.638343 3.072706,2.498713 1.333086,1.121424 0.101997,0.534394 -0.576042,0.200307 0.676598,0.926234 0.484107,-0.144016 1.436515,0.488339 3.263762,-0.533664 2.788276,0.143286 2.788276,-0.391109 4.134289,-1.465747 1.343142,-0.879448 0.576043,-0.344322 1.525578,-0.637472 1.252641,-1.655817 -0.192491,0.138167 -0.384987,-0.241976 4.23341,-1.269826 0.37493,-1.367786 -0.859036,-1.172597 0.0905,-0.637472 0.293048,0.149134 2.111677,-0.735432 0.869092,-0.730314 4.325346,-1.028582 0.192493,-0.195189 1.333087,-0.977408 -0.271502,-1.418959 0.271502,-0.149133 -0.191058,-1.075368 0.484107,-0.489069 -0.859036,-0.339205 -0.393606,-0.149134 v -0.04533 l -0.373496,-1.274934 0.282993,-0.339937 h -0.386422 l 0.576042,-0.637471 -1.060148,-0.730315 0.678035,-1.028581 1.152086,-1.22377 0.293048,-0.29315 1.152086,-0.339936 -0.29305,-0.241244 h 0.777156 l 3.074141,-2.06228 3.253708,-1.316613 2.406162,-1.562975 3.17183,-3.764884 v -0.442283 l -0.0891,-0.247093 0.66655,-0.09211 h -0.47549 l 0.0919,-1.023464 -0.67803,-0.149133 -1.52559,0.488339 -2.605835,0.149133 -1.143465,0.339205 -0.867655,-0.149133 -1.535635,0.391109 -2.011122,-0.930621 -0.867655,0.05117 1.152086,-0.339205 -0.191058,-0.344323 -3.174698,-1.614879 -1.344577,-0.241976 -0.291613,-0.247093 -0.284429,-0.144016 -0.08906,0.293149 -2.021176,-2.201177 -1.736747,-0.591417 -0.75848,-1.655818 0.282993,0.09284 -0.756977,-0.731021 -1.739619,-0.637471 -0.475487,-0.684258 h 0.37493 l -0.959592,-0.39111 -2.587164,-2.2984071 -1.445134,-0.781487 -0.343327,-0.586299 c -0.0043,-0.0029 -0.0072,-0.0073 -0.01,-0.01023 -0.02012,-0.01608 -0.04022,-0.03582 -0.05029,-0.05629 -0.06607,-0.134512 -0.222659,-0.274873 -0.222659,-0.447399 0,-0.02412 0,-0.04752 0,-0.07237 0,-0.07384 -0.01867,-0.150595 -0.04022,-0.226624 l -0.484106,0.03582 -0.282994,-0.298267 -1.152085,-0.05117 -2.314226,0.488339 -2.677663,-0.385992 -2.314227,-0.05117 -0.383548,-0.29315 -2.113114,-0.144015 -0.293049,-0.298268 -1.728128,-0.1900708 -2.019741,0.4883388 v 0.87433 h -0.0905 L 57.267621,7.3329489 55.832542,6.9367219 53.144823,6.5975169 52.466787,5.9600449 50.162616,5.6208402 48.829531,5.6668979 46.222256,5.0805996 46.029763,4.782333 47.57689,4.1550959 l -0.7671,-0.5914158 0.7671,-0.5862985 -0.7671,0.241245 -0.787209,-0.3911093 0,0 z m -34.085628,8.8610025 0.08044,-0.06214 -0.293048,0.149132 0.212604,-0.08699 z m 15.916586,-8.0385763 0.02012,0.015352 0.05027,-0.015352 c -0.02298,7.26e-4 -0.0474,0 -0.07039,0 z m -11.318301,4.4125902 -0.678036,0.247093 0.485543,-0.103077 0.192493,-0.144016 z m -0.678036,0.29315 -0.959591,0.488338 0.576043,-0.09796 0.383548,-0.390378 0,0 z m -2.585727,0.144016 -0.959592,0.149132 0.0905,0.246363 0.869092,-0.395495 z m 0.281557,0.246362 -0.191055,0.19592 0.475485,-0.04606 -0.28443,-0.149865 z m 62.736923,2.8803191 0.485541,0.787336 -1.344577,0.149133 -1.254079,0.828274 0.768536,-0.782218 1.152086,-0.144016 0.192493,-0.838509 0,0 z m -64.656106,5.281804 0.959592,0.396226 0.676597,0.730314 -1.637626,-1.074636 -2.202178,0.04606 2.203615,-0.09796 z m 75.519031,0.586298 0.0905,0.200307 0.574607,0.04606 -0.574607,-0.247093 h -0.0905 z m -62.745539,0.149133 0.485541,0.293149 -0.384985,0.04606 -0.100561,-0.339205 0,0 z m 25.376037,1.275675 0.271502,0.488338 0.586098,-0.149133 v 0.241244 l 1.344577,0.09796 -1.728126,0.442282 -1.061585,-1.02858 0.587534,-0.09211 0,0 z m 34.480671,1.217922 -0.182437,0.535125 -0.485543,-0.385993 0.66798,-0.149132 z m -48.41774,0.736162 0.859036,0.339205 -0.282993,0.684259 v 0.103077 l -0.0905,-0.103077 -0.29305,-0.293149 0.565988,-0.39111 -0.758481,-0.339205 z m -7.679609,1.712108 1.525579,0.925504 0.10056,0.09796 0.293049,-0.930621 -0.393605,2.149274 v -0.241976 l -0.0905,-0.04605 -1.060148,-0.246362 0.959592,0.149133 0.100561,-0.103078 0.192493,-0.38526 -0.192493,-0.149134 -0.293049,-0.05117 H 28.642121 L 29.502593,23.609678 28.543,23.362585 28.350508,22.925419 h -1.061585 l 0.969647,-0.0519 -0.09194,-0.288033 0,0 z m 10.752315,0.339936 0.576043,0.637473 -0.576043,1.804951 0.484105,-1.856856 -0.484105,-0.585568 z m -16.906345,0.390379 -0.38355,0.535125 0.191057,0.149134 0.373494,-0.149134 -0.182438,0.391109 -0.576043,-0.339205 0.57748,-0.587029 z m 61.005921,2.638343 0.667979,1.764013 -1.152085,-0.976677 0.484106,-0.787336 0,0 z m -40.442208,0.688645 -0.778591,0.288763 v 0.05117 l 0.383549,0.09796 0.395042,-0.437896 z m 13.927013,1.024194 -0.676599,2.201179 1.060148,-1.126541 1.254079,-0.339206 1.050091,-0.293149 0.282994,-0.103077 3.15315,-0.128664 0.120662,-0.01023 0.02154,0.0051 0.170945,-0.0051 3.173263,1.115576 -3.344208,-1.11119 -0.142215,0.0051 -3.43758,0.375027 -1.050094,0.149134 -1.353196,0.488338 0.100561,0.632354 -3.364318,1.660935 -0.100561,0.688645 -0.09194,-0.637472 2.404727,-1.367786 0.768535,-2.198985 0,0 z m 19.786559,0.05117 -0.29305,0.534395 -1.050092,0.488338 -0.100561,-0.339205 1.443699,-0.683528 z m 2.980768,0.534395 -0.574605,0.103077 0.191055,0.241976 -0.959592,-0.149133 1.343142,-0.19592 z m -0.192494,0.879447 0.192494,0.246363 0.678035,-0.04606 0.374931,0.488338 0.686654,-0.200306 0.181,0.149133 -1.152085,0.195189 -0.08906,0.730314 -1.153521,0.390379 0.959592,0.149133 -0.676599,0.247093 -0.676598,-0.09796 0.09911,0.339205 -0.383549,0.149133 0.08906,-0.390379 -0.859036,-0.195919 -0.574604,0.437165 -0.294487,-0.637472 0.576042,-1.511802 0.96103,-0.241976 0.484105,0.144016 0.577478,-0.343591 0,0 z m -5.092444,0.48907 -0.768536,0.391109 0.192493,-0.339205 0.576043,-0.05191 z m -29.882387,0.540243 0.484105,0.09723 -0.484105,0.149134 v -0.246362 z m 12.884104,0.585567 -0.393606,0.298266 0.485542,0.09284 -0.576042,0.441552 -0.203986,-0.735433 0.688092,-0.09723 z m 15.75426,0 0.475487,0.339205 -0.768536,0.345053 0.293049,-0.684258 z m 0.374931,1.368517 0.869092,1.861972 -0.386423,0.339206 1.244021,0.535125 0.777155,1.372903 -0.959592,-0.19592 -0.485542,-0.930621 -1.344578,-0.879448 0.0905,-1.568824 -0.282994,0.200307 0.47836,-0.7347 z m 14.218625,1.810068 -0.182438,0.339206 0.474051,0.247093 -0.191057,-0.390378 -0.100561,-0.195921 z m -10.559822,1.414573 0.867655,0.395496 -0.867655,-0.09723 V 35.34002 z m -3.265199,0.688645 0.565988,0.04606 -0.959592,0.293149 0.393604,-0.339205 0,0 z m -0.869092,0.09796 -0.676597,0.637472 -0.565987,0.04605 0.08906,-0.345053 1.15352,-0.338475 0,0 z m 7.014504,0.683527 0.66798,0.345054 0.484105,1.121424 -0.484105,0.729583 0.584661,1.470864 -0.869092,-0.195189 -0.676598,-1.415305 0.586098,-0.44155 -0.384985,-1.269827 -0.100561,-0.200306 h 0.100561 l 0.09194,-0.144748 0,0 z m -6.054911,1.028582 h 0.101997 v 0.293147 l -0.485542,0.09796 0.383549,-0.391109 0,0 z m 18.736465,0.391109 -0.191055,0.241976 0.281555,0.149133 -0.09049,-0.391109 0,0 z m 7.58911,0.436434 -0.767099,0.339936 -0.10056,0.688646 -0.757044,0.339205 -0.393605,-0.143286 v 0.489068 H 97.61494 l -0.567423,0.585567 0.0905,-0.292417 -0.66798,0.390378 0.182438,0.196651 -0.373494,0.09723 0.100561,-0.29315 -0.68809,0.247095 v 0.339205 l -0.373494,-0.19519 -2.305606,0.345054 -0.959592,0.977408 0.192492,1.810068 -1.54569,0.925504 -0.565987,0.736163 0.191057,1.908028 1.051528,0.288032 2.687722,-0.339205 4.708895,-4.839521 0.282994,-0.730315 0.58466,-0.247093 v -0.977407 l 0.374929,-0.05044 0.20255,0.389647 0.47549,-0.389647 -0.19393,-1.805682 -0.765664,-0.539512 0.192493,-0.250017 0,0 z m -6.245968,0.0519 -0.281556,0.09796 0.37493,0.144016 -0.09338,-0.241977 0,0 z m -21.715797,3.373775 -1.334523,0.195921 -1.637628,0.833391 1.242587,-0.833391 1.729564,-0.195921 z m 35.651428,2.494327 -0.39217,0.390379 0.48411,-0.200307 -0.0919,-0.190072 z m -2.40472,0.637472 -0.47405,0.09284 0.47405,0.246362 v -0.339205 l 0,0 z m -38.047542,4.541254 -0.293049,0.29315 -0.514272,-0.08261 h -0.02155 l 0.343328,0.134514 -0.474051,-0.09796 0.130723,-0.03655 -0.03017,-0.01023 0.05171,0.01023 0.807321,-0.210541 0,0 z"
     id="path14267"
     style="fill:#ffffff" /></svg>