<?xml version="1.0" encoding="utf-8"?>
<!-- Generator: Adobe Illustrator 17.1.0, SVG Export Plug-In . SVG Version: 6.00 Build 0)  -->
<!DOCTYPE svg PUBLIC "-//W3C//DTD SVG 1.1//EN" "http://www.w3.org/Graphics/SVG/1.1/DTD/svg11.dtd">
<svg version="1.1" id="Ebene_1" xmlns="http://www.w3.org/2000/svg" xmlns:xlink="http://www.w3.org/1999/xlink" x="0px" y="0px"
	 viewBox="0 0 100 100" enable-background="new 0 0 100 100" xml:space="preserve">
<circle fill="#B2B2B2" cx="50" cy="50" r="50"/>
<polygon stroke="#131E1F" stroke-width="0.9638" stroke-miterlimit="2.6131" points="78.3,46 78,46 77.8,46 78.2,45.2 79.2,42.9 
	80.3,39.9 80.9,36.8 81.3,33.8 81.8,30.7 82.1,27.7 82.2,24.6 81.8,21.6 80.5,18.9 78.4,16.3 75.7,13.7 72.6,11.6 69.6,10.6 
	66.6,10.4 63.9,10.6 61.2,10.6 58.2,9.8 54.8,8.8 50.8,8.4 46.6,8.9 42.9,10.2 39.5,11.2 36,10.6 32.6,9.4 29.4,8.4 26.6,8.6 
	24.2,11.1 22.5,14.7 22,18.5 22.3,22.1 23.3,25 25.2,27.3 28.1,29 31.8,29.3 36,27.7 41.1,25.5 47.8,24.2 53.6,24.4 56.5,26.8 
	58.1,29.1 60.4,29 62.4,28.6 63,30.3 62.8,33 62.1,35.9 62.1,38.2 63.9,39 66.5,39.2 69.1,39.9 70.9,41.3 70.9,43.8 70.6,46.8 
	71.3,49.5 72.9,51.5 75.2,52.5 77.2,52.1 77.8,49.9 78,47.5 78.3,46.4 78.5,46.1 "/>
<path fill="none" stroke="#131E1F" stroke-width="9" stroke-miterlimit="2.6131" d="M42.1,75.6c-0.1-1.3-0.2-2.7,0.2-4
	c0.6-2,2.1-3.5,3.6-4.9c2-1.9,4-3.8,6.4-5c1.6-0.8,3.5-1.6,3.7-3.4c0.1-0.8-0.3-1.6-0.8-2.3c-1.1-1.4-2.8-2.1-4.4-2.8
	c-3.2-1.3-6.6-2.5-10-3c-3.5-0.5-7.1-0.2-10.3,1.3c-0.3,0.2-0.7,0.4-0.9,0.7c-0.3,0.5-0.3,1.1-0.2,1.7c0.2,1.4,0.7,2.9,1.7,3.9
	c1.9,1.8,4.9,1.7,7.5,1.5c5-0.3,10.2,0.1,14.7,2.3s8.1,6.7,8.3,11.7c0,1.3-0.1,2.6-0.8,3.6c-1.2,1.9-3.6,2.5-5.8,2.9
	c-3.9,0.6-8.2,0.7-11.5-1.6c-0.4-0.3-0.8-0.6-1-1.1C42.2,76.6,42.1,76.1,42.1,75.6z"/>
</svg>
