<?xml version="1.0" encoding="utf-8"?>
<!-- Generator: Adobe Illustrator 17.1.0, SVG Export Plug-In . SVG Version: 6.00 Build 0)  -->
<!DOCTYPE svg PUBLIC "-//W3C//DTD SVG 1.1//EN" "http://www.w3.org/Graphics/SVG/1.1/DTD/svg11.dtd">
<svg version="1.1" id="レイヤー_1" xmlns="http://www.w3.org/2000/svg" xmlns:xlink="http://www.w3.org/1999/xlink" x="0px"
	 y="0px" viewBox="357.1 233.6 122.6 127.4" enable-background="new 357.1 233.6 122.6 127.4" xml:space="preserve">
<path fill="none" stroke="#000000" stroke-width="4" stroke-miterlimit="10" d="M374.2,236c-3-1.1-6.5,0.4-8.4,3
	c-1.9,2.5-2.5,5.8-2.7,9c-0.1,1.7,0,3.5,0.7,5c0.5,1.2,1.4,2.2,2.3,3.1c2.6,2.6,6,4.4,9.7,5.1c4,0.8,8.1,0.3,12,1.4
	c3.9,1.1,7.7,4.5,7,8.5c1.3,0.8,2.8-0.6,3.7-1.9c1.5-2.4,2.8-5,3.4-7.7s0.2-5.8-1.5-8.1c-0.9-1.3-2.2-2.3-3.4-3.3
	c-3.7-3-7.3-6-11-8.9c-1.1-0.9-2.2-1.7-3.5-2.1c-1.1-0.3-2.3-0.2-3.4-0.5C377.3,238,375.9,236.6,374.2,236z"/>
</svg>
