<?xml version="1.0" encoding="UTF-8" standalone="no"?>
<!-- Created with Inkscape (http://www.inkscape.org/) -->

<svg
   xmlns:dc="http://purl.org/dc/elements/1.1/"
   xmlns:cc="http://creativecommons.org/ns#"
   xmlns:rdf="http://www.w3.org/1999/02/22-rdf-syntax-ns#"
   xmlns:svg="http://www.w3.org/2000/svg"
   xmlns="http://www.w3.org/2000/svg"
   version="1.2"
   width="100"
   height="100"
   viewBox="0 0 100 100"
   id="レイヤー_1"
   xml:space="preserve"><metadata
     id="metadata3305"><rdf:RDF><cc:Work
         rdf:about=""><dc:format>image/svg+xml</dc:format><dc:type
           rdf:resource="http://purl.org/dc/dcmitype/StillImage" /><dc:title></dc:title></cc:Work></rdf:RDF></metadata><defs
     id="defs3303" /><circle
     cx="50"
     cy="50"
     r="50"
     id="circle3264"
     style="fill:#b2b2b2" /><g
     id="レイヤー_2"><path
       d="M 59.958,159.059"
       id="path3267"
       style="fill:none;stroke:#231815;stroke-miterlimit:10" /></g><flowRoot
     id="flowRoot6302"
     xml:space="preserve"
     style="font-size:40px;font-style:normal;font-weight:normal;line-height:125%;letter-spacing:0px;word-spacing:0px;fill:#000000;fill-opacity:1;stroke:none;font-family:Sans"><flowRegion
       id="flowRegion6304"><rect
         width="55.508476"
         height="50"
         x="17.372881"
         y="28.813559"
         id="rect6306" /></flowRegion><flowPara
       id="flowPara6308">hoge</flowPara></flowRoot><path
     d="m 44.067795,68.644066 c 0.446145,-1.699608 2.511149,-0.237131 2.824859,0.741523 0.850135,2.652092 -1.936397,4.786046 -4.307905,4.908196 -4.242073,0.218496 -7.179278,-3.933271 -6.991532,-7.874288 0.275524,-5.783601 5.948645,-9.619676 11.44067,-9.074869 7.320004,0.726143 12.078745,7.969463 11.158205,15.007053 C 57.033686,81.207769 48.199493,86.898864 39.618657,85.593222 29.226116,84.011915 22.597665,73.576235 24.293779,63.453405 26.292591,51.524 38.335924,43.955241 49.999978,46.045191 63.466591,48.458121 71.97756,62.11301 69.491529,75.317772 66.666742,90.321863 51.397672,99.776344 36.652565,96.89266 20.110784,93.657602 9.711861,76.772497 12.994342,60.487313 16.638518,42.407673 35.141014,31.063619 52.96607,34.745753"
     transform="translate(5.9322034,-16.949153)"
     id="path6415"
     style="fill:none;stroke:#000000;stroke-width:1px;stroke-linecap:butt;stroke-linejoin:miter;stroke-opacity:1" /></svg>