<?xml version="1.0" encoding="utf-8"?>
<!-- Generator: Adobe Illustrator 17.1.0, SVG Export Plug-In . SVG Version: 6.00 Build 0)  -->
<!DOCTYPE svg PUBLIC "-//W3C//DTD SVG 1.1//EN" "http://www.w3.org/Graphics/SVG/1.1/DTD/svg11.dtd">
<svg version="1.1"
	 id="レイヤー_1" xmlns:inkscape="http://www.inkscape.org/namespaces/inkscape" xmlns:sodipodi="http://sodipodi.sourceforge.net/DTD/sodipodi-0.dtd" xmlns:dc="http://purl.org/dc/elements/1.1/" xmlns:cc="http://creativecommons.org/ns#" xmlns:rdf="http://www.w3.org/1999/02/22-rdf-syntax-ns#" xmlns:svg="http://www.w3.org/2000/svg" inkscape:version="0.48.4 r" sodipodi:docname="1-2r.svg"
	 xmlns="http://www.w3.org/2000/svg" xmlns:xlink="http://www.w3.org/1999/xlink" x="0px" y="0px" viewBox="0 0 100 100"
	 enable-background="new 0 0 100 100" xml:space="preserve">
<sodipodi:namedview  pagecolor="#ffffff" showgrid="false" guidetolerance="10" inkscape:cx="50" gridtolerance="10" inkscape:cy="50" objecttolerance="10" inkscape:zoom="2.36" borderopacity="1" bordercolor="#666666" id="namedview3301" inkscape:window-maximized="0" inkscape:pageopacity="0" inkscape:window-y="0" inkscape:window-height="480" inkscape:current-layer="レイヤー_1" inkscape:window-x="0" inkscape:pageshadow="2" inkscape:window-width="834">
	</sodipodi:namedview>
<g id="レイヤー_2">
	<path id="path3267" fill="none" stroke="#231815" stroke-miterlimit="10" d="M60,159.1"/>
</g>
<polygon id="polygon3215" points="86.5,78.1 85,78.1 87.3,78.1 87.3,78.1 "/>
<path stroke="#FFFFFF" stroke-miterlimit="2.6131" d="M40,24.1c-0.7,2.1-3.1,3.1-5.2,3.6c-6.4,1.5-13.3,0.8-19.2-1.9
	c-2.2-1-4.3-2.3-5.7-4.2S7.7,17,8.6,14.8c0.3-0.7,0.5-1.9-0.3-2c4.8-2.8,10.6-2.8,16.1-2.8c4.2,0,8.8,0.3,12,3.1
	c2.2,2,3.3,5.1,3.7,8.1C40.2,22.2,40.3,23.2,40,24.1z"/>
<polygon stroke="#FFFFFF" stroke-miterlimit="2.6131" points="42.6,37.1 42.3,36.6 42.1,35.2 42.4,33 43.8,30.3 45.7,28.6 
	47.4,28.5 48.6,29 49.1,29.4 91.3,64.9 92.4,66.3 94.4,69.9 95.2,72.2 95.6,74.7 95.2,77.2 93.9,79.7 91.8,82 89.4,82.8 86.1,81.7 
	81.2,78.5 80.3,77.7 78.7,76.1 76.6,73.9 74,71.2 67.7,64.5 60.8,57 54.1,49.7 48.2,43.3 45.9,40.8 44.1,38.8 43,37.6 "/>
</svg>
