<?xml version="1.0" encoding="utf-8"?>
<!-- Generator: Adobe Illustrator 17.1.0, SVG Export Plug-In . SVG Version: 6.00 Build 0)  -->
<!DOCTYPE svg PUBLIC "-//W3C//DTD SVG 1.1//EN" "http://www.w3.org/Graphics/SVG/1.1/DTD/svg11.dtd">
<svg version="1.1"
	 id="レイヤー_1" xmlns:inkscape="http://www.inkscape.org/namespaces/inkscape" xmlns:sodipodi="http://sodipodi.sourceforge.net/DTD/sodipodi-0.dtd" xmlns:dc="http://purl.org/dc/elements/1.1/" xmlns:cc="http://creativecommons.org/ns#" xmlns:rdf="http://www.w3.org/1999/02/22-rdf-syntax-ns#" xmlns:svg="http://www.w3.org/2000/svg" inkscape:version="0.48.4 r" sodipodi:docname="1-2r.svg"
	 xmlns="http://www.w3.org/2000/svg" xmlns:xlink="http://www.w3.org/1999/xlink" x="0px" y="0px" viewBox="0 0 100 100"
	 enable-background="new 0 0 100 100" xml:space="preserve">
<sodipodi:namedview  pagecolor="#ffffff" showgrid="false" guidetolerance="10" inkscape:cx="50" gridtolerance="10" inkscape:cy="50" objecttolerance="10" inkscape:zoom="2.36" borderopacity="1" bordercolor="#666666" id="namedview3301" inkscape:window-maximized="0" inkscape:pageopacity="0" inkscape:window-y="0" inkscape:window-height="480" inkscape:current-layer="レイヤー_1" inkscape:window-x="0" inkscape:pageshadow="2" inkscape:window-width="834">
	</sodipodi:namedview>
<g id="レイヤー_2">
	<path id="path3267" fill="none" stroke="#231815" stroke-miterlimit="10" d="M60,159.1"/>
</g>
<polygon id="polygon3215" fill="#FFFFFF" points="92.7,78.4 91.1,78.4 93.4,78.4 93.4,78.4 "/>
<polygon fill="#ECEDEE" points="7.5,28 7.4,27.6 7.4,27.2 7.9,23.6 9.3,20.3 11.4,17.3 14.3,14.6 17.7,12.4 21.6,10.8 26,9.7 
	30.6,9.4 35.3,9.7 39.6,10.8 43.6,12.4 47,14.6 49.9,17.3 52,20.3 53.4,23.6 53.8,27.2 53.8,27.6 53.8,28 53.1,39.6 53.1,39.2 
	53.2,38.8 52.7,35.3 51.4,32.1 49.3,29.1 46.5,26.6 43.2,24.5 39.4,22.9 35.1,21.8 30.6,21.5 26.1,21.8 21.9,22.9 18.1,24.5 
	14.8,26.6 12,29.1 9.9,32.1 8.6,35.3 8.1,38.8 8.1,39.2 8.2,39.6 "/>
<polygon fill="none" stroke="#131E1F" stroke-width="0.8555" stroke-miterlimit="2.6131" points="7.5,28 7.4,27.6 7.4,27.2 
	7.9,23.6 9.3,20.3 11.4,17.3 14.3,14.6 17.7,12.4 21.6,10.8 26,9.7 30.6,9.4 35.3,9.7 39.6,10.8 43.6,12.4 47,14.6 49.9,17.3 
	52,20.3 53.4,23.6 53.8,27.2 53.8,27.6 53.8,28 53.1,39.6 53.1,39.2 53.2,38.8 52.7,35.3 51.4,32.1 49.3,29.1 46.5,26.6 43.2,24.5 
	39.4,22.9 35.1,21.8 30.6,21.5 26.1,21.8 21.9,22.9 18.1,24.5 14.8,26.6 12,29.1 9.9,32.1 8.6,35.3 8.1,38.8 8.1,39.2 8.2,39.6 "/>
<polygon fill="#111010" points="53.8,28 53.2,31.4 51.7,34.6 49.5,37.5 46.7,40 43.3,42.1 39.4,43.7 35.2,44.6 30.6,45 26.1,44.6 
	21.9,43.7 18,42.1 14.6,40 11.8,37.5 9.6,34.6 8.1,31.4 7.5,28 8.2,39.6 8.8,42.9 10.2,46 12.3,48.8 15.1,51.2 18.4,53.2 22.1,54.7 
	26.2,55.7 30.6,56 35,55.7 39.1,54.7 42.9,53.2 46.2,51.2 48.9,48.8 51.1,46 52.5,42.9 53.1,39.6 "/>
<polygon fill="none" stroke="#131E1F" stroke-width="0.8555" stroke-miterlimit="2.6131" points="53.8,28 53.2,31.4 51.7,34.6 
	49.5,37.5 46.7,40 43.3,42.1 39.4,43.7 35.2,44.6 30.6,45 26.1,44.6 21.9,43.7 18,42.1 14.6,40 11.8,37.5 9.6,34.6 8.1,31.4 7.5,28 
	8.2,39.6 8.8,42.9 10.2,46 12.3,48.8 15.1,51.2 18.4,53.2 22.1,54.7 26.2,55.7 30.6,56 35,55.7 39.1,54.7 42.9,53.2 46.2,51.2 
	48.9,48.8 51.1,46 52.5,42.9 53.1,39.6 "/>
<polygon fill="#FFFFFF" points="53.8,27.2 53.4,30.7 52,34.1 49.9,37.1 47,39.7 43.6,41.9 39.6,43.6 35.3,44.6 30.6,45 26,44.6 
	21.6,43.6 17.7,41.9 14.3,39.7 11.4,37.1 9.3,34.1 7.9,30.7 7.4,27.2 7.9,23.6 9.3,20.3 11.4,17.3 14.3,14.6 17.7,12.4 21.6,10.8 
	26,9.7 30.6,9.4 35.3,9.7 39.6,10.8 43.6,12.4 47,14.6 49.9,17.3 52,20.3 53.4,23.6 "/>
<polygon fill="none" stroke="#131E1F" stroke-width="0.8555" stroke-miterlimit="2.6131" points="53.8,27.2 53.4,30.7 52,34.1 
	49.9,37.1 47,39.7 43.6,41.9 39.6,43.6 35.3,44.6 30.6,45 26,44.6 21.6,43.6 17.7,41.9 14.3,39.7 11.4,37.1 9.3,34.1 7.9,30.7 
	7.4,27.2 7.9,23.6 9.3,20.3 11.4,17.3 14.3,14.6 17.7,12.4 21.6,10.8 26,9.7 30.6,9.4 35.3,9.7 39.6,10.8 43.6,12.4 47,14.6 
	49.9,17.3 52,20.3 53.4,23.6 "/>
<polygon fill="#DCDDDD" points="51.5,27.2 51.4,26.4 51.3,25.7 51.2,24.9 51,24.2 50.8,23.5 50.5,22.8 50.2,22.1 49.8,21.4 
	49.4,20.7 48.9,20.1 48.4,19.5 47.9,18.9 47.3,18.3 46.7,17.7 46,17.2 45.3,16.7 44.6,16.2 43.9,15.7 43.1,15.3 42.3,14.8 
	41.4,14.5 40.5,14.1 39.6,13.8 38.7,13.5 37.8,13.2 36.8,13 35.8,12.8 34.8,12.6 33.8,12.5 32.8,12.4 31.7,12.3 30.6,12.3 
	29.6,12.3 28.5,12.4 27.5,12.5 26.5,12.6 25.4,12.8 24.5,13 23.5,13.2 22.5,13.5 21.6,13.8 20.7,14.1 19.9,14.5 19,14.8 18.2,15.3 
	17.4,15.7 16.6,16.2 15.9,16.7 15.2,17.2 14.6,17.7 14,18.3 13.4,18.9 12.8,19.5 12.3,20.1 11.9,20.7 11.5,21.4 11.1,22.1 
	10.8,22.8 10.5,23.5 10.2,24.2 10.1,24.9 9.9,25.7 9.8,26.4 9.8,27.2 9.8,27.9 9.9,28.7 10.1,29.4 10.2,30.2 10.5,30.9 10.8,31.6 
	11.1,32.3 11.5,33 11.9,33.6 12.3,34.3 12.8,34.9 13.4,35.5 14,36.1 14.6,36.6 15.2,37.2 15.9,37.7 16.6,38.2 17.4,38.6 18.2,39.1 
	19,39.5 19.9,39.9 20.7,40.3 21.6,40.6 22.5,40.9 23.5,41.1 24.5,41.4 25.4,41.6 26.5,41.7 27.5,41.9 28.5,42 29.6,42 30.6,42 
	31.7,42 32.8,42 33.8,41.9 34.8,41.7 35.8,41.6 36.8,41.4 37.8,41.1 38.7,40.9 39.6,40.6 40.5,40.3 41.4,39.9 42.3,39.5 43.1,39.1 
	43.9,38.6 44.6,38.2 45.3,37.7 46,37.2 46.7,36.6 47.3,36.1 47.9,35.5 48.4,34.9 48.9,34.3 49.4,33.6 49.8,33 50.2,32.3 50.5,31.6 
	50.8,30.9 51,30.2 51.2,29.4 51.3,28.7 51.4,27.9 "/>
<polyline fill="none" stroke="#131E1F" stroke-width="0.8555" stroke-miterlimit="2.6131" points="51.5,27.2 51.4,26.4 51.3,25.7 
	51.2,24.9 51,24.2 50.8,23.5 50.5,22.8 50.2,22.1 49.8,21.4 49.4,20.7 48.9,20.1 48.4,19.5 47.9,18.9 47.3,18.3 46.7,17.7 46,17.2 
	45.3,16.7 44.6,16.2 43.9,15.7 43.1,15.3 42.3,14.8 41.4,14.5 40.5,14.1 39.6,13.8 38.7,13.5 37.8,13.2 36.8,13 35.8,12.8 
	34.8,12.6 33.8,12.5 32.8,12.4 31.7,12.3 30.6,12.3 29.6,12.3 28.5,12.4 27.5,12.5 26.5,12.6 25.4,12.8 24.5,13 23.5,13.2 
	22.5,13.5 21.6,13.8 20.7,14.1 19.9,14.5 19,14.8 18.2,15.3 17.4,15.7 16.6,16.2 15.9,16.7 15.2,17.2 14.6,17.7 14,18.3 13.4,18.9 
	12.8,19.5 12.3,20.1 11.9,20.7 11.5,21.4 11.1,22.1 10.8,22.8 10.5,23.5 10.2,24.2 10.1,24.9 9.9,25.7 9.8,26.4 9.8,27.2 9.8,27.9 
	9.9,28.7 10.1,29.4 10.2,30.2 10.5,30.9 10.8,31.6 11.1,32.3 11.5,33 11.9,33.6 12.3,34.3 12.8,34.9 13.4,35.5 14,36.1 14.6,36.6 
	15.2,37.2 15.9,37.7 16.6,38.2 17.4,38.6 18.2,39.1 19,39.5 19.9,39.9 20.7,40.3 21.6,40.6 22.5,40.9 23.5,41.1 24.5,41.4 
	25.4,41.6 26.5,41.7 27.5,41.9 28.5,42 29.6,42 30.6,42 31.7,42 32.8,42 33.8,41.9 34.8,41.7 35.8,41.6 36.8,41.4 37.8,41.1 
	38.7,40.9 39.6,40.6 40.5,40.3 41.4,39.9 42.3,39.5 43.1,39.1 43.9,38.6 44.6,38.2 45.3,37.7 46,37.2 46.7,36.6 47.3,36.1 
	47.9,35.5 48.4,34.9 48.9,34.3 49.4,33.6 49.8,33 50.2,32.3 50.5,31.6 50.8,30.9 51,30.2 51.2,29.4 51.3,28.7 51.4,27.9 51.5,27.2 
	"/>
<polygon fill="#FFFFFF" points="50.3,29.9 50.3,29.3 50.2,28.7 50.1,28.1 50,27.5 49.7,26.9 49.5,26.3 49.2,25.7 48.8,25.1 
	48.4,24.6 48,24 47.5,23.5 47,23 46.5,22.5 45.9,22.1 45.3,21.6 44.6,21.2 44,20.8 43.3,20.4 42.5,20 41.8,19.7 41,19.3 40.2,19 
	39.3,18.8 38.5,18.5 37.6,18.3 36.7,18.1 35.8,17.9 34.8,17.8 33.9,17.7 32.9,17.6 31.9,17.6 30.9,17.5 29.9,17.6 28.9,17.6 
	28,17.7 27,17.8 26.1,17.9 25.1,18.1 24.2,18.3 23.4,18.5 22.5,18.8 21.7,19 20.8,19.3 20.1,19.7 19.3,20 18.6,20.4 17.9,20.8 
	17.2,21.2 16.5,21.6 15.9,22.1 15.3,22.5 14.8,23 14.3,23.5 13.8,24 13.4,24.6 13,25.1 12.7,25.7 12.4,26.3 12.1,26.9 11.9,27.5 
	11.7,28.1 11.6,28.7 11.5,29.3 11.5,29.9 11.5,30.6 11.6,31.2 11.7,31.8 11.9,32.4 12.1,33 12.4,33.6 12.7,34.2 13,34.8 13.4,35.3 
	13.8,35.9 14.3,36.4 14.8,36.9 15.3,37.4 15.9,37.8 16.5,38.3 17.2,38.7 17.9,39.1 18.6,39.5 19.3,39.9 20.1,40.2 20.8,40.6 
	21.7,40.9 22.5,41.1 23.4,41.4 24.2,41.6 25.1,41.8 26.1,42 27,42.1 28,42.2 28.9,42.3 29.9,42.3 30.9,42.3 31.9,42.3 32.9,42.3 
	33.9,42.2 34.8,42.1 35.8,42 36.7,41.8 37.6,41.6 38.5,41.4 39.3,41.1 40.2,40.9 41,40.6 41.8,40.2 42.5,39.9 43.3,39.5 44,39.1 
	44.6,38.7 45.3,38.3 45.9,37.8 46.5,37.4 47,36.9 47.5,36.4 48,35.9 48.4,35.3 48.8,34.8 49.2,34.2 49.5,33.6 49.7,33 50,32.4 
	50.1,31.8 50.2,31.2 50.3,30.6 "/>
<polyline fill="none" stroke="#A2A5A6" stroke-width="0.8555" stroke-miterlimit="2.6131" points="50.3,29.9 50.3,29.3 50.2,28.7 
	50.1,28.1 50,27.5 49.7,26.9 49.5,26.3 49.2,25.7 48.8,25.1 48.4,24.6 48,24 47.5,23.5 47,23 46.5,22.5 45.9,22.1 45.3,21.6 
	44.6,21.2 44,20.8 43.3,20.4 42.5,20 41.8,19.7 41,19.3 40.2,19 39.3,18.8 38.5,18.5 37.6,18.3 36.7,18.1 35.8,17.9 34.8,17.8 
	33.9,17.7 32.9,17.6 31.9,17.6 30.9,17.5 29.9,17.6 28.9,17.6 28,17.7 27,17.8 26.1,17.9 25.1,18.1 24.2,18.3 23.4,18.5 22.5,18.8 
	21.7,19 20.8,19.3 20.1,19.7 19.3,20 18.6,20.4 17.9,20.8 17.2,21.2 16.5,21.6 15.9,22.1 15.3,22.5 14.8,23 14.3,23.5 13.8,24 
	13.4,24.6 13,25.1 12.7,25.7 12.4,26.3 12.1,26.9 11.9,27.5 11.7,28.1 11.6,28.7 11.5,29.3 11.5,29.9 11.5,30.6 11.6,31.2 
	11.7,31.8 11.9,32.4 12.1,33 12.4,33.6 12.7,34.2 13,34.8 13.4,35.3 13.8,35.9 14.3,36.4 14.8,36.9 15.3,37.4 15.9,37.8 16.5,38.3 
	17.2,38.7 17.9,39.1 18.6,39.5 19.3,39.9 20.1,40.2 20.8,40.6 21.7,40.9 22.5,41.1 23.4,41.4 24.2,41.6 25.1,41.8 26.1,42 27,42.1 
	28,42.2 28.9,42.3 29.9,42.3 30.9,42.3 31.9,42.3 32.9,42.3 33.9,42.2 34.8,42.1 35.8,42 36.7,41.8 37.6,41.6 38.5,41.4 39.3,41.1 
	40.2,40.9 41,40.6 41.8,40.2 42.5,39.9 43.3,39.5 44,39.1 44.6,38.7 45.3,38.3 45.9,37.8 46.5,37.4 47,36.9 47.5,36.4 48,35.9 
	48.4,35.3 48.8,34.8 49.2,34.2 49.5,33.6 49.7,33 50,32.4 50.1,31.8 50.2,31.2 50.3,30.6 50.3,29.9 "/>
<polygon fill="#EFEFEF" points="40.6,22.9 40.6,22.8 40.5,22.7 40.5,22.6 40.4,22.5 40.3,22.4 40.1,22.3 40,22.2 39.8,22.1 39.6,22 
	39.4,21.9 39.2,21.8 38.9,21.7 38.6,21.6 38.3,21.5 38,21.5 37.7,21.4 37.4,21.3 37,21.3 36.6,21.2 36.2,21.1 35.8,21.1 35.4,21 
	35,21 34.6,20.9 34.1,20.9 33.7,20.9 33.2,20.8 32.7,20.8 32.2,20.8 31.7,20.8 31.2,20.8 30.7,20.8 30.2,20.8 29.7,20.8 29.2,20.8 
	28.7,20.8 28.3,20.8 27.8,20.9 27.3,20.9 26.9,20.9 26.5,21 26,21 25.6,21.1 25.2,21.1 24.8,21.2 24.5,21.3 24.1,21.3 23.8,21.4 
	23.4,21.5 23.1,21.5 22.8,21.6 22.6,21.7 22.3,21.8 22.1,21.9 21.9,22 21.7,22.1 21.5,22.2 21.3,22.3 21.2,22.4 21.1,22.5 21,22.6 
	20.9,22.7 20.9,22.8 20.9,22.9 20.9,23.1 20.9,23.2 21,23.3 21.1,23.4 21.2,23.5 21.3,23.6 21.5,23.7 21.7,23.8 21.9,23.9 22.1,24 
	22.3,24.1 22.6,24.2 22.8,24.2 23.1,24.3 23.4,24.4 23.8,24.5 24.1,24.6 24.5,24.6 24.8,24.7 25.2,24.7 25.6,24.8 26,24.9 
	26.5,24.9 26.9,24.9 27.3,25 27.8,25 28.3,25.1 28.7,25.1 29.2,25.1 29.7,25.1 30.2,25.1 30.7,25.1 31.2,25.1 31.7,25.1 32.2,25.1 
	32.7,25.1 33.2,25.1 33.7,25 34.1,25 34.6,24.9 35,24.9 35.4,24.9 35.8,24.8 36.2,24.7 36.6,24.7 37,24.6 37.4,24.6 37.7,24.5 
	38,24.4 38.3,24.3 38.6,24.2 38.9,24.2 39.2,24.1 39.4,24 39.6,23.9 39.8,23.8 40,23.7 40.1,23.6 40.3,23.5 40.4,23.4 40.5,23.3 
	40.5,23.2 40.6,23.1 "/>
<polygon fill="#B5B5B6" points="43.6,49.6 43,48.6 42.8,47.2 43.3,45.1 44.4,44.3 44.9,44.4 45.2,44.7 72.7,73.6 72.3,73.3 
	71.8,73.2 70.7,74.1 70.2,76.1 70.4,77.5 71,78.6 "/>
<polygon fill="none" stroke="#131E1F" stroke-width="0.8555" stroke-miterlimit="2.6131" points="43.6,49.6 43,48.6 42.8,47.2 
	43.3,45.1 44.4,44.3 44.9,44.4 45.2,44.7 72.7,73.6 72.3,73.3 71.8,73.2 70.7,74.1 70.2,76.1 70.4,77.5 71,78.6 "/>
<polygon points="46.4,54.1 46.2,53.7 46.1,52.6 46.3,50.9 47.3,48.8 48.6,47.5 49.9,47.4 50.7,47.8 51,48.1 81.1,75.8 81.9,76.9 
	83.4,79.7 83.9,81.5 84.2,83.4 83.9,85.4 83,87.4 81.5,89.1 79.8,89.7 77.4,88.9 73.9,86.4 73.3,85.8 72.2,84.6 70.6,82.8 
	68.8,80.7 64.3,75.5 59.4,69.7 54.6,63.9 50.4,59 48.8,57 47.5,55.5 46.7,54.5 "/>
<polygon fill="none" stroke="#131E1F" stroke-width="0.8555" stroke-miterlimit="2.6131" points="46.4,54.1 46.2,53.7 46.1,52.6 
	46.3,50.9 47.3,48.8 48.6,47.5 49.9,47.4 50.7,47.8 51,48.1 81.1,75.8 81.9,76.9 83.4,79.7 83.9,81.5 84.2,83.4 83.9,85.4 83,87.4 
	81.5,89.1 79.8,89.7 77.4,88.9 73.9,86.4 73.3,85.8 72.2,84.6 70.6,82.8 68.8,80.7 64.3,75.5 59.4,69.7 54.6,63.9 50.4,59 48.8,57 
	47.5,55.5 46.7,54.5 "/>
<polygon fill="#DCDDDD" points="50,58.7 49.7,58.2 49,56.9 48.8,54.9 49.7,52.3 50.9,50.9 52,50.2 53,50.1 53.9,50.4 55.2,51.4 
	55.9,52.2 56.3,52.8 56.4,52.9 55.9,52.6 54.8,52.1 53.3,52.2 51.7,53.7 50.8,55.8 50.7,57.6 50.9,59 51.2,59.8 51.2,60 50.8,59.6 
	50.3,59 "/>
<polygon fill="none" stroke="#131E1F" stroke-width="0.8555" stroke-miterlimit="2.6131" points="50,58.7 49.7,58.2 49,56.9 
	48.8,54.9 49.7,52.3 50.9,50.9 52,50.2 53,50.1 53.9,50.4 55.2,51.4 55.9,52.2 56.3,52.8 56.4,52.9 55.9,52.6 54.8,52.1 53.3,52.2 
	51.7,53.7 50.8,55.8 50.7,57.6 50.9,59 51.2,59.8 51.2,60 50.8,59.6 50.3,59 "/>
<polygon fill="#131E1F" points="52.9,59 75.3,83 75.9,83.5 77.5,84.3 79.4,84.5 81,83.3 81.8,81.4 82.1,80.4 82.2,80 82.2,79.9 
	82.5,80.6 83,82.4 83,85 81.6,88.1 80.1,89.1 78.2,88.9 76.3,87.9 74.9,86.9 73.6,85.4 71,82.5 67.5,78.4 63.6,73.9 59.8,69.4 
	56.5,65.6 54.1,62.9 53.3,61.8 52.7,61.2 51.8,59.9 51.5,59.3 51.5,58.9 52,58.7 "/>
<polygon fill="#FFFFFF" points="55.5,53.4 81,77 81.1,77.6 81.4,78.8 81.2,79.4 80.1,78.7 78.4,76.9 75.3,73.7 71.3,69.6 67,65.2 
	62.7,60.8 59,57 57.6,55.5 56.5,54.4 55.8,53.7 "/>
</svg>
