<?xml version="1.0" encoding="utf-8"?>
<!-- Generator: Adobe Illustrator 17.1.0, SVG Export Plug-In . SVG Version: 6.00 Build 0)  -->
<!DOCTYPE svg PUBLIC "-//W3C//DTD SVG 1.1//EN" "http://www.w3.org/Graphics/SVG/1.1/DTD/svg11.dtd">
<svg version="1.1"
	 id="レイヤー_1" xmlns:inkscape="http://www.inkscape.org/namespaces/inkscape" xmlns:sodipodi="http://sodipodi.sourceforge.net/DTD/sodipodi-0.dtd" xmlns:dc="http://purl.org/dc/elements/1.1/" xmlns:cc="http://creativecommons.org/ns#" xmlns:rdf="http://www.w3.org/1999/02/22-rdf-syntax-ns#" xmlns:svg="http://www.w3.org/2000/svg" inkscape:version="0.48.4 r" sodipodi:docname="1-2r.svg"
	 xmlns="http://www.w3.org/2000/svg" xmlns:xlink="http://www.w3.org/1999/xlink" x="0px" y="0px" viewBox="0 0 100 100"
	 enable-background="new 0 0 100 100" xml:space="preserve">
<sodipodi:namedview  pagecolor="#ffffff" showgrid="false" guidetolerance="10" inkscape:cx="50" gridtolerance="10" inkscape:cy="50" objecttolerance="10" inkscape:zoom="2.36" borderopacity="1" bordercolor="#666666" id="namedview3301" inkscape:window-maximized="0" inkscape:pageopacity="0" inkscape:window-y="0" inkscape:window-height="480" inkscape:current-layer="レイヤー_1" inkscape:window-x="0" inkscape:pageshadow="2" inkscape:window-width="834">
	</sodipodi:namedview>
<g id="レイヤー_2">
	<path id="path3267" fill="none" stroke="#231815" stroke-miterlimit="10" d="M60,159.1"/>
</g>
<polygon id="polygon3215" points="86.5,78.1 85,78.1 87.3,78.1 87.3,78.1 "/>
<polygon points="21.4,31.5 21.2,31 21,29.5 21.2,27.4 22.6,24.7 24.5,23 26.2,22.8 27.4,23.4 27.9,23.8 70.1,59.3 71.2,60.7 
	73.3,64.3 74,66.6 74.4,69.1 74,71.6 72.8,74.1 70.7,76.4 68.3,77.2 64.9,76.1 60,72.9 59.1,72.1 57.5,70.5 55.4,68.3 52.8,65.6 
	46.6,58.9 39.7,51.4 32.9,44.1 27,37.7 24.7,35.1 22.9,33.2 21.8,31.9 "/>
<path stroke="#FFFFFF" stroke-width="6" stroke-miterlimit="2.6131" d="M81,28.3c-0.7,2.1-3.1,3.1-5.2,3.6
	c-6.4,1.5-13.3,0.8-19.2-1.9c-2.2-1-4.3-2.3-5.7-4.2c-1.4-1.9-2.1-4.5-1.2-6.8c0.3-0.7,0.5-1.9-0.3-2c4.8-2.8,10.6-2.8,16.1-2.8
	c4.2,0,8.8,0.3,12,3.1c2.2,2,3.3,5.1,3.7,8.1C81.2,26.4,81.3,27.3,81,28.3z"/>
</svg>
