<?xml version="1.0" encoding="utf-8"?>
<!-- Generator: Adobe Illustrator 17.1.0, SVG Export Plug-In . SVG Version: 6.00 Build 0)  -->
<!DOCTYPE svg PUBLIC "-//W3C//DTD SVG 1.1//EN" "http://www.w3.org/Graphics/SVG/1.1/DTD/svg11.dtd">
<svg version="1.1"
	 id="レイヤー_1" xmlns:inkscape="http://www.inkscape.org/namespaces/inkscape" xmlns:sodipodi="http://sodipodi.sourceforge.net/DTD/sodipodi-0.dtd" xmlns:dc="http://purl.org/dc/elements/1.1/" xmlns:cc="http://creativecommons.org/ns#" xmlns:rdf="http://www.w3.org/1999/02/22-rdf-syntax-ns#" xmlns:svg="http://www.w3.org/2000/svg" inkscape:version="0.48.4 r" sodipodi:docname="1-2r.svg"
	 xmlns="http://www.w3.org/2000/svg" xmlns:xlink="http://www.w3.org/1999/xlink" x="0px" y="0px" viewBox="0 0 100 100"
	 enable-background="new 0 0 100 100" xml:space="preserve">
<sodipodi:namedview  pagecolor="#ffffff" showgrid="false" guidetolerance="10" inkscape:cx="50" gridtolerance="10" inkscape:cy="50" objecttolerance="10" inkscape:zoom="2.36" borderopacity="1" bordercolor="#666666" id="namedview3301" inkscape:window-maximized="0" inkscape:pageopacity="0" inkscape:window-y="0" inkscape:window-height="480" inkscape:current-layer="レイヤー_1" inkscape:window-x="0" inkscape:pageshadow="2" inkscape:window-width="834">
	</sodipodi:namedview>
<g id="レイヤー_2">
	<path id="path3267" fill="none" stroke="#231815" stroke-miterlimit="10" d="M60,159.1"/>
</g>
<polygon id="polygon3215" points="86.5,78.1 85,78.1 87.3,78.1 87.3,78.1 "/>
<polygon stroke="#FFFFFF" stroke-miterlimit="2.6131" points="39.1,32.4 38.8,31.9 38.6,30.5 38.9,28.3 40.3,25.6 42.2,23.9 
	43.9,23.8 45.1,24.3 45.6,24.7 87.8,60.2 88.9,61.6 90.9,65.2 91.7,67.5 92.1,70 91.7,72.5 90.4,75 88.3,77.3 85.9,78.1 82.6,77 
	77.7,73.8 76.8,73 75.2,71.4 73.1,69.2 70.5,66.5 64.2,59.8 57.3,52.4 50.6,45 44.7,38.6 42.4,36.1 40.6,34.1 39.5,32.9 "/>
<path stroke="#FFFFFF" stroke-miterlimit="2.6131" d="M40,24.1c-0.7,2.1-3.1,3.1-5.2,3.6c-6.4,1.5-13.3,0.8-19.2-1.9
	c-2.2-1-4.3-2.3-5.7-4.2S7.7,17,8.6,14.8c0.3-0.7,0.5-1.9-0.3-2c4.8-2.8,10.6-2.8,16.1-2.8c4.2,0,8.8,0.3,12,3.1
	c2.2,2,3.3,5.1,3.7,8.1C40.2,22.2,40.3,23.2,40,24.1z"/>
</svg>
