<?xml version="1.0" encoding="UTF-8" standalone="no"?>
<!-- Created with Inkscape (http://www.inkscape.org/) -->

<svg
   xmlns:dc="http://purl.org/dc/elements/1.1/"
   xmlns:cc="http://creativecommons.org/ns#"
   xmlns:rdf="http://www.w3.org/1999/02/22-rdf-syntax-ns#"
   xmlns:svg="http://www.w3.org/2000/svg"
   xmlns="http://www.w3.org/2000/svg"
   version="1.1"
   width="100"
   height="100"
   viewBox="0 0 100 100"
   id="Ebene_1"
   xml:space="preserve"><metadata
     id="metadata5159"><rdf:RDF><cc:Work
         rdf:about=""><dc:format>image/svg+xml</dc:format><dc:type
           rdf:resource="http://purl.org/dc/dcmitype/StillImage" /><dc:title></dc:title></cc:Work></rdf:RDF></metadata><defs
     id="defs5157" /><circle
     cx="50"
     cy="50"
     r="50"
     id="circle5111"
     style="fill:#b2b2b2" /><g
     id="g5113"><path
       d="m 44.63,47.552 0.153,-0.069 c 0.14,-0.064 0.201,-0.23 0.137,-0.37 -0.064,-0.142 -0.233,-0.203 -0.373,-0.139 L 44.4,47.042 c -0.634,0.285 -1.813,0.816 -2.03,1.559 -0.072,0.251 -0.032,0.507 0.121,0.738 0.196,0.301 0.519,0.435 0.908,0.375 0.738,-0.112 1.635,-0.924 1.791,-1.472 0.042,-0.148 -0.043,-0.304 -0.193,-0.347 -0.148,-0.042 -0.304,0.044 -0.346,0.194 -0.093,0.325 -0.802,0.989 -1.337,1.07 -0.219,0.034 -0.304,-0.05 -0.354,-0.127 -0.063,-0.096 -0.078,-0.18 -0.051,-0.274 0.144,-0.495 1.29,-1.011 1.721,-1.206 z"
       id="path5115"
       style="stroke:#000000;stroke-width:0.7087;stroke-miterlimit:10" /><path
       d="m 40.468,49.009 c 0.037,-0.05 0.054,-0.107 0.054,-0.164 0,-0.085 -0.04,-0.169 -0.115,-0.224 -0.125,-0.093 -0.302,-0.063 -0.395,0.062 l -0.141,0.189 c -0.231,0.304 -0.448,0.593 -0.441,1.084 0.005,0.336 0.045,0.666 0.303,0.814 0.249,0.144 0.538,0.022 0.813,-0.13 0.45,-0.249 1.002,-0.846 1.141,-1.458 0.09,-0.396 0.04,-0.898 -0.274,-1.125 -0.126,-0.091 -0.399,-0.208 -0.807,0.038 -0.133,0.079 -0.176,0.251 -0.096,0.384 0.08,0.133 0.251,0.175 0.385,0.096 0.116,-0.07 0.18,-0.071 0.19,-0.064 0.038,0.028 0.082,0.156 0.082,0.324 0,0.069 -0.007,0.145 -0.025,0.224 -0.087,0.385 -0.476,0.876 -0.867,1.092 -0.149,0.083 -0.213,0.105 -0.25,0.113 -0.013,-0.045 -0.029,-0.133 -0.032,-0.316 -0.001,-0.005 -0.001,-0.011 -0.001,-0.017 0,-0.288 0.118,-0.444 0.328,-0.722 l 0.148,-0.2 z"
       id="path5117"
       style="stroke:#000000;stroke-width:0.7087;stroke-miterlimit:10" /><path
       d="m 37.715,50.631 c -0.142,-0.062 -0.307,0.003 -0.369,0.145 -0.008,0.02 -0.842,1.945 -0.249,2.542 0.142,0.144 0.413,0.271 0.892,0.064 0.618,-0.264 1.254,-1.507 1.216,-2.374 -0.021,-0.5 -0.258,-0.849 -0.664,-0.982 -0.147,-0.048 -0.306,0.032 -0.354,0.179 -0.048,0.147 0.032,0.305 0.179,0.354 0.072,0.022 0.262,0.085 0.279,0.474 0.032,0.725 -0.532,1.688 -0.877,1.835 -0.189,0.082 -0.265,0.064 -0.274,0.056 -0.17,-0.171 0.062,-1.229 0.365,-1.923 0.062,-0.143 -0.002,-0.308 -0.144,-0.37 z"
       id="path5119"
       style="stroke:#000000;stroke-width:0.7087;stroke-miterlimit:10" /><path
       d="m 38.716,59.362 c -0.515,0.519 -0.748,1.548 -0.469,2.078 0.151,0.288 0.43,0.419 0.767,0.358 0.153,-0.026 0.253,-0.173 0.227,-0.324 -0.027,-0.152 -0.173,-0.255 -0.325,-0.228 -0.116,0.021 -0.146,-0.017 -0.172,-0.067 -0.151,-0.287 0.008,-1.059 0.37,-1.423 0.211,-0.213 0.372,-0.171 0.489,-0.111 0.137,0.071 0.306,0.017 0.377,-0.121 0.071,-0.137 0.017,-0.306 -0.121,-0.377 -0.392,-0.202 -0.809,-0.123 -1.143,0.215 z"
       id="path5121"
       style="stroke:#000000;stroke-width:0.7087;stroke-miterlimit:10" /><path
       d="m 37.999,65.456 c 0.151,-0.03 0.249,-0.179 0.218,-0.33 -0.031,-0.152 -0.179,-0.25 -0.33,-0.218 -0.478,0.098 -0.956,0.541 -1.217,1.129 -0.228,0.513 -0.231,1.022 -0.01,1.396 0.197,0.334 0.452,0.388 0.603,0.386 -0.326,0.34 -0.427,0.972 -0.296,1.444 0.132,0.477 0.469,0.737 0.899,0.699 0.125,-0.012 0.227,-0.104 0.25,-0.228 0.013,-0.068 0.049,-0.121 0.11,-0.206 l 0.141,-0.231 c 0.081,-0.132 0.023,-0.271 -0.108,-0.353 -0.13,-0.081 -0.319,-0.011 -0.402,0.119 L 37.77,69.2 c -0.035,0.049 -0.072,0.104 -0.107,0.167 -0.057,-0.036 -0.116,-0.106 -0.157,-0.255 -0.026,-0.092 -0.038,-0.19 -0.038,-0.287 0,-0.307 0.115,-0.601 0.257,-0.669 0.067,-0.033 0.114,-0.092 0.138,-0.156 -0.009,0.036 -0.019,0.068 -0.026,0.11 -0.027,0.151 0.073,0.298 0.226,0.324 0.153,0.027 0.298,-0.073 0.326,-0.225 0.011,-0.061 0.021,-0.088 0.032,-0.123 0.236,0.271 0.607,1.111 0.609,1.371 0,0.001 0,0.001 0,0.003 0,0.311 -0.33,0.87 -0.529,1.047 -0.009,-0.04 -0.018,-0.079 -0.023,-0.155 -0.011,-0.154 -0.145,-0.271 -0.299,-0.26 -0.154,0.01 -0.271,0.145 -0.26,0.299 0.046,0.665 0.358,0.752 0.541,0.745 0.559,-0.022 1.135,-1.183 1.131,-1.685 -0.002,-0.349 -0.57,-1.941 -1.184,-1.993 -0.18,-0.015 -0.408,0.063 -0.529,0.482 10e-4,-0.014 0.005,-0.025 0.005,-0.038 0,-0.04 -0.009,-0.083 -0.028,-0.122 -0.03,-0.062 -0.081,-0.103 -0.139,-0.129 0.325,-0.229 0.567,-0.635 0.653,-0.824 0.063,-0.141 0,-0.308 -0.142,-0.371 -0.141,-0.063 -0.307,0 -0.37,0.142 -0.143,0.318 -0.445,0.652 -0.597,0.66 -0.044,0.003 -0.093,-0.067 -0.118,-0.11 -0.128,-0.217 -0.114,-0.54 0.039,-0.885 0.182,-0.407 0.526,-0.745 0.818,-0.807 z"
       id="path5123"
       style="stroke:#000000;stroke-width:0.7087;stroke-miterlimit:10" /><path
       d="m 36.016,72.387 c 0.185,0.32 0.397,0.495 0.635,0.523 -0.08,0.661 -0.095,1.73 0.381,2.121 0.135,0.11 0.429,0.26 0.875,0.021 0.65,-0.347 0.868,-1.606 0.615,-2.417 -0.14,-0.452 -0.413,-0.732 -0.77,-0.811 0.064,-0.148 0.125,-0.303 0.183,-0.461 l 0.016,-0.043 c 0.054,-0.145 -0.021,-0.308 -0.165,-0.36 -0.146,-0.055 -0.306,0.02 -0.36,0.165 l -0.016,0.044 c -0.248,0.67 -0.428,0.963 -0.543,1.09 -0.031,0.018 -0.059,0.043 -0.081,0.072 -0.027,0.018 -0.047,0.022 -0.059,0.023 -0.02,0.002 -0.105,-0.04 -0.226,-0.249 -0.151,-0.263 0.037,-1.281 0.421,-1.584 0.06,-0.048 0.143,-0.111 0.317,0.054 0.112,0.107 0.29,0.102 0.396,-0.011 0.106,-0.112 0.102,-0.29 -0.01,-0.396 -0.33,-0.313 -0.722,-0.346 -1.05,-0.087 -0.557,0.441 -0.877,1.755 -0.559,2.306 z m 1.405,0.307 c 0.146,0.005 0.259,-0.146 0.278,-0.294 0.101,0.05 0.21,0.152 0.287,0.401 0.053,0.17 0.077,0.359 0.077,0.551 0,0.537 -0.187,1.081 -0.42,1.206 -0.183,0.098 -0.237,0.054 -0.255,0.039 -0.161,-0.132 -0.218,-0.569 -0.218,-1.017 0,-0.358 0.038,-0.714 0.09,-0.931 0.002,-0.002 0.004,-0.003 0.006,-0.006 0.044,0.028 0.093,0.048 0.155,0.051 z"
       id="path5125"
       style="stroke:#000000;stroke-width:0.7087;stroke-miterlimit:10" /><path
       d="m 33.729,62.888 c 0.029,-0.078 0.051,-0.146 0.062,-0.192 0.037,-0.15 -0.056,-0.302 -0.207,-0.338 -0.15,-0.037 -0.302,0.056 -0.338,0.206 -0.086,0.356 -0.485,1.044 -0.726,1.093 -0.013,0.003 -0.05,0.012 -0.123,-0.086 -0.096,-0.127 -0.056,-0.405 0.104,-0.728 0.276,-0.554 0.747,-0.954 0.931,-0.954 0.155,0 0.281,-0.126 0.281,-0.279 0,-0.156 -0.125,-0.281 -0.281,-0.281 -0.503,0 -1.123,0.643 -1.433,1.265 -0.267,0.538 -0.284,1.005 -0.049,1.316 0.25,0.33 0.536,0.327 0.684,0.297 0.06,-0.013 0.118,-0.036 0.174,-0.064 -0.015,0.017 -0.032,0.028 -0.043,0.05 -0.218,0.376 -0.286,1.607 0.153,2.037 0.199,0.194 0.477,0.213 0.745,0.05 0.533,-0.325 0.809,-1.563 0.69,-2.411 -0.093,-0.681 -0.412,-0.906 -0.624,-0.981 z M 33.372,65.8 c 0,0.001 -0.068,0.029 -0.068,0.029 -0.164,-0.106 -0.211,-1.086 -0.053,-1.357 0.078,-0.134 0.032,-0.305 -0.102,-0.383 -0.064,-0.037 -0.137,-0.044 -0.204,-0.029 0.219,-0.158 0.406,-0.414 0.549,-0.667 0.012,0.005 0.021,0.015 0.035,0.018 0.128,0.035 0.229,0.235 0.271,0.534 0.106,0.757 -0.189,1.709 -0.428,1.855 z"
       id="path5127"
       style="stroke:#000000;stroke-width:0.7087;stroke-miterlimit:10" /><path
       d="m 43.109,60.941 c -0.05,-0.073 -0.128,-0.111 -0.21,-0.118 -0.011,-0.147 -0.133,-0.263 -0.282,-0.261 -0.11,0.002 -0.188,0.078 -0.23,0.173 -0.02,-0.019 -0.033,-0.041 -0.058,-0.054 -0.521,-0.278 -1.297,0.029 -1.693,0.492 -0.05,0.058 -0.09,0.117 -0.127,0.18 -0.042,-0.441 -0.152,-0.856 -0.385,-1.055 -0.192,-0.163 -0.447,-0.179 -0.697,-0.043 -0.136,0.074 -0.187,0.244 -0.112,0.381 0.073,0.136 0.243,0.186 0.379,0.111 0.046,-0.024 0.067,-0.024 0.067,-0.024 0.208,0.109 0.275,1.493 0.133,1.901 -0.094,0.271 -0.371,0.39 -0.514,0.349 -0.095,-0.026 -0.083,-0.167 -0.057,-0.281 0.035,-0.151 -0.06,-0.302 -0.21,-0.336 -0.15,-0.035 -0.301,0.06 -0.335,0.21 -0.084,0.369 0.01,0.622 0.166,0.777 -0.165,0.003 -0.368,0.064 -0.592,0.271 -0.115,0.104 -0.122,0.282 -0.017,0.396 0.104,0.114 0.282,0.123 0.396,0.018 0.118,-0.107 0.209,-0.146 0.273,-0.113 0.213,0.107 0.417,0.748 0.353,1.342 -0.036,0.329 -0.14,0.473 -0.202,0.488 -0.108,0.028 -0.147,-0.001 -0.163,-0.014 -0.207,-0.154 -0.23,-0.833 -0.238,-1.09 l -0.027,-0.302 c -0.014,-0.151 -0.138,-0.214 -0.291,-0.203 -0.054,0.004 -0.102,0.029 -0.142,0.068 -0.078,-0.065 -0.187,-0.088 -0.287,-0.046 -0.129,0.057 -0.156,0.019 -0.187,-0.025 -0.225,-0.319 -0.126,-1.417 0.234,-1.807 0.104,-0.112 0.171,-0.104 0.26,-0.051 0.133,0.078 0.305,0.034 0.384,-0.099 0.079,-0.133 0.035,-0.305 -0.098,-0.384 -0.331,-0.196 -0.688,-0.14 -0.958,0.153 -0.522,0.563 -0.676,1.948 -0.28,2.509 0.193,0.274 0.502,0.357 0.832,0.23 0.016,0.452 0.047,1.184 0.462,1.494 0.124,0.092 0.334,0.187 0.639,0.107 0.34,-0.088 0.561,-0.433 0.62,-0.972 0.059,-0.547 -0.059,-1.392 -0.48,-1.776 0.385,0.004 0.825,-0.249 0.991,-0.73 0.031,-0.089 0.063,-0.267 0.084,-0.486 0.011,0.019 0.02,0.036 0.033,0.055 0.222,0.297 0.561,0.396 0.928,0.27 0.103,-0.035 0.207,-0.091 0.31,-0.156 -0.087,0.063 -0.133,0.174 -0.107,0.286 0.013,0.061 0.036,0.157 0.07,0.265 -0.019,-0.004 -0.038,-0.012 -0.059,-0.011 -0.153,0.003 -0.274,0.127 -0.274,0.28 0,0.002 10e-4,0.01 10e-4,0.012 0,0.293 -0.41,0.82 -0.65,0.98 -0.029,-0.13 -0.132,-0.238 -0.266,-0.237 -0.149,0.003 -0.271,0.106 -0.276,0.255 -0.01,0.268 0.066,0.451 0.228,0.548 0.107,0.065 0.29,0.11 0.55,-0.04 0.362,-0.21 0.873,-0.837 0.958,-1.361 0.091,0.119 0.208,0.215 0.364,0.243 0.143,0.025 0.424,0.008 0.686,-0.396 0.338,-0.527 0.575,-1.676 0.103,-2.373 z m -1.823,1.175 c -0.16,0.055 -0.233,0.012 -0.298,-0.075 -0.042,-0.056 -0.167,-0.224 0.072,-0.503 0.263,-0.306 0.77,-0.488 1.005,-0.362 0.045,0.024 0.093,0.031 0.141,0.029 -0.193,0.346 -0.57,0.791 -0.92,0.911 z m 1.406,0.548 c -0.105,0.305 -0.227,0.446 -0.283,0.481 -0.035,-0.036 -0.118,-0.153 -0.194,-0.492 -0.034,-0.151 -0.184,-0.246 -0.335,-0.212 -0.036,0.008 -0.068,0.023 -0.097,0.044 0.379,-0.248 0.739,-0.676 0.944,-1.071 0.061,0.153 0.087,0.332 0.087,0.517 0,0.255 -0.048,0.518 -0.122,0.733 z"
       id="path5129"
       style="stroke:#000000;stroke-width:0.7087;stroke-miterlimit:10" /><path
       d="m 41.848,63.946 c -0.12,0.099 -0.136,0.274 -0.037,0.395 0.181,0.217 0.444,1.168 0.321,1.758 -0.03,0.143 -0.082,0.242 -0.143,0.272 -0.094,0.048 -0.123,0.029 -0.133,0.023 -0.15,-0.097 -0.236,-0.596 -0.231,-0.772 0.005,-0.153 -0.114,-0.285 -0.268,-0.291 -0.153,-0.008 -0.283,0.107 -0.292,0.261 -10e-4,0.01 -0.003,0.952 0.482,1.271 0.051,0.032 0.127,0.069 0.225,0.088 -0.017,0 -0.032,-0.005 -0.048,-0.003 -0.153,0.026 -0.258,0.154 -0.232,0.308 l 0.082,0.483 c 0.115,0.606 0.307,1.62 -0.131,1.874 -0.097,0.057 -0.157,0.066 -0.183,0.057 -0.114,-0.045 -0.225,-0.412 -0.291,-0.631 -0.07,-0.23 -0.135,-0.446 -0.242,-0.607 -0.055,-0.084 -0.149,-0.124 -0.245,-0.121 0.217,-0.148 0.397,-0.457 0.535,-0.921 0.044,-0.148 -0.04,-0.304 -0.188,-0.349 -0.148,-0.044 -0.305,0.041 -0.348,0.188 -0.167,0.561 -0.326,0.627 -0.327,0.628 -0.093,-0.051 -0.29,-0.602 -0.076,-1.223 0.05,-0.146 -0.028,-0.305 -0.173,-0.355 -0.146,-0.051 -0.306,0.027 -0.356,0.174 -0.221,0.638 -0.142,1.392 0.181,1.754 0.151,0.169 0.351,0.241 0.548,0.197 0.005,-10e-4 0.01,-0.004 0.015,-0.006 -0.085,0.094 -0.105,0.233 -0.032,0.343 0.061,0.092 0.117,0.278 0.172,0.459 0.057,0.189 0.118,0.39 0.205,0.563 -0.056,-0.013 -0.115,-0.013 -0.171,0.013 -0.141,0.063 -0.206,0.228 -0.143,0.37 0.193,0.435 0.227,1.193 -0.216,1.428 -0.151,0.081 -0.208,0.066 -0.209,0.066 -0.068,-0.049 -0.108,-0.432 0.014,-0.848 0.044,-0.149 -0.042,-0.305 -0.19,-0.349 -0.148,-0.044 -0.304,0.041 -0.348,0.189 -0.031,0.108 -0.295,1.063 0.17,1.441 0.147,0.12 0.409,0.216 0.826,-0.006 0.709,-0.378 0.74,-1.328 0.534,-1.965 0.045,0.035 0.094,0.065 0.149,0.087 0.202,0.079 0.427,0.048 0.67,-0.093 0.78,-0.455 0.551,-1.664 0.399,-2.464 l -0.074,-0.441 c -0.019,-0.109 -0.102,-0.2 -0.203,-0.232 0.111,0.006 0.243,-0.013 0.395,-0.09 0.154,-0.077 0.354,-0.254 0.439,-0.659 0.146,-0.701 -0.124,-1.851 -0.439,-2.229 -0.098,-0.118 -0.274,-0.134 -0.393,-0.035 z"
       id="path5131"
       style="stroke:#000000;stroke-width:0.7087;stroke-miterlimit:10" /><path
       d="m 46.425,64.424 c -0.09,-0.126 -0.265,-0.155 -0.391,-0.065 -0.077,0.055 -0.118,0.141 -0.118,0.229 0,0.056 0.018,0.114 0.053,0.163 0.125,0.175 0.166,0.375 0.166,0.558 0,0.24 -0.07,0.451 -0.103,0.538 -0.109,0.283 -0.246,0.413 -0.307,0.448 -0.032,-0.056 -0.102,-0.223 -0.102,-0.666 0,-0.056 0.001,-0.115 0.003,-0.18 0,-0.004 0,-0.007 0,-0.011 0,-0.149 -0.119,-0.273 -0.27,-0.279 -0.038,-0.002 -0.074,0.005 -0.107,0.017 0.387,-0.325 0.698,-0.817 0.628,-1.23 -0.026,-0.152 -0.171,-0.255 -0.323,-0.229 -0.153,0.026 -0.255,0.171 -0.23,0.323 0.033,0.192 -0.253,0.628 -0.623,0.846 -0.089,0.052 -0.312,0.164 -0.44,0.061 -0.134,-0.106 -0.131,-0.192 -0.108,-0.269 0.096,-0.334 0.682,-0.715 0.968,-0.746 0.154,-0.018 0.264,-0.156 0.247,-0.311 -0.017,-0.152 -0.156,-0.264 -0.31,-0.247 -0.462,0.052 -1.273,0.557 -1.444,1.146 -0.095,0.328 0.011,0.634 0.297,0.863 0.282,0.226 0.674,0.221 1.075,-0.016 0.047,-0.027 0.093,-0.061 0.139,-0.095 -0.033,0.045 -0.059,0.096 -0.061,0.156 -0.004,0.117 -0.004,0.226 -10e-4,0.328 -0.113,0.01 -0.213,0.086 -0.244,0.202 l -0.033,0.12 c -0.084,0.316 -0.261,0.972 -0.547,1.12 -0.049,0.025 -0.12,0.049 -0.247,0.001 -0.157,-0.058 -0.215,-0.197 -0.173,-0.413 0.067,-0.339 0.349,-0.651 0.579,-0.643 0.155,0.005 0.285,-0.116 0.291,-0.271 0.005,-0.155 -0.116,-0.284 -0.271,-0.29 -0.572,-0.02 -1.042,0.553 -1.147,1.095 -0.063,0.322 0.004,0.604 0.176,0.805 -0.058,0.025 -0.11,0.067 -0.141,0.13 -0.203,0.414 -0.129,0.863 0.188,1.144 0.251,0.22 0.584,0.271 0.894,0.151 -0.003,0.047 0.001,0.095 0.024,0.141 l 0.044,0.091 c 0.146,0.293 0.487,0.98 0.202,1.177 -0.052,0.036 -0.101,0.047 -0.148,0.034 -0.072,-0.019 -0.142,-0.087 -0.189,-0.185 -0.051,-0.104 -0.156,-0.162 -0.266,-0.157 -0.065,-0.214 -0.048,-0.356 0.053,-0.469 0.103,-0.115 0.093,-0.292 -0.022,-0.396 -0.115,-0.104 -0.292,-0.094 -0.396,0.021 -0.318,0.356 -0.253,0.776 -0.154,1.066 -0.125,0.236 -0.618,1.232 -0.342,1.866 0.102,0.236 0.295,0.391 0.557,0.451 0.22,0.048 0.432,0.004 0.616,-0.128 0.546,-0.396 0.66,-1.498 0.661,-1.509 -0.015,0.154 -0.152,0.267 -0.306,0.252 -0.136,-0.014 -0.233,-0.123 -0.246,-0.255 0.173,0.018 0.347,-0.025 0.5,-0.131 0.685,-0.473 0.192,-1.465 -0.018,-1.889 l -0.042,-0.084 c -0.034,-0.069 -0.091,-0.117 -0.158,-0.142 0.132,-0.137 0.208,-0.295 0.251,-0.457 0.118,0.139 0.266,0.265 0.439,0.343 0.228,0.104 0.459,0.111 0.669,0.02 0.203,-0.088 0.35,-0.238 0.424,-0.432 0.18,-0.469 -0.101,-1.085 -0.287,-1.492 L 46.231,66.59 c 0.025,-0.029 0.051,-0.059 0.075,-0.091 0.342,-0.45 0.605,-1.394 0.119,-2.075 z m -2.721,6.148 c 0.005,0.004 0.009,0.009 0.015,0.013 -0.033,-0.012 -0.063,-0.026 -0.091,-0.05 0.023,0.02 0.05,0.028 0.076,0.037 z m 0.335,1.394 c -0.053,0.039 -0.102,0.049 -0.164,0.034 -0.109,-0.024 -0.145,-0.075 -0.166,-0.127 -0.026,-0.058 -0.037,-0.132 -0.037,-0.216 0,-0.298 0.142,-0.711 0.281,-1.005 0.012,0 0.022,0 0.034,0 0.108,0.116 0.236,0.202 0.38,0.24 0.032,0.008 0.064,0.01 0.097,0.014 -0.039,0.314 -0.191,0.889 -0.425,1.06 z m 0.24,-3.625 c -0.146,0.096 -0.3,0.093 -0.414,-0.006 -0.098,-0.086 -0.163,-0.257 -0.055,-0.478 0.019,-0.039 0.026,-0.08 0.026,-0.122 0.232,0.077 0.461,0.065 0.663,-0.039 0.006,-0.004 0.011,-0.009 0.017,-0.012 -0.016,0.32 -0.041,0.528 -0.237,0.657 z m 1.741,-0.405 c -0.014,0.036 -0.04,0.082 -0.124,0.119 -0.024,0.01 -0.093,0.04 -0.213,-0.016 -0.19,-0.087 -0.36,-0.313 -0.409,-0.472 -0.028,-0.088 -0.096,-0.147 -0.175,-0.177 0.01,-0.074 0.025,-0.138 0.053,-0.178 0.074,-0.108 0.057,-0.248 -0.026,-0.342 0.041,-0.104 0.076,-0.207 0.107,-0.308 0.078,0.138 0.179,0.23 0.308,0.276 0.066,0.024 0.134,0.032 0.202,0.027 l 0.005,0.01 c 0.127,0.285 0.367,0.812 0.272,1.061 z"
       id="path5133"
       style="stroke:#000000;stroke-width:0.7087;stroke-miterlimit:10" /><path
       d="m 39.241,74.588 c -0.028,-0.151 -0.177,-0.264 -0.329,-0.235 -0.152,0.027 -0.254,0.162 -0.227,0.313 l 0.071,0.379 c 0.13,0.629 0.187,1.059 -0.195,1.282 -0.123,0.071 -0.22,0.083 -0.258,0.063 -0.031,-0.017 -0.071,-0.086 -0.084,-0.231 -0.013,-0.149 -0.143,-0.264 -0.294,-0.256 -0.15,0.008 -0.268,0.132 -0.265,0.283 l 0.004,0.209 c 0.01,0.448 0.039,1.639 -0.347,1.819 -0.02,0.009 -0.088,0.039 -0.107,0.02 -0.063,-0.063 -0.094,-0.23 -0.094,-0.391 0,-0.039 0.012,-0.063 0.016,-0.1 0,-0.003 0.048,-0.24 0.048,-0.24 0.004,-0.02 0.005,-0.038 0.005,-0.057 0,-0.119 -0.076,-0.23 -0.193,-0.269 -0.135,-0.044 -0.282,0.017 -0.341,0.146 -0.008,0.019 -0.012,0.046 -0.02,0.067 0,-0.003 0,-0.007 10e-4,-0.012 0,0 -0.003,0.02 -0.004,0.022 -0.029,0.085 -0.049,0.185 -0.059,0.296 -0.09,0.463 -0.303,1.486 -0.654,1.579 -0.169,0.044 -0.271,0.004 -0.337,-0.139 -0.119,-0.25 -0.044,-0.659 0.146,-0.797 0.125,-0.091 0.153,-0.267 0.062,-0.392 -0.091,-0.125 -0.266,-0.153 -0.391,-0.063 -0.452,0.328 -0.533,1.05 -0.323,1.492 0.182,0.384 0.56,0.552 0.986,0.439 0.433,-0.115 0.685,-0.603 0.849,-1.126 0.181,0.121 0.407,0.14 0.647,0.027 0.02,-0.009 0.035,-0.024 0.054,-0.035 -0.039,0.358 0.012,0.826 0.28,1.043 0.092,0.076 0.348,0.226 0.719,-0.016 0.493,-0.323 0.303,-1.162 0.199,-1.509 -0.045,-0.147 -0.202,-0.231 -0.349,-0.187 -0.148,0.044 -0.232,0.201 -0.188,0.349 0.133,0.442 0.124,0.817 0.032,0.878 -0.06,0.039 -0.088,0.041 -0.088,0.041 -0.062,-0.072 -0.086,-0.533 -0.011,-0.729 0.057,-0.144 -0.015,-0.305 -0.159,-0.362 -0.006,-0.003 -0.013,-10e-4 -0.02,-0.004 0.156,-0.363 0.198,-0.833 0.204,-1.261 0.191,0.035 0.404,0.005 0.617,-0.12 0.756,-0.444 0.578,-1.308 0.459,-1.879 l -0.062,-0.337 z"
       id="path5135"
       style="stroke:#000000;stroke-width:0.7087;stroke-miterlimit:10" /><path
       d="m 35.566,75.907 c -0.03,0.483 0.326,1.117 0.833,1.212 0.262,0.048 0.748,-0.012 1.044,-0.961 0.046,-0.148 -0.035,-0.306 -0.183,-0.352 -0.148,-0.046 -0.305,0.035 -0.351,0.184 -0.118,0.375 -0.278,0.602 -0.409,0.577 -0.169,-0.031 -0.393,-0.36 -0.375,-0.625 0.006,-0.106 0.045,-0.174 0.216,-0.184 0.155,-0.009 0.272,-0.143 0.264,-0.296 -0.009,-0.155 -0.141,-0.272 -0.295,-0.264 -0.433,0.026 -0.717,0.297 -0.744,0.709 z"
       id="path5137"
       style="stroke:#000000;stroke-width:0.7087;stroke-miterlimit:10" /><path
       d="m 32.59,60.427 c 0.052,-0.146 -0.023,-0.306 -0.169,-0.358 -0.146,-0.052 -0.306,0.023 -0.359,0.169 -0.131,0.368 -0.575,0.987 -1.063,1.191 -0.192,0.081 -0.361,0.085 -0.516,0.014 -0.152,-0.069 -0.243,-0.148 -0.242,-0.209 0.002,-0.233 0.599,-0.684 1.092,-0.899 0.142,-0.063 0.207,-0.229 0.144,-0.369 -0.062,-0.142 -0.227,-0.206 -0.369,-0.145 -0.014,0.006 -1.42,0.632 -1.428,1.409 -0.001,0.209 0.096,0.505 0.569,0.723 0.298,0.137 0.632,0.135 0.967,-0.006 0.611,-0.258 1.179,-0.974 1.374,-1.52 z"
       id="path5139"
       style="stroke:#000000;stroke-width:0.7087;stroke-miterlimit:10" /><path
       d="m 52.275,46.229 c 0.153,-0.02 0.261,-0.162 0.239,-0.314 -0.02,-0.153 -0.162,-0.261 -0.314,-0.24 -0.515,0.07 -1.105,0.649 -1.194,1.169 -0.062,0.357 0.097,0.661 0.435,0.833 0.193,0.099 0.52,0.16 0.983,-0.106 0.543,-0.313 1.172,-1.066 1.199,-1.603 0.009,-0.155 -0.11,-0.287 -0.265,-0.295 -0.155,-0.007 -0.286,0.111 -0.294,0.265 -0.014,0.251 -0.431,0.864 -0.921,1.146 -0.188,0.109 -0.352,0.143 -0.449,0.093 -0.135,-0.069 -0.152,-0.146 -0.136,-0.238 0.051,-0.302 0.465,-0.675 0.717,-0.71 z"
       id="path5141"
       style="stroke:#000000;stroke-width:0.7087;stroke-miterlimit:10" /><path
       d="m 53.384,56.511 c -0.137,0.072 -0.189,0.241 -0.118,0.378 0.081,0.153 0.055,0.713 -0.145,1.141 -0.104,0.221 -0.214,0.315 -0.281,0.331 -0.069,0.015 -0.095,0.006 -0.095,0.006 -0.026,-0.029 -0.052,-0.199 -0.065,-0.289 l -0.102,-0.412 c -0.036,-0.148 -0.168,-0.189 -0.317,-0.155 -0.15,0.035 -0.227,0.234 -0.194,0.384 l 0.06,0.268 c 0.034,0.228 0.076,0.512 0.307,0.67 0.14,0.096 0.316,0.122 0.525,0.076 0.27,-0.059 0.502,-0.28 0.671,-0.642 0.225,-0.48 0.34,-1.243 0.133,-1.637 -0.073,-0.138 -0.242,-0.191 -0.379,-0.119 z"
       id="path5143"
       style="stroke:#000000;stroke-width:0.7087;stroke-miterlimit:10" /><path
       d="m 41.402,73.161 c -0.151,-0.031 -0.3,0.067 -0.331,0.219 -0.05,0.249 -0.195,0.333 -0.309,0.36 -0.144,0.034 -0.298,-0.01 -0.375,-0.107 -0.095,-0.12 -0.042,-0.291 0.018,-0.411 0.07,-0.139 0.014,-0.307 -0.125,-0.376 -0.138,-0.07 -0.307,-0.014 -0.376,0.124 -0.187,0.372 -0.171,0.741 0.043,1.011 0.211,0.267 0.591,0.39 0.945,0.305 0.373,-0.09 0.646,-0.386 0.728,-0.793 0.031,-0.153 -0.066,-0.302 -0.218,-0.332 z"
       id="path5145"
       style="stroke:#000000;stroke-width:0.7087;stroke-miterlimit:10" /><path
       d="m 37.41,79.58 c -0.132,-0.082 -0.305,-0.041 -0.386,0.09 -0.019,0.03 -0.021,0.063 -0.027,0.096 -0.303,0.128 -0.505,0.403 -0.562,0.804 -0.012,0.083 -0.018,0.167 -0.018,0.252 0,0.628 0.302,1.319 0.714,1.575 0.258,0.16 0.551,0.151 0.802,-0.022 0.19,-0.13 0.414,-0.396 0.401,-0.929 -0.017,-0.7 -0.449,-1.57 -0.924,-1.866 z m 0.364,1.907 c 0,0.15 -0.029,0.337 -0.159,0.426 -0.07,0.049 -0.12,0.05 -0.189,0.007 -0.226,-0.14 -0.45,-0.639 -0.45,-1.094 0,-0.061 0.004,-0.12 0.013,-0.178 0.031,-0.22 0.12,-0.351 0.263,-0.391 0.017,-0.005 0.025,-0.021 0.041,-0.027 0.238,0.283 0.472,0.794 0.482,1.229 -10e-4,0.01 -10e-4,0.019 -10e-4,0.028 z"
       id="path5147"
       style="stroke:#000000;stroke-width:0.7087;stroke-miterlimit:10" /><path
       d="m 45.608,70.655 c -0.126,0.09 -0.156,0.265 -0.066,0.391 0.223,0.313 0.373,1.095 0.127,1.313 -0.072,0.063 -0.134,0.079 -0.184,0.048 -0.009,-0.006 -0.008,-0.024 -0.017,-0.032 -0.015,-0.13 -0.033,-0.281 -0.033,-0.281 -0.016,-0.131 -0.121,-0.247 -0.253,-0.259 -0.132,-0.012 -0.255,0.058 -0.294,0.184 -0.024,0.078 -0.035,0.158 -0.035,0.236 0,0.111 0.031,0.219 0.076,0.317 10e-4,0.007 0.005,0.043 0.005,0.043 0.034,0.228 0.074,0.495 0.074,0.732 0,0.269 -0.052,0.499 -0.221,0.591 -0.147,0.081 -0.215,0.041 -0.278,-0.05 -0.143,-0.21 -0.124,-0.563 -0.005,-0.662 0.118,-0.101 0.133,-0.277 0.033,-0.396 -0.1,-0.119 -0.276,-0.133 -0.395,-0.033 -0.384,0.322 -0.368,1.01 -0.096,1.407 0.238,0.348 0.624,0.435 1.008,0.226 0.407,-0.221 0.515,-0.639 0.515,-1.079 0,-0.125 -0.023,-0.243 -0.037,-0.368 0.175,10e-4 0.353,-0.067 0.509,-0.205 0.564,-0.5 0.267,-1.621 -0.042,-2.057 -0.09,-0.126 -0.265,-0.156 -0.391,-0.066 z"
       id="path5149"
       style="stroke:#000000;stroke-width:0.7087;stroke-miterlimit:10" /><path
       d="M 83.731,31.526 C 83.682,31.381 82.528,27.98 80.602,27.772 79.62,27.666 78.656,28.396 77.735,29.94 75.673,33.404 74.195,49.557 73.65,56.505 73.61,56.162 73.569,55.849 73.532,55.571 71.381,35.699 65.123,26.567 65.06,26.476 c -0.083,-0.119 -0.243,-0.154 -0.369,-0.082 -0.126,0.072 -0.176,0.229 -0.114,0.36 0.052,0.112 4.05,8.884 6.166,23.782 C 66.394,31.084 58.261,25.571 56.544,24.605 c -0.125,-0.07 -0.283,-0.034 -0.365,0.083 -0.084,0.117 -0.063,0.278 0.044,0.373 6.693,5.851 10.401,15.956 12.454,25.439 -0.5,-0.673 -1.257,-1.529 -2.322,-2.377 -2.505,-5.098 -4.544,-7.198 -6.068,-8.765 L 59.425,38.447 C 47.664,27.834 36.877,32.331 36.769,32.378 c -0.13,0.056 -0.198,0.201 -0.158,0.337 0.041,0.136 0.175,0.22 0.315,0.196 8.203,-1.372 16.05,1.478 21.531,7.821 1.311,1.518 2.521,3.199 3.638,5.056 -2.599,-0.911 -6.136,-1.397 -10.791,-0.609 0.106,-0.261 0.104,-0.546 -0.342,-0.878 -0.459,-0.34 -1.289,-0.384 -1.735,-0.331 -0.088,0.01 -0.19,0.028 -0.299,0.054 -0.055,-0.377 -0.26,-0.679 -0.597,-0.86 -0.62,-0.333 -1.621,-0.218 -2.329,0.267 -0.497,0.339 -0.738,0.794 -0.679,1.279 0.019,0.154 0.159,0.263 0.313,0.244 0.154,-0.018 0.263,-0.158 0.244,-0.312 -0.044,-0.359 0.256,-0.624 0.439,-0.749 0.521,-0.356 1.321,-0.463 1.747,-0.234 0.21,0.112 0.312,0.297 0.317,0.557 -0.348,0.171 -0.63,0.436 -0.602,0.822 0.021,0.283 0.256,0.525 0.725,0.751 -0.028,0.013 -0.054,0.029 -0.074,0.049 -0.06,-0.055 -0.139,-0.089 -0.226,-0.079 -0.051,0.006 -0.088,0.038 -0.126,0.066 0.003,-0.016 0.015,-0.027 0.015,-0.042 0,-0.026 -0.004,-0.053 -0.011,-0.079 -0.044,-0.148 -0.199,-0.234 -0.348,-0.191 -0.169,0.049 -0.585,0.252 -0.98,0.534 -0.064,-0.034 -0.143,-0.045 -0.217,-0.021 -0.5,0.157 -1.365,0.277 -1.622,0.081 -0.03,-0.023 -0.062,-0.055 -0.058,-0.146 0.003,-0.092 0.034,-0.16 0.101,-0.22 0.358,-0.319 1.443,-0.233 1.853,-0.2 l 0.13,0.011 c 0.155,0.011 0.288,-0.105 0.3,-0.259 0.011,-0.155 -0.106,-0.289 -0.261,-0.3 l -0.125,-0.01 c -0.556,-0.044 -1.109,-0.063 -1.564,0.026 0,0 0,0 0,-10e-4 -0.299,-0.542 -1.223,-1.337 -2.044,-1.401 -0.415,-0.033 -0.764,0.119 -1.012,0.437 -0.179,0.231 -0.27,0.457 -0.27,0.675 0,0.071 0.009,0.142 0.029,0.212 0.081,0.291 0.317,0.496 0.594,0.658 -0.234,0.033 -0.479,0.082 -0.709,0.147 -0.416,-0.707 -1.14,-0.941 -1.715,-0.911 -0.557,0.028 -1,0.294 -1.13,0.678 -0.054,0.159 -0.086,0.442 0.146,0.78 -0.327,0.055 -0.644,0.194 -0.927,0.468 -0.554,0.533 -0.441,0.949 -0.324,1.149 0.113,0.194 0.312,0.336 0.548,0.435 l -0.227,0.013 c -0.858,0.017 -2.293,0.046 -2.442,1.226 -0.017,0.14 -0.01,0.255 0.01,0.357 -0.945,0.061 -1.495,0.673 -1.873,1.217 -0.349,0.504 -0.391,1.022 -0.108,1.351 0.14,0.162 0.333,0.252 0.559,0.267 -0.041,0.077 -0.078,0.154 -0.112,0.233 -0.002,-0.007 -0.002,-0.015 -0.005,-0.021 -0.067,-0.139 -0.239,-0.195 -0.378,-0.127 L 33.55,53.02 c -0.699,0.329 -1.568,0.738 -1.816,1.642 -0.149,0.544 -0.032,0.999 0.32,1.249 0.018,0.013 0.039,0.021 0.058,0.032 -0.5,0.362 -0.956,1.08 -1.093,1.671 -0.125,0.536 0.006,0.959 0.368,1.193 0.2,0.128 0.419,0.164 0.636,0.103 0.546,-0.153 0.928,-0.867 1.271,-1.585 l 0.128,-0.256 c 0.004,-0.008 0.004,-0.018 0.007,-0.027 0.27,0.261 0.55,0.246 0.705,0.207 0.644,-0.16 1.128,-1.159 1.194,-1.549 0.025,-0.153 -0.077,-0.298 -0.23,-0.323 -0.152,-0.025 -0.297,0.078 -0.322,0.23 -0.051,0.303 -0.45,1.017 -0.776,1.098 -0.038,0.009 -0.116,0.028 -0.239,-0.133 -0.061,-0.079 -0.066,-0.261 -0.015,-0.487 0.127,-0.559 0.523,-1.178 0.75,-1.392 0.17,0.185 0.36,0.284 0.568,0.29 0.484,0.013 0.858,-0.468 1.159,-0.854 0.535,-0.686 0.635,-1.198 0.641,-1.963 0,-0.155 -0.124,-0.28 -0.278,-0.282 -0.155,-10e-4 -0.282,0.124 -0.283,0.278 -0.005,0.665 -0.082,1.057 -0.518,1.616 -0.191,0.246 -0.506,0.649 -0.707,0.644 -0.09,-0.002 -0.183,-0.108 -0.246,-0.198 -0.321,-0.458 -0.077,-1.07 0.356,-1.647 0.067,-0.038 0.112,-0.099 0.131,-0.169 0.358,-0.437 0.808,-0.842 1.18,-1.127 0.123,-0.095 0.146,-0.271 0.051,-0.394 -0.095,-0.123 -0.27,-0.146 -0.392,-0.051 -0.221,0.168 -0.835,0.664 -1.333,1.292 -0.287,0.117 -0.485,0.092 -0.56,0.006 -0.085,-0.099 -0.076,-0.349 0.144,-0.666 0.497,-0.716 0.991,-1.009 1.652,-0.98 0.048,0.002 0.092,-0.013 0.133,-0.032 0.035,0.02 0.068,0.035 0.095,0.046 0.765,0.292 2.243,-0.432 2.567,-0.9 0.088,-0.127 0.057,-0.302 -0.071,-0.39 -0.128,-0.088 -0.301,-0.057 -0.39,0.071 -0.204,0.294 -1.432,0.878 -1.906,0.696 -0.054,-0.021 -0.156,-0.06 -0.122,-0.333 0.082,-0.647 0.907,-0.717 1.897,-0.737 l 0.667,-0.042 c 0.154,-0.01 0.237,-0.139 0.228,-0.292 -0.002,-0.03 -0.014,-0.056 -0.026,-0.082 0.312,0.031 0.619,0.009 0.848,-0.059 0.148,-0.044 0.233,-0.2 0.189,-0.349 -0.044,-0.149 -0.2,-0.232 -0.348,-0.189 -0.466,0.138 -1.253,-0.017 -1.405,-0.278 -0.079,-0.136 0.109,-0.35 0.229,-0.464 0.621,-0.597 1.519,-0.298 2.306,0.044 0.022,0.039 0.044,0.077 0.073,0.118 0.31,0.437 0.969,0.585 1.765,0.398 0.717,-0.169 1.523,-0.614 1.729,-1.218 0.02,0.019 0.036,0.04 0.059,0.057 0.361,0.275 0.997,0.24 1.48,0.159 -0.111,0.161 -0.186,0.328 -0.193,0.495 -0.007,0.181 0.057,0.515 0.572,0.711 0.424,0.162 0.884,0.074 1.297,-0.248 0.436,-0.34 0.734,-0.884 0.783,-1.378 0.054,0.022 0.115,0.033 0.177,0.017 0.65,-0.167 1.28,-0.307 1.893,-0.427 0.044,0.049 0.103,0.085 0.172,0.094 0.132,0.016 0.248,-0.063 0.293,-0.182 5.116,-0.928 8.864,-0.292 11.487,0.759 0.379,0.662 0.747,1.345 1.103,2.05 -2.223,-0.585 -4.874,-0.512 -7.929,0.221 0.077,-0.052 0.126,-0.14 0.126,-0.234 0,-0.024 -0.003,-0.05 -0.012,-0.077 0.042,0.104 0.124,0.188 0.243,0.188 0.154,0 0.279,-0.126 0.279,-0.281 -10e-4,-0.644 -0.565,-1.121 -1.125,-1.31 -0.644,-0.216 -1.255,-0.072 -1.597,0.376 -0.32,0.422 -0.19,0.74 -0.086,0.893 0.336,0.484 1.293,0.587 1.847,0.526 -0.872,0.22 -1.773,0.487 -2.709,0.813 0.012,-0.006 0.025,-0.012 0.036,-0.019 0.383,-0.227 0.58,-0.518 0.558,-0.818 -0.023,-0.313 -0.271,-0.567 -0.736,-0.755 -0.604,-0.246 -1.954,0.112 -2.276,0.731 -0.018,0.034 -0.036,0.077 -0.051,0.128 -0.25,0.037 -0.479,0.078 -0.688,0.12 0.076,-0.256 0.072,-0.47 -0.011,-0.642 0.091,0.074 0.22,0.09 0.324,0.025 0.442,-0.274 1.166,-1.091 1.035,-1.749 -0.039,-0.197 -0.195,-0.544 -0.797,-0.641 -0.513,-0.083 -0.995,0.189 -1.324,0.746 -0.243,0.412 -0.379,0.966 -0.219,1.313 -0.585,0.154 -1.281,0.655 -1.568,1.345 -0.015,0.035 -0.022,0.071 -0.022,0.107 0,0.107 0.063,0.206 0.165,0.252 -0.019,-0.004 -0.032,-0.021 -0.052,-0.021 -0.155,-0.001 -0.281,0.127 -0.283,0.282 l 0,0.201 c -0.005,0.329 -0.008,0.614 0.223,0.777 0.218,0.153 0.504,0.079 0.755,-0.015 0.119,-0.043 0.243,-0.116 0.366,-0.203 -0.067,0.077 -0.092,0.188 -0.049,0.291 0.003,0.007 0.01,0.013 0.014,0.021 -0.263,-0.02 -0.564,0.048 -0.879,0.211 -0.469,0.242 -0.895,0.642 -1.1,1.07 0.002,-0.025 0.005,-0.052 0.006,-0.077 0.003,-0.051 0.004,-0.101 0.004,-0.148 0,-0.473 -0.136,-0.81 -0.395,-0.982 0.247,-0.146 0.475,-0.315 0.651,-0.496 0.4,-0.415 0.411,-0.74 0.349,-0.939 -0.086,-0.28 -0.35,-0.466 -0.781,-0.554 -0.715,-0.147 -2.048,0.588 -2.435,1.274 -0.581,-0.359 -1.567,-0.174 -2.188,0.271 -0.229,0.164 -0.392,0.354 -0.49,0.555 -0.273,-0.124 -0.584,-0.123 -0.888,0.018 -0.441,0.204 -0.828,0.683 -0.92,1.136 -0.09,0.445 0.084,0.845 0.425,0.971 0.111,0.04 0.25,0.049 0.393,0.002 0.121,0.321 0.104,1.143 -0.154,1.634 -0.096,0.182 -0.207,0.284 -0.33,0.306 -0.112,0.021 -0.186,-0.006 -0.255,-0.091 -0.212,-0.262 -0.223,-0.871 -0.119,-1.129 0.058,-0.143 -0.011,-0.307 -0.154,-0.364 -0.144,-0.059 -0.307,0.011 -0.365,0.153 -0.077,0.188 -0.115,0.473 -0.099,0.767 -0.01,0.001 -0.02,-0.002 -0.03,-10e-4 -0.136,0.024 -0.232,0.144 -0.232,0.276 0,0.017 10e-4,0.032 0.004,0.048 0.022,0.129 0.027,0.282 0.035,0.432 -0.006,-0.051 -0.017,-0.102 -0.05,-0.144 -0.097,-0.12 -0.273,-0.141 -0.394,-0.044 -0.154,0.122 -0.368,0.43 -0.56,0.799 -0.06,0.012 -0.117,0.039 -0.16,0.089 -0.174,0.203 -0.427,0.251 -0.561,0.178 -0.117,-0.063 -0.098,-0.221 -0.063,-0.342 0.138,-0.468 1.008,-1.17 1.464,-1.081 0.152,0.03 0.299,-0.069 0.329,-0.221 0.029,-0.152 -0.07,-0.3 -0.222,-0.329 -0.815,-0.159 -1.911,0.802 -2.108,1.473 -0.152,0.516 0.072,0.851 0.333,0.992 0.034,0.019 0.071,0.032 0.108,0.046 -0.16,0.055 -0.213,0.258 -0.264,0.458 l -0.011,0.045 c -0.038,0.149 0.053,0.303 0.203,0.341 0.139,0.035 0.272,-0.045 0.322,-0.175 0.086,-0.046 0.154,-0.119 0.154,-0.224 0,-0.001 0,-0.001 0,-0.002 0,-0.104 -0.002,-0.293 -0.116,-0.393 0.082,0 0.165,-0.007 0.247,-0.025 -0.103,0.338 -0.146,0.659 -0.079,0.89 -0.064,0.083 -0.08,0.196 -0.029,0.297 0.332,0.645 0.601,1.364 0.092,1.79 -0.171,0.143 -0.263,0.149 -0.284,0.14 -0.036,-0.017 -0.105,-0.131 -0.107,-0.331 -0.004,-0.229 0.082,-0.415 0.162,-0.456 0.14,-0.068 0.196,-0.237 0.127,-0.376 -0.069,-0.138 -0.237,-0.194 -0.375,-0.125 -0.046,0.022 -0.087,0.05 -0.126,0.08 0.12,-0.246 0.19,-0.466 0.19,-0.594 0,-0.005 0,-0.012 0,-0.017 -0.005,-0.108 -0.082,-0.176 -0.175,-0.214 10e-4,-0.009 0.006,-0.018 0.006,-0.025 0,-0.106 -0.06,-0.207 -0.162,-0.255 -0.439,-0.205 -1.033,0.174 -1.407,0.561 -0.497,0.515 -0.676,1.051 -0.48,1.437 0.258,0.509 0.653,0.466 0.81,0.424 0.056,-0.016 0.112,-0.04 0.168,-0.068 0.169,0.384 0.188,1.514 -0.107,2.129 -0.068,0.143 -0.182,0.315 -0.338,0.328 -0.139,0.011 -0.17,-0.037 -0.188,-0.063 -0.211,-0.327 0.11,-1.448 0.306,-1.805 0.075,-0.135 0.026,-0.305 -0.109,-0.38 -0.135,-0.076 -0.306,-0.026 -0.381,0.109 -0.104,0.189 -0.73,1.692 -0.287,2.38 0.148,0.229 0.398,0.342 0.704,0.317 0.232,-0.019 0.56,-0.146 0.799,-0.646 0.359,-0.754 0.379,-2.177 0.046,-2.721 0.107,-0.114 0.208,-0.242 0.3,-0.376 -0.031,0.125 -0.045,0.252 -0.043,0.364 0.006,0.398 0.169,0.71 0.435,0.832 0.182,0.082 0.48,0.112 0.877,-0.22 0.757,-0.635 0.461,-1.586 0.2,-2.162 0.092,-0.017 0.194,-0.047 0.314,-0.104 0.809,-0.387 1.068,-1.447 1.067,-2.359 0.193,0.203 0.449,0.291 0.735,0.24 0.055,-0.009 0.114,-0.026 0.177,-0.052 -0.272,0.404 -0.474,0.861 -0.539,1.244 -0.017,0.097 -0.025,0.19 -0.025,0.278 0,0.451 0.219,0.762 0.617,0.848 0.17,0.037 0.345,0 0.513,-0.072 -0.059,0.395 -0.048,0.813 0.033,1.168 0.112,0.492 0.342,0.804 0.649,0.881 0.192,0.049 0.496,0.024 0.842,-0.372 0.126,-0.143 0.247,-0.379 0.34,-0.656 0.035,0.095 0.083,0.167 0.129,0.218 0.125,0.137 0.292,0.202 0.482,0.189 0.236,-0.016 0.49,-0.161 0.723,-0.346 -0.118,0.435 -0.175,0.998 -0.011,1.355 0.098,0.209 0.267,0.344 0.478,0.378 0.205,0.033 0.599,0.014 0.943,-0.484 0.474,-0.688 0.672,-2.069 0.37,-2.595 -0.078,-0.134 -0.249,-0.18 -0.383,-0.103 -0.134,0.077 -0.18,0.248 -0.103,0.382 0.147,0.257 0.061,1.41 -0.346,1.997 -0.194,0.281 -0.343,0.257 -0.392,0.25 -0.013,-0.003 -0.033,-0.006 -0.059,-0.061 -0.142,-0.307 0.033,-1.101 0.173,-1.33 0.076,-0.126 0.039,-0.285 -0.078,-0.37 0.145,-0.169 0.237,-0.294 0.239,-0.297 -0.087,0.127 -0.262,0.16 -0.389,0.072 -0.128,-0.088 -0.161,-0.262 -0.073,-0.39 -0.228,0.333 -0.849,0.962 -1.131,0.98 -0.045,-0.029 -0.055,-0.074 -0.055,-0.116 0,-0.014 0.002,-0.027 0.003,-0.04 0.047,-0.385 0.492,-0.962 0.738,-1.187 0.046,0.008 0.089,0.011 0.126,0.012 0.067,0.091 0.154,0.172 0.271,0.23 0.16,0.082 0.429,0.134 0.792,-0.084 0.175,-0.106 0.351,-0.267 0.509,-0.447 0.028,0.156 0.074,0.306 0.148,0.425 0.129,0.21 0.323,0.321 0.545,0.312 0.223,-0.01 0.54,-0.118 0.784,-0.581 0.329,-0.624 0.39,-1.699 0.123,-2.131 -0.005,-0.009 -0.013,-0.012 -0.018,-0.02 0.082,-0.087 0.162,-0.177 0.234,-0.268 0.053,0.121 0.134,0.224 0.241,0.297 0.264,0.18 0.627,0.154 0.97,-0.068 0.411,-0.266 0.702,-0.783 0.78,-1.385 0.065,-0.515 -0.041,-0.985 -0.291,-1.314 0.074,-0.091 0.14,-0.181 0.19,-0.271 0.016,-0.025 0.024,-0.049 0.037,-0.073 -0.051,0.145 -0.07,0.287 -0.05,0.428 0.028,0.187 0.144,0.445 0.531,0.615 0.919,0.405 2.146,-0.99 2.41,-1.488 0.104,-0.194 0.254,-0.634 0.254,-1.037 0,-0.108 -0.012,-0.211 -0.037,-0.308 0.481,-0.183 0.952,-0.347 1.417,-0.502 -0.212,0.283 -0.371,0.59 -0.441,0.871 -0.027,0.113 -0.042,0.223 -0.042,0.325 0,0.327 0.14,0.595 0.401,0.761 0.454,0.285 1.015,0.194 1.54,-0.248 0.616,-0.52 1.087,-1.459 0.809,-2.132 -0.032,-0.08 -0.073,-0.149 -0.119,-0.213 3.374,-0.866 6.238,-0.929 8.562,-0.186 0.398,0.819 0.781,1.667 1.151,2.543 -3.741,-2.421 -7.824,-2.561 -7.892,-2.563 -0.155,-0.003 -0.283,0.119 -0.286,0.273 -0.004,0.155 0.118,0.283 0.273,0.287 0.068,0.002 4.525,0.162 8.294,2.962 0.289,0.723 0.57,1.463 0.842,2.225 -0.538,-0.464 -1.133,-0.891 -1.789,-1.259 -2.082,-1.166 -4.491,-1.578 -7.196,-1.242 0.117,-0.14 0.2,-0.303 0.223,-0.485 0.039,-0.33 -0.076,-0.61 -0.327,-0.788 -0.332,-0.237 -0.872,-0.254 -1.313,-0.04 -0.377,0.184 -0.604,0.501 -0.623,0.871 -0.015,0.323 0.1,0.585 0.31,0.753 -1.021,0.234 -2.078,0.563 -3.175,0.994 -0.112,0.044 -0.177,0.151 -0.176,0.265 -0.151,-0.055 -0.317,-0.081 -0.474,-0.069 -0.014,-10e-4 -0.027,0.003 -0.04,0.004 -0.113,0.014 -0.219,0.045 -0.306,0.106 -0.042,0.028 -0.104,0.084 -0.153,0.167 -0.299,0.167 -0.693,0.298 -0.865,0.217 -0.063,-0.029 -0.088,-0.124 -0.076,-0.28 0.02,-0.256 0.519,-0.68 1.054,-0.79 0.162,-0.033 0.449,-0.061 0.55,0.133 0.071,0.138 0.241,0.191 0.378,0.119 0.138,-0.071 0.19,-0.241 0.118,-0.378 -0.197,-0.38 -0.62,-0.534 -1.159,-0.423 -0.688,0.143 -1.454,0.697 -1.499,1.298 -0.041,0.539 0.23,0.751 0.396,0.828 0.204,0.097 0.46,0.092 0.717,0.033 0,0.007 -0.004,0.014 -0.004,0.021 0.015,0.342 -0.208,0.794 -0.519,1.052 -0.149,0.123 -0.383,0.258 -0.651,0.197 -0.211,-0.049 -0.315,-0.35 -0.281,-0.6 0.021,-0.141 0.083,-0.307 0.27,-0.297 0.155,0.009 0.286,-0.11 0.296,-0.265 0.007,-0.155 -0.111,-0.286 -0.267,-0.294 -0.441,-0.023 -0.784,0.289 -0.854,0.778 -0.016,0.11 -0.013,0.224 0.002,0.336 -0.964,0.1 -1.429,0.612 -1.541,1.065 -0.092,0.371 0.039,0.732 0.331,0.919 0.105,0.068 0.314,0.161 0.624,0.12 -0.042,0.159 -0.06,0.331 -0.04,0.511 0.052,0.491 0.325,0.856 0.682,0.907 0.05,0.008 0.104,0.011 0.161,0.003 -0.011,0.008 -0.021,0.013 -0.029,0.021 -0.094,0.085 -0.142,0.208 -0.142,0.367 0,0.008 0.001,0.017 0.001,0.024 0.004,0.138 0.111,0.231 0.244,0.25 0.005,0.046 0.026,0.091 0.026,0.138 0,0.475 -0.242,0.933 -0.479,1.165 -0.065,0.063 -0.127,0.107 -0.182,0.136 -0.029,-0.011 -0.06,-0.019 -0.095,-0.02 -0.035,0 -0.068,0.007 -0.1,0.02 -0.071,-0.086 -0.154,-0.323 -0.133,-0.833 0.008,-0.155 -0.113,-0.285 -0.267,-0.293 -0.156,-0.006 -0.286,0.113 -0.292,0.269 -0.011,0.235 0,0.439 0.027,0.619 -0.15,0.047 -0.289,0.127 -0.406,0.234 0,-0.005 0.002,-0.009 0.001,-0.012 -0.012,-0.155 -0.146,-0.271 -0.3,-0.259 -0.071,0.006 -0.142,0.023 -0.211,0.049 l 0.252,-0.379 c 0.057,-0.086 0.057,-0.189 0.015,-0.276 0.308,-0.161 0.585,-0.446 0.782,-0.646 l 0.211,-0.207 c 0.111,-0.108 0.132,-0.301 0.023,-0.411 -0.107,-0.111 -0.268,-0.131 -0.378,-0.022 l -0.259,0.249 c -0.45,0.462 -0.766,0.713 -0.95,0.536 -0.061,-0.058 -0.069,-0.105 -0.069,-0.146 v -0.002 c 0,-0.286 0.434,-0.721 0.664,-0.947 0.025,0.014 0.055,0.015 0.079,0.039 0.107,0.112 0.283,0.116 0.396,0.01 0.112,-0.106 0.117,-0.284 0.011,-0.396 -0.147,-0.154 -0.326,-0.241 -0.532,-0.258 -0.082,-0.007 -0.165,0.025 -0.223,0.083 l -0.098,0.097 c -0.322,0.317 -0.86,0.847 -0.856,1.379 0.001,0.208 0.085,0.397 0.241,0.547 0.124,0.119 0.252,0.184 0.38,0.209 l -0.158,0.236 c -0.086,0.129 -0.052,0.303 0.077,0.389 0.052,0.034 0.11,0.044 0.168,0.042 -0.136,0.099 -0.265,0.238 -0.381,0.414 -0.242,0.369 -0.425,0.922 -0.288,1.322 0.121,0.35 0.393,0.555 0.711,0.536 0.253,-0.015 0.481,-0.17 0.629,-0.402 0.06,0.039 0.123,0.074 0.195,0.102 0.144,0.055 0.27,0.076 0.381,0.075 0.011,0.016 0.017,0.031 0.03,0.045 0.176,0.177 0.288,0.921 0.098,1.399 -0.066,0.166 -0.149,0.251 -0.249,0.254 -0.086,0.002 -0.138,-0.154 -0.153,-0.203 -0.092,-0.316 0.007,-0.659 0.077,-0.699 0.138,-0.057 0.219,-0.216 0.169,-0.357 -0.05,-0.141 -0.191,-0.222 -0.335,-0.179 -0.426,0.128 -0.568,0.725 -0.487,1.222 0.08,0.49 0.366,0.788 0.746,0.776 0.334,-0.01 0.601,-0.226 0.753,-0.606 0.206,-0.521 0.184,-1.403 -0.121,-1.867 0.231,-0.225 0.362,-0.617 0.396,-1.19 0.135,-0.057 0.27,-0.146 0.398,-0.274 0.517,-0.506 0.856,-1.449 0.507,-2.271 -0.038,-0.093 -0.123,-0.157 -0.223,-0.17 -0.021,-0.002 -0.042,-10e-4 -0.063,-10e-4 0.111,-0.06 0.225,-0.157 0.34,-0.309 -0.037,0.466 0.02,0.902 0.211,1.161 0.119,0.161 0.471,0.491 1.139,0.066 0.376,-0.239 0.587,-0.648 0.595,-1.154 0,-0.009 0,-0.017 0,-0.024 0,-0.501 -0.197,-1.041 -0.498,-1.441 0.623,-0.009 1.382,-1.157 1.39,-1.17 0.478,-0.734 0.685,-1.678 0.139,-2.222 0.459,-0.182 0.909,-0.339 1.354,-0.482 -0.478,0.326 -0.906,1.252 -0.687,1.765 0.068,0.158 0.297,0.506 0.964,0.334 0.616,-0.159 0.925,-0.734 0.999,-1.178 0.077,-0.449 -0.045,-0.841 -0.317,-1.023 -0.065,-0.044 -0.165,-0.09 -0.296,-0.103 3.723,-1.079 6.939,-0.883 9.584,0.597 0.953,0.534 1.771,1.203 2.474,1.941 0.483,1.434 0.937,2.933 1.361,4.503 0.724,2.67 1.319,5.416 1.773,8.164 0.412,2.498 0.401,4.847 0.39,7.332 l -0.004,1.281 -0.066,1.419 c -0.086,1.271 -0.177,2.587 0.238,3.5 0.046,0.098 0.143,0.162 0.251,0.164 l 0.866,0.016 c 0.004,0 0.008,0.003 0.012,0.003 H 73 74.148 c 0.021,0 0.041,-0.007 0.063,-0.012 0.011,-0.002 0.021,-0.002 0.032,-0.006 0.032,-0.012 0.063,-0.028 0.089,-0.051 0.004,-0.004 0.006,-0.011 0.012,-0.015 0.02,-0.02 0.037,-0.041 0.051,-0.066 0.005,-0.011 0.007,-0.023 0.013,-0.036 0.005,-0.018 0.014,-0.033 0.018,-0.053 0.174,-1.14 0.271,-2.671 0.311,-4.429 0.815,-11.471 3.05,-41.656 4.276,-45.951 0.48,-1.681 1.076,-2.606 1.722,-2.676 0.691,-0.075 1.598,0.828 2.485,2.477 0.069,0.128 0.224,0.182 0.358,0.124 0.132,-0.061 0.198,-0.211 0.153,-0.349 z m -50.796,25.263 -0.147,0.294 c -0.185,0.386 -0.569,1.189 -0.918,1.288 -0.043,0.012 -0.097,0.017 -0.179,-0.036 -0.153,-0.098 -0.195,-0.298 -0.126,-0.595 0.164,-0.708 0.829,-1.433 1.136,-1.469 0.122,-0.015 0.213,-0.106 0.238,-0.221 0.086,-0.019 0.173,-0.049 0.259,-0.085 -0.061,0.269 -0.059,0.493 -0.006,0.682 -0.105,-0.007 -0.206,0.041 -0.257,0.142 z m 0.494,-1.484 c -0.08,-0.025 -0.167,-0.019 -0.241,0.032 -0.29,0.201 -0.624,0.248 -0.811,0.115 -0.204,-0.144 -0.152,-0.464 -0.104,-0.644 0.179,-0.653 0.858,-0.973 1.515,-1.281 l 0.367,-0.178 c 0.007,-0.003 0.01,-0.009 0.016,-0.013 -0.073,0.294 -0.076,0.59 0.027,0.875 -0.261,0.207 -0.558,0.637 -0.769,1.094 z m 6.136,-9.622 c 0.045,-0.135 0.276,-0.281 0.628,-0.299 0.383,-0.019 0.862,0.123 1.161,0.556 -0.209,0.112 -0.376,0.253 -0.469,0.431 -0.025,0.049 -0.046,0.106 -0.062,0.17 -0.283,-0.108 -0.584,-0.204 -0.89,-0.252 -0.017,-0.03 -0.037,-0.059 -0.065,-0.083 -0.237,-0.201 -0.347,-0.392 -0.303,-0.523 z m 4.733,0.257 c -0.001,0.027 0.004,0.051 0.005,0.077 -0.145,-0.011 -0.276,0.087 -0.298,0.233 -0.052,0.337 -0.669,0.758 -1.346,0.918 -0.345,0.081 -0.649,0.086 -0.872,0.021 0.021,-0.123 -0.038,-0.249 -0.156,-0.302 l -0.138,-0.062 c -0.041,-0.018 -0.083,-0.036 -0.124,-0.055 -0.018,-0.079 0.003,-0.122 0.013,-0.141 0.185,-0.355 1.363,-0.569 2.35,-0.564 0.134,0 0.257,-0.091 0.282,-0.224 C 44.04,45.71 43.976,45.58 43.852,45.53 L 43.527,45.4 c -0.342,-0.131 -0.917,-0.35 -0.992,-0.619 -0.028,-0.102 0.02,-0.233 0.144,-0.393 0.132,-0.17 0.3,-0.241 0.527,-0.223 0.56,0.043 1.275,0.625 1.547,1.04 -0.059,0.036 -0.116,0.073 -0.166,0.118 -0.18,0.16 -0.28,0.374 -0.289,0.617 z m 3.663,0.131 c 0.002,0.027 0.004,0.056 0.004,0.084 0,0.354 -0.24,0.809 -0.578,1.072 -0.178,0.139 -0.453,0.281 -0.752,0.167 -0.064,-0.025 -0.212,-0.09 -0.212,-0.164 0,-10e-4 0,-0.002 0,-0.002 0.015,-0.355 1.052,-1.056 1.468,-1.178 0.035,-0.011 0.058,-0.037 0.085,-0.058 -0.003,0.015 -0.018,0.027 -0.018,0.043 0,0.013 0.001,0.025 0.003,0.036 z m 0.378,-1.079 c -0.014,-0.186 0.514,-0.413 0.954,-0.465 0.427,-0.051 1.058,0.021 1.333,0.226 0.162,0.12 0.177,0.175 0.177,0.176 -10e-4,0.024 -0.048,0.108 -0.079,0.163 -0.032,0.061 -0.072,0.132 -0.107,0.213 -0.442,0.084 -0.895,0.18 -1.356,0.289 C 49.232,45.522 49.177,45.462 49.1,45.433 48.408,45.178 48.34,44.994 48.339,44.992 z M 54,48.06 c -0.013,-0.017 -0.051,-0.072 0.071,-0.233 0.229,-0.3 0.651,-0.292 0.973,-0.185 0.369,0.124 0.742,0.432 0.742,0.778 0,0.034 0.025,0.057 0.037,0.087 -0.047,-0.146 -0.199,-0.229 -0.348,-0.186 -0.354,0.106 -1.294,0 -1.475,-0.261 z M 35.791,58.296 c -0.019,0.24 -0.627,1.292 -1.004,1.367 -0.025,0.006 -0.076,0.015 -0.154,-0.139 -0.065,-0.127 0.061,-0.459 0.383,-0.792 0.351,-0.362 0.686,-0.481 0.767,-0.443 0.004,10e-4 0.007,0 0.011,0.003 -10e-4,10e-4 -0.002,0.002 -0.003,0.004 z m 1.605,-0.685 c -0.09,0.044 -0.138,0.055 -0.168,0.059 -0.005,-0.021 -0.012,-0.04 -0.012,-0.07 0,-0.411 0.498,-1.559 0.816,-1.813 0.065,-0.052 0.094,-0.129 0.098,-0.205 0.002,0.056 0.013,0.101 0.013,0.157 10e-4,0.751 -0.2,1.611 -0.747,1.872 z m 16.975,-6.22 c -0.192,0.161 -0.562,0.402 -0.88,0.201 l 0,0 c -0.05,-0.03 -0.201,-0.126 -0.114,-0.477 0.154,-0.617 0.893,-1.389 1.364,-1.425 0.098,-0.008 0.201,0.013 0.282,0.209 0.152,0.367 -0.16,1.076 -0.652,1.492 z m -2.047,-2.745 c 0.299,0.121 0.385,0.235 0.388,0.278 0.004,0.046 -0.07,0.167 -0.284,0.293 -0.425,0.252 -1.137,0.379 -1.479,0.158 -0.024,-0.017 -0.045,-0.031 -0.064,-0.046 0.021,-0.045 0.035,-0.095 0.03,-0.148 -0.009,-0.064 -0.04,-0.117 -0.081,-0.159 0.291,-0.28 1.15,-0.515 1.49,-0.376 z m -3.05,-1.589 c 0.117,-0.175 0.365,-0.46 0.706,-0.405 0.205,0.033 0.317,0.1 0.338,0.198 0.06,0.3 -0.403,0.928 -0.78,1.161 -0.109,0.067 -0.152,0.196 -0.117,0.314 -0.022,-0.024 -0.048,-0.05 -0.077,-0.073 0.014,-0.049 0.019,-0.1 0.005,-0.153 -0.034,-0.139 -0.178,-0.224 -0.319,-0.206 -0.006,-0.021 -0.014,-0.041 -0.014,-0.078 0,-0.168 0.069,-0.475 0.258,-0.758 z m -1.724,3.506 c -0.117,0.044 -0.177,0.056 -0.216,0.062 -0.005,-0.045 -0.008,-0.102 -0.008,-0.168 0,-0.041 0.003,-0.337 0.003,-0.338 0,-0.124 -0.091,-0.209 -0.203,-0.244 0.14,0.048 0.293,-0.016 0.351,-0.155 0.252,-0.602 0.958,-1.017 1.354,-1.047 0.112,-0.009 0.166,0.015 0.174,0.028 0.007,0.01 0.012,0.032 0.012,0.064 0,0.083 -0.04,0.245 -0.173,0.495 -0.393,0.102 -0.621,0.183 -0.64,0.19 -0.145,0.052 -0.22,0.212 -0.167,0.358 0.039,0.11 0.142,0.179 0.251,0.184 -0.248,0.256 -0.529,0.493 -0.738,0.571 z m -0.098,1.342 c 0.104,-0.054 0.634,-0.307 0.839,-0.021 0.06,0.082 -0.034,0.262 -0.065,0.313 -0.288,0.505 -1.12,1.052 -1.534,1.013 -0.095,-0.011 -0.125,-0.047 -0.147,-0.111 -0.107,-0.319 0.333,-0.898 0.907,-1.194 z m -1.473,1.222 c 0.007,0.051 0.018,0.101 0.034,0.149 0.044,0.13 0.118,0.234 0.21,0.315 -0.204,0.085 -0.413,0.22 -0.604,0.383 0.154,-0.247 0.277,-0.543 0.36,-0.847 z m -1.182,0.914 c -0.278,0.135 -0.331,0.033 -0.37,-0.041 -0.267,-0.519 0.095,-1.923 0.561,-2.177 0.186,-0.102 0.339,-0.135 0.41,-0.091 0.087,0.055 0.165,0.272 0.145,0.637 -0.039,0.704 -0.395,1.501 -0.746,1.672 z m -0.849,-3.135 c 0.108,-0.454 1.368,-1.179 1.871,-1.077 0.257,0.053 0.347,0.132 0.358,0.171 0.013,0.042 -0.016,0.176 -0.216,0.384 -0.463,0.479 -1.323,0.838 -1.737,0.725 -0.246,-0.067 -0.279,-0.138 -0.279,-0.179 0,-0.009 10e-4,-0.018 0.003,-0.024 z m 0.128,0.743 c 0.08,0.021 0.166,0.032 0.254,0.037 -0.214,0.285 -0.374,0.674 -0.463,1.076 0.009,-0.162 -0.017,-0.309 -0.086,-0.432 -0.063,-0.113 -0.178,-0.234 -0.375,-0.307 0.081,-0.083 0.153,-0.169 0.206,-0.258 0.052,-0.088 0.088,-0.176 0.112,-0.265 0.091,0.059 0.208,0.109 0.352,0.149 z m -1.564,3.886 c 0.202,-0.863 0.566,-1.391 0.699,-1.423 0.001,0.011 0.136,0.128 0.246,0.739 0.015,0.075 0.021,0.154 0.021,0.234 0,0.51 -0.271,1.072 -0.677,1.361 -0.228,0.161 -0.314,0.146 -0.315,0.146 -0.026,-0.022 -0.066,-0.137 -0.066,-0.359 0,-0.169 0.022,-0.399 0.092,-0.698 z m 0.438,-2.039 c -0.477,0.637 -1.142,1.047 -1.547,0.953 -0.343,-0.078 -0.334,-0.208 -0.331,-0.264 0.038,-0.57 1.354,-1.617 1.816,-1.659 0.211,-0.021 0.365,0.011 0.404,0.077 0.054,0.098 0.009,0.425 -0.342,0.893 z m -1.316,-2.215 c 0.455,-0.325 1.12,-0.436 1.481,-0.284 0.003,0.041 0.011,0.083 0.033,0.12 0.024,0.041 0.047,0.091 0.047,0.156 0,0.057 -0.017,0.125 -0.066,0.207 -0.227,0.385 -0.951,0.742 -1.46,0.723 -0.127,-0.006 -0.29,-0.037 -0.349,-0.158 -0.162,-0.331 0.082,-0.598 0.314,-0.764 z m -2.005,1.698 c -0.044,-0.017 -0.111,-0.134 -0.071,-0.334 0.058,-0.283 0.324,-0.607 0.607,-0.738 0.167,-0.078 0.318,-0.08 0.45,-0.008 0.032,0.018 0.064,0.025 0.098,0.031 0.013,0.12 0.044,0.241 0.104,0.361 0.115,0.235 0.336,0.386 0.628,0.442 -0.491,0.428 -0.901,0.964 -0.931,1.415 0,0.015 -0.001,0.032 -0.001,0.051 0,0.189 0.071,0.526 0.517,0.715 -0.266,0 -0.54,0.129 -0.797,0.338 0.278,-0.655 0.289,-1.584 0.093,-2.013 -0.016,-0.035 -0.038,-0.065 -0.064,-0.091 0.018,-0.026 0.037,-0.051 0.054,-0.082 0.076,-0.135 0.027,-0.307 -0.108,-0.381 -0.135,-0.076 -0.306,-0.027 -0.381,0.107 -0.091,0.161 -0.174,0.195 -0.198,0.187 z m 0.161,4.791 0,0 c -0.064,-0.014 -0.233,-0.051 -0.159,-0.483 0.137,-0.803 0.974,-1.869 1.42,-1.813 0.199,0.025 0.23,0.109 0.245,0.145 0.114,0.296 -0.189,0.998 -0.676,1.566 -10e-4,0.002 -0.003,0.005 -0.006,0.007 -0.021,0.024 -0.046,0.046 -0.066,0.072 -0.369,0.403 -0.657,0.527 -0.758,0.506 z m 1.497,1.782 c -0.154,0.175 -0.254,0.207 -0.285,0.198 -0.055,-0.014 -0.169,-0.152 -0.24,-0.462 -0.039,-0.17 -0.058,-0.361 -0.058,-0.556 0,-0.42 0.091,-0.852 0.277,-1.114 0.021,-0.023 0.045,-0.048 0.064,-0.07 0.01,-0.013 0.02,-0.026 0.03,-0.038 0.009,-0.009 0.016,-0.019 0.024,-0.025 0.006,-0.006 0.008,-0.013 0.011,-0.02 0.012,-0.015 0.023,-0.029 0.035,-0.044 0.042,0.023 0.084,0.047 0.136,0.042 0.154,-0.012 0.244,0.036 0.309,0.167 0.245,0.488 -0.057,1.641 -0.303,1.922 z m 1.799,-2.332 c -0.2,0.134 -0.595,0.574 -0.848,1.044 0.013,-0.329 -0.026,-0.645 -0.146,-0.885 -0.128,-0.257 -0.337,-0.415 -0.6,-0.462 0.308,-0.522 0.485,-1.091 0.326,-1.502 -0.069,-0.179 -0.2,-0.31 -0.373,-0.396 0.22,0.016 0.447,-0.031 0.67,-0.125 -0.256,0.749 -0.422,1.784 0.026,2.141 0.173,0.137 0.483,0.225 0.983,-0.13 0.554,-0.394 0.912,-1.134 0.912,-1.824 0,-0.111 -0.009,-0.222 -0.029,-0.328 -0.071,-0.391 -0.197,-0.881 -0.49,-1.092 0.141,-0.214 0.239,-0.419 0.295,-0.609 -0.065,0.465 -0.034,0.914 0.116,1.206 0.214,0.414 0.631,0.522 1.112,0.288 0.032,-0.016 0.063,-0.034 0.094,-0.053 -0.099,0.136 -0.178,0.274 -0.23,0.409 -0.081,0.206 -0.098,0.398 -0.061,0.571 -0.01,0.002 -0.019,10e-4 -0.028,0.005 -0.396,0.157 -1.353,1.017 -1.498,1.722 -0.079,-0.018 -0.173,-0.019 -0.231,0.02 z m 2.901,0.154 c -0.066,0.126 -0.174,0.277 -0.313,0.283 -0.012,-0.003 -0.047,-0.033 -0.082,-0.128 -0.091,-0.248 -0.064,-0.607 -0.002,-0.72 0.063,-0.114 0.034,-0.251 -0.057,-0.338 10e-4,-0.016 0.007,-0.034 0.007,-0.05 0.003,-0.154 -0.121,-0.281 -0.276,-0.284 -0.155,-0.002 -0.282,0.122 -0.284,0.275 -0.003,0.185 -0.371,0.791 -0.773,1.034 -0.109,0.065 -0.202,0.09 -0.25,0.065 -0.02,-0.01 -0.034,-0.02 -0.047,-0.029 -10e-4,-0.063 -0.015,-0.115 -0.045,-0.154 0.059,-0.447 0.884,-1.223 1.159,-1.331 0.044,-0.018 0.079,-0.048 0.107,-0.082 0.019,0.014 0.036,0.029 0.056,0.042 0.172,0.114 0.378,0.143 0.596,0.083 0.124,-0.033 0.248,-0.097 0.37,-0.179 0.097,0.27 0.089,1.03 -0.166,1.513 z m 2.269,-3.384 c -0.057,0.433 -0.258,0.812 -0.529,0.986 -0.173,0.112 -0.296,0.111 -0.35,0.074 -0.069,-0.047 -0.091,-0.188 -0.055,-0.363 0.013,-0.064 -0.001,-0.125 -0.027,-0.18 10e-4,-0.002 0.004,-0.007 0.005,-0.01 0.067,-0.14 0.009,-0.307 -0.13,-0.375 -0.14,-0.066 -0.307,-0.009 -0.375,0.131 -0.149,0.311 -0.742,1.132 -1.16,1.247 -0.077,0.021 -0.113,0.007 -0.139,-0.01 -0.062,-0.041 -0.175,-0.115 -0.069,-0.387 0.207,-0.527 0.979,-1.089 1.235,-1.047 0.153,0.024 0.297,-0.079 0.322,-0.231 0.004,-0.029 0,-0.057 -0.003,-0.084 0.37,-0.074 0.777,-0.297 1.117,-0.575 0.003,-0.002 0.007,-0.002 0.011,-0.004 0.098,0.161 0.162,0.362 0.162,0.603 0,0.074 -0.005,0.149 -0.015,0.225 z m 0.561,-1.75 C 48.93,51.903 48.829,51.673 48.745,51.555 48.669,51.451 48.576,51.367 48.47,51.308 L 49.929,50.7 c 0.144,-0.059 0.211,-0.223 0.151,-0.366 -0.06,-0.143 -0.224,-0.21 -0.366,-0.15 l -1.491,0.621 c 0.407,-0.313 0.798,-0.769 0.985,-1.059 0.299,-0.071 0.671,-0.146 1.101,-0.208 0.071,0.102 0.178,0.206 0.335,0.307 l 0,0 c 0.334,0.215 0.811,0.242 1.266,0.152 -0.108,0.041 -0.215,0.077 -0.324,0.119 -0.03,0.012 -0.057,0.03 -0.08,0.051 -0.482,-0.217 -1.022,0.303 -1.351,0.619 l -0.124,0.114 -0.082,0.072 c -0.476,0.417 -0.922,0.847 -1.132,1.268 z m 2.329,-0.546 0,0 c -0.266,0.502 -1.257,1.429 -1.689,1.238 -0.187,-0.082 -0.199,-0.161 -0.203,-0.187 -0.038,-0.248 0.32,-0.702 1.064,-1.351 l 0.085,-0.075 0.143,-0.133 c 0.544,-0.525 0.693,-0.533 0.733,-0.512 0.119,0.068 0.037,0.696 -0.133,1.02 z m 4.755,0.403 c 0.01,-0.217 0.196,-0.339 0.308,-0.393 0.252,-0.122 0.577,-0.126 0.741,-0.009 0.049,0.034 0.101,0.089 0.101,0.208 0,0.018 -0.001,0.036 -0.004,0.058 -0.035,0.297 -0.496,0.525 -0.835,0.497 -0.29,-0.025 -0.317,-0.206 -0.311,-0.361 z m -9.3,11.117 c -0.076,0.005 -0.122,-0.084 -0.148,-0.158 -0.053,-0.158 0.018,-0.512 0.227,-0.833 0.146,-0.222 0.301,-0.328 0.39,-0.335 0.007,-10e-4 0.013,-0.004 0.021,-0.006 -0.123,0.19 -0.204,0.405 -0.224,0.606 -0.013,0.125 -0.003,0.244 0.022,0.354 -0.011,0.021 -0.024,0.042 -0.03,0.067 -0.044,0.202 -0.177,0.3 -0.258,0.305 z m 0.822,-0.669 c 0.031,-0.296 0.261,-0.596 0.492,-0.651 0.076,0.114 0.172,0.202 0.288,0.256 -0.041,0.593 -0.187,0.761 -0.254,0.808 -0.023,0.016 -0.097,0.065 -0.292,-0.008 -0.065,-0.026 -0.265,-0.102 -0.234,-0.405 z m 7.354,-7.868 c -0.048,0.278 -0.229,0.637 -0.587,0.729 -0.027,0.007 -0.274,0.068 -0.309,-0.012 -0.102,-0.236 0.208,-0.91 0.501,-1.093 0.171,-0.107 0.278,-0.115 0.316,-0.089 0.061,0.04 0.123,0.21 0.079,0.465 z m -4.899,3.524 c -0.142,-0.059 -0.306,0.008 -0.366,0.149 -0.217,0.517 -0.404,0.601 -0.442,0.595 -0.058,-0.009 -0.179,-0.158 -0.205,-0.413 -0.015,-0.134 -0.026,-0.582 0.408,-0.746 0.146,-0.054 0.219,-0.215 0.164,-0.36 -0.007,-0.019 -0.02,-0.032 -0.03,-0.048 -0.004,-0.055 -0.019,-0.109 -0.055,-0.155 -0.097,-0.121 -0.273,-0.142 -0.395,-0.045 -0.466,0.371 -0.794,0.4 -0.933,0.312 -0.088,-0.057 -0.123,-0.177 -0.089,-0.313 0.063,-0.26 0.389,-0.587 1.093,-0.648 0.035,-0.004 0.068,-0.015 0.098,-0.029 0.121,0.177 0.292,0.313 0.517,0.365 0.301,0.069 0.614,0.014 0.903,-0.154 -0.041,0.18 -0.048,0.377 0.011,0.557 -0.053,0.008 -0.104,0.026 -0.146,0.063 -0.204,0.176 -0.381,0.507 -0.507,0.89 -0.009,-0.007 -0.015,-0.015 -0.026,-0.02 z m 1.229,0.982 c -0.005,0.318 -0.116,0.551 -0.336,0.688 l 0,0 c -0.3,0.192 -0.365,0.103 -0.387,0.073 -0.083,-0.11 -0.119,-0.311 -0.119,-0.55 0,-0.477 0.148,-1.086 0.362,-1.437 0.273,0.304 0.479,0.79 0.479,1.208 10e-4,0.007 10e-4,0.013 10e-4,0.018 z m 0.984,-2.934 c -0.251,0.384 -0.753,0.909 -0.922,0.919 -0.056,-0.01 -0.066,-0.035 -0.076,-0.055 -0.055,-0.127 0.01,-0.402 0.101,-0.54 0.087,-0.128 0.053,-0.302 -0.077,-0.388 -10e-4,-0.001 -0.002,-0.001 -0.003,-0.002 0.248,-0.346 0.397,-0.769 0.384,-1.138 -10e-4,-0.028 -0.012,-0.053 -0.02,-0.078 0.043,0.01 0.088,0.014 0.135,0.004 0.145,-0.032 0.234,-0.187 0.214,-0.332 0.036,-0.026 0.069,-0.052 0.101,-0.077 0.094,0.013 0.224,0.045 0.313,0.112 0.464,0.349 0.105,1.181 -0.15,1.575 z m 20.886,-0.608 c 0.451,3.246 1.215,13.12 1.215,20.38 0,0.661 -0.007,1.296 -0.021,1.904 -0.145,2.032 -0.244,3.474 -0.285,4.08 -0.165,0 -0.404,0 -0.596,0 C 73.446,77.298 72.852,66.783 72.331,60.68 71.464,46.585 68.556,36.149 66.698,30.727 c 2.013,4.391 4.94,12.55 6.279,24.914 z m -1.658,0.906 c 0.123,0.683 0.284,2.184 0.452,4.151 0.078,1.257 0.14,2.541 0.182,3.855 0.003,0.095 0.058,0.173 0.132,0.222 0.357,5.126 0.671,11.393 0.671,15.438 0,0.668 -0.011,1.261 -0.029,1.792 -0.262,0 -0.563,0 -0.839,0 0.021,-0.562 0.06,-1.91 0.06,-3.846 0,-4.238 -0.192,-11.278 -1.207,-18.98 -1.315,-9.987 -4.29,-22.905 -11.001,-31.237 3.626,3.806 8.926,11.982 11.579,28.605 z m -1.742,-1.356 c 0.063,0.388 0.127,0.772 0.187,1.155 -0.531,-1.484 -1.048,-2.829 -1.549,-4.056 1.041,1.437 1.314,2.776 1.318,2.797 0.007,0.039 0.023,0.075 0.044,0.104 z m -0.596,-3.164 c 0.003,0.011 0.013,0.017 0.018,0.026 0.037,0.187 0.076,0.373 0.111,0.558 -0.374,-0.626 -0.887,-1.303 -1.577,-1.936 -0.191,-0.438 -0.379,-0.859 -0.564,-1.263 1.416,1.385 2.003,2.598 2.012,2.615 z M 58.88,40.368 C 54.247,35.005 47.96,32.085 41.179,32.02 c 4.117,-0.337 10.788,0.454 17.848,6.823 10e-4,0.002 0.857,0.907 0.857,0.907 1.397,1.438 3.234,3.331 5.478,7.656 -0.101,-0.067 -0.197,-0.136 -0.303,-0.202 -0.608,-0.38 -1.318,-0.757 -2.133,-1.095 -1.23,-2.126 -2.572,-4.037 -4.046,-5.741 z m 4.511,6.56 c 0.493,0.235 0.941,0.482 1.343,0.732 0.429,0.268 0.817,0.546 1.174,0.825 0.223,0.456 0.448,0.934 0.679,1.439 -0.214,-0.146 -0.439,-0.288 -0.679,-0.422 -0.482,-0.268 -0.992,-0.491 -1.527,-0.676 -0.322,-0.65 -0.652,-1.282 -0.99,-1.898 z m 1.341,2.634 c 0.307,0.128 0.606,0.265 0.892,0.424 0.556,0.31 1.034,0.663 1.448,1.035 0.564,1.303 1.15,2.757 1.759,4.398 C 68,54.193 67.018,53.21 65.981,52.424 65.582,51.435 65.165,50.481 64.732,49.562 z m 5.506,10.516 c 0.011,0.048 0.037,0.087 0.067,0.12 0.034,0.278 0.066,0.556 0.1,0.833 -0.598,-1.559 -1.583,-3.506 -3.145,-5.16 -0.274,-0.809 -0.56,-1.593 -0.853,-2.361 1.681,1.499 3.126,3.603 3.831,6.568 z m 0.476,20.396 c 0,-0.497 0.037,-1.028 0.072,-1.553 l 0.068,-1.457 0.004,-1.278 c 0.003,-0.41 0.004,-0.816 0.004,-1.22 0,-2.07 -0.049,-4.077 -0.401,-6.207 -0.457,-2.766 -1.058,-5.53 -1.785,-8.22 -0.299,-1.105 -0.613,-2.178 -0.941,-3.218 2.285,3.045 2.938,6.584 2.947,6.633 0.007,0.041 0.022,0.077 0.044,0.108 0.86,9.098 0.655,16.456 0.601,17.935 -0.146,-0.003 -0.302,-0.006 -0.406,-0.007 -0.152,-0.421 -0.207,-0.943 -0.207,-1.516 z m 9.959,-51.76 c -0.916,0.1 -1.636,1.106 -2.199,3.08 -1.058,3.699 -2.794,25.532 -3.807,39.262 -0.136,-3.986 -0.409,-8.138 -0.691,-11.334 0.001,-0.008 0.005,-0.015 0.005,-0.023 0.008,-0.234 1.72,-25.241 4.237,-29.472 0.798,-1.339 1.579,-1.978 2.323,-1.897 0.38,0.041 0.736,0.281 1.061,0.605 -0.299,-0.166 -0.611,-0.255 -0.929,-0.221 z"
       id="path5151"
       style="stroke:#000000;stroke-width:0.7087;stroke-miterlimit:10" /><path
       d="m 33.142,66.846 c -0.156,-0.072 -0.338,-0.099 -0.515,-0.054 -0.043,-0.051 -0.104,-0.09 -0.175,-0.101 -0.153,-0.021 -0.295,0.086 -0.316,0.239 -0.064,0.453 -0.315,0.999 -0.458,1.082 -0.02,-0.017 -0.067,-0.06 -0.142,-0.223 -0.044,-0.095 -0.066,-0.233 -0.066,-0.396 0,-0.341 0.099,-0.781 0.299,-1.116 0.103,-0.171 0.271,-0.377 0.491,-0.39 0.149,-0.009 0.264,-0.133 0.264,-0.28 0,-0.005 0,-0.011 0,-0.016 -0.009,-0.155 -0.142,-0.272 -0.296,-0.264 -0.368,0.021 -0.692,0.251 -0.939,0.661 -0.374,0.624 -0.491,1.537 -0.26,2.035 0.237,0.514 0.524,0.586 0.723,0.557 0.069,-0.011 0.132,-0.036 0.193,-0.07 0.057,0.182 0.116,0.35 0.175,0.499 -0.625,0.166 -0.941,1.104 -0.875,1.921 0.055,0.679 0.375,1.096 0.834,1.089 0.242,-0.002 0.445,-0.093 0.588,-0.262 0.01,-0.012 0.016,-0.026 0.025,-0.039 0.155,0.107 0.321,0.477 0.311,0.846 -0.002,0.133 -0.033,0.368 -0.199,0.466 -0.12,0.069 -0.169,0.042 -0.191,0.029 -0.133,-0.074 -0.252,-0.373 -0.26,-0.652 -0.004,-0.154 -0.133,-0.276 -0.288,-0.272 -0.155,0.005 -0.276,0.133 -0.272,0.288 0.012,0.415 0.186,0.926 0.548,1.128 0.225,0.124 0.489,0.111 0.744,-0.037 0.298,-0.173 0.467,-0.505 0.479,-0.936 0.012,-0.47 -0.181,-1.079 -0.572,-1.334 -0.033,-0.021 -0.069,-0.035 -0.107,-0.042 0.055,-0.382 -0.005,-0.82 -0.058,-1.164 0.088,0.051 0.179,0.086 0.273,0.093 0.548,0.043 0.872,-0.657 0.979,-0.887 0.361,-0.778 -0.242,-2.071 -0.937,-2.398 z m -0.904,4.55 c -0.027,0.03 -0.067,0.063 -0.168,0.064 -0.153,0.002 -0.246,-0.296 -0.269,-0.574 -0.004,-0.055 -0.006,-0.11 -0.006,-0.166 0,-0.46 0.148,-0.901 0.342,-1.082 0.045,0.074 0.072,0.119 0.09,0.149 0.013,0.099 0.037,0.283 0.037,0.283 0.031,0.206 0.083,0.541 0.083,0.831 0,0.211 -0.027,0.399 -0.109,0.495 z m 1.332,-2.387 c -0.219,0.473 -0.384,0.567 -0.427,0.563 -0.004,-0.001 -0.328,-0.041 -0.739,-1.467 -0.009,-0.03 -0.025,-0.058 -0.043,-0.082 0.072,-0.135 0.131,-0.28 0.178,-0.419 0.012,-0.017 0.027,-0.03 0.036,-0.05 0.137,-0.291 0.253,-0.236 0.331,-0.2 0.436,0.204 0.885,1.178 0.664,1.655 z"
       id="path5153"
       style="stroke:#000000;stroke-width:0.7087;stroke-miterlimit:10" /></g></svg>