<?xml version="1.0" encoding="utf-8"?>
<!-- Generator: Adobe Illustrator 17.1.0, SVG Export Plug-In . SVG Version: 6.00 Build 0)  -->
<!DOCTYPE svg PUBLIC "-//W3C//DTD SVG 1.1//EN" "http://www.w3.org/Graphics/SVG/1.1/DTD/svg11.dtd">
<svg version="1.1" id="Ebene_1" xmlns="http://www.w3.org/2000/svg" xmlns:xlink="http://www.w3.org/1999/xlink" x="0px" y="0px"
	 width="100px" height="100px" viewBox="0 0 100 100" enable-background="new 0 0 100 100" xml:space="preserve">
<circle fill="#B2B2B2" cx="50" cy="50" r="50"/>
<polygon fill="none" stroke="#000000" stroke-width="3" stroke-miterlimit="2.6131" points="28.8,46.2 23.1,43.7 17.7,47 18.3,40.7 
	13.6,36.7 19.7,35.3 22.1,29.5 25.2,34.9 31.5,35.4 27.3,40.1 "/>
<ellipse fill="none" stroke="#000000" stroke-width="3" stroke-miterlimit="2.6131" cx="48.6" cy="20.6" rx="10.6" ry="10.1"/>
<rect x="13.5" y="58.5" fill="none" stroke="#000000" stroke-width="3" stroke-miterlimit="2.6131" width="27" height="16.5"/>
<path fill="none" stroke="#000000" stroke-width="3" stroke-miterlimit="2.6131" d="M68.9,38c-2.4-0.3-4.9-0.6-7.3-0.9
	c-2.6-0.3-5.7-0.5-7.5,1.5c-1.2,1.3-1.4,3.2-0.9,4.9s1.6,3.1,2.9,4.2c3.4,3,7.9,4.4,12.2,6c4.3,1.5,8.7,3.4,11.5,7
	c2.8,3.6,3.4,9.3,0.1,12.4c-0.8,0.7-1.7,1.2-2.7,1.7c-3.3,1.4-7.1,1.3-10.7,1.2c-2.8-0.1-5.7-0.2-8.2-1.5s-4.4-4.1-3.8-6.9
	c0.6-2.3,2.7-3.8,4.7-5c3.5-2.1,7.3-3.8,10.1-6.8c3.5-3.8,4.8-9.6,3.4-14.5c-0.3-1-0.7-2-1.6-2.6C70.5,38.2,69.7,38.1,68.9,38z"/>
</svg>
