<?xml version="1.0" encoding="utf-8"?>
<!-- Generator: Adobe Illustrator 17.1.0, SVG Export Plug-In . SVG Version: 6.00 Build 0)  -->
<!DOCTYPE svg PUBLIC "-//W3C//DTD SVG 1.1//EN" "http://www.w3.org/Graphics/SVG/1.1/DTD/svg11.dtd">
<svg version="1.1" id="Ebene_1" xmlns="http://www.w3.org/2000/svg" xmlns:xlink="http://www.w3.org/1999/xlink" x="0px" y="0px"
	 viewBox="0 0 612 792" enable-background="new 0 0 612 792" xml:space="preserve">
<circle fill="#B2B2B2" cx="306" cy="396" r="306"/>
<path d="M553.2,413.1l-0.6-1.8h-1.2v-2.4h0.6l-0.6-1.8v-1.2h-0.6c-0.6-0.6-0.6-1.8-1.8-3.1l0.6-0.6l0,0c-0.6-0.6-1.2-1.2-1.2-1.8
	v-7.3h-1.8v-9.2c0-2.4,0-4.3-0.6-5.5c1.8-0.6,1.8-2.4,1.2-4.9c-0.6-1.8-3.1-9.8-5.5-11.6l-1.2-0.6h-0.6l0,0c-0.6,0-3.1-0.6-6.7-1.2
	c-9.2-1.2-24.5-3.1-31.2-4.3l0,0h-1.2V355c-0.6,0-1.2,0-1.2,0c-2.4-1.2-44.1-21.4-67.3-29.4h-0.6l0,0l0,0c-4.3-1.2-8-2.4-10.4-2.4
	c-17.1-2.4-48.3-4.9-68.5-4.9c-20.8,0-57.5,1.2-74.7,4.9c-3.1,0.6-6.7,1.8-11,3.1l0,0l0,0l-2.4,0.6l0,0l0,0h-0.6
	c-26.3,9.8-64.9,32.4-75.3,41.6c-0.6,0-1.8,0-1.8,0l-0.6,0.6v-0.6c-1.8,0-3.7,0-5.5,0c-1.2,0-102.2,10.4-107.7,25.1l0,0l-1.2,4.3
	h-1.8l-0.6,0.6c-0.6,0.6-0.6,0.6-1.2,1.8l0,0l-0.6,3.1l0,0l-0.6,2.4l0,0v1.2l-0.6,1.8h0.6c0,0.6,0.6,1.2,0.6,1.2l0.6,0.6l0,0
	c0,0-0.6,0-0.6,0.6c-0.6,0.6-1.2,0.6-1.8,1.2l0,0h-0.6l-0.6,0.6c-1.8,1.2-3.1,2.4-3.7,3.7H60v1.2l-0.6,1.8H60v11
	c0,1.2,0,2.4,1.8,3.7c-0.6,0.6-1.2,1.2-1.2,1.8c0,0.6,0,1.2,0.6,1.2c-0.6,0.6-0.6,1.2-0.6,2.4s0.6,1.8,1.2,2.4l0.6,0.6h1.2
	c-0.6,0.6-1.2,2.4-0.6,3.1c0.6,1.2,1.2,1.8,2.4,1.8v0.6c0,6.1,43.5,8,50.8,8.6l0,0h3.1l0,0h3.1c3.1,0,6.1-0.6,8.6-0.6
	c6.1,11,17.7,18.4,31.2,18.4c14.1,0,25.7-8,31.8-19.6c1.8,1.2,3.7,1.2,6.7,1.8l0,0h3.1l0,0h1.2h1.8l0,0c3.1,0,8-0.6,13.5-1.2
	c8-1.2,17.1-1.8,22-1.8l143.2-0.6c4.3,0,9.2,1.2,12.9,2.4c1.8,0.6,3.7,1.2,5.5,1.2l0,0h1.2h1.8l0,0c0.6,0,1.2,0,1.8-0.6l1.2-0.6
	v-0.6h6.1c5.5,11.6,17.7,20.2,31.8,20.2c14.7,0,26.9-8.6,32.4-21.4h7.3c0.6,0.6,1.2,1.2,2.4,1.2l0,0h1.2h1.8l0,0h1.2l0.6-0.6v0.6
	c0.6,0,1.2,0,1.8,0l0,0l2.4-0.6c14.1-2.4,39.8-9.2,47.7-12.9v-0.6h0.6h0.6c2.4-1.2,2.4-4.3,2.4-6.7c1.2-1.8,3.1-6.7,4.3-11.6l0,0
	v-1.2l0.6-1.8l0,0c0-1.2,0-2.4,0-3.7C553.2,415,553.2,413.7,553.2,413.1z"/>
</svg>
