<?xml version="1.0" encoding="utf-8"?>
<!-- Generator: Adobe Illustrator 17.1.0, SVG Export Plug-In . SVG Version: 6.00 Build 0)  -->
<!DOCTYPE svg PUBLIC "-//W3C//DTD SVG 1.1//EN" "http://www.w3.org/Graphics/SVG/1.1/DTD/svg11.dtd">
<svg version="1.1"
	 id="レイヤー_1" xmlns:inkscape="http://www.inkscape.org/namespaces/inkscape" xmlns:sodipodi="http://sodipodi.sourceforge.net/DTD/sodipodi-0.dtd" xmlns:dc="http://purl.org/dc/elements/1.1/" xmlns:cc="http://creativecommons.org/ns#" xmlns:rdf="http://www.w3.org/1999/02/22-rdf-syntax-ns#" xmlns:svg="http://www.w3.org/2000/svg" inkscape:version="0.48.4 r" sodipodi:docname="1-2r.svg"
	 xmlns="http://www.w3.org/2000/svg" xmlns:xlink="http://www.w3.org/1999/xlink" x="0px" y="0px" viewBox="0 0 100 100"
	 enable-background="new 0 0 100 100" xml:space="preserve">
<sodipodi:namedview  pagecolor="#ffffff" showgrid="false" guidetolerance="10" inkscape:cx="50" gridtolerance="10" inkscape:cy="50" objecttolerance="10" inkscape:zoom="2.36" borderopacity="1" bordercolor="#666666" id="namedview3301" inkscape:window-maximized="0" inkscape:pageopacity="0" inkscape:window-y="0" inkscape:window-height="480" inkscape:current-layer="レイヤー_1" inkscape:window-x="0" inkscape:pageshadow="2" inkscape:window-width="834">
	</sodipodi:namedview>
<circle id="circle3264" fill="#B2B2B2" cx="50" cy="50" r="50"/>
<g id="レイヤー_2">
	<path id="path3267" fill="none" stroke="#231815" stroke-miterlimit="10" d="M60,159.1"/>
</g>
<polygon id="polygon3215" fill="#FFFFFF" points="62.6,50.2 61.6,50.2 63.1,50.2 63.1,50.2 "/>
<path fill="none" stroke="#000000" stroke-width="7" stroke-miterlimit="2.6131" d="M60.7,40.4c-1,4.9,0.1,10.1,3,14.2
	c1.3,1.8,2.8,3.4,4.4,4.9c1.7,1.7,3.6,3.4,6,4c4.2,1.1,8.5-1.6,11.5-4.7c1.9-2,3.6-4.2,4.3-6.9c1-3.9-0.4-8.1-2.8-11.4
	s-5.8-5.6-9.2-7.7c-4.9-3.1-10.1-5.8-15.8-6.6c-0.8-0.1-1.8-0.3-2.1-1c-0.4-0.8,0.2-1.8,0.8-2.5c1.6-1.8,3.1-3.6,4.7-5.4
	c0.3-0.4,0.7-0.8,0.7-1.3c0.1-1.2-1.4-1.7-2.5-1.9c-1.7-0.2-3.4-0.4-5.1-0.5c-4.1-0.3-8.6-0.4-12,2c-1,0.7-1.9,1.6-2.3,2.7
	c-0.5,1.6-0.1,3.3-0.2,4.9c-0.3,3.8-3.4,7.1-2.9,10.8c0.2,2,1.6,3.9,3.3,5s3.7,1.8,5.7,2.2C53.6,42.2,57.5,42.1,60.7,40.4z"/>
<path fill="none" stroke="#000000" stroke-width="4" stroke-miterlimit="2.6131" d="M22.4,28.9c1.6,0.6,3.3,1.1,5,1.3
	c0.4,0,0.8,0.1,1.1,0c0.4-0.1,0.7-0.5,1-0.8c1.4-1.5,2.8-3.1,4.1-4.6c-2.2-0.2-4.5-0.3-6.6,0.2c-2.2,0.5-4.3,1.7-5.3,3.7
	c-0.6,1.2-0.8,2.6-0.8,3.9c-0.1,5.5,2,11.1,5.7,15.2c1.9,2.1,4.2,3.9,5.8,6.2c2.6,3.8,3,9.1,0.6,13c-2.3,3.9-7.4,6.2-11.8,5
	c0-1.3-0.1-2.5-0.1-3.8c-0.1-2-0.1-4.1,0.6-6c0.7-1.9,2.1-3.5,3.6-4.9c3.2-3.3,6.7-6.4,10.2-9.4c0.8-0.6,1.6-1.3,2-2.3
	c0.3-0.6,0.3-1.3,0.3-2c0.1-2,0.1-4-0.2-5.9c-0.5-2.6-1.7-5-2.8-7.4c-0.5-1-1-2-1.8-2.8c-0.6-0.6-1.4-1.7-0.6-2.2"/>
</svg>
