<?xml version="1.0" encoding="utf-8"?>
<!-- Generator: Adobe Illustrator 17.1.0, SVG Export Plug-In . SVG Version: 6.00 Build 0)  -->
<!DOCTYPE svg PUBLIC "-//W3C//DTD SVG 1.1//EN" "http://www.w3.org/Graphics/SVG/1.1/DTD/svg11.dtd">
<svg version="1.1" id="Ebene_1" xmlns="http://www.w3.org/2000/svg" xmlns:xlink="http://www.w3.org/1999/xlink" x="0px" y="0px"
	 viewBox="0 0 100 100" enable-background="new 0 0 100 100" xml:space="preserve">
<circle fill="#B2B2B2" cx="50" cy="50" r="50"/>
<path d="M90.4,67.5l-0.1-0.3l-0.2,0v-0.4h0.1l-0.1-0.3v-0.2h-0.1c-0.1-0.1-0.1-0.3-0.3-0.5l-0.1-0.1h0c-0.1-0.1-0.2-0.2-0.2-0.3
	v-1.2c0,0-0.3,0-0.3,0v-1.5c0-0.4,0-0.7-0.1-0.9c0.3-0.1,0.3-0.4,0.2-0.8c-0.1-0.3-0.5-1.6-0.9-1.9l-0.2-0.1l-0.1,0l0,0
	c-0.1,0-0.5-0.1-1.1-0.2c-1.5-0.2-4-0.5-5.1-0.7l0,0l-0.2,0l0-0.1c-0.1,0-0.2,0-0.2,0c-0.4-0.2-7.2-3.5-11-4.8l-0.1,0l0,0v0
	c-0.7-0.2-1.3-0.4-1.7-0.4c-2.8-0.4-7.9-0.8-11.2-0.8c-3.4,0-9.4,0.2-12.2,0.8c-0.5,0.1-1.1,0.3-1.8,0.5v0l0,0l-0.4,0.1v0l0,0
	l-0.1,0c-4.3,1.6-10.6,5.3-12.3,6.8c-0.1,0-0.3,0-0.3,0s-0.1,0.1-0.1,0.1l0-0.1c-0.3,0-0.6,0-0.9,0c-0.2,0-16.7,1.7-17.6,4.1h0
	l-0.2,0.7h-0.3l-0.1,0.1c-0.1,0.1-0.1,0.1-0.2,0.3h0l-0.1,0.5h0l-0.1,0.4h0l0,0.2l-0.1,0.3h0.1c0,0.1,0.1,0.2,0.1,0.2l0.1,0.1h0
	c0,0-0.1,0-0.1,0.1c-0.1,0.1-0.2,0.1-0.3,0.2l0,0l-0.1,0l-0.1,0.1C10,67.7,9.8,67.8,9.7,68l-0.1,0v0.2l-0.1,0.3l0.1,0v1.8
	c0,0.2,0,0.4,0.3,0.6c-0.1,0.1-0.2,0.2-0.2,0.3c0,0.1,0,0.2,0.1,0.2c-0.1,0.1-0.1,0.2-0.1,0.4c0,0.2,0.1,0.3,0.2,0.4l0.1,0.1h0.2
	c-0.1,0.1-0.2,0.4-0.1,0.5c0.1,0.2,0.2,0.3,0.4,0.3c0,0,0,0.1,0,0.1c0,1,7.1,1.3,8.3,1.4v0l0.5,0v0l0.5,0c0.5,0,1-0.1,1.4-0.1
	c1,1.8,2.9,3,5.1,3c2.3,0,4.2-1.3,5.2-3.2c0.3,0.2,0.6,0.2,1.1,0.3v0l0.5,0v0l0.2,0h0.3v0c0.5,0,1.3-0.1,2.2-0.2
	c1.3-0.2,2.8-0.3,3.6-0.3l23.4-0.1c0.7,0,1.5,0.2,2.1,0.4c0.3,0.1,0.6,0.2,0.9,0.2v0l0.2,0l0.3,0v0c0.1,0,0.2,0,0.3-0.1l0.2-0.1
	v-0.1h1c0.9,1.9,2.9,3.3,5.2,3.3c2.4,0,4.4-1.4,5.3-3.5h1.2c0.1,0.1,0.2,0.2,0.4,0.2v0l0.2,0l0.3,0v0l0.2,0c0,0,0.1-0.1,0.1-0.1
	l0,0.1c0.1,0,0.2,0,0.3,0l0,0l0.4-0.1c2.3-0.4,6.5-1.5,7.8-2.1l0-0.1c0,0,0.1,0,0.1,0l0.1,0c0.4-0.2,0.4-0.7,0.4-1.1
	c0.2-0.3,0.5-1.1,0.7-1.9h0l0-0.2l0.1-0.3h0c0-0.2,0-0.4,0-0.6C90.4,67.8,90.4,67.7,90.4,67.5z"/>
<path fill="none" stroke="#000000" stroke-width="10" stroke-miterlimit="2.6131" d="M44.2,39.9c-0.1-1.2-0.2-2.6,0.2-3.8
	c0.6-1.9,2.1-3.4,3.5-4.7c2-1.8,3.9-3.6,6.3-4.8c1.6-0.8,3.4-1.5,3.6-3.3c0.1-0.8-0.3-1.5-0.8-2.2c-1.1-1.3-2.7-2-4.3-2.7
	c-3.1-1.2-6.5-2.4-9.8-2.9c-3.4-0.5-7-0.2-10.1,1.2c-0.3,0.2-0.7,0.4-0.9,0.7c-0.3,0.5-0.3,1.1-0.2,1.6c0.2,1.3,0.7,2.8,1.7,3.7
	c1.9,1.7,4.8,1.6,7.3,1.4c4.9-0.3,10,0.1,14.4,2.2s7.9,6.4,8.1,11.2c0,1.2-0.1,2.5-0.8,3.5c-1.2,1.8-3.5,2.4-5.7,2.8
	c-3.8,0.6-8,0.7-11.3-1.5c-0.4-0.3-0.8-0.6-1-1.1C44.3,40.9,44.2,40.4,44.2,39.9z"/>
</svg>
