<?xml version="1.0" encoding="utf-8"?>
<!-- Generator: Adobe Illustrator 17.1.0, SVG Export Plug-In . SVG Version: 6.00 Build 0)  -->
<!DOCTYPE svg PUBLIC "-//W3C//DTD SVG 1.1//EN" "http://www.w3.org/Graphics/SVG/1.1/DTD/svg11.dtd">
<svg version="1.1" id="Ebene_1" xmlns="http://www.w3.org/2000/svg" xmlns:xlink="http://www.w3.org/1999/xlink" x="0px" y="0px"
	 width="100px" height="100px" viewBox="0 0 100 100" enable-background="new 0 0 100 100" xml:space="preserve">
<circle fill="#B2B2B2" cx="50" cy="50" r="50"/>
<path fill="none" stroke="#000000" stroke-width="3" stroke-miterlimit="2.6131" d="M28.8,46.2C27.9,45.8,27,45.4,26,45
	c-0.7-0.3-1.3-0.6-2-0.9c-0.2-0.1-0.7-0.4-0.9-0.4c-0.2,0-0.6,0.4-0.8,0.5c-0.6,0.4-1.2,0.8-1.9,1.1c-0.9,0.6-1.8,1.1-2.7,1.7
	c0.2-2.1,0.4-4.2,0.6-6.3c0-0.1-0.6-0.5-0.7-0.6c-0.5-0.5-1.1-0.9-1.6-1.4c-0.8-0.7-1.6-1.4-2.4-2.1c1-0.2,2-0.5,3-0.7
	c0.7-0.2,1.4-0.3,2.2-0.5c0.2-0.1,0.8-0.1,1-0.2c0.2-0.1,0.3-0.7,0.4-0.9c0.3-0.7,0.5-1.3,0.8-2c0.4-1,0.8-1.9,1.2-2.9
	c0.5,0.9,1,1.7,1.5,2.6c0.4,0.6,0.7,1.3,1.1,1.9c0.1,0.2,0.3,0.8,0.5,0.9c0.2,0.1,0.8,0.1,1,0.1c0.7,0.1,1.4,0.1,2.2,0.2
	c1,0.1,2.1,0.2,3.1,0.3c-0.7,0.8-1.4,1.6-2.1,2.3c-0.5,0.5-1,1.1-1.4,1.6c-0.1,0.2-0.6,0.5-0.7,0.7c-0.1,0.2,0.2,0.7,0.2,1
	c0.2,0.7,0.3,1.4,0.5,2.1C28.3,44.2,28.5,45.2,28.8,46.2z"/>
<path fill="none" stroke="#000000" stroke-width="3" stroke-miterlimit="2.6131" d="M48.6,10.5c13.6,0,13.6,20.2,0,20.2
	S35,10.5,48.6,10.5z"/>
<path fill="none" stroke="#000000" stroke-width="3" stroke-miterlimit="2.6131" d="M13.5,58.5c9,0,18,0,27,0c0,0,0,13.3,0,14.5
	c0,0.7,0,1.3,0,2c0,0-0.9,0-1,0c-2.3,0-4.7,0-7,0c-5.8,0-11.6,0-17.4,0c-0.5,0-1,0-1.5,0c-0.1,0,0-1,0-1.1c0-2.9,0-5.8,0-8.7
	C13.5,62.9,13.5,60.7,13.5,58.5z"/>
<path fill="none" stroke="#000000" stroke-width="3" stroke-miterlimit="2.6131" d="M68.9,38c-2.4-0.3-4.9-0.6-7.3-0.9
	c-2.6-0.3-5.7-0.5-7.5,1.5c-1.2,1.3-1.4,3.2-0.9,4.9s1.6,3.1,2.9,4.2c3.4,3,7.9,4.4,12.2,6c4.3,1.5,8.7,3.4,11.5,7
	c2.8,3.6,3.4,9.3,0.1,12.4c-0.8,0.7-1.7,1.2-2.7,1.7c-3.3,1.4-7.1,1.3-10.7,1.2c-2.8-0.1-5.7-0.2-8.2-1.5s-4.4-4.1-3.8-6.9
	c0.6-2.3,2.7-3.8,4.7-5c3.5-2.1,7.3-3.8,10.1-6.8c3.5-3.8,4.8-9.6,3.4-14.5c-0.3-1-0.7-2-1.6-2.6C70.5,38.2,69.7,38.1,68.9,38z"/>
</svg>
