<?xml version="1.0" encoding="UTF-8" standalone="no"?>
<!-- Created with Inkscape (http://www.inkscape.org/) -->

<svg
   xmlns:dc="http://purl.org/dc/elements/1.1/"
   xmlns:cc="http://creativecommons.org/ns#"
   xmlns:rdf="http://www.w3.org/1999/02/22-rdf-syntax-ns#"
   xmlns:svg="http://www.w3.org/2000/svg"
   xmlns="http://www.w3.org/2000/svg"
   version="1.1"
   width="100"
   height="100"
   viewBox="0 0 100 100"
   id="Ebene_1"
   xml:space="preserve"><metadata
     id="metadata7272"><rdf:RDF><cc:Work
         rdf:about=""><dc:format>image/svg+xml</dc:format><dc:type
           rdf:resource="http://purl.org/dc/dcmitype/StillImage" /><dc:title></dc:title></cc:Work></rdf:RDF></metadata><defs
     id="defs7270" /><circle
     cx="50"
     cy="50"
     r="50"
     id="circle7264"
     style="fill:#b2b2b2" /><path
     d="m 41.966,27.609 c -1.658,0.2 -3.363,0.419 -4.371,0.593 -2.447,0.419 -3.285,-0.07 -3.494,1.747 -0.21,1.818 0.069,4.264 0.418,4.543 0.351,0.28 3.916,0.7 3.916,0.7 l 3.405,0.529 5.194,0.319 c 0,0 -0.213,7.574 -0.072,7.667 0,0 -0.21,21.588 -0.21,23.566 0,0.406 -0.008,0.837 -0.018,1.278 -0.031,1.485 -0.111,3.007 -0.526,4.442 -0.209,0.721 -0.466,1.339 -0.847,1.861 -0.351,0.48 -0.807,0.88 -1.428,1.202 -0.557,0.29 -1.178,0.442 -1.8,0.507 -0.962,0.1 -1.932,-0.025 -2.856,-0.3 -0.175,-0.052 -0.35,-0.141 -0.526,-0.183 -0.871,-0.212 -1.759,-0.55 -2.624,-1.05 -3.494,-2.028 -6.081,-5.173 -6.15,-5.592 -0.07,-0.42 1.048,0.35 2.447,-0.14 1.397,-0.49 1.816,-0.91 1.816,-0.91 0,0 -3.774,-1.746 -5.591,-4.682 -1.817,-2.936 -3.005,-6.57 -3.005,-6.57 0,0 -2.726,6.64 -2.167,10.554 0.559,3.915 2.306,6.71 2.656,6.78 0.349,0.07 1.188,-2.936 1.468,-2.936 0.279,0 2.796,5.872 6.779,8.248 0,0 0.743,0.581 1.864,1.363 l 1.928,1.282 c 0.984,0.62 2.067,1.248 3.129,1.757 3.354,1.608 6.15,3.355 7.128,4.193 0.978,0.84 2.795,3.356 2.795,3.356 0,0 1.742,-2.592 2.682,-3.474 0.94,-0.882 3.652,-2.755 6.931,-4.513 3.277,-1.76 6.711,-4.715 6.711,-4.715 3.873,-2.555 6.118,-8.535 6.397,-8.548 0.279,-0.014 1.254,2.951 1.601,2.865 0.346,-0.085 1.964,-2.959 2.344,-6.894 0.381,-3.936 -2.646,-10.444 -2.646,-10.444 0,0 -1.021,3.684 -2.703,6.7 -1.682,3.016 -5.372,4.932 -5.372,4.932 0,0 0.438,0.401 1.856,0.825 1.419,0.426 2.501,-0.394 2.45,0.029 -0.05,0.421 -2.49,3.681 -5.889,5.865 -3.399,2.185 -7.338,1.734 -8.851,0.823 -1.51,-0.91 -1.979,-5.087 -2.117,-8.089 -0.01,-0.222 -0.027,-0.585 -0.054,-1.062 l -1.152,-20.34 c -0.316,-5.488 -0.569,-9.863 -0.569,-9.863 0,0 0.629,-0.028 2.514,-0.114 1.885,-0.087 6.11,-1.048 6.11,-1.048 0,0 3.542,-0.581 3.877,-0.877 0.337,-0.295 0.504,-2.751 0.213,-4.558 -0.292,-1.805 -1.108,-1.278 -3.57,-1.586 -2.464,-0.309 -9.06,-0.706 -9.06,-0.706 l -0.043,-0.978 c 0,0 5.944,-1.6 5.082,-8.208 -0.928,-7.124 -7.385,-7.209 -8.489,-7.173 0,0 -7.658,-0.283 -8.318,7.549 -0.26,3.079 0.895,5.014 2.206,6.206 0,0 0.978,1.407 3.668,1.608 l 0.067,1.211 -5.134,0.453 z m 7.616,-13.328 c 2.551,-0.07 4.369,2.272 4.369,4.158 0,1.888 -1.294,2.377 -1.294,2.377 0,0 -1.256,-1.259 -3.075,-1.153 -1.804,0.104 -2.813,1.238 -2.828,1.255 l -0.002,0.003 c 0,0 -0.14,0.314 -0.768,0.245 -0.15,-0.017 -0.364,-0.078 -0.56,-0.317 -0.261,-0.319 -0.49,-0.956 -0.49,-2.234 0,-2.237 2.097,-4.264 4.648,-4.334 z"
     id="path7266"
     style="fill:#00ffff" /></svg>