<?xml version="1.0" encoding="utf-8"?>
<!-- Generator: Adobe Illustrator 17.1.0, SVG Export Plug-In . SVG Version: 6.00 Build 0)  -->
<!DOCTYPE svg PUBLIC "-//W3C//DTD SVG 1.1//EN" "http://www.w3.org/Graphics/SVG/1.1/DTD/svg11.dtd">
<svg version="1.1" id="Ebene_1" xmlns="http://www.w3.org/2000/svg" xmlns:xlink="http://www.w3.org/1999/xlink" x="0px" y="0px"
	 viewBox="0 0 612 792" enable-background="new 0 0 612 792" xml:space="preserve">
<circle fill="#B2B2B2" cx="306" cy="396" r="306"/>
<path d="M553.2,503.1l-0.6-1.8h-1.2v-2.4h0.6l-0.6-1.8v-1.2h-0.6c-0.6-0.6-0.6-1.8-1.8-3.1l-0.6-0.6l0,0c-0.6-0.6-1.2-1.2-1.2-1.8
	v-7.3h-1.8v-9.2c0-2.4,0-4.3-0.6-5.5c1.8-0.6,1.8-2.4,1.2-4.9c-0.6-1.8-3.1-9.8-5.5-11.6l-1.2-0.6h-0.6l0,0c-0.6,0-3.1-0.6-6.7-1.2
	c-9.2-1.2-24.5-3.1-31.2-4.3l0,0h-1.2V445c-0.6,0-1.2,0-1.2,0c-2.4-1.2-44.1-21.4-67.3-29.4h-0.6l0,0l0,0c-4.3-1.2-8-2.4-10.4-2.4
	c-17.1-2.4-48.3-4.9-68.5-4.9c-20.8,0-57.5,1.2-74.7,4.9c-3.1,0.6-6.7,1.8-11,3.1l0,0l0,0l-2.4,0.6l0,0l0,0h-0.6
	c-26.3,9.8-64.9,32.4-75.3,41.6c-0.6,0-1.8,0-1.8,0l-0.6,0.6v-0.6c-1.8,0-3.7,0-5.5,0c-1.2,0-102.2,10.4-107.7,25.1l0,0l-1.2,4.3
	h-1.8l-0.6,0.6c-0.6,0.6-0.6,0.6-1.2,1.8l0,0l-0.6,3.1l0,0l-0.6,2.4l0,0v1.2l-0.6,1.8h0.6c0,0.6,0.6,1.2,0.6,1.2l0.6,0.6l0,0
	c0,0-0.6,0-0.6,0.6c-0.6,0.6-1.2,0.6-1.8,1.2l0,0h-0.6l-0.6,0.6c-1.8,1.2-3.1,1.8-3.7,3.1h-0.6v1.2l-0.6,1.8h0.6v11
	c0,1.2,0,2.4,1.8,3.7c-0.6,0.6-1.2,1.2-1.2,1.8c0,0.6,0,1.2,0.6,1.2c-0.6,0.6-0.6,1.2-0.6,2.4c0,1.2,0.6,1.8,1.2,2.4l0.6,0.6h1.2
	c-0.6,0.6-1.2,2.4-0.6,3.1c0.6,1.2,1.2,1.8,2.4,1.8v0.6c0,6.1,43.5,8,50.8,8.6l0,0h3.1l0,0h3.1c3.1,0,6.1-0.6,8.6-0.6
	c6.1,11,17.7,18.4,31.2,18.4c14.1,0,25.7-8,31.8-19.6c1.8,1.2,3.7,1.2,6.7,1.8l0,0h3.1l0,0h1.2h1.8l0,0c3.1,0,8-0.6,13.5-1.2
	c8-1.2,17.1-1.8,22-1.8l143.2-0.6c4.3,0,9.2,1.2,12.9,2.4c1.8,0.6,3.7,1.2,5.5,1.2l0,0h1.2h1.8l0,0c0.6,0,1.2,0,1.8-0.6l1.2-0.6
	v-0.6h6.1c5.5,11.6,17.7,20.2,31.8,20.2c14.7,0,26.9-8.6,32.4-21.4h7.3c0.6,0.6,1.2,1.2,2.4,1.2l0,0h1.2h1.8l0,0h1.2l0.6-0.6v0.6
	c0.6,0,1.2,0,1.8,0l0,0l2.4-0.6c14.1-2.4,39.8-9.2,47.7-12.9v-0.6h0.6h0.6c2.4-1.2,2.4-4.3,2.4-6.7c1.2-1.8,3.1-6.7,4.3-11.6l0,0
	v-1.2l0.6-1.8l0,0c0-1.2,0-2.4,0-3.7C553.2,504.9,553.2,504.3,553.2,503.1z"/>
<path fill="none" stroke="#000000" stroke-width="10" stroke-miterlimit="2.6131" d="M135,387.7c-0.6-7.3-1.2-15.9,1.2-23.3
	c3.7-11.6,12.9-20.8,21.4-28.8c12.2-11,23.9-22,38.6-29.4c9.8-4.9,20.8-9.2,22-20.2c0.6-4.9-1.8-9.2-4.9-13.5
	c-6.7-8-16.5-12.2-26.3-16.5c-19-7.3-39.8-14.7-60-17.7c-20.8-3.1-42.8-1.2-61.8,7.3c-1.8,1.2-4.3,2.4-5.5,4.3
	c-1.8,3.1-1.8,6.7-1.2,9.8c1.2,8,4.3,17.1,10.4,22.6c11.6,10.4,29.4,9.8,44.7,8.6c30-1.8,61.2,0.6,88.1,13.5
	c26.9,12.9,48.3,39.2,49.6,68.5c0,7.3-0.6,15.3-4.9,21.4c-7.3,11-21.4,14.7-34.9,17.1c-23.3,3.7-49,4.3-69.2-9.2
	c-2.4-1.8-4.9-3.7-6.1-6.7C135.6,393.8,135,390.8,135,387.7z"/>
<polygon fill="none" stroke="#000000" stroke-width="10" stroke-miterlimit="2.6131" points="491.2,336.9 490.3,336.9 489.7,336.9 
	490.9,334.2 494,326.4 497.4,316.3 499.2,305.8 500.5,295.6 502,285.1 502.9,275 503.2,264.5 502,254.3 498,245.2 491.5,236.4 
	483.2,227.6 473.6,220.4 464.3,217.1 455,216.4 446.7,217.1 438.4,217.1 429.1,214.4 418.6,211 406.2,209.6 393.3,211.3 
	381.8,215.7 371.3,219.1 360.5,217.1 350,213 340.1,209.6 331.5,210.3 324,218.8 318.8,230.9 317.2,243.8 318.2,256 321.3,265.8 
	327.1,273.6 336.1,279.4 347.5,280.4 360.5,275 376.3,267.5 397,263.1 414.9,263.8 423.8,271.9 428.8,279.7 435.9,279.4 442.1,278 
	443.9,283.8 443.3,292.9 441.1,302.7 441.1,310.5 446.7,313.2 454.7,313.9 462.8,316.3 468.3,321 468.3,329.5 467.4,339.6 
	469.6,348.8 474.5,355.6 481.6,358.9 487.8,357.6 489.7,350.1 490.3,342 491.2,338.3 491.8,337.3 "/>
</svg>
