<?xml version="1.0" encoding="utf-8"?>
<!-- Generator: Adobe Illustrator 17.1.0, SVG Export Plug-In . SVG Version: 6.00 Build 0)  -->
<!DOCTYPE svg PUBLIC "-//W3C//DTD SVG 1.1//EN" "http://www.w3.org/Graphics/SVG/1.1/DTD/svg11.dtd">
<svg version="1.1" id="レイヤー_1" xmlns="http://www.w3.org/2000/svg" xmlns:xlink="http://www.w3.org/1999/xlink" x="0px"
	 y="0px" viewBox="349.5 226.3 143.7 143.7" enable-background="new 349.5 226.3 143.7 143.7" xml:space="preserve">
<rect x="350.5" y="227.3" fill="#FFFFFF" stroke="#A660A3" stroke-width="2" stroke-miterlimit="10" width="141.7" height="141.7"/>
<rect x="366" y="314.9" fill="#FFFFFF" stroke="#000000" stroke-width="3" stroke-miterlimit="10" width="31.2" height="41.4"/>
<rect x="358.6" y="305.9" fill="#FFFFFF" stroke="#000000" stroke-width="3" stroke-miterlimit="10" width="51.4" height="13.6"/>
<polyline fill="none" stroke="#000000" stroke-width="3" stroke-miterlimit="10" points="378.3,303.9 381.5,303.9 386.8,303.9 "/>
<path fill="none" stroke="#000000" stroke-width="3" stroke-miterlimit="10" d="M381.5,303.9v-11.7c0,0,10.5-9.8,14.8-9.7"/>
<ellipse cx="396.4" cy="282.4" rx="3.6" ry="4.4"/>
<polygon fill="#B5B5B6" stroke="#000000" stroke-miterlimit="10" points="464,335.1 464.3,334.8 464.4,334.6 464.4,335.4 
	464.4,337.7 464.3,340.9 464,344.3 462.8,347.3 460.1,349.5 456.7,350.7 453.5,350.8 451.1,349.7 450,347.3 449.7,344.1 
	449.6,340.8 449,338.2 447,337.7 444.9,338.8 443.9,341.2 443.4,344.3 442.6,347.3 441.2,349.9 438.7,351.7 435.7,352.3 433,351.7 
	431,349.8 430.4,346.9 430.4,343.5 430.4,340.3 431.4,337.5 434.3,335.1 438,333.2 441.3,332 444.5,331.4 447.8,331.2 451.2,331.2 
	454.4,331.2 457.3,331.7 460.1,333.3 462.1,335 463.1,335.5 463.6,335.4 "/>
<polygon fill="none" stroke="#000000" stroke-width="3" stroke-miterlimit="2.6131" points="464,335.1 464.3,334.8 464.4,334.6 
	464.4,335.4 464.4,337.7 464.3,340.9 464,344.3 462.8,347.3 460.1,349.5 456.7,350.7 453.5,350.8 451.1,349.7 450,347.3 
	449.7,344.1 449.6,340.8 449,338.2 447,337.7 444.9,338.8 443.9,341.2 443.4,344.3 442.6,347.3 441.2,349.9 438.7,351.7 
	435.7,352.3 433,351.7 431,349.8 430.4,346.9 430.4,343.5 430.4,340.3 431.4,337.5 434.3,335.1 438,333.2 441.3,332 444.5,331.4 
	447.8,331.2 451.2,331.2 454.4,331.2 457.3,331.7 460.1,333.3 462.1,335 463.1,335.5 463.6,335.4 "/>
<polygon fill="#CAD1E2" stroke="#000000" stroke-miterlimit="10" points="434.8,313.3 435.4,312.9 435.6,312.8 434.9,313.4 
	432.6,315 429.6,317.5 426.9,320.7 424.5,324.1 422.5,327.2 421.1,330.3 420.4,333.3 419.2,335.8 416.4,336.8 412.9,336.9 
	409.4,336.4 406.7,335 405.5,332.5 405.6,329.4 406.8,326.4 408.7,323.3 410.7,320.2 413.3,317.2 416.4,314.1 419.8,311.4 
	423,309.3 425.9,308.5 428.6,309.3 430.9,311 432.6,312.4 433.8,313.3 "/>
<polygon fill="#FFFFFF" stroke="#000000" stroke-width="3" stroke-miterlimit="2.6131" points="434.8,313.3 435.4,312.9 
	435.6,312.8 434.9,313.4 432.6,315 429.6,317.5 426.9,320.7 424.5,324.1 422.5,327.2 421.1,330.3 420.4,333.3 419.2,335.8 
	416.4,336.8 412.9,336.9 409.4,336.4 406.7,335 405.5,332.5 405.6,329.4 406.8,326.4 408.7,323.3 410.7,320.2 413.3,317.2 
	416.4,314.1 419.8,311.4 423,309.3 425.9,308.5 428.6,309.3 430.9,311 432.6,312.4 433.8,313.3 "/>
<polygon fill="#FFFFFF" stroke="#000000" stroke-miterlimit="10" points="401.6,337.3 424.3,337.3 424.3,314.6 401.6,314.6 "/>
<polygon fill="none" stroke="#000000" stroke-width="3" stroke-miterlimit="2.6131" points="401.6,337.3 424.3,337.3 424.3,314.6 
	401.6,314.6 "/>
<polygon fill="#FFFFFF" stroke="#000000" stroke-width="3" stroke-miterlimit="2.6131" points="420.4,337.3 420,337.3 419.9,337.3 
	420.1,336.6 420.8,334.6 420.7,332.7 418.6,332 415.6,332.1 412.5,332.5 410.1,333.4 409,335.5 409.4,337.7 411.6,339 414.7,339.4 
	417.7,339 420,338.2 420.8,337.7 420.7,337.4 "/>
<polygon fill="none" stroke="#000000" stroke-width="0.9638" stroke-miterlimit="2.6131" points="420.4,337.3 420,337.3 
	419.9,337.3 420.1,336.6 420.8,334.6 420.7,332.7 418.6,332 415.6,332.1 412.5,332.5 410.1,333.4 409,335.5 409.4,337.7 411.6,339 
	414.7,339.4 417.7,339 420,338.2 420.8,337.7 420.7,337.4 "/>
<polygon points="472.3,282.3 472.3,281.2 472.3,277.9 472.2,273.8 471.9,270.1 471.5,266.7 471.4,263.5 471.1,260.5 470.1,257.4 
	468.4,254.6 465.7,252.2 462.6,250.2 459.2,248.7 455.4,247.7 450.9,247.4 446.4,247.4 442.6,247.4 439.2,247.7 436.1,248.7 
	433.1,250.3 430.4,252.6 428.2,255.3 426.9,258.3 426.3,261.3 426,264.4 426.3,267.4 426.9,270.5 427.4,273.5 427.3,276.6 
	426.7,279.7 425.6,282.7 424.6,285.8 424.3,288.8 424.5,292 425.1,295.4 426.7,298.7 429.5,301.5 432.9,303.8 436.1,305.4 
	439.2,306.4 442.6,306.7 446,306.6 449.2,306.3 452.4,305.5 456.1,304.1 460.1,302.4 464,300.6 467.4,298.7 469.7,296.2 471,293.4 
	471.4,290.1 471.5,287 471.9,284.5 472.2,282.8 "/>
<polygon fill="#FFFFFF" stroke="#000000" stroke-width="3" stroke-miterlimit="2.6131" points="472.3,282.3 472.3,281.2 
	472.3,277.9 472.2,273.8 471.9,270.1 471.5,266.7 471.4,263.5 471.1,260.5 470.1,257.4 468.4,254.6 465.7,252.2 462.6,250.2 
	459.2,248.7 455.4,247.7 450.9,247.4 446.4,247.4 442.6,247.4 439.2,247.7 436.1,248.7 433.1,250.3 430.4,252.6 428.2,255.3 
	426.9,258.3 426.3,261.3 426,264.4 426.3,267.4 426.9,270.5 427.4,273.5 427.3,276.6 426.7,279.7 425.6,282.7 424.6,285.8 
	424.3,288.8 424.5,292 425.1,295.4 426.7,298.7 429.5,301.5 432.9,303.8 436.1,305.4 439.2,306.4 442.6,306.7 446,306.6 
	449.2,306.3 452.4,305.5 456.1,304.1 460.1,302.4 464,300.6 467.4,298.7 469.7,296.2 471,293.4 471.4,290.1 471.5,287 471.9,284.5 
	472.2,282.8 "/>
<polygon fill="#131E1F" points="453.4,265.9 453.4,265.9 454.2,265.7 453.7,264 453,264.2 453.4,265.9 453,264.2 452.9,264.2 
	452.8,264.3 452.7,264.3 452.6,264.4 452.6,264.4 452.5,264.5 452.4,264.6 452.4,264.6 452.4,264.7 452.4,264.8 452.3,264.9 
	452.3,265 452.3,265 452.3,265.1 452.3,265.2 452.4,265.3 452.4,265.4 452.4,265.4 452.5,265.5 452.5,265.6 452.6,265.6 
	452.6,265.7 452.7,265.7 452.7,265.8 452.8,265.8 452.9,265.9 453,265.9 453.1,265.9 453.1,265.9 453.2,265.9 453.3,265.9 "/>
<polygon fill="#131E1F" points="450.7,264.9 451.1,266.5 453.4,265.9 453,264.2 450.7,264.9 450.7,264.9 450.7,264.9 450.6,264.9 
	450.5,264.9 450.4,265 450.3,265 450.3,265.1 450.2,265.2 450.2,265.2 450.1,265.3 450.1,265.4 450.1,265.4 450,265.5 450,265.6 
	450,265.7 450,265.8 450.1,265.9 450.1,265.9 450.1,266 450.1,266.1 450.2,266.2 450.2,266.2 450.3,266.3 450.3,266.3 450.4,266.4 
	450.4,266.4 450.5,266.5 450.6,266.5 450.7,266.5 450.8,266.6 450.9,266.6 450.9,266.6 451,266.5 451.1,266.5 "/>
<polygon fill="#131E1F" points="447.7,265.7 448.2,267.4 451.2,266.5 450.7,264.9 447.7,265.7 447.7,265.7 447.7,265.7 447.6,265.8 
	447.5,265.8 447.4,265.9 447.4,265.9 447.3,266 447.3,266 447.2,266.1 447.2,266.2 447.1,266.2 447.1,266.3 447.1,266.4 
	447.1,266.5 447.1,266.6 447.1,266.6 447.1,266.7 447.1,266.8 447.2,266.9 447.2,267 447.2,267 447.3,267.1 447.3,267.2 
	447.4,267.2 447.4,267.3 447.5,267.3 447.6,267.4 447.7,267.4 447.7,267.4 447.8,267.4 447.9,267.4 448,267.4 448.1,267.4 
	448.2,267.4 "/>
<polygon fill="#131E1F" points="445.4,268.3 445.5,268.3 448.2,267.4 447.7,265.7 445,266.6 445.4,268.3 445,266.6 444.9,266.6 
	444.8,266.7 444.7,266.7 444.6,266.8 444.6,266.9 444.5,266.9 444.5,267 444.4,267.1 444.4,267.1 444.4,267.2 444.4,267.3 
	444.4,267.4 444.4,267.5 444.4,267.5 444.4,267.6 444.4,267.7 444.4,267.8 444.5,267.8 444.5,267.9 444.6,268 444.6,268 
	444.7,268.1 444.7,268.1 444.8,268.2 444.9,268.2 444.9,268.3 445,268.3 445.1,268.3 445.2,268.3 445.3,268.3 445.4,268.3 
	445.5,268.3 "/>
<polygon fill="#131E1F" points="442.8,268.6 443.5,268.7 445.4,268.3 445,266.6 443.1,267 442.8,268.6 443.1,267 443,267.1 
	442.9,267.1 442.8,267.2 442.7,267.2 442.6,267.3 442.6,267.3 442.5,267.4 442.5,267.4 442.5,267.5 442.4,267.6 442.4,267.7 
	442.4,267.8 442.4,267.8 442.4,267.9 442.4,268 442.4,268.1 442.4,268.2 442.5,268.2 442.5,268.3 442.5,268.4 442.6,268.4 
	442.6,268.5 442.7,268.6 442.8,268.6 442.8,268.7 442.9,268.7 443,268.7 443.1,268.7 443.2,268.8 443.2,268.8 443.3,268.7 
	443.5,268.7 "/>
<polygon fill="#131E1F" points="442.1,268.1 442.8,268.6 443.8,267.2 443.1,266.7 "/>
<polygon fill="#FFFFFF" points="435.6,267.4 435,267.1 433,266.1 430.8,265 429.5,264.4 428.6,263.8 427.8,263.1 "/>
<polygon fill="#131E1F" points="434.6,267.9 434.6,267.9 435.3,268.2 436,266.6 435.3,266.3 434.6,267.9 435.3,266.3 435.3,266.3 
	435.2,266.3 435.1,266.2 435,266.2 434.9,266.2 434.8,266.2 434.7,266.3 434.6,266.3 434.6,266.3 434.5,266.4 434.4,266.4 
	434.4,266.5 434.3,266.5 434.3,266.6 434.2,266.7 434.2,266.7 434.2,266.8 434.1,266.9 434.1,267 434.1,267.1 434.1,267.1 
	434.1,267.2 434.1,267.3 434.1,267.4 434.2,267.4 434.2,267.5 434.2,267.6 434.3,267.7 434.3,267.7 434.4,267.8 434.5,267.8 
	434.6,267.9 "/>
<polygon fill="#131E1F" points="433.4,265.3 432.6,266.9 434.6,267.9 435.4,266.3 433.4,265.4 433.4,265.3 433.4,265.4 433.3,265.3 
	433.2,265.3 433.1,265.3 433,265.2 432.9,265.2 432.9,265.3 432.8,265.3 432.7,265.3 432.6,265.3 432.6,265.4 432.5,265.4 
	432.4,265.5 432.4,265.5 432.3,265.6 432.3,265.7 432.2,265.7 432.2,265.8 432.2,265.9 432.2,266 432.1,266 432.1,266.1 
	432.1,266.2 432.1,266.3 432.2,266.4 432.2,266.4 432.2,266.5 432.3,266.6 432.3,266.7 432.4,266.7 432.5,266.8 432.5,266.8 
	432.6,266.9 "/>
<polygon fill="#131E1F" points="430.4,265.8 430.4,265.8 432.6,266.9 433.4,265.3 431.2,264.3 430.4,265.8 431.2,264.3 431.1,264.2 
	431,264.2 430.9,264.2 430.8,264.2 430.7,264.2 430.7,264.2 430.6,264.2 430.5,264.2 430.4,264.3 430.4,264.3 430.3,264.3 
	430.2,264.4 430.2,264.5 430.1,264.5 430.1,264.6 430,264.7 430,264.7 430,264.8 430,264.9 429.9,265 429.9,265 429.9,265.1 
	430,265.2 430,265.3 430,265.4 430,265.4 430.1,265.5 430.1,265.6 430.2,265.7 430.3,265.7 430.3,265.8 "/>
<polygon fill="#131E1F" points="429,265.1 429.1,265.2 430.4,265.8 431.2,264.3 429.9,263.6 429,265.1 429.9,263.6 429.8,263.6 
	429.7,263.5 429.6,263.5 429.5,263.5 429.4,263.5 429.4,263.5 429.3,263.5 429.2,263.6 429.1,263.6 429.1,263.6 429,263.7 
	428.9,263.7 428.9,263.8 428.8,263.9 428.8,263.9 428.7,264 428.7,264.1 428.7,264.2 428.7,264.2 428.6,264.3 428.6,264.4 
	428.6,264.5 428.6,264.5 428.7,264.6 428.7,264.7 428.7,264.8 428.8,264.9 428.8,264.9 428.9,265 428.9,265.1 429,265.1 
	429.1,265.2 "/>
<polygon fill="#131E1F" points="428.1,264.5 428.2,264.6 429,265.1 430,263.7 429.1,263.1 428.1,264.5 429.1,263.1 429,263 
	428.9,263 428.8,263 428.8,263 428.7,263 428.6,263 428.5,263 428.4,263 428.3,263 428.3,263 428.2,263.1 428.1,263.1 428.1,263.2 
	428,263.2 428,263.3 427.9,263.4 427.9,263.4 427.8,263.5 427.8,263.6 427.8,263.7 427.8,263.7 427.8,263.8 427.8,263.9 427.8,264 
	427.8,264.1 427.8,264.1 427.9,264.2 427.9,264.3 428,264.4 428,264.4 428.1,264.5 428.2,264.6 "/>
<polygon fill="#131E1F" points="427.2,263.7 428.1,264.5 429.2,263.2 428.3,262.4 "/>
<polygon fill="#FFFFFF" stroke="#000000" stroke-miterlimit="2.6131" points="452.2,273.1 452.2,272.9 452.2,272.6 452.2,272.4 
	452.2,272.1 452.1,271.9 452.1,271.7 452,271.5 452,271.2 451.9,271 451.8,270.8 451.8,270.6 451.7,270.4 451.6,270.2 451.5,270.1 
	451.4,269.9 451.3,269.7 451.2,269.6 451.1,269.4 451,269.3 450.9,269.1 450.7,269 450.6,268.9 450.5,268.8 450.3,268.7 
	450.2,268.6 450.1,268.5 449.9,268.5 449.8,268.4 449.6,268.4 449.5,268.3 449.3,268.3 449.2,268.3 449,268.3 448.8,268.3 
	448.7,268.4 448.5,268.4 448.4,268.5 448.2,268.5 448.1,268.6 448,268.7 447.8,268.8 447.7,268.9 447.6,269 447.4,269.1 
	447.3,269.3 447.2,269.4 447.1,269.6 447,269.7 446.9,269.9 446.8,270.1 446.7,270.2 446.6,270.4 446.5,270.6 446.5,270.8 
	446.4,271 446.3,271.2 446.3,271.5 446.2,271.7 446.2,271.9 446.1,272.1 446.1,272.4 446.1,272.6 446.1,272.9 446.1,273.1 
	446.1,273.4 446.1,273.6 446.1,273.8 446.1,274.1 446.2,274.3 446.2,274.5 446.3,274.8 446.3,275 446.4,275.2 446.5,275.4 
	446.5,275.6 446.6,275.8 446.7,276 446.8,276.1 446.9,276.3 447,276.5 447.1,276.6 447.2,276.8 447.3,276.9 447.4,277.1 
	447.6,277.2 447.7,277.3 447.8,277.4 448,277.5 448.1,277.6 448.2,277.7 448.4,277.7 448.5,277.8 448.7,277.8 448.8,277.9 
	449,277.9 449.2,277.9 449.3,277.9 449.5,277.9 449.6,277.8 449.8,277.8 449.9,277.7 450.1,277.7 450.2,277.6 450.3,277.5 
	450.5,277.4 450.6,277.3 450.7,277.2 450.9,277.1 451,276.9 451.1,276.8 451.2,276.6 451.3,276.5 451.4,276.3 451.5,276.1 
	451.6,276 451.7,275.8 451.8,275.6 451.8,275.4 451.9,275.2 452,275 452,274.8 452.1,274.5 452.1,274.3 452.2,274.1 452.2,273.8 
	452.2,273.6 452.2,273.4 "/>
<polyline fill="none" stroke="#131E1F" stroke-width="0.9638" stroke-miterlimit="2.6131" points="452.2,273.1 452.2,272.9 
	452.2,272.6 452.2,272.4 452.2,272.1 452.1,271.9 452.1,271.7 452,271.5 452,271.2 451.9,271 451.8,270.8 451.8,270.6 451.7,270.4 
	451.6,270.2 451.5,270.1 451.4,269.9 451.3,269.7 451.2,269.6 451.1,269.4 451,269.3 450.9,269.1 450.7,269 450.6,268.9 
	450.5,268.8 450.3,268.7 450.2,268.6 450.1,268.5 449.9,268.5 449.8,268.4 449.6,268.4 449.5,268.3 449.3,268.3 449.2,268.3 
	449,268.3 448.8,268.3 448.7,268.4 448.5,268.4 448.4,268.5 448.2,268.5 448.1,268.6 448,268.7 447.8,268.8 447.7,268.9 447.6,269 
	447.4,269.1 447.3,269.3 447.2,269.4 447.1,269.6 447,269.7 446.9,269.9 446.8,270.1 446.7,270.2 446.6,270.4 446.5,270.6 
	446.5,270.8 446.4,271 446.3,271.2 446.3,271.5 446.2,271.7 446.2,271.9 446.1,272.1 446.1,272.4 446.1,272.6 446.1,272.9 
	446.1,273.1 446.1,273.4 446.1,273.6 446.1,273.8 446.1,274.1 446.2,274.3 446.2,274.5 446.3,274.8 446.3,275 446.4,275.2 
	446.5,275.4 446.5,275.6 446.6,275.8 446.7,276 446.8,276.1 446.9,276.3 447,276.5 447.1,276.6 447.2,276.8 447.3,276.9 
	447.4,277.1 447.6,277.2 447.7,277.3 447.8,277.4 448,277.5 448.1,277.6 448.2,277.7 448.4,277.7 448.5,277.8 448.7,277.8 
	448.8,277.9 449,277.9 449.2,277.9 449.3,277.9 449.5,277.9 449.6,277.8 449.8,277.8 449.9,277.7 450.1,277.7 450.2,277.6 
	450.3,277.5 450.5,277.4 450.6,277.3 450.7,277.2 450.9,277.1 451,276.9 451.1,276.8 451.2,276.6 451.3,276.5 451.4,276.3 
	451.5,276.1 451.6,276 451.7,275.8 451.8,275.6 451.8,275.4 451.9,275.2 452,275 452,274.8 452.1,274.5 452.1,274.3 452.2,274.1 
	452.2,273.8 452.2,273.6 452.2,273.4 452.2,273.1 "/>
<polygon fill="#FFFFFF" stroke="#000000" stroke-miterlimit="2.6131" points="435.6,273.1 435.6,272.9 435.6,272.6 435.6,272.4 
	435.6,272.1 435.5,271.9 435.5,271.7 435.4,271.5 435.4,271.2 435.3,271 435.3,270.8 435.2,270.6 435.1,270.4 435,270.2 
	434.9,270.1 434.8,269.9 434.7,269.7 434.6,269.6 434.5,269.4 434.4,269.3 434.3,269.1 434.2,269 434,268.9 433.9,268.8 
	433.8,268.7 433.6,268.6 433.5,268.5 433.3,268.5 433.2,268.4 433,268.4 432.9,268.3 432.7,268.3 432.6,268.3 432.4,268.3 
	432.3,268.3 432.1,268.4 432,268.4 431.8,268.5 431.7,268.5 431.5,268.6 431.4,268.7 431.3,268.8 431.1,268.9 431,269 430.9,269.1 
	430.8,269.3 430.6,269.4 430.5,269.6 430.4,269.7 430.3,269.9 430.2,270.1 430.1,270.2 430.1,270.4 430,270.6 429.9,270.8 
	429.8,271 429.8,271.2 429.7,271.5 429.7,271.7 429.6,271.9 429.6,272.1 429.6,272.4 429.6,272.6 429.5,272.9 429.5,273.1 
	429.5,273.4 429.6,273.6 429.6,273.8 429.6,274.1 429.6,274.3 429.7,274.5 429.7,274.8 429.8,275 429.8,275.2 429.9,275.4 
	430,275.6 430.1,275.8 430.1,276 430.2,276.1 430.3,276.3 430.4,276.5 430.5,276.6 430.6,276.8 430.8,276.9 430.9,277.1 431,277.2 
	431.1,277.3 431.3,277.4 431.4,277.5 431.5,277.6 431.7,277.7 431.8,277.7 432,277.8 432.1,277.8 432.3,277.9 432.4,277.9 
	432.6,277.9 432.7,277.9 432.9,277.9 433,277.8 433.2,277.8 433.3,277.7 433.5,277.7 433.6,277.6 433.8,277.5 433.9,277.4 
	434,277.3 434.2,277.2 434.3,277.1 434.4,276.9 434.5,276.8 434.6,276.6 434.7,276.5 434.8,276.3 434.9,276.1 435,276 435.1,275.8 
	435.2,275.6 435.3,275.4 435.3,275.2 435.4,275 435.4,274.8 435.5,274.5 435.5,274.3 435.6,274.1 435.6,273.8 435.6,273.6 
	435.6,273.4 "/>
<polyline fill="none" stroke="#131E1F" stroke-width="0.9638" stroke-miterlimit="2.6131" points="435.6,273.1 435.6,272.9 
	435.6,272.6 435.6,272.4 435.6,272.1 435.5,271.9 435.5,271.7 435.4,271.5 435.4,271.2 435.3,271 435.3,270.8 435.2,270.6 
	435.1,270.4 435,270.2 434.9,270.1 434.8,269.9 434.7,269.7 434.6,269.6 434.5,269.4 434.4,269.3 434.3,269.1 434.2,269 434,268.9 
	433.9,268.8 433.8,268.7 433.6,268.6 433.5,268.5 433.3,268.5 433.2,268.4 433,268.4 432.9,268.3 432.7,268.3 432.6,268.3 
	432.4,268.3 432.3,268.3 432.1,268.4 432,268.4 431.8,268.5 431.7,268.5 431.5,268.6 431.4,268.7 431.3,268.8 431.1,268.9 431,269 
	430.9,269.1 430.8,269.3 430.6,269.4 430.5,269.6 430.4,269.7 430.3,269.9 430.2,270.1 430.1,270.2 430.1,270.4 430,270.6 
	429.9,270.8 429.8,271 429.8,271.2 429.7,271.5 429.7,271.7 429.6,271.9 429.6,272.1 429.6,272.4 429.6,272.6 429.5,272.9 
	429.5,273.1 429.5,273.4 429.6,273.6 429.6,273.8 429.6,274.1 429.6,274.3 429.7,274.5 429.7,274.8 429.8,275 429.8,275.2 
	429.9,275.4 430,275.6 430.1,275.8 430.1,276 430.2,276.1 430.3,276.3 430.4,276.5 430.5,276.6 430.6,276.8 430.8,276.9 
	430.9,277.1 431,277.2 431.1,277.3 431.3,277.4 431.4,277.5 431.5,277.6 431.7,277.7 431.8,277.7 432,277.8 432.1,277.8 
	432.3,277.9 432.4,277.9 432.6,277.9 432.7,277.9 432.9,277.9 433,277.8 433.2,277.8 433.3,277.7 433.5,277.7 433.6,277.6 
	433.8,277.5 433.9,277.4 434,277.3 434.2,277.2 434.3,277.1 434.4,276.9 434.5,276.8 434.6,276.6 434.7,276.5 434.8,276.3 
	434.9,276.1 435,276 435.1,275.8 435.2,275.6 435.3,275.4 435.3,275.2 435.4,275 435.4,274.8 435.5,274.5 435.5,274.3 435.6,274.1 
	435.6,273.8 435.6,273.6 435.6,273.4 435.6,273.1 "/>
<polygon fill="#B5B5B6" stroke="#000000" stroke-miterlimit="10" points="460.1,301.5 460.9,302.2 463.6,304.5 466.2,307.7 
	467,311.1 467,314.7 467,318.5 467,322.4 467,326.4 466.8,330 466.2,332.9 464.7,334.9 461.8,335.5 458.3,335.6 454.8,335.9 
	451.4,336.3 448.3,336.4 445.1,336.4 441.7,336.4 438.4,336.4 435.2,336.4 432.1,335.8 429.1,333.8 426.6,331 425.1,328.1 
	424.3,324.9 423.4,321.6 422.8,318.2 422.5,315 423.1,312.1 424.7,309.3 427.1,307.3 429.9,306.3 433,306.1 436.1,306.3 
	439.1,306.6 442.2,306.7 445.2,306.6 448.3,306.3 451.2,305.6 454,304.5 455.9,303.3 456.6,302.4 "/>
<polyline fill="none" stroke="#000000" stroke-width="3" stroke-miterlimit="2.6131" points="460.1,301.5 460.9,302.2 463.6,304.5 
	466.2,307.7 467,311.1 467,314.7 467,318.5 467,322.4 467,326.4 466.8,330 466.2,332.9 464.7,334.9 461.8,335.5 458.3,335.6 
	454.8,335.9 451.4,336.3 448.3,336.4 445.1,336.4 441.7,336.4 438.4,336.4 435.2,336.4 432.1,335.8 429.1,333.8 426.6,331 
	425.1,328.1 424.3,324.9 423.4,321.6 422.8,318.2 422.5,315 423.1,312.1 424.7,309.3 427.1,307.3 429.9,306.3 433,306.1 
	436.1,306.3 439.1,306.6 442.2,306.7 445.2,306.6 448.3,306.3 451.2,305.6 454,304.5 455.9,303.3 456.6,302.4 "/>
<polygon fill="#FFFFFF" points="452.2,305.9 451.3,305.9 449.6,305.9 "/>
<polyline fill="none" stroke="#131E1F" stroke-width="3" stroke-miterlimit="2.6131" points="452.2,305.9 451.3,305.9 449.6,305.9 
	"/>
<polygon fill="#FFFFFF" stroke="#000000" stroke-miterlimit="10" points="451.3,305.9 444.4,332 433.9,305.9 "/>
<polygon fill="none" stroke="#000000" stroke-width="3" stroke-miterlimit="2.6131" points="451.3,305.9 444.4,332 433.9,305.9 "/>
<polygon fill="#71ACD9" stroke="#000000" stroke-miterlimit="10" points="443.5,306.7 442.8,306.7 442.6,306.7 442.6,308.2 
	442.6,312.8 442.6,318.3 442.6,322.4 442.8,324.4 443.5,323.3 444.1,320.6 444.4,317.6 444.5,314.6 444.8,311.5 445,309 
	444.8,307.6 444.2,306.9 "/>
<polygon fill="#FFFFFF" stroke="#000000" stroke-width="3" stroke-miterlimit="2.6131" points="443.5,306.7 442.8,306.7 
	442.6,306.7 442.6,308.2 442.6,312.8 442.6,318.3 442.6,322.4 442.8,324.4 443.5,323.3 444.1,320.6 444.4,317.6 444.5,314.6 
	444.8,311.5 445,309 444.8,307.6 444.2,306.9 "/>
<polygon fill="#FFFFFF" stroke="#000000" stroke-miterlimit="10" points="433.4,298.4 433.1,298.1 433,298 433,298.9 433,301.5 
	433,304.9 433,308 433.8,310.2 436.1,310.6 438.6,309.6 440,307.2 440.1,304.2 438.7,301.5 436.7,299.5 435.2,298.9 434.1,298.8 "/>
<polygon fill="none" stroke="#000000" stroke-width="3" stroke-miterlimit="2.6131" points="433.4,298.4 433.1,298.1 433,298 
	433,298.9 433,301.5 433,304.9 433,308 433.8,310.2 436.1,310.6 438.6,309.6 440,307.2 440.1,304.2 438.7,301.5 436.7,299.5 
	435.2,298.9 434.1,298.8 "/>
<polygon fill="#C6E2E0" points="447,299.3 447,298.9 446.9,298.5 446.9,298.2 446.8,297.8 446.7,297.5 446.6,297.1 446.4,296.8 
	446.3,296.4 446.1,296.1 445.9,295.8 445.7,295.5 445.5,295.2 445.2,294.9 445,294.6 444.7,294.3 444.4,294.1 444.1,293.8 
	443.8,293.6 443.5,293.4 443.1,293.1 442.8,293 442.4,292.8 442,292.6 441.6,292.5 441.2,292.3 440.8,292.2 440.4,292.1 440,292 
	439.6,292 439.1,291.9 438.7,291.9 438.3,291.9 437.8,291.9 437.4,291.9 436.9,292 436.5,292 436.1,292.1 435.7,292.2 435.3,292.3 
	434.9,292.5 434.5,292.6 434.1,292.8 433.7,293 433.4,293.1 433,293.4 432.7,293.6 432.4,293.8 432.1,294.1 431.8,294.3 
	431.5,294.6 431.3,294.9 431,295.2 430.8,295.5 430.6,295.8 430.4,296.1 430.2,296.4 430.1,296.8 429.9,297.1 429.8,297.5 
	429.7,297.8 429.6,298.2 429.6,298.5 429.5,298.9 429.5,299.3 429.5,299.7 429.6,300.1 429.6,300.4 429.7,300.8 429.8,301.2 
	429.9,301.5 430.1,301.9 430.2,302.2 430.4,302.5 430.6,302.8 430.8,303.2 431,303.5 431.3,303.8 431.5,304 431.8,304.3 
	432.1,304.6 432.4,304.8 432.7,305 433,305.3 433.4,305.5 433.7,305.7 434.1,305.8 434.5,306 434.9,306.2 435.3,306.3 435.7,306.4 
	436.1,306.5 436.5,306.6 436.9,306.7 437.4,306.7 437.8,306.7 438.3,306.7 438.7,306.7 439.1,306.7 439.6,306.7 440,306.6 
	440.4,306.5 440.8,306.4 441.2,306.3 441.6,306.2 442,306 442.4,305.8 442.8,305.7 443.1,305.5 443.5,305.3 443.8,305 444.1,304.8 
	444.4,304.6 444.7,304.3 445,304 445.2,303.8 445.5,303.5 445.7,303.2 445.9,302.8 446.1,302.5 446.3,302.2 446.4,301.9 
	446.6,301.5 446.7,301.2 446.8,300.8 446.9,300.4 446.9,300.1 447,299.7 "/>
<path fill="#B5B5B6" stroke="#131E1F" stroke-width="3" stroke-miterlimit="2.6131" d="M447,299.3l0-0.4l0-0.4l-0.1-0.4l-0.1-0.4
	l-0.1-0.4l-0.1-0.4l-0.1-0.4l-0.2-0.3l-0.2-0.3l-0.2-0.3l-0.2-0.3l-0.2-0.3l-0.2-0.3l-0.3-0.3l-0.3-0.3l-0.3-0.3l-0.3-0.2l-0.3-0.2
	l-0.3-0.2l-0.3-0.2l-0.4-0.2l-0.4-0.2l-0.4-0.2l-0.4-0.1l-0.4-0.1l-0.4-0.1l-0.4-0.1L440,292l-0.4-0.1l-0.4,0l-0.4,0l-0.4,0l-0.4,0
	l-0.4,0l-0.4,0l-0.4,0.1l-0.4,0.1l-0.4,0.1l-0.4,0.1l-0.4,0.1l-0.4,0.1l-0.4,0.2l-0.4,0.2l-0.4,0.2l-0.3,0.2l-0.3,0.2l-0.3,0.2
	l-0.3,0.2l-0.3,0.3l-0.3,0.3l-0.3,0.3l-0.2,0.3l-0.2,0.3l-0.2,0.3l-0.2,0.3l-0.2,0.3l-0.2,0.3l-0.1,0.4l-0.1,0.4l-0.1,0.4l-0.1,0.4
	l-0.1,0.4l0,0.4l0,0.4l0,0.4l0,0.4l0.1,0.4l0.1,0.4l0.1,0.4l0.1,0.4l0.1,0.3l0.2,0.3l0.2,0.3l0.2,0.3l0.2,0.3l0.2,0.3l0.2,0.3
	l0.3,0.3l0.3,0.3l0.3,0.3l0.3,0.2l0.3,0.2l0.3,0.2l0.3,0.2l0.4,0.2l0.4,0.2l0.4,0.2l0.4,0.2l0.4,0.1l0.4,0.1l0.4,0.1l0.4,0.1
	l0.4,0.1l0.4,0.1l0.4,0l0.4,0l0.4,0l0.4,0l0.4-0.1l0.4-0.1l0.4-0.1l0.4-0.1l0.4-0.1l0.4-0.1l0.4-0.2l0.4-0.2l0.4-0.2l0.4-0.2
	l0.3-0.2l0.3-0.2l0.3-0.2l0.3-0.2l0.3-0.3l0.3-0.3l0.3-0.3l0.2-0.3l0.2-0.3l0.2-0.3l0.2-0.3l0.2-0.3l0.2-0.3l0.1-0.3l0.1-0.4
	l0.1-0.4l0.1-0.4l0.1-0.4l0-0.4L447,299.3"/>
<polygon fill="#B5B5B6" stroke="#000000" stroke-miterlimit="10" points="446.1,297.1 446.1,296.5 446.1,296.2 446.8,296.5 
	448.7,297.1 451.6,298.1 454.8,299.3 458.1,300.7 460.9,302.4 463.3,304.5 465.3,307.6 466.2,310.9 465.3,313.7 463.2,316.1 
	460.5,318.1 457.5,319.3 454.4,319.4 451.3,318.7 448.3,317.6 445.3,316 442.6,313.7 441,311 441.3,308 442.7,305 444.4,301.9 
	445.7,299.5 446.1,298.4 446.1,297.9 "/>
<polygon fill="none" stroke="#000000" stroke-width="3" stroke-miterlimit="2.6131" points="446.1,297.1 446.1,296.5 446.1,296.2 
	446.8,296.5 448.7,297.1 451.6,298.1 454.8,299.3 458.1,300.7 460.9,302.4 463.3,304.5 465.3,307.6 466.2,310.9 465.3,313.7 
	463.2,316.1 460.5,318.1 457.5,319.3 454.4,319.4 451.3,318.7 448.3,317.6 445.3,316 442.6,313.7 441,311 441.3,308 442.7,305 
	444.4,301.9 445.7,299.5 446.1,298.4 446.1,297.9 "/>
<polygon fill="#FFFFFF" stroke="#000000" stroke-miterlimit="10" points="429.5,298.4 430.2,298.1 430.4,298 429.6,297.7 
	427.3,296.7 424.3,295.6 421.2,294.9 418.3,295.2 415.6,296.7 414.2,298.8 415.6,300.6 417.1,302.6 416.4,305 415.9,307.5 
	417.7,309.8 420.8,311 423.8,310.2 426.9,308.9 429.9,308.5 432.1,307.7 432.6,305.4 431.8,302.7 430.4,300.6 429.3,299.2 "/>
<polygon fill="none" stroke="#000000" stroke-width="3" stroke-miterlimit="2.6131" points="429.5,298.4 430.2,298.1 430.4,298 
	429.6,297.7 427.3,296.7 424.3,295.6 421.2,294.9 418.3,295.2 415.6,296.7 414.2,298.8 415.6,300.6 417.1,302.6 416.4,305 
	415.9,307.5 417.7,309.8 420.8,311 423.8,310.2 426.9,308.9 429.9,308.5 432.1,307.7 432.6,305.4 431.8,302.7 430.4,300.6 
	429.3,299.2 "/>
<polygon points="475.4,276.2 475,276.2 474.9,276.2 475.2,275.4 476.2,273.1 477.3,270.1 478,267 478.4,264 478.8,260.9 
	479.2,257.8 479.3,254.8 478.8,251.8 477.5,249.1 475.5,246.5 472.7,243.9 469.7,241.8 466.6,240.8 463.7,240.6 460.9,240.8 
	458.2,240.8 455.3,239.9 451.9,239 447.8,238.6 443.7,239.1 440,240.4 436.5,241.4 433,240.8 429.6,239.6 426.5,238.6 423.6,238.8 
	421.2,241.2 419.6,244.8 419,248.7 419.4,252.3 420.4,255.2 422.2,257.5 425.1,259.1 428.9,259.5 433,257.8 438.1,255.6 
	444.8,254.3 450.7,254.6 453.5,257 455.2,259.3 457.5,259.1 459.4,258.8 460.1,260.5 459.8,263.2 459.2,266.1 459.2,268.4 
	460.9,269.2 463.6,269.4 466.2,270.1 467.9,271.5 467.9,274 467.6,276.9 468.4,279.7 470,281.7 472.3,282.7 474.3,282.3 
	474.9,280.1 475,277.7 475.4,276.6 475.6,276.3 "/>
<polygon stroke="#131E1F" stroke-width="0.9638" stroke-miterlimit="2.6131" points="475.4,276.2 475,276.2 474.9,276.2 
	475.2,275.4 476.2,273.1 477.3,270.1 478,267 478.4,264 478.8,260.9 479.2,257.8 479.3,254.8 478.8,251.8 477.5,249.1 475.5,246.5 
	472.7,243.9 469.7,241.8 466.6,240.8 463.7,240.6 460.9,240.8 458.2,240.8 455.3,239.9 451.9,239 447.8,238.6 443.7,239.1 
	440,240.4 436.5,241.4 433,240.8 429.6,239.6 426.5,238.6 423.6,238.8 421.2,241.2 419.6,244.8 419,248.7 419.4,252.3 420.4,255.2 
	422.2,257.5 425.1,259.1 428.9,259.5 433,257.8 438.1,255.6 444.8,254.3 450.7,254.6 453.5,257 455.2,259.3 457.5,259.1 
	459.4,258.8 460.1,260.5 459.8,263.2 459.2,266.1 459.2,268.4 460.9,269.2 463.6,269.4 466.2,270.1 467.9,271.5 467.9,274 
	467.6,276.9 468.4,279.7 470,281.7 472.3,282.7 474.3,282.3 474.9,280.1 475,277.7 475.4,276.6 475.6,276.3 "/>
<polygon fill="#FFFFFF" stroke="#000000" stroke-miterlimit="10" points="460.1,349.5 459.3,349.6 457,349.9 454.2,351 451.8,353.4 
	451,355.9 453.1,357.3 456.5,358 459.6,358.2 462.4,357.5 464.4,355.2 465,352.8 463.1,351.7 460.4,351.3 458.3,351.2 456.6,351.4 
	454.8,352.1 "/>
<polyline fill="none" stroke="#000000" stroke-width="3" stroke-miterlimit="2.6131" points="460.1,349.5 459.3,349.6 457,349.9 
	454.2,351 451.8,353.4 451,355.9 453.1,357.3 456.5,358 459.6,358.2 462.4,357.5 464.4,355.2 465,352.8 463.1,351.7 460.4,351.3 
	458.3,351.2 456.6,351.4 454.8,352.1 "/>
<polygon fill="#FFFFFF" stroke="#000000" stroke-miterlimit="10" points="438.3,353.8 438.3,354.5 438.3,354.7 437.9,354.1 
	436.9,352.1 435.2,350.5 432.6,350.8 429.9,352.6 428.2,355.6 428.1,358.3 430.4,359.5 433.7,359.4 436.5,358.2 438.4,356.5 
	438.7,354.7 438.4,353.6 "/>
<polygon fill="none" stroke="#000000" stroke-width="3" stroke-miterlimit="2.6131" points="438.3,353.8 438.3,354.5 438.3,354.7 
	437.9,354.1 436.9,352.1 435.2,350.5 432.6,350.8 429.9,352.6 428.2,355.6 428.1,358.3 430.4,359.5 433.7,359.4 436.5,358.2 
	438.4,356.5 438.7,354.7 438.4,353.6 "/>
<circle fill="#FFFFFF" stroke="#000000" stroke-miterlimit="2.6131" cx="432.6" cy="274" r="0.6"/>
<circle fill="#FFFFFF" stroke="#000000" stroke-miterlimit="2.6131" cx="448.7" cy="274" r="0.6"/>
<path fill="none" stroke="#000000" stroke-width="4" stroke-miterlimit="10" d="M374.2,236c-3-1.1-6.5,0.4-8.4,3
	c-1.9,2.5-2.5,5.8-2.7,9c-0.1,1.7,0,3.5,0.7,5c0.5,1.2,1.4,2.2,2.3,3.1c2.6,2.6,6,4.4,9.7,5.1c4,0.8,8.1,0.3,12,1.4
	c3.9,1.1,7.7,4.5,7,8.5c1.3,0.8,2.8-0.6,3.7-1.9c1.5-2.4,2.8-5,3.4-7.7c0.5-2.8,0.2-5.8-1.5-8.1c-0.9-1.3-2.2-2.3-3.4-3.3
	c-3.7-3-7.3-6-11-8.9c-1.1-0.9-2.2-1.7-3.5-2.1c-1.1-0.3-2.3-0.2-3.4-0.5C377.3,238,375.9,236.6,374.2,236z"/>
</svg>
