<?xml version="1.0" encoding="utf-8"?>
<!-- Generator: Adobe Illustrator 17.1.0, SVG Export Plug-In . SVG Version: 6.00 Build 0)  -->
<!DOCTYPE svg PUBLIC "-//W3C//DTD SVG 1.1//EN" "http://www.w3.org/Graphics/SVG/1.1/DTD/svg11.dtd">
<svg version="1.1" id="Ebene_1" xmlns="http://www.w3.org/2000/svg" xmlns:xlink="http://www.w3.org/1999/xlink" x="0px" y="0px"
	 viewBox="0 0 100 100" enable-background="new 0 0 100 100" xml:space="preserve">
<circle fill="#B2B2B2" cx="50" cy="50" r="50"/>
<path fill="#13110C" d="M62.5,47.2c0,0-3.4-10.1-5-11.3c0,0,0.7-3.8-2.4-3.8c0,0-2.1-3.2-4.2-2c0,0-1.7,0.1-2-1.1
	c0,0,0.2-2.7-0.3-3.4l5.7-9.2c0.3-0.7,1.8-0.7,1.8-0.7c1.3,0.4,5.6,5.9,5.6,5.9c0-1.8-5.5-7.6-5.5-7.6c0-1.1-1.8-1.8-1.8-1.8
	c-2.9-2.1-7.1-3.1-7.1-3.1s-1,0.1,0.3,0.1c1.3,0,5.5,3.8,5.5,3.8c0.1,0.4-0.1,2.2-0.1,2.2l-6.1,9.9c-0.5,0-0.9,0.2-0.9,0.7
	c0,0-0.3,0.1-0.4,1c0,0-0.7,0.2-0.3,1.1l-1,1.6c-0.4-0.5-2.5-3-5.1-2.6c0,0-4.3,1.4-2.5,5.5c0,0,0.2,1.1,0.7,1.8
	c-0.2,0.4-0.4,0.8-0.5,1.3c-0.5,1.5,0.4,0.6,0.4,0.6l1-1.1c0.4,0.5,1.1,1.4,1.3,1.2c0,0,0.2,0.1,0.5,0.2L38,40
	c-0.2,0.1-0.4,0.4-0.5,0.8c0,0-0.7,0.4-0.7,1.3c0,0-1.3,1.5,1.3,1.8c0,0,0,1.5,1.1,2.1c0,0,2.4,1.4,3.9,1c0,0,2.5-1.1,2.5-2.2
	c0,0,2,3.5,2.7,4.3c0,0,1,2.5,1,4.1c0,0,0.7,4.6,1.1,5.5c0,0,0.1,2.9,0.1,3.8c0,0-0.6,10.2,0.4,12.5c0,0,2.1,3.9,2.1,4.9
	c0,0,0,1.5-1.5,2.4c0,0-3.1,2.8,1,2.4l2.1-1.3c0,0,0.6,2.8,0,3.6c0,0-0.8,1.8-2.9,2c0,0-3.2,2-0.4,2.1c0,0,4.3-0.6,5-0.1
	c0,0,5.3,0,5.3-1.7l-0.7-2.5c0,0-0.1-11.3-1.3-12.6c0,0,0-7.1-0.7-8.3c0,0,4.5-8.7,4.3-9.7C63.2,56,64.9,49.9,62.5,47.2z M40.8,42.4
	h-1.3c0,0,1-1.8,0.1-2.3l2.1-3.3c0.2,0,0.5,0.1,0.6,0.1C42.4,36.8,40.7,40.3,40.8,42.4z M45.7,31l-0.2-0.2l0.9-1.5
	c0.3,0.2,0.7,0.5,1,0.6l0.6,0.8L45.7,31z"/>
</svg>
