<?xml version="1.0" encoding="utf-8"?>
<!-- Generator: Adobe Illustrator 17.1.0, SVG Export Plug-In . SVG Version: 6.00 Build 0)  -->
<!DOCTYPE svg PUBLIC "-//W3C//DTD SVG 1.1//EN" "http://www.w3.org/Graphics/SVG/1.1/DTD/svg11.dtd">
<svg version="1.1" id="Ebene_1" xmlns="http://www.w3.org/2000/svg" xmlns:xlink="http://www.w3.org/1999/xlink" x="0px" y="0px"
	 viewBox="0 0 100 100" enable-background="new 0 0 100 100" xml:space="preserve">
<circle fill="#B2B2B2" cx="50" cy="50" r="50"/>
<polygon stroke="#131E1F" stroke-width="0.9638" stroke-miterlimit="2.6131" points="75,68 74.6,68 74.5,68 74.8,67.3 75.8,65 
	76.9,61.9 77.6,58.8 78,55.8 78.4,52.7 78.8,49.7 78.9,46.6 78.4,43.7 77.1,41 75.1,38.3 72.3,35.7 69.3,33.7 66.2,32.7 63.3,32.5 
	60.6,32.7 57.8,32.7 54.9,31.8 51.5,30.8 47.5,30.5 43.3,30.9 39.6,32.2 36.1,33.2 32.6,32.7 29.3,31.5 26.1,30.5 23.2,30.7 
	20.8,33.1 19.2,36.7 18.7,40.5 19,44.1 20,47.1 21.8,49.4 24.8,51 28.5,51.3 32.6,49.7 37.8,47.5 44.4,46.2 50.3,46.4 53.1,48.8 
	54.8,51.1 57.1,51 59,50.7 59.7,52.3 59.5,55 58.8,58 58.8,60.3 60.6,61 63.2,61.3 65.8,61.9 67.6,63.3 67.5,65.8 67.2,68.8 
	68,71.5 69.6,73.6 71.9,74.6 73.9,74.1 74.5,71.9 74.6,69.5 75,68.5 75.2,68.1 "/>
</svg>
