<?xml version="1.0" encoding="utf-8"?>
<!-- Generator: Adobe Illustrator 17.0.1, SVG Export Plug-In . SVG Version: 6.00 Build 0)  -->
<!DOCTYPE svg PUBLIC "-//W3C//DTD SVG 1.1//EN" "http://www.w3.org/Graphics/SVG/1.1/DTD/svg11.dtd">
<svg version="1.1" id="レイヤー_1" xmlns="http://www.w3.org/2000/svg" xmlns:xlink="http://www.w3.org/1999/xlink" x="0px"
	 y="0px" width="841.89px" height="595.28px" viewBox="0 0 841.89 595.28" enable-background="new 0 0 841.89 595.28"
	 xml:space="preserve">
<rect x="349.813" y="227.318" fill="#A660A3" stroke="#A660A3" stroke-width="2" stroke-miterlimit="10" width="141.732" height="141.732"/>
<rect x="367.339" y="314.877" stroke="#FFFFFF" stroke-width="3" stroke-miterlimit="10" width="31.189" height="41.423"/>
<rect x="360.029" y="305.861" stroke="#FFFFFF" stroke-width="3" stroke-miterlimit="10" width="51.413" height="13.645"/>
<polyline fill="none" stroke="#FFFFFF" stroke-width="3" stroke-miterlimit="10" points="379.724,303.945 382.933,303.945 
	388.224,303.945 "/>
<path fill="none" stroke="#FFFFFF" stroke-width="3" stroke-miterlimit="10" d="M382.933,303.945v-11.667
	c0,0,10.457-9.833,14.79-9.667"/>
<ellipse stroke="#FFFFFF" stroke-miterlimit="10" cx="397.813" cy="282.362" rx="3.577" ry="4.417"/>
<polygon fill-rule="evenodd" clip-rule="evenodd" fill="#B5B5B6" stroke="#000000" stroke-miterlimit="10" points="465.386,335.074 
	465.705,334.762 465.819,334.64 465.819,335.416 465.819,337.706 465.705,340.872 465.386,344.251 464.183,347.295 461.451,349.494 
	458.073,350.696 454.907,350.795 452.495,349.707 451.407,347.295 451.087,344.136 450.973,340.75 450.342,338.239 448.363,337.706 
	446.286,338.795 445.297,341.184 444.764,344.251 443.988,347.295 442.587,349.927 440.076,351.67 437.131,352.317 434.4,351.67 
	432.421,349.806 431.774,346.861 431.774,343.482 431.774,340.317 432.764,337.486 435.709,335.074 439.422,333.217 442.686,332.03 
	445.852,331.375 449.231,331.162 452.609,331.162 455.775,331.162 458.72,331.695 461.451,333.339 463.529,334.975 464.518,335.515 
	464.952,335.416 465.386,335.074 "/>
<polygon fill="none" stroke="#000000" stroke-width="3" stroke-miterlimit="2.6131" points="465.386,335.074 465.705,334.762 
	465.819,334.64 465.819,335.416 465.819,337.706 465.705,340.872 465.386,344.251 464.183,347.295 461.451,349.494 458.073,350.696 
	454.907,350.795 452.495,349.707 451.407,347.295 451.087,344.136 450.973,340.75 450.342,338.239 448.363,337.706 446.286,338.795 
	445.297,341.184 444.764,344.251 443.988,347.295 442.587,349.927 440.076,351.67 437.131,352.317 434.4,351.67 432.421,349.806 
	431.774,346.861 431.774,343.482 431.774,340.317 432.764,337.486 435.709,335.074 439.422,333.217 442.686,332.03 445.852,331.375 
	449.231,331.162 452.609,331.162 455.775,331.162 458.72,331.695 461.451,333.339 463.529,334.975 464.518,335.515 464.952,335.416 
	465.386,335.074 "/>
<polygon fill-rule="evenodd" clip-rule="evenodd" fill="#CAD1E2" stroke="#000000" stroke-miterlimit="10" points="436.142,313.265 
	436.797,312.93 437.01,312.831 436.256,313.364 433.966,315.007 431.021,317.518 428.289,320.684 425.877,324.063 423.921,327.228 
	422.498,330.295 421.745,333.339 420.543,335.751 417.811,336.839 414.334,336.938 410.833,336.398 408.101,334.975 
	406.899,332.464 407.013,329.405 408.223,326.353 410.057,323.294 412.134,320.243 414.645,317.184 417.811,314.14 421.19,311.408 
	424.355,309.331 427.3,308.463 430.032,309.331 432.322,310.974 433.966,312.397 435.153,313.265 436.142,313.265 "/>
<polygon fill="#FFFFFF" stroke="#000000" stroke-width="3" stroke-miterlimit="2.6131" points="436.142,313.265 436.797,312.93 
	437.01,312.831 436.256,313.364 433.966,315.007 431.021,317.518 428.289,320.684 425.877,324.063 423.921,327.228 422.498,330.295 
	421.745,333.339 420.543,335.751 417.811,336.839 414.334,336.938 410.833,336.398 408.101,334.975 406.899,332.464 
	407.013,329.405 408.223,326.353 410.057,323.294 412.134,320.243 414.645,317.184 417.811,314.14 421.19,311.408 424.355,309.331 
	427.3,308.463 430.032,309.331 432.322,310.974 433.966,312.397 435.153,313.265 436.142,313.265 "/>
<polygon fill-rule="evenodd" clip-rule="evenodd" stroke="#FFFFFF" stroke-width="4" stroke-miterlimit="10" points="
	402.98,337.273 425.664,337.273 425.664,314.574 402.98,314.574 402.98,337.273 "/>
<polygon fill="none" stroke="#000000" stroke-width="3" stroke-miterlimit="2.6131" points="402.98,337.273 425.664,337.273 
	425.664,314.574 402.98,314.574 402.98,337.273 "/>
<polygon fill-rule="evenodd" clip-rule="evenodd" fill="#FFFFFF" stroke="#000000" stroke-width="3" stroke-miterlimit="2.6131" points="
	421.745,337.273 421.41,337.273 421.311,337.273 421.532,336.618 422.179,334.64 422.08,332.684 419.987,332.03 416.943,332.129 
	413.877,332.464 411.487,333.438 410.399,335.515 410.833,337.706 413.01,339.015 416.068,339.449 419.12,339.015 421.41,338.239 
	422.179,337.706 422.065,337.372 421.745,337.273 "/>
<polygon fill="none" stroke="#000000" stroke-width="0.9638" stroke-miterlimit="2.6131" points="421.745,337.273 421.41,337.273 
	421.311,337.273 421.532,336.618 422.179,334.64 422.08,332.684 419.987,332.03 416.943,332.129 413.877,332.464 411.487,333.438 
	410.399,335.515 410.833,337.706 413.01,339.015 416.068,339.449 419.12,339.015 421.41,338.239 422.179,337.706 422.065,337.372 
	421.745,337.273 "/>
<polygon fill-rule="evenodd" clip-rule="evenodd" points="473.672,282.279 473.672,281.191 473.672,277.911 473.573,273.756 
	473.239,270.058 472.896,266.679 472.797,263.514 472.463,260.455 471.496,257.403 469.753,254.558 467.128,252.168 
	463.962,250.213 460.584,248.668 456.764,247.702 452.297,247.359 447.808,247.359 443.988,247.359 440.609,247.702 
	437.443,248.668 434.499,250.311 431.774,252.602 429.598,255.334 428.289,258.279 427.643,261.322 427.422,264.389 
	427.643,267.433 428.289,270.499 428.822,273.543 428.723,276.61 428.076,279.654 426.988,282.72 425.999,285.764 425.664,288.823 
	425.877,291.989 426.532,295.375 428.053,298.654 430.899,301.485 434.286,303.776 437.443,305.419 440.609,306.386 
	443.988,306.721 447.374,306.607 450.539,306.287 453.819,305.518 457.517,304.095 461.451,302.353 465.386,300.61 468.764,298.654 
	471.062,296.242 472.364,293.412 472.797,290.132 472.896,286.966 473.239,284.455 473.573,282.819 473.672,282.279 "/>
<polygon fill="#FFFFFF" stroke="#000000" stroke-width="3" stroke-miterlimit="2.6131" points="473.672,282.279 473.672,281.191 
	473.672,277.911 473.573,273.756 473.239,270.058 472.896,266.679 472.797,263.514 472.463,260.455 471.496,257.403 
	469.753,254.558 467.128,252.168 463.962,250.213 460.584,248.668 456.764,247.702 452.297,247.359 447.808,247.359 
	443.988,247.359 440.609,247.702 437.443,248.668 434.499,250.311 431.774,252.602 429.598,255.334 428.289,258.279 
	427.643,261.322 427.422,264.389 427.643,267.433 428.289,270.499 428.822,273.543 428.723,276.61 428.076,279.654 426.988,282.72 
	425.999,285.764 425.664,288.823 425.877,291.989 426.532,295.375 428.053,298.654 430.899,301.485 434.286,303.776 
	437.443,305.419 440.609,306.386 443.988,306.721 447.374,306.607 450.539,306.287 453.819,305.518 457.517,304.095 
	461.451,302.353 465.386,300.61 468.764,298.654 471.062,296.242 472.364,293.412 472.797,290.132 472.896,286.966 473.239,284.455 
	473.573,282.819 473.672,282.279 "/>
<polygon fill-rule="evenodd" clip-rule="evenodd" fill="#B5B5B6" points="454.831,265.873 454.831,265.873 455.585,265.652 
	455.098,263.986 454.352,264.206 454.831,265.873 454.352,264.206 454.245,264.244 454.162,264.282 454.078,264.328 
	454.002,264.381 453.941,264.442 453.888,264.511 453.834,264.579 453.796,264.648 453.766,264.724 453.743,264.8 453.728,264.876 
	453.72,264.96 453.72,265.043 453.728,265.119 453.736,265.203 453.758,265.279 453.781,265.355 453.812,265.431 453.85,265.508 
	453.895,265.568 453.949,265.637 454.002,265.69 454.063,265.743 454.131,265.789 454.2,265.835 454.276,265.865 454.359,265.888 
	454.443,265.903 454.534,265.911 454.633,265.911 454.725,265.896 454.831,265.873 "/>
<polygon fill-rule="evenodd" clip-rule="evenodd" fill="#B5B5B6" points="452.054,264.861 452.533,266.527 454.831,265.873 
	454.352,264.206 452.061,264.853 452.054,264.861 452.061,264.853 451.955,264.891 451.864,264.929 451.788,264.975 
	451.711,265.028 451.651,265.089 451.59,265.157 451.544,265.226 451.506,265.294 451.475,265.371 451.453,265.447 451.43,265.53 
	451.422,265.606 451.422,265.69 451.43,265.774 451.437,265.85 451.46,265.926 451.483,266.01 451.514,266.086 451.552,266.154 
	451.597,266.223 451.651,266.284 451.704,266.345 451.765,266.398 451.833,266.443 451.902,266.489 451.978,266.52 452.061,266.542 
	452.145,266.558 452.237,266.565 452.335,266.565 452.434,266.55 452.533,266.527 452.054,264.861 "/>
<polygon fill-rule="evenodd" clip-rule="evenodd" fill="#B5B5B6" points="449.086,265.736 449.596,267.395 452.541,266.527 
	452.054,264.861 449.101,265.728 449.086,265.736 449.101,265.728 449.002,265.766 448.911,265.804 448.835,265.858 
	448.759,265.911 448.698,265.972 448.645,266.033 448.591,266.101 448.553,266.17 448.523,266.246 448.5,266.329 448.485,266.406 
	448.477,266.489 448.477,266.565 448.485,266.649 448.5,266.725 448.515,266.809 448.546,266.885 448.576,266.961 448.614,267.03 
	448.66,267.098 448.706,267.159 448.766,267.22 448.827,267.273 448.896,267.319 448.964,267.357 449.04,267.387 449.124,267.418 
	449.208,267.433 449.299,267.441 449.39,267.433 449.489,267.418 449.596,267.395 449.086,265.736 "/>
<polygon fill-rule="evenodd" clip-rule="evenodd" fill="#B5B5B6" points="446.811,268.278 446.879,268.255 449.611,267.387 
	449.086,265.736 446.362,266.603 446.811,268.278 446.362,266.603 446.263,266.641 446.172,266.687 446.088,266.733 446.02,266.794 
	445.959,266.855 445.905,266.915 445.86,266.992 445.822,267.06 445.791,267.136 445.768,267.212 445.753,267.296 445.753,267.372 
	445.753,267.456 445.761,267.532 445.776,267.616 445.799,267.692 445.822,267.768 445.86,267.844 445.898,267.912 445.943,267.981 
	445.997,268.042 446.05,268.103 446.111,268.148 446.179,268.194 446.255,268.232 446.332,268.262 446.415,268.285 446.499,268.3 
	446.59,268.308 446.682,268.3 446.78,268.285 446.879,268.255 446.811,268.278 "/>
<polygon fill-rule="evenodd" clip-rule="evenodd" fill="#B5B5B6" points="444.147,268.597 444.84,268.734 446.811,268.278 
	446.43,266.588 444.452,267.037 444.147,268.597 444.452,267.037 444.345,267.068 444.254,267.106 444.17,267.151 444.094,267.197 
	444.026,267.258 443.972,267.319 443.919,267.38 443.874,267.448 443.843,267.524 443.813,267.6 443.79,267.676 443.782,267.76 
	443.775,267.836 443.775,267.92 443.782,268.004 443.797,268.08 443.82,268.156 443.843,268.232 443.881,268.308 443.919,268.376 
	443.965,268.445 444.018,268.506 444.079,268.567 444.14,268.612 444.208,268.658 444.284,268.696 444.368,268.726 444.452,268.742 
	444.543,268.757 444.634,268.757 444.733,268.749 444.84,268.734 444.147,268.597 "/>
<polygon fill-rule="evenodd" clip-rule="evenodd" fill="#B5B5B6" points="443.493,268.148 444.147,268.597 445.137,267.174 
	444.49,266.718 443.493,268.148 "/>
<polygon fill-rule="evenodd" clip-rule="evenodd" fill="#B5B5B6" points="437.01,267.433 436.355,267.113 434.4,266.124 
	432.208,265.036 430.899,264.389 430.032,263.833 429.164,263.08 437.01,267.433 "/>
<polygon fill-rule="evenodd" clip-rule="evenodd" fill="#B5B5B6" points="435.967,267.889 435.982,267.897 436.637,268.217 
	437.39,266.649 436.736,266.337 435.967,267.889 436.736,266.337 436.637,266.291 436.546,266.261 436.454,266.246 436.363,266.238 
	436.272,266.238 436.188,266.246 436.112,266.268 436.028,266.299 435.96,266.329 435.891,266.375 435.823,266.421 435.762,266.474 
	435.709,266.535 435.663,266.596 435.617,266.664 435.579,266.74 435.541,266.816 435.518,266.892 435.495,266.969 435.488,267.052 
	435.48,267.128 435.488,267.212 435.495,267.288 435.511,267.372 435.541,267.448 435.572,267.524 435.617,267.593 435.67,267.669 
	435.731,267.73 435.807,267.791 435.891,267.844 435.982,267.897 435.967,267.889 "/>
<polygon fill-rule="evenodd" clip-rule="evenodd" fill="#B5B5B6" points="434.788,265.348 434.012,266.9 435.967,267.889 
	436.751,266.337 434.795,265.355 434.788,265.348 434.795,265.355 434.697,265.31 434.598,265.279 434.506,265.256 434.423,265.249 
	434.331,265.249 434.248,265.256 434.164,265.272 434.088,265.302 434.012,265.332 433.943,265.378 433.875,265.424 
	433.821,265.477 433.761,265.538 433.707,265.599 433.662,265.667 433.624,265.736 433.593,265.812 433.563,265.888 
	433.548,265.964 433.532,266.048 433.525,266.124 433.525,266.208 433.532,266.284 433.548,266.367 433.578,266.443 433.608,266.52 
	433.654,266.596 433.707,266.664 433.768,266.733 433.837,266.794 433.92,266.847 434.012,266.9 434.788,265.348 "/>
<polygon fill-rule="evenodd" clip-rule="evenodd" fill="#B5B5B6" points="431.82,265.819 431.82,265.819 434.019,266.908 
	434.788,265.348 432.589,264.26 431.82,265.819 432.589,264.26 432.49,264.222 432.399,264.191 432.307,264.168 432.216,264.161 
	432.132,264.161 432.049,264.168 431.965,264.191 431.889,264.214 431.813,264.252 431.744,264.29 431.676,264.343 431.615,264.397 
	431.561,264.45 431.508,264.518 431.47,264.587 431.424,264.655 431.394,264.731 431.371,264.807 431.348,264.884 431.333,264.967 
	431.333,265.043 431.333,265.127 431.341,265.211 431.356,265.287 431.386,265.363 431.417,265.439 431.462,265.515 
	431.516,265.584 431.577,265.652 431.645,265.713 431.729,265.766 431.82,265.819 "/>
<polygon fill-rule="evenodd" clip-rule="evenodd" fill="#B5B5B6" points="430.435,265.119 430.511,265.165 431.82,265.819 
	432.596,264.26 431.287,263.605 430.435,265.119 431.287,263.605 431.188,263.567 431.097,263.537 431.006,263.514 430.914,263.506 
	430.823,263.506 430.739,263.514 430.663,263.537 430.587,263.56 430.511,263.598 430.443,263.636 430.374,263.681 430.313,263.735 
	430.26,263.795 430.207,263.864 430.161,263.925 430.123,264.001 430.093,264.077 430.062,264.153 430.039,264.229 430.032,264.313 
	430.024,264.389 430.024,264.473 430.032,264.549 430.055,264.632 430.077,264.709 430.108,264.785 430.154,264.861 
	430.207,264.929 430.268,264.998 430.336,265.059 430.42,265.112 430.511,265.165 430.435,265.119 "/>
<polygon fill-rule="evenodd" clip-rule="evenodd" fill="#B5B5B6" points="429.461,264.488 429.568,264.564 430.435,265.119 
	431.364,263.658 430.496,263.103 429.461,264.488 430.496,263.103 430.405,263.05 430.313,263.012 430.222,262.981 430.138,262.958 
	430.047,262.951 429.963,262.951 429.88,262.966 429.804,262.981 429.727,263.012 429.651,263.042 429.583,263.08 429.514,263.126 
	429.453,263.179 429.4,263.24 429.347,263.301 429.301,263.369 429.256,263.438 429.225,263.514 429.195,263.59 429.172,263.666 
	429.157,263.742 429.157,263.826 429.157,263.91 429.164,263.986 429.18,264.069 429.202,264.145 429.24,264.222 429.286,264.298 
	429.339,264.366 429.408,264.435 429.476,264.503 429.568,264.564 429.461,264.488 "/>
<polygon fill-rule="evenodd" clip-rule="evenodd" fill="#B5B5B6" points="428.594,263.735 429.461,264.488 430.602,263.179 
	429.727,262.426 428.594,263.735 "/>
<polygon fill-rule="evenodd" clip-rule="evenodd" fill="#FFFFFF" stroke="#000000" stroke-miterlimit="2.6131" points="
	453.599,273.109 453.599,272.858 453.583,272.622 453.568,272.379 453.538,272.143 453.507,271.915 453.462,271.686 
	453.416,271.466 453.363,271.245 453.294,271.032 453.226,270.827 453.157,270.629 453.074,270.431 452.99,270.248 452.899,270.066 
	452.8,269.891 452.701,269.723 452.594,269.571 452.48,269.419 452.366,269.274 452.244,269.137 452.122,269.016 451.993,268.902 
	451.864,268.795 451.727,268.696 451.59,268.612 451.445,268.536 451.3,268.475 451.148,268.422 451.004,268.376 450.851,268.346 
	450.692,268.331 450.539,268.323 450.38,268.331 450.22,268.346 450.068,268.376 449.915,268.422 449.771,268.475 449.626,268.536 
	449.482,268.612 449.345,268.696 449.208,268.795 449.078,268.902 448.949,269.016 448.827,269.137 448.706,269.274 
	448.591,269.419 448.477,269.571 448.371,269.723 448.272,269.891 448.173,270.066 448.082,270.248 447.998,270.431 
	447.914,270.629 447.838,270.827 447.777,271.032 447.709,271.245 447.655,271.466 447.61,271.686 447.564,271.915 447.534,272.143 
	447.503,272.379 447.488,272.622 447.473,272.858 447.473,273.109 447.473,273.353 447.488,273.597 447.503,273.833 
	447.534,274.068 447.564,274.304 447.61,274.525 447.655,274.753 447.709,274.966 447.777,275.179 447.838,275.385 447.914,275.583 
	447.998,275.78 448.082,275.971 448.173,276.146 448.272,276.321 448.371,276.488 448.477,276.648 448.591,276.8 448.706,276.937 
	448.827,277.074 448.949,277.196 449.078,277.31 449.208,277.416 449.345,277.515 449.482,277.599 449.626,277.675 449.771,277.744 
	449.915,277.797 450.068,277.835 450.22,277.865 450.38,277.888 450.539,277.888 450.692,277.888 450.851,277.865 451.004,277.835 
	451.148,277.797 451.3,277.744 451.445,277.675 451.59,277.599 451.727,277.515 451.864,277.416 451.993,277.31 452.122,277.196 
	452.244,277.074 452.366,276.937 452.48,276.8 452.594,276.648 452.701,276.488 452.8,276.321 452.899,276.146 452.99,275.971 
	453.074,275.78 453.157,275.583 453.226,275.385 453.294,275.179 453.363,274.966 453.416,274.753 453.462,274.525 453.507,274.304 
	453.538,274.068 453.568,273.833 453.583,273.597 453.599,273.353 453.599,273.109 "/>
<polyline fill="none" stroke="#131E1F" stroke-width="0.9638" stroke-miterlimit="2.6131" points="453.599,273.109 453.599,272.858 
	453.583,272.622 453.568,272.379 453.538,272.143 453.507,271.915 453.462,271.686 453.416,271.466 453.363,271.245 
	453.294,271.032 453.226,270.827 453.157,270.629 453.074,270.431 452.99,270.248 452.899,270.066 452.8,269.891 452.701,269.723 
	452.594,269.571 452.48,269.419 452.366,269.274 452.244,269.137 452.122,269.016 451.993,268.902 451.864,268.795 451.727,268.696 
	451.59,268.612 451.445,268.536 451.3,268.475 451.148,268.422 451.004,268.376 450.851,268.346 450.692,268.331 450.539,268.323 
	450.38,268.331 450.22,268.346 450.068,268.376 449.915,268.422 449.771,268.475 449.626,268.536 449.482,268.612 449.345,268.696 
	449.208,268.795 449.078,268.902 448.949,269.016 448.827,269.137 448.706,269.274 448.591,269.419 448.477,269.571 
	448.371,269.723 448.272,269.891 448.173,270.066 448.082,270.248 447.998,270.431 447.914,270.629 447.838,270.827 
	447.777,271.032 447.709,271.245 447.655,271.466 447.61,271.686 447.564,271.915 447.534,272.143 447.503,272.379 447.488,272.622 
	447.473,272.858 447.473,273.109 447.473,273.353 447.488,273.597 447.503,273.833 447.534,274.068 447.564,274.304 447.61,274.525 
	447.655,274.753 447.709,274.966 447.777,275.179 447.838,275.385 447.914,275.583 447.998,275.78 448.082,275.971 448.173,276.146 
	448.272,276.321 448.371,276.488 448.477,276.648 448.591,276.8 448.706,276.937 448.827,277.074 448.949,277.196 449.078,277.31 
	449.208,277.416 449.345,277.515 449.482,277.599 449.626,277.675 449.771,277.744 449.915,277.797 450.068,277.835 450.22,277.865 
	450.38,277.888 450.539,277.888 450.692,277.888 450.851,277.865 451.004,277.835 451.148,277.797 451.3,277.744 451.445,277.675 
	451.59,277.599 451.727,277.515 451.864,277.416 451.993,277.31 452.122,277.196 452.244,277.074 452.366,276.937 452.48,276.8 
	452.594,276.648 452.701,276.488 452.8,276.321 452.899,276.146 452.99,275.971 453.074,275.78 453.157,275.583 453.226,275.385 
	453.294,275.179 453.363,274.966 453.416,274.753 453.462,274.525 453.507,274.304 453.538,274.068 453.568,273.833 
	453.583,273.597 453.599,273.353 453.599,273.109 "/>
<polygon fill-rule="evenodd" clip-rule="evenodd" fill="#FFFFFF" stroke="#000000" stroke-miterlimit="2.6131" points="
	437.01,273.109 437.01,272.858 436.994,272.622 436.979,272.379 436.949,272.143 436.918,271.915 436.873,271.686 436.827,271.466 
	436.774,271.245 436.713,271.032 436.644,270.827 436.568,270.629 436.492,270.431 436.401,270.248 436.317,270.066 
	436.218,269.891 436.119,269.723 436.013,269.571 435.899,269.419 435.785,269.274 435.663,269.137 435.541,269.016 
	435.412,268.902 435.282,268.795 435.153,268.696 435.008,268.612 434.872,268.536 434.727,268.475 434.575,268.422 434.43,268.376 
	434.278,268.346 434.126,268.331 433.966,268.323 433.806,268.331 433.654,268.346 433.502,268.376 433.357,268.422 
	433.205,268.475 433.061,268.536 432.924,268.612 432.787,268.696 432.65,268.795 432.52,268.902 432.391,269.016 432.269,269.137 
	432.147,269.274 432.033,269.419 431.919,269.571 431.813,269.723 431.714,269.891 431.615,270.066 431.531,270.248 431.44,270.431 
	431.364,270.629 431.287,270.827 431.219,271.032 431.158,271.245 431.105,271.466 431.059,271.686 431.013,271.915 
	430.983,272.143 430.952,272.379 430.937,272.622 430.922,272.858 430.922,273.109 430.922,273.353 430.937,273.597 
	430.952,273.833 430.983,274.068 431.013,274.304 431.059,274.525 431.105,274.753 431.158,274.966 431.219,275.179 
	431.287,275.385 431.364,275.583 431.44,275.78 431.531,275.971 431.615,276.146 431.714,276.321 431.813,276.488 431.919,276.648 
	432.033,276.8 432.147,276.937 432.269,277.074 432.391,277.196 432.52,277.31 432.65,277.416 432.787,277.515 432.924,277.599 
	433.061,277.675 433.205,277.744 433.357,277.797 433.502,277.835 433.654,277.865 433.806,277.888 433.966,277.888 
	434.126,277.888 434.278,277.865 434.43,277.835 434.575,277.797 434.727,277.744 434.872,277.675 435.008,277.599 435.153,277.515 
	435.282,277.416 435.412,277.31 435.541,277.196 435.663,277.074 435.785,276.937 435.899,276.8 436.013,276.648 436.119,276.488 
	436.218,276.321 436.317,276.146 436.401,275.971 436.492,275.78 436.568,275.583 436.644,275.385 436.713,275.179 436.774,274.966 
	436.827,274.753 436.873,274.525 436.918,274.304 436.949,274.068 436.979,273.833 436.994,273.597 437.01,273.353 437.01,273.109 
	"/>
<polyline fill="none" stroke="#131E1F" stroke-width="0.9638" stroke-miterlimit="2.6131" points="437.01,273.109 437.01,272.858 
	436.994,272.622 436.979,272.379 436.949,272.143 436.918,271.915 436.873,271.686 436.827,271.466 436.774,271.245 
	436.713,271.032 436.644,270.827 436.568,270.629 436.492,270.431 436.401,270.248 436.317,270.066 436.218,269.891 
	436.119,269.723 436.013,269.571 435.899,269.419 435.785,269.274 435.663,269.137 435.541,269.016 435.412,268.902 
	435.282,268.795 435.153,268.696 435.008,268.612 434.872,268.536 434.727,268.475 434.575,268.422 434.43,268.376 434.278,268.346 
	434.126,268.331 433.966,268.323 433.806,268.331 433.654,268.346 433.502,268.376 433.357,268.422 433.205,268.475 
	433.061,268.536 432.924,268.612 432.787,268.696 432.65,268.795 432.52,268.902 432.391,269.016 432.269,269.137 432.147,269.274 
	432.033,269.419 431.919,269.571 431.813,269.723 431.714,269.891 431.615,270.066 431.531,270.248 431.44,270.431 431.364,270.629 
	431.287,270.827 431.219,271.032 431.158,271.245 431.105,271.466 431.059,271.686 431.013,271.915 430.983,272.143 
	430.952,272.379 430.937,272.622 430.922,272.858 430.922,273.109 430.922,273.353 430.937,273.597 430.952,273.833 
	430.983,274.068 431.013,274.304 431.059,274.525 431.105,274.753 431.158,274.966 431.219,275.179 431.287,275.385 
	431.364,275.583 431.44,275.78 431.531,275.971 431.615,276.146 431.714,276.321 431.813,276.488 431.919,276.648 432.033,276.8 
	432.147,276.937 432.269,277.074 432.391,277.196 432.52,277.31 432.65,277.416 432.787,277.515 432.924,277.599 433.061,277.675 
	433.205,277.744 433.357,277.797 433.502,277.835 433.654,277.865 433.806,277.888 433.966,277.888 434.126,277.888 
	434.278,277.865 434.43,277.835 434.575,277.797 434.727,277.744 434.872,277.675 435.008,277.599 435.153,277.515 435.282,277.416 
	435.412,277.31 435.541,277.196 435.663,277.074 435.785,276.937 435.899,276.8 436.013,276.648 436.119,276.488 436.218,276.321 
	436.317,276.146 436.401,275.971 436.492,275.78 436.568,275.583 436.644,275.385 436.713,275.179 436.774,274.966 436.827,274.753 
	436.873,274.525 436.918,274.304 436.949,274.068 436.979,273.833 436.994,273.597 437.01,273.353 437.01,273.109 "/>
<polygon fill-rule="evenodd" clip-rule="evenodd" fill="#B5B5B6" stroke="#000000" stroke-miterlimit="10" points="461.451,301.485 
	462.319,302.231 464.952,304.529 467.562,307.687 468.429,311.073 468.429,314.673 468.429,318.508 468.429,322.419 
	468.429,326.353 468.216,329.952 467.562,332.905 466.04,334.876 463.194,335.515 459.709,335.629 456.208,335.949 452.83,336.284 
	449.664,336.398 446.499,336.398 443.12,336.398 439.742,336.398 436.576,336.398 433.532,335.751 430.466,333.773 427.954,331.041 
	426.532,328.096 425.664,324.93 424.789,321.552 424.142,318.173 423.921,315.007 424.454,312.062 426.098,309.331 428.51,307.253 
	431.333,306.287 434.4,306.066 437.443,306.287 440.51,306.607 443.554,306.721 446.621,306.607 449.664,306.287 452.609,305.632 
	455.341,304.529 457.319,303.342 457.974,302.353 461.451,301.485 "/>
<polyline fill="none" stroke="#000000" stroke-width="3" stroke-miterlimit="2.6131" points="461.451,301.485 462.319,302.231 
	464.952,304.529 467.562,307.687 468.429,311.073 468.429,314.673 468.429,318.508 468.429,322.419 468.429,326.353 
	468.216,329.952 467.562,332.905 466.04,334.876 463.194,335.515 459.709,335.629 456.208,335.949 452.83,336.284 449.664,336.398 
	446.499,336.398 443.12,336.398 439.742,336.398 436.576,336.398 433.532,335.751 430.466,333.773 427.954,331.041 426.532,328.096 
	425.664,324.93 424.789,321.552 424.142,318.173 423.921,315.007 424.454,312.062 426.098,309.331 428.51,307.253 431.333,306.287 
	434.4,306.066 437.443,306.287 440.51,306.607 443.554,306.721 446.621,306.607 449.664,306.287 452.609,305.632 455.341,304.529 
	457.319,303.342 457.974,302.353 "/>
<polygon fill-rule="evenodd" clip-rule="evenodd" fill="#FFFFFF" points="453.599,305.853 452.731,305.853 450.973,305.853 
	453.599,305.853 "/>
<polyline fill="none" stroke="#131E1F" stroke-width="3" stroke-miterlimit="2.6131" points="453.599,305.853 452.731,305.853 
	450.973,305.853 "/>
<polygon fill-rule="evenodd" clip-rule="evenodd" fill="#FFFFFF" stroke="#000000" stroke-miterlimit="10" points="452.731,305.853 
	445.753,332.03 435.275,305.853 452.731,305.853 "/>
<polygon fill="#FFFFFF" stroke="#000000" stroke-width="3" stroke-miterlimit="2.6131" points="452.731,305.853 445.753,332.03 
	435.275,305.853 452.731,305.853 "/>
<polygon fill-rule="evenodd" clip-rule="evenodd" fill="#71ACD9" stroke="#000000" stroke-miterlimit="10" points="444.863,306.721 
	444.208,306.721 443.988,306.721 443.988,308.227 443.988,312.831 443.988,318.287 443.988,322.419 444.208,324.397 
	444.863,323.294 445.533,320.585 445.753,317.633 445.852,314.574 446.187,311.53 446.4,308.996 446.187,307.588 445.631,306.941 
	444.863,306.721 "/>
<polygon stroke="#FFFFFF" stroke-width="3" stroke-miterlimit="2.6131" points="444.863,306.721 444.208,306.721 443.988,306.721 
	443.988,308.227 443.988,312.831 443.988,318.287 443.988,322.419 444.208,324.397 444.863,323.294 445.533,320.585 
	445.753,317.633 445.852,314.574 446.187,311.53 446.4,308.996 446.187,307.588 445.631,306.941 444.863,306.721 "/>
<polygon fill-rule="evenodd" clip-rule="evenodd" fill="#FFFFFF" stroke="#000000" stroke-miterlimit="10" points="434.833,298.419 
	434.499,298.099 434.4,297.985 434.4,298.852 434.4,301.485 434.4,304.864 434.4,308.03 435.153,310.221 437.443,310.639 
	439.955,309.551 441.378,307.154 441.499,304.209 440.076,301.485 438.098,299.507 436.576,298.868 435.488,298.753 
	434.833,298.419 "/>
<polygon fill="none" stroke="#000000" stroke-width="3" stroke-miterlimit="2.6131" points="434.833,298.419 434.499,298.099 
	434.4,297.985 434.4,298.852 434.4,301.485 434.4,304.864 434.4,308.03 435.153,310.221 437.443,310.639 439.955,309.551 
	441.378,307.154 441.499,304.209 440.076,301.485 438.098,299.507 436.576,298.868 435.488,298.753 434.833,298.419 "/>
<polygon fill-rule="evenodd" clip-rule="evenodd" fill="#C6E2E0" points="448.363,299.309 448.348,298.928 448.317,298.548 
	448.257,298.175 448.181,297.81 448.082,297.452 447.967,297.102 447.831,296.752 447.671,296.417 447.496,296.09 447.305,295.771 
	447.092,295.459 446.864,295.154 446.621,294.865 446.362,294.584 446.088,294.31 445.799,294.051 445.502,293.807 445.182,293.571 
	444.855,293.351 444.513,293.145 444.155,292.955 443.79,292.772 443.417,292.605 443.029,292.46 442.633,292.323 442.23,292.209 
	441.819,292.11 441.393,292.027 440.967,291.958 440.533,291.912 440.092,291.882 439.643,291.874 439.194,291.882 438.752,291.912 
	438.319,291.958 437.885,292.027 437.466,292.11 437.055,292.209 436.644,292.323 436.249,292.46 435.868,292.605 435.488,292.772 
	435.123,292.955 434.773,293.145 434.43,293.351 434.103,293.571 433.783,293.807 433.479,294.051 433.19,294.31 432.916,294.584 
	432.657,294.865 432.414,295.154 432.185,295.459 431.972,295.771 431.782,296.09 431.607,296.417 431.455,296.752 431.318,297.102 
	431.196,297.452 431.097,297.81 431.021,298.175 430.968,298.548 430.93,298.928 430.922,299.309 430.93,299.689 430.968,300.062 
	431.021,300.435 431.097,300.801 431.196,301.158 431.318,301.516 431.455,301.858 431.607,302.193 431.782,302.528 
	431.972,302.847 432.185,303.159 432.414,303.456 432.657,303.753 432.916,304.034 433.19,304.301 433.479,304.559 433.783,304.803 
	434.103,305.039 434.43,305.26 434.773,305.465 435.123,305.663 435.488,305.838 435.868,306.005 436.249,306.158 436.644,306.287 
	437.055,306.409 437.466,306.508 437.885,306.591 438.319,306.652 438.752,306.705 439.194,306.728 439.643,306.743 
	440.092,306.728 440.533,306.705 440.967,306.652 441.393,306.591 441.819,306.508 442.23,306.409 442.633,306.287 443.029,306.158 
	443.417,306.005 443.79,305.838 444.155,305.663 444.513,305.465 444.855,305.26 445.182,305.039 445.502,304.803 445.799,304.559 
	446.088,304.301 446.362,304.034 446.621,303.753 446.864,303.456 447.092,303.159 447.305,302.847 447.496,302.528 
	447.671,302.193 447.831,301.858 447.967,301.516 448.082,301.158 448.181,300.801 448.257,300.435 448.317,300.062 
	448.348,299.689 448.363,299.309 "/>
<path fill="#B5B5B6" stroke="#000000" stroke-width="3" stroke-miterlimit="2.6131" d="M448.363,299.309l-0.015-0.381l-0.031-0.38
	l-0.061-0.373l-0.076-0.365l-0.099-0.358l-0.114-0.35l-0.137-0.35l-0.16-0.335l-0.175-0.327l-0.19-0.32l-0.213-0.312l-0.228-0.304
	l-0.243-0.289l-0.259-0.281l-0.274-0.274l-0.289-0.259l-0.297-0.244l-0.319-0.236l-0.327-0.221l-0.342-0.206l-0.358-0.19
	l-0.365-0.183l-0.373-0.167l-0.388-0.145l-0.396-0.137l-0.403-0.114l-0.411-0.099l-0.426-0.084l-0.426-0.069l-0.434-0.046
	l-0.441-0.03l-0.449-0.008l-0.449,0.008l-0.441,0.03l-0.434,0.046l-0.434,0.069l-0.418,0.084l-0.411,0.099l-0.411,0.114
	l-0.396,0.137l-0.38,0.145l-0.38,0.167l-0.365,0.183l-0.35,0.19l-0.342,0.206l-0.327,0.221l-0.32,0.236l-0.304,0.244l-0.289,0.259
	l-0.274,0.274l-0.259,0.281l-0.244,0.289l-0.228,0.304l-0.213,0.312l-0.19,0.32l-0.175,0.327l-0.152,0.335l-0.137,0.35l-0.122,0.35
	l-0.099,0.358l-0.076,0.365l-0.053,0.373l-0.038,0.38l-0.008,0.381l0.008,0.38l0.038,0.373l0.053,0.373l0.076,0.365l0.099,0.358
	l0.122,0.357l0.137,0.343l0.152,0.335l0.175,0.335l0.19,0.319l0.213,0.312l0.228,0.297l0.244,0.297l0.259,0.281l0.274,0.266
	l0.289,0.259l0.304,0.244l0.32,0.236l0.327,0.221l0.342,0.205l0.35,0.198l0.365,0.175l0.38,0.168l0.38,0.152l0.396,0.129
	l0.411,0.122l0.411,0.099l0.418,0.084l0.434,0.061l0.434,0.053l0.441,0.023l0.449,0.015l0.449-0.015l0.441-0.023l0.434-0.053
	l0.426-0.061l0.426-0.084l0.411-0.099l0.403-0.122l0.396-0.129l0.388-0.152l0.373-0.168l0.365-0.175l0.358-0.198l0.342-0.205
	l0.327-0.221l0.319-0.236l0.297-0.244l0.289-0.259l0.274-0.266l0.259-0.281l0.243-0.297l0.228-0.297l0.213-0.312l0.19-0.319
	l0.175-0.335l0.16-0.335l0.137-0.343l0.114-0.357l0.099-0.358l0.076-0.365l0.061-0.373l0.031-0.373L448.363,299.309"/>
<polygon fill-rule="evenodd" clip-rule="evenodd" fill="#B5B5B6" stroke="#000000" stroke-miterlimit="10" points="447.488,297.11 
	447.488,296.463 447.488,296.242 448.142,296.463 450.098,297.11 452.952,298.099 456.208,299.309 459.496,300.709 462.319,302.353 
	464.731,304.529 466.694,307.588 467.562,310.875 466.694,313.699 464.617,316.096 461.885,318.074 458.842,319.261 
	455.775,319.375 452.731,318.721 449.664,317.633 446.72,315.997 443.988,313.699 442.352,310.974 442.686,308.03 444.109,304.963 
	445.753,301.919 447.054,299.507 447.488,298.419 447.488,297.886 447.488,297.11 "/>
<polygon fill="none" stroke="#000000" stroke-width="3" stroke-miterlimit="2.6131" points="447.488,297.11 447.488,296.463 
	447.488,296.242 448.142,296.463 450.098,297.11 452.952,298.099 456.208,299.309 459.496,300.709 462.319,302.353 464.731,304.529 
	466.694,307.588 467.562,310.875 466.694,313.699 464.617,316.096 461.885,318.074 458.842,319.261 455.775,319.375 
	452.731,318.721 449.664,317.633 446.72,315.997 443.988,313.699 442.352,310.974 442.686,308.03 444.109,304.963 445.753,301.919 
	447.054,299.507 447.488,298.419 447.488,297.886 447.488,297.11 "/>
<polygon fill-rule="evenodd" clip-rule="evenodd" fill="#FFFFFF" stroke="#000000" stroke-miterlimit="10" points="430.899,298.419 
	431.554,298.099 431.774,297.985 431.021,297.665 428.723,296.676 425.664,295.588 422.613,294.934 419.668,295.154 
	416.943,296.676 415.619,298.753 416.943,300.61 418.481,302.566 417.811,304.963 417.255,307.474 419.12,309.764 422.179,310.974 
	425.223,310.198 428.289,308.897 431.333,308.463 433.532,307.71 433.966,305.419 433.198,302.665 431.774,300.61 430.686,299.187 
	430.899,298.419 "/>
<polygon fill="none" stroke="#000000" stroke-width="3" stroke-miterlimit="2.6131" points="430.899,298.419 431.554,298.099 
	431.774,297.985 431.021,297.665 428.723,296.676 425.664,295.588 422.613,294.934 419.668,295.154 416.943,296.676 
	415.619,298.753 416.943,300.61 418.481,302.566 417.811,304.963 417.255,307.474 419.12,309.764 422.179,310.974 425.223,310.198 
	428.289,308.897 431.333,308.463 433.532,307.71 433.966,305.419 433.198,302.665 431.774,300.61 430.686,299.187 430.899,298.419 
	"/>
<polygon fill-rule="evenodd" clip-rule="evenodd" points="476.739,276.169 476.396,276.169 476.282,276.169 476.617,275.423 
	477.606,273.109 478.695,270.058 479.349,266.999 479.783,263.955 480.217,260.889 480.551,257.845 480.65,254.778 480.217,251.833 
	478.908,249.124 476.838,246.491 474.106,243.881 471.062,241.804 467.996,240.815 465.051,240.602 462.319,240.815 
	459.595,240.815 456.642,239.947 453.264,238.958 449.231,238.638 445.076,239.08 441.378,240.381 437.885,241.37 434.4,240.815 
	431.021,239.613 427.856,238.638 425.01,238.836 422.613,241.249 420.977,244.848 420.421,248.668 420.756,252.282 421.745,255.212 
	423.587,257.502 426.532,259.146 430.252,259.481 434.4,257.845 439.521,255.646 446.187,254.345 452.077,254.558 454.907,256.97 
	456.543,259.268 458.842,259.146 460.797,258.811 461.451,260.455 461.231,263.179 460.584,266.124 460.584,268.422 
	462.319,269.191 464.952,269.411 467.562,270.058 469.32,271.466 469.304,274 468.985,276.945 469.738,279.654 471.374,281.731 
	473.672,282.72 475.651,282.279 476.282,280.087 476.396,277.69 476.739,276.61 476.952,276.267 476.739,276.169 "/>
<polygon stroke="#000000" stroke-width="0.9638" stroke-miterlimit="2.6131" points="476.739,276.169 476.396,276.169 
	476.282,276.169 476.617,275.423 477.606,273.109 478.695,270.058 479.349,266.999 479.783,263.955 480.217,260.889 
	480.551,257.845 480.65,254.778 480.217,251.833 478.908,249.124 476.838,246.491 474.106,243.881 471.062,241.804 467.996,240.815 
	465.051,240.602 462.319,240.815 459.595,240.815 456.642,239.947 453.264,238.958 449.231,238.638 445.076,239.08 441.378,240.381 
	437.885,241.37 434.4,240.815 431.021,239.613 427.856,238.638 425.01,238.836 422.613,241.249 420.977,244.848 420.421,248.668 
	420.756,252.282 421.745,255.212 423.587,257.502 426.532,259.146 430.252,259.481 434.4,257.845 439.521,255.646 446.187,254.345 
	452.077,254.558 454.907,256.97 456.543,259.268 458.842,259.146 460.797,258.811 461.451,260.455 461.231,263.179 460.584,266.124 
	460.584,268.422 462.319,269.191 464.952,269.411 467.562,270.058 469.32,271.466 469.304,274 468.985,276.945 469.738,279.654 
	471.374,281.731 473.672,282.72 475.651,282.279 476.282,280.087 476.396,277.69 476.739,276.61 476.952,276.267 476.739,276.169 
	"/>
<polygon fill-rule="evenodd" clip-rule="evenodd" fill="#FFFFFF" stroke="#000000" stroke-miterlimit="10" points="461.451,349.494 
	460.698,349.593 458.408,349.927 455.562,351.015 453.165,353.405 452.396,355.916 454.474,357.339 457.852,357.993 
	461.018,358.214 463.742,357.461 465.819,355.163 466.375,352.75 464.518,351.67 461.763,351.327 459.709,351.229 457.974,351.449 
	456.208,352.104 461.451,349.494 "/>
<polyline fill="none" stroke="#000000" stroke-width="3" stroke-miterlimit="2.6131" points="461.451,349.494 460.698,349.593 
	458.408,349.927 455.562,351.015 453.165,353.405 452.396,355.916 454.474,357.339 457.852,357.993 461.018,358.214 
	463.742,357.461 465.819,355.163 466.375,352.75 464.518,351.67 461.763,351.327 459.709,351.229 457.974,351.449 456.208,352.104 
	"/>
<polygon fill-rule="evenodd" clip-rule="evenodd" fill="#FFFFFF" stroke="#000000" stroke-miterlimit="10" points="439.643,353.839 
	439.643,354.516 439.643,354.714 439.308,354.082 438.319,352.104 436.576,350.46 433.966,350.795 431.333,352.636 429.598,355.604 
	429.476,358.328 431.774,359.515 435.054,359.416 437.885,358.214 439.742,356.472 440.076,354.714 439.742,353.626 
	439.643,353.839 "/>
<polygon fill="none" stroke="#000000" stroke-width="3" stroke-miterlimit="2.6131" points="439.643,353.839 439.643,354.516 
	439.643,354.714 439.308,354.082 438.319,352.104 436.576,350.46 433.966,350.795 431.333,352.636 429.598,355.604 429.476,358.328 
	431.774,359.515 435.054,359.416 437.885,358.214 439.742,356.472 440.076,354.714 439.742,353.626 439.643,353.839 "/>
<circle fill-rule="evenodd" clip-rule="evenodd" fill="#FFFFFF" stroke="#000000" stroke-miterlimit="2.6131" cx="434.008" cy="274.038" r="0.588"/>
<circle fill-rule="evenodd" clip-rule="evenodd" fill="#FFFFFF" stroke="#000000" stroke-miterlimit="2.6131" cx="450.123" cy="274.038" r="0.588"/>
</svg>
