<?xml version="1.0" encoding="utf-8"?>
<!-- Generator: Adobe Illustrator 17.1.0, SVG Export Plug-In . SVG Version: 6.00 Build 0)  -->
<!DOCTYPE svg PUBLIC "-//W3C//DTD SVG 1.1//EN" "http://www.w3.org/Graphics/SVG/1.1/DTD/svg11.dtd">
<svg version="1.1"
	 id="レイヤー_1" xmlns:inkscape="http://www.inkscape.org/namespaces/inkscape" xmlns:sodipodi="http://sodipodi.sourceforge.net/DTD/sodipodi-0.dtd" xmlns:dc="http://purl.org/dc/elements/1.1/" xmlns:cc="http://creativecommons.org/ns#" xmlns:rdf="http://www.w3.org/1999/02/22-rdf-syntax-ns#" xmlns:svg="http://www.w3.org/2000/svg" inkscape:version="0.48.4 r" sodipodi:docname="1-2r.svg"
	 xmlns="http://www.w3.org/2000/svg" xmlns:xlink="http://www.w3.org/1999/xlink" x="0px" y="0px" viewBox="0 0 100 100"
	 enable-background="new 0 0 100 100" xml:space="preserve">
<sodipodi:namedview  pagecolor="#ffffff" showgrid="false" guidetolerance="10" inkscape:cx="50" gridtolerance="10" inkscape:cy="50" objecttolerance="10" inkscape:zoom="2.36" borderopacity="1" bordercolor="#666666" id="namedview3301" inkscape:window-maximized="0" inkscape:pageopacity="0" inkscape:window-y="0" inkscape:window-height="480" inkscape:current-layer="レイヤー_1" inkscape:window-x="0" inkscape:pageshadow="2" inkscape:window-width="834">
	</sodipodi:namedview>
<circle id="circle3264" fill="#B2B2B2" cx="50" cy="50" r="50"/>
<g id="レイヤー_2">
	<path id="path3267" fill="none" stroke="#231815" stroke-miterlimit="10" d="M60,159.1"/>
</g>
<rect id="rect3147" x="14.4" y="55.4" fill="#FFFFFF" stroke="#000000" stroke-width="1.7053" stroke-miterlimit="10" width="17.6" height="23.7"/>
<rect id="rect3149" x="10.3" y="50.2" fill="#FFFFFF" stroke="#000000" stroke-width="1.7053" stroke-miterlimit="10" width="29" height="7.8"/>
<polyline id="polyline3151" fill="none" stroke="#000000" stroke-width="3" stroke-miterlimit="10" points="21.4,49.1 23.2,49.1 
	26.2,49.1 "/>
<path id="path3153" inkscape:connector-curvature="0" fill="none" stroke="#000000" stroke-width="1.7053" stroke-miterlimit="10" d="
	M23.2,49.1v-6.7c0,0,5.9-5.6,8.3-5.5"/>
<ellipse id="ellipse3155" sodipodi:ry="4.4169998" sodipodi:cx="396.42599" sodipodi:cy="282.362" sodipodi:rx="3.5769999" cx="31.6" cy="36.8" rx="2" ry="2.5">
</ellipse>
<polygon id="polygon3157" fill="#B5B5B6" stroke="#000000" stroke-miterlimit="10" points="56.9,75.4 55.5,76.4 53.8,76.8 
	52.3,76.4 51.2,75.4 50.8,73.7 50.8,71.7 50.8,69.9 51.4,68.3 53,66.9 55.1,65.9 57,65.2 58.8,64.8 60.7,64.7 62.6,64.7 64.4,64.7 
	66,65 67.6,65.9 68.7,66.9 69.3,67.2 69.5,67.1 69.8,66.9 69.8,66.9 70,66.7 70,66.7 70,67.1 70,68.4 70,70.2 69.8,72.2 69.1,73.9 
	67.6,75.2 65.7,75.9 63.9,75.9 62.5,75.3 61.9,73.9 61.7,72.1 61.6,70.2 61.3,68.7 60.2,68.4 59,69.1 58.4,70.4 58.1,72.2 
	57.7,73.9 "/>
<polygon id="polygon3159" fill="none" stroke="#000000" stroke-width="3" stroke-miterlimit="2.6131" points="56.9,75.4 55.5,76.4 
	53.8,76.8 52.3,76.4 51.2,75.4 50.8,73.7 50.8,71.7 50.8,69.9 51.4,68.3 53,66.9 55.1,65.9 57,65.2 58.8,64.8 60.7,64.7 62.6,64.7 
	64.4,64.7 66,65 67.6,65.9 68.7,66.9 69.3,67.2 69.5,67.1 69.8,66.9 69.8,66.9 70,66.7 70,66.7 70,67.1 70,68.4 70,70.2 69.8,72.2 
	69.1,73.9 67.6,75.2 65.7,75.9 63.9,75.9 62.5,75.3 61.9,73.9 61.7,72.1 61.6,70.2 61.3,68.7 60.2,68.4 59,69.1 58.4,70.4 
	58.1,72.2 57.7,73.9 "/>
<polygon id="polygon3161" fill="#CAD1E2" stroke="#000000" stroke-miterlimit="10" points="41.1,56.7 42.9,54.9 44.8,53.4 
	46.6,52.2 48.3,51.7 49.8,52.2 51.1,53.1 52,53.9 52.7,54.4 53.3,54.4 53.3,54.4 53.6,54.2 53.8,54.2 53.3,54.5 52,55.4 50.4,56.9 
	48.8,58.7 47.5,60.6 46.4,62.4 45.6,64.2 45.1,65.9 44.5,67.3 42.9,67.9 41,68 39,67.7 37.4,66.9 36.8,65.4 36.8,63.7 37.5,61.9 
	38.5,60.2 39.7,58.4 "/>
<polygon id="polygon3163" fill="#FFFFFF" stroke="#000000" stroke-width="3" stroke-miterlimit="2.6131" points="41.1,56.7 
	42.9,54.9 44.8,53.4 46.6,52.2 48.3,51.7 49.8,52.2 51.1,53.1 52,53.9 52.7,54.4 53.3,54.4 53.3,54.4 53.6,54.2 53.8,54.2 
	53.3,54.5 52,55.4 50.4,56.9 48.8,58.7 47.5,60.6 46.4,62.4 45.6,64.2 45.1,65.9 44.5,67.3 42.9,67.9 41,68 39,67.7 37.4,66.9 
	36.8,65.4 36.8,63.7 37.5,61.9 38.5,60.2 39.7,58.4 "/>
<polygon id="polygon3165" fill="#FFFFFF" stroke="#000000" stroke-miterlimit="10" points="47.4,68.2 47.4,55.2 34.6,55.2 
	34.6,68.2 34.6,68.2 "/>
<polygon id="polygon3167" fill="none" stroke="#000000" stroke-width="3" stroke-miterlimit="2.6131" points="47.4,68.2 47.4,55.2 
	34.6,55.2 34.6,68.2 34.6,68.2 "/>
<polygon id="polygon3169" fill="#FFFFFF" stroke="#000000" stroke-width="3" stroke-miterlimit="2.6131" points="44.9,68.2 45,67.8 
	45.4,66.7 45.3,65.6 44.2,65.2 42.4,65.2 40.7,65.4 39.4,66 38.7,67.2 39,68.4 40.2,69.2 41.9,69.4 43.7,69.2 45,68.7 45.4,68.4 
	45.3,68.2 45.1,68.2 45.1,68.2 45,68.2 "/>
<polygon id="polygon3171" fill="none" stroke="#000000" stroke-width="0.9638" stroke-miterlimit="2.6131" points="44.9,68.2 
	45,67.8 45.4,66.7 45.3,65.6 44.2,65.2 42.4,65.2 40.7,65.4 39.4,66 38.7,67.2 39,68.4 40.2,69.2 41.9,69.4 43.7,69.2 45,68.7 
	45.4,68.4 45.3,68.2 45.1,68.2 45.1,68.2 45,68.2 "/>
<polygon id="polygon3173" points="49.6,21.3 48.8,23 48.5,24.7 48.4,26.5 48.5,28.2 48.8,30 49.1,31.7 49.1,33.5 48.7,35.2 48.1,37 
	47.5,38.7 47.4,40.4 47.5,42.3 47.8,44.2 48.7,46.1 50.3,47.7 52.2,49 54,49.9 55.8,50.5 57.7,50.7 59.6,50.6 61.4,50.4 63.3,50 
	65.3,49.2 67.6,48.2 69.8,47.2 71.7,46.1 73,44.7 73.7,43.1 74,41.2 74,39.4 74.2,37.9 74.4,37 74.5,36.7 74.5,36.7 74.5,36.1 
	74.5,34.2 74.4,31.8 74.2,29.7 74,27.8 74,26 73.8,24.2 73.2,22.5 72.2,20.8 70.8,19.5 69,18.3 67.1,17.5 64.9,16.9 62.4,16.7 
	59.9,16.7 57.7,16.7 55.8,16.9 54,17.5 52.3,18.4 50.8,19.7 "/>
<polygon id="polygon3175" fill="#FFFFFF" stroke="#000000" stroke-width="3" stroke-miterlimit="2.6131" points="49.6,21.3 48.8,23 
	48.5,24.7 48.4,26.5 48.5,28.2 48.8,30 49.1,31.7 49.1,33.5 48.7,35.2 48.1,37 47.5,38.7 47.4,40.4 47.5,42.3 47.8,44.2 48.7,46.1 
	50.3,47.7 52.2,49 54,49.9 55.8,50.5 57.7,50.7 59.6,50.6 61.4,50.4 63.3,50 65.3,49.2 67.6,48.2 69.8,47.2 71.7,46.1 73,44.7 
	73.7,43.1 74,41.2 74,39.4 74.2,37.9 74.4,37 74.5,36.7 74.5,36.7 74.5,36.1 74.5,34.2 74.4,31.8 74.2,29.7 74,27.8 74,26 
	73.8,24.2 73.2,22.5 72.2,20.8 70.8,19.5 69,18.3 67.1,17.5 64.9,16.9 62.4,16.7 59.9,16.7 57.7,16.7 55.8,16.9 54,17.5 52.3,18.4 
	50.8,19.7 "/>
<polygon id="polygon3177" fill="#131E1F" points="63.2,26.9 63.2,27 63.2,27 63.2,27.1 63.3,27.1 63.3,27.1 63.3,27.2 63.4,27.2 
	63.4,27.2 63.4,27.3 63.5,27.3 63.5,27.3 63.6,27.3 63.6,27.3 63.7,27.3 63.7,27.3 63.8,27.3 63.8,27.3 63.8,27.3 63.8,27.3 
	64.2,27.2 64,26.2 63.6,26.4 63.8,27.3 63.6,26.4 63.5,26.4 63.4,26.4 63.4,26.4 63.4,26.5 63.3,26.5 63.3,26.5 63.3,26.6 
	63.2,26.6 63.2,26.7 63.2,26.7 63.2,26.7 63.2,26.8 63.2,26.8 63.2,26.9 "/>
<polygon id="polygon3179" fill="#131E1F" points="61.9,27.3 61.9,27.3 61.9,27.4 62,27.4 62,27.5 62,27.5 62,27.5 62.1,27.6 
	62.1,27.6 62.1,27.6 62.2,27.7 62.2,27.7 62.3,27.7 62.3,27.7 62.4,27.7 62.4,27.7 62.5,27.7 62.5,27.7 62.3,26.7 62.3,26.7 
	62.5,27.7 63.8,27.3 63.6,26.4 62.3,26.7 62.3,26.7 62.3,26.7 62.2,26.7 62.1,26.8 62.1,26.8 62.1,26.8 62,26.9 62,26.9 62,26.9 
	61.9,27 61.9,27 61.9,27.1 61.9,27.1 61.9,27.2 61.9,27.2 61.9,27.3 "/>
<polygon id="polygon3181" fill="#131E1F" points="60.2,27.8 60.3,27.8 60.3,27.9 60.3,27.9 60.3,28 60.3,28 60.4,28 60.4,28.1 
	60.4,28.1 60.5,28.1 60.5,28.2 60.6,28.2 60.6,28.2 60.6,28.2 60.7,28.2 60.8,28.2 60.8,28.2 60.9,28.2 60.6,27.2 60.6,27.2 
	60.9,28.2 62.5,27.7 62.3,26.7 60.6,27.2 60.6,27.2 60.6,27.2 60.5,27.3 60.5,27.3 60.4,27.3 60.4,27.3 60.4,27.4 60.3,27.4 
	60.3,27.4 60.3,27.5 60.3,27.5 60.2,27.6 60.2,27.6 60.2,27.7 60.2,27.7 60.2,27.8 "/>
<polygon id="polygon3183" fill="#131E1F" points="58.7,28.3 58.7,28.4 58.7,28.4 58.8,28.4 58.8,28.5 58.8,28.5 58.8,28.6 
	58.9,28.6 58.9,28.6 58.9,28.6 59,28.7 59,28.7 59.1,28.7 59.1,28.7 59.2,28.7 59.2,28.7 59.3,28.7 59.3,28.7 59.3,28.7 59.3,28.7 
	59.3,28.7 60.9,28.2 60.6,27.2 59,27.7 59.3,28.7 59,27.7 59,27.8 58.9,27.8 58.9,27.8 58.8,27.8 58.8,27.9 58.8,27.9 58.8,28 
	58.7,28 58.7,28 58.7,28.1 58.7,28.1 58.7,28.2 58.7,28.2 58.7,28.3 "/>
<polygon id="polygon3185" fill="#131E1F" points="57.6,28.5 57.6,28.6 57.6,28.6 57.6,28.7 57.6,28.7 57.7,28.7 57.7,28.8 
	57.7,28.8 57.8,28.9 57.8,28.9 57.8,28.9 57.9,28.9 57.9,28.9 58,29 58,29 58.1,29 58.1,29 58.2,28.9 57.8,28.9 57.8,28.9 
	58.2,28.9 59.3,28.7 59.1,27.7 58,28 57.8,28.9 58,28 57.9,28 57.9,28 57.8,28 57.8,28.1 57.7,28.1 57.7,28.1 57.7,28.2 57.6,28.2 
	57.6,28.3 57.6,28.3 57.6,28.3 57.6,28.4 57.6,28.4 57.6,28.5 "/>
<polygon id="polygon3187" fill="#131E1F" points="57.8,28.9 58.4,28.1 58,27.8 57.4,28.6 57.4,28.6 "/>
<polygon id="polygon3189" fill="#FFFFFF" points="49.8,26.1 49.3,25.7 53.8,28.2 53.8,28.2 53.4,28 52.3,27.5 51.1,26.8 50.3,26.5 
	"/>
<polygon id="polygon3191" fill="#131E1F" points="53,27.8 53,27.8 52.9,27.9 52.9,27.9 52.9,27.9 52.9,28 52.9,28 52.9,28.1 
	52.9,28.1 52.9,28.2 52.9,28.2 53,28.3 53,28.3 53,28.3 53,28.4 53.1,28.4 53.1,28.4 53.2,28.5 53.2,28.5 53.2,28.5 53.2,28.5 
	53.6,28.7 54,27.8 53.6,27.6 53.2,28.5 53.6,27.6 53.6,27.6 53.5,27.5 53.5,27.5 53.4,27.5 53.3,27.5 53.3,27.5 53.3,27.5 
	53.2,27.6 53.2,27.6 53.1,27.6 53.1,27.6 53.1,27.7 53,27.7 53,27.7 "/>
<polygon id="polygon3193" fill="#131E1F" points="51.9,27.2 51.9,27.2 51.8,27.3 51.8,27.3 51.8,27.4 51.8,27.4 51.8,27.5 
	51.8,27.5 51.8,27.5 51.8,27.6 51.8,27.6 51.8,27.7 51.9,27.7 51.9,27.8 51.9,27.8 52,27.8 52,27.9 52.1,27.9 52.5,27 52.5,27 
	52.1,27.9 53.2,28.5 53.6,27.6 52.5,27 52.5,27 52.5,27 52.5,27 52.4,27 52.4,27 52.3,27 52.3,27 52.2,27 52.2,27 52.1,27 52.1,27 
	52,27 52,27.1 52,27.1 51.9,27.1 51.9,27.2 "/>
<polygon id="polygon3195" fill="#131E1F" points="50.6,26.6 50.6,26.6 50.6,26.7 50.6,26.7 50.6,26.7 50.6,26.8 50.6,26.8 
	50.6,26.9 50.6,26.9 50.6,27 50.6,27 50.6,27.1 50.6,27.1 50.7,27.1 50.7,27.2 50.7,27.2 50.8,27.3 50.8,27.3 50.8,27.3 50.8,27.3 
	52.1,27.9 52.5,27 51.3,26.4 50.8,27.3 51.3,26.4 51.2,26.4 51.2,26.3 51.1,26.3 51.1,26.3 51,26.3 51,26.3 50.9,26.3 50.9,26.4 
	50.8,26.4 50.8,26.4 50.8,26.4 50.7,26.5 50.7,26.5 50.7,26.5 "/>
<polygon id="polygon3197" fill="#131E1F" points="49.9,26.2 49.9,26.2 49.9,26.3 49.8,26.3 49.8,26.4 49.8,26.4 49.8,26.5 
	49.8,26.5 49.8,26.6 49.8,26.6 49.9,26.6 49.9,26.7 49.9,26.7 49.9,26.8 50,26.8 50,26.8 50,26.9 50.1,26.9 50.1,26.9 50.1,26.9 
	50.1,26.9 50.8,27.3 51.3,26.4 50.5,26 50.1,26.9 50.5,26 50.5,26 50.4,26 50.4,26 50.3,26 50.3,26 50.2,26 50.2,26 50.1,26 
	50.1,26 50.1,26 50,26.1 50,26.1 50,26.1 49.9,26.2 "/>
<polygon id="polygon3199" fill="#131E1F" points="49.4,25.8 49.4,25.9 49.4,25.9 49.4,26 49.4,26 49.3,26 49.3,26.1 49.3,26.1 
	49.3,26.2 49.3,26.2 49.3,26.3 49.4,26.3 49.4,26.4 49.4,26.4 49.4,26.4 49.5,26.5 49.5,26.5 49.6,26.6 49.5,26.5 49.5,26.5 
	49.6,26.6 50.1,26.9 50.6,26 50.1,25.7 49.5,26.5 50.1,25.7 50,25.7 50,25.7 49.9,25.7 49.9,25.6 49.8,25.6 49.8,25.6 49.7,25.6 
	49.7,25.7 49.7,25.7 49.6,25.7 49.6,25.7 49.5,25.7 49.5,25.8 49.5,25.8 "/>
<polygon id="polygon3201" fill="#131E1F" points="49.5,26.5 50.1,25.8 49.7,25.3 49,26.1 49,26.1 "/>
<polygon id="polygon3203" fill="#FFFFFF" stroke="#000000" stroke-miterlimit="2.6131" points="62.3,29.1 62.2,29 62.1,29 
	62.1,28.9 62,28.9 61.9,28.8 61.8,28.8 61.7,28.8 61.7,28.7 61.6,28.7 61.5,28.7 61.4,28.7 61.3,28.7 61.2,28.7 61.1,28.7 61,28.8 
	61,28.8 60.9,28.8 60.8,28.9 60.7,28.9 60.6,29 60.6,29 60.5,29.1 60.4,29.2 60.4,29.3 60.3,29.3 60.2,29.4 60.2,29.5 60.1,29.6 
	60.1,29.7 60,29.8 60,29.9 59.9,30 59.9,30.1 59.8,30.3 59.8,30.4 59.8,30.5 59.7,30.6 59.7,30.8 59.7,30.9 59.7,31 59.7,31.2 
	59.7,31.3 59.7,31.5 59.7,31.6 59.7,31.7 59.7,31.9 59.7,32 59.7,32.1 59.7,32.3 59.8,32.4 59.8,32.5 59.8,32.6 59.9,32.8 
	59.9,32.9 60,33 60,33.1 60.1,33.2 60.1,33.3 60.2,33.4 60.2,33.5 60.3,33.6 60.4,33.6 60.4,33.7 60.5,33.8 60.6,33.9 60.6,33.9 
	60.7,34 60.8,34 60.9,34.1 61,34.1 61,34.1 61.1,34.2 61.2,34.2 61.3,34.2 61.4,34.2 61.5,34.2 61.6,34.2 61.7,34.2 61.7,34.1 
	61.8,34.1 61.9,34.1 62,34 62.1,34 62.1,33.9 62.2,33.9 62.3,33.8 62.4,33.7 62.4,33.6 62.5,33.6 62.6,33.5 62.6,33.4 62.7,33.3 
	62.7,33.2 62.8,33.1 62.8,33 62.9,32.9 62.9,32.8 63,32.6 63,32.5 63,32.4 63.1,32.3 63.1,32.1 63.1,32 63.1,31.9 63.1,31.7 
	63.1,31.6 63.1,31.5 63.1,31.5 63.1,31.3 63.1,31.2 63.1,31 63.1,30.9 63.1,30.8 63.1,30.6 63,30.5 63,30.4 63,30.3 62.9,30.1 
	62.9,30 62.8,29.9 62.8,29.8 62.7,29.7 62.7,29.6 62.6,29.5 62.6,29.4 62.5,29.3 62.4,29.3 62.4,29.2 "/>
<polyline id="polyline3205" fill="none" stroke="#131E1F" stroke-width="0.9638" stroke-miterlimit="2.6131" points="63.1,31.5 
	63.1,31.3 63.1,31.2 63.1,31 63.1,30.9 63.1,30.8 63.1,30.6 63,30.5 63,30.4 63,30.3 62.9,30.1 62.9,30 62.8,29.9 62.8,29.8 
	62.7,29.7 62.7,29.6 62.6,29.5 62.6,29.4 62.5,29.3 62.4,29.3 62.4,29.2 62.3,29.1 62.2,29 62.1,29 62.1,28.9 62,28.9 61.9,28.8 
	61.8,28.8 61.7,28.8 61.7,28.7 61.6,28.7 61.5,28.7 61.4,28.7 61.3,28.7 61.2,28.7 61.1,28.7 61,28.8 61,28.8 60.9,28.8 60.8,28.9 
	60.7,28.9 60.6,29 60.6,29 60.5,29.1 60.4,29.2 60.4,29.3 60.3,29.3 60.2,29.4 60.2,29.5 60.1,29.6 60.1,29.7 60,29.8 60,29.9 
	59.9,30 59.9,30.1 59.8,30.3 59.8,30.4 59.8,30.5 59.7,30.6 59.7,30.8 59.7,30.9 59.7,31 59.7,31.2 59.7,31.3 59.7,31.5 59.7,31.6 
	59.7,31.7 59.7,31.9 59.7,32 59.7,32.1 59.7,32.3 59.8,32.4 59.8,32.5 59.8,32.6 59.9,32.8 59.9,32.9 60,33 60,33.1 60.1,33.2 
	60.1,33.3 60.2,33.4 60.2,33.5 60.3,33.6 60.4,33.6 60.4,33.7 60.5,33.8 60.6,33.9 60.6,33.9 60.7,34 60.8,34 60.9,34.1 61,34.1 
	61,34.1 61.1,34.2 61.2,34.2 61.3,34.2 61.4,34.2 61.5,34.2 61.6,34.2 61.7,34.2 61.7,34.1 61.8,34.1 61.9,34.1 62,34 62.1,34 
	62.1,33.9 62.2,33.9 62.3,33.8 62.4,33.7 62.4,33.6 62.5,33.6 62.6,33.5 62.6,33.4 62.7,33.3 62.7,33.2 62.8,33.1 62.8,33 
	62.9,32.9 62.9,32.8 63,32.6 63,32.5 63,32.4 63.1,32.3 63.1,32.1 63.1,32 63.1,31.9 63.1,31.7 63.1,31.6 63.1,31.5 "/>
<polygon id="polygon3207" fill="#FFFFFF" stroke="#000000" stroke-miterlimit="2.6131" points="52.9,29.1 52.9,29 52.8,29 
	52.7,28.9 52.6,28.9 52.6,28.8 52.5,28.8 52.4,28.8 52.3,28.7 52.2,28.7 52.1,28.7 52,28.7 52,28.7 51.9,28.7 51.8,28.7 51.7,28.8 
	51.6,28.8 51.5,28.8 51.5,28.9 51.4,28.9 51.3,29 51.2,29 51.2,29.1 51.1,29.2 51,29.3 51,29.3 50.9,29.4 50.8,29.5 50.8,29.6 
	50.7,29.7 50.7,29.8 50.6,29.9 50.6,30 50.5,30.1 50.5,30.3 50.5,30.4 50.4,30.5 50.4,30.6 50.4,30.8 50.4,30.9 50.3,31 50.3,31.2 
	50.3,31.3 50.3,31.5 50.3,31.6 50.3,31.7 50.3,31.9 50.4,32 50.4,32.1 50.4,32.3 50.4,32.4 50.5,32.5 50.5,32.6 50.5,32.8 
	50.6,32.9 50.6,33 50.7,33.1 50.7,33.2 50.8,33.3 50.8,33.4 50.9,33.5 51,33.6 51,33.6 51.1,33.7 51.2,33.8 51.2,33.9 51.3,33.9 
	51.4,34 51.5,34 51.5,34.1 51.6,34.1 51.7,34.1 51.8,34.2 51.9,34.2 52,34.2 52,34.2 52.1,34.2 52.2,34.2 52.3,34.2 52.4,34.1 
	52.5,34.1 52.6,34.1 52.6,34 52.7,34 52.8,33.9 52.9,33.9 52.9,33.8 53,33.7 53.1,33.6 53.1,33.6 53.2,33.5 53.3,33.4 53.3,33.3 
	53.4,33.2 53.4,33.1 53.5,33 53.5,32.9 53.6,32.8 53.6,32.6 53.6,32.5 53.7,32.4 53.7,32.3 53.7,32.1 53.7,32 53.7,31.9 53.8,31.7 
	53.8,31.6 53.8,31.5 53.8,31.5 53.8,31.3 53.8,31.2 53.7,31 53.7,30.9 53.7,30.8 53.7,30.6 53.7,30.5 53.6,30.4 53.6,30.3 
	53.6,30.1 53.5,30 53.5,29.9 53.4,29.8 53.4,29.7 53.3,29.6 53.3,29.5 53.2,29.4 53.1,29.3 53.1,29.3 53,29.2 "/>
<polyline id="polyline3209" fill="none" stroke="#131E1F" stroke-width="0.9638" stroke-miterlimit="2.6131" points="53.8,31.5 
	53.8,31.3 53.8,31.2 53.7,31 53.7,30.9 53.7,30.8 53.7,30.6 53.7,30.5 53.6,30.4 53.6,30.3 53.6,30.1 53.5,30 53.5,29.9 53.4,29.8 
	53.4,29.7 53.3,29.6 53.3,29.5 53.2,29.4 53.1,29.3 53.1,29.3 53,29.2 52.9,29.1 52.9,29 52.8,29 52.7,28.9 52.6,28.9 52.6,28.8 
	52.5,28.8 52.4,28.8 52.3,28.7 52.2,28.7 52.1,28.7 52,28.7 52,28.7 51.9,28.7 51.8,28.7 51.7,28.8 51.6,28.8 51.5,28.8 51.5,28.9 
	51.4,28.9 51.3,29 51.2,29 51.2,29.1 51.1,29.2 51,29.3 51,29.3 50.9,29.4 50.8,29.5 50.8,29.6 50.7,29.7 50.7,29.8 50.6,29.9 
	50.6,30 50.5,30.1 50.5,30.3 50.5,30.4 50.4,30.5 50.4,30.6 50.4,30.8 50.4,30.9 50.3,31 50.3,31.2 50.3,31.3 50.3,31.5 50.3,31.6 
	50.3,31.7 50.3,31.9 50.4,32 50.4,32.1 50.4,32.3 50.4,32.4 50.5,32.5 50.5,32.6 50.5,32.8 50.6,32.9 50.6,33 50.7,33.1 50.7,33.2 
	50.8,33.3 50.8,33.4 50.9,33.5 51,33.6 51,33.6 51.1,33.7 51.2,33.8 51.2,33.9 51.3,33.9 51.4,34 51.5,34 51.5,34.1 51.6,34.1 
	51.7,34.1 51.8,34.2 51.9,34.2 52,34.2 52,34.2 52.1,34.2 52.2,34.2 52.3,34.2 52.4,34.1 52.5,34.1 52.6,34.1 52.6,34 52.7,34 
	52.8,33.9 52.9,33.9 52.9,33.8 53,33.7 53.1,33.6 53.1,33.6 53.2,33.5 53.3,33.4 53.3,33.3 53.4,33.2 53.4,33.1 53.5,33 53.5,32.9 
	53.6,32.8 53.6,32.6 53.6,32.5 53.7,32.4 53.7,32.3 53.7,32.1 53.7,32 53.7,31.9 53.8,31.7 53.8,31.6 53.8,31.5 "/>
<polygon id="polygon3211" fill="#B5B5B6" stroke="#000000" stroke-miterlimit="10" points="51.8,67.3 50.1,66.2 48.7,64.6 
	47.8,62.9 47.4,61.1 46.9,59.2 46.5,57.2 46.4,55.4 46.7,53.8 47.6,52.2 49,51 50.6,50.4 52.3,50.3 54,50.4 55.7,50.6 57.5,50.7 
	59.2,50.6 60.9,50.4 62.6,50.1 64.1,49.4 65.2,48.8 65.6,48.2 67.6,47.7 67.6,47.7 68,48.1 69.5,49.4 71,51.2 71.5,53.2 71.5,55.2 
	71.5,57.4 71.5,59.7 71.5,61.9 71.4,64 71,65.7 70.2,66.8 68.5,67.2 66.6,67.2 64.6,67.4 62.7,67.6 60.9,67.7 59.1,67.7 57.2,67.7 
	55.3,67.7 53.5,67.7 "/>
<polyline id="polyline3213" fill="none" stroke="#000000" stroke-width="3" stroke-miterlimit="2.6131" points="67.6,47.7 68,48.1 
	69.5,49.4 71,51.2 71.5,53.2 71.5,55.2 71.5,57.4 71.5,59.7 71.5,61.9 71.4,64 71,65.7 70.2,66.8 68.5,67.2 66.6,67.2 64.6,67.4 
	62.7,67.6 60.9,67.7 59.1,67.7 57.2,67.7 55.3,67.7 53.5,67.7 51.8,67.3 50.1,66.2 48.7,64.6 47.8,62.9 47.4,61.1 46.9,59.2 
	46.5,57.2 46.4,55.4 46.7,53.8 47.6,52.2 49,51 50.6,50.4 52.3,50.3 54,50.4 55.7,50.6 57.5,50.7 59.2,50.6 60.9,50.4 62.6,50.1 
	64.1,49.4 65.2,48.8 65.6,48.2 "/>
<polygon id="polygon3215" fill="#FFFFFF" points="62.6,50.2 61.6,50.2 63.1,50.2 63.1,50.2 "/>
<polyline id="polyline3217" fill="none" stroke="#131E1F" stroke-width="3" stroke-miterlimit="2.6131" points="63.1,50.2 
	62.6,50.2 61.6,50.2 "/>
<polygon id="polygon3219" fill="#FFFFFF" stroke="#000000" stroke-miterlimit="10" points="58.7,65.2 52.8,50.2 62.6,50.2 
	62.6,50.2 "/>
<polygon id="polygon3221" fill="none" stroke="#000000" stroke-width="3" stroke-miterlimit="2.6131" points="58.7,65.2 52.8,50.2 
	62.6,50.2 62.6,50.2 "/>
<polygon id="polygon3223" fill="#71ACD9" stroke="#000000" stroke-miterlimit="10" points="57.7,54.2 57.7,57.3 57.7,59.7 
	57.8,60.8 58.2,60.2 58.6,58.6 58.7,56.9 58.8,55.2 58.9,53.4 59.1,52 58.9,51.2 58.6,50.8 58.2,50.7 58.2,50.7 57.8,50.7 
	57.7,50.7 57.7,51.6 "/>
<polygon id="polygon3225" fill="#FFFFFF" stroke="#000000" stroke-width="3" stroke-miterlimit="2.6131" points="57.7,54.2 
	57.7,57.3 57.7,59.7 57.8,60.8 58.2,60.2 58.6,58.6 58.7,56.9 58.8,55.2 58.9,53.4 59.1,52 58.9,51.2 58.6,50.8 58.2,50.7 
	58.2,50.7 57.8,50.7 57.7,50.7 57.7,51.6 "/>
<polygon id="polygon3227" fill="#FFFFFF" stroke="#000000" stroke-miterlimit="10" points="52.3,47.7 52.3,49.6 52.3,51.4 
	52.7,52.7 54,52.9 55.4,52.3 56.2,50.9 56.3,49.3 55.5,47.7 54.4,46.6 53.5,46.2 52.9,46.1 52.5,45.9 52.5,45.9 52.3,45.8 
	52.3,45.7 52.3,46.2 "/>
<polygon id="polygon3229" fill="none" stroke="#000000" stroke-width="3" stroke-miterlimit="2.6131" points="52.3,47.7 52.3,49.6 
	52.3,51.4 52.7,52.7 54,52.9 55.4,52.3 56.2,50.9 56.3,49.3 55.5,47.7 54.4,46.6 53.5,46.2 52.9,46.1 52.5,45.9 52.5,45.9 
	52.3,45.8 52.3,45.7 52.3,46.2 "/>
<polygon id="polygon3231" fill="#C6E2E0" points="57.8,42.8 57.6,42.7 57.4,42.6 57.2,42.5 56.9,42.5 56.7,42.4 56.5,42.3 
	56.2,42.3 56,42.2 55.8,42.2 55.5,42.2 55.3,42.2 55,42.2 54.7,42.2 54.5,42.2 54.3,42.3 54,42.3 53.8,42.4 53.6,42.5 53.3,42.5 
	53.1,42.6 52.9,42.7 52.7,42.8 52.5,42.9 52.3,43 52.1,43.2 51.9,43.3 51.8,43.4 51.6,43.6 51.5,43.7 51.3,43.9 51.2,44.1 51,44.2 
	50.9,44.4 50.8,44.6 50.7,44.8 50.6,45 50.6,45.2 50.5,45.4 50.4,45.6 50.4,45.8 50.4,46 50.3,46.2 50.3,46.5 50.3,46.7 50.4,46.9 
	50.4,47.1 50.4,47.3 50.5,47.5 50.6,47.7 50.6,47.9 50.7,48.1 50.8,48.3 50.9,48.5 51,48.7 51.2,48.8 51.3,49 51.5,49.2 51.6,49.3 
	51.8,49.5 51.9,49.6 52.1,49.7 52.3,49.9 52.5,50 52.7,50.1 52.9,50.2 53.1,50.3 53.3,50.4 53.6,50.4 53.8,50.5 54,50.6 54.3,50.6 
	54.5,50.7 54.7,50.7 55,50.7 55.3,50.7 55.5,50.7 55.8,50.7 56,50.7 56.2,50.6 56.5,50.6 56.7,50.5 56.9,50.4 57.2,50.4 57.4,50.3 
	57.6,50.2 57.8,50.1 58,50 58.2,49.9 58.4,49.7 58.6,49.6 58.7,49.5 58.9,49.3 59,49.2 59.2,49 59.3,48.8 59.5,48.7 59.6,48.5 
	59.7,48.3 59.8,48.1 59.9,47.9 59.9,47.7 60,47.5 60.1,47.3 60.1,47.1 60.1,46.9 60.2,46.7 60.2,46.5 60.2,46.5 60.2,46.2 60.1,46 
	60.1,45.8 60.1,45.6 60,45.4 59.9,45.2 59.9,45 59.8,44.8 59.7,44.6 59.6,44.4 59.5,44.2 59.3,44.1 59.2,43.9 59,43.7 58.9,43.6 
	58.7,43.4 58.6,43.3 58.4,43.2 58.2,43 58,42.9 "/>
<path id="path3233" inkscape:connector-curvature="0" fill="#B5B5B6" stroke="#131E1F" stroke-width="1.7053" stroke-miterlimit="2.6131" d="
	M60.2,46.5l0-0.2l0-0.2l0-0.2l0-0.2L60,45.4l-0.1-0.2L59.9,45l-0.1-0.2l-0.1-0.2l-0.1-0.2l-0.1-0.2l-0.1-0.2l-0.1-0.2L59,43.7
	l-0.2-0.2l-0.2-0.1l-0.2-0.1l-0.2-0.1L58.2,43L58,42.9l-0.2-0.1l-0.2-0.1l-0.2-0.1l-0.2-0.1l-0.2-0.1l-0.2-0.1l-0.2-0.1l-0.2,0
	l-0.2,0l-0.2,0l-0.2,0l-0.3,0l-0.3,0l-0.2,0l-0.2,0l-0.2,0l-0.2,0l-0.2,0.1l-0.2,0.1l-0.2,0.1l-0.2,0.1l-0.2,0.1l-0.2,0.1l-0.2,0.1
	L52.3,43l-0.2,0.1l-0.2,0.1l-0.2,0.1l-0.2,0.1l-0.2,0.2l-0.1,0.2l-0.1,0.2L51,44.2l-0.1,0.2l-0.1,0.2l-0.1,0.2L50.6,45l-0.1,0.2
	l-0.1,0.2l-0.1,0.2l0,0.2l0,0.2l0,0.2l0,0.2l0,0.2l0,0.2l0,0.2l0,0.2l0.1,0.2l0.1,0.2l0.1,0.2l0.1,0.2l0.1,0.2l0.1,0.2l0.1,0.2
	l0.1,0.2l0.1,0.2l0.1,0.2l0.2,0.2l0.2,0.1l0.2,0.1l0.2,0.1l0.2,0.1l0.2,0.1l0.2,0.1l0.2,0.1l0.2,0.1l0.2,0.1l0.2,0.1l0.2,0.1
	l0.2,0.1l0.2,0l0.2,0l0.2,0l0.2,0l0.3,0l0.3,0l0.2,0l0.2,0l0.2,0l0.2,0l0.2-0.1l0.2-0.1l0.2-0.1l0.2-0.1l0.2-0.1l0.2-0.1L58,50
	l0.2-0.1l0.2-0.1l0.2-0.1l0.2-0.1l0.2-0.1l0.2-0.2l0.1-0.2l0.1-0.2l0.1-0.2l0.1-0.2l0.1-0.2l0.1-0.2l0.1-0.2l0.1-0.2l0.1-0.2
	l0.1-0.2l0-0.2l0-0.2l0-0.2L60.2,46.5"/>
<polygon id="polygon3235" fill="#B5B5B6" stroke="#000000" stroke-miterlimit="10" points="56.8,53.1 57,51.4 57.8,49.7 58.7,47.9 
	59.4,46.6 59.7,45.9 59.7,45.6 59.7,45.2 59.7,45.2 59.7,44.8 59.7,44.7 60,44.8 61.2,45.2 62.8,45.8 64.6,46.5 66.5,47.3 68,48.2 
	69.4,49.4 70.5,51.2 71,53.1 70.5,54.7 69.3,56.1 67.8,57.2 66.1,57.9 64.4,57.9 62.6,57.6 60.9,56.9 59.2,56 57.7,54.7 "/>
<polygon id="polygon3237" fill="none" stroke="#000000" stroke-width="3" stroke-miterlimit="2.6131" points="56.8,53.1 57,51.4 
	57.8,49.7 58.7,47.9 59.4,46.6 59.7,45.9 59.7,45.6 59.7,45.2 59.7,45.2 59.7,44.8 59.7,44.7 60,44.8 61.2,45.2 62.8,45.8 
	64.6,46.5 66.5,47.3 68,48.2 69.4,49.4 70.5,51.2 71,53.1 70.5,54.7 69.3,56.1 67.8,57.2 66.1,57.9 64.4,57.9 62.6,57.6 60.9,56.9 
	59.2,56 57.7,54.7 "/>
<polygon id="polygon3239" fill="#FFFFFF" stroke="#000000" stroke-miterlimit="10" points="51.6,48.4 50.8,47.2 50.2,46.4 
	50.3,45.9 50.3,45.9 50.7,45.8 50.8,45.7 50.4,45.5 49.1,44.9 47.4,44.3 45.6,43.9 44,44.1 42.4,44.9 41.7,46.1 42.4,47.2 
	43.3,48.3 42.9,49.7 42.6,51.1 43.7,52.4 45.4,53.1 47.1,52.7 48.8,51.9 50.6,51.7 51.8,51.3 52,49.9 "/>
<polygon id="polygon3241" fill="none" stroke="#000000" stroke-width="3" stroke-miterlimit="2.6131" points="51.6,48.4 50.8,47.2 
	50.2,46.4 50.3,45.9 50.3,45.9 50.7,45.8 50.8,45.7 50.4,45.5 49.1,44.9 47.4,44.3 45.6,43.9 44,44.1 42.4,44.9 41.7,46.1 
	42.4,47.2 43.3,48.3 42.9,49.7 42.6,51.1 43.7,52.4 45.4,53.1 47.1,52.7 48.8,51.9 50.6,51.7 51.8,51.3 52,49.9 "/>
<polygon id="polygon3243" points="62.9,11.9 60.7,11.7 58.3,12 56.2,12.7 54.3,13.3 52.3,13 50.4,12.3 48.6,11.7 47,11.8 45.6,13.2 
	44.7,15.3 44.4,17.5 44.6,19.5 45.1,21.2 46.2,22.5 47.8,23.5 49.9,23.7 52.3,22.7 55.2,21.5 58.9,20.7 62.3,20.8 63.9,22.2 
	64.8,23.5 66.1,23.5 67.2,23.3 67.6,24.2 67.4,25.8 67.1,27.5 67.1,28.8 68,29.2 69.5,29.3 71,29.7 72,30.5 72,32 71.8,33.6 
	72.2,35.2 73.2,36.4 74.5,37 75.6,36.7 75.9,35.4 76,34.1 76.2,33.5 76.3,33.3 76.2,33.2 76.2,33.2 76,33.2 75.9,33.2 76.1,32.8 
	76.7,31.5 77.3,29.7 77.7,28 77.9,26.2 78.2,24.5 78.3,22.7 78.4,21 78.2,19.3 77.4,17.7 76.2,16.2 74.7,14.7 73,13.5 71.3,13 
	69.6,12.8 68,13 66.5,13 64.8,12.5 "/>
<polygon id="polygon3245" stroke="#131E1F" stroke-width="0.9638" stroke-miterlimit="2.6131" points="62.9,11.9 60.7,11.7 58.3,12 
	56.2,12.7 54.3,13.3 52.3,13 50.4,12.3 48.6,11.7 47,11.8 45.6,13.2 44.7,15.3 44.4,17.5 44.6,19.5 45.1,21.2 46.2,22.5 47.8,23.5 
	49.9,23.7 52.3,22.7 55.2,21.5 58.9,20.7 62.3,20.8 63.9,22.2 64.8,23.5 66.1,23.5 67.2,23.3 67.6,24.2 67.4,25.8 67.1,27.5 
	67.1,28.8 68,29.2 69.5,29.3 71,29.7 72,30.5 72,32 71.8,33.6 72.2,35.2 73.2,36.4 74.5,37 75.6,36.7 75.9,35.4 76,34.1 76.2,33.5 
	76.3,33.3 76.2,33.2 76.2,33.2 76,33.2 75.9,33.2 76.1,32.8 76.7,31.5 77.3,29.7 77.7,28 77.9,26.2 78.2,24.5 78.3,22.7 78.4,21 
	78.2,19.3 77.4,17.7 76.2,16.2 74.7,14.7 73,13.5 71.3,13 69.6,12.8 68,13 66.5,13 64.8,12.5 "/>
<polygon id="polygon3247" fill="#FFFFFF" stroke="#000000" stroke-miterlimit="10" points="64.2,76 62.9,77.4 62.4,78.9 63.6,79.7 
	65.5,80 67.3,80.2 68.9,79.7 70,78.4 70.3,77 69.3,76.4 67.7,76.2 66.6,76.2 65.6,76.3 64.6,76.7 67.6,75.2 67.6,75.2 67.1,75.2 
	65.8,75.4 "/>
<polyline id="polyline3249" fill="none" stroke="#000000" stroke-width="3" stroke-miterlimit="2.6131" points="67.6,75.2 
	67.1,75.2 65.8,75.4 64.2,76 62.9,77.4 62.4,78.9 63.6,79.7 65.5,80 67.3,80.2 68.9,79.7 70,78.4 70.3,77 69.3,76.4 67.7,76.2 
	66.6,76.2 65.6,76.3 64.6,76.7 "/>
<polygon id="polygon3251" fill="#FFFFFF" stroke="#000000" stroke-miterlimit="10" points="54.5,76.7 53.5,75.7 52,75.9 50.6,77 
	49.6,78.7 49.5,80.2 50.8,80.9 52.7,80.9 54.3,80.2 55.3,79.2 55.5,78.2 55.3,77.5 55.3,77.7 55.3,77.7 55.3,78.1 55.3,78.2 
	55.1,77.8 "/>
<polygon id="polygon3253" fill="none" stroke="#000000" stroke-width="3" stroke-miterlimit="2.6131" points="54.5,76.7 53.5,75.7 
	52,75.9 50.6,77 49.6,78.7 49.5,80.2 50.8,80.9 52.7,80.9 54.3,80.2 55.3,79.2 55.5,78.2 55.3,77.5 55.3,77.7 55.3,77.7 55.3,78.1 
	55.3,78.2 55.1,77.8 "/>
<circle id="circle3255" sodipodi:ry="0.588" sodipodi:cx="432.621" sodipodi:cy="274.03799" sodipodi:rx="0.588" fill="#FFFFFF" stroke="#000000" stroke-miterlimit="2.6131" cx="52.1" cy="32" r="0.3">
</circle>
<circle id="circle3257" sodipodi:ry="0.588" sodipodi:cx="448.737" sodipodi:cy="274.03799" sodipodi:rx="0.588" fill="#FFFFFF" stroke="#000000" stroke-miterlimit="2.6131" cx="61.2" cy="32" r="0.3">
</circle>
</svg>
