<?xml version="1.0" encoding="utf-8"?>
<!-- Generator: Adobe Illustrator 17.1.0, SVG Export Plug-In . SVG Version: 6.00 Build 0)  -->
<!DOCTYPE svg PUBLIC "-//W3C//DTD SVG 1.1//EN" "http://www.w3.org/Graphics/SVG/1.1/DTD/svg11.dtd">
<svg version="1.1" id="Ebene_1" xmlns="http://www.w3.org/2000/svg" xmlns:xlink="http://www.w3.org/1999/xlink" x="0px" y="0px"
	 width="100px" height="100px" viewBox="0 0 100 100" enable-background="new 0 0 100 100" xml:space="preserve">
<circle fill="#B2B2B2" cx="50" cy="50" r="50"/>
<path fill="#FFFFFF" d="M35.9,68.4c-0.2-0.9-1.3-2.3-0.5-3.1c0.7-0.6,0.3-1.4-0.6-1c-0.5,0.3-0.9,0.7-1,1.3c-0.4,0.4,0.2,1,0.4,1.4
	c0.3,0.5,0.7,1,1,1.5C35.4,68.8,36.1,69,35.9,68.4z"/>
<g>
	<path fill="#231815" d="M38,19.4c0.2,0.1,1,0.1,1.2,0.1c0.3,0,0.2-0.5,0.2-0.7c0-0.4-0.1-0.8,0-1.2c0.1-0.4,0.9-3.1,1.2-3.1
		c-0.1,0,0.2,1.8,0.5,1c0.4-1.2,0.9-2.3,1.5-3.4c0.3-0.7,1-0.3,1.6,0c1.2,0.5,2.3,1.1,3.3,1.8c0.5,0.3,0.9,0.6,1.3,0.9
		c0.1,0.1,1.1,0.5,0.7-0.1c-0.7-0.9-1.4-1.9-2.1-2.8c-0.3-0.3,0.6,0.1,0.6,0.2c0.7,0.4,1.3,0.9,1.9,1.4c1.5,1.2,3.1,2.6,3.8,4.3
		c0.1,0.3,0.3,0.7,0.3,1c0,0.4,0.7,0.2,0.8-0.1c0.3-1,0.5-2,0.5-3.1c0.3-4.9-5-9.1-9.7-8.5c-2.2,0.3-4.8,1.5-6.4,3.1
		c-1.1,1.1-1.8,2.5-2.1,4c-0.1,0.8-0.1,1.7-0.1,2.5C37.4,17.3,37.5,19.1,38,19.4C38,19.4,37.9,19.3,38,19.4z"/>
	<path fill="#FFFFFF" d="M39.2,19.6c-2.2-1-1.3,2.8-0.3,3.6c0.2,0.1,0.5,0.3,0.7,0.3c0.5,0,0.1-1.1,0.1-1.4
		C39.6,21.8,39.6,19.6,39.2,19.6C39,19.6,39.3,19.6,39.2,19.6z"/>
	<path fill="#FFFFFF" d="M54.1,18.7c-0.3-2-2.1-3.6-3.6-4.8c-0.4-0.3-0.8-0.7-1.3-1c-0.5-0.4-0.2,0.5-0.1,0.7
		c0.2,0.3,1.9,2.4,1.7,2.6c-0.1,0.1-4.4-3-4.8-3.2c-0.6-0.4-2.8-1.7-3.3-0.8c-0.3,0.7-0.7,1.4-1,2.1c-0.1,0.3-1,3.1-1.2,3.1
		c-0.3,0,0.2-1.2-0.3-1.3c-0.4-0.1-0.6,1.1-0.7,1.3c-0.3,0.8-0.1,1.6-0.1,2.4c0,1.6,0.2,3.3,0.8,4.9c0.6,1.4,2.5,2.3,3.7,2.9
		c1.4,0.7,2.6,1.2,4.1,0.9c1.6-0.4,3-1.7,4.2-2.8c1-1,1.4-1.8,1.5-3.3C54.1,21.2,54.2,19.9,54.1,18.7C53.8,16.6,54.1,18.7,54.1,18.7
		z M51.8,17.5c0,0-1.7-0.9-2.1-0.8c-0.4,0.1-0.8,0.4-1.1,0.7c0,0-0.4,0.5-0.4,0.3c-0.1-0.6,1.4-1.2,1.8-1.2
		C50.3,16.5,51.9,17.3,51.8,17.5C51.7,17.6,51.8,17.5,51.8,17.5z"/>
	<path fill="#FFFFFF" d="M55.4,19.7c-0.5-0.9-1.2-0.5-1.2,0.4c0,0.4-0.4,2.7,0,2.9c0.5,0.3,1.3-1.3,1.4-1.7
		C55.8,20.7,55.7,20.2,55.4,19.7C55.2,19.3,55.8,20.3,55.4,19.7z"/>
</g>
<path fill="#595757" d="M56.3,32c-0.8-0.7-1.9-1.2-2.8-1.6c-0.6-0.3-1.9-1.1-2.1-0.2c-0.1,0.7-0.2,1.4-0.3,2.1
	c0,0.2-0.1,1.4-0.2,1.6c0,0.3-2.1-1.5-2.1-0.6c0,0.5,0,1.1,0,1.6c0.1,5.8,0.1,11.5,0.2,17.3c0,2.7,0.1,5.4,0.1,8.1
	c0,0.7,0,1.4,0,2.1c0,0.1,0,0.2,0,0.4c0,0.5,2.4,0.3,2.7,0.3c1.1,0,2.2,0,3.3-0.2c0.6-0.1,0.8-0.2,0.8-0.8c0-1.4-0.1-2.8-0.1-4.2
	c-0.1-3.6-0.1-7.1-0.2-10.7c0-0.8-0.3-11.4-0.1-11.4c0.3,0,0.4,19.9,0.4,21.9c0,0.7-0.3,2.9,0.3,3.2c0.5,0,0.9-0.1,1.3-0.3
	c0.4-0.3,0.3-0.7,0.3-1.2c-0.1-1.7-0.1-3.3-0.1-5c-0.1-5.5-0.1-11.1-0.4-16.6c-0.1-1.3-0.1-2.6-0.4-3.9C56.8,33.3,56.7,32.5,56.3,32
	C55.5,31.2,57.2,32.9,56.3,32z"/>
<path fill="#595757" d="M48.9,32.7c0.3,0.2,1.7,1.3,1.8,0.6c0.2-1,0.3-2,0.5-3c0-0.2,0.2-0.7,0.1-0.9c-0.2-0.3-1-0.5-1.3-0.6
	c-0.7-0.3-0.6,0.6-0.7,1.1C49.2,30.3,48.6,32.5,48.9,32.7z"/>
<path fill="#FFFFFF" d="M46.8,30.7c0.6,0,1.4-0.1,1.9-0.5c0.4-0.3,0.2-0.7,0.2-1.2c0-0.7-0.7-0.3-1.2-0.3c-0.6,0.1-1.2,0-1.7-0.3
	c-0.6-0.3-1.3-0.6-1.9-0.9c-0.5-0.2-0.3,0.9-0.3,1.1C43.9,29.8,45.8,30.7,46.8,30.7z"/>
<path fill="#D3D3D4" d="M49,30.7c0.1-0.6-0.8,0-1,0c-0.6,0.2-1.3,0.3-1.9,0.1c-1.1-0.3-0.3,0.7,0,1.1c0.4,0.5,0.8,0.8,0.9,1.5
	c0,2,0,4,0.1,6c0.1,6,0.1,12.1,0.2,18.1c0,0.8,0,1.6,0,2.4c0,0.8,0.3,0.7,1.1,0.6c0.6-0.1,0.5-0.5,0.5-1c0-0.9,0-1.8,0-2.6
	c-0.1-6.1-0.1-12.2-0.2-18.3c0-1.5,0-3-0.1-4.5C48.5,32.7,48.8,31.9,49,30.7C49,30.6,48.9,31.4,49,30.7z"/>
<path fill="#595757" d="M43,28.5c-0.5,0.3-1,0.5-1.4,0.9c-0.2,0.2,0.1,0.6,0.2,0.8c0.5,0.8,1,1.6,1.4,2.4c0.3,0.5,0.6,1,0.9,1.6
	c0.2,0.4,1.4-0.5,1.6-0.7c0.3-0.2,1-0.4,0.7-0.8c-0.4-0.5-0.7-0.9-1.1-1.4C45.1,30.9,43.4,28.2,43,28.5C42.5,28.7,43,28.4,43,28.5z"
	/>
<path fill="#575554" d="M38.6,60.5c0.1-3.6,0.1-7.1,0.1-10.7c0-2.6-0.1-5.2-0.3-7.8c0-0.5-0.6-6.5-0.6-6.5c0.7,0,0.9,9.9,0.9,10.8
	c0.1,3.7,0.1,7.5,0.1,11.2c0,1,0,2-0.1,3c0,0.3,0,0.5,0,0.8c0,0.3-0.1,1.4,0.3,1.5c0.9,0.1,1.7,0.1,2.6,0.1c0.5,0,5.4,0.3,5.4-0.4
	c0-0.5,0-1,0-1.5c-0.1-5.7-0.1-11.4-0.2-17.2c0-2.7-0.1-5.4-0.1-8c0-0.7,0-1.4,0-2c0-1-1-0.1-1.5,0.1c-0.3,0.2-0.9,0.8-1.2,0.4
	c-0.5-0.8-1-1.7-1.5-2.6c-0.3-0.4-0.5-0.8-0.8-1.3c-0.2-0.4-0.4-0.3-0.8-0.1c-1,0.4-1.9,0.8-2.8,1.3c-1.1,0.6-1.9,0.9-2.3,2.1
	c-0.4,1.3-0.7,2.7-1,4c-0.8,4.4-1.3,8.8-1.5,13.2c-0.1,2.4-0.1,4.8,0,7.2c0,0.5,0.1,1.1,0.1,1.6c0,0.3,0,1.3,0.2,1.5
	c0.3,0.2,1.1-0.1,1.4-0.1C35.4,61.2,38.6,61.1,38.6,60.5C38.6,58.7,38.6,60.7,38.6,60.5z"/>
<path fill="#FFFFFF" d="M37.7,66.4c-0.3-0.5-0.4-1.3-0.4-1.9c0-0.2,0.2-0.5,0.2-0.2c-0.1,0.6,0.4,3.3,1.1,1.7
	c0.5-1.2,0.2-2.9,0.1-4.2c0-0.4,0-0.8-0.5-0.8c-0.4,0.1-0.8,0.1-1.2,0.2c-0.4,0-1.9,0-2,0.5c-0.1,1-0.1,2-0.1,2.9
	c0.1,1.1,0.2,2.5,1,3.3c0.5,0.5,1,0.5,1.4-0.1C37.5,67.5,37.9,66.7,37.7,66.4C37.6,66.3,37.7,66.4,37.7,66.4z"/>
<path fill="#9FA0A0" d="M55.5,63.3c0.1-0.5-2.1-0.1-2.4-0.1c-1.3,0-2.7,0-4,0c-0.7,0,0.4-2.8-0.6-2.6c-0.5,0.1-1.2,0-1.2,0.6
	c0,0.2,0.1,1.8-0.1,1.8c-2.2,0.2-4.4,0.2-6.6,0.1c-0.3,0-1.7-0.3-1.7,0.2c0,0.6,0.1,1.1,0,1.7c0,0.5-0.1,1.1-0.5,1.5
	c-0.1,0.1-0.2,0.3-0.4,0.3c-0.3,0-0.3,0.5-0.4,0.7c0,0,0.1,0.6,0.1,0.7c0,0.5,0,0.9,0,1.4c0.1,3,0.1,6.1,0.2,9.1
	c0,0.9,0,1.8,0.1,2.7c0,0.2,1.5,0.1,1.7,0.1c2.7,0,5.4,0,8,0c0.3,0,0.1-4.1,0.2-4.5c0-3.2,0-6.3,0.1-9.5c0-1.1,0-2.2,0-3.2
	c0-0.3,0-0.6,0-0.9c0-0.1,0.2-0.5,0.2-0.3c0.1,0.2,0,1.1,0,1.3c0,1.1,0,2.2,0,3.4c0,4.6,0,9.1-0.1,13.7c2.3,0,4.6,0,6.9,0
	c0.6,0,0.4-0.1,0.4-0.7c0-1,0-2.1,0-3.1C55.5,72.7,55.5,68,55.5,63.3z"/>
<path fill="#FFFFFF" d="M57.5,60.9C57.3,60.8,56,61,56,61.3c-0.1,0.3,0,1,0,1.3c0,0.1,0,0.3,0,0.4c0,0.2-0.4,0.1-0.3,0.3
	c-0.1,0.3,0,0.9,0,1.2c0,0.2-0.1,1.1,0.1,1.2c0.4,0.3,1.2-0.9,1.4-1.2c0.3-0.6,0.4-1.3,0.5-2C57.7,62.2,57.8,61.1,57.5,60.9
	C57.4,60.9,57.6,60.9,57.5,60.9z"/>
<path fill="#DCDDDD" d="M40.5,46.8c-0.1-1.4-0.9-15.4-2.3-15c-0.5,0.2,0.4,2.4,0.5,2.9c0.3,1.3,0.5,2.7,0.7,4
	c0.3,2.7,0.4,5.4,0.6,8.1c0.1,2.8,0.1,5.5,0.1,8.3c0,1.4-0.1,2.9-0.1,4.3c0,0.5-0.3,3.5,0.3,3.5c0.6,0,0.3-2.6,0.3-3.1
	c0-1.4,0.1-2.9,0.1-4.3C40.6,52.6,40.6,49.7,40.5,46.8C40.3,41.8,40.7,52.1,40.5,46.8z"/>
<path fill="#DCDDDD" d="M43.1,45c0-2.7-0.1-5.4-0.5-8c-0.2-1.3-0.5-2.6-0.8-3.9c-0.2-0.7-0.4-1.4-0.7-2.1c-0.1-0.3-0.6-0.9-0.7-0.2
	c-0.1,0.4,0.4,1.2,0.5,1.6c0.2,0.7,0.4,1.4,0.6,2.1c0.3,1.3,0.5,2.6,0.7,3.9c0.3,2.8,0.3,5.6,0.4,8.5c0,2.9,0.1,5.8,0.1,8.8
	c0,1.5,0,2.9,0,4.4c0,0.8,0,1.6,0,2.4c0,0.2,0.2,1.2,0.6,0.6c0.2-0.4,0.1-1.3,0.1-1.8c0-0.8,0-1.6,0-2.4c0-1.6,0-3.2-0.1-4.7
	C43.2,51,43.1,48,43.1,45C43.1,40.1,43.1,50.9,43.1,45z"/>
<path fill="#DCDDDD" d="M45.5,55.7c-0.2-5.2,0.2-10.3,0-15.5c-0.1-1.3-0.1-2.6-0.2-3.9c0-0.7-0.1-1.3-0.1-2c0-0.3-0.4-0.5-0.6-0.2
	c-0.2,0.4,0,1.3,0.1,1.7c0,0.7,0.1,1.3,0.1,2c0.1,1.3,0.1,2.6,0.2,3.9c0.1,2.6,0.1,5.2,0,7.8c-0.1,2.5-0.2,5.1,0,7.7
	c0.1,1.2,0.3,2.5,0.4,3.7c0.1,0.6,0.1,1.2,0.1,1.9c0,0.3,0.4,0.5,0.6,0.2c0.2-0.4,0-1.3,0-1.7c-0.1-0.6-0.1-1.2-0.2-1.8
	C45.7,58.2,45.6,57,45.5,55.7C45.4,53.3,45.6,58.1,45.5,55.7z"/>
<path fill="#9FA0A0" d="M43.5,29.2c-0.5,0.1-1,0.5-1.4,0.9c-0.2,0.3-0.4,1.1,0.2,0.7c0.4-0.2,0.6-0.7,1.1-0.9
	c0.2-0.1,0.4-0.1,0.5-0.3C43.9,29.4,43.7,29.2,43.5,29.2C43,29.3,43.9,29.2,43.5,29.2z"/>
<path fill="#9FA0A0" d="M45,31.2c-0.5,0.3-1,0.9-1.6,1.1c-0.4,0.1-0.2,0.8,0.2,0.6c0.6-0.2,1-0.7,1.5-1c0.2-0.1,0.4-0.2,0.4-0.4
	C45.5,31.3,45.3,31.1,45,31.2C44.7,31.4,45.4,31,45,31.2z"/>
<path fill="#DCDDDD" d="M37.6,46.8c-0.1-2.4-0.5-4.8-0.6-7.1c-0.1-1.1-0.1-2.1-0.2-3.2c-0.1-0.5-0.1-2.9-0.8-3c-0.7-0.1-0.1,1.7,0,2
	c0.2,1.1,0.2,2.3,0.3,3.5c0.1,2.5,0.5,4.9,0.6,7.3c0.2,2.5,0.2,5,0.3,7.5c0,1.2,0.1,2.4,0.1,3.6c0,0.5-0.3,3.2,0.2,3.4
	c0.7,0.4,0.4-1.9,0.4-2.2c0-1.3-0.1-2.6-0.1-3.9C37.8,52,37.7,49.4,37.6,46.8C37.6,44.5,37.8,51.3,37.6,46.8z"/>
<path fill="#DCDDDD" d="M35.1,51.1c-0.1-1.7-0.2-3.3-0.4-5c0-0.5,0.2-4.6-0.4-4.4c-0.5,0.1-0.2,1.4-0.2,1.8c0,0.8-0.1,1.7-0.1,2.5
	c0.1,1.8,0.3,3.6,0.4,5.4c0.1,1.8,0.2,3.6,0.2,5.4c0,0.6-0.1,4.5,0.4,4.5c0.6,0,0.2-4,0.2-4.6C35.2,54.7,35.1,52.9,35.1,51.1
	C35,49.3,35.2,54.3,35.1,51.1z"/>
<path fill="#DCDDDD" d="M50.4,57.4c-0.1-5.3-0.1-10.7-0.1-16c0-1.3,0-2.7,0-4c0-0.7,0-1.3,0-2c0-0.4,0.2-1.4,0-1.8
	c-0.2-0.3-0.6-0.1-0.6,0.2c0,0.7,0,1.3,0,2c0,1.5,0,2.9,0,4.4c0,5.4-0.1,10.7,0.1,16.1c0,1.2-0.1,2.5,0.1,3.8
	c0.1,0.5,0.2,1.1,0.2,1.6c0,0.3-0.3,1.1,0,1.3c0.7,0.7,0.7-1.7,0.7-2C50.7,59.7,50.5,58.6,50.4,57.4C50.4,54.7,50.5,59.1,50.4,57.4z
	"/>
<path fill="#DCDDDD" d="M53.1,62.7c-0.4-1.1-0.3-2.3-0.4-3.5c-0.1-1.5-0.2-3.1-0.2-4.6c-0.1-3,0-6.1-0.1-9.1c-0.1-3-0.3-6-0.3-9
	c0-1.5,0.1-3.1,0.1-4.6c0-0.5,0.3-1.8-0.1-2.2c-0.2-0.2-0.7-0.1-0.7,0.2c0,0.1,0,0.2,0.1,0.3c0,0.4,0,0.8,0,1.2c0,0.8,0,1.6,0,2.3
	c0,1.6-0.1,3.1-0.1,4.7c0,3.1,0.3,6.3,0.3,9.4c0,3,0,6,0.1,9c0.1,1.4,0.1,2.8,0.2,4.2c0,0.6,0.1,1.2,0.3,1.8
	C52.6,63.3,53.3,63.1,53.1,62.7C52.8,61.8,53.3,63.1,53.1,62.7z"/>
<path fill="#DCDDDD" d="M54.7,54.9c-0.4-5.9-0.2-11.8-0.3-17.8c0-1.1-0.1-2.3-0.2-3.4c0-0.6-0.1-1.1,0-1.7c0-0.3,0.4-1,0.2-1.3
	c-0.6-0.9-0.9,2-0.9,2.2c0,1.2,0.2,2.4,0.3,3.6c0.3,6-0.2,12.1,0.3,18.2c0.1,1.4,0.3,2.8,0.4,4.2c0.1,0.8,0.1,1.5,0.2,2.3
	c0,0.4-0.2,1.6,0.2,1.8c0.8,0.4,0.4-3,0.3-3.4C55,58,54.8,56.5,54.7,54.9C54.5,52.2,54.8,57.5,54.7,54.9z"/>
<path fill="#DCDDDD" d="M56.6,45.5c0.1-2.6,0-5.1-0.2-7.7c-0.1-1.2-0.1-2.5-0.1-3.7c0-0.3,0.1-3-0.6-2.3c-0.2,0.2,0.1,1,0.1,1.3
	c0,0.6-0.1,1.1-0.1,1.7c0,1.2,0.1,2.5,0.2,3.7c0.1,2.6,0.2,5.1,0.1,7.7c0,2.6,0.2,5.2,0.4,7.8c0.1,1.3,0.2,2.6,0.3,3.9
	c0,0.4-0.2,3,0.6,2.6c0.5-0.3,0.1-2.9,0-3.4c-0.1-1.3-0.2-2.6-0.3-3.9C56.7,50.8,56.5,48.2,56.6,45.5C56.8,43,56.4,50.5,56.6,45.5z"
	/>
<path fill="#9FA0A0" d="M50.7,31.6c-0.5-0.2-0.9-0.5-1.4-0.6c-0.4-0.1-0.6,0.6-0.2,0.6c0.5,0.1,0.9,0.4,1.4,0.6
	C50.9,32.4,51,31.8,50.7,31.6C50.2,31.4,51,31.8,50.7,31.6z"/>
<path fill="#B5B5B6" d="M41.7,46.4c0-2.6-0.1-5.2-0.6-7.8c-0.2-1.4-0.6-2.8-0.9-4.1c-0.1-0.5-0.5-3.4-1-3.2
	c-0.7,0.2,1.1,6.8,1.3,7.7c0.5,2.6,0.5,5.3,0.5,8c0,2.9-0.3,5.7-0.2,8.6c0,1.4,0.1,2.9,0.1,4.3c0,0.4-0.2,3.4,0.5,3
	c0.5-0.3,0.2-3.2,0.2-3.8c0-1.4-0.1-2.9-0.1-4.3C41.4,52,41.7,49.2,41.7,46.4C41.7,44.1,41.7,49.2,41.7,46.4z"/>
<path fill="#B5B5B6" d="M36,49.3c-0.2-2-0.3-4-0.5-6c-0.1-0.6,0-5.1-0.7-5c-0.5,0.1-0.1,1.5-0.1,1.9c0,1,0,1.9,0.1,2.9
	c0.2,2.2,0.3,4.4,0.6,6.6c0.2,2,0.4,4,0.5,6c0.1,1,0.1,2,0.1,3c0,0.4-0.3,2.2,0.3,2.2C37.2,60.9,36.1,50.5,36,49.3
	C35.8,47,36.4,53,36,49.3z"/>
<path fill="#B5B5B6" d="M43.7,31.3c0.3-0.2,1.3-0.8,0.9-1.2c-0.3-0.4-0.9,0.4-1.2,0.5c-0.2,0.1-0.9,0.3-1,0.5
	c-0.6-0.5-0.3,0.9-0.2,1c0.9,2.5,1,5.3,1.2,7.9c0.3,3.1,0.5,6.2,0.5,9.3c0,3.3-0.1,6.5-0.1,9.8c0,0.5-0.3,3.8,0.3,3.8
	c0.6,0,0.3-3.4,0.3-3.9c0-3.3,0.1-6.6,0.1-9.9c0-3.1-0.1-6.2-0.4-9.3c-0.3-2.8-0.4-5.7-1.4-8.4C43,31.8,43.4,31.5,43.7,31.3z"/>
<path fill="#B5B5B6" d="M45.8,32.2c-0.4,0.4-1,0.6-1.5,0.9c-0.3,0.1-0.9,1-0.1,0.9c0.4,0,1-0.6,1.4-0.8c0.2-0.1,0.8-0.4,0.9-0.7
	C46.3,32.2,46,32,45.8,32.2C45.4,32.5,46.1,31.9,45.8,32.2z"/>
<path fill="#B5B5B6" d="M46.9,56.5c-0.1-1.2-0.1-2.4-0.2-3.6c0-0.3-0.1-0.7,0-1c0-0.2,0.2-0.3,0.2-0.4c0-0.3-0.2-0.4-0.3-0.7
	c-0.1-1.3,0-2.6,0.1-4c0-1.3-0.1-2.6-0.1-4c0-1.3,0.1-2.6,0-3.9c-0.1-1.4-0.3-2.8-0.3-4.2c0-0.3,0.2-1-0.2-1.2
	c-0.5-0.2-0.4,1-0.4,1.3c0,1.5,0.2,2.9,0.3,4.4c0.1,1.3,0,2.5,0,3.8c0,1.4,0.2,2.7,0.1,4.1c0,1.4-0.2,2.9,0,4.3
	c0.1,0.9,0,1.9,0.1,2.9c0.2,2.5,0.4,5,0.3,7.5c0,0.3-0.2,1.1,0.3,1.1c0.6,0,0.3-1.2,0.4-1.5C47,59.6,47,58,46.9,56.5
	C46.8,55.3,47,58.4,46.9,56.5z"/>
<path fill="#A4A4A5" d="M50.5,32.5c-0.5,0.1-1-0.4-1.4-0.5c-0.4,0-0.4,0.6,0,0.7c0.6,0,1,0.5,1.6,0.4C51.1,33,50.9,32.4,50.5,32.5
	C50.3,32.5,50.9,32.4,50.5,32.5z"/>
<path fill="#9FA0A0" d="M50.9,30.6c-0.5-0.1-0.8-0.6-1.3-0.5c-0.4,0-0.7,0.6-0.2,0.7c0.4,0.1,0.7,0.2,1.1,0.4
	C51,31.4,51.3,30.7,50.9,30.6C50.4,30.5,51.3,30.7,50.9,30.6z"/>
<path fill="#B5B5B6" d="M51.5,56.8c-0.2-5.2-0.1-10.5-0.1-15.7c0-1.2,0.1-2.5-0.1-3.7c-0.1-0.6-0.2-1.2-0.2-1.8c0-0.5,0.2-1.3,0-1.7
	c-0.1-0.3-0.5-0.3-0.6,0c-0.1,0.6-0.1,1.2-0.1,1.8c0,1.4,0.2,2.7,0.3,4.1c0.2,5.2-0.1,10.4,0,15.5c0,1.3,0.1,2.6,0.2,3.9
	c0.1,0.6,0.1,1.3,0.2,1.9c0,0.4-0.1,1.4,0.1,1.7c0.2,0.3,0.6,0.1,0.6-0.2c0-0.6-0.1-1.2-0.1-1.9C51.7,59.5,51.5,58.1,51.5,56.8
	C51.3,54.2,51.5,58.7,51.5,56.8z"/>
<path fill="#B5B5B6" d="M53.6,54.6c0-2.9-0.1-5.9-0.1-8.8c0-2.9-0.3-5.8-0.2-8.7c0-1.3,0.1-2.6,0.1-3.9c0-0.3-0.1-3.5-0.8-2.9
	c-0.3,0.3,0,1,0.1,1.3c0.1,0.7,0.1,1.4,0.1,2.1c0,1.4-0.1,2.9-0.1,4.3c0,3,0.2,5.9,0.2,8.9c0,2.9,0,5.9,0.1,8.8
	c0.1,1.4,0.2,2.8,0.4,4.1c0.1,0.7,0.1,1.5,0.2,2.3c0,0.2-0.1,1.3,0.5,1c0.6-0.3-0.1-3.5-0.1-4C53.8,57.6,53.6,56.1,53.6,54.6
	C53.6,51.8,53.6,57.4,53.6,54.6z"/>
<path fill="#B5B5B6" d="M56,59.5c-0.3-5.6-0.6-11.3-0.6-16.9c0-2.7,0-5.3-0.3-7.9c-0.1-0.5-0.1-1.1-0.1-1.6c0-0.3,0.3-1.3,0-1.5
	c-0.8-0.7-0.5,2.3-0.5,2.5c0.5,5.6,0.2,11.3,0.4,16.9c0.1,2.8,0.2,5.6,0.4,8.3c0,0.6-0.4,3.3,0.2,3.5c0.6,0.3,0.4-0.8,0.4-1
	C56,61,56.1,60.2,56,59.5C55.9,58.3,56.1,60.5,56,59.5z"/>
<path fill="#B5B5B6" d="M37.7,36.9c-0.1-0.9-0.3-1.7-0.5-2.6c-0.1-0.3-0.1-2.1-0.7-1.8c-0.4,0.2,0.1,1.6,0.2,2
	c0.2,0.9,0.4,1.8,0.5,2.7c0.1,0.6,0.5,4.8,1,4.8C38.8,42.1,37.8,37.5,37.7,36.9C37.5,35.6,37.9,38.6,37.7,36.9z"/>
<path fill="#FFFFFF" d="M42.1,31.6c-1.3,0.1-2.5,0.5-3.8,0.9c-0.6,0.2-1.3,0.4-1.8,0.7c-0.3,0.2,0,0.8,0.3,0.6
	c0.9-0.6,2.2-0.8,3.3-1.1c0.7-0.2,1.3-0.4,2-0.4C42.5,32.2,42.5,31.5,42.1,31.6C41.1,31.6,42.5,31.5,42.1,31.6z"/>
<path fill="#FFFFFF" d="M43.1,33.5c-0.7,0.2-6.2,0.8-5.9,1.9c-0.3-0.1-2.5-0.2-1.9,0.6c0.2,0.2,0.9,0,1.2,0c0.3,0,1,0.2,0.9-0.4
	c0.3,0.2,1.2-0.4,1.6-0.5c0.7-0.2,1.3-0.3,2-0.4c0.7-0.1,1.4-0.2,2-0.4c0.2,0,0.5-0.1,0.6-0.3C43.5,33.6,43.4,33.4,43.1,33.5
	C41.2,34,43.5,33.3,43.1,33.5z"/>
<path fill="#FFFFFF" d="M46.7,35.2c-1.5,0-2.9,0.3-4.3,0.6c-0.7,0.2-1.4,0.3-2.1,0.5c-0.5,0.1-2,0.3-2.3,0.8c0.1-0.7-1-0.2-1.3-0.1
	c-0.3,0-0.7,0-1,0c-0.2-0.1-0.5-0.4-0.7-0.2c-0.8,0.5,0.8,0.9,1.1,0.9c0.4,0,1.6,0,1.9-0.4c-0.1,0.8,1.7,0,2.1-0.1
	c0.9-0.3,1.9-0.5,2.8-0.7c0.9-0.2,1.9-0.3,2.8-0.4c0.3,0,1,0.1,1.2-0.1C47.1,35.7,47,35.2,46.7,35.2C43.8,35.3,47.1,35.2,46.7,35.2z
	"/>
<path fill="#FFFFFF" d="M46.3,37.9c-1.4,0.1-2.8,0.2-4.2,0.3c-0.7,0.1-1.4,0.2-2.1,0.4c-0.4,0.1-1.6,0.2-1.9,0.6
	c-0.2-0.4-1.7-0.2-2-0.2c-0.3,0-1.3-0.3-1.5,0c-0.4,0.6,0.9,0.6,1.2,0.6c0.4,0,2.1,0.3,2.3-0.1c0.1,0.4,4.4-0.6,5-0.7
	c0.8-0.1,1.7-0.1,2.5-0.2c0.3,0,0.8,0.1,1-0.2C46.7,38.2,46.6,37.9,46.3,37.9C43.7,38.1,46.7,37.9,46.3,37.9z"/>
<path fill="#FFFFFF" d="M46.5,40.1c-1.6,0.3-3.3,0.4-4.9,0.6c-0.9,0.1-1.8,0.2-2.6,0.4c-0.2,0-0.5,0-0.6,0.3c0,0.2,0.1,0.5,0.4,0.4
	c1.6-0.3,3.3-0.5,4.9-0.6c0.9-0.1,1.8-0.2,2.6-0.3c0.2,0,0.6,0,0.6-0.3C46.9,40.3,46.7,40.1,46.5,40.1
	C43.9,40.5,46.9,40.1,46.5,40.1z"/>
<path fill="#FFFFFF" d="M46.3,43.1c-0.9,0-8.3,0.1-8.1,1.2c-0.5-0.3-2.1,0-2.6-0.1c-0.3,0-1.9-0.6-1.8,0.2c0.1,0.6,2,0.5,2.4,0.5
	c0.4,0,2.2,0.3,2.1-0.4c0.3,0.3,1.9-0.3,2.3-0.4c0.8-0.1,1.7-0.2,2.5-0.2c0.8,0,1.6-0.1,2.5-0.1c0.3,0,0.8,0.1,1-0.2
	C46.7,43.3,46.6,43.1,46.3,43.1C43.8,43.1,46.7,43,46.3,43.1z"/>
<path fill="#FFFFFF" d="M46.7,45.2c-1.7,0.1-3.4,0.2-5.1,0.5c-0.8,0.1-1.7,0.3-2.5,0.4c-0.2,0-0.5,0-0.6,0.3c0,0.2,0.1,0.5,0.4,0.4
	c1.6-0.3,3.3-0.6,5-0.7c0.8-0.1,1.7-0.1,2.5-0.2c0.2,0,0.5,0,0.6-0.2C47,45.5,46.9,45.2,46.7,45.2C44.1,45.4,47.1,45.2,46.7,45.2z"
	/>
<path fill="#FFFFFF" d="M46.6,48.1c-1.6,0.3-3.2,0.4-4.9,0.6c-0.9,0.1-1.8,0.2-2.6,0.4c-0.2,0-0.5,0-0.6,0.3c0,0.2,0.1,0.5,0.4,0.4
	c1.6-0.3,3.2-0.4,4.9-0.6c0.9-0.1,1.7-0.2,2.6-0.3c0.2,0,0.5,0,0.6-0.3C47.1,48.3,46.9,48.1,46.6,48.1C44.1,48.6,47,48.1,46.6,48.1z
	"/>
<path fill="#FFFFFF" d="M46.7,50.9c-1.3-0.3-2.9,0.2-4.2,0.4c-0.6,0.1-3.7,0.2-3.7,0.8c-0.2-0.4-2.5,0.1-2.9,0.1
	c-0.4,0-2.5-0.5-2.6-0.1c-0.2,0.9,5.5,1.1,5.6,0.2c0.2,0.5,4.3-0.4,4.9-0.6c0.7-0.1,1.5-0.3,2.2-0.3c0.2,0,0.7,0.2,0.9,0
	C46.9,51.3,46.9,51,46.7,50.9C45.8,50.7,47.1,51,46.7,50.9z"/>
<path fill="#FFFFFF" d="M46.7,53.6c-0.9,0-8.1,0.2-8.1,1c-0.9,0.5-2,0.4-3,0.5c-0.6,0.1-1.2,0.1-1.8-0.2c-0.2-0.1-0.9-0.3-0.7,0.3
	c0.4,0.9,2.4,0.5,3.1,0.5c0.7-0.1,1.4-0.1,2-0.3c0.2-0.1,0.7-0.2,0.8-0.4c0.1-0.3,0.4-0.2,0.8-0.2c1.5-0.2,3-0.3,4.6-0.4
	c0.8-0.1,1.5-0.1,2.3-0.1C47.1,54.2,47.1,53.6,46.7,53.6C44.1,53.6,47.1,53.6,46.7,53.6z"/>
<path fill="#FFFFFF" d="M46.8,56.2c-1.6,0-3.2,0.3-4.8,0.4c-0.9,0.1-1.7,0.2-2.6,0.2c-0.2,0-0.5-0.1-0.6,0.2c-0.1,0.2,0,0.5,0.3,0.5
	c1.6,0,3.2-0.3,4.8-0.4c0.9-0.1,1.7-0.2,2.6-0.2c0.2,0,0.5,0.1,0.6-0.2C47.1,56.5,47,56.2,46.8,56.2C44.2,56.3,47.2,56.2,46.8,56.2z
	"/>
<path fill="#FFFFFF" d="M47,59c-1.7,0.3-3.4,0.3-5,0.3c-0.9,0-1.8,0.1-2.7,0.2c-0.2,0-0.6,0-0.6,0.3c0,0.2,0.1,0.5,0.4,0.4
	c1.7-0.3,3.4-0.3,5-0.3c0.9,0,1.8-0.1,2.7-0.2c0.2,0,0.6,0,0.6-0.3C47.4,59.2,47.3,59,47,59C44.3,59.6,47.4,58.9,47,59z"/>
<path fill="#FFFFFF" d="M38.1,41.7c-0.9,0-1.9,0.1-2.8-0.1c-0.2,0-0.8-0.3-1-0.1c-0.1,0.2-0.1,0.5,0.1,0.6c0.9,0.3,1.9,0.3,2.9,0.3
	c0.3,0,0.9,0.1,1-0.2C38.4,42,38.3,41.7,38.1,41.7C36.9,41.7,38.5,41.7,38.1,41.7z"/>
<path fill="#FFFFFF" d="M38.2,46.9c-1,0.2-2.1,0.3-3.1,0c-0.3-0.1-0.9-0.3-1.1-0.2c-0.3,0.2-0.1,0.6,0.2,0.6c1.1,0.1,2,0.5,3.1,0.3
	c0.3,0,1.1,0,1.3-0.3C38.7,47.3,38.4,46.9,38.2,46.9z"/>
<path fill="#FFFFFF" d="M38.2,49.6c-1.1,0-2.2,0.2-3.3,0.1c-0.3,0-1-0.3-1.3-0.1c-0.3,0.1-0.3,0.6,0,0.6c1.1,0.3,2.3,0.2,3.4,0.1
	c0.3,0,1,0.1,1.3-0.1C38.6,50,38.6,49.6,38.2,49.6C36.8,49.6,38.6,49.6,38.2,49.6z"/>
<path fill="#FFFFFF" d="M37.9,57.1c-1,0.2-2,0.4-3,0.3c-0.4,0-0.9-0.1-1.3-0.4c-0.4-0.2-0.7,0.4-0.3,0.6c0.9,0.5,2.1,0.5,3.1,0.4
	c0.6-0.1,1.1-0.2,1.7-0.3C38.5,57.7,38.3,57.1,37.9,57.1C36.7,57.4,38.3,57.1,37.9,57.1z"/>
<path fill="#FFFFFF" d="M38.2,59.6c-1,0.2-2,0.3-3.1,0.3c-0.3,0-1-0.3-1.3-0.1c-0.3,0.1-0.3,0.6,0,0.6c1.1,0.2,2.3,0.2,3.4,0.1
	c0.3,0,1.1,0,1.3-0.3C38.7,60,38.4,59.6,38.2,59.6C36.7,59.9,38.6,59.6,38.2,59.6z"/>
<path fill="#FFFFFF" d="M46.7,61.5c-1.6,0-3.2,0.3-4.8,0.4c-0.7,0-1.5,0-2.2-0.1c-0.2,0-0.5-0.2-0.7,0.1c-0.1,0.2-0.1,0.5,0.1,0.5
	c1.6,0.3,3.3,0.1,4.9-0.1c0.8-0.1,1.5-0.2,2.3-0.2c0.2,0,0.5,0.1,0.6-0.2C47,61.7,46.9,61.5,46.7,61.5
	C44.2,61.5,47.1,61.5,46.7,61.5z"/>
<path fill="#FFFFFF" d="M45.5,32.9c-0.7-0.9-1.4-1.8-2.1-2.7c-0.2-0.3-0.6-0.5-0.7-0.9c-0.1-0.4-0.7-0.2-0.6,0.2
	c0.1,0.8,1.1,1.6,1.6,2.2c0.4,0.5,0.8,0.9,1.2,1.4c0.1,0.1,0.3,0.5,0.6,0.3C45.6,33.3,45.6,33,45.5,32.9
	C45,32.3,45.7,33.2,45.5,32.9z"/>
<path fill="#FFFFFF" d="M50.1,29.2c-0.2,0.9-0.5,1.8-0.7,2.7c-0.1,0.3-0.3,0.8,0,1c0.2,0.2,0.5,0.1,0.5-0.1c0.2-0.9,0.5-1.8,0.7-2.7
	c0.1-0.3,0.3-0.8,0-1C50.4,28.9,50.2,28.9,50.1,29.2C49.9,30.4,50.2,28.8,50.1,29.2z"/>
<path fill="#FFFFFF" d="M54.6,31c-0.8-0.2-1.7-0.2-2.5-0.2c-0.1,0-1.7,0.2-0.9,0.7c0.2,0.1,0.7,0,0.9,0c0.5,0,1,0,1.5,0
	c0.3,0,0.9,0.3,1.1,0C54.9,31.3,54.8,31,54.6,31C53.5,30.7,55,31,54.6,31z"/>
<path fill="#FFFFFF" d="M56.1,32.4c-1.2,0-2.4,0-3.7,0.1c-0.4,0-1.1-0.1-1.5,0c-0.3,0.1-0.3,0.6,0,0.6c1.1,0.2,2.5-0.1,3.6-0.1
	c0.4,0,1.3,0.2,1.7,0C56.5,32.8,56.4,32.4,56.1,32.4z"/>
<path fill="#FFFFFF" d="M55.1,35.2c-1.3-0.3-2.7-0.2-4-0.2c-0.6,0-1.2,0-1.8,0.1c-0.3,0-1,0.4-0.4,0.7c0.4,0.2,1.3-0.1,1.7-0.1
	c0.7,0,1.5,0.1,2.2,0.1c0.7,0,1.4,0,2.1,0.2C55.3,35.9,55.5,35.3,55.1,35.2C54.2,34.9,55.5,35.3,55.1,35.2z"/>
<path fill="#FFFFFF" d="M55.4,37.9c-0.9-0.6-2.6-0.2-3.6-0.2c-0.7,0-1.5,0-2.2,0c-0.1,0-1.7,0.1-0.9,0.6c0.4,0.3,1.7,0,2.1,0
	c0.7,0,1.5,0,2.2,0c0.6,0,1.2-0.2,1.7,0c0.2,0.1,0.4,0.3,0.5,0.1C55.6,38.4,55.6,38.1,55.4,37.9C54.8,37.5,55.7,38.2,55.4,37.9z"/>
<path fill="#FFFFFF" d="M55.3,40.2c-1.4-0.4-2.8-0.1-4.2,0c-0.7,0.1-1.4,0.1-2.1,0c-0.4-0.1-0.6,0.6-0.2,0.6
	c1.4,0.2,2.8-0.1,4.2-0.1c0.7,0,1.4,0,2.1,0.2C55.5,41,55.6,40.3,55.3,40.2C53.2,39.7,55.6,40.3,55.3,40.2z"/>
<path fill="#FFFFFF" d="M55.2,43c-1.2-0.3-2.5-0.2-3.8-0.1C50.7,42.9,50,43,49.3,43c-0.3,0-1.1,0.2-0.5,0.6c0.4,0.3,1.5,0,1.9,0
	c0.7-0.1,1.4-0.1,2.2-0.2c0.7,0,1.4,0,2.1,0.2C55.4,43.7,55.6,43.1,55.2,43C53.2,42.4,55.6,43.1,55.2,43z"/>
<path fill="#FFFFFF" d="M55.4,45.2c-1.4,0-2.8,0-4.2,0c-0.8,0-1.5,0-2.3,0c-0.4,0-0.4,0.7,0,0.7c1.4,0,2.8,0,4.2,0
	c0.8,0,1.5,0,2.3,0C55.8,45.9,55.8,45.2,55.4,45.2C53.2,45.2,55.8,45.2,55.4,45.2z"/>
<path fill="#FFFFFF" d="M55.3,47.8c-1.3-0.3-2.9-0.1-4.2-0.1c-0.7,0-1.4,0-2.2,0.1c-0.5,0.1-0.3,0.9,0.2,0.7c1.1-0.4,2.8,0,4,0
	c0.7,0,1.4-0.1,2.1,0.1C55.5,48.5,55.7,47.9,55.3,47.8C54.4,47.6,55.7,47.9,55.3,47.8z"/>
<path fill="#FFFFFF" d="M55.4,50.7c-1.4-0.1-2.8,0-4.1-0.1c-0.8,0-1.5,0-2.3,0.2c-0.4,0.1-0.2,0.8,0.2,0.6c1.3-0.4,2.7-0.1,4-0.1
	c0.8,0,1.5,0,2.3,0C55.8,51.4,55.8,50.7,55.4,50.7C54.3,50.7,55.8,50.7,55.4,50.7z"/>
<path fill="#FFFFFF" d="M55.4,53.4c-1.4,0-2.8-0.1-4.2-0.1c-0.7,0-1.4,0.1-2,0.3c-0.2,0-0.5,0.1-0.5,0.3c0,0.2,0.1,0.5,0.4,0.4
	c1.3-0.4,2.7-0.4,4-0.3c0.7,0,1.3,0.1,2,0.1c0.2,0,0.5,0.1,0.6-0.2C55.7,53.7,55.6,53.4,55.4,53.4C53.3,53.4,55.8,53.4,55.4,53.4z"
	/>
<path fill="#FFFFFF" d="M55.6,56c-1.4,0-2.8,0.1-4.2,0.2c-0.8,0-1.5,0-2.3-0.1c-0.4,0-0.4,0.6,0,0.7c1.4,0.1,2.8,0,4.2,0
	c0.8,0,1.5-0.1,2.3-0.1C56,56.7,56,56,55.6,56C53.4,56,56,56,55.6,56z"/>
<path fill="#FFFFFF" d="M55.6,58.5c-1.3-0.1-2.7,0-4,0c-0.8,0-1.6,0-2.3,0.1c-0.4,0-0.4,0.7,0,0.7c1.4-0.2,2.8,0,4.2-0.1
	c0.7,0,1.4-0.1,2.2,0C56,59.2,56,58.5,55.6,58.5C54.7,58.4,56,58.5,55.6,58.5z"/>
<path fill="#FFFFFF" d="M55.4,61c-1.4,0-2.8,0.3-4.2,0.2c-0.6,0-1.2-0.1-1.8,0.1c-0.3,0.1-0.8,0.6-0.3,0.7c0.4,0.1,1.3-0.2,1.7-0.1
	c0.7,0,1.3,0.1,2,0c0.7-0.1,1.5-0.2,2.2-0.2c0.2,0,0.5,0.1,0.6-0.2C55.7,61.3,55.6,61,55.4,61C54.3,60.9,55.8,61,55.4,61z"/>
<path fill="#FFFFFF" d="M56.7,34.8c-0.2,0-0.7,0.2-0.9,0.4c-0.2,0.2-0.2,0.6,0.2,0.6c0.3,0,0.9-0.2,1.1-0.4
	C57.2,35.1,57,34.7,56.7,34.8C56.5,34.8,57.1,34.7,56.7,34.8z"/>
<path fill="#0E9B94" d="M56,37.9C56,37.8,56,37.9,56,37.9L56,37.9z"/>
<path fill="#FFFFFF" d="M56.9,37.6c-0.2,0-0.9,0.2-0.8,0.3c-0.5-0.2-0.8,0.8,0.2,0.6c0.2,0,0.8-0.1,0.9-0.3
	C57.4,38,57.2,37.6,56.9,37.6C56.7,37.7,57.3,37.5,56.9,37.6z"/>
<path fill="#FFFFFF" d="M57,40.2c-0.3,0-1.1,0.1-1.4,0.3c-0.2,0.2-0.2,0.6,0.2,0.6c0.3,0,1.1-0.1,1.4-0.3
	C57.4,40.7,57.3,40.2,57,40.2C56.6,40.2,57.4,40.2,57,40.2z"/>
<path fill="#FFFFFF" d="M57.1,42.9c-0.3-0.2-0.9,0-1.2,0.1c-0.3,0.1-0.6,0.7-0.1,0.7C56.1,43.8,57.9,43.3,57.1,42.9
	C56.9,42.8,57.5,43.1,57.1,42.9z"/>
<path fill="#FFFFFF" d="M57.3,45.2c-0.4,0.1-1.2,0.1-1.5,0.2c-0.3,0.2-0.1,0.6,0.2,0.6c0.5,0,1-0.1,1.5-0.2
	C57.9,45.8,57.7,45.1,57.3,45.2C56.9,45.4,57.7,45.1,57.3,45.2z"/>
<path fill="#FFFFFF" d="M57.2,48c-0.4,0-0.8,0.1-1.2,0.2c-0.4,0.1-0.2,0.7,0.2,0.6c0.3,0,0.9,0,1.2-0.2C57.6,48.5,57.5,48,57.2,48
	C56.8,48,57.6,48,57.2,48z"/>
<path fill="#FFFFFF" d="M57.2,50.5c-0.4,0.1-0.8,0.2-1.2,0.3c-0.4,0.1-0.2,0.7,0.2,0.6c0.3-0.1,1.1-0.1,1.3-0.4
	C57.8,50.8,57.6,50.4,57.2,50.5C56.9,50.6,57.6,50.4,57.2,50.5z"/>
<path fill="#FFFFFF" d="M57.5,53.5c-0.4,0.1-1,0.1-1.4,0.2c-0.3,0.1-0.3,0.6,0,0.6c0.5,0.1,1-0.1,1.5-0.2
	C58,54.1,57.8,53.5,57.5,53.5C57.1,53.6,57.9,53.5,57.5,53.5z"/>
<path fill="#FFFFFF" d="M57.3,56c-0.4,0.2-1.1,0.1-1.3,0.5c-0.2,0.2,0,0.7,0.3,0.5c0.4-0.1,1.3-0.2,1.5-0.5
	C57.9,56.2,57.6,55.9,57.3,56C57,56.2,57.7,55.8,57.3,56z"/>
<path fill="#FFFFFF" d="M57.3,58.4c-0.2,0.2-0.7,0.3-1,0.4c-0.3,0.1-0.8,0.9-0.1,0.8c0.3,0,0.8-0.4,1.1-0.5
	C58,58.9,57.7,58.1,57.3,58.4z"/>
<path fill="#231815" d="M43.1,19.6c1,0,1,1.6,0,1.6S42.1,19.6,43.1,19.6z"/>
<path fill="#231815" d="M50.6,19.5c1,0,1,1.6,0,1.6S49.6,19.5,50.6,19.5z"/>
<g>
	<path fill="#FFFFFF" d="M32.8,60.8c0.3,0.2,1-0.5,1.1-0.8c0.3-0.5,0.3-1.1-0.1-1.5c-0.3-0.3-1.2-0.5-1.1,0.2
		C32.7,59.1,32.6,60.6,32.8,60.8C32.9,60.8,32.8,60.7,32.8,60.8z"/>
	<path fill="#FFFFFF" d="M17.4,60.4c0.4,0.1,0.2-1.1,0.2-1.3c0-0.7,0.1-1.2-0.8-1.2c-0.6,0-0.8,0.7-0.8,1.2
		C16.1,59.8,16.7,60.3,17.4,60.4z"/>
	<path fill="#FFFFFF" d="M16.9,57.7c0.2,0,0.9,0.4,1,0c0-0.1,0.1-0.9,0.2-0.9c0.3,0,0.6-0.1,0.8-0.2c1.4-0.5,2.5-1.6,3-3
		c0.2-0.4,0.3-0.7,0.3-1.2c0-0.3-0.1-0.6,0-0.9c0-0.3,0.1,0.5,0.1,0.6c0,0.7,0.2,1.3,0.5,1.9c0.2,0.3,1.9,2.1,1.9,2
		c-0.2,0.4-1.9-1.7-2-1.9c-0.1-0.2-0.3-0.9-0.6-0.6c-0.3,0.2-0.5,1.1-0.8,1.4c-0.5,0.6-1,1.1-1.7,1.5c-0.3,0.1-1.4,0.4-1.4,0.7
		c-1,3.4,0.3,6.9,3.8,8c3.3,0.9,8.8,0.8,10.3-3c0.3-0.9,0.4-1.8,0.4-2.8c0-0.6-0.1-1.1-0.2-1.7c-0.2-0.8-0.2-0.8-0.9-1.2
		c-0.7-0.4-1.4-1-1.7-1.8c0-0.1-0.4-1-0.2-1c0.1,0,0.6,1.3,0.6,1.4c0.3,0.5,0.8,0.9,1.3,1.2c0.2,0.1,1.9,0.8,1.9,0.8
		c0,0.2-0.7-0.2-0.9,0c-0.2,0.2,0,1.4,0.4,1.1c0.5-0.3,0.7,0.2,0.9-0.5c0.2-0.4,0.3-0.9,0.4-1.4c0.3-1.5-0.2-2.9-1.1-4
		c-0.5-0.7-1.3-1.3-1.9-1.9c-1.4-1.3-3.3-2-5.2-2c-1.4,0-2.9,0.2-4.2,0.8c-0.7,0.2-1.5,0.2-2.2,0.4c-1.4,0.5-2.5,1.6-3,3
		c-0.4,1-0.5,2.1-0.4,3.2C16.3,56.2,16.4,57.6,16.9,57.7C17,57.7,16.8,57.6,16.9,57.7z"/>
	<path fill="#FFFFFF" d="M18.2,78.4c-0.4-0.2-2.8-1.7-3.1-1.4c-0.8,1-0.7,2.3,0.6,2.8c0.6,0.2,1.2,0.1,1.7-0.2
		C17.6,79.5,18.7,78.7,18.2,78.4z"/>
	<path fill="#C5C5C0" d="M29.4,76.8c-0.1-0.3-3.4,0.1-3.8,0.1c-1.7,0-3.4-0.3-5-0.6c-0.4-0.1-1.3-0.5-1.4,0
		c-0.1,0.4-0.2,0.9-0.3,1.3c-0.3,1.1-0.2,2.3,0,3.5c0.1,0.5,3.8,0.2,4.3,0.2c0.6,0,1.2,0,1.7,0c0.6,0-0.2-1.8,0.1-1.9
		c0.4,0-0.2,1.9,0.7,1.9c1.1,0,2.1,0,3.2,0c0.2,0,0.7,0.1,0.8-0.1c0.4-0.4,0-2.2,0-2.8C29.7,78,29.7,77.2,29.4,76.8
		C29.4,76.7,29.4,76.8,29.4,76.8z"/>
	<path fill="#FFFFFF" d="M35.7,69.5c-0.7-1-1.4-1.9-2.1-2.9c-0.4-0.5-0.8,0.5-1,0.7c-0.3,0.5-0.7,0.9-1,1.3c-0.4,0.5-1.3-1-1.7-1.4
		c-0.3-0.3-1.5-2-1.9-1.9c-1.4,0.3-2.8,0.3-4.1,0.2c-0.7-0.1-1.9-0.6-2.6-0.4c-1.6,0.5-2.7,2.4-3.4,3.7c-1.1,2.1-1.8,4.3-2.4,6.6
		c-0.1,0.3-0.5,1.2-0.1,1.4c0.2,0.1,0.4,0.2,0.6,0.3c0.7,0.3,1.3,0.7,2,1c0.7,0.4,0.8-1.1,0.9-1.6c0.4-1.5,0.8-3,1.2-4.5
		c0.1-0.2,0.5-2.6,0.8-2.6c0.2,0.1-0.6,2.8-0.7,3c-0.2,0.7-0.4,1.4-0.6,2.1c-0.1,0.2-0.4,0.9-0.2,1.2c0.2,0.4,1.6,0.4,2,0.5
		c0.7,0.1,1.4,0.2,2.1,0.3c1.4,0.2,2.9,0.2,4.3,0.1c0.3,0,1.7,0,1.7-0.5c0-0.4-0.1-0.9-0.1-1.3c-0.1-1.5-0.2-3-0.3-4.6
		c0-0.4,0-0.7-0.1-1.1c0-0.4,0.2,0,0.2,0.2c0.1,1.2,0.1,1.8,0.8,2.8c0.3,0.5,0.9,1.2,1.5,1.2c0.6,0,1.2-0.7,1.6-1
		C33.6,72,36.1,69.9,35.7,69.5z"/>
</g>
<path fill="#B5B5B6" d="M34.6,54.4c-0.2-0.3-0.2-0.6-0.3-0.9c-0.2-0.4-0.6-0.7-1-1c-0.3-0.3-0.6-0.6-0.9-0.8
	c-0.2-0.4-0.5-0.7-0.8-1.1c-1.1-1.1-2.7-1.7-4.2-2.1c-1.5-0.4-3.4-0.3-4.8,0.3c-0.4,0.1-0.6,0.3-1,0.3c-0.5,0-0.9,0.1-1.4,0.2
	c-0.8,0.3-1.6,0.8-2.2,1.4c-1,1-1.5,2.2-1.7,3.5c-0.1,0.9-0.4,2.4,0.3,3.2c0.2,0.2,0.9,0.6,1.1,0.3c0.1-0.2,0.1-0.5,0.2-0.7
	c0.2-0.3,0.6-0.5,0.9-0.7c0.7-0.4,1.3-0.6,1.8-1.2c0.6-0.7,1-1.6,1.3-2.5c0.5,1.6,1.1,3,2.7,3.7c0.8,0.3,1.8,0.7,2.7,0.5
	c0.9-0.2,1.8,0.1,2.7,0.1c0.5,0,2,0,2.2,0.5c0.2,0.6,0.6,0.9,1.3,0.7c0.2,0,0.4-0.5,0.5-0.6c0.2-0.3,0.4-0.7,0.5-1.1
	C34.8,55.8,34.9,54.9,34.6,54.4C34.6,54.3,35.1,55.1,34.6,54.4z"/>
<g>
	<path fill="#231815" d="M44.8,17.6c-0.7-0.9-1.9-1.4-3-0.8c-0.4,0.2-0.8,0.6-1.1,1c-0.2,0.3,0,0.8,0.4,0.5c0.3-0.2,0.4-0.6,0.7-0.8
		c0.4-0.3,0.9-0.5,1.5-0.3c0.3,0.1,0.6,0.4,0.9,0.6C44.5,18.3,45.2,18,44.8,17.6C44.3,17,44.9,17.8,44.8,17.6z"/>
	<path fill="#231815" d="M49.8,24.9c0.4-0.2,0.1-0.8-0.3-0.6c-0.2,0.1-0.5,0.2-0.8,0.3c-1.2,0.4-2.5,0.4-3.6-0.2
		c-0.3-0.1-0.5,0.2-0.4,0.4c0.1,0.3,0.6,0.4,0.8,0.5c0.6,0.2,1.3,0.3,1.9,0.2C48.2,25.5,49,25.3,49.8,24.9
		C49.9,24.8,49.7,24.9,49.8,24.9z"/>
	<path fill="#231815" d="M47.3,22.7c0.5,0,0.4-2.2,0.1-2.5c-0.6-0.6-0.5,0.9-0.5,1.1C46.9,21.6,46.8,22.7,47.3,22.7z"/>
	<path fill="#231815" d="M58,48.2c0-0.3,0-0.7-0.3-0.7c-0.4,0-0.3,0.8-0.3,1.1c0,1.5,0.1,3,0.1,4.6c0,1.6,0.1,3.3,0.1,4.9
		c0,0.4,0.3,2.1,0,2.4c-0.3,0.3-0.9,0.4-1.4,0.4c-0.1-6.6-0.2-13.2-0.3-19.7c0-1.3,0-2.7-0.1-4c0-0.3,0-0.6,0-0.9
		c0-0.4-0.6-0.7-0.6-0.1c0,2.3,0.1,4.6,0.1,6.9c0.1,6.6,0.2,13.1,0.3,19.7c-0.2-0.1-0.7,0.1-1,0.1c-0.4,0.1-0.9,0.1-1.3,0.1
		c-1,0-2.1,0-3.1,0c-0.9,0-1,0.2-1-0.6c0-2.1,0-4.1-0.1-6.2c-0.1-6.2-0.1-12.3-0.2-18.5c0-1.4,0-2.8,0-4.2c0.5,0.3,0.9,0.6,1.4,0.8
		c0.5,0.3,0.6-0.1,0.7-0.5c0.2-1.2,0.4-2.3,0.6-3.5c1,0.3,2,0.7,3,1.2c0.6,0.3,1.4,0.7,1.7,1.3c0.6,1.3,0.6,3,0.7,4.4
		c0.1,2,0.2,4.1,0.2,6.1c0,0.5,0,0.9,0,1.4c0,0.5,0.7,0.9,0.6,0.2c0-1.3-0.1-2.6-0.1-3.9c-0.1-1.8-0.1-3.7-0.3-5.5
		c-0.1-1-0.2-2.1-0.6-3.1c-0.6-1.3-2.7-1.9-3.9-2.4c-1.2-0.5-2.2-1-3.4-1.5c1.8-1,4.2-2.9,4.6-5c0.7,0.4,1.8-2,1.9-2.5
		c0-0.5-0.1-1-0.4-1.4c-0.4-0.6-0.4-0.5-0.2-1.2c0.5-2.1,0.6-4.2-0.4-6.2C53.1,8,48.4,5.6,43.9,7.2c-1.6,0.6-3.3,1.4-4.6,2.6
		c-1.9,1.8-2.7,4.3-2.4,6.9c0.1,0.7,0.2,1.4,0.4,2.1c0.1,0.2,0.1,0.7,0.3,0.9c-0.1,0.2-0.2,0.4-0.2,0.7c0,0.7,0.1,1.5,0.4,2.2
		c0.3,0.8,0.9,1.4,1.7,1.6c0.5,0.1,0.5,1,0.7,1.4c0.3,0.6,0.9,1,1.5,1.4c0.5,0.3,1,0.6,1.5,0.9c0.4,0.2,0.3,0.2,0.3,0.6
		c-0.4-0.5-2.7,1-2.3,1.8c-1.6,0.7-3.4,1.4-4.9,2.4c-0.9,0.6-1.2,2.4-1.4,3.4c-1.2,5.1-1.7,10.3-1.9,15.5c-1.1-1.2-2.4-2.3-3.9-2.9
		c-1.4-0.5-2.8-0.6-4.3-0.4c-0.9,0.1-1.9,0.3-2.7,0.7c-0.6,0.2-1.2,0.2-1.8,0.4c-3.3,1-4.8,4.3-4.2,7.6c0.1,0.3,0.1,0.5,0.2,0.8
		c0.1,0.2-0.3,0.6-0.4,0.9c-0.2,1,0.2,2,1.2,2.4c0.6,0.2,0.5,0.1,0.7,0.8c0.2,0.6,0.4,1.1,0.7,1.6c0.6,0.8,1.3,1.5,2.2,1.9
		c-2,1.1-3.1,3.6-3.9,5.5c-0.4,1.1-0.8,2.2-1.1,3.3c-0.2,0.7-0.4,1.4-0.5,2c-0.1,0.6-0.3,0.9-0.6,1.4c-0.6,1.1-0.3,2.1,0.7,2.8
		c1.1,0.7,2.3,0.3,3.1-0.6c0,0.7-0.1,2.3,0.8,2.3c0.8,0,1.6,0,2.4,0c2.4,0,4.7,0,7.1,0c0.3,0,1.5,0.2,1.5-0.3c0-1.4,0.1-2.9-0.2-4.3
		c-0.1-0.4,0.1-0.3,0.1-0.7c0-0.4-0.1-0.8-0.1-1.2c-0.1-1-0.1-1.9-0.2-2.9c0.7,0.9,1.6,1.9,2.7,1.1c0.8-0.5,1.4-1.2,2.1-1.8
		c0.5-0.5,1.1-1.1,1.6-1.6c0.4-0.4-0.2-0.5-0.1-0.8c0.2-0.2,0.3-0.3,0.6-0.3c0.3,0.1,0.7-0.1,0.9-0.3c0.1,2.3,0.1,4.5,0.2,6.8
		c0,0.6-0.2,6.1,0.5,6.1c5.1,0,10.2,0,15.4,0c0.6,0,1.2,0,1.8,0c0.9,0,0.6-0.8,0.6-1.5c0-3,0-5.9,0.1-8.9c0-1.3,0-2.5,0-3.8
		c0-0.3,0-0.6,0-0.8c0-0.2,1.2-1,1.4-1.3c0.8-1.2,0.9-2.8,0.6-4.2c0.5-0.4,0.3-1.1,0.3-1.7c0-0.8,0-1.6-0.1-2.3
		c0-1.6-0.1-3.2-0.1-4.9C58.1,50.8,58.1,49.5,58,48.2z M49.7,29.2c0.4,0.2,0.9,0.3,1.3,0.5c0.2,0.1,0,0.5,0,0.7
		c-0.2,1-0.3,2-0.5,3.1c-0.5-0.3-1-0.6-1.4-0.8C49,32.6,49.7,29.6,49.7,29.2z M54.3,22.7c0.1-0.8,0.1-1.6,0.1-2.4
		c0-0.2-0.1-0.8,0.1-0.9c0.3-0.2,0.5,0.2,0.6,0.4C55.9,20.9,55.1,22,54.3,22.7C54.4,21.6,55.8,21.3,54.3,22.7z M38,20.5
		c-0.1-0.9,1.1-1,1.2-0.2c0,1,0.2,2.1,0.4,3.1C38.3,23,38.1,21.5,38,20.5C38,20.2,38.2,22.2,38,20.5z M39.1,17.7
		c-0.1,0.4,0,1.1,0,1.5c-0.3-0.1-0.8-0.2-1.1-0.1c-0.1-0.5-0.3-1-0.4-1.5c-0.2-1-0.3-2-0.2-3c0.2-1.7,0.9-3.2,2.1-4.3
		c1.6-1.6,4.4-2.8,6.6-3c3-0.3,5.8,1.3,7.5,3.7c0.8,1,1.5,2.3,1.6,3.7c0,0.9-0.1,1.8-0.2,2.7c-0.1,0.3-0.1,0.6-0.2,0.8
		c-0.1,0.4-0.1,0.4-0.4,0.5c-0.1-2.5-3.1-4.7-4.9-6.1c-0.6-0.4-1.2-0.8-1.8-1.2c-0.7-0.4-0.2,0.7-0.1,0.9c0.6,0.8,1.2,1.6,1.8,2.4
		c-1.8-1.3-3.7-2.6-5.8-3.2c-0.8-0.2-0.9-0.1-1.3,0.5c-0.5,1.1-1,2.1-1.4,3.3c0-0.3,0.1-1.1-0.3-1.1c-0.4-0.1-0.5,0.7-0.6,0.9
		C39.8,16,39.5,16.8,39.1,17.7z M40.7,24.9c-0.7-1.6-0.8-3.4-0.9-5.1c0-0.6,0-1.2-0.1-1.8c0-0.4,0.4-1.1,0.5-1.5
		c0,0.3-0.1,0.9,0.1,1.2c0.5,0.6,1.2-2.2,1.4-2.5c0.3-0.9,0.7-1.7,1.1-2.5c0.2-0.4,0.2-0.4,0.6-0.3c0.3,0.1,0.7,0.2,1,0.3
		c1.5,0.6,2.8,1.5,4.2,2.4c0.7,0.5,1.3,1.1,2.1,1.5c-0.9-0.4-1.7,0-2.4,0.7c-0.1,0.2-0.4,0.4-0.4,0.6c0.1,0.7,0.7,0,0.8-0.2
		c0.8-0.8,1.6-0.7,2.5-0.1c0.2,0.1,0.9,0.5,0.8-0.1c-0.1-0.4-1-0.8-1.3-1c0.9,0.2-0.2-1.3-0.3-1.4c-0.4-0.6-0.9-1.3-1.3-1.9
		c2.1,1.5,4.8,3.5,4.7,6.3c0,1.2,0,2.4-0.2,3.6c-0.1,1-0.6,1.6-1.3,2.3c-1.6,1.6-3.9,3.7-6.4,2.7c-0.9-0.4-1.9-0.8-2.8-1.3
		C42.3,26.4,41.1,25.8,40.7,24.9C39.9,23.1,41.3,26.2,40.7,24.9z M48.7,60.3c-0.4,0.1-0.8,0.1-1.2,0.2c-0.1-9.1-0.2-18.2-0.3-27.3
		c0-0.7-1.1-1.6-1.5-2.1c1,0.4,2.2,0.3,3.1-0.3c-0.2,0.9-0.4,1.7-0.4,2.6c0,0.8,0,1.7,0,2.5c0,2.9,0.1,5.8,0.1,8.6
		c0.1,5.1,0.1,10.3,0.2,15.4C48.7,60,48.7,60.1,48.7,60.3z M48.8,29.9c-0.4,0.9-2.3,0.8-3,0.5c-0.6-0.3-1-0.7-1.4-1.2
		c-0.3-0.3-0.2-0.7-0.3-1.1c1.6,0.8,2.9,1.2,4.6,0.7C48.8,29.1,48.9,29.7,48.8,29.9C48.8,30.1,48.9,29.8,48.8,29.9z M43.1,28.9
		c1.1,1.4,2.2,2.8,3.3,4.2c-0.4,0.3-0.9,0.5-1.3,0.8c-0.2,0.1-0.4,0.2-0.7,0.4c0,0-0.6-0.9-0.6-1c-0.5-0.8-1-1.7-1.5-2.5
		c-0.2-0.3-0.3-0.6-0.5-0.9C42.1,29.4,42.7,29.1,43.1,28.9z M36.5,33.1c1.1-0.8,2.4-1.3,3.6-1.9c0.5-0.2,0.9-0.4,1.4-0.6
		c0.4,0.6,0.7,1.2,1.1,1.9c0.2,0.3,1.3,2.7,1.8,2.4c0.7-0.4,1.4-0.8,2.1-1.2c0.1,9.5,0.2,19,0.3,28.5c0,0.8-0.2,0.6-1,0.6
		c-1,0.1-2.1,0.1-3.1,0.1c-0.7,0-1.4,0-2.1-0.1c-0.4,0-0.8,0-1.1-0.1c-0.6,0-0.4-0.5-0.5-1c-0.2-2.1,0-4.3,0-6.4c0-4,0-8-0.2-11.9
		c-0.1-1.9-0.2-3.7-0.4-5.6c-0.1-0.7-0.2-1.4-0.3-2.1c-0.1-0.3-0.4-0.4-0.6-0.1c-0.1,0.2,0,0.4,0,0.6c0.1,0.4,0.1,0.8,0.2,1.3
		c0.8,5.8,0.7,11.7,0.7,17.5c0,1.9,0,3.7-0.1,5.6c0,0.4-4,0.6-4.6,0.7c-0.1-0.7,0.4-0.7,0.6-1.3c0.2-0.5,0.1-1.1-0.2-1.6
		c-0.3-0.4-0.1-0.5,0.1-0.9c0.2-0.4,0.3-0.9,0.3-1.3c0.1-0.7,0.1-1.3-0.1-2c-0.1-0.6-0.4-1.1-0.7-1.6c-0.4-0.7-0.3-1-0.3-1.8
		c0.1-1.9,0.2-3.7,0.4-5.6c0.3-2.8,0.7-5.6,1.3-8.3c0.2-0.9,0.4-1.7,0.6-2.6C36.1,33.9,36.2,33.3,36.5,33.1
		C37.7,32.2,35.8,33.6,36.5,33.1z M33,60.6c0-0.4-0.3-2.3,0.4-2.1C34.6,58.9,33.6,60.2,33,60.6C33,60,33.6,60.2,33,60.6z M33.2,61.2
		c0.1,1.1,0.6,0.8,1.5,0.7c-0.1,0.5-0.1,0.9-0.1,1.4c0,0.2,0,0.5,0,0.7c-0.2,0.1-0.4,0.3-0.6,0.6c-0.3,0.4-0.4,0.8-0.6,1.2
		c-0.2,0-0.3,0.1-0.3,0.2c-0.5,0.8-1,1.6-1.6,2.3c-0.9-1-1.7-1.9-2.6-2.9c1-0.3,2-0.8,2.8-1.6c0.3-0.4,0.6-0.8,0.8-1.2
		C32.7,62,32.7,61.5,33.2,61.2C33.2,61.4,33.1,61.3,33.2,61.2z M17.5,60.1c-0.8-0.1-1.8-1.5-0.8-2c0.4-0.2,0.9,0.1,0.8,0.5
		C17.4,59.1,17.4,59.6,17.5,60.1C17.1,60.1,17.4,59.5,17.5,60.1z M19,62.7c-1.1-1.6-1.1-3.8-0.6-5.6c0-0.1,1.4-0.6,1.6-0.7
		c1-0.6,1.8-1.6,2.3-2.8c0.4,1,1.1,1.8,2,2.4c0.2,0.1,0.4,0.3,0.6,0.2c0.2-0.1,0.2-0.5,0-0.6c-0.5-0.3-0.9-0.7-1.3-1.1
		c-0.5-0.6-0.8-1.4-0.9-2.2c0-0.3,0.1-1.2-0.3-1.3c-0.5-0.1-0.4,0.6-0.4,0.9c0,0.6-0.1,1-0.3,1.6c-0.4,0.8-0.9,1.6-1.7,2.1
		c-0.5,0.3-1,0.6-1.5,0.7c-0.6,0.1-0.6,0.5-0.7,1.1c-0.4-0.2-0.7-0.1-0.8-0.5c-0.1-0.4-0.2-0.8-0.2-1.2c-0.1-1.1,0-2.2,0.4-3.3
		c0.6-1.3,1.6-2.4,3-2.9c0.6-0.2,1.5-0.1,2.1-0.4c0.6-0.3,1.3-0.4,2-0.6c1.4-0.3,2.9-0.3,4.2,0c0.8,0.2,1.6,0.6,2.3,1.1
		c0.5,0.4,0.9,0.9,1.4,1.3c0.8,0.6,1.4,1.3,1.8,2.2c0.3,0.7,0.5,1.4,0.4,2.2c0,0.4-0.1,0.9-0.3,1.3c-0.1,0.3-0.2,0.6-0.4,0.9
		c-0.2-0.1-0.5,0-0.7,0.1c0-0.3-0.1-0.5-0.2-0.8c0.2,0.1,0.7,0.3,0.9,0.1c0.4-0.4-0.2-0.6-0.5-0.7c-0.8-0.2-1.5-0.5-2.1-1
		c-0.6-0.5-1-1.1-1.1-1.9c-0.1-0.5-0.7-0.4-0.6,0.1c0,0.3,0.1,0.6,0.3,0.9c0.3,0.6,0.7,1.1,1.2,1.5c0.3,0.2,0.6,0.4,1,0.6
		c0.5,0.2,0.4,0.7,0.5,1.2c0.6,3.2-0.5,6-3.8,6.9C25.4,65.6,20.9,65.5,19,62.7C17.4,60.4,20,64.3,19,62.7z M15.5,79.5
		c-0.7-0.4-0.9-1.1-0.5-1.8c0.3-0.6,0.4-0.4,0.9-0.1c0.7,0.4,1.5,0.8,2.2,1.1C17.5,79.5,16.5,80.1,15.5,79.5
		C15.1,79.2,16.7,80.2,15.5,79.5z M25.5,81c0-0.3,0-1.9-0.5-1.9c-0.5,0.1-0.1,1.5-0.1,1.9c-1.6,0-3.2,0-4.7,0c-0.3,0-0.6,0-0.9,0
		c-0.3,0-0.2-0.6-0.3-0.9c-0.1-1.1,0-2.1,0.3-3.2c0.2-0.7,0.1-0.7,0.9-0.5c0.9,0.2,1.8,0.3,2.7,0.5c1.5,0.2,3,0.3,4.4,0.2
		c0.6,0,1.3-0.1,1.9-0.2c0,0.2,0.1,0.3,0.1,0.5c0.2,1.2,0.2,2.5,0.2,3.7C28.2,81,26.8,81,25.5,81z M31.8,73.1
		c-0.7,0.2-2.1-1.6-2.2-2.2c0-0.4-0.1-0.9-0.1-1.3c0-0.2,0-0.3,0-0.5c0-0.4-0.7-0.4-0.6,0c-0.1,0.4,0.1,1.1,0.1,1.5
		c0.1,1.1,0.1,2.1,0.2,3.2c0.1,0.7,0.1,1.5,0.2,2.2c0,0.4-0.9,0.3-1.2,0.4c-2.8,0.3-5.8-0.1-8.6-0.7c0.4-1.4,0.7-2.7,1.1-4.1
		c0.2-0.6,0.3-1.3,0.5-1.9c0.1-0.4-0.5-0.7-0.6-0.2c-0.1,0.1-0.1,0.3-0.1,0.3c-0.7,2.7-1.4,5.5-2.2,8.2c-0.9-0.5-1.8-0.9-2.7-1.4
		c-0.5-0.3,1.4-5.1,1.7-5.8c0.8-1.9,1.8-4.1,3.6-5.2c0.5-0.3,0.6-0.3,1.2-0.1c1.2,0.3,2.4,0.4,3.6,0.4c0.5,0,2.2-0.5,2.6-0.1
		c0.6,0.6,1.1,1.2,1.6,1.8c0.3,0.4,1.4,2,1.9,1.4c0.6-0.7,1.1-1.5,1.6-2.3c0.7,0.9,1.3,1.9,2,2.8C35.8,69.9,32.5,72.8,31.8,73.1
		C31.2,73.3,32.5,72.8,31.8,73.1z M35.6,68.6c-0.4-0.5-0.8-1.1-1.2-1.6c-0.5-0.7-0.6-0.9-0.1-1.8c0.2-0.4,0.6-0.8,1.1-0.8
		c0.9,0.2-0.4,0.8-0.6,0.9c-0.6,0.6,0.5,2.6,1,3.1C35.8,68.5,35.7,68.6,35.6,68.6z M37.8,64.4c0.1-0.4-0.5-0.6-0.6-0.1
		c0,0.2,0,0.3,0,0.5c0,1,0.6,1.8,0.2,2.7c-0.4,1.1-1.1,0.7-1.5-0.2c-0.2-0.5-0.4-1-0.4-1.5c0.3-0.2,0.7-0.3,0.9-0.7
		c0.1-0.3,0.1-0.6,0-0.9c-0.4-0.6-1-0.1-1-0.8c0-0.4-0.2-1.6,0.3-1.6c1-0.1,1.9-0.2,2.9-0.4c0.1,1.3,0.4,2.8,0.1,4.1
		c-0.1,0.3-0.4,1.3-0.6,0.5C37.8,65.5,37.8,65,37.8,64.4C37.8,64.2,37.8,64.4,37.8,64.4z M55.4,63.5c0,4.5-0.1,9.1-0.1,13.6
		c0,1,0,2,0,3c0,0.4,0.2,0.7-0.3,0.7c-2.2,0-4.4,0-6.6,0c0-5,0.1-10,0.1-14.9c0-0.9,0-1.7,0-2.6c0-0.7-0.6-0.6-0.6,0.1
		c0,2.5,0,4.9,0,7.4c0,2.9,0,5.8-0.1,8.7c0,0.1,0,1.4,0,1.4c-1,0-2,0-3,0c-1.6,0-3.1,0-4.7,0c-0.3,0-1.7,0.2-1.7-0.1
		c-0.1-2.6-0.1-5.2-0.2-7.8c0-1.6-0.1-3.1-0.1-4.7c0-0.2-0.1-1.2,0-1.2c1.4,0,1.1-2.9,1.1-3.7c2.6,0.2,5.3,0.2,7.9,0
		c0.6-0.1,0.4-1.1,0.4-1.6c0-0.1-0.1-0.7,0-0.7c0.4-0.1,0.7-0.1,1.1-0.2c0,0.6-0.3,2.6,0.5,2.7C49.8,63.6,55.4,63.7,55.4,63.5z
		 M56,65.7c0-0.6-0.2-1.6,0-2.2c0,0,1.4-1.4,0.2-0.1c0.1-0.1,0.1-0.4,0.1-0.6c0-0.4,0-0.9,0-1.3c0.4,0,0.8,0,1.1-0.2
		C57.6,62.8,57.4,64.8,56,65.7z"/>
	<path fill="#231815" d="M27.4,56.7c0.3,0.1,0.5-0.2,0.4-0.5c-0.1-0.3-0.7-0.4-0.9-0.5c-0.5-0.3-1-0.7-1.3-1.3
		c-0.2-0.4-0.4-0.8-0.5-1.2c0-0.2,0-0.6-0.2-0.7c-0.8-0.7-0.2,1.5-0.2,1.6C25.2,55.3,26.1,56.3,27.4,56.7z"/>
	<path fill="#231815" d="M29.2,56.8c-0.4,0-1.3,0.2-1.3,0.8c0,0.7,0.6,0.1,0.9,0c0.4-0.2,0.9-0.1,1.3,0.1c0.9,0.5,0.9-0.3,0.2-0.7
		c0.6-0.4-0.6-0.7-0.8-0.9c-0.5-0.3-0.8-0.7-1.1-1.1c-0.3-0.5-0.7-1.2-0.8-1.8c0-0.5-0.7-0.3-0.6,0.1c0.1,0.3,0.2,0.6,0.3,0.9
		C27.6,55.3,28.3,56.3,29.2,56.8C28.7,56.8,27.5,55.9,29.2,56.8z"/>
	<path fill="#231815" d="M27.3,62.8c0.3-0.3-0.1-0.8-0.4-0.5c-0.3,0.3-0.6,0.5-1,0.5c-0.4,0-0.8-0.1-1.1-0.4
		c-0.3-0.3-0.7,0.2-0.4,0.5c0.2,0.2,0.5,0.4,0.8,0.5C26,63.7,26.8,63.4,27.3,62.8C27.5,62.7,26.8,63.3,27.3,62.8z"/>
	<path fill="#231815" d="M20.1,57.2c-0.2,0.2-0.1,0.6,0.2,0.6c0.2,0,0.3-0.2,0.4-0.3c0.6-0.3,1.2-0.1,1.7,0.3
		c0.3,0.3,0.7-0.3,0.4-0.5c-0.3-0.3-0.7-0.5-1.2-0.6C21.1,56.6,20.5,56.8,20.1,57.2C20,57.4,20.5,56.8,20.1,57.2z"/>
</g>
<path fill="#231815" d="M21.9,59.3c1,0,1,1.7,0,1.7S20.9,59.3,21.9,59.3z"/>
<path fill="#231815" d="M29.2,59.3c1,0,1,1.7,0,1.7S28.2,59.3,29.2,59.3z"/>
<g>
	<g>
		<path fill="#FFFFFF" d="M62.1,37.5c0.2,0.1,0.8-0.4,1.1-0.5c0.5-0.2,1-0.4,1.5-0.6c0.9-0.3,1.9-0.6,2.9-0.8
			c0.7-0.1,0.5-0.9,0.5-1.5c0-0.4-0.4-0.5-0.7-0.6c-0.7-0.4-1.3-0.8-1.9-1.2c-0.6-0.4-1.4-0.9-1.7-1.6c-0.4-0.9-0.5-1.9-0.6-2.8
			c-0.2-1.3-0.3-2.5-0.3-3.8c-0.1-1.1-0.4-2.2-0.2-3.3c0.1-0.8,0.5-1.5,1-2.1c0.3-0.4,0.4-0.2,0.1,0.1c-0.5,0.6-0.8,1.4-0.9,2.2
			c-0.1,0.7,0.1,1.3,0.2,2c0.1,1.4,0.2,2.8,0.3,4.2c0.1,1.1,0.1,3,0.8,3.9c1.4,1.6,4.4,3.7,6.7,3c2-0.7,5.1-2,5.6-4.3
			c0.3-1.3,0.5-2.5,0.6-3.8c0.1-0.5,0.1-1,0.2-1.4c0.1-0.5,0.2-0.6-0.2-1c-1.3-1.1-2.4-2.5-3.1-4.1c-0.1-0.1-0.9-2-0.6-2
			c0.1,0,0.9,2.1,1,2.3c0.4,0.8,0.9,1.6,1.5,2.3c0.2,0.3,2.4,2.2,2.3,2.3c-0.1,0.2-0.6-0.5-0.7,0.1c0,0.2,0,0.4-0.1,0.6
			c-0.1,0.9-0.2,1.7-0.4,2.6c-0.3,1.7-0.3,3.2-1.7,4.3c-0.5,0.4-1,0.7-1.5,1c-0.4,0.2-1.5,0.6-1.7,0.9c-0.1,0.2,0,1.5,0.3,1.6
			c1.9,0.4,3.9,0.9,5.7,1.8c0.3,0.1,0.9,0.7,1,0.1c0-0.2,0-0.4,0.1-0.6c0.1-0.7,0.1-1.4,0.2-2.1c0.2-2,0.3-3.9,0.4-5.9
			c0.1-2.1,0.1-4.3-0.1-6.4c-0.2-1.8-0.4-3.8-1.5-5.3c-2.6-3.9-8.7-4.5-12.4-1.9c-2.9,2-3.7,5.5-3.9,8.8c-0.1,1.9-0.1,3.8,0,5.7
			c0,1.3,0.1,2.6,0.2,3.9c0,0.7,0.1,1.5,0.1,2.2C61.9,35.7,61.7,37.3,62.1,37.5C62.1,37.5,62,37.5,62.1,37.5z"/>
		<path fill="#FFFFFF" d="M66.7,36.5c0.2,2.2,3.1,3,4.8,2.3c0.9-0.3,1.6-1,2.1-1.8c0.1-0.2,0.5-0.8,0.4-1.1
			c-0.1-0.4-1.5-0.5-1.8-0.5c-0.6-0.1-0.4-0.8-0.4-1.3c0-0.6-1,0-1.2,0.1c-0.5,0.2-1,0.2-1.5,0.1c-0.4-0.1-0.9-0.4-0.9,0.2
			c0,0.4,0,0.7,0,1.1C68.1,36.1,66.7,35.5,66.7,36.5C66.8,36.8,66.7,36.5,66.7,36.5z"/>
		<path fill="#D3D3D4" d="M61,44.7c0.5,0.2,1,0.5,1.2,1c0.3,0.5,0.5,0.5,0.9,0.1c0.2-0.2,1.3-1,1-1.3c-0.1-0.1,0-0.4,0-0.5
			c0.1-0.7,0.1-1.4,0.2-2.2c0-0.3,0-0.5,0.1-0.8c0-0.1,0.2-0.3,0.2-0.1c0.2,0.2-0.1,1.3-0.1,1.5c0,0.4-0.3,1.4-0.2,1.7
			c-0.1,0.6,1.3-0.3,1.6-0.3c0.6-0.2,1.3-0.3,2-0.3c0.6,0,1.2,0.1,1.8,0.2c0.4,0.1,0.7,0,1.1-0.1c1.2-0.3,2.5-0.2,3.7,0.2
			c0.3,0.1,1.3,0.8,1.5,0.5c0.1-0.2,0-0.7,0-0.9c0-0.3,0-0.6-0.1-0.9c0-0.2,0.2-0.1,0.2,0c0,0.6,0.1,1.3,0.1,1.9
			c0,0.4,0.1,0.5,0.5,0.8c0.2,0.2,0.7,1.1,1,1c0.3,0,0.9-0.9,1.2-1c0.9-0.5,1.1-0.3,1.2-1.3c0.1-1.7,0.2-3.7-0.5-5.3
			c-0.3-0.7-0.9-1.1-1.6-1.5c-0.7-0.4-1.5-0.6-2.2-0.9c-0.4-0.1-0.8-0.2-1.2-0.3c-0.3-0.1-0.3,0.3-0.4,0.5c-1.1,2.7-5,4.1-7,1.4
			c-0.3-0.4-0.5-0.8-0.5-1.2c0-0.4-0.1-0.6-0.5-0.4c-0.4,0.1-0.8,0.2-1.1,0.3c-0.9,0.3-2.7,0.8-3.1,1.8c-0.2,0.6-0.3,1.2-0.4,1.9
			C61.3,40.7,60.5,44.5,61,44.7C61.4,44.9,60.9,44.7,61,44.7z"/>
		<path fill="#FFFFFF" d="M76.7,61.7C76,61,74.9,60.4,74,60.9c-1,0.5-1.4,2-0.4,2.8c0.9,0.7,2.3,1.2,3.3,0.4
			C77.7,63.4,77.4,62.3,76.7,61.7C76.5,61.5,76.7,61.7,76.7,61.7z"/>
		<path fill="#FFFFFF" d="M63.4,61.5c-0.6,0.7-1.1,1.7-0.2,2.4c1,0.8,2.4,0.3,3.3-0.4c1-0.8,0.6-2.3-0.4-2.8
			C65.1,60.1,64,60.8,63.4,61.5C62.5,62.5,63.4,61.4,63.4,61.5z"/>
		<path fill="#D3D3D4" d="M62.8,61.7c0.2,0,0.5-0.5,0.7-0.6c0.2-0.2,0.5-0.4,0.8-0.5c0.3-0.2,0.9-0.1,1.2-0.3
			c0.4-0.3-0.9-1.1-1.1-1.3c-0.6-0.7-1-1.6-1.3-2.5c-0.1-0.2-1.2,0-1.5-0.3c-0.8-0.7-0.2,1.4-0.1,1.6c0.2,0.8,0.4,1.5,0.7,2.3
			C62.2,60.3,62.5,61.6,62.8,61.7C62.8,61.7,62.8,61.7,62.8,61.7z"/>
		<path fill="#FFFFFF" d="M62.7,53.6c-0.2-0.3-1.1,0-1.3,0.2c-0.5,0.5-0.3,1.6,0.1,2c0.2,0.3,1,0.6,1.4,0.3
			C63,56.1,62.9,53.8,62.7,53.6z"/>
		<path fill="#FFEA7E" d="M61.1,53.9c0.2-0.4,0.4-0.3,0.2-0.8c-0.1-0.2-0.2-1.1-0.5-1C60.1,52.2,60.8,54.6,61.1,53.9
			C61.2,53.8,61.1,54,61.1,53.9z"/>
		<path fill="#FFFFFF" d="M77.9,53.5c0.9,0.7,1-3,0.9-3.6c-0.2-1.3-0.8-2.5-1.6-3.6c-0.9-1.2-2.2-2.1-3.7-2.5
			c-0.5-0.1-3.8-0.1-3.4,0.5c-0.3-0.7-2-0.6-2.5-0.6c-1.2,0-2.4,0.4-3.3,1.2c-2.1,1.5-3.6,4.5-3.2,7.1c0.1,0.4,0.2,0.7,0.3,1.1
			c0.2,0.5,0.6,0.3,1.1,0.3c0.4,0,0.3-0.8,0.2-1c-0.1-0.1,2-1.2,2.2-1.3c1-0.6,1.9-1.3,2.8-2c0.1-0.1,0.2-0.2,0.4-0.3
			c0.4-0.1,0.2-1.6,0.5-1.6c0.1,0-0.2,1.5-0.2,1.6c0,0.4,0,3.4,0,3.4c-0.4,0-0.1-2.7-0.2-2.9c-0.2-0.4-1.7,0.9-1.9,1
			c-0.9,0.6-1.9,1.2-2.9,1.8C63,52.3,63,52.9,63,53.6c-0.1,1.9,0.2,4,1.6,5.4c1.6,1.6,4.1,1.8,6.2,1.8c1.9-0.1,4-0.6,5.3-2.1
			c0.6-0.7,1-1.5,1.2-2.4c0.1-0.5,0.2-1,0.2-1.5c0-0.7,0.2-1.1-0.4-1.4c-1.9-0.9-3.6-2-5.1-3.4c-2.1-1.8,0,2.4-0.6,2.5
			c-0.4,0-0.7-5-0.5-5c0.1,0,0.1,1.1,0.1,1.2c0,0.1,0.2,0.3,0.3,0.4c0.5,0.5,1,0.9,1.5,1.3c0.9,0.7,1.8,1.4,2.8,2
			c0.6,0.3,1.2,0.7,1.8,1c0.2,0.1,0.4-0.1,0.7,0C77.8,53.2,77.6,53.3,77.9,53.5z"/>
		<path fill="#D3D3D4" d="M78.4,56.5c-0.1-0.2-0.6-0.1-0.7-0.1c-0.3,0-0.4,0.6-0.5,0.8c-0.3,0.6-0.6,1.3-1.1,1.8
			c-0.2,0.2-0.4,0.4-0.7,0.6c-0.2,0.2-0.8,0.4-1,0.6c-0.2,0.4,0.9,0.4,1.1,0.5c0.5,0.2,0.9,0.5,1.2,0.8c0.3,0.3,0.5,0.3,0.6-0.2
			c0.2-0.7,0.4-1.4,0.6-2.1C78,58.7,78.7,56.8,78.4,56.5C78.3,56.4,78.4,56.5,78.4,56.5z"/>
		<path fill="#FFFFFF" d="M78.7,54.1c-0.8-0.7-1,0.3-1,0.9c-0.1,0.7-0.4,1.4,0.5,1.3C79.3,56.1,79.6,54.7,78.7,54.1
			C78.5,53.8,79.2,54.4,78.7,54.1z"/>
		<path fill="#D3D3D4" d="M79.6,46.8c-0.4-0.1-2.3-0.7-1.7,0.3c0.6,1,0.9,2,1,3.1c0,0.2,0.2,0.3,0.4,0.2c0.3-0.2,0.2-1.2,0.2-1.5
			C79.6,48.5,80,46.9,79.6,46.8C79.2,46.6,79.8,46.8,79.6,46.8z"/>
		<path fill="#B5B5B6" d="M62,45.9c0.4-0.8-1.9-1.3-2.3-1.2c-1,0-2.4,0.4-2.8,1.4c-0.5,1.3,0.7,1.5,1.7,1.1c0.5-0.2,0.9-0.5,1.3-0.7
			C60.3,46.4,61.9,46.2,62,45.9C62.1,45.9,62,46,62,45.9z"/>
		<path fill="#D3D3D4" d="M60.7,50.1c0.4,0,0.6-1.5,0.8-1.8c0.1-0.2,1.4-2.1,0.7-2.1c-0.4,0-0.9,0.1-1.3,0.2c-0.3,0.1-0.2,0.7-0.2,1
			C60.6,47.7,60.3,50.1,60.7,50.1C60.7,50.1,60.6,50.1,60.7,50.1z"/>
		<path fill="#D3D3D4" d="M63.4,64.2c-0.1-0.1-1.2-1.2-1.2-0.5c-0.1,0.2,0,0.6,0,0.8c0,1-0.1,2-0.1,3c0,0.2-0.1,0.5,0,0.7
			c0.2,0.2,1,0.2,1-0.2c0-0.9,0.1-1.8,0.2-2.6C63.4,65.1,63.7,64.3,63.4,64.2C63.1,64,63.5,64.2,63.4,64.2z"/>
		<path fill="#898989" d="M64.1,74.6c0.4,0.2,1.6-0.5,2-0.7c0.7-0.3,1.5-0.3,1.3-1.2c-0.1-0.7-1.1-7.4-0.5-7.4c0,0,0.2,4.1,0.2,4.4
			c0.1,0.8,0.2,1.6,0.3,2.3c0.1,0.4,1.5,0.3,1.7,0.3c1,0.1,2.1,0.1,3.2,0c0.4,0,0.4-1.7,0.5-2c0.1-0.4,0.3-4.8,0.3-4.8
			c0.5,0-0.2,5.6-0.3,6.1c-0.1,0.5-0.4,1.5-0.1,1.9c0.1,0.3,1.2,0.5,1.5,0.6c0.4,0.1,1.1,0.6,1.5,0.6c0.6,0.2,0.9-3,0.9-3.5
			c0.2-2,0.2-4.1-0.2-6.1c-0.1-0.8-0.3-0.6-1.1-0.7c-1.2-0.1-2.6-1-2.5-2.3c0-0.5,0.3-1,0.7-1.3c0.6-0.5-0.7-0.3-0.8-0.3
			C71.5,61,70,61,68.7,60.8c-0.4-0.1-1.6-0.5-2-0.3c-0.4,0.2,0.3,0.9,0.4,1.1c0.5,1.4-0.6,2.3-1.8,2.7c-0.7,0.2-1.5-0.2-1.7,0.6
			c-0.1,0.7-0.2,1.5-0.3,2.2c-0.1,1.1-0.1,2.3,0,3.4c0.1,0.7,0.1,1.4,0.3,2.1C63.7,73,63.7,74.4,64.1,74.6
			C64.2,74.7,64,74.6,64.1,74.6z"/>
		<path fill="#FFFFFF" d="M75.7,75.1c-0.5-0.2-1.1-0.4-1.6-0.6c-0.3-0.1-1.4-0.7-1.6-0.5c-1.1,0.9,0,2.3,1,2.6
			c0.6,0.2,1.2,0,1.6-0.3C75.4,76.2,76.3,75.3,75.7,75.1z"/>
		<path fill="#FFFFFF" d="M67.3,73.7c-0.5,0.2-1,0.4-1.4,0.5c-0.3,0.1-1.4,0.3-1.6,0.6c-0.3,0.4,0.3,1.1,0.7,1.3
			c0.5,0.2,1.2,0.1,1.7-0.2c0.4-0.3,0.7-0.7,0.9-1.2C67.7,74.6,67.9,73.5,67.3,73.7z"/>
		<path fill="#FFFFFF" d="M75.8,76.2c-0.3-0.1-1,0.6-1.4,0.6c-0.7,0.2-1.5-0.2-2-0.7c-1-1.1-0.2-1.7,0-2.8c0.1-0.8-0.5-0.6-1.1-0.6
			c-0.8,0-1.6,0-2.4-0.1c-0.3,0-1.1-0.2-1.3,0c-0.2,0.2-0.1,0.9,0.3,0.8c-0.1,0-0.2,0-0.2,0c0,0.2,0.2,0.4,0.2,0.6
			c0,0.4-0.1,0.7-0.3,1c-0.4,0.7-0.8,1.1-1.6,1.2c-0.5,0.1-1.3-0.4-1.5,0.2c-0.1,0.5-0.2,0.9-0.3,1.4c-0.1,0.5-1,3.1-0.2,3.1
			c1.3,0.1,2.6,0.1,3.9,0.1c1.7,0,3.4,0,5.1,0c1,0,2,0,3,0c0.4,0,1.1,0.1,0.9-0.5c-0.2-0.9-0.4-1.7-0.6-2.6
			C76.3,77.8,76.2,76.3,75.8,76.2C75.7,76.1,75.9,76.2,75.8,76.2z"/>
		<path fill="#666464" d="M77.6,68.6c-0.7-0.1-0.7,0.4-0.7,1c0,1-0.1,2-0.3,2.9c-0.1,0.8-0.5,1.8-0.5,2.6c0,0.3-0.2,0.5-0.1,0.8
			c0.3,1.6,0.7,3.3,1,4.9c0,0.2,0.1,0.4,0.3,0.4c0.8,0,0.5-0.8,0.5-1.4c0-1.5,0-2.9,0-4.4C77.9,74.8,78.1,68.6,77.6,68.6z"/>
		<path fill="#D3D3D4" d="M78.5,58.4c-0.4-0.1-0.7,1.9-0.8,2.3c-0.1,0.4-0.2,0.8-0.3,1.2c-0.1,0.5,0.1,0.6,0.2,1
			c0.1,0.3,0,0.7-0.1,1c-0.2,0.3-0.7,0.5-0.9,0.8c-0.1,0.3,0.2,1.1,0.2,1.4c0.1,0.5-0.1,2.1,0.3,2.4c0.2,0.2,0.7,0.1,1,0.1
			c0.6,0,0.9,0.1,0.9-0.6c0-1.8-0.1-3.6-0.1-5.5C78.7,62,79,58.4,78.5,58.4C78.3,58.4,78.6,58.4,78.5,58.4z"/>
		<path fill="#B5B5B6" d="M82.9,46c-0.4-0.8-1.5-1.1-2.4-1c-0.4,0.1-2.5,0.6-2.3,1.2c0.1,0.3,1,0.3,1.3,0.4c0.6,0.2,1.2,0.5,1.8,0.8
			C82.2,47.7,83.3,47,82.9,46C82.6,45.4,83,46.3,82.9,46z"/>
	</g>
	<path fill="#B5B5B6" d="M77.4,46.3c-1.7-1.9-4.6-3.3-7.1-2.4c-0.4,0.2-1.3-0.4-1.8-0.4c-0.8-0.1-1.6,0.1-2.3,0.3
		c-1.4,0.5-2.6,1.5-3.5,2.7c-0.9,1.2-1.6,2.7-1.7,4.3c-0.1,1.1-0.2,2.4,1.2,2.7c0.8,0.1,0.7-0.8,0.9-1.2c0.3-0.5,0.9-0.8,1.4-1.1
		c1.3-0.7,2.6-1.6,3.8-2.6c-0.1,1.1-0.3,2.3,0.1,3.3c0.6,1.6,1.2-1.6,1.3-2c0.1,0.5,0.5,2.9,1.4,2.7c0.6-0.1,0-3.1,0.1-3.6
		c1.1,1,2,2,3.1,2.8c1.1,0.8,2.5,1.1,3.7,1.8c0.7,0.4,0.8-2.9,0.8-3.4C78.7,48.8,78.3,47.4,77.4,46.3C76.8,45.7,79.2,48.3,77.4,46.3
		z"/>
	<path fill="#595757" d="M79.3,29.1c0.2-2.8,0.3-5.6-0.1-8.4c-0.2-1.3-0.7-2.5-1.3-3.7c-0.6-1.2-1-2.3-2.4-2.9c-2.3-1-5.6-1-8-0.2
		c-2.6,0.9-4.2,2.7-5.2,5.2c-0.5,1.2-0.8,2.7-0.8,4c-0.1,1.4-0.4,2.7-0.4,4.1c0.2,3.1,0.2,6.2,0.6,9.3c0.1,0.7,0,1.3,0.9,0.9
		c0.6-0.3,1.3-0.6,1.9-0.8c0.9-0.3,3.1-0.4,3.4-1.5c0.1-0.4,0-0.9,0-1.3c0-0.5-0.7-0.4-1-0.5c-0.5-0.2-0.9-0.6-1.3-0.9
		c-0.5-0.4-1.1-0.7-1.6-1.2c-0.5-1-0.7-2.2-0.9-3.3c-0.1-0.5-0.1-1-0.2-1.5c0-0.2-0.1-0.4-0.1-0.6c0.3-0.1,0.2-0.4,0.2-0.7
		c0-0.6,0-1.1,0-1.7c0-0.5,0.1-0.5,0.3-0.9c0.3-1.1,1.3-1.8,2-2.7c-0.3,0.6-0.6,1.3-0.6,2c0,0.9,1.1-0.3,1.3-0.5
		c0.4,1.6,1.1-0.4,1.4-1c0.5-1,1.1-2.1,1.9-2.9c0.5,1.5,1,3.2,1.9,4.5c0.4,0.5,0.8,0.9,1.4,1.2c0.6,0.3,1.6,0.5,1.2-0.5
		c0.5,0.5,1.1,0.9,1.7,1.2c0.3,0.1,0.6,0.2,1,0.3c0.5,0.1,0.7-0.1,0.6,0.5c-0.1,1.5-0.2,3.1-0.4,4.6c-0.1,0.8-0.4,1-1,1.5
		c-0.6,0.5-1.2,0.9-1.8,1.4c-0.4,0.4-0.7,0.8-1.2,1c-0.7,0.3-0.8,0.1-0.9,1c0,0.8,0.1,0.9,0.8,1.1c0.6,0.1,1.3,0.3,1.9,0.4
		c1.3,0.4,2.7,0.8,3.8,1.6c0.5,0.4,0.5-0.8,0.5-1c0.1-0.9,0.2-1.8,0.3-2.7C79.4,32.1,79.3,30.6,79.3,29.1
		C79.4,27.9,79.3,29.7,79.3,29.1z"/>
	<path fill="#D3D3D4" d="M71.2,30c-0.3-0.3-3.1-0.3-3.1,0.1c-0.1,0.6,0.4,1.3,1,1.6c0.5,0.3,1.3,0.4,1.8,0
		C71,31.5,71.9,29.7,71.2,30C71.1,29.9,71.5,29.9,71.2,30z"/>
	<path fill="#E6E6E6" d="M70.3,81.1c-0.4-1.2-0.1-2.6-0.2-3.9c0-0.6-0.1-1.2,0-1.8c0-0.4-0.6-0.4-0.6,0c-0.1,1.3,0.1,2.6,0.1,3.9
		c0,0.6,0,1.3,0.2,1.9C69.8,81.6,70.5,81.5,70.3,81.1C70,80.3,70.5,81.5,70.3,81.1z"/>
	<path fill="#E6E6E6" d="M72.9,79.2c0-0.7,0.2-2.6-0.3-3.2c-0.2-0.2-0.6,0.1-0.5,0.3c0.1,0.6,0.2,1.2,0.2,1.8c0,0.5,0,0.9,0.1,1.4
		c0,0.4,0,1.2,0.2,1.6c0.2,0.3,0.6,0.1,0.6-0.2C73,80.4,72.9,79.8,72.9,79.2C72.8,78.2,72.9,79.8,72.9,79.2z"/>
	<path fill="#E6E6E6" d="M75.8,80.7c-0.3-0.5-0.2-1.7-0.3-2.3c-0.1-0.6-0.2-1.2-0.3-1.7c-0.1-0.3-0.5-0.3-0.6,0
		c-0.1,0.3,0.1,0.9,0.2,1.2c0.1,0.6,0.2,1.2,0.3,1.7c0.1,0.5,0,1,0.2,1.4C75.4,81.4,75.9,81,75.8,80.7C75.6,80.5,76,81,75.8,80.7z"
		/>
	<path fill="#E6E6E6" d="M67.3,76.1c-0.5,1.2-0.1,2.8-0.1,4.1c0,0.2-0.1,1.3,0.5,1c0.2-0.1,0.2-0.5,0.2-0.8c0-0.6,0-1.2,0-1.8
		c0-0.6-0.2-1.3-0.1-1.9c0-0.2,0.2-0.4,0.1-0.7C67.7,75.9,67.4,75.8,67.3,76.1C67,76.7,67.5,75.7,67.3,76.1z"/>
	<path fill="#E6E6E6" d="M65.5,76.4c0,1.1-0.2,2.3-0.4,3.4c0,0.3-0.3,1-0.1,1.3c0.1,0.3,0.6,0.1,0.6-0.2c0.1-1.1,0.4-2.2,0.5-3.4
		c0-0.3,0.2-1,0-1.3C65.9,75.9,65.5,76.1,65.5,76.4C65.5,77.9,65.5,76,65.5,76.4z"/>
	<path fill="#231815" d="M65.9,54.8c1,0,1,1.7,0,1.7C64.9,56.5,64.9,54.8,65.9,54.8z"/>
	<path fill="#231815" d="M73.8,54.8c1,0,1,1.7,0,1.7C72.8,56.5,72.8,54.8,73.8,54.8z"/>
	<g>
		<path fill="#231815" d="M66.2,52.1c-0.5-0.1-1,0.2-1.4,0.6c-0.2,0.2-0.2,0.6,0.2,0.6c0.2,0,0.5-0.3,0.6-0.4
			c0.8-0.4,0.8,0.6,1.4,0.6C67.9,53.5,66.6,52.2,66.2,52.1z"/>
		<path fill="#231815" d="M72.8,53.4c0.4-0.4,1-0.6,1.5-0.3c0.3,0.2,0.4,0.5,0.7,0.7c0.6,0.3,0.4-0.5,0.2-0.8
			c-0.6-0.7-1.4-0.9-2.2-0.5c-0.2,0.1-0.4,0.2-0.6,0.4C72,53.1,72.4,53.7,72.8,53.4z"/>
		<path fill="#231815" d="M63.5,23c0.5,0,0.5-1.4,0.6-1.6c0.3-1.3,1-2.5,2-3.3c-0.6,1-1.1,2.1-1.4,3.2c-0.1,0.2-0.2,0.6,0.1,0.7
			c0.2,0,0.3-0.1,0.4-0.2c0.2-0.6,0.4-1.3,0.6-1.9c0.4-1,0.9-1.9,1.5-2.8c0.1-0.1,1.1-1.4,0.3-1.3c-0.3,0-0.6,0.6-0.7,0.8
			c-0.3,0.4-0.9,0.5-1.3,0.9c-0.7,0.6-1.3,1.4-1.7,2.2C63.9,20,62.7,22.9,63.5,23z"/>
		<path fill="#231815" d="M69.3,28.3c0.5,0,0.9-2.1,0.4-2.2C69.2,26,68.7,28.3,69.3,28.3z"/>
		<path fill="#231815" d="M71.6,29.7c-0.8,0-1.5,0-2.3,0c-0.4,0-0.7,0-1.1,0c-0.6,0-0.3,0.9-0.2,1.2c0.4,1.2,1.8,1.9,2.9,1
			C71.1,31.7,72.6,29.7,71.6,29.7z M69.7,31.7c-0.7,0-1.1-0.7-1.2-1.3c0.9,0,1.8,0,2.7,0C71,31,70.5,31.7,69.7,31.7z"/>
		<path fill="#231815" d="M65.9,21.9c-0.5,0.1-1,0.3-1.3,0.7c-0.2,0.3,0.3,0.8,0.5,0.4c0.1-0.1,0.2-0.3,0.4-0.3
			c0.3-0.2,0.6-0.2,0.9-0.1c0.3,0.1,0.7,0.6,1,0.6c0.7,0,0.1-0.7-0.1-0.8C66.9,22,66.4,21.8,65.9,21.9C65.1,22,66.4,21.8,65.9,21.9z
			"/>
		<path fill="#231815" d="M65.8,24.7c-0.4,0-0.7,0.2-0.9,0.5c-0.1,0.2,0,0.5,0.3,0.5c0.3,0,0.5-0.4,0.7-0.4c0.4-0.1,1,0.7,1.3,0.3
			C67.7,25,66.2,24.6,65.8,24.7z"/>
		<path fill="#231815" d="M72.2,25.5c-0.2,0.2-0.1,0.5,0.1,0.6c0.2,0,0.3-0.1,0.5-0.2c0.7-0.2,0.9,0.5,1.5,0.5
			c0.9,0-0.5-1.1-0.8-1.2C73.1,25.2,72.6,25.2,72.2,25.5C72.1,25.6,72.6,25.2,72.2,25.5z"/>
		<path fill="#231815" d="M68.7,17.3c-1,0.9-1.6,2.2-2.1,3.3c-0.1,0.2-0.2,1.1,0.4,0.7c0.4-0.3,0.6-1.3,0.8-1.7
			c0.3-0.6,0.7-1.2,1.2-1.7c0.2,0.6,2,5.7,2.9,5.1c0.1,0.4,0.4,0.2,0.7,0.1c0.7-0.4,0.8,0,1.3,0.5c0.2,0.2,0.7,0.8,1,0.6
			c0.6-0.3-0.4-1-0.6-1.2c0.3,0.1,1.8,1.5,1.8,0.6c0-0.7-1.5-1.3-2-1.4c-0.5-0.1-0.5-0.1-0.8-0.6c-0.3-0.4-0.5-0.9-0.8-1.4
			c-0.4-0.7-0.7-1.5-0.9-2.2c-0.1-0.3-0.2-0.7-0.3-1c-0.1-0.4-0.7-0.2-0.6,0.2c0,0.1,0.1,0.3,0.1,0.4c0.5,1.6,1.2,3.2,2.1,4.6
			c-0.3,0.1-0.6,0.2-0.8,0.4c-0.1-0.4-0.6-0.8-0.8-1.1c-0.3-0.4-0.5-0.9-0.7-1.3c-0.4-0.9-0.7-1.9-1-2.9c-0.1-0.5-0.3-1-0.3-1.5
			c-0.1-0.4-0.7-0.4-0.6,0.1C68.6,16.3,68.9,17.2,68.7,17.3z"/>
		<path fill="#231815" d="M69.8,52.4c0.5,0,0.2-1.3,0.1-1.6c0-0.2-0.1-2.4-0.7-1.8C69,49.4,69.3,52.4,69.8,52.4z"/>
		<path fill="#231815" d="M70.2,59.2c0.4,0,2.3-0.8,1.6-1.4c-0.3-0.3-0.6,0.3-0.8,0.5c-0.3,0.2-0.7,0.3-1.1,0.2
			c-0.3-0.1-0.9-0.6-1.3-0.5c-0.5,0.1-0.1,0.6,0.1,0.7C69.1,59,69.6,59.2,70.2,59.2z"/>
		<path fill="#231815" d="M83.2,45.7c-0.5-1-1.8-1.4-2.9-1.2c0.2-1.9,0.2-4.1-0.5-5.9c-0.2-0.4-0.4-0.8-0.7-1.1
			c0.1-0.2,0.1-0.6,0.1-0.8c0.4-3.4,0.6-6.7,0.6-10.1c0-3.5,0.2-8.1-2.3-10.9c-1.5-1.7-4.1-2.8-6.4-2.9c-1.7-0.1-3.6,0.3-5.1,1.1
			c-3.2,1.7-4.6,5-4.9,8.5c-0.4,4.5,0,9.1,0.2,13.6c0,0.4,0.3,1.5,0.1,1.8c-0.2,0.2-0.2,0.6-0.3,0.8c-0.3,1.3-0.5,2.6-0.6,3.9
			c0,0.4-0.1,0.7-0.1,1.1c-0.1,0.5,0.1,0.7-0.4,0.7c-0.4,0-0.9,0-1.3,0.1c-1.1,0.2-2.4,1-2.3,2.3c0.2,2.2,2.7,0.6,3.8,0.2
			c-0.2,2.9-0.2,5.9,0.3,8.8c0.2,1.4,0.6,2.7,1,4c0.2,0.7,0.4,1.1,0.4,1.8c-0.1,1.4-0.1,2.8-0.2,4.3c0,0.4-0.4,2.9,0.3,2.9
			c0.1,0,0.8-0.1,0.9,0c0,0.6,0,1.2,0.1,1.8c0.1,1.5,0.4,3,0.8,4.5c0.1,0.3,0.2,0.1,0.3,0.5c0.1,0.2,0.2,0.4,0.3,0.6
			c0,0.2-0.1,0.3-0.1,0.5c-0.2,0.9-0.4,1.7-0.6,2.6c-0.1,0.4-0.7,2.1,0,2.2c0.8,0.2,1.7,0.1,2.5,0.2c2.5,0.1,5.1,0,7.6,0
			c1.3,0,2.7,0.1,4,0c0.9-0.1,0.6-1.2,0.6-1.9c0-0.8,0-1.6,0-2.4c0-2.8,0.1-5.7-0.1-8.5c0.5,0,1.1,0.1,1.1-0.5c0-0.6,0-1.2,0-1.9
			c0-2.1-0.1-4.2-0.1-6.4c0-1.3-0.1-2.5-0.1-3.8c0,0,0.5-0.5,0.5-0.7c0.1-0.4,0.1-0.8,0-1.1c-0.2-0.5-0.2-0.7-0.1-1.3
			c0.1-0.6,0.2-1.2,0.3-1.8c0.2-1.4,0.4-2.8,0.5-4.3c0.7,0.3,1.5,0.9,2.2,0.6C83.2,47.4,83.5,46.4,83.2,45.7
			C82.9,45,83.4,46,83.2,45.7z M62,21c0.6-3.5,2.8-6.4,6.2-7.3c1.4-0.4,2.8-0.4,4.2-0.1c3.5,0.7,5.9,3.1,6.5,6.7
			c0.6,4,0.4,8.2,0.1,12.2c-0.1,1.5-0.2,3.1-0.4,4.6c-1.6-1-3.6-1.5-5.5-2c-0.3-0.1-0.5-0.1-0.8-0.2c-0.2,0-0.1-0.5-0.2-0.7
			c0-0.4-0.1-0.5,0.2-0.7c0.6-0.3,1.1-0.6,1.7-0.9c0.8-0.5,1.7-1.1,2.2-1.9c0.4-0.5,0.4-1.3,0.6-2c0.3-1.5,0.5-3.1,0.7-4.7
			c0.4,0.3,1-0.1,0.5-0.4c-0.5-0.4-1-0.8-1.5-1.3c-0.8-0.8-1.5-1.8-2.1-2.8c-0.3-0.6-0.6-1.2-0.8-1.9c-0.1-0.2-0.1-0.3-0.1-0.5
			c-0.1-0.4-0.7-0.4-0.6,0.1c0.3,1.3,0.9,2.5,1.7,3.6c0.7,1,1.6,2,2.6,2.8c-0.3,0.3-0.2,1.1-0.3,1.4c-0.2,1.6-0.4,3.3-0.8,4.9
			c-0.4,1.4-2.7,2.4-3.9,3c-0.7,0.3-1.6,0.8-2.3,0.8c-0.9,0-1.8-0.5-2.6-1c-1.2-0.7-2.9-1.6-3.2-3.1c-0.4-1.8-0.5-3.8-0.7-5.7
			c-0.1-1.8-0.6-3.5,0.5-5.1c0.1-0.2,0.2-0.3,0.3-0.4c0.3-0.3,0-0.9-0.4-0.5c-0.3,0.3-0.6,0.8-0.8,1.2c-0.7,1.6-0.4,3-0.3,4.6
			c0.1,1.6,0.2,3.2,0.5,4.8c0.2,1.5,0.5,2.4,1.7,3.4c0.9,0.7,1.9,1.4,3,1.9c0.2,0.3,0.1,1.3-0.3,1.4c-1.8,0.4-3.8,0.8-5.3,1.9
			c-0.2-3.4-0.4-6.8-0.4-10.2C61.7,25,61.7,23,62,21C63.5,12.9,61.6,23.6,62,21z M67,36.1c0-0.1,1.4-0.1,1.4-0.6c0-0.4,0-0.9,0-1.3
			c1.2,0.4,2.1,0.2,3.2-0.2c0,0.4,0.1,0.8,0.1,1.2c0,0.5,1.7,0.7,2.2,0.8c-0.8,1.4-1.6,2.7-3.5,2.8c-1,0.1-1.9-0.2-2.6-0.9
			c-0.3-0.3-0.5-0.6-0.6-0.9C67,36.6,67.1,36.4,67,36.1C67,36.1,67.1,36.2,67,36.1z M62.1,38.2c0.9-1.2,2.9-1.6,4.3-2
			c-0.4,1.7,2.1,3.1,3.4,3.2c1.1,0.1,2.1-0.2,3-0.9c0.6-0.5,1.7-1.6,1.7-2.4c1.8,0.5,4.4,1,5,3.1c0.3,1,0.4,2,0.4,3.1
			c0,0.6,0.2,2.3-0.4,2.5C78.7,45,78,45.4,77.6,46c-0.3-0.4-0.7-0.8-1-1.2c-0.3-0.2-0.2-0.3-0.2-0.6c0-0.5-0.1-1.1-0.1-1.6
			c-0.1-0.7-0.7-0.5-0.6,0.1c0,0.5,0.1,1,0.1,1.5c-1.6-1.1-3.8-1.3-5.6-0.7c-0.4,0.1-1.4-0.3-1.9-0.3c-1.3-0.1-2.6,0.2-3.7,0.9
			c0.1-0.6,0.1-1.2,0.2-1.7c0-0.4,0.3-1.4,0.1-1.8c-0.6-0.7-0.6,1.1-0.7,1.3c-0.1,0.8-0.1,1.5-0.2,2.3c0,0.4,0,0.4-0.4,0.7
			c-0.2,0.2-0.4,0.4-0.6,0.7c-0.4,0.5-0.4,0-0.6-0.3c-0.2-0.2-0.4-0.4-0.7-0.6c-0.4-0.3-0.5-0.1-0.5-0.6c0.1-0.8,0.2-1.5,0.3-2.3
			C61.5,40.8,61.5,39.1,62.1,38.2C62.7,37.3,62,38.4,62.1,38.2z M75.7,64.2c-1,0-2.5-0.7-2.4-1.9c0.1-1.1,1.2-1.6,2.2-1.2
			c0.7,0.3,1.5,1,1.7,1.8C77.4,63.7,76.4,64.2,75.7,64.2z M63,63.2c-0.8-1.4,2.1-3.2,3.2-2.3C68.3,62.6,64.4,65.1,63,63.2
			C62.8,63,63.3,63.7,63,63.2z M63.1,61.1c-0.1,0.1-0.1,0.2-0.2,0.3c-0.7-1.6-1.2-3.4-1.6-5.1c0.3,0.3,1.2,0.7,1.5,0.2
			c0.4,1.5,1.2,2.7,2.5,3.5C64.5,60,63.6,60.5,63.1,61.1C63,61.2,63.1,61,63.1,61.1z M62.7,55.9c-0.3-0.2-0.6,0.1-0.9-0.2
			c-0.3-0.2-0.4-0.7-0.4-1c0-0.9,0.3-1,1.2-1C62.5,54.5,62.6,55.2,62.7,55.9C62.6,55.9,62.5,55.1,62.7,55.9z M60.9,53.7
			c-0.1-0.5-0.1-1-0.1-1.5c0.1,0.3,0.2,0.6,0.3,0.9C61.3,53.5,61.1,53.3,60.9,53.7C60.9,53.3,61,53.6,60.9,53.7z M64.1,57.9
			c-1-1.5-1.1-3.6-0.8-5.3c0.1-0.6,1.9-1.3,2.5-1.6c0.8-0.5,1.6-1,2.3-1.6c0,0.7,0,1.4,0,2.1c0,0.2,0.2,1.5,0.7,0.9
			c0.2-0.4-0.1-1.6-0.1-2.1c0-0.7,0.1-1.3,0.2-2c0-0.3,0.1-0.5,0.2-0.8c0.1-0.5-0.5-0.6-0.6-0.1c-0.1,0.4-0.1,1.1-0.4,1.3
			c-0.1,0.1-0.3,0.2-0.4,0.3c-0.8,0.6-1.6,1.2-2.4,1.7c-0.6,0.4-1.2,0.7-1.8,1.1c-0.2,0.1-0.7,0.3-0.8,0.5c0,0.2,0,0.3,0.1,0.4
			c0,0.2-0.1,0.4-0.1,0.5c-0.5,0-0.8,0.2-1-0.3c-0.1-0.3-0.2-0.6-0.3-0.9c-0.2-1,0-2,0.3-2.9c1.2-3.3,4.6-6.2,8.3-4.7
			c0.2,0.1,0.7-0.2,0.9-0.2c0.6-0.1,1.2-0.2,1.8-0.2c1.9,0.1,3.6,1.2,4.6,2.8c1.4,2.1,1.6,4.3,0.9,6.7c-0.1-0.1-0.4-0.6-0.5-0.5
			c-0.1,0-0.2,0.1-0.2,0.1c-0.2-0.1-0.4-0.2-0.6-0.3c-0.3-0.2-0.6-0.3-0.9-0.5c-0.9-0.5-1.8-1.2-2.7-1.8c-0.6-0.4-1.1-0.9-1.6-1.4
			c-0.4-0.4-0.5-0.6-0.4-1.3c0-0.3-0.4-0.9-0.6-0.3c-0.1,0.2,0,0.5,0,0.7c0,0.8,0.1,1.7,0.2,2.5c0,0.4,0.1,2.1,0.6,2.1
			c0.6,0,0-2.7-0.1-3.1c1.4,1.4,3.1,2.5,4.8,3.5c0.5,0.3,1.3,0.4,1.3,1c0,0.6-0.1,1.2-0.2,1.8c-0.2,1-0.7,2-1.4,2.8
			c-1.4,1.5-3.7,1.9-5.7,1.8C67.9,60.3,65.4,59.9,64.1,57.9C62.7,55.7,64.9,59.2,64.1,57.9z M76.9,61.4c-0.6-0.6-1.5-1.2-2.3-1.1
			c0.8-0.4,1.5-1,2-1.7c0.2-0.3,0.5-0.7,0.6-1.1c0.1-0.2,0.2-0.4,0.2-0.6c0.2-0.5,0.2-0.3,0.7-0.3C77.9,58.2,77.5,59.9,76.9,61.4
			C77,61.4,77,61.4,76.9,61.4C76.9,61.3,77,61.4,76.9,61.4z M78.9,55.4c-0.2,0.5-0.7,0.5-1.2,0.5c0.1-0.4,0-1.9,0.5-1.9
			C78.9,54.1,79.1,54.9,78.9,55.4C78.8,55.8,79.1,55,78.9,55.4z M79.2,50.1c-0.1-1.2-0.5-2.4-1.2-3.4c0.4,0,0.9,0.1,1.3,0.2
			c0.4,0.1,0.3,0.2,0.2,0.6C79.4,48.3,79.3,49.2,79.2,50.1C79.1,49,79.4,48.6,79.2,50.1z M59.8,46.3c-0.7,0.3-1.3,0.8-2.1,0.9
			c-0.9,0.1-0.6-1.2-0.2-1.6c1-0.9,3.4-1.1,4.3,0.2C61.1,45.8,60.5,46,59.8,46.3C59.7,46.3,60.5,45.9,59.8,46.3z M62.2,46.4
			c0.1,0.1-0.7,1.3-0.8,1.5c-0.3,0.6-0.5,1.2-0.6,1.9c0-0.7,0-1.4,0.1-2.1c0-0.4,0-0.7,0.1-1.1C61.3,46.5,61.8,46.4,62.2,46.4
			C62.2,46.4,61.8,46.4,62.2,46.4z M62.4,63.6c0.1,0.3,0.6,0.6,0.9,0.8c-0.1,0.3-0.1,0.6-0.2,0.9c-0.1,0.6-0.2,1.3-0.2,1.9
			c0,0.7,0,0.7-0.6,0.7C62.3,66.5,62.4,65,62.4,63.6z M63.9,64.5c2.1,0.4,4.8-2,2.9-3.9c2.1,0.6,4.6,0.7,6.6,0.1
			c-0.9,0.7-1.1,2.2-0.3,3.1c0.4,0.4,1,0.7,1.5,0.9c0.3,0.1,1.4,0.1,1.5,0.2c0.4,1.7,0.4,3.4,0.3,5.1c-0.1,1.4-0.3,2.8-0.6,4.2
			c-0.1,0.5,0,0.4-0.4,0.3c-0.4-0.1-0.7-0.3-1.1-0.4c-0.4-0.1-1.2-0.3-1.5-0.6c-0.3-0.5,0.1-1.6,0.2-2.3c0.1-1.1,0.3-2.2,0.3-3.2
			c0-0.5,0-1,0-1.5c0-0.2-0.1-1.7-0.6-1c-0.2,0.3,0,1.1,0,1.4c0,0.6,0,1.1-0.1,1.7c-0.1,1.2-0.3,2.4-0.4,3.6c-1.2,0.1-2.4,0-3.5,0
			c-0.4,0-0.7,0-1-0.1c-0.2,0-0.3-1.3-0.3-1.5c-0.1-1.1-0.3-2.3-0.3-3.5c0-0.5,0-1,0-1.5c0.1-0.8-0.6-0.6-0.6,0.1
			c-0.2,2.3,0.2,4.6,0.6,6.9c0,0.2,0.2,0.5,0,0.6c-0.3,0.1-0.6,0.2-0.9,0.4c-0.7,0.2-1.3,0.5-2,0.7C63.4,71.2,63.1,67.7,63.9,64.5
			C64,64.6,63.8,65.1,63.9,64.5z M72.6,74.1c1,0.4,2,0.8,3,1.1C74.6,77.6,71.2,75.3,72.6,74.1z M67.5,74.3c-0.1,0.9-0.8,1.6-1.7,1.7
			c-0.5,0-1.8-0.8-1-1.1c0.6-0.2,1.2-0.4,1.8-0.7C66.9,74.1,67.6,73.5,67.5,74.3C67.4,74.9,67.5,74,67.5,74.3z M63.9,80.8
			c0.2-1.5,0.6-2.9,0.9-4.3c1.1,0.5,2.3-0.1,2.9-1.1c0.6-1,0.2-1.6,0.1-2.6c1.5,0.1,3,0.2,4.4,0.1c-0.2,1.2-1.1,2-0.1,3.2
			c0.9,1.1,2.6,1.4,3.6,0.3c0.3,1.5,0.6,3,1,4.6c-2.5,0-5.1,0-7.6,0C67.4,80.9,65.6,81,63.9,80.8C64,79.8,65.2,80.9,63.9,80.8z
			 M77.6,80.9c-0.6,0-0.5-1.1-0.6-1.5c-0.2-1-0.4-1.9-0.6-2.9c-0.2-1,0-1.5,0.2-2.5c0.4-1.7,0.6-3.4,0.6-5.1
			c0.7-0.2,0.5,0.8,0.5,1.3c0,1,0,2.1,0,3.1C77.7,75.7,77.7,78.3,77.6,80.9C77.5,80.9,77.7,76.5,77.6,80.9z M78,68.1
			c-0.2-0.1-0.5,0-0.7,0c-0.1,0-0.1-1.2-0.2-1.4c-0.1-0.7-0.2-1.4-0.3-2.1c1-0.5,1.3-1.5,0.7-2.5c0.4-1.2,0.7-2.3,0.9-3.5
			c0.1,3.2,0.1,6.4,0.2,9.6C78.4,68.1,78.2,68.1,78,68.1z M82.6,46.8c-0.4,0.6-0.9,0.4-1.4,0.1c-0.9-0.4-1.7-0.8-2.7-0.9
			c0.6-0.6,1.6-0.9,2.5-0.9C81.7,45.1,83.2,45.8,82.6,46.8C82.2,47.4,82.7,46.5,82.6,46.8z"/>
	</g>
</g>
</svg>
