<?xml version="1.0" encoding="utf-8"?>
<!-- Generator: Adobe Illustrator 17.1.0, SVG Export Plug-In . SVG Version: 6.00 Build 0)  -->
<!DOCTYPE svg PUBLIC "-//W3C//DTD SVG 1.1//EN" "http://www.w3.org/Graphics/SVG/1.1/DTD/svg11.dtd">
<svg version="1.1" id="Ebene_1" xmlns="http://www.w3.org/2000/svg" xmlns:xlink="http://www.w3.org/1999/xlink" x="0px" y="0px"
	 width="100px" height="100px" viewBox="0 0 100 100" enable-background="new 0 0 100 100" xml:space="preserve">
<circle fill="#B2B2B2" cx="50" cy="50" r="50"/>
<g>
	<path fill="#B3B3B4" d="M46.3,23.4c9,0,16.7,6.3,19.8,14.5c3.3,8.7,1.4,19-5,25.8C55,70.1,45.3,72,37.3,68
		c-8.2-4.2-12.8-13.3-12.4-22.4C25.5,34.1,34.3,23.4,46.3,23.4z"/>
	<g>
		<path fill="#FFFFFF" d="M71.4,23.8c-1.2-0.7-2.8-1.1-4.2-0.8c-1.1,0.3-1.9,1.3-2.8,2c-0.5,0.4-1.1,0.8-1.7,1.2
			c-0.9,0.5-1.8,1.2-2.6,1.8c-4.9,3.3-9.8,6.7-14.8,10c-3.6,2.4-7.2,4.9-10.7,7.3c-0.4,0.3-0.5,1.3-0.7,1.7c-0.5,2-0.5,4.1,0.3,6
			c0.9,2,2.8,4.1,4.9,4.9c0.4,0.2,1.4,0.6,1.9,0.3C49.2,52.6,57.6,47,66,41.4c1.4-0.9,2.8-1.9,4.2-2.8c0.3-0.2,0.3-0.2,0.6-0.1
			c0.9,0.2,1.9,0.3,2.8,0c1.6-0.6,2.1-2.3,2.1-3.9c0-0.8-0.5-1.6-0.8-2.3c-1.1-2.6-2.2-5.3-3.3-7.9C71.5,24.2,71.4,24,71.4,23.8z"/>
		<path fill="#D1D1D2" d="M17.2,73.7c0,0-1.9,7.1,0.9,7.4C20.7,81.5,18.5,78.1,17.2,73.7z"/>
		<path fill="#D1D1D2" d="M21.6,72.1c0,0,1.5,6.6,2.6,4.4C25.2,74.3,21.6,72.1,21.6,72.1z"/>
		<path fill="#EFEFEF" d="M33.9,51.8c-0.4,0.5-0.8,1-1.2,1.6c-0.4,0.5-0.9,0.8-0.7,1.5c0.2,0.3,0.3,0.7,0.5,1c0,0.1,0.6-0.2,0.7-0.2
			c0.7-0.3,1.4-0.5,2-0.8C34.8,53.8,34.3,52.8,33.9,51.8z"/>
		<path fill="#898989" d="M53.8,34.1c-0.8,0.9-1.7,1.7-2.5,2.6c-0.3,0.4-0.2,1.5-0.2,2c0,1.6,0.3,3.2,0.9,4.6
			c0.4,0.8,0.8,1.5,1.4,2.1c0.3,0.3,1.6,1.6,2,1.3c1-0.8,1.9-1.6,2.9-2.3c0.1-0.1-0.7-1.7-0.8-1.9c-1.2-2.6-2.4-5.2-3.5-7.8
			C54,34.5,53.9,34.3,53.8,34.1z"/>
		<path fill="#C9CACA" d="M72.8,18.2c-0.7,0.1-1.2,0.6-1.5,1.2c-1.2,2.3,0,5.6,0.7,7.8c0.9,2.8,2.2,6.4,4.8,8.1
			c1.4,0.9,3.1,0.8,4.6,0.2C78.5,29.7,75.6,24,72.8,18.2z"/>
		<path fill="#F7F8F8" d="M54.5,34.6c-0.6,1.5-0.7,3.3-0.3,4.8c0.4,1.6,1.4,2.9,2.7,3.9c0.2,0.2,1.3,1.1,1.6,1
			c0.2-0.1,0.4-0.3,0.6-0.4c3.3-2.4,6.6-4.8,9.9-7.2c-2.7-2.1-4-5.9-4.1-9.3C61.4,29.8,58,32.2,54.5,34.6z"/>
		<path fill="#DCDDDD" d="M67.1,27c-0.3,1.9,0.3,4,1.2,5.6c0.4,0.7,2.5,3.7,3.4,3.1c1-0.6,2-1.2,3-1.8c0.3-0.2-0.1-0.8-0.3-1.1
			c-0.5-1.1-1-2.2-1.5-3.3c-0.8-1.8-1.5-3.5-2.3-5.3C69.5,25.2,68.3,26.1,67.1,27z"/>
		<path fill="#898989" d="M74.1,18c-0.5,0.6-0.6,1.4-0.7,2.1c-0.2,2.6,1,5.2,2.3,7.4c1.2,2.2,2.7,4.3,4.2,6.2
			c0.2,0.3,1.2,1.9,1.6,1.7c0.3-0.1,0.5-0.2,0.7-0.3c2.8-1.7,2.3-5.4,1.4-8c-0.6-1.8-1.4-3.6-2.2-5.3c-0.5-1.1-1.1-2.3-2-3.3
			C78,17,76,17.3,74.1,18z"/>
		<path fill="#D1D1D2" d="M36,46.8c-0.6,1.5-0.8,3.4-0.3,5c0.5,1.5,1.8,2.5,3.2,3.2c0.4,0.2,2,0.9,2.4,0.7c0.2-0.1,0.4-0.3,0.6-0.4
			c4.4-2.8,8.8-5.5,13.3-8.3c0.1-0.1,0.2-0.1,0.3-0.2c-4.4-1-4.9-6.3-4.2-10C46.1,40.2,41.1,43.5,36,46.8z"/>
		<g>
			<path d="M77.4,18.7c-1.6-1.1-3.7-1.9-5.5-0.8c-0.7,0.4-1.3,0.8-1.6,1.6c-0.3,1-0.3,2-0.2,3.1c-0.8-0.8-2.1-0.8-3.1-0.5
				c-0.5,0.1-1.3,0.4-1.6,0.8c-0.3,0.5-0.8,0.8-1.2,1.2c-1.9,1.6-4,3.1-6.1,4.5c-5.8,4.1-11.7,8-17.6,11.9c-2,1.3-4.1,2.7-6.2,3.9
				c-0.7,0.5-1,0.9-1.2,1.7c-0.3,1.6-0.3,3.2,0,4.7c0.1,0.6-0.4,1-0.7,1.5c-0.4,0.6-0.8,1.2-1.2,1.8c-0.1,0.2-0.1,0.3-0.1,0.5
				c0,0.6-0.4,0.7-0.9,1c-1.2,0.8-2.3,1.7-3.4,2.6c-1.9,1.6-4.1,3.1-5.9,4.9c-0.1,0.1-1.3,1.4-0.7,1.5c0.7,0,1.6-0.6,2.2-1
				c2.1-1.7,4.2-3.5,6.3-5.2c0.4-0.3,2.7-2.4,3-2.2c0.3,0.1,0.6,0.3,0.8,0.4c0.3,0.2,1.5-0.7,1.8-0.9c0.3-0.2,0.6-0.3,0.9-0.4
				c0.2,0.2,0.4,0.5,0.5,0.7c0.4,0.4,0.8,0.8,1.2,1.2c0.9,0.8,2,1.3,3.2,1.4c0.7,0.1,1,0.1,1.6-0.2c0.4-0.2,0.8-0.5,1.2-0.7
				c1.1-0.7,2.2-1.4,3.3-2.1c6.1-3.9,12.2-7.8,18.2-11.9c1.8-1.3,3.7-2.5,5.5-3.9c0.3-0.3,0.5-0.5,0.9-0.5c0.9,0.1,1.9,0,2.8-0.3
				c1.6-0.6,2.2-2.1,2.6-3.7c1.7,1.5,4.6,2.1,6.4,0.3c1.6-1.7,1.1-4.5,0.7-6.5c-0.5-2.2-1.3-4.3-2.4-6.2
				C79.9,21.3,78.9,19.7,77.4,18.7C75.4,17.3,80.1,20.6,77.4,18.7z M70.6,35.2c-0.7,0.3-2.8-4.6-3-5.3c-0.2-0.6-0.3-1.1-0.4-1.7
				c-0.1-0.8,0.1-0.8,0.8-1.2c0.9-0.7,1.7-1.4,2.7-2.1c0.4,1.5,1.1,3.1,1.8,4.5c0.4,1,0.9,2.1,1.5,3.1c0.2,0.3,0.3,0.3,0,0.5
				c-0.3,0.3-0.7,0.5-1,0.8C72.2,34.4,71.4,34.9,70.6,35.2C70.6,35.2,71.9,34.7,70.6,35.2z M33.1,55.5c-0.4-0.3-0.5-0.3-0.6-0.9
				c-0.1-0.6,0.8-1.7,1.2-2.1c0.2,0.6,0.6,1.3,0.9,1.9C34.7,54.6,33.4,55.3,33.1,55.5z M60.6,44.8c-0.4-0.3-0.7-0.6-0.3-0.9
				c0.4-0.3,0.8-0.5,1.1-0.8c0.4-0.3,0.7-0.6,1.1-0.9c0.4-0.4,0.7,0.3,1.1,0.6C62.6,43.5,61.6,44.2,60.6,44.8
				C60.4,44.6,61.6,44.2,60.6,44.8z M72.5,38.2c-0.7,0.1-1.2-0.2-1.8-0.3c-0.9-0.1-1.6,0.9-2.1,1.4c-0.9,0.8-1.9,1.5-2.9,2.2
				c-0.5,0.3-1,0.7-1.5,1c-0.3-0.3-0.6-0.5-0.9-0.9c0.7-0.6,1.5-1.3,2.2-1.9c0.2,0.3,0.4,0.6,0.6,0.9c0.3,0.3,0.7-0.1,0.4-0.4
				c-0.3-0.4-0.8-0.7-0.4-1.1c0.4-0.3,0.7-0.6,1.1-0.9c0.4-0.3,0.7-0.6,1.1-0.9c0.3-0.2-0.1-0.8-0.4-0.5c-0.8,0.6-1.5,1.3-2.3,1.9
				c-0.1-0.2,0-0.9-0.4-0.8c-0.4,0.1-0.2,0.7-0.1,0.9c0.2,0.6-1.7,1.8-2.2,2.3c-0.1-0.2-0.2-1.1-0.6-1c-0.5,0.1-0.1,0.9,0,1.2
				c0.2,0.5-0.7,0.9-1,1.2c-0.5,0.4-1,0.7-1.5,1.1c-0.1-0.2-0.3-0.8-0.6-0.9c-0.7-0.2-0.2,0.8-0.1,1c0.2,0.4-0.4,0.6-0.7,0.8
				c-0.4-0.2-0.8-0.5-1.1-0.7c-1.3-1.1-2.3-2.7-2.8-4.3c-0.3-1.1-0.9-4.1,0.3-4.9c1.9-1.3,3.8-2.7,5.8-4c0.9-0.6,1.8-1.2,2.8-1.8
				c0.4-0.3,0.8-0.5,1.3-0.8c0.4-0.2,0.1-0.8-0.4-0.5c-1.2,0.8-2.4,1.5-3.6,2.3c-1.2,0.8-2.4,1.6-3.6,2.4c-1,0.7-2.2,1.2-3,2
				c-0.3-0.6-2.8,1.7-3.1,2c-0.6,0.6-0.4,0.8-0.4,1.6c0,1.4,0.2,2.9,0.7,4.2c0.4,1.2,1,2.4,1.8,3.4c0.4,0.5,1.9,2.6,2.6,2.1
				c1.3-1,2.5-2.1,3.9-2.9c0.1,0.3,0.3,0.5,0.5,0.8c-1.7,1.2-3.5,2.3-5.2,3.4c-0.3,0.2-0.6,0.4-0.9,0.5c-0.5-0.5-1.1-0.9-1.6-1.5
				c-0.1-0.2-0.3-0.6-0.6-0.6c-0.6-0.1-0.2,0.6-0.1,0.8c0.5,0.6,1,1.3,1.7,1.7c-1,0.6-1.9,1.1-2.9,1.7c0.1-0.4-0.7-0.7-0.9-1
				c-0.2-0.3-0.5-1.5-0.9-1.4c-0.8,0.4,0.9,2.4,1.5,2.6c-1,0.6-1.9,1.2-2.9,1.8c-0.1-0.4-0.6-0.8-0.8-1.1c-0.2-0.3-0.5-1.4-0.9-1.3
				c-0.8,0.3,0.9,2.4,1.3,2.7c-1.3,0.8-2.6,1.7-3.8,2.5c-0.6,0.4-1.3,0.9-1.9,1.3c-0.6,0-1.3-0.1-1.9-0.4c-2.2-0.9-3.8-3.3-4.5-5.5
				c-0.4-1.4-0.6-2.8-0.4-4.3c0-0.4,0.1-0.7,0.2-1.1c0.1-0.5,0.2-0.3,0.7-0.5c0.2-0.1,0.5-0.3,0.7-0.4c0.9-0.6,1.7-1.2,2.6-1.8
				c6-4.1,11.9-8.2,17.8-12.3c2.4-1.6,4.7-3.3,7.1-4.9c0.7-0.5,1.4-0.9,2.1-1.4c0.5-0.3,0.6-0.9,1.1-1.3c0.4-0.3,0.9-0.4,1.4-0.4
				c0.5,0.1,1.4,0.4,1.7,0.8c-0.9,0.6-1.7,1.3-2.6,1.9c0.2-0.4,0.5-0.8,0.5-1.3c0-0.3-0.2-0.4-0.5-0.4c-0.4,0-0.5,0.3-0.6,0.6
				c-0.8,1.4-0.6,3.4-0.1,5c0.5,2,1.5,3.8,2.7,5.4c0.6,0.8,1.1,1.5,2.1,1.9c0.4,0.1,0.9,0.3,1.2-0.1c0.2-0.3,0.1-0.9-0.3-1
				c0.2,0,0.9-0.7,1.1-0.8c0.6-0.5,1.2-0.9,1.8-1.4c0.3,0.4,0.2,1.6,0.1,2C74.7,37.2,73.8,38,72.5,38.2
				C71.1,38.3,75.8,37.8,72.5,38.2z M57.9,45.1c-0.6,0.2-1.4,0.9-1.9,1.2c-0.3,0.2-0.5,0.6-0.8,0.3c-0.3-0.3-0.6-0.5-0.9-0.8
				c-1-1-1.7-2.2-2.2-3.5c-0.5-1.3-0.8-2.8-0.9-4.2c0-0.3,0-0.6,0-0.9c0-0.5,0.4-0.7,0.8-1c0.6-0.5,1.1-1.1,1.8-1.6
				c0.1,0.8-0.2,1.8-0.1,2.7c0.1,1,0.3,2.1,0.7,3c0.4,1,0.9,1.9,1.5,2.7c0.3,0.4,0.7,0.8,1.1,1.2c0.2,0.2,0.4,0.3,0.6,0.5
				C58,44.9,57.7,44.9,57.9,45.1C57.9,45.1,57.9,45.1,57.9,45.1z M78.3,35.1c-2.3-1.1-3.8-3.5-4.8-5.7c-0.7-1.6-1.2-3.4-1.7-5.1
				c-0.5-1.6-1.1-3.9,0.5-5c-0.3,1.4,0.4,3,0.8,4.3c0.5,1.5,1.1,3,1.9,4.5c0.7,1.4,1.5,2.8,2.4,4.1c0.8,1.3,1.6,2.6,3.1,3.3
				C79.7,35.6,78.9,35.4,78.3,35.1C77.2,34.5,79,35.4,78.3,35.1z M82.4,32.5c0,0.6-0.4,1.3-0.7,1.8c-0.3,0.4-1.7-0.7-1.9-0.9
				c-1.4-1.4-2.4-3.5-3.3-5.2c-1-1.9-1.8-3.8-2.4-5.8c-0.2-0.8-0.4-1.5-0.4-2.3c0-0.4,0-0.7,0-1.1c0-0.4,0.2-0.4,0.6-0.4
				c2.7,0.1,4.5,3.2,5.6,5.3C81.2,26.4,82.6,29.5,82.4,32.5C82.4,33.2,82.7,28.4,82.4,32.5z"/>
			<path d="M17,72.3c-0.6,0.2-0.4,0.8-0.3,1.2c0.1,0.5-0.1,0.9-0.3,1.4c-0.4,1.1-0.7,2.2-0.7,3.3c-0.1,2.1,0.8,4.1,3.1,3.6
				c1.6-0.5,1.3-2.8,0.9-4.1c-0.3-1-0.8-2-1.2-2.9C18.2,74.3,17.8,72.1,17,72.3C16.7,72.4,17.3,72.2,17,72.3z M18.7,80.5
				c-0.9,0.2-1.4,0.2-1.7-0.7c-0.4-1.4-0.1-3,0.4-4.3c0.4,0.9,0.8,1.8,1,2.7C18.6,78.6,19.2,80.1,18.7,80.5z"/>
			<path d="M22.4,71.6c0-0.4,0.2-1.1-0.1-1.5c-0.3-0.3-0.7-0.1-1-0.3c-0.4-0.2-0.9,0.2-0.8,0.6c0,0.5,0.4,1.1,0.6,1.5
				c0.4,0.7,0.2,1.9,0.4,2.8c0.1,0.8,0.4,1.7,1,2.3c0.7,0.7,2.2,1,2.6-0.2C25.8,74.5,23.8,73.1,22.4,71.6
				C22.4,71.3,23.1,72.3,22.4,71.6z M23,75.7c-0.1-0.7-0.3-1.4-0.4-2.1c0.5,0.5,1.6,1.5,1.4,2.3c0,0.1-0.1,0.5-0.2,0.5
				C23.4,76.4,23.1,76.2,23,75.7C22.9,75,23.1,76.2,23,75.7z"/>
			<path d="M18.4,66.5c-0.8,0.2-0.6,1.5,0.2,1.3C19.4,67.7,19.2,66.4,18.4,66.5z"/>
			<path d="M17.7,68.5c-0.8,0.2-0.6,1.5,0.2,1.3C18.7,69.6,18.5,68.3,17.7,68.5C17.4,68.5,18,68.4,17.7,68.5z"/>
			<path d="M42.5,53.5c-0.1-0.1-0.3-0.2-0.4,0c-0.2,0.2,0,0.5,0.2,0.7c0.3,0.4,0.7,0.8,1.2,1.1c0.2,0.1,0.3,0.1,0.4-0.1
				c0.2-0.3-0.1-0.5-0.3-0.6C43.1,54.2,42.8,53.9,42.5,53.5C42.4,53.3,42.8,54,42.5,53.5z"/>
			<path d="M48.5,38.5c-2.4,1.4-4.6,3-6.8,4.6c-1.1,0.8-2.3,1.6-3.5,2.4c-0.5,0.3-0.9,0.7-1.4,0.9c-0.4,0.2-0.7,0.3-0.9,0.7
				c-1.3,2.3-0.4,5,1.1,6.9c0.7,0.8,1.5,1.6,2.6,1.9c0.5,0.2,1,0.2,1.6,0.1c0.3-0.1,0.3-0.4,0.1-0.6c-0.2-0.2-0.7,0-1-0.1
				c-2.2-0.3-3.6-2.6-4.2-4.6c-0.4-1.2-0.2-3.1,0.9-3.9c2.3-1.6,4.5-3.2,6.8-4.7c1.1-0.8,2.3-1.5,3.5-2.3c0.4-0.2,0.7-0.4,1.1-0.6
				c0.1-0.1,0.2-0.1,0.4-0.2C49,38.9,48.9,38.3,48.5,38.5C44.4,40.8,48.6,38.4,48.5,38.5z"/>
		</g>
		<path fill="#FFFFFF" d="M41,47c1.6-1.1,3.2-2.1,4.8-3.1c0.7-0.5,1.5-1,2.2-1.4c0.4-0.3,0.9-0.5,1.3-0.8c0.4-0.2,0.1-0.8-0.3-0.6
			c-1.6,1-3.2,2-4.8,3.1c-0.7,0.5-1.5,1-2.2,1.5c-0.4,0.3-0.9,0.6-1.3,0.8C40.3,46.7,40.6,47.3,41,47z"/>
		<path fill="#FFFFFF" d="M52,38.7c0.1,0.4,0.7,0.3,0.6-0.1C52.5,38.2,52,38.3,52,38.7z"/>
		<path fill="#FFFFFF" d="M53.6,38.3c1.6-1.5,3.3-2.8,5-4c0.9-0.6,1.8-1.2,2.6-1.8c0.4-0.3,0.8-0.5,1.2-0.8c0.2-0.1,0.3-0.2,0.4-0.4
			c0.1-0.2-0.2-0.5-0.4-0.4c-1.8,1.2-3.6,2.4-5.3,3.7c-0.9,0.6-1.7,1.3-2.6,2c-0.4,0.3-0.7,0.6-1.1,1c-0.2,0.1-0.3,0.3-0.4,0.5
			C53.1,38.3,53.4,38.5,53.6,38.3z"/>
		<path fill="#FFFFFF" d="M81,31.6c-0.6-0.7-1-1.4-1.4-2.2c-0.1-0.2-1.6-2.1-1.5-1c0,0.3,0.6,0.8,0.7,1c0.3,0.4,0.5,0.7,0.8,1.1
			c0.2,0.4,0.5,0.8,0.7,1.1c0.1,0.2,0.2,0.3,0.4,0.4C81.1,32.2,81.2,31.8,81,31.6z"/>
		<path fill="#FFFFFF" d="M77.2,26.7c0.1,0.4,0.7,0.3,0.6-0.1C77.7,26.2,77.1,26.3,77.2,26.7z"/>
	</g>
</g>
</svg>
