<?xml version="1.0" encoding="utf-8"?>
<!-- Generator: Adobe Illustrator 17.1.0, SVG Export Plug-In . SVG Version: 6.00 Build 0)  -->
<!DOCTYPE svg PUBLIC "-//W3C//DTD SVG 1.1//EN" "http://www.w3.org/Graphics/SVG/1.1/DTD/svg11.dtd">
<svg version="1.1" id="Ebene_1" xmlns="http://www.w3.org/2000/svg" xmlns:xlink="http://www.w3.org/1999/xlink" x="0px" y="0px"
	 width="100px" height="100px" viewBox="0 0 100 100" enable-background="new 0 0 100 100" xml:space="preserve">
<circle fill="#B2B2B2" cx="50" cy="50" r="50"/>
<g>
	<g>
		<path fill="#CFDBE1" d="M78.2,27.5c-0.4-0.2-1.4,1.2-1.7,1.4c-0.7,0.6-1.5,1.1-2.3,1.6c-1.9,1.1-4,1.8-6.1,2.4
			c-5.4,1.6-11.1,2.1-16.7,2c-5.5-0.1-11.1-0.7-16.3-2.4c-2-0.6-4-1.4-5.7-2.6c-0.7-0.4-1.3-0.9-1.9-1.5c-0.2-0.2-1.5-1.8-1.4-0.6
			c0.8,8.2,1.6,16.4,2.4,24.7c1.1,11.4,2.2,22.7,3.3,34.1c0.1,1.1,0.2,2.1,0.3,3.2c0,0.4,0.3,0.6,0.7,0.8c1.3,0.6,2.6,1.1,3.9,1.6
			c10,3.7,21.5,4.9,31.5,0.5c1.2-0.5,2.3-1.1,3.4-1.8c0.3-0.2,1-0.4,1-0.9c0-0.3,0.1-0.6,0.1-0.8c0.1-1.4,0.3-2.8,0.4-4.3
			c0.5-5.3,1-10.6,1.5-15.9c1.1-11.9,2.3-23.8,3.4-35.7c0.1-1.4,0.3-2.7,0.4-4.1C78.3,29,78.6,27.7,78.2,27.5
			C78.1,27.4,78.3,27.6,78.2,27.5z"/>
		<g>
			<path fill="#F4F4F4" d="M26.6,27.6C26.1,27,26,28,26.1,28.3c0,0.4,0.1,0.9,0.1,1.3c0.2,1.7,0.3,3.4,0.5,5.1
				c0.5,5.6,1.1,11.2,1.6,16.8c1.1,11.5,2.2,23.1,3.3,34.6c0.1,1.2,0.2,2.4,0.3,3.6c0,0.2,0,0.5,0.1,0.7c0.3,0.5,1.5,0.7,1.9,0.9
				c1.3,0.6,2.6,1.1,4,1.5c-0.7-8.2-1.5-16.4-2.2-24.5c-1-11.2-2-22.4-3-33.7c-0.1-0.9-0.2-1.7-0.2-2.6c0-0.5-0.1-0.3-0.7-0.6
				C29.9,30.4,27.9,29.3,26.6,27.6C26.5,27.5,27.8,29.1,26.6,27.6z"/>
			<path fill="#FDFDFB" d="M32.4,31.6c0.7,8.2,1.5,16.4,2.2,24.5c1,11.2,2,22.4,3,33.7c0.1,0.8,0.1,1.5,0.2,2.3c0,0.2,0,0.4,0,0.5
				c0,0.4,1.5,0.6,1.9,0.7c-0.6-8.2-1.2-16.5-1.9-24.7c-0.8-11.1-1.7-22.3-2.5-33.4c-0.1-0.7-0.1-1.4-0.2-2.1c0-0.2,0-0.3,0-0.5
				C35.2,32.4,32.8,31.8,32.4,31.6z"/>
			<path fill="#B1B1B2" d="M78.2,27.5c-0.4-0.2-1,0.8-1.2,1c-0.4,0.4-0.9,0.8-1.4,1.1c-1.2,0.9-2.6,1.5-4,2.1
				c-3.5,1.4-7.2,2.2-10.8,2.7c-8.4,1.1-17.4,0.8-25.5-1.8c0.6,8.2,1.2,16.5,1.9,24.7c0.8,11.1,1.7,22.3,2.5,33.4
				c0.1,0.9,0.1,1.7,0.2,2.6c0,0.2,1.2,0.4,1.4,0.4c1.3,0.4,2.7,0.7,4.1,0.9c3,0.6,6,0.9,9,0.8c5.6,0,11.1-1.3,16-3.9
				c0.7-0.4,2-0.8,2.1-1.7c0-0.4,0.1-0.8,0.1-1.1c1-10.4,2-20.7,3-31.1c0.9-9.7,1.9-19.4,2.8-29.2C78.4,28.3,78.5,27.7,78.2,27.5
				C78.1,27.4,78.3,27.6,78.2,27.5z"/>
			<path fill="#EBF0F3" d="M52.2,14.5c-5.5,0-11.1,0.6-16.4,2.2c-3.3,1-7.3,2.5-9.3,5.5c-1.6,2.4-0.5,4.9,1.5,6.6
				c3.2,2.7,7.7,4,11.8,4.8c5.7,1.2,11.7,1.4,17.5,1c5.1-0.4,10.3-1.3,14.9-3.3c2.5-1.1,6.2-3,6.4-6.1c0.3-3-2.5-5.1-4.8-6.3
				C67.4,15.3,59.4,14.5,52.2,14.5z"/>
		</g>
		<g>
			<path fill="#E8F5FA" d="M53.6,46.4c-1.3,0-3-0.3-3,1.5c0,0.3,0,0.6,0,0.9c0,1.9,0,3.8,0.1,5.6c0.1,6.2,0.1,12.5,0.2,18.7
				c0,4.8,0.1,9.6,0.1,14.5c0,0.3,0,0.6,0,0.9c0,1.2,2.7,1.4,3.2,0.5c0.4-0.8,0.1-2.3,0.2-3.2c0.1-11.4,0.2-22.8,0.4-34.2
				C54.7,50.8,55.3,46.4,53.6,46.4z"/>
			<path fill="#E8F5FA" d="M63,45.7c-1.4,0.3-3.1,0.4-3.1,2.3c0,0.3,0,0.6,0,0.8c-0.1,1.8-0.1,3.6-0.2,5.5
				c-0.2,6.2-0.4,12.4-0.6,18.6c-0.2,4.9-0.3,9.8-0.5,14.7c0,0.4,0,0.7,0,1.1c0,1.2,2.2,0.8,2.8,0.3c0.8-0.6,0.6-2.5,0.6-3.4
				c0.6-11.4,1.2-22.8,1.8-34.2c0.1-1.2,0.1-2.3,0.2-3.5C64,47.1,64.2,45.4,63,45.7z"/>
			<path fill="#E8F5FA" d="M72.4,43.6c-0.4-0.5-1.4-0.1-1.9,0c-0.8,0.2-1.5,0.4-1.9,1.2c-0.2,0.5-0.2,0.9-0.3,1.4
				c-0.1,1.7-0.2,3.3-0.4,5c-0.4,6.1-0.9,12.2-1.3,18.2c-0.4,5.2-0.7,10.5-1.1,15.7c0,0.5-0.1,1.1-0.1,1.6c-0.1,0.8,0.4,1.2,1.2,1
				c1-0.2,2.1-0.3,2.2-1.6c0-0.5,0.1-0.9,0.1-1.4c1-11.2,2-22.4,3.1-33.7c0.2-1.7,0.3-3.3,0.5-5C72.5,45.6,72.9,44.2,72.4,43.6
				C72.2,43.4,72.6,43.9,72.4,43.6z"/>
			<path fill="#E8F5FA" d="M43.9,46.1c-1.1-0.3-3.1-1.1-3,0.8c0,0.3,0,0.6,0,0.9c0.1,1.9,0.2,3.7,0.3,5.6c0.3,6.2,0.7,12.4,1,18.7
				c0.3,4.9,0.5,9.8,0.8,14.7c0,0.4,0,0.7,0.1,1.1c0.1,1.2,1.7,1.5,2.7,1.5c1.1,0,0.6-2.5,0.6-3.2c-0.4-11.4-0.8-22.8-1.1-34.2
				C45.2,50.9,45.7,46.6,43.9,46.1z"/>
			<path fill="#E8F5FA" d="M35.3,43.9c-1.1-0.3-3.1-1.1-3,0.8c0,0.3,0.1,0.6,0.1,0.9c0.2,1.8,0.3,3.6,0.5,5.4
				c0.6,6.1,1.1,12.3,1.7,18.4c0.5,5.1,0.9,10.3,1.4,15.4c0.1,1.4,0,2.7,1.8,3.1c0.8,0.2,1.9,0.4,1.8-0.8c0-0.5-0.1-1-0.1-1.5
				c-0.8-11.3-1.6-22.5-2.4-33.8c-0.1-1.6-0.2-3.1-0.3-4.7C36.6,45.9,36.7,44.2,35.3,43.9z"/>
		</g>
		<g>
			<path fill="#D8D8D9" d="M53.6,46.4c-1.3,0-3-0.3-3,1.5c0,0.3,0,0.6,0,0.9c0,1.9,0,3.8,0.1,5.6c0.1,6.2,0.1,12.5,0.2,18.7
				c0,4.8,0.1,9.6,0.1,14.5c0,0.3,0,0.6,0,0.9c0,1.2,2.7,1.4,3.2,0.5c0.4-0.8,0.1-2.3,0.2-3.2c0.1-11.4,0.2-22.8,0.4-34.2
				C54.7,50.8,55.3,46.4,53.6,46.4z"/>
			<path fill="#E8F5FA" d="M61.1,46.1c-1.5,0.4-1.2,2.7-1.3,3.8c-0.1,2.2-0.1,4.4-0.2,6.7c-0.2,6.4-0.4,12.8-0.6,19.1
				c-0.1,4.2-0.3,8.4-0.4,12.7c0,0.1,0,0.2,0,0.3c0,0.5,0.8,0.9,0.8,0.8c0-0.3,0-0.6,0-0.9c0.1-1.8,0.1-3.6,0.2-5.4
				c0.5-11.5,0.9-23,1.4-34.5C61,48,61.3,46.7,61.1,46.1z"/>
			<path fill="#D8D8D9" d="M63.7,45.9c-0.3-0.4-2.6-0.1-2.7,0.3c0,0.4,0,0.7,0,1.1c-0.1,1.9-0.2,3.8-0.2,5.7
				c-0.3,6.2-0.5,12.4-0.8,18.6c-0.2,6-0.5,11.9-0.7,17.9c1-0.2,2.4-0.2,2.5-1.5c0-0.4,0-0.8,0.1-1.2c0.1-2,0.2-3.9,0.3-5.9
				c0.3-6.3,0.7-12.6,1-18.8c0.2-3.6,0.4-7.2,0.6-10.8c0.1-1.1,0.1-2.2,0.2-3.3C64,47.3,64.2,46.4,63.7,45.9
				C63.6,45.7,63.9,46.1,63.7,45.9z"/>
			<path fill="#E8F5FA" d="M69.7,43.9c-1.5,0.4-1.4,2.6-1.4,3.8c-0.2,2.2-0.3,4.4-0.5,6.5c-0.5,6.3-0.9,12.7-1.4,19
				c-0.3,4.5-0.6,8.9-1,13.4c0,0.4-0.2,1.1,0.3,1.3c0.6,0.3,0.6-0.1,0.6-0.5c0.1-1.6,0.2-3.1,0.4-4.7c0.9-11.7,1.9-23.3,2.8-35
				c0.1-1.3,0.2-2.7,0.3-4C69.8,43.8,69.7,43.8,69.7,43.9z"/>
			<path fill="#D8D8D9" d="M72.4,43.6c-0.3-0.4-2.5-0.2-2.5,0.2c0,0.4-0.1,0.8-0.1,1.1c-0.1,1.9-0.3,3.8-0.4,5.6
				c-0.5,6.2-1,12.3-1.5,18.5c-0.5,6.3-1,12.5-1.5,18.8c1-0.2,2.4-0.2,2.5-1.5c0-0.4,0.1-0.8,0.1-1.2c0.2-2,0.4-3.9,0.5-5.9
				c0.6-6.2,1.1-12.5,1.7-18.7c0.3-3.8,0.7-7.6,1-11.4c0.1-1.2,0.2-2.3,0.3-3.5C72.6,45.2,72.8,44.2,72.4,43.6
				C72.2,43.4,72.6,43.9,72.4,43.6z"/>
			<path fill="#D8D8D9" d="M42,45.7c-1.5-0.4-1,2.7-0.9,3.4c0.1,2.3,0.2,4.5,0.4,6.8c0.3,6.4,0.7,12.8,1,19.1
				c0.2,3.4,0.4,6.8,0.5,10.1c0,0.8,0.1,1.7,0.1,2.5c0.1,1.3,1.1,1.5,2.2,1.8c-0.4-9.6-0.8-19.3-1.2-28.9c-0.2-3.6-0.3-7.3-0.5-10.9
				c0-1-0.1-1.9-0.1-2.9c0-0.2,0-0.4,0-0.6C43.5,45.9,42.2,45.7,42,45.7z"/>
			<path fill="#E8F5FA" d="M45.1,47.9c0-1-0.7-1.7-1.6-1.9c0.4,9.6,0.8,19.3,1.2,28.9c0.2,4.5,0.4,9.1,0.6,13.6c0,0.3,0,0.5,0,0.8
				c0,0.2,1.2-0.1,1.2-0.7c0-0.1,0-0.2,0-0.3c0-1.5-0.1-3-0.1-4.5c-0.4-11.3-0.7-22.7-1.1-34C45.2,49.3,45.2,48.6,45.1,47.9z"/>
			<path fill="#D8D8D9" d="M33.4,43.4c-1.5-0.3-0.9,2.6-0.8,3.4c0.2,2.2,0.4,4.4,0.6,6.6c0.6,6.3,1.2,12.7,1.7,19
				c0.3,3.7,0.7,7.4,1,11.1c0.1,0.9,0.2,1.8,0.2,2.7c0.1,1.4,1.4,1.7,2.6,1.8c-0.8-9.6-1.6-19.1-2.4-28.7c-0.3-3.9-0.6-7.8-1-11.7
				c-0.1-1.1-0.2-2.1-0.3-3.2c0-0.2,0-0.4,0-0.6C35.1,43.7,33.6,43.4,33.4,43.4z"/>
			<path fill="#E8F5FA" d="M36.6,45.7c-0.1-0.8-0.6-1.8-1.5-1.9c0.8,9.6,1.6,19.1,2.4,28.7c0.4,4.8,0.8,9.5,1.2,14.3
				c0,0.4,0.1,0.8,0.1,1.1c0,0.4,0.7-0.2,0.8-0.4c0-0.2,0-0.3,0-0.5c-0.1-1.4-0.2-2.7-0.3-4.1c-0.8-11.4-1.6-22.9-2.4-34.3
				C36.8,47.7,36.7,46.7,36.6,45.7z"/>
		</g>
		<path fill="#D3D3D4" d="M52.5,16.2c5.5,0,11.1,0.5,16.4,2.1c2.6,0.8,7,2.2,7.9,5.2c0.9,2.8-2.5,4.8-4.6,5.7
			c-4.5,2-9.6,2.8-14.5,3.1c-5.9,0.4-11.8,0.2-17.6-1c-3.6-0.7-8.1-1.7-10.8-4.5c-2-2.1-1.1-4.4,1-5.9c3.5-2.5,8.1-3.4,12.3-4
			C45.8,16.4,49.1,16.2,52.5,16.2z"/>
		<path d="M52.4,33.1c5.4,0,11-0.5,16.2-2.1c2.8-0.9,6.9-2.3,8.1-5.2c1.1-2.7-1.5-4.9-3.6-6c-4.1-2.2-8.9-3.1-13.5-3.5
			c-5.8-0.6-11.8-0.5-17.6,0.4c-4,0.6-8.6,1.6-11.9,4.2c-2.1,1.6-3.1,4-1.2,6.2c2.4,2.8,6.7,4,10.1,4.7
			C43.3,32.7,47.9,33.1,52.4,33.1z M52.4,16.7c5.3,0,10.7,0.5,15.9,2c2.6,0.8,6.3,2,7.6,4.5c1.2,2.2-1.1,4-2.8,4.9
			c-3.7,2.1-8.1,3-12.2,3.5c-5.8,0.7-11.8,0.7-17.6-0.1c-4-0.6-8.4-1.4-11.9-3.6c-1.7-1-3.7-2.9-2.4-5c1.6-2.6,5.3-3.7,8-4.5
			C42,17.2,47.3,16.7,52.4,16.7z"/>
		<path d="M52.4,13.8c-5.5,0-11,0.6-16.3,2.1c-3.4,1-7.3,2.5-9.6,5.4c-1.7,2.3-1,5.1-0.8,7.7c1.1,11.3,2.2,22.7,3.3,34
			c0.9,9,1.7,18,2.6,27c0.1,1,1.9,1.4,2.7,1.8c4.1,1.7,8.4,2.9,12.8,3.6c5.5,0.9,11.3,0.8,16.7-0.7c2.8-0.8,5.6-1.9,8.1-3.5
			c0.6-0.4,1.1-0.6,1.2-1.2c0.9-9.1,1.7-18.1,2.6-27.2c1.1-11.3,2.2-22.6,3.2-33.9c0.2-2.6,1-5.4-0.8-7.6c-2.2-2.9-6.2-4.4-9.6-5.4
			C63.4,14.4,57.9,13.8,52.4,13.8z M52.4,14.7c5.6,0,11.3,0.6,16.6,2.3c3.2,1,7.4,2.5,9.1,5.6c1.5,2.6-0.5,5.1-2.6,6.5
			c-3.7,2.5-8.4,3.7-12.8,4.4c-5.9,1-11.9,1.1-17.8,0.4c-4.8-0.6-9.8-1.6-14-3.9c-2.2-1.2-5.3-3.4-4.6-6.3c0.8-3.2,4.7-4.9,7.4-5.9
			C39.6,15.4,46.1,14.7,52.4,14.7z M72.4,90c-8.4,5.4-18.7,6-28.3,3.9c-3.2-0.7-6.4-1.7-9.4-3c-0.8-0.3-2.2-0.5-2.3-1.5
			c-0.9-9.9-1.9-19.8-2.8-29.6c-0.9-9-1.7-17.9-2.6-26.9c0,0,0,0,0,0c2.4,2.7,6.2,4,9.5,5c5,1.4,10.3,2,15.5,2
			c5.3,0,10.6-0.5,15.7-1.9c3.5-1,7.5-2.4,10.1-5.1c-0.8,8.5-1.6,17-2.4,25.5c-1,10.3-2,20.5-2.9,30.8C72.4,89.4,72.4,89.7,72.4,90z
			 M78,31.5c-0.6,0.3-1.1,1.2-1.6,1.6c-0.7,0.6-1.6,1.1-2.4,1.6c-2,1.1-4.2,1.9-6.5,2.5c-5.6,1.5-11.5,2-17.3,1.9
			c-5.4-0.2-10.9-0.9-16-2.7c-1.9-0.7-3.7-1.5-5.3-2.7c-0.6-0.5-1.2-1-1.6-1.5c-0.4-0.5-0.4-0.7-0.5-1.4c-0.1-1-0.2-2.1-0.3-3.1
			c2.2,3,6.1,4.5,9.5,5.5c5.3,1.6,10.9,2.1,16.4,2.1c5.5,0,11.1-0.6,16.4-2.1c3.4-1,7.4-2.5,9.5-5.5C78.2,28.8,78.1,30.2,78,31.5z"
			/>
		<path d="M53.5,46c-1.6,0-3.5-0.1-3.5,2.1c0,0.3,0,0.5,0,0.8c0,1.8,0,3.6,0,5.4c0.1,6.2,0.1,12.4,0.2,18.6c0,4.9,0.1,9.9,0.1,14.8
			c0,0.4,0,0.7,0,1.1c0,1.7,1.6,1.6,2.8,1.6c1.8,0,1.5-2.1,1.5-3.3c0.1-11.3,0.2-22.6,0.4-33.9c0-1.3,0-2.7,0-4
			C55.1,47.9,55.2,46,53.5,46z M53.9,88.8c0,1-2.8,1-2.8,0c0-0.4,0-0.7,0-1.1c0-1.9,0-3.9-0.1-5.8C51,75.7,51,69.4,50.9,63.1
			c0-4.7-0.1-9.5-0.1-14.2c0-0.3,0-0.6,0-0.8c0-0.8,0.4-1.2,1.2-1.2c0.5,0,1.5-0.2,2,0.1c0.8,0.6,0.4,2.6,0.4,3.4
			c-0.1,11.4-0.2,22.8-0.4,34.2C53.9,86,53.9,87.4,53.9,88.8z"/>
		<path d="M62.8,45.2c-1.6,0.4-3.2,0.6-3.5,2.5c0,0.3,0,0.7-0.1,1c-0.1,1.8-0.1,3.5-0.2,5.3c-0.2,6.2-0.4,12.4-0.6,18.5
			c-0.2,5-0.3,10-0.5,15c0,0.4,0,0.8,0,1.2c-0.1,1.8,1.6,1.4,2.7,1.1c1.8-0.3,1.6-2,1.7-3.4c0.6-11.3,1.2-22.6,1.8-33.9
			c0.1-1.5,0.2-2.9,0.2-4.4C64.4,47.1,64.6,44.8,62.8,45.2z M61.5,88.1c-0.1,1-2.8,1.6-2.8,0.7c0-0.3,0-0.7,0-1
			c0.1-1.9,0.1-3.8,0.2-5.7c0.2-6.3,0.4-12.5,0.6-18.8c0.2-4.8,0.3-9.6,0.5-14.3c0-0.3,0-0.6,0-0.9c0-1.4,1.8-2,3.1-2
			c0.9,0,0.5,2.8,0.4,3.3c-0.6,11.4-1.2,22.8-1.8,34.2C61.6,85.1,61.5,86.6,61.5,88.1z"/>
		<path d="M72.6,43.4c-0.7-0.9-3.3-0.2-4.1,0.6c-0.6,0.6-0.8,1.4-0.9,2.3c-0.1,1.5-0.2,3.1-0.3,4.6c-0.4,6-0.9,12-1.3,18
			C65.7,74.2,65.3,79.6,65,85c-0.1,0.9-0.5,2.8,0.3,3.5c0.6,0.4,1.5,0.1,2.1,0c0.9-0.2,1.8-0.7,1.9-1.8c0-0.2,0-0.5,0.1-0.7
			c1-10.9,2-21.8,3-32.7c0.2-2.1,0.4-4.2,0.6-6.3C72.9,46,73.3,44.2,72.6,43.4C72.3,43,72.9,43.8,72.6,43.4z M72.2,44.7
			c-0.9,9.7-1.8,19.4-2.6,29.1c-0.4,4.2-0.8,8.3-1.1,12.5c-0.1,0.7-0.5,1.2-1.2,1.3c-0.6,0.1-1.7,0.5-1.6-0.4
			c0.1-1.4,0.2-2.8,0.3-4.2c0.8-11.4,1.6-22.9,2.4-34.3c0.1-0.9,0.1-1.8,0.2-2.7c0.1-0.7,0.4-1.6,1.2-1.8
			C70.5,44.1,72.4,43.2,72.2,44.7z"/>
		<path d="M43.9,45.7c-0.6-0.1-1.1-0.3-1.7-0.4c-1.2-0.3-1.9,0.6-1.8,1.8c0,0.3,0,0.5,0,0.8c0.1,1.8,0.2,3.6,0.3,5.3
			c0.3,6.2,0.7,12.4,1,18.5c0.3,5,0.5,10.1,0.8,15.1c0,0.4,0,0.9,0.1,1.3c0.1,1.4,1.2,1.7,2.4,2c2.2,0.4,2-1.3,1.9-2.8
			c-0.4-11.3-0.7-22.5-1.1-33.8c0-1.4-0.1-2.9-0.1-4.3C45.5,47.9,45.5,46.1,43.9,45.7z M46,89.2c-0.3,0.3-1.4-0.1-1.7-0.1
			c-0.5-0.1-1-0.4-1-0.9c0-0.4,0-0.7-0.1-1.1c-0.1-1.9-0.2-3.8-0.3-5.8c-0.3-6.3-0.7-12.5-1-18.8c-0.3-4.8-0.5-9.7-0.8-14.5
			c0-0.3,0-0.7-0.1-1c-0.1-1.5,1.8-0.8,2.6-0.5c1.3,0.3,1,2.7,1.1,3.7C45.2,61.6,45.6,73,46,84.4c0,1.1,0.1,2.2,0.1,3.3
			C46.1,88,46.3,88.9,46,89.2C45.9,89.2,46.1,89.1,46,89.2z"/>
		<path d="M35.3,43.4c-1.3-0.3-3.5-1.2-3.6,1.1c0,0.3,0,0.7,0.1,1c0.2,1.7,0.3,3.4,0.5,5.1c0.6,6.1,1.1,12.2,1.7,18.3
			c0.5,5.2,1,10.5,1.4,15.7c0.1,1.2,0,3.1,1.4,3.6c1.1,0.4,3.3,0.8,3.2-1c0-0.3,0-0.6-0.1-0.9c-0.8-11-1.6-22-2.4-33.1
			c-0.1-2-0.3-3.9-0.4-5.9C37,46,37.1,43.9,35.3,43.4z M39.1,87.7c-0.3,0.4-1.5-0.1-1.9-0.2c-0.5-0.1-0.9-0.5-0.9-1
			c0-0.4-0.1-0.7-0.1-1.1c-0.2-1.9-0.3-3.8-0.5-5.7c-0.6-6.2-1.1-12.4-1.7-18.6c-0.5-5-0.9-10-1.4-15c0-0.4-0.1-0.9-0.1-1.3
			c-0.1-1.4,0.9-1,1.8-0.8c1.1,0.3,1.8,0.7,1.9,1.9c0,0.5,0.1,0.9,0.1,1.4c0.8,11.2,1.6,22.5,2.4,33.7c0.1,1.5,0.2,3.1,0.3,4.6
			C39.1,86.1,39.4,87.3,39.1,87.7C39,87.8,39.2,87.6,39.1,87.7z"/>
	</g>
	<g>
		<g>
			<path fill="#C9CACA" d="M69.3,12.6c-1.4-0.8-2.9-1.5-4.4-2.2c-0.5-0.2-0.8,1.1-0.7,1.4c0.2,0.4,1.2,0.8,1.6,1
				c0-0.1,0.1-0.2,0.2-0.3c-0.4,0.5,0.9,1.1,1.2,1.3c0.9,0.7,1.9,1.5,2.3,2.5c0.3,0.8,0,2.3-0.5,3c-0.8,1.4-3.3,1.3-4.6,1.3
				c-2.9-0.1-5.8-0.7-8.6-1.5c-2.9-0.8-5.8-1.9-8.5-3.2c-2.1-1.1-4.8-2.4-6.1-4.5c-0.6-1-0.4-2.6,0.2-3.5c0.9-1.4,3.5-1.3,4.9-1.3
				c0.7,0,1.4,0.1,2,0.2c0.5,0.1,1,0.3,1.2-0.4c0.1-0.3,0.2-0.7,0-0.9c-0.4-0.3-1.3-0.3-1.8-0.3c-1.1-0.2-2.2-0.3-3.3-0.4
				c-4.1-0.5-9.2-0.6-12.9,1.5c-7.6,4.4,3.3,12.6,7.1,14.9c4.8,2.9,10,5.1,15.4,6.8c5.7,1.7,11.9,3,17.9,2.7
				c3.3-0.2,9.4-0.9,9.8-5.2c0.3-3.8-3.7-7.1-6.3-9.1C73.3,14.9,71.3,13.7,69.3,12.6z"/>
			<path fill="#EBF0F3" d="M64,15.8c-1.2-0.4-3.2-0.6-3.3-2.1c-0.1-0.6,0.5-1.3,0.3-1.9c-0.1-0.3-0.6-0.4-0.8-0.5
				c-2.6-0.8-5.2-1.7-7.7-2.5c-1.1-0.4-0.9,1.8-1.8,2.3c-0.6,0.3-1.3,0-2-0.2c-0.6-0.2-1.5-0.3-1.9-0.8c-0.4-0.4-0.6-1.1-0.4-1.7
				c0.1-0.4,0.7-0.9,0.6-1.3c-0.2-0.7-3.1-0.2-3.7-0.1c-1.2,0.2-2.5,1-1.8,2.3c1.1,2.1,3.9,3.5,5.9,4.5c3.8,1.9,7.9,3.3,12,4.1
				c2,0.4,4.1,0.7,6.2,0.7c1.1,0,3-0.1,3.6-1.2c0.7-1.2-1.1-2.7-1.9-3.3c-0.2-0.2-0.7-0.7-1.1-0.7c-0.5,0-0.3,0.9-0.4,1.2
				C65.6,15.5,64.9,16.1,64,15.8z"/>
			<path fill="#CFDBE1" d="M68.4,18.5c-2.3,1-5.3,0.5-7.6,0.1c-3.1-0.5-6.1-1.4-9-2.5c-2.5-0.9-5-2.1-7.2-3.5
				c-0.8-0.5-1.6-1.1-2.2-1.8C42,10.5,41,9,40.9,10.2c-0.2,2,3.1,3.7,4.4,4.5c2.5,1.5,5.2,2.6,7.9,3.5c2.8,0.9,5.7,1.7,8.7,2.1
				c1.9,0.2,4.8,0.6,6.5-0.5C68.6,19.5,69.2,18.1,68.4,18.5C67.6,18.9,68.5,18.4,68.4,18.5z"/>
			<path fill="#E3E3E4" d="M49.1,7.9c-0.6-0.2-1.3-0.6-1.9-0.2c-0.9,0.6-0.8,2.2,0.3,2.6c1.1,0.4,3.3,1.6,3.8-0.2
				c0.2-0.5,0.3-1.1,0.4-1.6c0.1-0.2,0.5,0,0.6,0c1.3,0.4,2.5,0.8,3.8,1.2c1.4,0.5,2.8,0.9,4.2,1.4c0.3,0.1,0.6,0.2,0.9,0.3
				c0.3,0.1-0.1,1-0.1,1.2c-0.2,0.8-0.3,1.7,0.5,2.2c0.6,0.3,1.3,0.4,1.9,0.6c0.7,0.2,1.4,0.4,1.9-0.3c0.7-1,0.1-2-0.9-2.3
				c-0.3-0.1-0.8-0.1-0.7-0.5c0.1-0.5,0.2-0.9,0.3-1.4C64.3,10,63.9,9.3,63,9c-1.8-0.6-3.5-1.1-5.3-1.7c-1.9-0.6-3.9-1.2-5.8-1.9
				c-0.5-0.2-1-0.4-1.5-0.2c-0.6,0.2-0.8,0.8-0.9,1.3C49.5,6.7,49.3,7.9,49.1,7.9z"/>
			<path fill="#959EA3" d="M80.6,28.4c-0.3-0.2-2,1.1-2.4,1.3c-1.2,0.5-2.4,0.8-3.7,1c-2.9,0.5-5.8,0.4-8.7,0.1
				c-6.1-0.6-12.2-2.3-17.9-4.5c-4.8-1.9-9.6-4.3-13.7-7.6c-1.5-1.2-2.9-2.6-4-4.2c-0.4-0.6-0.8-1.3-1.1-2c-0.1-0.2-0.3-1-0.7-0.6
				c-0.2,0.2-0.2,0.5-0.3,0.7c-0.4,1.4-0.8,2.8-0.4,4.2c0.6,2.3,2.4,4.2,4.1,5.8c4.1,3.8,9.3,6.4,14.4,8.5c5.7,2.3,11.8,4,18,4.7
				c2.8,0.3,5.8,0.4,8.6,0c2.1-0.3,4.4-0.8,6-2.2c0.8-0.7,1.2-1.5,1.5-2.4C80.3,30.7,81.1,28.8,80.6,28.4
				C80.5,28.3,80.7,28.5,80.6,28.4z"/>
		</g>
		<path d="M64.5,9.7c-0.3-0.2-0.5-0.8-1-1c-0.1-0.1-0.2-0.1-0.3-0.1c-0.3-0.1-0.7-0.2-1-0.3c-1.3-0.4-2.7-0.9-4-1.3
			c-2.3-0.7-4.6-1.5-7-2.2c-0.3-0.1-0.5-0.1-0.8-0.1c-0.3,0.1-0.6,0.2-0.8,0.4c-0.2-0.1-0.6-0.1-0.9-0.2c-1.5-0.3-3-0.5-4.5-0.6
			c-2.5-0.2-5-0.3-7.5,0c-2.9,0.3-7,1.3-8.2,4.4c-0.4,1-0.6,2.1-0.8,3.2c-0.3,1.1-0.7,2.4-0.8,3.5c-0.1,2.1,1.1,4,2.4,5.5
			c1.8,2.1,3.9,3.8,6.2,5.3c4.8,3.2,10.1,5.5,15.6,7.3c5.6,1.8,11.6,3.1,17.5,3.1c3.7,0,9.6-0.3,11.5-4.2c0.5-1,0.6-2.2,0.9-3.2
			c0.3-1.1,0.7-2.2,0.8-3.4c0.5-3.2-2.1-6.1-4.2-8C73.9,14.2,69.2,11.7,64.5,9.7C64.5,9.7,76.1,14.7,64.5,9.7z M66.3,13.9
			c0.8,0.6,2.9,2,2.6,3.3c-0.3,1.1-2.5,1.2-3.4,1.2c-4.8,0.1-9.9-1.4-14.3-3.1c-3.1-1.2-6.9-2.8-9.1-5.4c-2.4-2.8,3.1-2.8,4.7-2.7
			c-1,0.7-1.1,2.3-0.2,3.1c0.5,0.5,1.5,0.7,2.2,0.9c0.8,0.3,1.7,0.6,2.4-0.2c0.5-0.5,0.6-1.4,0.8-2.1c2.8,0.9,5.6,1.8,8.4,2.7
			c0.6,0.2,0.4,0.3,0.2,0.9c-0.3,1.1-0.2,2.4,1.1,2.8c0.7,0.2,1.4,0.5,2.2,0.7c1.4,0.5,2.5-1,2.2-2.4C66.1,13.8,66.2,13.9,66.3,13.9
			C68.3,15.4,66.3,13.9,66.3,13.9z M41.1,10.1c0-0.1,0-0.1,0-0.2c1,1.7,2.9,2.8,4.5,3.7C48,15,50.5,16,53,16.9
			c2.7,0.9,5.5,1.7,8.3,2.1c2.2,0.3,5.1,0.8,7.2-0.3c-0.2,1.6-3.2,1.4-4.2,1.4c-3.5-0.1-7.1-0.9-10.4-2c-3.3-1.1-6.6-2.4-9.5-4.3
			C43.4,13.2,40.7,11.6,41.1,10.1z M51,5.5c2.1,0.7,4.3,1.4,6.4,2.1c1.4,0.4,2.8,0.9,4.2,1.3c0.7,0.2,2,0.4,2.2,1.3
			c0.1,0.6-0.2,1.4-0.3,1.9c-0.2,0.8,0.5,0.9,1.1,1.1c1,0.3,1,2.1-0.2,2.1c-0.6,0-1.4-0.4-1.9-0.6c-0.7-0.2-1.5-0.6-1.3-1.5
			c0.1-0.5,0.4-1.1,0.4-1.6c0.2-0.7-1.8-1-2.2-1.2c-2-0.6-4-1.3-6-1.9c-0.5-0.2-1.1-0.3-1.6-0.5c-0.7-0.2-0.8,1.4-0.9,1.8
			c-0.3,1.3-1.5,0.8-2.3,0.5C47.7,10,45.8,9.4,47,8.1c0.7-0.7,2.2,0.6,2.4-0.4C49.6,7,49.8,5.1,51,5.5z M49.1,5.8
			C49.1,6,49,6.5,48.9,6.6c-0.4-0.1-0.8-0.1-1.1-0.1c-1-0.1-2-0.2-3-0.1c-1.4,0.1-3.5,0.3-4,1.8c-0.4,1.2-0.7,2.4,0,3.5
			c1.1,1.8,3.3,3,5.1,4c5.1,2.8,11,4.7,16.7,5.2c1.8,0.2,5,0.5,6.4-1.1c0.6-0.7,0.9-2.4,0.7-3.3c-0.5-1.6-2.2-2.8-3.6-3.6
			c-0.3-0.2-0.7-0.4-1.1-0.7c-0.3-0.2-0.7-0.2-0.6-0.6c0.1-0.3,0.2-0.6,0.2-0.9c4.7,2.1,9.5,4.7,13.2,8.4c1.8,1.8,4.5,5,3,7.8
			c-0.9,1.6-2.8,2.4-4.5,2.9c-2.5,0.7-5.1,0.8-7.7,0.7c-6-0.2-12-1.6-17.7-3.6c-4.8-1.7-9.6-3.8-13.8-6.7c-2.1-1.4-4.1-3-5.8-5
			c-1.2-1.4-2.3-3.1-2.3-5c0.1-2.9,3.4-4.2,5.8-4.7C39.5,4.5,44.5,5,49.1,5.8C49.1,5.9,38.4,3.8,49.1,5.8z M70.6,35.6
			c-5,0.3-10-0.5-14.8-1.7c-5.3-1.3-10.5-3.2-15.4-5.8c-4.1-2.2-8.5-4.9-11.2-8.7c-0.9-1.3-1.8-3-1.5-4.6c0.2-1,0.5-2,0.7-3
			c1.3,4.2,5.6,7.3,9.2,9.6c4.4,2.8,9.2,4.9,14.1,6.5c5.2,1.7,10.6,2.9,16,3.2c4,0.2,9.5,0.3,12.7-2.7c-0.4,1.5-0.5,3.3-1.7,4.5
			C76.8,35.1,73.3,35.5,70.6,35.6C65.2,36,75.8,35.3,70.6,35.6z"/>
		<path fill="#FCFBF7" d="M30.1,9.4C31,9,32.2,9,33.1,9c1.5,0,3,0.3,4.5,0.6c0.5,0.1,1.7,0.1,1.8,0.7c0.1,0.7,0.5,1.4,1,1.9
			c-2.8,0.3-5.6,1.7-7.2,4.1c0-0.2-0.5-0.6-0.6-0.7c-0.5-0.6-1-1.2-1.5-1.9C30.4,12.7,29.1,10.7,30.1,9.4z"/>
		<path fill="#FFFFFF" d="M41.1,13.4c-1.1,0.3-2.2,0.7-3.2,1.3c-0.9,0.5-1.7,1.1-2.3,1.9c-0.1,0.1-0.7,0.9-0.6,1
			c0.3,0.2,0.5,0.5,0.8,0.7c1.3-2.1,3.7-3.6,6-4.4C41.5,13.7,41.3,13.6,41.1,13.4z"/>
		<path fill="#FFFFFF" d="M56.9,8.4c-0.2,0.7-2.8-0.5-3.2-0.6c-0.4-0.1-3.2-0.7-3-1.4c0.2-0.7,2.8,0.5,3.2,0.6
			C54.3,7.1,57.1,7.6,56.9,8.4z"/>
	</g>
</g>
</svg>
