<?xml version="1.0" encoding="utf-8"?>
<!-- Generator: Adobe Illustrator 17.0.1, SVG Export Plug-In . SVG Version: 6.00 Build 0)  -->
<!DOCTYPE svg PUBLIC "-//W3C//DTD SVG 1.1//EN" "http://www.w3.org/Graphics/SVG/1.1/DTD/svg11.dtd">
<svg version="1.1" id="レイヤー_1" xmlns="http://www.w3.org/2000/svg" xmlns:xlink="http://www.w3.org/1999/xlink" x="0px"
	 y="0px" width="841.89px" height="595.28px" viewBox="0 0 841.89 595.28" enable-background="new 0 0 841.89 595.28"
	 xml:space="preserve">
<rect x="349.864" y="226.979" fill="none" stroke="#A660A3" stroke-width="2" stroke-miterlimit="10" width="141.732" height="141.732"/>
<rect x="372.668" y="328.101" fill="#DCDDDD" width="106.444" height="21.983"/>
<rect x="411.235" y="328.101" fill="#FFFFFF" width="27.768" height="21.983"/>
<polygon fill="#EFEFEF" points="423.962,328.101 413.549,328.101 413.549,345.713 423.962,335.3 "/>
<polygon fill="#FFFFFF" points="423.962,335.3 413.549,345.713 413.549,348.541 423.962,338.128 "/>
<polygon fill="#BDBEBE" points="413.549,348.541 413.549,350.083 423.962,350.083 423.962,338.128 "/>
<polygon fill="#EFEFEF" points="436.689,328.101 426.276,328.101 426.276,345.713 436.689,335.3 "/>
<polygon fill="#FFFFFF" points="436.689,335.3 426.276,345.713 426.276,348.541 436.689,338.128 "/>
<polygon fill="#BDBEBE" points="426.276,348.541 426.276,350.083 436.689,350.083 436.689,338.128 "/>
<polygon fill="#D3D3D4" points="436.689,262.28 436.689,247.496 415.091,247.496 415.091,262.28 388.224,262.28 388.224,328.614 
	464.715,328.614 464.715,262.28 "/>
<rect x="418.948" y="250.196" fill="#FFFFFF" width="13.884" height="10.413"/>
<polygon points="429.981,253.832 427.254,253.832 427.254,250.94 424.526,250.94 424.526,253.832 421.799,253.832 421.799,256.725 
	424.526,256.725 424.526,259.617 427.254,259.617 427.254,256.725 429.981,256.725 "/>
<rect x="358.274" y="297.863" fill="#FFFFFF" stroke="#000000" stroke-width="0.65" stroke-miterlimit="10" width="13.884" height="10.413"/>
<polygon points="369.307,301.499 366.58,301.499 366.58,298.606 363.852,298.606 363.852,301.499 361.126,301.499 361.126,304.392 
	363.852,304.392 363.852,307.284 366.58,307.284 366.58,304.392 369.307,304.392 "/>
<rect x="367.655" y="325.401" fill="#D3D3D4" width="115.7" height="4.242"/>
<rect x="394.63" y="270.262" fill="#E6E6E6" width="6.175" height="7.8"/>
<rect x="404.055" y="270.262" fill="#E6E6E6" width="6.175" height="7.8"/>
<rect x="413.48" y="270.262" fill="#E6E6E6" width="6.175" height="7.8"/>
<rect x="422.905" y="270.262" fill="#E6E6E6" width="6.175" height="7.8"/>
<rect x="432.329" y="270.262" fill="#E6E6E6" width="6.175" height="7.8"/>
<rect x="441.755" y="270.262" fill="#E6E6E6" width="6.175" height="7.8"/>
<rect x="451.18" y="270.262" fill="#E6E6E6" width="6.175" height="7.8"/>
<rect x="443.325" y="334.612" fill="#EFEFEF" width="5.476" height="7.15"/>
<rect x="451.683" y="334.612" fill="#EFEFEF" width="5.476" height="7.15"/>
<rect x="460.041" y="334.612" fill="#EFEFEF" width="5.476" height="7.15"/>
<rect x="468.399" y="334.612" fill="#EFEFEF" width="5.476" height="7.15"/>
<rect x="376.7" y="334.612" fill="#EFEFEF" width="5.476" height="7.15"/>
<rect x="385.058" y="334.612" fill="#EFEFEF" width="5.476" height="7.15"/>
<rect x="393.416" y="334.612" fill="#EFEFEF" width="5.476" height="7.15"/>
<rect x="401.774" y="334.612" fill="#EFEFEF" width="5.476" height="7.15"/>
<rect x="394.63" y="283.912" fill="#E6E6E6" width="6.175" height="7.8"/>
<rect x="404.055" y="283.912" fill="#E6E6E6" width="6.175" height="7.8"/>
<rect x="413.48" y="283.912" fill="#E6E6E6" width="6.175" height="7.8"/>
<rect x="422.905" y="283.912" fill="#E6E6E6" width="6.175" height="7.8"/>
<rect x="432.329" y="283.912" fill="#E6E6E6" width="6.175" height="7.8"/>
<rect x="441.755" y="283.912" fill="#E6E6E6" width="6.175" height="7.8"/>
<rect x="451.18" y="283.912" fill="#E6E6E6" width="6.175" height="7.8"/>
<rect x="394.63" y="296.912" fill="#E6E6E6" width="6.175" height="7.8"/>
<rect x="404.055" y="296.912" fill="#E6E6E6" width="6.175" height="7.8"/>
<rect x="413.48" y="296.912" fill="#E6E6E6" width="6.175" height="7.8"/>
<rect x="422.905" y="296.912" fill="#E6E6E6" width="6.175" height="7.8"/>
<rect x="432.329" y="296.912" fill="#E6E6E6" width="6.175" height="7.8"/>
<rect x="441.755" y="296.912" fill="#E6E6E6" width="6.175" height="7.8"/>
<rect x="451.18" y="296.912" fill="#E6E6E6" width="6.175" height="7.8"/>
<rect x="394.25" y="310.237" fill="#EFEFEF" width="6.175" height="7.8"/>
<rect x="403.675" y="310.237" fill="#EFEFEF" width="6.175" height="7.8"/>
<rect x="413.1" y="310.237" fill="#EFEFEF" width="6.175" height="7.8"/>
<rect x="422.525" y="310.237" fill="#EFEFEF" width="6.175" height="7.8"/>
<rect x="431.95" y="310.237" fill="#EFEFEF" width="6.175" height="7.8"/>
<rect x="441.375" y="310.237" fill="#EFEFEF" width="6.175" height="7.8"/>
<rect x="450.8" y="310.237" fill="#EFEFEF" width="6.175" height="7.8"/>
<line fill="none" stroke="#9FA0A0" stroke-width="1.3" stroke-miterlimit="10" x1="358.274" y1="350.083" x2="358.274" y2="296.912"/>
</svg>
