<?xml version="1.0" encoding="utf-8"?>
<!-- Generator: Adobe Illustrator 17.1.0, SVG Export Plug-In . SVG Version: 6.00 Build 0)  -->
<!DOCTYPE svg PUBLIC "-//W3C//DTD SVG 1.1//EN" "http://www.w3.org/Graphics/SVG/1.1/DTD/svg11.dtd">
<svg version="1.1" id="Ebene_1" xmlns="http://www.w3.org/2000/svg" xmlns:xlink="http://www.w3.org/1999/xlink" x="0px" y="0px"
	 width="100px" height="100px" viewBox="0 0 100 100" enable-background="new 0 0 100 100" xml:space="preserve">
<circle fill="#B2B2B2" cx="50" cy="50" r="50"/>
<path fill="#DCDDDD" d="M19.6,62.2c7.9,0,15.8,0,23.8,0c11.9,0,23.8,0,35.7,0c1.5,0,3,0,4.5,0c0.3,0,0.7,0,1,0
	c0.3,0,0.2,0.1,0.2,0.4c0,4.9,0,9.9,0,14.8c0,0.1-21.6,0.1-23,0.1c-12,0-24,0-36,0c-1.6,0-3.2,0-4.7,0c-0.3,0-1.4,0.2-1.4-0.2
	c0-5,0-9.9,0-14.9C19.6,62.3,19.6,62.3,19.6,62.2z"/>
<path fill="#FFFFFF" d="M43.2,62.2c5,0,9.9,0,14.9,0c0.7,0,1.4,0,2.1,0c0.1,0,0,1.4,0,1.5c0,3,0,6,0,9c0,1.3,0,2.5,0,3.8
	c0,0.2,0.2,1-0.1,1c-2.3,0-4.6,0-7,0c-2.9,0-5.8,0-8.7,0c-0.1,0-1.2,0.1-1.2-0.1c0-0.8,0-1.6,0-2.4C43.2,70.8,43.2,66.5,43.2,62.2z"
	/>
<path fill="#EFEFEF" d="M50.9,62.2c-1.7,0-3.5,0-5.2,0c-0.1,0-1.1-0.1-1.1,0.1c0,0.6,0,1.1,0,1.7c0,3.5,0,7,0,10.5
	c1.8-2,3.6-4.1,5.4-6.1c0.3-0.3,0.6-0.7,0.9-1c0.2-0.2,0.1-0.7,0.1-0.9C50.9,65,50.9,63.6,50.9,62.2z"/>
<path fill="#FFFFFF" d="M50.9,67.2c-1.4,1.6-2.8,3.1-4.2,4.7c-0.7,0.8-1.4,1.6-2.1,2.3c-0.4,0.5-0.2,1.5-0.2,2.2
	c1.4-1.6,2.8-3.1,4.2-4.7c0.7-0.8,1.4-1.6,2.1-2.3C51.2,68.9,50.9,67.8,50.9,67.2z"/>
<path fill="#BDBEBE" d="M44.6,76.4c0,0.4-0.2,1.1,0.3,1.1c0.8,0,1.5,0,2.3,0c0.3,0,3.8,0.1,3.8-0.1c0-2.8,0-5.5,0-8.3
	C48.8,71.6,46.7,74,44.6,76.4z"/>
<path fill="#EFEFEF" d="M58.7,62.2c-1.7,0-3.5,0-5.2,0c-0.1,0-1.1-0.1-1.1,0.1c0,0.6,0,1.1,0,1.7c0,3.5,0,7,0,10.5
	c1.8-2,3.6-4.1,5.4-6.1c0.3-0.3,0.6-0.7,0.9-1c0.2-0.2,0.1-0.7,0.1-0.9C58.7,65,58.7,63.6,58.7,62.2z"/>
<path fill="#FFFFFF" d="M58.7,67.2c-1.4,1.6-2.8,3.1-4.2,4.7c-0.7,0.8-1.4,1.6-2.1,2.3c-0.4,0.5-0.2,1.5-0.2,2.2
	c1.4-1.6,2.8-3.1,4.2-4.7c0.7-0.8,1.4-1.6,2.1-2.3C59,68.9,58.7,67.8,58.7,67.2z"/>
<path fill="#BDBEBE" d="M52.4,76.4c0,0.4-0.2,1.1,0.3,1.1c0.8,0,1.5,0,2.3,0c0.3,0,3.8,0.1,3.8-0.1c0-2.8,0-5.5,0-8.3
	C56.6,71.6,54.5,74,52.4,76.4z"/>
<path fill="#D3D3D4" d="M58.7,16.4c0-2.4,0-4.8,0-7.3c0-1,0-2,0-3c0-0.1-1.5,0-1.6,0c-3,0-6,0-9,0c-0.8,0-1.7,0-2.5,0
	c-0.1,0,0,1.8,0,2c0,2.7,0,5.4,0,8.1c0,0.4-0.8,0.2-1,0.2c-1.2,0-2.5,0-3.7,0c-3.1,0-6.2,0-9.3,0c-0.8,0-1.6,0-2.3,0
	c-0.2,0-0.1,0.3-0.1,0.4c0,10.6,0,21.1,0,31.7c0,4.4,0,8.8,0,13.2c0,0.7-0.2,0.8,0.6,0.8c1.6,0,3.1,0,4.7,0c11.9,0,23.8,0,35.7,0
	c1.7,0,3.4,0,5.1,0c0.7,0,0.8,0.2,0.8-0.5c0-4.2,0-8.4,0-12.6c0-10.8,0-21.6,0-32.4c0-0.6,0.1-0.7-0.5-0.7c-1.9,0-3.7,0-5.6,0
	C66.1,16.4,62.4,16.4,58.7,16.4z"/>
<path fill="#FFFFFF" d="M47.9,8c2.5,0,5,0,7.5,0c1,0,1-0.2,1,0.8c0,1.5,0,3,0,4.5c0,0.4,0.3,2-0.2,2c-1.3,0-2.6,0-3.8,0
	c-1.4,0-2.7,0-4.1,0c-0.2,0-0.4,0.1-0.4-0.1c0-0.5,0-1,0-1.5C47.9,11.7,47.9,9.9,47.9,8z"/>
<path d="M54.6,10.5c-0.5,0-1,0-1.4,0c-0.4,0-0.2-0.6-0.2-1c0-0.4,0.2-1-0.2-1c-0.1,0-1.4,0-1.4,0c0,0.6,0,1.1,0,1.7
	c0,0.5-0.4,0.3-0.9,0.3c-0.6,0-0.7-0.2-0.7,0.5c0,0.2-0.2,1.4,0,1.5c0.2,0.2,1.2,0,1.4,0c0.4,0,0.2,0.6,0.2,1c0,0.4-0.2,1,0.2,1
	c0.1,0,1.4,0,1.4,0c0-0.6,0-1.1,0-1.7c0-0.5,0.4-0.3,0.9-0.3c0.6,0,0.7,0.2,0.7-0.5C54.6,11.6,54.6,11.1,54.6,10.5z"/>
<path fill="#FFFFFF" stroke="#000000" stroke-width="0.65" stroke-miterlimit="10" d="M10.8,41.2c2.5,0,5,0,7.5,0c1,0,1-0.2,1,0.8
	c0,1.5,0,3,0,4.5c0,0.4,0.3,2-0.2,2c-1.3,0-2.6,0-3.8,0c-1.4,0-2.7,0-4.1,0c-0.2,0-0.4,0.1-0.4-0.1c0-0.5,0-1,0-1.5
	C10.8,44.9,10.8,43,10.8,41.2z"/>
<path d="M17.5,43.7c-0.5,0-1,0-1.4,0c-0.4,0-0.2-0.6-0.2-1c0-0.4,0.2-1-0.2-1c-0.1,0-1.4,0-1.4,0c0,0.6,0,1.1,0,1.7
	c0,0.5-0.4,0.3-0.9,0.3c-0.6,0-0.7-0.2-0.7,0.5c0,0.2-0.2,1.4,0,1.5c0.2,0.2,1.2,0,1.4,0c0.4,0,0.2,0.6,0.2,1c0,0.4-0.2,1,0.2,1
	c0.1,0,1.4,0,1.4,0c0-0.6,0-1.1,0-1.7c0-0.5,0.4-0.3,0.9-0.3c0.6,0,0.7,0.2,0.7-0.5C17.5,44.7,17.5,44.2,17.5,43.7z"/>
<path fill="#D3D3D4" d="M16.5,60.3c7.5,0,15,0,22.6,0c12.5,0,24.9,0,37.4,0c3.4,0,6.7,0,10.1,0c0.2,0,0.4,0,0.7,0c0.1,0,0,2.5,0,2.7
	c0,0.5-1.1,0.2-1.5,0.2c-10,0-20,0-30,0c-11.5,0-22.9,0-34.4,0c-1.4,0-2.8,0-4.2,0c-0.2,0-0.5,0-0.7,0
	C16.5,63.3,16.5,60.6,16.5,60.3z"/>
<path fill="#E6E6E6" d="M33,22c0.8,0,1.6,0,2.4,0c0.5,0,1.4-0.3,1.4,0.3c0,1,0,1.9,0,2.9c0,0.3,0.2,2,0,2.2c-0.2,0.2-2,0-2.4,0
	c-0.5,0-1.4,0.3-1.4-0.3C33,25.4,33,23.7,33,22z"/>
<path fill="#E6E6E6" d="M38.8,22c0.8,0,1.6,0,2.4,0c0.5,0,1.4-0.3,1.4,0.3c0,1,0,1.9,0,2.9c0,0.3,0.2,2,0,2.2c-0.2,0.2-2,0-2.4,0
	c-0.5,0-1.4,0.3-1.4-0.3C38.8,25.4,38.8,23.7,38.8,22z"/>
<path fill="#E6E6E6" d="M44.5,22c0.8,0,1.6,0,2.4,0c0.5,0,1.4-0.3,1.4,0.3c0,1,0,1.9,0,2.9c0,0.3,0.2,2,0,2.2c-0.2,0.2-2,0-2.4,0
	c-0.5,0-1.4,0.3-1.4-0.3C44.5,25.4,44.5,23.7,44.5,22z"/>
<path fill="#E6E6E6" d="M50.3,22c0.8,0,1.6,0,2.4,0c0.5,0,1.4-0.3,1.4,0.3c0,1,0,1.9,0,2.9c0,0.3,0.2,2,0,2.2c-0.2,0.2-2,0-2.4,0
	c-0.5,0-1.4,0.3-1.4-0.3C50.3,25.4,50.3,23.7,50.3,22z"/>
<path fill="#E6E6E6" d="M56.1,22c0.8,0,1.6,0,2.4,0c0.5,0,1.4-0.3,1.4,0.3c0,1,0,1.9,0,2.9c0,0.3,0.2,2,0,2.2c-0.2,0.2-2,0-2.4,0
	c-0.5,0-1.4,0.3-1.4-0.3C56.1,25.4,56.1,23.7,56.1,22z"/>
<path fill="#E6E6E6" d="M61.8,22c0.8,0,1.6,0,2.4,0c0.5,0,1.4-0.3,1.4,0.3c0,1,0,1.9,0,2.9c0,0.3,0.2,2,0,2.2c-0.2,0.2-2,0-2.4,0
	c-0.5,0-1.4,0.3-1.4-0.3C61.8,25.4,61.8,23.7,61.8,22z"/>
<path fill="#E6E6E6" d="M67.6,22c0.8,0,1.6,0,2.4,0c0.5,0,1.4-0.3,1.4,0.3c0,1,0,1.9,0,2.9c0,0.3,0.2,2,0,2.2c-0.2,0.2-2,0-2.4,0
	c-0.5,0-1.4,0.3-1.4-0.3C67.6,25.4,67.6,23.7,67.6,22z"/>
<path fill="#EFEFEF" d="M62.8,66.7c0.7,0,1.5,0,2.2,0c0.5,0,1.1-0.3,1.1,0.3c0,0.9,0,1.8,0,2.7c0,0.3,0.2,1.7,0,1.9
	c-0.2,0.2-1.9,0-2.2,0c-0.5,0-1.1,0.3-1.1-0.3C62.8,69.8,62.8,68.3,62.8,66.7z"/>
<path fill="#EFEFEF" d="M67.9,66.7c0.7,0,1.5,0,2.2,0c0.5,0,1.1-0.3,1.1,0.3c0,0.9,0,1.8,0,2.7c0,0.3,0.2,1.7,0,1.9
	c-0.2,0.2-1.9,0-2.2,0c-0.5,0-1.1,0.3-1.1-0.3C67.9,69.8,67.9,68.3,67.9,66.7z"/>
<path fill="#EFEFEF" d="M73,66.7c0.7,0,1.5,0,2.2,0c0.5,0,1.1-0.3,1.1,0.3c0,0.9,0,1.8,0,2.7c0,0.3,0.2,1.7,0,1.9
	c-0.2,0.2-1.9,0-2.2,0c-0.5,0-1.1,0.3-1.1-0.3C73,69.8,73,68.3,73,66.7z"/>
<path fill="#EFEFEF" d="M78.1,66.7c0.7,0,1.5,0,2.2,0c0.5,0,1.1-0.3,1.1,0.3c0,0.9,0,1.8,0,2.7c0,0.3,0.2,1.7,0,1.9
	c-0.2,0.2-1.9,0-2.2,0c-0.5,0-1.1,0.3-1.1-0.3C78.1,69.8,78.1,68.3,78.1,66.7z"/>
<path fill="#EFEFEF" d="M22,66.7c0.7,0,1.5,0,2.2,0c0.5,0,1.1-0.3,1.1,0.3c0,0.9,0,1.8,0,2.7c0,0.3,0.2,1.7,0,1.9
	c-0.2,0.2-1.9,0-2.2,0c-0.5,0-1.1,0.3-1.1-0.3C22,69.8,22,68.3,22,66.7z"/>
<path fill="#EFEFEF" d="M27.1,66.7c0.7,0,1.5,0,2.2,0c0.5,0,1.1-0.3,1.1,0.3c0,0.9,0,1.8,0,2.7c0,0.3,0.2,1.7,0,1.9
	c-0.2,0.2-1.9,0-2.2,0c-0.5,0-1.1,0.3-1.1-0.3C27.1,69.8,27.1,68.3,27.1,66.7z"/>
<path fill="#EFEFEF" d="M32.3,66.7c0.7,0,1.5,0,2.2,0c0.5,0,1.1-0.3,1.1,0.3c0,0.9,0,1.8,0,2.7c0,0.3,0.2,1.7,0,1.9
	c-0.2,0.2-1.9,0-2.2,0c-0.5,0-1.1,0.3-1.1-0.3C32.3,69.8,32.3,68.3,32.3,66.7z"/>
<path fill="#EFEFEF" d="M37.4,66.7c0.7,0,1.5,0,2.2,0c0.5,0,1.1-0.3,1.1,0.3c0,0.9,0,1.8,0,2.7c0,0.3,0.2,1.7,0,1.9
	c-0.2,0.2-1.9,0-2.2,0c-0.5,0-1.1,0.3-1.1-0.3C37.4,69.8,37.4,68.3,37.4,66.7z"/>
<path fill="#E6E6E6" d="M33,31.5c0.8,0,1.6,0,2.4,0c0.5,0,1.4-0.3,1.4,0.3c0,1,0,1.9,0,2.9c0,0.3,0.2,2,0,2.2c-0.2,0.2-2,0-2.4,0
	c-0.5,0-1.4,0.3-1.4-0.3C33,34.9,33,33.2,33,31.5z"/>
<path fill="#E6E6E6" d="M38.8,31.5c0.8,0,1.6,0,2.4,0c0.5,0,1.4-0.3,1.4,0.3c0,1,0,1.9,0,2.9c0,0.3,0.2,2,0,2.2c-0.2,0.2-2,0-2.4,0
	c-0.5,0-1.4,0.3-1.4-0.3C38.8,34.9,38.8,33.2,38.8,31.5z"/>
<path fill="#E6E6E6" d="M44.5,31.5c0.8,0,1.6,0,2.4,0c0.5,0,1.4-0.3,1.4,0.3c0,1,0,1.9,0,2.9c0,0.3,0.2,2,0,2.2c-0.2,0.2-2,0-2.4,0
	c-0.5,0-1.4,0.3-1.4-0.3C44.5,34.9,44.5,33.2,44.5,31.5z"/>
<path fill="#E6E6E6" d="M50.3,31.5c0.8,0,1.6,0,2.4,0c0.5,0,1.4-0.3,1.4,0.3c0,1,0,1.9,0,2.9c0,0.3,0.2,2,0,2.2c-0.2,0.2-2,0-2.4,0
	c-0.5,0-1.4,0.3-1.4-0.3C50.3,34.9,50.3,33.2,50.3,31.5z"/>
<path fill="#E6E6E6" d="M56.1,31.5c0.8,0,1.6,0,2.4,0c0.5,0,1.4-0.3,1.4,0.3c0,1,0,1.9,0,2.9c0,0.3,0.2,2,0,2.2c-0.2,0.2-2,0-2.4,0
	c-0.5,0-1.4,0.3-1.4-0.3C56.1,34.9,56.1,33.2,56.1,31.5z"/>
<path fill="#E6E6E6" d="M61.8,31.5c0.8,0,1.6,0,2.4,0c0.5,0,1.4-0.3,1.4,0.3c0,1,0,1.9,0,2.9c0,0.3,0.2,2,0,2.2c-0.2,0.2-2,0-2.4,0
	c-0.5,0-1.4,0.3-1.4-0.3C61.8,34.9,61.8,33.2,61.8,31.5z"/>
<path fill="#E6E6E6" d="M67.6,31.5c0.8,0,1.6,0,2.4,0c0.5,0,1.4-0.3,1.4,0.3c0,1,0,1.9,0,2.9c0,0.3,0.2,2,0,2.2c-0.2,0.2-2,0-2.4,0
	c-0.5,0-1.4,0.3-1.4-0.3C67.6,34.9,67.6,33.2,67.6,31.5z"/>
<path fill="#E6E6E6" d="M33,40.5c0.8,0,1.6,0,2.4,0c0.5,0,1.4-0.3,1.4,0.3c0,1,0,1.9,0,2.9c0,0.3,0.2,2,0,2.2c-0.2,0.2-2,0-2.4,0
	c-0.5,0-1.4,0.3-1.4-0.3C33,43.9,33,42.2,33,40.5z"/>
<path fill="#E6E6E6" d="M38.8,40.5c0.8,0,1.6,0,2.4,0c0.5,0,1.4-0.3,1.4,0.3c0,1,0,1.9,0,2.9c0,0.3,0.2,2,0,2.2c-0.2,0.2-2,0-2.4,0
	c-0.5,0-1.4,0.3-1.4-0.3C38.8,43.9,38.8,42.2,38.8,40.5z"/>
<path fill="#E6E6E6" d="M44.5,40.5c0.8,0,1.6,0,2.4,0c0.5,0,1.4-0.3,1.4,0.3c0,1,0,1.9,0,2.9c0,0.3,0.2,2,0,2.2c-0.2,0.2-2,0-2.4,0
	c-0.5,0-1.4,0.3-1.4-0.3C44.5,43.9,44.5,42.2,44.5,40.5z"/>
<path fill="#E6E6E6" d="M50.3,40.5c0.8,0,1.6,0,2.4,0c0.5,0,1.4-0.3,1.4,0.3c0,1,0,1.9,0,2.9c0,0.3,0.2,2,0,2.2c-0.2,0.2-2,0-2.4,0
	c-0.5,0-1.4,0.3-1.4-0.3C50.3,43.9,50.3,42.2,50.3,40.5z"/>
<path fill="#E6E6E6" d="M56.1,40.5c0.8,0,1.6,0,2.4,0c0.5,0,1.4-0.3,1.4,0.3c0,1,0,1.9,0,2.9c0,0.3,0.2,2,0,2.2c-0.2,0.2-2,0-2.4,0
	c-0.5,0-1.4,0.3-1.4-0.3C56.1,43.9,56.1,42.2,56.1,40.5z"/>
<path fill="#E6E6E6" d="M61.8,40.5c0.8,0,1.6,0,2.4,0c0.5,0,1.4-0.3,1.4,0.3c0,1,0,1.9,0,2.9c0,0.3,0.2,2,0,2.2c-0.2,0.2-2,0-2.4,0
	c-0.5,0-1.4,0.3-1.4-0.3C61.8,43.9,61.8,42.2,61.8,40.5z"/>
<path fill="#E6E6E6" d="M67.6,40.5c0.8,0,1.6,0,2.4,0c0.5,0,1.4-0.3,1.4,0.3c0,1,0,1.9,0,2.9c0,0.3,0.2,2,0,2.2c-0.2,0.2-2,0-2.4,0
	c-0.5,0-1.4,0.3-1.4-0.3C67.6,43.9,67.6,42.2,67.6,40.5z"/>
<path fill="#EFEFEF" d="M32.8,49.8c0.8,0,1.6,0,2.4,0c0.5,0,1.4-0.3,1.4,0.3c0,1,0,1.9,0,2.9c0,0.3,0.2,2,0,2.2c-0.2,0.2-2,0-2.4,0
	c-0.5,0-1.4,0.3-1.4-0.3C32.8,53.2,32.8,51.5,32.8,49.8z"/>
<path fill="#EFEFEF" d="M38.5,49.8c0.8,0,1.6,0,2.4,0c0.5,0,1.4-0.3,1.4,0.3c0,1,0,1.9,0,2.9c0,0.3,0.2,2,0,2.2c-0.2,0.2-2,0-2.4,0
	c-0.5,0-1.4,0.3-1.4-0.3C38.5,53.2,38.5,51.5,38.5,49.8z"/>
<path fill="#EFEFEF" d="M44.3,49.8c0.8,0,1.6,0,2.4,0c0.5,0,1.4-0.3,1.4,0.3c0,1,0,1.9,0,2.9c0,0.3,0.2,2,0,2.2c-0.2,0.2-2,0-2.4,0
	c-0.5,0-1.4,0.3-1.4-0.3C44.3,53.2,44.3,51.5,44.3,49.8z"/>
<path fill="#EFEFEF" d="M50.1,49.8c0.8,0,1.6,0,2.4,0c0.5,0,1.4-0.3,1.4,0.3c0,1,0,1.9,0,2.9c0,0.3,0.2,2,0,2.2c-0.2,0.2-2,0-2.4,0
	c-0.5,0-1.4,0.3-1.4-0.3C50.1,53.2,50.1,51.5,50.1,49.8z"/>
<path fill="#EFEFEF" d="M55.8,49.8c0.8,0,1.6,0,2.4,0c0.5,0,1.4-0.3,1.4,0.3c0,1,0,1.9,0,2.9c0,0.3,0.2,2,0,2.2c-0.2,0.2-2,0-2.4,0
	c-0.5,0-1.4,0.3-1.4-0.3C55.8,53.2,55.8,51.5,55.8,49.8z"/>
<path fill="#EFEFEF" d="M61.6,49.8c0.8,0,1.6,0,2.4,0c0.5,0,1.4-0.3,1.4,0.3c0,1,0,1.9,0,2.9c0,0.3,0.2,2,0,2.2c-0.2,0.2-2,0-2.4,0
	c-0.5,0-1.4,0.3-1.4-0.3C61.6,53.2,61.6,51.5,61.6,49.8z"/>
<path fill="#EFEFEF" d="M67.4,49.8c0.8,0,1.6,0,2.4,0c0.5,0,1.4-0.3,1.4,0.3c0,1,0,1.9,0,2.9c0,0.3,0.2,2,0,2.2c-0.2,0.2-2,0-2.4,0
	c-0.5,0-1.4,0.3-1.4-0.3C67.4,53.2,67.4,51.5,67.4,49.8z"/>
<line fill="none" stroke="#9FA0A0" stroke-width="1.3" stroke-miterlimit="10" x1="10.8" y1="77.5" x2="10.8" y2="40.5"/>
</svg>
