<?xml version="1.0" encoding="utf-8"?>
<!-- Generator: Adobe Illustrator 17.1.0, SVG Export Plug-In . SVG Version: 6.00 Build 0)  -->
<!DOCTYPE svg PUBLIC "-//W3C//DTD SVG 1.1//EN" "http://www.w3.org/Graphics/SVG/1.1/DTD/svg11.dtd">
<svg version="1.1" id="Ebene_1" xmlns="http://www.w3.org/2000/svg" xmlns:xlink="http://www.w3.org/1999/xlink" x="0px" y="0px"
	 width="100px" height="100px" viewBox="0 0 100 100" enable-background="new 0 0 100 100" xml:space="preserve">
<circle fill="#B2B2B2" cx="50" cy="50" r="50"/>
<path d="M27.9,83.9c-0.6,0.6-2.4,2.3-1.6,3.3c0.8,1,3.5-0.5,4.2-0.9c0.5-0.2,1.2-0.6,1.5-1.1c0.2-0.4,0.3-1.7-0.3-1.6
	C30.4,83.7,29.2,83.8,27.9,83.9z"/>
<path d="M37.4,84.1c0.6,0.6,2.4,2.3,1.6,3.3c-0.8,1-3.5-0.5-4.2-0.9c-0.5-0.2-1.2-0.6-1.5-1.1c-0.2-0.4-0.3-1.7,0.3-1.6
	C34.9,83.9,36.1,84,37.4,84.1z"/>
<path fill="#C2C3C3" d="M38.1,68.9c-1.5,0.1-3,0.1-4.5,0.2c0-0.2,0.1-0.6-0.2-0.6c-0.5,0-1,0-1.5,0c-0.2,0-0.8-0.1-0.9,0
	c-0.3,0.2,0.2,0.4-0.2,0.5c-1.6,0.3-3.3,0.5-4.9,0.8c0.2,0.6,0.2,1.4,0.2,2.1c0.2,1.5,0.3,3,0.5,4.5c0.3,2.5,0.6,5.1,0.8,7.6
	c0.1,0.6,2.8,0.5,3.2,0.5c0.3,0,1.6,0,1.6-0.4c0-0.3,0-0.6,0-0.9c0-2.9-0.1-5.8-0.1-8.8c0-1.7-0.1-3.4-0.1-5.1
	c0.5-0.2,0.3,1.2,0.4,1.5c0.1,1.4,0.1,2.8,0.2,4.2c0.1,2.8,0.3,5.7,0.4,8.5c0,0.2,0,0.5,0,0.7c0,0.2,1.4,0.3,1.6,0.3
	c0.3,0,3.3,0.1,3.3-0.3c0-0.2,0-0.5,0-0.7c0-2.8,0.1-5.6,0.1-8.4C38.1,73,38.1,71,38.1,68.9z"/>
<path fill="#AAABAC" d="M27.1,70.8c1.5,0.1,3,0.1,4.5-0.1c0.8-0.1,0.5-0.7,0.5-1.4c0.5-0.1,0.3,0.6,0.3,0.9c0,0.4-0.1,0.4,0.4,0.5
	c0.7,0.1,1.5,0.2,2.2,0.2c0.4,0,3.2,0,3.2-0.3c0-0.5,0-1.1,0-1.6c-1.3,0.1-2.7,0.1-4,0.2c-1,0-2.1-0.3-3.1-0.5
	c0.1,0.5-0.2,0.5-0.5,0.5c-0.7,0.1-1.5,0.2-2.2,0.4c-0.7,0.1-1.4,0.2-2.1,0.3c0,0-0.3,0-0.3,0.1c0,0.2,0.1,0.4,0.1,0.5
	C26,70.9,26.6,70.8,27.1,70.8C27.7,70.8,26.7,70.8,27.1,70.8z"/>
<path fill="#FFFFFF" d="M28.3,48.2c2.4,0,4.7,0,7.1,0c0.2,0,0.1,5.5,0.1,6c0,0.4,0,6.4,0,6.4c-2.4,0-4.7,0-7.1,0
	C28.3,60.6,28.3,49.4,28.3,48.2z"/>
<path fill="#AAABAB" d="M31.5,53.3c-0.3,1.4-0.5,2.7-0.8,4.1c-0.1,0.5-0.2,0.6,0.1,1.1c0.4,0.6,0.7,1.3,1.1,1.9
	c0.4-0.6,0.9-1.3,1.3-1.9c0.3-0.5,0.1-0.9,0-1.5c-0.2-1-0.3-2.1-0.5-3.1c0-0.1,0-0.5-0.1-0.6C32.5,53.2,31.8,53.3,31.5,53.3z"/>
<path fill="#D5D5D6" d="M33,55.3c0-0.2-0.2-2-0.4-2c-0.2,0-1-0.1-1.1,0C31.4,53.5,32.8,55.1,33,55.3z"/>
<path fill="#D5D5D6" d="M31.6,58.6c-0.3-0.5-0.6-0.9-0.9-1.3c-0.1,0.7-0.1,0.8,0.2,1.4c0.3,0.6,0.6,1.1,1,1.7
	c0.1-0.2,0.3-0.4,0.4-0.6C32.4,59.6,31.7,58.8,31.6,58.6C31.4,58.2,31.9,59,31.6,58.6z"/>
<path fill="#D5D5D6" d="M31.8,58c0.3,0.4,0.6,0.9,0.8,1.3c0.5-0.6,0.6-0.6,0.1-1.3c-0.6-0.8-1.1-1.6-1.7-2.4c-0.1,0.3-0.1,0.7-0.2,1
	C30.8,56.9,31.6,57.7,31.8,58C32.1,58.4,31.5,57.5,31.8,58z"/>
<path fill="#D5D5D6" d="M32.8,57.3c0.2,0.3,0.4,0.6,0.7,0.9c-0.1-0.5-0.2-1-0.2-1.5c-0.2-1-1.2-1.9-1.9-2.7c-0.1,0.4-0.3,0.7,0,1.1
	C31.9,55.8,32.3,56.6,32.8,57.3C33,57.6,32.3,56.5,32.8,57.3z"/>
<path fill="#FFFFFF" stroke="#000000" stroke-miterlimit="10" d="M41.9,67.6c0.3,0.7,0.8,2.1,0.1,2.7c-0.5,0.5-1.4,0.2-1.8-0.2
	c-0.5-0.5-0.6-1.4-0.7-2.1C40.3,68.1,41.1,67.9,41.9,67.6C41.9,67.8,41.5,67.8,41.9,67.6z"/>
<path d="M23.2,68.6C22,68.1,21,69.3,21,70.4c0,0.4,0,0.7,0,1.1c0,0.1,0.6,0.2,0.7,0.3c0-0.5-0.1-1.2,0.1-1.7c0.3-1,1.4-0.9,2.1-0.3
	c0.6,0.6,0.9,1.4,0.9,2.3c0,0.8-0.1,0.8,0.7,1.1C25.4,71.4,25.1,69.3,23.2,68.6z"/>
<path fill="#484240" d="M27.3,72.6c-2.3-0.8-4.6-1.5-6.9-2.3C19.7,70.1,19,70.2,19,71c0,1.4,0,2.9,0,4.3c0,0.3-0.2,2.3,0.1,2.4
	c1.2,0.4,2.3,0.8,3.5,1.1c1.2,0.4,2.4,0.8,3.6,1.2c0.3,0.1,0.7-0.2,1-0.3c0.1-0.1,0-0.8,0-0.9C27.3,76.7,27.3,74.6,27.3,72.6z"/>
<g>
	<g>
		<g>
			<path fill="#DDDEDE" d="M19,70.6c0,1.3,0,2.5,0,3.8c0,0.3-0.2,3.3,0,3.4c2.5,0.8,4.9,1.6,7.4,2.4c0-1.3,0-2.5,0-3.8
				c0-0.3,0.2-3.3,0-3.4C23.9,72.2,21.5,71.4,19,70.6z"/>
		</g>
		<g>
			<path fill="#A4A4A5" d="M26.4,80.1c0.5-0.2,0.9-0.2,0.9-0.7c0-0.8,0-1.6,0-2.4c0-1.4,0-2.9,0-4.3c-0.5,0.2-0.9,0.2-0.9,0.7
				c0,0.8,0,1.6,0,2.4C26.4,77.2,26.4,78.6,26.4,80.1z"/>
		</g>
		<g>
			<path fill="#DDDEDE" d="M26.4,73c0.3-0.1,0.6-0.3,0.9-0.4c-1.5-0.5-2.9-0.9-4.4-1.4c-0.9-0.3-1.7-0.6-2.6-0.8
				c-0.6-0.2-0.7,0-1.3,0.2C21.5,71.4,23.9,72.2,26.4,73z"/>
		</g>
	</g>
</g>
<path d="M23,68.7c-1.2-0.4-2.2,0.7-2.2,1.8c0,0.4,0,0.7,0,1.1c0,0.1,0.6,0.2,0.7,0.3c0-0.5-0.1-1.2,0.1-1.7c0.3-1,1.4-0.9,2.1-0.3
	c0.6,0.6,0.9,1.4,0.9,2.3c0,0.8-0.1,0.8,0.7,1.1C25.2,71.5,24.9,69.4,23,68.7C21.8,68.2,24.2,69.1,23,68.7z"/>
<path fill="#FCFEFF" stroke="#000000" stroke-miterlimit="10" d="M22.6,67.7c-0.3,0.6-0.9,2.1,0.1,2.5c1.5,0.6,2.3-0.8,2.4-2.1
	C24.2,68.2,23.4,68.1,22.6,67.7C22.4,68.2,23.1,67.9,22.6,67.7z"/>
<path fill="#C2C3C3" d="M25.2,50.7c-1.3,0.2-1.8,2.1-2,3.1c-0.4,1.6-0.6,3.3-0.8,5c-0.3,2-0.5,4-0.7,6c-0.1,0.7-0.2,1.4-0.2,2.1
	c-0.1,0.7-0.2,0.8,0.5,1c1.1,0.4,2.2,0.6,3.3,0.5c0.1-0.1,0-0.4,0-0.5c0-1,0-2,0-3c0-3.2,0-6.3,0-9.5C25.2,53.9,25.2,52.3,25.2,50.7
	z"/>
<path fill="#AAABAC" d="M25.2,68.4c0-5.9,0-11.8-0.1-17.7c-1,0.2-0.6,1.7-0.6,2.5c0,2,0,4,0,6c0,3.1,0,6.1,0,9.2
	C24.8,68.4,25,68.4,25.2,68.4z"/>
<path fill="#C2C3C3" d="M38.7,50.7c1.3,0.2,1.8,2.1,2,3.1c0.4,1.7,0.6,3.4,0.9,5.1c0.3,2,0.5,4,0.8,6c0.1,0.7,0.2,1.4,0.2,2.1
	c0.1,0.7,0,0.7-0.7,1c-0.3,0.1-3.3,0.8-3.3,0.4c0-0.2,0-0.4,0-0.5c0-1,0-2.1,0-3.1c0-3.2,0-6.3,0-9.5C38.7,53.7,38.7,52.2,38.7,50.7
	z"/>
<path fill="#AAABAC" d="M38.7,68.4c0-5.9,0-11.8,0.1-17.7c1,0.2,0.6,1.7,0.6,2.5c0,2,0,4,0,6c0,3.1,0,6.1,0,9.2
	C39.1,68.4,38.9,68.4,38.7,68.4z"/>
<path fill="#C2C3C3" d="M38.8,50.8c-0.3-0.3-1-0.5-1.3-0.6c-0.6-0.3-1.3-0.5-2-0.7c-0.1,3.6-1.5,7.4-3.6,10.4
	c-2.1-3-3.4-6.8-3.6-10.4c-0.9,0.3-1.8,0.6-2.7,1c-0.3,0.1-0.6,0.2-0.6,0.5c-0.1,0.8-0.1,1.7-0.1,2.5c0,3.1,0,6.3,0,9.4
	c0,2.3-0.1,4.7,0.2,7c0.1,0.8,1.9,0.6,2.4,0.6c1.1,0,2.4,0.2,3.5-0.1c0.7-0.2,0.9-0.2,1.6,0c0.3,0.1,0.7,0,1,0.1
	c1.4,0,2.9,0.1,4.4-0.1c0.7-0.1,0.6-0.6,0.6-1.2c0.1-1.2,0.1-2.3,0.1-3.5c0.1-3.1,0.1-6.3,0.1-9.4c0-1.3,0-2.5,0-3.8
	C38.9,52.1,39,51,38.8,50.8C38.7,50.6,39,50.9,38.8,50.8z"/>
<path fill="#AAABAB" d="M31.6,50.6c-0.4,0.5-1.3,1.1-0.9,1.7c0.2,0.4,0.5,0.8,0.7,1.2c0.1,0.1,1,0,1.1,0c0.3,0,1-1.3,0.8-1.6
	c-0.3-0.4-0.6-0.8-0.9-1.2C32.4,50.5,31.9,50.6,31.6,50.6z"/>
<path fill="#D5D5D6" d="M33.3,52.5c-0.3,0.3-0.7,0.7-1,1C32.9,53.6,33,53,33.3,52.5z"/>
<path fill="#D5D5D6" d="M32.5,50.7c-0.4-0.4-0.9,0-1.2,0.3c-0.2,0.3-0.5,0.6-0.7,0.9c-0.1,0.2,0.2,0.4,0.3,0.6
	C31.4,51.9,32,51.3,32.5,50.7z"/>
<path fill="#D5D5D6" d="M31.5,53.5c0.5-0.5,1-1,1.5-1.5c0.4-0.4,0.1-0.5-0.2-0.9c-0.6,0.6-1.1,1.3-1.7,1.9
	C31.1,53.1,31.4,53.4,31.5,53.5z"/>
<path fill="#AAABAC" d="M31.8,60.8c0.8,0,0.8,1.4,0,1.4C31,62.3,31,60.8,31.8,60.8z"/>
<path fill="#AAABAC" d="M31.9,64.6c0.8,0,0.8,1.4,0,1.4C31,66,31,64.6,31.9,64.6z"/>
<path fill="#AAABAC" d="M27.4,49.7c-0.1,1.4-0.2,2.8-0.3,4.3c0,0.2-0.2,1.2-0.1,1.4c0.2,0.3,1.5,0.4,1.9,0.5
	c-0.2,0.4-1.1,1.5-0.7,1.9c0.9,1.1,2.4,1.8,3.8,2c-1.8-3.2-3.3-6.8-3.6-10.5C28.1,49.5,27.7,49.6,27.4,49.7z"/>
<path fill="#AAABAC" d="M36.6,49.7c0.1,1.4,0.2,2.9,0.3,4.3c0,0.2,0.2,1.2,0.1,1.4c-0.2,0.3-1.5,0.4-1.9,0.5
	c0.3,0.5,1.1,1.5,0.7,1.9c-0.9,1.1-2.3,2-3.8,2c1.8-3.2,3.2-6.8,3.6-10.5C35.9,49.5,36.2,49.6,36.6,49.7z"/>
<path d="M27.2,14.1c-3.1-1-6.3,1-8.1,3.4c-2.8,3.9-3.9,9.2-3.2,13.9c0.2,1.2,0.5,2.4,1,3.5c0.1,0.3,0.2,0.9,0.6,0.7
	c0.4-0.2,0.8-0.3,1.1-0.5c0.4-0.2,0.4-0.9,0.5-1.4c0.6-2.8,1.6-5.7,3.1-8.2c1.6-2.8,4.4-5.7,7.8-5.8c3.2-0.1,6,2.4,7.9,4.7
	c2.1,2.4,3.9,5.2,5.5,8c0.4,0.7,0.8,1.4,1.1,2.2c0.3,0.7,0.3,1.6,0.5,2.4c0,0,0,0,0,0c0.6-0.3,1.7-0.4,1.9-1.1
	c0.4-1.1,0.6-2.3,0.7-3.5c0.6-4.7-0.3-9.6-2.8-13.7c-2.3-3.9-5.9-6.7-10.6-6.9c-1.6,0-3.2,0.2-4.7,0.7
	C28.9,12.9,27.7,13.3,27.2,14.1C27.3,14.1,27.2,14.1,27.2,14.1z"/>
<path fill="#FFFFFF" stroke="#000000" stroke-miterlimit="10" d="M45.1,34.1c0,4.2-0.9,8.6-3.6,11.9C39,49.2,35,50.6,31,50.4
	c-4-0.2-7.6-2.1-9.8-5.5c-2.4-3.7-3-8.2-2.8-12.5c0.2-3.9,1-8.1,3.4-11.3c2.4-3.3,6.2-4.9,10.2-4.8C41.5,16.5,45.1,26,45.1,34.1z"/>
<path fill="#FFFFFF" stroke="#000000" stroke-miterlimit="10" d="M19.2,35.3c-0.3-0.6-0.9-1.1-1.6-1.2c-1-0.2-1.5,0.7-1.7,1.5
	c-0.5,2.1,0.3,4.2,2.1,5.4c0.2,0.2,1.7,0.7,1.6,0c0-0.6-0.1-1.2-0.1-1.8C19.4,37.9,19.3,36.6,19.2,35.3z"/>
<path fill="#FFFFFF" stroke="#000000" stroke-miterlimit="10" d="M44.4,35.3c0.3-0.6,0.9-1.1,1.6-1.2c1-0.2,1.5,0.7,1.7,1.5
	c0.5,2.1-0.3,4.2-2.1,5.4c-0.2,0.2-1.7,0.7-1.6,0c0-0.6,0.1-1.2,0.1-1.8C44.2,37.9,44.3,36.6,44.4,35.3z"/>
<path d="M24.5,34.3c2.1,0,2.1,3.6,0,3.6S22.5,34.3,24.5,34.3z"/>
<path d="M38.9,34.3c2.1,0,2.1,3.6,0,3.6S36.8,34.3,38.9,34.3z"/>
<path d="M31.5,41.3c-0.3,0-1.4-0.9-1.2-1.3c0.2-0.4,0.5-1.4,0.9-1.6c0.2-0.4,0.4,0.2,0.3,0.5c-0.2,0.3-0.4,0.7-0.6,1
	c-0.2,0.3,0,0.3,0.2,0.5C31.2,40.5,32.2,41.3,31.5,41.3z"/>
<path d="M31.8,44.2c-0.8,0-1.7-0.1-2.5-0.6c-0.3-0.2-0.1-0.7,0.2-0.5c0.2,0.1,0.4,0.2,0.7,0.3c1.1,0.3,2.4,0.3,3.5,0
	c0.7-0.2,0.9,0.3,0.2,0.5C33.2,44.1,32.5,44.2,31.8,44.2z"/>
<path d="M37,31.9c-0.8,0-0.4-1,0.1-1.2c0.9-0.4,2-0.5,3-0.2c0.4,0.1,1,0.5,0.6,1c-0.3,0.4-1.3,0-1.7,0C38.3,31.5,37.6,31.9,37,31.9z
	"/>
<path d="M26.1,31.9c-0.5,0-1.1-0.4-1.6-0.4c-0.5-0.1-1.1,0-1.6,0.1c-0.6,0.2-0.8-0.9-0.2-1c1-0.3,2.2-0.2,3.2,0.1
	c0.2,0.1,0.3,0.1,0.5,0.2C26.7,31.1,26.6,31.9,26.1,31.9z"/>
<path d="M28.1,19.8c1.5,3.9,4.9,7.2,8.3,9.6c-0.8-1.1-1.6-2.3-2.4-3.4c-1-1.6-2.4-3.3-2.9-5.2c1.3,2.1,2.9,4,4.6,5.8
	c1.7,1.8,3.4,3.4,5.3,5c1,0.8,2.1,1.6,3.2,2.2c0.4,0.3,0.7,0.8,1,0.3c1.7-3,0.6-7.4-0.4-10.3c-1.4-3.9-4.9-6.6-8.7-7.9
	c-2.4-0.8-5.1-1.2-7.6-0.5c-2.3,0.6-4.5,1.8-6.3,3.3c-2.3,1.9-4,4.5-4.8,7.4c-0.4,1.8-0.6,3.6-0.4,5.4c0.1,1.2,0.7,1.9,1.4,2.8
	c-0.1-0.1,0.2-1.2,0.3-1.3c0.3-1.2,0.8-2.4,1.3-3.6C21.8,25.5,24.7,22.3,28.1,19.8z"/>
<path fill="#DCDDDD" d="M23.7,41.5c0.5,0,1.4,0.2,1.4,0.8c0,0.6-1,0.8-1.4,0.8c-0.5,0-1.4-0.2-1.4-0.8
	C22.3,41.7,23.3,41.5,23.7,41.5z"/>
<path fill="#DCDDDD" d="M40.6,41.6c0.5,0,1.4,0.2,1.4,0.8c0,0.6-1,0.8-1.4,0.8s-1.4-0.2-1.4-0.8C39.2,41.8,40.2,41.6,40.6,41.6z"/>
<path fill="#9B9B9C" d="M78,38.9c-0.2,0-1-1.3-0.7-1.4C77.5,37.4,78.2,38.9,78,38.9z"/>
<path fill="#9B9B9C" d="M76.7,46.2c-0.6,0-1.6-0.2-1.6-1c0-0.7,1-1,1.6-1c0.6,0,1.6,0.2,1.6,1C78.3,46,77.3,46.2,76.7,46.2z
	 M76.7,44.5c-0.4,0-1.4,0.1-1.4,0.7c0,0.6,1,0.7,1.4,0.7c0.4,0,1.4-0.1,1.4-0.7C78.1,44.6,77.1,44.5,76.7,44.5z"/>
<path fill="#FFFFFF" stroke="#000000" stroke-miterlimit="10" d="M64.6,85.9c0.4-0.5,1.4-1.4,1.3-2c-0.1-1-0.1-2.1-0.2-3.1
	c0.9,0,1.8,0,2.7,0c-0.1,1-0.2,2.1-0.2,3.2c0.1,1,0.2,2,0,2.9c0,0.1-0.5,0.1-0.5,0.1c-0.1-0.1,0-0.7,0-0.9c-0.3,0.4-0.5,0.8-0.9,1.1
	c-0.4,0.4-1.1,0.4-1.6,0.4c-0.5,0.1-1.5,0.2-1.9-0.2C62.8,86.8,64.2,86,64.6,85.9z"/>
<path d="M68.3,85.5c0-0.3,0-0.5-0.1-0.8c-0.9,0.6-2.3,1.8-3.5,1.2c-0.7-0.3-2.3,1.1-1.3,1.5c0.8,0.3,1.9,0,2.7-0.1
	c0.7-0.1,1.1-0.8,1.5-1.4c0,0.3,0,0.6,0,0.9c0.1,0,0.6,0.1,0.7,0C68.4,87,68.3,85.6,68.3,85.5C68.3,85.2,68.4,86.1,68.3,85.5z"/>
<path fill="#FFFFFF" d="M72.6,51.4c0,1.8-1.3,3.6-3.2,3.6s-3.2-1.8-3.2-3.6c0-1.8,1.3-3.6,3.2-3.6C71.4,47.8,72.6,49.6,72.6,51.4z"
	/>
<path fill="#D3D3D4" d="M66.7,49.6c-1,0.6-2.1,1.1-3,1.8c-1.4,1-3.1,0.9-4.1-0.5c-0.3-0.3-0.2-0.2-0.6,0c-0.7,0.3-1.6,0.5-2.3,0.3
	c-2-0.5-1.7-3.1-0.8-4.4c-1.8,0.8-4.7,0.8-6.1-0.8c-1.9-2.2-0.6-5.1,0.6-7.3c0.9-1.7,1-3.5,1-5.5c-0.1-2.4-0.1-4.9,0.3-7.2
	c0.5-2.7,1.6-5.2,3.3-7.4c1-1.2,2.3-2.4,3.9-2.6c0.4-0.1,0.7,0.2,0.9-0.2c0.4-0.8,1-1.4,1.7-1.9c3.4-2.5,8.7-3.3,12.6-2.1
	c4.5,1.3,8.1,5,9.9,9.3c1.3,3.3,1.3,6.9,1.8,10.4c0.2,1.6,0.6,3.2,1.2,4.7c0.8,1.7,2,3.2,2.1,5.2c0.1,2.5-1.4,4.8-4.1,4.7
	c0.1,1.2-0.3,2.5-1.3,3.1c-1.3,0.9-3,0.4-4.1-0.5c-0.3,1.7-1.7,2.9-3.5,2.7c-1-0.1-5.4-1.3-4.7-3.1C69.9,48.7,68.3,49.1,66.7,49.6z"
	/>
<path fill="#FFFFFF" stroke="#000000" stroke-miterlimit="10" d="M59.5,64.7c-0.5,0.7-1.1,1.9-0.6,2.8c0.4,0.9,1.6,0.6,2.2,0.1
	c0.4-0.4,1.4-2.1,0.5-2.3C60.9,65.1,60.2,64.9,59.5,64.7z"/>
<path fill="#666464" d="M64.3,50.6c-1.3,0.5-2.2,2.1-2.7,3.4c-0.8,1.9-1.3,4-1.8,6.1c-0.2,0.9-0.4,1.8-0.6,2.7
	c-0.2,0.7-0.5,1.4-0.1,2.1c0.6,1.1,3.4,1.7,3.8,0.1c0.3-1.5,0-3.2,0.1-4.7c0-1.3,0.5-2.5,0.7-3.8C63.8,54.4,64.1,52.5,64.3,50.6z"/>
<path fill="#FFFFFF" d="M63.1,51.5c-1.1,2.1-1.6,4.8,0.1,6.7c0.5-2.5,0.8-5.1,1.1-7.6C63.9,50.7,63.5,51.1,63.1,51.5
	C62,53.6,63.9,50.7,63.1,51.5z"/>
<path fill="#FFFFFF" stroke="#000000" stroke-miterlimit="10" d="M79.3,64.7c0.5,0.7,1.1,1.9,0.6,2.8c-0.4,0.9-1.6,0.6-2.2,0.1
	c-0.4-0.4-1.4-2.1-0.5-2.3C77.9,65.1,78.6,64.9,79.3,64.7z"/>
<path fill="#666464" d="M74.5,50.6c1.3,0.5,2.2,2.1,2.7,3.4c0.8,1.9,1.3,4,1.8,6.1c0.2,0.9,0.4,1.8,0.6,2.7c0.2,0.7,0.5,1.4,0.1,2.1
	c-0.6,1.1-3.4,1.7-3.8,0.1c-0.3-1.5,0-3.2-0.1-4.7c0-1.3-0.5-2.5-0.7-3.8C74.9,54.4,74.7,52.5,74.5,50.6z"/>
<path fill="#FFFFFF" d="M75.6,51.5c1.1,2.1,1.6,4.8-0.1,6.7c-0.5-2.5-0.8-5.1-1.1-7.6C74.8,50.6,75.4,51.2,75.6,51.5
	C76.8,53.6,74.9,50.7,75.6,51.5z"/>
<path fill="#BBBCBC" d="M64.6,70c0.2,2.3,0.3,4.7,0.5,7c0.1,1.3,0.2,2.6,0.3,4c0,0.2,0,0.5,0,0.7c0,0.2,1.8,0.3,1.9,0.4
	c0.3,0,1.3,0.1,1.3-0.3c0-0.4,0-0.8,0-1.2c0-1.5,0.1-2.9,0.1-4.4c0-1.5,0.1-3,0.1-4.5c0-0.4,0.3-1.5-0.2-1.5C67.3,70,66,70,64.6,70z
	"/>
<path fill="#FFFFFF" stroke="#000000" stroke-miterlimit="10" d="M74.3,85.9c-0.4-0.5-1.4-1.4-1.3-2c0.1-1,0.1-2.1,0.2-3.1
	c-0.9,0-1.8,0-2.7,0c0.1,1,0.2,2.1,0.2,3.2c-0.1,1-0.2,2,0,2.9c0,0.1,0.5,0.1,0.5,0.1c0.1-0.1,0-0.7,0-0.9c0.3,0.4,0.5,0.8,0.9,1.1
	c0.4,0.4,1.1,0.4,1.6,0.4c0.5,0.1,1.5,0.2,1.9-0.2C76.1,86.8,74.7,86,74.3,85.9z"/>
<path d="M70.6,85.5c0-0.3,0-0.5,0.1-0.8c0.9,0.6,2.3,1.8,3.5,1.2c0.7-0.3,2.3,1.1,1.3,1.5c-0.8,0.3-1.9,0-2.7-0.1
	c-0.7-0.1-1.1-0.8-1.5-1.4c0,0.3,0,0.6,0,0.9c-0.1,0-0.6,0.1-0.7,0C70.7,86.8,70.6,85.8,70.6,85.5C70.6,85.2,70.5,86.1,70.6,85.5z"
	/>
<path fill="#BBBCBC" d="M74.3,70c-0.2,2.3-0.3,4.7-0.5,7c-0.1,1.3-0.2,2.6-0.3,4c0,0.2,0,0.5,0,0.7c0,0.2-1.8,0.3-1.9,0.4
	c-0.3,0-1.3,0.1-1.3-0.3c0-0.4,0-0.8,0-1.2c0-1.5-0.1-2.9-0.1-4.4c0-1.5-0.1-3-0.1-4.5c0-0.4-0.3-1.5,0.2-1.5
	C71.6,70,72.9,70,74.3,70z"/>
<path fill="#666464" d="M75.8,51.9c-0.5-1.4-2.4-1.9-3.8-2.1c0.1,1.7-0.3,4.3-2.5,4.3c-2.2,0-2.8-2.6-2.7-4.3c-1,0.1-2.1,0.4-3,1
	c-1.3,0.9-1.4,3.1-1.2,4.6c0.2,1.1,0.7,2.1,1.3,3c0.4,0.6,0.4,1.1,1.1,1.3c0.6,0.2,1.3,0.3,1.9,0.5c0.5,0.1,0.3,0.3,0.9,0.3
	c0.7,0,1.7,0.2,2.3,0.1c0.4-0.1,1,0.1,1.4-0.1c0.1,0,0-0.2,0.1-0.2c0.3-0.1,0.6-0.1,0.9-0.2c0.6-0.1,1.2-0.2,1.7-0.3
	c0.3-0.1,1-1.9,1.2-2.2C76.3,55.7,76.4,53.8,75.8,51.9z"/>
<path fill="#666464" d="M64.6,60.7c-0.6,1-1.2,2.2-1.7,3.3c-0.5,1.1-0.9,2.3-1.3,3.5c-0.2,0.7-0.4,1.4-0.5,2.1
	c0.1,0.2,0.5,0.5,0.7,0.6c2.1,1.7,4.4,0.3,6.8,0.7c1.3,0.2,2.8,0.8,4.1,0.7c1.4-0.1,2.8-0.9,4.1-1.4c0.5-0.2,0.7-0.1,0.6-0.6
	c-0.1-0.7-0.3-1.4-0.5-2.1c-0.5-2-1.2-4.1-2.2-6c-0.2-0.5-0.3-0.8-0.8-0.8c-0.5,0-1.1,0-1.6,0c-1.6,0-3.1,0-4.7,0
	C66.6,60.7,65.6,60.7,64.6,60.7z"/>
<path fill="#E2E2E3" d="M71.6,61c0.7,1.3,0.9,2.9,1.1,4.4c0.1-0.5,0.1-1.1,0.1-1.7c0-0.7-0.2-1.4-0.3-2C72.3,60.8,72.3,60.9,71.6,61
	z"/>
<path fill="#E2E2E3" d="M66.9,61c-0.7,1.3-0.9,2.9-1.1,4.4c-0.1-0.5-0.1-1.1-0.1-1.7c0-0.7,0.2-1.4,0.3-2
	C66.1,60.8,66.2,60.9,66.9,61z"/>
<path fill="#C9CACA" d="M74.5,61.1c-2.1,0-4.3,0-6.4,0c-1.1,0-2.2,0-3.3,0c-0.2,0-0.4,0.1-0.4-0.1c0-0.6,0-1.2,0-1.7
	c2.1,0,4.3,0,6.4,0c1.1,0,2.2,0,3.3,0c0.2,0,0.4-0.1,0.4,0.1C74.5,59.9,74.5,60.5,74.5,61.1z"/>
<path fill="#9DD6E4" d="M70.8,60.2c0,1.5-3.3,1.5-3.3,0C67.5,58.7,70.8,58.7,70.8,60.2z"/>
<path fill="#FFFFFF" d="M68.4,59.2c-0.6,0-1,0.7-0.8,1.3c0.1,0.3,0.5,0.9,0.7,0.5c0.3-0.6,0.7-1.2,1-1.8
	C69,59.2,68.7,59.2,68.4,59.2z"/>
<path fill="#D1D1D2" d="M70.6,59.5c-0.3,0.6-0.6,1.1-0.9,1.7C70.6,61.2,71.3,60.3,70.6,59.5z"/>
<path fill="#E6E6E6" d="M70,59.2c-0.7,0-0.7,0-1,0.6c-0.3,0.5-0.5,0.9-0.8,1.4c0.4,0.1,1.4,0.2,1.6-0.1C70,60.5,71.2,59.2,70,59.2z"
	/>
<path fill="#FFFFFF" stroke="#000000" stroke-miterlimit="10" d="M83.4,33.8c0,4.1-0.9,8.4-3.4,11.7c-2.5,3.3-6.4,4.9-10.5,5
	c-4.1,0.1-8.2-1.4-10.8-4.7C56,42.5,55,38.2,55,34.1c-0.1-8,5.2-16.7,13.9-16.9C77.8,17,83.4,25.8,83.4,33.8z"/>
<path d="M59.5,32.7c-0.8,0,0.5-1.1,0.6-1.2c0.9-0.6,1.9-0.5,2.7,0.2c0.2,0.1,0.3,0.2,0.4,0.4c0,0.2-0.2,0.4-0.4,0.2
	c-0.4-0.4-0.9-0.7-1.4-0.7c-0.5,0-0.9,0.2-1.2,0.4C60.1,32.2,59.7,32.7,59.5,32.7z"/>
<path d="M78.2,32.6c-0.2,0-0.4-0.3-0.5-0.4c-0.3-0.2-0.6-0.4-0.9-0.5c-0.5-0.1-1,0-1.4,0.3c-0.2,0.1-0.5,0.5-0.7,0.5
	c-0.5-0.1,0-0.6,0.1-0.7c0.8-0.6,1.8-0.8,2.7-0.3C77.6,31.4,79,32.6,78.2,32.6z"/>
<path d="M68.9,41.6c-0.3,0-1.4-0.9-1.2-1.3c0-0.3,0.7-1.5,0.9-1.6c0.3-0.5,0.5,0.2,0.3,0.5c-0.2,0.3-0.4,0.7-0.6,1
	c-0.2,0.3,0,0.3,0.3,0.5C68.7,40.9,69.6,41.6,68.9,41.6z"/>
<path fill="#A4A4A5" d="M69,44.8c-1,0-2.1-0.3-2.9-1c-0.4-0.3,0-1,0.5-0.6c0.3,0.2,0.6,0.4,1,0.5c1.3,0.5,2.8,0.2,3.9-0.7
	c0.3-0.2,0.6,0,0.6,0.3c0,0.4-0.5,0.6-0.8,0.8C70.6,44.6,69.8,44.8,69,44.8z"/>
<path fill="#DCDDDD" d="M59.5,41.9c0.5,0,1.5,0.2,1.5,0.8s-1,0.8-1.5,0.8c-0.5,0-1.5-0.2-1.5-0.8S59,41.9,59.5,41.9z"/>
<path fill="#DCDDDD" d="M78.8,41.9c0.5,0,1.5,0.2,1.5,0.8s-1,0.8-1.5,0.8c-0.5,0-1.5-0.2-1.5-0.8S78.3,41.9,78.8,41.9z"/>
<g>
	<path fill="#E8E8E8" d="M67.4,37.5c0,2.4-3.7,3.4-5.5,3.3c-1.9-0.1-4.9-0.7-4.9-3.1c0-2.4,3.5-3.1,5.3-3.1
		C63.9,34.6,67.4,35.1,67.4,37.5z"/>
	<path fill="#898989" d="M62.3,41.1c-1.9,0-4.7-0.4-5.5-2.5c-1.1-3,2.8-4.3,5-4.4c1.9-0.1,5.6,0.5,5.9,3
		C68,39.8,64.3,41.1,62.3,41.1z M62.2,34.9c-1.7,0-5.6,0.8-4.9,3.3c0.5,1.9,3.3,2.2,4.9,2.2c1.6,0,4.6-0.9,4.9-2.8
		C67.5,35.4,63.6,34.9,62.2,34.9z"/>
</g>
<path fill="#C3C4C4" d="M61.2,18.8c-1.7,0.5-3.1,1.8-4.1,3.2c-3.2,4.1-3.6,9.8-3.3,14.9c1.7-5.3,4.5-10.7,8.2-14.8
	c5.4,6.3,13.7,11.1,22.1,11.8c0.3-7.1-3-15.3-10.7-16.7C69.3,16.4,65,17.4,61.2,18.8z"/>
<path fill="#898989" d="M57,37.4c-0.3,0-2.9-0.3-2.2-0.9c0.3-0.2,1.2,0.1,1.5,0.1c0.2,0,0.4,0.1,0.7,0.1
	C57.4,36.8,57.4,37.4,57,37.4z"/>
<g>
	<path fill="#E8E8E8" d="M70.9,37.5c0,2.4,3.7,3.4,5.5,3.3c1.9-0.1,4.9-0.7,4.9-3.1c0-2.4-3.5-3.1-5.3-3.1
		C74.4,34.6,70.9,35.1,70.9,37.5z"/>
	<path fill="#898989" d="M76,41.1c-2,0-5.6-1.4-5.4-3.9c0.2-2.5,3.9-3.1,5.9-3c2.2,0.1,6.1,1.4,5,4.4C80.8,40.8,77.9,41.1,76,41.1
		L76,41.1z M76.1,34.9c-1.5,0-4.9,0.4-4.9,2.5c0,2,3.3,3,4.9,3c1.6,0,4.2-0.3,4.9-2.1C81.9,35.8,77.8,34.9,76.1,34.9z"/>
</g>
<path fill="#898989" d="M81.3,37.4c-0.4,0-0.4-0.6,0-0.7c0.1-0.1,0.4-0.1,0.5-0.1c0.4-0.1,1.1-0.3,1.5-0.2c0.4-0.1,0.4,0.6,0,0.7
	c-0.2,0-0.4,0.1-0.7,0.1C82.2,37.3,81.7,37.4,81.3,37.4z"/>
<path fill="#898989" d="M70.9,37.8c-0.4,0-0.9-0.3-1.4-0.4c-0.4-0.1-0.9-0.1-1.3,0c-0.2,0.1-0.4,0.1-0.6,0.2
	c-0.4,0.2-0.7-0.2-0.4-0.5c0.4-0.3,0.9-0.4,1.4-0.5c0.6,0,1.1,0,1.7,0.2c0.2,0.1,0.7,0.1,0.9,0.4C71.3,37.5,71.2,37.8,70.9,37.8z"/>
<path fill="#EFEFEF" d="M84.1,29.3c-0.4,2.7-0.4,6.1,1,8.5c0.9,1.5,2.2,3.5,1.7,5.4c-0.6,1.9-2.3,2.3-4,2.1c0.8,0.5,1.9,0.8,2.8,0.6
	c2-0.6,2.8-3.4,2.3-5.3c-0.4-1.7-1.7-2.9-2.3-4.5C84.9,33.9,84.2,31.5,84.1,29.3z"/>
<path fill="#FFFFFF" d="M84.1,45.5c-0.4,2-2.1,3.1-4.1,2.3C81.9,49.7,85.2,48.1,84.1,45.5z"/>
<path fill="#EFEFEF" d="M52.5,32.2c0.2,1,0.3,2.1,0.2,3.2c-0.1,1-0.3,2-0.7,3c-0.4,1-1.2,1.9-1.6,2.9c-0.6,1.5-0.7,3.6,1,4.4
	c1.3,0.6,3.2,0.5,4.5-0.2c-1.9,0-4.9-0.5-4.6-3c0.2-1.8,1.7-3,2-4.7C53.5,36,53.4,33.8,52.5,32.2z"/>
<path fill="#FFFFFF" d="M57,45.4c-0.5,1-0.9,2-1,3.1c-0.1,2,1.8,2.2,3.2,1.3c0,0.3-1.4,0-1.5-0.1C56.3,49,56.7,46.6,57,45.4z"/>
<path fill="#EFEFEF" d="M59.5,18.2c0,0-6,2.7-6.2,12.3C53.4,30.5,55.5,22.4,59.5,18.2z"/>
<path fill="#EFEFEF" d="M63,17.9c0,0,5.8,9.6,19,13.3C82,31.3,71.8,26,63,17.9z"/>
<path fill="#EFEFEF" d="M66,16.8c0,0,9.7,7.6,16.1,12.1C82.1,28.9,77.5,21.8,66,16.8z"/>
<path fill="#EFEFEF" d="M67.1,14.8c0,0,11.8,0,15.8,11.4C82.9,26.2,78.4,18.4,67.1,14.8z"/>
<path d="M61.9,35.8c2.3,0,2.3,3.9,0,3.9S59.7,35.8,61.9,35.8z"/>
<path d="M76.4,35.6c2.3,0,2.3,3.9,0,3.9S74.2,35.6,76.4,35.6z"/>
<g>
	<path fill="#DBDBD8" d="M68,51.1c0.5,0,0.5,0.8,0,0.8S67.5,51.1,68,51.1z"/>
	<path fill="#DBDBD8" d="M67.3,50.8c0.5,0,0.5,0.8,0,0.8S66.9,50.8,67.3,50.8z"/>
	<path fill="#DBDBD8" d="M66.7,50.3c0.5,0,0.5,0.8,0,0.8S66.3,50.3,66.7,50.3z"/>
	<path fill="#DBDBD8" d="M68.7,51.4c0.5,0,0.5,0.8,0,0.8S68.2,51.4,68.7,51.4z"/>
	<path fill="#DBDBD8" d="M70.8,51.1c0.5,0,0.5,0.8,0,0.8S70.3,51.1,70.8,51.1z"/>
	<path fill="#DBDBD8" d="M71.5,50.8c0.5,0,0.5,0.8,0,0.8S71,50.8,71.5,50.8z"/>
	<path fill="#DBDBD8" d="M72.1,50.2c0.5,0,0.5,0.8,0,0.8S71.6,50.2,72.1,50.2z"/>
	<path fill="#DBDBD8" d="M70.1,51.4c0.5,0,0.5,0.8,0,0.8S69.7,51.4,70.1,51.4z"/>
	<path fill="#DBDBD8" d="M69.4,51.5c0.5,0,0.5,0.8,0,0.8S68.9,51.5,69.4,51.5z"/>
</g>
</svg>
