<?xml version="1.0" encoding="utf-8"?>
<!-- Generator: Adobe Illustrator 17.1.0, SVG Export Plug-In . SVG Version: 6.00 Build 0)  -->
<!DOCTYPE svg PUBLIC "-//W3C//DTD SVG 1.1//EN" "http://www.w3.org/Graphics/SVG/1.1/DTD/svg11.dtd">
<svg version="1.1" id="Ebene_1" xmlns="http://www.w3.org/2000/svg" xmlns:xlink="http://www.w3.org/1999/xlink" x="0px" y="0px"
	 width="100px" height="100px" viewBox="0 0 100 100" enable-background="new 0 0 100 100" xml:space="preserve">
<circle fill="#B2B2B2" cx="50" cy="50" r="50"/>
<path fill="#FFFFFF" d="M54.4,45c-3.8-2.6-7.1,1.6-8.9,4.6c-1.2,1.9-1.8,4-2.1,6.3c-0.4,2.1-0.7,4.2-1,6.3
	c-0.4,3.9-0.6,9.7,4.1,11.1c1.8,0.5,3.9,0.3,5.7,0.4c0.9,0,1.8,0,2.6,0c6.5,0,13-0.2,19.5-0.3c1.9,0,3.9-0.1,5.8-0.1
	c0.4,0,0.2-1.9,0.2-2.2c0.1-5.3-0.2-10.6-1.4-15.8C78,50.8,76,44.3,70.6,44c-2.3-0.1-4.8,0.5-7.1,0.8c-1.9,0.2-3.8,0.3-5.7,0.4
	C56.7,45.2,55.5,45.3,54.4,45z"/>
<path fill="#DADBDB" d="M17.9,77c1.1,0.3,2.4-1.8,1-2.2C17.8,74.4,16.6,76.7,17.9,77z"/>
<path fill="#DADBDB" d="M18.2,81.4c1.3-0.6,1.1-3.4-0.4-2.3C17,79.7,16.7,82.1,18.2,81.4z"/>
<path fill="#DADBDB" d="M29.2,79.3c0,1.8-2,0.5-1.8-0.8C27.7,76.8,29.2,78.3,29.2,79.3C29.2,79.4,29.2,78.2,29.2,79.3z"/>
<path fill="#9FA0A0" d="M22.4,63.6c-2.9,2.6-5.8,6-7,9.8c1.7-1.6,3.3-3.3,5-4.9c0.5-0.5,0.9-0.8,1.1-1.5
	C21.8,65.8,22.1,64.7,22.4,63.6z"/>
<path fill="#9FA0A0" d="M53.1,54.6c-4.4-1.7-9.2-3.1-14-3.4c-3.6-0.2-7.3,0.7-10.6,2.2c-3.2,1.4-6.3,3.6-8.3,6.5
	c1.5-0.4,2.6-1.3,3.9-2.1c1.7-1,3.4-2.2,5.2-2.9c2.4-0.9,5.1-1.7,7.7-1.9c2.2-0.1,4.5,0.2,6.7,0.2c-2.7,1.3-5.3,2.8-8.1,4
	c-0.5,0.2-0.2,1.4-0.1,1.8c0.1,0.7,0,0.7-0.3,1.3c-0.8,1.4-1.7,2.7-2.5,4.1c2.5-1.3,5.1-2.6,7.6-3.8c-4.2,4-7.8,9.4-9,15.2
	c2.2-3.1,4.5-6.3,6.7-9.4c-0.3,2.2-0.7,4.4-1,6.6c1.7-3.7,3.6-7.5,6.4-10.5c1.9-2,3.8-3.8,6.5-4.5c0.4-0.1,1.1,0,1.4-0.4
	c0.2-0.4,0.4-0.7,0.6-1.1C52.4,55.9,52.7,55.3,53.1,54.6z"/>
<path fill="#9FA0A0" d="M66.4,57.8c2.4,0.8,4.9,1.5,7.3,2.3c-0.1,0.3-0.9,1.6-0.7,1.8c0.4,0.3,0.7,0.6,1.1,0.8
	c0.3,0.3,0.3,0.2,0.1,0.6c-0.1,0.2-1,1.8-1.1,1.8c-0.6-0.3-1.1-0.6-1.7-0.9c-1.7-1-3.4-1.9-5.1-2.9c-0.5-0.3-0.4-0.4-0.3-1
	C66.2,59.4,66.3,58.6,66.4,57.8z"/>
<path fill="#FEF9FC" d="M73.8,16.6c-0.2-0.8-0.1-1-0.9-1.2c-1.2-0.4-2.5-0.8-3.8-1c-2.5-0.5-5-0.8-7.5-0.8c-2.5,0-5,0.3-7.5,0.8
	c-1.3,0.3-2.6,0.6-3.8,1.1c-0.3,1-0.3,1.2-1.1,1.8C57.3,15.5,65.6,15.7,73.8,16.6z"/>
<path fill="#D3D3D4" d="M82.2,24.2c0.4-0.3-0.8-1.9-1.1-2.3c-0.6-0.9-1.4-1.6-2.2-2.3c-1.3-1-2.7-1.9-4.1-2.6
	c-0.3-0.1-0.6-0.3-0.9-0.4c-0.3-0.1,0.4-0.1-0.5-0.2c-0.9-0.1-1.8-0.2-2.7-0.3c-3.2-0.3-6.4-0.4-9.6-0.3c-3.2,0.1-6.4,0.3-9.6,0.8
	c-0.8,0.1-1.5,0.2-2.3,0.4c-0.3,0.2-0.6,0.4-0.8,0.6c-0.8,0.6-1.6,1.2-2.4,1.8c-1.4,1.1-2.9,2.1-4.1,3.4c-0.1,0.1-0.3,0.3-0.4,0.5
	c-0.4,0.9,1,0.1,1.3,0c1.4-0.5,2.8-1,4.2-1.4C58.5,18.8,71.3,19.1,82.2,24.2z"/>
<path fill="#9FA0A0" d="M41.6,23.9c0.8,1.3,2.9,1.9,4.2,2.4c0.5,0.2,0.8,0.3,1.2,0.3c1.8,0,3.7,0,5.5,0c6.2,0,12.5-0.1,18.7-0.1
	c2.1,0,4.1,0,6.2,0c0.5,0,0.7-0.1,1.1-0.3c1.2-0.6,2.4-1.2,3.6-1.9C69.6,18.3,54.4,18.8,41.6,23.9C42.4,25.1,54.4,18.8,41.6,23.9z"
	/>
<path fill="#D3D3D4" d="M73.6,15.6c-0.2-0.8-0.2-1.6-0.6-2.4c-0.6-1.1-1.6-2-2.7-2.5c-2.1-1.1-4.5-1.5-6.8-1.6
	c-2.2-0.1-4.5,0.1-6.7,0.5c-1.4,0.3-3,0.6-4.1,1.6c-1.2,1.1-1.9,2.7-2.4,4.2C57.8,12.8,66.2,12.9,73.6,15.6z"/>
<path fill="#DADBDB" d="M35.8,59.2c0.3-0.7,1.8-1.6,2.5-0.9c0.8,1-0.9,2-1.8,1.6c0.1,1.7-1.5,2.4-2.3,3.7c-0.3,0.5-0.6,1.2-1.2,1.5
	c-0.4,0.2-0.7,0-0.7,0.5c0,0.3,0,0.7-0.2,1c-0.5,0.7-1.4,0.4-2.1,0.2c-0.3-0.1-0.7-0.2-1.1-0.1c0,0.5,0.1,1,0,1.5
	c-0.1,0.4,0.1,0.2,0.4,0.5c0.2,0.2,0.4,0.5,0.4,0.8c0.1,0.6,0,1.3-0.7,1.6c0.5,0.7,0.4,1.7-0.2,2.3c-0.4,0.4-0.6,0.2-0.4,0.8
	c0.1,0.4,0.2,0.8,0.2,1.2c0,0.8-0.7,1.4-1.3,0.7c-0.6-0.6-0.9-1.5-1.3-2.2c0,0.7-0.4,1.6-0.2,2.3c0.1,0.3,0.1,0.4,0,0.8
	c-0.1,0.3,0.1,0.6,0.2,0.9C26,78.2,26,78.6,26,79c0,0.3-0.3,0.7-0.2,0.9c0.3,0.3,0.5,0.8,0.5,1.2c0.1,0.7-0.2,2.3-1.2,1.5
	c-0.8-0.6-2-2.3-1-3.2c-1.3-0.5-1.1-1.9-0.3-2.8c0.2-0.3,0-0.7,0.1-1c0-0.4,0.2-0.8,0.3-1.1c-0.6-0.6-0.7-1.4-0.7-2.1
	c-0.3,0.1-0.7,0.2-0.9-0.1c0.3,0.8-0.2,1.8-1,2.1c0.6,0.5,0.7,1.4,0.7,2.1c0,1-0.1,1.9-0.1,2.9c0,0.2,0,0.5-0.1,0.7
	c-0.1,0.5-0.1,0.3,0.1,0.6c0.2,0.3,0.3,0.7,0.3,1c0.1,0.8,0,1.5-0.1,2.3c-1.8,0-1.9-2.9-2-4c-0.2-2.1-0.5-4.3-0.2-6.4
	c0.1-0.9,0.3-1.7,0.8-2.5c0.2-0.3,0-0.5,0-0.9c0-0.4,0.1-0.8,0.1-1.2c0.3-2-0.3-3.8,1.6-5.1c0.8-0.6,0.9-1.3,1.3-2.1
	c0.4-1,1.4-1.5,2.2-2c0.9-0.6,1.5-1.4,2.4-2c0.4-0.2,0.8-0.5,1.2-0.7c0.4-0.2,0.9-0.1,1.3-0.3c0.4-0.2,0.5-0.6,0.8-0.9
	c0.4-0.3,1-0.3,1.5-0.5c0.7-0.2,1.5-0.3,2.1,0.1C36.8,56.3,36.3,58.1,35.8,59.2C36.1,58.6,36.9,57,35.8,59.2z"/>
<path fill="#EFEFEF" d="M57.4,53.4c-0.2-1.1-1-1.7-2.1-1.3c-2,0.8-3.6,2.8-4,4.9c-0.2,1.2-0.2,2.6,0.8,3.4c1.6,1.4,4,1.8,5.9,2.4
	c1.9,0.6,4.8,1.9,6.8,0.7c1.8-1.1,2-3.9,2.1-5.8c0-0.7,0.1-1.9-0.6-2.3c-0.6-0.4-1.7,0-2.3,0.3c0.1-0.6,0-1.3-0.2-1.9
	c-0.4-1.2-1.6-1-2.5-0.5c0,0-0.8-0.9-0.9-1C59.4,51.9,58.2,52.7,57.4,53.4z"/>
<path fill="#EFEFEF" d="M49,21.7c-0.1,0.6-0.2,2.5-0.8,2.6c-1.5,0.3-3,1.3-3.3,2.9c-0.2,1.4-0.5,3.1,0.7,4.2c0.7,0.7,1.7,1,2.6,1.3
	c0.4,0.1,0.7,0,0.6,0.4c-0.1,0.5-0.1,0.9-0.2,1.4c-0.2,2.2-0.2,5.2,0.9,7.3c2,3.8,7.6,3.8,11.3,3.8c2.1,0,4.2,0,6.3-0.4
	c1.5-0.2,3.2-0.6,4.5-1.4c1.1-0.7,1.3-1.9,1.6-3.2c0.4-1.8,0.6-3.6,0.9-5.5c0.1-0.7,0.2-1.3,0.2-2c0-0.1,0-0.7,0.1-0.8
	c0.1-0.1,0.7-0.2,0.9-0.3c0.7-0.3,1.4-0.6,2-1.1c1.4-1,2.4-2.6,1.8-4.3c-0.5-1.5-2.3-2.5-3.7-1.5c0-1-0.1-1.9-0.1-2.9
	c0-0.7,0-0.7-0.6-0.9c-2-0.5-4.1-0.9-6.1-1.1C62.2,19.4,54.8,18.9,49,21.7z"/>
<g>
	<path fill="#040000" d="M48.9,28.4c-0.6-0.4-1.2-0.7-1.9-0.6c-0.4,0-1.8,0.4-1.1,1.1c0.4,0.3,1.3-0.1,1.9,0.1
		c0.3,0.1,0.6,0.5,1,0.4C49.1,29.1,49.2,28.6,48.9,28.4C48.1,27.7,49.1,28.5,48.9,28.4z"/>
	<path fill="#040000" d="M76.7,27.9c-0.6,0.1-1.1,0.3-1.5,0.6c-0.3,0.3-0.8,1.1,0,1.2c0.5,0.1,0.9-0.7,1.3-0.8
		c0.3-0.1,0.6,0,0.7-0.3C77.4,28.3,77.1,27.9,76.7,27.9C75.9,28,77,27.9,76.7,27.9z"/>
	<path fill="#040000" d="M62.9,35.5c2.7-0.9,1.6-4.9-1.1-4.5C58.7,31.4,59.9,36.5,62.9,35.5C64,35.1,62.1,35.8,62.9,35.5z M61,32.7
		c0.5-1.5,2.6-0.5,2.5,0.9C63.3,35.3,60.4,34.6,61,32.7C61.2,32.3,60.8,33.2,61,32.7z"/>
	<path fill="#040000" d="M70.8,35.9c-0.5,0-0.6,1-1,1.4c-0.6,0.5-1.3,0.8-2.1,1c-2.2,0.7-4.5,0.9-6.8,0.8c-1.8-0.1-4.1-0.3-5.6-1.4
		c-0.3-0.2-0.5-0.4-0.6-0.7c-0.2-0.3-0.1-0.7-0.4-0.9c-1.2-0.5-0.5,1.4-0.2,1.8c1,1.3,2.9,1.7,4.4,2c1.9,0.3,3.8,0.4,5.7,0.2
		c1.7-0.2,3.5-0.5,5.1-1.2c0.6-0.3,1.2-0.6,1.6-1.2C71.2,37.3,71.8,35.9,70.8,35.9z"/>
	<path fill="#040000" d="M62.1,48.3c-1.8,0.3-2,3.3-0.1,3.5C64.6,52.2,64.6,47.9,62.1,48.3C61.1,48.5,62.7,48.2,62.1,48.3z
		 M62.9,50.4c-0.4,0.9-1.4,0.3-1.2-0.5C62,48.8,63.3,49.5,62.9,50.4C62.8,50.7,63.1,50.1,62.9,50.4z"/>
	<path fill="#040000" d="M22.9,81.8c0.2-0.5-0.1-1.1-0.3-1.6c-0.3-0.5-0.1-0.5,0-1c0.1-0.5,0.1-1-0.1-1.5c-0.2-0.5,0.1-1,0.1-1.5
		c0-0.5-0.1-1.1-0.2-1.6c-0.1-0.5,0.4-0.5,0.6-0.9c0.2-0.5,0.2-1,0.1-1.5c-0.1-0.5-0.7-0.6-1-0.1c-0.2,0.3,0,0.7,0,1.1
		c-0.1,0.5-0.4,0-0.7,0.3c-0.4,0.3,0,1.2,0.1,1.6c0.1,0.5,0.2,1,0.1,1.5c-0.1,0.4-0.6,0.7-0.2,1.1c0.3,0.3,0.3,0.8,0.3,1.2
		c0,0.3-0.2,0.2-0.4,0.4c-0.2,0.2,0,0.6,0.1,0.8c-0.6-0.6-0.7-1.4-0.4-2.2c0.1-0.2,0.3-0.4,0.3-0.7c0-0.4-0.3-0.3-0.3-0.7
		c0-0.6-0.1-1.2-0.1-1.8c-0.1-1.2,0.4-2.4,0.7-3.5c0.4-1.5,0.3-2.9,0.5-4.4c0.2-1.5,1.5-2.1,1.9-3.5c0.1-0.2,0-1,0.3-1
		c0.4,0,1-0.5,0.5-0.9c0.2-0.8,2.2-1.1,2.8-1.5c0.5-0.4,0.7-0.9,0.9-1.4c0.2-0.5,0.8,0.2,1.1-0.1c0.3-0.2,0.1-0.8,0.6-0.8
		c0.4,0,1.1,0.5,1.2-0.2c0.1-0.7,0.5-0.4,1-0.4c0.7,0,0.2-0.8,1-0.7c0.2,0,0.6,0.1,0.9,0.1c0.4,0,0.4-0.6,0.9-0.5
		c0.6,0,0.7,0.9,1.3,0.7c0.8-0.2,0.1-1.2-0.3-1.4c-0.4-0.3-1-0.4-1.6-0.2c-0.5,0.2-0.6,0.4-1.1,0.4c-0.6,0-1.1,0.1-1.4,0.6
		c-0.8-0.1-1.1,0.8-1.7,0.7c-0.6,0-1.1,0.2-1.3,0.8c-0.6-0.1-1.1,0.1-1.3,0.6c-0.3,0.6-0.4,1-1,1.3c-0.6,0.3-1.2,0.5-1.8,0.7
		c-1.3,0.6-1.2,1.9-2.2,2.7c-0.8,0.7-1.6,1.5-2.3,2.3c-2.3,2.6-4.6,5.7-5.7,9c-0.4,1,0.4,1.4,1.1,0.8c2.1-1.7,3.6-4.3,5.2-6.4
		c0,1.2-0.2,2.2-0.6,3.3c-0.3,0.9-0.7,2-0.6,3c0,0.7,0.1,1.4,0.1,2c0,0.3-0.2,0.5-0.1,0.7c0,0.1,0.1,0.2,0.2,0.3
		c-0.1,0.4-0.2,0.7-0.2,1.1c0,0.5,0.1,1,0.3,1.4c-0.2,0.5-0.2,1.1-0.1,1.7c0.1,0.5,0.2,1,0.4,1.5c0.2,0.5,0.7,0.3,0.8,0.6
		c0.2,0.4,0.6,1.6,1.2,0.9c0.3-0.4,0.6-0.9,0.7-1.4c0-0.2,0-0.4,0-0.6C22.9,82.2,22.8,82.2,22.9,81.8C23,81.7,22.9,81.9,22.9,81.8z
		 M20.5,66.8c-1.4,1.9-2.8,3.8-4.3,5.6c1.3-2.6,3-5.1,5-7.2C21.1,65.4,21,65.7,21,66c0,0.2-0.1,0.4-0.1,0.6
		C20.7,66.6,20.6,66.7,20.5,66.8C19,68.8,20.6,66.7,20.5,66.8z M19.8,76.8c0-0.1,0.1-0.1,0.2-0.1C19.9,76.6,19.8,76.7,19.8,76.8z
		 M22,83.1c-0.1-0.3-0.3-0.7-0.6-0.7c-0.4,0-0.4-0.5-0.4-0.9c-0.1-0.4-0.2-0.6,0.2-0.8c0.3-0.1,0.4-0.4,0.2-0.7
		c0.2,0.4,0.5,0.7,0.6,1.1C20.6,81,22,82.9,22,83.1C21.9,83,22,83.1,22,83.1z"/>
	<path fill="#040000" d="M30.3,64.7c0.7-0.2,1.1-1,1-1.7c-0.1-0.6,0.8-1,0.4-1.8C31.5,60.6,30,60.1,30,61c0,0.5,1.2,0.5,0.6,0.9
		c-0.3,0.1-0.5,0.1-0.6,0.4c-0.1,0.4,0.4,0.5,0.4,0.9c0,0.8-1,0.1-1.3,0.6c-0.3,0.5,0.9,1.3-0.2,1.6c-0.3,0.1-0.6-0.2-0.8,0.2
		c-0.3,0.4,0.1,0.5,0.1,0.9c-0.4,0.3-1-0.1-1.4-0.1c-0.4,0.1-0.6-0.6-1.1-0.3c0.1-0.5-0.6-0.6-0.4-1.2c0.1-0.3,0.4-0.4,0.3-0.7
		c-0.1-0.4-0.6-0.5-0.9-0.2c-0.4,0.4-0.6,1-0.4,1.6c0.1,0.4,0.3,0.3,0.1,0.7c-0.3,0.4-0.5,0.8-0.7,1.2c-0.1-0.4-0.6-1.3-1.2-1.1
		c-0.8,0.3,0.2,1.2,0.2,1.7c0,0.6-1.1,1.2-0.8,1.7c0.4,0.8,1.4-0.3,1.6-0.8c0,0.1,0.1,0.2,0.2,0.3c-0.2,0.2-0.4,0.5-0.4,0.8
		c-0.1,0.5,0,0.9,0,1.4c0.1,0.6,0,1.1,0,1.7c0,0.4,0.1,0.9,0.3,1.3c-0.3,0.5-0.3,1.1-0.2,1.7c0.1,0.5,0.3,1.1,0.6,1.6
		c0.4,0.5,1.1,0,0.8-0.5c0.5,0.6,0.6,1.7-0.3,1.8c-1,0-0.7,1.8-0.1,2.2c-0.3,0.8,0.1,1.6,1,1.7c1,0.1,1.5-1,1.6-1.9
		c0.1-0.5,0-1.1-0.2-1.5c-0.1-0.2-0.2-0.3-0.3-0.4c-0.3-0.3-0.1-0.3-0.1-0.7c0-0.5-0.2-1-0.5-1.5c0.3-0.5,0.3-1,0.3-1.6
		c0-0.3,0-0.9-0.3-1.2c-0.3-0.3-0.9-0.1-0.9,0.4c0,0.4,0.2,0.8,0.2,1.2c0,0.7-0.5,0.4-0.6,0.9c-0.1-0.3-0.1-0.6-0.2-0.8
		c0-0.5,0.2-0.6,0.4-1c0.2-0.5-0.4-0.6-0.5-1.1c-0.1-0.8,0-1.5,0-2.3c0-0.4-0.2-1,0.2-1.3c0.3-0.2,1.4-0.7,0.6-1.2
		c-0.5-0.3-0.6-0.2-0.4-0.8c0.2-0.6,0.5-1.2,0.9-1.6c0,0.4,0.4,0.8,0.4,1.3c0,0.5-0.6,1.1-0.5,1.6c0.2,0.8,0.9,0.2,1.2-0.1
		c0.3-0.5,0.4-1.2,0.4-1.8c0.7,0.3,2.1,0.2,2.3-0.7c0.1-0.5,0.3-0.3,0.7-0.7C30.2,65.7,30.4,65.2,30.3,64.7
		C30.7,64.6,30.3,64.7,30.3,64.7z M25.4,82c0-0.1,0-0.2,0-0.2c0,0.1,0.1,0.2,0.1,0.3C25.5,82,25.5,82,25.4,82z M25.4,79.8
		c0.6-0.1,0.8,1.2,0.4,1.3c0.1-0.3-0.1-0.6-0.5-0.6c-0.1,0-0.4,0.2-0.4-0.1C24.9,79.8,25.1,79.9,25.4,79.8
		C25.6,79.8,25.3,79.8,25.4,79.8z"/>
	<path fill="#040000" d="M29.3,68.2c-0.3-0.2-0.8,0-0.8,0.4c0,0.4,0.5,0.5,0.5,0.9c0,0.7-1.3,0.7-0.9,1.4c0.4,0.7,0.4,1.6-0.2,2.1
		c-0.3,0.3,0,0.8,0.1,1.2c0,0.4,0.1,1-0.2,1.3c-0.5-0.4-0.8-1.2-0.7-1.9c0.1-0.3,0.2-0.6,0.4-0.9c0.3,0.1,0.6-0.1,0.6-0.5
		c0-0.5-0.7-0.9-0.8-1.4c-0.2-0.8,0.8-0.4,0.8-1.1c0-0.3-0.3-0.4-0.3-0.7c0-0.3,0.3-0.3,0.4-0.5c0.4-0.8-0.7-0.8-1.1-0.4
		c-0.4,0.5-0.1,1.2-0.5,1.5c-0.5,0.5-0.5,1.3-0.3,1.9c0.2,0.5,0.3,0.4,0.1,0.9c-0.2,0.4-0.4,0.8-0.4,1.3c-0.1,0.8,0.2,1.5,0.6,2.2
		c0.6,0.9,1.7,1.2,2.1-0.1c0.2-0.7,0.2-1.5,0-2.2c0.5-0.5,0.6-1.2,0.5-1.8c0-0.3-0.1-0.6-0.2-0.9c0.3-0.2,0.6-0.5,0.7-0.9
		C30.2,69.4,29.9,68.6,29.3,68.2C29.1,68.1,29.8,68.5,29.3,68.2z"/>
	<path fill="#040000" d="M28.9,60.1c0.8,0.2,0.7-1.2-0.4-1c-0.7,0.1-1,0.8-0.9,1.4c0.1,0.4,0.4,0.6,0.2,1c-0.2,0.3-0.3,0.7-0.2,1
		c0,0.2,0.1,0.3,0.2,0.5c-0.1,0.2-0.2,0.3-0.3,0.5c-0.1,0.3-0.2,0.7-0.2,1.1c0,1.1,1,1,1-0.1c0-0.3,0-0.8,0.3-0.9
		c0.3-0.1,0.4-0.6,0.2-0.8C28,62,29.3,62,29.3,61.3C29.3,61.1,28,60,28.9,60.1z"/>
	<path fill="#040000" d="M25.2,62.6c-0.7-0.4-1,0.9,0,1.1c0.9,0.1,1.5-0.7,1.6-1.5c0-0.4,0-0.7-0.2-1.1c-0.2-0.4-0.8-0.7-1-0.1
		C25.6,61.1,26.2,63.2,25.2,62.6C25,62.5,25.4,62.7,25.2,62.6z"/>
	<path fill="#040000" d="M18.1,80.3c-0.1,0.1,0-0.3,0-0.4c0.2-0.3,0.6-0.3,0.6-0.7c0-1.1-1.3-0.1-1.5,0.4C17,80.2,17,81,17.7,81.3
		c0.4,0.1,1,0,1.2-0.4C19.1,80.5,18.5,80,18.1,80.3C18.1,80.3,18.3,80.1,18.1,80.3z"/>
	<path fill="#040000" d="M28.8,77.6c-0.4-0.3-1.7-0.8-2-0.2c-0.6,1.1,1.7,0.3,1.2,1.4c-0.4-0.1-0.8-0.9-1.2-0.2
		c-0.3,0.5,0.4,1,0.8,1.2c0.5,0.2,0.9,0.1,1.2-0.4C29,79,29.3,77.9,28.8,77.6C28.3,77.3,28.9,77.7,28.8,77.6z"/>
	<path fill="#040000" d="M56.5,29.3c1.3,0,1.3-4.1,0-4.1C55.2,25.2,55.2,29.3,56.5,29.3z"/>
	<path fill="#040000" d="M68.3,29.6c1.3,0,1.3-4.1,0-4.1C67.1,25.5,67.1,29.6,68.3,29.6z"/>
	<path fill="#040000" d="M83,24.3c0-0.8-1.2-2-1.6-2.5c-1.4-1.7-3-3.1-4.8-4.3c-0.5-0.3-1.1-0.6-1.7-0.9c-0.4-0.2-0.3-0.3-0.3-0.6
		c-0.1-0.7-0.2-1.3-0.5-2c-0.6-1.7-1.7-3.2-3.3-4c-2-1-4.6-1.1-6.8-1.2c-2.3-0.1-4.7,0-6.9,0.3c-1.9,0.3-3.7,0.9-5.1,2.3
		c-0.7,0.8-1.3,1.7-1.7,2.7c-0.2,0.5-0.3,1.1-0.5,1.6c-0.1,0.6-0.1,0.6-0.6,0.9C47,18,44.8,19.4,42.8,21c-0.8,0.6-1.7,1.4-2.1,2.4
		c-0.4,1.1,3,2.5,3.8,2.8c-0.8,1.7-1,4.4,0.7,5.8c0.7,0.6,1.7,0.9,2.7,0.9c0.3,0,0.2,1.3,0.2,1.6c0.1,1.8,0.2,3.5,0.5,5.3
		c0.3,1.6,0.8,3.4,2.1,4.4c-2.1,0.1-3.5,2.1-4.6,3.6c-0.6,0.8-1.1,1.7-1.6,2.6c-0.2,0.4-0.2,0.9-0.8,0.9C43,51.1,42.1,51,41.3,51
		c-3.9-0.3-7.8,0.1-11.5,1.5c-4.5,1.7-8.4,4.7-11.3,8.6c-0.3,0.4-1.1,1.1-1.1,1.7c0,0.5,0.6,0.7,0.9,0.4c0.2-0.3,0.5-0.5,0.7-0.7
		c1.4-1.3,2.9-2.5,4.5-3.6c5.7-3.7,12.5-5.6,19.3-4.9c-1.8,0.5-3.7,1.1-5.4,2c-0.3,0.2-0.7,0.3-1,0.5c-0.1,0-0.1,0.1-0.2,0.1
		c-0.1,0.1-0.2,0.3-0.2,0.5c-0.2,0.1-0.3,0.3-0.3,0.5c0.1-0.8-0.6-1.6-1.4-1.1c-0.3,0.1-0.7,0.3-0.7,0.6c0,0.6,0.6,0.5,1,0.3
		c0.2,0.6-0.8,1-1.1,1.2c-0.3,0.2-0.3,0.6,0,0.8c0.3,0.2,0.6,0,0.9-0.2c-0.2,0.5-0.9,0.7-0.9,1.2c0,1.1,1.2-0.1,1.5,0.3
		c0.4,0.4-0.8,1.4,0.2,1.6c1,0.2,1.1-1.5,0.7-2c0.1,0,0.2-0.1,0.3-0.2c0.4,0.7,1.6,0.7,2.2,0.3c0.3-0.2,0.5-0.7,0.8-0.6
		c0.2,0,0.3-0.1,0.5-0.1c1-0.3,1.9-0.5,2.9-0.8c-0.4,0.3-0.8,0.5-1.2,0.8c-0.2-0.4-0.7-0.2-1,0c-0.8,0.4-1.6,0.9-2.4,1.3
		c-1.2,0.7-2.3,1.4-3.4,2.2c0.3-0.7-0.1-1.8-1-1.7c-1.3,0.1-0.7,1.7,0.1,1c0.5,0.5-1.2,0.8-1.3,1c-0.1,0.4,0.3,0.6,0.2,1
		c-0.2,0.5-0.5,0.1-0.8,0.3c-0.5,0.2-0.1,0.6-0.1,1c0.1,0.7-0.4,0.6-0.8,0.8c-0.5,0.2-0.4,0.9,0.1,1c0.6,0.1,1.2-0.2,1.5-0.7
		c0.2-0.3,0.3-0.7,0.3-1.1c0.2-0.1,0.7-0.2,0.9-0.4c0.2-0.2,0.4-0.4,0.6-0.5c1.5-1.2,3.1-2.2,4.8-3.2c-4.4,3.8-7.3,9.1-8.5,14.8
		c-0.1,0.7-0.6,2-0.4,2.7c0.2,0.5,0.8,0.3,1-0.1c0.2-0.6,0.5-1.3,0.8-1.9c1.4-3.2,3.2-6.2,5.3-8.9c-0.5,1.8-1,3.7-1.2,5.7
		c-0.1,0.5-0.4,1.9,0.1,2.2c0.9,0.6,1.3-1.9,1.4-2.4c0.4-1.2,0.8-2.3,1.3-3.4c0.8-1.8,1.8-3.4,2.9-5c-0.3,3.1,0.4,6.4,3.2,8.2
		c0.9,0.6,1.9,0.9,3,1c1.2,0.1,2.4-0.2,3.6-0.2c0.5,0,0.9,0,1.4,0c5.8,0,11.5-0.1,17.3-0.1c2.2,0,4.4,0,6.6,0c0.4,0,0.7,0,1.1,0
		c0.3,0,0.7,0,1,0c0.4,0,0.9,0.1,1.2,0.1c0.7-0.1,0.4-1.9,0.5-2.4c0.1-2.6-0.2-5.1-0.5-7.7c-0.3-2.8-0.4-5.5-0.7-8.3
		c-0.4-2.6-1-5.3-2.2-7.6c-1-2-2.5-3.9-4.8-4.2c1.4-1,1.7-3.5,1.9-5.1c0.3-1.7,0.4-3.5,0.5-5.2c0-0.2,0-0.5,0-0.7
		c0.3,0,0.6-0.1,0.9-0.2c0.7-0.2,1.4-0.5,2-1c1.6-1.2,2.5-3.7,1.5-5.6C80,25.9,83,25.4,83,24.3z M35.5,59.3c0,0.1-0.1,0.2-0.1,0.3
		c0.1,0,0.1-0.8,0-1c-0.2-0.5,0.2-0.7,0.3-1.2c0,0.4,0.4,0.5,0.3,0.9C36,58.7,35.8,59.1,35.5,59.3C35.5,59.4,35.8,59,35.5,59.3z
		 M54.8,10.7c1.2-0.5,2.5-0.6,3.8-0.7c1.9-0.2,3.8-0.2,5.8-0.1c1.9,0.1,4,0.2,5.7,1c1.6,0.7,2.6,2.1,3.1,3.7
		c-4-1.5-8.5-1.6-12.7-1.3c-3.1,0.2-6.3,0.6-9.3,1.3C51.8,12.8,53.1,11.4,54.8,10.7C57.1,9.8,53.1,11.4,54.8,10.7z M50.8,15.7
		c2.9-0.7,5.9-1.1,8.9-1.3c2.4-0.2,4.8-0.2,7.2,0c1.2,0.1,2.4,0.3,3.5,0.5c0.6,0.1,1.2,0.3,1.8,0.5c0.2,0.1,0.5,0.2,0.7,0.3
		c0.5,0.2,0.5,0.1,0.5,0.7c-7.4-1.7-15.4-1.3-22.8,0C50.7,16.1,50.7,15.9,50.8,15.7C51.8,15.4,50.7,15.9,50.8,15.7z M50,17.4
		c0.3,0.1,0.8-0.1,1.1-0.2c0.9-0.2,1.8-0.3,2.7-0.4c2.9-0.4,5.9-0.6,8.9-0.6c3.6,0,7.3,0.3,10.9,1.1c2.9,0.7,5.7,3.4,7.4,5.7
		c-5.8-2.6-12.4-3.5-18.7-3.6c-6.5-0.2-13.3,0.5-19.5,3C44.9,20.4,47.5,18.8,50,17.4C50,17.4,47.7,18.7,50,17.4z M42.2,23.7
		c1.9-0.8,3.9-1.4,5.9-1.9c-0.2,0.7-0.3,1.5-0.3,2.2c0,0.4-0.2,0.2-0.6,0.3c-0.4,0.1-0.8,0.2-1.2,0.4c-0.2,0.1-0.4,0.3-0.6,0.5
		c-0.3,0.3-0.7,0-1.1-0.2C43.5,24.6,42.8,24.2,42.2,23.7C43.2,23.3,43.1,24.5,42.2,23.7z M26.9,55.7c-1.7,0.8-3.3,1.8-4.9,2.8
		c7.8-7.6,20-8.4,29.7-3.8c-0.3,0.5-0.5,0.2-1,0c-0.7-0.3-1.4-0.5-2.2-0.7c-1.3-0.4-2.5-0.7-3.8-0.9c-2.3-0.4-4.7-0.5-7-0.3
		C34,53,30.3,54,26.9,55.7C25,56.6,32.3,53.1,26.9,55.7z M54.6,59.3c0.7,0.1,1-1.9,1.2-2.4c0.4-1,1-2,1.8-2.8
		c0.5-0.6,1.3-1.1,2.1-1.1c0.3,0,0.8,0.1,1,0.3c0.3,0.3-0.2,1.3-0.3,1.7c-0.2,0.5-0.4,1.1-0.6,1.6c-0.2,0.5-0.3,1-0.5,1.5
		c-0.2,0.4-0.8,1.4-0.5,1.8c0.7,1.2,1.7-2.1,1.8-2.5c0.2-0.6,0.4-1.2,0.6-1.8c0.3-0.9,0.6-2.4,2-1.9c1.5,0.6,0.4,2.4,0,3.3
		c-0.3,0.6-0.4,1.3-0.6,1.9c-0.1,0.4-0.5,1.2-0.4,1.6c0.2,0.6,0.9,0.4,1-0.1c0-0.2,0.1-0.4,0.2-0.6c0.2-0.6,0.3-1.3,0.5-1.9
		c0.2-0.9,0.7-2.1,1.6-2.4c0.9-0.2,0.9,1.3,0.9,1.8c0,2.2-0.4,6-3.3,6c-1.8,0-3.5-0.9-5.2-1.4c-1.8-0.5-4.2-0.8-5.7-1.9
		c-1.3-1-0.8-2.7-0.2-4c0.7-1.5,1.7-3.5,3.5-3.8c0.5-0.1,1.1,0,1.3,0.5c0.1,0.7-0.9,1.5-1.2,2.1C55.3,55.6,53.3,59.1,54.6,59.3z
		 M36.9,57.4c0.8-0.5,1.7-0.9,2.5-1.3c1.2-0.5,2.4-0.9,3.6-1.2c0.8-0.2,1.6-0.5,2.4-0.6c0.9,0.2,1.8,0.4,2.7,0.7
		c-3.9,0-7.8,1.3-11,3.3C37.1,57.9,37,57.6,36.9,57.4C36.9,57.4,37,57.6,36.9,57.4z M38.3,59.3c-0.2,0.3-0.8,0.2-1,0.1
		c0.3-0.2,0.6-0.4,0.9-0.5C38.1,58.8,38.4,59.1,38.3,59.3z M39.3,58.6c-0.2,0.1-0.2-0.2-0.4-0.3c2.3-1.2,4.7-2,7.3-2.3
		c0.4-0.1,3.4,0.1,3-0.8c0.4,0.1,0.8,0.3,1.1,0.4c-0.7,0.2-1.3,0.4-2,0.6c-0.7,0.2-1.4,0.4-2,0.6c-0.7,0.2-1.4,0.4-2.1,0.5
		C42.6,57.8,41,58.2,39.3,58.6z M32.1,74.4c2.5-8.9,9.8-15.7,18.7-17.9c-0.1,0.2-0.2,0.5-0.2,0.7c-0.3,0.1-0.6,0.2-1,0.3
		c-0.5,0.2-1,0.4-1.6,0.6c-1,0.4-2,0.9-2.9,1.5c-1.9,1.1-3.6,2.5-5.2,4C36.8,66.7,34.2,70.4,32.1,74.4
		C33.7,68.5,33.4,71.9,32.1,74.4z M37.7,70.5c0.3-1.4,0.7-2.7,1.2-4c0.2-0.7,1-1.3,1.6-1.9c0.6-0.6,1.2-1.2,1.9-1.7
		C40.4,65.1,38.9,67.7,37.7,70.5C38,69.2,39.1,67.2,37.7,70.5z M47.8,73.4c-2.9-0.4-4.9-3.1-5.1-5.9c0-0.5,0-1,0-1.5
		c0-0.6,0.4-1.6,0.2-2.2c1.1-1.2,2.3-2.4,3.6-3.3c0.8-0.6,1.7-1.1,2.5-1.4c0.3-0.1,1-0.2,1.3-0.5c0,0.5,0.1,1,0.3,1.4
		c0.1,0.2,0.2,0.3,0.3,0.5c0.3,0.4,0,0.4-0.2,0.7c-0.9,1-1.8,2-2.6,3c-0.4,0.4-2.2,1.7-1.7,2.3c0.6,0.8,2.1-1.2,2.4-1.6
		c0.9-1,1.8-2.1,2.7-3.1c0.1-0.2,0.3-0.3,0.4-0.5c0.3,0.2,0.6,0.3,0.9,0.4c0.7,0.2,1.3,0.5,2,0.7c1.2,0.4,2.5,0.7,3.7,1.1
		c1.2,0.4,2.4,0.9,3.7,1.1C59,68.4,53.7,74.3,47.8,73.4C43.8,72.8,51.9,74,47.8,73.4z M53.8,73.2c2.6-1.3,4.8-3.3,6.8-5.4
		c0.6-0.6,1.2-1.2,1.7-1.8c0.3-0.4,0.7-0.8,1-1.1c0.4-0.4,0.4-0.4,0.9-0.5c1.4-0.4,2.2-1.6,2.6-2.9c1.5,0.9,3,1.9,4.6,2.8
		c0.6,0.4,1.2,0.7,1.8,1.1c0.8,0.5,1.2-1.3,1.4-1.7c0.3,3.2,0.6,6.3,0.8,9.5C68.3,73.1,61,73.2,53.8,73.2
		C56.7,71.7,58.7,73.2,53.8,73.2z M73.7,63.3c-0.1,0.3-0.3,0.6-0.4,0.9c-1-0.6-2-1.2-3-1.9c-0.6-0.4-1.3-0.8-1.9-1.2
		c-0.3-0.2-0.5-0.3-0.8-0.5c-0.5-0.3-0.4-0.3-0.3-0.9C69.4,60.9,71.6,62.1,73.7,63.3C73.6,63.6,73.1,62.9,73.7,63.3z M67.4,58.6
		c0-0.1,0-0.1,0-0.2c1.9,0.7,3.8,1.4,5.8,2c-0.2,0.4-0.4,0.7-0.5,1.1C70.9,60.5,69.1,59.6,67.4,58.6z M73.5,62
		c0.3-0.5,0.8-1.2,0.9-1.8c0.1,0.8,0.1,1.6,0.2,2.4C74.2,62.4,73.9,62.2,73.5,62z M75.8,47.5c3.2,4.9,3,11,3.5,16.6
		c0.3,2.8,0.5,5.4,0.4,8.2c0,0.7,0,0.7-0.7,0.7c-0.3,0-0.7,0-1,0c-0.3,0-1.4,0.2-1.4-0.1c-0.5-5.2-0.9-10.5-1.4-15.7
		c-0.1-1-0.2-2-0.3-3.1c0-0.2,0-0.5-0.1-0.7c0-0.4-1,0.1-1,0.1c0.2,2.2,0.4,4.3,0.6,6.5c-0.1-0.5-1.2-0.7-1.6-0.8
		c-1.1-0.4-2.1-0.8-3.2-1.1c-0.7-0.2-1.4-0.5-2.1-0.7c-0.1,0-0.3-1.7-0.4-1.9c-0.4-0.8-1.2-1-2-0.6c-0.1-1.7-1.9-2.6-3.3-1.9
		c-0.7-1.3-2.8-1-3.9-0.4c-0.4-1.4-2.2-1.4-3.3-0.9c-0.7,0.3-1.2,0.8-1.7,1.4c-0.3,0.3-0.4,0.8-0.8,0.7c-2.2-1-4.5-1.7-6.9-2.2
		c0.7-1.6,1.8-3.1,2.9-4.5c1.3-1.5,2.4-2.2,4.4-1.6c0.5,0.1,0.2,0.9,0.2,1.4c0,0.5,0,0.9,0.1,1.4c0.2,1,0.4,1.7,1.6,1.1
		c0.9-0.5,1.9-1.1,2.8-1.7c0.5-0.3,1-0.6,1.5-0.9c0.4-0.2,0.4-0.3,0.8-0.3c0.4,0,0.7,0.1,1.1,0.1c0.5,0,1,0.1,1.5,0.1
		c0.6,0,1.2,0,1.7,0c0.4,0,1.2,0.4,1.6,0.6c1.1,0.5,2,1.2,2.9,1.9c0.3,0.3,1.4,1.5,1.8,0.7c0.4-0.9,0.7-1.8,0.7-2.8
		c0-0.5,0-1.1-0.1-1.6c-0.1-0.7,0.7-0.5,1.3-0.5C73.7,45,74.8,46,75.8,47.5C78.3,51.4,74.3,45.2,75.8,47.5z M53.5,46.9
		c0-0.4,0-0.9,0.1-1.3c1.2,0.3,2.4,0.5,3.6,0.6c-1.2,0.7-2.4,1.5-3.6,2.2C53.6,47.9,53.5,47.4,53.5,46.9z M65.8,46.4
		c1.3-0.2,2.5-0.5,3.8-1c0.1,1.1,0.2,2.3-0.2,3.4C68.2,47.9,67.1,47,65.8,46.4C67.1,46.1,67,47,65.8,46.4z M78.5,29.3
		c-0.6,1.6-2.2,2.4-3.8,2.7c-0.7,0.1-0.8,0.4-0.8,1.1c0,1.1-0.1,2.1-0.2,3.2c-0.2,2.1-0.4,4.4-1.4,6.3c-0.4,0.8-1.6,1.2-2.4,1.5
		c-1.2,0.5-2.5,0.9-3.8,1.1c-2.1,0.4-4.2,0.3-6.3,0.2c-2.4-0.2-5.1-0.3-7.4-1.4c-1.8-0.8-2.4-2.2-2.8-4.1c-0.4-2-0.6-4-0.6-6.1
		c0-0.5,0.3-2.2-0.6-2.1c-0.7,0.1-1.5,0-2.2-0.3c-2.1-1-1.7-5.2,0.4-6c0.8-0.3,1.9-0.2,2.7,0.2c0.8,0.3,0.8-0.9,0.9-1.4
		c0.2-0.8,0.3-1.6,0.5-2.4c0-0.2,0.1-0.4,0.1-0.7c0-0.2,2-0.3,2.2-0.4c-0.1,0.3-1,1.7,0.1,1.4c0.4-0.1,0.6-0.6,0.7-0.9
		c0.1-0.2,0.2-0.4,0.1-0.6c0.3,0,0.7-0.1,1-0.1c0.5,0,0.9-0.1,1.4-0.1c0.6,0,0.9-0.1,0.8,0.7c-0.1,0.4,0.3,0.7,0.7,0.5
		c0.5-0.2,0.4-0.9,0.3-1.3c2.7-0.1,5.5,0,8.2,0.2c-0.1,0.2-0.3,0.6-0.2,0.9c0.1,0.5,0.8,0.5,1,0c0.1-0.2,0.1-0.5,0.2-0.6
		c0.4-0.3,1.2,0,1.7,0c0.2,0,1.4,0.1,1.4,0.3c0.1,0.5,0.1,0.9,0.3,1.4c0.2,0.4,0.7,0.8,1,0.3c0.2-0.3-0.2-1.2-0.2-1.5
		c0.8,0.2,1.7,0.3,2.5,0.5c0,0.2,0,0.5,0.1,0.8c0.1,0.9,0.2,1.7,0.3,2.6c0.1,1.2,1.9,0.2,2.8,0.5C78.7,26.1,78.9,27.9,78.5,29.3
		C77.6,31.8,78.9,28,78.5,29.3z M81,24.5c-0.8,0.3-1.6,0.5-2.3,0.9c-0.6-0.6-1.4-0.8-2.2-0.9c0.1-0.7,0.1-1.4-0.1-2.1
		c1.7,0.5,3.4,1.1,5,1.9C81.3,24.4,81.2,24.5,81,24.5z"/>
</g>
</svg>
