<?xml version="1.0" encoding="utf-8"?>
<!-- Generator: Adobe Illustrator 17.0.1, SVG Export Plug-In . SVG Version: 6.00 Build 0)  -->
<!DOCTYPE svg PUBLIC "-//W3C//DTD SVG 1.1//EN" "http://www.w3.org/Graphics/SVG/1.1/DTD/svg11.dtd">
<svg version="1.1" id="レイヤー_1" xmlns="http://www.w3.org/2000/svg" xmlns:xlink="http://www.w3.org/1999/xlink" x="0px"
	 y="0px" width="841.89px" height="595.28px" viewBox="0 0 841.89 595.28" enable-background="new 0 0 841.89 595.28"
	 xml:space="preserve">
<rect x="349.864" y="226.975" fill="#A660A3" stroke="#A660A3" stroke-width="2" stroke-miterlimit="10" width="141.732" height="141.732"/>
<path fill="#FFFFFF" d="M428.825,297.418c0,0-5.317-3.85-10.267,1.833c-4.95,5.683-6.6,8.984-7.7,15.4s-3.667,18.883,0,24.566
	c3.667,5.684,8.617,4.217,14.117,4.584s46.016-0.734,46.016-0.734s2.567-49.867-17.783-47.117S428.825,297.418,428.825,297.418z"/>
<path fill="#DADBDB" d="M369.424,349.346c1.761,0.446,3.961-2.949,1.709-3.645C369.229,345.111,367.298,348.807,369.424,349.346z"/>
<path fill="#DADBDB" d="M369.791,356.46c2.18-1.04,1.855-5.546-0.693-3.656C367.878,353.71,367.461,357.571,369.791,356.46z"/>
<path fill="#DADBDB" d="M387.808,353.01c0.001,0.178-0.024,0.348-0.078,0.507c-0.872,2.554-3.101-0.188-2.82-1.866
	C385.383,348.818,387.795,351.216,387.808,353.01z"/>
<path fill="#9FA0A0" d="M376.758,327.485c0,0-8.8,7.7-11.367,15.95l9.717-9.533L376.758,327.485z"/>
<path fill="#9FA0A0" d="M426.808,313.001c0,0-17.6-6.967-28.417-5.317c-10.817,1.65-20.533,6.966-25.3,13.933l1.467-0.366
	c0,0,9.9-6.05,12.283-7.15c2.383-1.1,10.817-3.667,14.483-3.484c3.667,0.184,10.083,0.367,10.083,0.367s-12.833,6.417-13.383,6.6
	c-0.55,0.183,0.183,3.85,0.183,3.85l-4.767,7.7l12.467-6.233c0,0-11.917,10.999-14.667,24.566l11-15.216l-1.65,10.633
	c0,0,5.134-11.367,9.167-15.767s6.783-7.883,13.933-8.983L426.808,313.001z"/>
<polygon fill="#9FA0A0" points="448.442,318.134 460.358,321.801 459.075,324.551 461.458,326.384 459.442,329.868 447.708,323.268 
	"/>
<path fill="#FEF9FC" d="M460.492,251.331l-0.309-1.608c-11.964-4.271-25.642-4.582-37.919-0.361c-0.4,1.197-0.59,2.039-0.59,2.039
	s-0.438,0.307-1.155,0.817C433.745,249.695,447.208,249.887,460.492,251.331z"/>
<path fill="#D3D3D4" d="M474.266,263.792l0.208-0.107c-3.116-8.25-13.934-12.1-13.934-12.1l-0.049-0.253
	c-13.284-1.444-26.747-1.636-39.972,0.887c-3.173,2.259-11.848,8.538-12.595,10.183c-0.118,0.26-0.063,0.542,0.118,0.835
	C428.933,254.991,453.891,254.283,474.266,263.792z"/>
<path fill="#9FA0A0" d="M408.043,263.236c1.225,1.978,8.315,4.482,8.315,4.482l50.967-0.367l6.942-3.56
	C453.891,254.283,428.933,254.991,408.043,263.236z"/>
<path fill="#D3D3D4" d="M460.183,249.723l-0.559-2.905c-2.75-7.517-15.217-7.7-17.784-7.7c-2.567,0-10.816,0.55-14.666,2.75
	c-2.546,1.455-4.13,5.155-4.91,7.494C434.542,245.141,448.219,245.452,460.183,249.723z"/>
<path fill="#DADBDB" d="M398.561,320.458c0.464-1.069,3.404-2.828,4.193-1.183c0.791,1.649-1.856,2.927-3.042,2.361
	c0.079,2.309-1.554,3.309-2.93,4.799c-1.307,1.415-1.597,3.629-4.046,3.828c0.083,1.633-0.245,2.598-1.861,2.722
	c-1.262,0.097-2.594-0.949-3.639-0.523c-0.056,0.91,0.151,2.061-0.188,2.865c1.719,0.384,2.106,3.667,0.367,4.3
	c1.004,1.37,0.389,3.804-1.242,4.395c0.499,1.078,1.171,3.915-0.441,4.363c-1.415,0.393-2.598-2.852-3.299-3.978
	c0.011,0.755-0.136,1.472-0.22,2.095c-0.046,0.345-0.247,0.625-0.274,0.962c-0.026,0.327,0.281,0.935,0.329,1.297
	c0.032,0.241-0.374,0.596-0.349,0.907c0.033,0.41,0.442,0.986,0.528,1.427c0.192,0.987,0.148,1.757-0.393,2.607
	c1.155,0.904,1.934,5.22-0.537,4.735c-0.669-0.132-1.908-1.957-2.241-2.535c-0.584-1.012-0.736-2.068,0.175-2.901
	c-2.482-0.938-1.681-3.554-0.335-4.85c-0.405-1.038,0.019-2.27,0.377-3.24c-0.931-0.916-1.166-2.214-1.114-3.469
	c-0.444,0.223-1.053,0.277-1.443-0.143c0.427,1.263-0.337,2.867-1.573,3.415c1.358,1.179,1.149,3.734,0.848,5.325
	c-0.277,1.462,0.346,3.017-0.29,4.4c1.405,1.057,0.911,4.237,0.812,5.834c-1.639,0.017-3.009-2.783-3.09-4.188
	c-0.119-2.054-0.431-3.819-0.541-5.867c-0.193-3.605-0.613-8.3,1.578-11.233c-0.629-0.624,0.062-3.26,0.063-4.35
	c0-1.728-0.208-3.579,0.596-5.137c0.748-1.45,2.215-1.698,3.021-2.97c0.774-1.222,0.599-2.458,1.655-3.487
	c1.086-1.06,2.767-1.848,4.028-2.752c1.3-0.931,1.863-2,3.208-2.662c0.42-0.207,0.971-0.633,1.426-0.814
	c0.633-0.251,1.539-0.176,2.199-0.497c0.651-0.317,0.985-1.281,1.701-1.616c0.619-0.289,1.434-0.333,2.151-0.556
	C399.43,312.678,400.315,316.911,398.561,320.458z"/>
<path fill="#EFEFEF" d="M433.775,310.985c0,0-0.55-3.85-4.217-1.65c-3.667,2.2-5.684,5.133-5.867,8.8
	c-0.183,3.667,1.284,5.134,8.984,7.517c7.7,2.383,8.617,2.566,10.45,2.566s4.766-0.55,5.683-5.133
	c0.917-4.583,0.917-8.433-0.733-8.8s-3.3,0.733-3.3,0.733s0.734-6.967-4.4-3.85C440.375,311.168,438.542,306.951,433.775,310.985z"
	/>
<path fill="#EFEFEF" d="M420.024,259.651l-0.917,4.217c0,0-4.95,0.55-5.683,4.767c-0.733,4.217-0.917,7.7,6.417,9.167
	c0,0-0.734,4.4-0.367,6.417c0.367,2.017-1.283,11.55,10.267,13.383c11.55,1.833,27.317,0.733,28.967-4.033
	c1.65-4.767,2.75-16.5,2.75-16.5s6.783-1.833,7.7-6.417c0.917-4.583-3.483-7.15-6.233-5.317c0,0-0.184-5.5-0.367-5.867
	C462.375,259.101,434.508,252.685,420.024,259.651z"/>
<g>
	<path fill="#040000" d="M419.883,270.453c-1.358-1.033-2.958-1.265-4.627-0.671c-0.429,0.153-0.653,0.625-0.5,1.054
		c0.153,0.429,0.625,0.653,1.054,0.5c1.15-0.41,2.156-0.27,3.073,0.429c0.363,0.276,0.88,0.206,1.156-0.157
		C420.315,271.247,420.245,270.729,419.883,270.453z"/>
	<path fill="#040000" d="M465.224,269.739c-1.289,0.132-2.316,0.706-3.055,1.706c-0.271,0.366-0.193,0.883,0.173,1.154
		c0.367,0.271,0.884,0.193,1.154-0.173c0.463-0.627,1.066-0.959,1.895-1.044c0.453-0.047,0.783-0.452,0.736-0.905
		S465.677,269.692,465.224,269.739z"/>
	<path fill="#040000" d="M442.736,282.014c1.844-0.595,2.595-2.023,2.595-3.409c0-0.296-0.034-0.589-0.099-0.873
		c-0.397-1.731-2.04-3.398-4.301-3.081c-1.374,0.193-2.405,1.021-2.829,2.272c-0.486,1.436-0.082,3.193,0.984,4.274
		C440.033,282.159,441.363,282.457,442.736,282.014z M439.665,277.453c0.226-0.667,0.729-1.059,1.496-1.167
		c1.301-0.183,2.224,0.775,2.463,1.816c0.095,0.413,0.276,1.804-1.394,2.342c-0.779,0.252-1.461,0.112-1.968-0.404
		C439.626,279.396,439.375,278.308,439.665,277.453z"/>
	<path fill="#040000" d="M455.689,282.66c-0.455-0.003-0.828,0.363-0.831,0.819c-0.018,2.522-7.129,4.406-13.475,4.406
		c-5.791,0-11.809-1.447-12.105-4.213c-0.048-0.453-0.455-0.781-0.908-0.733c-0.453,0.049-0.782,0.455-0.733,0.908
		c0.448,4.198,7.685,5.687,13.745,5.687c5.831,0,15.093-1.641,15.125-6.044C456.511,283.035,456.144,282.663,455.689,282.66z"/>
	<path fill="#040000" d="M441.468,302.783c-1.683,0.239-2.515,1.98-2.319,3.457c0.205,1.55,1.369,2.465,2.898,2.277
		c1.059-0.13,1.89-0.74,2.28-1.674c0.417-1,0.258-2.241-0.397-3.088C443.344,302.999,442.447,302.644,441.468,302.783z
		 M442.803,306.208c-0.162,0.387-0.484,0.614-0.958,0.672c-0.619,0.076-0.976-0.212-1.062-0.856
		c-0.08-0.608,0.193-1.504,0.915-1.607c0.392-0.056,0.703,0.061,0.924,0.348C442.918,305.145,442.994,305.752,442.803,306.208z"/>
	<path fill="#040000" d="M377.536,357.021c0.07-0.201,0.1-0.403,0.1-0.606c0-0.81-0.49-1.627-0.934-2.365
		c-0.032-0.053-0.059-0.103-0.091-0.155c0.013-0.038,0.031-0.071,0.044-0.111c0.217-0.659,0.324-1.306,0.324-1.917
		c0-0.746-0.211-1.408-0.525-2.008c0.323-0.539,0.442-1.214,0.442-1.935c0-1.033-0.242-2.132-0.461-3.067
		c0.215-0.078,0.392-0.177,0.5-0.27c0.578-0.497,0.737-1.327,0.737-2.087c0-0.42-0.048-0.819-0.101-1.129
		c-0.076-0.449-0.502-0.751-0.952-0.675c-0.402,0.068-0.687,0.417-0.687,0.812c0,0.046,0.004,0.092,0.012,0.14
		c0.054,0.316,0.074,0.595,0.074,0.831c0,0.476-0.085,0.773-0.157,0.849c-0.003-0.008-0.064-0.007-0.192-0.049
		c-0.283-0.094-0.596-0.034-0.816,0.167c-0.174,0.158-0.271,0.378-0.271,0.606c0,0.061,0.007,0.122,0.021,0.183l0.153,0.662
		c0.171,0.719,0.492,2.077,0.492,3.092c0,0.52-0.084,0.95-0.316,1.159c-0.18,0.162-0.273,0.387-0.273,0.613
		c0,0.179,0.058,0.359,0.177,0.51c0.375,0.475,0.492,1.048,0.492,1.579c0,0.241-0.034,0.462-0.069,0.674
		c-0.204-0.008-0.368,0.088-0.536,0.259c-0.116,0.119-0.159,0.271-0.159,0.433c0,0.135,0.03,0.275,0.071,0.407
		c0.051,0.161,0.133,0.327,0.217,0.495c-0.037-0.04-0.493-0.527-0.493-0.527c-0.009-0.009-0.022-0.013-0.031-0.022
		c-0.266-0.434-0.399-1.053-0.399-1.699c0-0.774,0.182-1.575,0.522-2.103c0.068-0.106,0.097-0.22,0.097-0.336
		c0-0.184-0.073-0.371-0.181-0.538c-0.083-0.127-0.217-0.214-0.367-0.274c0.004-0.103,0.017-0.182,0.017-0.296
		c0-0.652-0.063-1.492-0.159-2.559l-0.06-0.76c0.027-1.464,0.458-2.818,0.915-4.252c0.368-1.157,0.749-2.353,0.918-3.644
		c0.107-0.816,0.12-1.629,0.132-2.414c0.02-1.291,0.039-2.512,0.458-3.653c0.248-0.675,0.728-1.235,1.236-1.829
		c0.472-0.551,0.961-1.121,1.294-1.825c0.229-0.483,0.266-0.99,0.295-1.397c0.055-0.768,0.055-0.768,0.654-0.786
		c0.335-0.01,0.61-0.241,0.727-0.555c0.032-0.086,0.048-0.178,0.048-0.269c0-0.24-0.105-0.48-0.284-0.645
		c0,0-0.031-0.028-0.05-0.046c0.543-0.654,1.388-0.992,2.358-1.351c0.951-0.351,1.934-0.714,2.743-1.446
		c0.491-0.444,0.719-1.036,0.903-1.511c0.107-0.278,0.254-0.659,0.37-0.708c0.022-0.009,0.23-0.082,0.884,0.19
		c0.256,0.107,0.549,0.077,0.779-0.078c0.23-0.155,0.366-0.416,0.363-0.693c-0.006-0.439,0.187-0.548,0.251-0.584
		c0.253-0.144,0.67-0.097,1.013,0.115c0.233,0.143,0.522,0.162,0.772,0.049c0.249-0.112,0.427-0.341,0.474-0.611
		c0.066-0.378,0.229-0.66,0.447-0.771c0.259-0.133,0.583-0.03,0.809,0.08c0.246,0.119,0.535,0.109,0.772-0.027
		c0.237-0.136,0.391-0.381,0.411-0.653c0.018-0.233,0.07-0.353,0.108-0.386c0.149-0.125,0.773-0.061,1.146-0.023l0.96,0.058
		c0.359,0.021,0.621-0.193,0.75-0.529c0.128-0.332,0.553-0.354,0.73-0.349c0.498,0.016,0.954,0.283,1.061,0.622
		c0.136,0.435,0.599,0.677,1.034,0.54c0.435-0.136,0.677-0.6,0.54-1.034c-0.316-1.008-1.379-1.739-2.582-1.777
		c-0.837-0.026-1.552,0.291-1.998,0.849c-0.161-0.011-0.327-0.022-0.327-0.022c-0.792-0.081-1.689-0.173-2.373,0.399
		c-0.186,0.156-0.324,0.357-0.437,0.581c-0.48-0.063-0.945-0.009-1.357,0.202c-0.432,0.222-0.764,0.587-1.001,1.041
		c-0.619-0.135-1.253-0.081-1.766,0.209c-0.401,0.228-0.688,0.577-0.871,0.995c-0.469-0.084-0.88-0.065-1.241,0.09
		c-0.755,0.323-1.035,1.048-1.26,1.631c-0.139,0.36-0.271,0.701-0.47,0.881c-0.572,0.518-1.367,0.811-2.208,1.122
		c-1.342,0.496-2.864,1.058-3.623,2.697c-0.038,0.083-0.055,0.174-0.055,0.268c0,0.057,0.03,0.114,0.042,0.173
		c-0.543,0.352-0.74,0.895-0.824,1.38c-1.073,0.853-6.966,5.8-12.041,15.33l-0.403,0.771c-1.427,2.783-1.76,3.797-0.918,4.315
		c0.697,0.429,1.417,0.871,10.006-10.831c-0.012,0.69-0.029,1.349-0.114,2c-0.15,1.145-0.492,2.22-0.854,3.358
		c-0.472,1.484-0.96,3.019-0.992,4.724l0.066,0.936c0.048,0.531,0.152,1.704,0.152,2.465c0,0.239-0.014,0.422-0.039,0.547
		c-0.108,0.14-0.168,0.317-0.168,0.506c0,0.048,0.004,0.096,0.012,0.145c0.037,0.228,0.184,0.399,0.369,0.521
		c-0.16,0.559-0.256,1.174-0.256,1.798c0,0.823,0.181,1.63,0.535,2.313c-0.166,0.483-0.266,0.997-0.266,1.533
		c0,1.537,0.559,3.149,0.982,4.005c0.108,0.219,0.324,0.365,0.56,0.423c0.174,0.043,0.352-0.016,0.519-0.089
		c0.08,0.184,0.157,0.375,0.233,0.576l0.408,0.96c0.114,0.267,0.346,0.426,0.634,0.465c0.288,0.039,0.562-0.105,0.743-0.332
		c0.731-0.917,1.096-1.798,1.096-2.654c0-0.554-0.172-1.097-0.479-1.633C377.355,357.318,377.477,357.189,377.536,357.021z
		 M373.616,332.774c-2.4,3.294-5.06,6.768-6.936,9.027c0.1-0.192,0.203-0.388,0.203-0.388c2.7-5.069,5.676-8.827,7.958-11.306
		c-0.056,0.12-0.119,0.235-0.166,0.363c-0.241,0.655-0.371,1.314-0.447,1.97C373.993,332.456,373.766,332.569,373.616,332.774z
		 M372.407,348.873c0.075-0.094,0.186-0.194,0.378-0.233C372.626,348.673,372.51,348.769,372.407,348.873z M376.051,359.24
		c-0.134-0.285-0.293-0.57-0.496-0.835c-0.207-0.269-0.561-0.309-0.884-0.22c-0.284-0.797-0.467-1.68-0.467-2.441
		c0-0.089,0.016-0.165,0.022-0.251c0.248,0.012,0.495-0.071,0.663-0.269c0.135-0.158,0.203-0.35,0.203-0.541
		c0-0.142-0.081-0.269-0.157-0.395c0.108,0.199,0.228,0.402,0.354,0.611c0.183,0.305,0.501,0.841,0.634,1.224
		c-0.165-0.03-0.333-0.032-0.482,0.042c-0.35,0.172-0.453,0.439-0.453,0.704c0,0.252,0.093,0.502,0.154,0.666l0.05,0.137
		c0.076,0.207,0.238,0.396,0.438,0.488c0.042,0.019,0.091,0.017,0.136,0.031c0.193,0.308,0.319,0.607,0.319,0.91
		C376.085,359.146,376.055,359.195,376.051,359.24z"/>
	<path fill="#040000" d="M389.624,329.282c0.535-0.17,1.008-0.529,1.323-1.069c0.222-0.382,0.33-0.791,0.33-1.193
		c0-0.326-0.081-0.645-0.218-0.945c0.608-0.452,0.988-1.124,0.988-1.777c0-0.038-0.001-0.076-0.004-0.114
		c-0.055-0.849-0.728-1.689-2.11-1.648c-0.455,0.013-0.814,0.393-0.801,0.848c0.013,0.455,0.393,0.814,0.849,0.801
		c0.283-0.008,0.396,0.057,0.41,0.075c0.01,0.019,0.017,0.121-0.057,0.259c-0.046,0.087-0.23,0.374-0.644,0.415
		c-0.339,0.033-0.622,0.272-0.713,0.6c-0.091,0.328,0.029,0.678,0.302,0.882c0.521,0.388,0.317,0.838,0.242,0.967
		c-0.054,0.092-0.351,0.54-0.922,0.289c-0.382-0.167-0.828-0.024-1.041,0.335c-0.213,0.359-0.125,0.819,0.205,1.074
		c0.464,0.358,0.268,0.854,0.163,1.051c-0.192,0.357-0.598,0.674-1.035,0.525c-0.335-0.115-0.705-0.003-0.921,0.278
		c-0.216,0.28-0.229,0.667-0.032,0.961c0.166,0.248,0.197,0.392,0.195,0.427c-0.153,0.138-1.109,0.215-1.706-0.046
		c-0.163-0.071-0.345-0.088-0.518-0.048c-0.161,0.038-0.29,0.09-0.395,0.153c-0.113-0.197-0.245-0.375-0.395-0.526
		c-0.262-0.265-0.654-0.303-0.968-0.137c0.006-0.049,0.012-0.098,0.009-0.148c-0.012-0.249-0.136-0.48-0.337-0.627
		c-0.232-0.17-0.368-0.4-0.393-0.665c-0.027-0.296,0.089-0.599,0.327-0.852c0.312-0.331,0.297-0.853-0.035-1.166
		c-0.332-0.313-0.854-0.297-1.166,0.035c-0.503,0.533-0.78,1.215-0.78,1.902c0,0.078,0.004,0.155,0.011,0.233
		c0.04,0.437,0.217,0.826,0.458,1.178c-0.464,0.599-1.008,1.482-1.372,2.405c-0.162-0.681-0.525-1.268-1.064-1.682
		c-0.362-0.277-0.88-0.209-1.157,0.153c-0.277,0.361-0.209,0.88,0.152,1.157c0.523,0.401,0.532,1.088,0.512,1.365
		c-0.052,0.712-0.429,1.363-0.961,1.66c-0.398,0.222-0.541,0.725-0.319,1.123c0.222,0.398,0.724,0.541,1.122,0.319
		c0.607-0.338,1.094-0.884,1.412-1.536c0.01,0.034,0.014,0.07,0.026,0.103c0.047,0.131,0.133,0.287,0.244,0.445
		c-0.643,0.637-0.812,1.463-0.812,2.254c0,0.432,0.047,0.852,0.089,1.223l0.082,0.9l-0.033,0.866
		c-0.022,0.342-0.047,0.726-0.047,1.118c0,0.779,0.131,1.561,0.541,2.122c-0.172,0.319-0.288,0.69-0.342,1.106
		c-0.024,0.186-0.036,0.379-0.036,0.574c0,1.345,0.542,2.82,1.133,3.549c0.287,0.354,0.807,0.408,1.16,0.121
		c0.302-0.245,0.383-0.658,0.223-0.994c0.393,0.532,0.706,1.209,0.706,1.707c0,0.06-0.005,0.118-0.014,0.172
		c-0.026,0.149-0.089,0.304-0.369,0.429c-0.256,0.114-0.4,0.353-0.448,0.613c-0.382-0.177-0.841-0.054-1.057,0.318
		c-0.281,0.484-0.423,0.993-0.423,1.467c0,0.418,0.11,0.81,0.332,1.136c0.153,0.225,0.363,0.385,0.591,0.514
		c-0.127,0.342-0.18,0.646-0.18,0.909c0,0.764,0.42,1.208,0.615,1.373c0.73,0.617,1.945,0.588,2.599-0.062
		c0.189-0.187,0.309-0.448,0.375-0.737c0.082-0.068,0.162-0.14,0.214-0.237c0.331-0.62,0.494-1.365,0.494-2.1
		c0-0.868-0.228-1.722-0.674-2.336c-0.165-0.227-0.379-0.372-0.591-0.519c0.064-0.153,0.117-0.312,0.147-0.482
		c0.026-0.149,0.038-0.301,0.038-0.453c0-0.854-0.394-1.713-0.853-2.407c0.363-0.647,0.493-1.374,0.493-2.051
		c0-0.882-0.194-1.669-0.288-2.049c-0.109-0.443-0.556-0.713-0.999-0.603c-0.376,0.093-0.628,0.43-0.628,0.8
		c0,0.066,0.008,0.132,0.024,0.198c0.076,0.309,0.242,0.982,0.242,1.667c0,0.301-0.051,0.593-0.136,0.869
		c-0.237-0.01-0.474,0.07-0.646,0.259c-0.102,0.112-0.154,0.247-0.183,0.386c-0.187-0.567-0.305-1.236-0.229-1.82
		c0.034-0.258,0.122-0.6,0.354-0.77c0.258-0.189,0.384-0.509,0.323-0.823c-0.061-0.314-0.297-0.564-0.607-0.643
		c-0.349-0.089-0.246-1.691-0.212-2.217l0.034-1.049l-0.091-1.008c-0.184-1.626-0.147-2.18,1.004-2.522
		c0.388-0.115,0.634-0.494,0.583-0.895c-0.051-0.401-0.385-0.706-0.79-0.72c-0.353-0.012-0.388-0.111-0.405-0.158
		c-0.261-0.726,0.799-2.869,1.565-3.715c-0.01,0.222,0.064,0.446,0.232,0.617c0.254,0.257,0.409,0.819,0.394,1.431
		c-0.018,0.741-0.269,1.44-0.641,1.782c-0.335,0.308-0.357,0.83-0.049,1.166c0.309,0.335,0.83,0.357,1.166,0.049
		c0.707-0.649,1.145-1.755,1.174-2.957c0.005-0.216-0.007-0.424-0.028-0.628c1.013,0.36,2.695,0.384,3.458-0.527
		c0.17-0.203,0.366-0.538,0.366-1.005c0-0.022-0.012-0.05-0.013-0.073c0.653-0.188,1.237-0.654,1.605-1.338
		c0.222-0.414,0.33-0.845,0.33-1.262C389.709,329.522,389.645,329.408,389.624,329.282z M381.614,357.33
		c-0.015-0.015-0.026-0.051-0.026-0.109c0-0.063,0.033-0.177,0.071-0.292c0.028,0.067,0.024,0.14,0.074,0.201
		c0.089,0.106,0.138,0.186,0.168,0.247C381.804,357.395,381.675,357.389,381.614,357.33z M381.604,353.83
		c0.273-0.048,0.453,0.027,0.623,0.262c0.237,0.326,0.357,0.835,0.357,1.358c0,0.149-0.027,0.297-0.047,0.444
		c-0.101-0.017-0.19-0.045-0.289-0.028c0.021-0.074,0.045-0.148,0.045-0.214c0-0.306-0.187-0.523-0.221-0.559
		c-0.047-0.052-0.432-0.422-0.971-0.162c-0.103-0.002-0.182-0.022-0.21-0.061c-0.028-0.041-0.045-0.111-0.045-0.204
		c0-0.161,0.053-0.388,0.2-0.64c0.053-0.092,0.063-0.192,0.079-0.291C381.274,353.803,381.431,353.861,381.604,353.83z"/>
	<path fill="#040000" d="M387.938,335.046c-0.38-0.251-0.892-0.147-1.143,0.234c-0.093,0.14-0.137,0.298-0.137,0.454
		c0,0.268,0.13,0.53,0.37,0.689c0.331,0.218,0.498,0.475,0.498,0.765c0,0.04-0.003,0.08-0.009,0.121
		c-0.056,0.367-0.384,0.815-0.989,0.988c-0.245,0.07-0.444,0.25-0.539,0.487c-0.039,0.099-0.059,0.203-0.059,0.307
		c0,0.145,0.038,0.289,0.113,0.417c0.257,0.439,0.439,1.207,0.439,1.914c0,0.321-0.038,0.63-0.123,0.889
		c-0.057,0.176-0.163,0.401-0.337,0.476c-0.203,0.088-0.362,0.253-0.442,0.459c-0.037,0.096-0.056,0.198-0.056,0.299
		c0,0.115,0.024,0.23,0.072,0.337c0.21,0.469,0.292,1.076,0.292,1.643c0,0.689-0.124,1.297-0.283,1.551
		c-0.097-0.072-0.256-0.218-0.489-0.545c-0.49-0.688-0.737-1.354-0.737-2.042c0-0.626,0.205-1.271,0.616-1.967
		c0.241,0.057,0.494,0.038,0.696-0.122c0.202-0.16,0.313-0.4,0.313-0.647c0-0.097-0.017-0.195-0.052-0.289
		c-0.138-0.368-0.393-0.662-0.734-0.854c-0.303-0.443-0.522-1.049-0.522-1.524c0-0.111,0.012-0.215,0.037-0.307
		c0.045-0.164,0.117-0.314,0.503-0.337c0.306-0.018,0.577-0.205,0.703-0.484c0.049-0.108,0.073-0.224,0.073-0.339
		c0-0.182-0.06-0.361-0.176-0.509c-0.164-0.209-0.25-0.426-0.25-0.624c0-0.045,0.004-0.087,0.013-0.13
		c0.038-0.186,0.161-0.341,0.355-0.447c0.274-0.15,0.43-0.433,0.43-0.725c0-0.134-0.033-0.269-0.101-0.395
		c-0.218-0.4-0.719-0.547-1.119-0.329c-0.624,0.34-1.043,0.895-1.18,1.563c-0.032,0.154-0.048,0.31-0.048,0.466
		c0,0.218,0.057,0.433,0.118,0.648c-0.438,0.266-0.765,0.666-0.913,1.208c-0.06,0.222-0.089,0.463-0.089,0.714
		c0,0.773,0.29,1.621,0.729,2.323c-0.689,1.071-1.055,2.108-1.055,3.117c0,1.017,0.349,2.009,1.046,2.987
		c1.147,1.61,2.123,1.39,2.603,1.115c0.822-0.471,1.171-1.739,1.171-3.018c0-0.619-0.106-1.207-0.255-1.743
		c0.269-0.269,0.497-0.594,0.636-1.017c0.143-0.435,0.205-0.919,0.205-1.408c0-0.669-0.125-1.337-0.314-1.912
		c0.71-0.447,1.207-1.147,1.329-1.944c0.019-0.123,0.028-0.246,0.028-0.367C389.175,336.353,388.73,335.57,387.938,335.046z"/>
	<path fill="#040000" d="M387.329,321.97c0.448,0.085,0.88-0.209,0.964-0.657c0.085-0.447-0.209-0.879-0.657-0.964
		c-1.459-0.277-2.222,0.513-2.432,1.273c-0.052,0.188-0.077,0.381-0.077,0.576c0,0.596,0.249,1.186,0.636,1.665
		c-0.314,0.338-0.534,0.735-0.617,1.177c-0.027,0.141-0.04,0.283-0.04,0.425c0,0.397,0.131,0.786,0.329,1.16
		c-0.62,0.719-0.711,1.794-0.711,2.586c0,0.183,0.005,0.351,0.009,0.496c0.013,0.455,0.393,0.814,0.848,0.801
		c0.455-0.013,0.814-0.393,0.801-0.848c-0.027-0.924,0.01-1.895,0.482-2.082c0.259-0.103,0.449-0.329,0.505-0.602
		c0.056-0.273-0.031-0.558-0.228-0.751c-0.294-0.291-0.427-0.602-0.374-0.877c0.053-0.276,0.299-0.526,0.676-0.688
		c0.311-0.133,0.509-0.441,0.501-0.779c-0.009-0.338-0.223-0.636-0.54-0.754c-0.453-0.166-0.693-0.763-0.609-1.065
		C386.837,321.91,387.108,321.928,387.329,321.97z"/>
	<path fill="#040000" d="M381.279,325.936c-0.4-0.219-0.901-0.072-1.12,0.328c-0.219,0.4-0.072,0.901,0.328,1.12
		c1.006,0.55,2.08,0.368,2.802-0.476c0.894-1.044,0.971-2.738,0.174-3.776c-0.278-0.361-0.796-0.429-1.157-0.151
		c-0.361,0.278-0.429,0.796-0.151,1.157c0.356,0.462,0.228,1.292-0.118,1.698C381.822,326.084,381.603,326.113,381.279,325.936z"/>
	<path fill="#040000" d="M369.708,354.568c-0.03,0.019-0.043,0.023-0.067,0.036c-0.002-0.022-0.008-0.024-0.008-0.049
		c0-0.099,0.015-0.227,0.062-0.373c0.046-0.143,0.19-0.494,0.525-0.645c0.306-0.137,0.487-0.438,0.487-0.753
		c0-0.113-0.023-0.228-0.073-0.338c-0.187-0.416-0.675-0.601-1.091-0.414c-1.086,0.488-1.518,1.594-1.558,2.391
		c-0.038,0.77,0.257,1.412,0.79,1.718c0.305,0.176,0.948,0.384,1.831-0.19c0.382-0.248,0.49-0.759,0.242-1.141
		C370.601,354.428,370.09,354.32,369.708,354.568z"/>
	<path fill="#040000" d="M387.066,350.22c-0.807-0.535-1.672-0.776-2.643-0.735c-0.455,0.019-0.809,0.404-0.79,0.859
		c0.019,0.455,0.404,0.809,0.859,0.79c0.487-0.02,0.912,0.096,1.323,0.299c-0.007,0.26-0.086,0.498-0.207,0.729
		c-0.15-0.042-0.303-0.127-0.451-0.365c-0.241-0.386-0.75-0.504-1.137-0.262c-0.387,0.241-0.504,0.75-0.262,1.137
		c0.553,0.885,1.438,1.306,2.427,1.154c0.206-0.032,0.393-0.14,0.522-0.303c0.638-0.807,0.879-1.731,0.716-2.746
		C387.388,350.549,387.258,350.347,387.066,350.22z"/>
	<path fill="#040000" d="M432.308,271.935c0.913,0,1.375-1.11,1.375-3.3s-0.462-3.3-1.375-3.3c-0.913,0-1.375,1.11-1.375,3.3
		S431.395,271.935,432.308,271.935z"/>
	<path fill="#040000" d="M451.558,272.485c0.913,0,1.375-1.11,1.375-3.3c0-2.19-0.462-3.3-1.375-3.3c-0.913,0-1.375,1.11-1.375,3.3
		C450.183,271.374,450.645,272.485,451.558,272.485z"/>
	<path fill="#040000" d="M475.483,263.959c0-0.132-0.032-0.265-0.097-0.388c-0.182-0.341-4.506-8.263-13.681-12.256
		c-0.152-2.061-1.192-9.48-8.296-11.256c-7.704-1.926-20.08-1.431-24.431,0.309c-4.429,1.771-7.199,5.567-7.869,10.696
		c-2.408,1.394-13.515,7.983-14.614,11.553c-0.025,0.08-0.036,0.161-0.036,0.242c0,0.243,0.108,0.479,0.303,0.639
		c0.133,0.109,0.294,0.169,0.458,0.182c0.025,0.028,0.049,0.056,0.078,0.081c1.824,1.561,3.471,2.365,5.504,3.227
		c-0.396,0.82-0.68,1.784-0.835,2.908c-0.368,2.67,0.144,4.721,1.526,6.094c1.567,1.559,3.804,1.78,5.06,1.768
		c0.001,3.173,0.234,13.767,3.23,17.263c0.341,0.398,0.735,0.752,1.159,1.082c-1.943,0.064-3.638,1.044-5.781,3.63
		c-1.091,1.316-4.219,5.784-5.014,7.967c-2.211-0.376-4.621-0.652-7.173-0.737c-10.494-0.352-25.313,2.603-36.321,18.68
		c-0.245,0.359-0.171,0.845,0.171,1.115c0.341,0.269,0.832,0.226,1.123-0.097c0.054-0.06,5.54-6.081,14.855-10.49
		c6.1-2.888,14.791-5.482,25.239-4.416c-7.56,2.163-10.522,4.232-10.662,4.333c-0.241,0.172-0.359,0.451-0.34,0.727
		c-0.12,0.041-0.233,0.102-0.327,0.2c-0.152,0.159-0.224,0.363-0.225,0.567c0.003-0.047,0.012-0.095,0.012-0.142
		c0-0.675-0.316-1.312-0.913-1.821c-0.247-0.212-0.632-0.24-0.925-0.1l-0.338,0.16l-0.817,0.428
		c-0.399,0.21-0.437,0.626-0.234,1.028c0.203,0.402,0.81,0.494,1.216,0.297c0,0,0.17-0.082,0.322-0.156
		c0.019,0.057,0.041,0.117,0.041,0.158c0,0.04-0.005,0.073-0.009,0.097c-0.064,0.396-0.508,0.9-1.072,1.28
		c-0.259,0.11-0.528,0.247-0.816,0.444c-0.232,0.159-0.359,0.417-0.359,0.682c0,0.132,0.032,0.266,0.098,0.39
		c0.2,0.372,0.647,0.533,1.038,0.374c0.224-0.091,0.455-0.225,0.684-0.36c-0.104,0.347-0.418,0.882-1.024,1.247
		c0.012-0.007,0.026-0.004,0.037-0.01c-0.056,0.045-0.115,0.059-0.171,0.11c-0.176,0.162-0.266,0.383-0.266,0.607
		c0,0.172,0.054,0.346,0.165,0.494c0.254,0.339,0.723,0.431,1.086,0.212c0.05-0.031,0.089-0.074,0.138-0.107
		c-0.002,0.002-0.003,0.005-0.005,0.007c0.4-0.368,0.816-0.43,1.088-0.161c0.223,0.221,0.319,0.659-0.141,1.168
		c-0.306,0.338-0.279,0.86,0.059,1.166c0.338,0.305,0.86,0.279,1.165-0.059c0.53-0.587,0.753-1.222,0.753-1.813
		c0-0.456-0.137-0.881-0.363-1.238c0.17-0.037,0.33-0.125,0.451-0.267c0.023-0.026,0.042-0.053,0.064-0.079
		c0.04,0.06,0.085,0.117,0.142,0.166c1.138,0.989,3.159,0.946,4.159-0.089c0.17-0.176,0.311-0.388,0.407-0.628
		c0.175,0.09,0.38,0.121,0.585,0.067l5.257-1.377c-0.661,0.395-1.331,0.816-2.005,1.267c-0.217-0.374-0.688-0.523-1.08-0.327
		c-4.718,2.359-7.978,4.436-10.072,5.936c0.084-0.186,0.132-0.355,0.155-0.482c0.021-0.119,0.031-0.239,0.031-0.358
		c0-0.75-0.405-1.463-1.045-1.778c-0.662-0.326-1.413-0.158-1.959,0.439c-0.294,0.322-0.25,0.78,0.052,1.094
		c0.302,0.314,0.834,0.302,1.165,0.02c0,0,0.021-0.018,0.041-0.035c0.044,0.046,0.095,0.134,0.095,0.258
		c0,0.025-0.002,0.052-0.007,0.078c-0.056,0.306-0.495,0.675-1.555,0.791c-0.306,0.033-0.568,0.235-0.679,0.522
		c-0.038,0.097-0.056,0.198-0.056,0.299c0,0.197,0.071,0.392,0.205,0.545c0.12,0.137,0.172,0.314,0.172,0.494
		c0,0.212-0.072,0.43-0.188,0.591c-0.232,0.324-0.459,0.231-0.556,0.191c-0.337-0.139-0.727-0.04-0.956,0.243
		c-0.23,0.284-0.246,0.684-0.04,0.986c0.247,0.36,0.15,0.899-0.072,1.245c-0.113,0.176-0.358,0.462-0.721,0.399
		c-0.449-0.078-0.876,0.222-0.954,0.671c-0.078,0.449,0.222,0.877,0.671,0.954c0.924,0.161,1.84-0.272,2.393-1.132
		c0.319-0.496,0.48-1.063,0.48-1.614c0-0.071-0.024-0.137-0.029-0.207c0.256-0.081,0.499-0.2,0.719-0.366
		c0.259,0.05,0.536-0.01,0.737-0.21c0.03-0.03,2.602-2.549,8.883-6.071c-6.314,5.441-12.754,14.221-14.41,27.938
		c-0.05,0.419,0.224,0.809,0.636,0.903c0.412,0.094,0.828-0.139,0.964-0.538c0.052-0.154,3.094-8.85,9.939-17.575
		c-2.37,8.031-2.204,11.939-2.194,12.128c0.021,0.402,0.33,0.731,0.731,0.776c0.401,0.046,0.775-0.205,0.886-0.593
		c2.139-7.485,5.013-12.987,7.968-17.023c-0.128,1.15-0.178,2.111-0.178,2.91c0,2.1,0.345,3.073,0.539,3.456
		c0.241,0.976,2.092,7.406,9.177,8.496c1.967,0.302,3.972,0.182,6.049-0.374c0.12,0.068,0.258,0.11,0.406,0.108l43.117-0.248
		l0.507-0.024c1.207-0.064,2.024-0.092,2.487-0.089c0.098,0.07,0.216,0.12,0.367,0.156c0.322,0.076,0.782-0.025,1.021-0.559
		c0.047-0.107,0.071-0.223,0.071-0.341c0-0.17-0.049-0.341-0.146-0.481c-0.005-0.007-0.01-0.011-0.014-0.018
		c-0.002-0.064-0.004-0.122-0.004-0.198c0-0.707,0.054-1.906,0.093-2.777c0.041-0.927,0.078-1.753,0.078-2.28
		c0-0.134-0.003-0.248-0.008-0.34c-0.122-2.113-0.265-4.361-0.548-6.582c-0.302-2.369-0.484-4.814-0.676-7.404
		c-0.596-8.039-1.213-16.351-5.563-22.994c-2.197-3.355-4.068-4.569-6.765-4.926c0.523-0.386,0.899-0.762,1.083-1.11
		c2.444-4.617,2.789-13.991,2.837-16.697c1.748-0.259,5.935-1.301,7.386-5.415c0.316-0.896,0.471-1.791,0.471-2.644
		c0-1.021-0.222-1.981-0.653-2.811c0.954-0.46,2.162-0.871,3.342-1.27l2.135-0.755c0.385-0.136,0.585-0.522,0.513-0.91
		C475.476,264.049,475.483,264.004,475.483,263.959z M398.13,320.624c-0.124,0.144-0.185,0.32-0.193,0.496
		c-0.019-0.008-0.035-0.02-0.055-0.028c0.133-0.33,0.226-0.663,0.226-0.987c0-0.027-0.001-0.054-0.001-0.08
		c-0.013-0.348-0.142-0.632-0.323-0.872c0.333-0.415,0.605-0.864,0.685-1.359c0.01-0.062,0.01-0.123,0.015-0.184
		c0.006,0.208,0.091,0.415,0.254,0.571C399.472,318.883,398.557,320.124,398.13,320.624z M429.589,241.901
		c3.703-1.481,15.668-2.178,23.418-0.241c3.9,0.975,5.65,3.943,6.435,6.431c-12.575-4.552-31.276-1.011-35.913-0.016
		C424.646,245.19,426.72,243.048,429.589,241.901z M422.974,249.889c1.65-0.377,23.371-5.173,36.533-0.011
		c0.126,0.049,0.255,0.062,0.381,0.05c0.056,0.326,0.097,0.622,0.125,0.88c-15.289-3.439-32.74-0.759-37.223,0.039
		C422.84,250.52,422.902,250.202,422.974,249.889z M421.653,252.656c0.119,0.031,0.244,0.038,0.372,0.012
		c0.209-0.044,21.154-4.298,38.622-0.021c5.753,2.385,9.585,6.524,11.597,9.187c-4.533-2.005-14.547-5.453-30.566-5.849
		c-16.113-0.398-26.847,2.859-31.746,4.791C412.694,258.232,417.88,254.853,421.653,252.656z M408.953,262.982
		c1.655-0.727,4.906-1.991,9.63-3.113c-0.363,1.276-0.532,2.885-0.566,3.966c-0.949-0.021-1.985,0.137-2.948,0.664
		c-0.51,0.279-0.954,0.649-1.345,1.088C411.874,264.811,410.457,264.154,408.953,262.982z M384.035,314.708
		c-3.073,1.459-5.72,3.07-7.913,4.594c7.713-7.46,17.339-11.061,28.739-10.692c10.596,0.343,18.967,4.167,19.62,4.472
		c-0.034,0.06-0.07,0.122-0.104,0.182c-0.061,0.108-0.109,0.211-0.167,0.317c-0.041-0.024-0.082-0.047-0.128-0.065
		C407.046,306.874,392.901,310.499,384.035,314.708z M429.153,320.599c0.45,0.071,0.873-0.235,0.944-0.685
		c0.56-3.526,3.969-9.803,7.354-9.469c1.298,0.128,1.661,0.419,1.761,0.582c0.058,0.093,0.076,0.228,0.071,0.388
		c-0.091,0.168-0.117,0.357-0.085,0.539c-0.122,0.503-0.355,1.12-0.587,1.73l-0.141,0.371l-0.851,2.42
		c-0.567,1.663-1.154,3.383-1.641,4.296c-0.214,0.402-0.062,0.902,0.339,1.116c0.402,0.214,0.902,0.062,1.116-0.339
		c0.551-1.031,1.159-2.815,1.747-4.54l0.833-2.371l0.139-0.367c0.29-0.762,0.556-1.473,0.69-2.13
		c0.807-0.752,1.784-0.758,2.414-0.503c0.823,0.332,1.284,1.097,1.232,2.046c-0.037,0.691-0.474,1.598-0.896,2.476
		c-0.292,0.607-0.568,1.182-0.739,1.729l-0.939,3.505l-0.234,0.939c-0.11,0.442,0.158,0.893,0.6,1.003
		c0.442,0.11,0.889-0.157,0.999-0.599l0.236-0.947l0.912-3.409c0.135-0.433,0.386-0.954,0.652-1.505
		c0.243-0.507,0.491-1.021,0.686-1.536c0.068-0.023,0.136-0.052,0.199-0.093c0.476-0.319,1.34-0.805,1.765-0.48
		c1.299,0.994,0.628,6.836-0.041,8.819c-0.578,1.711-1.404,2.806-2.526,3.347c-1.457,0.702-3.45,0.53-6.464-0.56
		c-1.863-0.674-3.811-1.202-5.694-1.713c-1.962-0.532-3.991-1.082-5.927-1.798c-1.466-0.541-2.365-1.314-2.752-2.362
		c-0.227-0.615-0.269-1.343-0.146-2.17c0.13-0.186,0.182-0.423,0.126-0.66c0.255-1.055,0.756-2.255,1.509-3.599
		c0.923-1.646,1.959-3.327,3.582-4.22c0.998-0.549,2.287-0.679,2.933-0.296c0.13,0.077,0.527,0.312,0.526,1.153
		c0,0.072,0.012,0.141,0.03,0.208c-2.363,2.391-4.025,6.256-4.419,8.739C428.397,320.105,428.703,320.528,429.153,320.599z
		 M400.277,317.465c0.019-0.011,0.04-0.02,0.059-0.033c0.038-0.026,3.869-2.676,13.884-5.063c1.449,0.277,2.927,0.626,4.432,1.056
		c-2.691-0.011-10.023,0.476-17.978,5.403C400.676,318.334,400.545,317.874,400.277,317.465z M402.564,320.547
		c-0.29,0.3-1.133,0.435-1.701,0.117c0.472-0.307,0.943-0.599,1.412-0.874c0.002,0.002,0.002,0.005,0.005,0.008
		C402.505,320.04,402.738,320.367,402.564,320.547z M404.324,319.536c-0.074,0.019-0.14,0.05-0.203,0.087
		c-0.086-0.209-0.212-0.425-0.379-0.646c8.447-4.418,15.764-3.878,15.847-3.871c0.454,0.038,0.853-0.299,0.891-0.753
		c0.012-0.141-0.016-0.275-0.069-0.396c0.615,0.199,1.235,0.416,1.859,0.642c-1.276,0.318-3.351,0.918-5.87,1.951
		c-0.161-0.068-0.344-0.088-0.526-0.04L404.324,319.536z M392.538,345.058c2.65-9.483,8.085-17.096,16.318-22.627
		c6.138-4.123,12.047-5.805,14.206-6.321c-0.139,0.388-0.254,0.765-0.343,1.13c-8.191,2.487-14.687,7.38-19.683,12.732
		c-0.292,0.044-0.552,0.241-0.657,0.54c-0.033,0.096-0.064,0.187-0.097,0.282C397.824,335.758,394.625,341.02,392.538,345.058z
		 M401.656,338.709c0.486-2.003,1.145-4.34,2.087-7.088c1.649-1.812,3.473-3.576,5.478-5.215
		C406.609,329.388,403.954,333.374,401.656,338.709z M418.133,343.444c-6.473-0.996-7.789-7.066-7.842-7.324
		c-0.017-0.081-0.063-0.191-0.103-0.263c-0.009-0.017-0.889-1.706,0.108-7.687c0.022-0.132,0.008-0.26-0.029-0.379
		c5.964-6.901,11.677-8.281,11.768-8.301c0.172-0.039,0.319-0.129,0.43-0.251c0.009,0.653,0.106,1.265,0.314,1.83
		c0.227,0.616,0.576,1.163,1.034,1.648c-0.935,0.96-2.029,2.208-3.091,3.421c-1.707,1.95-3.473,3.967-4.588,4.813
		c-0.363,0.276-0.434,0.793-0.159,1.156c0.275,0.363,0.793,0.434,1.156,0.159c1.249-0.947,2.99-2.936,4.833-5.041
		c1.094-1.25,2.223-2.538,3.149-3.478c0.418,0.249,0.881,0.47,1.395,0.661c2.005,0.741,4.07,1.301,6.066,1.842
		c1.851,0.502,3.766,1.022,5.565,1.672c1.15,0.416,2.46,0.825,3.783,0.994C432.192,339.985,424.829,344.474,418.133,343.444z
		 M427.917,343.139c4.765-2.434,9.98-7.028,16.014-14.015c0.049-0.056,0.085-0.119,0.117-0.183c0.632-0.078,1.249-0.242,1.832-0.523
		c1.521-0.733,2.656-2.182,3.373-4.305c0.005-0.015,0.011-0.037,0.017-0.054l10.383,6.331c0.202,0.123,0.446,0.154,0.672,0.084
		c0.226-0.069,0.411-0.232,0.509-0.447l1.115-2.452l1.363,15.361C454.888,342.984,435.859,343.093,427.917,343.139z
		 M460.389,327.017c-0.239,0.525-0.401,0.882-0.672,1.479c-1.196-0.729-8.244-5.027-10.054-6.131
		c0.064-0.336,0.128-0.705,0.187-1.097C452.361,322.637,459.404,326.48,460.389,327.017z M450.058,319.502
		c0.009-0.112,0.018-0.223,0.026-0.336c2.102,0.736,8.16,2.856,9.392,3.287c-0.301,0.603-0.683,1.365-0.858,1.717L450.058,319.502z
		 M460.067,324.961l1.304-2.608c0.052-0.104,0.08-0.216,0.085-0.33l0.344,3.883L460.067,324.961z M463.739,301.536
		c4.116,6.287,4.717,14.383,5.297,22.212c0.194,2.612,0.377,5.079,0.684,7.49c0.277,2.169,0.418,4.386,0.539,6.469
		c0.003,0.062,0.005,0.145,0.005,0.244c0,0.483-0.039,1.356-0.077,2.206c-0.053,1.182-0.089,2.018-0.093,2.644
		c-0.529,0.007-1.216,0.036-2.22,0.089l-0.431,0.021c0,0-0.918,0.005-2.477,0.014l-2.845-32.072
		c-0.549-0.018-1.098,0.097-1.625,0.346l0.942,10.617c-0.01-0.048-0.022-0.095-0.04-0.141c-0.089-0.22-0.268-0.39-0.492-0.469
		l-10.787-3.775c-0.057-1.692-0.418-3.235-1.384-3.975c-0.515-0.394-1.354-0.681-2.605-0.168c-0.088-1.444-0.916-2.639-2.253-3.18
		c-1.064-0.43-2.213-0.348-3.208,0.161c-0.02-0.037-0.03-0.076-0.053-0.112c-0.476-0.769-1.43-1.2-3.002-1.355
		c-1.15-0.114-2.244,0.24-3.251,0.893c-0.199-0.672-0.602-1.212-1.191-1.561c-1.349-0.799-3.315-0.42-4.569,0.27
		c-1.415,0.778-2.438,1.996-3.271,3.268c-0.03-0.019-0.058-0.04-0.091-0.056c-0.258-0.125-4.757-2.273-11.462-3.616
		c0.661-1.523,3.077-5.318,4.65-7.216c2.744-3.31,4.228-3.52,7.581-2.489c-0.275,1.455-0.202,3.283-0.015,4.31
		c0.235,1.293,0.342,1.883,0.944,2.16c0.547,0.252,1.029-0.029,1.537-0.326l0.637-0.356c1.203-0.626,2.37-1.391,3.499-2.131
		c1.096-0.718,2.229-1.461,3.378-2.064c0.125-0.065,0.222-0.16,0.296-0.268c0.986,0.082,1.979,0.155,2.967,0.227l1.791,0.133
		c1.097,0.084,2.245,0.075,3.409-0.006c0.088,0.256,0.298,0.464,0.58,0.534c2.48,0.618,4.932,2.571,7.095,4.293l0.844,0.669
		c0.194,0.154,0.445,0.211,0.687,0.158c0.242-0.053,0.446-0.213,0.558-0.434c1.264-2.488,1.215-4.627,0.936-7.773
		c0.151-0.064,0.301-0.128,0.446-0.192C459.544,297.173,461.304,297.818,463.739,301.536z M427.475,300.469
		c0-0.779,0.069-1.566,0.214-2.157c1.803,0.499,3.811,0.819,5.909,1.052c-0.642,0.395-1.272,0.805-1.89,1.21
		c-1.145,0.751-2.227,1.459-3.356,2.047c0,0-0.421,0.235-0.61,0.341c-0.042-0.21-0.085-0.446-0.122-0.65
		C427.525,301.793,427.475,301.135,427.475,300.469z M447.401,299.625c2.173-0.36,4.297-0.925,6.149-1.582
		c0.069,0.819,0.117,1.562,0.117,2.256c0,1.149-0.136,2.172-0.516,3.21C451.484,302.181,449.504,300.607,447.401,299.625z
		 M468.105,271.935c-1.442,4.084-6.636,4.398-6.688,4.401c-0.439,0.023-0.784,0.385-0.784,0.824c0,4.03-0.555,12.698-2.654,16.664
		c-0.245,0.463-1.305,1.133-2.858,1.816c-0.028,0.01-0.055,0.022-0.082,0.035c-3.411,1.486-9.124,3.027-13.867,2.662l-1.798-0.133
		c-6.345-0.462-13.536-0.986-16.339-4.256c-2.537-2.961-2.901-13.309-2.827-17.047c0.005-0.241-0.097-0.472-0.278-0.633
		c-0.18-0.16-0.423-0.234-0.662-0.201c-0.03,0.004-2.976,0.389-4.618-1.252c-0.99-0.989-1.343-2.568-1.05-4.693
		c0.29-2.105,1.049-3.509,2.255-4.172c2.035-1.119,4.806,0.121,4.834,0.134c0.229,0.105,0.494,0.099,0.719-0.016
		c0.224-0.115,0.385-0.325,0.434-0.573l1.313-6.564c1.145-0.2,2.35-0.385,3.615-0.55c-0.167,0.358-0.404,0.73-0.539,0.864
		c-0.325,0.319-0.33,0.842-0.011,1.167c0.319,0.325,0.842,0.33,1.167,0.011c0.402-0.394,0.816-1.139,1.018-1.671
		c0.073-0.191,0.066-0.39,0.002-0.569c1.613-0.18,3.314-0.325,5.103-0.425c0.182,0.354,0.242,0.724,0.183,1.129
		c-0.067,0.451,0.244,0.87,0.694,0.937c0.451,0.067,0.871-0.244,0.937-0.695c0.075-0.501,0.037-0.986-0.092-1.452
		c2.033-0.078,4.165-0.1,6.406-0.044c2.459,0.061,4.77,0.2,6.948,0.393c-0.041,0.133-0.085,0.286-0.138,0.471l-0.158,0.559
		c-0.124,0.438,0.13,0.896,0.568,1.021c0.438,0.124,0.894-0.129,1.018-0.567l0.16-0.565c0,0,0.105-0.356,0.138-0.471
		c0.117-0.1,0.237-0.203,0.307-0.262c1.638,0.177,3.19,0.385,4.657,0.618l0.025,0.228c0.1,0.907,0.204,1.845,0.634,2.571
		c0.233,0.392,0.738,0.521,1.131,0.289c0.392-0.233,0.521-0.738,0.288-1.13c-0.222-0.374-0.313-1.018-0.387-1.673
		c1.458,0.26,2.824,0.541,4.097,0.835c-0.015,0.078-0.024,0.158-0.015,0.241l0.55,5.5c0.025,0.256,0.17,0.486,0.389,0.621
		s0.49,0.159,0.73,0.065c1.922-0.747,3.663-0.557,4.777,0.522C468.519,268.024,468.804,269.953,468.105,271.935z M472.292,264.196
		c-1.342,0.454-2.719,0.922-3.819,1.492c-0.958-0.911-2.196-1.365-3.577-1.379c0.226-1.133,0.191-2.293-0.104-3.357
		c3.957,1.144,6.659,2.311,8.124,3.024L472.292,264.196z"/>
</g>
</svg>
