<?xml version="1.0" encoding="utf-8"?>
<!-- Generator: Adobe Illustrator 17.1.0, SVG Export Plug-In . SVG Version: 6.00 Build 0)  -->
<!DOCTYPE svg PUBLIC "-//W3C//DTD SVG 1.1//EN" "http://www.w3.org/Graphics/SVG/1.1/DTD/svg11.dtd">
<svg version="1.1" id="Ebene_1" xmlns="http://www.w3.org/2000/svg" xmlns:xlink="http://www.w3.org/1999/xlink" x="0px" y="0px"
	 width="100px" height="100px" viewBox="0 0 100 100" enable-background="new 0 0 100 100" xml:space="preserve">
<circle fill="#B2B2B2" cx="50" cy="50" r="50"/>
<path fill="#B5B5B6" d="M23.8,40.9c1.7-3,0.6-6.9-2.4-8.8c-0.5-0.3-0.5-0.1-0.7,0.3c-0.2,0.4-0.5,0.8-0.7,1.3
	c-0.3,0.8-0.6,1.6-0.5,2.5c0.1,1.8,2.2,3.3,3.6,4.3C23.3,40.7,23.6,40.8,23.8,40.9z"/>
<g>
	<path fill="#2A2723" d="M42,12.3c-2.9-2-6.6-2.3-9.7-0.6c-3.5,1.8-5.7,5.6-6.1,9.5c-0.1,1.1-0.1,2.1,0,3.2c0.1,0.5,0.1,1,0.3,1.5
		c0,0.2,0.2,0.5,0.2,0.7c0,0.4-0.1,0.3-0.4,0.5c-1.9,0.9-3.5,2.3-4.7,4c-2.4,3.2-3.3,7.5-2.7,11.5c0.6,4,2.6,7.8,6.1,10.1
		c0.3,0.2,1,0.4,0.9,0.8c-0.1,0.4-0.2,0.8-0.2,1.1c-0.1,0.7-0.2,1.5-0.3,2.2c-0.1,2,0.2,4.1,0.8,6c2.4,7.4,10.6,12.3,18.1,8.8
		c0.1,2,0.1,4.1,0,6.1c0,1.7,0.1,3.6-0.4,5.2c-0.5,1.7-1.5,3.3-2.5,4.8c-0.6,0.8-1.2,1.6-1.8,2.4c-0.4,0.5-1.1,1-1.3,1.6
		c-0.1,0.3,0,0.6,0.2,0.9c0.4,0.4,1,0,1.5-0.2c1.3-0.5,2.7-1.1,3.9-1.8c0,0.7-0.8,2.2,0.4,2.3c1.2,0.1,3.1-1.3,3.8-2.2
		c0.2,0.6,0.4,2.7,1.3,2.6c0.9,0,1.6-2.2,1.9-2.8c0.6,0.8,1.3,1.5,2,2.1c0.6,0.4,1.7,1.2,2.4,1.1c1.7-0.2-0.4-2.4-0.6-3
		c1.6,0.8,3.4,1.5,5.2,1.6c0.5,0,1.1,0,1.2-0.7c0.1-0.4-0.1-0.7-0.4-0.9c-3.3-2-3.7-6.4-4.2-9.8c-0.5-3.5-1-7.1-0.7-10.6
		c3.4,2.5,7.9,3.4,11.9,1.8c3.9-1.5,7.1-4.8,8.4-8.8c0.3-0.9,0.6-1.9,0.8-2.9c0.1-0.7,1.5-1.4,2-1.9c1.4-1.4,2.5-3,3.3-4.8
		c1.6-3.6,1.8-7.7,0.7-11.5c-0.6-2.1-1.7-4-3.1-5.6c-0.7-0.8-1.5-1.5-2.3-2.2c-0.4-0.3-0.8-0.6-1.3-0.8c-0.2-0.1-0.5-0.2-0.5-0.4
		c0.1-0.3,0.2-0.6,0.3-0.9c1.2-3.5,1.2-7.5-0.1-10.9c-1.3-3.3-3.6-6.1-6.8-7.6c-2.8-1.3-6.1-1.1-8.9,0.3c-1.3-3.7-4.1-6.6-8-7.4
		c-4-0.9-7.9,1.4-10,4.7C42.4,11.6,42.2,11.9,42,12.3z M42.4,14.2c0.5-0.2,0.7-1,0.9-1.4c0.5-0.8,1-1.6,1.7-2.3
		c1.3-1.3,2.9-2.2,4.7-2.5c4.1-0.7,7.9,2,9.4,5.7c0.4,1,0.5,2.5,1.8,1.8c1.6-0.8,3.3-1.3,5-1.2c3.7,0.2,7,2.8,8.6,6.1
		c1.7,3.4,2,7.4,0.8,11C75,32.4,74,33.7,75,34.4c0.8,0.6,1.7,0.9,2.5,1.5c0.8,0.6,1.5,1.3,2.1,2.1c4.9,6.1,3.8,15.9-2.7,20.4
		c-0.6,0.5-0.8,0.6-0.9,1.4c-0.2,1-0.4,2-0.8,3c-0.7,1.8-1.8,3.5-3.1,4.9c-2.7,2.7-6.6,4-10.3,3.3c-1.8-0.3-3.6-1.2-5-2.3
		c-0.4-0.3-0.8-0.8-1.3-0.6C55,68.3,55,69,54.9,69.4c-0.5,3.7,0.1,7.6,0.6,11.3c0.5,3.3,0.8,6.9,2.9,9.6c-0.9-0.3-1.8-0.6-2.6-1.1
		c-0.4-0.2-1.1-0.8-1.6-0.7c-0.9,0.2-0.6,1.8-0.4,2.4c-0.6-0.5-1.1-1.1-1.6-1.7c-0.3-0.3-0.5-1-1-1.1c-0.5-0.1-0.7,0.4-0.8,0.7
		c-0.2,0.6-0.5,1.3-0.8,1.8c-0.2-0.6-0.6-3.2-1.7-2.3c-0.3,0.3-0.5,0.8-0.8,1.1c-0.5,0.5-1.2,0.9-1.9,1.3c0.1-0.6,0.1-2.3-0.8-2.4
		c-0.4,0-0.6,0.3-0.9,0.5c-0.6,0.5-1.4,0.8-2.1,1.1c1.2-1.7,2.4-3.4,3.2-5.3c0.8-1.8,0.9-3.6,0.9-5.5c0.1-1.9,0.1-3.8,0-5.7
		c0-1,0.1-2.1-0.1-3.1c-0.1-0.4-0.3-0.8-0.7-0.8c-0.5,0-1.3,0.6-1.8,0.8c-0.7,0.3-1.4,0.5-2.2,0.6c-1.8,0.3-3.7,0.1-5.5-0.4
		c-4.1-1.2-7-5-8.2-8.9c-0.5-1.8-0.7-3.6-0.5-5.5c0.1-0.8,0.2-1.6,0.4-2.3c0.1-0.4,0.4-1,0.2-1.4c-0.2-0.5-0.8-0.6-1.2-0.8
		c-0.8-0.5-1.5-1-2.2-1.6c-1.3-1.3-2.4-2.9-3-4.6c-1.4-3.8-1.2-8.3,0.7-11.9c0.9-1.7,2.2-3.2,3.9-4.3c0.7-0.5,1.5-0.8,2.3-1.1
		c0.3-0.2,0.4-0.6,0.4-0.9c-0.1-0.7-0.5-1.5-0.6-2.2c-0.1-0.7-0.2-1.5-0.2-2.2c0-2.1,0.5-4.1,1.6-5.9c1.9-3.2,5.5-5.3,9.3-4.5
		c0.9,0.2,1.7,0.5,2.4,1C41.2,13.6,41.8,14.3,42.4,14.2z"/>
	<path fill="#D3D1D3" d="M52.1,57.6c-0.1,4-1.5,8-4.4,10.8c-3.2,3.1-7.5,4.2-11.8,3.1c-8.3-2.2-11.7-12.4-8.7-19.9
		c1.6-3.9,4.9-7.1,9-8.1c4.2-1.1,8.6,0.4,11.6,3.4C50.7,49.7,52,53.6,52.1,57.6z"/>
	<path fill="#2A2723" d="M25.7,57.6c0.1,4.1,1.5,7.9,4.3,10.8c2.7,2.8,6.7,4.4,10.7,3.9c8.6-1.2,13.3-10.4,11.4-18.4
		c-0.9-3.8-3.2-7.3-6.6-9.3c-3.5-2.1-8-2.4-11.6-0.6C28.6,46.6,25.8,51.8,25.7,57.6z M26.4,57.6c0.1-4,1.6-8.1,4.7-10.8
		c3.2-2.8,7.7-4,11.8-2.5c8,3,11,13,7.1,20.4c-2,3.8-5.7,6.6-10.1,6.9c-4.4,0.3-8.4-1.9-10.9-5.4C27.2,63.6,26.5,60.6,26.4,57.6z"/>
	<path fill="#FFFFFF" d="M76.9,57.6c-0.1,4-1.5,8-4.4,10.8c-3.2,3-7.5,4.3-11.8,3.1c-8.3-2.2-11.8-12.4-8.7-19.9
		c1.6-3.9,4.9-7,9-8.1c4.2-1.1,8.6,0.4,11.6,3.4C75.4,49.7,76.8,53.6,76.9,57.6z"/>
	<path fill="#2A2723" d="M50.5,57.6c0.2,8.2,6.5,15.9,15.2,14.7c8.4-1.2,13-10.7,11.1-18.4c-1-3.8-3.2-7.2-6.6-9.3
		c-3.5-2.1-8.1-2.4-11.8-0.5C53.3,46.6,50.6,52,50.5,57.6z M51.2,57.6c0.1-4,1.5-8.1,4.7-10.8c3.2-2.8,7.7-4,11.8-2.5
		c8.1,3,11,13,7.1,20.4c-2,3.8-5.8,6.6-10.1,6.9c-4.4,0.3-8.4-1.9-10.9-5.4C52,63.6,51.2,60.6,51.2,57.6z"/>
	<path fill="#B5B5B6" d="M83.4,47c-0.1,3.9-1.4,7.9-4.3,10.7c-3.2,3-7.5,4.4-11.7,3.3c-8.2-2.1-12-12.2-9-19.7
		c1.6-3.8,4.7-7.3,8.8-8.3c4.3-1.1,8.6,0.1,11.8,3.2C81.9,39,83.3,43,83.4,47z"/>
	<path fill="#2A2723" d="M56.9,47c0.1,4.1,1.5,7.9,4.3,10.8C64,60.7,68,62.2,72,61.7c8.5-1.2,13.1-10.5,11.3-18.4
		c-0.9-3.8-3.2-7.2-6.5-9.3c-3.4-2.2-8.1-2.5-11.7-0.6C59.9,36,57.1,41.3,56.9,47z M57.6,47c0.1-4,1.5-8.2,4.7-10.8
		c3.2-2.8,7.7-4,11.8-2.5c7.9,2.9,11,12.9,7.2,20.2c-2,3.8-5.6,6.7-10,7.1c-4.3,0.4-8.5-1.7-11-5.2C58.6,53.1,57.7,50.2,57.6,47z"/>
	<path fill="#FFFFFF" d="M42.1,40.2c-0.1,4-1.5,8.1-4.6,10.8c-2.9,2.5-7.1,3.5-10.7,1.8c-7.7-3.6-9.4-14.2-4.9-20.9
		c2.2-3.3,5.9-5.3,9.8-5c4,0.3,7.2,3.3,8.9,6.8C41.6,35.7,42,37.9,42.1,40.2z"/>
	<path fill="#2A2723" d="M19.1,40.2c0.1,4.1,1.5,8.1,4.5,10.9c3,2.7,7.2,3.6,11,2.1c7.9-3.2,9.8-13.9,5.9-20.7
		c-2-3.5-5.6-6.1-9.7-6.1c-4.1,0-7.7,2.6-9.7,6.1C19.7,34.9,19.1,37.5,19.1,40.2z M19.7,40.2c0.1-4.1,1.6-8.2,4.9-10.8
		c3-2.4,7-2.9,10.4-1.2c7.6,3.9,8.6,14.8,3.5,21.1c-2.4,3-6.2,4.4-10,3.6c-3.8-0.8-6.6-4.1-7.9-7.6C20,43.7,19.8,41.9,19.7,40.2z"/>
	<path fill="#D3D1D3" d="M76.7,27c-0.1,4-1.5,8.1-4.6,10.8c-2.9,2.5-7.1,3.5-10.7,1.8C53.7,36,52,25.4,56.5,18.7
		c2.2-3.3,5.8-5.3,9.8-5c4,0.3,7.2,3.3,8.9,6.8C76.3,22.5,76.7,24.7,76.7,27z"/>
	<path fill="#2A2723" d="M53.7,27c0.1,4.1,1.5,8.1,4.5,10.9c3,2.7,7.2,3.6,11,2.1c7.8-3.1,9.8-13.9,5.9-20.7c-2-3.5-5.6-6.1-9.7-6.1
		c-4.1,0-7.7,2.6-9.7,6.1C54.3,21.7,53.8,24.3,53.7,27z M54.4,27c0.1-4.1,1.6-8.2,4.9-10.8c3-2.4,7-2.9,10.4-1.2
		c7.7,3.8,8.5,14.8,3.5,21.1c-2.4,3-6.2,4.4-10,3.6c-3.8-0.8-6.6-4.1-7.9-7.6C54.7,30.5,54.4,28.7,54.4,27z"/>
	<path fill="#B5B5B6" d="M46.4,22.8c-0.1,3.9-1.7,8-5.2,10.1c-3.7,2.2-8.4,1.6-11.2-1.7c-2.6-2.9-3.7-7-2.9-10.9
		c0.8-3.9,3.5-7.7,7.6-8.7C41.5,10,46.3,16.6,46.4,22.8z"/>
	<path fill="#2A2723" d="M26.5,22.8c0.1,3.9,1.6,7.9,5,10.1c3.7,2.5,8.5,2.1,11.7-1.1c5.6-5.7,4.7-16.6-3-20.1
		c-3.4-1.5-7.5-0.6-10.1,2C27.7,16.2,26.6,19.4,26.5,22.8z M27.2,22.8c0.1-4,1.9-8.1,5.6-10c3.7-2,8.1-0.7,10.7,2.4
		c2.4,3,3.2,7.3,2.2,10.9c-1.1,3.8-4.3,7.5-8.6,7.6C31,33.9,27.3,28.3,27.2,22.8z"/>
	<path fill="#FFFFFF" d="M60.8,18.6c-0.1,3.9-1.7,8-5.2,10.1c-3.6,2.2-8.4,1.5-11.2-1.7c-2.6-3-3.7-7-2.9-10.9
		c0.8-3.9,3.5-7.7,7.6-8.7c3.1-0.7,6.5,0.4,8.6,2.8C59.7,12.5,60.7,15.5,60.8,18.6z"/>
	<path fill="#2A2723" d="M40.8,18.6c0.1,3.9,1.6,7.9,5,10.1c3.7,2.5,8.6,2.1,11.7-1.1c5.6-5.7,4.7-16.6-2.9-20.1
		C51.2,6,47,6.9,44.5,9.5C42,12,40.9,15.2,40.8,18.6z M41.5,18.6c0.1-3.9,1.8-8,5.4-9.9c3.7-2,8.1-1,10.8,2.2c2.5,3,3.3,7.2,2.3,11
		c-1.1,3.9-4.3,7.5-8.5,7.7C45.4,29.9,41.7,24,41.5,18.6z"/>
	<path fill="#D3D1D3" d="M50.7,30.9c0,3.5-1.9,7.4-5.3,8.8c-3.4,1.4-7.3-0.1-9.2-3.3c-2-3.2-2.1-7.5-0.2-10.8c1.8-3.1,5.5-5,9.1-3.6
		C48.7,23.5,50.7,27.2,50.7,30.9z"/>
	<path fill="#2A2723" d="M34.3,30.9c0.1,3.7,1.9,7.6,5.5,9.1c3.4,1.5,7.2,0,9.3-3c2.3-3.2,2.5-7.7,0.7-11.2
		c-1.7-3.2-5.2-5.4-8.8-4.5C36.7,22.4,34.4,26.8,34.3,30.9z M35,30.9c0-3.8,2.2-7.8,6.1-8.7c4.2-1,7.8,2.2,8.9,6.1
		c0.9,3.5-0.1,7.7-3,10c-3.5,2.8-8.3,1.5-10.6-2.2C35.5,34.6,35,32.7,35,30.9z"/>
	<path fill="#D3D1D3" d="M63.1,48.5c-0.1,3.6-1.8,7.4-5.3,8.8c-3.5,1.4-7.2-0.1-9.1-3.2c-2-3.2-2.1-7.5-0.2-10.8
		c1.8-3.1,5.4-4.9,8.9-3.7C61.1,40.8,63,44.7,63.1,48.5z"/>
	<path fill="#2A2723" d="M46.7,48.5c0.1,3.7,1.9,7.6,5.5,9.1c3.4,1.5,7.2,0,9.3-3c2.3-3.2,2.5-7.7,0.7-11.2
		c-1.7-3.2-5.2-5.4-8.8-4.5C49.1,39.9,46.8,44.3,46.7,48.5z M47.4,48.5c0-3.8,2.2-7.8,6.1-8.7c4.2-1,7.8,2.2,8.9,6.1
		c1,3.5-0.1,7.7-3,10.1c-3.6,2.8-8.4,1.4-10.6-2.4C47.8,51.9,47.4,50.2,47.4,48.5z"/>
	<path fill="#B5B5B6" d="M49.7,41.8c0,3.8-2.9,7.9-7,7.5c-4.2-0.4-6.6-4.6-6.1-8.6c0.4-3.4,3.3-6.8,7-6.5
		C47.3,34.6,49.7,38.2,49.7,41.8z"/>
	<path fill="#2A2723" d="M36.1,41.8c0,3.9,2.8,8.1,7,7.9c4.3-0.1,6.9-4.3,6.9-8.3c-0.1-3.9-3.1-7.7-7.2-7.6
		C38.8,34,36.2,38,36.1,41.8z M36.8,41.8c0-3.6,2.7-7.4,6.7-7.1c4,0.3,6.2,4.4,5.8,8.1c-0.4,3.3-3.1,6.4-6.6,6.1
		C39.1,48.6,36.9,45.2,36.8,41.8z"/>
	<path fill="#B5B5B6" d="M73.9,42.1c0,3.8-2.9,7.9-7,7.5c-4.2-0.4-6.6-4.6-6.1-8.6c0.4-3.4,3.3-6.8,7-6.5
		C71.5,35,73.9,38.5,73.9,42.1z"/>
	<path fill="#2A2723" d="M60.3,42.1c0,3.9,2.8,8.1,7,7.9c4.2-0.1,6.9-4.2,6.9-8.1c-0.1-3.8-2.9-7.9-7-7.7
		C63.1,34.3,60.3,38.2,60.3,42.1z M61,42.1c0-3.6,2.7-7.5,6.7-7.1c4,0.3,6.2,4.4,5.8,8.1c-0.3,3.3-3.1,6.4-6.6,6.1
		C63.3,48.9,61.1,45.5,61,42.1z"/>
	<path fill="#B5B5B6" d="M63.1,36.9c0,3.8-2.5,8-6.6,8.4c-4.3,0.4-7.4-3.3-7.8-7.3c-0.4-3.8,1.5-8.1,5.4-9.2c4.2-1.3,8,2.1,8.8,6.1
		C63,35.5,63.1,36.2,63.1,36.9z"/>
	<path fill="#2A2723" d="M48.2,36.9c0,3.8,2.2,7.8,6.2,8.7c4.2,0.9,7.8-2.4,8.7-6.3c0.9-3.6-0.3-7.8-3.4-10c-3.7-2.6-8.4-0.8-10.4,3
		C48.6,33.7,48.2,35.3,48.2,36.9z M48.9,36.9c0-3.9,2.7-8,6.9-8c4.2,0,6.9,4.2,6.9,8c0,3.9-2.7,8-6.9,8C51.6,44.9,49,40.7,48.9,36.9
		z"/>
	<path fill="#B5B5B6" d="M45.4,55.9c0,3.9-2.6,8-6.8,8.4c-4.3,0.4-7.3-3.6-7.7-7.5c-0.3-3.8,1.7-8.2,5.7-9.1c4.3-1,7.9,2.6,8.6,6.6
		C45.3,54.8,45.3,55.4,45.4,55.9z"/>
	<path fill="#2A2723" d="M30.5,55.9c0,3.7,2.2,7.9,6.2,8.7c4.2,0.9,7.8-2.3,8.7-6.3c0.8-3.6-0.2-7.8-3.4-10c-3.7-2.6-8.4-0.8-10.4,3
		C30.9,52.8,30.5,54.4,30.5,55.9z M31.2,55.9c0-3.8,2.7-8.2,7-8c4.2,0.1,6.9,4.3,6.8,8.2c-0.1,3.8-2.8,7.9-7,7.8
		C33.9,63.8,31.2,59.8,31.2,55.9z"/>
	<path fill="#FFFFFF" d="M53.5,50.6c0,1.8-0.8,3.7-2.4,4.8c-1.8,1.2-4.1,1-5.7-0.5c-2.7-2.5-2.3-7.8,1.2-9.4
		C50.2,43.8,53.4,47.2,53.5,50.6z"/>
	<path fill="#2A2723" d="M43.3,50.6c0,3.4,3,6.8,6.6,5.8c3.5-1,4.7-5.3,3.4-8.4c-1-2.4-3.6-3.9-6.2-3.2
		C44.7,45.6,43.3,48.2,43.3,50.6z M44,50.6c0-2,1.1-4,2.9-4.8c1.8-0.8,3.9-0.1,5.1,1.4c2.4,3.2,0.4,9.3-4.2,8.5
		C45.5,55.3,44,52.9,44,50.6z"/>
	<path fill="#D3D3D4" d="M35.8,40.6c0,4.1-4.6,7.5-8.1,4.3c-2.8-2.6-2.3-7.9,1.3-9.5C32.6,33.9,35.8,37.2,35.8,40.6z"/>
	<path fill="#2A2723" d="M25.6,40.6c0,3.5,3.2,7,6.8,5.7c3.4-1.2,4.5-5.5,3.1-8.5c-1.1-2.3-3.7-3.7-6.2-2.9
		C27,35.8,25.6,38.2,25.6,40.6z M26.3,40.6c0-2,1.1-4.1,3-4.8c1.9-0.8,3.9,0,5.1,1.6c2.4,3.3,0.2,9.3-4.3,8.4
		C27.7,45.3,26.3,42.9,26.3,40.6z"/>
	<path fill="#B5B5B6" d="M55.3,23.1c0,4.1-4.6,7.5-8.1,4.3c-2.8-2.6-2.2-7.8,1.3-9.5C52.1,16.3,55.3,19.8,55.3,23.1z"/>
	<path fill="#2A2723" d="M45.1,23.1c0,3.5,3.1,6.9,6.7,5.7c3.3-1.1,4.6-5.3,3.3-8.3c-1-2.3-3.5-3.9-6.1-3.2
		C46.6,18.1,45.1,20.6,45.1,23.1z M45.8,23.1c0-2,1.1-4,2.9-4.8c1.9-0.8,3.9-0.1,5.1,1.4c2.5,3.1,0.5,9.1-4,8.5
		C47.4,27.9,45.8,25.5,45.8,23.1z"/>
	<path fill="#898989" d="M67.6,54.2c-1.2,0.1-2.3,0.2-3.5,0.3c1.2-1.5,2.3-3.1,3.5-4.6c-0.6-0.4-1.2-0.9-1.8-1.3
		c-0.1-0.1-0.4,0.3-0.5,0.4c-1.1,1.2-2.1,2.5-3.2,3.7c-2,2.3-4,4.6-6,6.9c1.7-3.8,3.5-7.5,5.2-11.3c0.9-2,1.9-4.1,2.8-6.1
		c0.1-0.1,0.5-0.8,0.4-0.9c-0.9-0.6-1.8-1.1-2.7-1.7c-1.2,2.8-2.3,5.6-3.5,8.4c-0.4-3.4-0.9-6.8-1.3-10.2c-0.3,0-1.4,0-1.5,0.2
		c-0.2,0.2,0.2,1.5,0.2,1.8c0.1,1,0.2,2.1,0.3,3.1c0.2,2.1,0.4,4.1,0.6,6.2c0.1,0.9,0.1,1.6-0.1,2.5c-0.3,0.9-0.7,1.8-1,2.6
		c-0.8,1.9-1.6,3.7-2.4,5.5c-0.2,0.3-0.3,0.7-0.5,1c-0.2-4.4-0.5-8.9-0.7-13.3c-0.1-2-0.2-4-0.3-6c-0.1-1.8-0.6-4.1,0.2-5.8
		c1.4-3.2,3.5-6.2,5.4-9.2c-0.3-0.2-1.2-0.9-1.4-0.6c-0.5,0.7-0.9,1.4-1.4,2c-1,1.4-2,2.8-3,4.2c0-1.2,0-2.4,0-3.6
		c0-0.5,0.1-0.5-0.4-0.6c-0.6-0.1-1.2-0.1-1.8-0.2c-0.1,9.9-0.3,19.8-0.4,29.7c0,1.1,0,2.2,0,3.2c-0.7-1.4-1.3-2.8-2-4.2
		c-0.6-1.4-1.6-2.8-1.9-4.3c-0.3-1.2,0-2.7,0-3.9c0.1-1.6,0.2-3.2,0.3-4.9c-0.2,0-1.5-0.1-1.5-0.1c-0.1,0.6-0.1,1.1-0.2,1.7
		c-0.1,1.4-0.3,2.8-0.4,4.2c-1.9-4.1-3.8-8.2-5.7-12.4c-0.4,0.3-2.2,1.1-2,1.6c0.5,1.1,1.1,2.3,1.6,3.4c1.1,2.4,2.2,4.8,3.3,7.2
		c-3.7-1.6-7.5-3.3-11.2-4.9c-0.1,0.5-0.3,1.1-0.4,1.6c-0.1,0.2,1,0.6,1.2,0.7c0.9,0.4,1.9,0.9,2.8,1.3c1.9,0.9,3.9,1.8,5.8,2.7
		c0.9,0.5,1.9,0.9,2.8,1.4c0.8,0.4,1.1,1.2,1.4,1.9c0.9,1.8,1.7,3.6,2.5,5.5c0.5,1.2,1.1,2.5,1.6,3.7c-3.5-2.8-6.9-5.6-10.4-8.5
		c-0.2,0.5-0.5,1-0.7,1.5c-0.3,0.6,0,0.6,0.5,1c0.8,0.7,1.5,1.4,2.3,2.1c1.5,1.4,3.1,2.9,4.5,4.4c0.6,0.6,1.3,1.3,1.7,2
		c0.4,0.7,0.4,1.9,0.4,2.7c0.2,2,0.2,4,0.2,5.9c0,1.7,0,3.4-0.1,5.1c-0.1,1.6-0.1,3.2-0.8,4.7C43,87,41,89.6,38.9,91.9
		c1-0.4,2-0.8,3-1.3c0.8-0.4,1.8-0.8,2.4-1.5c0.3,0.9,0.2,2-0.1,2.9c1.6-0.4,3.3-1.4,4.1-2.9c0.3,1.1,0.7,2.3,1,3.4
		c0.7-1.1,1.4-2.3,1.7-3.5c1,1.6,2.7,3.6,4.6,3.9c-0.9-0.9-1.7-2.2-1.4-3.5c1.8,1.1,4.3,2.3,6.5,2.1c-3.4-1.9-4-6-4.5-9.5
		c-0.6-3.9-1.2-8.1-0.8-12c0.2-1.9,1.1-3.6,1.8-5.4c0.6-1.5,1.4-2.9,2.3-4.2c0.6-0.8,1.2-1.5,1.7-2.3c0.4-0.5,0.9-1.4,1.5-1.7
		c1.3-0.7,3.4-0.4,4.9-0.3C67.7,55.4,67.6,54.8,67.6,54.2z"/>
	<path fill="#2A2723" d="M55.5,25.6c-1.3,1.9-2.6,3.7-3.9,5.5c0-0.9,0.2-2,0-2.9c-0.1-0.6-0.5-0.5-1.1-0.5c-0.5,0-1.6-0.4-1.9,0.2
		c-0.1,0.3,0,1,0,1.3c0,0.6,0,1.2,0,1.7c-0.1,4.2-0.1,8.4-0.2,12.6c-0.1,5.3-0.2,10.5-0.2,15.8c-0.9-1.9-1.8-3.8-2.7-5.8
		c-0.3-0.6-0.6-1.2-0.6-1.8c0-0.9,0-1.8,0.1-2.7C45,48,45,47,45.1,45.9c0-0.6,0.3-1.7,0.2-2.3c-0.2-0.6-1.2-0.4-1.8-0.4
		c-0.6,0-0.5,0.6-0.5,1.1c-0.1,1.3-0.3,2.6-0.4,4c-0.9-2-1.8-4-2.8-6c-0.4-0.9-0.8-1.8-1.2-2.7c-0.2-0.5-0.5-1-0.7-1.5
		c-0.1-0.2-0.3-1-0.6-1.2c-0.5-0.3-1.5,0.7-1.9,1c-0.6,0.4-0.9,0.5-0.6,1.2c0.9,1.9,1.8,3.8,2.7,5.8c0.6,1.3,1.2,2.5,1.8,3.8
		c-1.9-0.9-3.8-1.7-5.7-2.5c-1-0.5-2.1-0.9-3.1-1.4c-0.4-0.2-1.4-0.9-1.8-0.6C28.3,44.3,28,45.7,28,46c0.1,0.7,1.5,1,2.1,1.3
		c1.8,0.8,3.7,1.7,5.5,2.6c1.4,0.7,2.7,1.3,4.1,2c1.1,0.6,1.6,1,2.2,2.1c1.3,2.6,2.4,5.3,3.6,8c-1.7-1.4-3.4-2.8-5.1-4.2
		c-0.8-0.6-1.6-1.3-2.4-1.9c-0.4-0.3-1.5-1.6-2-1.5c-0.6,0.1-1,1.6-1.2,2.1c-0.3,0.6,0.4,0.9,0.7,1.2c1.5,1.4,3,2.7,4.5,4.2
		c0.7,0.7,1.5,1.4,2.2,2.2c0.6,0.6,1.4,1.3,1.8,2c0.4,0.7,0.3,1.8,0.4,2.6c0.1,1,0.1,2.1,0.2,3.1c0.1,1.9,0.1,3.8,0.1,5.8
		c0,1.9,0.1,4.1-0.5,5.9c-1,3.1-3.2,5.8-5.3,8.2c-0.2,0.2-0.4,0.5-0.1,0.8c0.3,0.3,1.2-0.3,1.5-0.4c1.4-0.5,2.8-1.1,4-2
		c0.1,0.5,0,1-0.1,1.5c-0.1,0.3-0.4,0.7,0,1c0.4,0.3,1.7-0.5,2.1-0.7c0.8-0.4,1.5-1,2.1-1.8c0.2,0.5,0.6,3,1.2,3
		c0.4-0.1,0.8-1.2,1-1.5c0.3-0.5,0.6-1.1,0.8-1.7c0.6,0.8,1.2,1.6,2,2.2c0.5,0.4,1.9,1.6,2.6,1.3c0.7-0.3-0.1-1-0.3-1.3
		c-0.4-0.6-0.8-1.3-0.9-2c1.6,0.9,3.5,1.7,5.4,1.9c0.4,0,1.3,0.2,1.2-0.5c-0.1-0.5-1.1-0.9-1.4-1.2c-2.7-2.7-3-7-3.4-10.6
		c-0.5-3.9-1.3-8.3,0.1-12c0.7-1.8,1.2-3.6,2.2-5.2c1-1.7,2.3-3.3,3.6-4.9c0.6-0.7,1-0.9,1.9-1c0.6-0.1,1.3-0.1,1.9-0.1
		c0.4,0,1.4,0.3,1.7,0c0.3-0.2,0.2-0.6,0.2-0.9c0-0.4,0.1-1.3-0.2-1.5c-0.2-0.2-0.7-0.1-0.9,0c-0.7,0.1-1.3,0.1-2,0.2
		c0.6-0.8,1.2-1.5,1.8-2.3c0.3-0.4,1.2-1.2,1.2-1.8c0-0.4-0.4-0.5-0.6-0.7c-0.5-0.3-1.2-1.2-1.8-0.9c-0.3,0.2-0.7,0.8-0.9,1.1
		c-0.3,0.4-0.7,0.8-1,1.2c-0.7,0.8-1.4,1.6-2.1,2.4c-1.3,1.5-2.6,3-3.9,4.5c1.8-4,3.7-7.9,5.5-11.9c0.5-1,0.9-2,1.4-2.9
		c0.2-0.4,0.7-1,0.6-1.5c-0.1-0.6-1.5-1.1-2-1.4c-0.4-0.3-1-0.9-1.4-0.5c-0.3,0.3-0.5,1.3-0.7,1.7c-0.2,0.6-0.5,1.1-0.7,1.7
		c-0.5,1.3-1.1,2.6-1.6,3.8c-0.3-2.1-0.5-4.2-0.8-6.3c-0.1-0.5-0.1-1-0.2-1.4c0-0.3,0-1-0.2-1.2c-0.3-0.4-1.5-0.2-1.9,0
		c-0.2,0.1-0.3,0.2-0.3,0.5c0.1,1,0.2,2.1,0.3,3.1c0.2,2.2,0.5,4.3,0.7,6.5c0.1,0.9,0.3,2,0.2,2.9c-0.1,0.8-0.5,1.5-0.7,2.2
		c-0.9,2.2-1.9,4.4-2.8,6.5c-0.2-4.3-0.5-8.6-0.7-12.9c-0.1-2.1-0.2-4.2-0.3-6.3c-0.1-1.7-0.3-3.2,0.4-4.8c1.2-2.4,2.7-4.7,4.1-7
		c0.3-0.4,1.3-1.4,1.1-2c-0.1-0.4-1-0.7-1.3-0.9C55.9,25.5,55.7,25.3,55.5,25.6z M51.5,32.5c0.9-1.3,1.9-2.6,2.8-4
		c0.4-0.6,0.9-1.2,1.3-1.8c0.3-0.5,0.5-0.2,0.9,0.1c-1.1,1.7-2.2,3.5-3.3,5.2c-0.8,1.4-2.1,3.1-2.3,4.8c-0.2,1.8,0.1,3.7,0.2,5.5
		c0.1,2,0.2,4,0.3,6c0.1,2.2,0.2,4.4,0.3,6.6c0.1,1.1,0.1,2.2,0.2,3.3c0,0.6,0.1,1.3,0.1,1.9c0,0.2-0.1,0.9,0.2,1.1
		c0.6,0.4,1-1.2,1.1-1.5c0.4-0.9,0.8-1.9,1.3-2.8c0.8-1.8,1.7-3.7,2.3-5.6c0.2-0.8,0.1-1.7,0-2.5c-0.1-1.4-0.3-2.7-0.4-4.1
		c-0.1-1.3-0.3-2.7-0.4-4c-0.1-0.8-0.2-1.5-0.3-2.3c0-0.1,0.7-0.1,0.8-0.2c0.2,1.7,0.4,3.4,0.7,5.1c0.1,0.8,0.2,1.7,0.3,2.5
		c0.1,0.5,0,2,0.4,2.4c0.6,0.5,0.8-0.8,1-1.1c0.3-0.8,0.7-1.6,1-2.4c0.6-1.5,1.3-3.1,1.9-4.6c0.4,0.2,0.8,0.5,1.2,0.7
		c0.4,0.2,1.1,0.4,0.9,0.9c-0.4,1-0.9,1.9-1.3,2.9c-0.9,2-1.9,4.1-2.8,6.1c-0.9,2-1.9,4-2.8,6c-0.1,0.3-2,3.3-0.9,3.3
		c0.3,0,0.7-0.7,0.8-0.9c0.5-0.6,1-1.2,1.6-1.8c0.9-1,1.8-2.1,2.7-3.1c1-1.1,1.9-2.2,2.9-3.3c0.5-0.6,1-1.2,1.6-1.8
		c0.1-0.1,1.2,0.8,1.3,0.9c-0.6,0.8-1.2,1.6-1.8,2.3c-0.4,0.5-1.4,1.5-1.5,2c-0.1,1,2.9,0.3,3.5,0.2c0,0.3,0,0.6,0.1,0.9
		c-1.4-0.1-3.4-0.4-4.7,0.4c-0.6,0.4-1.1,1.2-1.6,1.8c-0.7,0.8-1.3,1.7-1.9,2.6c-1,1.4-1.8,3-2.4,4.6c-0.7,1.9-1.5,3.7-1.6,5.7
		C55,74.3,55.4,78,56,81.6c0.5,3.4,0.9,6.9,3.6,9.4c-1.1-0.2-2.1-0.5-3.1-1c-0.4-0.2-1.9-1.2-2.3-1.1c-0.9,0.4,0.1,2.6,0.4,3.1
		c-0.7-0.4-1.2-0.9-1.8-1.4c-0.5-0.5-0.9-1.3-1.4-1.8c-0.5-0.5-0.6-0.1-0.8,0.5c-0.3,0.8-0.7,1.6-1.2,2.3c-0.2-0.8-0.4-1.6-0.7-2.4
		c-0.2-0.5-0.5-0.8-0.8-0.2c-0.7,1.1-1.9,1.9-3.2,2.4c0.1-0.5,0.4-2.9-0.6-2.6c-0.1,0-0.3,0.3-0.4,0.4c-0.3,0.2-0.6,0.4-0.9,0.6
		c-0.9,0.4-1.7,0.9-2.6,1.2c2.1-2.5,4.5-5.6,4.9-9c0.5-3.9,0.3-8,0.1-11.9c-0.1-1.3,0.1-3.1-0.5-4.3c-0.6-1.3-2-2.4-3-3.4
		c-1.3-1.2-2.5-2.4-3.8-3.6c-0.6-0.6-1.2-1.1-1.9-1.7c-0.4-0.3-0.5-0.3-0.3-0.8c0.2-0.3,0.3-0.6,0.4-0.9c1.7,1.4,3.5,2.8,5.2,4.2
		c0.7,0.6,1.5,1.2,2.2,1.8c0.4,0.3,0.8,0.7,1.2,1c0.3,0.3,0.9,1,1.4,1.1c1.3,0.4-0.5-2.8-0.6-3.2c-0.8-1.8-1.6-3.7-2.5-5.5
		c-0.6-1.3-1.1-2.5-2.4-3.3c-1.4-0.8-2.9-1.5-4.4-2.2c-1.6-0.7-3.1-1.5-4.7-2.2c-0.8-0.3-1.5-0.7-2.3-1c-0.4-0.2-0.6-0.1-0.5-0.5
		c0.1-0.2,0.1-0.4,0.2-0.6c1.9,0.9,3.8,1.7,5.7,2.5c1.1,0.5,2.2,1,3.3,1.5c0.4,0.2,1.8,1.1,2.2,0.7c0.3-0.4-0.3-1.1-0.4-1.4
		c-0.4-0.9-0.8-1.8-1.3-2.7c-0.9-2-1.9-4-2.8-6.1c-0.3-0.5-0.4-0.5,0-0.9c0.3-0.3,0.8-0.5,1.2-0.8c1.8,3.9,3.6,7.9,5.5,11.8
		c0.5,1,0.8-0.2,0.8-0.7c0.1-0.9,0.2-1.9,0.3-2.8c0-0.5,0.1-1.1,0.1-1.6c0.1-0.5,0.1-0.4,0.5-0.4c0.5,0,0.4,0.2,0.3,0.7
		c0,0.5-0.1,1-0.1,1.6c-0.1,1.9-0.4,3.9-0.2,5.8c0.1,0.8,0.5,1.5,0.8,2.2c0.4,1,0.9,2,1.4,2.9c0.4,0.9,0.9,1.8,1.3,2.8
		c0.1,0.3,0.5,1.6,1,1.2c0.4-0.3,0.1-1.8,0.1-2.4c0-1,0-2.1,0-3.1c0.1-8.9,0.3-17.7,0.4-26.6c0-0.2,0-0.5,0-0.7
		c0.3,0,1.4-0.1,1.6,0.1c0.2,0.2,0,1.7,0,2c0,0.5-0.2,1.3,0,1.8C51,32.6,51.3,32.8,51.5,32.5z"/>
	<path fill="#B5B5B6" d="M50.8,52.4c-0.3-1.7,0-3.6,0.9-5.1c0.7-1.1,1.7-2.6,3.1-3c0.3,1.5,0.5,3.4-0.1,4.9
		C53.9,50.8,52.2,51.8,50.8,52.4z"/>
	<path fill="#2A2723" d="M54.7,44c-2.9,0.9-4.5,4.9-4.3,7.7c0,0.4,0,1.1,0.5,1.1c0.5,0.1,1.6-0.9,2-1.1c1.5-1.1,2.4-2.4,2.5-4.3
		C55.4,46.8,55.5,43.9,54.7,44z M51.1,51.2c0-2.4,1.2-5.1,3.4-6.3c0.2,1.3,0.4,2.9-0.2,4.1c-0.6,1.3-2,2.2-3.2,2.8
		C51.1,51.6,51.1,51.4,51.1,51.2z"/>
	<path fill="#B5B5B6" d="M36.8,37.7c-0.3-1.7,0-3.6,0.9-5.1c0.7-1.1,1.7-2.6,3.1-3c0.3,1.5,0.6,3.5-0.1,4.9
		C39.9,36,38.2,37,36.8,37.7z"/>
	<path fill="#2A2723" d="M40.6,29.3c-1.3,0.4-2.4,1.7-3.1,2.8c-0.9,1.5-1.3,3.2-1.2,4.9c0,0.4,0,1.1,0.5,1.1c0.5,0.1,1.6-0.9,2-1.1
		c1.5-1.1,2.4-2.4,2.5-4.3C41.3,32.1,41.4,29.2,40.6,29.3z M37,36.5c0-2.4,1.3-5.1,3.4-6.3c0.2,1.3,0.4,2.9-0.2,4.1
		c-0.6,1.3-2,2.2-3.2,2.8C37,36.9,37,36.7,37,36.5z"/>
	<path fill="#B5B5B6" d="M36.6,57.2c-1.1,1.2-2.7,1.8-4.2,1.7c-0.8-0.1-1.6-0.3-2.3-0.6c-0.2-0.1-1.4-0.6-1.4-0.9
		c0-0.4,1.4-1.4,1.7-1.6c0.6-0.4,1.3-0.8,2-0.8C33.9,55,35.5,56.2,36.6,57.2z"/>
	<path fill="#2A2723" d="M32.3,54.6c-1.5,0.1-2.9,1.4-3.9,2.5c-0.7,0.8,1.3,1.6,1.8,1.8c1.7,0.6,3.6,0.6,5.2-0.3
		c0.4-0.2,1.2-0.7,1.4-1.1c0.2-0.6-0.6-1-1-1.3C34.9,55.4,33.6,54.5,32.3,54.6z M32.3,55.4c1.3-0.1,2.7,1,3.7,1.8
		c-1.9,1.6-4.9,1.8-6.8,0.2C30,56.5,31.1,55.5,32.3,55.4z"/>
	<path fill="#B5B5B6" d="M61,58.2c0.9,1.3,2.2,2.3,3.8,2.6c1.2,0.2,3,0.2,4-0.7c0.2-0.1-1.2-1.7-1.4-1.9c-0.5-0.5-1.1-1.1-1.9-1.3
		C64,56.6,62.2,57.5,61,58.2z"/>
	<path fill="#2A2723" d="M60.8,57.9c-0.8,0.6,1.5,2.3,1.9,2.6c1.4,0.9,3.5,1.1,5.1,0.6c0.4-0.1,1.1-0.3,1.3-0.7
		c0.2-0.5-0.4-1.1-0.7-1.5c-0.9-1.2-2.1-2.5-3.8-2.3C63.2,56.6,62,57.2,60.8,57.9z M65.4,57.4c1.2,0.3,2.2,1.6,2.8,2.6
		c-2.3,1.2-5.2,0.3-6.7-1.6C62.6,57.8,64.1,57,65.4,57.4z"/>
	<path fill="#B5B5B6" d="M63.2,41.5c0.4-1.6,1.3-3.1,2.6-4.1c1-0.7,2.6-1.5,3.9-1.1c0.2,0-0.6,2.1-0.7,2.4c-0.3,0.7-0.7,1.4-1.2,1.9
		C66.6,41.6,64.7,41.6,63.2,41.5z"/>
	<path fill="#2A2723" d="M65.9,36.9c-1.4,0.9-2.6,2.5-3,4.1c-0.3,1.4,2.1,0.9,3,0.7c1.8-0.3,2.8-1.4,3.5-3.1
		c0.3-0.9,1.4-2.8-0.1-2.9C68.1,35.8,66.9,36.3,65.9,36.9z M66.2,37.6c0.9-0.6,2-1,3.1-1c-0.3,1.2-0.7,2.8-1.7,3.6
		c-1,0.9-2.7,0.9-4,0.8C64.1,39.7,64.9,38.4,66.2,37.6z"/>
	<path fill="#B5B5B6" d="M57,26.6c0.4-1.6,1.3-3.1,2.6-4.1c1.1-0.7,2.6-1.4,3.9-1.1c-0.3,1.5-0.8,3.3-2,4.3
		C60.4,26.7,58.4,26.7,57,26.6z"/>
	<path fill="#2A2723" d="M59.7,22c-1.4,0.9-2.6,2.5-3,4.1c-0.1,0.6,0,0.8,0.6,0.8c0.8,0,1.6,0,2.4-0.1c1.8-0.3,2.8-1.4,3.5-3.1
		c0.3-0.9,1.4-2.8-0.1-2.9C61.9,20.9,60.7,21.4,59.7,22z M60,22.7c0.9-0.6,2-1,3.1-1c-0.3,1.2-0.7,2.8-1.7,3.6c-1,0.9-2.7,0.9-4,0.9
		C57.9,24.8,58.7,23.5,60,22.7z"/>
	<path fill="#B5B5B6" d="M43.4,37.1c1.5-0.4,3.2-0.2,4.5,0.7c0.7,0.5,1.3,1.1,1.9,1.7c0.2,0.2,1,1.3,0.9,1.6
		c-0.2,0.4-1.9,0.5-2.3,0.5c-0.7,0.1-1.4,0-2-0.4C44.9,40.4,44,38.6,43.4,37.1z"/>
	<path fill="#2A2723" d="M43.3,36.7c-0.9,0.4,1.2,3.2,1.6,3.7c1.1,1.4,2.5,1.8,4.2,1.5c0.5-0.1,1.6-0.2,1.8-0.6
		c0.2-0.4-0.2-1-0.4-1.3c-0.9-1.5-2.3-2.8-4-3.3C45.5,36.4,44.3,36.4,43.3,36.7z M47.8,38.2c0.9,0.7,1.8,1.5,2.3,2.6
		c-1.1,0.3-2.6,0.7-3.7,0c-1.2-0.7-1.9-2.3-2.5-3.5C45.3,37.1,46.6,37.4,47.8,38.2z"/>
	<path fill="#B5B5B6" d="M51.1,37.1c0.5-1.5,1.7-2.9,3.1-3.6c0.7-0.3,1.5-0.6,2.4-0.7c0.3,0,1.4-0.1,1.6,0.2
		c0.2,0.3-0.7,1.9-0.9,2.2c-0.4,0.6-0.8,1.3-1.4,1.7C54.5,37.8,52.5,37.4,51.1,37.1z"/>
	<path fill="#2A2723" d="M54.3,33c-1.5,0.7-2.8,2.1-3.4,3.6c-0.5,1.4,2,1.2,2.9,1.2c1.8,0,3-0.9,3.8-2.5c0.5-0.9,1.7-2.6,0.2-2.9
		C56.6,32.2,55.4,32.6,54.3,33z M54.5,33.8c1-0.4,2.1-0.7,3.2-0.5c-0.4,1.2-1,2.7-2.2,3.3c-1.1,0.7-2.8,0.4-4,0.2
		C52.2,35.5,53.2,34.3,54.5,33.8z"/>
	<path fill="#B5B5B6" d="M42,24.6c1.5-0.5,3.2-0.2,4.5,0.7c0.7,0.5,1.3,1.1,1.8,1.8c0.2,0.2,1,1.3,0.8,1.6c-0.2,0.4-1.9,0.5-2.3,0.5
		c-0.7,0-1.4,0-2-0.4C43.4,27.9,42.7,26.1,42,24.6z"/>
	<path fill="#2A2723" d="M41.9,24.2c-0.9,0.4,1.2,3.3,1.5,3.7c1.1,1.4,2.4,1.8,4.2,1.5c0.5-0.1,1.6-0.2,1.8-0.6
		c0.2-0.4-0.2-1-0.4-1.3c-0.9-1.5-2.3-2.9-3.9-3.4C44.1,23.9,43,23.9,41.9,24.2z M46.4,25.8c0.9,0.7,1.8,1.6,2.3,2.7
		c-1.1,0.3-2.6,0.6-3.7,0c-1.2-0.7-1.9-2.3-2.4-3.5C43.9,24.7,45.3,25,46.4,25.8z"/>
	<path fill="#B5B5B6" d="M63.9,34.9c-3-0.3-6.1,2.2-6.6,5.1c1.4,0.3,3.2,0.4,4.3-0.6C62.9,38.4,63.5,36.5,63.9,34.9z"/>
	<path fill="#2A2723" d="M59.3,36.2c-1,1-2.1,2.4-2.3,3.8c-0.1,1,2.6,0.7,3.2,0.6c1.8-0.4,2.7-1.8,3.4-3.4c0.2-0.5,0.9-1.7,0.7-2.3
		c-0.1-0.5-0.8-0.4-1.2-0.4C61.7,34.6,60.3,35.1,59.3,36.2z M59.7,36.8c1-1,2.3-1.5,3.7-1.5c-0.4,1.3-0.9,2.9-2,3.8
		c-1,0.9-2.5,0.8-3.7,0.6C58.1,38.6,58.9,37.6,59.7,36.8z"/>
	<path fill="#B5B5B6" d="M43.8,44.2c-1.2,1-2.9,1.3-4.4,0.9c-0.8-0.2-1.6-0.5-2.2-1c-0.2-0.2-1.2-0.8-1.2-1.2c0-0.4,1.6-1.1,1.9-1.2
		c0.6-0.3,1.4-0.6,2.1-0.4C41.6,41.5,42.9,43,43.8,44.2z"/>
	<path fill="#2A2723" d="M35.8,42.6c-0.7,0.7,1.3,1.9,1.8,2.2c1.6,0.9,3.5,1.2,5.2,0.5c0.4-0.1,1.2-0.5,1.4-0.9
		c0.2-0.6-0.6-1.2-1-1.5c-1.1-1.1-2.5-2.4-4.2-2C37.8,41.1,36.7,41.8,35.8,42.6z M39.9,41.6c1.3,0.2,2.5,1.5,3.4,2.5
		c-2.2,1.3-5,0.8-6.8-1.1C37.4,42.3,38.7,41.4,39.9,41.6z"/>
	<path fill="#B5B5B6" d="M74.3,51.7c-1.2,0.9-2.9,1.3-4.4,0.9c-0.8-0.2-1.6-0.5-2.2-1c-0.2-0.2-1.2-0.8-1.2-1.2
		c0-0.4,1.6-1.1,1.9-1.2c0.6-0.3,1.4-0.5,2.1-0.4C72.1,49.1,73.3,50.5,74.3,51.7z"/>
	<path fill="#2A2723" d="M66.3,50.1c-0.7,0.7,1.3,1.9,1.7,2.1c1.6,0.9,3.5,1.3,5.2,0.6c0.4-0.2,1.3-0.5,1.5-0.9
		c0.3-0.5-0.5-1.1-0.9-1.5c-1.1-1.2-2.6-2.4-4.3-2.1C68.2,48.6,67.2,49.3,66.3,50.1z M70.4,49.1c1.3,0.2,2.6,1.5,3.4,2.5
		c-2.2,1.3-5.1,0.8-6.8-1.1C67.9,49.8,69.2,48.9,70.4,49.1z"/>
	<path fill="#B5B5B6" d="M54,28.4c0.7-1.6,0.8-3.5,0.3-5.2c-0.4-1.3-1-3-2.3-3.8c-0.7,1.4-1.3,3.3-1,4.9
		C51.4,25.9,52.8,27.3,54,28.4z"/>
	<path fill="#2A2723" d="M51.8,19.2c-0.7,1.4-1.3,3.2-1.1,4.9c0.2,1.7,1.6,3.2,2.8,4.4c0.5,0.4,0.7,0.5,0.9-0.2
		c0.3-0.7,0.4-1.5,0.5-2.2c0.2-1.8-0.3-3.6-1.1-5.1C53.6,20.6,52.3,18.4,51.8,19.2z M51.4,24.1c-0.3-1.4,0.3-2.9,0.8-4.1
		c2,1.9,2.5,5.2,1.7,7.7C52.9,26.7,51.7,25.5,51.4,24.1z"/>
	<path fill="#2A2723" d="M29.8,37.4c-0.7,1.5-1.3,3.2-1.1,4.9c0.2,1.7,1.6,3.2,2.8,4.3c0.5,0.4,0.7,0.5,0.9-0.2
		c0.3-0.7,0.4-1.5,0.5-2.2c0.2-1.8-0.3-3.6-1.2-5.2C31.6,38.7,30.3,36.5,29.8,37.4z M29.5,42.3c-0.3-1.4,0.3-2.8,0.8-4.1
		c2,1.9,2.5,5.2,1.7,7.7C30.9,44.9,29.8,43.7,29.5,42.3z"/>
	<path fill="#2A2723" d="M48.9,64.5c-0.7,0.1-0.3,2.4-0.3,2.9c0,0.4-0.4,3.1,0.4,3.1c0.7,0,0.3-2.5,0.3-2.9
		C49.3,67.1,49.7,64.6,48.9,64.5z"/>
	<path fill="#2A2723" d="M46.8,78.2c-0.7,0.1-0.3,2.4-0.3,2.9c0,0.3-0.4,3.1,0.4,3.1c0.7,0,0.3-2.5,0.3-2.9
		C47.2,80.9,47.6,78.3,46.8,78.2z"/>
	<path fill="#2A2723" d="M48.7,76.2c-0.7,0.1-0.3,2.5-0.3,2.9c0,0.4-0.4,3.1,0.4,3.1c0.7,0,0.3-2.5,0.3-2.9
		C49.1,78.8,49.5,76.3,48.7,76.2z"/>
	<path fill="#2A2723" d="M50.3,72.5c-0.7,0.1-0.3,2.5-0.3,2.9c0,0.3-0.4,3.1,0.4,3.1c0.7,0,0.3-2.5,0.3-2.9
		C50.7,75.1,51.1,72.5,50.3,72.5z"/>
	<path fill="#2A2723" d="M52.3,77.4c-0.7,0.1-0.3,2.5-0.3,2.9c0,0.3-0.4,3.1,0.4,3.1c0.7,0,0.3-2.5,0.3-2.9
		C52.7,80,53.1,77.4,52.3,77.4z"/>
	<path fill="#2A2723" d="M51.7,66.1c0,1.7,0.1,3.5,0.1,5.2c0,0.3-0.2,1.4,0.2,1.7c0.3,0.2,0.5-0.1,0.5-0.3c0.1-0.3,0-0.8,0-1.1
		c0-0.6,0-1.3,0-1.9c0-0.7,0-1.5-0.1-2.2c0-0.3,0.2-1.5-0.2-1.7C52,65.6,51.7,65.8,51.7,66.1z"/>
	<path fill="#2A2723" d="M46.9,67.4c-0.4,0.1-0.3,0.5-0.3,0.8c0,1,0.1,2,0.1,3c0,0.5-0.2,3.5,0.5,3.5c0.7,0,0.2-3,0.2-3.5
		c0-1-0.1-1.9-0.1-2.9C47.2,67.9,47.3,67.4,46.9,67.4z"/>
	<path fill="#2A2723" d="M53.8,70c-0.1,1.7-0.1,3.4-0.1,5.1c0,0.3-0.2,1.3,0.2,1.5c0.3,0.2,0.4-0.1,0.5-0.4c0.2-0.7,0-1.7,0-2.5
		c0-0.8,0-1.7,0.1-2.5c0-0.3,0.3-1.3-0.1-1.6C54,69.6,53.8,69.8,53.8,70z"/>
</g>
</svg>
