<?xml version="1.0" encoding="utf-8"?>
<!-- Generator: Adobe Illustrator 17.1.0, SVG Export Plug-In . SVG Version: 6.00 Build 0)  -->
<!DOCTYPE svg PUBLIC "-//W3C//DTD SVG 1.1//EN" "http://www.w3.org/Graphics/SVG/1.1/DTD/svg11.dtd">
<svg version="1.1" id="Ebene_1" xmlns="http://www.w3.org/2000/svg" xmlns:xlink="http://www.w3.org/1999/xlink" x="0px" y="0px"
	 width="100px" height="100px" viewBox="0 0 100 100" enable-background="new 0 0 100 100" xml:space="preserve">
<circle fill="#B2B2B2" cx="50" cy="50" r="50"/>
<g>
	<path fill="#7E8C93" d="M89,24.3c-0.5,2.1-1,4.3-1.5,6.4c-0.2,0.9-0.4,1.7-0.6,2.6c-0.1,0.2-2.3,0.6-2.5,0.6
		c-1.2,0.3-2.5,0.7-3.8,0.8c-0.7,0.1-1.6-0.3-2.3-0.5c-2.6-0.7-6.6-2.7-4.7-6c-0.9,0.6-0.7,2.4-0.6,3.3c0.2,2.5,4,3.3,5.8,3.7
		c1.4,0.3,2.8,0.3,4.3,0.5c0.3,0,0.1,0.6-0.2,0.7c-0.7,0.3-1.4,0.6-2,1c-2.1,1.3-3.7,3.2-5.3,5.1c-1.7,2-3.4,4.1-5.1,6.1
		c-6.9,8.4-13.7,16.9-20.8,25.1c-0.9,1-1.5,2.3-1.8,3.6c-0.3,1.3-0.4,2.7-0.3,4c0.1,0.5,0,1.3,0.5,1.5c0.3,0.2,0.6,0.3,0.9,0.5
		c-0.1-1.7-0.1-3.3,0-5c0.1-2.3,1.3-4.4,2.7-6.2c1.5-2.1,3.3-4,5-6c4.2-5,8.4-10.1,12.6-15.2c2.5-3,4.8-6.1,7.5-9c1.4-1.5,3-3,4.9-4
		c1-0.5,2.1-0.9,3.1-1.2c1.2-0.3,2.6-0.5,3.6-1.2c3.1-2.3,1.8-6.9,1.4-10.2C89.6,24.8,89.8,24.5,89,24.3z"/>
	<path fill="#AAABAB" d="M71.6,38.3c0.5-0.5,0.9-1.2,1.3-1.9c0.3-0.6,0.5-1.3,0.7-2c0.1-0.4,0.1-0.8,0.1-1.2c0-0.5-0.5-0.9-0.7-1.3
		c0.2,2.3,0,4-1.4,5.9c-0.4,0.5-0.8,1-1.2,1.5c-1.7,2-3.3,4-5,6C61.2,50.1,57.1,55,52.9,60c-1.5,1.8-3,3.6-4.5,5.4
		c-1.5,1.8-3,3.9-4.8,5.4c-2.7,2.1-6,3.9-9.2,4.9c0.7,0.4,0.8,0.4,1.5,0.1c0.9-0.4,1.8-0.9,2.7-1.4c2-1,4-2.2,5.6-3.7
		c1.2-1.1,2.2-2.4,3.3-3.7c4.1-4.8,8.2-9.6,12.2-14.4C63.7,47.8,67.7,43.1,71.6,38.3z"/>
	<path fill="#D7DEE2" d="M76.4,34.6c-1.1-0.3-2-0.9-2.8-1.7c0.1,4-3.4,7-5.7,9.9c-4.1,4.9-8.3,9.9-12.5,14.8c-3,3.6-6,7.1-9.1,10.6
		c-0.8,1-1.6,2-2.6,2.8c-2.5,2.2-5.7,3.7-8.7,5.1c4.2,2.3,8.4,4.5,12.7,6.8c-0.7-3.2-0.2-6.6,2-9.2c0.9-1.1,1.8-2.2,2.8-3.3
		c4-4.9,8-9.7,12.1-14.6c3.8-4.6,7.6-9.2,11.4-13.7c1.7-2,3.5-4,5.9-5.2c0.4-0.2,0.9-0.4,1.3-0.5c0.1,0,0-0.5,0-0.6
		c0-0.1-0.3-0.1-0.4-0.1c-1.9-0.1-3.7-0.4-5.5-0.9C76.9,34.7,76.7,34.6,76.4,34.6C75.1,34.2,80.5,35.8,76.4,34.6z"/>
	<path fill="#AFAFB0" d="M43.9,72.1c0.5,0.2,3.8,1.9,3.8,2c0.2-0.3,0.4-0.5,0.6-0.8c1.1-1.4,2.3-2.8,3.4-4.1
		c3.9-4.7,7.7-9.4,11.6-14.1c4.6-5.6,9.1-11.2,13.7-16.7c-0.4-0.1-3-1.2-3-1.2c-0.2,0.3-0.5,0.6-0.7,0.9c-1.2,1.4-2.4,2.9-3.6,4.3
		c-4,4.8-8,9.5-12,14.3c-3,3.6-6,7.1-9.1,10.6c-1,1.2-2.1,2.4-3.1,3.5C45,71.1,44.4,71.9,43.9,72.1z"/>
	
		<linearGradient id="SVGID_1_" gradientUnits="userSpaceOnUse" x1="69.0411" y1="77.0864" x2="109.3938" y2="77.0864" gradientTransform="matrix(0.9362 -0.3515 -0.3515 -0.9362 4.0741 159.1)">
		<stop  offset="0" style="stop-color:#FFFFFF"/>
		<stop  offset="0.31" style="stop-color:#F6F7F9"/>
		<stop  offset="0.8238" style="stop-color:#DCE3E7"/>
		<stop  offset="1" style="stop-color:#D2DBE0"/>
	</linearGradient>
	<path fill="url(#SVGID_1_)" d="M45.1,71.8c0.5,0.4,2.5,1.8,3,1.2c0.2-0.3,0.4-0.5,0.7-0.8c1.2-1.4,2.4-2.9,3.5-4.3
		c3.9-4.8,7.8-9.6,11.8-14.4c3.4-4.1,6.7-8.2,10.1-12.3c0.5-0.6,1-1.3,1.6-1.9c0.6-0.6-1.7-1.6-1.9-1.5c-0.2,0.3-0.5,0.5-0.7,0.8
		C66,47.1,58.9,55.6,51.7,64c-1.6,1.9-3.2,3.8-4.8,5.7c-0.5,0.5-0.9,1.1-1.4,1.6C45.5,71.4,45.1,71.7,45.1,71.8z"/>
	<g>
		<path fill="#7E8C93" d="M77.9,27.7c0.1,0.7,0.6,1.3,1.1,1.7c-0.4-0.5,0.1-1.6,0.3-2.2c0.3-0.8,0.7-1.6,1.3-2.2
			c0.5-0.6-0.2-1.3-0.5-1.9C79.4,24.2,77.7,26.2,77.9,27.7C78.1,28.5,77.8,26.6,77.9,27.7z"/>
		<path fill="#B5C4CC" d="M88.6,24c-0.5,1.3-1,2.5-1.6,3.8c-0.3,0.7-0.5,1.3-0.8,2c-0.2,0.4-0.9,0.5-1.3,0.6
			C82.8,31,78.8,30.6,78,28c-0.3-1.1,0.6-2.4,1.1-3.3c0.3-0.5,0.6-1,0.9-1.4c0.2-0.3-0.1-0.6-0.2-0.9c-2.1,1.4-4.4,3-6,5
			c-1.2,1.5-1.2,3.5,0.1,5c1,1.3,2.6,1.8,4.1,2.2c2.1,0.6,4.2,0.9,6.4,0.6c1.6-0.2,3-0.5,4.2-1.7c1.7-1.7,1.5-3.8,1.3-6.1
			c-0.1-0.9-0.2-1.8-0.3-2.6C89.5,24.2,89,24.2,88.6,24z"/>
	</g>
	<path fill="#7E8C93" d="M48.3,80.3c-0.6-1.4-2-2.6-3.2-3.5c-1.9-1.3-4.1-2.2-6.4-2.3c-4.4,0-8.2,2.3-10,6.2c-0.8,1.7-0.6,4-0.5,5.8
		c0.1,1,0,2.4,0.5,3.2c0.2,0.3,0.5,1.3,0.9,1.2c0.5-0.2,0.5-0.2,0.7-0.6c0.6-1.2,1.2-2.5,1.9-3.7c0.5-1.1,1.1-2.1,1.6-3.2
		c0.5-1,2.5-1.1,3.4-1.1c1.3,0,2.6,0.3,3.7,1c0.4,0.2,1.8,1.2,1.5,1.8c-0.5,1-0.9,1.9-1.4,2.9c-0.6,1.3-1.3,2.7-1.9,4
		c-0.1,0.3-0.3,0.5-0.4,0.8c-0.1,0.2,0.7,1.2,0.8,1.4c0.1,0.2,0.9,0.1,1.1-0.1c0.8-0.5,1.5-1.1,2.2-1.7c1.8-1.5,3.7-3.3,5-5.3
		c0.6-1,1.1-2.2,1.2-3.4C49,82.8,49,81.2,48.3,80.3C47.6,78.5,48.8,80.8,48.3,80.3z"/>
	
		<linearGradient id="SVGID_2_" gradientUnits="userSpaceOnUse" x1="47.3641" y1="58.6268" x2="68.71" y2="58.6268" gradientTransform="matrix(0.9362 -0.3515 -0.3515 -0.9362 4.0741 159.1)">
		<stop  offset="0" style="stop-color:#F1F1F1"/>
		<stop  offset="0.2934" style="stop-color:#E5E8EA"/>
		<stop  offset="0.7795" style="stop-color:#C6D1D7"/>
		<stop  offset="1" style="stop-color:#B5C4CC"/>
	</linearGradient>
	<path fill="url(#SVGID_2_)" d="M32.9,81.9c-0.7,1.4-1.4,2.8-2.1,4.2c-0.4,0.9-0.9,1.7-1.3,2.6c-0.3,0.6-0.3,0.7-1,1
		c-0.6-3-1.1-6.6,0.3-9.4c2-3.9,6.1-5.9,10.4-5.4c2.3,0.3,4.5,1.3,6.3,2.8c1.2,0.9,2.3,2.1,2.6,3.6c0.7,3.9-3.2,7.2-5.8,9.5
		c-0.8,0.7-1.6,1.3-2.4,1.9c-0.5,0.3-0.7,0.3-1.3,0.2c1.2-2.6,2.5-5.1,3.7-7.7c0.1-0.3-0.3-0.9-0.4-1.2c-0.5-1-1.3-1.8-2.3-2.3
		C38,80.9,34.5,80.3,32.9,81.9z"/>
</g>
<g>
	<g>
		<g>
			<g>
				<path fill="#F1F1F1" d="M14.2,56.5c-1.2-1.1-2.4-2.5-3.1-4c-0.4-0.9-1-2.3-0.5-3.3c-1.1,0.6-0.7,2.2-0.4,3.1
					c0.6,1.8,1.8,3.3,3.1,4.6c1.4,1.3,3.1,2.4,4.9,3c1,0.3,3,0.8,3.6-0.4c-0.9,0.5-2.2,0.1-3.1-0.2C17.1,58.7,15.5,57.7,14.2,56.5
					C11.3,53.8,17.1,59.1,14.2,56.5z"/>
				<path fill="#221714" d="M20.2,60.4c-3.1,0-6.3-2.4-8.2-4.7c-1.1-1.4-2.2-3.1-2.3-5c0-0.6,0.1-1.3,0.6-1.7c0.7-0.5,0.3,0.7,0.3,1
					c0,3.1,3.2,6.2,5.6,7.7c1.2,0.8,2.7,1.5,4.1,1.7c0.3,0,1.8-0.3,1.6,0.1C21.7,60.2,20.9,60.4,20.2,60.4z M10.3,49.9
					c-0.4,1.2,0.3,2.7,0.9,3.8c0.8,1.4,1.9,2.7,3.1,3.7c1.6,1.3,4.6,3.3,6.8,2.5c-2.5,0.2-5.2-1.7-7-3.3
					C12.4,55,10.2,52.5,10.3,49.9z"/>
			</g>
			<g>
				<path fill="#B2B0AE" d="M18,52.4c-1.3-1.2-2.8-2.3-4.4-2.9c-0.5-0.2-2.7-1.1-3-0.2c-0.4,1,0.1,2.3,0.5,3.2
					c0.7,1.5,1.8,2.9,3.1,4c1.2,1.1,2.7,2.1,4.3,2.7c1,0.4,2.3,0.8,3.3,0.4c0.8-0.4-0.1-2.4-0.3-2.8C20.6,55.1,19.4,53.7,18,52.4
					C15.1,49.8,20.9,55.1,18,52.4z"/>
				<path fill="#221714" d="M20.8,59.9c-3.1,0-6.2-2.5-8.1-4.7c-0.8-0.9-4.4-6.4-1.2-6.4c3.1,0,6.2,2.9,8.1,5
					C20.5,54.8,24.3,59.9,20.8,59.9z M10.8,49.3c-0.4,0.8,0,2,0.3,2.8c0.6,1.4,1.6,2.7,2.7,3.7c1.2,1.2,2.6,2.2,4.1,2.9
					c1,0.5,2.4,1,3.5,0.7c0.9-0.2,0-2.2-0.2-2.7c-0.7-1.4-1.7-2.6-2.8-3.7c-1.2-1.2-2.6-2.2-4.1-3C13.4,49.6,11.9,48.8,10.8,49.3z"
					/>
			</g>
		</g>
		<g>
			<g>
				<path fill="#F1F1F1" d="M15.7,55c-1.2-1.1-2.4-2.5-3.1-4c-0.4-0.9-1-2.3-0.5-3.3c-1.1,0.6-0.7,2.2-0.4,3.1
					c0.6,1.8,1.8,3.3,3.1,4.6c1.4,1.3,3.1,2.4,4.9,3c1,0.3,3,0.8,3.6-0.4c-0.9,0.5-2.2,0.1-3.1-0.2C18.6,57.2,17,56.2,15.7,55
					C12.8,52.3,18.6,57.6,15.7,55z"/>
				<path fill="#221714" d="M21.7,58.9c-3.1,0-6.3-2.4-8.2-4.7c-1.1-1.4-2.2-3.1-2.3-5c0-0.6,0.1-1.3,0.6-1.7c0.7-0.5,0.3,0.7,0.3,1
					c0,3.1,3.2,6.2,5.6,7.7c1.2,0.8,2.7,1.5,4.1,1.7c0.3,0,1.8-0.3,1.6,0.1C23.2,58.8,22.4,58.9,21.7,58.9z M11.8,48.5
					c-0.4,1.2,0.3,2.7,0.9,3.8c0.8,1.4,1.9,2.7,3.1,3.7c1.6,1.3,4.6,3.3,6.8,2.5c-2.5,0.2-5.2-1.7-7-3.3
					C13.9,53.6,11.7,51,11.8,48.5z"/>
			</g>
			<g>
				<path fill="#B2B0AE" d="M19.5,51c-1.3-1.2-2.8-2.3-4.4-2.9c-0.5-0.2-2.7-1.1-3-0.2c-0.4,1,0.1,2.3,0.5,3.2
					c0.7,1.5,1.8,2.9,3.1,4c1.2,1.1,2.7,2.1,4.3,2.7c1,0.4,2.3,0.8,3.3,0.4c0.8-0.4-0.1-2.4-0.3-2.8C22.1,53.6,20.9,52.2,19.5,51
					C16.7,48.3,22.5,53.6,19.5,51z"/>
				<path fill="#221714" d="M22.3,58.4c-3.1,0-6.2-2.5-8.1-4.7c-0.8-0.9-4.4-6.4-1.2-6.4c3.1,0,6.2,2.9,8.1,5
					C22,53.3,25.8,58.4,22.3,58.4z M12.3,47.8c-0.4,0.8,0,2,0.3,2.8c0.6,1.4,1.6,2.7,2.7,3.7c1.2,1.2,2.6,2.2,4.1,2.9
					c1,0.5,2.4,1,3.5,0.7c0.9-0.2,0-2.2-0.2-2.7c-0.7-1.4-1.7-2.6-2.8-3.7c-1.2-1.2-2.6-2.2-4.1-3C14.9,48.1,13.4,47.3,12.3,47.8z"
					/>
			</g>
		</g>
		<g>
			<g>
				<path fill="#F1F1F1" d="M17.2,53.5c-1.2-1.1-2.4-2.5-3.1-4c-0.4-0.9-1-2.3-0.5-3.3c-1.1,0.6-0.7,2.2-0.4,3.1
					c0.6,1.8,1.8,3.3,3.1,4.6c1.4,1.3,3.1,2.4,4.9,3c1,0.3,3,0.8,3.6-0.4c-0.9,0.5-2.2,0.1-3.1-0.2C20.1,55.7,18.5,54.7,17.2,53.5
					C14.3,50.8,20.1,56.1,17.2,53.5z"/>
				<path fill="#221714" d="M23.2,57.5c-3.1,0-6.3-2.4-8.2-4.7c-1.1-1.4-2.2-3.1-2.3-5c0-0.6,0.1-1.3,0.6-1.7c0.7-0.5,0.3,0.7,0.3,1
					c0,3.1,3.2,6.2,5.6,7.7c1.2,0.8,2.7,1.5,4.1,1.7c0.3,0,1.8-0.3,1.6,0.1C24.7,57.3,23.9,57.5,23.2,57.5z M13.3,47
					c-0.4,1.2,0.3,2.7,0.9,3.8c0.8,1.4,1.9,2.7,3.1,3.7c1.6,1.3,4.6,3.3,6.8,2.5c-2.5,0.2-5.2-1.7-7-3.3
					C15.4,52.1,13.2,49.5,13.3,47z"/>
			</g>
			<g>
				<path fill="#B2B0AE" d="M21,49.5c-1.3-1.2-2.8-2.3-4.4-2.9c-0.5-0.2-2.7-1.1-3-0.2c-0.4,1,0.1,2.3,0.5,3.2
					c0.7,1.5,1.8,2.9,3.1,4c1.2,1.1,2.7,2.1,4.3,2.7c1,0.4,2.3,0.8,3.3,0.4c0.8-0.4-0.1-2.4-0.3-2.8C23.6,52.1,22.4,50.7,21,49.5
					C18.2,46.9,24,52.1,21,49.5z"/>
				<path fill="#221714" d="M23.8,56.9c-3.1,0-6.2-2.5-8.1-4.7c-0.8-0.9-4.4-6.4-1.2-6.4c3.1,0,6.2,2.9,8.1,5
					C23.5,51.8,27.3,56.9,23.8,56.9z M13.9,46.3c-0.4,0.8,0,2,0.3,2.8c0.6,1.4,1.6,2.7,2.7,3.7c1.2,1.2,2.6,2.2,4.1,2.9
					c1,0.5,2.4,1,3.5,0.7c0.9-0.2,0-2.2-0.2-2.7c-0.7-1.4-1.7-2.6-2.8-3.7c-1.2-1.2-2.6-2.2-4.1-3C16.4,46.6,14.9,45.9,13.9,46.3z"
					/>
			</g>
		</g>
		<g>
			<g>
				<path fill="#F1F1F1" d="M18.7,52c-1.2-1.1-2.4-2.5-3.1-4c-0.4-0.9-1-2.3-0.5-3.3c-1.1,0.6-0.7,2.2-0.4,3.1
					c0.6,1.8,1.8,3.3,3.1,4.6c1.4,1.3,3.1,2.4,4.9,3c1,0.3,3,0.8,3.6-0.4c-0.9,0.5-2.2,0.1-3.1-0.2C21.6,54.2,20.1,53.2,18.7,52
					C15.8,49.3,21.6,54.6,18.7,52z"/>
				<path fill="#221714" d="M24.7,56c-3.1,0-6.3-2.4-8.2-4.7c-1.1-1.4-2.2-3.1-2.3-5c0-0.6,0.1-1.3,0.6-1.7c0.7-0.5,0.3,0.7,0.3,1
					c0,3.1,3.2,6.2,5.6,7.7c1.2,0.8,2.7,1.5,4.1,1.7c0.3,0,1.8-0.3,1.6,0.1C26.2,55.8,25.4,56,24.7,56z M14.8,45.5
					c-0.4,1.2,0.3,2.7,0.9,3.8c0.8,1.4,1.9,2.7,3.1,3.7c1.6,1.3,4.6,3.3,6.8,2.5c-2.5,0.2-5.2-1.7-7-3.3
					C16.9,50.6,14.7,48,14.8,45.5z"/>
			</g>
			<g>
				<path fill="#B2B0AE" d="M22.5,48c-1.3-1.2-2.8-2.3-4.4-2.9c-0.5-0.2-2.7-1.1-3-0.2c-0.4,1,0.1,2.3,0.5,3.2
					c0.7,1.5,1.8,2.9,3.1,4c1.2,1.1,2.7,2.1,4.3,2.7c1,0.4,2.3,0.8,3.3,0.4c0.8-0.4-0.1-2.4-0.3-2.8C25.1,50.6,23.9,49.2,22.5,48
					C19.7,45.4,25.5,50.7,22.5,48z"/>
				<path fill="#221714" d="M25.3,55.4c-3.1,0-6.2-2.5-8.1-4.7c-0.8-0.9-4.4-6.4-1.2-6.4c3.1,0,6.2,2.9,8.1,5
					C25.1,50.4,28.8,55.4,25.3,55.4z M15.4,44.9c-0.4,0.8,0,2,0.3,2.8c0.6,1.4,1.6,2.7,2.7,3.7c1.2,1.2,2.6,2.2,4.1,2.9
					c1,0.5,2.4,1,3.5,0.7c0.9-0.2,0-2.2-0.2-2.7c-0.7-1.4-1.7-2.6-2.8-3.7c-1.2-1.2-2.6-2.2-4.1-3C17.9,45.1,16.4,44.4,15.4,44.9z"
					/>
			</g>
		</g>
		<g>
			<g>
				<path fill="#F1F1F1" d="M20.3,50.5c-1.2-1.1-2.4-2.5-3.1-4c-0.4-0.9-1-2.3-0.5-3.3c-1.1,0.6-0.7,2.2-0.4,3.1
					c0.6,1.8,1.8,3.3,3.1,4.6c1.4,1.3,3.1,2.4,4.9,3c1,0.3,3,0.8,3.6-0.4c-0.9,0.5-2.2,0.1-3.1-0.2C23.1,52.7,21.6,51.7,20.3,50.5
					C17.3,47.8,23.1,53.1,20.3,50.5z"/>
				<path fill="#221714" d="M26.2,54.5c-3.1,0-6.3-2.4-8.2-4.7c-1.1-1.4-2.2-3.1-2.3-5c0-0.6,0.1-1.3,0.6-1.7c0.7-0.5,0.3,0.7,0.3,1
					c0,3.1,3.2,6.2,5.6,7.7c1.2,0.8,2.7,1.5,4.1,1.7c0.3,0,1.8-0.3,1.6,0.1C27.7,54.3,26.9,54.5,26.2,54.5z M16.3,44
					c-0.4,1.2,0.3,2.7,0.9,3.8c0.8,1.4,1.9,2.7,3.1,3.7c1.6,1.3,4.6,3.3,6.8,2.5c-2.5,0.2-5.2-1.7-7-3.3
					C18.4,49.1,16.2,46.5,16.3,44z"/>
			</g>
			<g>
				<path fill="#B2B0AE" d="M24,46.5c-1.3-1.2-2.8-2.3-4.4-2.9c-0.5-0.2-2.7-1.1-3-0.2c-0.4,1,0.1,2.3,0.5,3.2
					c0.7,1.5,1.8,2.9,3.1,4c1.2,1.1,2.7,2.1,4.3,2.7c1,0.4,2.3,0.8,3.3,0.4c0.8-0.4-0.1-2.4-0.3-2.8C26.6,49.1,25.4,47.7,24,46.5
					C21.2,43.9,27,49.2,24,46.5z"/>
				<path fill="#221714" d="M26.8,54c-3.1,0-6.2-2.5-8.1-4.7c-0.8-0.9-4.4-6.4-1.2-6.4c3.1,0,6.2,2.9,8.1,5
					C26.6,48.9,30.3,54,26.8,54z M16.9,43.4c-0.4,0.8,0,2,0.3,2.8c0.6,1.4,1.6,2.7,2.7,3.7c1.2,1.2,2.6,2.2,4.1,2.9
					c1,0.5,2.4,1,3.5,0.7c0.9-0.2,0-2.2-0.2-2.7c-0.7-1.4-1.7-2.6-2.8-3.7c-1.2-1.2-2.6-2.2-4.1-3C19.4,43.6,17.9,42.9,16.9,43.4z"
					/>
			</g>
		</g>
		<g>
			<g>
				<path fill="#F1F1F1" d="M21.8,49c-1.2-1.1-2.4-2.5-3.1-4c-0.4-0.9-1-2.3-0.5-3.3c-1.1,0.6-0.7,2.2-0.4,3.1
					c0.6,1.8,1.8,3.3,3.1,4.6c1.4,1.3,3.1,2.4,4.9,3c1,0.3,3,0.8,3.6-0.4c-0.9,0.5-2.2,0.1-3.1-0.2C24.6,51.2,23.1,50.2,21.8,49
					C18.8,46.4,24.6,51.6,21.8,49z"/>
				<path fill="#221714" d="M27.7,53c-3.1,0-6.3-2.4-8.2-4.7c-1.1-1.4-2.2-3.1-2.3-5c0-0.6,0.1-1.3,0.6-1.7c0.7-0.5,0.3,0.7,0.3,1
					c0,3.1,3.2,6.2,5.6,7.7c1.2,0.8,2.7,1.5,4.1,1.7c0.3,0,1.8-0.3,1.6,0.1C29.2,52.8,28.4,53,27.7,53z M17.8,42.5
					c-0.4,1.2,0.3,2.7,0.9,3.8c0.8,1.4,1.9,2.7,3.1,3.7c1.6,1.3,4.6,3.3,6.8,2.5c-2.5,0.2-5.2-1.7-7-3.3
					C19.9,47.6,17.7,45,17.8,42.5z"/>
			</g>
			<g>
				<path fill="#B2B0AE" d="M25.6,45c-1.3-1.2-2.8-2.3-4.4-2.9c-0.5-0.2-2.7-1.1-3-0.2c-0.4,1,0.1,2.3,0.5,3.2
					c0.7,1.5,1.8,2.9,3.1,4c1.2,1.1,2.7,2.1,4.3,2.7c1,0.4,2.3,0.8,3.3,0.4c0.8-0.4-0.1-2.4-0.3-2.8C28.1,47.6,26.9,46.2,25.6,45
					C22.7,42.4,28.5,47.7,25.6,45z"/>
				<path fill="#221714" d="M28.3,52.5c-3.1,0-6.2-2.5-8.1-4.7c-0.8-0.9-4.4-6.4-1.2-6.4c3.1,0,6.2,2.9,8.1,5
					C28.1,47.4,31.8,52.5,28.3,52.5z M18.4,41.9c-0.4,0.8,0,2,0.3,2.8c0.6,1.4,1.6,2.7,2.7,3.7c1.2,1.2,2.6,2.2,4.1,2.9
					c1,0.5,2.4,1,3.5,0.7c0.9-0.2,0-2.2-0.2-2.7c-0.7-1.4-1.7-2.6-2.8-3.7c-1.2-1.2-2.6-2.2-4.1-3C20.9,42.1,19.4,41.4,18.4,41.9z"
					/>
			</g>
		</g>
		<g>
			<g>
				<path fill="#F1F1F1" d="M23.3,47.5c-1.2-1.1-2.4-2.5-3.1-4c-0.4-0.9-1-2.3-0.5-3.3c-1.1,0.6-0.7,2.2-0.4,3.1
					c0.6,1.8,1.8,3.3,3.1,4.6c1.4,1.3,3.1,2.4,4.9,3c1,0.3,3,0.8,3.6-0.4c-0.9,0.5-2.2,0.1-3.1-0.2C26.1,49.8,24.6,48.7,23.3,47.5
					C20.3,44.9,26.1,50.2,23.3,47.5z"/>
				<path fill="#221714" d="M29.2,51.5c-3.1,0-6.3-2.4-8.2-4.7c-1.1-1.4-2.2-3.1-2.3-5c0-0.6,0.1-1.3,0.6-1.7c0.7-0.5,0.3,0.7,0.3,1
					c0,3.1,3.2,6.2,5.6,7.7c1.2,0.8,2.7,1.5,4.1,1.7c0.3,0,1.8-0.3,1.6,0.1C30.7,51.3,29.9,51.5,29.2,51.5z M19.3,41
					c-0.4,1.2,0.3,2.7,0.9,3.8c0.8,1.4,1.9,2.7,3.1,3.7c1.6,1.3,4.6,3.3,6.8,2.5c-2.5,0.2-5.2-1.7-7-3.3
					C21.4,46.1,19.2,43.5,19.3,41z"/>
			</g>
			<g>
				<path fill="#B2B0AE" d="M27.1,43.5c-1.3-1.2-2.8-2.3-4.4-2.9c-0.5-0.2-2.7-1.1-3-0.2c-0.4,1,0.1,2.3,0.5,3.2
					c0.7,1.5,1.8,2.9,3.1,4c1.2,1.1,2.7,2.1,4.3,2.7c1,0.4,2.3,0.8,3.3,0.4c0.8-0.4-0.1-2.4-0.3-2.8C29.6,46.1,28.4,44.7,27.1,43.5
					C24.2,40.9,30,46.2,27.1,43.5z"/>
				<path fill="#221714" d="M29.9,51c-3.1,0-6.2-2.5-8.1-4.7c-0.8-0.9-4.4-6.4-1.2-6.4c3.1,0,6.2,2.9,8.1,5
					C29.6,45.9,33.3,51,29.9,51z M19.9,40.4c-0.4,0.8,0,2,0.3,2.8c0.6,1.4,1.6,2.7,2.7,3.7c1.2,1.2,2.6,2.2,4.1,2.9
					c1,0.5,2.4,1,3.5,0.7c0.9-0.2,0-2.2-0.2-2.7c-0.7-1.4-1.7-2.6-2.8-3.7c-1.2-1.2-2.6-2.2-4.1-3C22.4,40.6,20.9,39.9,19.9,40.4z"
					/>
			</g>
		</g>
		<g>
			<g>
				<path fill="#F1F1F1" d="M24.8,46c-1.2-1.1-2.4-2.5-3.1-4c-0.4-0.9-1-2.3-0.5-3.3c-1.1,0.6-0.7,2.2-0.4,3.1
					c0.6,1.8,1.8,3.3,3.1,4.6c1.4,1.3,3.1,2.4,4.9,3c1,0.3,3,0.8,3.6-0.4c-0.9,0.5-2.2,0.1-3.1-0.2C27.6,48.3,26.1,47.2,24.8,46
					C21.8,43.4,27.6,48.7,24.8,46z"/>
				<path fill="#221714" d="M30.7,50c-3.1,0-6.3-2.4-8.2-4.7c-1.1-1.4-2.2-3.1-2.3-5c0-0.6,0.1-1.3,0.6-1.7c0.7-0.5,0.3,0.7,0.3,1
					c0,3.1,3.2,6.2,5.6,7.7c1.2,0.8,2.7,1.5,4.1,1.7c0.3,0,1.8-0.3,1.6,0.1C32.2,49.8,31.4,50,30.7,50z M20.8,39.5
					c-0.4,1.2,0.3,2.7,0.9,3.8c0.8,1.4,1.9,2.7,3.1,3.7c1.6,1.3,4.6,3.3,6.8,2.5c-2.5,0.2-5.2-1.7-7-3.3
					C22.9,44.6,20.7,42,20.8,39.5z"/>
			</g>
			<g>
				<path fill="#B2B0AE" d="M28.6,42c-1.3-1.2-2.8-2.3-4.4-2.9c-0.5-0.2-2.7-1.1-3-0.2c-0.4,1,0.1,2.3,0.5,3.2
					c0.7,1.5,1.8,2.9,3.1,4c1.2,1.1,2.7,2.1,4.3,2.7c1,0.4,2.3,0.8,3.3,0.4c0.8-0.4-0.1-2.4-0.3-2.8C31.2,44.7,29.9,43.2,28.6,42
					C25.7,39.4,31.5,44.7,28.6,42z"/>
				<path fill="#221714" d="M31.4,49.5c-3.1,0-6.2-2.5-8.1-4.7c-0.8-0.9-4.4-6.4-1.2-6.4c3.1,0,6.2,2.9,8.1,5
					C31.1,44.4,34.8,49.5,31.4,49.5z M21.4,38.9c-0.4,0.8,0,2,0.3,2.8c0.6,1.4,1.6,2.7,2.7,3.7c1.2,1.2,2.6,2.2,4.1,2.9
					c1,0.5,2.4,1,3.5,0.7c0.9-0.2,0-2.2-0.2-2.7c-0.7-1.4-1.7-2.6-2.8-3.7c-1.2-1.2-2.6-2.2-4.1-3C23.9,39.1,22.4,38.4,21.4,38.9z"
					/>
			</g>
		</g>
		<g>
			<g>
				<path fill="#F1F1F1" d="M26.3,44.6c-1.2-1.1-2.4-2.5-3.1-4c-0.4-0.9-1-2.3-0.5-3.3c-1.1,0.6-0.7,2.2-0.4,3.1
					c0.6,1.8,1.8,3.3,3.1,4.6c1.4,1.3,3.1,2.4,4.9,3c1,0.3,3,0.8,3.6-0.4c-0.9,0.5-2.2,0.1-3.1-0.2C29.1,46.8,27.6,45.8,26.3,44.6
					C23.3,41.9,29.1,47.2,26.3,44.6z"/>
				<path fill="#221714" d="M32.3,48.5c-3.1,0-6.3-2.4-8.2-4.7c-1.1-1.4-2.2-3.1-2.3-5c0-0.6,0.1-1.3,0.6-1.7c0.7-0.5,0.3,0.7,0.3,1
					c0,3.1,3.2,6.2,5.6,7.7c1.2,0.8,2.7,1.5,4.1,1.7c0.3,0,1.8-0.3,1.6,0.1C33.8,48.3,33,48.5,32.3,48.5z M22.3,38
					c-0.4,1.2,0.3,2.7,0.9,3.8c0.8,1.4,1.9,2.7,3.1,3.7c1.6,1.3,4.6,3.3,6.8,2.5c-2.5,0.2-5.2-1.7-7-3.3
					C24.4,43.1,22.2,40.6,22.3,38z"/>
			</g>
			<g>
				<path fill="#B2B0AE" d="M30.1,40.5c-1.3-1.2-2.8-2.3-4.4-2.9c-0.5-0.2-2.7-1.1-3-0.2c-0.4,1,0.1,2.3,0.5,3.2
					c0.7,1.5,1.8,2.9,3.1,4c1.2,1.1,2.7,2.1,4.3,2.7c1,0.4,2.3,0.8,3.3,0.4c0.8-0.4-0.1-2.4-0.3-2.8C32.7,43.2,31.4,41.8,30.1,40.5
					C27.2,37.9,33,43.2,30.1,40.5z"/>
				<path fill="#221714" d="M32.9,48c-3.1,0-6.2-2.5-8.1-4.7c-0.8-0.9-4.4-6.4-1.2-6.4c3.1,0,6.2,2.9,8.1,5
					C32.6,42.9,36.3,48,32.9,48z M22.9,37.4c-0.4,0.8,0,2,0.3,2.8c0.6,1.4,1.6,2.7,2.7,3.7c1.2,1.2,2.6,2.2,4.1,2.9
					c1,0.5,2.4,1,3.5,0.7c0.9-0.2,0-2.2-0.2-2.7c-0.7-1.4-1.7-2.6-2.8-3.7c-1.2-1.2-2.6-2.2-4.1-3C25.4,37.7,24,36.9,22.9,37.4z"/>
			</g>
		</g>
		<g>
			<g>
				<path fill="#F1F1F1" d="M27.8,43.1c-1.2-1.1-2.4-2.5-3.1-4c-0.4-0.9-1-2.3-0.5-3.3c-1.1,0.6-0.7,2.2-0.4,3.1
					c0.6,1.8,1.8,3.3,3.1,4.6c1.4,1.3,3.1,2.4,4.9,3c1,0.3,3,0.8,3.6-0.4c-0.9,0.5-2.2,0.1-3.1-0.2C30.6,45.3,29.1,44.3,27.8,43.1
					C24.9,40.4,30.7,45.7,27.8,43.1z"/>
				<path fill="#221714" d="M33.8,47c-3.1,0-6.3-2.4-8.2-4.7c-1.1-1.4-2.2-3.1-2.3-5c0-0.6,0.1-1.3,0.6-1.7c0.7-0.5,0.3,0.7,0.3,1
					c0,3.1,3.2,6.2,5.6,7.7c1.2,0.8,2.7,1.5,4.1,1.7c0.3,0,1.8-0.3,1.6,0.1C35.3,46.9,34.5,47,33.8,47z M23.8,36.5
					c-0.4,1.2,0.3,2.7,0.9,3.8c0.8,1.4,1.9,2.7,3.1,3.7c1.6,1.3,4.6,3.3,6.8,2.5c-2.5,0.2-5.2-1.7-7-3.3
					C25.9,41.6,23.7,39.1,23.8,36.5z"/>
			</g>
			<g>
				<path fill="#B2B0AE" d="M31.6,39.1c-1.3-1.2-2.8-2.3-4.4-2.9c-0.5-0.2-2.7-1.1-3-0.2c-0.4,1,0.1,2.3,0.5,3.2
					c0.7,1.5,1.8,2.9,3.1,4c1.2,1.1,2.7,2.1,4.3,2.7c1,0.4,2.3,0.8,3.3,0.4c0.8-0.4-0.1-2.4-0.3-2.8C34.2,41.7,32.9,40.3,31.6,39.1
					C28.7,36.4,34.5,41.7,31.6,39.1z"/>
				<path fill="#221714" d="M34.4,46.5c-3.1,0-6.2-2.5-8.1-4.7c-0.8-0.9-4.4-6.4-1.2-6.4c3.1,0,6.2,2.9,8.1,5
					C34.1,41.4,37.8,46.5,34.4,46.5z M24.4,35.9c-0.4,0.8,0,2,0.3,2.8c0.6,1.4,1.6,2.7,2.7,3.7c1.2,1.2,2.6,2.2,4.1,2.9
					c1,0.5,2.4,1,3.5,0.7c0.9-0.2,0-2.2-0.2-2.7c-0.7-1.4-1.7-2.6-2.8-3.7c-1.2-1.2-2.6-2.2-4.1-3C27,36.2,25.5,35.4,24.4,35.9z"/>
			</g>
		</g>
		<g>
			<g>
				<path fill="#F1F1F1" d="M29.3,41.6c-1.2-1.1-2.4-2.5-3.1-4c-0.4-0.9-1-2.3-0.5-3.3c-1.1,0.6-0.7,2.2-0.4,3.1
					c0.6,1.8,1.8,3.3,3.1,4.6c1.4,1.3,3.1,2.4,4.9,3c1,0.3,3,0.8,3.6-0.4c-0.9,0.5-2.2,0.1-3.1-0.2C32.1,43.8,30.6,42.8,29.3,41.6
					C26.4,38.9,32.2,44.2,29.3,41.6z"/>
				<path fill="#221714" d="M35.3,45.5c-3.1,0-6.3-2.4-8.2-4.7c-1.1-1.4-2.2-3.1-2.3-5c0-0.6,0.1-1.3,0.6-1.7c0.7-0.5,0.3,0.7,0.3,1
					c0,3.1,3.2,6.2,5.6,7.7c1.2,0.8,2.7,1.5,4.1,1.7c0.3,0,1.8-0.3,1.6,0.1C36.8,45.4,36,45.5,35.3,45.5z M25.3,35.1
					c-0.4,1.2,0.3,2.7,0.9,3.8c0.8,1.4,1.9,2.7,3.1,3.7c1.6,1.3,4.6,3.3,6.8,2.5c-2.5,0.2-5.2-1.7-7-3.3
					C27.4,40.2,25.2,37.6,25.3,35.1z"/>
			</g>
			<g>
				<path fill="#B2B0AE" d="M33.1,37.6c-1.3-1.2-2.8-2.3-4.4-2.9c-0.5-0.2-2.7-1.1-3-0.2c-0.4,1,0.1,2.3,0.5,3.2
					c0.7,1.5,1.8,2.9,3.1,4c1.2,1.1,2.7,2.1,4.3,2.7c1,0.4,2.3,0.8,3.3,0.4c0.8-0.4-0.1-2.4-0.3-2.8C35.7,40.2,34.4,38.8,33.1,37.6
					C30.2,34.9,36,40.2,33.1,37.6z"/>
				<path fill="#221714" d="M35.9,45c-3.1,0-6.2-2.5-8.1-4.7c-0.8-0.9-4.4-6.4-1.2-6.4c3.1,0,6.2,2.9,8.1,5
					C35.6,39.9,39.3,45,35.9,45z M25.9,34.4c-0.4,0.8,0,2,0.3,2.8c0.6,1.4,1.6,2.7,2.7,3.7c1.2,1.2,2.6,2.2,4.1,2.9
					c1,0.5,2.4,1,3.5,0.7c0.9-0.2,0-2.2-0.2-2.7c-0.7-1.4-1.7-2.6-2.8-3.7c-1.2-1.2-2.6-2.2-4.1-3C28.5,34.7,27,33.9,25.9,34.4z"/>
			</g>
		</g>
		<g>
			<g>
				<path fill="#F1F1F1" d="M30.8,40.1c-1.2-1.1-2.4-2.5-3.1-4c-0.4-0.9-1-2.3-0.5-3.3c-1.1,0.6-0.7,2.2-0.4,3.1
					c0.6,1.8,1.8,3.3,3.1,4.6c1.4,1.3,3.1,2.4,4.9,3c1,0.3,3,0.8,3.6-0.4c-0.9,0.5-2.2,0.1-3.1-0.2C33.6,42.3,32.1,41.3,30.8,40.1
					C27.9,37.4,33.7,42.7,30.8,40.1z"/>
				<path fill="#221714" d="M36.8,44.1c-3.1,0-6.3-2.4-8.2-4.7c-1.1-1.4-2.2-3.1-2.3-5c0-0.6,0.1-1.3,0.6-1.7c0.7-0.5,0.3,0.7,0.3,1
					c0,3.1,3.2,6.2,5.6,7.7c1.2,0.8,2.7,1.5,4.1,1.7c0.3,0,1.8-0.3,1.6,0.1C38.3,43.9,37.5,44.1,36.8,44.1z M26.9,33.6
					c-0.4,1.2,0.3,2.7,0.9,3.8c0.8,1.4,1.9,2.7,3.1,3.7c1.6,1.3,4.6,3.3,6.8,2.5c-2.5,0.2-5.2-1.7-7-3.3
					C28.9,38.7,26.7,36.1,26.9,33.6z"/>
			</g>
			<g>
				<path fill="#B2B0AE" d="M34.6,36.1c-1.3-1.2-2.8-2.3-4.4-2.9c-0.5-0.2-2.7-1.1-3-0.2c-0.4,1,0.1,2.3,0.5,3.2
					c0.7,1.5,1.8,2.9,3.1,4c1.2,1.1,2.7,2.1,4.3,2.7c1,0.4,2.3,0.8,3.3,0.4c0.8-0.4-0.1-2.4-0.3-2.8C37.2,38.7,35.9,37.3,34.6,36.1
					C31.7,33.5,37.5,38.7,34.6,36.1z"/>
				<path fill="#221714" d="M37.4,43.5c-3.1,0-6.2-2.5-8.1-4.7c-0.8-0.9-4.4-6.4-1.2-6.4c3.1,0,6.2,2.9,8.1,5
					C37.1,38.4,40.8,43.5,37.4,43.5z M27.4,32.9c-0.4,0.8,0,2,0.3,2.8c0.6,1.4,1.6,2.7,2.7,3.7c1.2,1.2,2.6,2.2,4.1,2.9
					c1,0.5,2.4,1,3.5,0.7c0.9-0.2,0-2.2-0.2-2.7c-0.7-1.4-1.7-2.6-2.8-3.7c-1.2-1.2-2.6-2.2-4.1-3C30,33.2,28.5,32.5,27.4,32.9z"/>
			</g>
		</g>
		<g>
			<g>
				<path fill="#F1F1F1" d="M32.3,38.6c-1.2-1.1-2.4-2.5-3.1-4c-0.4-0.9-1-2.3-0.5-3.3c-1.1,0.6-0.7,2.2-0.4,3.1
					c0.6,1.8,1.8,3.3,3.1,4.6c1.4,1.3,3.1,2.4,4.9,3c1,0.3,3,0.8,3.6-0.4c-0.9,0.5-2.2,0.1-3.1-0.2C35.1,40.8,33.6,39.8,32.3,38.6
					C29.4,35.9,35.2,41.2,32.3,38.6z"/>
				<path fill="#221714" d="M38.3,42.6c-3.1,0-6.3-2.4-8.2-4.7c-1.1-1.4-2.2-3.1-2.3-5c0-0.6,0.1-1.3,0.6-1.7c0.7-0.5,0.3,0.7,0.3,1
					c0,3.1,3.2,6.2,5.6,7.7c1.2,0.8,2.7,1.5,4.1,1.7c0.3,0,1.8-0.3,1.6,0.1C39.8,42.4,39,42.6,38.3,42.6z M28.4,32.1
					c-0.4,1.2,0.3,2.7,0.9,3.8c0.8,1.4,1.9,2.7,3.1,3.7c1.6,1.3,4.6,3.3,6.8,2.5c-2.5,0.2-5.2-1.7-7-3.3
					C30.4,37.2,28.2,34.6,28.4,32.1z"/>
			</g>
			<g>
				<path fill="#B2B0AE" d="M36.1,34.6c-1.3-1.2-2.8-2.3-4.4-2.9c-0.5-0.2-2.7-1.1-3-0.2c-0.4,1,0.1,2.3,0.5,3.2
					c0.7,1.5,1.8,2.9,3.1,4c1.2,1.1,2.7,2.1,4.3,2.7c1,0.4,2.3,0.8,3.3,0.4c0.8-0.4-0.1-2.4-0.3-2.8C38.7,37.2,37.4,35.8,36.1,34.6
					C33.2,32,39,37.3,36.1,34.6z"/>
				<path fill="#221714" d="M38.9,42c-3.1,0-6.2-2.5-8.1-4.7c-0.8-0.9-4.4-6.4-1.2-6.4c3.1,0,6.2,2.9,8.1,5C38.6,37,42.3,42,38.9,42
					z M28.9,31.5c-0.4,0.8,0,2,0.3,2.8c0.6,1.4,1.6,2.7,2.7,3.7c1.2,1.2,2.6,2.2,4.1,2.9c1,0.5,2.4,1,3.5,0.7c0.9-0.2,0-2.2-0.2-2.7
					c-0.7-1.4-1.7-2.6-2.8-3.7c-1.2-1.2-2.6-2.2-4.1-3C31.5,31.7,30,31,28.9,31.5z"/>
			</g>
		</g>
		<g>
			<g>
				<path fill="#F1F1F1" d="M33.8,37.1c-1.2-1.1-2.4-2.5-3.1-4c-0.4-0.9-1-2.3-0.5-3.3c-1.1,0.6-0.7,2.2-0.4,3.1
					c0.6,1.8,1.8,3.3,3.1,4.6c1.4,1.3,3.1,2.4,4.9,3c1,0.3,3,0.8,3.6-0.4c-0.9,0.5-2.2,0.1-3.1-0.2C36.6,39.3,35.1,38.3,33.8,37.1
					C30.9,34.4,36.7,39.7,33.8,37.1z"/>
				<path fill="#221714" d="M39.8,41.1c-3.1,0-6.3-2.4-8.2-4.7c-1.1-1.4-2.2-3.1-2.3-5c0-0.6,0.1-1.3,0.6-1.7c0.7-0.5,0.3,0.7,0.3,1
					c0,3.1,3.2,6.2,5.6,7.7c1.2,0.8,2.7,1.5,4.1,1.7c0.3,0,1.8-0.3,1.6,0.1C41.3,40.9,40.5,41.1,39.8,41.1z M29.9,30.6
					c-0.4,1.2,0.3,2.7,0.9,3.8c0.8,1.4,1.9,2.7,3.1,3.7c1.6,1.3,4.6,3.3,6.8,2.5c-2.5,0.2-5.2-1.7-7-3.3
					C31.9,35.7,29.7,33.1,29.9,30.6z"/>
			</g>
			<g>
				<path fill="#B2B0AE" d="M37.6,33.1c-1.3-1.2-2.8-2.3-4.4-2.9c-0.5-0.2-2.7-1.1-3-0.2c-0.4,1,0.1,2.3,0.5,3.2
					c0.7,1.5,1.8,2.9,3.1,4c1.2,1.1,2.7,2.1,4.3,2.7c1,0.4,2.3,0.8,3.3,0.4c0.8-0.4-0.1-2.4-0.3-2.8C40.2,35.7,38.9,34.3,37.6,33.1
					C34.7,30.5,40.5,35.8,37.6,33.1z"/>
				<path fill="#221714" d="M40.4,40.6c-3.1,0-6.2-2.5-8.1-4.7c-0.8-0.9-4.4-6.4-1.2-6.4c3.1,0,6.2,2.9,8.1,5
					C40.1,35.5,43.8,40.6,40.4,40.6z M30.4,30c-0.4,0.8,0,2,0.3,2.8c0.6,1.4,1.6,2.7,2.7,3.7c1.2,1.2,2.6,2.2,4.1,2.9
					c1,0.5,2.4,1,3.5,0.7c0.9-0.2,0-2.2-0.2-2.7c-0.7-1.4-1.7-2.6-2.8-3.7c-1.2-1.2-2.6-2.2-4.1-3C33,30.2,31.5,29.5,30.4,30z"/>
			</g>
		</g>
		<g>
			<g>
				<path fill="#F1F1F1" d="M35.3,35.6c-1.2-1.1-2.4-2.5-3.1-4c-0.4-0.9-1-2.3-0.5-3.3c-1.1,0.6-0.7,2.2-0.4,3.1
					c0.6,1.8,1.8,3.3,3.1,4.6c1.4,1.3,3.1,2.4,4.9,3c1,0.3,3,0.8,3.6-0.4c-0.9,0.5-2.2,0.1-3.1-0.2C38.1,37.8,36.6,36.8,35.3,35.6
					C32.4,33,38.2,38.3,35.3,35.6z"/>
				<path fill="#221714" d="M41.3,39.6c-3.1,0-6.3-2.4-8.2-4.7c-1.1-1.4-2.2-3.1-2.3-5c0-0.6,0.1-1.3,0.6-1.7c0.7-0.5,0.3,0.7,0.3,1
					c0,3.1,3.2,6.2,5.6,7.7c1.2,0.8,2.7,1.5,4.1,1.7c0.3,0,1.8-0.3,1.6,0.1C42.8,39.4,42,39.6,41.3,39.6z M31.4,29.1
					c-0.4,1.2,0.3,2.7,0.9,3.8c0.8,1.4,1.9,2.7,3.1,3.7c1.6,1.3,4.6,3.3,6.8,2.5c-2.5,0.2-5.2-1.7-7-3.3
					C33.4,34.2,31.2,31.6,31.4,29.1z"/>
			</g>
			<g>
				<path fill="#B2B0AE" d="M39.1,31.6c-1.3-1.2-2.8-2.3-4.4-2.9c-0.5-0.2-2.7-1.1-3-0.2c-0.4,1,0.1,2.3,0.5,3.2
					c0.7,1.5,1.8,2.9,3.1,4c1.2,1.1,2.7,2.1,4.3,2.7c1,0.4,2.3,0.8,3.3,0.4c0.8-0.4-0.1-2.4-0.3-2.8C41.7,34.2,40.4,32.8,39.1,31.6
					C36.2,29,42,34.3,39.1,31.6z"/>
				<path fill="#221714" d="M41.9,39.1c-3.1,0-6.2-2.5-8.1-4.7c-0.8-0.9-4.4-6.4-1.2-6.4c3.1,0,6.2,2.9,8.1,5
					C41.6,34,45.4,39.1,41.9,39.1z M31.9,28.5c-0.4,0.8,0,2,0.3,2.8c0.6,1.4,1.6,2.7,2.7,3.7c1.2,1.2,2.6,2.2,4.1,2.9
					c1,0.5,2.4,1,3.5,0.7c0.9-0.2,0-2.2-0.2-2.7c-0.7-1.4-1.7-2.6-2.8-3.7c-1.2-1.2-2.6-2.2-4.1-3C34.5,28.7,33,28,31.9,28.5z"/>
			</g>
		</g>
		<g>
			<g>
				<path fill="#F1F1F1" d="M36.8,34.1c-1.2-1.1-2.4-2.5-3.1-4c-0.4-0.9-1-2.3-0.5-3.3c-1.1,0.6-0.7,2.2-0.4,3.1
					c0.6,1.8,1.8,3.3,3.1,4.6c1.4,1.3,3.1,2.4,4.9,3c1,0.3,3,0.8,3.6-0.4c-0.9,0.5-2.2,0.1-3.1-0.2C39.7,36.4,38.1,35.3,36.8,34.1
					C33.9,31.5,39.7,36.8,36.8,34.1z"/>
				<path fill="#221714" d="M42.8,38.1c-3.1,0-6.3-2.4-8.2-4.7c-1.1-1.4-2.2-3.1-2.3-5c0-0.6,0.1-1.3,0.6-1.7c0.7-0.5,0.3,0.7,0.3,1
					c0,3.1,3.2,6.2,5.6,7.7c1.2,0.8,2.7,1.5,4.1,1.7c0.3,0,1.8-0.3,1.6,0.1C44.3,37.9,43.5,38.1,42.8,38.1z M32.9,27.6
					c-0.4,1.2,0.3,2.7,0.9,3.8c0.8,1.4,1.9,2.7,3.1,3.7c1.6,1.3,4.6,3.3,6.8,2.5c-2.5,0.2-5.2-1.7-7-3.3
					C35,32.7,32.7,30.1,32.9,27.6z"/>
			</g>
			<g>
				<path fill="#B2B0AE" d="M40.6,30.1c-1.3-1.2-2.8-2.3-4.4-2.9c-0.5-0.2-2.7-1.1-3-0.2c-0.4,1,0.1,2.3,0.5,3.2
					c0.7,1.5,1.8,2.9,3.1,4c1.2,1.1,2.7,2.1,4.3,2.7c1,0.4,2.3,0.8,3.3,0.4c0.8-0.4-0.1-2.4-0.3-2.8C43.2,32.8,41.9,31.3,40.6,30.1
					C37.7,27.5,43.5,32.8,40.6,30.1z"/>
				<path fill="#221714" d="M43.4,37.6c-3.1,0-6.2-2.5-8.1-4.7c-0.8-0.9-4.4-6.4-1.2-6.4c3.1,0,6.2,2.9,8.1,5
					C43.1,32.5,46.9,37.6,43.4,37.6z M33.4,27c-0.4,0.8,0,2,0.3,2.8c0.6,1.4,1.6,2.7,2.7,3.7c1.2,1.2,2.6,2.2,4.1,2.9
					c1,0.5,2.4,1,3.5,0.7c0.9-0.2,0-2.2-0.2-2.7c-0.7-1.4-1.7-2.6-2.8-3.7c-1.2-1.2-2.6-2.2-4.1-3C36,27.2,34.5,26.5,33.4,27z"/>
			</g>
		</g>
		<g>
			<g>
				<path fill="#F1F1F1" d="M38.3,32.7c-1.2-1.1-2.4-2.5-3.1-4c-0.4-0.9-1-2.3-0.5-3.3c-1.1,0.6-0.7,2.2-0.4,3.1
					c0.6,1.8,1.8,3.3,3.1,4.6c1.4,1.3,3.1,2.4,4.9,3c1,0.3,3,0.8,3.6-0.4c-0.9,0.5-2.2,0.1-3.1-0.2C41.2,34.9,39.6,33.8,38.3,32.7
					C35.4,30,41.2,35.3,38.3,32.7z"/>
				<path fill="#221714" d="M44.3,36.6c-3.1,0-6.3-2.4-8.2-4.7c-1.1-1.4-2.2-3.1-2.3-5c0-0.6,0.1-1.3,0.6-1.7c0.7-0.5,0.3,0.7,0.3,1
					c0,3.1,3.2,6.2,5.6,7.7c1.2,0.8,2.7,1.5,4.1,1.7c0.3,0,1.8-0.3,1.6,0.1C45.8,36.4,45,36.6,44.3,36.6z M34.4,26.1
					c-0.4,1.2,0.3,2.7,0.9,3.8c0.8,1.4,1.9,2.7,3.1,3.7c1.6,1.3,4.6,3.3,6.8,2.5c-2.5,0.2-5.2-1.7-7-3.3
					C36.5,31.2,34.2,28.6,34.4,26.1z"/>
			</g>
			<g>
				<path fill="#B2B0AE" d="M42.1,28.6c-1.3-1.2-2.8-2.3-4.4-2.9c-0.5-0.2-2.7-1.1-3-0.2c-0.4,1,0.1,2.3,0.5,3.2
					c0.7,1.5,1.8,2.9,3.1,4c1.2,1.1,2.7,2.1,4.3,2.7c1,0.4,2.3,0.8,3.3,0.4c0.8-0.4-0.1-2.4-0.3-2.8C44.7,31.3,43.4,29.9,42.1,28.6
					C39.2,26,45,31.3,42.1,28.6z"/>
				<path fill="#221714" d="M44.9,36.1c-3.1,0-6.2-2.5-8.1-4.7C36,30.4,32.4,25,35.6,25c3.1,0,6.2,2.9,8.1,5
					C44.6,31,48.4,36.1,44.9,36.1z M34.9,25.5c-0.4,0.8,0,2,0.3,2.8c0.6,1.4,1.6,2.7,2.7,3.7c1.2,1.2,2.6,2.2,4.1,2.9
					c1,0.5,2.4,1,3.5,0.7c0.9-0.2,0-2.2-0.2-2.7c-0.7-1.4-1.7-2.6-2.8-3.7c-1.2-1.2-2.6-2.2-4.1-3C37.5,25.7,36,25,34.9,25.5z"/>
			</g>
		</g>
		<g>
			<g>
				<path fill="#F1F1F1" d="M39.8,31.2c-1.2-1.1-2.4-2.5-3.1-4c-0.4-0.9-1-2.3-0.5-3.3c-1.1,0.6-0.7,2.2-0.4,3.1
					c0.6,1.8,1.8,3.3,3.1,4.6c1.4,1.3,3.1,2.4,4.9,3c1,0.3,3,0.8,3.6-0.4c-0.9,0.5-2.2,0.1-3.1-0.2C42.7,33.4,41.1,32.4,39.8,31.2
					C36.9,28.5,42.7,33.8,39.8,31.2z"/>
				<path fill="#221714" d="M45.8,35.1c-3.1,0-6.3-2.4-8.2-4.7c-1.1-1.4-2.2-3.1-2.3-5c0-0.6,0.1-1.3,0.6-1.7c0.7-0.5,0.3,0.7,0.3,1
					c0,3.1,3.2,6.2,5.6,7.7c1.2,0.8,2.7,1.5,4.1,1.7c0.3,0,1.8-0.3,1.6,0.1C47.3,34.9,46.5,35.1,45.8,35.1z M35.9,24.6
					c-0.4,1.2,0.3,2.7,0.9,3.8c0.8,1.4,1.9,2.7,3.1,3.7c1.6,1.3,4.6,3.3,6.8,2.5c-2.5,0.2-5.2-1.7-7-3.3
					C38,29.7,35.7,27.2,35.9,24.6z"/>
			</g>
			<g>
				<path fill="#B2B0AE" d="M43.6,27.1c-1.3-1.2-2.8-2.3-4.4-2.9c-0.5-0.2-2.7-1.1-3-0.2c-0.4,1,0.1,2.3,0.5,3.2
					c0.7,1.5,1.8,2.9,3.1,4c1.2,1.1,2.7,2.1,4.3,2.7c1,0.4,2.3,0.8,3.3,0.4c0.8-0.4-0.1-2.4-0.3-2.8C46.2,29.8,45,28.4,43.6,27.1
					C40.7,24.5,46.5,29.8,43.6,27.1z"/>
				<path fill="#221714" d="M46.4,34.6c-3.1,0-6.2-2.5-8.1-4.7c-0.8-0.9-4.4-6.4-1.2-6.4c3.1,0,6.2,2.9,8.1,5
					C46.1,29.5,49.9,34.6,46.4,34.6z M36.4,24c-0.4,0.8,0,2,0.3,2.8c0.6,1.4,1.6,2.7,2.7,3.7c1.2,1.2,2.6,2.2,4.1,2.9
					c1,0.5,2.4,1,3.5,0.7c0.9-0.2,0-2.2-0.2-2.7c-0.7-1.4-1.7-2.6-2.8-3.7c-1.2-1.2-2.6-2.2-4.1-3C39,24.3,37.5,23.5,36.4,24z"/>
			</g>
		</g>
	</g>
	<path fill="#D1CFCD" d="M52.1,18.7c-1.7-1.9-3.8-3.6-6.2-4.7c-1.2-0.5-2.4-0.9-3.7-1c-0.7-0.1-2.2-0.2-2.8,0.3
		c-1.7,1.7-3.5,3.3-5.2,5c-0.7,0.7,0.3,3.1,0.6,3.9c0.3,1.1,0.4,2.4,1.2,3.3c1.8,2.1,3.9,4,5.9,6c0.8,0.8,1.7,1.7,2.5,2.5
		c0.8,0.8,1.8,1.2,3,1.4c1.3,0.3,2.7,0.5,4,0.8c0.9,0.2,2.2-1.5,2.8-2c1.1-1,2.2-2,3.3-3c0.4-0.4,0.4-0.9,0.5-1.4
		c0.2-3.5-2-6.9-4.2-9.5C53.2,19.8,52.6,19.3,52.1,18.7C49.8,16.1,59.2,25.8,52.1,18.7z"/>
	<path fill="#B5B2B0" d="M57.7,27.9c0-0.3-0.6-0.2-0.6,0.2c0,0.3-0.7,0.7-1,0.7c-1.1,0.1-2.4-0.6-3.3-1.2c-1.2-0.7-2.3-1.3-3.3-2.3
		c-1.1-1-2-2.1-2.9-3.2c-0.3-0.3-0.9-1.3-1.4-1.3c-0.4-0.6-0.7-1.2-1.2-1.7c-0.8-1-1.3-2.4-1.6-3.7c0.1-0.6-0.1-1.2,0.5-1.7
		c0.5-0.4-0.1-0.6-0.4-0.6c-0.6,0-1.2-0.1-1.7-0.2c-0.6,0-1,0.3-0.6,0.8c0.9,0.8,1.5,2.3,1.7,3.5c0.1,0.6,0.1,1.2,0,1.8
		c0,0.2-0.5,1.5-0.1,1.4c0.8-0.1,2.2,1,2.9,1.4c1.3,0.8,2.1,1.8,3.1,3c0.9,1.1,1.8,2.1,2.3,3.4c0.1,0.2,0.4,1.3,0.5,1.3
		c0.4,0,1.7,0.2,2-0.1c1.2,0,2.5,0.1,3.5,0.7c0.2,0.1,0.5,0.5,0.7,0.4c0.1,0.1,0.2,0.4,0.4,0.4c0.5-0.1,0.6-1.6,0.6-2
		C57.9,28.7,57.7,28.3,57.7,27.9C57.8,27.5,57.7,28.4,57.7,27.9z"/>
	<g>
		<path fill="#221714" d="M52.3,18.7c-1.7-2-3.9-3.7-6.3-4.8c-1.2-0.5-2.4-0.9-3.7-1c-0.8-0.1-2.3-0.2-2.9,0.4
			c-1.8,1.7-3.5,3.3-5.3,5c-0.8,0.8,0.2,3.1,0.4,4c0.3,1.1,0.4,2.5,1.1,3.4c1.7,2.2,3.9,4.1,5.9,6c1.6,1.7,3,3.5,5.4,4.1
			c1.4,0.3,2.8,0.6,4.3,0.9c1.1,0.2,2.5-1.6,3.2-2.2c1.1-1,2.2-2,3.2-3c0.3-0.3,0.4-0.7,0.4-1.2c0.4-3.1-1.3-6.3-3.2-8.7
			C54.1,20.5,53.2,19.6,52.3,18.7C49.9,15.9,59.9,26.2,52.3,18.7z M57.5,31c-1,0.9-2,1.8-3,2.7c-0.6,0.5-1.1,1-1.7,1.6
			c-0.3,0.3-0.9,1-1.4,0.9c-1.6-0.2-3.3-0.6-4.9-1c-1-0.2-1.8-0.9-2.5-1.6c-2.2-2.2-4.4-4.4-6.5-6.6c-0.6-0.7-1.6-1.4-1.9-2.3
			c-0.5-1.6-1-3.3-1.4-5c-0.2-1.2,0.2-1.4,1-2.1c1-1,2.1-2,3.1-2.9c0.4-0.3,0.7-0.7,1.1-1c0.5-0.5,1.2-0.4,1.9-0.5
			c2.5-0.1,4.9,0.9,6.9,2.3c2.1,1.4,3.8,3.1,5.4,5c1.4,1.6,2.6,3.4,3.4,5.3C57.6,27.4,58.1,29.4,57.5,31
			C57.1,31.4,57.7,30.6,57.5,31z"/>
		<path fill="#221714" d="M50.8,29.5c0-0.4-0.4-1.1-0.6-1.5c-0.3-0.5-0.5-1-0.9-1.5c-0.6-1-1.4-1.8-2.2-2.6
			c-1.2-1.2-2.6-2.2-4.1-2.9c-0.4-0.2-0.8-0.4-1.2-0.6c-0.1,0,0.2-1.3,0.2-1.6c0-0.7,0-1.3-0.2-1.9c-0.2-0.9-0.6-1.7-1.1-2.4
			c-0.1-0.2-0.3-0.4-0.4-0.6c-0.2-0.2-0.6-0.1-0.4,0.2c1,1.2,1.6,2.9,1.7,4.4c0,0.6,0,1.6-0.5,2c-0.4,0.4-0.9,0.8-1.3,1.2
			c-1.1,1-2.2,2-3.3,3c-0.1,0.1-0.2,0.2-0.3,0.3c-0.2,0.2,0,0.5,0.2,0.3c0.2,0,0.7-0.6,0.8-0.8c1.1-1,2.3-2.1,3.4-3.1
			c0.1-0.1,0.5-0.6,0.7-0.7c0.4,0.1,0.7,0.3,1.1,0.5c3.5,1.7,6.4,4.7,7.8,8.4c0.1,0.2-2,1.8-2.2,2c-0.9,0.8-1.8,1.7-2.7,2.5
			c-0.4,0.3,0.2,0.3,0.4,0.1c0.5-0.4,0.9-0.8,1.4-1.3c1-0.9,2.1-1.9,3.1-2.8c0.5-0.4,1.5-0.3,2.1-0.4c1.3,0,3,0,4,0.9
			c0.1,0.1,0.4,0.6,0.7,0.5c0.3-0.2-0.2-0.6-0.4-0.7c-0.6-0.5-1.3-0.7-2-0.9C53.5,29.2,52.1,29.3,50.8,29.5
			C50.8,29.4,51.9,29.3,50.8,29.5z"/>
		<path fill="#221714" d="M47.7,23.2c-1.7-1.8-3.3-3.7-4.3-5.9c-0.4-0.8-0.8-1.9-0.7-2.8c0-0.3,0.1-0.5,0.4-0.4
			c0.4,0.1,0.4-0.3,0-0.4c-2-0.4,0,4.2,0.4,4.8c1.2,2.1,2.8,4.1,4.6,5.8c1.5,1.4,3.2,2.7,5.1,3.7c0.8,0.4,1.6,0.8,2.5,0.8
			c0.4,0,0.9,0,1.3-0.3c0.1-0.1,0.7-1.1,0.1-0.9c-0.4,0.2-0.3,0.7-0.9,0.8c-0.3,0.1-0.7,0-1,0c-0.9-0.2-1.7-0.6-2.5-1.1
			C51,26.2,49.2,24.8,47.7,23.2C44.8,20.1,49.9,25.6,47.7,23.2z"/>
	</g>
</g>
</svg>
