<?xml version="1.0" encoding="utf-8"?>
<!-- Generator: Adobe Illustrator 17.1.0, SVG Export Plug-In . SVG Version: 6.00 Build 0)  -->
<!DOCTYPE svg PUBLIC "-//W3C//DTD SVG 1.1//EN" "http://www.w3.org/Graphics/SVG/1.1/DTD/svg11.dtd">
<svg version="1.1" id="Ebene_1" xmlns="http://www.w3.org/2000/svg" xmlns:xlink="http://www.w3.org/1999/xlink" x="0px" y="0px"
	 width="100px" height="100px" viewBox="0 0 100 100" enable-background="new 0 0 100 100" xml:space="preserve">
<circle fill="#B2B2B2" cx="50" cy="50" r="50"/>
<g>
	<path fill="#9C9895" d="M26.2,50.5c-1.7-0.9-2.4-3.3-2.1-5.1c0.2-0.8,0.4-1.5,0.7-2.3c0.2-0.5-1.8-0.7-2.1-0.8
		c-0.3-0.1-1.5-0.6-1.4,0.1c0,0.3,0,0.5,0,0.8c0.1,1.4-0.2,3.6,0.8,4.7c0.7,0.8,1.5,1.5,2.3,2.2c0.3,0.2,0.6,0.5,1,0.7
		c0.2,0.1,0.5,0.2,0.7,0.2C26.4,51,26.5,50.6,26.2,50.5C24.7,49.7,26.4,50.6,26.2,50.5z"/>
	<path fill="#706A67" d="M29,49.8c-0.4,0.1-0.2,0.9,0.1,0.9c0.2,0,0.5-0.1,0.7-0.2c0.3-0.1,1.7-0.6,1.2-1c0.1,0.1,0.1,0.1,0.2,0.2
		c0.3-0.2-0.3-1.6-0.7-1.4c-0.2,0.2-0.4,0.6-0.6,0.9C29.8,49.5,29.4,49.7,29,49.8C29,49.8,29.5,49.7,29,49.8z"/>
	<path fill="#706A67" d="M37.2,53.5c0.2,0.2,1.2,0.5,1.2,0c0-0.3,0.2-1,0-1.2c-0.2-0.3-1.2-0.3-1.5-0.4c-0.4-0.1-0.7-0.3-1-0.5
		c-0.2-0.1-0.8-0.1-0.5,0.3C35.9,52.4,36.5,53,37.2,53.5C37.3,53.5,36.3,52.9,37.2,53.5z"/>
	<path fill="#9C9895" d="M33.7,43.6c-0.2-0.2-1-0.1-1.2-0.1c-0.4,0-1.8-0.3-2.1,0c-0.3,0.4,0.1,1.8,0.2,2.3c0.4,2.2,1,3.9,2.6,5.5
		c0.3,0.3,2.4,2.2,2.8,1.6c0.2-0.4-1.5-2.4-1.8-2.8c-0.5-0.7-0.5-1.8-0.5-2.6c0-0.6,0-1.3,0-1.9C33.6,45.1,33.9,43.9,33.7,43.6
		C33.6,43.6,33.7,43.7,33.7,43.6z"/>
	<path fill="#5B5451" d="M27.5,58.4c-0.1,2.1-0.1,4.2,0,6.3c0.1,1.7,0.5,3.3,0.5,5c0,0.7,0,1.4,0,2.1c0,0.6,0.2,0.9,0.6,0.3
		c0.2-0.3,1-0.9,0.9-1.3c0-0.2,0-0.5,0.1-0.7c0.1-0.9,0.1-1.8,0.1-2.6c-0.1-1-0.3-1.9-0.4-2.9c-0.1-2-0.1-4-0.1-6.1
		c-0.1-2.7,0.1-5.6-0.5-8.2c-0.2-1.1-1-0.8-1.9-0.4c-0.4,0.2,0,1.7,0.1,2c0.3,2,0.6,4.1,0.6,6.1C27.5,58.2,27.5,58.3,27.5,58.4
		C27.4,61,27.6,56.6,27.5,58.4z"/>
	<path fill="#9FA0A0" d="M27.5,74.8c-0.1,0.6,0.1,1.4,0.1,2.1c0,0.3,0,0.6,0,0.8c0,0.6,1.2,0.5,1.6,0.3c1.2-0.4,0.8-1.9,0.7-3
		C29.8,73.8,27.8,73.5,27.5,74.8C27.5,74.8,27.6,74.4,27.5,74.8z"/>
	<path fill="#5B5451" d="M29.2,78.6c0.1-0.4-1.3-0.5-1.5-0.4c-0.3,0.2-0.3,1.3-0.4,1.7c-0.1,1-0.4,2-0.3,3c0,0.5,0.6,0.4,0.9,0.4
		c0.7,0,1.4,0.1,1.2-0.7C28.8,81.3,29,79.8,29.2,78.6C29.2,78.5,28.9,80.6,29.2,78.6z"/>
	<path fill="#87827F" d="M29.8,78.1c-0.5-0.3-0.6,1.9-0.6,2.1c0,0.7-0.3,2.3,0.4,2.8c0.2,0.5,0.6-0.3,0.6-0.4c0.1-0.6,0.1-1.2,0-1.7
		C30.2,80.3,30.3,78.3,29.8,78.1z"/>
	<path fill="#5B5451" d="M41.3,52c-0.6-0.1-1.1-0.2-1.7-0.3c-0.1,0-0.5-0.1-0.6-0.1c-0.5-0.1-0.3,1.7-0.4,2.1
		c-0.2,2.4-1.3,4.5-2.2,6.7c-1,2.3-1.9,4.6-3.1,6.8c-1,1.9-2.7,3.1-4.1,4.7c-0.4,0.5-0.7,1-1,1.5c-0.2,0.5,0.7,0.4,0.9,0.5
		c0.7,0.2,1.1-1.2,1.9-1.5c2.1-0.7,3.6-3,4.9-4.7c0.7-1,1.1-2.2,1.6-3.2c0.7-1.8,1.4-3.5,2.1-5.3C39.8,58.5,42.1,52.1,41.3,52z"/>
	<path fill="#706A67" d="M51.6,36.7c-0.6,0.2-1.3,0.5-1.9,0.6c-0.3,0.1-0.7,0.1-0.9,0.3c-0.6,0.6-0.7,0.9-0.8,1.7
		c-0.3,1.8-0.5,3.6-0.9,5.4c-0.2,1.4-0.5,2.7-0.9,4c-0.1,0.4-0.2,0.9-0.5,1.2c-0.7,0.5-1.4,1.1-2.1,1.5c-0.5,0.3-1.8,0.8-1.9,1.3
		c0,0.2-0.4,1.4,0.2,1.2c0.7-0.2,1.4-0.6,2-0.9c0.6-0.4,0.9-0.7,1.3-1.2c0.7-1,1.6-1.9,2.4-2.9c1-1.2,1.6-3,2.1-4.5
		c0.7-1.9,1.3-3.8,1.8-5.7C51.5,38.5,52.2,36.4,51.6,36.7C50.4,37.1,51.7,36.6,51.6,36.7z"/>
	<path fill="#FCFBF7" d="M55.5,29.3c-0.6-0.6-0.3,1.5-0.3,1.7c0,0.2-0.1,0.3-0.1,0.5c-0.3,0.9-0.9,1.6-1.5,2.3
		c-3.1,3.1-7.9,4-12.1,4.4c-5.5,0.5-11.2,0.4-16.7-0.8c-2.2-0.5-4.3-1.1-6.3-2.2c-0.8-0.5-1.6-1.1-2.3-1.8c-0.2-0.2-1.6-2.4-1.1-2.5
		c0,0,0.8,1.7,0.9,1.9c0.5,0.7,1.2,1.3,2,1.8c1.8,1.2,3.9,1.9,5.9,2.4c5.3,1.3,10.9,1.5,16.3,1.1c4.4-0.3,9.6-1,13-4.2
		c0.7-0.7,1.3-1.5,1.7-2.4c0.3-0.7,0-1.5-0.1-2.3c-0.8-4.9-2.6-9.9-6-13.6c-3.1-3.4-7.3-5.2-11.9-5.5c-4.6-0.2-9.6,0.8-13.4,3.5
		c-3.9,2.8-6.3,7.4-7.1,12.1c-0.4,2.2-0.6,4.2-2.8,5.5c-1.3,0.7-2.9,1.7-3.5,3.2c-0.6,1.8,1.3,3.3,2.6,4.2c3,2,6.7,2.9,10.2,3.7
		c1.2,0.2,11,2,11.1,0.8c0,0.1,0,0.2-0.1,0.3c0.6,0.3,2-0.1,2.6-0.1c0.8-0.1,1.6-0.2,2.4-0.4c1.8-0.5,3.6-1.1,5.2-2
		c1.3-0.7,2.7-1.5,3.7-2.5c0.5-0.5,0.7-0.9,1.4-1.1c1.9-0.6,3.9-1.3,5.6-2.4c0.7-0.4,1.6-1.1,1.7-1.9C56.8,31.6,56.4,30.3,55.5,29.3
		C55.4,29.3,55.9,29.8,55.5,29.3z"/>
	<path fill="#E8E8E8" d="M47.2,36c-0.6,0.7-1.4,1.1-2.2,1.5c3.6-0.7,8.7-2.3,9.9-6.3c0.1-0.4,0-0.8,0-1.2c-0.1-1.2-0.4-2.4-0.7-3.6
		c-0.9-3.5-2.3-7-4.6-9.9C52.8,22.4,52.5,31.4,47.2,36C46.6,36.6,52.1,31.7,47.2,36z"/>
</g>
<path fill="#E8E8E8" d="M16.8,29c-0.1,0.3-0.2,0.5-0.4,0.7c-0.1,0.2-1.3,1.1-1.3,1.1c0,0.3,0.2,0.6,0.3,0.9c0.8,1.7,2.3,3,4,3.7
	c1.6,0.7,3.3,1.1,5.1,1.4c2,0.4,4,0.7,5.9,0.9c3.8,0.4,7.6,0.6,11.3,0.1c-1.3,0-2.5-0.2-3.8-0.4c-2.9-0.3-5.8-0.8-8.6-1.4
	c-2.9-0.6-5.9-1.4-8.6-2.7C19.1,32.6,16.8,31.2,16.8,29z"/>
<path d="M55.5,28.8c-0.1-0.1-0.2-0.1-0.4,0c-0.9-5.5-3.1-11.2-7.4-14.9C41.4,8.1,30.6,8.2,23.7,13c-3.4,2.3-5.7,5.7-7,9.6
	c-0.9,2.8-0.4,6.5-3.3,8.2c-1.6,0.9-3.9,2.3-3.8,4.5c0.1,2.3,2.9,3.8,4.7,4.7c1.2,0.6,2.5,1.1,3.8,1.5c0.7,0.2,1.4,0.4,2.1,0.6
	c0.2,0.1,0.7,0.1,0.7,0.3c0,0.2,0,0.5,0,0.7c0,0.9,0.1,1.9,0.2,2.8c0.1,0.7,0.1,1.6,0.6,2.1c1,1.2,2.4,2.8,3.9,3.3
	c0.6,0.2,0.9,0.1,1,0.8c0.1,0.5,0.1,1.1,0.2,1.6c0.1,1.2,0.3,2.4,0.3,3.6c0.1,1.7,0,3.4,0,5.1c0,1.7-0.1,3.6,0.4,5.2
	c0.5,1.6,0.2,3.5,0.1,5.1c0,0.3,0,0.5,0,0.8c0,0.3-0.2,0.4-0.4,0.7c-0.3,0.5-0.1,1.2-0.1,1.7c0,0.6,0.1,1.2,0.1,1.8
	c0.1,1.1-0.4,2.4-0.5,3.5c0,0.5-0.3,1.8,0.2,2.2c0.5,0.3,1.5,0.2,2.1,0.2c0.9-0.1,1.4-0.2,1.6-1c0.2-0.9,0.1-1.9,0-2.8
	c0-0.5,0-1.5-0.3-1.9c0.2-0.3,0.1-0.9,0.1-1.2c0-0.8,0.2-2.1-0.4-2.7c0.4-1.1,1.3-1.1,2.2-1.6c1-0.7,1.9-1.7,2.6-2.7
	c0.6-0.7,1.2-1.4,1.7-2.2c2-3.5,3.3-7.5,4.5-11.3c0.1-0.5,0.3-0.9,0.4-1.4c0.1-0.4,0.8-0.5,1.2-0.6c0.6-0.3,1.9-0.7,2.2-1.2
	c1-1.4,2.3-2.6,3.2-4c1.1-1.6,1.7-3.6,2.3-5.4c0.6-1.9,1.2-3.7,1.7-5.6c0.1-0.3,0.3-0.8,0.3-1.2c1.4-0.6,2.9-1.3,4-2.4
	C57.8,32.7,57,30,55.5,28.8z M22.1,47.5c-0.3-0.4-0.3-1.2-0.3-1.7c-0.1-1.1-0.2-2.3-0.2-3.4c1,0.2,2,0.4,3.1,0.6
	c-0.5,1.2-1.1,2.7-0.8,4.1c0.3,1.4,0.9,2.9,2.3,3.7C24.5,50.2,23.1,48.8,22.1,47.5C21.8,47.1,22.6,48.2,22.1,47.5z M39.6,43.1
	c2.8-0.8,5.6-2,7.9-3.8c-0.4,2.7-0.7,5.4-1.3,8.1c-0.1,0.6-0.3,2-0.8,2.3c-1.1,0.8-2.2,1.7-3.4,2.3c0-0.6-1.5-0.6-1.9-0.7
	c-0.6-0.1-1.8-0.6-1.8,0.4c-1.2-0.2-2.4-0.7-3.3-1.5c-0.3-0.2-0.5-0.3-0.7-0.7C34,49,34,48.4,34,47.8c0-0.7,0-1.3,0-2
	c0-0.4,0-0.8,0.1-1.2c0-0.5-0.1-0.8,0.5-0.8C36.2,43.7,38,43.5,39.6,43.1C43.8,41.8,38.1,43.5,39.6,43.1z M30,66.7
	c-0.5-1.5-0.3-3.3-0.3-4.9c0-1.1-0.1-2.2-0.1-3.3c-0.1-1.9-0.1-3.7-0.2-5.6c0-0.4,0-0.8-0.1-1.2c0-0.4-0.2-0.6,0.2-0.7
	c0.7-0.2,1.4-0.4,1.9-1c1.2,1.8,3,3.1,5.1,3.7c0.3,0.1,0.6,0.2,0.9,0.2c0.7,0.1,0.7,0.1,0.6,0.8c-0.1,0.6-0.3,1.1-0.5,1.7
	c-0.4,0.9-0.7,1.8-1.1,2.7c-0.9,2.2-1.8,4.3-2.8,6.4c-0.4,0.8-0.8,1.6-1.3,2.3c-0.6,0.9-1.5,1.6-2.2,2.3
	C30.2,69.1,30.4,67.8,30,66.7C29.8,66,30.3,67.5,30,66.7z M31.1,49.5c-0.6,0.5-1.2,0.8-2,0.9c-0.1-0.5,0.2-0.4,0.6-0.7
	c0.4-0.3,0.8-0.7,1-1.2C30.9,48.9,31,49.2,31.1,49.5C31.1,49.5,31,49.2,31.1,49.5z M37.4,53.2c-0.7-0.5-1.3-1.1-1.8-1.8
	c0.5,0.3,1.1,0.5,1.7,0.7c0.3,0.1,0.7,0.2,1,0.2c0,0.3,0,0.7,0,1C38,53.4,37.6,53.4,37.4,53.2C36.6,52.7,37.4,53.2,37.4,53.2z
	 M33.8,50.2c0.6,0.8,1.1,1.7,1.8,2.5c-3.7-1.6-4.8-5.3-5.1-9c1,0.1,2,0.1,2.9,0.1c-0.1,1.1-0.2,2.2-0.2,3.3
	C33.3,48.1,33.2,49.4,33.8,50.2C34.1,50.5,33,49.1,33.8,50.2z M29.9,43.7c0.1,1,0.2,2.1,0.4,3.1c0.2,0.8-0.1,1.8-0.8,2.3
	c-0.2,0.1-0.3,0.2-0.5,0.3c-0.3,0.1-0.3-0.2-0.6-0.2c-0.4,0-2,0.3-2.1,0.9c-1.5-1-2-3.1-1.6-4.7c0.1-0.4,0.2-0.9,0.4-1.3
	c0.2-0.5,0.1-0.9,0.7-0.8C27.1,43.4,28.5,43.6,29.9,43.7C29.9,44.2,28.4,43.6,29.9,43.7z M27,50.6c0-0.5,0.2-0.4,0.7-0.6
	c0.4-0.1,0.6-0.3,0.7,0.2c0.3,1,0.3,2.1,0.3,3.2c0.1,2.3,0.2,4.5,0.2,6.8c0.1,2.2-0.3,4.7,0.4,6.8c0.3,0.8,0.1,1.9,0.1,2.7
	c0,0.4-0.1,0.8-0.1,1.2c-0.1,0.4-0.8,1-1,1.4c0.1-1.9-0.1-3.6-0.3-5.4c-0.3-1.9-0.2-3.8-0.2-5.6c0-1.7,0.1-3.5-0.1-5.2
	C27.5,54.2,27.3,52.4,27,50.6C27,50.6,27.3,52.2,27,50.6z M29.4,74.4c0.6,0.7,0.4,2,0.3,2.8c0,0.6-1.1,0.7-1.5,0.6
	c-0.4-0.1-0.3-0.2-0.4-0.6C27.8,76.2,27.3,73.3,29.4,74.4C29.4,74.5,29.2,74.4,29.4,74.4z M27.3,82.9c-0.3-1.4,0.2-3.1,0.5-4.5
	c0.4,0.1,0.8,0.2,1.2,0.1c-0.2,1.3-0.5,3.1,0.1,4.4C28.5,83,27.9,83,27.3,82.9C27.2,82.4,27.7,83,27.3,82.9z M29.8,82.8
	c-0.3,0.1-0.4-1.4-0.4-1.5c0-0.4-0.1-2.8,0.3-3c0.1,0.9,0.2,1.8,0.2,2.7C30,81.5,30.1,82.3,29.8,82.8C29.8,82.8,30,82.4,29.8,82.8z
	 M35.7,67.6c-1.2,1.4-2.2,3-3.7,4.1c-0.6,0.4-1.3,0.4-1.9,1c-0.3,0.2-0.5,0.5-0.6,0.9c-0.1,0.3-0.8,0-1.1,0c0.9-1.9,2.8-3.1,4.1-4.7
	c1.1-1.2,1.8-2.9,2.4-4.4c1.8-4,4-8.1,4-12.6c0.6,0.1,1.3,0.2,1.9,0.3c0.7,0.1,0.4,0.5,0.3,1.1c-0.4,1.8-1,3.6-1.6,5.4
	c-0.7,1.9-1.4,3.7-2.2,5.6C36.9,65.3,36.5,66.7,35.7,67.6C35.4,67.9,36.7,66.4,35.7,67.6z M47.2,48.8c-0.9,1-1.8,2.1-2.6,3.2
	c-0.6,0.9-1.9,1.3-2.9,1.7c0.1-0.4,0.2-0.7,0.2-1.1c0.6,0.3,2.1-1.1,2.6-1.4c0.4-0.3,1.4-0.8,1.6-1.3c0.5-1.4,0.9-2.8,1.1-4.3
	c0.3-1.9,0.6-3.9,0.9-5.8c0.1-0.4,0.2-0.9,0.2-1.3c0.4-0.3,0.6-0.7,1-0.8c0.8-0.2,1.6-0.5,2.4-0.8c-0.6,2-1.1,4-1.8,6
	C49.2,44.8,48.6,47.3,47.2,48.8C45.6,50.6,48.8,47.1,47.2,48.8z M56.4,32.9c-0.2,1.7-3.3,2.7-4.5,3.2c-1,0.4-2,0.8-3.1,1
	c-0.3,0.1-0.7,0.7-0.9,0.9c-3,2.8-7.6,4.5-11.6,4.9c-5.1,0.5-10.5-0.2-15.4-1.5c-2.2-0.6-4.5-1.3-6.6-2.3c-1.5-0.8-4.5-2.4-3.9-4.5
	c0.6-2.2,3.5-2.7,4.8-4.3c0.8-0.9,1.3-2.1,1.4-3.3c0.3-4.3,2.4-8.7,5.5-11.7c5.9-5.7,16.7-6.7,23.6-2.2c4.8,3.2,7.4,8.7,8.6,14.1
	c0.2,0.8,0.3,1.7,0.5,2.6c0,0.3,0.2,0.9,0.1,1.2c-0.6,2.2-2.8,3.8-4.7,4.7c-3.4,1.6-7.3,2-11,2.2c-3.9,0.2-7.9,0-11.7-0.5
	c-3.2-0.5-6.8-1.2-9.5-3.2c-1-0.7-1.9-1.7-2.3-2.8c-0.4-1.1-0.9-0.5-0.6,0.4c0.3,0.9,0.9,1.7,1.6,2.4c3,2.8,7.6,3.6,11.5,4.1
	c4.9,0.7,10.1,0.7,15,0.1c3.7-0.5,7.9-1.5,10.7-4.3c0.6-0.7,1.2-1.4,1.5-2.3c0.3-0.7,0.2-1.3,0-2.1C56.2,30.4,56.5,31.7,56.4,32.9
	C56.1,34.5,56.6,31.1,56.4,32.9z"/>
<g>
	<path fill="#FFFFFF" d="M84.9,39.4c0.6,0.2,0.3-1.1,0.2-1.3c0-0.6,0.1-1.4-0.2-2c-0.3-0.6-0.6-1.2-0.9-1.7
		c-0.5-0.7-0.5,1.2-0.5,1.3c-0.1,0.8,0,1.2,0.4,1.9C84.1,37.9,84.5,39.2,84.9,39.4C85,39.4,84.9,39.3,84.9,39.4z"/>
	<path fill="#7F7F7F" d="M81.9,30.9c0.4,0.4,0.5-0.5,0.5-0.7c0-0.3-0.2-0.6-0.3-0.8c-0.4-0.6-1-1.1-1.6-1.5
		c-1.2-0.8-2.9-1.9-4.4-1.7c-0.3,0-1.3,0.5-0.9,0.9c0.2,0.2,0.8,0.2,1,0.3c0.4,0.1,0.8,0.3,1.3,0.5C79.1,28.5,80.7,29.5,81.9,30.9
		C81.9,30.9,81,29.9,81.9,30.9z M75.5,26.6C75.4,26.5,75.4,26.5,75.5,26.6C75.5,26.6,75.4,26.6,75.5,26.6z"/>
	<path fill="#898989" d="M58.8,70.4c-2.4-1.3-5.1-2.3-7.9-2.2c-1,0-2.1,0.3-2.8,1c-0.4,0.4-0.7,1.1-0.9,1.7
		c-0.3,0.6-0.6,1.2-0.8,1.8c-0.4,0.8,0.8,0.3,1.1,0.2c2.4-0.6,5.1,0.2,7.2,1.1c2.6,1.1,5,2.6,6.9,4.6c0.7,0.8,1.4,1.6,1.9,2.5
		c0.1,0.2,0.7,2.2,1,1.4c0.5-1,1.1-2.1,1.5-3.2c0.5-1.7-0.7-3.5-1.8-4.7C62.8,72.9,60.8,71.5,58.8,70.4
		C55.2,68.5,63.8,73.2,58.8,70.4z"/>
	<path fill="#FFFFFF" d="M48,73c-1.2,0.2,1.3,4.1,1.6,4.4c1.6,1.8,3.7,3.1,5.8,4.1c-0.3-1.8-0.6-3.7-0.9-5.5c-0.1-0.5,0-1.5-0.3-1.9
		C52.3,73.2,50.1,72.6,48,73z"/>
	<path fill="#C5C6C6" d="M56.7,75.1c-0.8-0.4-1.6-0.8-2.4-1.1c0.2,1.5,0.5,3.1,0.7,4.6c0.1,0.8,0.3,1.7,0.4,2.5
		c0.1,0.9,2.5,1.2,3.2,1.3c-0.1-1.2-0.3-2.5-0.4-3.7c-0.1-0.7-0.2-1.5-0.2-2.2c0-0.2,0-0.4-0.1-0.6C57.9,75.6,56.9,75.2,56.7,75.1
		C55.9,74.7,57.1,75.3,56.7,75.1z"/>
	<path fill="#DADBDB" d="M58.6,82.4c1,0.2,2.2,0.2,3.2-0.1c0.4-0.1,0.9-0.3,1.2-0.6c0.5-0.4,0.2-0.8-0.1-1.2c-1.2-1.9-3.1-3.4-5-4.7
		C58.2,78.1,58.4,80.2,58.6,82.4z"/>
	<path fill="#FFFFFF" d="M59.5,68.9c-2.1-1.1-4.4-2-6.8-2.2c-1.4-0.1-3.3,0-4.2,1.3c-0.5,0.7,1,0.2,1.1,0.1c0.9-0.2,1.9-0.2,2.8-0.1
		c2.5,0.3,4.9,1.3,7,2.5c1.9,1.1,3.8,2.5,5.1,4.3c0.6,0.7,1.1,1.5,1.4,2.4c0.1,0.2,0.1,0.8,0.4,0.8c0.4,0,0.4-0.6,0.4-0.8
		c0.1-1.5-0.9-3-1.9-4.1C63.4,71.4,61.5,70,59.5,68.9C54.8,66.3,64.3,71.5,59.5,68.9z"/>
	<path fill="#DADBDB" d="M63.5,81.8c-0.2-0.1-0.8,0.4-1,0.5c-0.4,0.2-0.9,0.3-1.4,0.4c-1,0.2-2,0.1-3-0.1C55.6,82,53.1,80.7,51,79
		c-1.5-1.2-2.9-2.8-3.3-4.7c-0.1-0.3,0-0.9-0.2-1.1c-0.3-0.2-0.9,0.2-1.1,0.4c-0.7,0.5-1.1,1.2-1.1,2.1c0,1.6,1.2,3.2,2.2,4.3
		c1.7,1.8,3.8,3.3,6.1,4.4c2.2,1,4.7,1.9,7.1,1.7c0.9-0.1,1.9-0.3,2.6-1c0.4-0.4,0.6-0.9,0.6-1.4C63.9,83.2,63.9,81.9,63.5,81.8
		C63.4,81.7,63.6,81.8,63.5,81.8z"/>
	<path fill="#898989" d="M51.1,64.8c-0.9,0.3-1.4,0.9-1.8,1.7c-0.5,1,0.9,0.3,1.3,0.2c2.2-0.5,4.6,0.2,6.6,1c2.4,0.9,4.6,2.3,6.5,4
		c1.4,1.3,2.8,2.9,3.2,4.8c0.2,0.8,0.8-0.6,0.8-0.8c0.2-0.6,0.1-1.3-0.1-1.9c-0.6-1.9-2.1-3.4-3.5-4.7c-1.9-1.6-4.2-2.9-6.6-3.8
		C55.6,64.6,53.1,64,51.1,64.8C50.3,65,53.3,64,51.1,64.8z"/>
	<path fill="#898989" d="M83.2,33.5c-0.7-2.4-3-4.1-5.2-5.2c-1.9-1-4.4-1.8-6.4-0.5c-1.5,0.9-2.1,2.6-2.8,4.2
		c-2.3,4.9-4.6,9.8-6.9,14.7c-2.4,5.1-4.7,10.1-7.1,15.2c-0.3,0.6-0.5,1.1-0.8,1.7c-0.1,0.1-0.1,0.2-0.2,0.3
		c-0.3,0.6,1.9,0.7,2.3,0.8c2.9,0.7,5.6,2.2,7.9,4.1c0.9,0.8,1.8,1.6,2.5,2.6c0.2,0.3,0.4,0,0.5-0.2c4.4-9.5,8.9-19,13.3-28.5
		C81.7,40.1,84.1,36.4,83.2,33.5C83,32.8,83.6,34.8,83.2,33.5z"/>
	<path fill="#BFC0C0" d="M86,40.9c-0.4,0.2,0.5,1.8,0.7,2.2c0.3,0.6,1.5-0.6,1.8-0.9c0.8-0.6-0.3-1.2-0.7-1.7
		C87.2,39.9,86.6,40.6,86,40.9z"/>
	<path fill="#FFFFFF" d="M79.6,26.6c-0.7,0.3,1,1.1,1.2,1.3c0.2,0.1,0.7,0,1,0c0.3,0,0.7,0.2,1,0.4c1.5,0.9,2,3,2.3,4.6
		c0.3,1.9,0.2,3.8,0.4,5.6c0,0.3,0.2,2.5,0.7,2.2c0.1,0,0.9-0.4,0.9-0.6c0.3-0.2-0.1-1.8-0.1-2.2c-0.1-0.9-0.1-1.8-0.1-2.7
		c-0.1-1.8-0.2-3.6-0.9-5.3C84.9,27.2,82.5,25.3,79.6,26.6C79.5,26.6,80.9,26,79.6,26.6z"/>
</g>
<path fill="#FFFFFF" d="M60.8,63.3c2.6-5.5,5.2-11,7.8-16.5c0.9,0.5,1.8,1,2.6,1.4c0.3,0.2,1.4,0.5,1.2,0.9c-0.8,1.7-1.6,3.3-2.3,5
	c-1.8,3.8-3.6,7.6-5.3,11.4C63.4,64.7,62.1,64,60.8,63.3z"/>
<path fill="#88C027" d="M64.2,59.5c0.3,0.2,0.7,0.4,1,0.6c0.4-0.8,0.7-1.6,1.1-2.4c0.2-0.3,0.3-0.6,0.5-1c0,0-0.9-0.5-1-0.5
	C65.2,57.2,64.7,58.3,64.2,59.5z"/>
<path fill="#FFFFFF" d="M67.2,53c-0.3,0.7-0.7,1.5-1,2.2c-0.1,0.1-0.4,0.7-0.4,0.9c0.1,0.2,0.8,0.4,1,0.5c0.3-0.7,0.7-1.5,1-2.2
	c0.1-0.1,0.4-0.7,0.4-0.9C68.2,53.4,67.4,53.1,67.2,53z"/>
<g>
	<path fill="#040000" d="M68.4,46.8c-2.1,4.5-4.2,9-6.3,13.5c-0.4,0.8-0.8,1.7-1.2,2.5c-0.4,0.8,0.4,1,1,1.4c0.4,0.2,2.7,1.8,3,1.2
		c0.3-0.6,0.6-1.2,0.8-1.8c1.8-3.9,3.6-7.8,5.5-11.7c0.3-0.7,0.6-1.4,1-2c0.1-0.2,0.3-0.5,0.4-0.8c0.3-0.6-1.7-1.3-2-1.5
		C70.2,47.4,68.6,46.2,68.4,46.8z M71.8,49.1c-2.4,5.2-4.9,10.4-7.3,15.6c-0.9-0.5-1.9-1-2.8-1.5c-0.2-0.1,0.3-0.8,0.3-1
		c0.8-1.7,1.6-3.5,2.4-5.2c1.5-3.2,3-6.3,4.4-9.5C69.8,48,70.8,48.5,71.8,49.1C71.5,49.7,71.3,48.8,71.8,49.1z"/>
	<path fill="#040000" d="M65.7,60.3c0.6-1.2,1.1-2.4,1.7-3.6c0.4-0.9,0.8-1.7,1.2-2.6c0.2-0.5-0.9-1.4-1.4-1.2
		c-0.4,0.1-0.7,1.2-0.8,1.6c-0.5,1-0.9,1.9-1.4,2.9c-0.3,0.7-0.6,1.3-0.9,2C63.7,59.9,65.4,60.8,65.7,60.3z M67.8,53.9
		c-0.4,0.8-0.8,1.7-1.2,2.5c-0.1-0.1-0.3-0.1-0.4-0.2c-0.1-0.1,0.3-0.9,0.4-1c0.2-0.5,0.5-1,0.7-1.5C67.5,53.8,67.7,53.8,67.8,53.9
		C67.7,54.2,67.6,53.8,67.8,53.9z M64.7,59.3c0.4-0.8,0.8-1.7,1.2-2.5c0.1,0.1,0.3,0.1,0.4,0.2c0.1,0.1-0.3,0.9-0.4,1
		c-0.2,0.5-0.5,1-0.7,1.5C65,59.5,64.9,59.4,64.7,59.3C64.8,59.1,64.9,59.4,64.7,59.3z"/>
	<path fill="#040000" d="M78.9,26.4c-0.9-0.5-2.1-1-3.2-0.7c-0.4,0.1-0.7,0.3-0.9,0.6c-0.2,0.3-0.1,0.3-0.6,0.3
		c-0.4,0-0.9,0-1.3,0.1c-1.8,0.4-3,1.8-3.8,3.4c-0.5,1.2-1.1,2.3-1.6,3.5C65,39.1,62.5,44.5,60,49.9c-2.1,4.5-4.2,8.9-6.3,13.4
		c-0.1,0.2-0.2,0.6-0.4,0.8c-1.2,0-2.5,0.1-3.4,0.9c-0.6,0.5-0.9,1.2-1.2,1.9c-1,2.1-2,4.3-3,6.4c-0.3,0.6-0.6,1.2-0.7,1.8
		c-0.2,1.2,0.2,2.4,0.8,3.4c1.9,3.3,5.5,5.6,9,7c2.5,1,7.8,2.5,9.4-0.8c0.7-1.5,1.4-3.1,2.2-4.6c0.4-1,0.9-1.9,1.3-2.9
		c0.3-0.6,0.6-1.2,0.7-1.9c0-0.6-0.1-1.3-0.3-1.9c-0.1-0.2-0.7-1.2-0.7-1.3c0.5-1,1-2.1,1.5-3.1c2.5-5.3,5-10.7,7.5-16
		c1.6-3.5,3.2-6.9,4.9-10.4c0.8-1.6,1.6-3.3,2.3-4.9c0.7,1.3,1.5,2.6,2.1,4c0.3,0.7,0.6,2,1.1,2.5c0.4,0.4,2.1-1.3,2.5-1.5
		c0.9-0.7,0-1.2-0.6-1.8c-0.2-0.2-0.6-0.5-0.8-0.8c-0.3-1.1-0.3-2.2-0.3-3.3c-0.1-2-0.1-4-0.7-6C85.6,27.1,82.5,24.4,78.9,26.4
		C76.7,25.3,80.8,25.3,78.9,26.4z M83.5,29.5c1,1.5,1.2,3.4,1.3,5.2c-0.6-1.1-1.3-2.1-2-3.2c-0.3-0.5,0.1-0.9,0-1.5
		c-0.1-0.7-0.5-1.3-1-1.7C82.5,28.5,83.1,29,83.5,29.5C84.4,30.9,83,28.8,83.5,29.5z M83.7,36.5c0.2-0.6,0.2-1.3,0.2-1.9
		c0.4,0.6,0.7,1.2,1,1.8c0,0.9,0.1,1.8,0.2,2.7C84.6,38.2,84.2,37.3,83.7,36.5C83.9,35.8,83.7,36.5,83.7,36.5z M78.6,28.1
		c-1-0.5-2.1-1-3.2-1.2c0.9-1.1,3.2,0.2,4.1,0.7c0.9,0.5,3.1,1.8,2.6,3.2C81.1,29.6,79.9,28.7,78.6,28.1
		C77.4,27.4,79.7,28.7,78.6,28.1z M64.3,82.5c-0.7-3.3-4.1-5.9-6.8-7.5c-2.9-1.7-7.6-3.7-10.9-2.1c0.8-1.6,1.3-3.8,3.3-4.3
		c3.4-0.8,7.5,1.1,10.3,2.9c2.2,1.5,5.2,3.8,5.6,6.6C66,79.6,64.9,81.3,64.3,82.5z M56.5,75.3c1.5,0.8,2.8,1.8,4.1,2.9
		c0.4,0.4,2.9,2.9,2.3,3.3c-2.6,1.9-6.4,0.3-8.9-1c-2.5-1.3-5.3-3.4-5.9-6.4c-0.1-0.3-0.1-0.6-0.1-0.9c0.3-0.1,0.7-0.1,1-0.1
		c0.8,0,1.5,0.1,2.3,0.2C53.1,73.7,54.9,74.5,56.5,75.3C59.6,77,53.4,73.7,56.5,75.3z M59,70c-2.8-1.5-7.1-3.3-10.2-1.8
		c0.9-1.3,2.8-1.3,4.2-1.2c2.5,0.2,4.9,1.2,7,2.5c1.9,1.1,3.7,2.5,5.1,4.3c0.8,1.1,1.8,2.6,1.4,4C65.7,74.3,62,71.6,59,70
		C55.3,68,63.1,72.2,59,70z M62,85.4c-1.9,0.7-4.1,0.2-5.9-0.4c-2.4-0.8-4.7-2-6.7-3.7c-1.8-1.4-6.5-6.6-2.1-8
		c0.1,3.4,3.4,6,6.1,7.6c2.8,1.6,7.1,3.3,10,1.1C63.9,83.5,63.6,84.9,62,85.4C59.9,86.2,62.7,85.2,62,85.4z M67.4,75.8
		c-0.1,0.2-0.2,0.3-0.2,0.5c-0.7-3.3-4.1-5.9-6.8-7.5c-2.9-1.7-7.6-3.7-10.9-2.1c2-4.2,8.8-1.1,11.6,0.5c2,1.2,3.9,2.6,5.2,4.5
		C67.1,72.8,68,74.5,67.4,75.8z M66.8,71.2c-2.8-3.8-8-6.7-12.7-7.2c4.2-9,8.4-18,12.6-27c0.9-1.8,1.7-3.7,2.6-5.5
		c1-2,2.2-4.1,4.7-4.1c2.5,0,5.1,1.6,6.9,3.2c2,1.8,2.8,4.3,1.6,6.8c-0.5,1-1,2-1.4,3.1c-4.6,9.9-9.3,19.9-13.9,29.8
		C67.1,70.6,67,70.9,66.8,71.2z M88.6,41.8c-0.6,0.4-1.1,0.8-1.7,1.2c-0.2-0.4-0.4-0.8-0.5-1.2c-0.3-0.7-0.3-0.6,0.3-1
		c0.4-0.2,0.5-0.4,0.8-0.1C87.9,41.1,88.2,41.4,88.6,41.8C88.2,42.1,88.2,41.4,88.6,41.8z M84.9,28.4c1.4,2,1.6,4.5,1.7,6.8
		c0.1,1.2,0.1,2.5,0.2,3.7c0.1,0.4,0.3,0.8-0.1,1c-0.2,0.1-0.5,0.3-0.7,0.4c-0.8-3-0.2-6.1-1-9.1c-0.3-1.2-0.9-2.6-2-3.3
		c-0.4-0.3-0.9-0.4-1.5-0.5c-0.2,0-0.4,0-0.6,0c-0.4-0.3-0.8-0.5-1.2-0.8C81.7,26,83.6,26.7,84.9,28.4
		C86.4,30.6,83.1,25.9,84.9,28.4z"/>
</g>
</svg>
