<?xml version="1.0" encoding="utf-8"?>
<!-- Generator: Adobe Illustrator 17.0.1, SVG Export Plug-In . SVG Version: 6.00 Build 0)  -->
<!DOCTYPE svg PUBLIC "-//W3C//DTD SVG 1.1//EN" "http://www.w3.org/Graphics/SVG/1.1/DTD/svg11.dtd">
<svg version="1.1" id="レイヤー_1" xmlns="http://www.w3.org/2000/svg" xmlns:xlink="http://www.w3.org/1999/xlink" x="0px"
	 y="0px" width="841.89px" height="595.28px" viewBox="0 0 841.89 595.28" enable-background="new 0 0 841.89 595.28"
	 xml:space="preserve">
<rect x="349.945" y="226.975" fill="#A660A3" stroke="#A660A3" stroke-width="2" stroke-miterlimit="10" width="141.732" height="141.732"/>
<g>
	<path fill="#9C9895" d="M385.229,301.217c-2.27-1.151-2.889-3.829-3.122-4.836c-0.211-0.918,0.222-2.812,1.161-5.065
		c0.044-0.106,0.037-0.226-0.019-0.327c-0.056-0.1-0.154-0.169-0.268-0.188c-1.483-0.241-2.968-0.524-4.415-0.841
		c-0.111-0.025-0.23,0.004-0.319,0.077c-0.089,0.073-0.139,0.183-0.136,0.299c0.006,0.255,0.162,6.243,0.837,7.06
		c0.741,0.865,3.945,3.838,5.069,4.213c0.339,0.113,0.651,0.213,0.929,0.3c0.037,0.011,0.075,0.017,0.112,0.017
		c0.149,0,0.289-0.089,0.347-0.233C385.481,301.512,385.404,301.305,385.229,301.217z"/>
	<path fill="#706A67" d="M389.273,300.22c-0.102,0.022-0.189,0.086-0.242,0.176c-0.053,0.09-0.066,0.197-0.037,0.297
		c0.042,0.14,0.081,0.291,0.116,0.457c0.038,0.176,0.193,0.297,0.366,0.297c0.023,0,0.047-0.002,0.071-0.007
		c0.516-0.1,2.256-0.486,2.939-1.272l-0.218-0.3v0l0.267,0.268c0.156-0.109,0.206-0.317,0.116-0.484
		c-0.192-0.357-0.371-0.754-0.534-1.179c-0.054-0.142-0.187-0.236-0.338-0.241c-0.14-0.008-0.291,0.082-0.353,0.219
		C390.94,299.514,389.963,300.069,389.273,300.22z"/>
	<path fill="#706A67" d="M401.134,305.184c0.014,0.011,0.026,0.022,0.037,0.029c0.041,0.029,0.087,0.049,0.137,0.06
		c0.365,0.078,0.749,0.152,1.159,0.22c0.021,0.004,0.041,0.005,0.062,0.005c0.083,0,0.165-0.028,0.231-0.08
		c0.083-0.065,0.135-0.161,0.143-0.266c0.035-0.445,0.059-0.907,0.07-1.373c0.005-0.192-0.137-0.357-0.327-0.381
		c-1.593-0.206-2.917-0.772-3.747-1.212c-0.154-0.082-0.348-0.045-0.462,0.09c-0.113,0.135-0.118,0.331-0.01,0.471
		C399.03,303.529,399.823,304.428,401.134,305.184z"/>
	<path fill="#9C9895" d="M395.973,291.969c-0.071-0.08-0.163-0.125-0.282-0.125l-0.452,0.005c-1.19,0-2.454-0.037-3.757-0.111
		c-0.106-0.002-0.213,0.035-0.289,0.112c-0.076,0.077-0.114,0.184-0.106,0.291c0.116,1.482,0.647,6.481,2.61,8.585
		c1.502,1.609,2.688,2.879,4.993,3.787c0.044,0.018,0.091,0.026,0.137,0.026c0.123,0,0.241-0.061,0.313-0.167
		c0.098-0.147,0.08-0.342-0.043-0.469c-0.62-0.638-1.097-1.292-1.656-2.082c-0.279-0.395-0.596-0.843-0.933-1.266
		c-0.917-1.146-0.829-5.035-0.44-8.292C396.079,292.156,396.045,292.049,395.973,291.969z"/>
	<path fill="#5B5451" d="M387.104,311.858c-0.142,3.405-0.098,10.439,0.494,12.332c0.299,0.957,0.393,3.148,0.262,6.171
		c-0.007,0.165,0.094,0.314,0.25,0.37c0.041,0.014,0.083,0.021,0.125,0.021c0.116,0,0.229-0.054,0.301-0.152
		c0.148-0.2,0.309-0.396,0.475-0.581c0.288-0.32,0.613-0.654,0.994-1.023c0.097-0.094,0.133-0.279,0.1-0.409
		c0.005-0.04,0.49-3.992,0.006-5.445c-0.37-1.107-0.403-3.257-0.443-5.785c-0.015-0.924-0.03-1.896-0.064-2.875l-0.067-1.997
		c-0.106-3.246-0.227-6.924-0.433-9.498c-0.141-1.758-0.395-2.5-0.583-2.813c-0.076-0.126-0.221-0.196-0.367-0.178
		c-0.832,0.103-1.619,0.394-2.014,0.558c-0.161,0.067-0.254,0.235-0.226,0.407l0.067,0.422
		C386.272,303.209,387.208,309.355,387.104,311.858z"/>
	<path fill="#9FA0A0" d="M386.994,333.798c-0.01,0.038-0.013,0.077-0.011,0.117l0.229,3.777c0.008,0.137,0.09,0.258,0.214,0.316
		c0.368,0.174,0.755,0.263,1.151,0.263c0.836,0,1.533-0.388,1.875-0.618c0.098-0.066,0.159-0.176,0.164-0.294
		c0.023-0.518,0.091-2.253-0.01-2.861c-0.019-0.116-0.03-0.235-0.041-0.353c-0.029-0.326-0.062-0.696-0.376-0.981
		c-0.036-0.033-0.078-0.059-0.124-0.075c-0.017-0.006-0.03-0.015-0.044-0.03c-0.03-0.031-0.065-0.057-0.103-0.076
		c-0.234-0.118-0.538-0.199-0.955-0.255c-0.134-0.018-0.258-0.025-0.373-0.025C387.623,332.701,387.132,333.267,386.994,333.798z"/>
	<path fill="#5B5451" d="M389.512,338.904c0.019-0.119-0.021-0.24-0.107-0.324c-0.085-0.085-0.207-0.124-0.325-0.104
		c-0.186,0.03-0.345,0.045-0.502,0.045c-0.319,0-0.648-0.06-0.977-0.178c-0.103-0.037-0.218-0.027-0.313,0.027
		c-0.095,0.055-0.162,0.148-0.183,0.256c-0.349,1.844-0.887,5.208-0.69,6.12c0.031,0.144,0.143,0.256,0.287,0.287
		c0.335,0.073,0.875,0.115,1.48,0.115c0.378,0,0.761-0.017,1.107-0.048c0.124-0.011,0.234-0.083,0.294-0.192
		c0.06-0.109,0.063-0.24,0.006-0.352C389.123,343.636,389.094,341.576,389.512,338.904z"/>
	<path fill="#87827F" d="M390.415,338.164c-0.104-0.057-0.255-0.05-0.363,0c-0.111,0.052-0.189,0.154-0.21,0.275
		c-0.009,0.055-0.946,5.501,0.205,6.312c0.001,0.002,0.021,0.025,0.023,0.027c0.071,0.082,0.187,0.124,0.299,0.124
		c0.044,0,0.088-0.006,0.128-0.02c0.08-0.025,0.148-0.077,0.195-0.146c0.638-0.945-0.054-6.25-0.061-6.304
		C390.615,338.315,390.519,338.221,390.415,338.164z"/>
	<path fill="#5B5451" d="M407.01,303.162l-3.348-0.479c-0.109-0.015-0.217,0.018-0.299,0.088c-0.082,0.071-0.13,0.174-0.13,0.283
		c0,2.597-0.308,4.663-0.89,5.973c-0.106,0.24-0.26,0.593-0.452,1.035l-0.079,0.183c-2.735,6.314-6.103,13.776-7.872,15.448
		c-0.82,0.775-1.524,1.417-2.143,1.981c-1.097,1-1.889,1.722-2.6,2.512c-0.474,0.527-0.87,1.113-1.178,1.744
		c-0.059,0.121-0.049,0.265,0.027,0.376c0.076,0.111,0.2,0.174,0.34,0.162l0.098-0.011c0.147-0.018,0.324-0.004,0.512,0.021
		c0.268,0.035,0.504,0.087,0.721,0.158c0.039,0.012,0.078,0.018,0.116,0.018c0.143,0,0.278-0.082,0.341-0.218
		c0.283-0.616,0.972-1.688,2.408-1.957c1.519-0.285,3.595-2.69,5.264-4.624c0.467-0.541,0.907-1.052,1.292-1.464
		c1.581-1.694,7.767-16.428,8.191-20.823C407.349,303.37,407.208,303.19,407.01,303.162z"/>
	<path fill="#706A67" d="M421.855,282.647c-1.763,0.616-3.27,1.022-3.836,1.167c-0.066,0.017-0.126,0.052-0.174,0.101l-0.087,0.088
		c-0.199,0.205-0.459,0.47-0.799,0.781c-0.064,0.058-0.104,0.135-0.117,0.22c-0.276,1.801-1.694,10.89-2.454,13.016l-0.834,2.333
		c-0.008,0.023-0.022,0.044-0.043,0.059c-0.151,0.109-3.707,2.688-5.407,3.358c-0.002,0-0.019,0-0.054-0.018
		c-0.108-0.053-0.233-0.052-0.338,0.003c-0.106,0.055-0.18,0.157-0.198,0.274c-0.064,0.404-0.164,0.88-0.296,1.417
		c-0.032,0.131,0.009,0.27,0.106,0.363c0.07,0.066,0.163,0.102,0.258,0.102c0.037,0,0.074-0.005,0.11-0.017
		c1.625-0.502,3.411-1.506,3.92-1.802c0.046-0.027,0.086-0.064,0.117-0.107c0.267-0.374,1.718-2.362,4.119-4.763
		c2.29-2.29,5.546-12.914,6.489-16.115c0.04-0.135,0.001-0.281-0.102-0.378C422.136,282.633,421.988,282.601,421.855,282.647z"/>
	<path fill="#FCFBF7" d="M427.476,272.815c-0.117-0.108-0.289-0.131-0.431-0.057c-0.141,0.074-0.219,0.229-0.196,0.387
		c0.153,1.035,0.205,1.701,0.213,1.854c-0.042,0.255-1.154,6.28-13.6,8.769c-3.801,0.76-8.875,1.179-14.288,1.179
		c-4.092,0-8.127-0.242-11.669-0.699c-7.669-0.989-17.108-3.395-18.522-9.24c-0.016-0.067,0.025-0.135,0.121-0.154
		c0.049,0,0.107,0.032,0.123,0.095c1.732,7.161,16.687,9.713,30.104,9.713c5.333,0,10.466-0.415,14.083-1.139
		c11.571-2.314,13.233-7.864,13.385-8.49c0.01-0.039,0.013-0.078,0.01-0.118c-0.063-0.788-0.719-7.896-4.528-14.696
		c-4.881-8.715-12.934-13.322-23.286-13.322c-0.566,0-1.144,0.013-1.716,0.04c-10.513,0.481-18.176,4.451-22.773,11.799
		c-3.387,5.414-3.761,10.77-3.775,10.993c-0.01,0.146-0.285,3.592-3.566,5.359c-2.015,1.085-5.387,2.901-5.448,5.294
		c-0.039,1.531,1.291,3.125,3.954,4.739c5.971,3.619,19.028,6.453,29.724,6.453c0.228,0,0.454-0.001,0.679-0.004
		c0.052-0.001,0.103-0.012,0.15-0.033c0.032-0.015,0.049-0.017,0.038-0.022l0.129-0.348v0l-0.074,0.371
		c0.047,0.019,0.106,0.03,0.147,0.027c3.175-0.06,5.818-0.382,7.857-0.957c5.48-1.546,9.589-3.489,12.211-5.775
		c0.063-0.055,0.105-0.129,0.121-0.211c0.012-0.061,0.063-0.088,0.105-0.092c0.081-0.009,0.158-0.044,0.217-0.101
		c0.247-0.234,0.445-0.436,0.604-0.598l0.188-0.191c0.017-0.016,0.036-0.027,0.059-0.033c0.108-0.027,10.842-2.769,11.323-5.98
		C429.534,275.046,428.107,273.402,427.476,272.815z"/>
	<path fill="#E8E8E8" d="M415.534,281.7c-0.886,0.885-1.962,1.517-3.157,2.012c0.356-0.061,0.705-0.124,1.036-0.19
		c11.571-2.314,13.233-7.864,13.385-8.49c0.01-0.039,0.013-0.078,0.01-0.118c-0.063-0.788-0.719-7.896-4.528-14.696
		c-0.936-1.67-1.989-3.186-3.151-4.551C423.817,263.901,422.623,275.94,415.534,281.7z"/>
</g>
<path fill="#E8E8E8" d="M371.635,272.353c0,0-0.188,1.25-2.438,2.5c0,0,0.781,5.625,10.781,7.625s19.375,2.875,27.75,1.875
	C407.729,284.353,371.667,281.978,371.635,272.353z"/>
<path d="M427.567,272.075c-0.157-0.115-0.357-0.125-0.52-0.044c-1.331-7.524-6.973-26.767-29.799-25.719
	c-13.389,0.613-20.06,6.935-23.298,12.131c-3.507,5.628-3.834,11.031-3.845,11.248c-0.01,0.132-0.281,3.254-3.239,4.847
	c-2.134,1.149-5.707,3.073-5.777,5.829c-0.046,1.796,1.346,3.526,4.255,5.289c2.957,1.793,7.307,3.316,12.136,4.444
	c0.035,1.708,0.205,6.784,0.993,7.704c0.736,0.858,4.081,3.977,5.346,4.399c0.751,0.25,1.39,0.445,1.739,0.549
	c0.396,2.634,1.003,7.085,0.92,9.081c-0.103,2.459-0.173,10.321,0.522,12.545c0.585,1.872,0.116,8.031,0.104,8.182
	c-0.463,0.372-0.689,0.876-0.745,1.212c-0.006,0.037-0.008,0.075-0.006,0.112l0.246,4.061c-1.444,7.244-0.658,7.507-0.28,7.633
	c0.392,0.131,1.106,0.2,1.873,0.199c0.953,0,1.987-0.105,2.586-0.33c0.912-0.342,1.062-2.793,0.445-7.286
	c-0.013-0.096-0.059-0.176-0.117-0.246c0.067-0.082,0.115-0.178,0.121-0.285c0.013-0.249,0.124-2.452-0.006-3.233
	c-0.017-0.101-0.025-0.204-0.035-0.307c-0.042-0.468-0.13-0.934-0.486-1.304c0.214-0.506,0.771-1.461,1.995-1.691
	c1.734-0.325,3.8-2.718,5.622-4.829c0.463-0.537,0.9-1.043,1.277-1.446c1.412-1.513,5.952-12.041,7.693-18.177
	c0.035-0.001,0.069-0.004,0.104-0.013c2.049-0.512,4.531-1.993,4.636-2.056c0.061-0.037,0.113-0.085,0.154-0.144
	c0.015-0.021,1.51-2.165,4.108-4.764c2.727-2.727,6.629-16.306,6.794-16.883c0.018-0.064,0.022-0.129,0.015-0.191
	c3.053-1.167,6.366-2.875,6.666-4.872C430.305,274.128,427.679,272.157,427.567,272.075z M379.234,297.153
	c-0.376-0.456-0.672-3.823-0.746-6.825c1.45,0.318,2.935,0.601,4.435,0.845c-0.487,1.169-1.508,3.873-1.18,5.293
	c0.252,1.094,0.895,3.857,3.317,5.086c-0.275-0.086-0.585-0.186-0.921-0.298C383.16,300.928,380.018,298.067,379.234,297.153z
	 M404.49,291.209c6.108-1.723,9.526-3.659,11.482-5.123c-0.387,2.595-1.509,9.867-2.171,11.723l-0.782,2.188
	c-0.642,0.461-3.599,2.557-5.042,3.158c0-0.016,0.002-0.036,0.002-0.052c0-0.249-0.183-0.46-0.429-0.495l-4.375-0.625
	c-0.143-0.021-0.289,0.022-0.398,0.117c-0.109,0.095-0.172,0.233-0.172,0.378l0.001,0.124c0,0.055-0.001,0.106,0,0.161
	c-2.925-0.419-4.988-2.147-5.009-2.165c-0.105-0.089-0.235-0.127-0.362-0.118c-0.08-0.105-0.156-0.21-0.239-0.314
	c-0.822-1.027-0.63-5.23-0.292-7.962C399.684,292.126,402.367,291.808,404.49,291.209z M390.704,322.945
	c-0.339-1.016-0.372-3.121-0.41-5.559c-0.015-0.94-0.03-1.928-0.065-2.925l-0.065-1.947c-0.107-3.269-0.228-6.974-0.437-9.576
	c-0.025-0.314-0.055-0.605-0.089-0.877c0.618-0.117,2.331-0.509,3.216-1.376c0.122,0.166,0.25,0.324,0.384,0.468
	c2.432,2.605,4.068,4.126,9.189,4.968c-0.141,1.085-0.361,1.99-0.656,2.654c-0.121,0.273-0.303,0.692-0.533,1.223
	c-1.593,3.677-5.825,13.444-7.729,15.242c-0.817,0.772-1.519,1.411-2.134,1.973c-0.191,0.174-0.375,0.341-0.552,0.504
	C390.943,326.403,391.08,324.074,390.704,322.945z M392.32,299.828c-0.031,0.022-0.065,0.04-0.092,0.07
	c-0.562,0.642-2.029,1.034-2.751,1.173c-0.038-0.176-0.079-0.336-0.124-0.485c0.705-0.155,1.849-0.743,2.414-1.98
	C391.93,299.034,392.115,299.445,392.32,299.828z M401.353,304.877c-1.186-0.678-1.956-1.488-2.629-2.359
	c0.977,0.517,2.31,1.05,3.875,1.253c-0.012,0.472-0.035,0.922-0.069,1.352c-0.405-0.067-0.783-0.14-1.144-0.217
	C401.373,304.897,401.366,304.884,401.353,304.877z M396.214,300.79c0.324,0.405,0.627,0.832,0.919,1.247
	c0.506,0.715,1.026,1.442,1.693,2.128c-2.227-0.877-3.368-2.1-4.856-3.695c-1.894-2.029-2.406-7.034-2.51-8.357
	c1.29,0.073,2.555,0.111,3.779,0.111c0.154,0,0.303-0.004,0.455-0.005C395.468,294.115,394.987,299.258,396.214,300.79z
	 M390.452,292.049c0.044,0.646,0.214,2.63,0.73,4.678c-0.045,0.075-0.077,0.158-0.077,0.251c0,2.172-1.898,2.618-1.98,2.636
	c-0.069,0.015-0.13,0.043-0.184,0.082c-0.18-0.228-0.388-0.341-0.629-0.341c-0.001,0-0.001,0-0.002,0
	c-1.452,0.132-2.749,0.773-2.803,0.801c-0.143,0.072-0.239,0.206-0.267,0.357c-1.561-0.941-2.169-2.741-2.522-4.273
	c-0.255-1.105,0.708-3.703,1.225-4.91C386.119,291.657,388.313,291.899,390.452,292.049z M386.353,301.326
	c0-0.006-0.002-0.012-0.003-0.019c-0.025-0.155-0.047-0.292-0.065-0.405c0.408-0.17,1.142-0.437,1.915-0.533
	c0.117,0.194,0.384,0.822,0.531,2.648c0.206,2.578,0.327,6.271,0.434,9.528l0.065,1.949c0.034,0.991,0.05,1.973,0.064,2.906
	c0.04,2.521,0.074,4.698,0.461,5.86c0.38,1.141,0.113,4.198-0.022,5.28c-0.008,0.064-0.003,0.127,0.012,0.186
	c-0.364,0.352-0.698,0.693-1.012,1.042c-0.184,0.205-0.349,0.409-0.497,0.609c0.089-2.073,0.126-5.002-0.279-6.298
	c-0.571-1.829-0.615-8.917-0.478-12.205C387.583,309.38,386.696,303.488,386.353,301.326z M389.749,333.316
	c0.052,0.054,0.113,0.097,0.188,0.124c0.199,0.18,0.226,0.419,0.255,0.738c0.012,0.128,0.023,0.257,0.044,0.382
	c0.085,0.512,0.04,2.013,0.005,2.782c-0.286,0.193-0.919,0.554-1.664,0.554c-0.341,0-0.674-0.076-0.991-0.227l-0.229-3.778
	c0.062-0.238,0.376-0.952,1.556-0.793C389.307,333.151,389.566,333.224,389.749,333.316z M386.783,344.667
	c-0.151-0.695,0.214-3.449,0.691-5.971c0.356,0.127,0.724,0.2,1.103,0.2c0.196,0,0.383-0.021,0.563-0.05
	c-0.241,1.545-0.579,4.517,0.116,5.883C388.354,344.811,387.294,344.779,386.783,344.667z M390.381,344.527
	c-0.008,0.003-0.018,0.005-0.027,0.008c-0.027-0.032-0.051-0.067-0.088-0.092c-0.586-0.41-0.501-3.387-0.055-5.939
	c0.015-0.007,0.033-0.014,0.048-0.021C390.599,341.059,390.725,344.016,390.381,344.527z M398.864,324.136
	c-0.39,0.417-0.833,0.931-1.302,1.476c-1.544,1.789-3.659,4.239-5.049,4.5c-1.586,0.297-2.351,1.454-2.679,2.168
	c-0.223-0.073-0.481-0.132-0.787-0.173c-0.168-0.022-0.324-0.033-0.471-0.033c-0.079,0-0.145,0.015-0.219,0.02
	c0.215-0.439,0.568-1.044,1.12-1.657c0.699-0.776,1.485-1.494,2.574-2.486c0.62-0.565,1.325-1.208,2.148-1.985
	c1.819-1.718,5.21-9.224,7.96-15.571c0.228-0.527,0.408-0.943,0.529-1.214c0.605-1.362,0.922-3.474,0.922-6.126l3.348,0.478
	C406.533,307.907,400.398,322.492,398.864,324.136z M415.584,298.958c-2.392,2.393-3.841,4.364-4.159,4.81
	c-0.419,0.244-2.234,1.271-3.842,1.769c0.132-0.536,0.235-1.023,0.302-1.449c0.068,0.034,0.142,0.057,0.219,0.057
	c0.062,0,0.125-0.011,0.186-0.036c1.705-0.682,5.29-3.283,5.441-3.393c0.082-0.059,0.143-0.141,0.177-0.236l0.834-2.334
	c0.84-2.353,2.296-12.419,2.357-12.847c0.006-0.044-0.002-0.086-0.007-0.128c0.407-0.365,0.709-0.673,0.935-0.905l0.086-0.088
	c0.574-0.148,2.1-0.559,3.866-1.177C421.248,285.483,417.856,296.685,415.584,298.958z M428.777,277.57
	c-0.328,2.187-6.949,4.64-11.044,5.673c-0.088,0.022-0.168,0.067-0.231,0.131l-0.19,0.193c-1.099,1.127-4.017,4.119-13.092,6.679
	c-2.082,0.587-4.765,0.887-7.762,0.944c-0.038-0.016-0.074-0.035-0.116-0.041c-0.097-0.014-0.187,0.009-0.27,0.046
	c-10.175,0.121-23.805-2.514-30.208-6.395c-2.539-1.539-3.809-3.022-3.773-4.408c0.055-2.176,3.308-3.927,5.251-4.974
	c3.452-1.859,3.751-5.5,3.762-5.663c0.003-0.053,0.333-5.408,3.719-10.82c4.529-7.238,12.089-11.149,22.472-11.624
	c0.578-0.027,1.144-0.039,1.7-0.039c24.788,0,27.291,25.789,27.439,27.672c-0.139,0.573-1.738,5.939-13.094,8.21
	c-11.818,2.364-41.343,1.654-43.749-8.294c-0.065-0.269-0.337-0.434-0.604-0.368c-0.268,0.065-0.433,0.335-0.368,0.604
	c1.464,6.052,11.053,8.52,18.839,9.524c8.467,1.092,19.192,0.893,26.079-0.485c12.694-2.539,13.853-8.811,13.896-9.077
	c0.006-0.038,0.008-0.077,0.005-0.116c-0.012-0.165-0.064-0.829-0.216-1.853C427.794,273.623,429.139,275.158,428.777,277.57z"/>
<g>
	<path fill="#FFFFFF" d="M470.092,286.241c0.075,0.025,0.157,0.025,0.238-0.001c0.171-0.057,0.274-0.232,0.251-0.41
		c-0.148-1.131-0.206-2.346-0.258-3.596c-0.002-0.055-0.017-0.11-0.043-0.159c-0.201-0.383-0.744-1.391-1.442-2.465
		c-0.094-0.144-0.274-0.206-0.437-0.15c-0.163,0.057-0.266,0.216-0.251,0.388c0.071,0.797-0.007,1.619-0.231,2.445
		c-0.025,0.091-0.001,0.204,0.043,0.288c0,0,0.371,0.71,0.372,0.71c0,0,1.553,2.781,1.553,2.781
		C469.934,286.156,470.007,286.214,470.092,286.241z"/>
	<path fill="#7F7F7F" d="M465.626,274.863c0.088,0.091,0.217,0.131,0.341,0.106c0.124-0.025,0.228-0.11,0.275-0.228
		c0.157-0.39,0.167-0.798,0.03-1.212c-0.391-1.184-1.954-2.516-4.403-3.75c-2.955-1.489-4.94-1.689-5.897-0.594
		c-0.088,0.101-0.116,0.242-0.072,0.369c0.044,0.127,0.153,0.221,0.285,0.246c1.404,0.264,2.93,0.808,4.536,1.617
		C462.733,272.431,464.383,273.59,465.626,274.863z M456.372,269.076L456.372,269.076c-0.015-0.003-0.032-0.009-0.048-0.012
		C456.341,269.067,456.356,269.071,456.372,269.076z"/>
	<path fill="#898989" d="M432.335,327.94c-5.18-2.61-10.583-3.619-13.765-2.569c-1.123,0.371-1.901,0.973-2.314,1.792l-1.986,3.941
		c-0.07,0.139-0.039,0.303,0.066,0.418c0.105,0.115,0.278,0.149,0.423,0.092l0.583-0.23c3.242-1.069,8.72-0.055,13.955,2.583
		c5.677,2.861,9.815,6.896,10.543,10.281c0.034,0.156,0.161,0.273,0.319,0.293c0.158,0.02,0.311-0.061,0.383-0.203l1.985-3.939
		C444.149,337.179,439.577,331.589,432.335,327.94z"/>
	<path fill="#FFFFFF" d="M416.676,331.33c-0.184,0.028-0.32,0.187-0.319,0.373c0.021,3.481,3.358,7.234,8.928,10.041
		c0.732,0.369,1.453,0.695,2.162,0.983l-1.703-10.03C422.367,331.46,419.132,330.956,416.676,331.33z"/>
	<path fill="#C5C6C6" d="M429.185,334.191c-1.147-0.578-2.302-1.078-3.441-1.494l1.703,10.03c1.629,0.661,3.182,1.1,4.621,1.324
		l-0.999-8.825C430.457,334.864,429.83,334.516,429.185,334.191z"/>
	<path fill="#DADBDB" d="M432.067,344.051c2.756,0.429,5.087,0.055,6.682-1.159c0.148-0.113,0.191-0.318,0.1-0.48
		c-1.36-2.447-4.254-5.094-7.781-7.186L432.067,344.051z"/>
	<path fill="#FFFFFF" d="M433.347,325.931c-6.896-3.475-13.86-3.978-15.855-1.145c-0.095,0.135-0.082,0.313,0.019,0.444
		c0.102,0.13,0.285,0.175,0.439,0.115l0.541-0.211c3.242-1.069,8.72-0.055,13.955,2.583c5.644,2.844,9.778,6.862,10.533,10.237
		c0.037,0.165,0.179,0.284,0.347,0.293c0.169,0.008,0.322-0.097,0.375-0.257C444.79,334.701,440.241,329.404,433.347,325.931z"/>
	<path fill="#DADBDB" d="M439.066,343.147c-0.111-0.033-0.23-0.013-0.324,0.054c-2.927,2.087-7.873,1.637-13.569-1.234
		c-5.527-2.785-8.915-6.546-9.064-10.06c-0.005-0.114-0.065-0.218-0.157-0.285c-0.092-0.067-0.213-0.088-0.323-0.059l-0.209,0.058
		c-1.123,0.371-1.901,0.973-2.314,1.792c-1.623,3.221,2.949,8.811,10.191,12.46c5.18,2.61,10.583,3.619,13.765,2.569
		c1.123-0.371,1.901-0.973,2.314-1.792c0.459-0.911,0.436-2.015-0.068-3.284C439.266,343.261,439.176,343.179,439.066,343.147z"/>
	<path fill="#898989" d="M421.101,320.348c-1.123,0.371-1.901,0.973-2.314,1.792l-0.353,0.701c-0.072,0.142-0.046,0.314,0.064,0.429
		c0.11,0.115,0.281,0.147,0.425,0.082c3.153-1.429,8.859-0.504,14.536,2.356c5.677,2.86,9.816,6.896,10.543,10.281
		c0.033,0.156,0.161,0.273,0.319,0.293c0.158,0.02,0.311-0.061,0.383-0.203l0.353-0.701c1.623-3.221-2.949-8.811-10.191-12.461
		C429.686,320.307,424.283,319.298,421.101,320.348z"/>
	<path fill="#898989" d="M467.601,278.405c-0.317-0.961-0.863-1.903-1.625-2.797c-0.034-0.035-0.051-0.052-0.051-0.052
		c-1.587-1.826-3.763-3.133-5.315-3.915c-0.977-0.492-1.909-0.883-2.793-1.173c-4.613-1.512-7.956-0.272-9.96,3.706l-22.701,45.05
		c-0.056,0.111-0.053,0.242,0.007,0.351c0.06,0.109,0.17,0.18,0.294,0.192c1.616,0.149,3.351,0.525,5.157,1.117
		c1.465,0.48,2.933,1.089,4.365,1.811c3.618,1.823,6.671,4.156,8.599,6.57c0.08,0.1,0.205,0.152,0.332,0.139
		c0.127-0.013,0.238-0.09,0.296-0.204l22.851-45.35C467.995,281.985,468.179,280.153,467.601,278.405z"/>
	<path fill="#BFC0C0" d="M471.594,288.349c-0.174,0.095-0.244,0.308-0.161,0.487l1.162,2.506c0.047,0.101,0.136,0.176,0.242,0.204
		c0.107,0.029,0.221,0.009,0.313-0.054l2.392-1.667c0.092-0.064,0.151-0.166,0.16-0.278c0.009-0.112-0.033-0.222-0.114-0.3
		l-1.842-1.772c-0.118-0.113-0.296-0.137-0.44-0.059L471.594,288.349z"/>
	<path fill="#FFFFFF" d="M462.389,269.068c-0.136,0.054-0.228,0.182-0.235,0.328c-0.008,0.146,0.07,0.284,0.199,0.352
		c0.643,0.339,1.226,0.687,1.733,1.036c0.079,0.054,0.176,0.076,0.27,0.061c1.618-0.254,2.996,0.366,4.097,1.845
		c1.826,2.453,1.97,5.949,2.11,9.329c0.082,1.991,0.167,4.05,0.66,5.73c0.032,0.109,0.112,0.197,0.216,0.241
		c0.105,0.043,0.224,0.037,0.323-0.017l1.354-0.739c0.15-0.082,0.226-0.254,0.184-0.42c-0.344-1.374-0.417-3.16-0.488-4.887
		c-0.146-3.549-0.312-7.57-2.553-10.58C467.551,267.71,464.166,268.358,462.389,269.068z"/>
</g>
<rect x="431.256" y="305.527" transform="matrix(0.4513 -0.8924 0.8924 0.4513 -32.0368 565.283)" fill="#FFFFFF" width="24.834" height="6.333"/>
<polygon fill="#88C027" points="440.109,313.223 441.598,313.971 443.863,309.462 442.358,308.744 "/>
<polygon fill="#FFFFFF" points="444.448,304.581 442.358,308.744 443.863,309.462 445.938,305.329 "/>
<g>
	<path fill="#040000" d="M446.111,296.249l-11.025,21.879c-0.124,0.247-0.025,0.547,0.222,0.672l5.135,2.588
		c0.118,0.06,0.256,0.07,0.382,0.028c0.126-0.041,0.23-0.131,0.29-0.25l11.025-21.879c0.06-0.118,0.07-0.256,0.028-0.382
		c-0.042-0.126-0.131-0.23-0.25-0.29l-5.135-2.587C446.535,295.903,446.235,296.003,446.111,296.249z M451.021,299.283
		c-0.423,0.839-10.153,20.147-10.575,20.986c-0.674-0.34-3.568-1.798-4.242-2.138c0.423-0.839,10.153-20.147,10.575-20.986
		C447.452,297.485,450.347,298.944,451.021,299.283z"/>
	<path fill="#040000" d="M442.197,314.293l2.112-4.192c0.011-0.016,0.026-0.027,0.035-0.045c0.009-0.018,0.009-0.037,0.015-0.055
		l2.112-4.192c0.124-0.247,0.025-0.547-0.222-0.671l-1.563-0.788c-0.118-0.06-0.256-0.07-0.382-0.028
		c-0.126,0.041-0.23,0.131-0.29,0.25l-4.275,8.484c-0.124,0.246-0.025,0.547,0.222,0.671l1.563,0.788
		c0.118,0.06,0.256,0.07,0.382,0.028C442.034,314.502,442.138,314.412,442.197,314.293z M445.354,305.806
		c-0.174,0.346-0.906,1.799-1.688,3.349l-0.67-0.337c0.781-1.55,1.513-3.003,1.687-3.349
		C444.958,305.606,445.081,305.668,445.354,305.806z M440.859,313.059c0.174-0.345,0.906-1.799,1.687-3.349l0.67,0.337
		c-0.781,1.55-1.513,3.003-1.688,3.349C441.256,313.259,441.133,313.197,440.859,313.059z"/>
	<path fill="#040000" d="M461.373,268.851c-3.215-1.457-5.304-1.316-6.215,0.422c-0.707-0.063-1.383-0.06-2.02,0.03
		c-2.52,0.356-4.485,1.9-5.839,4.589l-22.895,45.435c-1.32-0.035-2.509,0.101-3.498,0.427c-1.286,0.424-2.187,1.132-2.676,2.104
		l-1.516,3.008c-0.001,0.002-0.003,0.004-0.004,0.006c0,0.001,0,0.001-0.001,0.002l-4.161,8.259
		c-1.808,3.589,2.79,9.431,10.468,13.3c5.321,2.681,10.911,3.703,14.242,2.604c1.286-0.424,2.187-1.132,2.676-2.104l3.15-6.251l0,0
		l0,0l1.012-2.009l0,0c0.001-0.001,0.001-0.002,0.001-0.002l1.518-3.012c0.801-1.589,0.343-3.621-1.08-5.727l23.079-45.802
		c0.078-0.155,0.142-0.309,0.21-0.464c0.626,1.197,1.763,3.267,2.818,4.677c-0.027,0.107-0.023,0.224,0.027,0.331l1.61,3.471
		c0.062,0.134,0.18,0.234,0.323,0.272c0.143,0.039,0.295,0.012,0.416-0.073l3.38-2.356c0.123-0.086,0.201-0.221,0.212-0.371
		c0.012-0.149-0.044-0.296-0.152-0.4l-2.522-2.427c-0.352-1.307-0.426-3.047-0.502-4.888c-0.151-3.642-0.32-7.766-2.677-10.931
		C467.977,267.235,464.128,267.413,461.373,268.851z M467.952,273.063c1.363,1.83,1.728,4.359,1.889,6.972
		c-0.58-0.958-1.318-2.062-2.113-2.949c-0.004-0.004-0.009-0.006-0.013-0.009c-0.303-0.593-0.675-1.148-1.096-1.667l0.123-0.244
		c0.292-0.58,0.334-1.196,0.124-1.833c-0.22-0.667-0.703-1.294-1.317-1.867C466.458,271.612,467.265,272.14,467.952,273.063z
		 M468.281,282.391c0.235-0.868,0.318-1.728,0.242-2.576c0.642,0.988,1.159,1.928,1.424,2.435c0.052,1.263,0.111,2.484,0.261,3.629
		c-0.491-0.812-1.015-1.749-1.542-2.761c0-0.001-0.372-0.711-0.372-0.711C468.291,282.401,468.285,282.397,468.281,282.391z
		 M460.891,271.083c-1.66-0.836-3.205-1.382-4.633-1.653c1.026-1.167,3.481-0.304,5.443,0.684c2.325,1.171,3.861,2.459,4.215,3.533
		c0.112,0.338,0.1,0.651-0.022,0.954C464.395,273.067,462.51,271.899,460.891,271.083z M440.207,344.17
		c-0.729-3.393-4.816-7.552-10.741-10.537c-5.32-2.681-10.91-3.703-14.241-2.604c-0.219,0.072-0.423,0.156-0.619,0.245l1.986-3.941
		l0,0c0.366-0.727,1.071-1.266,2.096-1.605c3.092-1.02,8.383-0.02,13.478,2.548c6.938,3.496,11.529,8.972,10.025,11.957
		L440.207,344.17z M429.016,334.526c4.493,2.264,7.999,5.357,9.506,8.068c-2.673,2.036-7.544,1.599-13.068-1.184
		c-5.478-2.76-8.702-6.366-8.721-9.708C419.888,331.22,424.526,332.264,429.016,334.526z M432.616,327.382
		c-5.32-2.681-10.91-3.703-14.241-2.604c-0.202,0.067-0.392,0.143-0.575,0.224c1.848-2.625,8.702-2.1,15.379,1.264
		c6.676,3.364,11.175,8.559,10.167,11.606C442.589,334.487,438.513,330.353,432.616,327.382z M436.945,348.087
		c-3.092,1.02-8.383,0.02-13.479-2.548c-6.938-3.496-11.529-8.972-10.025-11.957c0.366-0.727,1.072-1.266,2.096-1.605
		c0.063-0.021,0.132-0.036,0.197-0.055c0.155,3.663,3.562,7.502,9.27,10.379c5.855,2.951,10.911,3.376,13.956,1.204
		c0.445,1.121,0.5,2.145,0.082,2.976C438.675,347.209,437.97,347.749,436.945,348.087z M444.723,335.208l-0.353,0.701
		c-0.729-3.393-4.816-7.552-10.741-10.537c-5.924-2.985-11.698-3.796-14.86-2.363l0.353-0.701c0.366-0.727,1.072-1.266,2.096-1.605
		c3.092-1.02,8.383-0.02,13.478,2.548C441.635,326.748,446.227,332.223,444.723,335.208z M443.87,329.029
		c-1.889-2.365-4.929-4.759-8.723-6.671c-1.469-0.74-2.959-1.354-4.417-1.832c-1.834-0.601-3.615-0.984-5.24-1.134l22.701-45.05
		c1.198-2.378,2.91-3.741,5.086-4.048c1.982-0.281,4.392,0.286,7.164,1.682c1.703,0.858,3.719,2.121,5.173,3.79
		c0.022,0.032,0.047,0.059,0.077,0.086c0.68,0.799,1.23,1.688,1.555,2.672c0.545,1.651,0.369,3.386-0.524,5.156L443.87,329.029z
		 M475.328,289.517c-0.603,0.42-1.801,1.255-2.392,1.667c-0.306-0.659-0.913-1.967-1.163-2.506c0.479-0.261,1.321-0.72,1.712-0.934
		C473.829,288.074,474.802,289.011,475.328,289.517z M469.957,271.57c2.172,2.917,2.335,6.878,2.48,10.372
		c0.076,1.837,0.151,3.571,0.499,4.963l-1.354,0.739c-0.475-1.619-0.56-3.576-0.645-5.64c-0.142-3.437-0.288-6.992-2.183-9.538
		c-1.466-1.968-3.196-2.189-4.455-1.991c-0.578-0.397-1.189-0.752-1.771-1.058C464.226,268.738,467.406,268.143,469.957,271.57z"/>
</g>
</svg>
