<?xml version="1.0" encoding="utf-8"?>
<!-- Generator: Adobe Illustrator 17.1.0, SVG Export Plug-In . SVG Version: 6.00 Build 0)  -->
<!DOCTYPE svg PUBLIC "-//W3C//DTD SVG 1.1//EN" "http://www.w3.org/Graphics/SVG/1.1/DTD/svg11.dtd">
<svg version="1.1" id="Ebene_1" xmlns="http://www.w3.org/2000/svg" xmlns:xlink="http://www.w3.org/1999/xlink" x="0px" y="0px"
	 width="100px" height="100px" viewBox="0 0 100 100" enable-background="new 0 0 100 100" xml:space="preserve">
<circle fill="#B2B2B2" cx="50" cy="50" r="50"/>
<g>
	<path fill="#CDCBCD" d="M64.9,30c-4.6-0.1-9.3,0.4-13.8,1.2c-3.9,0.7-7.8,1.8-11.4,3.6c-1.8,0.9-3.6,1.9-5.1,3.1
		c-2,1.5-3.5,3.4-5.3,5.1c-3.3,3.3-6.7,6.5-10.5,9.2c-1.3,1-2.7,2-4.2,2.8c-0.5,0.3-1.2-0.1-1.2,0.6c0,0.8,0,1.5,0,2.3
		c0,2.9,0,5.8,0,8.7c0,4.6,0,9.1,0,13.7c7.7,0,15.4,0,23.1,0c12.2,0,24.5,0,36.7,0c2.8,0,5.6,0,8.4,0c-0.1-10-0.2-20-0.3-30
		c0-1.8,0-3.5-0.1-5.3c0-0.9-1-1.3-1.6-1.9c-4.3-3.9-8.7-7.8-13-11.7C66,31,65.4,30.5,64.9,30z"/>
	<path fill="#6A6969" d="M57.1,20.2c0.5-1.2,0.9-2.4,1.4-3.7c0.5-1.1,1.5-4.1,3.2-3.5c1,0.3,1.6,1.7,2.1,2.5
		c0.6,0.9,1.2,1.9,1.9,2.7c1.7,2.1,3.4-2.5,5-2.7c0.6-0.1,1.2,0.5,1.6,0.8c1,0.7,1.9,1.5,2.7,2.4c0.4,0.5,1.3,1.2,1.2,1.8
		c0,0.6,0,1.1-0.1,1.7c-0.1,1.5-0.1,3.1-0.2,4.6c0,0.8,0.2,1-0.6,1c-2.2,0-4.4,0-6.6,0c-1.1,0-2.2,0-3.2,0c-0.2,0-1.2,0.1-1.4,0
		C61.9,25.3,59.5,22.7,57.1,20.2z"/>
	<path fill="#888184" d="M34.4,21.9c1.3-0.9,2.6-2,3.7-3.1c0.9-0.9,1.5-2,2.2-3c0.8-1.1,1.6-2.2,2.3-3.4c1.2-1.8,2.1-3.7,4.3-4.4
		c1-0.3,2,0.2,3,0.3c0.6,0.1,0.9-0.2,1.5,0.1c1.8,1,2.5,3.1,3.3,4.8c0.8,1.7,1.7,3.4,2.6,5.1c1.3,2.5,3.4,4.8,5.4,6.8
		c0.6,0.6,1.3,1.2,2,1.8c0.1,0.1,0.8,0.4,0.8,0.5c0,0.4,0.1,0.7,0.1,1.1c0,0.3,0.3,1.1,0,1.3c-0.4,0.4-0.9,0.6-1.4,0.9
		c-1.4,0.9-2.9,1.7-4.4,2.5c-0.5,0.3-1,0.5-1.5,0.7c-0.9,0.4-2,0-2.6,1c-0.3,0.6-0.2,1.4-0.6,1.9c-0.4,0.5-1.3,0.4-1.8,0.3
		c-1.3-0.1-2.5-0.4-3.7-0.9c-3.2-1.2-6.3-2.8-9.3-4.3c-1.3-0.6-2.5-1.2-3.8-1.9c-0.4-0.2-1-0.3-1-0.8C35.1,26.9,34.7,24.4,34.4,21.9
		z"/>
	<path fill="#666464" d="M34.3,27.9c0.7-1.1,1.4-2.2,2.1-3.3c1-1.4,2.2-3.6,4-4.1c1.7-0.4,2.7,1.7,3.5,2.8c1,1.5,2,2.9,3,4.4
		c1.1,1.6,2.2,3.1,3.1,4.8c1.4,2.5,2.8,5.1,4.2,7.6c0.1,0.1,0.9,1.5,0.8,1.5c-1,0.6-2.6,0.6-3.7,0.7c-2.7,0.2-5.4,0.2-8.1,0.2
		c-0.7,0-1.7,0.3-2-0.4c-2.2-4.7-4.5-9.3-6.7-14C34.4,28.2,34.3,28,34.3,27.9z"/>
	<path fill="#B0B195" d="M27.8,63c-0.8,0.6-1.5,1.4-1.9,2.3c-0.5,1.1-0.7,2.3-1.5,3.3c-0.9,1.2-1.8,0.2-3,0.7
		c-0.9,0.4-1.1,1.6-1.3,2.5c-0.2,0.7-1.4,2-0.4,2.4c0.9,0.4,2.4,0.1,3.3-0.1c1.5-0.3,2.6,0,4,0.7c1.2,0.6,2.6,1.3,3.9,0.9
		c1.1-0.3,2.1-1.1,3.1-1.6c0.9-0.4,1.5,0,2.4,0c1-0.1,0.3-1.4,0.1-1.9c-0.2-0.4-0.4-0.8-0.9-1.1c-0.5-0.3-1.1-0.4-1.4-0.9
		c-0.6-0.7-0.7-1.7-0.8-2.6c-0.2-1.1-0.5-2.1-0.9-3.2c-0.3-0.9-0.8-2.2-1.8-2.6C29.7,61.5,28.5,62.5,27.8,63
		C26.8,63.8,28.6,62.4,27.8,63z"/>
	<path fill="#9E9D8A" d="M38.1,62.2c-0.5,0.4-0.6,1.1-1,1.5c-0.5,0.5-1.3,0.8-1.7,1.4c-0.7,1.2,0.3,2.9,1.7,2.4
		c0.5-0.2,0.9-0.5,1.4-0.6c0.7-0.2,1.4,0.2,2.1,0.4c0.8,0.3,1.5,0.3,2.4,0.2c0.7-0.1,1.5-0.4,2.1,0.3c0.4,0.4,0.9,0.4,1.2-0.2
		c0.3-0.6,0.1-1.4-0.2-1.9c-0.3-0.5-0.7-0.9-1.2-1.1c-0.5-0.2-1.2-0.2-1.7-0.5c-0.6-0.4-0.9-1.1-1.3-1.6c-0.3-0.3-0.7-0.6-1.1-0.9
		c-0.9-0.5-2-0.6-2.3,0.6"/>
	<path fill="#B9B8A2" d="M41.9,41.4c0,0.5,0.1,1,0.3,1.5c0.3,0.6,0.7,1,1,1.6c0.3,0.8,0.6,1.7,0.7,2.5c0,1-0.5,1.2-1.5,1.3
		c-1.1,0.1-1.9,0.5-2.6-0.8c-0.5-1-0.8-2.1-1.2-3.1c-0.5-1.3-0.8-2.6-0.3-3.9c0.3-0.7,1.1-1.9,2-1.8C41.4,39,41.8,40.6,41.9,41.4
		C42,42.1,41.7,39.8,41.9,41.4z"/>
	<path fill="#B9B899" d="M39,42.2c0.7,1.6,1,3.4,1.4,5c0.3,1.7,1.5,3.1,2.1,4.7c0.3,0.8,0.9,1.6,0.9,2.5c0,0.6-0.1,0.6-0.7,0.6
		c-0.4-0.1-0.8,0.1-1.2,0.2C41,55.5,40,56,39.4,55.9c-0.8-0.1-1.4-0.9-1.9-1.5c-2.2-2.7-3.2-5.9-2.6-9.4c0.2-0.9,0.4-1.8,0.7-2.7
		c0.2-0.7,0.5-1.7,1.1-2.2C37.7,39.3,38.8,41.5,39,42.2C39.6,43.5,38.5,41,39,42.2z"/>
	<path fill="#D3D3D4" d="M40.6,38.5c0.4,0.6,0.8,1.2,1.2,1.8c1-1.6,2.1-3.2,3.1-4.8C43.5,36.5,42,37.5,40.6,38.5z"/>
	<path fill="#FFFFFF" d="M41.6,39.8c1-1.4,2.1-2.8,3.1-4.2c0.2-0.3,0.6-1,0.9-1.2c0.7-0.4,1.5-0.7,2.2-1.1c-2,2.7-4.1,5.5-6.1,8.2
		C41.7,41,41.6,40.4,41.6,39.8z"/>
	<path fill="#C7C8C8" d="M35.3,27.8c9.9,0,19.9,0,29.8,0c2.3,0,4.6,0,6.9,0c0.6,0,1.2,0,1.8,0c0.6,0,0.5,0.4,0.7,1
		c0.3,0.8,0.7,1.5,0.5,2.4c-0.3,1.2-0.5,2.4-0.8,3.6c-0.5,2.5-1.1,5-1.6,7.5c-0.1,0.5-1.3,1.2-1.7,1.5c-2.5-4.2-6.4-8-10.7-10.1
		c-3.3-1.6-7.5-2.4-11-1c-3.3,1.3-6.5,3.6-8.9,6.1c-0.7,0.8-1.4,1.6-1.9,2.6c-0.5-0.5-1.5-1.1-1.6-1.9c-0.2-1.3-0.3-2.6-0.5-3.9
		C35.9,33,35.6,30.4,35.3,27.8z"/>
	<g>
		<path fill="#BBBBBA" d="M71.5,43.7c0,0.3,0,1-0.4,1c-0.4,0-0.6,0-0.7-0.4c-0.1-0.3-0.1-0.7-0.1-1.1c0-1.1,0-2.3,0-3.4
			c0-2.9,0-5.8,0-8.8c0-0.5-0.1-2.4,0.8-1.9c0.5,0,0.4,2.1,0.4,2.4c0,3,0,6,0,9C71.5,41.6,71.5,42.7,71.5,43.7z"/>
		<path fill="#BBBBBA" d="M53.1,31.4c0,0.7-1,0.6-1-0.1c0-0.5-0.1-1.2,0-1.7c0-0.7,1-0.6,1,0.1C53.1,30.3,53.1,30.8,53.1,31.4z"/>
		<path fill="#BBBBBA" d="M51.1,31.6c0,0.7-1,0.6-1-0.1c0-0.5-0.1-1.2,0-1.7c0-0.7,1-0.6,1,0.1C51.1,30.5,51.1,31.1,51.1,31.6z"/>
		<path fill="#BBBBBA" d="M55.2,31.5c0,0.7-1,0.6-1-0.1c0-0.5-0.1-1.2,0-1.7c0-0.7,1-0.6,1,0.1C55.2,30.4,55.2,30.9,55.2,31.5z"/>
		<path fill="#BBBBBA" d="M57.3,31.4c0,0.7-1,0.6-1-0.1c0-0.5-0.1-1.2,0-1.7c0-0.7,1-0.6,1,0.1C57.3,30.3,57.3,30.8,57.3,31.4z"/>
		<path fill="#BBBBBA" d="M59.2,32c0,0.4-0.3,0.8-0.7,0.6c-0.4,0-0.3-0.6-0.3-0.9c0-0.6-0.1-1.4,0-2c0-0.4,0.3-0.8,0.7-0.6
			c0.4,0,0.3,0.6,0.3,0.9C59.2,30.7,59.2,31.4,59.2,32z"/>
		<path fill="#BBBBBA" d="M61.3,32.9c0,0.3-0.4,1.3-0.9,0.7c-0.3-0.3-0.2-0.8-0.2-1.2c0-0.9-0.1-1.8,0-2.6c0-0.3,0.4-1.3,0.9-0.7
			c0.3,0.3,0.2,0.8,0.2,1.2C61.3,31.2,61.3,32,61.3,32.9z"/>
		<path fill="#BBBBBA" d="M63.5,34.2c0,0.2,0,1-0.4,1c-0.2,0.1-0.6,0-0.7-0.2c-0.2-0.4-0.1-1-0.1-1.5c0-1.1-0.1-2.3,0-3.4
			c0-0.2,0-1,0.4-1c0.2-0.1,0.6,0,0.7,0.2c0.2,0.4,0.1,1,0.1,1.5C63.5,32,63.5,33.1,63.5,34.2z"/>
		<path fill="#BBBBBA" d="M65.5,36.2c0,1.4-1.2,1.4-1.2,0c0-0.5,0-1,0-1.6c0-1.5-0.1-3,0-4.4c0-1.4,1.2-1.4,1.2,0c0,0.5,0,1,0,1.6
			C65.5,33.2,65.5,34.7,65.5,36.2z"/>
		<path fill="#BBBBBA" d="M67.5,38.1c0,0.4-0.1,1.4-0.8,1c-0.4,0-0.4-0.9-0.4-1.1c0-0.8,0-1.7,0-2.5c0-1.8-0.1-3.5,0-5.3
			c0-0.4,0.1-1.4,0.8-1c0.4,0,0.4,0.9,0.4,1.1c0,0.8,0,1.7,0,2.5C67.5,34.5,67.5,36.3,67.5,38.1z"/>
		<path fill="#BBBBBA" d="M48,31.7c0,0.9,1,0.6,1-0.2c0-0.6,0.1-1.3,0-1.9c0-0.9-1-0.6-1,0.2C48,30.4,48,31,48,31.7z"/>
		<path fill="#BBBBBA" d="M46,32.4c0,0.4,0.2,0.9,0.7,0.7c0.4,0,0.3-0.7,0.3-1c0-0.8,0.1-1.7,0-2.5c0-0.4-0.2-0.9-0.7-0.7
			c-0.4,0-0.3,0.7-0.3,1C46,30.8,46,31.6,46,32.4z"/>
		<path fill="#BBBBBA" d="M43.9,33.5c0,0.3,0.3,1.4,0.8,0.9c0.3-0.3,0.2-1,0.2-1.5c0-1,0.1-2.1,0-3.1c0-0.3-0.3-1.4-0.8-0.9
			c-0.3,0.3-0.2,1-0.2,1.5C43.9,31.4,43.9,32.4,43.9,33.5z"/>
		<path fill="#BBBBBA" d="M41.8,35c0,0.2,0,1.2,0.4,1.2c0.3,0.2,0.6-0.1,0.7-0.4c0.2-0.6,0.1-1.2,0.1-1.8c0-1.3,0-2.6,0-3.9
			c0-0.2,0-1.2-0.4-1.2c-0.3-0.2-0.6,0.1-0.7,0.4c-0.2,0.6-0.1,1.2-0.1,1.8C41.8,32.4,41.8,33.7,41.8,35z"/>
		<path fill="#BBBBBA" d="M39.8,37.3c0,0.5,0,1.2,0.6,1.2c0.6,0,0.6-0.7,0.6-1.2c0-0.7,0-1.3,0-2c0-1.7,0.1-3.4,0-5.1
			c0-0.5,0-1.2-0.6-1.2c-0.6,0-0.6,0.7-0.6,1.2c0,0.7,0,1.3,0,2C39.8,33.9,39.8,35.6,39.8,37.3z"/>
		<path fill="#BBBBBA" d="M37.7,39.5c0,0.4,0.1,1.6,0.8,1.2c0.4,0,0.4-1.1,0.4-1.4c0-1,0-2,0-2.9c0-2.1,0.1-4.1,0-6.2
			c0-0.4-0.1-1.6-0.8-1.2c-0.4,0-0.4,1.1-0.4,1.4c0,1,0,2,0,2.9C37.7,35.4,37.7,37.4,37.7,39.5z"/>
		<path fill="#BBBBBA" d="M69.5,40.5c0,0.2,0,1-0.4,1c-0.2,0.1-0.6,0-0.7-0.2c-0.2-0.4-0.1-0.8-0.1-1.2c0-1.1,0-2.3,0-3.4
			c0-2.2-0.1-4.4,0-6.5c0-0.2,0-1,0.4-1c0.2-0.1,0.6,0,0.7,0.2c0.2,0.4,0.1,0.8,0.1,1.2c0,1.1,0,2.3,0,3.4
			C69.5,36.1,69.5,38.3,69.5,40.5z"/>
		<path fill="#BBBBBA" d="M73.5,34.2c0,0.2,0,1-0.4,1c-0.2,0.1-0.6,0-0.7-0.2c-0.2-0.4-0.1-1-0.1-1.5c0-1.1-0.1-2.3,0-3.4
			c0-0.2,0-1,0.4-1c0.2-0.1,0.6,0,0.7,0.2c0.2,0.4,0.1,1,0.1,1.5C73.5,32,73.5,33.1,73.5,34.2z"/>
		<path fill="#BBBBBA" d="M36.8,34.2c0,0.2,0,1-0.4,1c-0.2,0.1-0.6,0-0.7-0.2c-0.2-0.4-0.1-1-0.1-1.5c0-1.1-0.1-2.3,0-3.4
			c0-0.2,0-1,0.4-1c0.2-0.1,0.6,0,0.7,0.2c0.2,0.4,0.1,1,0.1,1.5C36.8,32,36.8,33.1,36.8,34.2z"/>
	</g>
	<path fill="#FDFEFF" d="M35.5,27.4c9.9,0,19.9,0,29.8,0c2.2,0,4.4,0,6.5,0c0.5,0,1,0,1.4,0c0.4,0,0.1,1.1,0.1,1.1
		c-3.9,0-7.9,0-11.8,0c-6,0-12,0-18,0c-2.1,0-4.2,0-6.3,0c-0.5,0-1,0-1.5,0C35.2,28.5,35.5,27.9,35.5,27.4z"/>
	<path fill="#898989" d="M21.5,25c0.1-0.7,0.6-0.9,1.2-1.1c-1.8-0.1-1.3-3.4,0.1-2.4c-0.2-0.7-0.4-1.6,0-2.3
		c0.4-0.7,0.8-0.5,1.4-0.2c0-0.6,0.1-1.6,0.8-0.8c-0.1-0.9-0.3-2.8,1-2.9c1.2-0.1,1.2,2,1.1,2.7c0.5-1.1,1.6-0.3,1.3,0.7
		c0.4-1.4,1,0.5,1.2,1c0-0.5,0.7-2.5,1.4-1.5c0.4,0.6,0.6,1.7,0.5,2.4c0.5-0.7,1,0,1.1,0.6c-0.1-0.9,0.9-1.6,1.7-1.5
		c1.5,0.1,1,2.1,0.7,3c0.3-0.3,1.2-0.7,1.2,0c0.1,1-0.9,1.5-1.7,1.9c0.5,0.6,0.3,1.6,0.1,2.3c0.5-1.3,0.8,0.5,0.9,1
		c0.3,1.2,0.8,2.8,0.2,4c0.4-0.1,0.5-0.9,0.8-0.2c0.3,0.6,0.3,1.5,0.2,2.2c0.8-0.1,1,1.7,1,2.2c0.1,1.2-0.5,2.4-1.3,3.3
		c1-0.7,0.2,1.8-0.2,2.1c0.3-0.2,0.6,0,0.8,0.3c0.3,0.5,0,0.9-0.3,1.4c1-0.2-0.1,2.1-0.3,2.4c0.7,0,0.3,1,0.2,1.4
		c-0.1,0.3-0.3,0.5-0.6,0.7c-0.5,0.3-0.5,0.7-0.7,1.2c-0.1,0-0.2-0.1-0.3-0.2c-0.3,2-2.5,4.1-4.3,4.9c-2,0.9-4.1,0.2-5.5-1.3
		c-1.5-1.7-2.5-3.8-3.8-5.6c-0.7-0.9-1.3-2-2.2-2.7c-0.3-0.2-1-0.1-1.2-0.4c-0.1-0.2-0.4-0.8-0.1-1c-0.9,0.6-0.8-1.3-0.1-1.7
		c-0.5,0.3-0.8-0.7-0.8-0.9c-0.2-0.7,0-1.3,0.5-1.8c-0.8-0.1-1-1.3-0.8-1.9c0.3-1.1,1.3-0.9,2.2-0.8c-0.8-0.4,0-1.3,0.7-1.2
		c-0.4-0.6-0.1-1.5,0.7-1.6c-0.6-0.5-0.9-2-0.4-2.6c-0.1,0.1-0.6-0.9-0.6-1c-0.2-0.6-0.5-1.1-0.5-1.8c0-0.6,0.3-2,1.2-1.9
		c0.7,0.1,1.2,0.8,1.7,1.2"/>
	<path fill="#FFFFFF" d="M37.7,40.6c0.2,0.4,0.5,0.8,0.7,1.2c3.6-5.4,9.6-9.5,16.3-9.3c4.2,0.1,7.6,2.8,10.5,5.7
		c1.9,2,3.7,4.1,5.3,6.3c0.1-0.1,0.9-0.9,0.9-1c-0.1-0.2-0.3-0.4-0.4-0.6c-0.8-1.1-1.7-2.2-2.5-3.2c-2.3-2.7-5.1-5.8-8.6-7.1
		c-4.4-1.6-9.9-1.8-14,0.6C42.8,35.1,40,37.8,37.7,40.6z"/>
	<path fill="#949481" d="M16.8,46.3c-1.1,0.4-0.9,2.3-1.3,3.2c-0.6,1.1-1.6,1.8-2.3,2.8c-0.8,1.1-0.9,2.5-0.4,3.7
		c0.6,1.5,2,0.8,3.1,0.6c0.7-0.1,1.5,0,2.2,0.3c0.6,0.3,1.1,1.2,1.9,1.1c0.9-0.1,1.4-0.7,2.4-0.5c0.9,0.2,1.9,0.5,2.7,0.9
		c0.7,0.3,1.2,0.7,1.8,0.1c0.7-0.7,0.8-1.6,0.7-2.5c-0.1-0.8-0.3-1.5-0.1-2.3c0.2-0.5,0.4-1.4,0.9-1.6c-0.7,0-1-2.9-1.1-3.4
		c-0.4-2.1-1.2-4.7-2.4-6.5c-0.7-1-1.6-1.3-2.8-1.3c-0.9,0-2.3,0.1-3,0.7c-0.8,0.7-0.4,2.1-0.5,3.1C18.5,45.9,17.8,45.9,16.8,46.3
		C15.9,46.6,17.3,46.1,16.8,46.3z"/>
	<path fill="#B9B8A1" d="M30,50.4c-0.6,0.6-1.3,1.1-1.8,1.7c-0.6,0.9-0.9,2.3-0.9,3.3c0.1,1.2,0.1,2.2-0.6,3.3
		c-0.5,0.8-1.3,1.6-1.3,2.5c0,0.6,0.5,0.7,1,0.7c0.8,0,1.6,0.2,2.4,0c1.3-0.3,2.3,0,3.7,0.1c1.3,0.1,2.5-0.5,3.8-0.4
		c0.5,0,1.1,0.3,1.6,0.2c0.4-0.1,0.6-0.4,1-0.6c0.4-0.2,0.9,0.1,1.3,0c0.5-0.2,0.5-0.9,0.4-1.3c-0.4-2.5-1.5-4.7-2.6-6.9
		c-0.6-1.3-1.7-5.8-3.8-5.3c-0.4,0.1-0.8,0.3-1.1,0.6c-0.3,0.3-0.4,0.9-0.9,1c-0.4,0.1-0.7-0.2-1-0.3C30.8,49.3,30.4,50.1,30,50.4
		C29.2,51.2,30.4,50.1,30,50.4z"/>
	<path fill="#9E9D8A" d="M72.5,41.4c-1,1.9-2.1,3.6-3.3,5.4c-1.4,2.1-0.6,4.2-1,6.4c-0.3,1.8-2,3-2,4.9c0,2.3,1,4.3,1.9,6.3
		c1.2-0.6,1.8,0,1.7,1.3c0,1.2,0.1,2.2,1.3,2.7c0.8,0.4,1.5,0.6,2.2,1.3c0.8,1,1.6,2.1,3,2.2c0.6,0,0.9-0.1,1.2,0.5
		c0.2,0.4,0.3,0.9,0.3,1.3c0,1.1-0.2,2.2-0.5,3.2c-0.3,1-1.1,2.3,0,3c0.5,0.3,1.1,0.2,1.6,0.2c0.8,0,1.5,0.4,2.2,0.7
		c1.1,0.4,2,0.1,3-0.5c0.2-0.1,0.6-0.2,0.6-0.5c0-0.4,0-0.9,0-1.3c0-2.2,0-4.3-0.1-6.5c0-6-0.1-12.1-0.1-18.1c0-2.4,0-4.8,0-7.2
		c0-0.2,0.3-2.7,0.1-2.8c-0.4-0.3-1.4-0.3-1.9-0.4c-1.4-0.3-2.8-0.6-4.2-0.9C76.6,42.2,74.5,41.8,72.5,41.4z"/>
	<path fill="#828282" d="M86.9,54.1c0.4,0.4,0.8-1.5,0.8-1.7c0.2-1.2-0.9-1.9-0.8-3.1c0-0.4,0.5-1.4,0.1-1.6c-0.4-0.2-0.8-0.4-1-0.8
		c-0.2-0.3-0.3-0.6-0.3-0.9c-0.1-0.5,0.2-0.4,0.4-0.8c0.3-0.7-0.1-1.6-0.1-2.3c-0.1-0.7,0.3-1.3,0.1-2c-0.2-0.5-0.7-1-0.6-1.6
		c0.1-0.2,0.3-0.3,0.5-0.4c0.3-0.2,0.4-0.5,0.4-0.8c0.1-0.8,0.1-1.6-0.2-2.3c-0.2-0.6-0.6-1-0.9-1.5c-0.2-0.3,0.4-1.3,0.4-1.8
		c0-1.4,0.2-3.3-0.4-4.6c1.1,0.7,1.7-1.8,0.7-2c1-0.7,0.8-3.2-0.8-2.9c0.9-0.8,1.2-2.6-0.4-2.8c0.5-0.7,0.2-1.8-0.2-2.5
		c-0.6-1-0.9-0.4-1.1,0.4c-0.2-0.9-0.5-2.1-1.4-2.6c-1.3-0.7-1.5,1.6-1.7,2.4c-0.5-0.4-1.1-1-1.7-0.3c-0.5,0.6-0.5,1.5-0.3,2.1
		c-0.4-1.2-1.4-0.8-1.4,0.3c0-0.7-0.5-1.3-1.1-0.6c-0.7,0.9-0.3,2.1-0.1,3c-0.4-0.4-0.9-1-1.4-0.4c-0.3,0.5-0.4,1.2-0.2,1.7
		c-0.5-0.5-1.1-0.5-1.4,0.3c-0.1,0.3-0.1,0.7,0,1.1c0.1,0.4,0.5,0.7,0.3,1.1c-0.5,1-0.2,1.9,0.3,2.8c0.2,0.4,0.2,0.8,0.4,1.2
		c0.1,0.5,0.5,0.7,0.7,1.1c-0.3-0.5-1,0.2-1.1,0.5c-0.5,0.8,0,1.7,0.1,2.5c0-0.6-1.1,0.4-1.2,0.6c-0.8,0.9-0.3,2.2,0,3.1
		c-1.3-0.1-1.7,2.1-0.9,2.8c0.4,0.3,0.7,0.1,0.6,0.6c-0.1,0.6,0,1.2,0.2,1.8c0.4,0.8,1.2,1.4,2,0.7c0,0.7-0.1,1.8,0.4,2.3
		c0.6,0.6,1.1,0,1.1-0.7c0.2,0.9,0.5,1.7,1.1,2.4c-0.5-0.6-0.9,0.6-1,1c-0.2,0.9,0,2.1,0.3,2.9c0.2,0.5,0.3,0.9,0.3,1.4
		c0,0.6-0.3,1.1-0.2,1.7c0.3,1.2,0.9,1.1,1.6,0.5c0,0.5,0.1,1.3,0.8,0.9c0.5,0.3,1.1-0.3,1.4-0.7c0,0.7-0.3,3.8,1,2.1
		c-0.1,0.8,0,2.9,0.9,3.3c1,0.4,1.2-2,1.2-2.5c0.2,0.6,0.5,1.6,1.2,1.8c0.8,0.2,0.8-1.5,0.8-1.9c0.4,0.4,0.7,0.9,1.1,1.2
		c0.5-0.6,0.5-1.3,0.5-2c0.7,0.8,1.2-0.4,1.2-1C88.1,55.5,87.5,54.8,86.9,54.1C87.4,54.6,87.4,54.6,86.9,54.1z"/>
	<path fill="#FFFFFF" d="M80.1,48.8c0.4,0.8,1.2,1.4,1.9,0.6c0.2,0.6,0.7,2,1.5,2c0.6,0,1.2-1.2,1.2-1.8c0.3,0.9,1,0.9,1.3,0
		c0.3-1-0.2-1.9-0.8-2.6c-0.2,0.4-0.6,1.7-1.3,1.6c-0.7-0.1-1-1.4-1.7-1.2c-0.8,0.2-1.3,0.7-1.8-0.3c-0.3-0.6-0.5-1.6-1.2-0.6
		c-0.2,0.3-0.3,0.6-0.6,0.9c-0.3,0.2-0.7,0.2-1.1,0.3c-0.6,0.2-0.7,1.3-0.3,1.8C78.1,50.2,79.7,49.3,80.1,48.8
		C80.6,49.8,79.7,49.2,80.1,48.8z"/>
	<path fill="#C9CACA" d="M75.4,40.5c-1.3,0.7,1.8,4.6,2,1.4c0.2,1.1,1.1,1.6,1.5,0.3c0.6,0.8,1.1,0.1,1.2-0.6c0.6,1.3,1.4-1,0.7-1.7
		c-0.2,0.7-1.2,1.7-1.8,0.9c-0.4,1.3-1,0.7-1.6,0c-0.6,1.4-1-0.6-0.9-1.1c0,0.5-0.8-0.2-0.9-0.3c-0.4-0.4-0.3-1.1-0.6-1.4
		c-0.5-0.4-0.7,1.1-0.6,1.4C74.3,39.7,74.7,40.7,75.4,40.5C74.1,41.3,74.6,40.7,75.4,40.5z"/>
	<path fill="#A6A6A7" d="M26,29.9c-1,1,0.5,3.5,1.1,2.2c-0.2,0.4-0.1,1.5,0.4,1.6c0.6,0.1,0.9-1.1,1-1.5c0.4,1.2,2,0.7,1.4-0.5
		c0.1,0.3,0.4,1,0.8,0.5c0.4-0.5,0.4-1.3,0.2-1.9c-0.2,0.3-0.2,0.3-0.5,0.4c-0.3,0.1-0.5,0.3-0.8,0.5c-0.6,0.4-1-0.1-1.3-0.5
		c-0.7,1.7-1.2,0.1-1.3-0.9c-0.1-0.9,0.1-2.6-0.7-3.3C24.5,24.9,24.5,31.5,26,29.9C24.9,31,24.4,31.7,26,29.9z"/>
	<path fill="#A6A6A7" d="M30.9,45.1c0.1-0.2,0.1-0.4,0.2-0.6c0.2,0.3,0.5,0.5,0.6,0.8c-0.1-0.7,0.5-2.9,1.6-1.8
		c0.1-0.4,0.4-0.8,0.8-0.9c0.2,0,0.3,0,0.4,0.2c0.2,0.3-0.1,0.3-0.3,0.5c-0.9,0.8-1.3,2.1-1.5,3.3c-0.3-0.1-0.6-0.2-0.9-0.5
		c-0.2,0.4-0.2,1.2-0.6,1.4c-0.5,0.3-1-0.2-1.5-0.1c0.5-0.1-1.1-2-1.2-2.2C28.5,43.6,30.5,43.9,30.9,45.1
		C30.9,44.9,30.6,44,30.9,45.1z"/>
	<g>
		<path fill="#040000" d="M77.3,41.8c0.4,0,0.6-0.3,0.7-0.6c0.4,0.7,1.2,0.5,1.4-0.2c0.1-0.2,0.3-0.8-0.1-0.9
			c-0.3,0-0.3,0.8-0.5,0.9c-0.6,0.3-0.6-0.9-0.9-0.7c-0.3,0.3-0.6,1.6-1,0.4c-0.1-0.2,0-1.7-0.3-1c0,0.8-0.7,0.4-1,0
			c-0.4-0.6-0.8-1.6-0.4-2.2c0.3-0.4,0.9-0.2,1.1-0.5c0.3-0.6-0.9-0.4-0.6-1c0,0,1-0.4,0.4-0.6c-0.5-0.2-0.8-0.9-0.4-1.4
			c0.3-0.3,0.5,0.1,0.7-0.1c0.5-0.3-0.2-0.7-0.5-0.7c-0.9,0.1-0.9,1.6-0.6,2.2c0.2,0.3,0,0.3,0,0.7c0,0.7,0.2,0.4-0.3,0.9
			c-0.8,0.9,0.1,4.5,1.4,3.7C76.5,41.1,76.8,41.8,77.3,41.8C77.5,41.9,76.9,41.8,77.3,41.8z"/>
		<path fill="#040000" d="M76.8,28.1c0.2,0.2,0.4-0.3,0.2-0.5c-0.3-0.3-0.1-0.8,0.1-1c0.5-0.5,0.5,0.8,0.8,0.5
			c0.2-0.2,0-0.5-0.1-0.7c-0.1-0.3-0.1-0.7,0-1.1c0.3-0.9,0.9,0.1,1-0.3c0.1-0.4-0.1-0.7,0.1-1c0.2-0.5,0.4,0.2,0.6,0.2
			c0.4,0,0.4-1.1,0.8-1.1c0.3,0,0.2,0.5,0.5,0.6c0.4,0.1,0.1-0.6,0.1-0.7c-0.5-0.9-1.1-0.2-1.4,0.5c-0.6-0.7-1,0.5-1.1,0.9
			c-0.8-0.4-1.1,1.2-1.1,1.6C76.6,25.7,76.3,27.6,76.8,28.1C76.9,28.2,76.6,27.9,76.8,28.1z M78.6,24.9C78.6,25,78.6,25,78.6,24.9
			C78.6,24.9,78.6,24.9,78.6,24.9z"/>
		<path fill="#040000" d="M79.9,31.6c0,0.1,0.1,0.5,0.3,0.3c0.2-0.2,0.1-0.6,0.3-0.8c0.4-0.4,0.8,0.1,0.8,0.5c0,0.1-0.1,0.6,0.2,0.6
			c0.3,0.1,0.3-0.6,0.4-0.7c0.5-0.7,0.6,0.7,0.9,0.6c0.4-0.1,0-1,0.4-1.2c0.5-0.2,0.7,0.9,1,0.7c0.5-0.3-1.1-2.3-1.6-0.5
			c-0.3-0.3-0.7-0.3-0.9,0.1C81.2,29.6,80.1,30.6,79.9,31.6C79.9,31.7,80.1,30.6,79.9,31.6z"/>
		<path fill="#040000" d="M26.4,26.6c-0.3,0.5-0.4,1-0.3,1.6c0,0.3,0.1,0.6,0.3,0.8c0.3,0.4,0.3,0.2,0.2,0.7
			c-0.1,0.5,0.1,1.1,0.4,1.6c0.1,0.2,0.3,0.4,0.5,0.4c0.1,0.4,0.3,0.7,0.6,0.9c0.5,0.3,1.1-0.1,1.4-0.5c0.1-0.1,0.1-0.5-0.1-0.5
			c-0.2,0-0.4,0.5-0.7,0.6c-0.4,0.1-0.7-0.3-0.8-0.6c0.3-0.5-0.1-1.1-0.4-0.4c-0.7-0.3-0.6-1.6,0-1.9c0.5-0.3-0.1-0.5-0.4-0.4
			c-0.9,0.2-0.7-1.6-0.2-1.9c0.2-0.1,0.4-0.1,0.4-0.4c0-0.1-0.1-0.4-0.2-0.3c-1,0.3-1-1-0.7-1.6c0.1-0.3,0.3-0.5,0.7-0.6
			c0.3,0,0.8,0.5,1,0.2c0.3-0.9-1.3-0.8-1.7-0.3C25.7,24.4,25.4,26.1,26.4,26.6C26.3,26.7,26.2,26.4,26.4,26.6z"/>
		<path fill="#040000" d="M29.7,27.8c0.2,0.4,0.4-0.2,0.3-0.5c0.3-0.6,0.9-0.4,1,0.2c0,0.1-0.2,1.5,0.2,1.2c0.2-0.1,0.2-0.6,0.2-0.8
			c0.2-0.3,0.6-0.3,0.7,0.1c0.2,0.9,0.1,0.5,0.6,0c0.5-0.4,0.8,0.6,0.8,0.9c0,0.2,0.2,0.4,0.3,0.2c0.2-0.3,0-0.8-0.1-1.1
			c-0.2-0.6-0.8-1-1.3-0.4c-0.2-0.5-0.7-0.7-1.1-0.4C30.8,25.6,28.9,26.8,29.7,27.8z"/>
		<path fill="#040000" d="M22.5,38c0.3-0.2,0-1.4,0.2-1.7c0.1-0.2,0.3-0.6,0.6-0.5c0.2,0.1,0.1,0.7,0.4,0.6c0.4,0,0.2-1.1,0.6-1.2
			c0.3-0.1,1,1.2,1,0.4c0-0.5,0.2-0.7,0.6-0.9c0.4-0.2,0.3-0.2,0.5,0.2c0.1,0.2,0.4,0.2,0.4-0.1c0-0.3-0.4-0.9-0.7-0.8
			c-0.5,0.2-1,0.4-1.2,0.9c-0.5-0.7-1.1-0.2-1.3,0.5c-0.5-0.6-1,0.2-1.2,0.6C22.3,36.2,22,38.3,22.5,38C22.6,37.9,22.4,38.1,22.5,38
			z"/>
		<path fill="#040000" d="M28,38.7c-0.5,0.6-0.2,2,0.1,0.8c0.1-0.4,0.5-0.6,0.9-0.4c0.4,0.2,0.4,0.6,0.4,1c0,0,0,1.4,0.3,0.9
			c0.2-0.2,0.1-1.8,0.7-1c0.3,0.4,0.4,1.8,0.8,0.8c0.4-0.8,1-1.6,1.7-0.6c0.1,0.1,0.3,1,0.5,0.7c0.3-0.4-0.2-1.1-0.5-1.3
			c-0.9-0.9-1.6-0.2-2,0.7c-0.1-0.4-0.7-1.5-1.3-0.9C29.5,38.6,28.7,38,28,38.7C27.8,38.9,28.3,38.4,28,38.7z"/>
		<path fill="#040000" d="M26.9,21.8c0.3-0.1-0.1-1.4,0.6-0.8c0.3,0.3,0.4,0.8,0.4,1.2c-0.1,0.7,0.4,0,0.6,0c0.3,0,0.8,1.5,1,0.8
			c0.1-0.4-0.3-1-0.6-1.2c-0.2-0.1-0.4-0.3-0.6-0.1c0-0.3-0.1-0.6-0.3-0.8c-0.2-0.4-0.9-0.8-1.2-0.3C26.6,20.7,26.5,22,26.9,21.8z"
			/>
		<path fill="#040000" d="M33.3,43.7c-0.6-0.2-0.9,0.5-1.1,0.9C32.1,45,32,45.3,32,45.6c-0.3-0.1-0.6,0.3-0.8,0.5
			c-0.1-0.3-0.4-1.5-0.9-0.9c-0.3-1-1.6-1.2-1.6,0.1c0,0.5,0.5,0.7,0.4,0.2c-0.1-0.5,0.3-0.8,0.7-0.4c0.3,0.4,0.1,0.8,0.2,1.1
			c0.2,0.5,0.4-0.5,0.5-0.6c0.2-0.2,0.3,0.6,0.3,0.7c0.1,0.5,0.1,0.8,0.5,0.3c0.2-0.3,0.6-0.7,0.7-0.2c0,0.3,0.4,0.6,0.4,0.1
			c0-0.3-0.1-2.7,0.8-2.3c0.2,0.1,0.8,0.4,0.5-0.2c-0.1-0.3,0.2-1.1,0.6-0.7c0.2,0.2,0.5-0.4,0-0.6C33.7,42.5,33.3,43.3,33.3,43.7
			C33,43.6,33.3,43.5,33.3,43.7z"/>
		<path fill="#040000" d="M87.3,53.8c0.9-1.1,0.8-2.7,0-3.8c-0.3-0.4-0.4-0.2-0.3-0.6c0.2-0.4,0.3-0.7,0.4-1.1c0-0.3,0-0.6-0.1-0.9
			c-0.2-0.3-0.7-0.3-0.8-0.6c-0.2-0.4-0.4-0.8-0.2-1.2c0.2-0.8,0.4-2-0.2-2.8c-0.2-0.4,0.4-1.7,0.4-2.3c0-0.4-0.1-0.7-0.3-1
			c0.4-0.2,0.6-0.6,0.7-1c0.4-1.2,0.2-3.8-1-4.5c0.4-0.7,0.5-1.6,0.4-2.4c-0.1-0.3-0.2-0.7-0.4-1c0.3-0.2,0.4-0.5,0.4-0.8
			c0-0.4-0.2-1-0.3-1.4c0.8-0.1,1-1.1,0.9-1.7c0-0.3-0.1-0.6-0.4-0.8c0.2-0.4,0.4-0.9,0.4-1.3c0.1-0.6,0-1.8-0.8-1.9
			c0.2-0.4,0.4-3.1-0.7-2.6c0.1-1,0-2-0.6-2.9c-0.6-1-0.9-0.5-1.3,0.4c-0.2-0.8-0.6-2.1-1.6-2.3c-0.9-0.2-1.3,1.2-1.3,1.8
			c-1.3-1-2.1,0.9-2.2,1.9c-0.5-0.6-1.2-0.6-1.4,0.2c-0.3-0.7-0.9-0.4-1.1,0.1c-1.1-1.5-2.4-3.2-4-4.1c-1.1-0.6-1.6,0.1-2.3,0.9
			c-0.7,0.8-2.2,3.4-3.4,2.1c-1-1.1-3.5-7-5.6-5.2c-1.5,1.3-2.2,3.7-2.8,5.5c-1.3-2.3-2.3-4.7-3.4-7c-0.6-1.1-1.2-2.5-2.3-3.2
			C51,7.8,50,8,49.1,7.9c-0.8-0.1-1.6-0.3-2.4-0.1C46,8.1,45.3,8.5,44.8,9c-1.5,1.4-2.5,3.3-3.6,5c-1.5,2.5-3.3,4.9-5.4,6.9
			c0-0.7-0.3-1.7-1.1-1.9c-0.9-0.2-1.6,0.7-1.9,1.4c-0.2-0.3-0.6-0.7-0.9-0.4c0-0.6-0.1-1.5-0.6-1.9c-0.7-0.5-1.3,0.6-1.5,1.1
			c-0.1-0.4-0.4-1.4-1-1c-0.1-0.7-0.6-1.5-1.4-0.8c0-0.7-0.4-2.5-1.5-2c-0.8,0.4-0.8,1.6-0.8,2.3c-0.6-0.3-0.8,0.5-0.8,0.9
			c-1.2-0.8-1.8,1.7-1.6,2.5c-1.1-0.4-1.5,0.7-1.2,1.6c0.1,0.3,0.2,0.6,0.4,0.8c0.3,0.4,0.1,0.2-0.1,0.5c-0.3,0.5-0.3,1.1-0.3,1.6
			c-0.9-1-2-1.4-2.5,0.1c-0.3,1,0,2.6,0.7,3.4c0.3,0.3-0.1,0.8-0.1,1.3c0,0.3,0,0.6,0.1,0.8c0.1,0.4,0.5,0.5,0.1,0.8
			c-0.2,0.2-0.4,0.4-0.5,0.7c-0.1,0.4,0.1,0.6-0.3,0.7c-0.6,0.2-0.9,0.7-0.6,1.3c-0.8-0.1-1.4,0.1-1.7,0.9c-0.2,0.7,0.1,1.4,0.7,1.9
			c-0.4,0.4-0.5,1.1-0.4,1.6c0,0.3,0.1,0.6,0.3,0.8c0.2,0.4,0.3,0.1,0.1,0.6c-0.2,0.5-0.2,1.2,0.3,1.5c0.4,0.2,0.2,0.2,0.3,0.6
			c0.1,0.3,0.3,0.6,0.6,0.5c-0.1,0.8,0,1.6-0.3,2.3c-0.6,0.2-1.2,0-1.7,0.4c-1,1-0.5,2.6-1.4,3.6c-0.6,0.7-1.5,1.1-2,1.9
			c-0.7,1.2-0.8,3-0.8,4.4c0.1,2,3.9,0.9,5.3,1.3c0.6,0.2,1,0.7,1.7,0.9c0.6,0.2,1.4,0,2-0.2c0.8-0.2,1.6-0.4,2.4,0
			c0.8,0.3,1.4,0.9,2.2,1.1c-0.5,0.7-1.3,2-0.7,2.9c0.3,0.4,0.5,0.3,0.9,0.2c0.5-0.1,1.1,0.3,1.6,0.4c-1.5,1.1-2.2,2.7-2.9,4.5
			c-0.4,1-0.5,2-1.7,1.9c-1.4,0-2.6,0.4-3,1.9c-0.2,0.7-0.3,1.3-0.8,1.8c-0.5,0.5-0.4,1.1,0.1,1.5c1.1,0.8,2.9,0.3,4.1,0.3
			c1.6,0,3.1,0.6,4.7,1.2c1.5,0.6,2.8,0.4,4.3-0.2c0.6-0.2,1.1-0.5,1.7-0.8c0.4-0.2,0.8-0.4,1.2-0.4c0.4,0,0.9,0.2,1.3,0.1
			c-0.1,0.8,0.4,0.4,0.4-0.2c0-0.7-0.2-1.3-0.5-1.9c-0.2-0.5-0.5-1-1-1.3c-0.6-0.4-1.2-0.4-1.5-1.1c-0.8-2.4-0.7-5.4-2.6-7.3
			c0.4-0.1,0.9,0.1,1.4,0.1c0.4,0,0.9-0.1,1.3-0.1c1.2-0.1,2.5-0.5,3.6-0.2c-0.3,0.5-0.6,1.2-1.2,1.5c-0.4,0.3-0.9,0.6-1.3,1
			c-0.8,1-0.3,2.9,1,3.2c0.7,0.1,1.2-0.3,1.7-0.6c0.6-0.4,1.2-0.2,1.8-0.1c0.9,0.1,1.7,0.3,2.6,0.4c0.7,0.1,1.3,0,1.9,0
			c0.6,0.1,0.8,1,1.5,0.6c0.7-0.4,0.8-1.2,0.7-1.8c-0.2-0.8-0.6-1.6-1.4-1.8c-0.7-0.3-1.6,0-2.1-0.6c-0.5-0.5-0.8-1.2-1.4-1.7
			c-0.3-0.2-0.5-0.4-0.8-0.6c0.1-0.2,0.1-0.5,0.1-0.8c0-1.6-0.5-3.4-1.1-4.9c0.9-0.1,1.6-0.5,2.5-0.5c0.4,0,1.3,0.2,1.3-0.5
			c0-0.6-0.3-1.2-0.5-1.8c-0.3-0.7-0.5-1.4-0.7-2c-0.3-0.9-0.8-1.6-1.3-2.4c0.8,0,1.6-0.1,2.3-0.5c0.9-0.4,0.6-1.4,0.4-2.2
			c-0.3-1.2-0.7-2.2-1.4-3.3c3.1,0.1,6.3,0.2,9.4,0c0.9-0.1,2.4,0,3.1-0.6c0.4-0.3-0.1-0.9-0.3-1.2c-0.6-1.1-1.2-2.2-1.9-3.4
			c0.8,0.1,2.1,0.3,2.5-0.6c0.2-0.5,0.2-1.1,0.3-1.7c0.1-0.7,0.7-0.8,1.3-0.8c0.3-0.1,0.6-0.1,0.9-0.3c0.2-0.1,0.6-0.2,0.6-0.4
			c0.3,0.1,0.5,0.2,0.8,0.3c1.2,0.5,2.2,1.2,3.3,2c3.1,2.2,5.7,5.2,7.8,8.3c0.2,0.3-1.6,2.7-1.7,3.1c-0.4,1.1-0.4,2-0.3,3.1
			c0.1,1.1-0.1,2.1-0.4,3.1c-0.5,1.3-1.7,2.3-1.8,3.7c-0.2,1.6,0.8,3.5,1.3,5c0.1,0.5,0.3,0.9,0.4,1.4c0.1,0.2,0.1,0.6,0.2,0.8
			c0.1,0.4,0.8-0.1,1-0.2c1.1-0.2,1,1.1,0.9,1.8c-0.1,1.1,0.1,2.2,1.2,2.6c0.5,0.2,1,0.2,1.4,0.5c0.5,0.4,0.9,0.9,1.2,1.4
			c0.8,1,1.4,1.3,2.7,1.3c2.5,0,1.1,3.9,0.7,5.1c-0.3,0.8-0.9,2.3,0.1,3c0.3,0.2,1.7,0.6,1.6-0.1c0-0.6-1.8,0.1-1.7-1.2
			c0-1.1,0.8-2.1,1-3.2c0.2-1,0.3-2.1-0.1-3.1c-0.5-1.3-1.4-1-2.5-1.1c-1.1-0.2-1.8-1.7-2.6-2.4c-0.8-0.7-2.1-0.6-2.6-1.6
			c-0.4-1,0.4-2.2-0.3-3.2c-0.4-0.7-1.2-0.4-1.8-0.2c-0.3-1.1-0.7-2.1-1-3.2c-0.3-0.8-0.6-1.5-0.8-2.4c-0.3-1.5,0.7-2.3,1.3-3.6
			c0.6-1.1,0.9-2.4,0.9-3.7c0-0.7-0.2-1.4-0.1-2c0.1-1.2,0.8-2.3,1.4-3.2c0.7-1,1.3-2.1,1.9-3.1c0.2,1.3,1,1.9,2.1,1.2
			c0,0.7,0.1,1.4,0.5,1.9c0.5,0.6,1.1,0.6,1.4-0.1c0.1,0.4,0.1,0.7,0.3,1c0.1,0.4,0.4,0.5,0,0.7c-0.4,0.3-0.6,1-0.5,1.5
			c0,0.2,0.1,0.4,0.3,0.5c0.3,0.2,0.1,0.3-0.1,0.6c-0.2,0.5-0.2,1.1,0,1.6c0.1,0.2,0.2,0.4,0.4,0.5c-0.1,0.3-0.1,0.6-0.2,0.8
			c0,0.6,0,1.2,0.3,1.7c0.3,0.8,0.9,0.6,1.6,0.3c-0.2,1.4,0.9,1.7,1.9,0.9c-0.1,1.2,0,2.6,1.4,1.7c0.1,0.8,0,1.9,0.5,2.6
			c0.7,1.2,1.4-1,1.6-1.4c0.1,0.6,0.3,1.5,1.2,1.3c0.7-0.2,1-1.2,1.2-1.8c0.3,0.4,0.9,0.9,1.2,0.2c0.2-0.5,0.1-0.8,0.7-1.1
			C88.7,57.1,87.7,54.6,87.3,53.8C87.6,53.4,87.6,54.5,87.3,53.8z M86.5,47.1C86.5,47.2,86.5,47,86.5,47.1
			C86.5,47.1,86.5,47.1,86.5,47.1z M86.2,46.3C86.2,46.2,86.2,46.6,86.2,46.3C86.2,46.3,86.2,46.3,86.2,46.3z M86.1,47.2
			C86.1,47.2,86.1,46.9,86.1,47.2C86.1,47.1,86.1,47.2,86.1,47.2z M61.3,13.2c0.8,0.2,1.4,1.1,1.9,1.7c0.7,0.9,1.2,2,1.9,2.9
			c0.4,0.6,1,1.6,1.9,1.3c1-0.3,1.8-1.5,2.4-2.3c0.4-0.4,1-1.5,1.7-1.3c0.6,0.2,1.2,0.7,1.7,1.1c0.7,0.7,1.3,1.4,1.9,2.1
			c0.3,0.4,0.6,0.7,0.8,1.1c-0.1,0.5-0.2,1-0.2,1.4c-0.5-0.4-1-0.4-1.3,0.3c-0.2,0.6,0,1.3,0.3,1.9c-0.7-0.3-1.4-0.3-1.8,0.5
			c-0.2,0.3-0.2,0.7-0.1,1.1c0.1,0.4,0.6,0.9,0.3,1.1c-0.3,0.4-0.1,0.7-0.6,0.7c-0.4,0-0.8,0-1.1,0c-1.8,0-3.7,0-5.5,0
			c-0.3,0-1.1-0.5-1.4-0.7c-0.8-0.5-1.5-1.2-2.1-1.9c-1.3-1.5-2.8-3-4-4.7c-0.3-0.4-0.4-0.5-0.3-0.9c0.1-0.3,0.2-0.7,0.4-1
			c0.3-0.7,0.6-1.4,0.9-2.1C59.5,14.9,60.3,13,61.3,13.2C62.3,13.5,60,12.9,61.3,13.2z M73.3,33.7c-0.2,0-0.5,0.1-0.6,0.3
			c0-1.4,0-2.7,0-4.1c0-0.4,0.4-0.8,0.6-0.3c0.1,0.3,0,0.8,0,1.1C73.3,31.8,72.9,32.8,73.3,33.7C73.1,33.8,73.1,33.4,73.3,33.7z
			 M72.1,37.5c-0.1,0.1-0.3,0.1-0.4,0.2c0-2,0-4,0-5.9c0-0.7,0.1-1.5,0-2.2c-0.2-1-1.2-1-1.4,0c0,0.2,0,0.4,0,0.6
			c0,3.9,0,7.7,0,11.6c-0.3-0.4-0.6-0.7-0.6-1.2c0-0.3,0-0.7,0-1c0-1.2,0-2.4,0-3.6c0-2,0-4,0-6c0-0.5-0.5-1.5-1.1-0.9
			c-0.3,0.3-0.4,0.7-0.4,1.2c0,1,0,2,0,3c0,2,0,4,0,6c-0.6-0.7-0.6-0.7-0.6-1.5c0-0.9,0-1.9,0-2.8c0-1.6,0-3.3,0-4.9
			c0-1.4-1.4-1.3-1.4,0c0,0.7,0,1.4,0,2.1c0,1.6,0,3.3,0,4.9c-0.6-0.6-0.6-0.5-0.6-1.3c0-0.8,0-1.5,0-2.3c0-1.2,0.1-2.4,0-3.6
			c0-1.3-1.4-1.3-1.4,0c0,0.5,0,1,0,1.5c0,1.3,0,2.5,0,3.8c-0.6-0.5-0.6-0.4-0.6-1c0-0.6,0-1.2,0-1.7c0-0.9,0.1-1.9,0-2.8
			c-0.2-1-1.2-1-1.4,0c-0.1,0.4,0,0.8,0,1.2c0,1,0,2,0,2.9c-0.4-0.3-0.6-0.2-0.6-0.7c0-0.5,0-0.9,0-1.4c0-0.7,0.2-1.6-0.1-2.2
			c-0.2-0.5-0.8-0.7-1.1-0.2c-0.2,0.3-0.2,0.7-0.2,1.1c0,0.8,0,1.5,0,2.3c-0.3-0.1-0.6-0.1-0.6-0.5c0-0.3,0-0.7,0-1
			c0-0.6,0.1-1.4-0.2-1.9C58.7,28.3,58,29.4,58,30c0,0.6,0,1.2,0,1.8c-0.8-0.3-0.6-0.3-0.6-1.1c0-0.5,0.1-1.2-0.4-1.6
			c-1.1-1-1.1,1.8-1.1,2.2c-0.8-0.1-0.6-0.2-0.6-0.9c0-0.5,0-1-0.4-1.3c-1.1-0.9-1.1,1.6-1.1,2c-0.2,0-0.4,0-0.6,0
			c0-0.5,0.2-2.6-0.9-2.2c-0.5,0.2-0.5,0.8-0.5,1.3c0,0.2,0,0.5,0,0.7c0,0.4-0.2,0.3-0.6,0.4c0-0.5,0.1-3.2-1-2.2
			c-0.4,0.4-0.4,1-0.4,1.5c0,0.8,0.2,0.9-0.6,1.1c0-0.4,0.1-3.7-1.1-2.6c-0.5,0.4-0.4,1.2-0.4,1.7c0,0.4,0,0.7,0,1.1
			c0,0.4-0.2,0.4-0.6,0.6c0-0.7,0-1.4,0-2c0-0.6-0.5-2.2-1.2-1.2c-0.4,0.5-0.2,1.5-0.2,2.1c0,0.4,0,0.9,0,1.3c0,0.6,0,0.5-0.6,0.8
			c0-0.9,0-1.7,0-2.6c0-0.3,0-0.6,0-0.9c0-0.8-0.9-1.5-1.3-0.5c-0.3,0.8-0.1,1.9-0.1,2.7c0,0.5,0,1.1,0,1.6c0,0.7,0,0.6-0.6,1.1
			c0-1.2,0-2.3,0-3.5c0-0.5,0-0.9,0-1.4c0-1.3-1.4-1.3-1.4,0c-0.1,1.1,0,2.2,0,3.2c0,0.7,0,1.4,0,2.1c0,0.8,0,0.7-0.6,1.3
			c0-1.5,0-3,0-4.5c0-0.7,0-1.4,0-2.1c0-1.3-1.4-1.4-1.4-0.1c0,1.5,0,2.9,0,4.4c0,0.9,0,1.9,0,2.8c0,0.9,0,0.9-0.6,1.7
			c0-2.7,0-5.5,0-8.2c0-0.5,0.1-1-0.2-1.4c-0.7-1-1.2,0.4-1.2,1c0,1.4,0,2.8,0,4.2c-0.1-0.3-0.3-0.6-0.7-0.8c-0.1-0.2,0-0.7,0-0.8
			c0-0.5,0-1,0-1.5c0-0.5,0-0.9,0-1.4c0-0.3-0.1-0.7-0.4-0.9c-0.4-0.3-0.6,0.2-0.8-0.2c9.9,0,19.9,0,29.8,0c2.6,0,5.1,0,7.7,0
			c0,0.1,0,0.1,0,0.2c-1.3-1-1,3.1-1,3.5c0,0.6,0,1.3,0,1.9c0,0.4-0.3,0.7-0.3,1.1C71.7,36.1,71.7,36.9,72.1,37.5
			C72,37.6,71.9,37.2,72.1,37.5z M70.9,39.8c0.1,0.7,0.5,1,0.5,1.6c0,0.6,0.1,1.2-0.2,1.7c-0.5-0.8-0.5-1-0.5-1.8c0-1.2,0-2.4,0-3.6
			c0-2.4,0-4.8,0-7.3c0-0.2,0-0.4,0-0.5c0-0.6,0.6-0.6,0.6,0c0,0.9,0,1.9,0,2.8c0,1.4,0,2.7,0,4.1c0,0.4,0,0.8,0,1.2
			C71.3,38.6,70.8,39.1,70.9,39.8C70.9,40.3,70.9,39.7,70.9,39.8z M69.3,40.5c-0.3-0.4-0.6-0.6-0.6-1.1c0-0.4,0-0.7,0-1.1
			c0-1.2,0-2.4,0-3.6c0-1.2,0-2.4,0-3.6c0-0.1-0.1-2.2,0.5-1.7c0.3,0.3,0.2,1.4,0.2,1.8c0,1.2,0,2.5,0,3.7
			C69.3,36.8,69.3,38.6,69.3,40.5z M67.3,38.1c-0.7-0.7-0.6-0.7-0.6-1.7c0-1,0-1.9,0-2.9c0-0.9,0-1.9,0-2.8c0-0.2-0.1-1.7,0.5-1.3
			c0.3,0.3,0.2,1.1,0.2,1.5c0,0.9,0,1.9,0,2.8C67.3,35.2,67.3,36.6,67.3,38.1z M65.2,36.1c-0.6-0.5-0.6-0.5-0.6-1.2
			c0-0.7,0-1.4,0-2.1c0-0.7,0-1.4,0-2.1c0-0.2,0-1.5,0.5-1.1c0.3,0.2,0.2,0.8,0.2,1.1c0,0.7,0,1.4,0,2.1
			C65.2,33.8,65.2,34.9,65.2,36.1z M63.2,34.4c-0.4-0.3-0.7-0.3-0.7-0.8c0-0.4,0-0.8,0-1.3c0-0.8,0-1.7,0-2.5c0-0.6,0.6-0.6,0.6,0
			c0,0.3,0,0.6,0,1C63.2,32.1,63.2,33.3,63.2,34.4C63,34.3,63.2,33.3,63.2,34.4z M61.1,33.1c-0.4-0.2-0.6-0.2-0.6-0.6
			c0-0.4,0-0.8,0-1.2c0-0.3-0.2-1.9,0.3-1.9C61.4,29.4,61.1,32.7,61.1,33.1z M58.4,31.9c0-0.2-0.1-2.9,0.5-2.4
			c0.5,0.4,0.2,2.1,0.2,2.6C58.9,32,58.6,32,58.4,31.9z M57,31.5c-0.7-0.2-0.6-0.1-0.6-0.8c0-0.3-0.1-1,0.2-1.2
			C57.1,29,57,31.3,57,31.5z M55,31.1c-0.6-0.1-0.6,0.1-0.6-0.5c0-0.3-0.1-0.9,0.2-1.1C55.1,29,55,30.9,55,31.1z M52.9,31.1
			c-0.2,0-0.4,0-0.6,0c0-0.3-0.2-1.7,0.3-1.7C53.1,29.4,52.9,30.8,52.9,31.1z M50.9,31.3c-0.2,0-0.4,0.1-0.6,0.1
			c0-0.4-0.1-1.1,0-1.5c0-0.6,0.6-0.6,0.6,0C50.9,29.9,50.9,31.2,50.9,31.3C50.7,31.3,50.9,30.8,50.9,31.3z M48.9,31.8
			c-0.2,0.1-0.4,0.1-0.6,0.2c0-0.5-0.3-2.1,0.2-2.5C48.9,29,48.9,31.5,48.9,31.8z M46.8,32.5c-0.2,0.1-0.4,0.2-0.7,0.3
			c0-0.5,0-1,0-1.6c0-0.4-0.2-1.5,0.2-1.8c0.6-0.5,0.5,1.1,0.5,1.3C46.8,31.4,46.7,32,46.8,32.5C46.6,32.6,46.8,32.5,46.8,32.5z
			 M44.8,33.6c-0.2,0.1-0.4,0.3-0.6,0.4c0-0.7,0-1.4,0-2.1c0-0.7-0.2-1.7,0-2.3c0.2-0.6,0.6,0,0.6,0.4c0,0.4,0,0.8,0,1.2
			C44.8,32,44.8,32.8,44.8,33.6z M42.7,35.1c-0.2,0.2-0.4,0.4-0.6,0.5c0-1,0-2,0-3c0-0.8-0.3-2.2,0-3c0.3-0.7,0.6,0.2,0.6,0.6
			c0,0.6,0,1.2,0,1.8C42.7,33,42.7,34,42.7,35.1z M40.7,36.9c-0.2,0.2-0.4,0.5-0.6,0.7c0-1.3,0-2.6,0-3.8c0-0.9,0-1.7,0-2.6
			c0-0.4-0.1-0.9,0-1.3c0-0.6,0.6-0.6,0.6,0c0,0.1,0,0.3,0,0.4c0,0.8,0,1.6,0,2.4C40.7,34.1,40.7,35.5,40.7,36.9z M38,40.2
			c0-1.7,0-3.5,0-5.2c0-1.2,0-2.4,0-3.6c0-0.4-0.2-1.5,0.2-1.8c0.6-0.5,0.5,1.3,0.5,1.5c0,1.2,0,2.3,0,3.5c0,1.2,0,2.4,0,3.6
			C38.6,39.1,38.6,39.2,38,40.2z M37.2,39.6c0-0.3-0.1-0.6-0.3-0.8c0.3-0.4,0.5-0.9,0.7-1.4c0,0.8,0,1.7,0,2.5
			C37.5,39.9,37.4,39.7,37.2,39.6C37.2,39.6,37.3,39.6,37.2,39.6z M35.7,26.9c-0.1-0.4-0.3-0.4,0-0.8c0.2-0.3,0.4-0.6,0.6-0.9
			c0.5-0.6,0.9-1.3,1.4-1.9c0.6-0.8,1.8-2.4,2.9-2.4c1,0,2,1.5,2.6,2.1c1,1.2,1.9,2.5,2.7,3.9C42.5,26.9,39.1,26.9,35.7,26.9z
			 M36.2,30.1c0-0.2-0.2-0.7,0.1-0.7c0.3,0,0.3,0.3,0.3,0.5c0,0.4,0,0.8,0,1.1c-0.2-0.1-0.4-0.1-0.6,0
			C36.1,30.7,36.2,30.4,36.2,30.1z M73.7,30.3c0.2,0.3,0.4,0.5,0.7,0.7c-0.2,0.1-0.5,0.3-0.7,0.4C73.7,31,73.7,30.7,73.7,30.3z
			 M35.7,28.2c0.3-0.8,0-0.7,0.8-0.7c0.7,0,1.5,0,2.2,0c2.6,0,5.1,0,7.7,0c6.3,0,12.7,0,19,0c1.7,0,3.5,0,5.2,0c0.5,0,1,0,1.4,0
			c0.7,0,0.2,0.2,0.8,0.7c-10,0-19.9,0-29.9,0C40.6,28.2,38.1,28.2,35.7,28.2z M41,15.3c0.8-1.3,1.5-2.5,2.3-3.8
			c0.9-1.3,2-2.8,3.7-3.1c0.8-0.2,1.6,0.1,2.4,0.1c0.5,0,1,0,1.5,0.1c1,0.2,1.6,1.1,2.1,2c1.4,2.3,2.4,4.8,3.6,7.2
			c0.9,1.7,1.9,3.2,3.2,4.6c1.4,1.6,2.6,3.5,4.5,4.5c-5,0-9.9,0-14.9,0c-0.9,0-1.8,0-2.7,0c-0.6,0-1.1-1.3-1.4-1.7
			c-1-1.5-2-3-3.4-4.1c-1.3-1.1-2.2-0.6-3.3,0.5c-0.9,0.9-1.6,1.8-2.3,2.8c-0.3,0.5-0.9,1.7-1.4,1.8c0-0.6-0.1-1.1-0.3-1.7
			c0.6-0.1,1.4-0.5,1.8-1c0.4-0.7,0.1-1.9-0.8-1.3c0.2-0.8,1-1.3,1.6-1.9C38.6,18.7,39.9,17.1,41,15.3z M35.5,22.8
			c0.7-0.5,0.9,0.1,0.3,0.6c-0.3,0.3-1.2,0.8-1.5,0.4C34.8,23.6,35,23,35.5,22.8z M18.6,42.7c-0.5,0.4-0.1-0.7-0.1-0.8
			c-0.1-0.4-0.8,0.1-0.8-0.5c0-0.2,0.1-0.4,0.2-0.6c0.2-0.2,0.5-0.1,0.6-0.3c0.3-0.6-0.7-0.4-0.9-0.7c-0.3-0.4-0.3-1.3,0.1-1.7
			c0.2-0.2,0.7,0.1,0.7-0.4c0-0.3-0.4-0.4-0.6-0.5c-0.5-0.3-0.8-0.8-0.5-1.4c0.4-0.8,1.5,0.1,1.9-0.4c0.3-0.4-0.3-0.7-0.4-1
			C18.7,34.1,19.8,34,20,34c0.6,0-0.3-0.9-0.3-0.8c0-0.4,0.5-0.8,0.8-0.9c0.2-0.1,0.7-0.6,0.2-0.6c-0.6,0-0.8-0.8-0.8-1.2
			c0-0.6,0.3-0.8,0.7-1.1c0.3,0,1.4,0.6,1.2-0.1c-0.1-0.4-1-0.5-1.4-0.4c-0.7,0.2-0.9-0.4-1.1-1c-0.2-0.5-0.5-2.7,0.6-2.6
			c0.5,0,0.9,0.5,1.2,0.8c0.2,0.2,0.3,0.4,0.5,0.6c0.2,0.3,0.4-0.2,0.3-0.4c-0.2-0.5-0.3-2.5,0.7-2.1c0.3,0,0.3-0.5,0-0.6
			c-0.4,0-0.8-0.7-0.9-1c-0.1-0.4-0.2-1.2,0.4-1c0.2,0,0.8,0.4,0.9,0.1c0.1-0.3-0.2-0.9-0.1-1.3c0.1-0.4,0.3-1.2,0.8-1.3
			c0.4-0.1,0.4,0.4,0.7,0.4c0.4,0,0.1-0.8,0.2-0.9c0.1-0.8,1,0.5,0.9-0.3c-0.1-0.6-0.2-1.7,0.3-2.3c0.8-0.7,1.1,1,1.1,1.4
			c0,0-0.3,1.6,0.1,1.3c0.3-0.2,0.2-1.3,0.9-1.1c0.3,0.1,0.3,0.5,0.3,0.7c0,0,0.1,1.1,0.3,0.5c0.4-0.9,0.8,0.9,0.8,1.2
			c0,0.3,0.4,0.3,0.4,0c0-0.4,0.2-0.8,0.5-1.2c0.7-1,1.1,0.3,1.1,1c0,0.2-0.2,1.1,0.1,1.3c0.4,0.2,0.3-1,0.8-0.6
			c0.4,0.3,0.2,0.6,0.2,1c0,0.5,0.4,0.2,0.5,0c0.1-0.3,0-0.5,0.1-0.8c0.2-0.4,0.5-0.9,1-1.1c1-0.4,1.4,0.9,1.3,1.6
			c0,0.5-0.2,0.9-0.4,1.3c-0.3,0.2-0.9,0.5-0.9,0.9c-0.2-0.2-0.5-0.2-0.8,0c-0.2,0.2-0.4,0.4-0.6,0.7c-0.1,0.2,0.1,0.7,0.3,0.4
			c0.8-1.4,1.4,0.4,1.5,1.2c0,0.4,0.1,0.9,0,1.2c-0.1,0.3,0.2,0.6,0.4,0.2c0.1-0.3,0.2-0.4,0.4-0.1c0.4,0.6,0,1.3-0.2,1.9
			c0,0.1-0.1,0.2-0.1,0.4c0,0.7,0.5-0.1,0.5-0.1c0.4,0.3,0.4,1,0.3,1.4c0,0.4-0.8,1.7-0.5,2c0.2,0.2,0.7-0.8,0.9-0.8
			c0.5-0.2,0.4,1.1,0.4,1.3c0,0.2,0,0.3,0,0.5c0,0.4-0.1,0.2-0.3,0.5c-0.2,0.3-0.1,0.4-0.4,0.4c-0.3,0-0.5,0.4-0.6,0.7
			c-0.4-0.9-1.5-0.6-1.6,0.3c0,0.1,0.1,1.2,0.4,0.7c0.1-0.3-0.1-1.1,0.6-1C35,35.1,35,35.6,35,36c0,0.6,0.4,0.6,0.4,0
			c0-0.5,0.5-1.9,0.6-0.7c0,0.1,0.2,0.4,0.3,0.1c0.1-0.2,0-0.5,0-0.7c0-0.3,0.1-0.7,0.5-0.6c0.4,0.1,0.6,0.8,0.6,1.2
			c0.2,1.1-0.3,2.2-0.8,3.2c-0.1,0.2-0.5,0.5-0.5,0.8c0,0.7,0.5-0.1,0.6-0.1c0.9,0.3-1.1,1.9-0.5,2.2c0.2,0.1,0.4-0.2,0.6-0.1
			c0.2,0.1,0.3,0.4,0.3,0.6c-0.1,0.4-0.6,0.3-0.6,0.7c0,0.4,0.3,0.3,0.5,0.1c0.1,0.5-0.1,1.3-0.4,1.7c-0.1,0.1-0.2,0.3-0.2,0.5
			c0.1,0.3,0.4,0.1,0.4,0.3c0.2,0.6-0.5,1.2-0.9,1.4c-0.5,0.3-0.5,0.4-0.6,1c-0.8-0.5-1.4-0.1-2,0.5c-0.3,0.3-0.6,0.6-0.8,0.9
			c-0.3,0.3-0.7-0.2-1-0.2c-0.8-0.1-1.2,0.4-1.6,1c-0.5,0.7-1.1,1-1.6,1.6c-0.4-0.4-0.4-1-0.4-1.5c-0.1-0.9-0.4-1.8-0.7-2.6
			c-0.4-1.3-0.8-2.6-1.2-3.8c-0.3-0.8-0.6-1.6-1.2-2.2c-0.6-0.7-1.4-0.7-2.3-0.7c-0.8,0-1.7,0-2.5,0.1c-0.4,0-0.7,0.2-0.9,0.5
			C18.8,41.6,18.8,42.5,18.6,42.7z M23.9,57.4c-1.3-0.5-2.5,0.1-3.8,0.3c-0.6,0.1-1-0.2-1.5-0.5c-0.6-0.4-1.3-0.6-2-0.6
			c-1.3,0-4,0.7-3.9-1.3c0.1-1,0.1-2.5,0.7-3.4c0.5-0.7,1.3-1.1,1.9-1.8c0.8-0.9,0.5-2.2,1.1-3.2c0.2-0.5,0.6-0.6,1.1-0.6
			c0.9,0,1.1-0.4,1.2-1.2c0.1-1-0.1-2.6,0.6-3.5c0.4-0.5,1.7-0.3,2.4-0.3c0.9-0.1,2-0.2,2.7,0.5c0.7,0.8,1.1,1.9,1.4,2.9
			c0.5,1.6,1.4,3.6,1.6,5.2c0,0.3,0.1,0.6,0.1,0.9c0,0.3,0.1,0.6,0.2,0.8c0.2,0.4,0.1,0.4-0.1,0.8c-0.7,1.4-0.3,2.8-0.5,4.2
			c0,0.3-0.5,1.8-0.8,1.7C25.5,58.4,24.7,57.7,23.9,57.4C23,57,24.3,57.6,23.9,57.4z M33.5,68.3c0.2,1,0.1,2.3,1.2,2.8
			c1.1,0.5,1.8,1.3,2,2.6c-0.5,0.1-1.1-0.1-1.6,0c-0.5,0.1-0.9,0.3-1.4,0.6c-0.7,0.3-1.5,0.7-2.3,0.9c-1.9,0.6-3.2-0.3-4.9-0.9
			c-1.7-0.6-3.2-0.4-4.9-0.4c-0.6,0-1.5,0.1-2.1-0.4c-0.3-0.3,0.1-0.5,0.3-0.8c0.4-0.5,0.5-1.1,0.6-1.7c0.2-0.9,0.8-1.4,1.7-1.5
			c0.7-0.1,1.7,0.1,2.2-0.5c0.4-0.4,0.6-1.1,0.8-1.7c0.3-0.9,0.6-1.8,1.1-2.6c0.8-1.3,2.8-3.2,4.5-2.3
			C32.6,63.5,33.1,66.5,33.5,68.3z M41.6,62.8c1.1,0.9,1.1,2,2.7,2.2c1,0.1,2.5,1.2,1.8,2.4c-0.4,0.6-0.8,0.2-1.1-0.1
			c-0.4-0.4-1-0.2-1.5-0.2c-1.4,0-2.9-0.4-4.3-0.6c-1.1-0.2-2.1,1.4-3.2,0.7c-0.5-0.3-0.8-1-0.7-1.6c0.1-0.6,0.7-0.9,1.2-1.2
			c0.9-0.6,1.2-1.5,1.9-2.3C39.4,61,40.7,62.1,41.6,62.8z M40.5,61.4c0,0-0.8-0.3-0.9-0.3c-0.4,0-0.8,0-1.1,0.3
			c-0.5,0.4-0.4,0.3-1.1,0.2c-0.5,0-0.9,0-1.4,0.1c-0.7,0.1-1.5,0.2-2.2,0.2c-0.7,0-1.3,0.1-2,0c-0.3,0-0.6,0-0.8,0.2
			c-0.4-0.2-0.8-0.3-1.3-0.3c-0.7,0-1.3,0.4-2,0.2c-0.6-0.2-1.4-0.7-2-0.2c-0.6-0.4-0.1-1.3,0.2-1.8c0.4-0.7,1-1.4,1.3-2.2
			c0.4-0.8,0.3-1.8,0.2-2.6c0-0.9,0.1-1.8,0.6-2.6c0.4-0.6,1.1-0.9,1.6-1.4c0.4-0.4,0.6-1,1.1-1.3c0.5-0.5,1,0,1.5,0.1
			c-0.3,0.4-0.5,0.9-0.8,1.3c-0.2,0.4,0.1,0.7,0.4,0.2c0.5-0.9,1-1.8,1.7-2.6c0.7-0.7,1.3-0.8,2-0.1c0.8,0.8,1.5,1.8,1.8,2.9
			c0.3,1,0.6,2,1.2,2.9c0.7,1.1,1.1,2.2,1.4,3.5C40.2,58.4,41.1,60.9,40.5,61.4C40.5,61.4,40.6,61.3,40.5,61.4z M41.2,49.6
			c0.5,0.7,0.8,1.4,1.1,2.3c0.3,1,0.9,2,1,3c-0.8,0.1-1.6,0-2.4,0.3c-0.3,0.1-0.7,0.3-1,0.3c-0.5,0.1-0.6-0.6-0.8-0.9
			c-0.9-1.5-1.2-3.3-2.2-4.8c-0.3-0.5-1.3-1.3-1.2-1.8c0.1-0.5,0.6-0.6,0.9-0.9c0.4-0.4,0.6-0.9,0.6-1.4c0-0.4-0.3-0.5-0.1-0.9
			c0.2-0.5,0.3-1,0.3-1.5c0-0.6,0.2-1.9-0.6-2.1c0.1-0.2,0.3-0.4,0.3-0.7C39.8,42.6,39.1,46.9,41.2,49.6
			C41.5,50,40.8,49.1,41.2,49.6z M43.1,44.8c0.2,0.7,0.5,1.4,0.6,2.2c0.1,0.7-0.1,0.8-0.7,1c-0.5,0.2-1.1,0.3-1.7,0.3
			c-0.5,0-0.6-0.2-0.7-0.8c-0.1-0.2-0.1-0.4-0.2-0.7c-0.3-1.1-0.5-2.1-0.9-3.2c-0.2-0.5-0.4-1.1-0.6-1.6c-0.2-0.4-0.1-0.4,0.2-0.8
			c0.3-0.4,1.5-2.4,1.9-2c0.7,0.6,0.6,1.8,0.8,2.7C42,43.1,42.8,43.8,43.1,44.8z M42,40.7c-0.1-0.5-0.2-0.7,0-1.1
			c0.3-0.5,0.7-1,1-1.5c1.1-1.4,2.3-2.9,3.9-3.7C45.1,36.4,43.4,38.5,42,40.7C41.9,40.5,42.6,39.7,42,40.7z M41.6,39.4
			c-0.1-0.2-0.2-0.5-0.5-0.7c0.3-0.3,0.6-0.6,0.9-0.8c0.7-0.6,1.4-1.2,2.1-1.7C43.2,37.2,42.3,38.3,41.6,39.4
			C41.4,39.1,41.9,39,41.6,39.4z M42.4,42.3c-0.6,0-0.2-1.1,0.1-1.4c0.4-0.6,0.8-1.2,1.2-1.7c1.3-1.7,2.7-3.4,4.3-4.8
			c0-0.2,0.2-0.4,0.4-0.4c0.3-0.1,0.7-0.2,1-0.3c0.8-0.2,0.7-0.2,1.1,0.5c0.6,1,1.2,2.1,1.8,3.1c0.9,1.6,1.8,3.1,2.6,4.7
			c-1.1,0.6-3,0.4-4.1,0.5C47.9,42.5,45.1,42.4,42.4,42.3C42.3,42.3,48.6,42.6,42.4,42.3z M57.4,33.8C56.8,34,56,34,55.6,34.4
			c-0.5,0.6-0.1,2.3-0.9,2.6c-0.7,0.2-2.1,0.3-2.4-0.3c-0.6-1.1-1.3-2.3-1.9-3.4c2.5-0.6,5.1-0.5,7.5,0.3
			C57.8,33.7,57.6,33.8,57.4,33.8z M53.6,32.3c-6.1,0.2-11.8,3.9-15,9c-0.3-0.6-0.4-0.6,0-1.1c0.2-0.3,0.4-0.6,0.6-0.8
			c0.3-0.4,0.7-0.9,1.1-1.3c1-1.1,2.2-2.2,3.4-3.1c3.2-2.3,7-3.6,10.9-3.4c4,0.3,7.6,2.4,10.6,5.1c1.4,1.2,2.6,2.6,3.8,4.1
			c0.4,0.5,0.8,1,1.1,1.5c0.2,0.2,0.3,0.5,0.5,0.7c0.3,0.5,0.4,0.5,0.1,1.1C66.9,38.5,60.8,32.1,53.6,32.3
			C44.5,32.6,62.1,32.1,53.6,32.3z M71.7,42.1c0-0.3,0-0.7,0-1C72.1,41.3,71.9,41.7,71.7,42.1z M76,44.8c-0.2-0.7-0.4,0.5-0.4,0.6
			c-0.1,0.5-0.6,0.6-0.9,0.2c-0.3-0.4-0.4-1-0.4-1.6c0.1-1-0.3-0.5-0.9-0.3c-0.5,0.2-1,0.1-1.1-0.5c-0.2-0.5,0.1-1-0.1-1.4
			c0.1-0.3,0.6-0.8,0.3-1.1c-0.2-0.2-0.7-0.1-0.9-0.3c-0.9-0.6-0.2-2.3,0.7-2.4c0.5-0.1,0.5-0.3,0.1-0.7c-0.4-0.5-0.4-1.1-0.2-1.7
			c0.1-0.5,0.4-1.2,0.9-1.3c0.2,0,1,0.3,0.7-0.3c-0.7-1.3-0.3-2.1,1-2.7c0.5-0.2-0.3-0.8-0.4-0.9c-0.4-0.3-0.7-0.7-0.8-1.1
			c-0.2-0.9,0.1-2,0.6-2.7c0.1-0.2,0.3-0.4,0.6-0.4c0.2,0,0.6,0.3,0.8,0.1c0.6-0.4-0.6-0.8-0.9-0.7c-0.5,0.2-0.8,0.7-1,1.1
			c-0.1,0.3-0.2,1.4-0.8,0.9c-0.3-0.3-0.2-1.1,0.3-1.2c0.5-0.1,0.6-0.3,0.1-0.6c-0.4-0.3-0.7-0.9-0.5-1.4c0.3-0.7,0.9-0.5,1.4-0.3
			c1.1,0.3,0.5-0.4,0.3-1c-0.1-0.3-0.5-1.2,0-1.4c0.3-0.1,0.8,0.4,0.9,0.6c0.1,0.2,0.4,0.4,0.5,0.1c0.1-0.3-0.3-0.7-0.3-0.9
			c-0.1-0.5,0-1.2,0.3-1.7c0.4-0.8,0.6,0,0.6,0.4c0,0.1,0.1,1.1,0.4,0.6c0.2-0.4,0-1,0.2-1.4c0.5-1,1.3,1.6,1.4-0.1
			c0-0.9,0.7-2.6,1.8-1.5c0.6,0.6,0.5,0.1,0.4-0.4c-0.1-0.5,0.1-1.3,0.7-1.5c0.9-0.3,1.4,1.6,1.5,2.1c0,0.1,0.1,1.2,0.4,0.8
			c0.3-0.4,0.3-1.1,0.6-1.5c0.9,0.8,1,2.2,0.7,3.3c-0.2,0.7,0.4,0.1,0.5,0.1c0.5,0,0.5,0.7,0.5,1.1c-0.1,0.5-0.3,1-0.7,1.4
			c-0.1,0.2,0,0.7,0.2,0.5c0.9-1,1.1,0.5,1,1.2c-0.1,0.4-0.3,0.9-0.7,1.1c-0.2,0.2-0.1,0.7,0.2,0.5c0.3-0.3,0.4,0,0.5,0.3
			c0.1,0.8-0.2,0.9-0.8,1.1c-0.4,0.1,0.1,1.7,0.2,1.9c0.1,0.6-0.7,0.4-1,0.5c-0.8,0.3,0.7,0.7,0.6,0.7c0.7,0.6,0.5,2.2,0,2.9
			c-0.1,0.2-0.8,0.5-0.4,0.8c0.1,0.1,0.3-0.1,0.4-0.1c0.3,0,0.5,0.3,0.6,0.6c0.5,0.9,0.7,2.3,0.4,3.3c-0.1,0.4-0.5,0.8-0.9,0.8
			c-0.7,0.1,0.3,0.8,0.3,0.8c0.4,0.5,0.2,1.2,0.1,1.7c-0.2,0.6-0.3,0.7-0.8,0.7c-0.5,0.1-0.5,0.6-0.1,0.7c0.3,0.1,0.4-0.2,0.6,0
			c0.2,0.2,0.3,0.5,0.3,0.8c0,0.3-0.3,3.1-0.9,2.7c-0.7-0.4-0.1,1-0.2,1.4c-1.2,2.5-1.5-1.4-2.2-1.4c-0.5,0-0.5,1.3-1.2,1.2
			c-0.6-0.1-0.8-1.3-1-1.7c-0.4-1.1-0.9,0.5-1.3,1c-0.4,0.5-1,0.8-1.6,0.7C76.3,47.5,76.2,45.8,76,44.8z M87.6,56.9
			c-0.2,0.3-0.6,0.3-0.8,0.6c-0.2,0.3-0.1,0.8-0.3,1c-0.2,0.2-0.6-0.4-0.6-0.5c-0.5-0.8-0.6,0.3-0.7,0.8c-0.2,0.6-1.2,1.7-1.4,0.5
			c-0.1-0.3-0.1-0.5-0.2-0.8c-0.1-0.7-0.6,0.3-0.7,0.5c-0.1,0.2-0.3,1.2-0.6,1.2c-0.3,0-0.4-0.7-0.4-0.9c-0.1-0.4,0-1.6-0.2-2
			c-0.1-0.7-1.2,0.9-1.4,0.1c-0.1-0.6,0.3-1.4,0.1-1.9c0.1-0.6-1.2,0.5-1.6,0.5c-1.1,0,0.6-2.1-1.1-1.3c-0.9,0.4-1.1-0.4-1.1-1.2
			c0-0.4,0-0.8,0.2-1.1c0.3-0.4,0.3-0.6-0.2-0.6c-0.7-0.1-0.1-1.7,0.1-2c0.9-0.9-1-0.4-0.4-1.5c0.4-0.8,1.3,0,2-0.1
			c1-0.2,1.6-1.1,2-1.9c0.2,0.6,0.5,1.6,1.1,1.9c0.6,0.3,1.1-0.6,1.4-1c0.3,0.6,0.7,2.4,1.7,1.9c0.5-0.3,0.9-0.9,1-1.4
			c0-0.2,0.1-0.4,0-0.6c0.3-0.1,0.4-0.4,0.6-0.6c0.5,0.3,0.1,0.8,0.7,1c0.9,0.2,0.2,1.3,0,1.9c-0.3,0.8,0.5,0.8,0.8,1.5
			c0.3,0.8,0.3,1.8-0.3,2.5c-0.2-0.3-0.4,0-0.4,0.2c0,0.2,0.2,0.3,0.3,0.5C87.3,54.8,88,56.2,87.6,56.9
			C87.5,57.1,87.6,56.8,87.6,56.9z"/>
		<path fill="#040000" d="M70.4,58.9c0,0.9-0.1,2.3,0.7,2.9c0.3,0.2,0.9-2.3,1.2-2.6c0,0.8,0,1.7,0.4,2.4c0.4,0.6,1,0.4,1.3,1
			c0.1,0.2,0.4,1.1,0.6,1.2c0.5,0.1-0.1-1.2-0.2-1.3c-0.2-0.3-0.3-0.7-0.6-0.9c-0.2-0.1-0.5,0-0.6-0.1c-0.5-0.4-0.5-1.4-0.5-2
			c0-0.5-0.1-1.4-0.7-0.6c-0.5,0.6-0.5,1.5-0.8,2.3c-1.2-1.6,0.3-4.1-0.8-5.7c-0.2-0.3-0.5,0.1-0.5-0.3c0-0.4,0.1-0.7,0.2-1.1
			c0.2-0.9,0.6-1.7,0.8-2.6c0.1-0.2,0.4-1.2,0-1.3c-0.3-0.1-0.4,1-0.4,1.2c-0.3,0.9-0.6,1.8-0.9,2.7c-0.1,0.4-0.5,2.1,0.5,1.8
			C70.7,56.7,70.4,57.9,70.4,58.9z"/>
		<path fill="#040000" d="M81,71.6c-0.1-0.3-0.1-1.1-0.5-1.2c-0.3-0.1-0.9-0.3-1-0.6c-0.2-0.5,0.1-1-0.2-1.5
			c-0.1-0.2-0.8-0.5-0.8-0.6c-0.2-1.1,0.8-2.1,0.6-3.3c-0.1-0.4-0.3-0.7-0.5-1c-0.2-0.4-0.7-0.3-0.4,0.1c0.2,0.3,0.5,0.7,0.5,1
			c0.1,0.7-0.3,1.4-0.5,2.1c-0.1,0.4-0.2,1-0.1,1.4c0.2,0.4,0.8,0.3,1,0.8c0.2,0.5-0.2,1,0.2,1.5c0.1,0.2,0.8,0.5,1.1,0.6
			c0,0.4,0.2,0.9,0.3,1.3c0,0.1,0.1,0.5,0.3,0.3C81.2,72.4,81,71.9,81,71.6C80.9,71.3,81,71.9,81,71.6z"/>
		<path fill="#040000" d="M50.2,14.2c0.3-0.2-0.2-0.7,0.2-0.9c0.4-0.2,0.6,0.3,0.7,0.6c0.3,0.7,0.5,1.5,0.7,2.2
			c0.4,1.1,0.7,2.3,1.5,3.2c0.2,0.2,0.4,0.5,0.7,0.7c0.1,0.1,0.3,0.6,0.5,0.5c0.2,0,0.2-0.4,0.1-0.5c-0.5-0.7-1.1-1.2-1.6-1.9
			c-0.5-0.9-0.8-1.8-1.1-2.8c-0.2-0.8-0.4-2-1.1-2.5C49.5,11.9,49.8,14.5,50.2,14.2z"/>
		<path fill="#040000" d="M61.7,19.8c0.3-0.1,0.2-1.7,1.1-1.2c0.4,0.3,0.7,0.9,1,1.3c0.3,0.5,0.7,1,1.1,1.5c0.2,0.3,0.6,0.6,1,0.7
			c0.3,0,0.9-0.2,0.8-0.6c-0.1-0.3-0.5,0-0.7,0c-0.4,0-0.8-0.5-1-0.8c-0.3-0.5-0.7-1-1-1.4c-0.3-0.5-0.8-1.4-1.5-1.3
			c-0.4,0.1-0.7,0.4-0.9,0.8C61.5,18.9,61.3,19.9,61.7,19.8C61.8,19.8,61.6,19.8,61.7,19.8z"/>
		<path fill="#040000" d="M48.6,44.2c-0.4,0.1-0.7,0.1-1.1,0.2c-0.4,0.1-1.8-0.4-1.7,0.2c0.2,0.7,1.6,0.3,2.1,0.3
			c0.2,0,0.4-0.1,0.7-0.1C48.8,44.8,48.9,44.2,48.6,44.2z"/>
		<path fill="#040000" d="M51.3,43.3c-0.4,0-0.9,0-1.3,0c-0.6,0-1.2,0-1.8,0c-0.2,0-0.7-0.1-0.9,0c-0.1,0.1-0.1,0.5,0.1,0.5
			c0.9,0.1,1.8,0,2.8,0c0.3,0,0.6,0,0.9,0C51.5,43.9,51.7,43.3,51.3,43.3z"/>
		<path fill="#040000" d="M41.2,56.2c-0.3,0-0.3,0.6,0,0.6c0.1,0,0.3,0,0.4,0c0.2,0,1,0.1,1.2,0c0.3,0,0.3-0.6,0-0.6
			c-0.1,0-0.3,0-0.4,0C42,56.2,41.6,56.2,41.2,56.2z"/>
		<path fill="#040000" d="M43.2,68.7c0.3,0.1,0.3-0.5,0.1-0.6c-0.4-0.1-0.9-0.2-1.4-0.3c-0.8-0.1-1.8-0.1-2.5,0.2
			c-0.2,0.1-0.6,0.4-0.3,0.6c0.1,0.1,1-0.2,1.2-0.3C41.3,68.3,42.3,68.4,43.2,68.7C43.3,68.8,42.1,68.3,43.2,68.7z"/>
		<path fill="#040000" d="M44.1,69.5c-0.6,0.2-1.3,0-1.9-0.1c-0.2,0-2,0.3-1.2,0.8c0.2,0.1,0.6-0.2,0.8-0.2c0.5-0.1,0.9,0.1,1.4,0.1
			c0.4,0,0.7,0,1.1-0.1C44.5,70,44.4,69.4,44.1,69.5C43.7,69.7,44.2,69.5,44.1,69.5z"/>
		<path fill="#040000" d="M24.7,60c-0.6-0.3-1.1-0.7-1.8-1c-0.4-0.2-0.9-0.2-1.3-0.1c-0.2,0.1-1.4,0.8-0.7,1
			c0.2,0.1,0.8-0.5,1.2-0.5c0.5,0,0.9,0.2,1.4,0.4c0.3,0.2,0.6,0.3,0.9,0.5C24.7,60.7,25,60.2,24.7,60z"/>
		<path fill="#040000" d="M23.7,60.9c-0.3-0.1-1.5-0.7-1.4,0c0,0.3,1,0.4,1.3,0.5c0.3,0.1,1.5,0.7,1.4,0C25,61.1,24,61,23.7,60.9
			C23.3,60.7,24.1,61,23.7,60.9z"/>
		<path fill="#040000" d="M36.7,76.3c0.2,0,0.2-0.4,0.1-0.5c-0.1-0.2-0.6-0.1-0.8-0.1c-0.8-0.1-1.6-0.2-2.3-0.2
			c-1.4,0.1-2.8,1.6-4.2,1.2c-0.2-0.1-0.3,0.3-0.2,0.4c0.1,0.2,0.6,0.2,0.8,0.2c0.8,0,1.5-0.4,2.1-0.8C33.7,75.8,35,76.3,36.7,76.3
			C36.8,76.3,36.2,76.3,36.7,76.3z"/>
		<path fill="#040000" d="M36.5,77.1c0.3,0,0.9-0.1,0.6-0.6c-0.2-0.2-1.4,0.1-1.6,0.1c-0.3,0-1.7-0.4-1.4,0.3
			C34.3,77.5,36,77.2,36.5,77.1z"/>
		<path fill="#040000" d="M37,77.5c-0.3,0-0.7,0-1,0c-0.2,0-1.5,0.4-0.9,0.8c0.1,0.1,1.3-0.2,1.5-0.2c0.1,0,0.3,0.1,0.4,0
			C37.3,78.1,37.3,77.5,37,77.5z"/>
		<path fill="#040000" d="M33.2,63.4c-0.4,0-0.1,0.6,0.3,0.6c0.2,0,1,0.1,1.2,0c0.4,0,0.1-0.6-0.3-0.6
			C33.9,63.4,33.5,63.4,33.2,63.4z"/>
		<path fill="#040000" d="M72.5,71.9c0.3,0.4,0.7,0.9,1.2,1.3c0.3,0.2,1.2,0.2,0.7-0.3c-0.1-0.1-0.4-0.1-0.5-0.2
			c-0.2-0.1-0.4-0.3-0.6-0.5c-0.3-0.3-0.5-0.7-0.8-1c-0.8-1-1.8-1.7-2.7-2.5c-0.9-0.9-0.7-2.4-2.3-2.5c-0.4,0-0.5-0.3-0.6-0.6
			c-0.1-0.7-0.5-0.6-0.4,0.1c0.1,0.4,0.2,0.8,0.5,1c0.4,0.2,0.8,0,1.2,0.2c0.5,0.3,0.6,1.1,0.9,1.5c0.3,0.5,0.7,0.9,1.1,1.3
			C71.1,70.4,71.9,71.1,72.5,71.9z"/>
		<path fill="#040000" d="M74.6,73.9c-1.1-0.1-1.6,0.3-2.2-0.8c-0.2-0.3-0.4-0.7-0.7-0.9c-0.3-0.1-1-0.1-0.6,0.4
			c0.2,0.2,0.6,0.2,0.8,0.5c0.2,0.4,0.4,0.8,0.7,1.1c0.8,0.9,1.9-0.1,2.8,0.6c0.5,0.4,0.4,1.3,0.4,1.9c0,0.2,0,0.5,0,0.7
			c0,0.4,0.4,0.4,0.4,0C76.1,76,76.4,74.1,74.6,73.9C74.3,73.8,76.1,74.1,74.6,73.9z"/>
		<path fill="#040000" d="M55,38.5c0.2-0.1,0.2-0.6-0.1-0.6c-0.2-0.1-0.9,0.2-1.1,0.2c-0.3,0-0.3,0.6,0,0.6
			C54.2,38.7,54.6,38.6,55,38.5z"/>
		<path fill="#040000" d="M55.8,38.7c-0.3-0.1-0.6,0-0.9,0.2c-0.2,0.1-0.1,0.7,0.2,0.5c0.2-0.1,0.4-0.2,0.7-0.2
			C56,39.4,56,38.8,55.8,38.7C55.4,38.7,55.9,38.8,55.8,38.7z"/>
	</g>
</g>
</svg>
