<?xml version="1.0" encoding="utf-8"?>
<!-- Generator: Adobe Illustrator 17.1.0, SVG Export Plug-In . SVG Version: 6.00 Build 0)  -->
<!DOCTYPE svg PUBLIC "-//W3C//DTD SVG 1.1//EN" "http://www.w3.org/Graphics/SVG/1.1/DTD/svg11.dtd">
<svg version="1.1" id="Ebene_1" xmlns="http://www.w3.org/2000/svg" xmlns:xlink="http://www.w3.org/1999/xlink" x="0px" y="0px"
	 width="100px" height="100px" viewBox="0 0 100 100" enable-background="new 0 0 100 100" xml:space="preserve">
<circle fill="#B2B2B2" cx="50" cy="50" r="50"/>
<path fill="#C3C4C4" d="M87.1,64.5c-8.3-1.3-16.5-2.6-24.8-3.8c-10.7-1.7-21.5-3.3-32.2-5c-0.3,0-1.6-0.4-1.8-0.3
	c-1.2,1-2.5,2-3.7,3c-4.6,3.8-9.2,7.6-13.9,11.4c-0.6,0.5-1.3,1.1-1.9,1.6c7.3,1.3,14.7,2.5,22,3.8c12.4,2.1,24.7,4.3,37.1,6.4
	c3.5,0.6,7.1,1.2,10.6,1.8c0.5,0.1,1,0.4,1.2-0.1c0.8-2.1,1.6-4.2,2.5-6.3C83.9,72.9,85.5,68.7,87.1,64.5z"/>
<path fill="#FFFFFF" d="M62.2,62.6c-4.7,2.7-9.4,5.3-14.1,8c0.3,0,0.7,0.1,1,0.1c-0.3,0.3-0.6,0.6-0.9,0.9c0.2,0.1,0.4,0.2,0.7,0.3
	c-0.3,0.3-0.6,0.7-0.9,1c4.7,1.1,9.4,2.1,14.2,3.2c0.5,0.1,0.5,0.2,0.9-0.1c0.8-0.6,1.6-1.1,2.5-1.7c2.6-1.8,5.2-3.6,7.7-5.4
	c1-0.7,2-1.4,3-2.1c-0.4-0.5-0.3-0.4,0.1-0.9c-0.6-0.2-1.3-0.4-1.9-0.5c0.3-0.3,0.6-0.7,0.9-1C71,63.8,66.6,63.2,62.2,62.6z"/>
<path fill="#84846F" d="M22.9,65.3c1.8-1.3,3.7-2.5,5.5-3.8c1.2-0.8,2.5-1.7,3.7-2.5c0.2-0.2,1.2-1.1,1.5-1
	c4.8,0.7,9.7,1.4,14.5,2.1c2.7,0.4,5.4,0.8,8,1.2c-3.9,2.2-7.8,4.3-11.7,6.5c-0.2,0.1-1-0.1-1.3-0.1c-1.1-0.1-2.3-0.3-3.4-0.4
	c-3.2-0.4-6.3-0.7-9.5-1.1C27.8,65.9,25.3,65.6,22.9,65.3z"/>
<path fill="#D9D9D9" d="M55.8,61.2c-2.3,1.4-4.6,2.7-6.9,4.1c-1.3,0.8-2.6,1.6-4,2.3c-0.2,0.1-0.5,0.3-0.7,0.4c-0.1,0.1,0,1.6,0,1.8
	c2.3-1.4,4.6-2.7,6.9-4.1c1.3-0.8,2.7-1.6,4-2.3c0.2-0.1,0.5-0.3,0.7-0.4C56.1,63,55.9,61.4,55.8,61.2z"/>
<path fill="#D9D9D9" d="M44.3,68c-7.2-0.9-14.4-1.7-21.6-2.6c0,0.5-0.3,1.8,0.2,1.9c0.7,0.1,1.4,0.2,2.2,0.3c2.9,0.3,5.7,0.7,8.6,1
	c2.8,0.3,5.6,0.7,8.3,1c0.7,0.1,1.4,0.2,2.1,0.3C44.6,69.9,44.3,68.4,44.3,68z"/>
<path fill="#D9D9D9" d="M15.4,48.5c2,4.6,4.1,9.1,6.1,13.7c0.3,0.7,0.6,1.3,0.9,2c0.1,0.2,0.8,0.1,1,0.2c2.6,0.3,5.1,0.6,7.7,0.9
	c3.1,0.4,6.2,0.7,9.3,1.1c1,0.1,2,0.2,3,0.4c0.6,0.1,0.9,0.2,1.2-0.5c0.3-0.8-0.5-2.1-0.7-2.9c-0.5-1.4-1-2.8-1.5-4.2
	c-1-2.8-2-5.7-3-8.5c-0.1-0.3-0.2-0.9-0.5-1.1c-1-0.7-2.3-0.8-3.4-0.9c-2.6-0.2-5.1-0.4-7.7-0.6c-2.9-0.2-5.7-0.4-8.6-0.6
	C18.1,47.4,15.3,46.8,15.4,48.5z"/>
<path fill="#807F80" d="M69.1,48.1c1.1,0.1,2.3,0.3,3.4,0.8c1.9,0.8,2.5,2.2,2.9,4.1c0.6,3.2,0.9,6.5,1.2,9.8
	c-2.2-0.3-4.3-0.6-6.5-1c-1.2-0.2-2.5-0.4-3.7-0.5c-0.9-0.1-0.8-0.1-0.8-1c0-1.3-0.1-2.6-0.1-3.8c0-0.6,0.5-1.4,0.8-1.9
	C67.1,52.4,68.1,50.2,69.1,48.1z"/>
<path fill="#FFFFFF" d="M67.7,61.2c-0.3-0.8-0.6-1.5-0.9-2.3c-1.1,0.6-2.1,1.1-3.2,1.7C65,60.8,66.3,61,67.7,61.2z"/>
<path fill="#AAABAB" d="M70.3,51.8c0-2.9-0.4-5.9-0.7-8.8c-0.2-1.7-0.4-3.5-0.8-5.2c-0.2-1.1-0.4-2.2-1.2-3
	c-0.7-0.7-1.5-1.6-2.5-1.8c-0.6-0.1-0.8-0.1-1.3-0.4c-1.3-0.6-2.6-1.3-3.8-1.9c-0.6-0.3-1.2,0-1.9,0.1c-1.5,0.3-3.1,0.6-4.6,0.9
	c-0.6,0.1-1.2,0.2-1.8,0.3c-0.2,0-0.6,0-0.7,0.1c-1,0.8-2.1,1.5-3.1,2.3c-0.2,0.2-0.4,0.2-0.7,0.3c-0.9,0.4-1.3,1.3-1.6,2.2
	c-0.4,1.6-0.4,3.2-0.7,4.8c-0.4,2.5-0.9,4.9-1.3,7.4c-0.1,0.3-0.1,0.6-0.2,0.9c0,0.2-1.1,0.6-1.3,0.7c-0.6,0.3-1.2,0.7-1.9,1
	c-0.4,0.2-0.2,0.2-0.1,0.6c0.5,1.4,0.9,2.8,1.4,4.2c0,0.1,0.2,1,0.4,1c0.4,0,0.8-0.1,1.2-0.2c1.4-0.4,3.2-0.9,4.2-2.1
	c0.7-0.8,0.8-2.2,1.1-3.2c0.2-0.7,0.4-1.5,0.6-2.2c0.5,0.9,0.9,1.4,1,2.4c0.1,1.2,0.2,2.4,0.3,3.6c0.5-0.1,4.5-1,4.6-0.8
	c0.4,1,0.7,1.9,1.1,2.9c0.1,0.3,0.2,0.4,0,0.5c-0.4,0.2-0.8,0.5-1.2,0.7c1.7,0.3,3.5,0.5,5.2,0.8c1,0.2,2.1,0.3,3.1,0.5
	c0.6,0.1,0.7,0.1,1.2-0.2c0.9-0.5,1.8-0.9,2.6-1.4c0.1-0.1-0.7-1.9-0.8-2.2c0-0.1,1.8-1.4,1.9-1.5C68.9,54.4,70.3,53.2,70.3,51.8z"
	/>
<path fill="#FFFFFF" d="M46.1,41.7c0.7,0.1,1.3,0.3,2,0.4c0.1,0,0.5,0.1,0.5,0.2c0,0.2,0.1,0.8-0.1,0.9c-0.7,0.3-1.5,0.5-2.2,0.8
	C45.7,44.2,45.9,42,46.1,41.7z"/>
<path fill="#FFFFFF" d="M57.9,42.2c0,0.5-0.2,0.9,0.3,1.1c0.7,0.2,1.4,0.4,2.1,0.6c0.3,0.1,1.2-0.6,1.4-0.8c0.6-0.4,0.6-0.5,0.6-1.2
	c-1.4,0.1-2.8,0.3-4.2,0.3"/>
<path fill="#FFFFFF" d="M53.4,29.6c-0.6,0.5-1.2,1.1-1.7,1.6c-0.4,0.3-1.2,0.8-1.2,1.3c-0.1,1.7-0.2,3.4-0.2,5.1
	c0.6-0.4,1.1-0.8,1.7-1.2c0.3-0.2,1.3-1.2,1.7-1.2c0.4,0,1.3,1,1.7,1.3c0.6,0.4,1.1,0.8,1.7,1.3c0.6-1.2,1.2-2.4,1.8-3.5
	c0.4-0.8,0.8-1.6,1.2-2.4c0.1-0.2,0.6-0.9,0.6-1.1c-0.1-0.3-1.5-0.9-1.8-1.1c-0.3-0.2-0.6-0.4-0.9-0.5c-0.2-0.1-0.4,0.2-0.6,0.3
	c-0.6,0.5-0.8,0.4-1.6,0.4C54.9,29.7,54.1,29.6,53.4,29.6z"/>
<path fill="#FFFFFF" d="M55.5,58.4c-0.4,0.6-1.2,0.7-1.8,1.1c-0.9,0.5-0.9,1.3-1.3,2.2c-0.1,0.3-0.5,2.3-1.2,1.8
	c-0.7-0.5-0.1-2.1-0.2-2.9c-0.8,0.9-1,2.6-2.3,3.1c-1.3,0.5,0.4-3.1,0.4-3.6c-1.3,0.2-2,2.8-3.4,2.7c0-0.3,0.3-0.8,0.1-1
	c-0.1-0.1-0.2-0.2-0.2-0.4c-0.1-0.5,0.2-1.1,0.5-1.5c0.6-1.2,1.4-2.2,2.3-3.2c1.2-1.2,3-1,4.5-1.4c0.8-0.2,1.7-0.4,2.2,0.5
	C55.6,56.5,56,57.6,55.5,58.4C55.1,59.2,56,57.7,55.5,58.4z"/>
<path fill="#FFFFFF" d="M43,19.8c0.5,1,1,2,1.5,2.9c0.4,0.7,0.7,1.4,1.1,2.1c0,0.1,0.5,0.8,0.4,0.9c-0.7,1.2,0,2.4,1.1,2.9
	c1.6,0.8,4.4,1.9,6.2,1.1c0.1,0.7,0.3,1,0,1.5c-0.6,1.2-0.5,2.6,0.2,3.7c0.6-0.9,1.3-1.9,1.9-2.8c0.4-0.6,0.8-1.1,1.2-1.7
	c0.2-0.3,0.4-0.5,0.4-0.8c0-0.5-0.3-1.2-0.1-1.7c0.2-0.6,0.9-1.3,1.3-1.8c0.4-0.7,0.4-0.5,1.1-0.6c1.1-0.2,1.9-0.9,2.4-1.9
	c0.4-0.9,0.5-2-0.2-2.8c-0.5-0.5-1.2-0.9-1.7-1.4c-1.2-1.2-2.3-2.6-3.4-4c-0.1-0.2-1.4-2-1.6-1.9c-0.8,0.4-1.6,0.8-2.3,1.2
	C49.3,16.4,46.1,18.1,43,19.8z"/>
<path fill="#D5D5D6" d="M53.5,34.9c-0.8,0.7-1.4,1.2-1.6,2.2c-0.3,1.3-1,3.4-0.4,4.6c0.6,1.2,3.1,0.6,4.1,0.4c0.1,0,0-1.5,0-1.7
	c0-0.4,0.8-0.6,1.2-0.8c-0.5-1-1-1.9-1.5-2.9C54.9,36,54.1,35.5,53.5,34.9z"/>
<path fill="#4F4F42" d="M24.9,63.6c0.1,0.5,0,1.6,0.5,1.7c0.8,0.2,1.7,0.3,2.5,0.5c-0.1-0.3-0.3-1.9-0.5-2
	C26.5,63.7,25.7,63.7,24.9,63.6z"/>
<path fill="#4F4F42" d="M37.6,65.2c0.1,0.5,0,1.6,0.5,1.7c0.8,0.2,1.7,0.3,2.5,0.5c-0.1-0.3-0.3-1.9-0.5-2
	C39.3,65.4,38.5,65.3,37.6,65.2z"/>
<path fill="#9F9FA0" d="M15.3,48.2c4.8,0.5,9.5,0.9,14.3,1.4c2.4,0.2,4.7,0.5,7.1,0.7c1.9,0.2,2.2,2.8,2.7,4.3
	c1.4,4.1,3,8.2,4.6,12.2c0.8-0.6,0.3-1.6,0.1-2.3c-0.4-1.2-0.9-2.5-1.3-3.7c-1-2.9-2-5.9-3.1-8.8c-0.2-0.5-0.3-1.2-0.6-1.7
	c-0.6-1-1.8-1.2-2.8-1.3c-2.7-0.3-5.4-0.5-8-0.7c-2.9-0.2-5.8-0.5-8.6-0.7C18.5,47.5,16.1,46.8,15.3,48.2z"/>
<path fill="#FFFFFF" d="M62.5,15.5c-0.5-0.6-0.5-1.6-0.6-2.4c-0.1-0.9,0.4-0.8,1.1-0.8c0.8,0,1.2,0.2,0.8,1.1
	C63.5,14.1,63.1,15,62.5,15.5z"/>
<path fill="#C9CACA" d="M44.3,21.5c-1.9-0.4-3.4-1.8-3.5-3.8c-0.1-3.1,1.7-5.5,4.1-7.2c3.2-2.3,7.2-4,11.1-2.5
	c1.3,0.5,2.6,1.3,3.3,2.4c0.2,0.3,1.2,1.6,0.9,2c1,0.8,2.1,1.8,2.4,3.1c1-2.3,4.2-1.2,5.6,0.1c1.2,1.2,0.5,2.4,0.1,3.8
	c-0.3,1-0.6,2.6,0.8,2.6c-0.7,1.8-2.2,0.8-3-0.4c-0.3,1.2-1.8,0.7-2.2-0.2c-0.2-0.4-0.3-0.9-0.3-1.3c0-0.1-0.8-0.5-0.9-0.6
	c-0.2,0.5-0.5,1-0.7,1.5c-1.2-0.6-2.3,0.3-3,1.2c-0.9-1.6-1.7-3.3-2.6-4.9c-0.5-0.9-1-1.9-1.5-2.8c-0.3-0.5-0.2-0.6-0.7-0.4
	c-2.3,1-4.6,2-6.8,3c-1,0.5-1.9,1-2.7,1.8c-0.2,0.2-1.1,1.1-1,1.4C44,20.6,44.1,21,44.3,21.5z"/>
<g>
	<path fill="#040000" d="M87,64c-2-0.3-4-0.6-5.9-0.9c-1.2-0.2-2.3-0.4-3.5-0.5c-0.7-0.1-0.6-0.1-0.7-0.8c-0.2-3.2-0.4-6.4-1.2-9.5
		c-0.4-1.6-1.3-3-2.9-3.7c-0.6-0.3-1.6-0.7-2.4-0.6c-0.2-3.4-0.4-6.9-1.1-10.2c-0.4-2.2-1.6-4.6-4-4.9c-0.6-0.1-1-0.3-1.5-0.7
		c-0.9-0.5-1.8-1.1-2.7-1.6c-0.5-0.3-1-0.6-1.5-0.9c-0.6-0.4-1.7-1.5-2.3-0.7c0-0.2-0.1-0.4-0.1-0.7c0-0.3,0.6-0.7,0.8-1
		c0.2-0.2,0.6-1.1,0.8-1.2c0.3-0.1,0.6-0.2,0.8-0.3c1.7-0.7,3.5-2.8,2.4-4.7c0.4,0,0.6-1,0.7-1.3c0.1,0.1,0.2,0.3,0.4,0.4
		c0.4,0.2,0.2,0.2,0.2,0.6c0,0.5,0.2,1,0.6,1.3c0.6,0.6,1.8,0.9,2.3,0c0.9,1.1,2.6,1.6,3.3,0c0.3-0.7-0.9-0.2-1.1-0.6
		c-0.3-0.7,0.1-1.6,0.4-2.3c0.6-1.5,0.5-3.2-0.8-4.3c-1.1-0.9-3-1.7-4.4-1.1c0.3-0.4,0.6-0.9,0.9-1.3c0.4-0.6-0.4-0.6-0.8-0.6
		c-0.4,0-1.2-0.3-1.5-0.1c-0.6,0-0.3,1.3-0.3,1.7c-0.3-0.4-0.7-0.9-1.1-1.2c-0.4-0.3-0.5-0.8-0.7-1.3c-0.6-1-1.3-1.9-2.2-2.6
		c-1.9-1.4-4.3-1.6-6.6-1.1c-2.7,0.6-5.2,2-7.3,3.9c-1.6,1.4-3.3,3.4-3.5,5.6c-0.1,1.7,0.5,3.3,1.9,4.3c0.4,0.3,0.9,0.5,1.3,0.7
		c0.6,0.2,0.6,0.6,0.8,1.2c0.4,0.9,0.8,1.8,1.2,2.8c0.2,0.4-0.1,0.5-0.2,0.9c-0.1,0.5,0,0.9,0.3,1.3c0.7,1,2.1,1.4,3.2,1.8
		c1.1,0.4,2.3,0.7,3.5,0.5c-0.4,0.3-0.7,0.5-1.1,0.8c-0.3,0.2-1.2,0.7-1.2,1c-0.6,0.7-1.5,1.3-2.3,1.9c-0.4,0.3-0.8,0.3-1.2,0.6
		c-0.3,0.3-0.6,0.6-0.8,1c-0.8,1.5-1,3.3-1.2,5c-0.2,2.2-0.8,4.3-1.2,6.4c-0.2,0.9-0.3,1.7-0.5,2.6c0,0.2,0.2,0.3,0,0.4
		c-0.3,0.1-0.6,0.3-0.9,0.4c-0.7,0.4-1.4,0.7-2,1.1c-0.4-1.1-0.7-2.6-2.1-2.7c-0.9-0.1-1.7-0.1-2.6-0.2c-3.4-0.3-6.8-0.6-10.2-0.9
		c-1.6-0.1-3.2-0.3-4.8-0.4c-1.3-0.1-2.7-0.3-4-0.1c-1.3,0.2-1.5,1.1-1,2.1c0.4,1,0.9,2,1.3,2.9c1.2,2.8,2.5,5.6,3.7,8.3
		c0.5,1,0.9,2,1.4,3c0.4,0.8,0.4,0.9,1.4,1c-0.2,0.1-0.7,0.3-0.7,0.7c0,0.6,0,1.2,0,1.8c0,0.7,0.7,0.6,1.2,0.6
		c2.5,0.3,5,0.6,7.5,0.8c3.1,0.4,6.2,0.7,9.4,1.1c1,0.1,2.1,0.2,3.1,0.3c0.3,0,0.8,0.2,1.1,0.1c3.2-1.8,6.3-3.7,9.5-5.5
		c0.6-0.3,1.2-0.7,1.8-1c0.6-0.3,0.4-0.9,0.4-1.5c0-0.5,0-0.8-0.5-0.9c-0.9-0.1-1.8-0.3-2.7-0.4c0.1-0.4,0.3-1.1,0.9-1
		c0.2,0,0.4,0.1,0.6,0.1c0.8,0.1,1.6,0.3,2.4,0.4c0.5,0.1,0.8,0.1,1.2,0.3c0.4,0.3,1.1-0.1,1.6,0c1.6,0.2,3.2,0.5,4.8,0.7
		c6,0.9,12.1,1.9,18.1,2.8c1,0.2,2.1,0.3,3.1,0.5c0.3,0,0.6,0.1,0.8,0.1C87.1,64.7,87.6,64.1,87,64z M74.7,51.7
		c1.1,3.3,1.3,7.2,1.4,10.6c-1.5-0.2-3.1-0.5-4.6-0.7c-0.9-0.1-1.9-0.3-2.8-0.4c-0.4-0.1-0.7,0-0.9-0.4c-0.4-0.9-0.7-1.8-1.1-2.7
		c-0.1-0.3-0.3-0.6-0.4-1c-0.1-0.3,1.2-1,1.4-1.2c0.8-0.6,2.5-1.7,2.7-2.8c0.3-1.4,0-3.2-0.1-4.6C72.3,48.6,74.1,49.8,74.7,51.7
		C75.8,54.6,73.7,48.7,74.7,51.7z M67.2,60.9c-0.9-0.1-1.8-0.3-2.6-0.4c0.7-0.3,1.4-0.6,2.1-0.9C66.8,60.1,67,60.5,67.2,60.9z
		 M64.7,32.8C64.7,32.8,64.6,32.8,64.7,32.8C64.6,32.8,64.7,32.8,64.7,32.8z M57.8,29.3c0.3,0.2,2.3,1.3,2.2,1.5
		c-0.3,0.6-0.6,1.3-1,1.9c-0.8,1.6-1.6,3.1-2.3,4.7c-0.8-0.7-1.5-1.4-2.3-2c-0.3-0.2-0.4-0.3-0.2-0.6c0.2-0.3,0.4-0.6,0.6-0.9
		C55.8,32.3,56.8,30.8,57.8,29.3C58.2,29.5,57.5,29.7,57.8,29.3z M53.3,37.5c-0.2-0.7,0.2-1.3,0.4-1.9c0.2,0.2,0.6,0.4,0.6,0.7
		c0,0.3,0,0.7,0,1c0.1,0.5,0.3,0.9,0.3,1.4c0.2,0.8,0.3,1.7,0.4,2.5c0.1,0.6,0.2,0.7-0.4,0.9c-0.4,0.1-0.8,0.1-1.1,0.1
		c-0.6-0.1-1.2-0.2-1.7-0.4c-0.3-0.8-0.3-1.6-0.2-2.4c0.1-0.9,0.4-2.6,1.2-3.2c-0.2,0.7-0.6,1.9,0.1,2.4c0.2,0.1,0.6,0.1,0.7-0.2
		C53.7,38,53.4,37.8,53.3,37.5C53.2,36.9,53.4,37.8,53.3,37.5z M55.4,38.4c0.3,0.5,0.5,1,0.8,1.4c-0.2,0.1-0.4,0.2-0.6,0.3
		C55.6,39.6,55.5,39,55.4,38.4C55.7,38.9,55.5,38.9,55.4,38.4z M56.7,29.4c0,0.4,0.1,0.2-0.1,0.6c-0.1,0.2-0.3,0.4-0.4,0.6
		c-0.3,0.5-0.7,1.1-1,1.6c-0.5,0.7-0.9,1.4-1.4,2.2c-0.4-0.9-0.5-1.8-0.3-2.8c0.2,0.4,0.7,0.1,0.6-0.3c-0.1-0.4-0.1-0.8-0.2-1.2
		c-0.1-0.5,0.5-0.5,0.9-0.6c0.6-0.3,1.3-0.6,1.8-0.9C56.6,28.8,56.6,29.1,56.7,29.4z M64.3,14.4c1.7-0.2,4,1,4.2,2.8
		c0.1,1.1-1.9,4.8,0,5.1C68,22.7,67.4,22.4,67,22c-0.1-0.1-1.4-1.8-1.3-0.7c0.1,1.3-2.2,0.3-1.6-1.1c0.2-0.4-0.7-0.7-0.9-0.9
		c-0.3-0.5-0.1-0.9-0.1-1.5c0-0.7-0.2-1.5-0.1-2.1C63.1,14.9,63.6,14.4,64.3,14.4C65.7,14.2,63.6,14.4,64.3,14.4z M63.6,12.6
		c-0.4,0.6-0.8,1.2-1.1,1.8c0.2-0.5-0.1-1.3-0.1-1.9C62.8,12.5,63.2,12.5,63.6,12.6C63.3,13.1,63.1,12.5,63.6,12.6z M43.3,21
		c-0.7-3,0.9-5.6,3-7.6c0.8-0.8,1.7-1.4,2.7-2c0.2-0.1,1.5-0.6,1.3-1c-0.4-0.8-4,2.2-4.3,2.5c-2.2,2-3.8,4.7-3.4,7.7
		c-3.1-2.2-1.2-6,0.9-8.2c2.8-2.8,7.2-5.3,11.3-4.5c1.8,0.3,3.2,1.4,4.2,2.9c0.3,0.5,0.6,1.5,1,1.8c0.2,0.2,0.4,0.3,0.6,0.5
		c0.8,0.8,1.3,1.7,1.6,2.8c0.5,1.8-0.1,3.1-0.6,4.8c-0.3-0.3-0.7-0.3-1.1-0.2c0-1.8-0.2-3.7-1.1-5.3c-0.2-0.4-0.5-0.8-0.8-1.1
		c-0.2-0.2-0.9-0.6-0.8,0c0,0.2,0.3,0.5,0.5,0.6c0.3,0.4,0.6,0.9,0.8,1.4c0.3,0.8,0.5,1.7,0.7,2.5c0.1,0.5,0.1,1,0.1,1.6
		c0,0.4,0.1,0.6-0.2,0.9c-0.2,0.2-0.5,0.5-0.6,0.7c-1.1-2.7-2.5-5.3-4-7.7c0.2-0.1,1.3-0.4,0.6-0.8c-0.3-0.2-0.9,0.2-1.2,0.3
		c-1,0.4-2,0.8-2.9,1.3c-1.7,0.8-3.5,1.7-5.1,2.7c1.3-1.4,2.6-2.7,4.1-4c0.1-0.1,0.2-0.2,0.3-0.2c0.3-0.3-0.1-0.8-0.5-0.5
		c-0.3,0.3-0.6,0.5-0.9,0.8c-1.2,1.1-2.4,2.2-3.4,3.4c-0.6,0.7-1.2,1.4-1.7,2.1c-0.6,0.8-1,1.2-0.6,2.1C43.5,21,43.4,21,43.3,21
		C42,14.7,43.4,21,43.3,21z M47.5,28.4c-0.7-0.3-1.7-0.9-1.4-1.8c0.1-0.4,0.4-0.6,0.2-1c-0.4-1-0.9-2.1-1.3-3.1
		c-0.2-0.5-0.4-1-0.7-1.6c-0.3-0.6-0.1-0.7,0.3-1.3c0.5-0.7,0.8-1,1.6-1.1c0.5-0.1,0.5,0.4,0.9,0.5c0.8,0.2,0.1-0.9-0.3-1
		c1.8-1,3.5-1.9,5.3-2.8c0.5-0.2,1-0.4,1.5-0.7c0.2-0.1,0.4-0.2,0.6-0.2c0.4-0.2,0.5,0.2,0.7,0.6c0.6,1,1.2,2,1.7,3.1
		c0.7,1.3,1.4,2.7,1.9,4.1c0.1,0.2,0.2,0.6,0.5,0.7c0.6,0,1.1-1.5,1.8-1.6c0.8-0.2,0.9,1.2,0.8,1.7c-0.1,0.8-0.6,1.5-1.3,1.9
		c-0.5,0.3-1,0.6-1.6,0.7c-0.6,0.2-0.7,0.7-1.1,1.2c-1,1.4-2.7,2.1-4.3,2.7C51.3,30,49.4,29.2,47.5,28.4
		C46.7,28.1,50.2,29.5,47.5,28.4z M53.2,30.4c0.1,0.3,0,0.2-0.2,0.3c-0.3,0.2-0.3,1.1-0.3,1.4c0,0.9,0.1,1.7,0.5,2.5
		c0.2,0.5-0.4,0.7-0.8,1c-0.6,0.5-1.2,0.9-1.9,1.4c0.1-1.5,0.2-3.1,0.3-4.6c0-0.4,0.7-0.7,1.1-1C52.2,31.1,52.7,30.7,53.2,30.4z
		 M15.7,48.6c-0.4-0.9,2.6-0.7,3.2-0.6c1.4,0.1,2.7,0.2,4.1,0.3c3.5,0.3,7,0.6,10.5,0.9c1.2,0.1,2.4,0.2,3.6,0.3
		c0.8,0.1,1.6,0.1,1.8,1.1c0.7,2.4,1.6,4.7,2.5,7c0.9,2.6,1.9,5.2,2.8,7.8c0.1,0.3,0.4,1-0.3,1c0-0.2-0.1-0.4-0.1-0.6
		c-0.4-1-0.7-2-1.1-3c-1-2.9-2.1-5.9-3.1-8.8c-0.4-1.1-0.9-3.8-2.4-4c-5.3-0.5-10.6-0.9-15.9-1.4c-1.2-0.1-2.4-0.2-3.6-0.3
		c-0.4,0-1-0.2-1.4-0.1c-0.6-0.1-0.4,0.6,0.1,0.7c0.3,0,0.5,0,0.8,0.1c1.1,0.1,2.2,0.2,3.2,0.3c5.5,0.5,10.9,1,16.4,1.4
		c1.4,0.1,1.9,3,2.2,4c1.1,3.1,2.2,6.2,3.2,9.2c0.3,0.8,0.6,1.6,0.9,2.4c-0.3,0-2.5-0.1-2.5-0.3c-0.1-0.5-0.1-0.8-0.7-0.9
		c-0.6-0.1-1.3-0.2-1.9-0.2c-0.6-0.1-1.1,0-0.8,0.8c-2.7-0.3-5.3-0.6-8-1c-0.4-0.1-0.8-0.1-1.3-0.2c-0.5-0.1-0.1-0.9-0.7-0.9
		c-0.7-0.1-1.3-0.2-2-0.2c-0.7-0.1-1.2-0.1-1,0.8c-0.5,0-1.7,0.1-2-0.4c-0.2-0.5-0.4-1-0.6-1.4c-0.8-1.8-1.6-3.5-2.4-5.3
		C18.2,54.2,17,51.4,15.7,48.6z M49.5,51.7c0,0.9,0.1,1.8,0.1,2.7c0,0.4,0,0.9,0.1,1.3c0,0.3-0.6,0.2-0.8,0.3
		c-0.5,0.1-0.9,0.7-1.2,1.1c-0.4,0.5-0.5,0.9-1.1,0.8c-0.9-0.1-1.8-0.3-2.8-0.4c1.3-0.5,3.2-1.1,3.8-2.4c0.7-1.4,1-3,1.3-4.4
		C49.2,51,49.3,51.4,49.5,51.7C49.5,51.9,49.5,51.6,49.5,51.7z M46.7,58.5c-0.3,0.4-0.4,1-0.9,0.9c-0.5-0.1-1-0.2-1.5-0.3
		c-0.5-0.1-0.9-0.2-1.4-0.2c-0.6-0.1-0.6-0.5-0.8-1.1C43.7,58.1,45.2,58.3,46.7,58.5z M45.6,61.9c-0.5-0.1-1-0.2-1.6-0.3
		c-0.1,0-0.5,0-0.6-0.1c-0.2-0.7-0.5-1.3-0.7-2c1,0.2,2,0.3,3,0.5C45.5,60.6,45.1,61.4,45.6,61.9z M44.8,68c1-0.6,2-1.1,3.1-1.7
		c0,0.6,0.2,1-0.3,1.3c-0.9,0.5-1.8,1.1-2.7,1.6C44.8,68.8,44.8,68.4,44.8,68z M48.5,65.9c0.1-0.1,0.2-0.1,0.3-0.2
		c0,0.6,0.2,1-0.3,1.3C48.5,66.6,48.5,66.3,48.5,65.9z M49.5,65.4c0.1-0.1,0.2-0.1,0.3-0.2c0,0.6,0.2,1-0.3,1.3
		C49.5,66.1,49.6,65.7,49.5,65.4C49.6,65.3,49.5,65.4,49.5,65.4z M50.5,64.8c0.1-0.1,0.2-0.1,0.3-0.2c0,0.2,0,0.4,0,0.6
		c0,0.4,0.1,0.4-0.3,0.6C50.5,65.5,50.5,65.2,50.5,64.8z M44.4,67.4c-0.6-0.1-1.3-0.1-1.9-0.2c-0.4,0-1.7,0.1-1.6-0.5
		c1,0.1,4.4,1.1,4.1-0.9c0.4,0.1,1.1,0.3,1.4,0.2c0.4-0.2,0.9-0.5,1.3-0.7c0.7-0.4,1.4-0.8,2.2-1.2c0.2-0.1,0.5-0.2,0.7-0.4
		c0.3-0.1,0.1-0.1,0.4,0.1C48.8,65,46.6,66.2,44.4,67.4z M25.1,64c0.5,0.1,1,0.1,1.5,0.2c0.2,0,0.4,0,0.5,0.1
		c0.1,0.4,0.2,0.8,0.3,1.2c-0.6-0.1-1.2-0.2-1.7-0.3C25.1,65,25.2,64.4,25.1,64C25.7,64,25.2,64.1,25.1,64z M28.1,65.6
		c-0.1-0.1-0.1-0.3-0.1-0.4c1.7,0.2,3.4,0.4,5.1,0.6c1.1,0.1,2.2,0.3,3.3,0.4c0.4,0,1.2-0.1,1.2,0.5C34.4,66.3,31.3,66,28.1,65.6z
		 M40.3,66.9c-0.5-0.1-1-0.2-1.5-0.2c-0.7-0.1-0.6-0.4-0.7-1.2c0.5,0.1,1,0.1,1.5,0.2c0.2,0,0.4,0,0.5,0.1
		C40.1,66.1,40.2,66.5,40.3,66.9C39.7,66.8,40.2,66.4,40.3,66.9z M48.3,64.2c-0.5,0.3-0.6,0.3-1,0.2c-0.4-0.1-0.9-0.1-1.3-0.2
		c-0.4-0.1-0.8-0.1-1.2-0.2c-0.5-0.1-0.5,0-0.6-0.5C45.5,63.7,46.9,64,48.3,64.2z M46.9,65c-0.4,0.2-0.6,0.4-0.9,0.3
		c-0.7-0.1-1.1,0-1.3-0.7C45.3,64.7,46.1,64.9,46.9,65z M50.7,62.8c-0.2,0-0.5-0.1-0.7-0.1c0.3-0.4,0.5-0.8,0.8-1.3
		C50.7,61.9,50.6,62.4,50.7,62.8z M49.5,63.3c0.1,0,0.3,0.1,0.4,0.1c-0.3,0.1-0.5,0.4-0.8,0.3C49.2,63.6,49.4,63.4,49.5,63.3
		C49.6,63.3,49.3,63.5,49.5,63.3z M48.2,62.4c-0.3-0.1-0.6-0.1-0.9-0.2c0.5-0.5,1.1-1.1,1.6-1.6C48.6,61.2,48.4,61.8,48.2,62.4z
		 M48.1,63c0,0.2,0,0.3,0,0.5c-0.7-0.1-1.4-0.3-2-0.4c0.5-0.1,0.5-0.4,1.1-0.3C47.4,62.9,47.8,63,48.1,63z M45.7,63.1
		c-0.4-0.1-0.7-0.1-1.1-0.2c-0.6-0.1-0.7,0-0.9-0.6c0.4,0.1,0.8,0.1,1.3,0.2C45.7,62.6,45.3,62.7,45.7,63.1z M24.6,64.8
		c0.1,0,0.1,0.3,0.1,0.4c-0.4,0-0.7-0.1-1.1-0.1C24,64.9,24.1,64.6,24.6,64.8z M23,65.7c3.7,0.4,7.3,0.8,11,1.2
		c2.4,0.3,4.8,0.5,7.2,0.8c0.7,0.1,1.5,0.2,2.2,0.2c0.2,0,0.4,0,0.6,0.1c0.3,0,0.1,1.1,0.1,1.3c-3.7-0.4-7.3-0.8-11-1.2
		c-2.4-0.3-4.8-0.5-7.2-0.8c-0.7-0.1-1.5-0.2-2.2-0.2c-0.2,0-0.4,0-0.6-0.1C22.9,67,23,65.9,23,65.7C23.8,65.8,23,66.1,23,65.7z
		 M55.7,62.9c-1.4,0.8-2.8,1.6-4.2,2.4c0-0.3,0-0.6,0-0.8c0-0.4,1-0.7,1.3-0.9c1-0.5,1.9-1,2.9-1.6C55.7,62.3,55.7,62.6,55.7,62.9
		C55.6,62.9,55.7,62.7,55.7,62.9z M55,61.6c-0.9,0.5-1.9,1-2.8,1.5c0.3-0.5,0.5-1,0.6-1.5c0.1-0.4,0.2-0.3,0.6-0.3
		C54,61.4,54.5,61.5,55,61.6z M52.9,59.4c-0.4,0.2-0.6,1.8-0.7,2.2c-0.2,0.5-0.4,1.2-0.8,1.6c-0.2-0.7,0-1.6,0.1-2.2
		c0-0.2,0.6-2.1-0.2-1.7c-0.5,0.2-1,1.8-1.3,2.3c-0.3,0.6-0.7,1.2-1.1,1.6c0.1-0.7,1.9-4.4,1.5-4.7c-0.7-0.4-2.9,3.4-3.8,3.6
		c0.4-0.6,0.8-1.2,1.2-1.8c0.3-0.4,0.5-0.8,0.8-1.1c0.2-0.3,0.9-0.9,0.9-1.3c0-0.6-0.6-0.2-0.8,0c-0.3,0.4-0.6,0.8-0.9,1.2
		c-0.6,0.8-1.1,1.5-1.6,2.3c-0.1-0.6,0.5-1.5,0.8-1.9c0.6-0.9,1.3-1.8,2-2.6c0.3-0.3,0.9-0.3,1.3-0.4c0.8-0.2,1.6-0.3,2.4-0.5
		c0.6-0.1,1.3-0.2,1.9-0.4c0.5-0.1,1,1.9,1.1,2.3c0.1,0.5-0.9,0.7-1.4,0.9C53.8,59,53.3,59.2,52.9,59.4z M55.9,54.8
		c0.4,0.5,0.8,1,1.1,1.6c0.1,0.3,0.2,0.8,0.5,0.8c-0.1,0.4-0.2,0.8-0.3,1.1c-0.1,0.3-0.7,0.3-0.8-0.1c-0.1-0.4-0.2-0.7-0.3-1.1
		c-0.2-0.7-0.5-1.4-0.9-2.1C55.4,54.9,55.6,54.8,55.9,54.8C56.1,55.1,55.7,54.8,55.9,54.8z M55.1,59.1c0.2-0.1,0.3-0.1,0.5-0.2
		c0.4-0.2,0.1,0.2,0.5,0.2c0.2,0.1,0.3,0,0.5,0.2C56.1,59.3,55.6,59.2,55.1,59.1z M57.4,59.1c0.6-0.1,0.8-1.8,0.8-2.2
		c0-0.4,0.2-1.5-0.3-1.8c-0.6-0.3-0.5,0.5-0.4,0.8c-0.2-0.3-1.5-1.8-1.2-2.1c0.3-0.3,0.8-0.4,1.2-0.5c1.5-0.5,3-1.1,4.6-1.6
		c0.9-0.3,1.8-0.6,2.7-1c0.3-0.1,0.6-0.1,0.9,0c0.3,0.1,1.7,1.1,1.6,0.3c-0.1-0.5-1.3-0.9-1.7-1c-0.4-0.1-0.7,0-1.1,0.1
		c-0.1-3.1-0.3-6.3-0.3-9.4c0-1.7,0.2-3.4,0.5-5.1c0-0.3,0.4-1.2,0.1-1.5c-0.6-0.8-0.8,1.2-0.8,1.3c-0.5,3.4-0.5,6.7-0.3,10.1
		c0.1,1.5,0.1,2.9,0.2,4.4c0,0.4,0.1,0.5-0.4,0.6c-0.8,0.3-1.7,0.6-2.5,0.9c-1.2,0.4-2.5,0.9-3.7,1.3c-0.2,0.1-0.5,0.2-0.7,0.3
		c-0.3,0.1-0.7,0.3-0.9,0.6c-0.1,0.2,0,0.5-0.2,0.6c-0.2,0.1-0.4,0.1-0.6,0.2c-0.2,0.1-0.4,0.5-0.3,0.5c-0.4,0.1-0.8,0.1-1.1,0.2
		c-1,0.2-1.9,0.4-2.9,0.6c-0.1-1.3-0.1-2.7-0.2-4c0-0.8-0.9-1.9-1.2-2.6c-0.4-0.8-0.8-1.6-1.2-2.4c-0.4-0.8-1-1.5-1.3-2.3
		c0.8-0.3,2.6-0.5,2.6-1.5c0-0.8-0.1-1-0.9-1.1c-0.6-0.1-1.2-0.1-1.9-0.2c0.2-1.1,0.7-2.2,1.2-3.2c0.3-0.6,0.3-1,0.3-1.6
		c0-0.5-0.7-0.7-0.7-0.2c-0.1,0.2,0,0.6,0,0.9c0,0.7-0.7,1.5-0.9,2.1c-0.5,1.2-0.8,2.4-0.7,3.7c0.1,1.5,1.1,2.7,1.7,4
		c0.3,0.6,0.6,1.2,0.9,1.8c0.3,0.5,0.2,0.7,0.1,1.3c-0.2,1.1-0.5,2.2-0.8,3.2c-0.2,0.7-0.4,1.4-1,1.8c-0.8,0.6-1.9,1-2.8,1.4
		c-0.4,0.2-1.3,0.7-1.8,0.4c-0.3,0-0.6-1.5-0.8-1.8c-0.3-0.8-0.5-1.5-0.8-2.3c-0.1-0.2-0.4-0.8-0.2-0.9c0.3-0.1,0.5-0.3,0.8-0.4
		c0.7-0.4,1.5-1,2.2-1.2c0.8-0.2,1.8,0.3,2.4,0.8c0.2,0.2,0.9,1.2,1.1,0.4c0.1-0.5-0.9-1.1-1.3-1.3c-0.6-0.3-1.3-0.6-2-0.6
		c0.5-1.1,0.5-2.6,0.8-3.8c0.3-1.5,0.6-3,0.9-4.5c0.4-2,0.3-4.4,1.6-6.1c0.4-0.5,0.9-0.5,1.4-0.9c0.6-0.5,1.2-1,1.9-1.4
		c-0.1,1.1-0.1,2.3-0.2,3.4c0,0.4,0,0.8-0.1,1.3c-0.1,1,1.8-0.6,1.9-0.7c-0.5,1.5-1,3.3-0.4,4.8c0.3,1,2.3,1,3.1,1
		c0.4,0,1.7-0.2,1.6-0.8c-0.1-0.4-0.1-0.8-0.2-1.2c0.1-0.1,0.4-0.2,0.5-0.3c0.7-0.3,0.8-0.5,0.4-1.2c-0.5-0.7-0.8-1.5-1.2-2.2
		c0.5,0.5,1.3,1.6,1.8,0.7c0.4-0.8,0.8-1.5,1.1-2.3c0.7-1.5,1.5-3,2.2-4.5c1.1,0.6,2.1,1.3,3.2,1.9c0.7,0.5,1.4,0.4,2.1,0.7
		c3.1,1.3,3,6.6,3.3,9.4c0.2,2,0.4,4.1,0.5,6.1c0,0.8,0.1,1.5,0.1,2.3c0,0.5,0.2,1.3-0.1,1.8c-0.7,1.1-2,2-3,2.8
		c-1.6,1.2-3.4,2.4-5.3,3.2c-0.7,0.3-1.4,0.5-2.2,0.7C58.4,60,58.1,59.6,57.4,59.1C57.5,59.1,57.8,59.4,57.4,59.1z M46.3,42.2
		c0.5,0.1,2.2,0,2.2,0.5c0,0.5-1.7,0.8-2.1,1C46.2,43.2,46.2,42.7,46.3,42.2C46.8,42.2,46.2,42.7,46.3,42.2z M65.8,57.5
		c0.1,0.2,0.6,1.5,0.6,1.5c-0.7,0.3-1.3,0.6-2,0.8c-0.4,0.2-0.9,0.5-1.3,0.5c-0.7-0.1-1.4-0.2-2.1-0.3
		C62.7,59.4,64.3,58.5,65.8,57.5z"/>
	<path fill="#040000" d="M49,25.4c0.2,0.2,0.5,0.6,0.8,0.4c0.4-0.2,0-0.7-0.2-0.8c0.5-0.4,0.2-1-0.4-0.6C48.8,24.7,48.4,25,49,25.4z
		"/>
	<path fill="#040000" d="M52.1,26.4c-0.7,0.3-1.6,0.7-2.4,0.5c-0.3-0.1-0.7-0.6-1-0.4c-0.4,0.3,0.2,0.8,0.5,0.9
		c0.6,0.3,1.4,0.2,2.1,0c0.3-0.1,0.7-0.2,1-0.4C52.6,26.8,52.6,26.2,52.1,26.4C51,26.8,52.2,26.3,52.1,26.4z"/>
	<path fill="#040000" d="M53.1,19.2c0.3-0.7,1-0.5,1.5-0.1c0.2,0.2,0.5,0.7,0.7,0.7c0.7,0.2,0.2-0.7,0.1-0.9c-0.5-0.5-1.3-1-2-0.8
		c-0.3,0.1-0.6,0.3-0.8,0.6C52.3,19.1,52.8,19.7,53.1,19.2C53.2,18.8,53,19.3,53.1,19.2z"/>
	<path fill="#040000" d="M59.2,23.9c0.3,0.2,1.3-0.9,1.3-1.2C60.5,22.4,58.3,23.4,59.2,23.9C59.4,24.1,59,23.8,59.2,23.9z"/>
	<path fill="#040000" d="M54.6,23.5c0-0.4,0-1.3-0.6-1.3s-0.6,0.9-0.6,1.3c0,0.4,0,1.3,0.6,1.3S54.6,23.9,54.6,23.5z"/>
	<path fill="#040000" d="M48,23.2c-0.1-0.4-0.4-1.3-0.9-1.1c-0.6,0.1-0.4,1-0.3,1.4c0.1,0.4,0.4,1.3,0.9,1.1
		C48.2,24.5,48.1,23.6,48,23.2C47.9,22.8,48.1,23.6,48,23.2z"/>
	<path fill="#040000" d="M62.4,41.8c-1.2,0-2.3,0.1-3.5,0.1c-0.3,0-1.1-0.1-1.3,0.1c-0.2,0.2-0.2,1.5,0.2,1.6c0.8,0.3,2.1,1,2.9,0.6
		c0.6-0.3,1.2-0.6,1.8-0.9C62.9,43.1,62.9,41.8,62.4,41.8z M62.1,42.8c-0.6,0.3-1.2,0.6-1.8,0.9c-0.7-0.2-1.4-0.4-2.1-0.6
		c0-0.6,0-0.5,0.5-0.5c0.4,0,0.8,0,1.2,0c0.7,0,1.5,0,2.2-0.1C62.1,42.6,62.1,42.7,62.1,42.8C61.8,43,62.1,42.7,62.1,42.8z"/>
	<path fill="#040000" d="M71.8,50.4c1.7,1.1,1.9,4,2,5.7c0.1,1.3,0.2,2.7,0.2,4c0,0.2,0,0.4,0,0.6c0,0.4,0.6,0.6,0.7,0.1
		c0.2-2.2,0-4.7-0.4-6.9c-0.2-1.2-0.6-2.4-1.4-3.4c-0.2-0.2-0.4-0.4-0.6-0.6C71.9,49.7,71.3,50.1,71.8,50.4
		C71.8,50.4,71.6,50.3,71.8,50.4z"/>
	<path fill="#040000" d="M76.7,66.8c-0.1,0-0.3-0.2-0.4-0.2c1.3-0.7-0.6-0.9-1.1-1c0.2-0.1,1.7-0.9,0.6-1c-0.3,0-0.7-0.1-1-0.1
		c-1.5-0.2-2.9-0.4-4.4-0.6c-1.7-0.2-3.4-0.5-5.1-0.8c-0.6-0.1-1.2-0.2-1.8-0.3c-0.3-0.1-0.9-0.3-1.2-0.2c-2.4,1.4-4.9,2.7-7.3,4.1
		c-1.3,0.7-2.6,1.4-3.9,2.1c-0.8,0.4-1.5,0.8-2.2,1.3c-0.3,0.2-0.9,0.5-1,0.9c-0.1,0.4,0.5,0.4,0.7,0.5c-0.7,0.4-1.4,0.9-0.2,1.1
		c-1.5,0.8-0.1,1,0.8,1.2c1.8,0.4,3.6,0.8,5.4,1.2c2.2,0.5,4.4,1,6.7,1.5c0.4,0.1,1.3,0.5,1.7,0.2c0.2-0.2,0.5-0.3,0.7-0.5
		c4.3-2.9,8.6-5.8,12.9-8.7C76.7,67.3,77,67,76.7,66.8z M50.8,69.5c3.7-1.9,7.4-4,11-6.1c0.7-0.4,0.9-0.2,1.7-0.1
		c1.2,0.3,2.4,0.4,3.7,0.6c2.5,0.4,5,0.7,7.5,1c-1.2,0.7-2.4,1.4-3.6,2.2c-1.1,0.8-2.1,1.7-3.1,2.5c-1.8,1.4-3.9,2.5-5.9,3.6
		c-0.5,0.3-1.2,0-1.8-0.1c-1.2-0.2-2.4-0.5-3.6-0.7c-2.7-0.5-5.3-1-8-1.6C49.4,70.2,50.1,69.8,50.8,69.5
		C52.8,68.5,49.8,70,50.8,69.5z M52.7,72.2c2.2,0.4,4.4,0.9,6.5,1.3c0.8,0.2,1.6,0.3,2.3,0.5c0.4,0.1,0.7-0.2,1.1-0.4
		c2-1.1,4-2.2,5.8-3.6c1.1-0.8,2.1-1.8,3.2-2.5c0.6-0.4,1.3-0.8,1.9-1.2c0.4-0.2,0.6-0.4,0.9-0.3c0.3,0,0.6,0.1,0.9,0.2
		c-3.9,2.1-7.5,4.8-11.2,7.2c-0.6,0.4-1.2,0.8-1.7,1.2c-0.2,0.1-0.7,0-1-0.1c-0.8-0.1-1.6-0.3-2.5-0.5c-3.4-0.7-6.8-1.7-10.3-2.2
		c0.7-0.4,0.9-0.3,1.6-0.1C51.2,71.9,52,72,52.7,72.2C55.4,72.7,51.4,71.9,52.7,72.2z M62.6,76c-4.6-1-9.2-2-13.8-3.1
		c0.3-0.1,0.4-0.3,0.7-0.3c0.5,0.1,0.9,0.2,1.4,0.2c1,0.2,1.9,0.4,2.8,0.6c2.1,0.5,4.1,1.1,6.2,1.5c0.7,0.1,1.4,0.3,2.1,0.4
		c0.2,0,0.5,0.1,0.8,0c0.5-0.3,1-0.7,1.4-1c2.1-1.4,4.1-2.8,6.2-4.2c1-0.6,1.9-1.3,2.9-1.9c0.6-0.4,2-1.5,2.6-1.1
		C71.4,70,67,73,62.6,76C58.1,75.1,62.8,75.9,62.6,76z"/>
</g>
<path fill="#B5B5B6" d="M78.9,87.3c-7.4-1.3-14.8-2.6-22.2-3.8c-12.3-2.1-24.6-4.2-36.9-6.4c-3.6-0.6-7.2-1.2-10.8-1.9
	c0.2-1.2,0.4-2.4,0.6-3.5c0-0.2,0.2-0.1,0.4-0.1c1,0.2,2.1,0.4,3.1,0.5c4.6,0.8,9.1,1.6,13.7,2.4c12.5,2.2,25,4.3,37.5,6.5
	c5,0.9,10.1,1.7,15.1,2.6C79.3,84.9,79.1,86.1,78.9,87.3z"/>
<path fill="#B1B1B2" d="M28.9,57c1.2,0,1.2,1.8,0,1.8C27.7,58.8,27.7,57,28.9,57z"/>
<g>
	<path fill="#C9CACA" d="M28.8,58.4c-0.2-0.1,0.2-0.8-0.1-0.8c-0.4,0-0.2,0.7-0.5,0.8c0.1-0.3,0.1-1.2,0.4-1.3
		c0,0.2-0.1,0.4-0.1,0.5C29,57.1,28.8,58.2,28.8,58.4z"/>
	<path fill="#C9CACA" d="M29.2,57.7c0.2-0.4,0.6-0.1,0.5,0.3c0,0.2-0.5,0.8-0.6,0.3c-0.1,0.2,0,0.4-0.2,0.5c0.1-0.4,0.2-0.8,0.3-1.2
		c0,0,0.1,0,0.1,0C29.3,57.6,29.2,57.7,29.2,57.7z M29.2,58.1c-0.1,0.5,0.6,0.1,0.4-0.3C29.5,57.4,29.2,57.9,29.2,58.1z"/>
</g>
</svg>
