<?xml version="1.0" encoding="utf-8"?>
<!-- Generator: Adobe Illustrator 17.1.0, SVG Export Plug-In . SVG Version: 6.00 Build 0)  -->
<!DOCTYPE svg PUBLIC "-//W3C//DTD SVG 1.1//EN" "http://www.w3.org/Graphics/SVG/1.1/DTD/svg11.dtd">
<svg version="1.1" id="Ebene_1" xmlns="http://www.w3.org/2000/svg" xmlns:xlink="http://www.w3.org/1999/xlink" x="0px" y="0px"
	 width="100px" height="100px" viewBox="0 0 100 100" enable-background="new 0 0 100 100" xml:space="preserve">
<circle fill="#B2B2B2" cx="50" cy="50" r="50"/>
<path fill="#898989" stroke="#898989" stroke-width="0.5" stroke-linecap="round" stroke-linejoin="round" stroke-miterlimit="2.6131" d="
	M29.4,41.9c0.9-2.9,2.1-5.7,3.5-8.4c1.6-3.1,3.5-6.4,6.2-8.8c2.2-1.9,4.7-2.4,7.1-0.5c3,2.4,5.4,6,7.2,9.3c1.6,2.8,3.2,6.1,3.2,9.4
	C47.6,42.6,38.5,42.3,29.4,41.9C29.4,41.9,29.4,41.9,29.4,41.9z"/>
<path fill="#8B8B8B" stroke="#B5B5B6" stroke-width="0.5" stroke-linecap="round" stroke-linejoin="round" stroke-miterlimit="2.6131" d="
	M40.5,48.5c9.6,0,19.3-0.1,28.9-0.1c4.6,0,9.2,0,13.8-0.1c0.3,0,0.6,0,0.8,0c0,0,0-1.1,0-1.2c0-2.6,0-5.3,0-7.9c0-3.1,0-6.2,0-9.3
	c0-1,0-1.9,0-2.9c0-1.1-0.5-2.1-1-3.1c-1.4-3-3.7-6.3-7.4-6.2c-3.1,0.1-5.8,2.5-7.8,4.8c-1.8,2.1-3.3,4.4-4.4,6.9
	c-1.9-2.2-4.6-3.8-7.6-3.3c-2.9,0.5-5.4,2.4-7.3,4.5c-2.3,2.5-4.2,5.5-5.6,8.7C41.7,42.1,40.6,45.3,40.5,48.5z"/>
<path fill="#B5B5B6" stroke="#B5B5B6" stroke-width="0.5" stroke-linecap="round" stroke-linejoin="round" stroke-miterlimit="2.6131" d="
	M14.6,48.4c0-4.9,0.1-9.8,0.1-14.7c0-2,0-3.9,0-5.9c0-0.5,0.4-1.2,0.6-1.7c0.4-0.9,0.7-1.8,1.2-2.7c0.7-1.4,1.4-2.7,2.3-4
	c2.3-3.2,5.8-5.3,9.7-3.3c4,2,6.9,6.2,9.2,9.9c4.4,7,7.8,14.8,10.6,22.6c0,0.1,0.1,0.3,0.1,0.3c-0.2-0.1-0.7,0-0.8,0
	c-0.8,0-1.6,0-2.4,0c-2.7,0-5.4-0.1-8.1-0.1c-6.1-0.1-12.3-0.2-18.4-0.3C17.4,48.4,16,48.4,14.6,48.4z"/>
<path fill="#DCDDDD" stroke="#DCDDDD" stroke-width="0.5" stroke-linecap="round" stroke-linejoin="round" stroke-miterlimit="2.6131" d="
	M14.6,48.4c7.6,0,15.2,0,22.8,0c12.4,0,24.7,0,37.1,0c3.1,0,6.1,0,9.2,0c0.6,0,0.3,0.7,0.3,1.3c0,2.2,0,4.5,0,6.7
	c0,6.3,0,12.5,0,18.8c0,1.8,0,3.6,0,5.3c0,0.6-0.4,0.4-0.9,0.4c-9.6,0-19.1,0-28.7,0c-11.6,0-23.1,0-34.7,0c-1.4,0-2.7,0-4.1,0
	c-0.5,0-0.9,0.2-0.9-0.3c0-4.8,0-9.6,0-14.3C14.6,60.3,14.6,54.4,14.6,48.4z"/>
<path fill="#636262" stroke="#FFFFFF" stroke-width="0.5" stroke-linecap="round" stroke-linejoin="round" stroke-miterlimit="2.6131" d="
	M52.7,80.9c3.6-4,7.2-8.1,10.1-12.6c1.8-2.7,3.5-5.6,4.4-8.7c1-3.8-0.1-7.2-3.8-8.9c-4.6-2.2-10.1-2.1-15-2.4c5,0,9.9,0.1,14.9,0.1
	c1.8,0,3.8-0.2,5.5,0.3c4.3,1.2,8.2,4.3,11,7.8c2.5,3,4.3,6.7,4.2,10.7c0,2.6-0.1,5.2-0.1,7.8c0,0.4,0,6.1-0.1,6.1
	c-1.3,0-2.6,0-3.9,0C70.9,81,61.8,80.9,52.7,80.9z"/>
<path fill="#DCDDDD" stroke="#000000" stroke-width="0.5" stroke-linecap="round" stroke-linejoin="round" stroke-miterlimit="2.6131" d="
	M41.3,62.4c-5-1.9-10.1-3.9-15.1-5.8c2.1-4.3,4.1-8.6,6.2-12.9c1.2-2.5,3.7-4,6.2-4.7c3.8-1.1,8-0.1,10.4,3.2
	c0.6,0.7,0.9,1.6,1.4,2.4c0.9,1.6,1.7,3.2,2.6,4.7c1.3,2.4,2.5,4.7,3.8,7.1C51.6,58.4,46.4,60.4,41.3,62.4z"/>
<path stroke="#000000" stroke-width="0.5" stroke-linecap="round" stroke-linejoin="round" stroke-miterlimit="2.6131" d="
	M38.3,59.1c-2.9-1-5.9-2-8.8-3c1.4-3.4,2.8-6.8,4.2-10.2c0.3-0.7,0.6-1.4,0.8-2c0.2-0.5,0.1-0.4,0.6-0.3c1.9,0.3,3.7,0.5,5.6,0.8
	C39.9,49.2,39.1,54.1,38.3,59.1z"/>
<path fill="#E2E2E3" stroke="#000000" stroke-width="0.5" stroke-linecap="round" stroke-linejoin="round" stroke-miterlimit="2.6131" d="
	M40.7,44.2c-1.7-0.2-3.5-0.5-5.2-0.9c-0.9-0.2-1.8-0.4-2.7-0.7c-0.4-0.1-0.7-0.4-1.1-0.4c-2.2-0.3-4.5-0.5-6.7-0.8
	c2,2.4,6.6,2.4,9.4,2c0.8-0.1,1.7,0.1,2.6,0.2C38.2,43.9,39.4,44,40.7,44.2z"/>
<path fill="#898989" stroke="#898989" stroke-width="0.5" stroke-linecap="round" stroke-linejoin="round" stroke-miterlimit="2.6131" d="
	M25.9,41.8c-0.1,0-0.1,0-0.2,0c-0.5,3.2-1,6.3-1.4,9.5c-0.3,2.1-0.6,4.3-1,6.4c-0.1,0.3-0.6,2.8-0.2,2.7C24,54.2,24.9,48,25.9,41.8z
	"/>
<path fill="#B5B5B6" stroke="#C9CACA" stroke-width="0.5" stroke-linecap="round" stroke-linejoin="round" stroke-miterlimit="2.6131" d="
	M52.1,57.5c0.5-0.1,0.3,0.8,0.3,1.1c0,1,0,1.9,0,2.9c0,1,0,2,0,3c0,0.2,0.1,1.3,0,1.4c-0.4,0.3-0.3-1-0.3-1.1c0-1,0-1.9,0-2.9
	C52.1,60.4,52.1,59,52.1,57.5z"/>
<path fill="#C9CACA" stroke="#C9CACA" stroke-width="0.5" stroke-linecap="round" stroke-linejoin="round" stroke-miterlimit="2.6131" d="
	M47,61.6c0.1-0.4,0.6,0,0.9,0.2c0.8,0.4,1.5,0.8,2.3,1.2c1.2,0.6,2.4,1.2,3.6,1.8c-0.1,0.4-0.6,0-0.9-0.2c-0.8-0.4-1.5-0.8-2.3-1.2
	C49.4,62.8,48.2,62.2,47,61.6z"/>
<path fill="#B5B5B6" stroke="#C9CACA" stroke-width="0.5" stroke-linecap="round" stroke-linejoin="round" stroke-miterlimit="2.6131" d="
	M46.3,57.5c0.5-0.1,0.3,0.8,0.3,1.1c0,1,0,1.9,0,2.9c0,1,0,2,0,3c0,0.2,0.1,1.3,0,1.4c-0.4,0.3-0.3-1-0.3-1.1c0-1,0-1.9,0-2.9
	C46.3,60.3,46.3,58.9,46.3,57.5z"/>
<path stroke="#000000" stroke-width="0.5" stroke-linecap="round" stroke-linejoin="round" stroke-miterlimit="2.6131" d="
	M46.4,65.2c0.4,0,0.4,0.7,0.1,0.7C46.1,66.1,46.1,65.2,46.4,65.2z"/>
<path fill="#C9CACA" stroke="#C9CACA" stroke-width="0.5" stroke-linecap="round" stroke-linejoin="round" stroke-miterlimit="2.6131" d="
	M40.1,61.6c0.1-0.4,0.6,0,0.9,0.2c0.8,0.4,1.5,0.8,2.3,1.2c1.2,0.6,2.4,1.2,3.6,1.8c-0.1,0.4-0.6,0-0.9-0.2
	c-0.8-0.4-1.5-0.8-2.3-1.2C42.5,62.8,41.3,62.2,40.1,61.6z"/>
<path stroke="#000000" stroke-width="0.5" stroke-linecap="round" stroke-linejoin="round" stroke-miterlimit="2.6131" d="
	M52.1,65.3c0.4,0,0.4,0.7,0.1,0.7C51.9,66.1,51.8,65.3,52.1,65.3z"/>
<path fill="#C9CACA" stroke="#C9CACA" stroke-width="0.5" stroke-linecap="round" stroke-linejoin="round" stroke-miterlimit="2.6131" d="
	M46.6,61.5c0.5-0.1,0.3,0.8,0.3,1.1c0,1.1,0,2.1,0,3.2c0,1.1,0,2.2,0,3.3c0,0.2,0.2,1.4,0,1.5c-0.4,0.4-0.3-1-0.3-1.1
	c0-1.1,0-2.1,0-3.2C46.6,64.8,46.6,63.2,46.6,61.5z"/>
<path stroke="#000000" stroke-width="0.5" stroke-linecap="round" stroke-linejoin="round" stroke-miterlimit="2.6131" d="
	M46.7,70.1c0.4,0,0.4,0.8,0.1,0.8C46.4,71,46.5,70.1,46.7,70.1z"/>
<path fill="#C9CACA" stroke="#C9CACA" stroke-width="0.5" stroke-linecap="round" stroke-linejoin="round" stroke-miterlimit="2.6131" d="
	M40,61.5c0.5-0.1,0.3,0.8,0.3,1.1c0,1.1,0,2.1,0,3.2c0,1.1,0,2.2,0,3.3c0,0.2,0.2,1.4,0,1.5c-0.4,0.4-0.3-1-0.3-1.1
	c0-1.1,0-2.1,0-3.2C40,64.7,40,63.1,40,61.5z"/>
<path stroke="#000000" stroke-width="0.5" stroke-linecap="round" stroke-linejoin="round" stroke-miterlimit="2.6131" d="M40,70.1
	c0.4,0,0.4,0.8,0.1,0.8C39.8,71,39.8,70.1,40,70.1z"/>
<path fill="#EFEFEF" d="M39.5,57.1c3.4,0,6.8,0,10.3,0c0.6,0,2.6-0.4,2.9,0.2c0.7,1.3,2,2.8,2,4.4c-3.7,0-7.4,0-11.2,0
	c-1.4,0-2.8,0-4.2,0C39.1,61.7,39.4,57.4,39.5,57.1z"/>
<path fill="#B5B5B6" stroke="#B5B5B6" stroke-width="0.5" stroke-linecap="round" stroke-linejoin="round" stroke-miterlimit="2.6131" d="
	M39.3,61c4.8,0,9.7,0,14.5,0c0.2,0,0.5,0,0.7,0c0,0,0.2,0.6-0.1,0.6c-0.8,0-1.7,0-2.5,0c-3.1,0-6.2,0-9.3,0c-0.9,0-1.8,0-2.7,0
	C39.3,61.6,39.3,61.7,39.3,61z"/>
<path fill="#C9CACA" stroke="#C9CACA" stroke-width="0.5" stroke-linecap="round" stroke-linejoin="round" stroke-miterlimit="2.6131" d="
	M53.6,61.6c0.5-0.1,0.3,0.8,0.3,1.1c0,1.1,0,2.1,0,3.2c0,1.1,0,2.2,0,3.3c0,0.2,0.2,1.4,0,1.5c-0.4,0.4-0.3-1-0.3-1.1
	c0-1.1,0-2.1,0-3.2C53.6,64.9,53.6,63.3,53.6,61.6z"/>
<path stroke="#000000" stroke-width="0.5" stroke-linecap="round" stroke-linejoin="round" stroke-miterlimit="2.6131" d="
	M53.7,70.2c0.4,0,0.4,0.8,0.1,0.8C53.4,71.1,53.4,70.2,53.7,70.2z"/>
<path fill="#9FA0A0" stroke="#9FA0A0" stroke-width="0.5" stroke-linecap="round" stroke-linejoin="round" stroke-miterlimit="2.6131" d="
	M39.9,64.1c-0.1,0.5-0.3,1.2-0.3,1.7c0.1,0.8,0.2,1.7,0.3,2.5c0.2,1.1,0.3,2.2,0.5,3.3c0,0.4,0,1.5,0.5,1.5
	c-0.2-1.7-0.5-3.5-0.7-5.2c-0.1-0.7-0.2-1.5-0.3-2.2C39.8,65.3,40.5,64.2,39.9,64.1z"/>
<path fill="#9FA0A0" stroke="#9FA0A0" stroke-width="0.5" stroke-linecap="round" stroke-linejoin="round" stroke-miterlimit="2.6131" d="
	M33.3,64.2c0.1,0.5,0.3,1.2,0.3,1.7c-0.1,0.8-0.2,1.7-0.3,2.5c-0.2,1.1-0.3,2.2-0.5,3.3c0,0.4,0,1.5-0.5,1.5
	c0.2-1.7,0.5-3.5,0.7-5.2c0.1-0.7,0.2-1.5,0.3-2.2C33.4,65.4,32.7,64.3,33.3,64.2z"/>
<path fill="#727171" stroke="#000000" stroke-width="0.5" stroke-linecap="round" stroke-linejoin="round" stroke-miterlimit="2.6131" d="
	M31.9,66.7c3.1,0,6.2,0,9.3,0c-0.1,0.5-0.1,2.6-0.6,2.6c-1.4,0-2.7,0-4.1,0c-1.3,0-2.6,0-3.9,0C32.2,69.3,32,67.2,31.9,66.7z"/>
<path fill="#9FA0A0" stroke="#000000" stroke-width="0.5" stroke-linecap="round" stroke-linejoin="round" stroke-miterlimit="2.6131" d="
	M33.7,63.2c2,0,4,0,6,0c1.3,0,1.2,1,1.4,2c0.2,0.9,0.6,1.9-0.7,1.9c-2.3,0-4.7,0-7,0c-0.2,0-0.5,0-0.7,0c-0.8,0-0.7-0.5-0.6-1.1
	C32.3,65,32.2,63.2,33.7,63.2z"/>
<path fill="#9FA0A0" stroke="#9FA0A0" stroke-width="0.5" stroke-linecap="round" stroke-linejoin="round" stroke-miterlimit="2.6131" d="
	M32.1,67.8c0.1,0.5,0.3,1.2,0.3,1.7c-0.1,0.8-0.2,1.7-0.3,2.5c-0.2,1.1-0.3,2.2-0.5,3.3c0,0.4,0,1.5-0.5,1.5
	c0.2-1.7,0.5-3.5,0.7-5.2c0.1-0.7,0.2-1.5,0.3-2.2C32.2,69,31.5,67.9,32.1,67.8z"/>
<path fill="#9FA0A0" stroke="#9FA0A0" stroke-width="0.5" stroke-linecap="round" stroke-linejoin="round" stroke-miterlimit="2.6131" d="
	M41.1,67.8c-0.1,0.5-0.3,1.2-0.3,1.7c0.1,0.8,0.2,1.7,0.3,2.5c0.2,1.1,0.3,2.2,0.5,3.3c0,0.4,0,1.5,0.5,1.5
	c-0.2-1.7-0.5-3.5-0.7-5.2c-0.1-0.7-0.2-1.5-0.3-2.2C41.1,69,41.8,67.9,41.1,67.8z"/>
<path fill="#C9CACA" stroke="#C9CACA" stroke-width="0.5" stroke-linecap="round" stroke-linejoin="round" stroke-miterlimit="2.6131" d="
	M35.2,62.8c0,0.7-0.1,4.9,0.3,5C35.4,66.1,35.3,64.5,35.2,62.8z"/>
<path fill="#FDD000" stroke="#BDA7B2" stroke-width="0.5" stroke-linecap="round" stroke-linejoin="round" stroke-miterlimit="2.6131" d="
	M35.4,64.9c1.2,0,1.2,1.7,0,1.7C34.2,66.6,34.2,64.9,35.4,64.9z"/>
<path fill="#969797" stroke="#969797" stroke-width="0.5" stroke-linecap="round" stroke-linejoin="round" stroke-miterlimit="2.6131" d="
	M34.6,66.7c0.5-0.1,0.9-0.1,1.4-0.1c0.2,0,0.4,0.1,0.5,0.2c0.1,0.1,0.1,0.6-0.2,0.5c-0.5-0.1-0.9-0.1-1.4-0.1
	C34.5,67.3,34,66.9,34.6,66.7z"/>
<path fill="#DADBDB" stroke="#C7C8C8" stroke-width="0.5" stroke-linecap="round" stroke-linejoin="round" stroke-miterlimit="2.6131" d="
	M35,63c0.7-0.1,1.5,0.7,0.7,1.1c-0.4,0.2-1.1,0-1.1-0.5C34.5,63.3,34.7,63,35,63z"/>
<path fill="#FFFCDB" d="M35.2,63c0.8,0,0.8,0.9,0,0.9C34.4,63.8,34.4,63,35.2,63z"/>
<path fill="#B5B5B6" stroke="#B5B5B6" stroke-width="0.5" stroke-linecap="round" stroke-linejoin="round" stroke-miterlimit="2.6131" d="
	M35.3,64c0.3,0,1,0.2,1,0.6c0,0.2-0.8,0.2-0.9,0.3c-0.2,0-1,0.2-1-0.2C34.4,64.2,34.9,64,35.3,64z"/>
<path fill="#FFFFFF" d="M35.1,64.2c0.1-0.3,0.8,0,0.9,0.2c-0.3-0.1-0.7-0.1-0.9,0C35.1,64.3,35.1,64.3,35.1,64.2z"/>
<path fill="#FFFCDB" stroke="#C9CACA" stroke-width="0.5" stroke-linecap="round" stroke-linejoin="round" stroke-miterlimit="2.6131" d="
	M35.4,64.8c1.2,0,1.2,1.7,0,1.7C34.2,66.5,34.2,64.8,35.4,64.8z"/>
<path fill="none" stroke="#DCDDDD" stroke-width="0.25" stroke-linecap="round" stroke-linejoin="round" stroke-miterlimit="2.6131" d="
	M35.4,65c0.9,0,0.9,1.3,0,1.3C34.5,66.3,34.5,65,35.4,65z M35.4,65.1c0.7,0,0.7,1,0,1C34.7,66.2,34.7,65.1,35.4,65.1z M35.4,65.3
	c0.5,0,0.5,0.7,0,0.7C34.9,66,34.9,65.3,35.4,65.3z M35.4,65.5c0.2,0,0.2,0.3,0,0.3C35.1,65.8,35.1,65.5,35.4,65.5z"/>
<path fill="none" stroke="#C9CACA" stroke-width="0.5" stroke-linecap="round" stroke-linejoin="round" stroke-miterlimit="2.6131" d="
	M35.4,67.8c0.4,0,0.4,0.8,0,0.8C35,68.5,35,67.8,35.4,67.8z"/>
<path fill="#C9CACA" stroke="#C9CACA" stroke-width="0.5" stroke-linecap="round" stroke-linejoin="round" stroke-miterlimit="2.6131" d="
	M37.8,62.8c0,0.7-0.1,4.9,0.3,5C38,66.2,37.9,64.5,37.8,62.8z"/>
<path fill="#FDD000" stroke="#D8BFCB" stroke-width="0.5" stroke-linecap="round" stroke-linejoin="round" stroke-miterlimit="2.6131" d="
	M38,64.9c1.2,0,1.2,1.7,0,1.7C36.8,66.7,36.8,64.9,38,64.9z"/>
<path fill="#747374" stroke="#747374" stroke-width="0.5" stroke-linecap="round" stroke-linejoin="round" stroke-miterlimit="2.6131" d="
	M37.9,64.1c0.3,0,1,0.2,1,0.6c0,0.2-0.8,0.2-0.9,0.3c-0.2,0-1,0.2-1-0.2C37,64.2,37.5,64.1,37.9,64.1z"/>
<path fill="#FFFFFF" d="M37.7,64.2c0.1-0.3,0.8,0,0.9,0.2c-0.3-0.1-0.7-0.1-0.9,0C37.7,64.4,37.7,64.3,37.7,64.2z"/>
<path fill="#FFFCDB" stroke="#C9CACA" stroke-width="0.5" stroke-linecap="round" stroke-linejoin="round" stroke-miterlimit="2.6131" d="
	M38,64.9c1.2,0,1.2,1.7,0,1.7C36.8,66.5,36.8,64.9,38,64.9z"/>
<path fill="none" stroke="#EFEFEF" stroke-width="0.25" stroke-linecap="round" stroke-linejoin="round" stroke-miterlimit="2.6131" d="
	M38,65c0.9,0,0.9,1.3,0,1.3C37,66.3,37,65,38,65z M38,65.2c0.7,0,0.7,1,0,1C37.2,66.2,37.2,65.2,38,65.2z M38,65.3
	c0.5,0,0.5,0.7,0,0.7C37.5,66,37.5,65.3,38,65.3z M38,65.5c0.2,0,0.2,0.3,0,0.3C37.7,65.9,37.7,65.5,38,65.5z"/>
<path fill="none" stroke="#C9CACA" stroke-width="0.5" stroke-linecap="round" stroke-linejoin="round" stroke-miterlimit="2.6131" d="
	M38,67.8c0.4,0,0.4,0.8,0,0.8C37.5,68.6,37.5,67.8,38,67.8z"/>
<path fill="#B5B5B6" stroke="#B5B5B6" stroke-width="0.5" stroke-linecap="round" stroke-linejoin="round" stroke-miterlimit="2.6131" d="
	M38.8,63.9c-0.8,0.1-2,0.6-2-0.5c0-0.9,0.8-0.7,1.4-0.5c0.2,0.1,0.5,0.2,0.8,0.2C38.9,63.3,39,63.9,38.8,63.9z"/>
<path fill="#B5B5B6" stroke="#B5B5B6" stroke-width="0.5" stroke-linecap="round" stroke-linejoin="round" stroke-miterlimit="2.6131" d="
	M38.1,66.5c-0.3,0-1,0.2-1,0.6c0,0.2,0.8,0.2,0.9,0.3c0.2,0,1,0.2,1-0.2C39,66.7,38.5,66.5,38.1,66.5z"/>
<path fill="#9FA0A0" d="M43.2,58c0.6,0,2.2,0.2,2.2,1.1c0,0.9-1.5,1.1-2.2,1.1c-0.6,0-2.2-0.2-2.2-1.1S42.6,58,43.2,58z"/>
<path fill="#FFFFFF" stroke="#FFFFFF" stroke-width="0.5" stroke-linecap="round" stroke-linejoin="round" stroke-miterlimit="2.6131" d="
	M43.2,57.6c0.6,0,2.2,0.2,2.2,1.1c0,0.9-1.5,1.1-2.2,1.1c-0.6,0-2.2-0.2-2.2-1.1C41.1,57.8,42.6,57.6,43.2,57.6z"/>
<path fill="#DCDDDD" stroke="#DCDDDD" stroke-width="0.5" stroke-linecap="round" stroke-linejoin="round" stroke-miterlimit="2.6131" d="
	M49.2,57.2c0.2,0,1.3-0.1,1.3,0.1c0,0.5,0.2,1.4,0,1.8c0,0.5-1.3,0.5-1.3-0.1C49.2,58.4,49.2,57.8,49.2,57.2z"/>
<path fill="#B5B5B6" stroke="#DCDDDD" stroke-width="0.216" stroke-miterlimit="2.6131" d="M49.9,56.9c0.8,0,0.8,0.5,0,0.5
	C49.1,57.4,49.1,56.9,49.9,56.9z"/>
<path fill="#DCDDDD" stroke="#DCDDDD" stroke-width="0.5" stroke-linecap="round" stroke-linejoin="round" stroke-miterlimit="2.6131" d="
	M50.5,57.7c1-0.3,0.6,1,0,1.3c0.1-0.4,0.4-0.6,0.4-1.1c-0.1,0.1-0.3,0.1-0.4,0.1C50.5,57.8,50.5,57.7,50.5,57.7z"/>
<path fill="#DCDDDD" stroke="#DCDDDD" stroke-width="0.5" stroke-linecap="round" stroke-linejoin="round" stroke-miterlimit="2.6131" d="
	M48.9,57.7c-0.2,0-1.3-0.1-1.3,0.1c0,0.5-0.2,1.4,0,1.8c0,0.5,1.3,0.5,1.3-0.1C48.9,58.9,48.9,58.3,48.9,57.7z"/>
<path fill="#B5B5B6" stroke="#DCDDDD" stroke-width="0.216" stroke-miterlimit="2.6131" d="M48.3,57.4c-0.8,0-0.8,0.5,0,0.5
	C49,57.9,49,57.4,48.3,57.4z"/>
<path fill="#DCDDDD" stroke="#DCDDDD" stroke-width="0.5" stroke-linecap="round" stroke-linejoin="round" stroke-miterlimit="2.6131" d="
	M47.7,58.2c-1-0.3-0.6,1,0,1.3c-0.1-0.4-0.4-0.6-0.4-1.1c0.1,0.1,0.3,0.1,0.4,0.1C47.6,58.4,47.6,58.3,47.7,58.2z"/>
<path fill="#C9CACA" stroke="#C9CACA" stroke-width="0.5" stroke-linecap="round" stroke-linejoin="round" stroke-miterlimit="2.6131" d="
	M42.4,57.2c0.7,1,1.4,2,2.1,3c0,0,0.1,0,0.1-0.1C43.8,59.2,43.1,58.2,42.4,57.2z"/>
<path fill="#FFFFFF" stroke="#000000" stroke-width="0.5" stroke-linecap="round" stroke-linejoin="round" stroke-miterlimit="2.6131" d="
	M43.3,58.4c0.8-0.7,1.4,0.5,0.7,1.1C43.2,60.2,42.7,59,43.3,58.4z"/>
<path fill="#FFFFFF" stroke="#A2A2A2" stroke-width="0.5" stroke-linecap="round" stroke-linejoin="round" stroke-miterlimit="2.6131" d="
	M43.6,60c0.2-0.3,0.5-0.6,0.8-0.8c0.3-0.2,0.9,0,0.5,0.2c-0.3,0.2-0.6,0.5-0.9,0.7C43.8,60.4,43.3,60.4,43.6,60z"/>
<path fill="#FFFFFF" stroke="#949495" stroke-width="0.5" stroke-linecap="round" stroke-linejoin="round" stroke-miterlimit="2.6131" d="
	M42.3,57.5c0.5-0.6,1.3-0.2,0.7,0.4C42.6,58.4,41.8,58.1,42.3,57.5z"/>
<path fill="#FFFCDB" d="M42.5,57.3c0.5-0.5,0.8,0.1,0.3,0.5C42.3,58.3,42,57.7,42.5,57.3z"/>
<path fill="#B5B5B6" stroke="#B5B5B6" stroke-width="0.5" stroke-linecap="round" stroke-linejoin="round" stroke-miterlimit="2.6131" d="
	M43,57.9c0.5-0.5,1.2-0.3,0.5,0.4c-0.1,0.1-0.7,0.8-0.8,0.5C42.4,58.4,42.7,58.1,43,57.9z"/>
<path fill="#FFFFFF" d="M42.9,58.1c0-0.2,0.5-0.5,0.7-0.4c-0.2,0.1-0.5,0.3-0.6,0.5C42.9,58.2,42.9,58.2,42.9,58.1z"/>
<path fill="#FFFCDB" stroke="#D3D3D4" stroke-width="0.5" stroke-linecap="round" stroke-linejoin="round" stroke-miterlimit="2.6131" d="
	M43.3,58.4c0.8-0.7,1.3,0.5,0.7,1C43.2,60.1,42.6,58.9,43.3,58.4z"/>
<path fill="none" stroke="#E6E6E6" stroke-width="0.5" stroke-linecap="round" stroke-linejoin="round" stroke-miterlimit="2.6131" d="
	M43.4,58.5c0.6-0.5,1,0.4,0.5,0.8C43.3,59.8,42.9,58.9,43.4,58.5z M43.4,58.6c0.5-0.4,0.8,0.3,0.4,0.6C43.4,59.6,43,58.9,43.4,58.6z
	 M43.5,58.7c0.3-0.3,0.6,0.2,0.3,0.4C43.4,59.4,43.2,58.9,43.5,58.7z M43.6,58.8c0.2-0.1,0.3,0.1,0.1,0.2
	C43.5,59.1,43.4,58.9,43.6,58.8z"/>
<path fill="none" stroke="#C9CACA" stroke-width="0.5" stroke-linecap="round" stroke-linejoin="round" stroke-miterlimit="2.6131" d="
	M44.5,60.2c0.3-0.3,0.5,0.3,0.3,0.5C44.5,60.9,44.2,60.4,44.5,60.2z"/>
<path fill="#DCDDDD" stroke="#DCDDDD" stroke-width="0.5" stroke-linecap="round" stroke-linejoin="round" stroke-miterlimit="2.6131" d="
	M49.6,56.5c-0.2,0-1.1-0.1-1.1,0.1c0,0.4-0.2,1.2,0,1.6c0,0.5,1.1,0.4,1.1-0.1C49.6,57.5,49.6,57,49.6,56.5z"/>
<path fill="#B5B5B6" stroke="#DCDDDD" stroke-width="0.216" stroke-miterlimit="2.6131" d="M49,56.2c-0.7,0-0.7,0.4,0,0.4
	C49.7,56.7,49.7,56.2,49,56.2z"/>
<path fill="#DCDDDD" stroke="#DCDDDD" stroke-width="0.5" stroke-linecap="round" stroke-linejoin="round" stroke-miterlimit="2.6131" d="
	M48.5,56.9c-0.8-0.4-0.4,0.9,0,1.1c-0.1-0.4-0.4-0.5-0.4-1c0.1,0.1,0.3,0,0.4,0.1C48.4,57,48.5,57,48.5,56.9z"/>
<path fill="#DCDDDD" stroke="#000000" stroke-width="0.5" stroke-linecap="round" stroke-linejoin="round" stroke-miterlimit="2.6131" d="
	M24.8,56c2.2,0,4.5,0,6.7,0c0.4,0,0.7,0,1.1,0c0.1,0,0.1,0.6,0.1,0.7c0,0.7,0,1.3,0,2c0,0.2,0.1,1.2,0,1.3c-0.1,0.1-0.6,0-0.7,0
	c-0.6,0-1.2,0-1.7,0c-1.4,0-2.9,0-4.3,0c-0.4,0-0.7,0-1.1,0c-0.1,0-0.1-0.6-0.1-0.7C24.8,58.3,24.8,57.1,24.8,56z"/>
<path fill="#B5B5B6" stroke="#B5B5B6" stroke-width="0.5" stroke-linecap="round" stroke-linejoin="round" stroke-miterlimit="2.6131" d="
	M26.1,57.1c1.5,0,1.5,2.6,0,2.6S24.5,57.1,26.1,57.1z"/>
<path fill="#B5B5B6" stroke="#B5B5B6" stroke-width="0.5" stroke-linecap="round" stroke-linejoin="round" stroke-miterlimit="2.6131" d="
	M31.3,57.1c1.5,0,1.5,2.6,0,2.6C29.8,59.7,29.8,57.1,31.3,57.1z"/>
<path fill="#B5B5B6" stroke="#B5B5B6" stroke-width="0.5" stroke-linecap="round" stroke-linejoin="round" stroke-miterlimit="2.6131" d="
	M27.6,57c0.4,0,2-0.2,2.3,0c0.1,0.1,0.1,2.2,0,2.3c-0.1,0.1-2.2,0.1-2.3,0C27.3,59.1,27.6,57.4,27.6,57z"/>
<path fill="#9FA0A0" d="M24.8,55.9c1.5,0,3,0,4.6,0c0.9,0,1.9,0,2.8,0c0.2,0,0.4,0,0.6,0c0,0,0.1,0.8,0,0.8c-0.2,0.1-1.2,0-1.4,0
	c-1.1,0-2.1,0-3.2,0c-0.9,0-1.9,0-2.8,0C24.6,56.7,24.8,56.7,24.8,55.9z"/>
<path fill="#FFFFFF" stroke="#FFFFFF" stroke-width="0.5" stroke-linecap="round" stroke-linejoin="round" stroke-miterlimit="2.6131" d="
	M27.8,57.3c0.6,0,1.2,0,1.7,0c0.3,0,0.4,1,0.2,1.2c-0.2,0.2-1.5,0-1.7,0C27.6,58.5,27.8,57.6,27.8,57.3z"/>
<path stroke="#000000" stroke-width="0.5" stroke-linecap="round" stroke-linejoin="round" stroke-miterlimit="2.6131" d="
	M28.1,58.8c0.3,0,0.3,0.5,0,0.5C27.8,59.2,27.8,58.8,28.1,58.8z"/>
<path stroke="#000000" stroke-width="0.5" stroke-linecap="round" stroke-linejoin="round" stroke-miterlimit="2.6131" d="
	M28.7,58.8c0.3,0,0.3,0.5,0,0.5C28.5,59.2,28.5,58.8,28.7,58.8z"/>
<path stroke="#000000" stroke-width="0.5" stroke-linecap="round" stroke-linejoin="round" stroke-miterlimit="2.6131" d="
	M29.4,58.8c0.3,0,0.3,0.5,0,0.5C29.1,59.2,29.1,58.8,29.4,58.8z"/>
<path fill="#9FA0A0" stroke="#9FA0A0" stroke-width="0.5" stroke-linecap="round" stroke-linejoin="round" stroke-miterlimit="2.6131" d="
	M24.9,54.8c1.5,0,2.9,0,4.4,0c0.9,0,1.7,0,2.6,0c0.2,0,0.4,0,0.6,0c0.2,0,0.2,0.5,0,0.5c-0.2,0.2-1.2,0-1.4,0c-1,0-2,0-3,0
	c-0.9,0-1.7,0-2.6,0c-0.2,0-0.4,0-0.6,0C24.8,55.2,24.8,54.8,24.9,54.8z"/>
<path fill="#DCDDDD" stroke="#DCDDDD" stroke-width="0.5" stroke-linecap="round" stroke-linejoin="round" stroke-miterlimit="2.6131" d="
	M32.7,54.8c0.4-0.1,0.3,0.5,0.3,0.8c0,0.2,0.1,1.3,0,1.4c-0.4,0.3-0.3-0.7-0.3-0.8C32.7,55.7,32.7,55.3,32.7,54.8z"/>
<path fill="#DCDDDD" stroke="#DCDDDD" stroke-width="0.5" stroke-linecap="round" stroke-linejoin="round" stroke-miterlimit="2.6131" d="
	M24.6,54.8c0.4-0.1,0.3,0.5,0.3,0.8c0,0.2,0.1,1.3,0,1.4c-0.4,0.3-0.3-0.7-0.3-0.8C24.6,55.7,24.6,55.3,24.6,54.8z"/>
<path fill="#898989" stroke="#898989" stroke-width="0.5" stroke-linecap="round" stroke-linejoin="round" stroke-miterlimit="2.6131" d="
	M31.8,42.7c-0.1,0-0.1,0-0.2,0c-0.5,3.3-0.9,6.6-1.4,9.9c-0.3,2.3-0.7,4.6-1,6.8c-0.1,0.4-0.6,3-0.2,2.9
	C29.9,55.8,30.8,49.2,31.8,42.7z"/>
</svg>
