<?xml version="1.0" encoding="utf-8"?>
<!-- Generator: Adobe Illustrator 17.0.1, SVG Export Plug-In . SVG Version: 6.00 Build 0)  -->
<!DOCTYPE svg PUBLIC "-//W3C//DTD SVG 1.1//EN" "http://www.w3.org/Graphics/SVG/1.1/DTD/svg11.dtd">
<svg version="1.1" id="レイヤー_1" xmlns="http://www.w3.org/2000/svg" xmlns:xlink="http://www.w3.org/1999/xlink" x="0px"
	 y="0px" width="841.89px" height="595.28px" viewBox="0 0 841.89 595.28" enable-background="new 0 0 841.89 595.28"
	 xml:space="preserve">
<rect x="349.894" y="233.439" fill="#A660A3" stroke="#A660A3" stroke-width="2" stroke-miterlimit="10" width="141.732" height="141.732"/>
<path fill-rule="evenodd" clip-rule="evenodd" fill="#898989" stroke="#898989" stroke-width="0.5" stroke-linecap="round" stroke-linejoin="round" stroke-miterlimit="2.6131" d="
	M385.604,297.128c2.714-7.538,15.641-33.694,27.74-27.74c6.897,3.394,20.202,20.202,20.202,29.248L385.604,297.128L385.604,297.128z
	"/>
<path fill-rule="evenodd" clip-rule="evenodd" fill="#8B8B8B" stroke="#B5B5B6" stroke-width="0.5" stroke-linecap="round" stroke-linejoin="round" stroke-miterlimit="2.6131" d="
	M405.203,307.079l76.587-0.302v-33.168c-9.698-24.245-28.393-9.827-36.183,4.523C428.42,260.945,405.806,290.796,405.203,307.079
	L405.203,307.079z"/>
<path fill-rule="evenodd" clip-rule="evenodd" fill="#B5B5B6" stroke="#B5B5B6" stroke-width="0.5" stroke-linecap="round" stroke-linejoin="round" stroke-miterlimit="2.6131" d="
	M359.673,306.859l0.302-31.139c23.866-56.255,59.4,32.263,59.4,31.961L359.673,306.859L359.673,306.859z"/>
<polygon fill-rule="evenodd" clip-rule="evenodd" fill="#DCDDDD" stroke="#DCDDDD" stroke-width="0.5" stroke-linecap="round" stroke-linejoin="round" stroke-miterlimit="2.6131" points="
	359.647,306.91 481.632,306.91 481.632,355.922 359.647,355.922 359.647,306.91 "/>
<path fill-rule="evenodd" clip-rule="evenodd" fill="#636262" stroke="#FFFFFF" stroke-width="0.5" stroke-linecap="round" stroke-linejoin="round" stroke-miterlimit="2.6131" d="
	M426.63,355.922c50.796-47.719,16.235-47.957-7.509-49.255l33.96,0.252c12.61,1.991,28.935,15.352,28.792,27.968l-0.241,21.278
	L426.63,355.922L426.63,355.922z"/>
<path fill-rule="evenodd" clip-rule="evenodd" fill="#DCDDDD" stroke="#000000" stroke-width="0.5" stroke-linecap="round" stroke-linejoin="round" stroke-miterlimit="2.6131" d="
	M406.524,328.039l-26.618-8.784l11.18-19.964c3.993-6.654,21.206-11.712,29.546-1.065l13.043,20.762L406.524,328.039
	L406.524,328.039z"/>
<polygon fill-rule="evenodd" clip-rule="evenodd" stroke="#000000" stroke-width="0.5" stroke-linecap="round" stroke-linejoin="round" stroke-miterlimit="2.6131" points="
	401.2,322.982 385.762,318.457 394.812,299.292 405.459,300.622 401.2,322.982 "/>
<path fill-rule="evenodd" clip-rule="evenodd" fill="#E2E2E3" stroke="#000000" stroke-width="0.5" stroke-linecap="round" stroke-linejoin="round" stroke-miterlimit="2.6131" d="
	M405.492,300.584c-3.456-0.262-12.76-1.604-15.406-3.032l-12.309-1.188c4.075,4.176,16.852,3.146,17.126,2.954L405.492,300.584
	L405.492,300.584z"/>
<polygon fill-rule="evenodd" clip-rule="evenodd" fill="#898989" stroke="#898989" stroke-width="0.5" stroke-linecap="round" stroke-linejoin="round" stroke-miterlimit="2.6131" points="
	379.39,296.865 378.996,296.803 374.034,324.916 374.428,324.978 379.39,296.865 "/>
<polygon fill-rule="evenodd" clip-rule="evenodd" fill="#B5B5B6" stroke="#C9CACA" stroke-width="0.5" stroke-linecap="round" stroke-linejoin="round" stroke-miterlimit="2.6131" points="
	425.474,320.66 425.943,320.66 425.943,333.097 425.474,333.097 425.474,320.66 "/>
<polygon fill-rule="evenodd" clip-rule="evenodd" fill="#C9CACA" stroke="#C9CACA" stroke-width="0.5" stroke-linecap="round" stroke-linejoin="round" stroke-miterlimit="2.6131" points="
	416.613,326.814 416.807,326.489 428.55,331.551 428.356,331.877 416.613,326.814 "/>
<polygon fill-rule="evenodd" clip-rule="evenodd" fill="#B5B5B6" stroke="#C9CACA" stroke-width="0.5" stroke-linecap="round" stroke-linejoin="round" stroke-miterlimit="2.6131" points="
	415.361,320.556 415.831,320.556 415.831,332.992 415.361,332.992 415.361,320.556 "/>
<path fill-rule="evenodd" clip-rule="evenodd" stroke="#000000" stroke-width="0.5" stroke-linecap="round" stroke-linejoin="round" stroke-miterlimit="2.6131" d="
	M415.466,332.239h0.261c0.143,0,0.261,0.106,0.261,0.235v0.565c0,0.13-0.117,0.235-0.261,0.235h-0.261
	c-0.143,0-0.261-0.106-0.261-0.235v-0.565C415.205,332.345,415.322,332.239,415.466,332.239L415.466,332.239z"/>
<polygon fill-rule="evenodd" clip-rule="evenodd" fill="#C9CACA" stroke="#C9CACA" stroke-width="0.5" stroke-linecap="round" stroke-linejoin="round" stroke-miterlimit="2.6131" points="
	404.415,326.866 404.609,326.541 416.352,331.603 416.158,331.929 404.415,326.866 "/>
<path fill-rule="evenodd" clip-rule="evenodd" stroke="#000000" stroke-width="0.5" stroke-linecap="round" stroke-linejoin="round" stroke-miterlimit="2.6131" d="
	M425.578,332.343h0.261c0.143,0,0.261,0.106,0.261,0.236v0.565c0,0.13-0.117,0.236-0.261,0.236h-0.261
	c-0.143,0-0.261-0.106-0.261-0.236v-0.565C425.318,332.449,425.435,332.343,425.578,332.343L425.578,332.343z"/>
<polygon fill-rule="evenodd" clip-rule="evenodd" fill="#C9CACA" stroke="#C9CACA" stroke-width="0.5" stroke-linecap="round" stroke-linejoin="round" stroke-miterlimit="2.6131" points="
	415.935,326.707 416.404,326.707 416.404,340.469 415.935,340.469 415.935,326.707 "/>
<path fill-rule="evenodd" clip-rule="evenodd" stroke="#000000" stroke-width="0.5" stroke-linecap="round" stroke-linejoin="round" stroke-miterlimit="2.6131" d="
	M416.039,339.635h0.261c0.143,0,0.261,0.117,0.261,0.261v0.626c0,0.143-0.117,0.261-0.261,0.261h-0.261
	c-0.143,0-0.261-0.117-0.261-0.261v-0.626C415.778,339.752,415.896,339.635,416.039,339.635L416.039,339.635z"/>
<polygon fill-rule="evenodd" clip-rule="evenodd" fill="#C9CACA" stroke="#C9CACA" stroke-width="0.5" stroke-linecap="round" stroke-linejoin="round" stroke-miterlimit="2.6131" points="
	404.258,326.655 404.727,326.655 404.727,340.417 404.258,340.417 404.258,326.655 "/>
<path fill-rule="evenodd" clip-rule="evenodd" stroke="#000000" stroke-width="0.5" stroke-linecap="round" stroke-linejoin="round" stroke-miterlimit="2.6131" d="
	M404.362,339.582h0.261c0.143,0,0.261,0.117,0.261,0.261v0.626c0,0.143-0.117,0.261-0.261,0.261h-0.261
	c-0.143,0-0.261-0.117-0.261-0.261v-0.626C404.102,339.7,404.219,339.582,404.362,339.582L404.362,339.582z"/>
<polygon fill-rule="evenodd" clip-rule="evenodd" fill="#EFEFEF" points="403.33,319.996 426.221,319.996 429.948,325.893 
	429.948,326.917 402.855,326.911 402.781,325.871 403.33,319.996 "/>
<polygon fill-rule="evenodd" clip-rule="evenodd" fill="#B5B5B6" stroke="#B5B5B6" stroke-width="0.5" stroke-linecap="round" stroke-linejoin="round" stroke-miterlimit="2.6131" points="
	403.007,325.873 429.749,325.873 429.749,326.759 403.007,326.759 403.007,325.873 "/>
<polygon fill-rule="evenodd" clip-rule="evenodd" fill="#C9CACA" stroke="#C9CACA" stroke-width="0.5" stroke-linecap="round" stroke-linejoin="round" stroke-miterlimit="2.6131" points="
	428.185,326.863 428.654,326.863 428.654,340.625 428.185,340.625 428.185,326.863 "/>
<path fill-rule="evenodd" clip-rule="evenodd" stroke="#000000" stroke-width="0.5" stroke-linecap="round" stroke-linejoin="round" stroke-miterlimit="2.6131" d="
	M428.289,339.791h0.261c0.143,0,0.261,0.117,0.261,0.261v0.626c0,0.143-0.117,0.261-0.261,0.261h-0.261
	c-0.143,0-0.261-0.117-0.261-0.261v-0.626C428.029,339.908,428.146,339.791,428.289,339.791L428.289,339.791z"/>
<polygon fill-rule="evenodd" clip-rule="evenodd" fill="#9FA0A0" stroke="#9FA0A0" stroke-width="0.5" stroke-linecap="round" stroke-linejoin="round" stroke-miterlimit="2.6131" points="
	404.056,330.61 403.537,332.998 405.302,344.212 405.821,344.316 404.056,332.998 404.575,330.818 404.056,330.61 "/>
<polygon fill-rule="evenodd" clip-rule="evenodd" fill="#9FA0A0" stroke="#9FA0A0" stroke-width="0.5" stroke-linecap="round" stroke-linejoin="round" stroke-miterlimit="2.6131" points="
	392.53,330.714 393.05,333.102 391.284,344.316 390.765,344.42 392.53,333.102 392.011,330.922 392.53,330.714 "/>
<polygon fill-rule="evenodd" clip-rule="evenodd" fill="#727171" stroke="#000000" stroke-width="0.5" stroke-linecap="round" stroke-linejoin="round" stroke-miterlimit="2.6131" points="
	390.038,334.556 406.444,334.556 405.717,338.502 390.973,338.502 390.038,334.556 "/>
<path fill-rule="evenodd" clip-rule="evenodd" fill="#9FA0A0" stroke="#000000" stroke-width="0.5" stroke-linecap="round" stroke-linejoin="round" stroke-miterlimit="2.6131" d="
	M393.153,329.26h10.695c0.685,0,1.552,0.246,1.661,0.704l1.038,4.368c0.109,0.459-0.561,0.845-1.246,0.845h-14.121
	c-0.685,0-1.384-0.39-1.246-0.845l1.35-4.439C391.423,329.439,392.468,329.26,393.153,329.26L393.153,329.26z"/>
<polygon fill-rule="evenodd" clip-rule="evenodd" fill="#9FA0A0" stroke="#9FA0A0" stroke-width="0.5" stroke-linecap="round" stroke-linejoin="round" stroke-miterlimit="2.6131" points="
	390.454,336.217 390.973,338.605 389.208,349.819 388.689,349.923 390.454,338.605 389.935,336.425 390.454,336.217 "/>
<polygon fill-rule="evenodd" clip-rule="evenodd" fill="#9FA0A0" stroke="#9FA0A0" stroke-width="0.5" stroke-linecap="round" stroke-linejoin="round" stroke-miterlimit="2.6131" points="
	406.237,336.217 405.717,338.605 407.483,349.819 408.002,349.923 406.237,338.605 406.756,336.425 406.237,336.217 "/>
<polygon fill-rule="evenodd" clip-rule="evenodd" fill="#C9CACA" stroke="#C9CACA" stroke-width="0.5" stroke-linecap="round" stroke-linejoin="round" stroke-miterlimit="2.6131" points="
	395.864,328.608 396.174,336.206 396.392,336.206 395.864,328.608 "/>
<path fill-rule="evenodd" clip-rule="evenodd" fill="#FDD000" stroke="#BDA7B2" stroke-width="0.5" stroke-linecap="round" stroke-linejoin="round" stroke-miterlimit="2.6131" d="
	M396.199,331.782c0.919,0,1.669,0.58,1.669,1.292c0,0.712-0.75,1.292-1.669,1.292c-0.919,0-1.669-0.58-1.669-1.292
	C394.53,332.362,395.28,331.782,396.199,331.782L396.199,331.782z"/>
<path fill-rule="evenodd" clip-rule="evenodd" fill="#969797" stroke="#969797" stroke-width="0.5" stroke-linecap="round" stroke-linejoin="round" stroke-miterlimit="2.6131" d="
	M394.802,334.498c1.038-0.266,2.077-0.22,3.115,0c0.251,0.053,0.467,0.21,0.467,0.467l0,0c0,0.257-0.213,0.506-0.467,0.467
	c-1.038-0.16-2.077-0.181-3.115,0c-0.253,0.044-0.467-0.21-0.467-0.467l0,0C394.335,334.708,394.553,334.561,394.802,334.498
	L394.802,334.498z"/>
<path fill-rule="evenodd" clip-rule="evenodd" fill="#DADBDB" stroke="#C7C8C8" stroke-width="0.5" stroke-linecap="round" stroke-linejoin="round" stroke-miterlimit="2.6131" d="
	M395.41,328.91c0.311-0.048,0.623-0.048,0.934,0c0.451,0.07,0.831,0.374,0.831,0.831l0,0c0,1.287-2.596,1.029-2.596,0l0,0
	C394.579,329.284,394.958,328.98,395.41,328.91L395.41,328.91z"/>
<path fill-rule="evenodd" clip-rule="evenodd" fill="#FFFCDB" d="M395.864,328.908c0.632,0,1.148,0.289,1.148,0.643
	c0,0.354-0.516,0.643-1.148,0.643c-0.632,0-1.148-0.289-1.148-0.643C394.716,329.196,395.232,328.908,395.864,328.908
	L395.864,328.908z"/>
<path fill-rule="evenodd" clip-rule="evenodd" fill="#B5B5B6" stroke="#B5B5B6" stroke-width="0.5" stroke-linecap="round" stroke-linejoin="round" stroke-miterlimit="2.6131" d="
	M396.098,330.475c0.841,0,1.825,0.582,1.825,0.931c0,0.349-1.878,0.41-2.719,0.41c-0.841,0-0.633-0.359-0.633-0.708
	C394.571,330.76,395.257,330.475,396.098,330.475L396.098,330.475z"/>
<path fill-rule="evenodd" clip-rule="evenodd" fill="#FFFFFF" d="M395.7,330.74c0.2-0.31,1.476-0.018,1.64,0.31
	c-0.382-0.189-1.221-0.11-1.64,0V330.74L395.7,330.74z"/>
<path fill-rule="evenodd" clip-rule="evenodd" fill="#FFFCDB" stroke="#C9CACA" stroke-width="0.5" stroke-linecap="round" stroke-linejoin="round" stroke-miterlimit="2.6131" d="
	M396.176,331.672c0.887,0,1.61,0.56,1.61,1.246c0,0.686-0.723,1.246-1.61,1.246c-0.886,0-1.609-0.56-1.609-1.246
	C394.566,332.232,395.289,331.672,396.176,331.672L396.176,331.672z"/>
<path fill="none" stroke="#DCDDDD" stroke-width="0.25" stroke-linecap="round" stroke-linejoin="round" stroke-miterlimit="2.6131" d="
	M396.176,331.926c0.706,0,1.282,0.446,1.282,0.992c0,0.547-0.576,0.992-1.282,0.992c-0.706,0-1.282-0.446-1.282-0.992
	C394.894,332.372,395.47,331.926,396.176,331.926L396.176,331.926z M396.176,332.13c0.561,0,1.018,0.354,1.018,0.788
	c0,0.434-0.457,0.788-1.018,0.788c-0.561,0-1.018-0.354-1.018-0.788C395.158,332.484,395.615,332.13,396.176,332.13L396.176,332.13z
	 M396.176,332.381c0.382,0,0.693,0.241,0.693,0.537c0,0.296-0.311,0.537-0.693,0.537c-0.382,0-0.693-0.241-0.693-0.537
	C395.483,332.623,395.794,332.381,396.176,332.381L396.176,332.381z M396.176,332.655c0.188,0,0.34,0.118,0.34,0.263
	c0,0.145-0.153,0.264-0.34,0.264c-0.187,0-0.34-0.118-0.34-0.264C395.836,332.773,395.988,332.655,396.176,332.655L396.176,332.655z
	"/>
<path fill="none" stroke="#C9CACA" stroke-width="0.5" stroke-linecap="round" stroke-linejoin="round" stroke-miterlimit="2.6131" d="
	M396.174,336.115c0.321,0,0.583,0.258,0.583,0.574c0,0.316-0.262,0.574-0.583,0.574c-0.321,0-0.583-0.258-0.583-0.574
	C395.59,336.373,395.852,336.115,396.174,336.115L396.174,336.115z"/>
<polygon fill-rule="evenodd" clip-rule="evenodd" fill="#C9CACA" stroke="#C9CACA" stroke-width="0.5" stroke-linecap="round" stroke-linejoin="round" stroke-miterlimit="2.6131" points="
	400.389,328.675 400.699,336.273 400.917,336.273 400.389,328.675 "/>
<path fill-rule="evenodd" clip-rule="evenodd" fill="#FDD000" stroke="#D8BFCB" stroke-width="0.5" stroke-linecap="round" stroke-linejoin="round" stroke-miterlimit="2.6131" d="
	M400.724,331.848c0.919,0,1.669,0.581,1.669,1.292s-0.75,1.292-1.669,1.292c-0.919,0-1.669-0.581-1.669-1.292
	S399.805,331.848,400.724,331.848L400.724,331.848z"/>
<path fill-rule="evenodd" clip-rule="evenodd" fill="#747374" stroke="#747374" stroke-width="0.5" stroke-linecap="round" stroke-linejoin="round" stroke-miterlimit="2.6131" d="
	M400.623,330.542c0.841,0,1.825,0.582,1.825,0.931c0,0.349-1.878,0.41-2.719,0.41s-0.633-0.359-0.633-0.708
	C399.096,330.826,399.782,330.542,400.623,330.542L400.623,330.542z"/>
<path fill-rule="evenodd" clip-rule="evenodd" fill="#FFFFFF" d="M400.225,330.807c0.2-0.31,1.476-0.018,1.64,0.31
	c-0.382-0.189-1.221-0.11-1.64,0V330.807L400.225,330.807z"/>
<path fill-rule="evenodd" clip-rule="evenodd" fill="#FFFCDB" stroke="#C9CACA" stroke-width="0.5" stroke-linecap="round" stroke-linejoin="round" stroke-miterlimit="2.6131" d="
	M400.701,331.739c0.886,0,1.609,0.56,1.609,1.246s-0.723,1.246-1.609,1.246c-0.887,0-1.609-0.56-1.609-1.246
	S399.814,331.739,400.701,331.739L400.701,331.739z"/>
<path fill="none" stroke="#EFEFEF" stroke-width="0.25" stroke-linecap="round" stroke-linejoin="round" stroke-miterlimit="2.6131" d="
	M400.701,331.992c0.706,0,1.282,0.446,1.282,0.992s-0.576,0.992-1.282,0.992c-0.706,0-1.282-0.446-1.282-0.992
	S399.995,331.992,400.701,331.992L400.701,331.992z M400.701,332.197c0.561,0,1.018,0.354,1.018,0.788s-0.457,0.788-1.018,0.788
	c-0.561,0-1.018-0.354-1.018-0.788S400.14,332.197,400.701,332.197L400.701,332.197z M400.701,332.448
	c0.382,0,0.693,0.241,0.693,0.537s-0.311,0.537-0.693,0.537c-0.382,0-0.693-0.241-0.693-0.537S400.319,332.448,400.701,332.448
	L400.701,332.448z M400.701,332.721c0.187,0,0.34,0.118,0.34,0.263c0,0.145-0.153,0.264-0.34,0.264c-0.188,0-0.34-0.118-0.34-0.264
	C400.361,332.84,400.514,332.721,400.701,332.721L400.701,332.721z"/>
<path fill="none" stroke="#C9CACA" stroke-width="0.5" stroke-linecap="round" stroke-linejoin="round" stroke-miterlimit="2.6131" d="
	M400.699,336.182c0.321,0,0.583,0.258,0.583,0.574c0,0.316-0.262,0.574-0.583,0.574c-0.321,0-0.583-0.258-0.583-0.574
	C400.116,336.44,400.377,336.182,400.699,336.182L400.699,336.182z"/>
<path fill-rule="evenodd" clip-rule="evenodd" fill="#B5B5B6" stroke="#B5B5B6" stroke-width="0.5" stroke-linecap="round" stroke-linejoin="round" stroke-miterlimit="2.6131" d="
	M402.132,330.301l-3.194,0.333c-0.466-0.732-0.466-1.73,0.399-2.129c0.932,0,2.529,0.665,3.061,0.665
	C402.398,329.436,402.398,330.235,402.132,330.301L402.132,330.301z"/>
<path fill-rule="evenodd" clip-rule="evenodd" fill="#B5B5B6" stroke="#B5B5B6" stroke-width="0.5" stroke-linecap="round" stroke-linejoin="round" stroke-miterlimit="2.6131" d="
	M400.898,334.202c-0.841,0-1.825,0.582-1.825,0.931s1.878,0.41,2.719,0.41s0.633-0.359,0.633-0.708S401.739,334.202,400.898,334.202
	L400.898,334.202z"/>
<path fill-rule="evenodd" clip-rule="evenodd" fill="#9FA0A0" d="M409.984,321.318c2.089,0,3.793,0.747,3.793,1.664
	c0,0.916-1.704,1.664-3.793,1.664c-2.089,0-3.793-0.747-3.793-1.664C406.191,322.065,407.895,321.318,409.984,321.318
	L409.984,321.318z"/>
<path fill-rule="evenodd" clip-rule="evenodd" fill="#FFFFFF" stroke="#FFFFFF" stroke-width="0.5" stroke-linecap="round" stroke-linejoin="round" stroke-miterlimit="2.6131" d="
	M409.984,320.719c2.089,0,3.793,0.747,3.793,1.664c0,0.916-1.704,1.664-3.793,1.664c-2.089,0-3.793-0.747-3.793-1.664
	C406.191,321.466,407.895,320.719,409.984,320.719L409.984,320.719z"/>
<path fill-rule="evenodd" clip-rule="evenodd" fill="#DCDDDD" stroke="#DCDDDD" stroke-width="0.5" stroke-linecap="round" stroke-linejoin="round" stroke-miterlimit="2.6131" d="
	M420.493,320.123h2.277v2.884c-0.074,0.684-2.155,0.662-2.277,0V320.123L420.493,320.123z"/>
<path fill-rule="evenodd" clip-rule="evenodd" fill="#B5B5B6" stroke="#DCDDDD" stroke-width="0.216" stroke-miterlimit="2.6131" d="
	M421.63,319.721c0.636,0,1.154,0.173,1.154,0.385c0,0.212-0.518,0.385-1.154,0.385c-0.635,0-1.154-0.173-1.154-0.385
	C420.476,319.894,420.994,319.721,421.63,319.721L421.63,319.721z"/>
<path fill-rule="evenodd" clip-rule="evenodd" fill="#DCDDDD" stroke="#DCDDDD" stroke-width="0.5" stroke-linecap="round" stroke-linejoin="round" stroke-miterlimit="2.6131" d="
	M422.698,320.873l0.735-0.112c0.144,0,0.131,0.007,0.243,0.158c0.051,0.655-0.124,1.467-0.925,1.855v-0.191
	c0.614-0.384,0.719-0.838,0.702-1.539l-0.741,0.184L422.698,320.873L422.698,320.873z"/>
<path fill-rule="evenodd" clip-rule="evenodd" fill="#DCDDDD" stroke="#DCDDDD" stroke-width="0.5" stroke-linecap="round" stroke-linejoin="round" stroke-miterlimit="2.6131" d="
	M419.94,320.922h-2.277v2.885c0.074,0.684,2.155,0.662,2.277,0V320.922L419.94,320.922z"/>
<path fill-rule="evenodd" clip-rule="evenodd" fill="#B5B5B6" stroke="#DCDDDD" stroke-width="0.216" stroke-miterlimit="2.6131" d="
	M418.803,320.519c-0.635,0-1.154,0.173-1.154,0.385c0,0.212,0.518,0.385,1.154,0.385c0.636,0,1.154-0.173,1.154-0.385
	C419.957,320.692,419.439,320.519,418.803,320.519L418.803,320.519z"/>
<path fill-rule="evenodd" clip-rule="evenodd" fill="#DCDDDD" stroke="#DCDDDD" stroke-width="0.5" stroke-linecap="round" stroke-linejoin="round" stroke-miterlimit="2.6131" d="
	M417.734,321.671L417,321.559c-0.144,0-0.131,0.007-0.243,0.158c-0.051,0.655,0.124,1.467,0.925,1.855v-0.191
	c-0.614-0.384-0.719-0.838-0.702-1.539l0.741,0.184L417.734,321.671L417.734,321.671z"/>
<polygon fill-rule="evenodd" clip-rule="evenodd" fill="#C9CACA" stroke="#C9CACA" stroke-width="0.5" stroke-linecap="round" stroke-linejoin="round" stroke-miterlimit="2.6131" points="
	408.449,320.188 412.189,324.744 412.325,324.642 408.449,320.188 "/>
<path fill-rule="evenodd" clip-rule="evenodd" fill="#FFFFFF" stroke="#000000" stroke-width="0.5" stroke-linecap="round" stroke-linejoin="round" stroke-miterlimit="2.6131" d="
	M410.139,321.995c0.569-0.429,1.304-0.42,1.636,0.02c0.332,0.44,0.14,1.15-0.429,1.579c-0.569,0.429-1.303,0.42-1.636-0.02
	C409.377,323.133,409.57,322.424,410.139,321.995L410.139,321.995z"/>
<path fill-rule="evenodd" clip-rule="evenodd" fill="#FFFFFF" stroke="#A2A2A2" stroke-width="0.5" stroke-linecap="round" stroke-linejoin="round" stroke-miterlimit="2.6131" d="
	M410.543,324.327c0.518-0.649,1.182-1.106,1.927-1.455c0.18-0.084,0.387-0.088,0.507,0.071l0,0c0.12,0.159,0.104,0.413-0.071,0.507
	c-0.717,0.386-1.369,0.858-1.927,1.455c-0.136,0.145-0.387,0.088-0.507-0.071l0,0C410.352,324.676,410.419,324.483,410.543,324.327
	L410.543,324.327z"/>
<path fill-rule="evenodd" clip-rule="evenodd" fill="#FFFFFF" stroke="#949495" stroke-width="0.5" stroke-linecap="round" stroke-linejoin="round" stroke-miterlimit="2.6131" d="
	M408.309,320.587c0.17-0.176,0.363-0.321,0.578-0.436c0.312-0.167,0.688-0.157,0.902,0.126l0,0c0.601,0.796-1.125,1.849-1.606,1.212
	l0,0C407.97,321.206,408.063,320.841,408.309,320.587L408.309,320.587z"/>
<path fill-rule="evenodd" clip-rule="evenodd" fill="#FFFCDB" d="M408.589,320.374c0.391-0.295,0.845-0.357,1.01-0.138
	c0.165,0.219-0.019,0.638-0.41,0.934c-0.391,0.295-0.845,0.357-1.01,0.138S408.198,320.669,408.589,320.374L408.589,320.374z"/>
<path fill-rule="evenodd" clip-rule="evenodd" fill="#B5B5B6" stroke="#B5B5B6" stroke-width="0.5" stroke-linecap="round" stroke-linejoin="round" stroke-miterlimit="2.6131" d="
	M409.466,321.234c0.52-0.393,1.401-0.492,1.564-0.276c0.163,0.216-0.97,1.131-1.491,1.523c-0.52,0.393-0.559,0.074-0.722-0.142
	C408.654,322.123,408.946,321.627,409.466,321.234L409.466,321.234z"/>
<path fill-rule="evenodd" clip-rule="evenodd" fill="#FFFFFF" d="M409.343,321.584c-0.021-0.285,0.905-0.701,1.159-0.574
	c-0.325,0.061-0.807,0.502-1.014,0.766L409.343,321.584L409.343,321.584z"/>
<path fill-rule="evenodd" clip-rule="evenodd" fill="#FFFCDB" stroke="#D3D3D4" stroke-width="0.5" stroke-linecap="round" stroke-linejoin="round" stroke-miterlimit="2.6131" d="
	M410.073,321.938c0.548-0.414,1.257-0.405,1.578,0.019c0.321,0.424,0.135,1.108-0.414,1.522c-0.548,0.414-1.257,0.405-1.578-0.019
	C409.339,323.036,409.525,322.352,410.073,321.938L410.073,321.938z"/>
<path fill="none" stroke="#E6E6E6" stroke-width="0.5" stroke-linecap="round" stroke-linejoin="round" stroke-miterlimit="2.6131" d="
	M410.192,322.095c0.437-0.33,1.001-0.323,1.256,0.015c0.255,0.338,0.107,0.883-0.329,1.212c-0.437,0.33-1.001,0.323-1.256-0.015
	C409.607,322.969,409.755,322.425,410.192,322.095L410.192,322.095z M410.287,322.221c0.347-0.262,0.795-0.256,0.998,0.012
	c0.203,0.268,0.085,0.701-0.262,0.963c-0.347,0.262-0.795,0.256-0.998-0.012C409.823,322.916,409.94,322.483,410.287,322.221
	L410.287,322.221z M410.405,322.377c0.236-0.178,0.541-0.175,0.68,0.008c0.138,0.183,0.058,0.477-0.178,0.656
	c-0.236,0.178-0.542,0.175-0.68-0.008C410.088,322.85,410.168,322.555,410.405,322.377L410.405,322.377z M410.532,322.546
	c0.116-0.088,0.266-0.086,0.334,0.004c0.068,0.09,0.029,0.234-0.087,0.322c-0.116,0.087-0.266,0.086-0.334-0.004
	C410.377,322.778,410.416,322.633,410.532,322.546L410.532,322.546z"/>
<path fill="none" stroke="#C9CACA" stroke-width="0.5" stroke-linecap="round" stroke-linejoin="round" stroke-miterlimit="2.6131" d="
	M412.147,324.688c0.199-0.15,0.481-0.113,0.629,0.083c0.148,0.196,0.106,0.477-0.093,0.627c-0.199,0.15-0.481,0.113-0.629-0.083
	C411.907,325.119,411.948,324.837,412.147,324.688L412.147,324.688z"/>
<path fill-rule="evenodd" clip-rule="evenodd" fill="#DCDDDD" stroke="#DCDDDD" stroke-width="0.5" stroke-linecap="round" stroke-linejoin="round" stroke-miterlimit="2.6131" d="
	M421.078,319.075h-1.997v2.53c0.065,0.6,1.89,0.581,1.997,0V319.075L421.078,319.075z"/>
<path fill-rule="evenodd" clip-rule="evenodd" fill="#B5B5B6" stroke="#DCDDDD" stroke-width="0.216" stroke-miterlimit="2.6131" d="
	M420.081,318.723c-0.558,0-1.012,0.152-1.012,0.338c0,0.186,0.455,0.337,1.012,0.337c0.557,0,1.012-0.152,1.012-0.337
	C421.094,318.874,420.639,318.723,420.081,318.723L420.081,318.723z"/>
<path fill-rule="evenodd" clip-rule="evenodd" fill="#DCDDDD" stroke="#DCDDDD" stroke-width="0.5" stroke-linecap="round" stroke-linejoin="round" stroke-miterlimit="2.6131" d="
	M419.144,319.733l-0.644-0.098c-0.127,0-0.115,0.006-0.213,0.139c-0.045,0.574,0.108,1.287,0.811,1.627v-0.167
	c-0.539-0.336-0.631-0.735-0.616-1.35l0.65,0.162L419.144,319.733L419.144,319.733z"/>
<polygon fill-rule="evenodd" clip-rule="evenodd" fill="#DCDDDD" stroke="#000000" stroke-width="0.5" stroke-linecap="round" stroke-linejoin="round" stroke-miterlimit="2.6131" points="
	377.543,318.377 391.378,318.377 391.378,324.465 377.543,324.465 377.543,318.377 "/>
<path fill-rule="evenodd" clip-rule="evenodd" fill="#B5B5B6" stroke="#B5B5B6" stroke-width="0.5" stroke-linecap="round" stroke-linejoin="round" stroke-miterlimit="2.6131" d="
	M379.77,320.004c1.143,0,2.075,0.87,2.075,1.937s-0.932,1.937-2.075,1.937c-1.143,0-2.075-0.87-2.075-1.937
	S378.627,320.004,379.77,320.004L379.77,320.004z"/>
<path fill-rule="evenodd" clip-rule="evenodd" fill="#B5B5B6" stroke="#B5B5B6" stroke-width="0.5" stroke-linecap="round" stroke-linejoin="round" stroke-miterlimit="2.6131" d="
	M389.039,320.037c1.143,0,2.075,0.87,2.075,1.937c0,1.067-0.932,1.937-2.075,1.937c-1.143,0-2.075-0.87-2.075-1.937
	C386.964,320.907,387.896,320.037,389.039,320.037L389.039,320.037z"/>
<polygon fill-rule="evenodd" clip-rule="evenodd" fill="#B5B5B6" stroke="#B5B5B6" stroke-width="0.5" stroke-linecap="round" stroke-linejoin="round" stroke-miterlimit="2.6131" points="
	382.444,319.933 386.457,319.933 386.457,323.422 382.444,323.422 382.444,319.933 "/>
<polygon fill-rule="evenodd" clip-rule="evenodd" fill="#9FA0A0" points="377.477,318.239 391.451,318.239 391.451,319.484 
	377.477,319.484 377.477,318.239 "/>
<polygon fill-rule="evenodd" clip-rule="evenodd" fill="#FFFFFF" stroke="#FFFFFF" stroke-width="0.5" stroke-linecap="round" stroke-linejoin="round" stroke-miterlimit="2.6131" points="
	382.777,320.312 386.2,320.312 386.2,322.122 382.777,322.122 382.777,320.312 "/>
<path fill-rule="evenodd" clip-rule="evenodd" stroke="#000000" stroke-width="0.5" stroke-linecap="round" stroke-linejoin="round" stroke-miterlimit="2.6131" d="
	M383.345,322.534c0.195,0,0.354,0.159,0.354,0.354c0,0.195-0.159,0.354-0.354,0.354c-0.195,0-0.354-0.159-0.354-0.354
	C382.991,322.692,383.15,322.534,383.345,322.534L383.345,322.534z"/>
<path fill-rule="evenodd" clip-rule="evenodd" stroke="#000000" stroke-width="0.5" stroke-linecap="round" stroke-linejoin="round" stroke-miterlimit="2.6131" d="
	M384.481,322.534c0.195,0,0.354,0.159,0.354,0.354c0,0.195-0.159,0.354-0.354,0.354c-0.195,0-0.354-0.159-0.354-0.354
	C384.127,322.692,384.286,322.534,384.481,322.534L384.481,322.534z"/>
<path fill-rule="evenodd" clip-rule="evenodd" stroke="#000000" stroke-width="0.5" stroke-linecap="round" stroke-linejoin="round" stroke-miterlimit="2.6131" d="
	M385.633,322.517c0.195,0,0.354,0.159,0.354,0.354c0,0.195-0.159,0.354-0.354,0.354s-0.354-0.159-0.354-0.354
	C385.279,322.676,385.438,322.517,385.633,322.517L385.633,322.517z"/>
<path fill-rule="evenodd" clip-rule="evenodd" fill="#9FA0A0" stroke="#9FA0A0" stroke-width="0.5" stroke-linecap="round" stroke-linejoin="round" stroke-miterlimit="2.6131" d="
	M377.774,316.493h13.381c0.1,0,0.181,0.081,0.181,0.181v0.329c0,0.1-0.081,0.181-0.181,0.181h-13.381
	c-0.1,0-0.181-0.081-0.181-0.181v-0.329C377.593,316.575,377.674,316.493,377.774,316.493L377.774,316.493z"/>
<polygon fill-rule="evenodd" clip-rule="evenodd" fill="#DCDDDD" stroke="#DCDDDD" stroke-width="0.5" stroke-linecap="round" stroke-linejoin="round" stroke-miterlimit="2.6131" points="
	391.421,316.583 391.871,316.583 391.871,319.879 391.421,319.879 391.421,316.583 "/>
<polygon fill-rule="evenodd" clip-rule="evenodd" fill="#DCDDDD" stroke="#DCDDDD" stroke-width="0.5" stroke-linecap="round" stroke-linejoin="round" stroke-miterlimit="2.6131" points="
	377.188,316.583 377.638,316.583 377.638,319.879 377.188,319.879 377.188,316.583 "/>
<polygon fill-rule="evenodd" clip-rule="evenodd" fill="#898989" stroke="#898989" stroke-width="0.5" stroke-linecap="round" stroke-linejoin="round" stroke-miterlimit="2.6131" points="
	389.837,298.266 389.444,298.2 384.482,327.867 384.875,327.932 389.837,298.266 "/>
</svg>
