<?xml version="1.0" encoding="utf-8"?>
<!-- Generator: Adobe Illustrator 17.1.0, SVG Export Plug-In . SVG Version: 6.00 Build 0)  -->
<!DOCTYPE svg PUBLIC "-//W3C//DTD SVG 1.1//EN" "http://www.w3.org/Graphics/SVG/1.1/DTD/svg11.dtd">
<svg version="1.1" id="Ebene_1" xmlns="http://www.w3.org/2000/svg" xmlns:xlink="http://www.w3.org/1999/xlink" x="0px" y="0px"
	 width="100px" height="100px" viewBox="0 0 100 100" enable-background="new 0 0 100 100" xml:space="preserve">
<circle fill="#B2B2B2" cx="50" cy="50" r="50"/>
<path fill="#D5D5D6" d="M20.4,26.1c5,0,9.9,0,14.9,0c0.7,0,1.4,0,2.2,0c0.1,0,0,0.5,0,0.6c0,1.8,0,3.6,0,5.4c0,10.3,0,20.6,0,30.8
	c0,0.1-12.9,0.1-14,0.1c-0.9,0-1.9,0-2.8,0c-0.3,0-0.3,0-0.3-0.3c0-1.6,0-3.2,0-4.8c0-10.5,0-21.1,0-31.6
	C20.4,26.3,20.4,26.2,20.4,26.1z"/>
<path fill="#A8A9A9" d="M43,39.7c2.4,0,4.8,0,7.2,0c1.1,0,2.2,0,3.3,0c0.3,0,0.2,0.5,0.2,0.8c0,5.6,0,11.3,0,16.9c0,0.3,0,4.4,0,4.4
	c-2.5,0-5,0-7.6,0c-1,0-2,0-3.1,0c-0.2,0-0.1-0.8-0.1-1c0-2.5,0-5.1,0-7.6C43,48.8,43,44.3,43,39.7z"/>
<g>
	<path fill="#FFFFFF" d="M23.3,30.3c0.7,0,1.4,0,2.2,0c0.6,0,0.4,0.3,0.4,0.8c0,0.9,0,1.9,0,2.8c0,0.2,0.2,1.5,0,1.7
		c-0.2,0.2-1.8,0-2.2,0c-0.6,0-0.4-0.3-0.4-0.8C23.3,33.3,23.3,31.8,23.3,30.3z"/>
	<path fill="#FFFFFF" d="M23.3,39.3c0.7,0,1.4,0,2.2,0c0.6,0,0.4,0.3,0.4,0.8c0,0.9,0,1.9,0,2.8c0,0.2,0.2,1.5,0,1.7
		c-0.2,0.2-1.8,0-2.2,0c-0.6,0-0.4-0.3-0.4-0.8C23.3,42.3,23.3,40.8,23.3,39.3z"/>
	<path fill="#FFFFFF" d="M23.3,48.3c0.7,0,1.4,0,2.2,0c0.6,0,0.4,0.3,0.4,0.8c0,0.9,0,1.9,0,2.8c0,0.2,0.2,1.5,0,1.7
		c-0.2,0.2-1.8,0-2.2,0c-0.6,0-0.4-0.3-0.4-0.8C23.3,51.3,23.3,49.8,23.3,48.3z"/>
	<path fill="#FFFFFF" d="M28.1,30.3c0.7,0,1.4,0,2.2,0c0.6,0,0.4,0.3,0.4,0.8c0,0.9,0,1.9,0,2.8c0,0.2,0.2,1.5,0,1.7
		c-0.2,0.2-1.8,0-2.2,0c-0.6,0-0.4-0.3-0.4-0.8C28.1,33.3,28.1,31.8,28.1,30.3z"/>
	<path fill="#FFFFFF" d="M28.1,39.3c0.7,0,1.4,0,2.2,0c0.6,0,0.4,0.3,0.4,0.8c0,0.9,0,1.9,0,2.8c0,0.2,0.2,1.5,0,1.7
		c-0.2,0.2-1.8,0-2.2,0c-0.6,0-0.4-0.3-0.4-0.8C28.1,42.3,28.1,40.8,28.1,39.3z"/>
	<path fill="#FFFFFF" d="M28.1,48.3c0.7,0,1.4,0,2.2,0c0.6,0,0.4,0.3,0.4,0.8c0,0.9,0,1.9,0,2.8c0,0.2,0.2,1.5,0,1.7
		c-0.2,0.2-1.8,0-2.2,0c-0.6,0-0.4-0.3-0.4-0.8C28.1,51.3,28.1,49.8,28.1,48.3z"/>
	<path fill="#FFFFFF" d="M32.9,30.3c0.7,0,1.4,0,2.2,0c0.6,0,0.4,0.3,0.4,0.8c0,0.9,0,1.9,0,2.8c0,0.2,0.2,1.5,0,1.7
		c-0.2,0.2-1.8,0-2.2,0c-0.6,0-0.4-0.3-0.4-0.8C32.9,33.3,32.9,31.8,32.9,30.3z"/>
	<path fill="#FFFFFF" d="M32.9,39.3c0.7,0,1.4,0,2.2,0c0.6,0,0.4,0.3,0.4,0.8c0,0.9,0,1.9,0,2.8c0,0.2,0.2,1.5,0,1.7
		c-0.2,0.2-1.8,0-2.2,0c-0.6,0-0.4-0.3-0.4-0.8C32.9,42.3,32.9,40.8,32.9,39.3z"/>
	<path fill="#FFFFFF" d="M32.9,48.3c0.7,0,1.4,0,2.2,0c0.6,0,0.4,0.3,0.4,0.8c0,0.9,0,1.9,0,2.8c0,0.2,0.2,1.5,0,1.7
		c-0.2,0.2-1.8,0-2.2,0c-0.6,0-0.4-0.3-0.4-0.8C32.9,51.3,32.9,49.8,32.9,48.3z"/>
</g>
<path fill="#898989" d="M59,26.1c4.9,0,9.9,0,14.8,0c0.3,0,4.6,0,4.6,0c0,1.2,0,2.4,0,3.6c0,10.8,0,21.7,0,32.5c0,0,0,0.7,0,0.7
	c-0.6,0-1.2,0-1.7,0c-2.9,0-5.8,0-8.7,0c-2.7,0-5.3,0-8,0c-0.1,0-0.9,0.1-0.9-0.1c0-0.4,0-0.8,0-1.2c0-11,0-22,0-32.9
	C59,27.9,59,27,59,26.1z"/>
<path fill="#FFFFFF" d="M80.1,18.5c3.5,0,5,4.3,5,7.2s-1.5,7.2-5,7.2c-3.5,0-5-4.3-5-7.2S76.7,18.5,80.1,18.5z"/>
<path fill="#FFFFFF" d="M63.5,30.1c2.4,0,4.8,0,7.2,0c1.1,0,2.2,0,3.3,0c0.4,0,0.2,2,0.2,2.4c0,0.2,0,3.2,0,3.2c-0.9,0-1.8,0-2.8,0
	c-2.6,0-5.2,0-7.9,0C63.4,35.6,63.5,30.7,63.5,30.1z"/>
<path fill="#FFFFFF" d="M63.5,39.3c2.4,0,4.8,0,7.2,0c1.1,0,2.2,0,3.3,0c0.4,0,0.2,2,0.2,2.4c0,0.2,0,3.2,0,3.2c-0.9,0-1.8,0-2.8,0
	c-2.6,0-5.2,0-7.9,0C63.4,44.8,63.5,39.9,63.5,39.3z"/>
<path fill="#FFFFFF" d="M64.5,55.9c2.5,0,4.9,0,7.4,0c1,0,0.9-0.1,0.9,1c0,1.5,0,3,0,4.5c0,1,0.1,1-0.9,1c-1.5,0-3,0-4.5,0
	c-0.7,0-1.3,0-2,0c-0.1,0-0.8,0.1-0.9,0c-0.1-0.1,0-0.8,0-1c0-0.8,0-1.6,0-2.4C64.5,58,64.5,56.9,64.5,55.9z"/>
<g>
	<g>
		<path fill="#040000" d="M20.1,24.7c0,9.9,0,19.8,0,29.8c0,2.3,0,4.6,0,7c0,0.3-0.2,2.2,0.2,2.2c5.3,0,10.6,0,16,0
			c0.7,0,1.4,0,2.2,0c0.2,0,0.1-0.4,0.1-0.5c0-1.7,0-3.4,0-5.1c0-6.2,0-12.4,0-18.6c0-4.7,0-9.4,0-14.1c0-0.4,0.2-0.6-0.3-0.6
			c-0.6,0-1.1,0-1.7,0c-2.9,0-5.7,0-8.6,0C25.3,24.7,22.7,24.7,20.1,24.7z M36.8,61.3c-2.7,0-5.5,0-8.2,0c-1.6,0-3.3,0-4.9,0
			c-0.4,0-2,0.2-2-0.2c0-5.1,0-10.3,0-15.4c0-5.8,0-11.6,0-17.5c0-0.5-0.2-1.2,0.3-1.2c1.2,0,2.4,0,3.7,0c3.3,0,6.6,0,9.9,0
			c0.4,0,0.8,0,1.2,0c0.2,0,0.1,0.3,0.1,0.5c0,0.8,0,1.6,0,2.4c0,2.9,0,5.7,0,8.6c0,6.5,0,12.9,0,19.4
			C36.8,59.1,36.8,60.2,36.8,61.3C35.5,61.3,36.8,59.2,36.8,61.3z"/>
		<path fill="#040000" d="M62.5,38.6c0,2.4,0,4.8,0,7.2c0,0.6,0.7,0.3,1.2,0.3c1.4,0,2.8,0,4.2,0c2.4,0,4.9,0,7.3,0
			c0.1,0,0-6.3,0-6.9c0-0.4,0.1-0.6-0.3-0.6c-0.3,0-0.5,0-0.8,0c-1.3,0-2.6,0-3.9,0C67.7,38.6,65.1,38.6,62.5,38.6z M70.1,40.9
			c0,0.7,0,1.3,0,2c0,0.3,0,0.6,0,0.8c0,0-2.1,0-2.3,0c-0.2-0.3,0-1.7,0-2c0-0.3,0-0.6,0-0.8C67.7,40.9,69.9,40.9,70.1,40.9z
			 M64.1,40.9c0.4,0,2-0.1,2,0.1c0,0.7,0,1.4,0,2c0,0.2,0,0.4,0,0.6c0,0.1-1,0.1-1.2,0.1c-0.8,0-0.8,0.1-0.8-0.7
			C64.1,42.3,64.1,41.6,64.1,40.9C64.5,40.9,64.1,41.9,64.1,40.9z M73.7,43.8c-0.4,0-2,0.1-2-0.1c0-0.7,0-1.4,0-2c0-0.2,0-0.4,0-0.6
			c0-0.1,1-0.1,1.2-0.1c0.8,0,0.8-0.1,0.8,0.7C73.7,42.3,73.7,43,73.7,43.8C73.4,43.8,73.7,42.8,73.7,43.8z"/>
		<path fill="#040000" d="M26.6,29.2c-0.9,0-1.9,0-2.8,0c-0.1,0-1,0-1,0c0,0.3,0,0.6,0,1c0,2.2,0,4.4,0,6.7c0,0,2.9,0,3.1,0
			c0.1,0,0.7,0.1,0.7-0.1c0-0.4,0-0.7,0-1.1C26.6,33.6,26.6,31.4,26.6,29.2z M25,34.5c-0.7,0-0.7,0-0.7-0.8c0-0.8,0-1.5,0-2.3
			c0.7,0,0.7,0,0.7,0.8C25,33,25,33.8,25,34.5C24.7,34.5,25,33.5,25,34.5z"/>
		<path fill="#040000" d="M31.3,29.2c-0.9,0-1.9,0-2.8,0c-0.1,0-1,0-1,0c0,0.3,0,0.6,0,1c0,2.2,0,4.4,0,6.7c0,0,2.9,0,3.1,0
			c0.1,0,0.7,0.1,0.7-0.1c0-0.4,0-0.7,0-1.1C31.3,33.6,31.3,31.4,31.3,29.2z M29.7,34.5c-0.7,0-0.7,0-0.7-0.8c0-0.8,0-1.5,0-2.3
			c0.7,0,0.7,0,0.7,0.8C29.7,33,29.7,33.8,29.7,34.5C29.4,34.5,29.7,33.5,29.7,34.5z"/>
		<path fill="#040000" d="M36.1,29.2c-0.9,0-1.9,0-2.8,0c-0.1,0-1,0-1,0c0,0.3,0,0.6,0,1c0,2.2,0,4.4,0,6.7c0,0,2.9,0,3.1,0
			c0.1,0,0.7,0.1,0.7-0.1c0-0.4,0-0.7,0-1.1C36.1,33.6,36.1,31.4,36.1,29.2z M34.5,34.5c-0.7,0-0.7,0-0.7-0.8c0-0.8,0-1.5,0-2.3
			c0.7,0,0.7,0,0.7,0.8C34.5,33,34.5,33.8,34.5,34.5C34.2,34.5,34.5,33.5,34.5,34.5z"/>
		<path fill="#040000" d="M26.6,38.3c-0.9,0-1.9,0-2.8,0c-0.1,0-1,0-1,0c0,0.3,0,0.6,0,1c0,2.2,0,4.4,0,6.7c0,0,2.9,0,3.1,0
			c0.1,0,0.7,0.1,0.7-0.1c0-0.4,0-0.7,0-1.1C26.6,42.6,26.6,40.4,26.6,38.3z M25,43.6c-0.7,0-0.7,0-0.7-0.8c0-0.8,0-1.5,0-2.3
			c0.7,0,0.7,0,0.7,0.8C25,42.1,25,42.9,25,43.6C24.7,43.6,25,42.6,25,43.6z"/>
		<path fill="#040000" d="M31.3,38.3c-0.9,0-1.9,0-2.8,0c-0.1,0-1,0-1,0c0,0.3,0,0.6,0,1c0,2.2,0,4.4,0,6.7c0,0,2.9,0,3.1,0
			c0.1,0,0.7,0.1,0.7-0.1c0-0.4,0-0.7,0-1.1C31.3,42.6,31.3,40.4,31.3,38.3z M29.7,43.6c-0.7,0-0.7,0-0.7-0.8c0-0.8,0-1.5,0-2.3
			c0.7,0,0.7,0,0.7,0.8C29.7,42.1,29.7,42.9,29.7,43.6C29.4,43.6,29.7,42.6,29.7,43.6z"/>
		<path fill="#040000" d="M36.1,38.3c-0.9,0-1.9,0-2.8,0c-0.1,0-1,0-1,0c0,0.3,0,0.6,0,1c0,2.2,0,4.4,0,6.7c0,0,2.9,0,3.1,0
			c0.1,0,0.7,0.1,0.7-0.1c0-0.4,0-0.7,0-1.1C36.1,42.6,36.1,40.4,36.1,38.3z M34.5,43.6c-0.7,0-0.7,0-0.7-0.8c0-0.8,0-1.5,0-2.3
			c0.7,0,0.7,0,0.7,0.8C34.5,42.1,34.5,42.9,34.5,43.6C34.2,43.6,34.5,42.6,34.5,43.6z"/>
		<path fill="#040000" d="M26.6,47.3c-0.9,0-1.9,0-2.8,0c-0.1,0-1,0-1,0c0,0.3,0,0.6,0,1c0,2.2,0,4.4,0,6.7c0,0,2.9,0,3.1,0
			c0.1,0,0.7,0.1,0.7-0.1c0-0.4,0-0.7,0-1.1C26.6,51.7,26.6,49.5,26.6,47.3z M25,52.7c-0.7,0-0.7,0-0.7-0.8c0-0.8,0-1.5,0-2.3
			c0.7,0,0.7,0,0.7,0.8C25,51.2,25,51.9,25,52.7C24.7,52.7,25,51.6,25,52.7z"/>
		<path fill="#040000" d="M31.3,47.3c-0.9,0-1.9,0-2.8,0c-0.1,0-1,0-1,0c0,0.3,0,0.6,0,1c0,2.2,0,4.4,0,6.7c0,0,2.9,0,3.1,0
			c0.1,0,0.7,0.1,0.7-0.1c0-0.4,0-0.7,0-1.1C31.3,51.7,31.3,49.5,31.3,47.3z M29.7,52.7c-0.7,0-0.7,0-0.7-0.8c0-0.8,0-1.5,0-2.3
			c0.7,0,0.7,0,0.7,0.8C29.7,51.2,29.7,51.9,29.7,52.7C29.4,52.7,29.7,51.6,29.7,52.7z"/>
		<path fill="#040000" d="M36.1,47.3c-0.9,0-1.9,0-2.8,0c-0.1,0-1,0-1,0c0,0.3,0,0.6,0,1c0,2.2,0,4.4,0,6.7c0,0,2.9,0,3.1,0
			c0.1,0,0.7,0.1,0.7-0.1c0-0.4,0-0.7,0-1.1C36.1,51.7,36.1,49.5,36.1,47.3z M34.5,52.7c-0.7,0-0.7,0-0.7-0.8c0-0.8,0-1.5,0-2.3
			c0.7,0,0.7,0,0.7,0.8C34.5,51.2,34.5,51.9,34.5,52.7C34.2,52.7,34.5,51.6,34.5,52.7z"/>
		<path fill="#040000" d="M41.9,38.5c0,4.6,0,9.2,0,13.8c0,2.9,0,5.8,0,8.6c0,0.7,0,1.5,0,2.2c0,0.4,0.2,0.3,0.6,0.3
			c2.9,0,5.7,0,8.6,0c1.1,0,2.3,0,3.4,0c0.5,0,0.4,0,0.4-0.5c0-5.4,0-10.8,0-16.2c0-2.2,0-4.3,0-6.5c0-0.5,0-1,0-1.6
			c0-0.4-0.6-0.2-0.9-0.2C49.9,38.5,45.9,38.5,41.9,38.5z M53.3,40.8c0,0.2,0.1,0.7-0.1,0.8c-0.2,0.1-0.4,0.2-0.6,0.3
			c-0.6,0.3-1.1,0.6-1.7,0.8c-0.4,0.2-2,1.3-2.4,1.1c-0.9-0.4-1.8-0.8-2.7-1.2c-0.5-0.2-1.1-0.5-1.6-0.7c-0.7-0.3-0.7-0.4-0.7-1.2
			C46.8,40.8,50,40.8,53.3,40.8C53.3,41,52,40.8,53.3,40.8z M43.5,61.1c0-5.7,0-11.4,0-17c1.7,0.7,3.3,1.5,5,2.2
			c0.3,0.1,1.9-0.9,2.2-1.1c0.8-0.4,1.7-0.8,2.5-1.3c0,5.3,0,10.7,0,16c0,0.3,0,0.6,0,0.9c0,0.3-0.2,0.2-0.5,0.2c-1,0-2.1,0-3.1,0
			C47.6,61.1,45.6,61.1,43.5,61.1C43.5,59.6,44.8,61.1,43.5,61.1z"/>
		<path fill="#040000" d="M79.9,17.8c-2.1,0-3.7,1.7-4.6,3.5c-0.5,1.1-0.8,2.3-1,3.5c-0.1,0.1-0.5,0-0.6,0c-2.8,0-5.5,0-8.3,0
			c-2.1,0-4.2,0-6.2,0c-0.7,0-0.8-0.2-0.8,0.4c0,0.6,0,1.2,0,1.9c0,11.2,0,22.5,0,33.7c0,0.2,0,2.9,0,2.9c1.7,0,3.5,0,5.2,0
			c5.1,0,10.2,0,15.4,0c0.1,0,0-25.9,0-28.4c0-0.4,0-0.8,0-1.2c4.1,0.9,6.3-4.2,6.4-7.4C85.7,23.2,84.1,17.8,79.9,17.8z M69.5,56.9
			c0,0.9,0,1.9,0,2.8c0,0.5,0,1,0,1.5c0,0.4-1.4,0.2-1.4,0.1c0-1.1,0-2.3,0-3.4c0-0.2-0.1-0.8,0-0.9C68.2,56.7,69.2,56.9,69.5,56.9z
			 M71.1,56.9c0.5,0,0.9,0,1.4,0c0.1,0,0,0.7,0,0.8c0,1.2,0,2.4,0,3.5c0,0.5-1.4,0-1.4,0.1c0-0.5,0-0.9,0-1.4
			C71.1,58.9,71.1,57.9,71.1,56.9z M73.4,54.6c-1.7,0-3.5,0-5.2,0c-1,0-2,0-2.9,0c-0.3,0-0.6,0-0.9,0c-0.3,0-0.2-1.5-0.2-1.9
			c1.7,0,3.5,0,5.2,0c1,0,2,0,2.9,0c0.3,0,0.6,0,0.9,0C73.5,52.7,73.4,54.2,73.4,54.6C72.1,54.6,73.4,53.8,73.4,54.6z M66.4,56.9
			c0,0.9,0,1.9,0,2.8c0,0.5,0,1,0,1.5c0,0.4-1.4,0.2-1.4,0.1c0-1.1,0-2.3,0-3.4c0-0.2-0.1-0.8,0-0.9C65.1,56.7,66.2,56.9,66.4,56.9z
			 M77.5,61.3c-1,0-2,0-3,0c-0.5,0-0.4,0.1-0.4-0.3c0-0.3,0-0.7,0-1c0-0.8,0-1.5,0-2.3c0-0.5-0.2-0.9,0.4-0.9c0.6,0,0.6,0.1,0.6-0.5
			c0-0.7,0-1.4,0-2.1c0-1.3,0-2.6,0-3.9c0-0.2-12.5-0.1-12.5,0c0,1.2,0,2.5,0,3.7c0,0.7,0,1.4,0,2.1c0,0.5-0.2,0.7,0.4,0.7
			c0.7,0,0.5,0,0.5,0.6c0,0.8,0,1.6,0,2.4c0,0.5,0,1,0,1.5c0,0-2.9,0-3.3,0c-0.2,0-0.1-13.2-0.1-14.2c0-6.1,0-12.2,0-18.3
			c0-0.6,0-1.2,0-1.8c0-0.1,2.8-0.1,3.1-0.1c3.6,0,7.1,0,10.7,0c0.4,0,0.5-0.1,0.5,0.3c0.1,0.7,0.2,1.3,0.4,2c-2.3,0-4.6,0-6.8,0
			c-1.4,0-2.8,0-4.3,0c-0.6,0-1.1-0.3-1.1,0.4c0,0.6,0,7.1,0,7.1c2.3,0,4.7,0,7,0c1.3,0,2.6,0,3.9,0c0.2,0,1.7,0.2,1.8,0
			c0.1-0.1,0-0.7,0-0.9c0-0.7,0-1.4,0-2.2c0-1,0-2,0-3c0.5,0.9,1.1,1.8,1.9,2.4c0.4,0.3,0.2,0.7,0.2,1.1c0,1.1,0,2.2,0,3.3
			c0,3.1,0,6.2,0,9.3C77.5,51.7,77.5,56.5,77.5,61.3C77.1,61.3,77.5,59.4,77.5,61.3z M64.1,34.5c0-0.6,0-1.2,0-1.8
			c0-0.4,0-0.7,0-1.1c0.2,0,0.4,0,0.5,0c0.2,0,1.5,0,1.5,0c0,0.2,0,0.4,0,0.7c0,0.6,0,1.3,0,1.9C66.1,34.8,64.6,34.5,64.1,34.5
			C64.1,33.5,64.5,34.5,64.1,34.5z M67.7,31.7c0.8,0,1.6,0,2.3,0c0.1,0.1,0,0.6,0,0.7c0,0.4,0.2,1.9,0,2.2c-0.8,0-1.6,0-2.3,0
			c-0.1-0.1,0-0.6,0-0.7C67.7,33.1,67.7,32.4,67.7,31.7z M71.7,31.7c0.5,0,1,0,1.5,0c0.2,0,0.4,0,0.5,0c0,0.4,0,0.7,0,1.1
			c0,0.3,0.1,1.8-0.1,1.8c-0.5,0-1,0-1.5,0c-0.6,0-0.3-0.7-0.3-1.2C71.7,32.7,71.7,32.2,71.7,31.7z M79.9,31.8
			c-2.8,0-4.1-3.5-4.1-5.8s1.2-5.8,4.1-5.8c2.8,0,4.1,3.5,4.1,5.8S82.7,31.8,79.9,31.8z"/>
		<path fill="#040000" d="M79.1,25.9c-0.1,0-1.6,0-1.6,0c0,0.4,0,0.9,0,1.3c0,0.1-0.1,0.9,0,1c0.1,0.1,0.8,0,1,0c0.2,0,2.2,0,2.2,0
			c0-0.7,0-1.5,0-2.2c0-0.5,0.1-4.7-0.1-4.7c-0.4,0-0.9,0-1.3,0c-0.3,0-0.2,0.2-0.2,0.5C79.1,23.1,79.1,24.5,79.1,25.9
			C78.4,25.9,79.1,24.4,79.1,25.9z"/>
	</g>
</g>
<path d="M56.5,39.7c-5.4,0-10.8,0-16.2,0c0.6-2.4,1.2-4.8,1.7-7.2c0.2-0.8,0.1-0.8,0.8-0.8c1.2,0,2.5,0,3.7,0c2.8,0,5.5,0,8.3,0
	c0.7,0,0.5,0.6,0.6,1.2c0.2,1.5,0.5,3,0.7,4.6C56.3,38.3,56.4,39,56.5,39.7z"/>
<path fill="#FFFFFF" stroke="#040000" stroke-miterlimit="10" d="M44.4,49.2c1.2,0,2.4,0,3.5,0c0.4,0,0.2,1.3,0.2,1.7c0,3,0,6,0,8.9
	c0,0.4,0,0.8,0,1.2c0,0.3-0.1,0.2-0.4,0.2c-0.3,0-3.3,0-3.3,0c0-2.5,0-4.9,0-7.4C44.4,52.3,44.4,50.7,44.4,49.2z"/>
<path fill="#FFFFFF" stroke="#040000" stroke-miterlimit="10" d="M48.8,46.4c1.1,0,2.2,0,3.2,0c0.1,0,0.7-0.1,0.7,0.1
	c0,0.4,0,0.7,0,1.1c0,1.3,0,2.7,0,4c0,0.6,0,1.2,0,1.7c0,0.1,0.1,0.6,0,0.7c-0.1,0.1-1,0-1.2,0c-0.7,0-1.4,0-2,0
	c-0.1,0-0.7,0.1-0.7-0.1c0-0.4,0-0.7,0-1.1C48.8,50.8,48.8,48.6,48.8,46.4z"/>
<path fill="#040000" d="M79.7,33.6c0.6,0,1.2-0.3,1.2,0.4c0,0.7,0,1.4,0,2.1c0,2.7,0,5.4,0,8c0,5.8,0,11.6,0,17.5c0,0.6,0,1.2,0,1.8
	c0,0.5-1.2,0.1-1.2,0.1c0-1.5,0-3,0-4.4c0-6.2,0-12.4,0-18.6C79.7,38.2,79.7,35.9,79.7,33.6z"/>
<path fill="#898989" d="M10.1,65.2c6.8,0,13.6,0,20.5,0c12.8,0,25.7,0,38.5,0c7.4,0,14.9,0,22.3,0c0.2,0,0,11.4,0.1,11.4
	c-2.1,0-4.1,0-6.2,0c-11.3,0-22.7,0-34,0c-11.5,0-23,0-34.5,0c-2.2,0-4.4,0-6.7,0C10,76.6,10.1,66.4,10.1,65.2z"/>
<g>
	<g>
		<line fill="none" stroke="#FFFFFF" stroke-width="2" stroke-miterlimit="10" x1="11.5" y1="70.9" x2="15.3" y2="70.9"/>
		
			<line fill="none" stroke="#FFFFFF" stroke-width="2" stroke-miterlimit="10" stroke-dasharray="12.4074,12.4074" x1="23.3" y1="70.9" x2="82.8" y2="70.9"/>
		<line fill="none" stroke="#FFFFFF" stroke-width="2" stroke-miterlimit="10" x1="86.8" y1="70.9" x2="90.6" y2="70.9"/>
	</g>
</g>
</svg>
