<?xml version="1.0" encoding="utf-8"?>
<!-- Generator: Adobe Illustrator 17.0.1, SVG Export Plug-In . SVG Version: 6.00 Build 0)  -->
<!DOCTYPE svg PUBLIC "-//W3C//DTD SVG 1.1//EN" "http://www.w3.org/Graphics/SVG/1.1/DTD/svg11.dtd">
<svg version="1.1" id="レイヤー_1" xmlns="http://www.w3.org/2000/svg" xmlns:xlink="http://www.w3.org/1999/xlink" x="0px"
	 y="0px" width="841.89px" height="595.28px" viewBox="0 0 841.89 595.28" enable-background="new 0 0 841.89 595.28"
	 xml:space="preserve">
<rect x="350.01" y="226.996" fill="#A660A3" stroke="#A660A3" stroke-width="2" stroke-miterlimit="10" width="141.732" height="141.732"/>
<rect x="373.447" y="288.851" fill="#D5D5D6" width="26.75" height="40"/>
<rect x="408.697" y="303.601" fill="#A8A9A9" width="16.75" height="24"/>
<g>
	<rect x="377.947" y="293.351" fill="#FFFFFF" width="4" height="5.75"/>
	<rect x="377.947" y="303.101" fill="#FFFFFF" width="4" height="5.75"/>
	<rect x="377.947" y="312.851" fill="#FFFFFF" width="4" height="5.75"/>
	<rect x="385.447" y="293.351" fill="#FFFFFF" width="4" height="5.75"/>
	<rect x="385.447" y="303.101" fill="#FFFFFF" width="4" height="5.75"/>
	<rect x="385.447" y="312.851" fill="#FFFFFF" width="4" height="5.75"/>
	<rect x="392.947" y="293.351" fill="#FFFFFF" width="4" height="5.75"/>
	<rect x="392.947" y="303.101" fill="#FFFFFF" width="4" height="5.75"/>
	<rect x="392.947" y="312.851" fill="#FFFFFF" width="4" height="5.75"/>
</g>
<rect x="433.697" y="288.851" fill="#898989" width="30.25" height="40"/>
<circle fill="#FFFFFF" cx="466.697" cy="288.351" r="7.75"/>
<rect x="440.697" y="293.101" fill="#FFFFFF" width="16.75" height="6"/>
<rect x="440.697" y="303.101" fill="#FFFFFF" width="16.75" height="6"/>
<rect x="442.197" y="321.101" fill="#FFFFFF" width="13" height="7"/>
<g>
	<g>
		<path fill="#040000" d="M372.864,287.351v42.142h28.692v-42.142h-1.25H372.864z M399.055,326.993c-2.154,0-21.538,0-23.692,0
			c0-2.269,0-34.873,0-37.142c2.154,0,21.538,0,23.692,0C399.055,292.12,399.055,324.724,399.055,326.993z"/>
		<path fill="#040000" d="M439.169,302.347v8.103h19.962v-8.103h-1.25H439.169z M450.967,304.847v3.103c-1.191,0-2.443,0-3.634,0
			v-3.103C448.524,304.847,449.775,304.847,450.967,304.847z M441.669,304.847c0.529,0,1.699,0,3.164,0v3.103
			c-1.465,0-2.634,0-3.164,0C441.669,306.875,441.669,305.924,441.669,304.847z M456.631,307.95c-0.529,0-1.699,0-3.164,0v-3.103
			c1.465,0,2.635,0,3.164,0C456.631,305.924,456.631,306.875,456.631,307.95z"/>
		<path fill="#040000" d="M383.062,292.184h-1.25h-4.782v8.287h6.032V292.184z M380.562,297.971c-0.472,0-0.56,0-1.032,0
			c0-1.113,0-2.174,0-3.287c0.472,0,0.56,0,1.032,0C380.562,295.798,380.562,296.858,380.562,297.971z"/>
		<path fill="#040000" d="M390.462,292.184h-1.25h-4.782v8.287h6.032V292.184z M387.962,297.971c-0.472,0-0.56,0-1.032,0
			c0-1.113,0-2.174,0-3.287c0.472,0,0.56,0,1.032,0C387.962,295.798,387.962,296.858,387.962,297.971z"/>
		<path fill="#040000" d="M397.863,292.184h-1.25h-4.782v8.287h6.032V292.184z M395.363,297.971c-0.472,0-0.56,0-1.032,0
			c0-1.113,0-2.174,0-3.287c0.472,0,0.56,0,1.032,0C395.363,295.798,395.363,296.858,395.363,297.971z"/>
		<path fill="#040000" d="M383.062,301.999h-1.25h-4.782v8.288h6.032V301.999z M380.562,307.786c-0.472,0-0.56,0-1.032,0
			c0-1.113,0-2.174,0-3.288c0.472,0,0.56,0,1.032,0C380.562,305.612,380.562,306.673,380.562,307.786z"/>
		<path fill="#040000" d="M390.462,301.999h-1.25h-4.782v8.288h6.032V301.999z M387.962,307.786c-0.472,0-0.56,0-1.032,0
			c0-1.113,0-2.174,0-3.288c0.472,0,0.56,0,1.032,0C387.962,305.612,387.962,306.673,387.962,307.786z"/>
		<path fill="#040000" d="M397.863,301.999h-1.25h-4.782v8.288h6.032V301.999z M395.363,307.786c-0.472,0-0.56,0-1.032,0
			c0-1.113,0-2.174,0-3.288c0.472,0,0.56,0,1.032,0C395.363,305.612,395.363,306.673,395.363,307.786z"/>
		<path fill="#040000" d="M383.062,311.813h-1.25h-4.782v8.288h6.032V311.813z M380.562,317.601c-0.472,0-0.56,0-1.032,0
			c0-1.113,0-2.174,0-3.288c0.472,0,0.56,0,1.032,0C380.562,315.427,380.562,316.488,380.562,317.601z"/>
		<path fill="#040000" d="M390.462,311.813h-1.25h-4.782v8.288h6.032V311.813z M387.962,317.601c-0.472,0-0.56,0-1.032,0
			c0-1.113,0-2.174,0-3.288c0.472,0,0.56,0,1.032,0C387.962,315.427,387.962,316.488,387.962,317.601z"/>
		<path fill="#040000" d="M397.863,311.813h-1.25h-4.782v8.288h6.032V311.813z M395.363,317.601c-0.472,0-0.56,0-1.032,0
			c0-1.113,0-2.174,0-3.288c0.472,0,0.56,0,1.032,0C395.363,315.427,395.363,316.488,395.363,317.601z"/>
		<path fill="#040000" d="M407.03,302.268v27h20.25v-27h-1.25H407.03z M424.78,304.768c0,0.166,0,0.435,0,0.774
			c-1.752,0.607-6.854,2.375-7.438,2.577c-0.618-0.191-6.288-1.953-7.812-2.427c0-0.416,0-0.734,0-0.924
			C411.526,304.768,422.783,304.768,424.78,304.768z M409.53,326.768c0-1.643,0-12.568,0-18.458l7.855,2.44l7.395-2.563
			c0,5.86,0,16.926,0,18.581C422.783,326.768,411.526,326.768,409.53,326.768z"/>
		<path fill="#040000" d="M466.28,279.851c-4.417,0-8.075,3.262-8.721,7.5h-23.51h-1.25v42.142h32.231v-32.074
			c0.41,0.059,0.825,0.099,1.25,0.099c4.871,0,8.833-3.962,8.833-8.833C475.113,283.814,471.151,279.851,466.28,279.851z
			 M450.022,322.138v4.855c-0.738,0-1.48,0-2.219,0v-4.855H450.022z M452.522,322.138h2.219v4.855c-0.717,0-1.46,0-2.219,0V322.138z
			 M456.158,319.638c-1.975,0-12.515,0-14.49,0c0-0.814,0-1.225,0-2.039c1.975,0,12.515,0,14.49,0
			C456.158,318.413,456.158,318.824,456.158,319.638z M445.304,322.138v4.855c-0.759,0-1.502,0-2.219,0v-4.855H445.304z
			 M462.53,326.993c-0.579,0-2.595,0-5.289,0v-4.855h1.417v-7.039h-1.25h-18.24v7.039h1.416v4.855c-2.693,0-4.708,0-5.286,0
			c0-2.269,0-34.873,0-37.142c1.933,0,17.778,0,22.235,0c0.117,0.88,0.362,1.718,0.719,2.496h-0.372h-18.712v8.103h19.962v-6.599
			c0.873,1.205,2.041,2.179,3.399,2.819C462.53,301.375,462.53,324.914,462.53,326.993z M441.669,297.95c0-1.076,0-2.027,0-3.103
			c0.529,0,1.699,0,3.164,0v3.103C443.367,297.95,442.198,297.95,441.669,297.95z M447.332,294.847c1.191,0,2.443,0,3.634,0v3.103
			c-1.191,0-2.443,0-3.634,0V294.847z M453.467,294.847c1.465,0,2.635,0,3.164,0c0,1.076,0,2.027,0,3.103c-0.529,0-1.699,0-3.164,0
			V294.847z M466.28,295.018c-3.492,0-6.333-2.841-6.333-6.333c0-3.492,2.841-6.333,6.333-6.333c3.492,0,6.333,2.841,6.333,6.333
			C472.613,292.177,469.772,295.018,466.28,295.018z"/>
		<path fill="#040000" d="M465.023,288.577c-1.104,0-2.477,0-2.477,0v2.5h4.977v-7.548h-2.5
			C465.023,283.529,465.023,286.971,465.023,288.577z"/>
	</g>
</g>
<polygon points="429.805,303.601 404.471,303.601 407.471,294.983 427.805,294.983 "/>
<rect x="410.805" y="313.851" fill="#FFFFFF" stroke="#040000" stroke-miterlimit="10" width="5.833" height="12.965"/>
<rect x="417.805" y="310.851" fill="#FFFFFF" stroke="#040000" stroke-miterlimit="10" width="6.142" height="8.25"/>
<rect x="466.023" y="296.929" fill="#040000" width="1.949" height="32.423"/>
<rect x="357.263" y="331.184" fill="#898989" width="127.167" height="12.333"/>
<g>
	<g>
		<line fill="none" stroke="#FFFFFF" stroke-width="2" stroke-miterlimit="10" x1="359.43" y1="337.351" x2="365.43" y2="337.351"/>
		
			<line fill="none" stroke="#FFFFFF" stroke-width="2" stroke-miterlimit="10" stroke-dasharray="12.4074,12.4074" x1="377.837" y1="337.351" x2="470.893" y2="337.351"/>
		
			<line fill="none" stroke="#FFFFFF" stroke-width="2" stroke-miterlimit="10" x1="477.096" y1="337.351" x2="483.096" y2="337.351"/>
	</g>
</g>
</svg>
