<?xml version="1.0" encoding="utf-8"?>
<!-- Generator: Adobe Illustrator 17.1.0, SVG Export Plug-In . SVG Version: 6.00 Build 0)  -->
<!DOCTYPE svg PUBLIC "-//W3C//DTD SVG 1.1//EN" "http://www.w3.org/Graphics/SVG/1.1/DTD/svg11.dtd">
<svg version="1.1" id="Ebene_1" xmlns="http://www.w3.org/2000/svg" xmlns:xlink="http://www.w3.org/1999/xlink" x="0px" y="0px"
	 width="100px" height="100px" viewBox="0 0 100 100" enable-background="new 0 0 100 100" xml:space="preserve">
<circle fill="#B2B2B2" cx="50" cy="50" r="50"/>
<path d="M18.2,60.3c0,0,0.1,0.1,0.1,0.1c0.3-0.3,1.4-1.3,1.2-1.6C19.1,59.3,18.7,59.8,18.2,60.3z"/>
<path d="M20.2,60.3c0,0,0.1,0.1,0.1,0.1c0.3-0.3,1.4-1.3,1.2-1.6C21.1,59.3,20.7,59.8,20.2,60.3z"/>
<path d="M22.3,60.3c0,0,0.1,0.1,0.1,0.1c0.3-0.3,1.4-1.3,1.2-1.6C23.1,59.3,22.7,59.8,22.3,60.3z"/>
<path d="M24.3,60.3c0,0,0.1,0.1,0.1,0.1c0.3-0.3,1.4-1.3,1.2-1.6C25.1,59.3,24.7,59.8,24.3,60.3z"/>
<path d="M26.3,60.4c0,0,0.1,0.1,0.1,0.1c0.3-0.3,1.4-1.3,1.2-1.6C27.2,59.4,26.7,59.9,26.3,60.4z"/>
<path d="M28.3,60.4c0,0,0.1,0.1,0.1,0.1c0.3-0.3,1.4-1.3,1.2-1.6C29.2,59.4,28.7,59.9,28.3,60.4z"/>
<path d="M30.3,60.4c0,0,0.1,0.1,0.1,0.1c0.3-0.3,1.4-1.3,1.2-1.6C31.2,59.4,30.7,59.9,30.3,60.4z"/>
<path d="M32.3,60.4c0,0,0.1,0.1,0.1,0.1c0.3-0.3,1.4-1.3,1.2-1.6C33.2,59.4,32.8,59.9,32.3,60.4z"/>
<path d="M34.3,60.4c0,0,0.1,0.1,0.1,0.1c0.3-0.3,1.4-1.3,1.2-1.6C35.2,59.4,34.8,59.9,34.3,60.4z"/>
<path d="M36.4,60.4c0,0,0.1,0.1,0.1,0.1c0.3-0.3,1.4-1.3,1.2-1.6C37.2,59.4,36.8,59.9,36.4,60.4z"/>
<path d="M38.4,60.4c0,0,0.1,0.1,0.1,0.1c0.3-0.3,1.4-1.3,1.2-1.6C39.2,59.4,38.8,59.9,38.4,60.4z"/>
<path d="M40.4,60.4c0,0,0.1,0.1,0.1,0.1c0.3-0.3,1.4-1.3,1.2-1.6C41.3,59.4,40.8,59.9,40.4,60.4z"/>
<path d="M42.4,60.4c0,0,0.1,0.1,0.1,0.1c0.3-0.3,1.4-1.3,1.2-1.6C43.3,59.4,42.8,59.9,42.4,60.4z"/>
<path d="M44.4,60.4c0,0,0.1,0.1,0.1,0.1c0.3-0.3,1.4-1.3,1.2-1.6C45.3,59.4,44.8,59.9,44.4,60.4z"/>
<path d="M46.4,60.4c0,0,0.1,0.1,0.1,0.1c0.3-0.3,1.4-1.3,1.2-1.6C47.3,59.4,46.9,59.9,46.4,60.4z"/>
<path d="M48.4,60.4c0,0,0.1,0.1,0.1,0.1c0.3-0.3,1.4-1.3,1.2-1.6C49.3,59.4,48.9,59.9,48.4,60.4z"/>
<path d="M50.5,60.4c0,0,0.1,0.1,0.1,0.1c0.3-0.3,1.4-1.3,1.2-1.6C51.3,59.4,50.9,59.9,50.5,60.4z"/>
<path d="M52.5,60.4c0,0,0.1,0.1,0.1,0.1c0.3-0.3,1.4-1.3,1.2-1.6C53.3,59.4,52.9,59.9,52.5,60.4z"/>
<path d="M54.5,60.4c0,0,0.1,0.1,0.1,0.1c0.3-0.3,1.4-1.3,1.2-1.6C55.4,59.4,54.9,59.9,54.5,60.4z"/>
<path d="M56.5,60.5c0,0,0.1,0.1,0.1,0.1c0.3-0.3,1.4-1.3,1.2-1.6C57.4,59.5,56.9,60,56.5,60.5z"/>
<path d="M58.5,60.5c0,0,0.1,0.1,0.1,0.1c0.3-0.3,1.4-1.3,1.2-1.6C59.4,59.5,58.9,60,58.5,60.5z"/>
<path d="M60.5,60.5c0,0,0.1,0.1,0.1,0.1c0.3-0.3,1.4-1.3,1.2-1.6C61.4,59.5,61,60,60.5,60.5z"/>
<path d="M62.5,60.5c0,0,0.1,0.1,0.1,0.1c0.3-0.3,1.4-1.3,1.2-1.6C63.4,59.5,63,60,62.5,60.5z"/>
<path d="M64.5,60.5c0,0,0.1,0.1,0.1,0.1c0.3-0.3,1.4-1.3,1.2-1.6C65.4,59.5,65,60,64.5,60.5z"/>
<path d="M66.6,60.5c0,0,0.1,0.1,0.1,0.1c0.3-0.3,1.4-1.3,1.2-1.6C67.4,59.5,67,60,66.6,60.5z"/>
<path d="M68.6,60.5c0,0,0.1,0.1,0.1,0.1c0.3-0.3,1.4-1.3,1.2-1.6C69.5,59.5,69,60,68.6,60.5z"/>
<path d="M70.6,60.5c0,0,0.1,0.1,0.1,0.1c0.3-0.3,1.4-1.3,1.2-1.6C71.5,59.5,71,60,70.6,60.5z"/>
<path d="M72.6,60.5c0,0,0.1,0.1,0.1,0.1c0.3-0.3,1.4-1.3,1.2-1.6C73.5,59.5,73,60,72.6,60.5z"/>
<path d="M74.6,60.5c0,0,0.1,0.1,0.1,0.1c0.3-0.3,1.4-1.3,1.2-1.6C75.5,59.5,75.1,60,74.6,60.5z"/>
<path d="M76.6,60.5c0,0,0.1,0.1,0.1,0.1c0.3-0.3,1.4-1.3,1.2-1.6C77.5,59.5,77.1,60,76.6,60.5z"/>
<path d="M78.6,60.5c0,0,0.1,0.1,0.1,0.1c0.3-0.3,1.4-1.3,1.2-1.6C79.5,59.5,79.1,60,78.6,60.5z"/>
<path fill="#F7F8F8" d="M18.8,45.6c8.2,0,16.3,0,24.5,0c11.4,0,22.8,0,34.2,0c1.1,0,2.1,0,3.2,0c0.5,0,0.2,1.2,0.2,1.5
	c0,5.4,0,10.7,0,16.1c0,5.6,0,11.2,0,16.8c0,0.2,0.1,2.1-0.1,2.1c-0.9,0-1.8,0-2.7,0c-11.2,0-22.4,0-33.5,0c-8.5,0-17.1,0-25.6,0
	c-0.1,0,0-26.8,0-29C18.8,50.6,18.8,48.1,18.8,45.6z"/>
<path d="M18.8,45.3c-0.6,0-0.3,3-0.3,3.3c0,2.6,0,5.1,0,7.7c0,6.3,0,12.6,0,19c0,2,0,4,0,5.9c0,0.7-0.1,1.2,0.7,1.2
	c3.4,0,6.7,0,10.1,0c12.5,0,24.9,0,37.4,0c4.2,0,8.4,0,12.5,0c0.3,0,1.8,0.2,1.8-0.3c0-1.2,0-2.4,0-3.7c0-10.8,0-21.5,0-32.3
	c0-0.8-0.2-0.9-0.9-0.9c-1.3,0-2.7,0-4,0c-5.2,0-10.4,0-15.6,0c-12,0-24,0-36,0C22.6,45.3,20.7,45.3,18.8,45.3L18.8,45.3z
	 M80.5,45.9c0,10.3,0,20.5,0,30.8c0,1.6,0,3.3,0,4.9c0,0.5-1,0.3-1.4,0.3c-4.2,0-8.4,0-12.5,0c-12.5,0-25.1,0-37.6,0
	c-3.2,0-6.4,0-9.7,0c-0.5,0-0.2-1.6-0.2-2c0-2.4,0-4.8,0-7.2c0-6.4,0-12.9,0-19.3c0-2.1,0-4.2,0-6.3c0-0.9-0.2-1,0.6-1
	c9.9,0,19.9,0,29.8,0c10.1,0,20.2,0,30.3,0C80,45.9,80.3,45.9,80.5,45.9z"/>
<path fill="#C9CACA" d="M41,82.1c-4.6,0-9.2,0-13.7,0c-0.1,0-0.1-12.2-0.1-13.1c0-2.9,0-5.7,0-8.6c0-0.7,0-1.4,0-2.1
	c0-0.4,0.4-0.2,0.8-0.2c2.9,0,5.8,0,8.6,0c1.2,0,2.5,0,3.7,0c0.4,0,0.7-0.2,0.7,0.3C41,66.2,41,74.1,41,82.1z"/>
<path d="M27.2,57.7c-0.6,0-0.3,4.1-0.3,4.5c0,3.1,0,6.2,0,9.3c0,2.8,0,5.6,0,8.4c0,0.7,0,1.3,0,2c0,0.6,0.6,0.4,1.1,0.4
	c2.9,0,5.8,0,8.6,0c1.2,0,2.5,0,3.7,0c0.4,0,1,0.1,1-0.5c0-5.2,0-10.3,0-15.5c0-2.3,0-4.6,0-6.8c0-0.5,0-1,0-1.5
	c0-0.5-0.7-0.4-1.1-0.4C35.9,57.7,31.5,57.7,27.2,57.7L27.2,57.7z M40.7,58.3c0,5,0,10,0,15c0,2.5,0,5.1,0,7.6
	c0,0.5,0.2,0.9-0.3,0.9c-1.2,0-2.3,0-3.5,0c-3,0-5.9,0-8.9,0c-0.6,0-0.6,0-0.6-0.6c0-1,0-1.9,0-2.9c0-6,0-12,0-18
	c0-0.2-0.1-1.9,0.1-1.9c1.2,0,2.5,0,3.7,0C34.4,58.3,37.6,58.3,40.7,58.3z"/>
<path fill="#DCDDDD" d="M28.1,70.3c0-2.1,3-2.1,3,0C31.1,72.3,28.1,72.3,28.1,70.3z"/>
<path d="M27.8,70.3c0,2.4,3.5,2.4,3.5,0C31.4,67.8,27.8,67.8,27.8,70.3z M28.4,70.3c0-1.7,2.4-1.7,2.4,0C30.8,72,28.4,72,28.4,70.3z
	"/>
<path fill="#E6E6E6" d="M77.4,69.4c-9.5,0-19,0-28.4,0c-0.2,0-0.6,0.1-0.6-0.1c0-0.8,0-1.6,0-2.5c0-3.1,0-6.2,0-9.3
	c0-0.3,0-5.5,0-5.5c1.3,0,2.7,0,4,0c6.1,0,12.3,0,18.4,0c2,0,4,0,6,0c0.3,0,0.5-0.1,0.5,0.2c0,0.9,0,1.7,0,2.6
	C77.4,59.7,77.4,64.6,77.4,69.4z"/>
<path d="M48.4,51.8c-0.6,0-0.3,5.1-0.3,5.6c0,3.1,0,6.2,0,9.3c0,0.9,0,1.7,0,2.6c0,0.5,0.3,0.5,0.7,0.5c1.9,0,3.9,0,5.8,0
	c6.2,0,12.3,0,18.5,0c1.4,0,2.9,0,4.3,0c0.6,0,0.3-4.6,0.3-5c0-3.1,0-6.3,0-9.4c0-1,0-1.9,0-2.9c0-0.4-0.1-0.6-0.5-0.6
	c-4.9,0-9.9,0-14.8,0C57.7,51.8,53.1,51.8,48.4,51.8L48.4,51.8z M77.1,52.4c0,5.2,0,10.4,0,15.6c0,0.3,0.2,1.1-0.2,1.1
	c-0.6,0-1.3,0-1.9,0c-2.7,0-5.4,0-8.1,0c-5.7,0-11.4,0-17.1,0c-0.1,0-1.1,0-1.1,0c0-0.8,0-1.6,0-2.4c0-3.2,0-6.4,0-9.7
	c0-1.3,0-2.5,0-3.8c0-0.4-0.2-0.9,0.3-0.9c1.9,0,3.8,0,5.7,0c6.2,0,12.5,0,18.7,0C74.6,52.4,75.9,52.4,77.1,52.4z"/>
<line fill="none" stroke="#FFFFFF" stroke-width="1.0001" stroke-miterlimit="2.6131" x1="62.9" y1="52.1" x2="62.9" y2="69.4"/>
<path d="M62.6,52.1c0,5,0,9.9,0,14.9c0,0.8,0,1.6,0,2.3c0,0.4,0.6,0.6,0.6,0.1c0-0.2,0-0.4,0-0.6c0-2.6,0-5.3,0-7.9
	c0-2.1,0-4.2,0-6.3c0-0.6,0-1.3,0-1.9c0-0.2,0-0.3,0-0.5C63.2,51.8,62.6,51.6,62.6,52.1z"/>
<path fill="#FFFFFF" d="M60.9,60.9c-1.2,1.2-2.5,2.4-3.7,3.6c-0.8,0.8-1.6,1.5-2.4,2.3c-0.2,0.2-0.4,0.4-0.6,0.6
	c-0.3,0.3-0.1,1,0.2,0.6c0.4-0.1,0.9-0.9,1.2-1.1c0.8-0.8,1.7-1.6,2.5-2.5c0.8-0.8,1.6-1.5,2.4-2.3c0.2-0.2,0.4-0.4,0.6-0.6
	C61.4,61.2,61.2,60.5,60.9,60.9z"/>
<path fill="#FFFFFF" d="M60.6,63.6c-0.6,0.7-1.2,1.3-1.7,2c-0.4,0.4-0.7,0.8-1.1,1.2c-0.1,0.1-0.2,0.2-0.2,0.3
	c-0.2,0.3,0.1,0.7,0.4,0.4c0.2-0.1,0.4-0.4,0.5-0.6c0.4-0.5,0.8-0.9,1.2-1.4c0.4-0.4,0.7-0.8,1.1-1.2c0.1-0.1,0.2-0.2,0.2-0.3
	C61.2,63.8,60.8,63.3,60.6,63.6z"/>
<path fill="#FFFFFF" d="M74.3,60.5c-1.1,1.3-2.2,2.7-3.3,4c-0.7,0.9-1.4,1.7-2.1,2.6c-0.2,0.2-0.4,0.5-0.6,0.7c-0.2,0.3,0,1,0.3,0.5
	c0.4-0.2,0.8-1,1-1.3c0.7-0.9,1.5-1.8,2.2-2.7c0.7-0.9,1.4-1.7,2.1-2.6c0.2-0.2,0.4-0.5,0.6-0.7C74.8,60.7,74.6,60.1,74.3,60.5z"/>
<path fill="#FFFFFF" d="M74.4,64.3c-0.5,0.6-1,1.2-1.4,1.8c-0.3,0.4-0.6,0.8-0.9,1.1c-0.1,0.1-0.1,0.1-0.2,0.2
	c-0.2,0.3,0.2,0.7,0.4,0.4c0.5-0.2,1.1-1.4,1.4-1.8c0.3-0.4,0.6-0.8,0.9-1.1c0.1-0.1,0.1-0.1,0.2-0.2C75.1,64.4,74.7,63.9,74.4,64.3
	z"/>
<path fill="#FFFFFF" d="M75.1,66.4c-0.2,0.3-0.5,0.7-0.7,1c-0.1,0.2-0.3,0.3-0.4,0.5c-0.2,0.3,0.2,0.7,0.4,0.4
	c0.3-0.1,0.5-0.7,0.7-1c0.1-0.2,0.3-0.3,0.4-0.5C75.8,66.5,75.4,66.1,75.1,66.4z"/>
<path d="M59.1,63.6c0,0,0.1,0.1,0.1,0.1c0.3-0.3,1.5-1.3,1.3-1.6C60,62.6,59.6,63.1,59.1,63.6z"/>
<path d="M71.3,63.9c0,0,0.1,0.1,0.1,0.1c0.3-0.3,1.5-1.3,1.3-1.6C72.2,62.9,71.8,63.4,71.3,63.9z"/>
<path fill="#DEDFDF" stroke="#000000" stroke-miterlimit="10" d="M64,8.1c2.4,0,4.8,0,7.1,0c1.2,0,2.4,0,3.5,0
	c0.4,0,0.3,0.1,0.3,0.4c0,4.8,0,9.6,0,14.4c0,5.7,0,11.3,0,17c0,0.6,0,1.2,0,1.8c0,0.4-0.2,0.3-0.6,0.3c-2.9,0-5.7,0-8.6,0
	c-0.1,0-1.7,0-1.7,0c0-0.4,0-0.8,0-1.2c0-2.2,0-4.3,0-6.5c0-6.3,0-12.6,0-18.9C64,12.9,64,10.5,64,8.1z"/>
<path fill="#9FA0A0" d="M49.8,7.3c6,5.9,12,11.7,18,17.6c7.7,7.5,15.4,15.1,23.1,22.6c0.4,0.4,0.8,0.8,1.2,1.1c-6.6,0-13.3,0-19.9,0
	c-12.8,0-25.7,0-38.5,0c-8.4,0-16.9,0-25.3,0c-0.2,0-0.5,0-0.7,0c6-5.9,12-11.7,18-17.6C33.2,23.5,40.9,16,48.6,8.5
	C49,8.1,49.4,7.7,49.8,7.3z"/>
<path d="M49.6,7.1c-6,5.9-12,11.7-18,17.6c-7.7,7.5-15.4,15.1-23.1,22.6c-0.1,0.1-1.8,1.7-1,1.7c0.5,0,1.1,0,1.6,0
	c3.5,0,7.1,0,10.6,0c12.3,0,24.6,0,36.9,0c10.5,0,20.9,0,31.4,0c1.1,0,2.2,0,3.2,0c0.4,0,1.3,0,0.7-0.6c-2.3-2.2-4.5-4.4-6.8-6.7
	c-8.9-8.7-17.7-17.4-26.6-26c-2.1-2.1-4.2-4.2-6.4-6.2C52.1,9.2,50,6.7,49.6,7.1z M49.8,7.7c6.3,6.2,12.6,12.4,19,18.6
	c7.4,7.2,14.7,14.4,22.1,21.6c0.1,0.1,0.3,0.3,0.4,0.4c-7.2,0-14.5,0-21.7,0c-13.1,0-26.1,0-39.2,0c-7.4,0-14.7,0-22.1,0
	c0,0,0,0,0,0c6.5-6.4,13-12.7,19.5-19.1C35,22.2,42.2,15.2,49.4,8.1C49.6,8,49.7,7.8,49.8,7.7z"/>
</svg>
