<?xml version="1.0" encoding="utf-8"?>
<!-- Generator: Adobe Illustrator 17.1.0, SVG Export Plug-In . SVG Version: 6.00 Build 0)  -->
<!DOCTYPE svg PUBLIC "-//W3C//DTD SVG 1.1//EN" "http://www.w3.org/Graphics/SVG/1.1/DTD/svg11.dtd">
<svg version="1.1" id="Ebene_1" xmlns="http://www.w3.org/2000/svg" xmlns:xlink="http://www.w3.org/1999/xlink" x="0px" y="0px"
	 width="100px" height="100px" viewBox="0 0 100 100" enable-background="new 0 0 100 100" xml:space="preserve">
<circle fill="#B2B2B2" cx="50" cy="50" r="50"/>
<path fill="#E6E6E6" d="M54.3,7.6c-0.4-0.5-2.5-0.1-3.1,0c-1.2,0.1-2.6,0.3-3.6,1.1c-2.1,1.8-0.8,4.2,0.9,5.7
	c0.5,0.4,0.7,0.2,1.2-0.1c0.7-0.4,1.5-0.7,2.2-1.1c0.8-0.4,2.2-0.5,2.3-1.5c0-0.8,0.1-1.6,0.1-2.4C54.3,8.9,54.6,7.9,54.3,7.6z
	 M50.3,12.8c-1.9,0-1.9-3,0-3C52.2,9.8,52.2,12.8,50.3,12.8z"/>
<path fill="#3D3D3D" d="M44.6,19.6c0.4,0.2,1.7-0.6,2.1-0.8c1-0.4,2-0.7,3-1c0.9-0.2,1.8-0.4,2.7-0.3c0.4,0,0.7,0.1,1.1,0.3
	c0.7,0.4,1,0,1.6-0.4c4.3-2.8,9.2-4.8,14.2-6c1.3-0.3,2.7-0.6,4-0.8c0.7-0.1,0.7-0.4,0.6-1.1c0-0.5-0.2-0.6-0.7-0.6
	c-0.8,0-1.7,0.1-2.5,0.1c-4.9,0.4-9.8,1.2-14.5,2.8c-3.2,1.1-6.3,2.4-9.1,4.2c-0.7,0.5-1.5,1-2.2,1.5c-0.2,0.1-0.4,0.3-0.5,0.4
	C44.2,18.3,44.3,19.4,44.6,19.6z"/>
<path fill="#FFFFFF" d="M59.9,60c-4.9,2.3-10.6,2.6-15.9,1.6c-1.7-0.3-3.3-0.7-4.9-1.3c-0.3-0.1-1.4-0.7-1.4,0
	c-0.1,0.3-0.1,1.5,0.1,1.8c0.3,0.5,1.7,0.7,2.2,0.9c1.8,0.6,3.6,1,5.5,1.3c2.5,0.4,5.1,0.4,7.6,0.1c1.4-0.2,2.7-0.5,4-0.9
	c0.7-0.2,3.2-0.8,3.2-1.6C60.3,61.5,60.6,59.7,59.9,60C50.3,64.4,60,59.9,59.9,60z"/>
<path fill="#CCCCCC" d="M59.9,46.8c-4.9,2.3-10.6,2.6-15.9,1.6c-1.7-0.3-3.3-0.7-4.9-1.3c-0.3-0.1-1.4-0.7-1.4,0
	c-0.1,0.2,0,0.5,0,0.7c0,2.9,0,5.8,0,8.7c0,0.9,0,1.9,0,2.8c0,0.5,1.2,0.8,1.5,0.9c3.2,1.1,6.6,1.7,10,1.8c2.4,0,4.8-0.2,7.2-0.9
	c1.3-0.4,2.5-0.8,3.7-1.4c0.2-0.1,0.2-0.4,0.2-0.6c0-2.3,0-4.6,0-7c0-1.2,0-2.5,0-3.7C60.3,48.1,60.5,46.5,59.9,46.8
	C50.3,51.2,60,46.8,59.9,46.8z"/>
<path fill="#CBCCCC" d="M39.7,23.5c0.7,0,4.2,0.4,4.3-0.4c0-0.5,0.8-4.9-0.3-4.9c-0.6-0.2-1.8,0-2.5,0c-0.4,0-2.1-0.3-2,0.4
	C39.2,19.1,39.1,23.5,39.7,23.5z"/>
<path fill="#383838" d="M33.2,65.7c1.2,0,2.4,0,3.5,0c0.8,0-0.1-1.4-0.2-1.8c-0.4-1.1-0.9-2.2-1.3-3.3c-1.4-3.8-2.7-7.7-3.6-11.6
	c-1.1-5-1.7-10.5-0.5-15.5c0.9-4.1,3.5-7.6,6.9-10c0.3-0.2,0.6-0.4,1-0.6c0.4-0.2,0.2-1.1,0.2-1.4c0-0.7-0.1-1.4-0.1-2.1
	c0-0.6-0.3-0.7-0.8-0.5c-2.1,0.9-3.9,2.3-5.5,3.8c-5.1,5-7,12.3-6.3,19.2c0.3,3,0.8,5.9,1.6,8.7c0.6,2.3,1.2,4.5,2,6.7
	c0.5,1.4,1,2.8,1.5,4.1c0.3,0.7,0.5,1.4,0.8,2.1C32.3,64.1,32.7,65.7,33.2,65.7z"/>
<path fill="#C9CACA" d="M37.3,69.6c0-0.8,0-1.5,0-2.3c0-0.6,0.2-1.3-0.6-1.3c-0.9,0-1.8,0-2.7,0c-0.4,0-1.7-0.2-2,0.1
	c-0.4,0.4-0.1,1.9-0.1,2.4c0,0.6-0.2,1.5,0.6,1.5C33.1,69.9,37.3,70.3,37.3,69.6z"/>
<path fill="#D9D9D9" d="M37.2,70.1c-0.5,0-3.5-0.3-3.5,0.4c0,0.5-0.3,3.8,0.3,3.8c0.4,0.2,3.5,0.2,3.5-0.3
	C37.5,73.4,37.8,70.1,37.2,70.1z"/>
<path fill="#6D6C6C" d="M59.9,62.5c-4.9,2.3-10.6,2.6-15.9,1.6c-1.7-0.3-3.3-0.7-4.9-1.3c-0.3-0.1-1.4-0.7-1.4,0c0,0.1,0,0.3,0,0.4
	c0,5.5,0,10.9,0,16.4c0,1.7,0,3.3,0,5c0,0.6,1.8,1.2,2.2,1.4c1.6,0.8,3.3,1.3,5,1.7c5.2,1.1,10.5,0.2,15-2.6
	c0.6-0.4,0.5-0.9,0.5-1.6c0-1.1,0-2.2,0-3.3c0-3.8,0-7.6,0-11.4c0-1.5,0-3,0-4.5C60.3,64.2,60.6,62.2,59.9,62.5
	C50.3,66.9,60,62.5,59.9,62.5z"/>
<path fill="#6D6C6C" d="M60.1,37.8c-0.3-0.2-1.1,0.5-1.4,0.6c-0.7,0.3-1.5,0.6-2.2,0.8c-2.4,0.7-4.9,0.9-7.4,0.9
	c-2.5,0-5-0.3-7.4-0.9c-0.7-0.2-1.4-0.4-2.1-0.7c-0.4-0.2-1-0.6-1.4-0.7c-0.7,0-0.4,6.6-0.4,7.1c0,0.7-0.2,1.4,0.5,1.7
	c1.2,0.5,2.4,0.8,3.6,1.2c2.7,0.7,5.5,1.1,8.3,1c1.8,0,3.5-0.2,5.2-0.6c0.9-0.2,1.8-0.5,2.7-0.8c0.4-0.2,2.2-0.6,2.2-1.2
	c0.2-0.4,0-1.2,0-1.6c0-1,0-2,0-3.1C60.3,40.9,60.6,38,60.1,37.8C60,37.7,60.2,37.8,60.1,37.8z"/>
<path fill="#999999" d="M58.9,35.3c-1.6,1.7-4.9,2-7.1,2.2c-3.8,0.3-8.4,0.2-11.9-1.6c-0.2-0.1-0.4-0.2-0.6-0.4
	c-0.8-0.5-1.9-0.1-1.9,0.9c0,0.8,0.9,1.3,1.6,1.6c3.8,1.9,8.4,2.1,12.5,1.9c2.6-0.2,5.4-0.6,7.7-1.9c0.4-0.3,0.9-0.6,1.3-0.9
	C61.5,35.9,60,34.2,58.9,35.3C58.8,35.4,59.3,34.9,58.9,35.3z"/>
<path fill="#6D6C6C" d="M42.5,29.6c-1.3,0.8-2.4,2.1-3.2,3.5c-0.2,0.3-0.9,1.4-0.7,1.8c0.1,0.2,0.6,0.3,0.8,0.4
	c0.2,0.2,0.5,0.3,0.7,0.4c3.7,1.8,8.5,1.9,12.6,1.4c1.7-0.2,3.4-0.6,4.9-1.3c0.3-0.2,0.6-0.3,0.9-0.6c0.5-0.4,1-0.5,0.7-1.2
	c-0.5-1.1-1.1-2.1-1.9-3c-0.3-0.4-1.2-1.5-1.8-1.5c-0.8,0-1.5,0-2.3,0c-2.3,0-4.5,0-6.8,0c-0.9,0-1.8,0-2.8,0
	C43.4,29.6,42.8,29.4,42.5,29.6C42.1,29.9,42.5,29.6,42.5,29.6z"/>
<path fill="#ACACAB" d="M55.1,26.2c-2.3,0-4.6,0-6.9,0c-1.4,0-2.8,0-4.2,0c-0.3,0-0.7,0-1,0c-0.5,0-0.4,0.5-0.4,0.9
	c0,0.6,0,1.2,0,1.9c0,0.4,0.5,0.4,0.7,0.4c1.2,0,2.4,0,3.6,0c2.7,0,5.4,0,8.1,0c0.6,0,0.5-0.5,0.5-0.9
	C55.4,28.1,55.7,26.2,55.1,26.2z"/>
<path fill="#FFFFFF" d="M54.2,24.6c-1.8-0.1-3.7-0.1-5.5,0c-0.9,0-1.8,0.1-2.8,0.1c-0.6,0-1.8-0.2-1.9,0.6c-0.1,0.7,0.2,0.7,0.8,0.7
	c0.7,0,1.4,0,2.1,0c1.8,0,3.6,0,5.4,0c0.5,0,1.1,0,1.6,0C54.6,26,54.7,24.6,54.2,24.6C51,24.5,54.3,24.6,54.2,24.6z"/>
<path fill="#3D3D3D" d="M76.5,25.9C71.7,23.2,66.4,21.6,61,21c-1.6-0.2-3.2-0.2-4.9-0.2c-0.2,0-1.6,0.3-1.7,0
	c-0.3-1.1-0.3-2.7-1.6-2.9c-1.7-0.4-3.6,0.3-5.2,0.9c-0.5,0.2-3,0.8-3.1,1.5c-0.1,1.3-0.2,2.5-0.4,3.8c-0.1,0.8,1.4,0.4,1.9,0.4
	c1.2-0.1,2.5-0.1,3.7-0.1c2.2,0,4.3,0,6.5,0.1c3.6,0.2,7.2,0.6,10.8,1.2c2.3,0.4,4.6,0.9,6.9,1.6c0.6,0.2,1.2,0.3,1.8,0.5
	c0.4,0.1,0.7,0.1,0.8-0.4C76.5,27,76.8,26.1,76.5,25.9C65.3,19.6,76.6,26,76.5,25.9z"/>
<path fill="#FFFFFF" d="M42.6,50c3.1,0,3.1,4.8,0,4.8C39.6,54.8,39.6,50,42.6,50z"/>
<path fill="#C9CACA" d="M49,50.9c3.1,0,3.1,4.8,0,4.8S45.9,50.9,49,50.9z"/>
<path fill="#9FA0A0" d="M55.5,50.1c3.1,0,3.1,4.8,0,4.8C52.4,54.9,52.4,50.1,55.5,50.1z"/>
<path fill="#FFFFFF" d="M47.8,19.7c2.1,0,2.1,3.3,0,3.3S45.7,19.7,47.8,19.7z"/>
<g>
	<path fill="#040000" d="M77,25.6c-4.8-2.8-10.1-4.5-15.6-5.1c-1.7-0.2-3.4-0.3-5-0.2c-0.4,0-0.9,0-1.3,0.1c-0.3,0-0.3-0.7-0.4-0.9
		c-0.1-0.3-0.1-0.5-0.2-0.8c0.4-0.1,0.7-0.5,1-0.7c4.3-2.8,9.2-4.8,14.2-6c1.3-0.3,2.6-0.6,4-0.7c0.2,0,0.4,0,0.6-0.1
		c0.7-0.1,0.4-1.1,0.3-1.5c0-0.3,0.1-1-0.3-1.2c-0.3-0.2-1,0-1.4,0c-0.6,0-1.3,0.1-1.9,0.1c-2.1,0.1-4.1,0.4-6.2,0.7
		c-3.4,0.5-6.8,1.4-10,2.5c0.1-1.2,0.1-2.5,0.2-3.7c0-0.4,0.2-1.1-0.4-1.1c-0.7,0-1.3,0-2,0C50.4,7,47.9,7.1,46.5,9
		c-1.5,2,0,4.4,1.6,5.8c-1.1,0.6-2.1,1.3-3.1,2c-0.4,0.3-0.7,0.8-1.2,0.8c-1.4,0-2.8,0-4.2,0c-0.3,0-1-0.1-1.1,0.3
		c-0.2,0.4-0.1,0.4-0.6,0.6c-0.8,0.3-1.5,0.7-2.2,1.2c-6,3.8-9.4,10.3-10.1,17.3c-0.3,3.4,0.1,6.8,0.7,10.1
		c1.2,6.3,3.3,12.4,5.7,18.3c-0.8-0.1-0.8,0.5-0.8,1.1c0,0.9,0,1.7,0,2.6c0,0.4-0.2,1.4,0.5,1.4c0.5,0,1.3-0.3,1.3,0.3
		c0,0.6-0.4,4.1,0.4,4.1c0.5,0.2,1.4,0,1.9,0c0.6,0,1.1,0,1.7,0c0,2.4,0,4.9,0,7.3c0,0.9,0,1.8,0,2.7c0,0.5,1.2,1,1.6,1.2
		c3.2,1.8,6.9,2.8,10.6,2.7c2.7,0,5.3-0.6,7.7-1.6c0.7-0.3,1.3-0.6,2-1c0.5-0.3,1.5-0.7,1.8-1.2c0.1-0.1,0.1-0.3,0.1-0.4
		c0-10.2,0-20.5,0-30.7c0-4.5,0-9,0-13.6c0-0.3,0-0.6,0-0.9c0-0.7-0.4-1.9,0.1-2.3c0.9-1,0.3-2.6-1-2.8c-0.8-2-2.1-3.8-3.8-5.1
		c-0.7-0.6,0-2.4-0.2-3.2c0-0.5-0.6-0.4-1-0.4c0.1-0.7,0-0.7,0.9-0.7c1,0,2,0.1,3,0.2c1.8,0.1,3.5,0.3,5.3,0.6
		c2.7,0.4,5.4,0.9,8.1,1.6c1.3,0.3,2.6,0.7,3.9,1.1c0.4,0.1,0.8,0.2,0.9-0.4C77,27.6,77.5,25.9,77,25.6C66.7,19.6,77.2,25.6,77,25.6
		z M46.8,10.8c0-3.2,5.1-3.1,7.3-3c0,0.9-0.1,1.7-0.1,2.6c0,0.4,0,0.9-0.1,1.3c0,0.6-0.5,0.6-1.1,0.8c-0.7,0.3-1.5,0.6-2.2,1
		c-0.5,0.2-1.4,1-1.9,0.6C47.8,13.3,46.8,12.1,46.8,10.8z M73.6,9.3c0,0.6,0.3,1-0.4,1.1c-0.3,0-0.7,0.1-1,0.2c-1,0.2-2,0.4-3,0.6
		c-3,0.7-5.9,1.7-8.7,3c-1.7,0.8-3.4,1.7-5,2.7c-0.4,0.3-0.8,0.5-1.3,0.8c-0.4,0.3-0.4,0.1-0.8-0.1c-0.5-0.2-1.1-0.3-1.6-0.3
		c-2.5,0-5,1-7.2,2.1c-0.1-0.9-0.2-0.9,0.4-1.4c0.5-0.4,1-0.8,1.5-1.1c1.7-1.1,3.5-2.1,5.4-2.9C58.9,10.8,66.3,9.6,73.6,9.3
		C73.7,9.7,54.8,9.9,73.6,9.3z M50.5,29c0-0.6,0-1.1,0-1.7c0-0.2,0-0.5,0-0.7c0,0,1.4,0,1.6,0c0.2,0.2,0,1.4,0,1.7
		c0,0.2,0,0.5,0,0.7C52.1,29,50.7,29,50.5,29z M49.7,29c-0.1,0-1.6,0-1.6,0c0-0.2,0-0.5,0-0.7c0-0.3-0.2-1.5,0-1.7
		c0.1,0,1.6,0,1.6,0c0,0.2,0,0.5,0,0.7C49.7,27.9,49.7,28.4,49.7,29z M47.2,29c-0.1,0-1.6,0-1.6,0c0-0.2,0-0.5,0-0.7
		c0-0.3-0.2-1.5,0-1.7c0.2,0,1.6,0,1.6,0c0,0.2,0,0.5,0,0.7C47.2,27.9,47.2,28.4,47.2,29z M44.7,29c-0.5,0-1,0-1.5,0
		c-0.5,0-0.4-0.1-0.4-0.7c0-0.5,0-0.9,0-1.4c0-0.5,0.1-0.4,0.6-0.4c0.1,0,1.3,0,1.3,0c0,0.2,0,0.5,0,0.7
		C44.7,27.9,44.7,28.4,44.7,29z M42.4,25.6c-0.8,0-0.4,3-0.4,3.5c0,0.3-0.8,0.8-1.1,1c-0.8,0.7-1.4,1.6-2,2.5
		c-0.3,0.5-0.6,1.1-0.8,1.7c-0.2,0.6-0.7,0.6-1,1.2c-0.3,0.5-0.3,1.1-0.1,1.5c0.2,0.4,0.3,0.3,0.3,0.8c0,0.4-0.1,0.9-0.1,1.3
		c0,0.5,0,1,0,1.5c0,5.7,0,11.5,0,17.2c0,2.1,0,4.2,0,6.3c-1.5-3.5-2.6-7.1-3.7-10.7c-1-3.4-1.9-6.7-2.2-10.2
		c-0.4-4.2-0.4-8.8,1.4-12.7c1.3-2.8,3.6-5.2,6.2-6.9C39,24.3,40.6,24,41,24c0.8,0,1.7,0,2.5,0c0,0.5-0.1,1-0.1,1.5
		C43.4,25.8,42.6,25.6,42.4,25.6z M38.1,60.3c6.9,2.8,15.2,3.2,21.9,0c0,0.4,0,0.8,0,1.2c0,0.6-0.2,0.5-0.7,0.7
		c-0.7,0.3-1.3,0.5-2,0.8c-1.4,0.5-2.9,0.8-4.3,1c-2.6,0.3-5.2,0.3-7.8-0.1c-1.9-0.3-3.7-0.7-5.5-1.3c-0.5-0.2-0.9-0.3-1.4-0.5
		C37.7,61.7,38.1,60.8,38.1,60.3C40.1,61.1,38.1,60.8,38.1,60.3z M60,59.3c-5.8,2.8-12.6,2.8-18.8,1.1c-0.8-0.2-1.6-0.5-2.4-0.8
		c-0.5-0.2-0.8-0.1-0.8-0.7c0-3.9,0-7.9,0-11.8c6.9,2.8,15.2,3.2,21.9,0C60,51.2,60,55.3,60,59.3C49.5,64.4,60,54.9,60,59.3z
		 M43.7,18.5c0.1,0.8,0.2,1.5,0.2,2.3c-0.1,0.6-0.1,1.2-0.2,1.9c-0.1,0.6-0.1,0.5-0.7,0.5c-0.8,0-1.6,0-2.3,0c-0.7,0-1,0.2-1-0.5
		c-0.1-1.4-0.1-2.8-0.2-4.2C40.9,18.5,42.3,18.5,43.7,18.5z M26.5,40c-0.2-2.9,0.5-6.2,1.4-9c0.8-2.4,2.1-4.6,3.7-6.5
		c1.9-2.3,4.3-4.2,7.1-5.3c0.1,1.1,0.1,2.3,0.2,3.4c0,0.3-2.1,1.5-2.3,1.7c-3.7,3.1-5.7,7.2-6.2,12c-0.9,9.2,2.2,18.5,5.5,26.9
		c0.3,0.8,0.6,1.5,0.9,2.2c-0.9,0-1.8,0-2.7,0c-0.2,0-0.8,0.1-0.9,0c-0.5-1.2-0.9-2.3-1.4-3.5c-1.3-3.5-2.5-7-3.4-10.7
		C27.4,47.5,26.7,43.8,26.5,40z M32.3,69.6c0-0.6,0-1.3,0-1.9c0-0.4,0-0.7,0-1.1c0-0.4,0.2-0.3,0.6-0.3c0.9,0,1.7,0,2.6,0
		c0.4,0,0.8,0,1.1,0c0.4,0,0.4-0.1,0.4,0.3c0,0.8,0,1.5,0,2.3c0,0.2,0.1,0.7-0.1,0.7c-0.2,0-0.5,0-0.7,0
		C34.9,69.6,33.6,69.6,32.3,69.6C32.3,69,33,69.6,32.3,69.6z M37.2,73.9c-0.5,0-1.1,0-1.6,0c-0.3,0-0.7,0-1,0c-0.4,0-0.4,0-0.4-0.4
		c0-0.8,0-1.5,0-2.3c0-0.5-0.2-0.7,0.4-0.7c0.7,0,1.3,0,2,0c0.3,0,0.8-0.2,0.8,0.2C37.2,71,37.2,73.9,37.2,73.9z M38.1,84.6
		c0-7.3,0-14.5,0-21.8c6.9,2.8,15.2,3.2,21.9,0c0,5.2,0,10.5,0,15.7c0,1.6,0,3.2,0,4.8c0,0.4,0,0.7,0,1.1c0,0.5-1.6,1.1-2,1.3
		C51.8,88.9,43.9,88.4,38.1,84.6C38.1,84.4,39.5,85.6,38.1,84.6z M60,39.5c0,0.9,0,1.9,0,2.8c0,1.1,0,2.2,0,3.4c0,0.6-0.8,0.8-1.3,1
		c-0.6,0.2-1.1,0.4-1.7,0.6c-4,1.2-8.3,1.3-12.4,0.6c-2.2-0.4-4.4-0.9-6.4-1.8c-0.3-0.1-0.1-1.2-0.1-1.6c0-1,0-2,0-3
		c0-1.1,0-2.3,0.1-3.4c3.1,1.8,7,2.2,10.5,2.3c3.8,0.1,8.1-0.2,11.3-2.4C60,38.6,60,39,60,39.5z M60.3,36.6
		c-1.5,1.7-4.3,2.3-6.4,2.6c-4.5,0.7-9.6,0.5-13.9-1.2c-0.7-0.3-1.4-0.6-2-1.1c-0.7-0.5-0.1-1.7,0.7-1.4c0.2,0.1,0.4,0.3,0.7,0.4
		c3.3,1.9,7.7,2.1,11.4,1.9c2.4-0.1,4.9-0.4,7.1-1.5c0.4-0.2,0.8-0.4,1.1-0.7C59.8,35,61.1,35.7,60.3,36.6
		C60,36.9,60.6,36.3,60.3,36.6z M59.1,34.5c-0.8,0.3-1.4,1-2.3,1.3c-2.3,0.9-4.9,1.2-7.4,1.2c-2.6,0-5.2-0.2-7.7-1.1
		c-0.9-0.3-1.8-1.1-2.8-1.3c0.6-1.5,1.5-2.9,2.7-4c0.4-0.3,0.8-0.8,1.3-0.8c1.9,0,3.8,0,5.7,0c2.1,0,4.1,0,6.2,0
		c0.6,0,0.7,0,1.2,0.4C57.4,31.4,58.4,32.9,59.1,34.5C58.8,34.6,58,32,59.1,34.5z M55.1,29c-0.3,0-2.1,0.1-2.1-0.1c0-0.7,0-1.3,0-2
		c0-0.4-0.1-0.4,0.4-0.4c0.5,0,1,0,1.5,0c0.4,0,0.2,0.6,0.2,0.9C55.1,28,55.1,28.5,55.1,29C54.9,29,55.1,28.4,55.1,29z M54.1,25.6
		c-3.3,0-6.5,0-9.8,0c0-0.2,0-0.4,0.1-0.6c0.5,0,1-0.1,1.6-0.1c1-0.1,2-0.1,3-0.1c1.8,0,3.5,0,5.3,0C54.2,25.1,54.1,25.4,54.1,25.6z
		 M76.1,27.5c-10-3.4-21.2-4-31.7-3.4c0.1-1.1,0.2-2.1,0.3-3.2c0-0.2,0-0.5,0.1-0.7c0.4-0.2,0.7-0.3,1.1-0.5
		c1.7-0.7,3.5-1.4,5.3-1.6c0.7-0.1,1.5-0.1,2.1,0.3c0.4,0.2,0.5,1.3,0.6,1.7c0.1,0.4,0.2,1.2,0.7,1.1c0.2,0,0.3,0,0.5,0
		c2.8-0.2,5.6,0,8.4,0.5c2.3,0.4,4.5,1,6.7,1.7c1.3,0.4,2.5,1,3.7,1.5c0.6,0.3,1.2,0.6,1.7,0.9c0.4,0.2,0.7,0.2,0.7,0.7
		C76.2,26.8,76.2,27.2,76.1,27.5C73.6,26.7,76.2,27,76.1,27.5z"/>
	<path fill="#040000" d="M47.7,19.6c-2.4,0-2.4,3.8,0,3.8C50.2,23.5,50.2,19.6,47.7,19.6z M47.7,22.6c-1.3,0-1.3-2,0-2
		C49,20.5,49,22.6,47.7,22.6z"/>
	<path fill="#040000" d="M50.4,9.1c-2.5,0-2.5,4,0,4C52.9,13.1,52.9,9.1,50.4,9.1z M50.4,12.2c-1.4,0-1.4-2.2,0-2.2
		C51.8,10,51.8,12.2,50.4,12.2z"/>
	<path fill="#040000" d="M42.6,49.4c-3.6,0-3.6,5.7,0,5.7C46.3,55.1,46.3,49.4,42.6,49.4z M42.6,54.2c-2.5,0-2.5-3.9,0-3.9
		C45.1,50.3,45.1,54.2,42.6,54.2z"/>
	<path fill="#040000" d="M55.5,55.4c3.6,0,3.6-5.7,0-5.7C51.9,49.7,51.9,55.4,55.5,55.4z M55.5,50.6c2.5,0,2.5,3.9,0,3.9
		C53,54.5,53,50.6,55.5,50.6z"/>
	<path fill="#040000" d="M46.2,53.1c0,3.7,5.6,3.7,5.6,0C51.8,49.5,46.2,49.5,46.2,53.1z M50.9,53.1c0,2.5-3.8,2.5-3.8,0
		C47.1,50.6,50.9,50.6,50.9,53.1z"/>
</g>
</svg>
