<?xml version="1.0" encoding="utf-8"?>
<!-- Generator: Adobe Illustrator 17.0.1, SVG Export Plug-In . SVG Version: 6.00 Build 0)  -->
<!DOCTYPE svg PUBLIC "-//W3C//DTD SVG 1.1//EN" "http://www.w3.org/Graphics/SVG/1.1/DTD/svg11.dtd">
<svg version="1.1" id="レイヤー_1" xmlns="http://www.w3.org/2000/svg" xmlns:xlink="http://www.w3.org/1999/xlink" x="0px"
	 y="0px" width="841.89px" height="595.28px" viewBox="0 0 841.89 595.28" enable-background="new 0 0 841.89 595.28"
	 xml:space="preserve">
<rect x="349.868" y="226.478" fill="#FFFFFF" stroke="#A660A3" stroke-width="2" stroke-miterlimit="10" width="141.732" height="141.732"/>
<path fill="#E6E6E6" d="M423.122,252.001c-0.069-0.074-0.165-0.117-0.266-0.119c-1.313-0.027-4.584,0.001-6.598,0.848
	c-0.02,0.008-0.039,0.019-0.057,0.03c-1.243,0.8-1.89,1.734-1.925,2.776c0,0.002-0.001,0.092-0.001,0.092
	c0,1.843,1.817,3.525,2.598,4.163c0.117,0.096,0.281,0.112,0.414,0.04c1.68-0.901,3.522-1.732,5.475-2.47
	c0.14-0.053,0.235-0.186,0.242-0.335l0.22-4.751C423.228,252.173,423.191,252.075,423.122,252.001z M418.637,257.838
	c-0.92,0-1.667-0.746-1.667-1.667c0-0.92,0.746-1.667,1.667-1.667c0.92,0,1.667,0.746,1.667,1.667
	C420.303,257.092,419.557,257.838,418.637,257.838z"/>
<path fill="#3D3D3D" d="M412.191,265.358c0.104,0.055,0.227,0.058,0.333,0.008c1.799-0.841,7.839-3.447,10.047-1.698
	c0.129,0.102,0.309,0.108,0.445,0.015c9.631-6.597,20.007-8.025,21.989-8.245c0.201-0.022,0.348-0.2,0.333-0.401l-0.087-1.142
	c-0.016-0.2-0.186-0.353-0.386-0.346c-21.615,0.714-31.826,9.204-32.919,10.17c-0.097,0.086-0.143,0.215-0.122,0.343l0.171,1.025
	C412.015,265.203,412.087,265.303,412.191,265.358z"/>
<path fill="#FFFFFF" d="M429.388,310.335c-10.788,4.898-22.23,0.818-24.414-0.05c-0.115-0.046-0.246-0.032-0.349,0.038
	c-0.103,0.07-0.164,0.186-0.164,0.311v1.753c0,0.147,0.092,0.283,0.227,0.344c0.129,0.058,13.032,5.738,25.018,0.021
	c0.13-0.063,0.213-0.194,0.213-0.339v-1.737c0-0.127-0.065-0.246-0.172-0.315C429.639,310.292,429.504,310.282,429.388,310.335z"/>
<path fill="#CCCCCC" d="M429.388,295.668c-10.788,4.898-22.23,0.818-24.414-0.05c-0.115-0.045-0.246-0.031-0.349,0.039
	c-0.103,0.07-0.164,0.186-0.164,0.31v13.586c0,0.147,0.092,0.283,0.227,0.343c0.129,0.058,13.032,5.738,25.018,0.022
	c0.13-0.061,0.213-0.193,0.213-0.338v-13.57c0-0.128-0.065-0.246-0.172-0.315C429.639,295.625,429.504,295.615,429.388,295.668z"/>
<path fill="#CBCCCC" d="M406.708,269.697h4.416c0.193,0,0.354-0.146,0.373-0.338l0.354-3.539c0.003-0.033,0.002-0.066-0.003-0.099
	l-0.279-1.672c-0.03-0.181-0.186-0.314-0.37-0.314h-4.734c-0.103,0-0.2,0.042-0.271,0.116c-0.071,0.074-0.108,0.174-0.103,0.276
	l0.242,5.212C406.342,269.539,406.507,269.697,406.708,269.697z"/>
<path fill="#383838" d="M399.305,316.72h4.038c0.128,0,0.247-0.065,0.316-0.173c0.069-0.108,0.078-0.244,0.024-0.36
	c-2.167-4.676-4.912-13.591-5.667-16.309c-1.566-5.636-2.636-14.493-0.498-20.906c2.079-6.236,7.71-9.524,8.346-9.878
	c0.124-0.069,0.198-0.203,0.192-0.345l-0.18-3.876c-0.006-0.122-0.07-0.234-0.174-0.299c-0.103-0.065-0.232-0.077-0.345-0.03
	c-3.232,1.341-13.787,6.983-13.929,23.269c0,0.023,0.012,0.241,0.012,0.241l0,0c0.177,3.249,0.646,11.878,7.519,28.434
	C399.017,316.628,399.153,316.72,399.305,316.72z"/>
<path fill="#C9CACA" d="M404.011,321.012v-3.667c0-0.207-0.168-0.375-0.375-0.375h-4.668h-0.666c-0.207,0-0.375,0.168-0.375,0.375
	v3.667c0,0.207,0.168,0.375,0.375,0.375h5.334C403.843,321.387,404.011,321.219,404.011,321.012z"/>
<path fill="#D9D9D9" d="M403.835,321.637h-3.532c-0.207,0-0.375,0.168-0.375,0.375v3.833c0,0.207,0.168,0.375,0.375,0.375h3.5
	c0.207,0,0.407-0.162,0.407-0.369v-3.839C404.21,321.805,404.042,321.637,403.835,321.637z"/>
<path fill="#6D6C6C" d="M429.388,313.168c-10.788,4.898-22.23,0.818-24.414-0.05c-0.115-0.045-0.246-0.031-0.349,0.039
	c-0.103,0.07-0.164,0.186-0.164,0.31v24.274c0,0.127,0.065,0.246,0.172,0.315c1.284,0.827,12.897,7.852,25.114-0.013
	c0.107-0.069,0.172-0.188,0.172-0.315V313.51c0-0.128-0.065-0.246-0.172-0.315C429.639,313.125,429.504,313.115,429.388,313.168z"/>
<path fill="#6D6C6C" d="M429.622,285.59c-0.12-0.061-0.262-0.044-0.374,0.029c-1.481,0.97-4.969,2.597-11.683,2.597
	c-7.285,0-11.143-1.766-12.464-2.526c-0.113-0.065-0.251-0.074-0.366-0.012s-0.188,0.172-0.195,0.303l-0.08,1.587v7.317
	c0,0.147,0.092,0.283,0.227,0.344c0.129,0.058,13.032,5.738,25.018,0.022c0.13-0.063,0.213-0.194,0.213-0.339v-7.344l-0.091-1.674
	C429.819,285.762,429.742,285.65,429.622,285.59z"/>
<path fill="#999999" d="M428.253,282.861c-0.102,0.104-2.589,2.553-10.688,2.553c-8.248,0-11.291-2.273-11.416-2.37
	c-0.552-0.429-1.355-0.336-1.788,0.208c-0.44,0.553-0.36,1.334,0.183,1.778c0.147,0.12,3.709,2.937,13.021,2.937
	c9.282,0,12.265-3.038,12.575-3.385c0.215-0.241,0.322-0.539,0.322-0.837c0-0.34-0.139-0.681-0.411-0.936
	C429.547,282.339,428.741,282.362,428.253,282.861z"/>
<path fill="#6D6C6C" d="M409.808,276.521c-0.486,0.294-2.981,1.945-4.377,5.545c-0.04,0.102-0.033,0.216,0.019,0.312
	c0.051,0.096,0.142,0.166,0.249,0.189c0.228,0.051,0.429,0.144,0.599,0.276c0.135,0.1,3.228,2.32,11.267,2.32
	c7.865,0,10.404-2.375,10.508-2.476c0.149-0.153,0.331-0.271,0.54-0.353c0.094-0.037,0.168-0.11,0.208-0.203
	c0.04-0.093,0.04-0.198,0.001-0.291c-1.205-2.893-3.074-4.564-4.082-5.303c-0.064-0.047-0.15-0.071-0.229-0.071h-14.509
	C409.934,276.467,409.867,276.486,409.808,276.521z"/>
<path fill="#ACACAB" d="M424.011,272.725h-13.807c-0.207,0-0.375,0.168-0.375,0.375v2.742c0,0.207,0.168,0.375,0.375,0.375h13.807
	c0.207,0,0.375-0.168,0.375-0.375V273.1C424.386,272.893,424.218,272.725,424.011,272.725z"/>
<path fill="#FFFFFF" d="M423.004,270.907c-3.663-0.115-7.402-0.052-11.114,0.188c-0.183,0.012-0.331,0.154-0.349,0.337l-0.063,0.632
	c-0.01,0.105,0.024,0.21,0.095,0.289c0.071,0.078,0.172,0.123,0.278,0.123h11.039c0.189,0,0.349-0.141,0.372-0.329l0.102-0.819
	c0.013-0.105-0.019-0.21-0.087-0.29C423.208,270.957,423.109,270.91,423.004,270.907z"/>
<path fill="#3D3D3D" d="M448.071,272.392c-12.575-7.031-24.563-5.542-24.682-5.526c-0.062,0.008-0.121-0.031-0.137-0.091
	l-0.759-2.735c-0.022-0.08-0.07-0.151-0.137-0.2c-2.336-1.746-9.283,1.539-10.067,1.918c-0.117,0.057-0.197,0.17-0.209,0.3
	l-0.437,4.367c-0.011,0.11,0.027,0.218,0.103,0.298c0.076,0.079,0.184,0.121,0.294,0.114c19.742-1.249,33.061,2.879,35.531,3.719
	c0.106,0.036,0.223,0.023,0.318-0.036c0.095-0.059,0.159-0.158,0.174-0.269l0.198-1.481
	C448.28,272.617,448.205,272.468,448.071,272.392z"/>
<circle fill="#FFFFFF" cx="409.97" cy="301.839" r="2.666"/>
<circle fill="#C9CACA" cx="417.137" cy="302.839" r="2.667"/>
<circle fill="#9FA0A0" cx="424.47" cy="302.006" r="2.667"/>
<circle fill="#FFFFFF" cx="415.803" cy="267.339" r="1.833"/>
<g>
	<path fill="#040000" d="M448.677,272.002c-11.565-6.587-22.719-5.995-24.935-5.797c-0.107-0.384-0.364-1.31-0.535-1.927
		c0.042-0.014,0.085-0.026,0.124-0.052c10.654-7.315,22.092-8.204,22.206-8.212c0.133-0.01,0.256-0.072,0.343-0.172
		c0.087-0.101,0.13-0.232,0.12-0.365l-0.163-2.115c-0.021-0.266-0.246-0.469-0.512-0.461c-9.238,0.253-16.375,1.855-21.679,3.738
		l0.225-4.842c0.013-0.275-0.199-0.508-0.473-0.522c-0.194-0.01-4.783-0.237-7.423,0.894c-0.024,0.01-0.048,0.023-0.071,0.037
		c-1.453,0.922-2.211,2.036-2.253,3.314c-0.064,1.955,1.613,3.701,2.52,4.5c-2.38,1.359-3.847,2.534-4.491,3.097
		c-0.008,0-0.015-0.005-0.024-0.005h-5.715c-0.137,0-0.267,0.056-0.362,0.155c-0.094,0.099-0.144,0.232-0.138,0.368l0.009,0.202
		c-2.287,0.882-14.495,6.417-14.648,24.005c0.001,0.032,0.013,0.249,0.013,0.249c0.177,3.263,0.65,11.86,7.407,28.256h-0.42
		c-0.276,0-0.5,0.224-0.5,0.5v4.667c0,0.276,0.224,0.5,0.5,0.5h1.5v4.333c0,0.276,0.224,0.5,0.5,0.5h4
		c0.011,0,0.021-0.006,0.032-0.006v11.172c0,0.162,0.078,0.314,0.21,0.408c0.126,0.09,12.799,8.881,26.272,0.01
		c0.141-0.092,0.225-0.25,0.225-0.418v-50.441c0-0.745-0.047-1.482-0.139-2.191c-0.006-0.049-0.026-0.091-0.045-0.134
		c0.126-0.116,0.208-0.201,0.247-0.245c0.69-0.771,0.634-1.934-0.129-2.647c-0.275-0.257-0.612-0.414-0.962-0.474
		c-1.288-3.29-3.431-5.147-4.503-5.916V272.6c0-0.276-0.224-0.5-0.5-0.5h-0.613l0.098-0.782c14.89,0.604,23.817,3.983,23.928,4.026
		c0.143,0.055,0.303,0.042,0.435-0.036c0.132-0.078,0.221-0.212,0.241-0.364l0.326-2.441
		C448.952,272.301,448.854,272.103,448.677,272.002z M414.65,255.628c0-0.026,0-0.053,0.001-0.079
		c0.031-0.915,0.624-1.746,1.753-2.473c1.958-0.824,5.217-0.844,6.445-0.819c-0.038,0.816-0.215,4.636-0.22,4.753
		c-2.168,0.82-4.001,1.676-5.519,2.49C416.482,258.987,414.65,257.345,414.65,255.628z M444.877,253.924
		c0.031,0.404,0.057,0.737,0.087,1.141c-2.321,0.257-12.543,1.721-22.16,8.308c-2.354-1.865-8.396,0.698-10.439,1.652
		c-0.063-0.379-0.136-0.819-0.171-1.025C413.603,262.756,423.623,254.626,444.877,253.924z M418.884,275.842V273.1
		c0.616,0,1.211,0,1.767,0v2.742C420.096,275.842,419.5,275.842,418.884,275.842z M417.884,275.842c-0.587,0-1.181,0-1.766,0V273.1
		c0.585,0,1.179,0,1.766,0V275.842z M415.118,275.842c-0.62,0-1.215,0-1.766,0V273.1c0.552,0,1.147,0,1.766,0V275.842z
		 M412.352,275.842c-1.127,0-1.939,0-2.147,0c0-0.635,0-2.107,0-2.742c0.209,0,1.02,0,2.147,0V275.842z M409.704,272.1
		c-0.276,0-0.5,0.224-0.5,0.5v3.564c-0.941,0.629-3.201,2.437-4.476,5.98c-0.015,0.041-0.014,0.083-0.018,0.125
		c-0.32,0.115-0.614,0.311-0.839,0.594c-0.593,0.745-0.529,1.806,0.106,2.48c-0.091,0.719-0.142,1.466-0.142,2.227v27.426
		c-2.058-4.769-4.478-12.624-5.217-15.284c-1.542-5.552-2.6-14.262-0.507-20.541c1.736-5.207,6.185-8.36,7.633-9.273
		c0.038,0.24,0.238,0.425,0.487,0.425h4.794l-0.178,1.778H409.704z M404.835,310.633c2.27,0.902,13.805,4.993,24.708,0.042
		c0,0.579,0,1.158,0,1.738c-11.796,5.627-24.574,0.032-24.702-0.025c-0.002-0.001-0.004,0-0.006-0.001
		C404.835,311.802,404.835,311.217,404.835,310.633z M429.543,309.58c-11.796,5.626-24.574,0.032-24.702-0.025
		c-0.002-0.001-0.004-0.001-0.006-0.001c0-4.958,0-9.748,0-13.586c2.27,0.902,13.805,4.993,24.708,0.042
		C429.543,299.847,429.543,304.631,429.543,309.58z M411.199,264.109l0.279,1.673l-0.354,3.539c-0.74,0-3.732,0-4.416,0
		c-0.034-0.739-0.205-4.408-0.242-5.212C407.158,264.109,410.067,264.109,411.199,264.109z M391.814,288.034l-0.012-0.218
		c0.142-16.276,10.974-21.795,13.698-22.926l0.18,3.875c-0.639,0.357-6.393,3.711-8.519,10.087
		c-2.164,6.493-1.087,15.438,0.493,21.125c0.795,2.862,3.523,11.693,5.688,16.366h-4.038
		C392.46,299.857,391.991,291.275,391.814,288.034z M398.303,321.011c0-0.702,0-2.965,0-3.667c0.137,0,0.372,0,0.664,0h0.001
		c1.36,0,4.03,0,4.668,0c0,0.702,0,2.965,0,3.667C402.861,321.011,399.079,321.011,398.303,321.011z M403.803,325.844
		c0,0-2.734,0-3.5,0c0-0.783,0-3.833,0-3.833h3.532v3.839C403.824,325.85,403.814,325.844,403.803,325.844z M404.835,337.741
		c0-0.259,0-12.14,0-24.274c2.27,0.902,13.805,4.993,24.708,0.042c0,12.108,0,23.95,0,24.22
		C417.638,345.392,406.449,338.781,404.835,337.741z M429.543,287.569c0,0,0,2.92,0,7.344c-11.796,5.627-24.574,0.032-24.702-0.025
		c-0.002-0.001-0.004,0-0.006-0.001c0-4.41,0-7.318,0-7.318c0-0.528,0.032-1.045,0.079-1.553c1.521,0.875,5.409,2.576,12.651,2.576
		c6.696,0,10.248-1.585,11.889-2.659C429.508,286.468,429.543,287.014,429.543,287.569z M429.86,284.332
		c-0.298,0.334-3.178,3.26-12.296,3.26c-9.185,0-12.641-2.736-12.784-2.853c-0.382-0.313-0.438-0.864-0.127-1.254
		c0.306-0.384,0.874-0.449,1.265-0.145c0.131,0.101,3.273,2.448,11.645,2.448c8.248,0,10.849-2.556,10.956-2.665l0,0
		c0.347-0.355,0.918-0.373,1.273-0.041C430.155,283.42,430.184,283.969,429.86,284.332z M428.476,281.985
		c-0.245,0.096-0.475,0.24-0.67,0.439c0.003-0.003,0.002-0.002,0.005-0.005c-0.024,0.024-2.527,2.37-10.247,2.37
		c-7.946,0-11.007-2.219-11.037-2.241c-0.226-0.176-0.482-0.286-0.747-0.345c1.343-3.464,3.723-5.058,4.221-5.36h14.509
		c0.003,0,0.005-0.001,0.008-0.001C425.499,277.559,427.309,279.183,428.476,281.985z M424.011,275.842c-0.222,0-1.121,0-2.36,0
		V273.1c1.239,0,2.138,0,2.36,0C424.011,273.734,424.011,275.207,424.011,275.842z M422.89,272.1h-11.039
		c0.021-0.21,0.051-0.51,0.063-0.631c3.971-0.257,7.672-0.295,11.078-0.188L422.89,272.1z M447.69,274.201
		c-2.867-0.975-16.05-4.98-35.675-3.738c0.178-1.784,0.401-4.008,0.437-4.367c2.308-1.119,7.851-3.322,9.679-1.955
		c0.094,0.338,0.759,2.735,0.759,2.735c0.067,0.24,0.301,0.395,0.548,0.362c0.12-0.016,12.009-1.475,24.45,5.482
		C447.839,273.083,447.764,273.645,447.69,274.201z"/>
	<path fill="#040000" d="M415.725,265.429c-1.173,0-2.127,0.954-2.127,2.127s0.954,2.127,2.127,2.127s2.127-0.954,2.127-2.127
		S416.897,265.429,415.725,265.429z M415.725,268.683c-0.621,0-1.127-0.506-1.127-1.127c0-0.621,0.506-1.127,1.127-1.127
		c0.621,0,1.127,0.506,1.127,1.127C416.851,268.177,416.346,268.683,415.725,268.683z"/>
	<path fill="#040000" d="M418.735,253.713c-1.218,0-2.209,0.991-2.209,2.208c0,1.218,0.991,2.208,2.209,2.208
		c1.218,0,2.208-0.991,2.208-2.208C420.943,254.704,419.952,253.713,418.735,253.713z M418.735,257.13
		c-0.667,0-1.209-0.542-1.209-1.208c0-0.666,0.542-1.208,1.209-1.208c0.666,0,1.208,0.542,1.208,1.208
		C419.943,256.588,419.401,257.13,418.735,257.13z"/>
	<path fill="#040000" d="M409.97,298.511c-1.746,0-3.167,1.421-3.167,3.167c0,1.746,1.421,3.167,3.167,3.167
		c1.746,0,3.167-1.421,3.167-3.167C413.136,299.932,411.716,298.511,409.97,298.511z M409.97,303.845
		c-1.195,0-2.167-0.972-2.167-2.167c0-1.195,0.972-2.167,2.167-2.167s2.167,0.972,2.167,2.167
		C412.136,302.873,411.164,303.845,409.97,303.845z"/>
	<path fill="#040000" d="M424.47,305.178c1.746,0,3.167-1.421,3.167-3.167c0-1.746-1.42-3.167-3.167-3.167
		c-1.746,0-3.167,1.421-3.167,3.167C421.303,303.757,422.724,305.178,424.47,305.178z M424.47,299.844
		c1.195,0,2.167,0.972,2.167,2.167c0,1.195-0.972,2.167-2.167,2.167s-2.167-0.972-2.167-2.167
		C422.303,300.816,423.275,299.844,424.47,299.844z"/>
	<path fill="#040000" d="M413.97,302.678c0,1.746,1.42,3.167,3.167,3.167c1.746,0,3.166-1.421,3.166-3.167
		c0-1.746-1.42-3.167-3.166-3.167C415.39,299.511,413.97,300.932,413.97,302.678z M419.303,302.678c0,1.195-0.972,2.167-2.166,2.167
		s-2.167-0.972-2.167-2.167c0-1.195,0.972-2.167,2.167-2.167S419.303,301.483,419.303,302.678z"/>
</g>
</svg>
