<?xml version="1.0" encoding="utf-8"?>
<!-- Generator: Adobe Illustrator 17.1.0, SVG Export Plug-In . SVG Version: 6.00 Build 0)  -->
<!DOCTYPE svg PUBLIC "-//W3C//DTD SVG 1.1//EN" "http://www.w3.org/Graphics/SVG/1.1/DTD/svg11.dtd">
<svg version="1.1" id="Ebene_1" xmlns="http://www.w3.org/2000/svg" xmlns:xlink="http://www.w3.org/1999/xlink" x="0px" y="0px"
	 width="100px" height="100px" viewBox="0 0 100 100" enable-background="new 0 0 100 100" xml:space="preserve">
<circle fill="#B2B2B2" cx="50" cy="50" r="50"/>
<path fill="#747374" d="M12.8,53.6c-0.3-0.1-0.4-0.5-0.8-0.3c-0.4,0.3-0.7,0.8-0.8,1.3c-0.1,0.4-0.1,1-0.5,1.2
	c-0.4,0.1-0.6,0.7-0.7,1.1c-0.2,0.8-0.4,2.1,0.1,2.9c0.4,0.5,0.2,0.6,0,1.3c-0.1,0.7-0.1,1.3,0.1,2c0.1,0.5,0.4,0.5,0.7,0.8
	c0.3,0.3,0.5,0.9,1.1,0.6c1-0.5,0.7-2.4,0.8-3.4c0.1-1.5,0-3,0-4.5C12.8,55.5,12.9,54.5,12.8,53.6z"/>
<path fill="#999999" d="M6.2,53.6c-0.9,0.4-0.9,2.6-0.9,3.4c0,0.7,0.1,1.4,0.3,2c0.2,0.8,0.2,1.6,0.4,2.3c0.2,0.7,0.5,2.2,1.3,2.4
	c0.9,0.3,1.3-1.9,1.4-2.4C8.8,60.8,8.6,60,9,59.7c0.4-0.4,0.4-1.3,0.4-1.8c0-0.6-0.1-1.2-0.3-1.8c-0.2-0.7-0.2-1.3-0.3-2
	c0-0.8-0.1-2.5-1.2-2.6C6.5,51.4,6,52.7,6.2,53.6C5.9,53.7,5.9,51.9,6.2,53.6z"/>
<path fill="#ECEDED" d="M12,64.7c0,0.3-0.1,0.9,0.1,1.1c0.4,0.3,0.6-0.4,0.7-0.6c0.1-0.3,0.2-1-0.1-1.3C12.4,63.6,12,64.5,12,64.7
	C11.9,65,12,64.3,12,64.7z"/>
<path fill="#934923" d="M7.3,64.4c-0.3,0.6-0.4,1.3-0.5,1.9c-0.1,0.4,0.3,1.1,0.7,0.5C7.8,66.2,7.7,64.9,7.3,64.4z"/>
<path fill="#934923" d="M92.6,61.7c-0.2,1.1-0.5,2.5-0.5,3.7c0,0.5,0.6,1.7,0.8,0.7c0.2-0.8,0.1-1.7,0-2.6
	C92.9,62.9,93,62.1,92.6,61.7z"/>
<path fill="#ECEDED" d="M88.1,60.1c0,1.2-0.2,2.5-0.4,3.7c0,0.3,0,2.2,0.8,1.4c0.5-0.5,0.1-2.4,0.1-3.1
	C88.7,61.3,88.5,60.8,88.1,60.1z"/>
<path fill="#9FA0A0" d="M91.8,54.9c0.3-0.7,1.3-0.7,1.5,0.1c0.3-0.5,0.3-1,0.8-1.3c0.4-0.3,1-0.3,1.1,0.3c0.2,0.9-0.2,1.9-0.6,2.7
	c0.6-0.3,1,0.4,0.9,1c-0.1,0.4-0.3,0.5-0.5,0.8c-0.2,0.2-0.1,0.6,0,0.9c0.1,0.5-0.2,2.3-1.1,2c-0.5-0.2-0.4-0.4-0.8,0.1
	c-0.3,0.3-0.6,0.6-1,0.7c-2,0.5-1.5-2.9-1.3-4c0.1-0.6,0-1.7,0.3-2.2C91.3,55.6,91.5,55.3,91.8,54.9z"/>
<path fill="#686767" d="M86.9,50.5c-0.6-0.3-1.1,0.7-1,1.2c0.1,0.7,0.7,0.9,0.2,1.5c-0.6,0.6-1.6,2.3-1.1,3.2c0.2,0.3,1,0.1,1,0.4
	c0,0.6-0.2,1.2-0.2,1.8c0,1.5,0.8,0.7,1.4,0.2c0.1,0.7,0,1.5,0.3,2.1c0.6,0.9,1.3-0.3,1.4-0.8c0.1-0.6,0.5-1.5,0.9-0.4
	c0.4,1.4,1.2-0.1,1.2-0.8c0-0.5,0-1.1,0-1.6c0-0.3-0.3-1.2,0-1.3c0.6-0.1,0.8-0.9,0.8-1.4c0-0.3-0.1-0.6-0.3-0.9
	c-0.3-0.5-0.4-0.3-0.2-0.9c0.2-0.5,0.2-1-0.1-1.5c-0.2-0.4-0.7,0-1,0c0-0.9,0.1-1.8-0.4-2.6c-0.4-0.7-1.1-0.4-1.4,0.2
	c-0.4,0.6-0.5,1.2-0.7,1.9C87.6,51.6,87.3,50.7,86.9,50.5C86.6,50.4,87.2,50.6,86.9,50.5z"/>
<path fill="#C9CACA" d="M54.9,34.4c9.6,0,19.1,0,28.7,0c0.1,0,0.7,0,0.7,0c0,0.4,0,0.9,0,1.3c0,2.3,0,4.6,0,6.9c0,6.2,0,12.3,0,18.5
	c0,1.4,0,2.8,0,4.2c0,0.1-3.1,0-3.3,0c-6.1,0-12.2,0-18.3,0c-2.3,0-4.5,0-6.8,0c-0.2,0-0.9,0.1-1,0c-0.1-0.1,0-0.9,0-1
	c0-5.4,0-10.8,0-16.2C54.9,43.6,54.9,39,54.9,34.4z"/>
<path fill="#C9CACA" d="M42.5,18.4c1.2,0,12.4-0.1,12.4,0.1c0,3.4,0,6.8,0,10.3c0,11.5,0,23.1,0,34.6c0,0.2,0,2.3,0,2.3
	c-2.5,0-5,0-7.4,0c-0.4,0-4.9,0.1-4.9-0.1c0-1.2,0-2.3,0-3.5c0-11.8,0-23.6,0-35.4C42.5,23.9,42.5,21.2,42.5,18.4z"/>
<path fill="#E6E6E6" d="M56.8,38.3c4.5,0,9,0,13.5,0c2.9,0,5.9,0,8.8,0c0.9,0,1.7,0,2.6,0c0.7,0,0.6,0.1,0.6,0.9c0,0.4,0.3,2-0.2,2
	c-0.7,0-1.4,0-2.1,0c-2.8,0-5.6,0-8.4,0c-4.9,0-9.8,0-14.7,0C56.7,41.1,56.8,38.6,56.8,38.3z"/>
<path fill="#E6E6E6" d="M56.8,45.1c4.5,0,9,0,13.5,0c2.9,0,5.9,0,8.8,0c0.9,0,1.7,0,2.6,0c0.7,0,0.6,0.1,0.6,0.9c0,0.4,0.3,2-0.2,2
	c-0.7,0-1.4,0-2.1,0c-2.8,0-5.6,0-8.4,0c-4.9,0-9.8,0-14.7,0C56.7,48,56.8,45.5,56.8,45.1z"/>
<path fill="#E6E6E6" d="M56.8,52c4.5,0,9,0,13.5,0c2.9,0,5.9,0,8.8,0c0.9,0,1.7,0,2.6,0c0.7,0,0.6,0.1,0.6,0.9c0,0.4,0.3,2-0.2,2
	c-0.7,0-1.4,0-2.1,0c-2.8,0-5.6,0-8.4,0c-4.9,0-9.8,0-14.7,0C56.7,54.9,56.8,52.4,56.8,52z"/>
<path fill="#E6E6E6" d="M56.8,58.9c4.5,0,9,0,13.5,0c2.9,0,5.9,0,8.8,0c0.9,0,1.7,0,2.6,0c0.7,0,0.6,0.1,0.6,0.9c0,0.4,0.3,2-0.2,2
	c-0.7,0-1.4,0-2.1,0c-2.8,0-5.6,0-8.4,0c-4.9,0-9.8,0-14.7,0C56.7,61.8,56.8,59.3,56.8,58.9z"/>
<path fill="#B5B5B6" d="M57,64c0.1-0.3,0.4-0.1,0.6-0.5c0.2-0.5,0.6-0.5,1-0.4c0.8,0.1,1.4,1,1.2,1.8C59.5,66.3,56.3,65.6,57,64
	C57.1,63.8,56.8,64.4,57,64z"/>
<path fill="#B5B5B6" d="M62,65.6c-0.4,0-0.5-0.8-0.5-1c0.1-0.5,0.5-0.7,0.7-1.1c0.2-0.5,0.3-0.8,0.8-0.6c0.3,0.1,0.6-0.2,0.8,0.2
	c0.3,0.6,1.3,1.8,0.4,2.4c-0.3,0.2-0.6,0.2-0.9,0.1C62.9,65.5,62.4,65.7,62,65.6z"/>
<path fill="#B5B5B6" d="M67.6,65.3c-1.7-0.2-0.6-3.4,1-2.5c0.7,0.4,1.2,1.3,0.8,2C69,65.5,68.2,65.4,67.6,65.3
	C66.8,65.2,68.2,65.4,67.6,65.3z"/>
<path fill="#B5B5B6" d="M74,65.4c-0.5,0.2-2,0.1-2.4-0.3c-0.9-0.8-0.1-1.3,0.3-1.9C73.1,61,75.7,64.7,74,65.4
	C73.7,65.6,74.3,65.3,74,65.4z"/>
<path fill="#B5B5B6" d="M78.8,65c-0.6,0.5-1.4,0.6-2.1,0.3c-1.1-0.5-0.7-1.4-0.1-2.1c0.7-1,1-0.5,1.9,0C79.2,63.7,79,64.2,78.8,65
	C78.5,65.2,78.9,64.5,78.8,65z"/>
<path fill="#B5B5B6" d="M83.3,63.2c0.5,0.6,0.7,2.1-0.5,2.2c-0.6,0-1.7-0.1-2.1-0.6c-0.2-0.3-0.3-0.8-0.1-1.1
	c0.1-0.1,0.3-0.1,0.4-0.1c0.2-0.1,0.3-0.4,0.4-0.6c0.2-0.6,0.5-0.8,1.1-0.5C82.9,62.6,83,62.8,83.3,63.2
	C83.4,63.4,83.3,63.2,83.3,63.2z"/>
<path fill="#C9CACA" d="M12.9,34.4c9.6,0,19.1,0,28.7,0c0.1,0,0.7,0,0.7,0c0,0.4,0,0.9,0,1.3c0,2.3,0,4.6,0,6.9c0,6.2,0,12.3,0,18.5
	c0,1.4,0,2.8,0,4.2c0,0.1-3.1,0-3.3,0c-6.1,0-12.2,0-18.3,0c-2.3,0-4.5,0-6.8,0c-0.2,0-0.9,0.1-1,0c-0.1-0.1,0-0.9,0-1
	c0-5.4,0-10.8,0-16.2C12.9,43.6,12.9,39,12.9,34.4z"/>
<path fill="#E6E6E6" d="M14.9,38.3c4.5,0,9,0,13.5,0c2.9,0,5.9,0,8.8,0c0.9,0,1.7,0,2.6,0c0.7,0,0.6,0.1,0.6,0.9c0,0.4,0.3,2-0.2,2
	c-0.7,0-1.4,0-2.1,0c-2.8,0-5.6,0-8.4,0c-4.9,0-9.8,0-14.7,0C14.8,41.1,14.9,38.6,14.9,38.3z"/>
<path fill="#E6E6E6" d="M14.9,45.1c4.5,0,9,0,13.5,0c2.9,0,5.9,0,8.8,0c0.9,0,1.7,0,2.6,0c0.7,0,0.6,0.1,0.6,0.9c0,0.4,0.3,2-0.2,2
	c-0.7,0-1.4,0-2.1,0c-2.8,0-5.6,0-8.4,0c-4.9,0-9.8,0-14.7,0C14.8,48,14.9,45.5,14.9,45.1z"/>
<path fill="#E6E6E6" d="M14.9,52c4.5,0,9,0,13.5,0c2.9,0,5.9,0,8.8,0c0.9,0,1.7,0,2.6,0c0.7,0,0.6,0.1,0.6,0.9c0,0.4,0.3,2-0.2,2
	c-0.7,0-1.4,0-2.1,0c-2.8,0-5.6,0-8.4,0c-4.9,0-9.8,0-14.7,0C14.8,54.9,14.9,52.4,14.9,52z"/>
<path fill="#E6E6E6" d="M14.9,58.9c4.5,0,9,0,13.5,0c2.9,0,5.9,0,8.8,0c0.9,0,1.7,0,2.6,0c0.7,0,0.6,0.1,0.6,0.9c0,0.4,0.3,2-0.2,2
	c-0.7,0-1.4,0-2.1,0c-2.8,0-5.6,0-8.4,0c-4.9,0-9.8,0-14.7,0C14.8,61.8,14.9,59.3,14.9,58.9z"/>
<path fill="#B5B5B6" d="M40.2,64c-0.1-0.3-0.4-0.1-0.6-0.5c-0.2-0.5-0.6-0.5-1-0.4c-0.8,0.1-1.4,1-1.2,1.8
	C37.7,66.3,40.9,65.6,40.2,64C40.1,63.8,40.4,64.4,40.2,64z"/>
<path fill="#B5B5B6" d="M35.2,65.6c0.4,0,0.5-0.8,0.5-1c-0.1-0.5-0.5-0.7-0.7-1.1c-0.2-0.5-0.3-0.8-0.8-0.6
	c-0.3,0.1-0.6-0.2-0.8,0.2c-0.3,0.6-1.3,1.8-0.4,2.4c0.3,0.2,0.6,0.2,0.9,0.1C34.3,65.5,34.8,65.7,35.2,65.6z"/>
<path fill="#B5B5B6" d="M29.6,65.3c1.7-0.2,0.6-3.4-1-2.5c-0.7,0.4-1.2,1.3-0.8,2C28.2,65.5,29,65.4,29.6,65.3
	C30.4,65.2,29,65.4,29.6,65.3z"/>
<path fill="#B5B5B6" d="M23.2,65.4c0.5,0.2,2,0.1,2.4-0.3c0.9-0.8,0.1-1.3-0.3-1.9C24.1,61,21.5,64.7,23.2,65.4
	C23.5,65.6,22.9,65.3,23.2,65.4z"/>
<path fill="#B5B5B6" d="M18.4,65c0.6,0.5,1.4,0.6,2.1,0.3c1.1-0.5,0.7-1.4,0.1-2.1c-0.7-1-1-0.5-1.9,0C18,63.7,18.2,64.2,18.4,65
	C18.7,65.2,18.3,64.5,18.4,65z"/>
<path fill="#B5B5B6" d="M13.9,63.2c-0.5,0.6-0.7,2.1,0.5,2.2c0.6,0,1.7-0.1,2.1-0.6c0.2-0.3,0.3-0.8,0.1-1.1
	c-0.1-0.1-0.3-0.1-0.4-0.1c-0.2-0.1-0.3-0.4-0.4-0.6c-0.2-0.6-0.5-0.8-1.1-0.5C14.2,62.6,14.2,62.8,13.9,63.2
	C13.8,63.4,13.9,63.2,13.9,63.2z"/>
<path fill="#B6B698" d="M44.4,53.7c1.8,0,3.6,0,5.4,0c0.9,0,1.8,0,2.8,0c0.3,0,0.3-0.1,0.3,0.2c0,0.2,0.2,1.3,0,1.5
	c-0.2,0.2-1.5,0-1.8,0c-1.2,0-2.4,0-3.6,0c-0.9,0-1.8,0-2.8,0C44.1,55.4,44.4,54.2,44.4,53.7z"/>
<path fill="#FFFFFF" d="M44.9,55.2c2.4,0,4.8,0,7.2,0c0.6,0,0.3,1.2,0.3,1.7c0,1.5,0,3.1,0,4.6c0,0.4,0,0.8,0,1.2
	c0,0.1-0.5,0.1-0.6,0.1c-1.5,0-2.9,0-4.4,0c-0.2,0-2.5,0.1-2.5-0.1c0-1.2,0-2.4,0-3.6C44.9,57.9,44.9,56.5,44.9,55.2z"/>
<path fill="#FFFFFF" d="M47.4,29.1c0.3,0,2.8,0,2.8,0c0,0.5,0,1,0,1.5c0,0.2,0.2,1.4,0,1.6c-0.2,0.2-2.8-0.1-2.8,0
	C47.4,31.1,47.4,30.1,47.4,29.1z"/>
<path fill="#FFFFFF" d="M49,21.5c2.7,0,2.7,5.6,0,5.6S46.3,21.5,49,21.5z"/>
<path fill="#C9CACA" d="M45.2,62.9c-0.9,0.9-1.8,1.7-2.7,2.6c-0.3,0.3-0.6,0.4-0.6,0.8c0,0.2-0.1,1.2,0.1,1.2c2.5,0,5,0,7.5,0
	c1.4,0,2.9,0,4.3,0c0.4,0,0.8,0,1.2,0c0.3,0,0.3,0,0.3-0.3c0-0.2,0.2-1.5,0-1.6c-0.4-0.4-0.9-0.7-1.3-1.1c-0.6-0.5-1.3-1.5-2.2-1.5
	C49.7,62.9,47.5,62.9,45.2,62.9z"/>
<g>
	<path fill="#040000" d="M56.7,41.5c4.5,0,9.1,0,13.6,0c3,0,5.9,0,8.9,0c0.9,0,1.7,0,2.6,0c0.7,0,0.8-0.1,0.8-0.9
		c0-0.4,0.3-2.8-0.3-2.8c-0.6,0-1.1,0-1.7,0c-2.7,0-5.4,0-8,0c-5.2,0-10.3,0-15.5,0c-0.5,0-0.5,0.4-0.5,0.9
		C56.5,39,56.3,41.5,56.7,41.5z M76.5,40.8c-0.7,0-1.3,0-2,0c-0.5,0-0.4-0.1-0.4-0.5c0-0.3-0.2-1.6,0-1.8c0.7,0,1.4,0,2,0
		c0.4,0,0.3,0.1,0.3,0.5C76.5,39.6,76.5,40.2,76.5,40.8z M77,38.6c0.7,0,1.4,0,2.1,0c0.4,0,0.3,0.1,0.3,0.5c0,0.3,0.2,1.6,0,1.8
		c-0.7,0-1.3,0-2,0c-0.5,0-0.4,0-0.4-0.5C77,39.8,77,39.2,77,38.6z M73.6,40.8c-0.7,0-1.3,0-2,0c-0.5,0-0.3-0.1-0.3-0.5
		c0-0.3-0.2-1.6,0-1.8c0.7,0,1.4,0,2,0c0.5,0,0.3,0.1,0.3,0.5C73.6,39.6,73.6,40.2,73.6,40.8z M70.8,40.8c-0.7,0-1.3,0-2,0
		c-0.5,0-0.4,0-0.4-0.5c0-0.3-0.2-1.6,0-1.8c0.7,0,1.3,0,2,0c0.5,0,0.4,0,0.4,0.5C70.8,39.6,70.8,40.2,70.8,40.8z M67.9,40.8
		c-0.7,0-1.4,0-2,0c-0.5,0-0.3-0.1-0.3-0.5c0-0.3-0.2-1.6,0-1.8c0.7,0,1.3,0,2,0c0.5,0,0.3,0.1,0.3,0.5
		C67.9,39.6,67.9,40.2,67.9,40.8z M65,40.8c-0.7,0-1.4,0-2,0c-0.4,0-0.3-0.1-0.3-0.5c0-0.3-0.2-1.6,0-1.8c0.7,0,1.3,0,2,0
		c0.5,0,0.4,0.1,0.4,0.5C65,39.6,65,40.2,65,40.8z M62.1,40.8c-0.7,0-1.4,0-2.1,0c-0.4,0-0.3-0.1-0.3-0.5c0-0.3-0.2-1.6,0-1.8
		c0.7,0,1.3,0,2,0c0.5,0,0.4,0,0.4,0.5C62.1,39.6,62.1,40.2,62.1,40.8z M82.1,40.8c-0.3,0-2.2,0-2.2,0c0-0.6,0-1.3,0-1.9
		c0-0.5,0.2-0.3,0.7-0.3c0.4,0,0.9,0,1.3,0C82.2,38.6,82.1,40.5,82.1,40.8C82,40.8,82.1,40.3,82.1,40.8z M57,38.6c0.3,0,2.3,0,2.3,0
		c0,0.6,0,1.3,0,1.9c0,0.5-0.2,0.3-0.7,0.3c-0.5,0-0.9,0-1.4,0c-0.4,0-0.2-0.3-0.2-0.6C57,39.7,57,39.1,57,38.6
		C57.1,38.6,57,39,57,38.6z"/>
	<path fill="#040000" d="M56.7,48.5c4.5,0,9.1,0,13.6,0c3,0,5.9,0,8.9,0c0.9,0,1.7,0,2.6,0c0.7,0,0.8-0.1,0.8-0.9
		c0-0.4,0.3-2.8-0.3-2.8c-0.6,0-1.1,0-1.7,0c-2.7,0-5.4,0-8,0c-5.2,0-10.3,0-15.5,0c-0.5,0-0.5,0.4-0.5,0.9
		C56.5,46,56.3,48.5,56.7,48.5z M76.5,47.8c-0.7,0-1.3,0-2,0c-0.5,0-0.4-0.1-0.4-0.5c0-0.3-0.2-1.6,0-1.8c0.7,0,1.4,0,2,0
		c0.4,0,0.3,0.1,0.3,0.5C76.5,46.6,76.5,47.2,76.5,47.8z M77,45.5c0.7,0,1.4,0,2.1,0c0.4,0,0.3,0.1,0.3,0.5c0,0.3,0.2,1.6,0,1.8
		c-0.7,0-1.3,0-2,0c-0.5,0-0.4,0-0.4-0.5C77,46.7,77,46.1,77,45.5z M73.6,47.8c-0.7,0-1.3,0-2,0c-0.5,0-0.3-0.1-0.3-0.5
		c0-0.3-0.2-1.6,0-1.8c0.7,0,1.4,0,2,0c0.5,0,0.3,0.1,0.3,0.5C73.6,46.6,73.6,47.2,73.6,47.8z M70.8,47.8c-0.7,0-1.3,0-2,0
		c-0.5,0-0.4,0-0.4-0.5c0-0.3-0.2-1.6,0-1.8c0.7,0,1.3,0,2,0c0.5,0,0.4,0,0.4,0.5C70.8,46.6,70.8,47.2,70.8,47.8z M67.9,47.8
		c-0.7,0-1.4,0-2,0c-0.5,0-0.3-0.1-0.3-0.5c0-0.3-0.2-1.6,0-1.8c0.7,0,1.3,0,2,0c0.5,0,0.3,0.1,0.3,0.5
		C67.9,46.6,67.9,47.2,67.9,47.8z M65,47.8c-0.7,0-1.4,0-2,0c-0.4,0-0.3-0.1-0.3-0.5c0-0.3-0.2-1.6,0-1.8c0.7,0,1.3,0,2,0
		c0.5,0,0.4,0.1,0.4,0.5C65,46.6,65,47.2,65,47.8z M62.1,47.8c-0.7,0-1.4,0-2.1,0c-0.4,0-0.3-0.1-0.3-0.5c0-0.3-0.2-1.6,0-1.8
		c0.7,0,1.3,0,2,0c0.5,0,0.4,0,0.4,0.5C62.1,46.6,62.1,47.2,62.1,47.8z M82.1,47.8c-0.3,0-2.2,0-2.2,0c0-0.6,0-1.3,0-1.9
		c0-0.5,0.2-0.3,0.7-0.3c0.4,0,0.9,0,1.3,0C82.2,45.5,82.1,47.4,82.1,47.8C82,47.8,82.1,47.3,82.1,47.8z M57,45.5c0.3,0,2.3,0,2.3,0
		c0,0.6,0,1.3,0,1.9c0,0.5-0.2,0.3-0.7,0.3c-0.5,0-0.9,0-1.4,0c-0.4,0-0.2-0.3-0.2-0.6C57,46.6,57,46.1,57,45.5
		C57.1,45.5,57,46,57,45.5z"/>
	<path fill="#040000" d="M56.7,55.5c4.5,0,9.1,0,13.6,0c3,0,5.9,0,8.9,0c0.9,0,1.7,0,2.6,0c0.7,0,0.8-0.1,0.8-0.9
		c0-0.4,0.3-2.8-0.3-2.8c-0.6,0-1.1,0-1.7,0c-2.7,0-5.4,0-8,0c-5.2,0-10.3,0-15.5,0c-0.5,0-0.5,0.4-0.5,0.9
		C56.5,52.9,56.3,55.5,56.7,55.5z M76.5,54.7c-0.7,0-1.3,0-2,0c-0.5,0-0.4-0.1-0.4-0.5c0-0.3-0.2-1.6,0-1.8c0.7,0,1.4,0,2,0
		c0.4,0,0.3,0.1,0.3,0.5C76.5,53.5,76.5,54.1,76.5,54.7z M77,52.5c0.7,0,1.4,0,2.1,0c0.4,0,0.3,0.1,0.3,0.5c0,0.3,0.2,1.6,0,1.8
		c-0.7,0-1.3,0-2,0c-0.5,0-0.4,0-0.4-0.5C77,53.7,77,53.1,77,52.5z M73.6,54.7c-0.7,0-1.3,0-2,0c-0.5,0-0.3-0.1-0.3-0.5
		c0-0.3-0.2-1.6,0-1.8c0.7,0,1.4,0,2,0c0.5,0,0.3,0.1,0.3,0.5C73.6,53.5,73.6,54.1,73.6,54.7z M70.8,54.7c-0.7,0-1.3,0-2,0
		c-0.5,0-0.4,0-0.4-0.5c0-0.3-0.2-1.6,0-1.8c0.7,0,1.3,0,2,0c0.5,0,0.4,0,0.4,0.5C70.8,53.5,70.8,54.1,70.8,54.7z M67.9,54.7
		c-0.7,0-1.4,0-2,0c-0.5,0-0.3-0.1-0.3-0.5c0-0.3-0.2-1.6,0-1.8c0.7,0,1.3,0,2,0c0.5,0,0.3,0.1,0.3,0.5
		C67.9,53.5,67.9,54.1,67.9,54.7z M65,54.7c-0.7,0-1.4,0-2,0c-0.4,0-0.3-0.1-0.3-0.5c0-0.3-0.2-1.6,0-1.8c0.7,0,1.3,0,2,0
		c0.5,0,0.4,0.1,0.4,0.5C65,53.5,65,54.1,65,54.7z M62.1,54.7c-0.7,0-1.4,0-2.1,0c-0.4,0-0.3-0.1-0.3-0.5c0-0.3-0.2-1.6,0-1.8
		c0.7,0,1.3,0,2,0c0.5,0,0.4,0,0.4,0.5C62.1,53.5,62.1,54.1,62.1,54.7z M82.1,54.7c-0.3,0-2.2,0-2.2,0c0-0.6,0-1.3,0-1.9
		c0-0.5,0.2-0.3,0.7-0.3c0.4,0,0.9,0,1.3,0C82.2,52.5,82.1,54.4,82.1,54.7C82,54.7,82.1,54.2,82.1,54.7z M57,52.5c0.3,0,2.3,0,2.3,0
		c0,0.6,0,1.3,0,1.9c0,0.5-0.2,0.3-0.7,0.3c-0.5,0-0.9,0-1.4,0c-0.4,0-0.2-0.3-0.2-0.6C57,53.6,57,53,57,52.5
		C57.1,52.5,57,53,57,52.5z"/>
	<path fill="#040000" d="M49.1,27.7c3.2,0,3.2-6.7,0-6.7C45.9,21,45.9,27.7,49.1,27.7z M49.1,21.7c2.5,0,2.5,5.2,0,5.2
		C46.6,27,46.6,21.7,49.1,21.7z"/>
	<path fill="#040000" d="M48.8,24.9c0.3,0.3,1.4-1,1.6-1.2c0.3-0.3,0-0.9-0.4-0.5c-0.4,0.3-0.7,0.7-1.1,1c-0.2-0.3-0.4-0.5-0.6-0.8
		c-0.3-0.4-0.8,0-0.4,0.4C48,24.2,48.5,24.6,48.8,24.9z"/>
	<path fill="#040000" d="M50.2,28.7c-0.5,0-3-0.3-3,0.4c0,0.4-0.2,3.5,0.3,3.5c0.3,0.2,1.3,0,1.7,0c0.4,0,1.3,0.2,1.3-0.4
		C50.5,31.8,50.7,28.7,50.2,28.7z M49.9,31.8c-0.7,0-1.4,0-2.1,0c-0.2,0-0.1-2.1-0.1-2.4c0.7,0,1.4,0,2.1,0
		C50.1,29.4,49.9,31.5,49.9,31.8C49.6,31.8,49.9,31.3,49.9,31.8z"/>
	<path fill="#040000" d="M50.1,34.3c-0.5,0-2.7-0.3-2.7,0.4c0,0.7,0,1.5,0,2.2c0,3.1,0,6.1,0,9.2c0,0.4-0.3,5.7,0.3,5.7
		c0.3,0.2,1.3,0,1.7,0c0.4,0,1,0.2,1-0.4c0-0.7,0-1.5,0-2.2c0-3.1,0-6.1,0-9.2C50.3,39.6,50.6,34.3,50.1,34.3z M49.8,51.1
		c-0.3,0-1.9,0.1-1.9-0.1c0-0.3,0-0.7,0-1c0-1.3,0-2.7,0-4c0-3.1,0-6.3,0-9.4c0-0.4,0-0.8,0-1.2c0-0.6,0.5-0.4,1.1-0.4
		c0.5,0,0.8-0.2,0.8,0.4c0,0.4,0,0.9,0,1.3c0,3.2,0,6.3,0,9.5C49.8,47.9,49.8,49.5,49.8,51.1C49.5,51.1,49.8,50.4,49.8,51.1z"/>
	<path fill="#040000" d="M14.9,41.5c4.5,0,9.1,0,13.6,0c3,0,5.9,0,8.9,0c0.9,0,1.7,0,2.6,0c0.7,0,0.8-0.1,0.8-0.9
		c0-0.4,0.3-2.8-0.3-2.8c-0.6,0-1.1,0-1.7,0c-2.7,0-5.4,0-8,0c-5.2,0-10.3,0-15.5,0c-0.5,0-0.5,0.4-0.5,0.9
		C14.6,39,14.4,41.5,14.9,41.5z M34.6,40.8c-0.7,0-1.3,0-2,0c-0.5,0-0.4-0.1-0.4-0.5c0-0.3-0.2-1.6,0-1.8c0.7,0,1.4,0,2,0
		c0.4,0,0.3,0.1,0.3,0.5C34.6,39.6,34.6,40.2,34.6,40.8z M35.1,38.6c0.7,0,1.4,0,2.1,0c0.4,0,0.3,0.1,0.3,0.5c0,0.3,0.2,1.6,0,1.8
		c-0.7,0-1.3,0-2,0c-0.5,0-0.4,0-0.4-0.5C35.1,39.8,35.1,39.2,35.1,38.6z M31.7,40.8c-0.7,0-1.3,0-2,0c-0.5,0-0.3-0.1-0.3-0.5
		c0-0.3-0.2-1.6,0-1.8c0.7,0,1.4,0,2,0c0.5,0,0.3,0.1,0.3,0.5C31.7,39.6,31.7,40.2,31.7,40.8z M28.8,40.8c-0.7,0-1.3,0-2,0
		c-0.5,0-0.4,0-0.4-0.5c0-0.3-0.2-1.6,0-1.8c0.7,0,1.3,0,2,0c0.5,0,0.4,0,0.4,0.5C28.8,39.6,28.8,40.2,28.8,40.8z M26,40.8
		c-0.7,0-1.4,0-2,0c-0.5,0-0.3-0.1-0.3-0.5c0-0.3-0.2-1.6,0-1.8c0.7,0,1.3,0,2,0c0.5,0,0.3,0.1,0.3,0.5C26,39.6,26,40.2,26,40.8z
		 M23.1,40.8c-0.7,0-1.4,0-2,0c-0.4,0-0.3-0.1-0.3-0.5c0-0.3-0.2-1.6,0-1.8c0.7,0,1.3,0,2,0c0.5,0,0.4,0.1,0.4,0.5
		C23.1,39.6,23.1,40.2,23.1,40.8z M20.2,40.8c-0.7,0-1.4,0-2.1,0c-0.4,0-0.3-0.1-0.3-0.5c0-0.3-0.2-1.6,0-1.8c0.7,0,1.3,0,2,0
		c0.5,0,0.4,0,0.4,0.5C20.2,39.6,20.2,40.2,20.2,40.8z M40.2,40.8c-0.3,0-2.3,0-2.3,0c0-0.6,0-1.3,0-1.9c0-0.5,0.2-0.3,0.7-0.3
		c0.5,0,0.9,0,1.4,0c0.4,0,0.2,0.3,0.2,0.6C40.2,39.7,40.2,40.3,40.2,40.8C40.1,40.8,40.2,40.3,40.2,40.8z M15.1,38.6
		c0.3,0,2.2,0,2.2,0c0,0.6,0,1.3,0,1.9c0,0.5-0.2,0.3-0.7,0.3c-0.4,0-0.9,0-1.3,0C15,40.8,15.1,38.9,15.1,38.6
		C15.2,38.6,15.1,39,15.1,38.6z"/>
	<path fill="#040000" d="M14.9,48.5c4.5,0,9.1,0,13.6,0c3,0,5.9,0,8.9,0c0.9,0,1.7,0,2.6,0c0.7,0,0.8-0.1,0.8-0.9
		c0-0.4,0.3-2.8-0.3-2.8c-0.6,0-1.1,0-1.7,0c-2.7,0-5.4,0-8,0c-5.2,0-10.3,0-15.5,0c-0.5,0-0.5,0.4-0.5,0.9
		C14.6,46,14.4,48.5,14.9,48.5z M34.6,47.8c-0.7,0-1.3,0-2,0c-0.5,0-0.4-0.1-0.4-0.5c0-0.3-0.2-1.6,0-1.8c0.7,0,1.4,0,2,0
		c0.4,0,0.3,0.1,0.3,0.5C34.6,46.6,34.6,47.2,34.6,47.8z M35.1,45.5c0.7,0,1.4,0,2.1,0c0.4,0,0.3,0.1,0.3,0.5c0,0.3,0.2,1.6,0,1.8
		c-0.7,0-1.3,0-2,0c-0.5,0-0.4,0-0.4-0.5C35.1,46.7,35.1,46.1,35.1,45.5z M31.7,47.8c-0.7,0-1.3,0-2,0c-0.5,0-0.3-0.1-0.3-0.5
		c0-0.3-0.2-1.6,0-1.8c0.7,0,1.4,0,2,0c0.5,0,0.3,0.1,0.3,0.5C31.7,46.6,31.7,47.2,31.7,47.8z M28.8,47.8c-0.7,0-1.3,0-2,0
		c-0.5,0-0.4,0-0.4-0.5c0-0.3-0.2-1.6,0-1.8c0.7,0,1.3,0,2,0c0.5,0,0.4,0,0.4,0.5C28.8,46.6,28.8,47.2,28.8,47.8z M26,47.8
		c-0.7,0-1.4,0-2,0c-0.5,0-0.3-0.1-0.3-0.5c0-0.3-0.2-1.6,0-1.8c0.7,0,1.3,0,2,0c0.5,0,0.3,0.1,0.3,0.5C26,46.6,26,47.2,26,47.8z
		 M23.1,47.8c-0.7,0-1.4,0-2,0c-0.4,0-0.3-0.1-0.3-0.5c0-0.3-0.2-1.6,0-1.8c0.7,0,1.3,0,2,0c0.5,0,0.4,0.1,0.4,0.5
		C23.1,46.6,23.1,47.2,23.1,47.8z M20.2,47.8c-0.7,0-1.4,0-2.1,0c-0.4,0-0.3-0.1-0.3-0.5c0-0.3-0.2-1.6,0-1.8c0.7,0,1.3,0,2,0
		c0.5,0,0.4,0,0.4,0.5C20.2,46.6,20.2,47.2,20.2,47.8z M40.2,47.8c-0.3,0-2.3,0-2.3,0c0-0.6,0-1.3,0-1.9c0-0.5,0.2-0.3,0.7-0.3
		c0.5,0,0.9,0,1.4,0c0.4,0,0.2,0.3,0.2,0.6C40.2,46.7,40.2,47.2,40.2,47.8C40.1,47.8,40.2,47.3,40.2,47.8z M15.1,45.5
		c0.3,0,2.2,0,2.2,0c0,0.6,0,1.3,0,1.9c0,0.5-0.2,0.3-0.7,0.3c-0.4,0-0.9,0-1.3,0C15,47.8,15.1,45.9,15.1,45.5
		C15.2,45.5,15.1,46,15.1,45.5z"/>
	<path fill="#040000" d="M14.9,55.5c4.5,0,9.1,0,13.6,0c3,0,5.9,0,8.9,0c0.9,0,1.7,0,2.6,0c0.7,0,0.8-0.1,0.8-0.9
		c0-0.4,0.3-2.8-0.3-2.8c-0.6,0-1.1,0-1.7,0c-2.7,0-5.4,0-8,0c-5.2,0-10.3,0-15.5,0c-0.5,0-0.5,0.4-0.5,0.9
		C14.6,52.9,14.4,55.5,14.9,55.5z M34.6,54.7c-0.7,0-1.3,0-2,0c-0.5,0-0.4-0.1-0.4-0.5c0-0.3-0.2-1.6,0-1.8c0.7,0,1.4,0,2,0
		c0.4,0,0.3,0.1,0.3,0.5C34.6,53.5,34.6,54.1,34.6,54.7z M35.1,52.5c0.7,0,1.4,0,2.1,0c0.4,0,0.3,0.1,0.3,0.5c0,0.3,0.2,1.6,0,1.8
		c-0.7,0-1.3,0-2,0c-0.5,0-0.4,0-0.4-0.5C35.1,53.7,35.1,53.1,35.1,52.5z M31.7,54.7c-0.7,0-1.3,0-2,0c-0.5,0-0.3-0.1-0.3-0.5
		c0-0.3-0.2-1.6,0-1.8c0.7,0,1.4,0,2,0c0.5,0,0.3,0.1,0.3,0.5C31.7,53.5,31.7,54.1,31.7,54.7z M28.8,54.7c-0.7,0-1.3,0-2,0
		c-0.5,0-0.4,0-0.4-0.5c0-0.3-0.2-1.6,0-1.8c0.7,0,1.3,0,2,0c0.5,0,0.4,0,0.4,0.5C28.8,53.5,28.8,54.1,28.8,54.7z M26,54.7
		c-0.7,0-1.4,0-2,0c-0.5,0-0.3-0.1-0.3-0.5c0-0.3-0.2-1.6,0-1.8c0.7,0,1.3,0,2,0c0.5,0,0.3,0.1,0.3,0.5C26,53.5,26,54.1,26,54.7z
		 M23.1,54.7c-0.7,0-1.4,0-2,0c-0.4,0-0.3-0.1-0.3-0.5c0-0.3-0.2-1.6,0-1.8c0.7,0,1.3,0,2,0c0.5,0,0.4,0.1,0.4,0.5
		C23.1,53.5,23.1,54.1,23.1,54.7z M20.2,54.7c-0.7,0-1.4,0-2.1,0c-0.4,0-0.3-0.1-0.3-0.5c0-0.3-0.2-1.6,0-1.8c0.7,0,1.3,0,2,0
		c0.5,0,0.4,0,0.4,0.5C20.2,53.5,20.2,54.1,20.2,54.7z M40.2,54.7c-0.3,0-2.3,0-2.3,0c0-0.6,0-1.3,0-1.9c0-0.5,0.2-0.3,0.7-0.3
		c0.5,0,0.9,0,1.4,0c0.4,0,0.2,0.3,0.2,0.6C40.2,53.6,40.2,54.2,40.2,54.7C40.1,54.7,40.2,54.2,40.2,54.7z M15.1,52.5
		c0.3,0,2.2,0,2.2,0c0,0.6,0,1.3,0,1.9c0,0.5-0.2,0.3-0.7,0.3c-0.4,0-0.9,0-1.3,0C15,54.7,15.1,52.8,15.1,52.5
		C15.2,52.5,15.1,53,15.1,52.5z"/>
	<path fill="#040000" d="M95.7,57.4c0-0.6-0.2-1.1-0.8-1.3c0.4-0.8,0.9-2,0.3-2.8c-0.8-1.1-1.8,0.4-2.1,1.1
		c-0.2-0.3-0.6-0.6-0.9-0.3c-0.1-0.4-0.3-0.8-0.7-0.9c0.4-0.7,0.6-3-0.9-2.3c0.1-0.8,0.1-2.9-1.2-2.8c-1.1,0-1.6,1.9-1.8,2.7
		c-0.5-0.5-1.3-0.7-1.8-0.1c-0.5,0.7-0.3,1.7,0.2,2.3c-0.7,0.5-1.2,1.4-1.5,2.2c0-4.9,0-9.7,0-14.6c0-2,0-4.1,0-6.1
		c0-0.3-0.5-0.5-0.5-0.5c0-0.2,0.2-1.6-0.3-1.6c-0.4,0-0.8,0-1.2,0c-5.6,0-11.3,0-16.9,0c-2.7,0-5.4,0-8.1,0c-0.7,0-1.4,0-2.1,0
		c-0.4,0-0.3-0.1-0.3-0.5c0-2.8,0-5.6,0-8.4c0-1.3,0-2.6,0-3.9c0-0.4,0.2-1.3-0.4-1.3c-2.6,0-5.2,0-7.8,0c-1.3,0-2.6,0-3.9,0
		c-0.6,0-1-0.1-1,0.7c0,4.5,0,9,0,13.5c-1.2-0.1-2.5,0-3.8,0c-2.9,0-5.9,0-8.8,0c-5.2,0-10.5,0-15.7,0c-0.4,0-0.8-0.1-0.8,0.5
		c0,0.3,0,0.6,0,0.9c0,0.5-0.2,0-0.4,0.4c-0.1,0.1-0.1,0.4-0.1,0.5c0,1.9,0,3.8,0,5.7c0,4.2,0,8.4,0,12.6c-0.9-0.8-1.5,0.9-1.7,1.5
		c-0.1,0.2-0.1,0.4-0.2,0.7c-0.1,0.3-0.2,0.2-0.4,0.4c-0.4,0.5-0.6,1.2-0.7,1.8c-0.1-0.7-0.6-1.6-0.5-2.3c0.1-0.7,0.1-1.3-0.1-2
		c-0.2-0.7-0.6-1.6-1.3-1.9c-0.8-0.3-1.4,0.3-1.7,1c-0.1,0.4-0.1,0.8-0.1,1.2c-0.2,0.2-0.3,0.4-0.5,0.7c-0.3,0.7-0.4,1.5-0.5,2.2
		c-0.1,0.8-0.1,1.6,0.1,2.3c0.1,0.3,0.2,0.6,0.3,0.9c0.3,0.5,0.3,0.4,0.3,1c0,0.8,0.1,1.6,0.4,2.2c0.2,0.3,0.4,0.6,0.6,0.9
		c0.4,0.4,0.4,0.4,0.3,1c-0.1,0.5-0.8,2.2-0.2,2.6c0.2,0.1,0.6-0.1,0.8-0.1c0.4,0.1,0.3-0.8,0.3-1c0-0.5-0.1-1-0.1-1.4
		C7.7,64.3,7.7,64.3,8,64c0.4-0.4,0.6-0.9,0.8-1.4c0.2-0.6,0.3-1.2,0.3-1.8c0-0.2-0.1-0.7,0-0.8c0.2-0.2,0.3-0.6,0.4-0.9
		c0.1,0.5,0.6,1,0.5,1.4c-0.2,0.5-0.3,1.1-0.3,1.7c0,0.5,0.2,1,0.4,1.4c0.1,0.2,0.3,0.4,0.5,0.4c0.3,0,0.3,0.4,0.6,0.6
		c0.1,0.1,0.3,0.2,0.5,0.2c0,0.3,0,0.6,0,0.8c0.1,0.5,0.7,0.5,1,0.2c0.1,0,0.2,0,0.3,0c1.8,0,3.6,0,5.5,0c6.2,0,12.4,0,18.5,0
		c1.5,0,3.1,0,4.6,0c-0.2,0.3-0.3,2.1,0.1,2.1c0.2,0.1,0.8,0,1,0c1.9,0,3.9,0,5.8,0c1.9,0,3.8,0,5.7,0c0.4,0,0.7,0,1.1,0
		c0.5,0,0.2-1.9,0.2-2.1c9.4,0,18.8,0,28.2,0c0.3,0,0.7,0.1,0.7-0.4c0-0.8,0-1.7,0-2.5c0-2.1,0-4.2,0-6.2c0.2,0.5,0.6,0.8,1.2,0.6
		c-0.2,0.6-0.3,1.2-0.2,1.8c0.2,0.8,0.9,1,1.5,0.4c-0.1,0.7-0.2,1.7,0.4,2.2c0.3,0.3,0.3-0.1,0.3,0.5c0,0.4-0.1,0.8-0.1,1.2
		c-0.1,1-0.5,2.5,1,2.2c0.7-0.2,0.3-2.8,0.3-3.4c0-0.3,0-0.7,0-1c0-0.4,0.4-1,0.6-1.4c0.1,0.3,0.3,0.7,0.6,0.9
		c0.4,0.2,0.2,0.5,0.3,0.9c0.2,0.8,1,1.2,1.8,0.9c-0.1,1.3-0.6,2.7-0.3,3.9c0.1,0.6,0.6,0.6,1,0.1c0.3-0.3,0.2-0.8,0.2-1.2
		c0-1.2-0.3-2.8,0.2-3.9c1,0.8,1.7-0.5,1.9-1.3c0.1-0.5,0-1-0.2-1.4C95.5,58.3,95.7,57.9,95.7,57.4z M7.4,66.5c-0.1,0-0.2,0-0.3,0
		c0-0.4,0.1-0.7,0.2-1.1C7.3,65.8,7.4,66.2,7.4,66.5C7.3,66.6,7.4,66.5,7.4,66.5z M9,59c-0.1,0.4-0.5,0.4-0.5,0.8
		c0,0.4,0.1,0.7,0.1,1.1c0,0.4-0.6,3.2-1.3,2.6c-0.9-0.7-1.3-1.8-1.2-2.9c0-0.3,0.2-0.7,0.1-1c-0.1-0.2-0.4-0.3-0.5-0.5
		c-0.3-0.6-0.3-1.4-0.3-2.1c0-0.6,0.1-1.3,0.3-1.9c0.1-0.2,0.1-0.5,0.2-0.7C6,54.1,6.3,54,6.4,53.8c0.2-0.6-0.2-1.2,0.3-1.7
		c0.5-0.6,1.2-0.1,1.5,0.5c0.4,0.7,0.4,1.3,0.4,2.1c0,0.5-0.3,0.8,0.1,1.2C9.3,56.6,9.2,58.2,9,59C9,59.1,9.3,58,9,59z M83.6,34
		c-0.8,0-0.8,0.1-0.8-0.7c0-0.4,0.1-0.3,0.5-0.3C83.8,33,83.6,33.6,83.6,34z M56.2,34c0-0.3,0-0.5,0-0.8c0-0.3,0.8-0.1,0.8-0.1
		c0,0.3,0,0.6,0,0.9C57,34,56.4,34,56.2,34z M57.5,33c0.4,0,0.8-0.2,0.8,0.3c0,0.1,0.1,0.7-0.1,0.7c-0.1,0-0.7,0-0.7,0
		C57.5,33.6,57.5,33.3,57.5,33z M58.8,33c0.7,0,0.8-0.2,0.8,0.5c0,0.3,0.1,0.5-0.2,0.5C58.6,34,58.8,33.8,58.8,33z M60,33
		c0.7,0,0.8-0.2,0.8,0.5c0,0.3,0.1,0.5-0.2,0.5C59.8,34,60,33.8,60,33z M61.3,33c0.7,0,0.8-0.2,0.8,0.5c0,0.3,0.1,0.5-0.2,0.5
		C61.1,34,61.3,33.8,61.3,33z M62.6,33c0.7,0,0.8-0.2,0.8,0.5c0,0.3,0.1,0.5-0.2,0.5C62.4,34,62.6,33.8,62.6,33z M63.8,33
		c0.7,0,0.8-0.2,0.8,0.5c0,0.3,0.1,0.5-0.2,0.5C63.6,34,63.8,33.8,63.8,33z M65.1,33c0.7,0,0.8-0.2,0.8,0.5c0,0.3,0.1,0.5-0.2,0.5
		C64.9,34,65.1,33.8,65.1,33z M66.4,33c0.7,0,0.8-0.2,0.8,0.5c0,0.3,0.1,0.5-0.2,0.5C66.2,34,66.4,33.8,66.4,33z M67.6,33
		c0.7,0,0.8-0.2,0.8,0.5c0,0.3,0.1,0.5-0.2,0.5C67.4,34,67.6,33.8,67.6,33z M68.9,33c0.7,0,0.8-0.2,0.8,0.5c0,0.3,0.1,0.5-0.2,0.5
		C68.7,34,68.9,33.8,68.9,33z M70.2,33c0.7,0,0.8-0.2,0.8,0.5c0,0.3,0.1,0.5-0.2,0.5C70,34,70.2,33.8,70.2,33z M71.4,33
		c0.7,0,0.8-0.2,0.8,0.5c0,0.3,0.1,0.5-0.2,0.5C71.2,34,71.4,33.8,71.4,33z M72.7,33c0.7,0,0.8-0.2,0.8,0.5c0,0.3,0.1,0.5-0.2,0.5
		C72.5,34,72.7,33.8,72.7,33z M74,33c0.7,0,0.8-0.2,0.8,0.5c0,0.3,0.1,0.5-0.2,0.5C73.8,34,74,33.8,74,33z M75.2,33
		c0.7,0,0.8-0.2,0.8,0.5c0,0.3,0.1,0.5-0.2,0.5C75,34,75.2,33.8,75.2,33z M76.5,33c0.7,0,0.8-0.2,0.8,0.5c0,0.3,0.1,0.5-0.2,0.5
		C76.3,34,76.5,33.8,76.5,33z M77.8,33c0.7,0,0.8-0.2,0.8,0.5c0,0.3,0.1,0.5-0.2,0.5C77.5,34,77.8,33.8,77.8,33z M79,33
		c0.7,0,0.8-0.2,0.8,0.5c0,0.3,0.1,0.5-0.2,0.5C78.8,34,79,33.8,79,33z M80.3,33c0.4,0,0.8-0.2,0.8,0.3c0,0.1,0.1,0.7-0.1,0.7
		c-0.1,0-0.7,0-0.7,0C80.3,33.6,80.3,33.3,80.3,33z M81.6,33c0.4,0,0.8-0.2,0.8,0.3c0,0.1,0.1,0.7-0.1,0.7c-0.1,0-0.7,0-0.7,0
		C81.6,33.6,81.6,33.3,81.6,33z M55.7,33c0,0.6,0.2,1-0.4,1c-0.2,0-0.1-0.4-0.1-0.5C55.2,33,55.2,33,55.7,33z M44.3,64.4
		c1.9,0,3.8,0,5.7,0c0.9,0,1.8,0,2.7,0c0.3,0,0.5-0.1,0.5,0.3c0,0.2-0.1,0.1-0.3,0.1c-1.7,0-3.5,0-5.2,0c-0.9,0-1.7,0-2.6,0
		C44.7,64.8,44.2,65,44.3,64.4z M45.5,63.4c1.2,0,2.4,0,3.5,0c0.6,0,1.3,0,1.9,0c0.4,0,1.2-0.2,1,0.4c-2.2,0-4.3,0-6.5,0
		C45.5,63.6,45.5,63.5,45.5,63.4z M48.5,55.7c0,1.5,0,2.9,0,4.4c0,0.8,0,1.6,0,2.4c0,0.4-1.1,0.4-1.3,0.2c-0.1-0.2,0-1.1,0-1.4
		c0-1,0-2,0-3c0-0.8,0-1.6,0-2.4C47.2,55.5,48.1,55.7,48.5,55.7z M49,62.7c0-1.5,0-2.9,0-4.4c0-0.8,0-1.6,0-2.4
		c0-0.2-0.1-0.2,0.1-0.2c0.2,0,1.1-0.1,1.2,0c0.1,0.2,0,1.1,0,1.4c0,1,0,2,0,3c0,0.8,0,1.6,0,2.4C50.3,62.9,49.4,62.7,49,62.7z
		 M53.7,64.5c0.1,0.1,0.2,0.2,0.3,0.3C53.8,64.9,53.6,64.8,53.7,64.5z M52.5,63.8c0-0.1,0-0.2,0-0.3c0.1,0.1,0.2,0.2,0.3,0.3
		C52.7,63.8,52.6,63.8,52.5,63.8z M52.1,62.7c-0.3,0-1.3,0.2-1.3-0.2c0-0.7,0-1.5,0-2.2c0-1,0-2,0-3c0-0.2-0.2-1.3,0-1.5
		c0.1-0.1,1.3-0.1,1.3,0.2c0,0.7,0,1.5,0,2.2C52.1,59.6,52.1,61.2,52.1,62.7z M52.6,55c-1.4,0-2.8,0-4.1,0c-0.9,0-1.8,0-2.7,0
		c-0.3,0-0.5,0-0.8,0c-0.4,0-0.2-0.5-0.2-0.8c1.4,0,2.8,0,4.1,0c0.9,0,1.8,0,2.7,0c0.3,0,0.5,0,0.8,0C52.7,54.2,52.6,54.7,52.6,55
		C52.1,55,52.6,54.7,52.6,55z M46.7,55.7c0,1.5,0,3,0,4.5c0,0.7,0,1.5,0,2.2c0,0.3-1.3,0.3-1.5,0.2c-0.2-0.2,0-1.3,0-1.5
		c0-1,0-2,0-3c0-0.7,0-1.5,0-2.2C45.3,55.5,46.4,55.7,46.7,55.7z M45,63.4c0.1,0.2,0,0.4-0.3,0.3C44.8,63.6,44.9,63.5,45,63.4z
		 M43.8,64.8c-0.1,0-0.2,0-0.2,0C43.9,64.6,43.9,64.5,43.8,64.8z M42.7,65.7c0.1,0.2,0,0.4-0.3,0.3C42.5,65.9,42.6,65.8,42.7,65.7z
		 M43.2,65.6c2,0,3.9,0,5.9,0c1.3,0,2.6,0,3.9,0c0.1,0,2-0.2,1.4,0.5c-0.2,0.2-1.6,0-1.9,0c-1.3,0-2.7,0-4,0c-1.3,0-2.6,0-3.9,0
		C44.1,66,43.1,66.3,43.2,65.6z M54.9,65.7c0.2,0.1,0.2,0.1,0.2,0.4C54.9,66.1,54.9,65.9,54.9,65.7z M54.7,18.9
		c0,10.6,0,21.1,0,31.7c0,4.7,0,9.4,0,14.1c-0.4-0.4-0.8-0.8-1.3-1.1c-0.2-0.2-0.8-0.6-0.8-0.8c0-1.2,0-2.5,0-3.7c0-0.7,0-1.4,0-2.1
		c0-0.3-0.1-0.8,0-1.1c0-0.1,0.4-0.1,0.4-0.5c0-0.3,0-0.7,0-1c0-0.5,0-0.8-0.5-0.8c-2.6,0-5.2,0-7.9,0c-0.5,0-0.5,0.4-0.5,0.8
		c0,0.3,0,0.7,0,1c0,0.6,0.4,0.3,0.6,0.5c0.1,0.1,0,0.8,0,0.9c0,0.8,0,1.5,0,2.3c0,1.3,0,2.5,0,3.8c0,0.3-0.7,0.7-0.8,0.9
		c-0.4,0.4-0.8,0.8-1.2,1.2c0-11.7,0-23.3,0-35c0-3.6,0-7.2,0-10.9c0-0.3,4.7-0.1,5.2-0.1C50.2,18.9,52.4,18.9,54.7,18.9
		C54.7,19.5,54.2,18.9,54.7,18.9z M42.2,33c0,0.3,0,0.7,0,1c-0.4-0.1-0.7,0.2-0.7-0.3C41.5,32.9,41.5,33.1,42.2,33z M14.9,34
		c0-0.3,0-0.5,0-0.8c0-0.3,0.8-0.1,0.8-0.1c0,0.3,0,0.6,0,0.9C15.7,34,15,34,14.9,34z M16.2,33c0.4,0,0.8-0.2,0.8,0.3
		c0,0.1,0.1,0.7-0.1,0.7c-0.1,0-0.7,0-0.7,0C16.2,33.6,16.2,33.3,16.2,33z M17.4,33c0.7,0,0.8-0.2,0.8,0.5c0,0.3,0.1,0.5-0.2,0.5
		C17.2,34,17.4,33.8,17.4,33z M18.7,33c0.7,0,0.8-0.2,0.8,0.5c0,0.3,0.1,0.5-0.2,0.5C18.5,34,18.7,33.8,18.7,33z M20,33
		c0.7,0,0.8-0.2,0.8,0.5c0,0.3,0.1,0.5-0.2,0.5C19.7,34,20,33.8,20,33z M21.2,33c0.7,0,0.8-0.2,0.8,0.5c0,0.3,0.1,0.5-0.2,0.5
		C21,34,21.2,33.8,21.2,33z M22.5,33c0.7,0,0.8-0.2,0.8,0.5c0,0.3,0.1,0.5-0.2,0.5C22.3,34,22.5,33.8,22.5,33z M23.8,33
		c0.7,0,0.8-0.2,0.8,0.5c0,0.3,0.1,0.5-0.2,0.5C23.5,34,23.8,33.8,23.8,33z M25,33c0.7,0,0.8-0.2,0.8,0.5c0,0.3,0.1,0.5-0.2,0.5
		C24.8,34,25,33.8,25,33z M26.3,33c0.7,0,0.8-0.2,0.8,0.5c0,0.3,0.1,0.5-0.2,0.5C26.1,34,26.3,33.8,26.3,33z M27.6,33
		c0.7,0,0.8-0.2,0.8,0.5c0,0.3,0.1,0.5-0.2,0.5C27.3,34,27.6,33.8,27.6,33z M28.8,33c0.7,0,0.8-0.2,0.8,0.5c0,0.3,0.1,0.5-0.2,0.5
		C28.6,34,28.8,33.8,28.8,33z M30.1,33c0.7,0,0.8-0.2,0.8,0.5c0,0.3,0.1,0.5-0.2,0.5C29.9,34,30.1,33.8,30.1,33z M31.4,33
		c0.7,0,0.8-0.2,0.8,0.5c0,0.3,0.1,0.5-0.2,0.5C31.1,34,31.4,33.8,31.4,33z M32.6,33c0.7,0,0.8-0.2,0.8,0.5c0,0.3,0.1,0.5-0.2,0.5
		C32.4,34,32.6,33.8,32.6,33z M33.9,33c0.7,0,0.8-0.2,0.8,0.5c0,0.3,0.1,0.5-0.2,0.5C33.7,34,33.9,33.8,33.9,33z M35.2,33
		c0.7,0,0.8-0.2,0.8,0.5c0,0.3,0.1,0.5-0.2,0.5C34.9,34,35.2,33.8,35.2,33z M36.4,33c0.7,0,0.8-0.2,0.8,0.5c0,0.3,0.1,0.5-0.2,0.5
		C36.2,34,36.4,33.8,36.4,33z M37.7,33c0.7,0,0.8-0.2,0.8,0.5c0,0.3,0.1,0.5-0.2,0.5C37.5,34,37.7,33.8,37.7,33z M38.9,33
		c0.4,0,0.8-0.2,0.8,0.3c0,0.1,0.1,0.7-0.1,0.7c-0.1,0-0.7,0-0.7,0C38.9,33.6,38.9,33.3,38.9,33z M40.2,33c0.4,0,0.8-0.2,0.8,0.3
		c0,0.1,0.1,0.7-0.1,0.7c-0.1,0-0.7,0-0.7,0C40.2,33.6,40.2,33.3,40.2,33z M13.6,33c0.1,0,0.8,0,0.8,0c0,0.3,0,0.6,0,0.9
		c0,0.1-0.5,0-0.6,0C13.4,34,13.6,33.3,13.6,33C13.7,33,13.6,33.3,13.6,33z M11.2,63.4c-0.1-0.5-0.4,0-0.7-0.3
		c-0.2-0.2-0.3-0.6-0.3-0.9c0-0.4,0-0.8,0.1-1.2c0.1-0.3,0.5-0.8,0.4-1.2c-0.1-0.3-0.5-0.3-0.7-0.6c-0.3-0.8,0-1.9,0.3-2.6
		c0-0.1,0.2-0.5,0.3-0.5c0.1,0.2,0.4,0.1,0.4-0.1c0.1-0.7,0.3-1.6,0.7-2.2c0.6-0.8,0.8,0.4,0.8,0.8c0,2,0,4,0,6c0,0.8,0,1.7,0,2.5
		c0,0.2,0,0.3,0,0.5c0,0.1-0.5,0.4-0.6,0.5C11.5,64.1,11.3,63.8,11.2,63.4C11.2,63.3,11.3,63.7,11.2,63.4z M12.3,65.2
		c0-0.5,0-0.6,0.4-0.9C12.6,64.6,12.7,65.4,12.3,65.2C12.3,65.2,12.3,65.3,12.3,65.2z M13.1,34.7c9.5,0,19.1,0,28.6,0
		c0.1,0,0.3,0,0.4,0c0,9.7,0,19.4,0,29.1c0,0.4,0,0.8,0,1.3c-0.5-0.2-1.4,0-1.9,0c0.2-0.6-0.4-2.7-1.3-2.5c-0.4,0.1-0.2,0.2-0.6,0.2
		c-0.3,0-0.5,0.4-0.6,0.7c-0.1,0.3-0.3,0.3-0.4,0.6c-0.1,0.3-0.1,0.8-0.1,1.1c-0.5,0-1,0-1.4,0c0.1-0.4,0-0.8-0.1-1.1
		c-0.2-0.4-0.5-0.4-0.6-0.8c-0.1-0.3-0.3-0.7-0.7-0.7c-0.2,0-0.4,0-0.5,0.2c-0.1-0.1-0.2-0.2-0.4-0.2c2.3,0,4.5,0,6.8,0
		c0.5,0,0.3-2.9,0.3-3.3c0-0.6-0.7-0.4-1.1-0.4c-5.6,0-11.2,0-16.8,0c-2.3,0-4.6,0-6.9,0c-0.2,0-1-0.1-1.2,0.1
		c-0.3,0.4-0.1,1.3-0.1,1.6c0,0.4-0.2,1.4,0.1,1.8c-0.2-0.1-0.4,0-0.6,0.2c-0.1,0.1-0.2,0.3-0.2,0.4c-0.2,0-0.3,0.1-0.4,0.3
		c-0.4,0.5-0.2,1.3,0,1.9c-0.2,0-0.3,0-0.5,0c0-9.9,0-19.8,0-29.6C13.1,35.2,13.1,34.9,13.1,34.7C13.6,34.7,13.1,35.4,13.1,34.7z
		 M37.8,65c0-0.2,0-0.5,0-0.7c0.5,0.2,0.2-0.9,0.6-0.9c0.2,0,0.4,0.5,0.5,0c0.2-0.7,0.6,0.7,0.7,0.7c0.3,0.3,0.2,0.5,0,0.9
		C39,65.1,38.4,65.1,37.8,65z M23,65.1c0-0.3-0.2-0.5-0.1-0.8c0.1-0.3,0.4,0,0.5-0.4c0-0.1,0-1,0.3-0.5c0.3,0.4,0.5-0.6,0.9-0.5
		c0.4,0.1,0.5,0.6,0.5,1c0,0.4,0.5,0.3,0.6,0.7C25.8,65.5,23.6,65.1,23,65.1C23,64.9,23.8,65.1,23,65.1z M14.1,65
		c-0.2-0.3-0.4-0.9-0.2-1.3c0.1-0.2,0.3,0,0.4-0.2c0.1-0.1,0-0.5,0.2-0.5c0.2-0.1,0.2,0.4,0.4,0.4c0.2,0,0.2-0.6,0.3-0.6
		c0.5,0,0.4,0.9,0.6,1.1c0.1,0.2,0.5-0.1,0.6,0.1c0.1,0.5-0.2,0.6-0.4,1C15.7,65.1,14.2,65.2,14.1,65C13.9,64.6,14.1,65,14.1,65z
		 M40.2,59.4c0,0.3,0.1,2.3-0.1,2.3c-0.4,0-2.2,0.2-2.2-0.2c0-0.7,0-1.3,0-2C37.9,59.4,39.9,59.4,40.2,59.4
		C40.2,59.9,40.1,59.4,40.2,59.4z M37.4,61.7c-0.7,0-1.3,0-2,0c-0.5,0-0.4,0-0.4-0.5c0-0.3-0.2-1.6,0-1.8c0.7,0,1.4,0,2.1,0
		c0.4,0,0.3,0.1,0.3,0.5C37.4,60.5,37.4,61.1,37.4,61.7z M34.6,61.7c-0.7,0-1.3,0-2,0c-0.5,0-0.4-0.1-0.4-0.5c0-0.3-0.2-1.6,0-1.8
		c0.7,0,1.4,0,2,0c0.4,0,0.3,0.1,0.3,0.5C34.6,60.5,34.6,61.1,34.6,61.7z M31.7,61.7c-0.7,0-1.3,0-2,0c-0.5,0-0.3-0.1-0.3-0.5
		c0-0.3-0.2-1.6,0-1.8c0.7,0,1.4,0,2,0c0.5,0,0.3,0.1,0.3,0.5C31.7,60.5,31.7,61.1,31.7,61.7z M28.8,61.7c-0.7,0-1.3,0-2,0
		c-0.5,0-0.4,0-0.4-0.5c0-0.3-0.2-1.6,0-1.8c0.7,0,1.3,0,2,0c0.5,0,0.4,0,0.4,0.5C28.8,60.5,28.8,61.1,28.8,61.7z M26,61.7
		c-0.7,0-1.4,0-2,0c-0.5,0-0.3-0.1-0.3-0.5c0-0.3-0.2-1.6,0-1.8c0.7,0,1.3,0,2,0c0.5,0,0.3,0.1,0.3,0.5C26,60.5,26,61.1,26,61.7z
		 M23.1,61.7c-0.7,0-1.4,0-2,0c-0.4,0-0.3-0.1-0.3-0.5c0-0.3-0.2-1.6,0-1.8c0.7,0,1.3,0,2,0c0.5,0,0.4,0.1,0.4,0.5
		C23.1,60.5,23.1,61.1,23.1,61.7z M20.2,61.7c-0.7,0-1.4,0-2.1,0c-0.4,0-0.3-0.1-0.3-0.5c0-0.3-0.2-1.6,0-1.8c0.7,0,1.3,0,2,0
		c0.5,0,0.4,0,0.4,0.5C20.2,60.5,20.2,61.1,20.2,61.7z M17.3,61.7c-0.3,0-2.2,0.2-2.2-0.2c0-0.5,0-1,0-1.5c0-0.4-0.1-0.6,0.3-0.6
		c0.5,0,1,0,1.6,0c0.5,0,0.4,0,0.4,0.5C17.3,60.5,17.3,61.1,17.3,61.7z M16.8,63.4c-0.1-0.2-0.3-0.2-0.5-0.2
		c-0.1-0.3-0.2-0.6-0.4-0.9c1.2,0,2.3,0,3.5,0c-0.2,0.5-0.2,0-0.6,0.4c-0.2,0.2-0.2,0.4-0.4,0.6c-0.5,0.4-0.4,1.2-0.2,1.7
		c-0.4,0-0.9,0-1.3,0C17,64.6,17.1,63.8,16.8,63.4C16.6,63.2,16.9,63.6,16.8,63.4z M18.6,64.9c-0.1-0.2-0.2-0.4-0.2-0.6
		c0-0.1,0.1-0.2,0.2-0.3c0.4,0.1,0.2-0.4,0.3-0.5c0.2-0.2,0.7,0.3,0.7-0.3c0-0.6,0.5-0.4,0.7,0c0.2,0.2,0,0.6,0.2,0.8
		c0.3,0.2,0.7,0.3,0.3,0.8c-0.2,0.3-0.3,0.4-0.7,0.4C19.9,65.1,18.8,65.2,18.6,64.9z M21.6,64.1c0-0.3-0.1-0.7-0.4-0.9
		c-0.3-0.2-0.3-0.6-0.5-0.8c1.1,0,2.2,0,3.3,0c-0.2,0.3-0.3,0-0.6,0.1c-0.3,0.1-0.5,0.5-0.5,0.9c-0.5,0.3-0.6,1.1-0.4,1.6
		c-0.4,0-0.7,0-1.1,0C21.5,64.8,21.6,64.4,21.6,64.1C21.5,63.6,21.6,64.2,21.6,64.1z M26.2,64.3c0-0.3-0.2-0.5-0.4-0.7
		c-0.4-0.3-0.3-0.8-0.7-1.2c1.4,0,2.8,0,4.2,0c-0.5,0.3-1.2,0-1.3,0.9c-0.6,0.2-0.7,1.2-0.5,1.8c-0.5,0-1,0-1.5,0
		C26.2,64.8,26.2,64.6,26.2,64.3C26.2,64.1,26.2,64.4,26.2,64.3z M28.1,65c-0.1-0.2-0.2-0.4-0.1-0.6c0.1-0.4,0.5-0.3,0.5-0.7
		c0-0.1,0.2-0.9,0.5-0.4c0.2,0.4,0.4-0.1,0.5-0.2c0.3-0.2,0.7,1,0.7,1.2c0.2,0.5-0.1,0.8-0.6,0.8C29.4,65.1,28.1,65.1,28.1,65z
		 M30.6,63.7c-0.2-0.5-0.3-1.1-0.8-1.3c1.3,0,2.6,0,3.9,0c-0.5,0-0.7,0.8-0.7,1.1c-0.6,0.2-0.5,1-0.4,1.5c-0.6,0-1.1,0-1.7,0
		C30.9,64.6,30.8,64.2,30.6,63.7z M33,65c-0.1-0.2-0.2-0.7,0-0.8c0.4-0.3,0.3-0.4,0.5-0.8c0.1-0.2,0.2-0.4,0.3-0.2
		c0.2,0.4,0.6-0.4,0.9,0.1c0.1,0.2,0,0.6,0.2,0.8c0.1,0,0.2,0,0.4,0c0.2,0.1,0.2,0.5,0.2,0.7C35.4,65.2,33.1,65.2,33,65
		C32.9,64.9,33,65,33,65z M42.1,67.2c0-0.5-0.1-0.5,0.4-0.5c0.5,0,1,0,1.4,0c1.6,0,3.1,0,4.7,0c1.5,0,3,0,4.6,0c0.5,0,1,0,1.5,0
		c0.5,0,0.5-0.1,0.5,0.5C50.8,67.2,46.5,67.2,42.1,67.2C42.1,67,42.6,67.2,42.1,67.2z M57.4,64.9c-0.1-0.5,0.2-0.8,0.4-1.3
		c0.3-0.6,0.4-0.3,0.6,0c0.2,0.3,0.3-0.1,0.4-0.2c0.2,0,0.2,0.8,0.3,0.9c0.2,0.3,0.3,0.1,0.3,0.6C59.4,65.3,57.7,65,57.4,64.9z
		 M61.9,65c-0.6-0.7,0.6-0.8,0.6-1.2c0-0.2,0.1-0.8,0.4-0.7c0.1,0.1,0.2,0.2,0.4,0.2c0,0,0.3-0.3,0.3-0.3c0.2,0.1,0.3,0.5,0.3,0.7
		c0,0.4,0.4,0.2,0.4,0.7c0,0.7-0.3,0.5-0.9,0.5C63.2,65.1,62,65.2,61.9,65C61.8,64.9,61.9,65,61.9,65z M57,61.7
		c0-0.3-0.1-2.3,0.1-2.3c0.4,0,2.2-0.2,2.2,0.2c0,0.7,0,1.3,0,2C59.3,61.8,57.4,61.7,57,61.7C57,61.2,57.1,61.7,57,61.7z M59.8,59.4
		c0.7,0,1.3,0,2,0c0.5,0,0.4,0,0.4,0.5c0,0.3,0.2,1.6,0,1.8c-0.7,0-1.4,0-2.1,0c-0.4,0-0.3-0.1-0.3-0.5C59.8,60.6,59.8,60,59.8,59.4
		z M62.6,59.4c0.7,0,1.3,0,2,0c0.5,0,0.4,0.1,0.4,0.5c0,0.3,0.2,1.6,0,1.8c-0.7,0-1.4,0-2,0c-0.4,0-0.3-0.1-0.3-0.5
		C62.6,60.6,62.6,60,62.6,59.4z M83.1,65c-0.1,0.2-1.3,0.1-1.5,0.1c-0.5,0-0.8-0.3-0.8-0.8c0-0.5,0.2,0,0.4-0.2
		c0.4,0.1,0.3-1.2,0.8-1.2c0.1,0,0.1,0.5,0.3,0.6c0.3,0,0.2-0.5,0.4-0.4c0.1,0,0.1,0.5,0.2,0.5c0.1,0.2,0.4,0,0.4,0.2
		C83.5,64.1,83.2,64.6,83.1,65z M71.9,65.1c-0.8-0.9,0.2-0.6,0.2-1.3c0-0.3,0.1-0.8,0.5-1c0.4-0.1,0.6,0.9,0.9,0.5
		c0.4-0.5,0.3,0.4,0.3,0.5c0,0.4,0.4,0.1,0.5,0.4c0.1,0.2,0.1,0.3,0,0.5c-0.3,0.3,0.2,0.3-0.5,0.3C73.2,65.1,72.5,65.1,71.9,65.1
		C71.9,65.1,72.6,65.1,71.9,65.1z M67.1,64.9c-0.4-0.2,0.1-1.3,0.3-1.6c0.1-0.2,0.3-0.4,0.4-0.1c0.2,0.4,0.5-0.2,0.8,0
		c0.2,0.2,0.1,0.4,0.2,0.6c0.2,0.3,0.6,0.2,0.5,0.7C69.1,65.5,67.6,65.1,67.1,64.9C67,64.8,67.1,64.9,67.1,64.9z M69.7,64.2
		c-0.1-0.5-0.5-0.7-0.6-1.1c-0.3-0.7-0.8-0.4-1.2-0.6c1.4,0,2.8,0,4.2,0c-0.2,0.2-0.3,0.5-0.4,0.8c-0.1,0.4-0.2,0.3-0.4,0.6
		c-0.3,0.4-0.3,0.8-0.1,1.2c-0.5,0-1,0-1.5,0C69.8,64.8,69.8,64.5,69.7,64.2C69.6,63.8,69.8,64.3,69.7,64.2z M74.7,63.9
		c0-0.1-0.1-0.2-0.2-0.3c-0.2-0.2-0.1-0.3-0.3-0.6c-0.3-0.5-0.7-0.2-1-0.5c1.1,0,2.2,0,3.3,0c-0.2,0.2-0.3,0.5-0.3,0.8
		c-0.2,0.1-0.3,0.2-0.4,0.4c-0.2,0.5-0.2,1.1,0,1.5c-0.4,0-0.7,0-1.1,0C74.9,64.7,74.9,64.2,74.7,63.9C74.6,63.6,74.8,64,74.7,63.9z
		 M76.5,65c-0.2-0.2-0.4-0.5-0.3-0.8c0.1-0.5,0.4-0.2,0.5-0.5c0.2-0.3-0.1-0.5,0.3-0.8c0.5-0.5,0.5,0.1,0.6,0.4
		c0.1,0.4,0.7-0.2,0.7,0.3c0,0.5,0.7,0.4,0.5,0.9c-0.1,0.3-0.1,0.5-0.5,0.5C77.9,65.1,76.7,65.2,76.5,65z M79.3,64.1
		c0-0.3-0.2-0.7-0.5-0.8c-0.1-0.6-0.6-0.4-0.8-0.9c1.2,0,2.3,0,3.5,0c-0.2,0.3-0.3,0.6-0.4,0.9c-0.2,0-0.4,0-0.5,0.2
		c-0.3,0.4-0.2,1.2,0,1.6c-0.4,0-0.9,0-1.3,0C79.2,64.7,79.3,64.4,79.3,64.1C79.2,63.7,79.3,64.2,79.3,64.1z M82.1,61.7
		c-0.3,0-2.2,0-2.2,0c0-0.6,0-1.3,0-1.9c0-0.5,0.2-0.3,0.7-0.3c0.4,0,0.9,0,1.3,0C82.2,59.4,82.1,61.3,82.1,61.7
		C82,61.7,82.1,61.2,82.1,61.7z M79.4,61.7c-0.7,0-1.3,0-2,0c-0.5,0-0.4,0-0.4-0.5c0-0.3-0.2-1.6,0-1.8c0.7,0,1.4,0,2.1,0
		c0.4,0,0.3,0.1,0.3,0.5C79.4,60.5,79.4,61.1,79.4,61.7z M76.5,61.7c-0.7,0-1.3,0-2,0c-0.5,0-0.4-0.1-0.4-0.5c0-0.3-0.2-1.6,0-1.8
		c0.7,0,1.4,0,2,0c0.4,0,0.3,0.1,0.3,0.5C76.5,60.5,76.5,61.1,76.5,61.7z M73.6,61.7c-0.7,0-1.3,0-2,0c-0.5,0-0.3-0.1-0.3-0.5
		c0-0.3-0.2-1.6,0-1.8c0.7,0,1.4,0,2,0c0.5,0,0.3,0.1,0.3,0.5C73.6,60.5,73.6,61.1,73.6,61.7z M70.8,61.7c-0.7,0-1.3,0-2,0
		c-0.5,0-0.4,0-0.4-0.5c0-0.3-0.2-1.6,0-1.8c0.7,0,1.3,0,2,0c0.5,0,0.4,0,0.4,0.5C70.8,60.5,70.8,61.1,70.8,61.7z M67.9,61.7
		c-0.7,0-1.4,0-2,0c-0.5,0-0.3-0.1-0.3-0.5c0-0.3-0.2-1.6,0-1.8c0.7,0,1.3,0,2,0c0.5,0,0.3,0.1,0.3,0.5
		C67.9,60.5,67.9,61.1,67.9,61.7z M67.4,62.4c-0.7,0.3-1.2,1.9-1,2.6c-0.6,0-1.1,0-1.7,0c0.1-0.5,0.1-1.3-0.4-1.5
		c-0.1-0.3-0.3-1.1-0.7-1.1C64.9,62.4,66.2,62.4,67.4,62.4z M84.1,65.1c-0.2,0-0.3,0-0.5,0c0.2-0.5,0.4-1.4,0-1.9
		c-0.2-0.3-0.3-0.2-0.5-0.5c-0.1-0.3-0.4-0.5-0.7-0.4c0.2-0.4,0.1-1.2,0.1-1.6c0-0.4,0.2-1.4-0.1-1.8c-0.2-0.3-1-0.1-1.3-0.1
		c-2.5,0-4.9,0-7.4,0c-5.5,0-11,0-16.5,0c-0.5,0-0.9-0.1-0.9,0.6c0,0.4-0.3,3.1,0.3,3.1c2.3,0,4.5,0,6.8,0c-0.1,0-0.3,0.1-0.4,0.2
		c-0.1-0.1-0.3-0.2-0.5-0.2c-0.4,0.1-0.6,0.4-0.7,0.7c-0.1,0.4-0.4,0.4-0.6,0.8c-0.1,0.3-0.2,0.7-0.1,1.1c-0.5,0-1,0-1.4,0
		c0-0.4,0.1-1.3-0.4-1.4c-0.1-0.3-0.2-0.6-0.3-0.8c-0.3-0.3-0.5,0-0.7-0.2c-0.9-0.7-1.6,1.9-1.5,2.4c-0.7,0-1.7,0.4-1.7-0.4
		c0-0.7,0-1.4,0-2.1c0-2.7,0-5.3,0-8c0-5.9,0-11.8,0-17.7c0-0.7,0-1.3,0-2c0-0.4,0.2-0.3,0.6-0.3c2.3,0,4.6,0,6.9,0
		c6.3,0,12.6,0,18.8,0c0.8,0,1.7,0,2.5,0c0,9.9,0,19.8,0,29.6C84.1,64.6,84.1,64.8,84.1,65.1C84.1,65.1,84.1,64.4,84.1,65.1z
		 M92.4,66c-0.2-0.9,0-1.8,0.2-2.6C92.6,63.8,92.8,65.9,92.4,66C92.4,65.8,92.6,66,92.4,66z M88.4,64.8c-0.4,0-0.4,0.1-0.4-0.4
		c0-0.3,0.1-0.7,0.1-1c0.1-0.5,0-1.6,0.3-1.9C88.5,62.7,88.5,63.7,88.4,64.8C88.3,64.8,88.5,64.4,88.4,64.8z M89.8,58.7
		c-0.2-0.9-0.9,1.3-1,1.4c-0.3,0.6-1.1,1.6-1.2,0.3c0-0.5,0.6-2.7-0.3-2c-0.1,0.2-0.6,0.9-0.9,0.6c-0.4-0.3-0.2-0.9-0.1-1.3
		c0.1-0.4,0.5-0.9,0.5-1.3c0-0.8-0.8,0-1.1,0.1c-1.3,0.2-0.3-1.8-0.1-2.2c0.2-0.3,0.5-0.8,0.9-0.8c0.4,0,0.6-0.3,0.4-0.7
		c-0.3-0.4-0.8-0.4-0.9-1c-0.2-0.7,0.5-1,1.1-0.6c0.3,0.2,0.5,0.5,0.5,0.8c0.1,0.4,0.5,0.5,0.5,0c0-1,0.1-2.1,0.8-2.9
		c1-1.1,1.2,0.9,1.2,1.5c0,0.2-0.3,1.2,0.1,1.3c0.3,0,1.1-0.8,1.1,0.1c0,0.4-0.3,0.9-0.6,1.3c-0.2,0.2-0.3,0.3-0.2,0.6
		c0.1,0.4,0.4,0.1,0.6,0c0.8-0.2,1,2-0.4,1.7c-0.5-0.1-0.2,0.8-0.1,0.9c0.2,0.5,0.4,1.1,0.4,1.6c0,0.5-0.1,1.3-0.5,1.7
		C90.1,60.1,89.8,58.9,89.8,58.7C89.8,58.5,89.9,59.3,89.8,58.7z M94.6,58c-0.3,0.1-0.5,0.5-0.2,0.7c0.4,0.4,0.4,1,0.2,1.4
		c-0.2,0.5-0.7,0.9-1.2,0.4c-0.2-0.2-0.8,0.9-1.1,1.1c-0.4,0.2-1,0.2-1.3-0.1c-0.3-0.4-0.1-0.8-0.1-1.2c0.9-1.1,0.7-2.7,0.2-3.9
		c0.5-0.1,0.8-0.4,0.9-0.8c0.1-0.2,0-0.6,0.3-0.7c0.3-0.1,0.4,0.4,0.4,0.5c0,0.2,0.2,0.5,0.4,0.3c0.1-0.1,0.2-0.4,0.2-0.6
		c0.2-0.5,0.5-1.1,1-1.3c0.5-0.3,0.6,0.6,0.5,0.9c-0.1,0.6-0.4,1.1-0.7,1.6c-0.2,0.9,0.3,0.3,0.7,0.6C95.5,57.3,95.1,57.8,94.6,58z
		 M94.4,56.2c0,0-0.1,0-0.1,0C94.3,56.2,94.3,56.2,94.4,56.2z"/>
</g>
</svg>
