<?xml version="1.0" encoding="utf-8"?>
<!-- Generator: Adobe Illustrator 17.0.1, SVG Export Plug-In . SVG Version: 6.00 Build 0)  -->
<!DOCTYPE svg PUBLIC "-//W3C//DTD SVG 1.1//EN" "http://www.w3.org/Graphics/SVG/1.1/DTD/svg11.dtd">
<svg version="1.1" id="レイヤー_1" xmlns="http://www.w3.org/2000/svg" xmlns:xlink="http://www.w3.org/1999/xlink" x="0px"
	 y="0px" width="841.89px" height="595.28px" viewBox="0 0 841.89 595.28" enable-background="new 0 0 841.89 595.28"
	 xml:space="preserve">
<rect x="350.211" y="227.411" fill="#A660A3" stroke="#A660A3" stroke-width="2" stroke-miterlimit="10" width="141.732" height="141.732"/>
<path fill="#747374" d="M364.631,312.344c-0.438-0.185-0.614-0.817-1.165-0.469c-0.466,0.294-0.905,0.945-1.139,1.591
	c-0.184,0.507-0.27,1.554-0.597,1.908c-0.121,0.131-0.408,0.129-0.567,0.291c-0.204,0.208-0.427,0.547-0.562,0.844
	c-0.549,1.21-0.814,3.711-0.075,4.827c0.126,0.19,0.411,0.3,0.434,0.557c0.009,0.103-0.231,0.641-0.262,0.775
	c-0.198,0.857-0.35,1.738-0.171,2.598c0.155,0.745,0.281,1.448,0.772,1.811c0.167,0.124,0.39,0.14,0.539,0.278
	c0.185,0.17,0.3,0.5,0.489,0.691c0.749,0.761,1.764,0.096,2.07-1.02c0.171-0.622,0.105-1.393,0.134-2.072
	c0.046-1.114,0.188-2.215,0.199-3.341c0.021-2.359-0.099-4.784-0.003-7.144c0.016-0.404,0.051-0.806,0.051-1.225L364.631,312.344z"
	/>
<path fill="#999999" d="M354.775,312.33c-0.439,0.224-0.623,0.989-0.828,1.52c-0.285,0.739-0.474,1.511-0.489,2.351
	c-0.029,1.645,0.18,3.058,0.697,4.514c0.226,0.637,0.187,1.126,0.245,1.87c0.057,0.738,0.233,1.483,0.468,2.16
	c0.324,0.933,1.235,2.906,2.118,2.494c0.851-0.397,1.315-2.062,1.53-3.184c0.073-0.38,0.158-0.804,0.187-1.195
	c0.026-0.345-0.091-0.868,0.032-1.177c0.108-0.272,0.357-0.363,0.492-0.636c0.181-0.364,0.207-0.868,0.257-1.3
	c0.103-0.886,0.115-1.696-0.036-2.575c-0.075-0.434-0.174-0.781-0.309-1.176c-0.184-0.54-0.374-0.795-0.39-1.428
	c-0.017-0.678,0.012-1.297-0.07-1.974c-0.102-0.841-0.177-1.869-0.614-2.52C356.897,308.326,354.443,309.861,354.775,312.33z"/>
<path fill="#ECEDED" d="M363.417,328.681c-0.079,0.569-0.158,1.658,0.38,1.721c0.689,0.08,0.95-1.183,0.926-1.945
	c-0.015-0.464-0.07-0.959-0.404-0.949C363.949,327.521,363.483,328.201,363.417,328.681z"/>
<path fill="#934923" d="M356.546,328.256c-0.331,0.633-0.511,1.728-0.698,2.489c-0.179,0.726-0.271,1.403,0.404,1.389
	c1.07-0.023,0.755-2.579,0.49-3.532L356.546,328.256z"/>
<path fill="#934923" d="M483.367,324.313c-0.022,0.099,0.084,0.166-0.093,0.2c-0.053,1.5-0.454,2.817-0.632,4.279
	c-0.087,0.712-0.073,2.266,0.529,2.525c1.354,0.582,0.448-5.503,0.539-6.52L483.367,324.313z"/>
<path fill="#ECEDED" d="M476.653,321.96c-0.005,1.589-0.334,3.203-0.49,4.778c-0.128,1.295-0.679,2.851,0.64,2.902
	c0.42,0.016,0.601-0.1,0.685-0.706c0.105-0.761,0.056-1.66-0.003-2.425c-0.078-1.02,0.149-2.879-0.341-3.718L476.653,321.96z"/>
<path fill="#9FA0A0" d="M482.142,314.35c0.465-0.94,1.9-1.179,2.167,0.131c0.35-0.508,0.424-1.224,0.906-1.654
	c0.382-0.341,1.021-0.679,1.484-0.469c1.141,0.517,0.011,3.83-0.423,4.682c0.605-0.311,1.244-0.086,1.405,0.976
	c0.07,0.461-0.08,0.922-0.297,1.245c-0.133,0.198-0.314,0.257-0.441,0.417c-0.189,0.239-0.126,0.084-0.134,0.406
	c-0.015,0.598,0.203,1.195,0.134,1.825c-0.066,0.601-0.403,1.183-0.725,1.572c-0.627,0.758-1.069,0.51-1.664-0.058
	c-0.578,0.582-0.996,1.308-1.741,1.53c-0.765,0.228-1.583,0.397-2.098-0.626c-0.562-1.118-0.449-2.753-0.338-4.028
	c0.078-0.897,0.208-1.785,0.294-2.684c0.047-0.49,0.01-1.102,0.194-1.536L482.142,314.35z"/>
<path fill="#686767" d="M474.841,307.827c-0.383-0.163-0.785,0.105-1.078,0.466c-0.849,1.048-0.173,1.968,0.349,2.943
	c-0.258,0.394-0.69,0.689-0.986,1.109c-0.433,0.615-0.665,1.204-0.919,1.989c-0.401,1.238-0.574,2.461,0.66,2.506
	c0.154,0.006,0.498-0.125,0.592-0.001c0.115,0.152-0.001,0.759-0.027,0.974c-0.094,0.778-0.298,1.58-0.159,2.363
	c0.343,1.938,1.399,0.32,2.1-0.146c0.09,1.163-0.017,3.352,1.085,3.521c0.611,0.094,1.113-0.417,1.373-1.174
	c0.21-0.612,0.252-2.334,1.053-1.664c0.376,0.314,0.358,0.997,0.653,1.357c0.335,0.41,0.855,0.061,1.135-0.313
	c0.413-0.551,0.36-1.277,0.391-2.009c0.043-1.032,0.009-1.951-0.158-2.978c-0.05-0.309-0.117-0.564-0.078-0.885
	c1.745,0.109,1.935-3.149,0.451-3.949c0.257-0.898,0.697-1.595,0.364-2.634c-0.384-1.197-0.996-0.367-1.648-0.357
	c-0.053-1.208,0.082-2.26-0.351-3.398c-0.337-0.887-0.902-1.224-1.569-0.896c-0.738,0.363-1.065,1.308-1.42,2.229
	c-0.177,0.462-0.249,1.425-0.565,1.735C475.662,309.032,475.241,307.998,474.841,307.827z"/>
<rect x="427.258" y="284.095" fill="#C9CACA" width="43.777" height="45.567"/>
<rect x="408.832" y="260.665" fill="#C9CACA" width="18.426" height="69.459"/>
<rect x="430.133" y="289.814" fill="#E6E6E6" width="37.896" height="4.244"/>
<rect x="430.133" y="299.961" fill="#E6E6E6" width="37.896" height="4.243"/>
<rect x="430.133" y="310.107" fill="#E6E6E6" width="37.896" height="4.243"/>
<rect x="430.133" y="320.254" fill="#E6E6E6" width="37.896" height="4.243"/>
<path fill="#B5B5B6" d="M430.344,327.774c0.19-0.416,0.303-0.057,0.543-0.207c0.371-0.231,0.267-0.816,0.684-1.058
	c0.429-0.249,0.718-0.186,1.124-0.117c0.604,0.102,0.824,0.1,1.288,0.754c0.328,0.463,0.717,1.155,0.566,1.871
	c-0.304,1.442-1.734,1.036-2.516,0.998c-0.386-0.019-0.776,0.066-1.108-0.264C430.605,329.433,430.092,328.324,430.344,327.774z"/>
<path fill="#B5B5B6" d="M437.794,330.124c-0.421-0.02-0.753-0.985-0.689-1.526c0.091-0.763,0.456-0.951,0.837-1.328
	c0.333-0.33,0.426-1.198,0.881-1.3c0.144-0.032,0.39,0.099,0.539,0.141c0.256,0.075,0.366,0.04,0.601,0.019
	c0.218-0.019,0.186-0.189,0.44,0.032c0.196,0.17,0.301,0.516,0.443,0.764c0.274,0.481,0.583,0.724,0.722,1.334
	c0.399,1.76-0.923,1.881-1.824,1.726c-0.461-0.08-0.86,0.233-1.313,0.208L437.794,330.124z"/>
<path fill="#B5B5B6" d="M446.085,329.655c-1.099-0.119-1.561-1.114-1.025-2.575c0.492-1.343,1.315-1.514,2.24-1.247
	c0.685,0.199,1.875,1.58,1.553,2.69C448.412,330.042,446.983,329.752,446.085,329.655z"/>
<path fill="#B5B5B6" d="M455.729,329.828c-0.437,0.189-1.023,0.124-1.471,0.019c-0.505-0.119-1.044-0.062-1.518-0.137
	c-0.542-0.085-1.207-0.834-1.135-1.72c0.053-0.648,0.514-0.717,0.793-1.047c0.169-0.2,0.263-0.503,0.437-0.709
	c0.364-0.431,0.779-0.581,1.225-0.662c0.79-0.141,1.817,0.782,2.173,1.699c0.228,0.587,0.388,0.878,0.201,1.525
	C456.295,329.277,456.095,329.669,455.729,329.828z"/>
<path fill="#B5B5B6" d="M462.824,329.151c-0.427,0.321-0.695,0.589-1.251,0.623c-0.64,0.039-1.31,0.058-1.936-0.205
	c-0.812-0.343-1.524-1.403-0.686-2.439c0.64-0.791,1.182-1.94,2.22-1.452c0.347,0.163,0.679,0.596,1.023,0.795
	c0.351,0.203,0.715,0.491,0.905,0.976C463.372,328.147,462.963,328.492,462.824,329.151z"/>
<path fill="#B5B5B6" d="M469.455,326.557c0.215,0.266,0.546,0.438,0.629,0.869c0.117,0.603-0.043,1.428-0.379,1.871
	c-0.642,0.848-1.945,0.322-2.717,0.273c-0.783-0.05-1.881-0.485-1.656-2.006c0.11-0.749,0.623-0.293,0.945-0.676
	c0.295-0.351,0.351-1.01,0.634-1.379c0.399-0.523,0.927-0.25,1.359-0.085c0.198,0.075,0.408,0.07,0.588,0.204
	c0.255,0.19,0.359,0.609,0.566,0.892C469.435,326.532,469.445,326.544,469.455,326.557z"/>
<rect x="364.762" y="284.095" fill="#C9CACA" width="43.777" height="45.567"/>
<rect x="367.767" y="289.814" fill="#E6E6E6" width="37.896" height="4.244"/>
<rect x="367.767" y="299.961" fill="#E6E6E6" width="37.896" height="4.243"/>
<rect x="367.767" y="310.107" fill="#E6E6E6" width="37.896" height="4.243"/>
<rect x="367.767" y="320.254" fill="#E6E6E6" width="37.896" height="4.243"/>
<path fill="#B5B5B6" d="M405.452,327.774c-0.19-0.416-0.303-0.057-0.543-0.207c-0.371-0.231-0.267-0.816-0.683-1.058
	c-0.429-0.249-0.719-0.186-1.125-0.117c-0.604,0.102-0.824,0.1-1.287,0.754c-0.328,0.463-0.718,1.155-0.566,1.871
	c0.304,1.442,1.734,1.036,2.516,0.998c0.385-0.019,0.776,0.066,1.108-0.264C405.191,329.433,405.705,328.324,405.452,327.774z"/>
<path fill="#B5B5B6" d="M398.003,330.124c0.422-0.02,0.753-0.985,0.689-1.526c-0.091-0.763-0.456-0.951-0.837-1.328
	c-0.333-0.33-0.426-1.198-0.881-1.3c-0.144-0.032-0.39,0.099-0.539,0.141c-0.257,0.075-0.366,0.04-0.601,0.019
	c-0.217-0.019-0.186-0.189-0.44,0.032c-0.196,0.17-0.301,0.516-0.443,0.764c-0.274,0.481-0.583,0.724-0.721,1.334
	c-0.4,1.76,0.922,1.881,1.824,1.726c0.461-0.08,0.86,0.233,1.312,0.208L398.003,330.124z"/>
<path fill="#B5B5B6" d="M389.711,329.655c1.099-0.119,1.561-1.114,1.025-2.575c-0.493-1.343-1.315-1.514-2.241-1.247
	c-0.684,0.199-1.875,1.58-1.553,2.69C387.384,330.042,388.813,329.752,389.711,329.655z"/>
<path fill="#B5B5B6" d="M380.067,329.828c0.437,0.189,1.023,0.124,1.471,0.019c0.505-0.119,1.044-0.062,1.518-0.137
	c0.542-0.085,1.207-0.834,1.135-1.72c-0.053-0.648-0.514-0.717-0.793-1.047c-0.168-0.2-0.263-0.503-0.437-0.709
	c-0.364-0.431-0.779-0.581-1.225-0.662c-0.79-0.141-1.816,0.782-2.172,1.699c-0.228,0.587-0.389,0.878-0.202,1.525
	C379.501,329.277,379.702,329.669,380.067,329.828z"/>
<path fill="#B5B5B6" d="M372.973,329.151c0.426,0.321,0.694,0.589,1.251,0.623c0.64,0.039,1.31,0.058,1.935-0.205
	c0.812-0.343,1.524-1.403,0.686-2.439c-0.639-0.791-1.182-1.94-2.22-1.452c-0.347,0.163-0.678,0.596-1.023,0.795
	c-0.352,0.203-0.716,0.491-0.905,0.976C372.424,328.147,372.834,328.492,372.973,329.151z"/>
<path fill="#B5B5B6" d="M366.341,326.557c-0.214,0.266-0.546,0.438-0.629,0.869c-0.117,0.603,0.042,1.428,0.379,1.871
	c0.642,0.848,1.944,0.322,2.717,0.273c0.783-0.05,1.881-0.485,1.657-2.006c-0.111-0.749-0.624-0.293-0.946-0.676
	c-0.294-0.351-0.351-1.01-0.634-1.379c-0.398-0.523-0.927-0.25-1.359-0.085c-0.198,0.075-0.408,0.07-0.588,0.204
	c-0.255,0.19-0.359,0.609-0.566,0.892C366.361,326.532,366.351,326.544,366.341,326.557z"/>
<rect x="411.675" y="312.552" fill="#B6B698" width="12.545" height="2.491"/>
<rect x="412.361" y="314.766" fill="#FFFFFF" width="11.173" height="11.207"/>
<rect x="416.183" y="276.3" fill="#FFFFFF" width="4.116" height="4.566"/>
<ellipse fill="#FFFFFF" cx="418.437" cy="269.382" rx="2.94" ry="4.151"/>
<polygon fill="#C9CACA" points="412.851,326.111 408.048,330.677 408.048,332.752 428.042,332.752 428.042,329.847 423.534,325.973 
	"/>
<g>
	<path fill="#040000" d="M430.003,294.654h38.04c0.208,0,0.377-0.238,0.377-0.532v-4.387c0-0.294-0.169-0.532-0.377-0.532h-38.04
		c-0.208,0-0.377,0.238-0.377,0.532v4.387C429.626,294.416,429.795,294.654,430.003,294.654z M459.38,293.59
		c-1.109,0-2.289,0-3.515,0v-3.323c1.227,0,2.406,0,3.515,0V293.59z M460.133,290.268c1.301,0,2.487,0,3.516,0v3.323
		c-1.029,0-2.214,0-3.516,0V290.268z M455.111,293.59c-1.145,0-2.322,0-3.515,0v-3.323c1.193,0,2.371,0,3.515,0V293.59z
		 M450.842,293.59c-1.168,0-2.346,0-3.515,0v-3.323c1.169,0,2.347,0,3.515,0V293.59z M446.574,293.59c-1.192,0-2.37,0-3.515,0
		v-3.323c1.145,0,2.323,0,3.515,0V293.59z M442.305,293.59c-1.226,0-2.404,0-3.515,0v-3.323c1.111,0,2.29,0,3.515,0V293.59z
		 M438.036,293.59c-1.296,0-2.483,0-3.515,0v-3.323c1.032,0,2.219,0,3.515,0V293.59z M467.666,293.59c-0.129,0-1.346,0-3.264,0
		v-3.323c1.918,0,3.135,0,3.264,0C467.666,290.975,467.666,292.883,467.666,293.59z M430.38,290.268c0.131,0,1.399,0,3.388,0v3.323
		c-1.989,0-3.256,0-3.388,0C430.38,292.883,430.38,290.975,430.38,290.268z"/>
	<path fill="#040000" d="M430.003,304.89h38.04c0.208,0,0.377-0.238,0.377-0.532v-4.387c0-0.294-0.169-0.532-0.377-0.532h-38.04
		c-0.208,0-0.377,0.238-0.377,0.532v4.387C429.626,304.652,429.795,304.89,430.003,304.89z M459.38,303.826
		c-1.109,0-2.289,0-3.515,0v-3.323c1.227,0,2.406,0,3.515,0V303.826z M460.133,300.503c1.301,0,2.487,0,3.516,0v3.323
		c-1.029,0-2.214,0-3.516,0V300.503z M455.111,303.826c-1.145,0-2.322,0-3.515,0v-3.323c1.193,0,2.371,0,3.515,0V303.826z
		 M450.842,303.826c-1.168,0-2.346,0-3.515,0v-3.323c1.169,0,2.347,0,3.515,0V303.826z M446.574,303.826c-1.192,0-2.37,0-3.515,0
		v-3.323c1.145,0,2.323,0,3.515,0V303.826z M442.305,303.826c-1.226,0-2.404,0-3.515,0v-3.323c1.111,0,2.29,0,3.515,0V303.826z
		 M438.036,303.826c-1.296,0-2.483,0-3.515,0v-3.323c1.032,0,2.219,0,3.515,0V303.826z M467.666,303.826c-0.129,0-1.346,0-3.264,0
		v-3.323c1.918,0,3.135,0,3.264,0C467.666,301.211,467.666,303.118,467.666,303.826z M430.38,300.503c0.131,0,1.399,0,3.388,0v3.323
		c-1.989,0-3.256,0-3.388,0C430.38,303.118,430.38,301.211,430.38,300.503z"/>
	<path fill="#040000" d="M430.003,315.125h38.04c0.208,0,0.377-0.238,0.377-0.532v-4.387c0-0.294-0.169-0.532-0.377-0.532h-38.04
		c-0.208,0-0.377,0.238-0.377,0.532v4.387C429.626,314.888,429.795,315.125,430.003,315.125z M459.38,314.061
		c-1.109,0-2.289,0-3.515,0v-3.323c1.227,0,2.406,0,3.515,0V314.061z M460.133,310.739c1.301,0,2.487,0,3.516,0v3.323
		c-1.029,0-2.214,0-3.516,0V310.739z M455.111,314.061c-1.145,0-2.322,0-3.515,0v-3.323c1.193,0,2.371,0,3.515,0V314.061z
		 M450.842,314.061c-1.168,0-2.346,0-3.515,0v-3.323c1.169,0,2.347,0,3.515,0V314.061z M446.574,314.061c-1.192,0-2.37,0-3.515,0
		v-3.323c1.145,0,2.323,0,3.515,0V314.061z M442.305,314.061c-1.226,0-2.404,0-3.515,0v-3.323c1.111,0,2.29,0,3.515,0V314.061z
		 M438.036,314.061c-1.296,0-2.483,0-3.515,0v-3.323c1.032,0,2.219,0,3.515,0V314.061z M467.666,314.061c-0.129,0-1.346,0-3.264,0
		v-3.323c1.918,0,3.135,0,3.264,0C467.666,311.446,467.666,313.354,467.666,314.061z M430.38,310.739c0.131,0,1.399,0,3.388,0v3.323
		c-1.989,0-3.256,0-3.388,0C430.38,313.354,430.38,311.446,430.38,310.739z"/>
	<path fill="#040000" d="M418.578,274.272c1.921,0,3.484-2.207,3.484-4.919c0-2.712-1.563-4.918-3.484-4.918
		c-1.921,0-3.484,2.207-3.484,4.918C415.094,272.065,416.657,274.272,418.578,274.272z M418.578,265.498
		c1.505,0,2.73,1.729,2.73,3.855c0,2.126-1.225,3.855-2.73,3.855c-1.506,0-2.731-1.729-2.731-3.855
		C415.848,267.228,417.073,265.498,418.578,265.498z"/>
	<path fill="#040000" d="M418.145,270.156c0.128,0.155,0.313,0.171,0.454,0.039l1.977-1.861c0.173-0.163,0.22-0.493,0.104-0.737
		c-0.116-0.245-0.349-0.311-0.522-0.147c0,0-1.372,1.291-1.74,1.637c-0.302-0.366-1.102-1.333-1.102-1.333
		c-0.158-0.191-0.395-0.165-0.531,0.058c-0.136,0.223-0.117,0.559,0.041,0.749L418.145,270.156z"/>
	<path fill="#040000" d="M420.273,275.69h-4.049c-0.208,0-0.377,0.238-0.377,0.532v4.652c0,0.294,0.169,0.532,0.377,0.532h4.049
		c0.208,0,0.377-0.238,0.377-0.532v-4.652C420.65,275.928,420.481,275.69,420.273,275.69z M419.897,280.342c-0.556,0-2.74,0-3.295,0
		c0-0.726,0-2.863,0-3.589c0.556,0,2.739,0,3.295,0C419.897,277.48,419.897,279.616,419.897,280.342z"/>
	<path fill="#040000" d="M420.116,284.02h-3.578c-0.208,0-0.377,0.238-0.377,0.532v24.725c0,0.294,0.169,0.532,0.377,0.532h3.578
		c0.208,0,0.377-0.238,0.377-0.532v-24.725C420.493,284.258,420.324,284.02,420.116,284.02z M419.74,308.744
		c-0.532,0-2.293,0-2.825,0c0-0.996,0-22.666,0-23.661c0.532,0,2.292,0,2.825,0C419.74,286.079,419.74,307.749,419.74,308.744z"/>
	<path fill="#040000" d="M367.764,294.654h38.04c0.208,0,0.377-0.238,0.377-0.532v-4.387c0-0.294-0.169-0.532-0.377-0.532h-38.04
		c-0.208,0-0.377,0.238-0.377,0.532v4.387C367.387,294.416,367.556,294.654,367.764,294.654z M397.018,293.59
		c-1.111,0-2.29,0-3.515,0v-3.323c1.226,0,2.405,0,3.515,0V293.59z M397.771,290.268c1.296,0,2.483,0,3.515,0v3.323
		c-1.032,0-2.219,0-3.515,0V290.268z M392.749,293.59c-1.145,0-2.323,0-3.515,0v-3.323c1.192,0,2.37,0,3.515,0V293.59z
		 M388.48,293.59c-1.169,0-2.347,0-3.515,0v-3.323c1.168,0,2.346,0,3.515,0V293.59z M384.211,293.59c-1.193,0-2.371,0-3.515,0
		v-3.323c1.145,0,2.322,0,3.515,0V293.59z M379.942,293.59c-1.227,0-2.406,0-3.515,0v-3.323c1.109,0,2.289,0,3.515,0V293.59z
		 M375.674,293.59c-1.301,0-2.487,0-3.515,0v-3.323c1.029,0,2.214,0,3.515,0V293.59z M405.427,293.59c-0.131,0-1.399,0-3.388,0
		v-3.323c1.989,0,3.257,0,3.388,0C405.427,290.975,405.427,292.883,405.427,293.59z M368.141,290.268c0.129,0,1.346,0,3.264,0v3.323
		c-1.918,0-3.135,0-3.264,0C368.141,292.883,368.141,290.975,368.141,290.268z"/>
	<path fill="#040000" d="M367.764,304.89h38.04c0.208,0,0.377-0.238,0.377-0.532v-4.387c0-0.294-0.169-0.532-0.377-0.532h-38.04
		c-0.208,0-0.377,0.238-0.377,0.532v4.387C367.387,304.652,367.556,304.89,367.764,304.89z M397.018,303.826
		c-1.111,0-2.29,0-3.515,0v-3.323c1.226,0,2.405,0,3.515,0V303.826z M397.771,300.503c1.296,0,2.483,0,3.515,0v3.323
		c-1.032,0-2.219,0-3.515,0V300.503z M392.749,303.826c-1.145,0-2.323,0-3.515,0v-3.323c1.192,0,2.37,0,3.515,0V303.826z
		 M388.48,303.826c-1.169,0-2.347,0-3.515,0v-3.323c1.168,0,2.346,0,3.515,0V303.826z M384.211,303.826c-1.193,0-2.371,0-3.515,0
		v-3.323c1.145,0,2.322,0,3.515,0V303.826z M379.942,303.826c-1.227,0-2.406,0-3.515,0v-3.323c1.109,0,2.289,0,3.515,0V303.826z
		 M375.674,303.826c-1.301,0-2.487,0-3.515,0v-3.323c1.029,0,2.214,0,3.515,0V303.826z M405.427,303.826c-0.131,0-1.399,0-3.388,0
		v-3.323c1.989,0,3.257,0,3.388,0C405.427,301.211,405.427,303.118,405.427,303.826z M368.141,300.503c0.129,0,1.346,0,3.264,0
		v3.323c-1.918,0-3.135,0-3.264,0C368.141,303.118,368.141,301.211,368.141,300.503z"/>
	<path fill="#040000" d="M367.764,315.125h38.04c0.208,0,0.377-0.238,0.377-0.532v-4.387c0-0.294-0.169-0.532-0.377-0.532h-38.04
		c-0.208,0-0.377,0.238-0.377,0.532v4.387C367.387,314.888,367.556,315.125,367.764,315.125z M397.018,314.061
		c-1.111,0-2.29,0-3.515,0v-3.323c1.226,0,2.405,0,3.515,0V314.061z M397.771,310.739c1.296,0,2.483,0,3.515,0v3.323
		c-1.032,0-2.219,0-3.515,0V310.739z M392.749,314.061c-1.145,0-2.323,0-3.515,0v-3.323c1.192,0,2.37,0,3.515,0V314.061z
		 M388.48,314.061c-1.169,0-2.347,0-3.515,0v-3.323c1.168,0,2.346,0,3.515,0V314.061z M384.211,314.061c-1.193,0-2.371,0-3.515,0
		v-3.323c1.145,0,2.322,0,3.515,0V314.061z M379.942,314.061c-1.227,0-2.406,0-3.515,0v-3.323c1.109,0,2.289,0,3.515,0V314.061z
		 M375.674,314.061c-1.301,0-2.487,0-3.515,0v-3.323c1.029,0,2.214,0,3.515,0V314.061z M405.427,314.061c-0.131,0-1.399,0-3.388,0
		v-3.323c1.989,0,3.257,0,3.388,0C405.427,311.446,405.427,313.354,405.427,314.061z M368.141,310.739c0.129,0,1.346,0,3.264,0
		v3.323c-1.918,0-3.135,0-3.264,0C368.141,313.354,368.141,311.446,368.141,310.739z"/>
	<path fill="#040000" d="M487.957,318.064c0-0.099-0.006-0.203-0.017-0.314c-0.061-0.589-0.356-1.124-0.786-1.432
		c-0.127-0.091-0.261-0.095-0.394-0.136c0.421-0.804,0.861-1.827,0.861-2.79c0-0.102-0.005-0.203-0.015-0.302
		c-0.056-0.538-0.267-0.998-0.61-1.328c-0.345-0.332-0.759-0.397-1.194-0.187c-0.642,0.309-1.265,1.215-1.681,2.078
		c-0.148-0.255-0.338-0.457-0.574-0.554c-0.279-0.115-0.563-0.08-0.817,0.083c-0.082-0.323-0.208-0.624-0.38-0.87
		c-0.203-0.29-0.456-0.441-0.725-0.526c0.3-0.562,0.533-1.22,0.533-1.848c0-0.251-0.036-0.496-0.119-0.726
		c-0.164-0.455-0.424-0.763-0.755-0.892c-0.327-0.127-0.662-0.054-0.955,0.072c0.031-0.302,0.057-0.616,0.057-0.943
		c0-0.82-0.116-1.67-0.444-2.306c-0.318-0.619-0.79-0.938-1.367-0.924c-0.721,0.018-1.478,0.771-2.077,2.066
		c-0.245,0.529-0.47,1.206-0.603,1.896c-0.133-0.137-0.278-0.264-0.443-0.367c-0.659-0.415-1.63-0.521-2.205,0.224
		c-0.301,0.39-0.456,0.872-0.456,1.395c0,0.203,0.023,0.414,0.071,0.627c0.119,0.535,0.394,1.041,0.729,1.427
		c-0.998,0.606-1.883,2.194-2.158,3.298v-30.721c0-0.294-0.169-0.532-0.377-0.532h-0.377v-1.949c0-0.294-0.169-0.532-0.377-0.532
		h-42.559v-20.294c0-0.294-0.169-0.532-0.377-0.532h-18.643c-0.208,0-0.377,0.238-0.377,0.532v20.303
		c-0.011-0.001-0.02-0.009-0.031-0.009h-42.811c-0.208,0-0.377,0.238-0.377,0.532v1.949h-0.377c-0.208,0-0.377,0.238-0.377,0.532
		v27.433c-0.417-0.338-0.779-0.31-1.029-0.199c-0.978,0.433-1.548,2.6-1.786,3.745c-0.119-0.01-0.241,0.011-0.365,0.087
		c-0.549,0.339-1.061,1.557-1.313,2.866c-0.09-1.191-0.351-2.36-0.795-2.988c0.079-0.391,0.108-0.901,0.108-1.373
		c0-0.624-0.04-1.157-0.041-1.167c-0.161-1.004-0.609-2.339-1.382-3.074c-0.84-0.799-1.913-0.813-2.67-0.036
		c-0.528,0.542-0.81,1.357-0.81,2.28c0,0.175,0.036,0.362,0.056,0.544c-0.98,0.822-1.437,3.421-1.437,5.512
		c0,0.248,0.006,0.488,0.019,0.716c0.096,1.748,0.526,2.887,1.178,3.315c-0.071,0.471-0.118,0.932-0.118,1.37
		c0,0.977,0.175,1.86,0.523,2.611c0.215,0.464,0.963,1.588,1.652,2.121c-0.066,0.442-0.185,0.901-0.312,1.385
		c-0.256,0.971-0.521,1.975-0.394,3.039c0.018,0.152,0.083,0.287,0.177,0.367c0.094,0.08,0.208,0.098,0.313,0.049
		c0.232-0.108,0.623-0.204,0.931-0.157c0.194,0.029,0.371-0.155,0.409-0.425c0.122-0.867,0.013-1.804-0.092-2.709
		c-0.054-0.463-0.103-0.904-0.123-1.32c0.929-0.381,1.764-2.611,1.803-2.714c0.251-0.682,0.324-1.252,0.324-1.788
		c0-0.36-0.033-0.704-0.066-1.055c0,0-0.021-0.316-0.041-0.618c0.241-0.136,0.501-0.454,0.667-1.216
		c0.014-0.066,0.025-0.14,0.038-0.21c0.129,0.774,0.424,1.346,0.877,1.649c-0.349,0.74-0.631,1.585-0.631,2.561
		c0,0.2,0.012,0.406,0.037,0.618c0.083,0.684,0.475,1.827,1.088,2.225c0.178,0.116,0.361,0.123,0.543,0.092
		c0.233,0.651,0.574,0.958,0.849,1.083c0.179,0.081,0.363,0.111,0.547,0.105c-0.039,0.403-0.042,0.822,0.003,1.233
		c0.019,0.169,0.094,0.315,0.202,0.392c0.456,0.325,0.906,0.277,1.31-0.126c0.04,0.021,0.082,0.036,0.128,0.036h42.962l-0.052,0.051
		c-0.102,0.1-0.162,0.263-0.162,0.437v2.127c0,0.293,0.169,0.532,0.377,0.532h20.197c0.101,0,0.199-0.058,0.269-0.16
		c0.071-0.102,0.11-0.241,0.107-0.384l-0.044-2.602h42.651c0.208,0,0.377-0.238,0.377-0.532V316.81
		c0.115,0.322,0.27,0.527,0.376,0.635c0.36,0.368,0.87,0.429,1.393,0.303c-0.203,0.577-0.351,1.216-0.351,1.819
		c0,0.427,0.073,0.836,0.249,1.187c0.238,0.474,0.531,0.746,0.875,0.808c0.413,0.075,0.813-0.186,1.175-0.526
		c-0.043,0.354-0.077,0.723-0.077,1.094c0,0.508,0.055,1.001,0.206,1.402c0.164,0.433,0.426,0.728,0.758,0.854
		c0.034,0.013,0.067,0.017,0.101,0.027c-0.008,0.907-0.103,1.614-0.197,2.293c-0.11,0.794-0.224,1.614-0.176,2.678
		c0.011,0.251,0.146,0.457,0.323,0.493c0.011,0.002,1.202,0.177,1.576-0.071c0.119-0.079,0.2-0.24,0.214-0.425
		c0.098-1.305,0.069-2.884,0.043-4.278l-0.021-1.776c0-0.023-0.008-0.044-0.011-0.067c0.357-0.609,0.647-1.35,0.873-1.984
		c0.275,0.687,0.658,1.269,1.161,1.375c0.022,0.005,0.047,0.006,0.071,0.008c-0.088,0.596-0.026,1.153,0.195,1.616
		c0.387,0.812,1.202,1.244,2.128,1.128c0.157-0.02,0.308-0.059,0.455-0.109c-0.043,0.518-0.142,1.105-0.245,1.718
		c-0.271,1.604-0.55,3.262-0.023,4.53c0.078,0.187,0.227,0.288,0.38,0.257c1.344-0.28,1.275-1.329,1.208-2.343l-0.04-0.983
		l0.022-1.104c0.05-2.021,0.05-2.693-0.038-2.995c0.156-0.202,0.295-0.427,0.412-0.676c0.51,0.39,1.052,0.472,1.566,0.151
		c0.694-0.434,1.213-1.505,1.262-2.606c0.002-0.058,0.004-0.115,0.004-0.171c0-0.522-0.12-0.992-0.322-1.394
		C487.443,319.44,487.957,319.019,487.957,318.064z M356.574,331.45c-0.128,0.009-0.256,0.021-0.375,0.048
		c0.025-0.522,0.142-1.064,0.287-1.626c0.053,0.471,0.1,0.942,0.1,1.378C356.587,331.32,356.576,331.382,356.574,331.45z
		 M359.038,320.35c-0.022,0.101-0.14,0.603-0.286,0.564c-0.116-0.029-0.237,0-0.323,0.112c-0.087,0.112-0.133,0.258-0.122,0.424
		l0.078,1.188c0.075,0.795,0.13,1.37-0.18,2.21c-0.368,0.997-1.073,2.203-1.396,2.203c-0.32,0-1.354-1.247-1.668-1.929
		c-0.438-0.947-0.519-2.151-0.241-3.579c0.029-0.149,0.011-0.308-0.05-0.436c-0.061-0.129-0.158-0.214-0.267-0.233
		c-0.571-0.101-0.842-1.383-0.905-2.549c-0.131-2.4,0.453-5.042,1.179-5.335c0.096-0.039,0.177-0.13,0.226-0.254
		c0.049-0.124,0.06-0.269,0.033-0.405c-0.179-0.883-0.024-1.654,0.427-2.117c0.418-0.429,1.138-0.577,1.806,0.058
		c0.486,0.463,0.905,1.416,1.068,2.428c0.011,0.114,0.019,0.428,0.019,0.781c0,0.45-0.015,0.948-0.056,1.198
		c-0.061,0.054-0.111,0.134-0.142,0.233c-0.022,0.07-0.032,0.143-0.032,0.215c0,0.204,0.083,0.399,0.224,0.486
		C359.012,315.98,359.375,318.811,359.038,320.35z M469.926,283.532h-1.13v-1.418c0.664,0,1.063,0,1.13,0
		C469.926,282.523,469.926,283.144,469.926,283.532z M429.25,283.532v-1.418c0.334,0,0.713,0,1.13,0v1.418H429.25z M431.133,282.114
		c0.355,0,0.733,0,1.13,0v1.418h-1.13V282.114z M433.016,282.114c0.364,0,0.739,0,1.13,0v1.418h-1.13V282.114z M434.899,282.114
		c0.367,0,0.744,0,1.13,0v1.418h-1.13V282.114z M436.782,282.114c0.37,0,0.746,0,1.13,0v1.418h-1.13V282.114z M438.665,282.114
		c0.372,0,0.748,0,1.13,0v1.418h-1.13V282.114z M440.549,282.114c0.373,0,0.749,0,1.13,0v1.418h-1.13V282.114z M442.432,282.114
		c0.374,0,0.75,0,1.13,0v1.418h-1.13V282.114z M444.315,282.114c0.375,0,0.751,0,1.13,0v1.418h-1.13V282.114z M446.198,282.114
		c0.376,0,0.752,0,1.13,0v1.418h-1.13V282.114z M448.081,282.114c0.377,0,0.753,0,1.13,0v1.418h-1.13V282.114z M449.965,282.114
		c0.377,0,0.754,0,1.13,0v1.418h-1.13V282.114z M451.848,282.114c0.378,0,0.755,0,1.13,0v1.418h-1.13V282.114z M453.731,282.114
		c0.379,0,0.756,0,1.13,0v1.418h-1.13V282.114z M455.614,282.114c0.38,0,0.757,0,1.13,0v1.418h-1.13V282.114z M457.497,282.114
		c0.381,0,0.758,0,1.13,0v1.418h-1.13V282.114z M459.381,282.114c0.382,0,0.76,0,1.13,0v1.418h-1.13V282.114z M461.264,282.114
		c0.386,0,0.762,0,1.13,0v1.418h-1.13V282.114z M463.147,282.114c0.39,0,0.766,0,1.13,0v1.418h-1.13V282.114z M465.03,282.114
		c0.397,0,0.773,0,1.13,0v1.418h-1.13V282.114z M466.913,282.114c0.416,0,0.791,0,1.129,0v1.418h-1.129V282.114z M428.496,282.114
		v1.418h-0.753v-1.418C427.913,282.114,428.167,282.114,428.496,282.114z M411.548,328.353c1.718,0.008,12.528,0.061,13.182,0.063
		c0,0.267,0,0.534,0,0.534h-13.182V328.353z M413.32,326.823c2.027,0,7.793,0,9.668,0v0.522l-9.694-0.047L413.32,326.823z
		 M417.762,315.524v10.235h-1.883v-10.235H417.762z M418.515,325.759v-10.235h1.977v10.235H418.515z M425.483,328.512
		c0.164,0.146,0.329,0.293,0.492,0.438h-0.492V328.512z M423.741,327.348v-0.386c0.104,0.092,0.253,0.224,0.436,0.389
		L423.741,327.348z M423.129,325.759h-1.884v-10.235h1.884V325.759z M423.788,314.461c-0.686,0-10.989,0-11.675,0
		c0-0.431,0-0.766,0-1.196c0.686,0,10.989,0,11.675,0C423.788,313.695,423.788,314.03,423.788,314.461z M415.126,315.524v10.235
		h-2.166v-10.235H415.126z M412.562,326.868l-0.023,0.427l-0.411-0.002C412.341,327.084,412.491,326.937,412.562,326.868z
		 M410.795,328.95h-0.359c0.12-0.118,0.24-0.235,0.359-0.351V328.95z M409.1,330.259v0.419h-0.428
		C408.796,330.556,408.938,330.417,409.1,330.259z M409.853,330.014h16.713v0.664h-16.713V330.014z M427.319,330.146
		c0.166,0.149,0.289,0.258,0.334,0.298c0.001,0.06,0.002,0.142,0.004,0.233h-0.338V330.146z M426.99,261.289
		c0,0.981,0,59.942,0,67.307l-3.095-2.754c-0.004-0.004-0.009-0.005-0.013-0.008v-10.309h0.282c0.208,0,0.377-0.238,0.377-0.532
		v-2.26c0-0.294-0.169-0.532-0.377-0.532h-12.429c-0.208,0-0.377,0.238-0.377,0.532v2.26c0,0.294,0.169,0.532,0.377,0.532h0.471
		v10.396l-3.107,3.044c0-8.027,0-66.7,0-67.676C409.808,261.289,426.282,261.289,426.99,261.289z M408.346,282.105v1.453
		c-0.031-0.011-0.061-0.027-0.094-0.027h-0.942v-1.418c0.647,0,1.005,0,1.005,0C408.326,282.114,408.336,282.107,408.346,282.105z
		 M367.764,283.532v-1.418c0.339,0,0.713,0,1.13,0v1.418H367.764z M369.647,282.114c0.357,0,0.733,0,1.13,0v1.418h-1.13V282.114z
		 M371.53,282.114c0.364,0,0.74,0,1.13,0v1.418h-1.13V282.114z M373.414,282.114c0.367,0,0.744,0,1.13,0v1.418h-1.13V282.114z
		 M375.297,282.114c0.369,0,0.747,0,1.13,0v1.418h-1.13V282.114z M377.18,282.114c0.372,0,0.749,0,1.13,0v1.418h-1.13V282.114z
		 M379.063,282.114c0.373,0,0.75,0,1.13,0v1.418h-1.13V282.114z M380.946,282.114c0.374,0,0.751,0,1.13,0v1.418h-1.13V282.114z
		 M382.829,282.114c0.375,0,0.751,0,1.13,0v1.418h-1.13V282.114z M384.713,282.114c0.376,0,0.753,0,1.13,0v1.418h-1.13V282.114z
		 M386.596,282.114c0.376,0,0.753,0,1.13,0v1.418h-1.13V282.114z M388.479,282.114c0.378,0,0.754,0,1.13,0v1.418h-1.13V282.114z
		 M390.362,282.114c0.378,0,0.755,0,1.13,0v1.418h-1.13V282.114z M392.245,282.114c0.379,0,0.755,0,1.13,0v1.418h-1.13V282.114z
		 M394.128,282.114c0.38,0,0.757,0,1.13,0v1.418h-1.13V282.114z M396.012,282.114c0.382,0,0.758,0,1.13,0v1.418h-1.13V282.114z
		 M397.895,282.114c0.384,0,0.76,0,1.13,0v1.418h-1.13V282.114z M399.778,282.114c0.385,0,0.763,0,1.13,0v1.418h-1.13V282.114z
		 M401.661,282.114c0.39,0,0.766,0,1.13,0v1.418h-1.13V282.114z M403.544,282.114c0.397,0,0.774,0,1.13,0v1.418h-1.13V282.114z
		 M405.428,282.114c0.416,0,0.795,0,1.129,0v1.418h-1.129V282.114z M365.881,282.114c0.066,0,0.466,0,1.13,0v1.418h-1.13
		C365.881,283.144,365.881,282.523,365.881,282.114z M362.29,326.827c-0.033-0.158-0.116-0.285-0.224-0.345
		c-0.108-0.06-0.23-0.045-0.331,0.039c-0.087,0.074-0.161,0.08-0.253,0.02c-0.293-0.19-0.601-0.942-0.661-1.439
		c-0.137-1.132,0.285-2.097,0.762-2.971c0.082-0.15,0.101-0.351,0.05-0.527c-0.051-0.175-0.165-0.299-0.298-0.325
		c-0.219-0.042-0.884-0.169-0.867-1.761c0.018-1.682,0.774-3.385,1.05-3.427c0.096,0.137,0.247,0.219,0.379,0.167
		c0.132-0.052,0.243-0.172,0.274-0.36c0.217-1.29,0.768-3.309,1.397-3.587c0.071-0.031,0.286-0.127,0.647,0.329
		c0.046,0.059,0.101,0.092,0.157,0.112v14.22c-0.048,0.018-0.095,0.048-0.138,0.095c-0.483,0.532-1.064,0.773-1.445,0.601
		C362.55,327.559,362.386,327.284,362.29,326.827z M363.837,329.536c-0.002-0.06-0.01-0.119-0.01-0.179
		c0-0.284,0.034-0.558,0.086-0.815c0.163-0.091,0.317-0.201,0.461-0.323v1.062c-0.05,0.018-0.099,0.049-0.142,0.098
		C364.097,329.531,363.973,329.568,363.837,329.536z M365.128,284.596c0.74,0,43.125,0,43.125,0c0.033,0,0.063-0.015,0.094-0.027
		v44.718c-0.031-0.012-0.061-0.027-0.094-0.027c0,0-1.009,0-2.714,0c0.005-0.019,0.013-0.034,0.017-0.053
		c0.047-0.207,0.073-0.45,0.073-0.699c0-0.501-0.102-1.028-0.33-1.334c-0.073-0.097-0.166-0.105-0.253-0.148
		c-0.169-0.707-0.641-1.346-1.165-1.466c-0.307-0.071-0.567,0.08-0.775,0.353c-0.263-0.19-0.498-0.135-0.61-0.082
		c-0.394,0.189-0.659,0.784-0.776,1.332c-0.101,0.028-0.189,0.076-0.25,0.136c-0.333,0.331-0.381,1.024-0.381,1.608
		c0,0.124,0.002,0.242,0.004,0.351c-0.678,0-1.391,0-2.134,0c0.025-0.142,0.042-0.289,0.042-0.44c0-0.412-0.088-0.835-0.239-1.177
		c-0.196-0.444-0.477-0.674-0.773-0.727c-0.088-0.601-0.338-1.111-0.707-1.369c-0.358-0.251-0.754-0.204-1.115,0.068
		c-0.198-0.194-0.389-0.253-0.537-0.254h10.173c0.208,0,0.377-0.239,0.377-0.532v-4.386c0-0.294-0.169-0.532-0.377-0.532h-38.04
		c-0.208,0-0.377,0.238-0.377,0.532v4.386c0,0.137,0.039,0.259,0.1,0.353c-0.142-0.068-0.293-0.096-0.448-0.047
		c-0.296,0.093-0.577,0.425-0.68,0.961c-0.403,0.096-0.624,0.393-0.732,0.667c-0.097,0.247-0.136,0.528-0.136,0.817
		c0,0.599,0.167,1.229,0.325,1.678c-0.398,0-0.639,0-0.689,0C365.128,328.233,365.128,285.622,365.128,284.596z M401.848,329.243
		c-0.002-0.101-0.003-0.196-0.003-0.283c0-0.392,0.022-0.623,0.06-0.741c0.109,0.039,0.239,0.017,0.329-0.077
		c0.094-0.097,0.167-0.243,0.17-0.407c0.008-0.4,0.249-0.893,0.34-0.898c0.009,0.001,0.058,0.031,0.13,0.157
		c0.084,0.146,0.217,0.219,0.349,0.191c0.132-0.028,0.244-0.153,0.293-0.328c0.075-0.263,0.157-0.267,0.243-0.247
		c0.272,0.062,0.599,0.542,0.613,0.901c0.007,0.169,0.071,0.324,0.172,0.416c0.076,0.068,0.164,0.088,0.251,0.072
		c0.034,0.08,0.078,0.253,0.078,0.512c0,0.019,0,0.038-0.001,0.058c-0.007,0.266-0.06,0.416-0.083,0.444
		c-0.085,0.048-0.156,0.139-0.205,0.248c-0.809,0-1.728,0-2.739,0C401.848,329.256,401.848,329.243,401.848,329.243z
		 M379.869,329.259c0.022-0.189-0.023-0.387-0.138-0.51c-0.108-0.117-0.112-0.473-0.006-0.731c0.091-0.225,0.168-0.18,0.204-0.16
		c0.145,0.084,0.311,0.033,0.418-0.129c0.107-0.161,0.132-0.399,0.064-0.597c-0.068-0.195-0.048-0.352,0.059-0.467
		c0.113-0.121,0.308-0.161,0.468,0.038c0.087,0.11,0.206,0.155,0.32,0.124c0.115-0.031,0.213-0.135,0.265-0.282
		c0.173-0.482,0.425-0.681,0.73-0.576c0.349,0.121,0.717,0.656,0.711,1.411c-0.002,0.255,0.125,0.478,0.303,0.528
		c0.388,0.109,0.546,0.306,0.565,0.443c0.025,0.189-0.125,0.553-0.515,0.904c-0.001,0.001-0.002,0.003-0.003,0.004
		C382.147,329.259,380.995,329.259,379.869,329.259z M366.63,329.135c-0.27-0.552-0.483-1.502-0.344-1.855
		c0.047-0.12,0.177-0.174,0.384-0.16c0.106,0.007,0.209-0.05,0.284-0.156c0.075-0.106,0.115-0.252,0.11-0.401
		c-0.007-0.215,0.044-0.36,0.138-0.389c0.077-0.025,0.192,0.031,0.26,0.267c0.063,0.218,0.221,0.352,0.387,0.328
		c0.166-0.024,0.301-0.2,0.332-0.432c0.021-0.159,0.075-0.426,0.146-0.419c0.263,0.026,0.749,0.789,0.765,1.313
		c0.004,0.146,0.047,0.283,0.125,0.379c0.078,0.096,0.177,0.142,0.28,0.129l0.222-0.031c0.114-0.017,0.284-0.043,0.335-0.018
		c0,0.001,0,0.001,0,0.001c0,0.017,0.027,0.111,0.033,0.351c0,0.018,0.001,0.037,0.001,0.055c0,0.487-0.171,0.823-0.521,1.026
		c-0.053,0.031-0.095,0.081-0.131,0.137c-1.116,0-2.053,0-2.767,0C366.657,329.217,366.649,329.174,366.63,329.135z
		 M405.427,320.974c0,0.708,0,2.615,0,3.323c-0.131,0-1.399,0-3.388,0v-3.323C404.029,320.974,405.296,320.974,405.427,320.974z
		 M401.286,324.298c-1.032,0-2.219,0-3.515,0v-3.323c1.296,0,2.483,0,3.515,0V324.298z M397.018,324.298c-1.111,0-2.29,0-3.515,0
		v-3.323c1.226,0,2.405,0,3.515,0V324.298z M392.749,324.298c-1.145,0-2.323,0-3.515,0v-3.323c1.192,0,2.37,0,3.515,0V324.298z
		 M388.48,324.298c-1.169,0-2.347,0-3.515,0v-3.323c1.168,0,2.346,0,3.515,0V324.298z M384.211,324.298c-1.193,0-2.371,0-3.515,0
		v-3.323c1.145,0,2.322,0,3.515,0V324.298z M379.942,324.298c-1.227,0-2.406,0-3.515,0v-3.323c1.109,0,2.289,0,3.515,0V324.298z
		 M375.674,324.298c-1.301,0-2.487,0-3.515,0v-3.323c1.029,0,2.214,0,3.515,0V324.298z M371.405,324.298c-1.918,0-3.135,0-3.264,0
		c0-0.708,0-2.615,0-3.323c0.129,0,1.346,0,3.264,0V324.298z M370.539,326.875c-0.234-0.285-0.524-0.273-0.795-0.235
		c-0.115-0.465-0.339-0.935-0.615-1.279h5.203c-0.051,0.116-0.097,0.249-0.128,0.415c-0.272-0.053-0.549-0.051-0.786,0.171
		c-0.166,0.156-0.261,0.399-0.322,0.675c-0.412,0.146-0.72,0.65-0.802,1.205c-0.016,0.11-0.023,0.214-0.023,0.313
		c0,0.456,0.152,0.805,0.307,1.118c-0.694,0-1.355,0-1.973,0c0.165-0.357,0.247-0.783,0.235-1.257
		C370.831,327.666,370.79,327.183,370.539,326.875z M373.349,328.963l-0.101-0.204c-0.184-0.366-0.245-0.512-0.216-0.716
		c0.028-0.19,0.158-0.45,0.319-0.418c0.109,0.022,0.22-0.026,0.302-0.129c0.083-0.104,0.129-0.252,0.127-0.407
		c-0.002-0.134,0.016-0.22,0.054-0.255c0.085-0.08,0.318-0.077,0.545,0.065c0.12,0.075,0.259,0.057,0.367-0.048
		c0.108-0.106,0.17-0.282,0.162-0.467c-0.008-0.212,0.005-0.478,0.118-0.547c0.188-0.117,0.649,0.079,0.938,0.498
		c0.109,0.158,0.17,0.327,0.145,0.402c-0.058,0.174-0.045,0.379,0.035,0.536c0.079,0.156,0.212,0.24,0.348,0.219
		c0.256-0.041,0.387,0.027,0.44,0.52c0.043,0.397-0.051,0.539-0.357,0.927l-0.156,0.203c-0.027,0.034-0.044,0.077-0.062,0.119
		c-1.03,0-2.015,0-2.949,0C373.408,329.158,373.394,329.054,373.349,328.963z M377.677,327.851
		c-0.085-0.783-0.391-1.246-0.844-1.375c-0.039-0.301-0.136-0.603-0.33-0.883c-0.056-0.081-0.117-0.158-0.183-0.231h4.914
		c-0.058,0.073-0.114,0.151-0.166,0.24c-0.351-0.18-0.75-0.111-1.056,0.218c-0.25,0.269-0.38,0.648-0.389,1.055
		c-0.216,0.099-0.416,0.278-0.552,0.614c-0.112,0.276-0.175,0.609-0.175,0.94c0,0.296,0.057,0.584,0.168,0.831
		c-0.56,0-1.11,0-1.652,0c0.161-0.276,0.283-0.611,0.283-1.08C377.696,328.077,377.69,327.967,377.677,327.851z M384.572,328.155
		c-0.044-0.33-0.246-0.871-0.898-1.17c-0.07-0.653-0.304-1.235-0.646-1.623h6.248c-0.095,0.048-0.195,0.117-0.293,0.234
		c-0.351-0.224-0.777-0.153-1.098,0.07c-0.324,0.225-0.499,0.596-0.572,1c-0.408,0.165-0.693,0.724-0.823,1.276
		c-0.052,0.22-0.073,0.411-0.073,0.584c0,0.287,0.059,0.519,0.132,0.734c-0.723,0-1.444,0-2.163,0
		c0.13-0.283,0.201-0.578,0.201-0.868C384.588,328.311,384.582,328.232,384.572,328.155z M387.374,329.205l-0.08-0.224
		c-0.125-0.34-0.155-0.421-0.088-0.705c0.076-0.323,0.235-0.649,0.361-0.615c0.126,0.035,0.256-0.023,0.345-0.154
		c0.089-0.131,0.124-0.317,0.094-0.493c-0.036-0.21,0.171-0.366,0.212-0.395c0.206-0.143,0.445-0.134,0.532,0.02
		c0.078,0.137,0.199,0.212,0.323,0.198c0.124-0.013,0.235-0.112,0.298-0.264c0.1-0.243,0.176-0.235,0.213-0.231
		c0.25,0.027,0.631,0.578,0.743,0.985l0.148,0.455c0.112,0.321,0.28,0.805,0.218,1.01c-0.025,0.084-0.116,0.164-0.257,0.228
		c-0.092,0.042-0.161,0.131-0.207,0.239c-0.942,0-1.892,0-2.844,0C387.38,329.242,387.38,329.223,387.374,329.205z M391.15,327.313
		l-0.122-0.371c-0.154-0.562-0.607-1.332-1.128-1.58h5.728c-0.088-0.001-0.161,0.019-0.21,0.042
		c-0.467,0.223-0.765,0.988-0.871,1.628c-0.223,0.088-0.421,0.247-0.547,0.543c-0.123,0.288-0.176,0.637-0.176,0.986
		c0,0.239,0.026,0.478,0.07,0.698c-0.829,0-1.675,0-2.53,0c0.006-0.018,0.016-0.033,0.021-0.051
		C391.583,328.555,391.332,327.837,391.15,327.313z M394.699,329.245c-0.122-0.276-0.171-0.848-0.053-1.122
		c0.028-0.067,0.067-0.131,0.2-0.118c0.103,0.01,0.204-0.039,0.28-0.137c0.076-0.098,0.12-0.235,0.123-0.381
		c0.006-0.397,0.233-0.99,0.411-1.075c0.059-0.028,0.148,0.115,0.184,0.178c0.063,0.112,0.157,0.183,0.258,0.196
		c0.102,0.014,0.202-0.031,0.28-0.124c0.189-0.227,0.39-0.284,0.567-0.161c0.216,0.151,0.345,0.523,0.329,0.948
		c-0.007,0.185,0.054,0.361,0.162,0.466c0.108,0.106,0.246,0.124,0.366,0.05c0.11-0.069,0.217,0.012,0.319,0.242
		c0.155,0.351,0.17,0.838,0.031,1.002c-0.013,0.015-0.019,0.036-0.03,0.052c-1.092,0-2.237,0-3.422,0
		C394.701,329.254,394.701,329.249,394.699,329.245z M408.252,332.406c0-0.224,0-0.453,0-0.665h19.423
		c0.004,0.237,0.008,0.47,0.011,0.665C426.959,332.406,408.963,332.406,408.252,332.406z M430.994,328.999l0.022,0.012
		c-0.023-0.028-0.076-0.178-0.083-0.444c0-0.02-0.001-0.039-0.001-0.058c0-0.258,0.044-0.431,0.078-0.512
		c0.087,0.016,0.176-0.004,0.252-0.072c0.101-0.092,0.165-0.247,0.172-0.416c0.015-0.358,0.341-0.838,0.613-0.901
		c0.086-0.019,0.168-0.015,0.243,0.247c0.05,0.175,0.161,0.3,0.293,0.328c0.132,0.028,0.265-0.045,0.349-0.191
		c0.073-0.126,0.121-0.156,0.13-0.157c0.091,0.006,0.332,0.498,0.34,0.898c0.003,0.164,0.076,0.309,0.17,0.407
		c0.09,0.094,0.22,0.116,0.329,0.077c0.038,0.117,0.06,0.349,0.06,0.741c0,0.087-0.001,0.181-0.003,0.282c0,0,0,0.012,0,0.017
		c-1.021,0-1.947,0-2.748,0C431.16,329.144,431.081,329.048,430.994,328.999z M437.652,329.207
		c-0.138-0.164-0.123-0.651,0.031-1.002c0.101-0.229,0.208-0.311,0.319-0.242c0.12,0.075,0.259,0.056,0.366-0.05
		c0.108-0.105,0.169-0.281,0.162-0.466c-0.016-0.425,0.113-0.797,0.329-0.948c0.177-0.124,0.379-0.066,0.567,0.161
		c0.077,0.093,0.178,0.138,0.28,0.124c0.101-0.013,0.194-0.084,0.258-0.196c0.035-0.063,0.125-0.206,0.183-0.178
		c0.178,0.085,0.405,0.679,0.411,1.076c0.003,0.145,0.047,0.283,0.123,0.381c0.076,0.098,0.177,0.148,0.28,0.137
		c0.132-0.013,0.172,0.051,0.2,0.118c0.117,0.274,0.069,0.847-0.054,1.122c-0.002,0.004-0.002,0.009-0.004,0.014
		c-1.186,0-2.333,0-3.422,0C437.671,329.243,437.664,329.222,437.652,329.207z M430.38,324.298c0-0.708,0-2.615,0-3.323
		c0.131,0,1.399,0,3.388,0v3.323C431.778,324.298,430.511,324.298,430.38,324.298z M434.521,320.974c1.032,0,2.219,0,3.515,0v3.323
		c-1.296,0-2.483,0-3.515,0V320.974z M438.789,320.974c1.111,0,2.29,0,3.515,0v3.323c-1.226,0-2.404,0-3.515,0V320.974z
		 M469.177,329.135c-0.019,0.039-0.027,0.082-0.037,0.124c-0.714,0-1.651,0-2.766,0c-0.037-0.057-0.08-0.105-0.133-0.137
		c-0.364-0.21-0.533-0.564-0.52-1.082c0.008-0.291,0.046-0.368,0.046-0.368c0.032-0.009,0.207,0.018,0.322,0.035l0.222,0.031
		c0.103,0.014,0.201-0.032,0.28-0.129c0.078-0.096,0.121-0.233,0.125-0.379c0.016-0.524,0.502-1.288,0.765-1.313
		c0.07-0.007,0.125,0.26,0.146,0.419c0.03,0.232,0.166,0.408,0.332,0.432c0.166,0.024,0.324-0.11,0.387-0.328
		c0.068-0.236,0.183-0.292,0.26-0.267c0.094,0.029,0.146,0.174,0.138,0.389c-0.005,0.149,0.035,0.295,0.11,0.401
		c0.075,0.106,0.178,0.163,0.284,0.156c0.207-0.014,0.337,0.04,0.384,0.16C469.66,327.633,469.446,328.583,469.177,329.135z
		 M452.493,329.259c-0.001-0.001-0.002-0.003-0.003-0.004c-0.39-0.351-0.54-0.715-0.515-0.904c0.019-0.137,0.177-0.335,0.565-0.443
		c0.177-0.051,0.305-0.272,0.303-0.528c-0.007-0.754,0.361-1.29,0.711-1.411c0.305-0.106,0.557,0.094,0.73,0.576
		c0.053,0.147,0.151,0.251,0.265,0.282c0.115,0.031,0.233-0.014,0.321-0.124c0.16-0.2,0.354-0.16,0.467-0.038
		c0.107,0.115,0.127,0.272,0.06,0.467c-0.069,0.199-0.044,0.436,0.063,0.597c0.107,0.162,0.273,0.213,0.418,0.129
		c0.037-0.021,0.113-0.065,0.204,0.159c0.105,0.259,0.102,0.615-0.007,0.732c-0.115,0.124-0.16,0.322-0.138,0.51
		C454.812,329.259,453.659,329.259,452.493,329.259z M445.371,329.02c-0.141-0.064-0.232-0.144-0.257-0.228
		c-0.062-0.205,0.107-0.69,0.218-1.01l0.148-0.455c0.112-0.407,0.492-0.958,0.743-0.985c0.037-0.004,0.114-0.012,0.213,0.231
		c0.062,0.152,0.173,0.251,0.298,0.264c0.124,0.014,0.244-0.061,0.323-0.198c0.088-0.154,0.326-0.163,0.532-0.02
		c0.042,0.029,0.249,0.185,0.213,0.395c-0.03,0.176,0.004,0.363,0.094,0.493c0.089,0.131,0.218,0.189,0.345,0.154
		c0.122-0.033,0.285,0.29,0.36,0.613c0.067,0.286,0.037,0.366-0.087,0.706l-0.08,0.224c-0.007,0.018-0.006,0.037-0.011,0.055
		c-0.953,0-1.903,0-2.844,0C445.533,329.151,445.463,329.062,445.371,329.02z M449.315,327.94c-0.129-0.551-0.414-1.111-0.823-1.275
		c-0.073-0.404-0.248-0.775-0.572-1c-0.321-0.223-0.746-0.294-1.097-0.07c-0.098-0.117-0.197-0.185-0.293-0.234h6.247
		c-0.342,0.388-0.576,0.97-0.645,1.623c-0.652,0.299-0.854,0.839-0.898,1.17c-0.011,0.078-0.015,0.157-0.015,0.237
		c0,0.29,0.071,0.585,0.201,0.868c-0.719,0-1.441,0-2.163,0c0.073-0.215,0.131-0.447,0.131-0.734
		C449.388,328.353,449.367,328.161,449.315,327.94z M456.736,327.488c-0.136-0.336-0.336-0.515-0.552-0.614
		c-0.009-0.406-0.138-0.786-0.389-1.055c-0.306-0.329-0.705-0.397-1.055-0.218c-0.052-0.089-0.108-0.167-0.166-0.24h4.914
		c-0.066,0.073-0.127,0.15-0.183,0.23c-0.194,0.281-0.291,0.583-0.33,0.884c-0.453,0.129-0.759,0.592-0.844,1.375
		c-0.012,0.116-0.019,0.225-0.019,0.328c0,0.469,0.123,0.805,0.284,1.08c-0.542,0-1.093,0-1.652,0
		c0.112-0.247,0.168-0.536,0.168-0.831C456.911,328.098,456.848,327.764,456.736,327.488z M459.387,329.14l-0.156-0.203
		c-0.306-0.388-0.4-0.529-0.357-0.926c0.053-0.494,0.185-0.562,0.44-0.521c0.136,0.021,0.268-0.062,0.348-0.219
		c0.079-0.157,0.093-0.362,0.035-0.536c-0.025-0.075,0.036-0.244,0.145-0.402c0.289-0.419,0.75-0.615,0.938-0.498
		c0.112,0.069,0.126,0.336,0.118,0.547c-0.007,0.185,0.054,0.362,0.162,0.468c0.108,0.105,0.247,0.123,0.367,0.048
		c0.227-0.142,0.461-0.145,0.545-0.065c0.037,0.035,0.056,0.121,0.054,0.255c-0.002,0.155,0.045,0.304,0.127,0.407
		c0.082,0.103,0.192,0.15,0.302,0.129c0.161-0.032,0.291,0.228,0.319,0.419c0.03,0.203-0.032,0.348-0.215,0.713l-0.102,0.206
		c-0.045,0.091-0.06,0.195-0.06,0.297c-0.934,0-1.92,0-2.949,0C459.431,329.218,459.414,329.175,459.387,329.14z M463.513,327.829
		c-0.082-0.556-0.39-1.06-0.802-1.206c-0.06-0.276-0.156-0.52-0.321-0.675c-0.237-0.222-0.514-0.224-0.786-0.171
		c-0.03-0.166-0.076-0.299-0.128-0.415h5.203c-0.276,0.343-0.501,0.814-0.616,1.279c-0.271-0.037-0.561-0.05-0.795,0.235
		c-0.252,0.307-0.292,0.79-0.3,1.127c-0.012,0.474,0.071,0.901,0.235,1.257c-0.619,0-1.28,0-1.973,0
		c0.155-0.313,0.307-0.662,0.307-1.118C463.536,328.043,463.528,327.939,463.513,327.829z M467.666,324.298
		c-0.129,0-1.346,0-3.264,0v-3.323c1.918,0,3.135,0,3.264,0C467.666,321.682,467.666,323.59,467.666,324.298z M463.649,324.298
		c-1.029,0-2.214,0-3.516,0v-3.323c1.301,0,2.487,0,3.516,0V324.298z M459.38,324.298c-1.109,0-2.289,0-3.515,0v-3.323
		c1.227,0,2.406,0,3.515,0V324.298z M455.111,324.298c-1.145,0-2.322,0-3.515,0v-3.323c1.193,0,2.371,0,3.515,0V324.298z
		 M450.842,324.298c-1.168,0-2.346,0-3.515,0v-3.323c1.169,0,2.347,0,3.515,0V324.298z M446.574,324.298c-1.192,0-2.37,0-3.515,0
		v-3.323c1.145,0,2.323,0,3.515,0V324.298z M445.907,325.361c-0.521,0.248-0.974,1.019-1.128,1.58l-0.122,0.371
		c-0.183,0.524-0.433,1.242-0.235,1.896c0.006,0.018,0.015,0.033,0.021,0.051c-0.856,0-1.701,0-2.53,0
		c0.044-0.22,0.07-0.459,0.07-0.698c0-0.35-0.053-0.698-0.175-0.986c-0.126-0.297-0.324-0.456-0.547-0.544
		c-0.106-0.64-0.404-1.405-0.871-1.629c-0.049-0.023-0.121-0.042-0.208-0.042H445.907z M470.679,329.259c-0.05,0-0.291,0-0.688,0
		c0.158-0.449,0.325-1.08,0.325-1.679c0-0.288-0.039-0.569-0.136-0.817c-0.108-0.274-0.328-0.571-0.731-0.667
		c-0.103-0.536-0.384-0.868-0.68-0.961c-0.155-0.049-0.306-0.021-0.448,0.047c0.06-0.095,0.099-0.216,0.099-0.353v-4.386
		c0-0.294-0.169-0.532-0.377-0.532h-38.04c-0.208,0-0.377,0.238-0.377,0.532v4.386c0,0.293,0.169,0.532,0.377,0.532h10.172
		c-0.148,0.002-0.338,0.061-0.535,0.254c-0.361-0.272-0.757-0.319-1.115-0.068c-0.369,0.258-0.619,0.768-0.707,1.369
		c-0.297,0.053-0.578,0.283-0.774,0.727c-0.151,0.341-0.239,0.764-0.239,1.176c0,0.151,0.017,0.297,0.042,0.44
		c-0.746,0-1.457,0-2.134,0c0.002-0.109,0.005-0.227,0.005-0.351c0-0.583-0.048-1.276-0.381-1.608
		c-0.061-0.06-0.149-0.108-0.25-0.136c-0.117-0.549-0.382-1.143-0.776-1.332c-0.112-0.053-0.347-0.109-0.61,0.082
		c-0.207-0.274-0.468-0.424-0.775-0.353c-0.524,0.12-0.995,0.758-1.164,1.466c-0.087,0.042-0.18,0.05-0.253,0.148
		c-0.228,0.306-0.33,0.832-0.33,1.334c0,0.249,0.025,0.492,0.073,0.699c0.004,0.02,0.012,0.035,0.017,0.053
		c-1.503,0-2.384,0-2.384,0c-0.04,0-0.077,0.016-0.113,0.032l-0.028-0.025v-44.671c2.999,0,42.224,0,42.936,0
		C470.679,285.622,470.679,328.233,470.679,329.259z M483.063,330.673c-0.064-0.266-0.105-0.552-0.105-0.874
		c0-0.768,0.151-1.664,0.299-2.541c0.028-0.163,0.048-0.313,0.074-0.472c-0.004,0.188-0.009,0.393-0.012,0.544l-0.023,1.141
		l0.044,1.082c0.016,0.247,0.029,0.436,0.029,0.583C483.369,330.476,483.302,330.593,483.063,330.673z M477.148,328.865
		c-0.18,0.013-0.428,0.009-0.641-0.006c0.002-0.708,0.082-1.292,0.173-1.95c0.099-0.713,0.21-1.523,0.213-2.571
		c0.09-0.045,0.178-0.1,0.263-0.168c0.006,0.47,0.011,0.958,0.011,0.958c0.012,0.65,0.025,1.342,0.025,2.022
		C477.192,327.747,477.176,328.323,477.148,328.865z M479.142,319.873c-0.043-0.21-0.172-0.366-0.326-0.386
		c-0.154-0.019-0.299,0.091-0.369,0.288l-0.186,0.526c-0.408,1.183-1.168,3.384-2.03,3.057c-0.133-0.05-0.222-0.151-0.289-0.327
		c-0.244-0.648-0.079-2.072,0.193-3.196c0.055-0.225-0.002-0.477-0.141-0.612c-0.139-0.135-0.323-0.125-0.453,0.028l-0.214,0.251
		c-0.379,0.452-0.897,1.07-1.259,1.005c-0.047-0.008-0.188-0.034-0.355-0.367c-0.379-0.757,0.279-2.473,0.764-3.153
		c0.14-0.197,0.149-0.514,0.019-0.725c-0.13-0.21-0.353-0.244-0.511-0.076c-0.643,0.685-1.401,0.74-1.735,0.397
		c-0.304-0.312-0.229-0.948-0.113-1.427c0.308-1.271,1.561-3.123,2.408-2.837c0.112,0.038,0.23,0.001,0.321-0.1
		c0.091-0.101,0.144-0.255,0.144-0.417v-0.177c0-0.267-0.14-0.492-0.327-0.527c-0.395-0.075-0.951-0.671-1.105-1.357
		c-0.082-0.366-0.026-0.657,0.177-0.919c0.268-0.349,0.866-0.364,1.389-0.035c0.17,0.107,0.724,0.511,0.719,1.224
		c0-0.001,0.001-0.003,0.001-0.004c0.015,0.069,0.008,0.149,0.028,0.214c0.069,0.233,0.244,0.365,0.42,0.317
		c0.175-0.048,0.302-0.264,0.304-0.516c0-0.007,0-0.014,0-0.02c0-0.237-0.033-0.467-0.089-0.687c0-0.014-0.005-0.022-0.005-0.036
		c0-0.667,0.223-1.586,0.604-2.41c0.447-0.966,1.007-1.573,1.46-1.584c0.329-0.008,0.572,0.151,0.744,0.485
		c0.391,0.762,0.364,2.338,0.113,3.361c-0.052,0.213-0.003,0.451,0.122,0.59c0.125,0.14,0.3,0.154,0.435,0.033
		c0.322-0.287,0.78-0.523,1.08-0.406c0.126,0.049,0.216,0.159,0.284,0.348c0.21,0.583-0.464,1.886-0.99,2.341
		c-0.172,0.149-0.23,0.461-0.133,0.71c0.097,0.249,0.315,0.346,0.496,0.22c0.443-0.308,0.815-0.275,1.074,0.095
		c0.174,0.249,0.269,0.617,0.274,0.982c-0.044,0.12-0.055,0.253-0.032,0.375c-0.016,0.09-0.036,0.179-0.065,0.26
		c-0.203,0.566-0.685,0.8-1.356,0.661c-0.149-0.031-0.297,0.067-0.376,0.249c-0.078,0.183-0.073,0.413,0.015,0.587
		c0.411,0.81,1.275,2.894,0.422,4.728c-0.161,0.346-0.407,0.748-0.66,0.694C479.715,321.53,479.331,320.789,479.142,319.873z
		 M486.329,318.829l-0.203,0.078c-0.145,0.056-0.252,0.228-0.272,0.44c-0.021,0.21,0.051,0.418,0.181,0.528
		c0.434,0.368,0.505,0.911,0.488,1.301c-0.032,0.71-0.374,1.424-0.815,1.699c-0.372,0.232-0.769,0.127-1.149-0.303
		c-0.091-0.104-0.211-0.141-0.325-0.102c-0.114,0.039-0.208,0.151-0.255,0.302c-0.276,0.883-0.923,1.471-1.729,1.571
		c-0.632,0.079-1.21-0.188-1.436-0.663c-0.164-0.344-0.145-0.799,0.057-1.355c0.016-0.043,0.02-0.089,0.027-0.134
		c0.142-0.173,0.285-0.398,0.427-0.703c0.327-0.704,0.49-1.491,0.49-2.323c0-0.891-0.191-1.832-0.559-2.774
		c0.871-0.136,1.273-0.857,1.407-1.232c0.086-0.241,0.14-0.502,0.164-0.768c0.167-0.279,0.366-0.33,0.511-0.27
		c0.169,0.069,0.345,0.316,0.335,0.802c-0.006,0.264,0.127,0.495,0.311,0.54c0.185,0.046,0.365-0.107,0.423-0.359
		c0.178-0.766,0.961-2.195,1.639-2.521c0.278-0.134,0.434-0.031,0.527,0.059c0.172,0.165,0.263,0.357,0.289,0.603
		c0.098,0.947-0.767,2.448-1.136,3.088l-0.046,0.08c-0.113,0.196-0.112,0.478,0.001,0.672c0.114,0.196,0.309,0.251,0.467,0.133
		c0.181-0.135,0.436-0.115,0.668,0.05c0.212,0.152,0.355,0.391,0.381,0.639C487.245,318.379,487.091,318.544,486.329,318.829z
		 M485.972,316.216c-0.057,0.028-0.124,0.02-0.177,0.06C485.851,316.234,485.912,316.216,485.972,316.216z"/>
</g>
</svg>
