<?xml version="1.0" encoding="utf-8"?>
<!-- Generator: Adobe Illustrator 17.1.0, SVG Export Plug-In . SVG Version: 6.00 Build 0)  -->
<!DOCTYPE svg PUBLIC "-//W3C//DTD SVG 1.1//EN" "http://www.w3.org/Graphics/SVG/1.1/DTD/svg11.dtd">
<svg version="1.1" id="Ebene_1" xmlns="http://www.w3.org/2000/svg" xmlns:xlink="http://www.w3.org/1999/xlink" x="0px" y="0px"
	 width="100px" height="100px" viewBox="0 0 100 100" enable-background="new 0 0 100 100" xml:space="preserve">
<circle fill="#B2B2B2" cx="50" cy="50" r="50"/>
<path fill="#FFFFFF" d="M24.8,33.4c2.8,0,2.8,3.7,0,3.7S22,33.4,24.8,33.4z"/>
<path fill="#9FA0A0" d="M16.6,27c-1.1,1.6-2,3.5-1.2,5.3c0.9,2.3,3.1,3.4,4.5,5.2c1.2-1,2.4-2,3.6-3C21.2,32.1,18.9,29.5,16.6,27z"
	/>
<path fill="#9FA0A0" d="M31.3,32.5c-1.8,0.7-3.5,1.4-5.3,2.1c0.7,0.6,1.4,1.3,2,1.9c0.5,0.5,1.1,1.3,1.9,1.3c0.4,0,1.3-0.1,1.3-0.7
	c0-0.6,0-1.1,0-1.7C31.3,34.5,31.3,33.5,31.3,32.5z"/>
<path fill="#B3B3B4" d="M34.6,18.6c1.3,0.9,1.7,2.7,1.8,4.2c0.1,0.9,0.1,1.8-0.2,2.7c-0.3,1-0.7,2.1-0.5,3.2c0.2,0.9,0.6,1.4,1,2.2
	c0.4,0.7,1.2,1.7,1.2,2.6c0.1,1.3-0.8,1.5-1.7,2c-0.7,0.4-1.4,1.5-0.5,2.2c-2.1,0.2-1.9-2.5-1.4-3.8c0.2-0.5,0.4-0.9,0.7-1.3
	c0.1-0.1,0.3-0.3,0.4-0.4c0.1-0.5-0.3-1.4-0.4-1.8c-0.2-1.1-0.4-2.3-0.4-3.5c0-1,0.2-1.9,0.2-2.9C34.8,22,34.7,20.3,34.6,18.6z"/>
<path fill="#B9BABA" d="M13.4,30.2c-0.1,0.9-1,1.5-1.4,2.3c-0.5,1.2-0.1,2.5,1.2,3c0.9,0.3,2.1,0.3,2.9,0.9c1.1,0.7,1.6,2.1,0.5,3.1
	c1.6-0.6,4.4-2.3,2.4-4.2c-1.1-1.1-2.7-1.5-3.8-2.6C14.5,31.9,13.9,31.1,13.4,30.2z"/>
<path d="M28.8,52.7c1,1.2-2.7,3.6-2.1,1.2C27.6,54.6,28.5,53.3,28.8,52.7z"/>
<path fill="#FFFFFF" stroke="#000000" stroke-width="0.5" stroke-miterlimit="10" d="M28.8,52.7c-0.3,0.5-1.1,1.7-1.9,1.3
	c-0.5-0.2,0.4-1,0.2-1.5c-0.6-1.4-1.2-2.8-1.8-4.2c0.3,0,2.2-0.2,2.2,0c0.1,0.4,0.3,0.9,0.4,1.3c0.2,0.6,0.3,1.1,0.5,1.7
	C28.5,51.8,28.6,52.4,28.8,52.7z"/>
<path d="M24.6,53c0.2,0.7-0.8,1.4-1.3,1.7c-0.9,0.4-1.6,0.1-0.9-0.9C22.8,54.6,24.3,53.3,24.6,53z"/>
<path fill="#FFFFFF" stroke="#000000" stroke-width="0.5" stroke-miterlimit="10" d="M24.6,53c-0.4,0.3-1.6,1.5-2.2,0.9
	c-0.2-0.2,0.5-0.7,0.4-1.1c-0.3-1.5-0.6-3-0.9-4.6c0.2,0,2.2,0,2.2,0.1c0,0.4,0.1,0.8,0.1,1.2C24.3,50.7,24.3,51.9,24.6,53z"/>
<path fill="#D3D3D4" d="M28.2,42.1c-0.3-1.7,0.4-3.4,0.2-5.1c-0.2-1.3-0.7-1.7-1.7-2.2c-0.4,2.1-3.3,2.1-3.7,0
	c-1.2,0.6-1.7,1.1-1.8,2.5c-0.1,1.7,0.6,3.4,0.2,5.1c-0.6,2.6-1.4,5.2-2.1,7.8c0.9-0.2,1.6,0.4,2.5,0.5c1,0.2,2-0.5,3-0.6
	c1,0.1,2,0.8,3,0.6c0.9-0.2,1.6-0.7,2.5-0.5C29.6,47.5,28.7,44.8,28.2,42.1C27.9,40.9,28.4,43.3,28.2,42.1z"/>
<g>
	<g>
		<g>
			<defs>
				<path id="SVGID_1_" d="M28.2,42.1c-0.3-1.7,0.4-3.4,0.2-5.1c-0.2-1.3-0.7-1.7-1.7-2.2c-0.4,2.1-3.3,2.1-3.7,0
					c-1.2,0.6-1.7,1.1-1.8,2.5c-0.1,1.7,0.6,3.4,0.2,5.1c-0.6,2.6-1.4,5.2-2.1,7.8c0.9-0.2,1.6,0.4,2.5,0.5c1,0.2,2-0.5,3-0.6
					c1,0.1,2,0.8,3,0.6c0.9-0.2,1.6-0.7,2.5-0.5C29.6,47.5,28.7,44.8,28.2,42.1C27.9,40.9,28.4,43.3,28.2,42.1z"/>
			</defs>
			<clipPath id="SVGID_2_">
				<use xlink:href="#SVGID_1_"  overflow="visible"/>
			</clipPath>
			<g clip-path="url(#SVGID_2_)">
				<g>
					<path fill="#FFFFFF" d="M28.8,36.8c0.3,0,0.3,0.4,0,0.4C28.6,37.2,28.6,36.8,28.8,36.8z"/>
					<path fill="#FFFFFF" d="M29.5,37.5c0.3,0,0.3,0.4,0,0.4C29.2,37.9,29.2,37.5,29.5,37.5z"/>
					<path fill="#FFFFFF" d="M28.8,38.2c0.3,0,0.3,0.4,0,0.4C28.6,38.6,28.6,38.2,28.8,38.2z"/>
					<path fill="#FFFFFF" d="M29.5,38.9c0.3,0,0.3,0.4,0,0.4C29.2,39.3,29.2,38.9,29.5,38.9z"/>
					<path fill="#FFFFFF" d="M28.8,39.6c0.3,0,0.3,0.4,0,0.4C28.6,40,28.6,39.6,28.8,39.6z"/>
					<path fill="#FFFFFF" d="M29.5,40.2c0.3,0,0.3,0.4,0,0.4C29.2,40.7,29.2,40.2,29.5,40.2z"/>
					<path fill="#FFFFFF" d="M28.8,40.9c0.3,0,0.3,0.4,0,0.4C28.6,41.4,28.6,40.9,28.8,40.9z"/>
					<path fill="#FFFFFF" d="M29.5,41.6c0.3,0,0.3,0.4,0,0.4C29.2,42,29.2,41.6,29.5,41.6z"/>
					<path fill="#FFFFFF" d="M28.8,42.3c0.3,0,0.3,0.4,0,0.4C28.6,42.7,28.6,42.3,28.8,42.3z"/>
					<path fill="#FFFFFF" d="M29.5,43c0.3,0,0.3,0.4,0,0.4C29.2,43.4,29.2,43,29.5,43z"/>
					<path fill="#FFFFFF" d="M28.8,43.7c0.3,0,0.3,0.4,0,0.4C28.6,44.1,28.6,43.7,28.8,43.7z"/>
					<path fill="#FFFFFF" d="M29.5,44.4c0.3,0,0.3,0.4,0,0.4C29.2,44.8,29.2,44.4,29.5,44.4z"/>
					<path fill="#FFFFFF" d="M28.8,45.1c0.3,0,0.3,0.4,0,0.4C28.6,45.5,28.6,45.1,28.8,45.1z"/>
					<path fill="#FFFFFF" d="M29.5,45.8c0.3,0,0.3,0.4,0,0.4C29.2,46.2,29.2,45.8,29.5,45.8z"/>
					<path fill="#FFFFFF" d="M28.8,46.5c0.3,0,0.3,0.4,0,0.4C28.6,46.9,28.6,46.5,28.8,46.5z"/>
					<path fill="#FFFFFF" d="M29.5,47.2c0.3,0,0.3,0.4,0,0.4C29.2,47.6,29.2,47.2,29.5,47.2z"/>
					<path fill="#FFFFFF" d="M28.8,47.9c0.3,0,0.3,0.4,0,0.4C28.6,48.3,28.6,47.9,28.8,47.9z"/>
					<path fill="#FFFFFF" d="M29.5,48.6c0.3,0,0.3,0.4,0,0.4C29.2,49,29.2,48.6,29.5,48.6z"/>
					<path fill="#FFFFFF" d="M28.8,49.3c0.3,0,0.3,0.4,0,0.4C28.6,49.7,28.6,49.3,28.8,49.3z"/>
					<path fill="#FFFFFF" d="M29.5,50c0.3,0,0.3,0.4,0,0.4C29.2,50.4,29.2,50,29.5,50z"/>
				</g>
				<g>
					<path fill="#FFFFFF" d="M27.4,36.8c0.3,0,0.3,0.4,0,0.4C27.2,37.2,27.2,36.8,27.4,36.8z"/>
					<path fill="#FFFFFF" d="M28.1,37.5c0.3,0,0.3,0.4,0,0.4C27.8,37.9,27.8,37.5,28.1,37.5z"/>
					<path fill="#FFFFFF" d="M27.4,38.2c0.3,0,0.3,0.4,0,0.4C27.2,38.6,27.2,38.2,27.4,38.2z"/>
					<path fill="#FFFFFF" d="M28.1,38.9c0.3,0,0.3,0.4,0,0.4C27.8,39.3,27.8,38.9,28.1,38.9z"/>
					<path fill="#FFFFFF" d="M27.4,39.6c0.3,0,0.3,0.4,0,0.4C27.2,40,27.2,39.6,27.4,39.6z"/>
					<path fill="#FFFFFF" d="M28.1,40.2c0.3,0,0.3,0.4,0,0.4C27.8,40.7,27.8,40.2,28.1,40.2z"/>
					<path fill="#FFFFFF" d="M27.4,40.9c0.3,0,0.3,0.4,0,0.4C27.2,41.4,27.2,40.9,27.4,40.9z"/>
					<path fill="#FFFFFF" d="M28.1,41.6c0.3,0,0.3,0.4,0,0.4C27.8,42,27.8,41.6,28.1,41.6z"/>
					<path fill="#FFFFFF" d="M27.4,42.3c0.3,0,0.3,0.4,0,0.4C27.2,42.7,27.2,42.3,27.4,42.3z"/>
					<path fill="#FFFFFF" d="M28.1,43c0.3,0,0.3,0.4,0,0.4C27.8,43.4,27.8,43,28.1,43z"/>
					<path fill="#FFFFFF" d="M27.4,43.7c0.3,0,0.3,0.4,0,0.4C27.2,44.1,27.2,43.7,27.4,43.7z"/>
					<path fill="#FFFFFF" d="M28.1,44.4c0.3,0,0.3,0.4,0,0.4C27.8,44.8,27.8,44.4,28.1,44.4z"/>
					<path fill="#FFFFFF" d="M27.4,45.1c0.3,0,0.3,0.4,0,0.4C27.2,45.5,27.2,45.1,27.4,45.1z"/>
					<path fill="#FFFFFF" d="M28.1,45.8c0.3,0,0.3,0.4,0,0.4C27.8,46.2,27.8,45.8,28.1,45.8z"/>
					<path fill="#FFFFFF" d="M27.4,46.5c0.3,0,0.3,0.4,0,0.4C27.2,46.9,27.2,46.5,27.4,46.5z"/>
					<path fill="#FFFFFF" d="M28.1,47.2c0.3,0,0.3,0.4,0,0.4C27.8,47.6,27.8,47.2,28.1,47.2z"/>
					<path fill="#FFFFFF" d="M27.4,47.9c0.3,0,0.3,0.4,0,0.4C27.2,48.3,27.2,47.9,27.4,47.9z"/>
					<path fill="#FFFFFF" d="M28.1,48.6c0.3,0,0.3,0.4,0,0.4C27.8,49,27.8,48.6,28.1,48.6z"/>
					<path fill="#FFFFFF" d="M27.4,49.3c0.3,0,0.3,0.4,0,0.4C27.2,49.7,27.2,49.3,27.4,49.3z"/>
					<path fill="#FFFFFF" d="M28.1,50c0.3,0,0.3,0.4,0,0.4C27.8,50.4,27.8,50,28.1,50z"/>
				</g>
				<g>
					<path fill="#FFFFFF" d="M26,36.8c0.3,0,0.3,0.4,0,0.4C25.8,37.2,25.8,36.8,26,36.8z"/>
					<path fill="#FFFFFF" d="M26.7,37.5c0.3,0,0.3,0.4,0,0.4C26.4,37.9,26.4,37.5,26.7,37.5z"/>
					<path fill="#FFFFFF" d="M26,38.2c0.3,0,0.3,0.4,0,0.4C25.8,38.6,25.8,38.2,26,38.2z"/>
					<path fill="#FFFFFF" d="M26.7,38.9c0.3,0,0.3,0.4,0,0.4C26.4,39.3,26.4,38.9,26.7,38.9z"/>
					<path fill="#FFFFFF" d="M26,39.6c0.3,0,0.3,0.4,0,0.4C25.8,40,25.8,39.6,26,39.6z"/>
					<path fill="#FFFFFF" d="M26.7,40.2c0.3,0,0.3,0.4,0,0.4C26.4,40.7,26.4,40.2,26.7,40.2z"/>
					<path fill="#FFFFFF" d="M26,40.9c0.3,0,0.3,0.4,0,0.4C25.8,41.4,25.8,40.9,26,40.9z"/>
					<path fill="#FFFFFF" d="M26.7,41.6c0.3,0,0.3,0.4,0,0.4C26.4,42,26.4,41.6,26.7,41.6z"/>
					<path fill="#FFFFFF" d="M26,42.3c0.3,0,0.3,0.4,0,0.4C25.8,42.7,25.8,42.3,26,42.3z"/>
					<path fill="#FFFFFF" d="M26.7,43c0.3,0,0.3,0.4,0,0.4C26.4,43.4,26.4,43,26.7,43z"/>
					<path fill="#FFFFFF" d="M26,43.7c0.3,0,0.3,0.4,0,0.4C25.8,44.1,25.8,43.7,26,43.7z"/>
					<path fill="#FFFFFF" d="M26.7,44.4c0.3,0,0.3,0.4,0,0.4C26.4,44.8,26.4,44.4,26.7,44.4z"/>
					<path fill="#FFFFFF" d="M26,45.1c0.3,0,0.3,0.4,0,0.4C25.8,45.5,25.8,45.1,26,45.1z"/>
					<path fill="#FFFFFF" d="M26.7,45.8c0.3,0,0.3,0.4,0,0.4C26.4,46.2,26.4,45.8,26.7,45.8z"/>
					<path fill="#FFFFFF" d="M26,46.5c0.3,0,0.3,0.4,0,0.4C25.8,46.9,25.8,46.5,26,46.5z"/>
					<path fill="#FFFFFF" d="M26.7,47.2c0.3,0,0.3,0.4,0,0.4C26.4,47.6,26.4,47.2,26.7,47.2z"/>
					<path fill="#FFFFFF" d="M26,47.9c0.3,0,0.3,0.4,0,0.4C25.8,48.3,25.8,47.9,26,47.9z"/>
					<path fill="#FFFFFF" d="M26.7,48.6c0.3,0,0.3,0.4,0,0.4C26.4,49,26.4,48.6,26.7,48.6z"/>
					<path fill="#FFFFFF" d="M26,49.3c0.3,0,0.3,0.4,0,0.4C25.8,49.7,25.8,49.3,26,49.3z"/>
					<path fill="#FFFFFF" d="M26.7,50c0.3,0,0.3,0.4,0,0.4C26.4,50.4,26.4,50,26.7,50z"/>
				</g>
				<g>
					<path fill="#FFFFFF" d="M24.6,36.8c0.3,0,0.3,0.4,0,0.4C24.4,37.2,24.4,36.8,24.6,36.8z"/>
					<path fill="#FFFFFF" d="M25.3,37.5c0.3,0,0.3,0.4,0,0.4C25,37.9,25,37.5,25.3,37.5z"/>
					<path fill="#FFFFFF" d="M24.6,38.2c0.3,0,0.3,0.4,0,0.4C24.4,38.6,24.4,38.2,24.6,38.2z"/>
					<path fill="#FFFFFF" d="M25.3,38.9c0.3,0,0.3,0.4,0,0.4C25,39.3,25,38.9,25.3,38.9z"/>
					<path fill="#FFFFFF" d="M24.6,39.6c0.3,0,0.3,0.4,0,0.4C24.4,40,24.4,39.6,24.6,39.6z"/>
					<path fill="#FFFFFF" d="M25.3,40.2c0.3,0,0.3,0.4,0,0.4C25,40.7,25,40.2,25.3,40.2z"/>
					<path fill="#FFFFFF" d="M24.6,40.9c0.3,0,0.3,0.4,0,0.4C24.4,41.4,24.4,40.9,24.6,40.9z"/>
					<path fill="#FFFFFF" d="M25.3,41.6c0.3,0,0.3,0.4,0,0.4C25,42,25,41.6,25.3,41.6z"/>
					<path fill="#FFFFFF" d="M24.6,42.3c0.3,0,0.3,0.4,0,0.4C24.4,42.7,24.4,42.3,24.6,42.3z"/>
					<path fill="#FFFFFF" d="M25.3,43c0.3,0,0.3,0.4,0,0.4C25,43.4,25,43,25.3,43z"/>
					<path fill="#FFFFFF" d="M24.6,43.7c0.3,0,0.3,0.4,0,0.4C24.4,44.1,24.4,43.7,24.6,43.7z"/>
					<path fill="#FFFFFF" d="M25.3,44.4c0.3,0,0.3,0.4,0,0.4C25,44.8,25,44.4,25.3,44.4z"/>
					<path fill="#FFFFFF" d="M24.6,45.1c0.3,0,0.3,0.4,0,0.4C24.4,45.5,24.4,45.1,24.6,45.1z"/>
					<path fill="#FFFFFF" d="M25.3,45.8c0.3,0,0.3,0.4,0,0.4C25,46.2,25,45.8,25.3,45.8z"/>
					<path fill="#FFFFFF" d="M24.6,46.5c0.3,0,0.3,0.4,0,0.4C24.4,46.9,24.4,46.5,24.6,46.5z"/>
					<path fill="#FFFFFF" d="M25.3,47.2c0.3,0,0.3,0.4,0,0.4C25,47.6,25,47.2,25.3,47.2z"/>
					<path fill="#FFFFFF" d="M24.6,47.9c0.3,0,0.3,0.4,0,0.4C24.4,48.3,24.4,47.9,24.6,47.9z"/>
					<path fill="#FFFFFF" d="M25.3,48.6c0.3,0,0.3,0.4,0,0.4C25,49,25,48.6,25.3,48.6z"/>
					<path fill="#FFFFFF" d="M24.6,49.3c0.3,0,0.3,0.4,0,0.4C24.4,49.7,24.4,49.3,24.6,49.3z"/>
					<path fill="#FFFFFF" d="M25.3,50c0.3,0,0.3,0.4,0,0.4C25,50.4,25,50,25.3,50z"/>
				</g>
				<g>
					<path fill="#FFFFFF" d="M23.2,36.8c0.3,0,0.3,0.4,0,0.4C22.9,37.2,22.9,36.8,23.2,36.8z"/>
					<path fill="#FFFFFF" d="M23.9,37.5c0.3,0,0.3,0.4,0,0.4C23.6,37.9,23.6,37.5,23.9,37.5z"/>
					<path fill="#FFFFFF" d="M23.2,38.2c0.3,0,0.3,0.4,0,0.4C22.9,38.6,22.9,38.2,23.2,38.2z"/>
					<path fill="#FFFFFF" d="M23.9,38.9c0.3,0,0.3,0.4,0,0.4C23.6,39.3,23.6,38.9,23.9,38.9z"/>
					<path fill="#FFFFFF" d="M23.2,39.6c0.3,0,0.3,0.4,0,0.4C22.9,40,22.9,39.6,23.2,39.6z"/>
					<path fill="#FFFFFF" d="M23.9,40.2c0.3,0,0.3,0.4,0,0.4C23.6,40.7,23.6,40.2,23.9,40.2z"/>
					<path fill="#FFFFFF" d="M23.2,40.9c0.3,0,0.3,0.4,0,0.4C22.9,41.4,22.9,40.9,23.2,40.9z"/>
					<path fill="#FFFFFF" d="M23.9,41.6c0.3,0,0.3,0.4,0,0.4C23.6,42,23.6,41.6,23.9,41.6z"/>
					<path fill="#FFFFFF" d="M23.2,42.3c0.3,0,0.3,0.4,0,0.4C22.9,42.7,22.9,42.3,23.2,42.3z"/>
					<path fill="#FFFFFF" d="M23.9,43c0.3,0,0.3,0.4,0,0.4C23.6,43.4,23.6,43,23.9,43z"/>
					<path fill="#FFFFFF" d="M23.2,43.7c0.3,0,0.3,0.4,0,0.4C22.9,44.1,22.9,43.7,23.2,43.7z"/>
					<path fill="#FFFFFF" d="M23.9,44.4c0.3,0,0.3,0.4,0,0.4C23.6,44.8,23.6,44.4,23.9,44.4z"/>
					<path fill="#FFFFFF" d="M23.2,45.1c0.3,0,0.3,0.4,0,0.4C22.9,45.5,22.9,45.1,23.2,45.1z"/>
					<path fill="#FFFFFF" d="M23.9,45.8c0.3,0,0.3,0.4,0,0.4C23.6,46.2,23.6,45.8,23.9,45.8z"/>
					<path fill="#FFFFFF" d="M23.2,46.5c0.3,0,0.3,0.4,0,0.4C22.9,46.9,22.9,46.5,23.2,46.5z"/>
					<path fill="#FFFFFF" d="M23.9,47.2c0.3,0,0.3,0.4,0,0.4C23.6,47.6,23.6,47.2,23.9,47.2z"/>
					<path fill="#FFFFFF" d="M23.2,47.9c0.3,0,0.3,0.4,0,0.4C22.9,48.3,22.9,47.9,23.2,47.9z"/>
					<path fill="#FFFFFF" d="M23.9,48.6c0.3,0,0.3,0.4,0,0.4C23.6,49,23.6,48.6,23.9,48.6z"/>
					<path fill="#FFFFFF" d="M23.2,49.3c0.3,0,0.3,0.4,0,0.4C22.9,49.7,22.9,49.3,23.2,49.3z"/>
					<path fill="#FFFFFF" d="M23.9,50c0.3,0,0.3,0.4,0,0.4C23.6,50.4,23.6,50,23.9,50z"/>
				</g>
				<g>
					<path fill="#FFFFFF" d="M21.8,36.8c0.3,0,0.3,0.4,0,0.4C21.5,37.2,21.5,36.8,21.8,36.8z"/>
					<path fill="#FFFFFF" d="M22.5,37.5c0.3,0,0.3,0.4,0,0.4C22.2,37.9,22.2,37.5,22.5,37.5z"/>
					<path fill="#FFFFFF" d="M21.8,38.2c0.3,0,0.3,0.4,0,0.4C21.5,38.6,21.5,38.2,21.8,38.2z"/>
					<path fill="#FFFFFF" d="M22.5,38.9c0.3,0,0.3,0.4,0,0.4C22.2,39.3,22.2,38.9,22.5,38.9z"/>
					<path fill="#FFFFFF" d="M21.8,39.6c0.3,0,0.3,0.4,0,0.4C21.5,40,21.5,39.6,21.8,39.6z"/>
					<path fill="#FFFFFF" d="M22.5,40.2c0.3,0,0.3,0.4,0,0.4C22.2,40.7,22.2,40.2,22.5,40.2z"/>
					<path fill="#FFFFFF" d="M21.8,40.9c0.3,0,0.3,0.4,0,0.4C21.5,41.4,21.5,40.9,21.8,40.9z"/>
					<path fill="#FFFFFF" d="M22.5,41.6c0.3,0,0.3,0.4,0,0.4C22.2,42,22.2,41.6,22.5,41.6z"/>
					<path fill="#FFFFFF" d="M21.8,42.3c0.3,0,0.3,0.4,0,0.4C21.5,42.7,21.5,42.3,21.8,42.3z"/>
					<path fill="#FFFFFF" d="M22.5,43c0.3,0,0.3,0.4,0,0.4C22.2,43.4,22.2,43,22.5,43z"/>
					<path fill="#FFFFFF" d="M21.8,43.7c0.3,0,0.3,0.4,0,0.4C21.5,44.1,21.5,43.7,21.8,43.7z"/>
					<path fill="#FFFFFF" d="M22.5,44.4c0.3,0,0.3,0.4,0,0.4C22.2,44.8,22.2,44.4,22.5,44.4z"/>
					<path fill="#FFFFFF" d="M21.8,45.1c0.3,0,0.3,0.4,0,0.4C21.5,45.5,21.5,45.1,21.8,45.1z"/>
					<path fill="#FFFFFF" d="M22.5,45.8c0.3,0,0.3,0.4,0,0.4C22.2,46.2,22.2,45.8,22.5,45.8z"/>
					<path fill="#FFFFFF" d="M21.8,46.5c0.3,0,0.3,0.4,0,0.4C21.5,46.9,21.5,46.5,21.8,46.5z"/>
					<path fill="#FFFFFF" d="M22.5,47.2c0.3,0,0.3,0.4,0,0.4C22.2,47.6,22.2,47.2,22.5,47.2z"/>
					<path fill="#FFFFFF" d="M21.8,47.9c0.3,0,0.3,0.4,0,0.4C21.5,48.3,21.5,47.9,21.8,47.9z"/>
					<path fill="#FFFFFF" d="M22.5,48.6c0.3,0,0.3,0.4,0,0.4C22.2,49,22.2,48.6,22.5,48.6z"/>
					<path fill="#FFFFFF" d="M21.8,49.3c0.3,0,0.3,0.4,0,0.4C21.5,49.7,21.5,49.3,21.8,49.3z"/>
					<path fill="#FFFFFF" d="M22.5,50c0.3,0,0.3,0.4,0,0.4C22.2,50.4,22.2,50,22.5,50z"/>
				</g>
				<g>
					<path fill="#FFFFFF" d="M20.4,36.8c0.3,0,0.3,0.4,0,0.4C20.1,37.2,20.1,36.8,20.4,36.8z"/>
					<path fill="#FFFFFF" d="M21.1,37.5c0.3,0,0.3,0.4,0,0.4C20.8,37.9,20.8,37.5,21.1,37.5z"/>
					<path fill="#FFFFFF" d="M20.4,38.2c0.3,0,0.3,0.4,0,0.4C20.1,38.6,20.1,38.2,20.4,38.2z"/>
					<path fill="#FFFFFF" d="M21.1,38.9c0.3,0,0.3,0.4,0,0.4C20.8,39.3,20.8,38.9,21.1,38.9z"/>
					<path fill="#FFFFFF" d="M20.4,39.6c0.3,0,0.3,0.4,0,0.4C20.1,40,20.1,39.6,20.4,39.6z"/>
					<path fill="#FFFFFF" d="M21.1,40.2c0.3,0,0.3,0.4,0,0.4C20.8,40.7,20.8,40.2,21.1,40.2z"/>
					<path fill="#FFFFFF" d="M20.4,40.9c0.3,0,0.3,0.4,0,0.4C20.1,41.4,20.1,40.9,20.4,40.9z"/>
					<path fill="#FFFFFF" d="M21.1,41.6c0.3,0,0.3,0.4,0,0.4C20.8,42,20.8,41.6,21.1,41.6z"/>
					<path fill="#FFFFFF" d="M20.4,42.3c0.3,0,0.3,0.4,0,0.4C20.1,42.7,20.1,42.3,20.4,42.3z"/>
					<path fill="#FFFFFF" d="M21.1,43c0.3,0,0.3,0.4,0,0.4C20.8,43.4,20.8,43,21.1,43z"/>
					<path fill="#FFFFFF" d="M20.4,43.7c0.3,0,0.3,0.4,0,0.4C20.1,44.1,20.1,43.7,20.4,43.7z"/>
					<path fill="#FFFFFF" d="M21.1,44.4c0.3,0,0.3,0.4,0,0.4C20.8,44.8,20.8,44.4,21.1,44.4z"/>
					<path fill="#FFFFFF" d="M20.4,45.1c0.3,0,0.3,0.4,0,0.4C20.1,45.5,20.1,45.1,20.4,45.1z"/>
					<path fill="#FFFFFF" d="M21.1,45.8c0.3,0,0.3,0.4,0,0.4C20.8,46.2,20.8,45.8,21.1,45.8z"/>
					<path fill="#FFFFFF" d="M20.4,46.5c0.3,0,0.3,0.4,0,0.4C20.1,46.9,20.1,46.5,20.4,46.5z"/>
					<path fill="#FFFFFF" d="M21.1,47.2c0.3,0,0.3,0.4,0,0.4C20.8,47.6,20.8,47.2,21.1,47.2z"/>
					<path fill="#FFFFFF" d="M20.4,47.9c0.3,0,0.3,0.4,0,0.4C20.1,48.3,20.1,47.9,20.4,47.9z"/>
					<path fill="#FFFFFF" d="M21.1,48.6c0.3,0,0.3,0.4,0,0.4C20.8,49,20.8,48.6,21.1,48.6z"/>
					<path fill="#FFFFFF" d="M20.4,49.3c0.3,0,0.3,0.4,0,0.4C20.1,49.7,20.1,49.3,20.4,49.3z"/>
					<path fill="#FFFFFF" d="M21.1,50c0.3,0,0.3,0.4,0,0.4C20.8,50.4,20.8,50,21.1,50z"/>
				</g>
			</g>
		</g>
	</g>
</g>
<path fill="#FFFFFF" stroke="#000000" stroke-width="0.5" stroke-miterlimit="10" d="M18.9,42.5c-0.7,0.9-0.2,2.5,1,1.5
	c0.3-0.2,0.9-1.2,0.3-1.3C19.8,42.7,19.4,42.6,18.9,42.5z"/>
<path fill="#D1D1D2" d="M21.3,35.2c-1.4,0.4-1.6,3.1-1.9,4.3c-0.2,0.9-0.5,1.7-0.6,2.6c0,0.2-0.2,0.5,0,0.5c0.6,0.2,1.3,0.4,1.9,0.3
	c0.2-0.2,0.3-1.5,0.4-1.8c0.1-0.6,0.4-1.3,0.4-1.8C21.3,37.9,21.3,36.6,21.3,35.2z"/>
<path fill="#FFFFFF" d="M21.3,35.2c-0.8,1.6-1,3.4-0.1,5C21.5,38.6,21.3,36.9,21.3,35.2z"/>
<path fill="#D1D1D2" d="M24,36.6c-0.8-0.4-1.2-1-1.3-1.9c-0.4,0.1-1.3,0.3-1.5,0.6c-0.3,0.5-0.3,1.2-0.3,1.7
	c-0.1,1.5,0.7,2.8,0.5,4.2c0,0.2-0.3,1.1-0.1,1.1c0.7,0.2,1.5,0.3,2.3,0.2c0.6-0.1,0.4-0.7,0.4-1.2c0-0.6,0.1-1.1,0.1-1.7
	C24,38.7,24.1,37.6,24,36.6C23.1,36.2,24.1,38.8,24,36.6z"/>
<path fill="#FFFFFF" stroke="#000000" stroke-width="0.5" stroke-miterlimit="10" d="M30.7,42.5c0.7,0.9,0.2,2.5-1,1.5
	c-0.3-0.2-0.9-1.2-0.3-1.3C29.9,42.7,30.3,42.6,30.7,42.5z"/>
<path fill="#D1D1D2" d="M28.4,35.2c1.4,0.4,1.6,3.1,1.9,4.3c0.2,0.9,0.5,1.7,0.6,2.6c0,0.2,0.2,0.5,0,0.5C30.3,42.8,29.6,43,29,43
	c-0.2-0.2-0.3-1.5-0.4-1.8c-0.1-0.6-0.4-1.3-0.4-1.8C28.3,37.9,28.3,36.6,28.4,35.2z"/>
<path fill="#FFFFFF" d="M28.4,35.2c0.8,1.6,1,3.4,0.1,5C28.1,38.6,28.3,36.9,28.4,35.2z"/>
<path fill="#D1D1D2" d="M25.7,36.6c0.8-0.4,1.2-1,1.3-1.9c0.4,0.1,1.3,0.2,1.5,0.6c0.3,0.5,0.3,1.2,0.3,1.7c0.1,1.5-0.7,2.8-0.5,4.2
	c0,0.2,0.3,1.1,0.1,1.1c-0.7,0.2-1.5,0.3-2.3,0.2c-0.6-0.1-0.4-0.7-0.4-1.2c0-0.6-0.1-1.1-0.1-1.7C25.6,38.7,25.6,37.6,25.7,36.6
	C26.6,36.2,25.5,38.8,25.7,36.6z"/>
<g>
	<path fill="#FFFFFF" d="M25.8,36.9c0.1,0.6,0.8,1.4,1.1,0.4C27.1,36.6,25.7,36.4,25.8,36.9C25.9,37.2,25.8,36.8,25.8,36.9z"/>
	<path fill="#FFFFFF" d="M27.8,36.2c0.4,0.8,0.1,1.5-0.7,0.8C26.8,36.7,27.4,35.4,27.8,36.2C28,36.5,27.8,36,27.8,36.2z"/>
	<path fill="#5EC5F2" d="M26.6,36.7c0.5-0.3,0.5,0,0.7,0.5C26.8,37.5,26.8,37.1,26.6,36.7z"/>
</g>
<path fill="#C9CACA" d="M27.5,15.4c2.2-1,4.5,0.2,6.1,1.8c2.1,2.1,2.1,4.3,1.7,7.1c-0.2,1.2-0.4,2.5,0.1,3.7
	c0.5,1.3,1.6,2.3,1.8,3.7c0.2,1.5-0.7,2.4-1.8,3.2c-1.1,0.8-1.4,2.3-0.6,3.4C33.1,38,32,36.8,32.4,35c0.2-1,0.8-1.7,1.2-2.6
	c0.3-0.7,0.3-1.6,0.3-2.4c0.1-2.5-0.5-4.9-0.8-7.3c-0.1-1-0.6-1.8-1-2.7c-0.5-1.1-1-1.7-2-2.4c-0.8-0.5-1.8-0.8-2.7-0.5
	c-0.4,0.1-0.6-0.3-1-0.6c-1.9-1.2-4.1-0.5-5.9,0.6c-1.2,0.8-2.3,1.8-2.9,3.1c-0.7,1.4-0.7,2.9-0.8,4.5c-0.1,1.1-0.3,2.2-1,3
	c-0.6,0.6-1,1.1-1.4,1.9c0.2-1.3-0.3-2.7-0.4-4c-0.2-2.2,0.1-4.5,1.2-6.4c1.3-2.5,3.8-3.8,6.4-4.6C23.7,14,25.5,14.4,27.5,15.4z"/>
<path fill="#FFFFFF" stroke="#000000" stroke-width="0.25" stroke-miterlimit="10" d="M33.8,26.4c0,4.1-2.2,7.7-6.3,8.7
	c-4.2,0.9-8.9-0.5-10.6-4.6c-1.7-4.1-0.5-9,3.2-11.5c3.9-2.6,9.2-1.6,11.9,2.2C33.2,22.6,33.8,24.5,33.8,26.4z"/>
<path d="M20.2,27.4c1.4,0,1.4,2.1,0,2.1S18.8,27.4,20.2,27.4z"/>
<path d="M29.9,27.4c1.4,0,1.4,2.1,0,2.1S28.5,27.4,29.9,27.4z"/>
<path d="M19,25.7c-0.5,0,0.2-0.6,0.3-0.6c0.6-0.4,1.4-0.3,2,0.2c0.1,0.1,0.1,0.3-0.1,0.3c-0.2,0-0.6-0.4-0.9-0.4
	C19.7,25.1,19.4,25.7,19,25.7z"/>
<path d="M31.1,25.7c-0.3,0-0.6-0.5-1-0.5c-0.4,0-0.7,0.1-1,0.4c-0.2,0.1-0.3-0.1-0.2-0.2c0.5-0.4,1.2-0.6,1.8-0.3
	C30.7,25.1,31.6,25.7,31.1,25.7z"/>
<path d="M24.5,30.6c-0.2,0-0.9-0.5-0.7-0.7c0-0.1,0.5-0.9,0.7-0.9c0.5-0.1-0.3,0.9-0.3,0.9C24.1,29.9,25,30.6,24.5,30.6z"/>
<path fill="#595757" d="M24.8,32.2c-0.6,0-1.2-0.2-1.7-0.5c-0.2-0.2,0-0.5,0.3-0.4c0.2,0.1,0.4,0.2,0.6,0.3c0.3,0.1,0.7,0.2,1,0.1
	c0.4,0,1-0.5,1.4-0.5c0.5,0.1-0.1,0.5-0.2,0.6C25.8,32.1,25.3,32.2,24.8,32.2z"/>
<path d="M19.8,27.8c-0.4,0-0.7-1-0.3-0.9C19.6,27,20.2,27.8,19.8,27.8z"/>
<path d="M30.5,27.8c-0.3,0,0.1-0.7,0.2-0.7C31.1,26.9,31,27.8,30.5,27.8z"/>
<path fill="#DCDDDD" d="M19,30.7c1.1,0,1.1,0.9,0,0.9C17.9,31.6,17.9,30.7,19,30.7z"/>
<path fill="#DCDDDD" d="M30.9,30.7c1.1,0,1.1,0.9,0,0.9S29.8,30.7,30.9,30.7z"/>
<path fill="#B3B3B4" d="M27.3,16.7c-0.7-1.8-3.2-1.6-4.7-1.3c-2.8,0.6-5.8,2.5-6.4,5.5c-0.2,1.3,0.4,2.5,0.1,3.7
	c-0.3,1.3-1.6,2.3-2.4,3.4c-0.7,1-1.4,2.6-0.9,3.9c0.5,1.4,2.1,2.2,3.4,2.5c-0.9-1.2-1.7-2.8-1.6-4.3c0.2-2,1.7-3.1,2.3-4.9
	c0.8-2.3,0.6-5,2.4-6.8c0.6-0.6,1.5-0.9,2.3-1.2c0.8-0.3,1.9-0.7,2.8-0.5c0.8,0.2,1.5,1,2.1,1.6c0,0,1.1-0.4,1.2-0.5
	c2.4-0.7,3.4,1.3,3.9,3.3c0.2,0.9,0.1,1.8,0,2.7c-0.2,1.1,0.2,1.8,0.6,2.8c0.4,1,0.7,2.1,0.8,3.1c0.1,1.1-0.9,1.7-1.5,2.3
	c-1,0.9-1.6,1.9-1.2,3.3c0.2,0.8,1.1,1.4,1.1,2.3c0.7,0,1.1-0.6,1.1-1.3c0-1-0.2-2,0.8-2.6c1.1-0.6,2.3-0.9,2.7-2.3
	c0.3-1.4-0.6-2.7-1.2-3.9c-0.7-1.5-0.6-2.7-0.4-4.3c0.2-1.6,0.2-3.1-0.4-4.6C33,16.4,29.6,14.9,27.3,16.7z"/>
<path fill="#B5B5B6" d="M19.8,20c1.1-0.8,2.6-1,4-1c1.1,0,2.1,0.4,3.2,0.3c1.3-0.1,2.7,0.2,3.8,0.9c0-2.1-3-1.7-4.1-2.4
	C24.5,16.7,20.6,17.5,19.8,20z"/>
<path fill="#C9CACA" d="M31.1,38.9c0.1-1.2-0.3-1.7-1-2.5c-1-1.1-0.3-2.4,0.5-3.4c0.8-1,2-2,2.2-3.4c0.1-1.1-0.5-2.1-1-3
	c-0.6-1-0.5-2-0.5-3.1c0.1-1.2-0.2-2.3-0.8-3.4c-0.9-1.7-2.6-1.8-4.1-0.7c-0.7-1.9-3.1-1.6-4.5-0.9c-1.2,0.6-2.2,1.7-2.9,2.9
	c-0.7,1.2-0.6,2.4-0.9,3.6c-0.3,1.3-1.1,2.1-1.7,3.1c-0.8,1.5-1,3.4-0.1,4.9c0.6,1,1.6,1.4,1.5,2.7c0,0.8-0.5,1.5-1.3,1.7
	c1.5-1.5-0.6-3.2-1.5-4.3c-0.6-0.8-1.2-1.8-1-2.8c0.2-1.4,1.4-2.4,2.2-3.4c0.5-0.6,0.9-1.3,1.1-2.1c0.1-1-0.1-2,0-3
	c0.2-2.4,2.1-4.2,4.2-5.1c0.9-0.4,2-0.7,3.1-0.6c0.5,0,0.9,0.2,1.3,0.4c0.1,0.1,1.1,0.9,1.1,1c1-0.4,2.2-0.4,3.2,0
	c1.9,0.8,2.4,3.6,2.2,5.4c-0.1,0.6-0.3,1.3-0.3,1.9c-0.1,1.1,0.6,1.7,1.2,2.5c0.8,1.1,1.1,2.4,0.4,3.6c-0.8,1.4-2.7,2-3.1,3.6
	c-0.2,0.9,0.3,1.4,0.8,2.1C32,37.6,31.9,38.2,31.1,38.9z"/>
<path fill="#9FA0A0" d="M28.8,18.4c-0.3,0-1.3,0.6-1.3,0.9c0.5,0,0.7-0.4,1.2-0.6C28.8,18.7,29.2,18.4,28.8,18.4
	C28.4,18.5,28.9,18.4,28.8,18.4z"/>
<path fill="#9FA0A0" d="M29.8,18.8c-0.1-0.3-1.1,0.4-1.2,0.7c0.4,0,0.3,0.1,0.6-0.2C29.3,19.2,29.9,19,29.8,18.8
	C29.7,18.7,29.8,18.9,29.8,18.8z"/>
<path fill="#9FA0A0" d="M30.3,19.3c-0.1-0.2-0.8,0.2-0.8,0.4C29.7,19.8,30.5,19.6,30.3,19.3z"/>
<path fill="#9FA0A0" d="M25.5,19.2c0.1-0.3-0.8-1.3-1.1-1.5c-0.4-0.2,0,0.4,0.1,0.5C24.8,18.6,24.9,19,25.5,19.2
	C25.5,19.2,25.3,19.1,25.5,19.2z"/>
<path fill="#9FA0A0" d="M24.2,19c0.1-0.2-0.8-1.3-1-1.3c-0.4,0,0.2,0.6,0.2,0.6C23.7,18.7,23.8,19,24.2,19C24.3,19,24.1,19,24.2,19z
	"/>
<path fill="#9FA0A0" d="M23.1,19.1c0-0.2-0.6-0.9-0.8-0.9c-0.4,0,0,0.4,0,0.4C22.6,18.9,22.7,19.1,23.1,19.1
	C23.1,19,23,19.1,23.1,19.1z"/>
<path fill="#FFFFFF" stroke="#000000" stroke-width="0.25" stroke-miterlimit="10" d="M81.3,42.4c0,0.5,0,1-0.3,1.4
	c-0.2,0.3-0.9,0.7-1.1,0.2c-0.1-0.3-0.3-1.7,0.1-1.7C80.5,42.4,80.9,42.4,81.3,42.4z"/>
<path fill="#BFC0C0" d="M79.7,34.5c1.7,0.3,1.9,3.4,2.1,4.7c0.1,0.6,0.2,1.3,0.2,1.9c0,0.5,0.3,1.2-0.3,1.4c-0.2,0-1.8,0.2-1.8,0
	c0-0.2,0-0.4,0-0.6C79.9,39.4,79.8,37,79.7,34.5z"/>
<path fill="#B5B5B6" d="M79.9,39.8c0.6-0.8,1-1.8,0.8-2.9c-0.1-0.6-0.4-2.2-1-2.5C79.8,36.3,79.9,38,79.9,39.8z"/>
<path fill="#BFC0C0" d="M72.3,36.8c-1.5-0.5-3.1-1.1-4.4-2c-0.8-0.5-0.8-0.9-0.6-1.8c0.1-0.9,0.3-1.8,0.5-2.7
	c0.3,0.1,2.3,0.6,2.2,0.8c-0.1,0.5-0.6,2.1-0.1,2.2c0.3,0.1,2.5,0.5,2.5,0.7C72.5,35,72.4,35.9,72.3,36.8z"/>
<path fill="#B5B5B6" d="M71.8,36.6c0.2,0.1,0.4,0.1,0.6,0.2c0.1-0.9,0.1-1.8,0.2-2.7C72.1,34.9,72,35.8,71.8,36.6
	C72.1,36.8,71.9,35.8,71.8,36.6z"/>
<g>
	<path fill="#F7D3BD" d="M74.2,48.3c0.2,1.2,0.4,2.4,0.7,3.6c0.1,0.4-0.3,0.9-0.3,1.3c-0.2,1.3,1.1,0.4,1.5-0.1
		c0.7-0.9,0.2-2.7,0.2-3.8c0-0.3,0.1-1-0.2-1C75.4,48.4,74.8,48.3,74.2,48.3z"/>
	<path d="M74.7,52.6c-0.9,2.3,1.8,1.1,1.6-0.3C76,52.5,75.1,52.9,74.7,52.6C74.5,53,75,52.8,74.7,52.6z"/>
</g>
<g>
	<path fill="#FFFFFF" stroke="#000000" stroke-width="0.25" stroke-miterlimit="10" d="M78.6,48.3c-0.2,1.2-0.4,2.4-0.7,3.6
		c-0.1,0.4,0.3,0.9,0.3,1.3c0.2,1.3-1.1,0.4-1.5-0.1c-0.7-0.9-0.2-2.7-0.2-3.8c0-0.3-0.1-1,0.2-1C77.4,48.4,78,48.3,78.6,48.3z"/>
	<path d="M78.1,52.6c0.9,2.3-1.8,1.1-1.6-0.3C76.8,52.5,77.6,52.9,78.1,52.6C78.2,53,77.7,52.8,78.1,52.6z"/>
</g>
<path fill="#BFC0C0" d="M72.4,42.9c-0.1,1.2-0.2,2.4-0.2,3.7c0,0.3,0,1.9,0.3,1.9c0.4,0,0.8,0,1.2,0c1.5,0,2.9,0.1,4.4,0.1
	c0.6,0,1.2,0,1.8-0.1c0.4,0,0.3-0.4,0.3-0.7c0.1-1.5,0.1-3-0.2-4.4c-0.1-0.6-0.2-0.6-0.7-0.7c-0.6-0.1-1.2-0.2-1.8-0.4
	c-0.9-0.2-1.3-0.2-2.1,0C74.3,42.4,73.4,42.6,72.4,42.9z"/>
<path fill="#B5B5B6" d="M79.8,42.7c-1-0.2-2.1-0.4-3.1-0.6c-0.9-0.2-2,0.3-2.9,0.5c-0.4,0.1-0.9,0.2-1.3,0.3
	c-0.5,0.1,0.4,0.6,0.5,0.6c0.6,0.2,1.2,0.2,1.8,0.1c0.5-0.1,1-0.2,1.3-0.5c0.3-0.2,0.8,0.3,1.1,0.4c0.5,0.2,1.1,0.2,1.7,0.2
	c0.3,0,0.6-0.1,0.8-0.1C80.1,43.3,79.9,43,79.8,42.7z"/>
<path fill="#BFC0C0" d="M79.7,34.5c-1.6-0.5-3.3-0.4-4.9-0.5c-0.5,0-1-0.1-1.5-0.1c-0.1,0-0.6-0.2-0.7-0.1c-0.3,0.2-0.4,1.4-0.4,1.7
	c-0.2,0.8-0.4,1.6-0.3,2.4c0.1,0.6,0.3,1.2,0.6,1.7c0.1,0.2,0.5,0.6,0.5,0.8c-0.1,0.4-1,2.6-0.7,2.7c0.6,0.2,1.2,0.3,1.9,0.3
	c0.5,0,1-0.1,1.4-0.4c0.2-0.1,0.5-0.3,0.6-0.5c0.2,0.2,0.4,0.4,0.7,0.5c0.4,0.2,3.3,0.7,3.1-0.2c-0.1-0.6-0.3-1.2-0.4-1.8
	c-0.2-0.8,0.1-0.9,0.5-1.7C80.9,37.7,80.4,36,79.7,34.5z"/>
<path fill="#B5B5B6" d="M78.2,34.1c0.4,0.1,0.7,0.1,1.1,0.2c0,0,0.4,0,0.4,0.1c0,0.1,0.1,0.3,0,0.2c-0.4,0-0.8-0.1-1.3-0.1
	C78.1,34.5,77.7,34.3,78.2,34.1z"/>
<path fill="#B5B5B6" d="M74,34.2c-0.4-0.1-0.7-0.1-1.1-0.2c0,0-0.3-0.1-0.4-0.1c-0.1,0-0.2,0.2-0.1,0.2c0.4,0.1,0.8,0.2,1.2,0.4
	C73.9,34.6,74.4,34.6,74,34.2z"/>
<path fill="#FFFFFF" d="M74.5,33.9c0.2,1.3,0.4,3.1,1.4,4.1c0.8,0.8,1.7-3.7,1.7-4C76.6,34,75.5,33.9,74.5,33.9z"/>
<path fill="#807F80" d="M76.8,36.8c-0.1-0.4-0.3-0.8-0.4-1.2c-0.1-0.3,0.3-0.7,0.3-0.7c-0.3-0.2-0.5-0.5-0.9-0.4
	c-0.6,0.2-0.3,0.5-0.1,0.8c0.1,0.2-0.2,0.9-0.3,1.1c-0.1,0.4-0.1,0.6,0.1,1C76.1,38.8,76.5,37.7,76.8,36.8z"/>
<path fill="#B5B5B6" d="M74.6,34.1c0.2,1.4,0.6,2.9,1.4,4.1c-0.5-0.1-1.1-0.3-1.5-0.7c-0.7-0.6-0.5-0.8-0.1-1.4
	c-0.1-0.1-0.9-0.5-0.9-0.6c0.1-0.3,0.2-0.6,0.3-0.9C74.1,34,74.2,34.1,74.6,34.1z"/>
<path fill="#B5B5B6" d="M77.5,34.1c-0.2,1.4-0.6,2.9-1.4,4.1c0.5-0.1,1.1-0.3,1.5-0.7c0.7-0.6,0.5-0.8,0.1-1.4
	c0.1-0.1,0.9-0.5,0.9-0.6c-0.1-0.3-0.2-0.6-0.3-0.9C78,34,78,34.1,77.5,34.1z"/>
<path fill="#FFFFFF" d="M76.1,38.4c0.4,0,0.4,0.6,0,0.6C75.7,39,75.7,38.4,76.1,38.4z"/>
<path fill="#FFFFFF" d="M76.1,39.8c0.4,0,0.4,0.6,0,0.6C75.7,40.4,75.7,39.8,76.1,39.8z"/>
<path fill="#FFFFFF" d="M76.1,41.3c0.4,0,0.4,0.6,0,0.6C75.7,41.8,75.7,41.3,76.1,41.3z"/>
<path fill="#B5B5B6" d="M74,42.7c-0.6-0.1-1.1-0.2-1.7-0.3c0.1-0.3,0.2-1.5,0.5-1.6c0.2-0.2,1.3,0.2,1.6,0.2
	C74.3,41.6,74.2,42.1,74,42.7z"/>
<path fill="#B5B5B6" d="M78.2,42.6c0.6-0.1,1.1-0.2,1.7-0.3c-0.1-0.3-0.2-1.4-0.4-1.5c-0.2-0.2-1.3,0.2-1.6,0.2
	C78,41.6,78.1,42.1,78.2,42.6z"/>
<path fill="#B5B5B6" d="M79.9,38.6c0-0.2,0.1-1.2,0-1.3c-0.2-0.2-1.3,0-1.6,0c-0.2,0-0.1,1-0.1,1.2C78.2,39.2,79.6,38.8,79.9,38.6z"
	/>
<path fill="#B5B5B6" d="M74,38.6c0-0.2,0.1-1.2,0-1.3c-0.2-0.2-1.3,0-1.6,0c-0.2,0-0.1,1-0.1,1.2C72.3,39.2,73.7,38.8,74,38.6z"/>
<path fill="#FFFFFF" stroke="#000000" stroke-width="0.25" stroke-miterlimit="10" d="M84.6,25.6c0,4.1-2.2,7.7-6.3,8.7
	c-4.2,0.9-8.9-0.5-10.6-4.6c-1.7-4.1-0.5-9,3.2-11.5c3.9-2.6,9.2-1.6,11.9,2.2C84,21.8,84.6,23.7,84.6,25.6z"/>
<path d="M71,26.6c1.4,0,1.4,2.1,0,2.1C69.6,28.7,69.6,26.6,71,26.6z"/>
<path d="M80.7,26.6c1.4,0,1.4,2.1,0,2.1S79.3,26.6,80.7,26.6z"/>
<path d="M69.8,24.9c-0.5,0,0.2-0.6,0.3-0.6c0.6-0.4,1.4-0.3,2,0.2c0.1,0.1,0.1,0.3-0.1,0.3c-0.2,0-0.6-0.4-0.9-0.4
	C70.5,24.3,70.2,24.9,69.8,24.9z"/>
<path d="M81.9,24.9c-0.3,0-0.6-0.5-1-0.5c-0.4,0-0.7,0.1-1,0.4c-0.2,0.1-0.3-0.1-0.2-0.2c0.5-0.4,1.2-0.6,1.8-0.3
	C81.5,24.3,82.4,24.9,81.9,24.9z"/>
<path d="M75.3,29.8c-0.2,0-0.9-0.5-0.7-0.7c0-0.1,0.5-0.9,0.7-0.9c0.5-0.1-0.3,0.9-0.3,0.9C74.9,29.1,75.8,29.8,75.3,29.8z"/>
<path fill="#727171" d="M75.5,31.4c-0.6,0-1.2-0.2-1.6-0.5c-0.3-0.2,0.1-0.5,0.3-0.3c0.2,0.1,0.3,0.2,0.5,0.3
	c0.8,0.3,1.6,0.1,2.2-0.4c0.4-0.3,0.3,0.3-0.1,0.6C76.5,31.3,76,31.4,75.5,31.4z"/>
<path d="M70.6,27c-0.4,0-0.7-1-0.3-0.9C70.4,26.2,70.9,27,70.6,27z"/>
<path d="M81.3,27c-0.3,0,0.1-0.7,0.2-0.7C81.8,26.1,81.8,27,81.3,27z"/>
<path fill="#ACADAE" d="M70.6,29.9c1.1,0,1.1,0.9,0,0.9S69.5,29.9,70.6,29.9z"/>
<path fill="#ACADAE" d="M81.2,29.9c1.1,0,1.1,0.9,0,0.9S80.1,29.9,81.2,29.9z"/>
<path d="M79.6,22.2c0.2,1,1,1.9,1.8,2.5c0.5,0.4,1,0.7,1.5,0.9c0.2,0.1,1.6,0.9,1.8,0.7c0.5-0.4,0.6-1.3,0.6-1.8
	c0-1.2-0.3-2.6-1-3.6c-0.2-0.3-0.6-0.8-0.9-0.6C82.1,20.9,80.9,21.6,79.6,22.2z"/>
<path fill="#FFFFFF" d="M84.2,26.4c0.2-0.7,1.2-0.8,1.6-0.2c0.4,0.6,0.2,1.5-0.1,2.1c-0.4,0.8-1.2,1.3-2.1,1.2
	C82.7,29.2,84,26.6,84.2,26.4z"/>
<path d="M72.1,22.2c-0.2,1-1,1.9-1.8,2.5c-0.5,0.4-1,0.7-1.5,0.9c-0.2,0.1-1.6,0.9-1.8,0.7c-0.5-0.4-0.6-1.2-0.7-1.8
	c0-1.2,0.3-2.6,1-3.6c0.1-0.2,0.7-0.9,1-0.7C69.6,20.9,70.9,21.5,72.1,22.2z"/>
<path fill="#FFFFFF" d="M67.5,26.4c-0.2-0.7-1.2-0.8-1.6-0.2c-0.4,0.6-0.2,1.5,0.1,2.1c0.4,0.8,1.2,1.3,2.1,1.2
	C69.1,29.2,67.7,26.6,67.5,26.4z"/>
<path fill="#BFC0C0" d="M76.2,22.8c3.1-0.1,6.3-0.7,9.1-1.8c0.4-0.2,0.1-1.9-0.1-2.3C85,18,83.4,18,82.8,17.9
	c0.2,0.6,0.3,1.2,0.5,1.7c0.1,0.5-1.5,1-1.9,1.2c-1.7,0.7-3.5,1.2-5.2,1.6c-0.5,0.1-1.4-0.3-1.9-0.4c-1.1-0.3-2.2-0.6-3.2-1
	c-0.3-0.1-2.4-0.8-2.3-1.2c0.2-0.6,0.3-1.2,0.5-1.8c-0.6,0.1-2.3,0.1-2.5,0.8c-0.2,0.5-0.5,2.1,0.1,2.3
	C69.7,22.2,73.1,22.9,76.2,22.8z"/>
<path fill="#595757" d="M67.6,19.5c0.3,0.2,0.9,0.7,1.2,0.4c-0.3-0.2,0.3-1.7,0.4-2c-0.6,0.1-1.2,0.1-1.7,0.3
	C66.4,18.5,66.8,18.9,67.6,19.5C67.9,19.7,67.3,19.3,67.6,19.5z"/>
<path fill="#595757" d="M82.7,20.3c0.3-0.2,3.2-1.4,2.2-1.9c-0.7-0.3-1.5-0.4-2.2-0.5c0.1,0.5,0.3,1,0.4,1.4
	C83.3,19.9,83.3,20,82.7,20.3C83.4,20,82.8,20.3,82.7,20.3z"/>
<path fill="#BFC0C0" d="M76.1,22.5c1.9-0.2,3.8-1,5.6-1.7c0.5-0.2,1-0.5,1.5-0.7c0.3-0.2,0.1-0.5,0-0.8c-0.3-1.4-0.7-2.7-2-3.3
	c-1.6-0.7-3.5-0.9-5.2-0.9c-1.8,0-3.8,0.1-5.5,1c-1.2,0.7-1.5,2.2-1.8,3.5c-0.1,0.4-0.2,0.4,0.2,0.5c0.6,0.3,1.2,0.6,1.9,0.9
	C72.3,21.7,74.4,22.6,76.1,22.5z"/>
<path d="M76.8,20.5c-2.7,0-5.4-0.4-8-1C68.6,20,68.6,20,69,20.2c0.6,0.3,1.2,0.6,1.8,0.8c1.6,0.7,3.5,1.6,5.2,1.6
	c1.6,0,3.4-0.7,4.9-1.4c0.6-0.2,2.7-0.8,2.5-1.5C81.2,20.3,79,20.5,76.8,20.5C74,20.6,78.9,20.5,76.8,20.5z"/>
<path d="M75.8,18.2c1.3,0,1.3,2.1,0,2.1S74.4,18.2,75.8,18.2z"/>
<path fill="#FFFFFF" d="M75.8,18.5c1,0,1,1.4,0,1.4C74.8,19.9,74.8,18.5,75.8,18.5z"/>
<path fill="#C9CACA" d="M68,30.7c0.1-0.4,0.6-2.8,1.1-2.6c0.7,0.2,0.2,1.7,0.1,2.1C68.9,31,68.7,31.2,68,30.7z"/>
<path fill="#FFFFFF" stroke="#000000" stroke-width="0.25" stroke-miterlimit="10" d="M67.9,30.6c0.1-0.4,0.6-2.8,1.1-2.6
	c0.7,0.2,0.2,1.7,0.1,2.1C68.8,30.8,68.6,31,67.9,30.6z"/>
<path fill="#BFC0C0" d="M67.9,30.3c-0.2,0.7-0.3,1.4-0.4,2.2c-0.1,0.6-0.4,1.5,0.1,2c0.3,0.3,0.6,0.4,1,0.6c0.1,0,0.2-0.3,0.3-0.4
	c0.3-0.5,0.7-0.9,1-1.4c0.3-0.4,0.3-1.7,0.4-2.2C70.1,31,68.1,30.4,67.9,30.3z"/>
<path fill="#FFFFFF" d="M79,37.4c0.4,0,0.4,0.6,0,0.6S78.6,37.4,79,37.4z"/>
<path fill="#FFFFFF" d="M73,37.3c0.4,0,0.4,0.6,0,0.6C72.7,37.9,72.7,37.3,73,37.3z"/>
<path fill="#FFFFFF" d="M73.3,40.9c0.4,0,0.4,0.6,0,0.6S72.9,40.9,73.3,40.9z"/>
<path fill="#FFFFFF" d="M79,41.1c0.4,0,0.4,0.6,0,0.6S78.6,41.1,79,41.1z"/>
<path fill="#FFFFFF" d="M80,36.7c0,0.4-1.5,0.4-1.5,0C78.5,36.6,80,36.6,80,36.7z"/>
<path d="M50.7,53.3c-0.3,0.3-1.5,1.3-1,1.7c0.5,0.6,2.2-0.3,2.7-0.5c0.3-0.1,0.7-0.3,0.8-0.5c0.1-0.2,0.2-0.9-0.2-0.9
	C52.3,53.1,51.5,53.2,50.7,53.3z"/>
<path d="M56.6,53.3c0.3,0.3,1.5,1.3,1,1.7c-0.5,0.6-2.2-0.3-2.7-0.5c-0.3-0.1-0.7-0.3-0.8-0.5c-0.1-0.2-0.2-0.9,0.2-0.9
	C55,53.1,55.8,53.2,56.6,53.3z"/>
<path fill="#898989" d="M57.2,46.2c-0.9,0-1.9,0.1-2.8,0.1c0.1-0.5-0.6-0.3-0.9-0.3c-0.2,0-0.5,0-0.7,0c0,0,0,0.2-0.2,0.2
	c-1,0.1-2.1,0.3-3.1,0.4c0.4,1.3,0.4,2.9,0.5,4.3c0.1,0.7,0.2,1.5,0.3,2.2c0.1,0.5,0.9,0.4,1.4,0.4c0.5,0,1.1,0.1,1.6-0.1
	c0-0.1,0-0.4,0-0.4c0-0.8,0-1.6,0-2.4c0-1.4,0-2.8,0-4.2c0.3,0,0.2,0.8,0.2,1c0,0.9,0.1,1.8,0.1,2.7c0,0.8,0.1,1.7,0.1,2.5
	c0,0.8,0,0.7,0.9,0.8c0.7,0.1,1.5,0,2.2-0.1c0-0.1,0-0.3,0-0.4c0-0.8,0-1.6,0.1-2.4C57.1,49.1,57.1,47.6,57.2,46.2z"/>
<path fill="#FFFFFF" d="M51.1,35c1,0,2,0,3,0c0.5,0,0.9,0,1.4,0c0.2,0,0.1,0.3,0.1,0.5c0,1.2,0,2.4,0,3.7c0,0.6,0,1.1,0,1.7
	c0,0.1,0.1,0.8,0,0.8c-0.1,0.1-0.8,0-0.9,0c-0.7,0-1.4,0-2.1,0c-0.5,0-0.9,0-1.4,0c-0.2,0-0.1-0.3-0.1-0.5
	C51.1,39.1,51.1,37.1,51.1,35z"/>
<path fill="#FFFFFF" d="M59.5,45.4c0.2,0.4,0.5,1.2,0,1.5c-0.9,0.4-1.4-0.6-1.5-1.3C58.5,45.7,59,45.6,59.5,45.4
	C59.6,45.5,59.3,45.5,59.5,45.4z"/>
<path fill="#FFFFFF" d="M47.6,45.5c-0.2,0.3-0.5,1,0,1.3c0.8,0.5,1.5-0.3,1.6-1.1C48.6,45.8,48,45.7,47.6,45.5
	C47.4,45.8,47.8,45.6,47.6,45.5z"/>
<path fill="#BFC0C0" d="M49.1,36.4c-1.7,0.3-1.7,4.3-1.9,5.5c-0.2,1.1-0.3,2.3-0.4,3.4c-0.1,0.7,2.4,0.6,2.4,0.5
	C49.2,42.6,49.2,39.5,49.1,36.4z"/>
<path fill="#9FA0A0" d="M49.2,45.9c0-3.2,0-6.3,0-9.5c-0.6,0-0.4,1-0.4,1.4c0,1.1,0,2.1,0,3.2c0,1.7,0,3.3,0,5
	C48.9,45.9,49,45.9,49.2,45.9z"/>
<path fill="#BFC0C0" d="M57.6,36.4c1.7,0.3,1.8,4.4,2,5.6c0.2,1.1,0.3,2.2,0.5,3.3c0,0.4-2.5,0.8-2.5,0.4
	C57.5,42.6,57.6,39.5,57.6,36.4z"/>
<path fill="#9FA0A0" d="M57.5,45.9c0-3.2,0-6.3,0-9.5c0.6,0,0.4,1,0.4,1.4c0,1.1,0,2.1,0,3.2c0,1.7,0,3.3,0,5
	C57.8,45.9,57.7,45.9,57.5,45.9z"/>
<path fill="#BFC0C0" d="M57.6,36.4c-0.4-0.4-1.5-0.6-2-0.7c-0.1,2-1,4-2.2,5.6c-1.3-1.5-2.1-3.6-2.2-5.6c-0.3,0.1-1.9,0.4-2,0.7
	c-0.1,0.3,0,0.6,0,0.9c0,1.5,0,2.9,0,4.4c0,1.4,0,2.9,0.1,4.3c0,0.2,0,0.6,0.1,0.8c0.3,0.4,1.5,0.2,1.9,0.2c0.6,0,1.1,0,1.7,0
	c0.2,0,0.4-0.1,0.6-0.1c0.2,0,0.3,0.1,0.5,0.1c0.5,0,3.4,0.3,3.5-0.2c0.2-1,0.1-2.1,0.1-3.1c0-1.6,0-3.3,0-4.9
	C57.7,38.3,57.9,36.7,57.6,36.4z"/>
<path fill="#9FA0A0" d="M53.3,41.8c0.5,0,0.5,0.8,0,0.8C52.8,42.6,52.8,41.8,53.3,41.8z"/>
<path fill="#9FA0A0" d="M53.3,43.8c0.5,0,0.5,0.8,0,0.8C52.8,44.6,52.8,43.8,53.3,43.8z"/>
<path fill="#EFEFEF" d="M51.5,37.8c0.2-0.2,1.7-1.8,1.7-1.8c0.7,0.6,1.4,1.3,2.1,1.9c0.2-0.6,0.8-1.8,0.5-2.5
	c-0.2-0.5-1.9-0.2-2.2-0.2c-0.8,0.1-1.7,0.2-2.5,0.3C50.7,35.6,51.3,37.6,51.5,37.8z"/>
<path fill="#BFC0C0" d="M50.5,35.8c-0.1,0.8-0.1,1.6-0.2,2.4c0,0.1-0.1,0.6,0,0.6c0.4,0.1,0.8,0.2,1.2,0.3c-0.1,0.2-0.7,0.8-0.5,1
	c0.6,0.6,1.5,1,2.4,1.1c-1.1-1.7-2-3.7-2.2-5.7C50.9,35.7,50.7,35.8,50.5,35.8z"/>
<path fill="#BFC0C0" d="M56.2,35.8c0.1,0.8,0.1,1.6,0.2,2.5c0,0.1,0.1,0.6,0,0.6c-0.4,0.1-0.8,0.2-1.2,0.3c0.1,0.2,0.7,0.8,0.5,1
	c-0.6,0.6-1.5,1-2.4,1.1c1.1-1.7,2-3.6,2.2-5.6C55.8,35.7,56,35.7,56.2,35.8z"/>
<path fill="#595757" d="M43.1,27.5c-0.6-0.9-0.9-2.3-0.2-3.1c0.4-0.5,0.9-0.8,1-1.4c0.1-0.7-0.1-1.3-0.2-2c-0.1-0.8,0-1.9,0.7-2.5
	c1.1-0.8,2.4,0,3.3-1.4c0.6-1,1.4-2.2,2.8-2.1c0.6,0,1,0.4,1.5,0.7c0.6,0.4,1.2,0.3,1.9,0c1.2-0.5,2.6-0.7,3.8-0.1
	c1.1,0.5,1.4,1.9,2.7,2.1c1.1,0.2,2.4,0.3,2.9,1.5c0.5,1.1-0.2,2.1-0.4,3.1c-0.2,1,1,1.7,1.2,2.7c0.2,1.3-0.8,2.5-1.5,3.5
	c-0.8,1.2-2,1-3.3,1.1c-1.7,0.2-3.4,0.3-5.1,0.2c-1.6,0-3.1-0.1-4.7-0.2c-0.8-0.1-1.5-0.1-2.3-0.2c-0.7,0-1.5,0.1-2.1-0.2
	C44.2,29.1,43.5,28.2,43.1,27.5C42.5,26.7,43.5,28.2,43.1,27.5z"/>
<path fill="#FFFFFF" stroke="#000000" stroke-width="0.25" stroke-miterlimit="10" d="M61.7,27.1c-0.1,2.1-1.3,4.1-2.3,5.8
	c-0.6,1-1.4,2.8-2.7,3c-2.2,0.4-4.5,0.2-6.7,0c-0.3,0-0.6-0.6-0.7-0.8c-0.5-0.7-1.1-1.4-1.5-2.1c-1-1.6-2.1-3.4-2.4-5.3
	c-0.2-1.9,0.2-4.1,1-5.8c1.8-4,6.7-5.3,10.7-3.7C60.5,19.6,61.9,23.5,61.7,27.1C61.5,30.3,62,22.1,61.7,27.1z"/>
<path fill="#FFFFFF" d="M45.7,28.4c-0.8-0.7-2-0.3-1.9,0.9c0.1,1.2,1,2.1,2.2,2.3c1.2,0.2,0.8-0.5,0.5-1.2
	C46.2,29.7,45.9,29,45.7,28.4z"/>
<path fill="#FFFFFF" d="M61.4,28.4c0.8-0.7,2-0.3,1.9,0.9c-0.1,1.2-1,2.1-2.2,2.3c-1.2,0.2-0.8-0.5-0.5-1.2
	C60.8,29.7,61.1,29,61.4,28.4z"/>
<path d="M49.1,26.9c1.3,0,1.3,1.9,0,1.9S47.8,26.9,49.1,26.9z"/>
<path d="M57.6,26.9c1.3,0,1.3,1.9,0,1.9S56.3,26.9,57.6,26.9z"/>
<path d="M53.6,31.2c-0.4,0-0.8-0.1-1.1-0.1c-0.4,0,0-0.9,0.1-1.1c0-0.2,0.1-0.3,0.1-0.5c0.1-0.2,0.3-0.2,0.3,0
	c0.1,0.2-0.3,1-0.3,1.3c0.3,0,0.6,0.1,0.8,0.1C53.6,30.9,53.9,31.2,53.6,31.2z"/>
<path d="M53.3,32.6c-0.2,0-1.1-0.1-1.1-0.4c-0.1-0.3,0.5,0,0.6,0c0.2,0.1,0.4,0.1,0.7,0.1c0.3,0,0.8-0.4,1-0.3
	C54.9,32.1,53.5,32.6,53.3,32.6z"/>
<path fill="#B1B1B2" d="M50.5,33c-0.8,0,0-1.4,0.5-1.6c0.5-0.1,0.5,0.4,0.1,0.6C50.7,32.2,50.9,33,50.5,33z"/>
<path fill="#B1B1B2" d="M56.7,33.1c-0.4,0-0.2-0.6-0.4-0.8c-0.1-0.2-0.5-0.4-0.4-0.7C56.5,30.8,57.7,33.1,56.7,33.1z"/>
<path d="M58.4,26.1c-0.4,0-0.7-0.4-1.2-0.3c-0.4,0-0.9-0.4-0.3-0.6c0.3-0.1,0.6-0.1,0.8-0.1c0.2,0,0.5,0.1,0.7,0.2
	C58.6,25.6,59,26.1,58.4,26.1z"/>
<path d="M47.9,26.1c-0.8,0,0.2-0.8,0.5-0.9c0.3-0.1,0.7-0.1,1,0c0.4,0.1,0.2,0.7-0.2,0.6C48.7,25.7,48.4,26.1,47.9,26.1z"/>
<path fill="#595757" d="M58.9,19.1c-1.9-1.1-4-2.5-6.3-2.2c-2.1,0.3-4.5,1.3-5.9,2.9c-1.2,1.4-2,3.3-2.2,5.2
	c-0.2,1.7,0.4,2.9,1.2,4.3c0.1-0.6,0-0.9-0.2-1.5c-0.3-1.2,0.1-1.7,0.8-2.6c0.9-1.1,0.5-2.5,0.8-3.8c0.2-0.7,0.8-0.6,1.3-0.3
	c0.2,0.1,0.3-0.2,0.1-0.3c-0.3-0.2-0.7-0.3-1.1-0.2c0.3-0.4,1-0.1,1.4,0.1c0.2,0.1,0.3-0.2,0.1-0.3c-0.3-0.2-0.7-0.3-1-0.3
	c0.4-0.3,1,0,1.4,0.3c0.2,0.1,0.4-0.1,0.2-0.2c-0.3-0.2-0.6-0.3-0.9-0.4c0.7-0.2,1.6,0.6,2.1,0.2c0.6-0.5,1-0.9,1.7-1.1
	c-0.3,0.2-0.5,0.5-0.7,0.7c-0.1,0.1-0.3,0.8,0,0.5c0.4-0.5,1-1.3,1.8-1.2c-0.4,0.2-0.8,0.4-1,0.8c-0.2,0.4,0.1,0.6,0.2,0.3
	c0.2-0.6,1.1-1.2,1.6-0.8c-0.4,0.1-0.7,0.3-1,0.6c-0.2,0.2-0.1,0.6,0,0.4c0.2-0.3,0.6-0.5,1-0.7c0.5-0.2,0.6,0.2,0.7,0.6
	c0.3,0.7,0.6,1.4,1.4,1.6c0.9,0.2,1.8-0.3,2.7,0.1c2.1,0.8,0.3,2.9,1.5,4.1c0.4,0.4,0.9,0.8,0.6,1.5c-0.2,0.7-0.6,1.4-0.3,2.1
	c0.6-1.3,1.2-2.2,1.3-3.7C62.4,22.8,61.2,20.4,58.9,19.1z"/>
<path fill="#EFEFEF" d="M53.3,36.9c0.3,0,0.3,0.5,0,0.5S53,36.9,53.3,36.9z"/>
<path fill="#EFEFEF" d="M53.3,38.2c0.3,0,0.3,0.5,0,0.5S53,38.2,53.3,38.2z"/>
<path fill="#DCDDDD" d="M48.2,30.1c1.1,0,1.1,0.9,0,0.9C47.1,30.9,47.1,30.1,48.2,30.1z"/>
<path fill="#DCDDDD" d="M58.7,30.1c1.1,0,1.1,0.9,0,0.9C57.6,31,57.6,30.1,58.7,30.1z"/>
<path d="M58.1,57.5c-0.2-1.1-0.3-2.4,0-3.5c-0.3,0.3-0.6,0.6-0.9,0.9c0.4-0.8,0.9-1.7,1.1-2.6c-0.3,0.3-0.7,0.8-1,1
	c0.1-0.1,0.3-1.3,0.4-1.5c0.4-1.1,1-2.2,1.9-3.1c-0.7,0-1.3,0.2-1.9,0.6c1-1.8,2.9-3.2,4.9-3.4c-0.6-0.5-1.4-0.8-2.2-0.7
	c1.4-0.9,3.2-0.7,4.6-0.1c-0.4-0.7-0.9-1.6-1-2.4c1.1,0.7,2.4,1.6,3.6,1.8c-0.1-0.6-0.1-1.3,0-2c0.5,0.5,1,1,1.6,1.3
	c0.8,0.4,1.6,0.5,2.1,1.3c0.2,0,0.6-0.1,0.7-0.1c0.5-0.1,1,0,1.5,0.2c0.8,0.3,1.6,0.5,2.4,0.6c-0.5,0.4-1.2,0.9-1.8,0.9
	c1.1,0.1,2.4,0.5,3.2,1.3c-0.5,0.2-1.1,0.3-1.6,0.2c0.7,0.9,1.7,1.7,2.8,2c-0.6,0.5-1.4,0.8-2.1,0.6c0.9,1,1.4,2.4,1.4,3.7
	c-0.4-0.3-0.8-0.6-1.2-0.9c0.3,1.6,0.4,4.5-1.7,4.4c-1.9-0.1-3.8-0.1-5.7-0.2C65.6,57.7,61.8,57.6,58.1,57.5z"/>
<path d="M65.2,83.7c-0.3,0.3-1.5,1.3-1,1.7c0.5,0.6,2.2-0.3,2.7-0.5c0.3-0.1,0.7-0.3,0.8-0.5c0.1-0.2,0.2-0.9-0.2-0.9
	C66.8,83.6,66,83.7,65.2,83.7z"/>
<path d="M71.1,83.7c0.3,0.3,1.5,1.3,1,1.7c-0.5,0.6-2.2-0.3-2.7-0.5c-0.3-0.1-0.7-0.3-0.8-0.5c-0.1-0.2-0.2-0.9,0.2-0.9
	C69.5,83.6,70.3,83.7,71.1,83.7z"/>
<path fill="#454545" d="M71.5,75.7c-0.9,0-1.9,0.1-2.8,0.1c0.1-0.5-0.6-0.3-0.9-0.3c-0.2,0-0.5,0-0.7,0c0,0,0,0.2-0.2,0.2
	c-1,0.1-2.1,0.3-3.1,0.4c0.2,0.5,0.2,1.1,0.2,1.6c0.1,1.1,0.3,2.1,0.4,3.2c0.1,0.8,0.2,1.7,0.3,2.5c0.1,0.6,1.1,0.6,1.6,0.7
	c0.1,0,1.4,0.2,1.4,0c0-0.2,0-0.4,0-0.7c0-0.9,0-1.9-0.1-2.8c0-1.6-0.1-3.3-0.1-4.9c0.3,0,0.2,0.8,0.2,1.1c0.1,0.9,0.1,1.9,0.2,2.8
	c0.1,1.5,0.2,3,0.3,4.5c0.6-0.1,3-0.1,3-0.7c0-0.8,0-1.7,0-2.5C71.5,79.2,71.5,77.5,71.5,75.7z"/>
<path fill="#FFFFFF" d="M65.5,64.5c1,0,2,0,3,0c0.5,0,0.9,0,1.4,0c0.2,0,0.1,0.3,0.1,0.5c0,1.2,0,2.4,0,3.7c0,0.6,0,1.1,0,1.7
	c0,0.1,0.1,0.8,0,0.8c-0.1,0.1-0.8,0-0.9,0c-0.7,0-1.4,0-2.1,0c-0.5,0-0.9,0-1.4,0c-0.2,0-0.1-0.3-0.1-0.5
	C65.5,68.7,65.5,66.6,65.5,64.5z"/>
<path fill="#898989" d="M67.4,67.3c-0.2,0.8-0.3,1.5-0.5,2.3c-0.1,0.5,0.5,1.1,0.8,1.5c0.3-0.3,0.5-0.7,0.8-1c0.2-0.3,0.1-0.6,0-0.9
	c-0.1-0.5-0.2-1.1-0.3-1.6C68.1,67.1,67.8,67.3,67.4,67.3z"/>
<path d="M68.3,68.4c-0.1-0.3-0.1-0.6-0.2-1c-0.1-0.3-0.5-0.1-0.7-0.2C67.6,67.7,68.1,68,68.3,68.4z"/>
<path d="M67.5,70.2c-0.2-0.2-0.4-0.5-0.6-0.7c-0.3,0.5,0.4,1.2,0.7,1.6C68.1,70.8,67.8,70.5,67.5,70.2
	C67.3,69.9,67.6,70.4,67.5,70.2z"/>
<path d="M67.6,69.8c0.2,0.2,0.3,0.5,0.5,0.7c0.3-0.3,0.4-0.3,0.1-0.7c-0.4-0.4-0.7-0.9-1.1-1.4C67,69.2,67.2,69.2,67.6,69.8
	C67.8,70,67.4,69.6,67.6,69.8z"/>
<path d="M68.2,69.4c0.1,0.2,0.3,0.3,0.4,0.5c0-0.3-0.1-0.5-0.2-0.8c-0.1-0.5-0.8-1-1.1-1.4C67,68.3,67.9,69,68.2,69.4
	C68.4,69.6,67.9,69,68.2,69.4z"/>
<path fill="#FFFFFF" stroke="#000000" stroke-width="0.25" stroke-miterlimit="10" d="M73.9,75c0.2,0.4,0.5,1.2,0,1.5
	c-0.9,0.4-1.4-0.6-1.5-1.3C72.9,75.2,73.4,75.2,73.9,75C73.9,75.1,73.6,75.1,73.9,75z"/>
<path fill="#FFFFFF" stroke="#000000" stroke-width="0.25" stroke-miterlimit="10" d="M61.9,75c-0.2,0.3-0.5,1,0,1.3
	c0.8,0.5,1.5-0.3,1.6-1.1C62.9,75.3,62.4,75.2,61.9,75C61.8,75.3,62.2,75.1,61.9,75z"/>
<path fill="#B5B5B6" d="M63.5,65.9c-1.7,0.3-1.7,4.3-1.9,5.5c-0.2,1.1-0.3,2.3-0.4,3.4c-0.1,0.7,2.4,0.6,2.4,0.5
	C63.5,72.2,63.5,69,63.5,65.9z"/>
<path fill="#D9D9DA" d="M63.5,75.4c0-3.2,0-6.3,0-9.5c-0.6,0-0.4,0.8-0.4,1.2c0,1.1,0,2.2,0,3.3c0,1.7,0,3.3,0,5
	C63.3,75.4,63.4,75.4,63.5,75.4z"/>
<path fill="#B5B5B6" d="M71.9,65.9c1.7,0.3,1.8,4.4,2,5.6c0.2,1.1,0.3,2.2,0.5,3.3c0,0.4-2.5,0.8-2.5,0.4
	C71.9,72.1,71.9,69,71.9,65.9z"/>
<path fill="#D9D9DA" d="M71.9,75.4c0-3.2,0-6.3,0-9.5c0.6,0,0.4,0.8,0.4,1.2c0,1.1,0,2.2,0,3.3c0,1.7,0,3.3,0,5
	C72.2,75.4,72,75.4,71.9,75.4z"/>
<path fill="#B5B5B6" d="M72,65.9c-0.4-0.4-1.5-0.6-2-0.7c-0.1,2-1,4-2.2,5.6c-1.3-1.5-2.1-3.6-2.2-5.6c-0.3,0.1-1.9,0.4-2,0.7
	c-0.1,0.3,0,0.6,0,0.9c0,1.5,0,2.9,0,4.4c0,1.4,0,2.9,0.1,4.3c0,0.2,0,0.6,0.1,0.8c0.3,0.4,1.5,0.2,1.9,0.2c0.6,0,1.1,0,1.7,0
	c0.2,0,0.4-0.1,0.6-0.1c0.2,0,0.3,0.1,0.5,0.1c0.5,0,3.4,0.3,3.5-0.2c0.2-1,0.1-2.1,0.1-3.1c0-1.6,0-3.3,0-4.9
	C72,67.8,72.2,66.2,72,65.9C71.9,65.8,72.1,66,72,65.9z"/>
<path fill="#898989" d="M67.5,65.8c-0.2,0.2-0.8,0.6-0.6,0.9c0.4,0.5,0.4,0.7,1.1,0.7c0.2,0,0.8-0.6,0.7-0.8
	C68.2,66.1,68.2,65.8,67.5,65.8z"/>
<path d="M68.5,66.9c-0.2,0.2-0.4,0.4-0.6,0.5C68.2,67.5,68.4,67.1,68.5,66.9z"/>
<path d="M68,65.9c-0.5-0.2-1.6,0.6-1,1C67.4,66.6,67.7,66.2,68,65.9z"/>
<path d="M67.4,67.4c0.3-0.3,1.4-0.9,0.8-1.3C67.9,66.4,66.9,67.1,67.4,67.4z"/>
<path fill="#FFFFFF" d="M67.6,71.3c0.5,0,0.5,0.8,0,0.8C67.1,72.1,67.1,71.3,67.6,71.3z"/>
<path fill="#FFFFFF" d="M67.6,73.4c0.5,0,0.5,0.8,0,0.8C67.1,74.1,67.1,73.4,67.6,73.4z"/>
<path fill="#D9D9DA" d="M64.8,65.4c-0.1,0.8-0.1,1.6-0.2,2.4c0,0.1-0.1,0.6,0,0.6c0.4,0.1,0.8,0.2,1.2,0.3c-0.1,0.2-0.7,0.8-0.5,1
	c0.6,0.6,1.5,1,2.4,1.1c-1.1-1.7-2-3.7-2.2-5.7C65.3,65.2,65.1,65.3,64.8,65.4z"/>
<path fill="#D9D9DA" d="M70.6,65.3c0.1,0.8,0.1,1.6,0.2,2.5c0,0.1,0.1,0.6,0,0.6c-0.4,0.1-0.8,0.2-1.2,0.3c0.1,0.2,0.7,0.8,0.5,1
	c-0.6,0.6-1.5,1-2.4,1.1c1.1-1.7,2-3.6,2.2-5.6C70.1,65.2,70.3,65.3,70.6,65.3z"/>
<path fill="#FFFFFF" stroke="#000000" stroke-width="0.25" stroke-miterlimit="10" d="M76.1,56.8c0,4.1-2.3,7.7-6.4,8.6
	c-4.2,0.8-8.7-0.7-10.3-4.9c-1.3-3.5-0.7-8.4,2-11.1c3-2.9,8.6-2.9,11.7-0.2C75.3,51.1,76.1,54.1,76.1,56.8z"/>
<path fill="#FFFFFF" d="M59.3,57.5c-0.6-0.8-1.8-0.9-2.1,0.1c-0.4,1.2,0.2,2.2,1.2,2.8c0.1,0.1,1.2,0.5,1.2,0.2c0-0.3-0.1-0.7-0.1-1
	C59.5,58.9,59.4,58.2,59.3,57.5z"/>
<path fill="#FFFFFF" d="M75.7,57.5c0.6-0.8,1.8-0.9,2.1,0.1c0.4,1.2-0.2,2.2-1.2,2.8c-0.1,0.1-1.2,0.5-1.2,0.2c0-0.3,0.1-0.7,0.1-1
	C75.6,58.9,75.6,58.2,75.7,57.5z"/>
<path d="M63,57.3c1.3,0,1.3,1.9,0,1.9C61.7,59.3,61.7,57.3,63,57.3z"/>
<path d="M72.1,57.3c1.3,0,1.3,1.9,0,1.9C70.8,59.3,70.8,57.3,72.1,57.3z"/>
<path d="M67.3,60.7c-0.2,0-0.9-0.5-0.8-0.7c0-0.1,0.5-0.9,0.7-0.9c0.4-0.1-0.3,0.9-0.3,0.9C66.9,60,67.7,60.7,67.3,60.7z"/>
<path d="M67.5,62.5c-0.5,0-1.2-0.2-1.6-0.6c-0.4-0.4,0.7,0.1,0.7,0.1c0.8,0.4,1.7,0.2,2.4-0.3c0.3-0.2,0.1,0.3-0.2,0.4
	C68.4,62.4,67.9,62.5,67.5,62.5z"/>
<path d="M70.9,55.6c-0.6,0-0.1-0.6,0.2-0.7c0.7-0.2,1.4-0.2,2.1-0.1c0.2,0.1,0.3,0.4,0.1,0.5c-0.3,0.2-0.9-0.1-1.2,0
	C71.6,55.4,71.3,55.6,70.9,55.6z"/>
<path d="M63.8,55.6c-0.4,0-0.7-0.2-1.1-0.2c-0.3,0-0.7,0-1,0.1c-0.4,0.1-0.5-0.5-0.1-0.6c0.7-0.2,1.4-0.1,2.1,0.1
	C63.9,55.1,64.4,55.6,63.8,55.6z"/>
<path d="M72.8,49c0.4,1.2,0.9,2.5,1.6,3.5c0.1-0.4,0.3-0.9,0.4-1.3c0.2,1.3,0.4,2.6,1,3.7c0.4,0.9,0.1,1.9,0,2.9
	c2-5-1.5-11-6.8-11.9c-2.7-0.4-5.5,0.3-7.4,2.3c-2.5,2.7-3.6,6.2-2.7,9.7c0-1.1,0.1-2.1,0.3-3.2c0.2-1.1,0.5-2.5,1.2-3.3
	c-0.1,0.4-0.2,0.8-0.2,1.2c0.4-0.6,0.9-1.3,1.4-1.9c0.5-0.7,1.1-1.8,1.9-2.2c-0.3,0.8-0.6,1.7-1,2.4c1.2-1,2.6-2,3.5-3.3
	c-0.2,0.8-0.5,1.7-0.9,2.4c1.1-0.7,2.3-1.4,3.2-2.4c-0.2,0.8-0.5,1.7-1,2.3c1.1-0.4,2.8-0.9,3.3-2.1c0.3,1.1,1.1,2.2,2.1,2.8
	c0,0,0-0.5,0-0.5C72.6,49.9,72.6,49.4,72.8,49z"/>
<path fill="#DCDDDD" d="M61.6,60.7c1.1,0,1.1,0.9,0,0.9C60.4,61.6,60.4,60.7,61.6,60.7z"/>
<path fill="#DCDDDD" d="M73.3,60.7c1.1,0,1.1,0.9,0,0.9S72.2,60.7,73.3,60.7z"/>
<path fill="#FFFFFF" stroke="#000000" stroke-width="0.25" stroke-miterlimit="10" d="M32.8,74.5c-0.1,0.5-0.3,1-0.2,1.5
	c0.1,0.8,1,0.9,1.6,0.4C35.5,75.4,33.7,74.7,32.8,74.5z"/>
<path fill="#FFFFFF" stroke="#000000" stroke-width="0.25" stroke-miterlimit="10" d="M45.2,74.5c0.1,0.5,0.3,1,0.2,1.5
	c-0.1,0.8-1,0.9-1.6,0.4C42.6,75.4,44.4,74.7,45.2,74.5z"/>
<path fill="#595757" d="M36.1,83.3c-0.3,0.3-1.5,1.4-0.6,1.6c0.9,0.2,2.1,0.1,2.9-0.3c0.5-0.3,0.8-1.3,0-1.3
	C37.6,83.3,36.9,83.3,36.1,83.3z"/>
<g>
	<path fill="#FFFFFF" d="M35.3,79.2c0.1,1.2,0.3,2.4,0.4,3.7c0.1,0.6,0.2,0.6,0.9,0.6c0.5,0.1,2.2,0.4,2.2-0.4c0-0.7,0-1.4-0.1-2.1
		c0-0.3,0.1-1.4,0-1.6c-0.2-0.2-1.4-0.1-1.7-0.1C36.5,79.3,35.9,79.2,35.3,79.2z"/>
	<path fill="#B5B5B6" d="M37.7,83.7c-0.5,0-1.9,0.1-2-0.5c-0.1-0.7-0.2-1.4-0.3-2.1c-0.1-0.6-0.2-1.2-0.2-1.9c0-0.4,1.1-0.1,1.3-0.1
		c0.7,0.1,1.4,0.1,2.1,0.2c0.4,0,0.3,0.5,0.3,0.9c0,0.8,0,1.6,0.1,2.4c0,0.3,0,0.5,0,0.8C39,83.8,37.9,83.7,37.7,83.7z M36,83.2
		c0.7,0.1,1.4,0.2,2,0.1c0.6,0,0.6,0,0.6-0.5c0-0.9,0-1.8-0.1-2.7c0-0.7-0.1-0.6-0.9-0.6c-0.7-0.1-1.5-0.1-2.2-0.2
		C35.7,80.6,35.8,81.9,36,83.2z"/>
</g>
<path fill="#595757" d="M42,83.3c0.3,0.3,1.5,1.4,0.6,1.6c-0.9,0.2-2.1,0.1-2.9-0.3c-0.5-0.3-0.8-1.3,0-1.3
	C40.5,83.3,41.3,83.3,42,83.3z"/>
<g>
	<path fill="#FFFFFF" d="M42.8,79.2c-0.1,1.2-0.3,2.4-0.4,3.7c-0.1,0.6-0.2,0.6-0.9,0.6c-0.5,0.1-2.2,0.4-2.2-0.4
		c0-0.7,0-1.4,0.1-2.1c0-0.3-0.1-1.4,0-1.6c0.2-0.2,1.4-0.1,1.7-0.1C41.7,79.3,42.2,79.2,42.8,79.2z"/>
	<path fill="#B5B5B6" d="M40.5,83.7c-1.1,0-1.3,0-1.3-1c0-0.8,0-1.6,0.1-2.4c0-0.2-0.1-1,0.2-1c0.7-0.1,1.5-0.1,2.2-0.2
		c0.2,0,1.3-0.2,1.3,0.1c-0.1,0.6-0.1,1.1-0.2,1.7c-0.1,0.7-0.2,1.5-0.3,2.2C42.4,83.9,41.1,83.7,40.5,83.7z M39.5,83.3
		c0.9,0.2,1.8,0.1,2.7-0.1c0.1-0.2,0.1-0.8,0.1-1c0.1-1,0.2-1.9,0.4-2.9c-0.4,0-3,0.1-3.1,0.3C39.6,80.8,39.5,82.1,39.5,83.3z"/>
</g>
<path fill="#FFFFFF" d="M34.4,65.6c-0.8,0.1-1,1.4-1.1,2.1c-0.3,1.2-0.5,2.5-0.7,3.7c-0.2,1-0.4,2.1-0.5,3.1
	c-0.1,0.8,2.6,0.9,3.2,0.9c0-1.6-0.3-3.3-0.5-5c-0.1-1.1-0.2-2.2-0.3-3.4C34.5,66.6,34.5,66,34.4,65.6z"/>
<path fill="#B5B5B6" d="M35,75.5c-0.5,0-3.2-0.1-3.1-0.9c0.1-0.9,0.3-1.7,0.4-2.6c0.2-1.2,0.4-2.3,0.7-3.5c0.2-0.8,0.3-1.8,0.7-2.5
	c0.1-0.2,0.6-0.8,0.9-0.6c0.1,0.1,0.1,0.4,0.1,0.5c0.1,0.9,0.2,1.9,0.2,2.8c0.1,1.3,0.2,2.6,0.4,3.9c0.1,0.6,0.1,1.2,0.2,1.7
	C35.4,75,35.7,75.5,35,75.5z M32.2,74.7c0.9,0.3,1.9,0.5,2.9,0.5c-0.3-3.1-0.6-6.3-0.8-9.4c-0.5,0.3-0.6,1.1-0.8,1.7
	c-0.2,0.9-0.4,1.7-0.5,2.6C32.7,71.6,32.4,73.2,32.2,74.7z"/>
<path fill="#FFFFFF" d="M43.4,65.6c0.8,0.1,1,1.4,1.1,2.1c0.3,1.2,0.5,2.5,0.7,3.7c0.2,1,0.4,2.1,0.5,3.1c0.1,0.8-2.6,0.9-3.2,0.9
	C42.9,75.4,43.2,66.5,43.4,65.6z"/>
<path fill="#B5B5B6" d="M42.9,75.5c-0.7,0-0.4-0.5-0.4-1c0.1-0.6,0.1-1.2,0.2-1.7c0.1-1.3,0.2-2.6,0.4-3.9c0.1-0.9,0.2-1.9,0.2-2.8
	c0-0.1,0-0.5,0.1-0.6c0.3-0.2,0.8,0.4,0.9,0.6c0.4,0.7,0.5,1.7,0.7,2.5c0.2,1.2,0.5,2.3,0.7,3.5c0.2,0.9,0.3,1.7,0.4,2.6
	C46,75.4,43.3,75.5,42.9,75.5z M42.7,75.2c0.7,0,1.4-0.1,2.1-0.3c0.5-0.1,0.8-0.1,0.8-0.7c-0.1-1-0.3-1.9-0.5-2.9
	c-0.2-1.1-0.4-2.2-0.6-3.3c-0.1-0.7-0.2-2-0.9-2.4C43.3,69,43,72.1,42.7,75.2z"/>
<path fill="#FFFFFF" d="M37.4,64.6c-0.7,0.1-3,0.4-3,1.2c0,1.1,0,2.3,0.1,3.4c0.1,3.1,0.1,6.3,0.5,9.4c0,0.2,0,0.8,0.3,0.8
	c0.8,0.1,1.6,0.2,2.4,0.2c0.8,0.1,5.9,0.3,5.9-0.5c0-2.7,0.1-5.4,0.1-8.1c0-1.8,0.1-3.5,0-5.3c0-0.6-2-1-2.4-1.1
	C40.1,64.4,38.5,64.2,37.4,64.6z"/>
<path fill="#B5B5B6" d="M39.5,79.9c-1.2,0-2.4-0.1-3.6-0.2c-0.5-0.1-0.8,0-0.9-0.6c-0.2-1.3-0.3-2.7-0.4-4c-0.2-3-0.2-6.1-0.3-9.1
	c0-1.2,2.2-1.4,3.1-1.5c1.8-0.7,4.5,0,6.1,0.9c0.6,0.3,0.3,1.4,0.3,2c0,1.5,0,3.1,0,4.6c0,1.9,0,3.9-0.1,5.8c0,0.5,0,1,0,1.5
	C43.7,80,40,79.9,39.5,79.9z M35.3,79.3c2.2,0.3,4.5,0.4,6.8,0.2c0.3,0,0.7-0.1,1-0.1c0.5-0.1,0.3-0.1,0.3-0.5c0-0.5,0-1,0-1.4
	c0-1.2,0-2.3,0-3.5c0-2.1,0-4.1,0.1-6.2c0-0.6,0-1.1,0-1.7c0-0.6-1-0.8-1.5-0.9c-1.8-0.6-3.5-0.6-5.3-0.2c-0.4,0.1-2.2,0.4-2.1,0.8
	c0,0.5,0,0.9,0,1.4c0.1,3.4,0.1,6.8,0.4,10.2C35.1,78,35.1,78.7,35.3,79.3z"/>
<path fill="#727171" d="M37,64.6c0.2,0.6,0.5,1.3,0.7,1.9c0.2,0.6,0.5,1.9,1.1,2.2c0.2,0.1,1.4-3.7,1.6-4.1
	C39.3,64.6,38.1,64.6,37,64.6z"/>
<path fill="#E1F3FC" d="M38.8,65.3c0,0.1,0.8,1.4,0.9,1.6c0.2-0.7,0.5-1.5,0.7-2.2c-1.1,0-2.2,0-3.4,0c0.3,0.8,0.6,1.6,0.9,2.3
	C38.3,66.5,38.5,65.8,38.8,65.3C38.8,65.2,38.5,65.9,38.8,65.3z"/>
<path fill="#FFFFFF" d="M37.5,64.7c0.3,1.4,0.7,2.8,1.4,4c-0.6-0.1-1.1-0.4-1.6-0.8c-0.4-0.4-0.3-0.4-0.1-0.9c0.2-0.3,0.2-0.3,0-0.5
	c-0.6-0.5-0.8-0.5-0.6-1.2C36.8,64.7,36.7,64.7,37.5,64.7z"/>
<path fill="#B5B5B6" d="M38.9,68.9c-0.8,0-2.3-1-1.8-1.8c0.3-0.5-0.1-0.5-0.5-0.8c-0.4-0.3-0.2-0.5-0.1-1c0.1-0.4,0-0.7,0.5-0.7
	c0.4,0,0.6-0.1,0.8,0.4c0.2,0.6,0.4,1.3,0.6,1.9C38.3,67.1,39.1,68.9,38.9,68.9z M37.2,67.5c0.3,0.5,0.9,0.8,1.4,1
	c-0.4-0.9-0.7-1.9-1-2.8c-0.1-0.3-0.2-0.5-0.2-0.8c-0.2-0.1-0.5,0-0.5,0.1c-0.1,0.6-0.3,0.8,0.2,1.2C37.6,66.8,37.6,66.8,37.2,67.5z
	"/>
<path fill="#FFFFFF" d="M40.2,64.7c-0.3,1.4-0.7,2.8-1.4,4c0.6-0.1,1.1-0.4,1.6-0.8c0.4-0.4,0.3-0.4,0.1-0.9c-0.2-0.3-0.2-0.3,0-0.5
	c0.6-0.5,0.8-0.5,0.6-1.2C40.9,64.7,40.9,64.7,40.2,64.7z"/>
<path fill="#B5B5B6" d="M38.8,68.9c-0.3,0,0.5-1.6,0.5-1.8c0.2-0.7,0.4-1.3,0.6-2c0.1-0.4,0.1-0.5,0.6-0.5c0.6,0,0.5,0.2,0.7,0.7
	c0.1,0.4,0.2,0.7-0.1,1c-0.4,0.3-0.7,0.4-0.5,0.8C41.1,67.9,39.6,68.9,38.8,68.9z M40.3,64.9c-0.3,1.2-0.7,2.5-1.2,3.6
	c0.4-0.1,1.6-0.7,1.3-1.2c-0.3-0.5-0.3-0.6,0.1-1c0.4-0.4,0.5-0.3,0.4-0.9C40.8,64.9,40.9,64.9,40.3,64.9L40.3,64.9z"/>
<path fill="#B5B5B6" d="M38.9,69.5c0.4,0,0.4,0.6,0,0.6C38.5,70.1,38.5,69.5,38.9,69.5z"/>
<path fill="#B5B5B6" d="M38.9,72.2c0.4,0,0.4,0.6,0,0.6C38.5,72.8,38.5,72.2,38.9,72.2z"/>
<path fill="#B5B5B6" d="M38.9,74.9c0.4,0,0.4,0.6,0,0.6C38.5,75.5,38.5,74.9,38.9,74.9z"/>
<g>
	<path fill="#B5B5B6" d="M41.6,68.4c-1.8,0-0.5,3.7,0.3,2.9c0.3-0.3,0.5-1,0.5-1.4C42.4,69.5,42.1,68.4,41.6,68.4
		C41.6,68.4,42,68.4,41.6,68.4z"/>
	<path fill="#E2E2E3" d="M42.4,69.8c0,0.4-0.2,1-0.4,1.3c-0.5,0.8-1-0.5-1-0.9c0-0.3,0-2.2,0.8-1.8C42.1,68.6,42.4,69.4,42.4,69.8z"
		/>
	<path fill="#3A3635" d="M41.3,64.3c-0.6-0.1,0,0.8,0,1c0.2,0.7,0.3,1.4,0.4,2.1c0,0.5-0.3,2,0.4,1.8C42.2,67.7,42.2,65.5,41.3,64.3
		z"/>
	<g>
		<path fill="#B5B5B6" d="M42.2,69c-1,0-1,1.9-0.3,1.9C42.9,70.8,42.9,68.9,42.2,69C42.1,69,42.4,69,42.2,69z"/>
		<path fill="#E2E2E3" d="M42.2,69c0.7,0,0.7,1.8,0.1,1.8C41.6,70.8,41.5,69,42.2,69z"/>
	</g>
	<path fill="#C9CACA" d="M35.3,72.2c-0.5-0.1,0.2-0.4,0.3-0.4c-0.9-0.7-1.5-4.3,0.4-4c1.9,0.1,0.9,2.8,0.6,3.9
		c0.4,0.1,0.7,0.5,0.2,0.4C36.3,72.1,35.8,72.3,35.3,72.2z M36,68.3c-1.4,0-0.7,3.1,0.2,3.4c0.5-0.4,0.5-1.4,0.5-2
		C36.8,68.9,36.8,68.4,36,68.3z"/>
	<path fill="#3A3635" d="M36.2,67.9c0.1-1,0-2.1,0.5-3c0-0.1,0.3-0.3,0.3-0.4c0.1-0.4-0.3-0.2-0.5,0c-0.5,0.6-0.6,1.6-0.6,2.4
		c0,0.3,0,0.7,0,1c-0.4,0-0.8,0.2-0.9,0.6c-0.2,0.5-0.3,0.9,0.3,0.8c-0.1-0.6,0.3-1.1,0.9-1c0.2,0,0.4,0.1,0.5,0.2
		c0.4,0.4-0.2,0.8,0.5,0.9C37.2,68.6,37,68,36.2,67.9C36.2,67.9,36.7,68,36.2,67.9z"/>
	<path fill="#8D8D8E" d="M37.4,72.1c-0.1,0.3-0.7,0.2-0.6-0.1C36.8,71.6,37.5,71.7,37.4,72.1z"/>
	<path fill="#8D8D8E" d="M35.5,72.1c-0.1,0.3-0.7,0.2-0.6-0.1C34.9,71.6,35.6,71.7,35.5,72.1z"/>
</g>
<path d="M36,43.9c-4.1-1.3-6.4,4.2-6.8,7.4c-0.1,1.2-0.1,2.4,0.2,3.6c0.2,0.6,0.4,1.2,0.6,1.7c0.2,0,0.7-0.3,0.9-0.4
	c0.3-0.1,0.5-2,0.6-2.3c0.9-2.8,2.9-6.9,6.4-6.7c3.2,0.2,5.6,4,7.1,6.5c0.7,1.2,1.2,2.2,1.5,3.6c0.4-0.2,0.7-0.4,0.9-0.8
	c0.3-0.7,0.6-1.5,0.8-2.3c0.7-3,0-6.1-1.9-8.5c-1.5-2-3.8-3-6.3-3C39.1,42.7,36.6,42.8,36,43.9z"/>
<path fill="#FFFFFF" stroke="#000000" stroke-width="0.25" stroke-miterlimit="10" d="M46.9,55.5c0,4-1.7,8.3-6,9.3
	c-4.2,1-8.1-1.1-9.5-5.2c-1.2-3.7-0.9-9,1.7-12.1c2.6-3.2,8-3.4,10.9-0.5C46.2,49.3,46.9,52.6,46.9,55.5z"/>
<path fill="#FFFFFF" d="M31.4,56.2c-0.6-1-1.9-0.9-2.2,0.3c-0.3,1.2,0.2,2.4,1.3,3c0.1,0.1,1.2,0.5,1.1,0.1c0-0.4-0.1-0.7-0.1-1.1
	C31.5,57.8,31.5,57,31.4,56.2z"/>
<path fill="#FFFFFF" d="M46.5,56.1c0.6-1,1.9-0.9,2.2,0.3c0.3,1.2-0.2,2.4-1.3,3c-0.1,0.1-1.2,0.5-1.1,0.1c0-0.4,0.1-0.7,0.1-1.1
	C46.3,57.6,46.4,56.8,46.5,56.1z"/>
<path d="M35,56.5c1.3,0,1.3,2.1,0,2.1C33.7,58.6,33.7,56.5,35,56.5z"/>
<path d="M42.7,56.5c1.3,0,1.3,2.1,0,2.1C41.4,58.6,41.4,56.5,42.7,56.5z"/>
<path d="M38.7,59.9c-0.2,0-0.9-0.5-0.8-0.7c0-0.1,0.5-1,0.7-1c0.4-0.1-0.3,0.9-0.3,1C38.3,59.2,39.2,59.9,38.7,59.9z"/>
<path d="M39,61.7c-0.5,0-1.2-0.1-1.6-0.3c-0.2-0.1,0-0.4,0.1-0.3c0.1,0.1,0.3,0.1,0.4,0.2c0.8,0.2,1.7,0.2,2.5-0.1
	c0.2-0.1,0.3,0.2,0.1,0.3C40.1,61.6,39.5,61.7,39,61.7z"/>
<path d="M41.7,54.3c-0.6,0-0.2-0.6,0.1-0.7c0.6-0.2,1.2-0.2,1.8-0.1c0.2,0,0.6,0.1,0.6,0.4c-0.1,0.4-0.8,0.1-1,0.1
	C42.7,54,42.2,54.3,41.7,54.3z"/>
<path d="M35.7,54c-0.4,0-0.8-0.2-1.1-0.3c-0.3,0-0.7,0-1,0.1c-0.4,0.1-0.5-0.5-0.2-0.6c0.6-0.2,1.3-0.1,2,0
	C35.8,53.4,36.5,54,35.7,54z"/>
<path d="M35.4,47.1c4.4,1.3,8.6,4.2,11.7,7.5c0.5-3.3-0.3-7.2-3.3-9.1c-2.8-1.7-7.1-1.8-9.8,0.1c-2.8,2-3.6,5.8-3.8,9
	c0.1,0,1-1.7,1.1-1.8C32.5,50.9,34,49,35.4,47.1z"/>
<path fill="#999999" d="M34.7,59.6c-1.2,0-2.5-0.8-2.5-2c0-1.3,1.3-2,2.5-2c1.2,0,2.5,0.8,2.5,2C37.2,58.8,35.9,59.6,34.7,59.6z
	 M34.7,55.8c-1,0-2.2,0.6-2.2,1.7c0,1.1,1.2,1.7,2.2,1.7s2.2-0.6,2.2-1.7C36.9,56.4,35.7,55.8,34.7,55.8z"/>
<path fill="#999999" d="M32.5,56.8c-0.3,0-0.8-0.5-1.1-0.7c0,0-1.1-0.6-0.6-0.7c0.3-0.1,0.9,0.5,1.1,0.7
	C31.9,56.1,33,56.8,32.5,56.8z"/>
<path fill="#999999" d="M43,59.6c-1.2,0-2.5-0.8-2.5-2c0-1.3,1.3-2,2.5-2c1.2,0,2.5,0.8,2.5,2C45.5,58.8,44.2,59.6,43,59.6z
	 M43,55.8c-1,0-2.2,0.6-2.2,1.7c0,1.1,1.2,1.7,2.2,1.7s2.2-0.6,2.2-1.7C45.2,56.4,44,55.8,43,55.8z"/>
<path fill="#999999" d="M45.2,56.8c-0.5,0,0.6-0.7,0.6-0.7c0.2-0.1,0.9-0.7,1.1-0.7c0.5,0.1-0.6,0.7-0.6,0.7
	C46,56.3,45.5,56.8,45.2,56.8z"/>
<path fill="#999999" d="M40.6,57.2c-0.4,0-1-0.2-1.4-0.3c-0.4,0-0.9,0-1.3,0.1c-0.1,0-1.1,0.4-1,0c0.1-0.3,1-0.3,1.2-0.4
	c0.5-0.1,1,0,1.4,0c0.4,0.1,0.7,0.1,1.1,0.2C40.8,57,40.8,57.2,40.6,57.2z"/>
<path fill="#DCDDDD" d="M33.5,60.1c1.1,0,1.1,0.9,0,0.9C32.5,60.9,32.5,60.1,33.5,60.1z"/>
<path fill="#DCDDDD" d="M44,60.2c1.1,0,1.1,0.9,0,0.9S42.9,60.2,44,60.2z"/>
</svg>
