<?xml version="1.0" encoding="utf-8"?>
<!-- Generator: Adobe Illustrator 17.0.1, SVG Export Plug-In . SVG Version: 6.00 Build 0)  -->
<!DOCTYPE svg PUBLIC "-//W3C//DTD SVG 1.1//EN" "http://www.w3.org/Graphics/SVG/1.1/DTD/svg11.dtd">
<svg version="1.1" id="レイヤー_1" xmlns="http://www.w3.org/2000/svg" xmlns:xlink="http://www.w3.org/1999/xlink" x="0px"
	 y="0px" width="841.89px" height="595.28px" viewBox="0 0 841.89 595.28" enable-background="new 0 0 841.89 595.28"
	 xml:space="preserve">
<rect x="349.853" y="226.896" fill="#FFFFFF" stroke="#A660A3" stroke-width="2" stroke-miterlimit="10" width="141.732" height="141.732"/>
<ellipse fill="#FFFFFF" cx="376.848" cy="271.569" rx="3.942" ry="3.392"/>
<path fill="#9FA0A0" d="M362.09,256.605c0,0-3.369,4.813-2.681,8.044c0.688,3.231,2.887,5.637,5.362,7.837
	c2.475,2.2,3.297,3.334,3.297,3.334l6.466-5.396L362.09,256.605z"/>
<path fill="#9FA0A0" d="M388.558,266.642l-9.487,3.781l6.05,5.638c0,0,1.031,0.688,3.231-0.55L388.558,266.642z"/>
<path fill="#B3B3B4" d="M394.402,241.343c0,0,2.475,1.65,3.094,6.325c0.619,4.675-0.067,5.501-0.756,8.181
	c-0.619,2.406-0.55,3.575,0.344,5.775c0.344,0.137,2.337,3.987,3.094,5.431c0.756,1.444,0.138,3.85-1.788,4.4
	c-2.571,0.735-3.3,3.231-1.856,4.332c0,0-3.3,0.412-3.163-3.713c0.138-4.125,2.475-6.394,2.475-6.394s-1.856-7.494-1.306-11.207
	C395.09,250.761,394.402,241.343,394.402,241.343z"/>
<path fill="#B9BABA" d="M356.452,262.38c0,0-0.068,1.169-1.443,2.613c-1.375,1.444-2.131,4.056-0.55,5.913
	c1.582,1.856,5.5,1.375,7.082,2.819c1.581,1.443,2.887,3.506,0.55,5.362c0,0,5.225-1.925,5.569-4.675s-3.3-4.469-6.119-6.119
	C358.721,266.642,356.452,262.38,356.452,262.38z"/>
<path d="M384.065,303.315c0.122,0.138,0.27,0.358,0.275,0.589c0,1.545-2.189,3.756-3.625,3.492
	c-0.671-0.126-0.622-0.995-0.379-1.886h0.005c0,0,1.447,1.567,3.718-2.189L384.065,303.315z"/>
<path fill="#FFFFFF" stroke="#000000" stroke-width="0.5" stroke-miterlimit="10" d="M384.065,303.315l-0.005,0.005
	c-2.271,3.756-3.718,2.189-3.718,2.189h-0.005c0.258-0.974,0.742-1.975,0.765-2.079l-3.416-7.964v-0.011
	c1.331,0,2.695-0.022,3.987-0.083c0.071,0.236,1.832,6.341,2.25,7.793C383.922,303.167,383.988,303.222,384.065,303.315z"/>
<path d="M376.442,303.888c0.374,1.357-2.558,3.772-4.12,3.371c-0.858-0.22-0.446-1.127,0.094-1.902l0.011,0.011
	c0,0,0.501,1.59,3.993-1.479H376.442z"/>
<path fill="#FFFFFF" stroke="#000000" stroke-width="0.5" stroke-miterlimit="10" d="M376.442,303.888h-0.022
	c-3.493,3.069-3.993,1.479-3.993,1.479l-0.011-0.011c0.44-0.627,0.968-1.167,0.968-1.167l-1.655-8.855v-0.021
	c1.045,0.049,2.397,0.094,3.889,0.121v0.022C375.617,295.456,376.139,302.804,376.442,303.888z"/>
<path fill="#D3D3D4" d="M382.868,284.055c-0.413-2.154-0.184-1.971,0.366-6.508c0.55-4.538-1.466-6.004-1.466-6.004l-1.627-0.791
	c0,0-0.388,2.848-3.3,2.895c-2.912-0.046-3.3-2.895-3.3-2.895l-1.627,0.791c0,0-2.016,1.467-1.466,6.004
	c0.55,4.538,0.779,4.354,0.366,6.508s-3.896,14.575-3.896,14.575s1.157-0.275,1.982,0.068c0.825,0.344,1.616,0.722,2.544,0.894
	c0.928,0.172,2.234-0.275,3.128-0.619c1.01-0.389,1.752-0.439,2.269-0.467c0.517,0.028,1.259,0.079,2.269,0.467
	c0.894,0.344,2.2,0.791,3.128,0.619c0.928-0.172,1.719-0.55,2.544-0.894c0.825-0.344,1.982-0.068,1.982-0.068
	S383.28,286.209,382.868,284.055z"/>
<g>
	<g>
		<defs>
			<path id="SVGID_1_" d="M382.868,284.055c-0.413-2.154-0.184-1.971,0.366-6.508c0.55-4.538-1.466-6.004-1.466-6.004l-1.627-0.791
				c0,0-0.388,2.848-3.3,2.895c-2.912-0.046-3.3-2.895-3.3-2.895l-1.627,0.791c0,0-2.016,1.467-1.466,6.004
				c0.55,4.538,0.779,4.354,0.366,6.508s-3.896,14.575-3.896,14.575s1.157-0.275,1.982,0.068c0.825,0.344,1.616,0.722,2.544,0.894
				c0.928,0.172,2.234-0.275,3.128-0.619c1.01-0.389,1.752-0.439,2.269-0.467c0.517,0.028,1.259,0.079,2.269,0.467
				c0.894,0.344,2.2,0.791,3.128,0.619c0.928-0.172,1.719-0.55,2.544-0.894c0.825-0.344,1.982-0.068,1.982-0.068
				S383.28,286.209,382.868,284.055z"/>
		</defs>
		<clipPath id="SVGID_2_">
			<use xlink:href="#SVGID_1_"  overflow="visible"/>
		</clipPath>
		<g clip-path="url(#SVGID_2_)">
			<g>
				<circle fill="#FFFFFF" cx="384.065" cy="274.756" r="0.378"/>
				<circle fill="#FFFFFF" cx="385.269" cy="276.016" r="0.378"/>
				<circle fill="#FFFFFF" cx="384.065" cy="277.277" r="0.378"/>
				<circle fill="#FFFFFF" cx="385.269" cy="278.537" r="0.378"/>
				<circle fill="#FFFFFF" cx="384.065" cy="279.797" r="0.378"/>
				<circle fill="#FFFFFF" cx="385.269" cy="281.058" r="0.378"/>
				<circle fill="#FFFFFF" cx="384.065" cy="282.318" r="0.378"/>
				<circle fill="#FFFFFF" cx="385.269" cy="283.578" r="0.378"/>
				<circle fill="#FFFFFF" cx="384.065" cy="284.839" r="0.378"/>
				<circle fill="#FFFFFF" cx="385.269" cy="286.099" r="0.378"/>
				<circle fill="#FFFFFF" cx="384.065" cy="287.359" r="0.378"/>
				<circle fill="#FFFFFF" cx="385.269" cy="288.62" r="0.378"/>
				<circle fill="#FFFFFF" cx="384.065" cy="289.88" r="0.378"/>
				<circle fill="#FFFFFF" cx="385.269" cy="291.141" r="0.378"/>
				<circle fill="#FFFFFF" cx="384.065" cy="292.401" r="0.378"/>
				<circle fill="#FFFFFF" cx="385.269" cy="293.661" r="0.378"/>
				<circle fill="#FFFFFF" cx="384.065" cy="294.921" r="0.378"/>
				<circle fill="#FFFFFF" cx="385.269" cy="296.182" r="0.378"/>
				<circle fill="#FFFFFF" cx="384.065" cy="297.442" r="0.378"/>
				<circle fill="#FFFFFF" cx="385.269" cy="298.702" r="0.378"/>
			</g>
			<g>
				<circle fill="#FFFFFF" cx="381.545" cy="274.756" r="0.378"/>
				<circle fill="#FFFFFF" cx="382.749" cy="276.016" r="0.378"/>
				<circle fill="#FFFFFF" cx="381.545" cy="277.277" r="0.378"/>
				<circle fill="#FFFFFF" cx="382.749" cy="278.537" r="0.378"/>
				<circle fill="#FFFFFF" cx="381.545" cy="279.797" r="0.378"/>
				<circle fill="#FFFFFF" cx="382.749" cy="281.058" r="0.378"/>
				<circle fill="#FFFFFF" cx="381.545" cy="282.318" r="0.378"/>
				<circle fill="#FFFFFF" cx="382.749" cy="283.578" r="0.378"/>
				<circle fill="#FFFFFF" cx="381.545" cy="284.839" r="0.378"/>
				<circle fill="#FFFFFF" cx="382.749" cy="286.099" r="0.378"/>
				<circle fill="#FFFFFF" cx="381.545" cy="287.359" r="0.378"/>
				<circle fill="#FFFFFF" cx="382.749" cy="288.62" r="0.378"/>
				<circle fill="#FFFFFF" cx="381.545" cy="289.88" r="0.378"/>
				<circle fill="#FFFFFF" cx="382.749" cy="291.141" r="0.378"/>
				<circle fill="#FFFFFF" cx="381.545" cy="292.401" r="0.378"/>
				<circle fill="#FFFFFF" cx="382.749" cy="293.661" r="0.378"/>
				<circle fill="#FFFFFF" cx="381.545" cy="294.921" r="0.378"/>
				<circle fill="#FFFFFF" cx="382.749" cy="296.182" r="0.378"/>
				<circle fill="#FFFFFF" cx="381.545" cy="297.442" r="0.378"/>
				<circle fill="#FFFFFF" cx="382.749" cy="298.702" r="0.378"/>
			</g>
			<g>
				<circle fill="#FFFFFF" cx="379.024" cy="274.756" r="0.378"/>
				<circle fill="#FFFFFF" cx="380.228" cy="276.016" r="0.378"/>
				<circle fill="#FFFFFF" cx="379.024" cy="277.277" r="0.378"/>
				<circle fill="#FFFFFF" cx="380.228" cy="278.537" r="0.378"/>
				<circle fill="#FFFFFF" cx="379.024" cy="279.797" r="0.378"/>
				<circle fill="#FFFFFF" cx="380.228" cy="281.058" r="0.378"/>
				<circle fill="#FFFFFF" cx="379.024" cy="282.318" r="0.378"/>
				<circle fill="#FFFFFF" cx="380.228" cy="283.578" r="0.378"/>
				<circle fill="#FFFFFF" cx="379.024" cy="284.839" r="0.378"/>
				<circle fill="#FFFFFF" cx="380.228" cy="286.099" r="0.378"/>
				<circle fill="#FFFFFF" cx="379.024" cy="287.359" r="0.378"/>
				<circle fill="#FFFFFF" cx="380.228" cy="288.62" r="0.378"/>
				<circle fill="#FFFFFF" cx="379.024" cy="289.88" r="0.378"/>
				<circle fill="#FFFFFF" cx="380.228" cy="291.141" r="0.378"/>
				<circle fill="#FFFFFF" cx="379.024" cy="292.401" r="0.378"/>
				<circle fill="#FFFFFF" cx="380.228" cy="293.661" r="0.378"/>
				<circle fill="#FFFFFF" cx="379.024" cy="294.921" r="0.378"/>
				<circle fill="#FFFFFF" cx="380.228" cy="296.182" r="0.378"/>
				<circle fill="#FFFFFF" cx="379.024" cy="297.442" r="0.378"/>
				<circle fill="#FFFFFF" cx="380.228" cy="298.702" r="0.378"/>
			</g>
			<g>
				<circle fill="#FFFFFF" cx="376.503" cy="274.756" r="0.378"/>
				<circle fill="#FFFFFF" cx="377.707" cy="276.016" r="0.378"/>
				<circle fill="#FFFFFF" cx="376.503" cy="277.277" r="0.378"/>
				<circle fill="#FFFFFF" cx="377.707" cy="278.537" r="0.378"/>
				<circle fill="#FFFFFF" cx="376.503" cy="279.797" r="0.378"/>
				<circle fill="#FFFFFF" cx="377.707" cy="281.058" r="0.378"/>
				<circle fill="#FFFFFF" cx="376.503" cy="282.318" r="0.378"/>
				<circle fill="#FFFFFF" cx="377.707" cy="283.578" r="0.378"/>
				<circle fill="#FFFFFF" cx="376.503" cy="284.839" r="0.378"/>
				<circle fill="#FFFFFF" cx="377.707" cy="286.099" r="0.378"/>
				<circle fill="#FFFFFF" cx="376.503" cy="287.359" r="0.378"/>
				<circle fill="#FFFFFF" cx="377.707" cy="288.62" r="0.378"/>
				<circle fill="#FFFFFF" cx="376.503" cy="289.88" r="0.378"/>
				<circle fill="#FFFFFF" cx="377.707" cy="291.141" r="0.378"/>
				<circle fill="#FFFFFF" cx="376.503" cy="292.401" r="0.378"/>
				<circle fill="#FFFFFF" cx="377.707" cy="293.661" r="0.378"/>
				<circle fill="#FFFFFF" cx="376.503" cy="294.921" r="0.378"/>
				<circle fill="#FFFFFF" cx="377.707" cy="296.182" r="0.378"/>
				<circle fill="#FFFFFF" cx="376.503" cy="297.442" r="0.378"/>
				<circle fill="#FFFFFF" cx="377.707" cy="298.702" r="0.378"/>
			</g>
			<g>
				<circle fill="#FFFFFF" cx="373.983" cy="274.756" r="0.378"/>
				<circle fill="#FFFFFF" cx="375.187" cy="276.016" r="0.378"/>
				<circle fill="#FFFFFF" cx="373.983" cy="277.277" r="0.378"/>
				<circle fill="#FFFFFF" cx="375.187" cy="278.537" r="0.378"/>
				<circle fill="#FFFFFF" cx="373.983" cy="279.797" r="0.378"/>
				<circle fill="#FFFFFF" cx="375.187" cy="281.058" r="0.378"/>
				<circle fill="#FFFFFF" cx="373.983" cy="282.318" r="0.378"/>
				<circle fill="#FFFFFF" cx="375.187" cy="283.578" r="0.378"/>
				<circle fill="#FFFFFF" cx="373.983" cy="284.839" r="0.378"/>
				<circle fill="#FFFFFF" cx="375.187" cy="286.099" r="0.378"/>
				<circle fill="#FFFFFF" cx="373.983" cy="287.359" r="0.378"/>
				<circle fill="#FFFFFF" cx="375.187" cy="288.62" r="0.378"/>
				<circle fill="#FFFFFF" cx="373.983" cy="289.88" r="0.378"/>
				<circle fill="#FFFFFF" cx="375.187" cy="291.141" r="0.378"/>
				<circle fill="#FFFFFF" cx="373.983" cy="292.401" r="0.378"/>
				<circle fill="#FFFFFF" cx="375.187" cy="293.661" r="0.378"/>
				<circle fill="#FFFFFF" cx="373.983" cy="294.921" r="0.378"/>
				<circle fill="#FFFFFF" cx="375.187" cy="296.182" r="0.378"/>
				<circle fill="#FFFFFF" cx="373.983" cy="297.442" r="0.378"/>
				<circle fill="#FFFFFF" cx="375.187" cy="298.702" r="0.378"/>
			</g>
			<g>
				<circle fill="#FFFFFF" cx="371.462" cy="274.756" r="0.378"/>
				<circle fill="#FFFFFF" cx="372.666" cy="276.016" r="0.378"/>
				<circle fill="#FFFFFF" cx="371.462" cy="277.277" r="0.378"/>
				<circle fill="#FFFFFF" cx="372.666" cy="278.537" r="0.378"/>
				<circle fill="#FFFFFF" cx="371.462" cy="279.797" r="0.378"/>
				<circle fill="#FFFFFF" cx="372.666" cy="281.058" r="0.378"/>
				<circle fill="#FFFFFF" cx="371.462" cy="282.318" r="0.378"/>
				<circle fill="#FFFFFF" cx="372.666" cy="283.578" r="0.378"/>
				<circle fill="#FFFFFF" cx="371.462" cy="284.839" r="0.378"/>
				<circle fill="#FFFFFF" cx="372.666" cy="286.099" r="0.378"/>
				<circle fill="#FFFFFF" cx="371.462" cy="287.359" r="0.378"/>
				<circle fill="#FFFFFF" cx="372.666" cy="288.62" r="0.378"/>
				<circle fill="#FFFFFF" cx="371.462" cy="289.88" r="0.378"/>
				<circle fill="#FFFFFF" cx="372.666" cy="291.141" r="0.378"/>
				<circle fill="#FFFFFF" cx="371.462" cy="292.401" r="0.378"/>
				<circle fill="#FFFFFF" cx="372.666" cy="293.661" r="0.378"/>
				<circle fill="#FFFFFF" cx="371.462" cy="294.921" r="0.378"/>
				<circle fill="#FFFFFF" cx="372.666" cy="296.182" r="0.378"/>
				<circle fill="#FFFFFF" cx="371.462" cy="297.442" r="0.378"/>
				<circle fill="#FFFFFF" cx="372.666" cy="298.702" r="0.378"/>
			</g>
			<g>
				<circle fill="#FFFFFF" cx="368.941" cy="274.756" r="0.378"/>
				<circle fill="#FFFFFF" cx="370.145" cy="276.016" r="0.378"/>
				<circle fill="#FFFFFF" cx="368.941" cy="277.277" r="0.378"/>
				<circle fill="#FFFFFF" cx="370.145" cy="278.537" r="0.378"/>
				<circle fill="#FFFFFF" cx="368.941" cy="279.797" r="0.378"/>
				<circle fill="#FFFFFF" cx="370.145" cy="281.058" r="0.378"/>
				<circle fill="#FFFFFF" cx="368.941" cy="282.318" r="0.378"/>
				<circle fill="#FFFFFF" cx="370.145" cy="283.578" r="0.378"/>
				<circle fill="#FFFFFF" cx="368.941" cy="284.839" r="0.378"/>
				<circle fill="#FFFFFF" cx="370.145" cy="286.099" r="0.378"/>
				<circle fill="#FFFFFF" cx="368.941" cy="287.359" r="0.378"/>
				<circle fill="#FFFFFF" cx="370.145" cy="288.62" r="0.378"/>
				<circle fill="#FFFFFF" cx="368.941" cy="289.88" r="0.378"/>
				<circle fill="#FFFFFF" cx="370.145" cy="291.141" r="0.378"/>
				<circle fill="#FFFFFF" cx="368.941" cy="292.401" r="0.378"/>
				<circle fill="#FFFFFF" cx="370.145" cy="293.661" r="0.378"/>
				<circle fill="#FFFFFF" cx="368.941" cy="294.921" r="0.378"/>
				<circle fill="#FFFFFF" cx="370.145" cy="296.182" r="0.378"/>
				<circle fill="#FFFFFF" cx="368.941" cy="297.442" r="0.378"/>
				<circle fill="#FFFFFF" cx="370.145" cy="298.702" r="0.378"/>
			</g>
		</g>
	</g>
</g>
<path fill="#FFFFFF" stroke="#000000" stroke-width="0.5" stroke-miterlimit="10" d="M366.315,284.757c0,0-0.825,1.031-0.791,1.856
	c0.035,0.825,0.241,1.238,1.135,1.375c0.871,0.134,2.475-0.688,2.303-2.681L366.315,284.757z"/>
<path fill="#D1D1D2" d="M370.508,271.523c0,0-1.254,0.344-1.719,1.65c-0.4,1.127-2.853,10.313-2.99,11.791
	c0,0,2.097,0.756,3.609,0.653l1.271-6.634L370.508,271.523z"/>
<path fill="#FFFFFF" d="M370.508,271.523l-0.005,0.001c-1.301,2.878-1.95,5.803-0.145,9.136l0.322-1.678L370.508,271.523z"/>
<path fill="#D1D1D2" d="M375.364,274.049c-1.651-0.719-2.073-1.756-2.35-3.469c-0.643,0.187-2.149,0.646-2.643,1.029
	c-0.59,0.457-1.12,4.696-0.405,6.808c1.128,3.336,0.554,4.22,0.188,6.1c0,0,2.391,0.775,4.935,0.363
	C375.281,280.926,375.589,277.969,375.364,274.049z"/>
<path fill="#FFFFFF" stroke="#000000" stroke-width="0.5" stroke-miterlimit="10" d="M387.436,284.757c0,0,0.825,1.031,0.791,1.856
	c-0.034,0.825-0.241,1.238-1.134,1.375c-0.871,0.134-2.475-0.688-2.303-2.681L387.436,284.757z"/>
<path fill="#D1D1D2" d="M383.242,271.523c0,0,1.255,0.344,1.719,1.65c0.401,1.127,2.853,10.313,2.991,11.791
	c0,0-2.097,0.756-3.609,0.653l-1.272-6.634L383.242,271.523z"/>
<path fill="#FFFFFF" d="M383.242,271.523l0.005,0.001c1.301,2.878,1.95,5.803,0.145,9.136l-0.322-1.678L383.242,271.523z"/>
<path fill="#D1D1D2" d="M378.386,274.049c1.651-0.719,2.073-1.756,2.35-3.469c0.642,0.187,2.149,0.646,2.643,1.029
	c0.59,0.457,1.119,4.696,0.405,6.808c-1.128,3.336-0.554,4.22-0.188,6.1c0,0-2.391,0.775-4.934,0.363
	C378.469,280.926,378.161,277.969,378.386,274.049z"/>
<g>
	<path fill="#FFFFFF" d="M378.692,274.632c0.131,0.607,0.649,1.361,0.906,1.599c0.494,0.462,1.241-0.972,1.042-1.492
		c-0.208-0.54-1.489-0.782-1.782-0.609C378.694,274.225,378.627,274.333,378.692,274.632z"/>
	<path fill="#FFFFFF" d="M382.283,273.311c0.314,0.537,0.429,1.367,0.369,1.716c-0.124,0.718-1.61,0.099-1.883-0.387
		c-0.041-0.073,0.321-1.872,0.996-1.799C381.949,272.858,382.128,273.049,382.283,273.311z"/>
	
		<rect x="380.338" y="274.046" transform="matrix(0.9317 -0.3632 0.3632 0.9317 -73.759 157.0396)" fill="#5EC5F2" width="0.823" height="1.256"/>
</g>
<path fill="#C9CACA" d="M381.683,235.567c0,0,4.538-2.337,9.419,1.925c4.881,4.262,5.087,7.081,5.019,9.969
	c-0.069,2.887-0.957,5.568-0.825,8.594c0.069,1.581,0.703,2.966,2.75,6.256c1.925,3.094,1.513,6.462-1.787,8.387
	c-2.521,1.47-2.957,4.538-1.582,6.463c0,0-3.85-0.55-4.331-3.644c-0.481-3.094,1.375-5.569,2.2-6.875
	c0.825-1.306,0.688-7.563,0.619-7.837c-0.069-0.275-1.582-11.069-1.582-11.069l-2.475-5.638c0,0-3.918-5.019-8.112-3.3
	c0,0-3.231-4.125-9.487-1.375c-6.256,2.75-8.731,7.219-8.938,13.2c-0.207,5.981-1.238,6.737-3.369,8.8l-1.1,1.994
	c0,0,0.275-0.069-0.55-5.362c-0.825-5.294-0.413-15.263,7.975-19.525C373.915,232.267,377.077,233.23,381.683,235.567z"/>
<path fill="#FFFFFF" stroke="#000000" stroke-width="0.25" stroke-miterlimit="10" d="M392.985,255.48
	c0,8.961-5.045,16.225-15.813,16.225c-10.591,0-15.813-7.264-15.813-16.225c0-8.961,7.08-16.225,15.813-16.225
	C385.906,239.255,392.985,246.519,392.985,255.48z"/>
<circle cx="368.598" cy="259.286" r="1.925"/>
<circle cx="385.923" cy="259.286" r="1.925"/>
<path d="M366.398,254.336c-0.06,0-0.121-0.02-0.172-0.061c-0.118-0.095-0.137-0.267-0.043-0.386
	c0.031-0.039,0.784-0.964,1.979-1.093c0.765-0.083,1.525,0.179,2.26,0.776c0.118,0.096,0.136,0.269,0.04,0.387
	c-0.096,0.118-0.269,0.136-0.387,0.04c-0.615-0.5-1.238-0.721-1.849-0.656c-0.965,0.101-1.607,0.883-1.613,0.89
	C366.558,254.301,366.478,254.336,366.398,254.336L366.398,254.336z"/>
<path d="M388.123,254.336c-0.081,0-0.16-0.035-0.215-0.103l0,0c-0.006-0.008-0.648-0.789-1.614-0.89
	c-0.611-0.064-1.234,0.157-1.849,0.656c-0.118,0.096-0.292,0.078-0.387-0.04c-0.096-0.118-0.078-0.291,0.04-0.387
	c0.735-0.597,1.497-0.857,2.26-0.776c1.195,0.128,1.947,1.053,1.979,1.093c0.095,0.119,0.075,0.292-0.043,0.386
	C388.244,254.317,388.183,254.336,388.123,254.336L388.123,254.336z"/>
<path d="M376.297,263.091c-0.057,0-0.115-0.018-0.165-0.055l-1.1-0.825c-0.116-0.087-0.144-0.249-0.065-0.37l1.031-1.581
	c0.083-0.127,0.253-0.163,0.381-0.08c0.127,0.083,0.163,0.253,0.08,0.381l-0.891,1.365l0.894,0.671
	c0.121,0.091,0.146,0.264,0.055,0.385C376.464,263.053,376.381,263.091,376.297,263.091L376.297,263.091z"/>
<path fill="#595757" d="M376.839,266.113c-1.717,0-3.044-0.879-3.064-0.893c-0.189-0.128-0.238-0.384-0.11-0.573
	c0.128-0.188,0.384-0.238,0.573-0.11c0.112,0.075,2.638,1.728,5.02-0.079c0.181-0.137,0.44-0.102,0.578,0.079
	c0.138,0.181,0.102,0.44-0.079,0.578C378.766,265.866,377.748,266.113,376.839,266.113L376.839,266.113z"/>
<path d="M367.864,258.141c-0.06,0-0.121-0.02-0.172-0.06c-0.512-0.409-0.806-1.186-0.819-1.219c-0.053-0.142,0.019-0.3,0.161-0.354
	c0.142-0.053,0.301,0.019,0.354,0.161c0.003,0.007,0.255,0.669,0.647,0.982c0.119,0.095,0.138,0.268,0.043,0.386
	C368.025,258.105,367.945,258.141,367.864,258.141L367.864,258.141z"/>
<path d="M387.114,258.141c-0.081,0-0.161-0.035-0.215-0.103c-0.095-0.119-0.075-0.292,0.043-0.386
	c0.368-0.294,0.449-0.652,0.453-0.667c0.032-0.147,0.176-0.242,0.325-0.211c0.148,0.031,0.243,0.174,0.213,0.322
	c-0.004,0.023-0.118,0.562-0.648,0.986C387.235,258.121,387.174,258.141,387.114,258.141L387.114,258.141z"/>
<ellipse fill="#DCDDDD" cx="366.379" cy="264.144" rx="1.65" ry="0.825"/>
<ellipse fill="#DCDDDD" cx="387.829" cy="264.144" rx="1.65" ry="0.825"/>
<path fill="#B3B3B4" d="M381.271,237.973c0,0-1.031-3.438-6.806-2.681c-5.775,0.756-9.831,3.231-12.306,8.181
	c-2.383,4.766,1.168,7.494-1.444,10.932c-2.612,3.438-4.653,4.571-5.225,9.144c-0.413,3.3,2.544,5.775,6.394,6.737
	c0,0-3.713-5.087-2.75-8.594c0.962-3.506,1.102-3.192,2.475-4.95c1.381-1.769,2.406-5.156,2.682-7.975
	c0.275-2.819,2.063-6.737,3.85-7.906c1.788-1.169,6.944-3.231,8.663-2.475s3.506,2.819,3.506,2.819s5.431-3.231,7.494,1.031
	s2.063,5.913,1.513,9.006c-0.55,3.094,0.825,3.506,1.65,7.219c0.825,3.712,1.581,4.469-0.55,6.462
	c-2.131,1.994-3.988,3.369-3.85,5.638c0.137,2.269,0.413,2.2,1.375,3.85c0.962,1.65,0.825,2.131,0.825,2.131s2.2,0.207,1.856-2.887
	c0-2.682-0.206-3.644,2.819-4.744c3.025-1.1,4.469-3.85,2.956-7.356c-1.512-3.506-3.231-5.087-2.612-9.281
	c0.619-4.194,1.031-7.082-0.688-10.931C391.437,237.626,385.396,234.674,381.271,237.973z"/>
<path fill="#B5B5B6" d="M367.865,243.932c0,0,4.125-3.14,11.894-1.146c0,0,4.056-0.756,7.769,1.559c0,0,0.275-3.758-6.737-3.804
	c0,0-2.43-2.292-7.242-1.146C368.735,240.54,367.865,243.932,367.865,243.932z"/>
<path fill="#C9CACA" d="M388.077,278.261c0.344-3.094-0.962-3.506-2.063-4.813c-1.823-2.166,0.138-4.95,2.888-7.975
	c2.75-3.025,2.337-4.95,1.65-7.012s-2.2-3.3-2.2-6.05s0.825-4.675-1.65-8.938c-2.475-4.262-6.943-0.688-6.943-0.688
	s-1.169-3.85-6.256-2.337c-5.087,1.513-8.113,6.738-8.388,10.038s-0.825,4.813-2.337,6.737c-1.513,1.925-3.163,5.5-1.925,9.075
	c1.237,3.575,3.3,2.888,3.438,5.913c0.137,3.025-2.338,3.575-2.338,3.575s2.475-2.2-0.825-5.638c-3.3-3.438-5.5-6.325-1.925-10.725
	c3.575-4.4,4.4-5.225,4.125-8.937c-0.275-3.712,0-6.875,4.125-10.313s10.45-4.881,13.2-0.756c0,0,6.737-2.543,8.8,3.506
	s0.138,7.7,0.275,10.313c0.137,2.612,1.787,2.75,3.025,5.5c1.237,2.75,0.688,5.225-2.888,7.975c-3.575,2.75-3.3,5.019-2.063,6.462
	c0,0,2.681,2.888,1.1,4.332L388.077,278.261z"/>
<path fill="#9FA0A0" d="M384.002,241.002c-0.654,0.1-1.844,1.08-2.271,1.555c-0.039,0.042-0.056,0.095-0.063,0.147
	c0.221-0.013,0.443-0.004,0.66,0.027c0.501-0.483,1.369-1.126,1.757-1.186c0.15-0.022,0.253-0.163,0.23-0.313
	C384.292,241.082,384.155,240.982,384.002,241.002z"/>
<path fill="#9FA0A0" d="M385.713,241.706c-0.065-0.138-0.229-0.196-0.366-0.13c-0.903,0.428-1.606,1.124-1.635,1.154
	c-0.045,0.044-0.066,0.102-0.073,0.16c0.015,0,0.028-0.004,0.043-0.001c0.178,0.031,0.361,0.067,0.54,0.118
	c0.221-0.2,0.739-0.639,1.36-0.933C385.72,242.007,385.778,241.843,385.713,241.706z"/>
<path fill="#9FA0A0" d="M386.683,242.598c-0.076-0.132-0.246-0.177-0.375-0.102l-0.962,0.55c-0.084,0.048-0.128,0.134-0.133,0.225
	l0.549,0.171l0.82-0.468C386.713,242.898,386.759,242.73,386.683,242.598z"/>
<path fill="#9FA0A0" d="M377.985,242.424c0.012-0.061,0.007-0.125-0.026-0.184c-0.185-0.332-1.7-2.57-2.119-2.57
	c-0.152,0-0.275,0.123-0.275,0.275c0,0.115,0.07,0.213,0.17,0.254c0.218,0.176,1.14,1.326,1.618,2.1
	C377.565,242.318,377.778,242.359,377.985,242.424z"/>
<path fill="#9FA0A0" d="M375.822,242.141c0.02-0.06,0.023-0.126-0.002-0.19c-0.192-0.482-1.377-1.76-1.613-2.011
	c-0.104-0.111-0.278-0.116-0.388-0.012c-0.111,0.104-0.117,0.278-0.013,0.389c0.502,0.535,1.324,1.472,1.484,1.803
	C375.466,242.108,375.645,242.117,375.822,242.141z"/>
<path fill="#9FA0A0" d="M373.771,242.179c0.007-0.059,0.001-0.121-0.033-0.175c-0.143-0.239-1.004-1.221-1.176-1.416
	c-0.1-0.114-0.274-0.125-0.388-0.024c-0.115,0.1-0.125,0.274-0.025,0.388c0.35,0.397,0.912,1.051,1.076,1.277
	C373.407,242.204,373.588,242.185,373.771,242.179z"/>
<path fill="#FFFFFF" stroke="#000000" stroke-width="0.25" stroke-miterlimit="10" d="M478.165,284.578c0,0-0.035,1.856-0.516,2.578
	c-0.481,0.722-1.719,0.825-1.719,0.825s-1.134-1.547-0.035-3.403H478.165z"/>
<path fill="#BFC0C0" d="M475.275,270.193c0,0,1.365,0.144,2.008,1.381c0.641,1.238,2.2,7.792,2.246,13.017
	c0,0-2.017,0.642-3.85,0.229l-0.046-8.021L475.275,270.193z"/>
<path fill="#B5B5B6" d="M475.65,279.89c1.157-1.447,1.735-3.29,1.38-5.2c-0.293-1.586-0.678-2.826-1.438-4.233
	c-0.054-0.079-0.105-0.157-0.159-0.236c-0.098-0.021-0.159-0.028-0.159-0.028l0.357,6.606L475.65,279.89z"/>
<path fill="#BFC0C0" d="M462.112,274.507c0,0-9.236-3.208-9.167-5.133c0.069-1.925,1.123-6.715,1.123-6.715l4.056,1.352
	l-0.596,4.079l4.893,1.289L462.112,274.507z"/>
<path fill="#B5B5B6" d="M461.114,274.143c0.61,0.229,0.999,0.363,0.999,0.363l0.294-4.876
	C461.654,270.955,461.391,272.652,461.114,274.143z"/>
<g>
	<path fill="#F7D3BD" d="M465.378,295.372l1.271,6.841c0,0-1.237,2.543-0.412,3.231c0.825,0.688,2.956-1.306,3.024-2.543
		l-0.275-7.425L465.378,295.372z"/>
	<path d="M466.305,303.045c-0.291,0.806-0.585,1.968-0.067,2.399c0.825,0.688,2.956-1.306,3.024-2.543l-0.015-0.4
		C468.277,303.154,466.872,303.569,466.305,303.045z"/>
</g>
<g>
	<path fill="#FFFFFF" stroke="#000000" stroke-width="0.25" stroke-miterlimit="10" d="M473.284,295.372l-1.272,6.841
		c0,0,1.238,2.543,0.413,3.231c-0.825,0.688-2.956-1.306-3.025-2.543l0.275-7.425L473.284,295.372z"/>
	<path d="M472.357,303.045c0.292,0.806,0.585,1.968,0.068,2.399c-0.825,0.688-2.956-1.306-3.025-2.543l0.015-0.4
		C470.384,303.154,471.79,303.569,472.357,303.045z"/>
</g>
<path fill="#BFC0C0" d="M462.201,285.42c0,0-0.696,6.194,0.026,10.147c0,0,10.725,0.481,13.818-0.068c0,0,0.593-6.985-0.645-10.423
	c0,0-6.084-1.306-6.188-1.272C469.11,283.839,462.201,285.42,462.201,285.42z"/>
<path fill="#B5B5B6" d="M475.401,285.076c0,0-6.084-1.306-6.188-1.272c-0.103,0.035-7.012,1.616-7.012,1.616
	s-0.03,0.273-0.072,0.736c1.805,0.84,4.439,0.726,6.273-0.26c0.434-0.303,0.627-0.533,0.679-0.49
	c1.685,1.404,4.573,1.612,6.653,0.909C475.642,285.872,475.535,285.448,475.401,285.076z"/>
<path fill="#BFC0C0" d="M475.275,270.193c0,0-2.395-0.825-6.784-0.963l0.003,0.079c-3.174-0.079-5.925-0.486-5.925-0.486
	s-1.449,5.237-1.229,7.442c0.184,1.833,1.467,3.575,2.018,4.4l-1.502,4.961c0,0,4.435,1.914,7.184-1.02
	c2.75,2.933,6.875,1.009,6.875,1.009l-1.192-4.95c0.55-0.825,1.834-2.567,2.018-4.4C476.962,274.06,475.275,270.193,475.275,270.193
	z"/>
<path fill="#B5B5B6" d="M472.562,269.499l2.715,0.55c0,0,0.241,0.241-0.034,0.447l-2.991-0.309l-0.069-0.447L472.562,269.499z"/>
<path fill="#B5B5B6" d="M465.131,269.721l-2.72-0.53c0,0-0.314,0.131-0.14,0.427l2.882,0.856l0.234-0.387L465.131,269.721z"/>
<path fill="#FFFFFF" d="M465.962,269.144c0,0,0.985,6.708,2.83,7.746c0,0,2.206-1.765,2.756-7.574L465.962,269.144z"/>
<path fill="#807F80" d="M470.151,274.415l-0.825-2.612l0.688-0.849l-0.746-0.72h-1.027l-0.745,0.72l0.688,0.849l-0.825,2.612
	c0,0,0.649,2.192,1.384,2.463v0.012c0.004-0.001,0.02-0.001,0.024,0v-0.012C469.503,276.607,470.151,274.415,470.151,274.415z"/>
<path fill="#B5B5B6" d="M466.238,269.465c0,0,0.458,4.583,2.566,7.425c0,0-2.819-0.549-3.667-2.52l0.917-1.238l-1.651-1.1
	c0,0,0.459-1.65,0.917-2.567H466.238z"/>
<path fill="#B5B5B6" d="M471.359,269.465c0,0-0.458,4.583-2.567,7.425c0,0,2.819-0.549,3.667-2.52l-0.917-1.238l1.651-1.1
	c0,0-0.458-1.65-0.917-2.567H471.359z"/>
<circle fill="#FFFFFF" cx="468.812" cy="277.898" r="0.519"/>
<circle fill="#FFFFFF" cx="468.812" cy="280.399" r="0.519"/>
<circle fill="#FFFFFF" cx="468.812" cy="283.039" r="0.519"/>
<polygon fill="#B5B5B6" points="465.14,285.103 462.149,284.648 463.029,281.669 465.954,282.086 "/>
<polygon fill="#B5B5B6" points="472.696,285.035 475.687,284.58 475.037,281.852 472.112,282.27 "/>
<path fill="#B5B5B6" d="M475.656,277.605v-2.365h-3.045v2.407C472.61,277.647,474.043,279.016,475.656,277.605z"/>
<path fill="#B5B5B6" d="M465.123,277.605v-2.365h-3.045v2.407C462.078,277.647,463.511,279.016,465.123,277.605z"/>
<path fill="#FFFFFF" stroke="#000000" stroke-width="0.25" stroke-miterlimit="10" d="M484.079,254.009
	c0,8.961-5.046,16.225-15.813,16.225c-10.59,0-15.813-7.264-15.813-16.225c0-8.96,7.081-16.225,15.813-16.225
	C477,237.784,484.079,245.05,484.079,254.009z"/>
<circle cx="459.692" cy="257.817" r="1.925"/>
<circle cx="477.017" cy="257.817" r="1.925"/>
<path d="M457.492,252.867c-0.06,0-0.121-0.02-0.172-0.06c-0.119-0.095-0.138-0.268-0.043-0.387c0.031-0.039,0.784-0.964,1.979-1.093
	c0.765-0.081,1.525,0.179,2.259,0.776c0.118,0.096,0.136,0.269,0.04,0.387c-0.096,0.118-0.269,0.136-0.387,0.04
	c-0.617-0.501-1.24-0.722-1.854-0.656c-0.97,0.104-1.602,0.881-1.608,0.889C457.652,252.831,457.572,252.867,457.492,252.867
	L457.492,252.867z"/>
<path d="M479.217,252.867c-0.081,0-0.16-0.035-0.215-0.103l0,0c-0.006-0.008-0.649-0.79-1.614-0.89
	c-0.611-0.064-1.233,0.157-1.849,0.657c-0.117,0.096-0.291,0.078-0.387-0.04c-0.096-0.118-0.078-0.291,0.04-0.387
	c0.734-0.597,1.496-0.857,2.259-0.776c1.195,0.128,1.948,1.053,1.979,1.093c0.095,0.119,0.076,0.292-0.043,0.387
	C479.338,252.847,479.277,252.867,479.217,252.867L479.217,252.867z"/>
<path d="M467.392,261.62c-0.057,0-0.115-0.018-0.165-0.055l-1.1-0.825c-0.116-0.087-0.144-0.249-0.065-0.37l1.031-1.581
	c0.083-0.127,0.253-0.163,0.381-0.08c0.127,0.083,0.163,0.253,0.08,0.381l-0.891,1.365l0.894,0.671
	c0.121,0.091,0.146,0.264,0.055,0.385C467.558,261.582,467.476,261.62,467.392,261.62L467.392,261.62z"/>
<path fill="#727171" d="M467.734,264.683c-1.735,0-2.883-0.946-2.9-0.96c-0.174-0.147-0.196-0.407-0.048-0.581
	c0.147-0.173,0.406-0.196,0.581-0.049c0.094,0.078,2.199,1.778,5.003-0.117c0.189-0.128,0.445-0.078,0.573,0.111
	c0.127,0.189,0.078,0.445-0.111,0.573C469.692,264.429,468.634,264.683,467.734,264.683L467.734,264.683z"/>
<path d="M458.958,256.67c-0.06,0-0.121-0.02-0.172-0.06c-0.512-0.409-0.806-1.186-0.818-1.219c-0.053-0.142,0.019-0.3,0.161-0.354
	c0.142-0.053,0.301,0.019,0.354,0.161c0.002,0.007,0.254,0.668,0.646,0.982c0.119,0.095,0.138,0.268,0.043,0.386
	C459.119,256.635,459.039,256.67,458.958,256.67L458.958,256.67z"/>
<path d="M478.208,256.67c-0.081,0-0.161-0.035-0.215-0.103c-0.095-0.119-0.075-0.292,0.043-0.386c0.37-0.295,0.451-0.66,0.452-0.664
	c0.03-0.149,0.175-0.246,0.323-0.216c0.149,0.03,0.246,0.174,0.216,0.323c-0.005,0.023-0.117,0.562-0.648,0.986
	C478.329,256.651,478.268,256.67,478.208,256.67L478.208,256.67z"/>
<ellipse fill="#ACADAE" cx="458.94" cy="262.674" rx="1.649" ry="0.825"/>
<ellipse fill="#ACADAE" cx="477.915" cy="262.674" rx="1.649" ry="0.825"/>
<path d="M475.174,247.877c0,0,0.413,4.675,9.075,7.563c0,0,1.581-1.237,0.894-5.637c-0.688-4.4-3.094-5.5-3.094-5.5L475.174,247.877
	z"/>
<path fill="#FFFFFF" d="M483.424,255.44c0,0,0.275-1.65,2.337-0.825c2.063,0.825,0.499,6.98-3.438,6.325
	C481.5,260.802,481.637,257.915,483.424,255.44z"/>
<path d="M461.7,247.877c0,0-0.413,4.675-9.075,7.563c0,0-1.719-1.1-1.031-5.5c0.688-4.4,3.231-5.637,3.231-5.637L461.7,247.877z"/>
<path fill="#FFFFFF" d="M453.45,255.44c0,0-0.275-1.65-2.337-0.825c-2.063,0.825-0.498,6.98,3.438,6.325
	C455.375,260.802,455.237,257.915,453.45,255.44z"/>
<path fill="#BFC0C0" d="M468.987,249.061c8.8-0.166,16.638-3.43,16.638-3.43s0-3.438-0.413-4.262c-0.413-0.825-4.4-1.238-4.4-1.238
	l0.928,3.506c-3.215,2.146-11.331,4.224-13.096,4.66c-1.766-0.436-9.848-2.533-13.063-4.68l0.894-3.487c0,0-3.987,0.413-4.4,1.238
	c-0.413,0.825-0.413,4.262-0.413,4.262s7.837,3.264,16.638,3.43v0.008c0.115,0,0.572,0,0.687,0V249.061z"/>
<path fill="#595757" d="M453.53,242.964c0.59,0.462,1.889,0.943,1.961,0.984l0.258-0.222c-0.057-0.035-0.115-0.071-0.168-0.107
	l0.894-3.487c0,0-3.987,0.413-4.4,1.238c-0.02,0.039-0.037,0.088-0.055,0.138C452.254,242.117,453.023,242.566,453.53,242.964z"/>
<path fill="#595757" d="M480.743,244.423c1.254-0.602,2.166-0.989,2.991-1.547c0.567-0.383,1.382-0.843,1.478-1.506c0,0,0,0,0-0.001
	c-0.413-0.825-4.4-1.238-4.4-1.238l0.928,3.506C481.693,243.67,480.794,244.39,480.743,244.423z"/>
<path fill="#BFC0C0" d="M468.919,248.535c5.548-0.632,12.924-4.623,12.924-4.623s-0.83-4.606-2.073-6.05
	c-1.234-1.433-5.057-2.796-11.058-2.817v-0.001c-0.024,0-0.045,0.001-0.069,0.001c-0.024,0-0.045-0.001-0.069-0.001v0.001
	c-6.001,0.021-9.823,1.385-11.058,2.817c-1.244,1.444-2.073,6.05-2.073,6.05s7.375,3.99,12.924,4.623H468.919z"/>
<path d="M470.025,244.877c-4.883,0.086-9.666-0.732-14.415-1.791c-0.108,0.5-0.167,0.827-0.167,0.827s7.375,3.99,12.924,4.623h0.551
	c5.548-0.632,12.924-4.623,12.924-4.623s-0.041-0.226-0.115-0.58C477.989,244.476,473.865,244.809,470.025,244.877z"/>
<ellipse cx="468.226" cy="242.504" rx="1.833" ry="1.925"/>
<ellipse fill="#FFFFFF" cx="468.231" cy="242.498" rx="1.341" ry="1.306"/>
<path fill="#C9CACA" d="M454.32,263.404c0,0,0.856-3.173,1.208-4.198c0.352-1.025,1.188-0.628,1.299,0.37
	c0.111,0.998-0.09,2.364-0.846,4.122C455.705,264.342,454.32,263.404,454.32,263.404z"/>
<path fill="#FFFFFF" stroke="#000000" stroke-width="0.25" stroke-miterlimit="10" d="M454.046,263.083c0,0,0.856-3.173,1.208-4.198
	c0.352-1.025,1.188-0.628,1.298,0.369c0.111,0.998-0.09,2.365-0.845,4.122C455.429,264.021,454.046,263.083,454.046,263.083z"/>
<path fill="#BFC0C0" d="M454.068,262.658c0,0-0.44,2.002-0.77,3.938c-0.049,0.287-0.095,0.571-0.137,0.847
	c-0.114,0.746-0.198,1.434-0.216,1.93c-0.021,0.601,0.92,1.276,2.226,1.923l2.373-3.31l0.265-1.81l0.097-0.663l0.219-1.502
	L454.068,262.658z"/>
<circle fill="#FFFFFF" cx="474.075" cy="275.996" r="0.519"/>
<circle fill="#FFFFFF" cx="463.333" cy="275.85" r="0.52"/>
<circle fill="#FFFFFF" cx="463.785" cy="282.435" r="0.52"/>
<circle fill="#FFFFFF" cx="473.983" cy="282.688" r="0.52"/>
<path fill="#FFFFFF" d="M475.839,274.278c0,0.304-0.616,0.55-1.375,0.55c-0.76,0-1.375-0.246-1.375-0.55
	c0-0.304,0.501-0.092,1.261-0.092C475.109,274.185,475.839,273.973,475.839,274.278z"/>
<path d="M423.321,304.342c0,0-2.67,2.258-1.829,3.178c0.915,1.001,6.184-1.219,6.357-2.002s-0.043-1.567-0.043-1.567
	L423.321,304.342z"/>
<path d="M433.87,304.342c0,0,2.669,2.258,1.828,3.178c-0.914,1.001-6.183-1.219-6.357-2.002c-0.174-0.784,0.043-1.567,0.043-1.567
	L433.87,304.342z"/>
<path fill="#898989" d="M434.922,291.422l-5.029,0.181v-0.54h-2.874v0.42l-5.748,0.821c0.065,0.196,1.526,12.234,1.526,12.234
	s3.592,0.718,5.355,0.065l-0.017-12.821h0.316l0.615,12.625c0,0,2.874,0.631,5.486-0.022L434.922,291.422z"/>
<rect x="424.021" y="271.142" fill="#FFFFFF" width="7.978" height="12.105"/>
<path fill="#FFFFFF" d="M439.08,290.11c0.083,0.184,1.17,2.612-0.35,2.837c-1.588,0.236-2.226-0.967-2.341-2.414v-0.02
	C437.669,290.575,438.615,290.294,439.08,290.11z"/>
<path fill="#FFFFFF" d="M417.648,290.238c-0.257,0.479-1.089,2.227,0.288,2.488c1.594,0.297,2.331-0.648,2.449-2.103
	c-0.043,0.003-0.092,0.01-0.134,0.012C419.037,290.686,418.138,290.425,417.648,290.238z"/>
<path fill="#BFC0C0" d="M420.493,273.644c0,0-1.412,0.064-2.214,2.888c-0.802,2.823-1.779,11.779-2.036,13.704
	c0,0,2.003,0.893,4.313,0.668L420.493,273.644z"/>
<path fill="#9FA0A0" d="M420.557,290.904l-0.064-17.26c0,0-0.292,0.017-0.684,0.294v16.993
	C420.057,290.935,420.308,290.929,420.557,290.904z"/>
<path fill="#BFC0C0" d="M435.593,273.644c0,0,1.412,0.064,2.213,2.888c0.802,2.823,1.954,11.692,2.21,13.617
	c0,0-2.178,0.98-4.488,0.755L435.593,273.644z"/>
<path fill="#9FA0A0" d="M435.529,290.904l0.064-17.26c0,0,0.292,0.017,0.684,0.294v16.993
	C436.028,290.935,435.777,290.929,435.529,290.904z"/>
<path fill="#BFC0C0" d="M435.673,273.673c-0.171-0.192-2.562-1.034-3.673-1.312c0,0-0.171,5.434-3.957,10.163
	c-3.787-4.729-3.957-10.163-3.957-10.163c-1.112,0.278-3.386,1.124-3.593,1.283c-0.205,0.157-0.206,18.467,0.128,18.864
	c0.487,0.579,6.502,0.32,6.502,0.32l1.137-0.231l0.702,0.231c0,0,6.156,0.259,6.502-0.32
	C435.826,291.905,435.845,273.866,435.673,273.673z"/>
<circle fill="#9FA0A0" cx="427.871" cy="284.231" r="0.705"/>
<circle fill="#9FA0A0" cx="427.936" cy="287.889" r="0.706"/>
<path fill="#EFEFEF" d="M424.797,276.217l3.094-3.231l3.781,3.506c0,0,1.306-3.575,0.825-4.538
	c-0.481-0.962-8.731,0.207-8.731,0.207S423.766,274.979,424.797,276.217z"/>
<path fill="#BFC0C0" d="M422.92,272.653l-0.418,5.59l2.139,0.471l-0.984,1.668c0,0,1.327,1.753,4.45,2.224
	c0,0-3.514-5.202-4.027-10.271L422.92,272.653z"/>
<path fill="#BFC0C0" d="M433.155,272.597l0.427,5.646l-2.138,0.471l0.984,1.668c0,0-1.326,1.753-4.449,2.224
	c0,0,3.499-5.194,4.012-10.263L433.155,272.597z"/>
<path fill="#595757" d="M409.587,257.585c-0.938-1.441-1.515-3.685-0.602-5.294c0.513-0.903,1.56-1.466,1.93-2.425
	c0.389-1.008,0.165-2.121-0.022-3.147c-0.344-1.889-0.437-5.229,1.821-5.926c1.639-0.506,3.203,0.102,4.505-1.289
	c0.781-0.835,1.151-2.01,1.873-2.904c0.72-0.893,1.646-1.422,2.767-1.687c0.886-0.209,1.604-0.065,2.389,0.348
	c0.745,0.393,1.346,1.001,2.198,1.203c1.125,0.267,1.907-0.111,2.902-0.537c1.16-0.497,2.46-0.67,3.72-0.617
	c1.134,0.049,2.545,0.467,3.466,1.165c0.747,0.566,1.142,1.516,1.751,2.204c0.771,0.869,1.626,1.118,2.737,1.234
	c0.452,0.047,0.989,0.019,1.426,0.138c0.576,0.156,1.153,0.569,1.662,0.88c2.659,1.623,1.806,4.48,0.98,6.878
	c-0.684,1.985,1.245,3.126,1.825,4.81c0.701,2.03-0.94,4.407-1.977,6.05c-0.439,0.696-0.899,1.51-1.511,2.081
	c-0.702,0.655-1.951,0.524-2.869,0.632c-2.783,0.329-5.589,0.644-8.393,0.674c-2.814,0.031-5.639-0.178-8.456-0.208
	c-2.804-0.031-5.53-0.481-8.335-0.481c-1.275,0-2.23,0.021-3.195-0.8C411.137,259.677,410.338,258.74,409.587,257.585z"/>
<path fill="#FFFFFF" stroke="#000000" stroke-width="0.25" stroke-miterlimit="10" d="M442.993,256.76
	c-0.344,5.844-6.668,14.369-7.631,15.469c-0.609,0.696-3.953,0.776-7.013,0.894c-3.575,0.137-3.753-0.119-6.394-0.413
	c-0.619-0.069-8.369-9.932-8.369-15.911c0-9.145,4.038-17.341,14.88-17.341C438.719,239.458,443.53,247.631,442.993,256.76z"/>
<path fill="#FFFFFF" d="M414.244,259.1c0,0-1.222-1.047-2.561-0.408c-1.337,0.641-0.873,3.201,0,4.365
	c0.831,1.105,3.753,2.53,4.8,1.308L414.244,259.1z"/>
<path fill="#FFFFFF" d="M442.385,259.1c0,0,1.222-1.047,2.561-0.408c1.337,0.641,0.873,3.201,0,4.365
	c-0.831,1.105-3.753,2.53-4.8,1.308L442.385,259.1z"/>
<circle cx="420.424" cy="258.135" r="1.763"/>
<circle cx="435.664" cy="258.141" r="1.763"/>
<path d="M428.418,264.309c-0.011,0-0.023-0.001-0.035-0.002l-2.063-0.275c-0.074-0.01-0.141-0.051-0.182-0.113
	c-0.042-0.062-0.055-0.14-0.036-0.212l0.688-2.612c0.037-0.139,0.179-0.223,0.319-0.186c0.14,0.037,0.223,0.18,0.186,0.319
	l-0.612,2.326l1.769,0.236c0.143,0.019,0.244,0.15,0.225,0.293C428.659,264.214,428.547,264.309,428.418,264.309L428.418,264.309z"
	/>
<path d="M427.986,266.873c-1.122,0-1.875-0.538-1.922-0.573c-0.116-0.085-0.141-0.249-0.056-0.365
	c0.085-0.116,0.248-0.141,0.364-0.057l0,0c0.062,0.045,1.541,1.087,3.421-0.082c0.123-0.076,0.283-0.039,0.36,0.084
	c0.076,0.123,0.039,0.284-0.084,0.36C429.303,266.716,428.591,266.873,427.986,266.873L427.986,266.873z"/>
<path fill="#B1B1B2" d="M422.872,267.577c-0.304,0-0.55-0.246-0.55-0.55c0-1.965,1.455-2.352,1.517-2.367
	c0.295-0.073,0.593,0.105,0.667,0.4c0.073,0.292-0.102,0.587-0.391,0.665c-0.078,0.024-0.693,0.245-0.693,1.302
	C423.422,267.33,423.176,267.577,422.872,267.577L422.872,267.577z"/>
<path fill="#B1B1B2" d="M434.057,267.761c-0.038,0-0.077-0.004-0.116-0.012c-0.297-0.064-0.486-0.356-0.423-0.653
	c0.189-0.883-0.557-1.33-0.564-1.334c-0.262-0.153-0.351-0.49-0.198-0.752c0.153-0.262,0.49-0.351,0.752-0.198
	c0.499,0.291,1.369,1.192,1.086,2.515C434.539,267.584,434.31,267.761,434.057,267.761L434.057,267.761z"/>
<path d="M437.172,255.019c-0.133,0-0.266-0.048-0.372-0.145c-0.851-0.78-2.121-0.431-2.134-0.427
	c-0.292,0.082-0.596-0.085-0.68-0.376c-0.084-0.291,0.081-0.595,0.372-0.68c0.076-0.022,1.871-0.532,3.185,0.672
	c0.224,0.205,0.239,0.553,0.033,0.777C437.469,254.959,437.321,255.019,437.172,255.019L437.172,255.019z"/>
<path d="M418.289,255.019c-0.149,0-0.297-0.06-0.406-0.178c-0.205-0.224-0.19-0.572,0.034-0.777
	c1.314-1.205,3.109-0.695,3.185-0.672c0.291,0.086,0.458,0.391,0.372,0.683c-0.085,0.291-0.391,0.458-0.681,0.373
	c-0.028-0.008-1.288-0.348-2.133,0.428C418.555,254.971,418.422,255.019,418.289,255.019L418.289,255.019z"/>
<path fill="#595757" d="M438.066,242.185c-8.25-4.95-10.106-5.087-16.981-2.269c-6.875,2.819-8.8,11.138-8.8,14.231
	c0,2.719,0.676,3.796,1.101,4.492c0.059,0.096,1.168,2.108,1.168,2.108l0.207-1.1c0.031,0.1-0.987-2.826-0.756-3.85
	c0.414-1.835,1.552-1.901,2.269-3.438c0.792-1.694,0.642-3.287,0.734-5.037c0.041-0.769,0.178-1.408,0.438-1.961
	c0.709-0.244,1.461-0.054,2.111,0.302c0.312,0.17,0.551-0.327,0.24-0.495c-0.607-0.328-1.288-0.521-1.962-0.453
	c0.09-0.12,0.187-0.237,0.294-0.349c0.39-0.093,0.866,0.063,1.236,0.158c0.337,0.087,0.645,0.23,0.939,0.413
	c0.303,0.188,0.555-0.298,0.258-0.486c-0.502-0.317-1.047-0.457-1.62-0.587c-0.064-0.014-0.127-0.026-0.19-0.038
	c0.133-0.098,0.27-0.194,0.422-0.287c0.751,0.102,1.456,0.392,2.086,0.821c0.293,0.199,0.635-0.236,0.34-0.432
	c-0.507-0.336-1.039-0.601-1.601-0.772c0.948-0.258,1.749,0.168,2.749,0.446c1.098,0.307,1.233-0.632,2.052-1.216
	c0.596-0.425,1.316-0.752,2.017-0.958c0.022-0.006,0.045-0.009,0.067-0.015c-0.618,0.494-1.139,1.137-1.669,1.755
	c-0.23,0.269,0.176,0.64,0.407,0.37c0.75-0.875,1.479-1.889,2.585-2.261c0.193,0.01,0.384,0.038,0.572,0.074
	c-0.9,0.437-1.746,1.127-2.043,1.924c-0.124,0.334,0.404,0.486,0.527,0.156c0.208-0.558,0.81-0.948,1.283-1.26
	c0.322-0.212,0.689-0.414,1.07-0.559c0.212,0.094,0.411,0.215,0.601,0.349c-0.853,0.295-1.66,0.772-2.193,1.494
	c-0.21,0.285,0.214,0.633,0.426,0.348c0.549-0.739,1.391-1.159,2.262-1.416c0.125,0.136,0.243,0.28,0.344,0.442
	c0.782,1.245,0.996,2.752,2.43,3.503c1.416,0.74,2.907-0.102,4.427,0.064c1.153,0.125,2.157,0.795,2.722,1.843
	c0.616,1.142,0.177,1.953,0.114,3.111c-0.071,1.315,0.068,2.247,1.1,3.002c0.664,0.486,0.848,1.032,0.779,2.27
	c0,0-0.55,1.788-0.991,3.017c0.119,0.264,0.231,0.53,0.339,0.798c0.27-0.569,1.935-3.691,1.935-3.884
	C443.91,256.348,446.316,247.135,438.066,242.185z"/>
<circle fill="#EFEFEF" cx="427.96" cy="275.048" r="0.481"/>
<circle fill="#EFEFEF" cx="428.029" cy="277.523" r="0.481"/>
<ellipse fill="#DCDDDD" cx="418.769" cy="262.976" rx="1.582" ry="0.774"/>
<ellipse fill="#DCDDDD" cx="437.587" cy="263.101" rx="1.582" ry="0.774"/>
<path d="M436.505,312.058c0,0-0.601-4.097,0.029-6.357c0,0-0.534,0.781-1.688,1.559c0,0,1.518-2.866,2.057-4.779
	c0,0-1.724,1.734-1.866,1.819c-0.106,0.064,0.819-4.96,4.02-8.341c0,0-1.77,0.079-3.367,1.029c0,0,3.034-5.56,8.875-6.143
	c0,0-1.762-1.488-3.886-1.236c0,0,3.196-2.337,8.317-0.136c0,0-1.494-2.359-1.751-4.363c0,0,4.764,3.07,6.533,3.339
	c0,0-0.344-2.092,0.016-3.57c0,0,1.673,1.923,3.351,2.453c1.678,0.53,2.737,1.232,3.352,2.193c0,0,2.127-0.688,4.07,0.019
	c1.942,0.705,4.33,1.151,4.33,1.151s-1.954,1.559-3.281,1.641c0,0,3.625,0.277,5.74,2.29c0,0-1.772,0.602-2.833,0.423
	c0,0,1.668,2.533,5.026,3.681c0,0-1.778,1.646-3.81,1.027c0,0,2.465,2.71,2.447,6.717c0,0-1.322-1.138-2.116-1.578
	c0,0,0.604,3.399-0.386,6.792l-1.598,1.298L436.505,312.058z"/>
<path d="M449.295,359.686c0,0-2.67,2.258-1.829,3.178c0.914,1.001,6.183-1.219,6.357-2.003c0.174-0.784-0.043-1.567-0.043-1.567
	L449.295,359.686z"/>
<path d="M459.843,359.686c0,0,2.67,2.258,1.83,3.178c-0.915,1.001-6.183-1.219-6.357-2.003c-0.174-0.784,0.042-1.567,0.042-1.567
	L459.843,359.686z"/>
<path fill="#454545" d="M460.659,345.067l-5.029,0.181v-0.539h-2.874v0.419l-5.747,0.821c0.065,0.195,1.763,13.933,1.763,13.933
	s3.397,1.198,5.399,0.762l-0.297-15.218h0.316l0.939,15.218c0,0,2.786-0.262,5.399-0.915L460.659,345.067z"/>
<rect x="449.759" y="324.788" fill="#FFFFFF" width="7.977" height="12.105"/>
<polygon fill="#898989" points="453.287,329.792 452.239,334.455 453.715,336.701 455.447,334.561 454.571,329.813 "/>
<path d="M454.938,331.8l-0.367-1.987l-1.284-0.022l-0.03,0.134C453.849,330.522,454.404,331.152,454.938,331.8z"/>
<path d="M453.425,335.015c-0.313-0.446-0.635-0.896-1.026-1.272l-0.161,0.713l1.476,2.246l0.495-0.611
	C453.959,335.723,453.679,335.375,453.425,335.015z"/>
<path d="M453.631,334.403c0.296,0.417,0.627,0.829,0.926,1.257l0.563-0.694c-0.378-0.5-0.819-0.97-1.189-1.438
	c-0.383-0.482-0.737-1.027-1.144-1.509l-0.255,1.132C452.959,333.507,453.307,333.947,453.631,334.403z"/>
<path d="M454.713,333.675c0.231,0.292,0.489,0.586,0.732,0.889l0.002-0.002l-0.326-1.765c-0.247-0.294-0.505-0.579-0.737-0.855
	c-0.406-0.483-0.828-0.951-1.264-1.406l-0.191,0.849C453.602,332.061,454.135,332.947,454.713,333.675z"/>
<path fill="#FFFFFF" stroke="#000000" stroke-width="0.25" stroke-miterlimit="10" d="M464.817,343.755
	c0.083,0.184,1.17,2.613-0.351,2.837c-1.588,0.235-2.226-0.967-2.34-2.414v-0.02C463.406,344.221,464.352,343.939,464.817,343.755z"
	/>
<path fill="#FFFFFF" stroke="#000000" stroke-width="0.25" stroke-miterlimit="10" d="M443.385,343.883
	c-0.257,0.479-1.089,2.227,0.288,2.488c1.594,0.297,2.331-0.647,2.449-2.103c-0.043,0.002-0.092,0.011-0.134,0.012
	C444.773,344.33,443.875,344.07,443.385,343.883z"/>
<path fill="#B5B5B6" d="M446.229,327.29c0,0-1.411,0.064-2.213,2.887c-0.802,2.823-1.779,11.779-2.036,13.704
	c0,0,2.003,0.893,4.313,0.668L446.229,327.29z"/>
<path fill="#D9D9DA" d="M446.294,344.55l-0.064-17.26c0,0-0.292,0.016-0.684,0.294v16.993
	C445.794,344.58,446.045,344.574,446.294,344.55z"/>
<path fill="#B5B5B6" d="M461.33,327.29c0,0,1.411,0.064,2.213,2.887c0.802,2.823,1.954,11.692,2.211,13.617
	c0,0-2.179,0.98-4.488,0.756L461.33,327.29z"/>
<path fill="#D9D9DA" d="M461.266,344.55l0.064-17.26c0,0,0.292,0.016,0.684,0.294v16.993
	C461.765,344.58,461.514,344.574,461.266,344.55z"/>
<path fill="#B5B5B6" d="M461.41,327.319c-0.171-0.193-2.561-1.035-3.673-1.312c0,0-0.171,5.434-3.957,10.163
	c-3.787-4.729-3.958-10.163-3.958-10.163c-1.112,0.277-3.385,1.124-3.593,1.283c-0.205,0.157-0.205,18.467,0.129,18.864
	c0.487,0.578,6.502,0.32,6.502,0.32l1.137-0.231l0.702,0.231c0,0,6.156,0.258,6.502-0.32
	C461.562,345.55,461.582,327.511,461.41,327.319z"/>
<polygon fill="#898989" points="453.431,327.182 452.191,328.559 453.224,330.006 454.601,330.006 455.497,328.628 454.326,327.182 
	"/>
<polygon points="455.239,329.026 454.11,330.006 454.601,330.006 "/>
<path d="M454.394,327.266l-0.068-0.083h-0.895l-1.24,1.377l0.365,0.51C453.188,328.491,453.776,327.863,454.394,327.266z"/>
<path d="M453.292,330.006c0.619-0.601,1.247-1.191,1.912-1.74l-0.482-0.596c-0.626,0.605-1.224,1.236-1.866,1.82l0.368,0.516
	H453.292z"/>
<circle fill="#FFFFFF" cx="453.608" cy="337.876" r="0.706"/>
<circle fill="#FFFFFF" cx="453.672" cy="341.534" r="0.706"/>
<path fill="#D9D9DA" d="M448.658,326.298l-0.418,5.59l2.138,0.47l-0.983,1.668c0,0,1.326,1.753,4.449,2.224
	c0,0-3.513-5.203-4.026-10.272L448.658,326.298z"/>
<path fill="#D9D9DA" d="M458.892,326.242l0.428,5.647l-2.138,0.47l0.983,1.668c0,0-1.326,1.753-4.449,2.224
	c0,0,3.499-5.194,4.012-10.263L458.892,326.242z"/>
<path fill="#FFFFFF" stroke="#000000" stroke-width="0.25" stroke-miterlimit="10" d="M468.91,310.788
	c0,9.145-5.255,15.915-15.529,15.915c-10.18,0-15.53-6.77-15.53-15.915c0-9.145,4.214-17.34,15.53-17.34
	C464.08,293.448,468.91,301.642,468.91,310.788z"/>
<path fill="#FFFFFF" d="M438.763,311.938c0,0-0.864-1.38-2.4-1.195c-1.537,0.184-1.921,2.759-1.44,4.139
	c0.457,1.312,2.88,3.588,4.32,2.761L438.763,311.938z"/>
<path fill="#FFFFFF" d="M468.093,311.938c0,0,0.865-1.38,2.401-1.195c1.536,0.184,1.92,2.759,1.44,4.139
	c-0.456,1.312-2.88,3.588-4.32,2.761L468.093,311.938z"/>
<ellipse cx="445.317" cy="313.459" rx="1.806" ry="1.764"/>
<ellipse cx="461.679" cy="313.459" rx="1.806" ry="1.764"/>
<path d="M453.019,317.856c-0.053,0-0.106-0.016-0.152-0.049l-1.152-0.828c-0.115-0.083-0.143-0.242-0.064-0.359l1.081-1.587
	c0.081-0.119,0.244-0.15,0.363-0.069c0.119,0.081,0.15,0.244,0.069,0.363l-0.937,1.376l0.945,0.679
	c0.117,0.084,0.144,0.247,0.06,0.365C453.181,317.818,453.101,317.856,453.019,317.856L453.019,317.856z"/>
<path d="M453.335,321.16c-1.79,0-2.841-1.069-2.856-1.085c-0.1-0.104-0.096-0.27,0.008-0.369c0.104-0.1,0.269-0.096,0.369,0.008l0,0
	c0.08,0.082,1.987,1.995,5.15,0.096c0.124-0.074,0.284-0.034,0.358,0.09c0.074,0.124,0.034,0.284-0.089,0.358
	C455.155,320.93,454.165,321.16,453.335,321.16L453.335,321.16z"/>
<path d="M459.501,308.651c-0.203,0-0.396-0.119-0.48-0.317c-0.114-0.265,0.009-0.572,0.275-0.686c0.081-0.035,2.001-0.84,4.22-0.286
	c0.28,0.07,0.45,0.353,0.38,0.634c-0.07,0.28-0.355,0.449-0.633,0.38c-1.881-0.469-3.539,0.225-3.556,0.233
	C459.639,308.638,459.569,308.651,459.501,308.651L459.501,308.651z"/>
<path d="M446.827,308.651c-0.068,0-0.138-0.013-0.204-0.042c-0.026-0.011-1.695-0.698-3.557-0.233
	c-0.281,0.07-0.564-0.101-0.634-0.38c-0.07-0.28,0.1-0.564,0.38-0.634c2.219-0.554,4.14,0.251,4.22,0.286
	c0.265,0.114,0.388,0.421,0.275,0.686C447.223,308.533,447.03,308.651,446.827,308.651L446.827,308.651z"/>
<path d="M462.897,296.551c0,0,1.473,4.441,2.946,6.401l0.803-2.351c0,0,0.937,5.878,2.143,7.576l-0.402,4.441l0.67-1.698
	c0,0,0.402-3.788,0.133-7.054c-0.268-3.266-4.419-9.667-8.838-11.626c-4.419-1.959-11.028-2.288-15.802,1.437
	c-0.67,0.522-2.678,2.089-5.178,6.619c-2.5,4.528-2.231,9.144-1.339,12.627c0,0,0.089-2.875,0.357-4.703
	c0.267-1.829,1.339-5.922,2.321-7.142c0,0-0.268,1.045-0.357,2.265c0,0,4.553-6.705,5.893-7.402c0,0-0.893,2.7-1.875,4.441
	c0,0,5.268-4.441,6.339-5.922c0,0-0.893,3.048-1.696,4.441c0,0,4.196-2.612,5.803-4.441c0,0-0.625,2.787-1.875,4.093
	c0,0,4.91-1.568,5.982-3.745c0,0,0.893,3.222,3.749,5.139C462.673,299.948,462.405,297.944,462.897,296.551z"/>
<ellipse fill="#DCDDDD" cx="442.742" cy="318.637" rx="1.65" ry="0.825"/>
<ellipse fill="#DCDDDD" cx="463.742" cy="318.637" rx="1.65" ry="0.825"/>
<path fill="#FFFFFF" stroke="#000000" stroke-width="0.25" stroke-miterlimit="10" d="M391.224,342.96
	c-0.087,0.303-0.96,3.126,0.349,3.832c1.308,0.707,2.965-0.605,2.878-1.915C394.365,343.565,391.224,342.96,391.224,342.96z"/>
<path fill="#FFFFFF" stroke="#000000" stroke-width="0.25" stroke-miterlimit="10" d="M413.446,342.96
	c0.087,0.303,0.96,3.126-0.348,3.832c-1.309,0.707-2.966-0.605-2.879-1.915C410.305,343.565,413.446,342.96,413.446,342.96z"/>
<path fill="#595757" d="M397.072,358.864c0,0-2.292,1.925-1.559,2.659c0.733,0.733,6.142,0.367,6.417-1.1
	c0.275-1.468-0.183-1.65-0.183-1.65L397.072,358.864z"/>
<g>
	<path fill="#FFFFFF" d="M395.735,351.394l0.917,7.608c0,0,3.209,0.642,5.317,0.092l-0.184-7.243L395.735,351.394z"/>
	<path fill="#B5B5B6" d="M399.892,359.592L399.892,359.592c-1.675,0-3.229-0.307-3.294-0.32c-0.116-0.023-0.205-0.119-0.219-0.237
		l-0.917-7.608c-0.01-0.082,0.017-0.164,0.074-0.223c0.057-0.059,0.137-0.089,0.219-0.084l6.05,0.458
		c0.141,0.01,0.251,0.126,0.254,0.267l0.184,7.243c0.003,0.128-0.082,0.241-0.205,0.273
		C401.449,359.514,400.727,359.592,399.892,359.592L399.892,359.592z M396.9,358.768c0.467,0.082,1.709,0.274,2.992,0.274
		c0.689,0,1.292-0.055,1.796-0.164l-0.172-6.771l-5.468-0.413L396.9,358.768L396.9,358.768z"/>
</g>
<path fill="#595757" d="M407.739,358.885c0,0,2.292,1.925,1.559,2.659c-0.733,0.733-6.142,0.367-6.417-1.1
	c-0.275-1.468,0.183-1.65,0.183-1.65L407.739,358.885z"/>
<g>
	<path fill="#FFFFFF" d="M409.118,351.394l-0.917,7.608c0,0-3.208,0.642-5.316,0.092l0.184-7.243L409.118,351.394z"/>
	<path fill="#B5B5B6" d="M404.961,359.592c-0.835,0-1.557-0.078-2.146-0.231c-0.124-0.032-0.209-0.145-0.206-0.273l0.184-7.243
		c0.004-0.141,0.114-0.257,0.254-0.267l6.05-0.458c0.081-0.006,0.163,0.025,0.219,0.084c0.057,0.06,0.084,0.141,0.074,0.223
		l-0.917,7.608c-0.014,0.118-0.103,0.213-0.219,0.237C408.19,359.285,406.636,359.592,404.961,359.592L404.961,359.592z
		 M403.165,358.878c0.504,0.109,1.107,0.164,1.796,0.164c1.283,0,2.524-0.192,2.991-0.274l0.853-7.074l-5.469,0.413L403.165,358.878
		L403.165,358.878z"/>
</g>
<path fill="#FFFFFF" d="M394.085,326.735c0,0-1.008,0-1.559,1.925c-0.55,1.925-2.658,13.383-2.75,14.85c0,0,3.208,1.192,5.867,1.009
	C395.643,344.519,393.993,326.369,394.085,326.735z"/>
<path fill="#B5B5B6" d="M395.067,344.813L395.067,344.813c-2.544,0-5.272-1.002-5.387-1.045c-0.114-0.042-0.186-0.154-0.179-0.275
	c0.099-1.572,2.214-12.997,2.76-14.908c0.519-1.816,1.463-2.08,1.742-2.118c0.141-0.043,0.31,0.052,0.348,0.201
	c0.009,0.037,0.011,0.074,0.005,0.111c0.029,0.766,1.131,12.998,1.561,17.715c0.007,0.074-0.017,0.147-0.065,0.203
	c-0.048,0.056-0.117,0.091-0.19,0.096C395.472,344.806,395.272,344.813,395.067,344.813L395.067,344.813z M390.07,343.321
	c0.671,0.228,2.934,0.942,4.998,0.942l0,0c0.093,0,0.186-0.001,0.276-0.004c-0.288-3.165-1.348-14.866-1.514-17.157
	c-0.282,0.153-0.73,0.558-1.038,1.635C392.29,330.491,390.3,341.196,390.07,343.321L390.07,343.321z"/>
<path fill="#FFFFFF" d="M410.219,326.735c0,0,1.009,0,1.559,1.925c0.55,1.925,2.658,13.383,2.75,14.85c0,0-3.208,1.192-5.866,1.009
	C408.661,344.519,410.311,326.369,410.219,326.735z"/>
<path fill="#B5B5B6" d="M409.237,344.813c-0.204,0-0.404-0.007-0.595-0.02c-0.074-0.005-0.143-0.04-0.19-0.096
	c-0.048-0.056-0.071-0.13-0.065-0.203c0.428-4.709,1.528-16.906,1.56-17.718c-0.005-0.036-0.004-0.072,0.005-0.108
	c0.037-0.149,0.208-0.245,0.347-0.201c0.279,0.038,1.223,0.302,1.742,2.118c0.546,1.911,2.661,13.336,2.76,14.908
	c0.008,0.121-0.065,0.233-0.179,0.275C414.508,343.811,411.781,344.813,409.237,344.813L409.237,344.813z M408.961,344.259
	c0.091,0.003,0.183,0.004,0.276,0.004c2.065,0,4.327-0.713,4.997-0.941c-0.231-2.125-2.22-12.831-2.721-14.586
	c-0.307-1.076-0.756-1.482-1.038-1.635C410.308,329.393,409.248,341.094,408.961,344.259L408.961,344.259z"/>
<path fill="#FFFFFF" d="M399.402,324.994c0,0-3.85,0.641-5.316,1.741c0,0,0.274,22.092,1.283,25.209c0,0,7.426,1.283,15.034,0
	c0,0,0.366-23.834,0.183-25.025c0,0-2.475-1.65-6.141-2.108C400.777,324.351,399.402,324.994,399.402,324.994z"/>
<path fill="#B5B5B6" d="M403.124,352.789C403.123,352.789,403.123,352.789,403.124,352.789c-4.427,0-7.769-0.569-7.803-0.574
	c-0.101-0.017-0.183-0.089-0.215-0.186c-1.01-3.121-1.285-24.386-1.296-25.29c-0.001-0.088,0.04-0.171,0.11-0.223
	c1.448-1.086,5-1.718,5.404-1.787c0.182-0.073,0.994-0.358,2.684-0.358c0.751,0,1.582,0.056,2.47,0.167
	c3.688,0.461,6.156,2.084,6.26,2.153c0.064,0.043,0.107,0.111,0.119,0.187c0.185,1.201-0.164,24.097-0.179,25.072
	c-0.002,0.133-0.098,0.245-0.229,0.267C408.189,352.596,405.725,352.789,403.124,352.789L403.124,352.789z M395.583,351.7
	c0.726,0.113,3.723,0.539,7.54,0.539h0.001c2.484,0,4.84-0.178,7.007-0.529c0.123-8.051,0.312-22.919,0.194-24.63
	c-0.51-0.311-2.782-1.605-5.915-1.997c-0.865-0.108-1.673-0.163-2.401-0.163c-1.755,0-2.484,0.321-2.492,0.324
	c-0.022,0.01-0.046,0.018-0.07,0.021c-0.037,0.006-3.61,0.611-5.085,1.61C394.388,328.755,394.678,348.282,395.583,351.7
	L395.583,351.7z"/>
<path fill="#727171" d="M398.714,324.994c0,0,2.833,7.957,3.341,7.508c0.509-0.45,2.708-7.508,2.708-7.508H398.714z"/>
<path fill="#E1F3FC" d="M401.899,326.105c0.085-0.182,1.099,2.107,1.547,2.887c0.593-1.767,1.317-3.998,1.317-3.998h-6.05
	c0,0,0.827,2.294,1.604,4.239C400.909,328.42,401.384,327.205,401.899,326.105z"/>
<path fill="#FFFFFF" d="M399.53,325.186c0,0,1.219,4.939,2.525,7.315c0,0-2.264-0.476-3.396-2.281l0.784-1.33l-1.741-1.425
	l0.522-2.28H399.53z"/>
<path fill="#B5B5B6" d="M402.055,332.777c-0.019,0-0.038-0.002-0.057-0.006c-0.097-0.02-2.392-0.521-3.572-2.404
	c-0.055-0.087-0.056-0.197-0.004-0.286l0.664-1.126l-1.559-1.276c-0.081-0.066-0.117-0.172-0.094-0.274l0.522-2.28
	c0.029-0.125,0.14-0.214,0.268-0.214h1.306c0.126,0,0.237,0.086,0.267,0.209c0.012,0.049,1.226,4.932,2.499,7.249
	c0.052,0.094,0.044,0.21-0.02,0.296C402.223,332.736,402.141,332.777,402.055,332.777L402.055,332.777z M398.983,330.213
	c0.718,1.042,1.847,1.587,2.535,1.838c-1.052-2.216-1.974-5.695-2.202-6.59h-0.873l-0.435,1.9l1.609,1.317
	c0.105,0.086,0.132,0.236,0.063,0.353L398.983,330.213L398.983,330.213z"/>
<path fill="#FFFFFF" d="M404.406,325.186c0,0-1.219,4.939-2.525,7.315c0,0,2.264-0.476,3.396-2.281l-0.783-1.33l1.741-1.425
	l-0.523-2.28H404.406z"/>
<path fill="#B5B5B6" d="M401.881,332.777c-0.086,0-0.168-0.04-0.221-0.111c-0.064-0.086-0.072-0.202-0.02-0.296
	c1.274-2.317,2.487-7.2,2.499-7.249c0.031-0.123,0.141-0.209,0.267-0.209h1.306c0.128,0,0.239,0.088,0.268,0.213l0.523,2.28
	c0.023,0.102-0.013,0.208-0.094,0.274l-1.559,1.276l0.664,1.126c0.052,0.089,0.051,0.199-0.004,0.286
	c-1.181,1.882-3.475,2.383-3.572,2.404C401.919,332.775,401.9,332.777,401.881,332.777L401.881,332.777z M404.62,325.461
	c-0.229,0.895-1.15,4.373-2.201,6.589c0.688-0.252,1.818-0.799,2.534-1.837l-0.696-1.182c-0.069-0.117-0.042-0.267,0.063-0.353
	l1.609-1.317l-0.436-1.9H404.62L404.62,325.461z"/>
<circle fill="#B5B5B6" cx="402.151" cy="334.435" r="0.55"/>
<circle fill="#B5B5B6" cx="402.151" cy="339.294" r="0.55"/>
<circle fill="#B5B5B6" cx="402.151" cy="344.152" r="0.55"/>
<g>
	<path fill="#B5B5B6" d="M407.001,331.783c-0.06,0.001-0.264,0.008-0.309,0.01c-0.729,0.024-1.28,1.252-1.232,2.744
		c0.048,1.491,0.678,2.68,1.407,2.656c0.022,0,0.247-0.008,0.307-0.01c0.729-0.024,1.236-2.658,1.233-2.745
		C408.401,334.212,407.731,331.758,407.001,331.783z"/>
	<path fill="#E2E2E3" d="M408.409,334.438c0.003,0.087-0.504,2.72-1.233,2.745c-0.728,0.024-1.359-1.165-1.407-2.656
		c-0.048-1.491,0.505-2.72,1.233-2.744C407.731,331.758,408.401,334.212,408.409,334.438z"/>
	<path fill="#3A3635" d="M406.358,324.351l-0.077-0.1l-0.517,0.544l0.075,0.102c0.015,0.02,1.503,2.113,1.393,8.199l-0.002,0.136
		l0.697,0.018l0.002-0.136C408.045,326.619,406.427,324.441,406.358,324.351z"/>
	<g>
		<path fill="#B5B5B6" d="M407.973,332.857c-0.098,0.004-0.46,0.017-0.558,0.02c-0.463,0.015-0.813,0.779-0.783,1.705
			c0.03,0.926,0.43,1.665,0.892,1.649c0.099-0.004,0.46-0.015,0.558-0.018c0.463-0.016,0.813-0.78,0.783-1.706
			C408.835,333.581,408.437,332.843,407.973,332.857z"/>
		
			<ellipse transform="matrix(0.9994 -0.0338 0.0338 0.9994 -11.0823 13.9931)" fill="#E2E2E3" cx="408.028" cy="334.536" rx="0.837" ry="1.678"/>
	</g>
	<path fill="#C9CACA" d="M395.683,338.749c-0.177-0.037-0.297-0.207-0.274-0.392c0.024-0.193,0.199-0.331,0.39-0.306
		c0.004,0,0.205,0.025,0.47,0.005c-0.161-0.117-0.3-0.255-0.406-0.418c-0.572-0.882-1.098-3.98-1.155-4.33
		c-0.007-0.054-0.145-1.106,0.491-1.827c0.391-0.443,0.967-0.655,1.713-0.633c0.02,0.001,0.041,0.003,0.06,0.006l0.222,0.043
		c0.798,0.144,2.021,0.372,1.765,2.717c-0.035,0.344-0.353,3.417-0.97,4.319c-0.002,0.003-0.003,0.005-0.004,0.008
		c0.232,0.038,0.437,0.057,0.563,0.061c0.189,0.007,0.342,0.171,0.335,0.368c-0.008,0.195-0.17,0.348-0.362,0.341
		c-0.105-0.004-0.643-0.034-1.227-0.192c-0.712,0.343-1.537,0.24-1.584,0.234C395.701,338.752,395.693,338.751,395.683,338.749
		L395.683,338.749z M396.863,331.555c-0.518-0.01-0.902,0.124-1.144,0.399c-0.416,0.471-0.324,1.239-0.323,1.247
		c0.15,0.902,0.632,3.407,1.048,4.047c0.145,0.224,0.437,0.386,0.764,0.502c0.079-0.062,0.15-0.134,0.208-0.22
		c0.436-0.637,0.76-3.096,0.848-3.989c0.185-1.692-0.425-1.802-1.196-1.946C397,331.582,396.931,331.569,396.863,331.555
		L396.863,331.555z"/>
	<path fill="#3A3635" d="M397.309,330.919c0.002-0.016,0.01-0.029,0.01-0.046c0.059-4.663,1.015-5.792,1.148-5.926
		c0.104-0.043,0.187-0.137,0.211-0.257c0.039-0.192-0.083-0.378-0.271-0.418c-0.182-0.038-0.318,0.074-0.362,0.111
		c-0.226,0.185-1.357,1.366-1.423,6.482c-0.603,0.036-1.086,0.236-1.422,0.618c-0.636,0.721-0.499,1.773-0.491,1.827
		c0.004,0.027,0.013,0.075,0.022,0.131c0.141-0.003,0.282-0.006,0.425-0.017c0.092-0.007,0.183-0.017,0.274-0.026
		c-0.012-0.072-0.023-0.138-0.033-0.197c-0.001-0.008-0.093-0.776,0.323-1.247c0.242-0.275,0.626-0.409,1.144-0.399
		c0.068,0.015,0.137,0.028,0.207,0.04c0.771,0.144,1.38,0.254,1.196,1.944c0.231,0.021,0.463,0.043,0.694,0.063
		C399.198,331.379,398.102,331.068,397.309,330.919z"/>
	<path fill="#8D8D8E" d="M399.401,338.469c-0.052,0.258-0.304,0.423-0.563,0.369l-0.211-0.044c-0.259-0.054-0.426-0.307-0.374-0.565
		l0,0c0.051-0.258,0.304-0.423,0.563-0.369l0.211,0.044C399.286,337.958,399.454,338.211,399.401,338.469L399.401,338.469z"/>
	<path fill="#8D8D8E" d="M395.99,338.504c-0.051,0.258-0.304,0.423-0.562,0.369l-0.212-0.044c-0.259-0.054-0.426-0.307-0.375-0.565
		l0,0c0.052-0.259,0.304-0.423,0.563-0.37l0.211,0.044C395.875,337.993,396.042,338.245,395.99,338.504L395.99,338.504z"/>
</g>
<path d="M396.932,287.246c0,0-4.59-1.65-8.451,3.411c-3.52,4.617-5.368,13.247-2.112,19.669l1.664-0.766
	c0,0,2.22-13.876,10.675-16.051c8.455-2.174,16.823,15.741,16.823,15.741l0.427,2.382l1.393-0.925c0,0,5.665-10.063-1.729-20.098
	C409.373,282.129,397.871,285.485,396.932,287.246z"/>
<path fill="#FFFFFF" stroke="#000000" stroke-width="0.25" stroke-miterlimit="10" d="M416.515,308.469
	c0,9.975-4.899,17.359-14.477,17.359c-9.489,0-14.478-7.385-14.478-17.359c0-9.975,3.929-18.915,14.478-18.915
	C412.013,289.554,416.515,298.494,416.515,308.469z"/>
<path fill="#FFFFFF" d="M388.699,309.724c0,0-0.867-1.505-2.41-1.305c-1.542,0.202-1.929,3.011-1.446,4.517
	c0.459,1.43,2.892,3.913,4.338,3.01L388.699,309.724z"/>
<path fill="#FFFFFF" d="M415.655,309.424c0,0,0.868-1.505,2.411-1.305c1.543,0.202,1.928,3.011,1.446,4.516
	c-0.458,1.43-2.893,3.913-4.338,3.01L415.655,309.424z"/>
<ellipse cx="395.102" cy="312.172" rx="1.848" ry="1.924"/>
<ellipse cx="408.96" cy="312.173" rx="1.848" ry="1.924"/>
<path d="M401.787,316.428c-0.059,0-0.118-0.019-0.168-0.058l-1.157-0.903c-0.11-0.086-0.137-0.241-0.063-0.36l1.085-1.73
	c0.08-0.128,0.248-0.166,0.376-0.086c0.128,0.08,0.166,0.248,0.086,0.376l-0.955,1.522l0.963,0.752
	c0.119,0.093,0.14,0.264,0.047,0.383C401.949,316.392,401.868,316.428,401.787,316.428L401.787,316.428z"/>
<path d="M402.3,319.712c-1.787,0-2.868-0.584-2.932-0.62c-0.132-0.073-0.179-0.239-0.106-0.371c0.073-0.131,0.239-0.179,0.371-0.106
	c0.03,0.016,2.125,1.129,5.28,0.13c0.144-0.046,0.297,0.034,0.342,0.178c0.046,0.144-0.034,0.297-0.178,0.342
	C404.03,319.596,403.095,319.712,402.3,319.712L402.3,319.712z"/>
<path d="M407.218,306.122c-0.207,0-0.404-0.118-0.496-0.317c-0.126-0.273-0.008-0.596,0.265-0.723
	c0.082-0.038,2.029-0.923,4.277-0.314c0.291,0.079,0.463,0.378,0.384,0.669c-0.079,0.291-0.378,0.463-0.669,0.384
	c-1.854-0.502-3.517,0.244-3.534,0.251C407.371,306.106,407.294,306.122,407.218,306.122L407.218,306.122z"/>
<path d="M396.456,305.711c-0.076,0-0.154-0.016-0.228-0.05l0,0c-0.016-0.008-1.68-0.752-3.533-0.25
	c-0.291,0.079-0.591-0.093-0.669-0.384c-0.079-0.291,0.093-0.591,0.384-0.669c2.249-0.609,4.195,0.275,4.277,0.313
	c0.273,0.127,0.392,0.451,0.265,0.725C396.859,305.594,396.662,305.711,396.456,305.711L396.456,305.711z"/>
<path d="M395.88,293.158c0,0,10.952,3,21.038,13.648c0,0,3.314-18.448-14.841-18.748c-11.616-0.192-14.985,9.449-15.562,18.898
	C386.514,306.956,388.531,302.607,395.88,293.158z"/>
<path fill="#999999" d="M394.583,315.778c-2.455,0-4.452-1.67-4.452-3.722c0-2.052,1.997-3.722,4.452-3.722
	c2.455,0,4.452,1.67,4.452,3.722C399.035,314.108,397.038,315.778,394.583,315.778L394.583,315.778z M394.583,308.88
	c-2.154,0-3.906,1.425-3.906,3.176c0,1.751,1.752,3.176,3.906,3.176c2.154,0,3.906-1.425,3.906-3.176
	C398.489,310.305,396.737,308.88,394.583,308.88L394.583,308.88z"/>
<path fill="#999999" d="M390.644,310.729c-0.051,0-0.102-0.014-0.148-0.043l-3.084-1.987c-0.127-0.082-0.163-0.25-0.082-0.377
	c0.082-0.127,0.25-0.163,0.377-0.082l3.084,1.987c0.127,0.082,0.163,0.25,0.082,0.377
	C390.821,310.685,390.734,310.729,390.644,310.729L390.644,310.729z"/>
<path fill="#999999" d="M409.473,315.778c-2.455,0-4.452-1.67-4.452-3.722c0-2.052,1.997-3.722,4.452-3.722
	c2.454,0,4.451,1.67,4.451,3.722C413.924,314.108,411.928,315.778,409.473,315.778L409.473,315.778z M409.473,308.88
	c-2.154,0-3.906,1.425-3.906,3.176c0,1.751,1.752,3.176,3.906,3.176c2.154,0,3.906-1.425,3.906-3.176
	C413.379,310.305,411.627,308.88,409.473,308.88L409.473,308.88z"/>
<path fill="#999999" d="M413.411,310.729c-0.09,0-0.177-0.044-0.229-0.125c-0.082-0.127-0.045-0.296,0.082-0.377l3.084-1.987
	c0.127-0.081,0.295-0.045,0.377,0.082c0.082,0.127,0.045,0.296-0.082,0.377l-3.084,1.987
	C413.513,310.715,413.462,310.729,413.411,310.729L413.411,310.729z"/>
<path fill="#999999" d="M405.15,311.529c-0.028,0-0.055-0.004-0.083-0.013c-3.589-1.15-6.118-0.024-6.142-0.012
	c-0.137,0.062-0.299,0.003-0.362-0.134c-0.063-0.137-0.004-0.298,0.133-0.362c0.11-0.051,2.733-1.231,6.538-0.012
	c0.144,0.046,0.222,0.199,0.177,0.343C405.373,311.455,405.266,311.529,405.15,311.529L405.15,311.529z"/>
<ellipse fill="#DCDDDD" cx="392.444" cy="317.511" rx="1.582" ry="0.774"/>
<ellipse fill="#DCDDDD" cx="411.262" cy="317.636" rx="1.582" ry="0.774"/>
</svg>
