<?xml version="1.0" encoding="utf-8"?>
<!-- Generator: Adobe Illustrator 17.1.0, SVG Export Plug-In . SVG Version: 6.00 Build 0)  -->
<!DOCTYPE svg PUBLIC "-//W3C//DTD SVG 1.1//EN" "http://www.w3.org/Graphics/SVG/1.1/DTD/svg11.dtd">
<svg version="1.1" id="Ebene_1" xmlns="http://www.w3.org/2000/svg" xmlns:xlink="http://www.w3.org/1999/xlink" x="0px" y="0px"
	 width="100px" height="100px" viewBox="0 0 100 100" enable-background="new 0 0 100 100" xml:space="preserve">
<circle fill="#B2B2B2" cx="50" cy="50" r="50"/>
<path fill="#898989" d="M28.2,40.1c0.2,4.1,0.3,8.2,0.5,12.4c0.1,2.9,0.2,5.7,0.3,8.6c0,0.9,0.1,1.9,0.1,2.8c0,0.1,0.1,1.1,0,1.1
	c0.1-0.1,0.1-0.6,0.1-0.7c0.1-0.6,0.2-1.3,0.2-1.9c0.2-1.9,0.5-3.8,0.7-5.8c0.3-2.9,0.7-5.7,1-8.6c-0.1,6.7-0.2,13.4-0.2,20.1
	c0.6-3.3,1.2-6.6,1.7-9.9c0.4-2.3,0.8-4.6,1.2-6.9c0-0.2,0.7-3.1,0.5-3.2c0.1,0-0.2,2.3-0.2,2.5c-0.1,1.9-0.3,3.8-0.4,5.7
	c-0.2,2.7-0.3,5.5-0.5,8.2c1.1-5.2,2.3-10.4,3.4-15.6c-0.3,3.5-0.6,7-0.9,10.5c1.3-4.8,2.7-9.5,4-14.3c0.3-1.2,0.7-2.3,1-3.5
	c0.1-0.2,0.5-1.1,0.4-1.3c-0.7-1.6-1.8-3.1-3.2-4.1C34.3,33.6,30.5,37.2,28.2,40.1z"/>
<path fill="#FFFFFF" d="M51.8,9c0.7,0.6,1.7,1.1,2.6,1.4c0.4,0.2,0.6,0.8,0.8,1.1c0.8,1.5,1.6,3,2.4,4.6c0.2,0.5,0.5-0.2,0.6-0.4
	c0.1-0.1,0.7,0.4,0.8,0.5c0.5,0.3,1,0.5,1.4,0.7c0.4,0.2,0.3-1.1,0.4-1.3c0.1-0.3,0.3,0.2,0.4,0.3c0.3,0.4,0.7,0.7,1.2,1
	c0.4,0.3,0.3-0.5,0.3-0.6c0-0.2,0.5-0.1,0.3-0.5c-0.1-0.2-0.2-0.4-0.3-0.6c-1-1.7-2.2-3.3-3.4-4.9c-0.3-0.4-0.7-0.9-1-1.3
	c-0.3-0.4-0.4-1.3-0.6-1.8c-0.2-0.7-0.6-2-1.5-2.3c-0.4-0.1-0.8-0.1-1.1-0.3c-0.5-0.2-1-0.4-1.6-0.2c-0.3,0.1-0.5-0.3-0.8-0.4
	c-0.6-0.2-0.8,0.4-0.8,0.8c0,0.3,0.4,2.3,0.3,2.4C52,7.2,52,7,51.9,6.9c-0.3-0.2-0.4,0.3-0.5,0.4C51.2,8,51.2,8.5,51.8,9
	C52.9,9.9,51.2,8.4,51.8,9z"/>
<path fill="#3E3A39" d="M62.9,17.3c0,0.2-1.2-0.7-1.3-0.8c-0.1-0.1-0.6-0.7-0.8-0.3c-0.2,0.4,0.5,0.9,0.3,1.1
	c-0.1,0.2-2.1-0.8-2.3-1c-0.5-0.3-0.7-0.4-0.8,0.2c-0.1,0.6,0,1.3,0.3,1.8c0.3,0.5,0.2,0.4-0.3,0.4c-0.7-0.1-1.3,0-2,0.1
	c-0.6,0.1-0.8,0.3-0.5,0.9c0.2,0.6,0.6,1.2,1,1.7c0.1,0.2-1.2,0.5-1.4,0.5c-0.7,0.2,0.4,1.1,0.6,1.4c0.3,0.3,0.7,0.6,0.7,1
	c-0.1,0.3-0.1,0.7-0.2,1c-0.1,0.5,0.1,0.5,0.5,0.8c0.5,0.5,0.8-0.1,1.2-0.5c0.9-0.7,1.8-1.4,2.8-1.9c0.5-0.3,1.1-0.5,1.7-0.7
	c0.2-0.1,0.9-0.3,0.5,0.1c-0.4,0.4-0.7,0.7-1.1,1.1c-0.6,0.6,0,1.3,0.7,1.1c1.2-0.4,2.3-1,3.4-1.6c0.7-0.4,0.9-0.8,1.4-1.5
	c0.1-0.2,0.1,0.2,0,0.3c-0.2,0.4-0.4,0.7-0.6,1.1c-0.3,0.6-0.6,1.2-0.9,1.7c-0.2,0.4-0.4,1.5,0.3,0.8c0.3-0.2,2.6-2.4,2.9-2
	c0.2,0.2-0.5,1.9-0.6,2.2c-0.1,0.6-0.2,1.8,0.5,1c0.5-0.6,1-1.1,1.6-1.7c0.4-0.4,0.5-0.5,0.5,0.2c0,0.6,0,1.2,0,1.8
	c0,0.2-0.2,1.2,0.1,1.3c0.4,0.2,0.7-1,1-1c0.3,0.1,0.1,2,0.1,2.2c0,0.4-0.3,3.1,0.1,3.1c0.5,0,0.8-0.6,1.4-0.5
	c0.5,0.1,0.6,0.3,0.9-0.1c0.5-0.7,0.7-1.5,0.8-2.3c0-0.6-0.1-1.2-0.3-1.8c-0.1-0.3-0.3-0.6-0.2-0.9c0.4-1.4,0.4-3.1-0.2-4.4
	c-0.9-2.3-3.6-3.7-5.8-4.5c-1.1-0.4-2.2-0.6-3.4-0.8c-0.6-0.1-1.2-0.2-1.7-0.4C63.5,17,62.7,16.5,62.9,17.3z"/>
<path d="M61.1,24.9c-0.4,0.4-0.7,1.1,0.2,0.8C62.2,25.4,61.3,24.7,61.1,24.9C61,25.1,61.2,24.9,61.1,24.9z"/>
<path fill="#FFFFFF" d="M56.9,26.8c-1.1-2-2.8,0.7-2.3,2.1c0.1,0.2,0.2,0.4,0.3,0.5c0.2,0.2,0.9,0.6,1.2,0.6
	C56.2,29.9,57.1,27.1,56.9,26.8C56.9,26.7,57,26.8,56.9,26.8z"/>
<path fill="#FFFFFF" d="M56.6,35c0.2-0.1-0.4-3-0.5-3.5c0-0.7,0.2-1.1-0.4-1.5c-0.6-0.4-1.3-0.3-1.8,0c-0.4,0.2-0.8-0.3-1.2,0.1
	c-0.1,0.1-0.2,0.2-0.2,0.4c0,0.1-0.4,0.1-0.6,0.2c-0.8,0.5-0.7,2.2-0.7,3c0.1,0.7,0.3,1.5,0.6,2.2c0.2,0.3,0.3,0.4,0.4,0.8
	c0.2,1.3,0.7,2.6,1.1,3.9c0.5,1.6,1.1,3.3,1.8,4.8c0.2,0.5,0.5,1,0.8,1.5c0.4,0.6,1,0.4,1.7,0.4c0.6,0,1.2-0.1,1.8-0.1
	c0.3,0,1,0,1.2-0.2c0.3-0.3,0.2-1.4,0.2-1.8c0-0.8,0-1.5,0-2.3c0-0.2,0.1-1.4-0.3-1.4c-0.2-0.1-0.6,0.1-0.7,0.1
	c-0.4,0-0.9,0.3-1.1-0.1c-0.6-1.3-1.2-2.7-1.8-4c-0.3-0.6-0.6-1.2-0.8-1.8C55.8,35.2,56.2,35.2,56.6,35z"/>
<path fill="#B5B5B6" d="M60.4,49.8c1.5,0,1.7-3.2,1.8-4.2c0-0.5,0.1-4.7-0.5-4.5c-0.6,0.2-0.8,0.2-0.8,0.9c0.1,0.8,0.1,1.6,0.1,2.4
	c0,1,0,2.1-0.2,3.1C60.8,47.8,60,49.8,60.4,49.8z"/>
<path fill="#E6E6E6" d="M60.6,47.3c-0.2-0.3-1.3,0-1.6,0c-0.5,0,0.3,1.5,0.3,1.7c0.2,0.6,0.5,1,0.8,0.2
	C60.3,48.9,60.9,47.7,60.6,47.3z"/>
<path fill="#898989" d="M63.8,39.9c0-0.4-2-0.6-2.4-0.8c-0.9-0.4-1.7-0.9-2.4-1.5c-0.4-0.3-0.7-0.8-0.9,0c-0.1,0.3-0.4,1.1-0.3,1.4
	c0,0.4,0.4,0.8,0.5,1.2c0.1,0.3,0.3,1,0.5,1.2c0.1,0.3,0.9,0.1,1.1,0C60.7,41.3,63.8,40.4,63.8,39.9z"/>
<path fill="#E6E6E6" d="M52.2,65c0.4,0.1,0.2-2,0.2-2.3c0-1,0.1-2.1,0.2-3.1c0.2-1.5,0.5-2.9,1.1-4.3c0.4-0.9,0.9-1.7,1.5-2.5
	c0.2-0.2,0.8-0.6,0.7-0.9c-0.1-0.4-2.4,0.1-2.7,0.1c-1.2,0.2-3.1,0.2-3.8,1.4c-0.8,1.2-1.1,2.8-1.2,4.1c-0.2,1.5-0.3,3.1,0.1,4.5
	C48.7,63.9,50.5,64.6,52.2,65C52.2,65,50.8,64.7,52.2,65z"/>
<path fill="#FFFFFF" d="M63.9,53.6c-0.5-1.3-2.1-1.8-3.3-2c-1-0.2-2.5,0.9-3.2,1.4c-1.6,1.3-2.6,3.3-3,5.3c-0.1,0.5-0.9,5.3-0.1,5.3
	c0.5,0,2.1-0.2,2.2-0.8c0.1-0.9,0.1-1.9,0.2-2.8c0-0.6,0.5-1.2,0.8-1.7c0.8-1.1,1.7-2.2,3-2.8c0.8-0.4,1.6-0.5,2.4-0.5
	c0.3,0,1.5,0.5,1.4-0.1C64.3,54.6,64.1,54.1,63.9,53.6C63.3,52.2,64.1,54.2,63.9,53.6z"/>
<path fill="#898989" d="M56.1,63.5c-0.3,0.2-2,0.4-1.9,0.7c0.1,0.5,0.1,1.2,0.7,1c0.3-0.1,1.5-0.3,1.5-0.7
	C56.5,64.4,56.5,63.3,56.1,63.5C55.4,63.8,56.2,63.4,56.1,63.5z"/>
<path fill="#E6E6E6" d="M64.2,58.9c0-0.4,0.5-3.2,0-3.4c-1.2-0.4-2.5-0.3-3.7,0.2c-1.5,0.7-2.7,2.2-3.4,3.6
	c-0.2,0.5-0.2,0.9-0.3,1.4c0,0.3-0.3,1.5,0.1,1.5c0.2,0,0.6-0.5,0.8-0.7c0.8-0.7,1.8-1.4,2.8-1.9c0.6-0.3,1.2-0.5,1.9-0.6
	C62.8,59.2,64.1,59.3,64.2,58.9z"/>
<path fill="#B5B5B6" d="M58.6,51.6c-0.7,0-1.5-0.1-2.1,0.4c-0.5,0.3-0.8,0.7-1.2,1.1c-1.6,1.9-2.3,4.6-2.6,7
	c-0.1,0.9-0.2,1.8-0.2,2.7c0,0.6,0,1.2,0,1.7c0,0.5-0.2,0.5,0.4,0.6c0.2,0,0.9,0.3,1.1,0C54.3,65,54,64.3,54,64
	c-0.1-0.9-0.2-1.8-0.1-2.7c0.1-2,0.5-4,1.4-5.7c0.5-0.9,1.1-1.7,1.9-2.4c0.4-0.3,0.8-0.6,1.3-0.9C58.5,52.2,59.2,51.6,58.6,51.6
	C58.1,51.6,58.7,51.6,58.6,51.6z"/>
<path fill="#E6E6E6" d="M55.8,70.4c0.1,0.1,0.1,0.1,0.2,0.2c0.3-0.3,0.2-1.5,0.2-1.9c0.1-0.9,0.1-1.7,0.2-2.6c0-0.2,0.2-1.2-0.2-1
	c-0.4,0.1-0.7,0.2-1.1,0.3c-0.5,0.2-1.2,0.1-1.7,0c-0.8-0.1-1.5-0.3-2.2-0.5c-0.4-0.1-1.5-1-1.7-0.4c-0.2,0.7-0.7,1.5-0.5,2.2
	c0.4,1.5,1.3,3,2.5,4.1c1,0.8,2.2,1.3,3.5,1.2C55.1,71.9,56.2,70.7,55.8,70.4z"/>
<path fill="#514A47" d="M37.6,89c-0.2-0.3-0.3-0.7-0.5-1c-0.2-0.4-0.5,0-0.7,0.2c-0.7,0.7-1.3,1.4-2,2c-0.4,0.4-1-0.6-1-1
	c0-0.4,0.2-0.6,0.4-0.9c0.3-0.5,0.6-0.9,0.9-1.4c0.1-0.2,0.5-0.6,0.5-0.8c0.2-0.4-0.6-0.7-0.9-0.7c-0.4-0.2-1.7,1.7-1.9,2
	c-0.7,0.9-2.2,2.7-1.5,3.9c0.8,1.3,2,2,3.4,1.3c0.7-0.3,1.3-0.9,1.8-1.5C36.5,90.8,37.9,89.4,37.6,89z"/>
<path fill="#514A47" d="M33.9,88.7c-0.7,0.1-0.1,1.8,0.5,1.3C35,89.7,34.4,88.7,33.9,88.7C33.9,88.7,34,88.7,33.9,88.7z"/>
<path fill="#514A47" d="M34.9,89.4c0.3,0,0.9-0.7,0.6-0.9c0-0.1-0.7-0.7-0.8-0.8c-0.3-0.3-0.8,0.6-0.6,0.9
	C34.2,88.7,34.7,89.4,34.9,89.4z"/>
<path fill="#514A47" d="M35.1,86.7c-0.3,0.4-0.4,0.6,0,1c0.1,0.1,0.7,0.9,1,0.7C37.2,88,35.3,86.3,35.1,86.7z"/>
<path fill="#514A47" d="M36.5,87.6c0.2,0.2,0.5-0.1,0.4-0.3c0-0.2-0.2-0.5-0.3-0.7c-0.1-0.3-0.4-0.7-0.8-0.7
	c-0.4-0.1-0.4,0.5-0.2,0.6C35.9,86.9,36.2,87.2,36.5,87.6z"/>
<path fill="#514A47" d="M38.8,86.7c-0.5-0.3-0.9-0.6-1.4-0.9c-0.4-0.3-0.4-0.6-0.6-1c-0.2-0.5-0.3-1.7-1-1.1c-0.3,0.3-1.3,1-1.3,1.4
	c0,0.2,0.4,0.3,0.6,0.4c0.3,0.1,1.2,0.3,1.3,0.6c0.2,0.6,0.5,1.1,0.7,1.7c0.2,0.5,0.4,1.4,0.9,0.6C38.4,88.1,39.1,87,38.8,86.7z"/>
<path fill="#514A47" d="M36.8,83.1c-0.5-0.1,0.2,1.8,0.3,2c0.2,0.7,0.9,0.9,1.5,1.3c0.1,0.1,0.6,0.5,0.7,0.4c0.6,0,0.5-0.7,0.5-1.1
	C39.5,84.1,38.3,83.2,36.8,83.1C36.7,83.1,37.4,83.2,36.8,83.1z"/>
<path fill="#E6E6E6" d="M47.8,78.6c-1.9-0.6-3.3-1.9-3.8-3.8c-0.3-1.1-1.2,0.5-1.5,0.9c-1.8,2.2-3.6,4.4-5.3,6.5
	C37,82.4,36.5,82.9,37,83c1.2,0.1,2.3,0.8,2.7,2c0.1,0.4,0.1,1.5,0.7,1c0.3-0.3,0.7-0.6,1-0.9c2.1-1.9,4.1-3.8,6.2-5.7
	C47.8,79.2,48.2,78.8,47.8,78.6C44.9,77.8,47.9,78.7,47.8,78.6z"/>
<path fill="#E6E6E6" d="M50.4,75.9c-2.2,0.5-4-1.8-4-3.8c0-0.2,0.2-0.7-0.1-0.9c-0.3-0.2-0.9,0.5-1,0.7c-0.6,0.6-1.4,1.4-1.3,2.3
	c0.2,1.4,1,2.7,2.3,3.5c0.5,0.3,1,0.5,1.5,0.7c0.6,0.2,0.7,0.1,1.3-0.3c0.4-0.3,0.8-0.7,1.2-1.2C50.3,76.8,51.1,75.8,50.4,75.9
	C50.3,76,50.5,75.9,50.4,75.9z"/>
<path fill="#FFFFFF" d="M53.2,73.5c-2-0.3-3.8-1.5-4.7-3.4c-0.1-0.2-0.5-1.9-0.8-1.2c-0.3,0.6-0.6,1.3-0.9,1.9
	c-0.6,1.3-0.3,3.1,0.8,4c0.9,0.8,2.1,1.3,3.3,0.8c0.6-0.3,1.2-0.8,1.8-1.2C52.8,74.3,53.8,73.6,53.2,73.5
	C49.6,72.9,53.3,73.5,53.2,73.5z"/>
<path fill="#B5B5B6" d="M54.4,72c-2.3,0-4-1.7-5.1-3.6c-0.1-0.2-0.8-2-1.1-1.3c-0.2,0.5-0.2,0.7-0.1,1.2c0.2,1.4,0.9,2.8,2,3.7
	c0.9,0.7,1.9,1.1,3,1.3c0.5,0.1,0.7,0.1,1-0.3C54.3,72.9,55,72.1,54.4,72C50.9,72,54.5,72,54.4,72z"/>
<path fill="#514A47" d="M57.3,70.3c0.2-0.6-0.5-0.2-0.6,0.1c-0.3,0.4-0.5,0.9-0.7,1.4c-0.4,0.7-0.3,1.8,0,2.5
	c0.1,0.2,0.3,0.7,0.6,0.5c0.3-0.2,0-0.9,0-1.2C56.6,72.5,56.9,71.4,57.3,70.3C57.3,70.2,56.7,72.1,57.3,70.3z"/>
<path fill="#514A47" d="M61,72.1c0.7,0,0.7,1.3,0,1.3S60.3,72.1,61,72.1z"/>
<path fill="#514A47" d="M65,68.2c0.7,0,0.7,1.3,0,1.3C64.3,69.4,64.3,68.2,65,68.2z"/>
<path fill="#514A47" d="M67.6,65.8c0.7,0,0.7,1.3,0,1.3S66.9,65.8,67.6,65.8z"/>
<path fill="#A29E9B" d="M67.7,61.7c-2.5-0.9-4.8,1-6.4,2.6c-1.2,1.2-2.1,2.2-2.8,3.7c-0.7,1.5-1.4,3.2-1.6,4.9
	c-0.1,0.7-0.1,1.4,0.3,2c0.4,0.7,1.5,0.6,2.3,0.2c0.5-0.3,0.9-0.7,1.3-1.1c0.6-0.7-0.1-0.6-0.2-1.2c-0.1-0.5,0.2-1,0.7-1
	c0.4,0,0.8,0.8,1,0.5c0.3-0.1,0.8-1,1.1-1.3c0.4-0.5,0.9-0.9,1.4-1.2c0.3-0.2-0.4-1-0.2-1.3c0.2-0.6,1-0.8,1.3-0.2
	c0.1,0.1,0.1,0.7,0.4,0.4c0.3-0.2,0.6-0.4,0.9-0.7c0.1-0.1,1-0.7,0.5-0.9c-1.3-0.4,0.2-2.5,0.8-1.2c0.2,0.5,0.3,0.7,0.7,0.1
	c0.3-0.6,0.6-1.2,0.6-1.9C69.6,63,68.8,62.1,67.7,61.7C67.2,61.6,68.7,62.1,67.7,61.7z"/>
<path fill="#E6E6E6" d="M56.4,70.3c0.3,0.1,2.1-3,2.3-3.4c0.7-0.9,1.4-1.7,2.3-2.6c0.5-0.5,1.1-1.1,1.7-1.5c0.7-0.5,0.9-0.7,1.1-1.6
	c0.1-0.3,0.5-1.9,0.1-2c-0.7-0.1-1.5,0-2.2,0.3c-1.8,0.5-3.5,1.7-4.7,3.1c-0.3,0.3-0.3,0.4-0.4,0.9c-0.1,0.8-0.1,1.7-0.2,2.5
	C56.4,66.6,55.9,70.1,56.4,70.3z"/>
<path fill="#898989" d="M69.7,39.6c-0.8-0.6-1.8-0.9-2.7-0.5c-0.8,0.4-1.6,0.6-2.4,0.9c-0.5,0.2-2.5,0.5-2.4,1.2
	c0.1,0.6,0.1,1.3,0.2,1.9c0.1,1.8,0.1,3.9-0.7,5.6c-0.3,0.6,0.7,0.2,0.9,0.1c0.6-0.3,1.2-0.5,1.8-0.8c0.2-0.1,2.7-1.3,2.8-1.2
	c0.1,0.2-4.5,2.1-4.9,2.3c-0.7,0.3-1.4,0.6-2.1,0.9c-0.5,0.2-0.5,0.1-0.7-0.3c-0.3-0.7-0.5-1.5-0.9-2.2c-0.1-0.5-1.9,0.1-2.4-0.4
	c-0.2-0.2-0.6-1.1-0.9-0.6c-0.2,0.3-0.3,0.6-0.5,0.9c-0.6,1-1.2,2.1-1.9,3c-0.2,0.3-0.9,0.9-0.9,1.2c-0.1,0.6,0.9,0.2,1.1,0.2
	c1.3-0.2,2.7-0.3,4.1-0.4c1.5-0.1,3.1-0.2,4.6,0.2c0.8,0.3,1.7,0.7,2.2,1.4c0.2,0.3,0.4,1.2,0.7,1.3c0.2,0.1,0.6-0.6,0.7-0.7
	c1.4-1.8,3-3.4,4.4-5.1C71.5,46.2,72.5,41.8,69.7,39.6C69.1,39.2,70.4,40.2,69.7,39.6z"/>
<path fill="#FFFFFF" d="M72.3,33.5c-0.1,0.1-0.5,1.1-0.6,1.1c-0.1,0,0.3-1.8,0.4-2c0.1-0.9,0.1-1.9,0.1-2.8c0-0.2,0-1.8-0.5-1
	c-0.1,0.1-0.8,1.2-1,1.2c-0.1-0.1,0.2-1.3,0.2-1.4c0.1-0.5-0.8-0.4-1.1-0.4c-0.4,0.1-0.5-0.1,0-0.2c0.6-0.1,1.2,0.4,1.2-0.5
	c0-0.2,0.2-2.2-0.5-1.5c-0.4,0.5-0.9,1-1.3,1.4c-0.1,0.1-0.6,0.9-0.9,0.8c-0.4-0.2,0.3-2.9,0.4-3.3c0.2-0.7-0.7-0.1-0.8,0
	c-0.5,0.3-0.9,0.7-1.4,1.1c-0.1,0.1-1.3,1.4-1.4,1.3c-0.2-0.1,0.4-1.5,0.5-1.7c0-0.1,0.9-2,0.3-1.6c-0.7,0.5-1.5,0.9-2.3,1.2
	c-0.2,0.1-1,0.2-1.1,0.5c-0.1,0.2,0.5,0.6,0.3,0.8c-0.1,0.1-0.5-0.8-0.8-0.7c-0.6,0.2-1.1,0.4-1.7,0.6C60,26.3,59.7,26.4,60,26
	c0.4-0.6,0.8-1.1,1.3-1.5c0.2-0.2,0.6-0.4,0.6-0.7c0-0.2-0.1-0.4-0.3-0.3c-0.6,0.3-1.2,0.6-1.8,0.9c-0.6,0.4-2.1,1.1-2.4,1.9
	c-1,2.1-1.4,4.8-0.9,7.1c0.9,3.9,4.7,6.3,8.5,6.3c0.9,0,1.7-0.9,2.6-1c0.6,0,1.1-0.2,1.6-0.5c0.4-0.2,1.6-1.7,1.8-1.7
	c1.1,0.4,2.2,0,2.9-0.9c0.5-0.7,0.8-1.7,0.4-2.5C73.9,32.3,72.8,33,72.3,33.5C72.3,33.5,73.1,32.7,72.3,33.5z"/>
<path fill="#727171" d="M61.4,33.6c1.4,1,3.2,1.7,4.9,1.5c-0.4,1.6-1.6,3.5-3.5,3C60.8,37.5,60.9,35.1,61.4,33.6z"/>
<g>
	<path fill="#514A47" d="M59.2,70.6c0.7,0,0.7,1.2,0,1.2C58.6,71.8,58.6,70.6,59.2,70.6z"/>
	<path fill="#514A47" d="M63,65.4c0.7,0,0.7,1.2,0,1.2C62.3,66.6,62.3,65.4,63,65.4z"/>
	<path fill="#514A47" d="M65.7,63.4c0.7,0,0.7,1.2,0,1.2S65,63.4,65.7,63.4z"/>
</g>
<g>
	<path d="M75.4,27.5c0.4-1.4,0.4-3-0.1-4.5c-0.8-2.4-3.3-3.9-5.5-4.8c-1-0.4-2-0.7-3-0.9c-1-0.2-2.1-0.3-3-0.7
		C63.5,15,62,13.3,61,12c-0.5-0.7-1.1-1.4-1.6-2.1c-0.3-0.4-0.9-0.9-1-1.3c-0.3-1.1-0.6-2.3-1.3-3.3c-0.5-0.8-1-0.7-1.8-1
		c-0.6-0.2-1-0.5-1.7-0.4c-0.5,0-0.7-0.3-1.3-0.4c-1.6-0.1-0.6,2.3-0.9,2.9c-0.5,1-1,2,0.1,2.9c0.8,0.7,1.8,1.1,2.8,1.5
		c0.8,1.2,1.4,2.6,2.1,3.9c0.3,0.6,0.6,1.2,0.9,1.7c0.3,0.6,0.2,1.2,0.5,1.8c-0.6,0-2.6-0.1-2.9,0.7c-0.2,0.6,0.6,1.9,1,2.4
		c-0.3,0.1-2.2,0.4-1.6,1c0.3,0.6,1.2,1.3,1.7,1.8c0.2,0.2,0,0.4,0,0.7c-0.1,0.6-0.1,0.6-0.5,0.9c-1.1,0.7-1.6,2.5-0.9,3.7
		c-0.2,0.1-0.4,0.1-0.6,0.3c-0.3-0.1-0.5-0.1-0.8-0.1c-0.3,0.1-0.5,0.2-0.6,0.4c-0.2,0.3-0.3,0.2-0.6,0.3c-0.9,0.5-0.9,1.9-0.9,2.8
		c0,0.9,0.1,1.8,0.5,2.6c0.2,0.5,0.5,0.8,0.6,1.3c0.5,1.9,1.1,3.8,1.7,5.7c0.3,1,0.7,2,1.2,2.9c0.2,0.3,0.2,0.3,0,0.6
		c-0.1,0.2-0.3,0.5-0.4,0.7c-0.9,1.6-1.8,3.2-3.1,4.5c-0.3,0.3-0.6,0.6-0.9,0.7c-0.4,0.1-0.9,0.3-1.2,0.6c-0.5,0.5-0.8,1.4-1.1,2.1
		c-0.6,1.9-0.8,4-0.6,6c0.1,0.8,0.2,1.8,0.7,2.5c0.2,0.2,0.7,0.5,0.6,0.8c-0.1,0.3-0.2,0.6-0.3,0.9c-0.4,1-0.6,2.1-1,3
		c-0.3,0.6-0.6,1.3-0.9,1.9c-0.2,0.5-0.5,0.6-1,1c-1.1,0.8-1.6,2-2.5,3.1c-0.8,1-1.6,2-2.4,3c-1.7,2-3.3,4.1-5,6.1
		c-0.9,1.1-2,2-2.9,3.1c-1,1.2-2.6,3-2.5,4.7c0.1,2,2.5,3,4.1,2.2c2-0.9,3.4-3.2,4.3-5c0.3-0.7,0.5-0.8,1.1-1.1
		c0.2-0.1,0.3-0.2,0.4-0.4c0.9-0.8,1.8-1.6,2.7-2.5c1.9-1.7,3.7-3.4,5.6-5.1c0.7-0.6,1.4-1.1,2-1.8c0.2-0.3,0.4-0.6,0.5-0.9
		c0.2-0.4,0.3-0.4,0.7-0.7c1.1-0.7,2.1-1.5,2.8-2.5c0.3-0.4,0.5-0.8,0.8-1.2c-0.2,1.1-0.2,2.4,0.6,3.3c0.8,0.9,2.2,1.1,3.3,0.6
		c1.3-0.7,2.2-2,3-3c0.9-1.1,1.9-2.1,3.1-2.9c2-1.4,4.7-3.1,4.5-5.9c-0.2-2.9-3.7-3.3-5.8-2.2c0.3-1.5,0.5-3,0.6-4.5
		c0-0.6-0.1-1.9,0.2-2.4c1.4-1.7,2.8-3.5,4.3-5.1c2.6-2.8,4.4-8.7,0-10.9c0.5-0.2,1-0.6,1.3-1c0.2-0.2,0.4-0.8,0.7-0.7
		c0.2,0.1,0.4,0.1,0.7,0.1c1.5,0,2.8-1.1,3.1-2.6c0.1-0.3-0.2-1.5-0.1-1.6c0.3-0.3,0.5-0.7,0.6-1.1C76.1,30.5,76,28.9,75.4,27.5
		C75.6,26.7,76.7,30.4,75.4,27.5z M54.8,10.3c-0.3-0.4-1.4-0.6-1.9-0.9c-1.1-0.6-1.7-1.1-1.1-2.2c0.2,0.6,0.7,0.1,0.5-0.4
		c-0.1-0.5-0.3-0.9-0.3-1.4c0-0.3-0.1-1.1,0.2-1.2c0.5-0.1,0.7,0.6,1.1,0.4c0.8-0.3,1.7,0.3,2.5,0.5c0.8,0.2,1.2,1.5,1.5,2.2
		c0.2,0.6,0.2,1.4,0.6,1.9c0.4,0.5,0.8,1,1.2,1.5c1.3,1.7,2.6,3.4,3.6,5.2c-0.3,0-0.3,0.5-0.3,0.7c-0.3-0.2-0.6-0.5-0.9-0.8
		c-0.2-0.2-0.3-0.5-0.5-0.7c-0.6-0.5-0.6,1.2-0.6,1.4c-0.6-0.2-1.2-0.5-1.7-0.8c-0.5-0.3-0.7-0.5-1,0.2C56.9,14,56,12,54.8,10.3
		C54.8,10.2,55.4,11,54.8,10.3z M55.1,22.2c0.4-0.1,1.1-0.2,1.5-0.4c0.6-0.2-0.1-0.8-0.2-1c-0.3-0.5-0.6-1-0.7-1.5
		c0.9-0.4,1.9-0.4,2.9-0.2c0.8,0.1,0-1-0.1-1.2c-0.2-0.5-0.2-1.1,0-1.6c0.7,0.5,1.5,0.8,2.3,1.1c0.2,0.1,0.6,0.3,0.8,0
		c0.2-0.3-0.3-0.8-0.3-1.1c0.2,0.2,2.4,2.2,2.1,0.7c0.9,0.5,1.9,0.7,2.9,0.9c1.2,0.2,2.3,0.5,3.4,0.9c2.4,1,5.1,2.6,5.5,5.4
		c0.1,0.8,0.1,1.6,0,2.5c0,0.2-0.1,0.4-0.1,0.7c-0.1,0.5,0.3,1.2,0.4,1.6c0.2,1.1,0,2.2-0.5,3.1c-0.3,0.4-0.2,0.3-0.7,0.2
		c-0.6-0.2-1.1,0.1-1.6,0.5c0.2-1.5,0.2-3.1,0.1-4.6c-0.1-1.3-0.9-0.2-1.2,0.3c0.1-1,0.1-1.9,0.1-2.9c0-0.4-0.1-1.2-0.6-0.6
		c-0.7,0.7-1.4,1.5-2,2.2c0-0.7,0.2-1.5,0.4-2.2c0.1-0.3,0.4-0.7,0.3-1.1c-0.1-1-3.2,1.7-3.5,2c0.4-1.1,1-2.2,1.6-3.2
		c0.1-0.2,0.4-0.5,0.3-0.7c-0.1-0.7-0.6,0-0.8,0.2c-0.4,0.7-1.1,1-1.8,1.5c-0.6,0.3-1.2,0.6-1.8,0.9c-0.3,0.1-0.6,0.2-0.9,0.4
		c-0.5,0.2-0.4-0.1-0.8-0.4c0.3-0.3,1.7-1.3,1.5-1.9c-0.3-0.7-2.5,0.6-2.9,0.8c-1.2,0.7-2.4,1.5-3.4,2.5c-0.5-0.5-0.7-0.3-0.5-1
		c0.1-0.3,0.3-1,0.1-1.2C56.3,23.3,55.5,22.7,55.1,22.2z M61.3,25.1c0.1,0.1,0.2,0.1,0.3,0.2c-0.2,0.1-0.4,0.1-0.6,0.2
		C61,25.4,61.2,25.3,61.3,25.1C61.4,25.2,61.2,25.3,61.3,25.1z M55.2,26.9c0.5-0.8,1.1-0.8,1.5,0c0.1,0.1-0.3,0.9-0.3,1.1
		c-0.2,0.6-0.3,1.2-0.4,1.7c-0.5-0.4-1-0.3-1.2-0.9C54.6,28.1,54.9,27.4,55.2,26.9C55.4,26.6,54.5,28.2,55.2,26.9z M52.5,36.1
		c-0.5-0.5-0.7-1.2-0.8-1.9c-0.1-0.8-0.1-1.7,0.1-2.5c0-0.2,0.1-0.4,0.2-0.6c0.2-0.2,0.7-0.1,0.8-0.5c0.2-0.7,0.9-0.1,1.3-0.4
		c0.8-0.5,1.2-0.1,1.9,0.2c-0.1,1,0,2,0.2,3c0.1,0.5,0.2,0.9,0.4,1.3C56.5,34.9,56.1,35,56,35c-0.7,0.3,1.4,4.2,1.7,4.7
		c0.3,0.7,0.6,1.4,0.9,2c0.2,0.5,1.6,0.1,2,0c0.1,1.3,0.1,2.6,0.1,4c0,0.7,0.1,1-0.6,1.1c-0.6,0.1-1.2,0.1-1.8,0.1
		c-0.5,0-1.6,0.3-2-0.2c-0.4-0.4-0.6-1-0.8-1.5c-0.7-1.6-1.3-3.3-1.9-5.1c-0.3-0.8-0.5-1.6-0.7-2.4C52.8,37.5,52.8,36.4,52.5,36.1
		C52.4,36.1,52.5,36.2,52.5,36.1z M61.1,49.1c-0.2,0.2-0.3,0.3-0.6,0.4c0.7-1.4,0.8-3.2,0.8-4.8c0-0.7,0-1.5-0.1-2.2
		c0-0.3,0-0.5-0.1-0.8c0-0.4,0.3-0.4,0.7-0.5C62.2,43.6,62.6,47.1,61.1,49.1C61,49.2,62.6,47.2,61.1,49.1z M59.8,49.5
		c-0.2-0.6-0.5-1.3-0.8-1.9c0.5,0,0.9-0.1,1.4-0.1C60.3,48.2,60.2,48.9,59.8,49.5C59.6,48.9,60.1,49,59.8,49.5z M60.7,40.9
		c-0.4,0.1-0.8,0.2-1.3,0.3c-0.5,0.1-0.4,0-0.6-0.5c-0.2-0.5-0.4-1-0.7-1.5c-0.3-0.6,0.1-1.2,0.2-1.8c1.4,1.4,3.2,2.2,5.2,2.5
		C62.6,40.3,61.7,40.6,60.7,40.9z M57.6,38.1c-0.4-0.8-0.8-1.7-1.1-2.5c0.1-0.1,0.3-0.1,0.4-0.2c0.2,0.5,0.5,0.9,0.8,1.3
		C58,37.1,57.8,37.6,57.6,38.1z M49.8,53.3c0.5-0.5,1.4-0.6,2.1-0.7c1.2-0.2,2.5-0.4,3.8-0.5c-1.1,1-1.9,2.4-2.4,3.8
		c-0.4,1.2-0.7,2.5-0.9,3.8c-0.1,0.8-0.2,1.6-0.2,2.5c0,0.7-0.3,2,0.1,2.7c-1.3-0.3-2.8-0.8-3.5-2c-0.5-0.9-0.6-2.1-0.6-3.2
		c0-1.2,0.2-2.5,0.5-3.7C48.9,55,49.1,53.9,49.8,53.3C50.5,52.7,48.6,54.4,49.8,53.3z M60.1,52c0.7-0.2,1.6,0.1,2.2,0.4
		c1.1,0.5,1.6,1.5,1.8,2.6c-2.4-0.6-4.6,0.4-6.1,2.2c-0.8,0.9-1.5,1.9-1.6,3.1c-0.1,0.8-0.1,1.7-0.2,2.5c-0.6,0.4-1.3,0.6-1.9,0.6
		c-0.2-1.7,0-3.5,0.4-5.2C55.5,55.3,57.3,53,60.1,52C60.2,52,59.3,52.3,60.1,52z M56.2,64.5c-0.5,0.1-1,0.4-1.6,0.5
		c0-0.3-0.1-0.6-0.2-0.9c0.6,0,1.2-0.2,1.8-0.4C56.2,64,56.2,64.2,56.2,64.5C55.8,64.6,56.2,64.2,56.2,64.5z M64.2,55.8
		c0.1,0.9-0.1,1.8-0.1,2.7c0.1,0.4,0,0.5-0.3,0.4c-0.3,0-0.6,0-0.9,0c-0.6,0.1-1.1,0.2-1.7,0.4c-1.5,0.6-2.9,1.6-4.1,2.8
		c0.1-0.8,0-1.7,0.3-2.4c0.3-0.6,0.7-1.3,1.1-1.8C59.8,56.1,61.9,55.2,64.2,55.8C64.2,55.9,59.6,54.5,64.2,55.8z M55.4,55
		c-1.7,2.9-2.2,6.8-1.4,10.1c-0.4,0-0.8-0.1-1.2-0.2c0.3-0.3,0.1-1,0.1-1.4c0-0.7,0-1.3,0-2c0.1-1.1,0.2-2.2,0.4-3.3
		c0.3-1.4,0.8-2.8,1.5-4.1c0.4-0.7,0.9-1.3,1.6-1.8c0.7-0.5,1.4-0.5,2.3-0.5C57.3,52.6,56.2,53.7,55.4,55
		C53.6,57.9,56.4,53.3,55.4,55z M54.4,65.7c0.6,0,1.2-0.3,1.8-0.5c-0.1,1.4-0.2,2.8-0.3,4.2c0,0.9-0.3,1.1-0.8,1.9
		c-0.7,1.1-3.2-0.4-4-1.1c-0.9-0.9-1.6-2.1-2-3.3c-0.1-0.2-0.3-0.6-0.2-0.8c0.2-0.6,0.4-1.1,0.6-1.7C50.9,65.3,52.7,65.7,54.4,65.7z
		 M33.3,92.7c-0.8,0-1.5-0.5-1.9-1.2c-0.5-0.7-0.2-1.4,0.2-2.1c0.5-0.9,1.2-1.8,1.9-2.6c0.1-0.1,0.9-1.1,1-1.1
		c0.2,0.1,0.5,0.2,0.7,0.3c-0.6,0.9-2.5,2.9-1.6,4.1c0.7,1,1.3,0.1,1.9-0.4c0.5-0.5,1.1-1.1,1.6-1.6c0.1,0.3,0.3,0.6,0.4,0.9
		c0.2,0.4-0.7,1.3-1,1.6C35.7,91.5,34.6,92.7,33.3,92.7C33.3,92.7,34.5,92.7,33.3,92.7z M34,89c0.1,0,0.4,0.4,0.5,0.6
		c0,0.1-0.1,0.2-0.2,0.2C34,89.7,33.9,89.3,34,89z M35,89.1c-0.4-0.6-0.7-0.6-0.3-1.2c0.3,0.3,0.5,0.5,0.8,0.8
		C35.3,88.8,35.1,89,35,89.1z M35.9,88.2c-0.2-0.2-0.4-0.4-0.6-0.6c-0.4-0.3-0.3-0.3,0-0.7C35.6,87.2,36.6,87.8,35.9,88.2z
		 M36.7,87.4c-0.2-0.2-1.1-1-1-1.2c0,0,0.5,0.2,0.6,0.2C36.5,86.7,36.6,87.1,36.7,87.4z M37.9,88.5c-0.3-0.8-0.7-1.6-1-2.4
		c-0.3-0.6-1.4-0.8-2-1c0.5-0.5,0.9-0.9,1.4-1.4c0.2,0.8,0.3,1.9,1.1,2.4c0.3,0.2,1.3,0.6,1.4,0.9C38.8,87.2,38,88.3,37.9,88.5z
		 M39.2,86.5c-0.3-0.5-1.3-0.9-1.8-1.2c-0.3-0.2-0.5-1.5-0.6-1.9c0.9,0,1.8,0.3,2.3,1.1C39.4,84.9,40,86.3,39.2,86.5z M39.4,83.8
		c-0.6-0.7-1.4-1-2.3-1.1c2.2-2.7,4.4-5.4,6.7-8.1c0.4,2.1,2,3.7,4,4.3c-2.5,2.3-5,4.6-7.6,6.9C40.2,85.1,39.9,84.3,39.4,83.8
		C38.7,83,39.9,84.3,39.4,83.8z M48.4,78.3c-0.4,0.3-2-0.8-2.4-1.1c-0.6-0.5-1.2-1.2-1.4-2c-0.2-0.4-0.3-0.9-0.3-1.3
		c0-0.8,1.4-2,2-2.5c-0.2,1.1,0,2.4,0.8,3.3c0.8,0.9,2.2,1.7,3.5,1.5C50,77.1,49.2,77.8,48.4,78.3z M51.9,74.7c-1,0.7-1.9,1.1-3,0.5
		c-1.2-0.6-1.9-1.4-2-2.8c-0.1-1.3,0.6-2.4,1.1-3.5c0.6,2.6,2.6,4.4,5.2,4.8C52.8,74.1,52.3,74.4,51.9,74.7
		C50.6,75.7,52.6,74.2,51.9,74.7z M53.9,73.1c-2-0.2-4-1.2-4.9-3c-0.4-0.9-0.7-1.9-0.4-2.9c0.9,2.5,2.9,5.1,5.9,5.1
		C54.3,72.6,54.1,72.9,53.9,73.1z M56.1,72.1c0.3-0.6,0.6-1.2,1-1.8c-0.5,1.3-1,2.9-0.6,4.3C56,73.8,56,72.9,56.1,72.1
		C56.2,71.9,55.9,73.1,56.1,72.1z M61.1,73.1c-0.4,0-0.4-0.7,0-0.7C61.5,72.4,61.5,73.1,61.1,73.1z M64.8,68.8c0-0.5,0.6-0.5,0.6,0
		C65.4,69.2,64.8,69.2,64.8,68.8z M67.6,66.8c-0.4,0-0.4-0.7,0-0.7S68.1,66.8,67.6,66.8z M67.6,62c2,0.7,2,2.8,0.9,4.3
		c-0.1-0.7-0.8-1.2-1.4-0.8c-0.7,0.5-0.6,1.7,0.2,2c-0.5,0.4-0.9,0.7-1.4,1.1c-0.3-1.9-2.9-0.1-1.5,1.1c-1,0.8-1.8,1.6-2.6,2.6
		c-0.7-1.7-2.8,0.7-1.2,1.5c-0.9,1-3.4,2.8-3.7,0.3c-0.2-1.7,0.6-3.5,1.3-5c0.3-0.8,0.7-1.5,1.1-2.2c0.5-0.9,1.5-1.8,2.3-2.5
		C63.3,62.8,65.4,61.2,67.6,62z M59.8,65.3c-1.3,1.4-2.4,3.1-3.3,4.8c0.1-1.6,0.2-3.2,0.3-4.8c0-0.2,0.1-2.3,0.2-2.3
		c0.2,0,0.4-0.3,0.5-0.4c1.7-1.7,4-3.2,6.4-3c-0.1,0.6-0.2,1.2-0.3,1.8c-0.2,0.8-0.6,1-1.2,1.5C61.4,63.6,60.6,64.4,59.8,65.3
		C59.6,65.5,60.8,64.2,59.8,65.3z M71.3,43.8c-0.3,1.9-1,3.8-2.3,5.2c-1.6,1.6-3,3.4-4.4,5.2c-0.6-1.9-2.5-2.9-4.5-3
		c-2.6-0.1-5.4,0.2-8,0.6c1.4-1.5,2.4-3.3,3.4-5.1c0.2,0.3,0.6,0.9,1,1c0.3,0,1.7-0.1,1.8,0c0.4,0.8,0.6,1.8,1,2.6
		c0.5,0.7,2.8-0.7,3.4-1c1.4-0.6,2.8-1.2,4.2-1.9c0.2-0.1,0.4-0.2,0.3-0.5c-0.2-0.5-1.2,0.2-1.5,0.3c-1.3,0.6-2.6,1.2-4,1.8
		c0.8-1.6,0.8-3.6,0.7-5.3c0-0.7-0.1-1.3-0.2-2c0-0.2,0-0.4-0.1-0.5c0.5-0.2,1.1-0.4,1.6-0.6c1.5-0.5,3.3-1.8,4.9-1
		C70.6,40.3,71.4,42.1,71.3,43.8C71.3,44,71.4,41.5,71.3,43.8z M73.9,35.5c-0.5,0.7-1.3,1-2.1,1c-0.6,0-0.8-0.4-1.2,0.3
		c-0.4,0.7-1,1.2-1.8,1.5c-0.5,0.2-1,0.1-1.5,0.3c-0.9,0.3-1.7,0.9-2.7,0.8c-0.8-0.1-1.7-0.1-2.4-0.4c-1.5-0.4-2.9-1.5-3.9-2.6
		c-1.8-2.2-2-5.1-1.3-7.7c0.2-0.7,0.4-1.4,0.7-2.1c0.2-0.4,0.8-0.7,1.1-1c0.9-0.7,1.9-1.3,3-1.8c-0.6,0.6-1.2,1.2-1.7,1.9
		c-0.2,0.3-0.6,1.2,0.2,0.9c0.5-0.2,1.7-0.8,2-0.4c0.7,0.9,1,0.3,0.5-0.5c1.2-0.4,2.3-0.9,3.3-1.6c-0.4,0.7-0.7,1.5-0.9,2.3
		c-0.1,0.3-0.3,1.6,0.4,1c0.9-1,1.9-1.9,3-2.6c-0.3,1-0.4,2-0.5,3c0,0.7,0.3,0.8,0.8,0.4c0.7-0.7,1.3-1.4,2-2.1c0,0.6,0,1.1,0,1.7
		c-0.3-0.1-1.7-0.3-1.6,0.4c0.1,0.4,0.4,0.2,0.6,0.2c0.7-0.1,0.9,0.1,0.8,0.8c0,0.3-0.3,0.8,0,1c0.2,0.2,0.4-0.1,0.5-0.3
		c0.3-0.3,0.5-0.7,0.8-1c0,1.1,0,2.2,0,3.3c0,0.4-0.6,2.5-0.3,2.7c0.5,0.3,0.6-0.8,0.7-1.1c0.5-0.1,0.8-0.7,1.3-0.8
		C74.9,32.9,74.2,35,73.9,35.5C72.7,37,74.5,34.7,73.9,35.5z"/>
	<path d="M59.1,70c-1.2,0-1.2,2.2,0,2.2C60.3,72.2,60.3,70,59.1,70z M59.1,71.5c-0.4,0-0.4-0.7,0-0.7S59.5,71.5,59.1,71.5z"/>
	<path d="M63,67.1c1.2,0,1.2-2.2,0-2.2C61.7,65,61.7,67.1,63,67.1z M63,65.7c0.4,0,0.4,0.7,0,0.7C62.5,66.4,62.5,65.7,63,65.7z"/>
	<path d="M65.7,65.1c1.2,0,1.2-2.2,0-2.2C64.5,63,64.5,65.1,65.7,65.1z M65.7,63.7c0.4,0,0.4,0.7,0,0.7S65.3,63.7,65.7,63.7z"/>
	<path d="M66.3,34.7c-1.7,0.2-3.5-0.6-4.8-1.5c-0.6-0.4-0.6,0.8-0.6,1.1c-0.1,0.9,0,1.9,0.4,2.8c0.8,1.9,3.1,1.8,4.3,0.3
		C65.6,37.2,67.2,34.6,66.3,34.7C66.1,34.7,66.4,34.7,66.3,34.7z M63.4,37.9c-1.9,0-2.1-2.4-1.9-3.8c1.3,0.8,2.8,1.4,4.3,1.4
		C65.4,36.5,64.7,37.9,63.4,37.9z"/>
	<path d="M63.2,33.4c0.4,0,0.3-0.7,0.1-0.7c0.1-0.2,0.4-0.1,0.6-0.3c0.1-0.2,0-0.6-0.3-0.6c-0.3,0.1-0.6,0.2-0.7,0.4
		C62.7,32.5,62.7,33.4,63.2,33.4z"/>
	<path d="M62.1,28.7c0-1.7-2.3-1.7-2.3,0C59.7,30.4,62.1,30.4,62.1,28.7z"/>
	<path d="M68.7,30.2c-1.5,0-1.5,2.7,0,2.7C70.2,32.9,70.2,30.2,68.7,30.2z"/>
</g>
<g>
	<g>
		<g>
			<path fill="#FFFFFF" d="M34.9,22.2c4.5,0,8.2,3.2,9.7,7.3c1.6,4.4,0.9,9.6-2.1,13.2c-2.8,3.3-7.4,4.6-11.5,2.8
				c-4.1-1.9-6.5-6.4-6.6-10.9C24.2,28.5,28.4,22.2,34.9,22.2z"/>
			<path d="M34.9,46.6c-4.4,0-8.2-3.1-9.8-7.1c-1.8-4.3-1.2-9.6,1.6-13.3c2.6-3.5,7-5.2,11.2-3.9c4.3,1.4,7.1,5.6,7.7,9.9
				C46.5,38.8,42.2,46.6,34.9,46.6z M34.9,22.5c-4.5,0-8.1,3.4-9.5,7.5c-1.5,4.4-0.5,9.6,2.7,13c3.1,3.1,7.8,3.9,11.6,1.6
				c4-2.4,5.8-7.3,5.3-11.8C44.5,27.5,40.4,22.5,34.9,22.5z"/>
		</g>
		<g>
			<path d="M25.8,28.1c1-0.3,1.9-0.7,2.9-1c0.6-0.2,1.7-1,2.1-0.5c0.4,0.5,0.8,1,1.2,1.5c0.1,0.2,0.8,0.8,0.8,1
				c0,0.2-0.4,0.6-0.5,0.8c-0.3,0.6-0.7,1.1-1,1.7c-0.5,0.9-1.1,1.7-1.6,2.6c-0.1,0.1-2.6-0.8-2.9-0.9c-0.5-0.2-0.5-1.8-0.6-2.3
				C26.2,30.1,26,29.1,25.8,28.1z"/>
			<path d="M29.8,34.6c-0.9,0-2.1-0.6-3-0.9c-0.7-0.2-0.6-2-0.7-2.5c-0.1-0.7-0.2-1.3-0.4-2c-0.1-0.3-0.3-0.9-0.1-1.2
				c0.1-0.3,0.8-0.4,1.1-0.5c0.7-0.3,1.4-0.5,2.1-0.8c0.7-0.3,1.7-1,2.3-0.3c0.4,0.6,0.9,1.1,1.3,1.7c0.2,0.3,1,0.9,0.7,1.3
				c-0.1,0.2-0.3,0.5-0.5,0.8c-0.4,0.6-0.7,1.2-1.1,1.8c-0.4,0.6-0.7,1.2-1.1,1.8C30.3,34,30.1,34.6,29.8,34.6z M27,33
				c0.9,0.3,1.7,0.5,2.6,0.8c0.2,0.1,1.1-1.6,1.2-1.9c0.5-0.9,1.1-1.7,1.6-2.6c0.2-0.3-1.1-1.6-1.4-1.9c-0.6-0.8-0.6-0.6-1.5-0.3
				c-1.1,0.4-2.1,0.8-3.2,1.2C25.9,28.5,26.9,32.4,27,33z"/>
		</g>
		<g>
			<path d="M39.2,25.8c-0.7,0.8-1.4,1.7-2.1,2.5c-0.3,0.3-0.5,0.6-0.8,0.9c0,0.1,0.5,0.8,0.5,0.9c0.7,1.2,1.4,2.3,2.1,3.5
				c0.4,0.6,1.9,0.1,2.5,0c0.6-0.1,1.2-0.1,1.8-0.2c0.4,0,0.4,0,0.4-0.4c0-1.4,0-2.8,0-4.1c0-0.1,0.1-0.7,0-0.7
				c-0.4-0.2-0.9-0.5-1.3-0.7C41.2,26.9,40.2,26.3,39.2,25.8z"/>
			<path d="M39,34.2c-0.3,0-0.6-0.7-0.7-0.9c-0.4-0.6-0.8-1.3-1.1-1.9c-0.4-0.6-1.6-1.9-1-2.6c0.9-1,1.7-2.1,2.6-3.1
				c0.6-0.7,1.9,0.5,2.5,0.8c0.5,0.3,2.5,1,2.5,1.7c0,1.3,0,2.6,0,4c0,0.3,0.1,0.9,0,1.2c0,0.5-1,0.4-1.3,0.5
				C41.3,34,40.1,34.2,39,34.2z M36.7,29.3c0.5,0.8,1,1.7,1.5,2.5c0.3,0.5,0.7,1.7,1.3,1.6c1.2-0.1,2.3-0.2,3.5-0.4
				c0.6-0.1,0.3-1.5,0.3-2c0-0.3,0.2-2.5,0-2.6c-1-0.5-2-1.1-2.9-1.6c-0.3-0.2-0.6-0.4-1-0.5c0,0-0.6,0.7-0.7,0.8
				C38,27.8,37.3,28.5,36.7,29.3z"/>
		</g>
		<g>
			<path d="M32.4,38.9c1,0,2-0.1,3.1-0.1c0.6,0,1.8-0.4,2,0.3c0.4,1.1,0.9,2.3,1.3,3.4c0.2,0.5-1.2,1.3-1.6,1.6
				c-0.2,0.2-2,1.8-2.2,1.7c-0.9-0.7-1.8-1.4-2.7-2.1c-0.4-0.3-0.8-0.6-1.2-0.9c-0.2-0.1,0.1-0.5,0.2-0.7C31.7,41,32,39.9,32.4,38.9
				z"/>
			<path d="M35.1,46c-0.3,0-0.7-0.4-0.9-0.6c-0.6-0.4-1.2-0.9-1.8-1.3c-0.6-0.5-1.9-1-1.6-1.9c0.4-1.1,0.8-2.3,1.2-3.4
				c0.2-0.6,2.5-0.4,3-0.4c0.5,0,2.4-0.4,2.6,0.2c0.5,1.1,0.9,2.3,1.4,3.4c0.1,0.3,0.4,0.7,0,0.9c-0.4,0.3-0.8,0.6-1.2,0.9
				c-0.6,0.5-1.2,0.9-1.8,1.4C35.9,45.5,35.4,46,35.1,46z M31.5,42.5c0.7,0.5,1.4,1.1,2.1,1.6c0.4,0.3,1.3,1.3,1.7,1
				c0.9-0.7,1.7-1.4,2.6-2c0.1,0,0.6-0.4,0.6-0.5c-0.1-0.4-0.3-0.7-0.4-1.1C38,41.2,37.3,39,37.1,39c-1,0-2,0.1-2.9,0.1
				c-0.5,0-1,0-1.4,0.1c-0.3,0-0.2,0.2-0.3,0.4C32.1,40.6,31.8,41.6,31.5,42.5z"/>
		</g>
		<path d="M37.3,39c-0.7,0,0.4-2.4,0.5-2.6c0.2-0.6,0.4-1.3,0.7-1.9c0.1-0.2,0.2-0.9,0.4-1c0.7-0.3,0.3,0.8,0.2,1
			c-0.2,0.6-0.4,1.2-0.6,1.8C38.3,36.7,37.8,39,37.3,39z"/>
		<path d="M32.4,39.3c-0.5,0-1.3-2.1-1.5-2.4c-0.2-0.4-1.7-2.5-1.2-2.9c0.5-0.3,1.6,2.3,1.7,2.5C31.5,36.7,33.2,39.3,32.4,39.3z"/>
		<path d="M24.7,37.1c-0.8,0,0.5-1.9,0.6-2c0.2-0.4,0.9-2,1.4-2.1c0.9-0.2-0.6,2.1-0.7,2.2C25.8,35.5,25.2,37.1,24.7,37.1z"/>
		<path d="M31.1,43c-0.7,0-1.4-0.1-2-0.2c-0.2,0-2.7-0.1-2-0.8c0.4-0.4,2,0.1,2.4,0.1c0.4,0,0.9,0.1,1.3,0.1c0.1,0,0.2,0,0.3,0
			C31.5,42.3,31.5,43,31.1,43z"/>
		<path d="M38.9,43c-0.5,0-0.3-0.7,0.1-0.7c0.4,0,0.8,0,1.1,0c0.6,0,1.7-0.3,2.2-0.1c0.6,0,0.3,0.7-0.2,0.7c-0.4,0-0.8,0-1.2,0
			C40.2,43,39.6,43,38.9,43z"/>
		<path d="M44.8,37.8c-0.5,0-0.8-1.9-0.9-2.2c-0.1-0.3-1-2.4-0.5-2.6c0.5-0.2,1,2.1,1.1,2.4C44.6,35.6,45.5,37.8,44.8,37.8z"/>
		<path d="M36.3,29.6c-0.6,0-1.3,0-1.9,0c-0.2,0-2.4,0.1-1.7-0.7c0.3-0.3,1.7-0.1,2.1,0c0.4,0,0.9,0,1.3,0
			C36.5,28.9,36.8,29.6,36.3,29.6z"/>
		<path d="M39.2,26.1c-0.5,0-1.5-1.7-1.8-2c-0.1-0.1-2-2.2-1.1-2.2c0.5,0,1.5,1.6,1.8,2C38.2,24.1,40.1,26.1,39.2,26.1z"/>
	</g>
	<path d="M30.6,26.7c-0.8,0,0.6-2.1,0.7-2.3c0.3-0.5,0.6-1.1,0.9-1.6c0.1-0.2,0.3-0.7,0.6-0.8c0.7-0.2,0.2,0.8,0.1,1
		c-0.3,0.5-0.6,1-0.8,1.5C31.9,24.9,31.1,26.7,30.6,26.7z"/>
</g>
</svg>
