<?xml version="1.0" encoding="utf-8"?>
<!-- Generator: Adobe Illustrator 17.0.1, SVG Export Plug-In . SVG Version: 6.00 Build 0)  -->
<!DOCTYPE svg PUBLIC "-//W3C//DTD SVG 1.1//EN" "http://www.w3.org/Graphics/SVG/1.1/DTD/svg11.dtd">
<svg version="1.1" id="レイヤー_1" xmlns="http://www.w3.org/2000/svg" xmlns:xlink="http://www.w3.org/1999/xlink" x="0px"
	 y="0px" width="841.89px" height="595.28px" viewBox="0 0 841.89 595.28" enable-background="new 0 0 841.89 595.28"
	 xml:space="preserve">
<rect x="350.11" y="227.411" fill="#FFFFFF" stroke="#A660A3" stroke-width="2" stroke-miterlimit="10" width="141.732" height="141.732"/>
<g>
	<path fill="#E7E7E7" d="M423.715,281.753c1.44,0.576,2.016-0.864,3.168-1.44c0,0.288,0,0.576,0,0.864
		c0.864-0.864,1.728-0.576,2.592-0.288c0,0,0,0.576,0,0.864c0.576-0.288,1.44-0.288,2.016,0.576c0,0.288,0.864-1.152,1.44-0.576
		c0.288,0.288,0,1.44,0.288,1.152c1.728-0.288,2.016-2.304,2.88-3.744c0.288,0.288,0.576,0.576,0.864,0.864
		c0.288-2.016,2.304-1.152,3.744-2.016c-1.152,0.288-2.016-0.288-3.168-0.288c0.128-0.383,0.152-0.708,0.11-0.996
		c-0.094-0.007-0.192,0-0.302,0.037c-0.524,0.175-0.31,0.343-0.6,0.746c-0.665,0.925-0.738-0.184-1.551-0.132
		c-0.611,0.038-1.566,0.556-1.686,1.211c-0.145,0.787,0.033,1.203,0.573,1.727c-0.014-0.014-1.552,0.045-1.711,0.057
		c-0.706,0.052-1.301,0.173-2.033,0.039c-0.78-0.142-0.736-0.959-1.357-1.273c-0.644-0.325-0.939,0.177-1.156-0.727
		c-0.038-0.159-0.468,0.02-0.957,0.277C426.122,279.982,425.575,281.055,423.715,281.753z"/>
	<path fill="#C9CACA" d="M445.284,277.868c0.032-0.265,0.042-0.591-0.149-0.806c-0.071-0.079-0.765-0.357-0.746-0.24
		c-0.129-0.8-0.07-1.736-0.731-2.341c-0.371-0.339-0.804-0.272-1.132-0.502c-0.313-0.22-0.139-0.779-0.789-0.604
		c-0.401,0.107-0.66,0.755-0.958,0.983c-0.35,0.267-0.757,0.084-1.133,0.287c-0.69,0.372-0.248,0.705-0.471,1.252
		c-0.176,0.433-0.676,0.501-0.789,0.946c-0.288,0.012-0.498-0.101-0.738-0.118c0.042,0.289,0.018,0.613-0.11,0.996
		c1.152,0,2.016,0.576,3.168,0.288c-1.44,0.864-3.456,0-3.744,2.016c-0.288-0.288-0.576-0.576-0.864-0.864
		c-0.864,1.44-1.152,3.456-2.88,3.744c-0.288,0.288,0-0.864-0.288-1.152c-0.576-0.576-1.44,0.864-1.44,0.576
		c-0.576-0.864-1.44-0.864-2.016-0.576c0-0.288,0-0.864,0-0.864c-0.864-0.288-1.728-0.576-2.592,0.288c0-0.288,0-0.576,0-0.864
		c-1.152,0.576-1.728,2.016-3.168,1.44c1.86-0.697,2.406-1.77,3.154-3.067c-0.378,0.198-0.791,0.443-1.088,0.615
		c-0.249-0.558-0.675-0.906-0.7-1.579c-0.032-0.886,0.582-1.307,1.1-1.865c0.567-0.611,0.533-1.103,0.222-1.97
		c-0.214-0.595-1.002-1.375-1.608-1.565c-0.609-0.191-0.827,0.489-1.33,0.318c-0.349-0.119-0.437-0.701-0.728-0.909
		c-0.565-0.404-1.004-0.318-1.657-0.076c-0.848,0.314-1.249,0.529-2.049,0.014c-1.156-0.745-1.451,0.069-2.112,0.835
		c-0.083,0.096-1.197,0.8-1.252,0.593c-0.132-0.501-0.738-0.696-1.164-0.873c-0.651-0.271-0.821-0.134-1.44-0.064
		c-0.673,0.075-0.759-0.22-1.376-0.363c-0.539-0.124-0.882,0.349-1.413,0.261c-0.564-0.094-0.599-0.759-1.248-0.745
		c-0.35,0.008-0.966,0.468-1.224,0.674c-0.482,0.385-0.887,0.855-1.25,1.357c-0.631-0.049-1.278-0.006-1.842,0.035
		c-3.531,0.259-7.057,0.152-10.583,0.48c-6.008,0.559-11.888,2.14-17.858,2.614c-0.95,0.076-1.787,0.418-2.684,0.672
		c-1.055,0.299-2.111-0.21-3.172-0.112c-0.604,0.055-0.886,0.304-1.338,0.642c-0.044,0.033-0.965,0.602-0.929,0.317
		c0.05-0.392,0.195-0.938-0.13-1.222c-0.332-0.289-0.791-0.137-1.043,0.148c-0.122,0.138-0.739,0.944-0.744,1.083
		c0.01-0.252-0.103-0.465-0.177-0.665c-0.731-0.23-1.301,0.033-1.94,0.179c-0.336-1.505,0.7-3.391-1.262-3.849
		c-1.733-0.404-2.003,1.955-2.397,3.098c-0.094,0.272-0.246,0.629-0.406,0.856c-0.433,0.617-0.531,0.417-1.063,0.416
		c-0.5-0.001-0.869-0.048-1.112,0.385c-0.459,0.816-0.226,1.897-0.104,2.757c0.094,0.659-0.094,1.412,0.148,2.043
		c0.317,0.829,1.238,1.077,2.029,1.202c0.469,0.074,0.862-0.034,1.32-0.05c0.99-0.036,1.735,0.435,2.675,0.53
		c0.884,0.089,1.779-0.042,2.656-0.153c0.779-0.099,1.537-0.332,2.203-0.296c0.669,0.035,1.421,0.269,2.042,0.352
		c0.826,0.111,1.342-0.075,2.121-0.244c1.59-0.345,2.685,0.419,4.243,0.574c0.749,0.075,1.526-0.266,2.277-0.288
		c1.577-0.047,3.144-0.049,4.683,0.074c1.623,0.13,3.007-0.41,4.512-0.383c1.564,0.027,2.668,0.877,4.245,0.501
		c4.898-1.169,9.904,0.64,14.876,0.407c0.325,0.12,0.671,0.207,1.041,0.249c0.866,0.098,1.604-0.222,2.398-0.368
		c0.847-0.156,1.594-0.125,2.4-0.118c0.803,0.007,1.628,0.046,2.399-0.098c0.716-0.134,1.459-0.465,2.208-0.477
		c1.561-0.026,3.045,0.685,4.608,0.482c0.572-0.074,0.893-0.12,1.185-0.33c0.296-0.064,0.584-0.114,0.831-0.078
		c0.521,0.077,0.864,0.504,1.351,0.633c0.459,0.121,1.021,0.019,1.486,0.031c0.256,0.006,0.462,0.149,0.73,0.141
		c0.818-0.026,1.526-0.499,2.385-0.399c0.67,0.078,1.251,0.474,1.92,0.581c0.677,0.108,1.394-0.064,2.016-0.267
		c1.97-0.641,2.849-1.065,4.704,0.075c1.546,0.95,3.161-0.712,4.293-1.738c0.587-0.532,1.226-1.211,1.104-2.032
		c-0.109-0.732-0.777-1.254-0.714-1.995C444.212,278.913,445.184,278.69,445.284,277.868z"/>
	<path fill="#040000" d="M382.099,271.025l-0.072,2.448l23.04,4.968c0,0,2.592-0.216,2.808-2.376s-0.504-3.528-1.296-3.744
		s-5.4-0.432-5.4-0.432l-4.032-0.864H382.099z"/>
	<path fill="#E7E7E7" d="M371.291,279.996c0.6-0.801,1.382-1.528,2.103-2.239c1.76,1.777,2.731,0.619,4.818,0.333
		c1.918-0.263,3.856,0.584,6.047,0.776c4.544,0.399,9.61,0.945,14.112,0.583c2.228-0.179,3.11-2.415,5.113-2.663
		c1.682-0.208,1.246,1.01,2.663,1.242c1.236,0.203,1.721-0.669,2.958-0.306c0.23,0.067,0.504,0.963,0.843,1.094
		c0.538,0.206,1.163-0.114,1.671-0.007c0.411,0.087,1.182-0.301,1.742-0.18c0.591,0.128,0.37,1.284,1.131,1.431
		c0.44,0.085,1.268-0.912,1.518-0.848c0.324,0.084,0.789,0.734,0.857,0.749c0.997,0.216,0.859,1.438,2.195,0.683
		c-0.619,0.729-5.202,1.341-6.292,1.058c-0.679-0.177-1.156-1.279-1.729-1.35c-0.833-0.104-1.24,0.669-2.037,0.832
		c-0.669,0.137-2.188,0.703-2.794,0.52c-0.813-0.245-1.046-1.311-2.073-1.411c-1.095-0.106-2.254,1.13-3.463,1.173
		c-1.206,0.043-1.885-0.435-2.865-0.228c-0.66,0.139-0.985,1.109-1.743,1.281c-0.245,0.055-1.152-0.787-1.728-0.776
		c-1.017,0.019-1.932,0.575-2.865,0.574c-1.245-0.001-2.007-0.663-2.96-0.719c-1.025-0.06-2.27-0.088-3.088-0.152
		c-0.51-0.04-1.378,0.329-1.75,0.267c-0.422-0.071-0.739-0.902-1.132-0.849c-0.727,0.097-1.274,0.892-1.981,0.977
		c-0.433,0.053-1.056-0.143-1.489-0.086c-0.803,0.105-2.494-0.206-3.089-0.079c0.105-0.022-1.766,0.362-1.519,0.382
		c0.119,0.01-1.786-0.185-1.426-0.254c-1.296,0.249-2.46,0.731-3.686,1.06c-1.277-1.936-4.064-0.077-5.832-0.816
		c-2.9-1.212,0.185-3.298,1.153-1.122c0.827-0.444,2.524-0.579,3.471-0.775C368.174,280.143,371.75,279.384,371.291,279.996z"/>
	<path fill="#E6E6E7" d="M382.027,272.465l23.544,0.864c0,0,1.656,0.792,1.08,3.024c0,0-0.288,1.512-0.936,1.872
		c0,0,2.088-0.072,2.232-2.52c0.144-2.448-0.864-3.096-1.368-3.384c-0.504-0.288-16.272-1.584-16.272-1.584l-8.208,0.576
		L382.027,272.465z"/>
	<path fill="#E6E6E6" d="M374.683,274.265l2.88-1.08l24.264,0.576c0,0,3.24,1.152,3.312,3.096s-0.216,3.24-0.792,3.6
		c-0.576,0.36-2.736,0.72-2.736,0.72L374.683,274.265z"/>
	<path fill="#A6A6A7" d="M375.403,274.193c0,0-1.296,0-1.8,0.936s-0.72,1.44-0.576,2.448s0.216,2.232,2.304,2.592l26.28,1.008
		c0,0,1.872-0.432,1.872-2.88s-2.232-3.24-2.952-3.312L375.403,274.193z"/>
	<polygon fill="#9FA0A0" points="379.795,268.577 369.571,270.665 368.995,274.121 367.915,274.625 370.435,275.345 
		375.259,273.977 377.563,273.185 381.955,273.185 382.099,271.025 	"/>
	<path fill="#B5B5B6" d="M436.765,255.419c-0.387,0.164-0.849,0.083-1.098,0.495c-0.277-0.296-0.623-0.224-0.882,0.053
		c-0.784-0.372-0.917,0.204-1.278,0.74c-0.056-0.028-0.089-0.059-0.143-0.088c-0.343,0.204-0.74,0.472-0.515,0.929
		c-0.27,0.223-0.384,0.525-0.638,0.718c-0.253,0.192-0.669,0.201-0.809,0.503c-0.43,0.924,0.975,0.929,1.458,0.953
		c1.556,0.078,2.968,0.513,4.379-0.452c0.638-0.436,1.301-1.207,1.435-1.981c0.087-0.506-0.035-1.128-0.314-1.554
		C437.834,254.93,437.498,255.108,436.765,255.419z"/>
	<path fill="#C9CACA" d="M442.939,253.097l-0.612-0.248l-0.18-2.704c0,0-0.072,0,0-0.504s0.072-0.864-0.504-0.864l-12.384-10.8
		c0,0-2.016-2.304-3.456-2.52s-2.736-0.144-3.6,0.576l-0.216,0.864c0,0,3.024,2.376,2.952,2.808
		c-0.072,0.432-0.792,1.224-0.792,1.224l0.648,1.296l13.824,9.936l0.36,1.152c0,0-1.44,2.952-2.088,3.888
		c-0.648,0.936-2.088,2.16-2.088,2.16l-1.944-0.216l-0.288,0.648l4.608,1.512c0,0,3.816-0.144,4.608-1.368
		c0.792-1.224,1.296-2.952,0.792-3.744L442.939,253.097z M428.755,239.489l11.721,9.596l-2.783,0.348l-0.01-0.008l-8.712-8.928
		C428.971,240.497,428.467,240.281,428.755,239.489z M440.275,252.017l-0.504-0.288l0.144-0.576l-1.113-0.861l2.337-0.435
		l0.288,0.288l0.238,2.435L440.275,252.017z"/>
	<polygon fill="#C9CACA" points="407.371,244.169 406.723,241.793 408.451,241.505 422.419,236.033 422.779,237.185 
		408.883,242.657 409.243,243.521 	"/>
	<path fill="#9FA0A0" d="M406.795,248.417c0,0-5.184,12.24-5.4,16.776c-0.181,3.808,2.072,4.199,2.8,4.227l0.008,0.021l0.059-0.02
		c0.098,0.001,0.157-0.004,0.157-0.004l-0.012-0.044l0.66-0.22l2.016-11.16l2.382-8.534c0.023-0.01,0.046-0.022,0.066-0.034
		c0.36-0.216,0.432-0.648,0.648-1.44c0.216-0.792,1.368-2.232,1.368-2.232C409.891,246.401,406.795,248.417,406.795,248.417z
		 M406.435,257.489l-2.511,10.112l-0.009-0.032l-1.152-1.872c0,0,4.392-14.616,4.608-15.264c0.216-0.648,0.936-0.864,0.936-0.864
		s0.204,0.017,0.454,0.01L406.435,257.489z"/>
	<path fill="#727171" d="M400.891,264.905c0,0,2.088-12.312,2.448-14.256c0.36-1.944,1.008-4.392,1.296-4.968
		c0.288-0.576,1.728-1.8,2.808-2.088c1.08-0.288,16.416-2.952,16.416-2.952s1.584,0.216,1.584,0.72s-0.36,1.152-0.36,1.152
		l-1.152,0.576l-3.96,1.008c0,0-8.064,2.016-9.072,2.376s-3.024,1.08-3.672,2.808c-0.648,1.728-3.384,10.152-3.384,10.152
		l-1.944,6.336L400.891,264.905z"/>
	<path fill="#9FA0A0" d="M400.579,265.769l-3.264,3.072v2.592l0.912,1.056l3.984-0.048c0,0,0.864-1.584,2.304-1.824l-0.096-1.2
		c0,0-2.112-1.056-2.544-3.504L400.579,265.769z"/>
	<path fill="#727171" d="M400.645,264.711l-2.85-0.046l-1.056-2.496l-4.224,0.432l0.72,4.464c0,0,4.224,0.576,4.992,1.056
		c0.768,0.48,1.2,0,1.632-0.432c0.432-0.432,0.48-1.296,0.48-1.296c0.029,0.014,0.053,0.021,0.081,0.033
		C400.242,265.866,400.288,265.182,400.645,264.711z"/>
	<path fill="#9FA0A0" d="M402.067,265.769c-0.096-1.152-1.296-1.056-1.296-1.056l-0.126-0.002c-0.357,0.471-0.403,1.155-0.224,1.715
		C401.879,267.058,402.067,265.769,402.067,265.769z"/>
	<path fill="#727171" d="M380.611,266.345l-1.296,0.864l0.048,3.504c0,0,0.24,0.912,3.408,1.056
		c3.168,0.144,10.608,0.624,10.608,0.624s3.456-0.24,4.08-0.96l0.048-2.544l0.72-0.768l-0.096-1.104l-4.848-0.144L380.611,266.345z"
		/>
	<path fill="#9FA0A0" d="M381.187,259.721c0,0-1.296,2.496-1.296,7.056c0,0,0.96,1.152,11.856,0.96l1.776-0.864
		c0,0,0.48-2.208-2.112-4.992C388.819,259.097,381.427,259.577,381.187,259.721z"/>
	<path fill="#727171" d="M381.331,249.641l0.096-1.296c0,0,0.48-0.72,1.728-0.816c1.248-0.096,8.976-0.384,10.704,0
		c1.728,0.384,2.688,0.72,2.592,1.68L381.331,249.641z"/>
	<path fill="#9F9E9F" d="M381.379,249.209c0,0-0.384,3.984,0.096,5.52c0.48,1.536,1.344,3.696,1.344,3.696l-0.096,1.2h1.824v-1.488
		c0,0-1.056-3.984-0.816-8.016c0,0,11.136-0.48,12.672-0.768l-3.84-0.528L381.379,249.209z"/>
	<path fill="#314044" d="M396.307,265.145c0,0,1.008,0.288,1.2,0.528c0.192,0.24,0.144,0.384-0.768,0.48
		c-0.912,0.096-2.64,0.048-2.112-0.912C395.155,264.281,396.307,265.145,396.307,265.145z"/>
	<path fill="#314044" d="M397.363,264.041l-1.152,0.288l0.048,0.624c0,0,2.112,0.336,2.208-0.048S398.419,264.281,397.363,264.041z"
		/>
	<path fill="#4C656B" d="M390.739,261.257c0,0,2.496,0.096,2.544,0.24c0.048,0.144-0.096,3.024-0.096,3.024
		S391.603,261.785,390.739,261.257z"/>
	<path fill="#040000" d="M375.259,277.289c0,0-0.864-1.224-1.512-0.792c0,0,0.072-1.296,1.152-1.584l25.128,0.792
		c0,0,2.664,0.288,2.52,2.304c-0.144,2.016-0.72,2.304-1.368,2.592c0,0-0.576-3.384-2.736-3.6
		c-2.16-0.216-22.392-0.936-22.392-0.936S375.259,275.993,375.259,277.289z"/>
	<path fill="#BDD7D6" d="M393.043,260.441l-0.288,0.96l0.528,0.096v1.344h0.96l0.384,2.784l1.824-0.672l0.096-0.768l0.816-0.144
		c0,0-0.144-2.448-0.576-2.88C396.355,260.729,394.051,260.297,393.043,260.441z"/>
	<path fill="#BDD7D6" d="M390.403,255.785c0,0-1.296,3.216-1.488,4.512l1.824,0.96l2.016,0.144l0.192-1.392l2.352-0.912
		l-0.576-1.248l-1.776,0.48l-0.864-2.352L390.403,255.785z"/>
	<circle fill="#FFFFFF" cx="395.587" cy="258.041" r="1.104"/>
	<path fill="#FFFFFF" d="M389.155,253.049c0,0-0.576,1.872-0.048,2.448s1.68,0.816,1.68,0.816s1.872-0.096,2.4-0.672
		c0.528-0.576,0.576-1.248,0.576-1.248s0.672-0.384,0.624-0.528s-0.384-0.24-0.384-0.24l-0.912-2.208L389.155,253.049z"/>
	<polygon fill="#959494" points="389.155,253.049 390.547,256.313 390.787,256.313 390.019,252.905 	"/>
	<path fill="#E6E6E6" d="M387.619,253.913c0,0,0.048-1.824,0.672-2.688c0.624-0.864,1.68-1.248,2.88-1.056s2.064,1.008,2.544,1.728
		l-0.432,0.24C393.283,252.137,388.387,253.433,387.619,253.913z"/>
	<ellipse fill="#040000" cx="392.611" cy="253.313" rx="0.216" ry="0.288"/>
	<circle fill="#FFFFFF" cx="399.739" cy="278.081" r="1.728"/>
	<path fill="#040000" d="M375.541,279.725c0.02,0.002,25.384,1.088,25.384,1.088c0.014,0.001,0.028-0.001,0.041-0.004
		c0.017-0.004,1.717-0.454,1.858-2.368c0.17-2.309-2.064-2.727-2.752-2.8c-0.01-0.001-24.837-0.815-24.837-0.815s0.001,0,0.002,0
		c-0.025-0.001-0.629-0.022-1.129,0.441c-0.398,0.368-0.612,0.929-0.636,1.666C373.406,278.915,374.561,279.545,375.541,279.725z
		 M373.76,276.942c0.022-0.656,0.204-1.147,0.54-1.461c0.41-0.382,0.919-0.368,0.925-0.368l24.827,0.814
		c0.759,0.081,2.493,0.466,2.493,2.272c0,0.071-0.003,0.145-0.008,0.22c-0.121,1.658-1.494,2.07-1.623,2.105
		c-0.048-0.002-25.34-1.085-25.34-1.085c-1.2-0.221-1.816-1.012-1.816-2.348C373.757,277.043,373.758,276.992,373.76,276.942z"/>
	<path fill="#040000" d="M375.933,278.751l22.638,0.908c0.037,0.001,0.071-0.012,0.097-0.034c0.314,0.233,0.701,0.373,1.12,0.373
		c1.044,0,1.893-0.856,1.893-1.908c0-1.052-0.849-1.909-1.893-1.909c-0.54,0-1.027,0.231-1.372,0.598
		c-0.004,0-0.008-0.003-0.012-0.003l-22.475-0.892c-0.242-0.01-0.47,0.076-0.642,0.242c-0.173,0.167-0.268,0.395-0.266,0.642
		l0.007,1.04C375.03,278.308,375.436,278.731,375.933,278.751z M399.788,276.47c0.885,0,1.605,0.727,1.605,1.621
		s-0.72,1.62-1.605,1.62s-1.605-0.727-1.605-1.62S398.903,276.47,399.788,276.47z M375.487,276.334
		c0.114-0.111,0.267-0.168,0.43-0.161c0,0,20.107,0.798,22.282,0.884c-0.192,0.298-0.304,0.652-0.304,1.033
		c0,0.489,0.185,0.935,0.487,1.273l-22.437-0.9c-0.345-0.014-0.627-0.309-0.63-0.656l-0.006-1.04
		C375.307,276.6,375.37,276.447,375.487,276.334z"/>
	<path fill="#040000" d="M445.241,277.248c-0.191-0.28-0.564-0.399-1.019-0.456c0.048-0.278,0.097-0.626,0.082-0.796
		c-0.039-0.424-0.195-0.631-0.374-0.87l-0.25-0.366l-0.159-0.289c-0.14-0.267-0.195-0.354-0.539-0.574c0,0-0.318-0.081-0.318-0.081
		l-0.222-0.044c-0.025-0.011-0.047-0.059-0.071-0.111c-0.039-0.086-0.087-0.193-0.205-0.251c-0.804-0.399-1.126,0.104-1.385,0.508
		c-0.137,0.214-0.267,0.416-0.454,0.516c-0.16,0.085-0.3,0.099-0.448,0.114c-0.231,0.023-0.493,0.049-0.769,0.373
		c-0.264,0.31-0.42,0.973-0.386,1.365c-0.206,0.128-0.392,0.277-0.544,0.453c-0.293-0.13-0.756-0.254-1.09-0.129
		c-0.303,0.114-0.466,0.454-0.61,0.755c-0.124,0.259-0.241,0.503-0.389,0.499c-0.066-0.002-0.085-0.028-0.139-0.183
		c-0.044-0.127-0.099-0.284-0.264-0.363c-0.423-0.202-1.067-0.042-1.396,0.115c-0.528,0.251-1.095,0.93-1.095,1.621
		c0,0.143,0.024,0.287,0.078,0.428c0.107,0.277,0.273,0.473,0.395,0.616c0,0,0.029,0.038,0.058,0.075
		c-0.165,0.028-0.523,0.033-0.66,0.034l-1.085,0.063c-0.599,0.049-1.218,0.099-1.735,0.038c-0.4-0.048-0.514-0.233-0.67-0.489
		c-0.096-0.158-0.206-0.337-0.397-0.489c-0.221-0.176-0.469-0.204-0.708-0.233c-0.169-0.02-0.326-0.049-0.471-0.119
		c0.005-0.039,0.017-0.079,0.017-0.115c0-0.295-0.17-0.528-0.49-0.66c-0.544-0.223-0.875,0.141-1.14,0.433l-0.324,0.314
		c-0.204,0.148-0.373,0.182-0.518,0.107c-0.347-0.182-0.546-0.972-0.532-1.599c0.012-0.524,0.346-0.768,0.732-1.051
		c0.326-0.238,0.696-0.509,0.854-0.983c0.359-1.076-0.618-2.458-1.477-2.975c-0.498-0.3-0.769-0.22-1.055-0.136
		c-0.151,0.045-0.308,0.091-0.528,0.096c-0.325,0.008-0.333-0.016-0.379-0.145c-0.037-0.104-0.088-0.247-0.24-0.421
		c-0.4-0.458-0.726-0.523-1.349-0.501c-0.39,0.013-0.741,0.224-1.052,0.409c-0.248,0.148-0.482,0.288-0.684,0.299
		c-0.231,0.012-0.39-0.145-0.591-0.345c-0.305-0.301-0.684-0.677-1.434-0.423c-0.329,0.112-0.702,0.522-1.097,0.956
		c-0.395,0.435-0.886,0.975-1.147,0.926c-0.063-0.012-0.091-0.068-0.145-0.202c-0.047-0.117-0.1-0.25-0.224-0.335
		c-0.114-0.078-0.239-0.074-0.338-0.071c-0.055,0.002-0.113,0.004-0.136-0.012c0,0-0.284-0.235-0.284-0.235
		c-0.21-0.193-0.449-0.413-0.771-0.429c-0.327-0.017-0.522,0.112-0.679,0.215c-0.184,0.121-0.306,0.202-0.622,0.073l-0.397-0.232
		c-0.234-0.168-0.455-0.326-0.966-0.235c-0.186,0.033-0.368,0.139-0.545,0.242c-0.191,0.111-0.388,0.225-0.52,0.198
		c-0.127-0.027-0.229-0.175-0.336-0.331c-0.121-0.176-0.258-0.376-0.476-0.444c-0.643-0.198-1.263,0.392-1.76,0.867l-0.302,0.276
		c-0.295-0.286-0.556-0.381-0.583-0.39c-0.012-0.004-0.024-0.006-0.036-0.007l-3.867-0.254c0.345-0.404,0.897-0.857,1.711-1.022
		c0.067-0.013,0.116-0.073,0.116-0.141v-1.201l0.594-0.299c0.04-0.02,0.069-0.058,0.077-0.103l2.084-11.461l2.285-8.047
		c0.006-0.023,0.006-0.046,0.001-0.067c0.067-0.034,0.132-0.074,0.194-0.124c0.262-0.209,0.41-0.52,0.438-0.924
		c0.083-1.181,0.79-1.746,0.797-1.751c0.019-0.015,0.032-0.035,0.041-0.057c3.1-0.829,9.528-2.614,9.597-2.633
		c0.001,0,3.154-0.677,3.154-0.677c0.015-0.003,0.029-0.009,0.042-0.016l1.198-0.699l13.448,9.65
		c0.02,0.014,0.042,0.021,0.066,0.024c0.033,0.436,0.199,0.815,0.263,0.947c-0.097,0.214-0.461,1.007-0.913,1.892
		c-0.097-0.124-0.211-0.203-0.341-0.229c-0.275-0.056-0.539,0.122-0.771,0.279l-0.276,0.165l-0.303,0.063
		c-0.225,0.03-0.51,0.085-0.66,0.362c-0.138-0.078-0.296-0.107-0.449-0.06c-0.147,0.045-0.245,0.159-0.312,0.295
		c-0.313-0.163-0.624-0.201-0.855-0.077c-0.147,0.079-0.31,0.258-0.348,0.614c-0.304,0.018-0.673,0.219-0.806,0.468
		c-0.039,0.073-0.058,0.147-0.058,0.22c0,0.065,0.018,0.128,0.048,0.189c-0.172,0.099-0.348,0.237-0.422,0.436
		c-0.024,0.063-0.035,0.128-0.035,0.192c0,0.024,0.015,0.046,0.018,0.07c-0.262,0.041-0.565,0.184-0.772,0.384
		c-0.177,0.17-0.27,0.361-0.27,0.554c0,0.007,0,0.014,0,0.022c0.008,0.233,0.161,0.426,0.418,0.531
		c0.22,0.09,0.479,0.104,0.689,0.054l-0.015,0.037c-0.015,0.038-0.013,0.08,0.004,0.117c0.018,0.036,0.05,0.064,0.089,0.075
		c0.929,0.268,4.535,1.412,4.571,1.424c0.011,0.004,0.023,0.006,0.034,0.006c2.195,0.14,3.803-0.32,4.78-1.368
		c0.835-0.896,0.993-2,0.993-2.702c0-0.251-0.02-0.45-0.037-0.571c-0.029-0.214-0.105-0.447-0.209-0.688
		c0.002-0.007,0.006-0.012,0.007-0.019l0.404-2.918c0.009-0.064-0.026-0.126-0.085-0.152l-0.454-0.198
		c0.001-0.008,0.003-0.016,0.002-0.024l-0.269-2.579c-0.001-0.011-0.006-0.02-0.009-0.029c0.039-0.017,0.064-0.03,0.07-0.033
		c0.05-0.028,0.079-0.082,0.074-0.139l-0.067-0.746c-0.002-0.018-0.006-0.035-0.014-0.051c-0.124-0.25-0.301-0.4-0.526-0.446
		c-0.04-0.008-0.08-0.01-0.12-0.012l-12.372-10.919c-3.253-4.242-7.131-1.87-7.169-1.846c-0.033,0.021-0.057,0.055-0.064,0.094
		l-0.041,0.206c-0.009,0.002-0.018,0.001-0.027,0.005l-13.535,5.243l-1.693,0.36c-0.078,0.017-0.127,0.093-0.111,0.17l0.341,1.636
		c-0.775,0.277-2.235,1.11-3.029,3.561c-0.004,0.017-2.427,12.503-2.427,12.503c-0.001,0.006-0.646,4.385-0.732,4.964
		c-0.015,0.005-0.03,0.008-0.044,0.014c-0.007-0.001-0.013-0.005-0.02-0.005l-2.086-0.068c-0.01,0-0.019,0.003-0.028,0.005
		c-0.218-0.287-0.826-0.496-1.125-0.584c-0.068-0.511-0.356-2.562-0.611-3.012c-0.146-0.257-0.895-0.434-1.699-0.553l0.411-0.153
		l0.037,0.112l2.064-0.432l-0.288-0.96l-1.968,0.816l0.042,0.125l-1.023,0.399c-0.519-0.056-0.992-0.09-1.258-0.107
		c-0.004,0-0.006,0.001-0.01,0.001l0.366-0.296l1.766-0.579c0.006-0.002,0.011-0.007,0.016-0.009
		c0.047,0.006,0.092,0.017,0.141,0.017c0.666,0,1.29-0.592,1.345-1.243l1.284-0.745c0.068-0.04,0.092-0.127,0.053-0.196l-0.538-0.95
		c-0.02-0.035-0.054-0.061-0.094-0.07c-0.04-0.009-0.081-0.001-0.115,0.023l-1.144,0.814c-0.012,0.008-0.02,0.019-0.028,0.03
		c-0.201-0.121-0.439-0.193-0.696-0.193c-0.653,0-1.188,0.455-1.271,1.04c-0.03-0.018-0.066-0.027-0.103-0.019
		c0,0-0.834,0.168-1.404,0.283c-0.094-0.356-0.436-1.651-0.483-1.828c1.466-0.629,1.653-1.578,1.661-1.964
		c0.215-0.005,0.469-0.075,0.529-0.319c0.008-0.034,0.012-0.065,0.012-0.093c0-0.086-0.033-0.149-0.065-0.191
		c-0.082-0.105-0.215-0.141-0.313-0.156c-0.042-0.139-0.337-1.117-0.421-1.394c0.083-0.017,0.132-0.027,0.137-0.028
		c0.048-0.01,0.088-0.043,0.106-0.089c0.018-0.046,0.011-0.098-0.018-0.138l-0.12-0.164c-0.515-0.708-1.325-1.813-2.971-1.833
		c2.105-0.179,5.746-0.488,5.746-0.488c0.04-0.003,0.077-0.024,0.102-0.056c0.019-0.025,0.03-0.056,0.03-0.088
		c0-0.009-0.001-0.017-0.002-0.026l-0.135-0.746c-0.003-0.018-0.01-0.035-0.019-0.05c-1.085-1.752-11.84-1.257-13.332-1.016
		c-1.683,0.272-1.903,0.694-1.93,0.776c-0.148,1.136-0.21,2.172-0.21,3.111c0,4.457,1.382,6.697,1.549,6.951
		c0,0.076,0,1.158,0,1.178c-0.8,0.016-1.343,0.056-1.415,0.062c-0.045,0.004-0.085,0.028-0.109,0.065
		c-1.335,2.051-1.315,6.427-1.303,7.12l-0.53,0.297c-0.046,0.026-0.074,0.074-0.074,0.126v1.555c-0.006,0.001-0.012-0.001-0.019,0
		l-9.554,1.9c-0.003,0.001-0.005,0.004-0.009,0.005c-0.021,0.006-0.041,0.016-0.059,0.031c-0.002,0.002-0.005,0.003-0.008,0.006
		c0,0-0.002,0.001-0.002,0.002c-0.017,0.019-0.026,0.041-0.032,0.063c-0.001,0.003-0.003,0.004-0.004,0.007
		c0,0-0.636,3.206-0.66,3.329c-0.1,0.058-0.885,0.51-0.885,0.51c-0.045,0.026-0.072,0.074-0.072,0.125c0,0.006,0,0.011,0.001,0.017
		c0.007,0.057,0.047,0.105,0.102,0.121l2.288,0.678c0.003,0.001,0.006-0.001,0.01,0c0.021,0.005,0.041,0.005,0.061,0.001
		c0.003-0.001,0.006,0.001,0.009,0l3.562-0.988c-0.732,0.573-1.088,1.578-1.117,2.431c-0.011,0.002-0.023,0.003-0.034,0.008
		c-0.395,0.189-0.984,0.087-1.554-0.011c-0.466-0.081-0.907-0.157-1.279-0.093c-0.337,0.057-0.645,0.376-0.916,0.657
		c-0.181,0.187-0.405,0.419-0.515,0.414c-0.007,0-0.025-0.001-0.053-0.037c-0.047-0.059-0.041-0.248-0.036-0.401
		c0.009-0.268,0.02-0.572-0.159-0.777c-0.064-0.074-0.206-0.131-0.48-0.225l-0.102-0.036c-0.038-0.014-0.094-0.017-0.13,0.002
		c-0.515,0.27-0.796,0.723-1.068,1.16c0,0-0.068,0.105-0.136,0.21c-0.004-0.012-0.016-0.046-0.016-0.046
		c-0.066-0.232-0.134-0.472-0.512-0.663c-0.443-0.222-0.897-0.061-1.299,0.08c0,0-0.08,0.026-0.16,0.052
		c-0.018-0.118-0.045-0.232-0.076-0.34l-0.081-0.361c-0.004-0.044-0.006-0.088-0.006-0.132c0-0.212,0.043-0.418,0.089-0.633
		c0.046-0.217,0.093-0.442,0.093-0.676c0-0.033-0.001-0.066-0.003-0.1c-0.021-0.352-0.099-0.793-0.514-1.089
		c-0.435-0.31-0.915-0.424-1.39-0.33c-0.499,0.098-0.958,0.432-1.262,0.914c-0.207,0.329-0.345,0.844-0.491,1.39
		c-0.247,0.922-0.527,1.967-1.168,2.129c-0.182,0.046-0.345-0.024-0.517-0.098c-0.231-0.099-0.494-0.212-0.803-0.034
		c-0.314,0.18-0.58,0.954-0.616,1.189c-0.067,0.446-0.038,0.946-0.01,1.429c0.022,0.369,0.044,0.751,0.022,1.099l-0.021,0.271
		c-0.044,0.52-0.087,1.011,0.313,1.527c0.773,0.996,2.277,1.088,3.604,1.169l1.153,0.102l0.934,0.176
		c0.734,0.151,1.494,0.307,2.256,0.259c0.479-0.03,0.943-0.177,1.391-0.318c0.469-0.148,0.912-0.288,1.368-0.306
		c0.411-0.016,0.804,0.095,1.221,0.212c0.416,0.117,0.845,0.238,1.307,0.229c0.472-0.008,0.943-0.069,1.399-0.128
		c0.729-0.094,1.418-0.183,2.128-0.08l1.046,0.163c1.578,0.256,3.069,0.499,4.749,0.105c0.839-0.197,1.705-0.14,2.543-0.084
		c0.543,0.036,1.104,0.073,1.662,0.042l1.367-0.094c1.695-0.129,3.448-0.262,5.056,0.14c1.106,0.277,2.403,0.073,3.546-0.107
		l0.456-0.071c0.734-0.11,1.475-0.159,2.402-0.159c1.148,0,2.294,0.111,3.717,0.36c1.642,0.288,3.24,0.455,5.181,0.543l0.963,0.054
		c1.291,0.08,2.406,0.15,3.809-0.171c0.653-0.149,1.28-0.131,1.944-0.113c0.68,0.019,1.383,0.039,2.112-0.136
		c1.494-0.359,2.706-0.517,4.128-0.199c1.363,0.305,2.523,0.341,3.761,0.114l0.48-0.104c0.44-0.103,0.854-0.2,1.322-0.107
		c0.283,0.057,0.545,0.161,0.822,0.271c0.26,0.103,0.528,0.21,0.816,0.275c0.822,0.186,1.634,0.087,2.419-0.01
		c0.808-0.099,1.572-0.192,2.325,0.009c1.328,0.355,2.405,0.513,3.662,0.204l0.824-0.286c0.445-0.177,0.904-0.36,1.335-0.349
		c0.622,0.015,1.354,0.263,1.858,0.468c1.431,0.583,1.865,0.605,3.215-0.487l0.503-0.381c1.011-0.747,2.397-1.77,2.064-3.032
		c-0.07-0.265-0.21-0.482-0.345-0.692c-0.201-0.312-0.375-0.581-0.292-0.954c0.076-0.344,0.342-0.59,0.623-0.85
		c0.271-0.25,0.55-0.509,0.683-0.876C445.411,277.801,445.404,277.487,445.241,277.248z M439.329,275.107
		c0.201-0.235,0.359-0.251,0.578-0.273c0.161-0.016,0.345-0.034,0.555-0.146c0.254-0.135,0.41-0.379,0.561-0.615
		c0.266-0.415,0.441-0.689,1.014-0.405c0.026,0.013,0.048,0.061,0.071,0.112c0.039,0.085,0.091,0.201,0.218,0.256l0.299,0.065
		l0.202,0.039c0.294,0.188,0.319,0.235,0.438,0.464l0.165,0.3l0.269,0.394c0.166,0.221,0.286,0.381,0.318,0.723
		c0.01,0.109-0.021,0.386-0.082,0.741c-0.228-0.016-0.467-0.024-0.712-0.03c-0.803-0.021-1.633-0.044-1.934-0.427l-0.223-0.315
		c-0.291-0.44-0.424-0.464-1.185-0.214c-0.291,0.095-0.592,0.208-0.874,0.35C439.017,275.798,439.143,275.325,439.329,275.107z
		 M406.405,272.396c0.109,0.041,1.265,0.523,1.265,2.733c0,0.199-0.01,0.413-0.03,0.641c-0.191,2.116-1.777,2.306-1.845,2.313
		c-0.003,0-0.487,0.061-0.66,0.083c0.014-0.177,0.023-0.361,0.023-0.549c0-0.338-0.025-0.689-0.08-1.042
		c-0.285-1.794-2.695-2.768-3.562-2.835c-0.536-0.042-9.243-0.281-16.059-0.464v-1.131c3.696,0.186,8.282,0.36,8.598,0.32
		l0.317-0.03c0.646-0.053,1.827-0.157,2.801-0.747l0.791,0.931c0.027,0.032,0.068,0.051,0.11,0.051h3.902
		c0.059,0,0.111-0.035,0.133-0.09c0.002-0.005,0.083-0.195,0.259-0.449C402.882,272.165,406.362,272.394,406.405,272.396z
		 M403.532,277.883c-0.07-2.677-3.529-2.987-3.564-2.99c-0.007-0.001-20.803-0.613-24.734-0.728
		c0.874-0.333,2.108-0.803,2.141-0.816c0.686,0.018,23.265,0.611,24.117,0.677c0.806,0.062,3.04,0.955,3.3,2.593
		c0.055,0.344,0.078,0.68,0.078,0.999c0,1.224-0.34,2.19-0.548,2.316c-0.032,0.019-0.056,0.054-0.065,0.089
		c-0.002,0.007-0.205,0.64-2.093,0.934C403.16,280.441,403.579,279.681,403.532,277.883z M374.602,273.992c0-0.386,0-1.362,0-1.776
		c0.336,0.339,0.988,0.897,1.863,1.171c-0.287,0.109-0.614,0.234-0.928,0.353c-0.014,0-0.028-0.001-0.042,0.003
		C375.496,273.744,375.135,273.844,374.602,273.992z M381.993,273.183c0.005-0.015,0.009-0.03,0.009-0.046v-1.191
		c0.8,0.057,1.922,0.121,3.166,0.184v1.138C384.037,273.238,382.964,273.209,381.993,273.183z M404.119,270.587
		c-1.43,0.343-2.077,1.464-2.236,1.794c-0.174,0-3.618,0-3.743,0c-0.074-0.087-0.667-0.785-0.729-0.858
		c0.003-0.103,0.062-2.551,0.064-2.666c0.068-0.062,0.449-0.411,0.591-0.542c0.032,0.029,0.053,0.058,0.103,0.082
		c0.226,0.107,0.551,0.079,0.965-0.081c0.706-0.274,1.004-1.3,1.113-1.831c0.192,0.172,0.442,0.28,0.719,0.28
		c0.31,0,0.589-0.134,0.787-0.345c0.387,1.88,2.012,2.819,2.366,3.003C404.119,269.564,404.119,270.419,404.119,270.587z
		 M392.879,260.997c0.166,0.016,0.336,0.034,0.505,0.054l-0.143,0.363c-0.019-0.013-0.04-0.022-0.064-0.025l-0.37-0.04l0.057-0.356
		C392.87,260.994,392.874,260.996,392.879,260.997z M392.762,261.634c0.118,0.013,0.207,0.022,0.246,0.027
		c-0.004,0.055-0.015,0.213-0.031,0.425l-0.462,1.177c-0.004-0.006-0.007-0.012-0.011-0.018L392.762,261.634z M392.166,262.727
		c-0.327-0.449-0.727-0.886-1.218-1.291c0.343,0.037,0.924,0.101,1.387,0.151L392.166,262.727z M392.882,263.404
		c-0.012,0.173-0.024,0.336-0.034,0.474c-0.025-0.054-0.056-0.108-0.083-0.162L392.882,263.404z M393.751,261.098
		c1.047,0.141,2.004,0.344,2.116,0.514c0.232,0.352,0.302,1.695,0.315,2.69c0,0.004-0.002,0.008-0.002,0.013
		c0,0.007,0.001,0.015,0.003,0.022c0.001,0.113,0.002,0.222,0.002,0.323c0,0.107-0.001,0.195-0.002,0.28c0,0.003-0.001,0.006,0,0.01
		c0,0.022-0.001,0.046-0.001,0.067c-0.174,0.044-1.359,0.343-1.613,0.407c-0.028-0.296-0.253-2.683-0.253-2.683
		c-0.007-0.078-0.075-0.135-0.153-0.13l-0.938,0.063l0.016-0.217L393.751,261.098z M396.311,265.281
		c0.913,0.4,0.953,0.578,0.954,0.586c-0.002-0.004-0.155,0.192-1.541,0.136c-1.043-0.042-1.168-0.242-1.179-0.265
		c-0.002-0.004,0-0.008-0.001-0.012L396.311,265.281z M393.104,264.325l0.099-1.362c0.132-0.009,0.658-0.044,0.839-0.056
		c0.022,0.233,0.22,2.333,0.252,2.663c-0.035,0.07-0.06,0.173-0.012,0.282c0.061,0.139,0.217,0.242,0.473,0.315l-1.252-0.037
		c-0.071-0.523-0.201-1.113-0.432-1.727C393.088,264.381,393.101,264.355,393.104,264.325z M399.924,266.606
		c-0.122,0.501-0.384,1.245-0.894,1.442c-0.561,0.218-0.783,0.105-0.822,0.016c-0.003-0.006-0.008-0.01-0.012-0.015
		c0.014-0.024,0.023-0.051,0.021-0.081l-0.068-0.882c0-0.005-0.004-0.01-0.005-0.015c-0.002-0.013-0.006-0.025-0.011-0.037
		c-0.003-0.007-0.008-0.013-0.012-0.02c-0.008-0.01-0.016-0.019-0.026-0.027c-0.004-0.003-0.006-0.007-0.009-0.01
		c-0.003-0.002-0.006-0.002-0.009-0.004c-0.011-0.006-0.023-0.01-0.036-0.013c-0.007-0.002-0.014-0.005-0.022-0.005
		c-0.003,0-0.006-0.002-0.009-0.002l-4.443-0.132c-0.006-0.127-0.016-0.26-0.031-0.402L399.924,266.606z M403.627,267.842
		l-0.189,0.762c-0.601-0.51-1.311-1.349-1.455-2.542c0-0.004-0.003-0.006-0.003-0.01c0.004-0.012,0.007-0.024,0.011-0.035
		c0.004-0.001,0.008,0.001,0.012,0c0,0,0.42-0.085,0.569-0.115C402.655,266.053,403.445,267.507,403.627,267.842z M402.804,265.723
		l4.625-15.415c0.008-0.034,0.126-0.526,0.966-0.63l-2.184,7.743c0,0,0,0.002,0,0.003c0,0.001-0.001,0.001-0.001,0.002
		l-2.479,10.001L402.804,265.723z M404.807,268.969c-0.071,0.035-0.322,0.162-0.478,0.241c-0.001-0.001-0.002-0.003-0.004-0.004
		c-0.008-0.004-0.281-0.138-0.638-0.405c0.035-0.141,0.11-0.443,0.214-0.864c0.029-0.034,0.04-0.079,0.03-0.123
		c0.689-2.778,2.472-9.974,2.525-10.185c0.128,0.026,0.269,0.054,0.399,0.08C406.805,257.979,404.832,268.831,404.807,268.969z
		 M406.919,257.429l-0.389-0.079l2.157-7.646c0.003-0.009,0.001-0.019,0.002-0.028c0.112,0.003,0.271-0.006,0.446-0.048
		L406.919,257.429z M409.793,248.448c-0.022,0.32-0.133,0.561-0.329,0.718c-0.364,0.292-0.913,0.213-0.919,0.213
		c-1.232,0.077-1.39,0.83-1.396,0.862c0.003-0.011-4.254,14.176-4.614,15.375l-0.487,0.098c0.001-0.014,0.004-0.028,0.004-0.042
		c0-0.127-0.026-0.246-0.065-0.359c0-0.001,0.001-0.002,0.002-0.004l5.169-16.015c0.007-0.026,0.496-1.77,3.197-2.484
		c0.016-0.004,0.034-0.009,0.05-0.013C410.162,247.104,409.85,247.645,409.793,248.448z M432.521,259.036l-0.103,0.259
		c-0.024,0.006-0.047,0.015-0.066,0.033c-0.099,0.095-0.418,0.129-0.665,0.028c-0.106-0.043-0.233-0.126-0.238-0.274
		c-0.005-0.146,0.096-0.275,0.181-0.358c0.223-0.215,0.557-0.333,0.739-0.32c0.052,0.004,0.102-0.021,0.131-0.064
		c0.029-0.044,0.031-0.099,0.007-0.146c-0.039-0.076-0.045-0.148-0.017-0.223c0.059-0.158,0.254-0.297,0.41-0.359
		c0.045-0.018,0.078-0.057,0.088-0.105c0.01-0.048-0.005-0.097-0.039-0.131c-0.072-0.072-0.084-0.136-0.042-0.214
		c0.105-0.196,0.472-0.354,0.652-0.318c0.042,0.008,0.086-0.002,0.12-0.03c0.033-0.027,0.053-0.068,0.053-0.112
		c0-0.178,0.037-0.41,0.213-0.505c0.17-0.092,0.442-0.039,0.708,0.137c0.042,0.027,0.094,0.031,0.139,0.011
		c0.045-0.021,0.077-0.063,0.083-0.112c0.015-0.116,0.082-0.2,0.185-0.232c0.086-0.026,0.214-0.014,0.316,0.101
		c0.036,0.041,0.092,0.058,0.145,0.044c0.053-0.014,0.093-0.057,0.104-0.11c0.053-0.255,0.207-0.288,0.498-0.327l0.369-0.08
		l0.332-0.194c0.186-0.125,0.396-0.267,0.553-0.236c0.074,0.015,0.141,0.07,0.205,0.168c0.014,0.021,0.033,0.036,0.054,0.047
		c-0.473,0.907-1.018,1.859-1.455,2.358c-0.836,0.956-1.392,1.392-1.542,1.504c-0.112-0.019-1.959-0.329-1.959-0.329
		C432.612,258.936,432.546,258.973,432.521,259.036z M442.589,253.138c-0.021,0.151-0.231,1.674-0.334,2.412
		c-0.707-1.285-2.031-2.666-2.263-2.904c-0.004-0.046-0.036-0.359-0.066-0.668C440.542,252.246,442.433,253.07,442.589,253.138z
		 M441.372,252.294l-1.479-0.644c-0.018-0.179-0.031-0.311-0.031-0.311c-0.004-0.04-0.025-0.077-0.057-0.102l-0.176-0.13
		c0,0-0.666-0.544-0.991-0.809c0.869-0.114,2.135-0.281,2.195-0.289c0.12,0.099,0.249,0.155,0.378,0.186
		c-0.015,0.025-0.025,0.054-0.022,0.085L441.372,252.294z M441.673,252.425l-0.196-2.171c-0.001-0.011-0.006-0.02-0.009-0.031
		c0.12-0.001,0.233-0.019,0.331-0.044l0.252,2.41L441.673,252.425z M441.553,248.954c0.13,0.027,0.232,0.12,0.314,0.276
		c0.005,0.055,0.042,0.465,0.055,0.609c-0.183,0.078-0.648,0.231-0.956-0.08c-0.032-0.032-0.077-0.047-0.121-0.041l-3.095,0.407
		c-0.035,0.005-0.069,0.023-0.092,0.05c-0.011,0.013-0.276,0.321-0.64,0.164l-0.265-0.093c-0.097-0.03-0.207-0.063-0.22-0.098
		c-0.002-0.006-0.004-0.014-0.004-0.026c0-0.056,0.043-0.201,0.248-0.532c0.142-0.012,3.963-0.333,3.963-0.333
		c0.03-0.002,0.058-0.014,0.081-0.034C440.933,249.129,441.28,248.898,441.553,248.954z M437.667,249.214
		c-0.083-0.081-8.273-8.075-8.798-8.803c-0.221-0.306-0.279-0.541-0.279-0.704c0-0.056,0.012-0.089,0.022-0.128
		c0.275,0.225,10.029,8.216,11.524,9.441c-0.629,0.053-1.682,0.141-2.462,0.207C437.672,249.222,437.671,249.218,437.667,249.214z
		 M422.154,236.108c0.442-0.258,3.793-2.029,6.754,1.829c0.017,0.019,10.692,9.44,12.216,10.785
		c-0.215,0.077-0.387,0.202-0.449,0.252c-0.008,0.001-0.058,0.005-0.138,0.012c-0.008-0.011-0.015-0.023-0.026-0.032l-11.869-9.723
		c-0.061-0.05-0.152-0.041-0.202,0.02c-0.017,0.02-0.401,0.502,0.196,1.33c0.503,0.698,7.463,7.505,8.663,8.678
		c-0.372,0.031-0.619,0.052-0.619,0.052c-0.045,0.004-0.085,0.028-0.109,0.066c-0.228,0.358-0.328,0.581-0.328,0.747
		c0,0.045,0.007,0.086,0.021,0.124c0.062,0.168,0.229,0.22,0.406,0.274l0.235,0.082c0.414,0.179,0.766-0.032,0.93-0.199
		c0.02-0.003,0.186-0.024,0.425-0.056c0.007,0.011,0.013,0.022,0.024,0.031l1.17,0.956c0.004,0.003,0.077,0.058,0.13,0.096
		c0.012,0.115,0.128,1.294,0.128,1.294c0.003,0.033,0.018,0.064,0.041,0.087c0.025,0.025,2.458,2.494,2.651,3.922
		c0.015,0.113,0.034,0.301,0.034,0.536c0,0.654-0.145,1.677-0.915,2.503c-0.913,0.979-2.439,1.409-4.535,1.278
		c-0.195-0.062-3.323-1.054-4.408-1.376c0.057-0.144,0.123-0.31,0.168-0.424c0.204,0.034,1.904,0.32,1.904,0.32
		c0.036,0.006,0.073-0.002,0.104-0.022c0.025-0.017,0.633-0.431,1.643-1.586c1.012-1.156,2.516-4.508,2.58-4.65
		c0.018-0.04,0.017-0.087-0.004-0.126c-0.005-0.009-0.495-0.956-0.138-1.556c0.041-0.068,0.018-0.157-0.05-0.197
		c-0.068-0.041-0.157-0.018-0.197,0.05c-0.093,0.156-0.141,0.325-0.16,0.497l-13.317-9.556c0.097-0.173,0.257-0.508,0.257-0.85
		c0-0.106-0.015-0.212-0.053-0.313c-0.1-0.274-0.334-0.463-0.694-0.564c-0.053-0.015-0.105-0.024-0.157-0.036
		c0.218-0.157,0.427-0.42,0.464-0.83c0.001-0.011,0.001-0.022,0.001-0.033c0-0.778-2.32-2.403-2.945-2.827
		C422.011,236.826,422.134,236.208,422.154,236.108z M424.014,240.558c-0.021,0.004-0.039,0.013-0.054,0.025
		c-0.592-0.043-1.174,0.066-1.861,0.197c-0.455,0.086-0.972,0.184-1.57,0.252c-1.398,0.157-8.294,1.487-11.53,2.118
		c0.005-0.025,0.007-0.051-0.003-0.077l-0.12-0.343l13.336-5.221c0.008-0.003,0.014-0.009,0.021-0.013
		c1.147,0.82,2.443,1.912,2.407,2.309C424.584,240.43,424.037,240.553,424.014,240.558z M421.778,236.523l-0.096,0.484
		c-0.011,0.057,0.013,0.115,0.061,0.148c0.069,0.047,0.141,0.095,0.212,0.145l-13.174,5.158l-0.277-0.792L421.778,236.523z
		 M406.788,242.054c0.218-0.046,1.246-0.265,1.44-0.306c0.071,0.203,0.496,1.419,0.496,1.419c0.004,0.012,0.012,0.022,0.019,0.032
		c-0.791,0.154-1.319,0.258-1.413,0.277c-0.015,0.002-0.101,0.013-0.235,0.048C407.027,243.2,406.829,242.25,406.788,242.054z
		 M401.647,259.721c-0.001,0.006,2.421-12.48,2.421-12.48c1.028-3.172,3.284-3.478,3.307-3.481
		c0.125-0.024,11.396-2.242,13.186-2.443c0.609-0.068,1.131-0.167,1.592-0.255c0.902-0.171,1.614-0.306,2.39-0.089
		c0.266,0.075,0.435,0.204,0.501,0.385c0.025,0.069,0.036,0.143,0.036,0.218c0,0.351-0.223,0.714-0.265,0.78
		c-0.058,0.034-1.19,0.695-1.227,0.717c-0.044,0.01-3.14,0.674-3.14,0.674c-0.082,0.022-7.373,2.046-10.166,2.784
		c-2.874,0.759-3.379,2.604-3.399,2.682c0.002-0.007-4.437,13.745-5.087,15.76c-0.199-0.24-0.495-0.396-0.829-0.396
		c-0.012,0-0.023,0.003-0.035,0.004L401.647,259.721z M400.966,264.866c0.44,0,0.798,0.362,0.798,0.806
		c0,0.444-0.358,0.806-0.798,0.806c-0.28,0-0.526-0.148-0.669-0.369c-0.005-0.02-0.016-0.038-0.029-0.054
		c-0.062-0.114-0.1-0.244-0.1-0.383C400.168,265.228,400.526,264.866,400.966,264.866z M398.453,265.017
		c0.038-0.046,0.063-0.097,0.075-0.149l1.651,0.053c-0.185,0.196-0.3,0.46-0.3,0.751c0,0.184,0.049,0.354,0.129,0.506
		c-0.005,0.032-0.013,0.08-0.024,0.142l-0.002,0l-2.91-0.085c0.354-0.073,0.446-0.195,0.473-0.31
		c0.053-0.231-0.197-0.467-0.816-0.767C397.294,265.258,398.177,265.351,398.453,265.017z M398.246,264.791
		c0.003,0.008,0.006,0.018-0.015,0.043c-0.181,0.22-1.1,0.124-1.759-0.022c0.001-0.109,0.001-0.238,0-0.384l0.722-0.168
		C397.67,264.395,398.197,264.636,398.246,264.791z M396.468,261.128c0.199,0.351,0.465,2.088,0.57,2.872
		c-0.119,0.028-0.389,0.091-0.57,0.132c-0.016-0.948-0.089-2.268-0.361-2.68c-0.192-0.291-1.271-0.497-2.162-0.621l0.49-0.182
		C395.485,260.775,396.369,260.953,396.468,261.128z M393.699,260.574l-0.15,0.059l-0.055,0.141
		c-0.238-0.028-0.444-0.05-0.583-0.063l0.035-0.217c0.021,0.015,0.046,0.027,0.074,0.029
		C393.242,260.536,393.471,260.554,393.699,260.574z M394.024,259.431l0.496-0.401c0.065,0.063,0.135,0.121,0.213,0.168
		C394.544,259.26,394.292,259.343,394.024,259.431z M395.382,257.13c0.551,0,1,0.407,1,0.908c0,0.517-0.539,1.044-1.067,1.044
		c-0.55,0-0.932-0.55-0.932-1.044C394.382,257.537,394.831,257.13,395.382,257.13z M392.321,258.203
		c-0.107,0.022-0.187,0.038-0.221,0.045c-0.084-0.178-0.692-1.459-0.692-1.459c-0.034-0.072-0.12-0.103-0.192-0.068
		c-0.072,0.034-0.102,0.12-0.068,0.192l0.74,1.561c0.028,0.06,0.094,0.093,0.158,0.079l2.018-0.407
		c0.014-0.003,0.026-0.01,0.038-0.016c0.013,0.19,0.067,0.38,0.157,0.553c-0.017,0.005-0.033,0.014-0.047,0.026l-1.289,1.084
		c-0.291,0.095-0.5,0.164-0.516,0.169c-0.153-0.019-1.13-0.146-1.543-0.325c-0.244-0.106-0.53-1.186-0.654-2.126
		c-0.01-0.079-0.083-0.134-0.162-0.124c-0.079,0.01-0.134,0.083-0.124,0.162c0.047,0.354,0.306,2.128,0.826,2.353
		c0.485,0.21,1.607,0.345,1.655,0.35c0.021,0.002,0.042,0,0.062-0.006l0.072-0.023l-0.161,1.081l-1.69-0.184
		c-0.042-0.004-0.081,0.01-0.11,0.036c-0.201-0.146-0.411-0.289-0.64-0.424c-0.325-0.192-0.693-0.354-1.09-0.492
		c0.006-0.011,0.012-0.022,0.014-0.035c0.281-1.476,1.048-3.357,1.272-3.89l0.066,0.18c0.021,0.057,0.075,0.095,0.135,0.095h0.336
		c0.044,0,0.086-0.02,0.113-0.055c0.004-0.005,0.005-0.012,0.009-0.018l1.049-0.118L392.321,258.203z M384.484,258.159
		c-0.784-2.19-0.858-6.985-0.865-7.822c0.263-0.012,5.581-0.265,5.581-0.265c0.001,0,0.261-0.022,0.681-0.058
		c-0.082,0.014-0.163,0.026-0.248,0.045c-2.513,0.563-2.335,3.715-2.333,3.747c0.003,0.047,0.029,0.09,0.07,0.114
		c0.04,0.024,0.09,0.027,0.133,0.008c0.017,0.316,0.229,1.614,2.372,2.261c-0.22,0.521-1.005,2.444-1.295,3.96c0,0,0,0,0,0.001
		c-1.259-0.394-2.76-0.565-4.093-0.628c0.001-0.008,0.005-0.016,0.005-0.024v-1.289
		C384.492,258.191,384.489,258.174,384.484,258.159z M389.327,253.272c-0.001-0.004-0.004-0.007-0.006-0.01
		c0.133-0.041,0.268-0.082,0.403-0.121c0.001,0.004,0,0.008,0.001,0.011c0,0,0.687,2.828,0.764,3.147c-0.026,0-0.031,0-0.053,0
		C390.371,256.121,389.327,253.272,389.327,253.272z M389.995,255.93c-0.132-0.039-0.257-0.079-0.374-0.123l0.24-0.242
		L389.995,255.93z M389.718,255.174c-0.251-0.074-0.705-0.269-0.788-0.725c-0.038-0.212-0.02-0.365,0.052-0.443
		c0.073-0.078,0.192-0.067,0.193-0.067c0.03,0.003,0.058-0.005,0.083-0.019L389.718,255.174z M393.776,254.204
		c-0.001-0.004-0.001-0.021-0.001-0.023C393.776,254.188,393.777,254.196,393.776,254.204
		C393.777,254.204,393.776,254.204,393.776,254.204z M393.697,253.77c0.018,0.06,0.074,0.102,0.137,0.102
		c0.073,0.001,0.173,0.025,0.197,0.056c0.005,0.006,0.005,0.019,0,0.037c-0.027,0.107-0.271,0.111-0.378,0.096
		c-0.045-0.006-0.09,0.009-0.122,0.041c-0.032,0.032-0.047,0.078-0.04,0.123c0.004,0.028,0.053,0.433-0.257,0.901
		c-0.009-0.043-0.035-0.083-0.078-0.103l-0.875-0.407c-0.072-0.034-0.158-0.002-0.191,0.07c-0.034,0.072-0.002,0.158,0.07,0.191
		l0.875,0.407c0.024,0.011,0.049,0.013,0.073,0.011c-0.233,0.279-0.603,0.567-1.194,0.804l-1.145,0.128l-0.763-3.143
		c-0.002-0.008-0.007-0.014-0.01-0.022c1.299-0.371,2.6-0.663,3.247-0.801L393.697,253.77z M393.384,251.936
		c-0.847,0.177-3.965,0.859-5.802,1.644c0.002-0.677,0.166-2.804,2.112-3.24C391.856,249.856,392.776,251.1,393.384,251.936z
		 M381.393,248.346c0.038-0.052,0.318-0.359,1.699-0.582c1.758-0.284,12.025-0.636,13.029,0.869
		c0.006,0.033,0.033,0.185,0.061,0.337l-3.818-0.27c-0.016,0-10.27,0.438-11.064,0.472
		C381.327,248.902,381.357,248.627,381.393,248.346z M381.195,251.312c0-0.579,0.028-1.199,0.082-1.851
		c0.379-0.016,11.081-0.474,11.083-0.474c0.001,0.001,2.396,0.17,3.392,0.241c-1.584,0.134-6.572,0.558-6.572,0.558
		c0.003,0-5.713,0.271-5.713,0.271c-0.077,0.004-0.137,0.067-0.137,0.144c0,0.228,0.01,5.579,0.875,8.029c0,0.042,0,1.268,0,1.268
		c0,0.004,0.002,0.008,0.002,0.012c-0.531-0.02-1.027-0.023-1.464-0.018v-1.215c0-0.029-0.009-0.057-0.025-0.081
		C382.7,258.167,381.195,255.887,381.195,251.312z M381.142,259.838c0.689-0.046,6.123-0.353,8.65,1.139
		c2.857,1.686,3.415,4.368,3.487,5.885c-0.181,0.065-1.718,0.619-1.759,0.634c-2.884,0.074-10.443,0.078-11.605-0.75
		c-0.001-0.054-0.002-0.129-0.002-0.241C379.914,265.395,380.005,261.655,381.142,259.838z M379.312,267.249
		c0.083-0.047,0.329-0.184,0.455-0.255c1.594,1.04,11.361,0.8,11.784,0.79c0.015-0.001,0.031-0.003,0.045-0.008l1.858-0.669
		l3.714,0.11c-0.981,0.317-2.527,0.815-2.552,0.824c-0.177,0.008-4.418,0.197-9.253-0.001c-4.81-0.197-5.679-0.702-5.714-0.724
		c-0.067-0.041-0.155-0.022-0.198,0.044c-0.042,0.066-0.026,0.153,0.04,0.197c0.034,0.023,0.898,0.568,5.861,0.771
		c4.928,0.201,9.254,0.002,9.297,0c0.013-0.001,0.025-0.003,0.037-0.007c0,0,2.877-0.928,3.19-1.029
		c0.017,0.229,0.053,0.7,0.053,0.7c0.001,0.017,0.007,0.033,0.014,0.049l-0.707,0.649c-0.029,0.026-0.046,0.063-0.047,0.103
		l-0.063,2.595c-0.002,0.001-0.004,0.001-0.007,0.003c-0.931,0.608-2.084,0.704-2.772,0.761l-0.329,0.031
		c-0.491,0.062-11.437-0.403-13.015-0.611c-1.357-0.179-1.657-0.875-1.691-0.969C379.312,270.548,379.312,267.409,379.312,267.249z
		 M379.062,270.902c0.025-0.005,0.046-0.019,0.064-0.035c0.179,0.296,0.659,0.831,1.839,0.987c0.16,0.021,0.419,0.045,0.749,0.07
		v1.212c0,0.014,0.004,0.026,0.008,0.039c-2.407-0.064-4.119-0.109-4.368-0.116c-0.019-0.001-0.038,0.003-0.055,0.01
		c0,0-0.143,0.055-0.366,0.139c-1.206-0.225-2.077-1.126-2.303-1.382L379.062,270.902z M379.024,269.01v1.61
		c-0.007,0-0.013-0.001-0.02,0l-7.731,1.614l-1.489-1.386C371.038,270.598,378.455,269.123,379.024,269.01z M370.063,275.199
		c-0.327-0.097-1.432-0.425-1.836-0.544c0.278-0.16,0.651-0.375,0.651-0.375c0.036-0.021,0.061-0.056,0.069-0.097
		c0,0,0.49-2.47,0.623-3.14c0.416,0.388,1.39,1.294,1.491,1.388C371.008,272.577,370.257,274.661,370.063,275.199z M370.382,275.163
		l0.955-2.648l2.977-0.621v2.179C373.021,274.431,371.047,274.978,370.382,275.163z M372.92,277.076c0-0.963,0.456-2.18,1.457-2.584
		c0.001,0,0.066-0.025,0.174-0.066c0.012,0.004,0.024,0.008,0.037,0.009l25.365,0.746c0.025,0.002,3.228,0.292,3.291,2.71
		c0.058,2.206-0.596,2.669-2.099,3.177c-0.571-0.025-25.806-1.086-25.806-1.086c-0.102-0.003-2.42-0.101-2.42-2.798
		C372.919,277.149,372.919,277.112,372.92,277.076z M444.993,278.112c-0.109,0.301-0.351,0.525-0.607,0.762
		c-0.301,0.279-0.613,0.567-0.709,0.999c-0.109,0.491,0.115,0.837,0.331,1.173c0.129,0.2,0.25,0.389,0.309,0.61
		c0.283,1.072-1.011,2.029-1.957,2.727l-0.513,0.389c-1.254,1.014-1.564,0.999-2.925,0.444c-0.526-0.214-1.293-0.473-1.959-0.49
		c-0.49-0.012-0.977,0.182-1.449,0.369l-0.786,0.274c-1.198,0.295-2.235,0.141-3.52-0.202c-0.807-0.216-1.634-0.114-2.435-0.017
		c-0.761,0.093-1.548,0.19-2.321,0.015c-0.267-0.06-0.525-0.163-0.774-0.262c-0.277-0.11-0.563-0.224-0.872-0.286
		c-0.529-0.106-0.973-0.002-1.444,0.109l-0.467,0.101c-1.198,0.219-2.323,0.184-3.646-0.112c-1.472-0.33-2.767-0.158-4.259,0.2
		c-0.692,0.167-1.376,0.147-2.037,0.129c-0.653-0.018-1.328-0.037-2.017,0.12c-1.362,0.311-2.458,0.243-3.727,0.164l-0.968-0.054
		c-1.928-0.087-3.515-0.253-5.144-0.539c-1.439-0.252-2.601-0.364-3.766-0.364c-0.942,0-1.696,0.05-2.445,0.163l-0.458,0.071
		c-1.117,0.176-2.382,0.375-3.432,0.112c-1.653-0.414-3.43-0.279-5.147-0.148l-1.36,0.094c-0.541,0.029-1.094-0.007-1.628-0.042
		c-0.858-0.057-1.746-0.115-2.628,0.092c-1.624,0.381-3.087,0.143-4.637-0.109l-1.051-0.164c-0.748-0.108-1.489-0.012-2.205,0.08
		c-0.448,0.058-0.911,0.117-1.367,0.125c-0.419,0.008-0.828-0.107-1.223-0.219c-0.42-0.118-0.854-0.24-1.31-0.222
		c-0.495,0.019-0.977,0.172-1.443,0.319c-0.432,0.137-0.879,0.278-1.323,0.306c-0.723,0.046-1.464-0.106-2.179-0.254l-0.948-0.179
		l-1.18-0.105c-1.266-0.077-2.701-0.165-3.394-1.058c-0.331-0.427-0.297-0.824-0.254-1.326l0.021-0.278
		c0.023-0.366,0-0.757-0.022-1.134c-0.027-0.468-0.056-0.953,0.007-1.369c0.037-0.243,0.29-0.876,0.474-0.982
		c0.176-0.101,0.316-0.05,0.547,0.049c0.199,0.085,0.425,0.182,0.701,0.112c0.805-0.204,1.108-1.335,1.376-2.334
		c0.141-0.524,0.273-1.02,0.457-1.311c0.261-0.415,0.652-0.701,1.074-0.785c0.395-0.078,0.798,0.02,1.167,0.282
		c0.249,0.178,0.367,0.438,0.393,0.872c0.014,0.232-0.034,0.458-0.084,0.699c-0.057,0.27-0.115,0.549-0.088,0.851l0.092,0.416
		c0.045,0.152,0.086,0.296,0.085,0.449c0,0.046,0.018,0.091,0.055,0.119c0.037,0.027,0.082,0.036,0.126,0.022l0.344-0.112
		c0.364-0.129,0.74-0.262,1.073-0.095c0.265,0.133,0.305,0.273,0.365,0.484l0.128,0.352c0.019,0.051,0.06,0.082,0.114,0.088
		c0.054,0.006,0.102-0.024,0.132-0.07l0.301-0.462c0.252-0.407,0.496-0.788,0.909-1.025c0.025,0.009,0.052,0.019,0.052,0.019
		c0.086,0.03,0.315,0.108,0.36,0.147c0.073,0.084,0.088,0.236,0.088,0.396c0,0.059-0.002,0.119-0.004,0.177
		c-0.002,0.058-0.004,0.116-0.004,0.171c0,0.165,0.017,0.313,0.103,0.42c0.091,0.113,0.194,0.14,0.265,0.144
		c0.239,0.011,0.469-0.227,0.735-0.502c0.241-0.249,0.514-0.532,0.758-0.573c0.324-0.055,0.741,0.017,1.182,0.093
		c0.576,0.099,1.169,0.198,1.634,0.023c0.044,2.905,2.669,3.009,2.696,3.01l25.833,1.086c2.832-0.19,3.289-1.011,3.36-1.221
		c0.028-0.024,0.056-0.057,0.085-0.093c0.004,0,0.008,0.001,0.012,0.001l0.374-0.062c0.62-0.112,1.068-0.193,1.476,0.437
		c0.04,0.061,0.118,0.084,0.183,0.051l0.176-0.087c0.244-0.124,0.475-0.24,0.738-0.249c0.2-0.006,0.314,0.07,0.446,0.158
		c0.113,0.075,0.24,0.16,0.42,0.189c0.244,0.038,0.431-0.028,0.595-0.087l0.332-0.082c0.125-0.006,0.279,0.051,0.416,0.101
		c0.14,0.052,0.272,0.101,0.391,0.093c0.185-0.012,0.326-0.082,0.463-0.15c0.135-0.067,0.263-0.131,0.433-0.132
		c0.112-0.001,0.215,0.038,0.334,0.083c0.134,0.051,0.287,0.109,0.469,0.107c0.129-0.002,0.228-0.06,0.316-0.112
		c0.088-0.051,0.145-0.083,0.217-0.08c0.103,0.004,0.248,0.064,0.364,0.111l0.246,0.076c-0.001,0,0.116,0.04,0.116,0.04
		c0.097,0.042,0.23,0.1,0.363,0.033c0.107-0.054,0.177-0.171,0.222-0.368c0.018-0.078-0.031-0.155-0.108-0.172
		c-0.078-0.018-0.155,0.031-0.172,0.108c-0.034,0.15-0.071,0.175-0.072,0.175c-0.018,0.003-0.083-0.025-0.118-0.04l-0.223-0.064
		c0.004,0-0.145-0.055-0.145-0.055c-0.137-0.056-0.308-0.126-0.461-0.132c-0.16-0.007-0.28,0.064-0.375,0.12
		c-0.065,0.038-0.12,0.071-0.173,0.072c-0.128,0.001-0.242-0.042-0.364-0.088c-0.134-0.051-0.273-0.103-0.439-0.102
		c-0.236,0.002-0.407,0.087-0.558,0.162c-0.121,0.06-0.226,0.112-0.353,0.12c-0.058,0.004-0.168-0.037-0.273-0.076
		c-0.162-0.06-0.346-0.128-0.53-0.119c0,0-0.414,0.098-0.414,0.098c-0.152,0.054-0.282,0.1-0.454,0.073
		c-0.118-0.019-0.204-0.077-0.305-0.144c-0.151-0.101-0.323-0.215-0.615-0.206c-0.327,0.01-0.598,0.147-0.859,0.28
		c0,0-0.035,0.018-0.069,0.034c-0.495-0.663-1.074-0.572-1.687-0.462l-0.153,0.026c0.137-0.311,0.254-0.751,0.317-1.263
		c0.001,0,0.003,0.001,0.004,0l0.718-0.091c0.015-0.001,1.886-0.213,2.099-2.573c0.147-1.632-0.252-2.558-0.668-3.075l0.308-0.281
		c0.443-0.422,0.995-0.948,1.477-0.8c0.122,0.038,0.22,0.181,0.323,0.331c0.128,0.187,0.274,0.399,0.514,0.45
		c0.24,0.05,0.486-0.093,0.724-0.231c0.155-0.09,0.316-0.183,0.451-0.207c0.391-0.07,0.534,0.032,0.748,0.186l0.456,0.265
		c0.456,0.186,0.686,0.035,0.889-0.099c0.146-0.096,0.273-0.18,0.506-0.168c0.218,0.011,0.399,0.178,0.59,0.354l0.324,0.265
		c0.099,0.063,0.211,0.06,0.301,0.057c0.07-0.002,0.13-0.004,0.166,0.021c0.052,0.036,0.085,0.118,0.12,0.204
		c0.057,0.142,0.135,0.337,0.36,0.379c0.419,0.078,0.902-0.453,1.413-1.016c0.353-0.388,0.717-0.789,0.976-0.877
		c0.582-0.197,0.852,0.071,1.139,0.355c0.222,0.22,0.451,0.447,0.81,0.428c0.273-0.015,0.537-0.172,0.816-0.339
		c0.294-0.176,0.598-0.357,0.914-0.368c0.531-0.019,0.782,0.013,1.122,0.403c0.116,0.132,0.153,0.236,0.186,0.328
		c0.091,0.257,0.204,0.347,0.657,0.336c0.258-0.006,0.441-0.06,0.602-0.108c0.272-0.08,0.436-0.129,0.825,0.106
		c0.758,0.457,1.661,1.711,1.352,2.638c-0.129,0.387-0.431,0.608-0.751,0.842c-0.411,0.3-0.836,0.611-0.85,1.277
		c-0.013,0.596,0.159,1.584,0.686,1.86c0.17,0.089,0.45,0.14,0.82-0.128l0.368-0.354c0.285-0.314,0.477-0.5,0.818-0.36
		c0.267,0.11,0.361,0.292,0.287,0.558c-0.017,0.06,0.008,0.125,0.06,0.159c0.219,0.143,0.46,0.171,0.673,0.196
		c0.218,0.025,0.406,0.047,0.563,0.172c0.151,0.12,0.238,0.263,0.33,0.413c0.168,0.276,0.343,0.561,0.882,0.625
		c0.546,0.065,1.18,0.013,1.792-0.036l1.064-0.062c0.693-0.005,0.905-0.031,0.977-0.189c0.062-0.136-0.04-0.257-0.159-0.395
		c-0.108-0.127-0.257-0.301-0.345-0.532c-0.253-0.656,0.348-1.437,0.872-1.686c0.342-0.163,0.865-0.25,1.149-0.115
		c0.052,0.025,0.078,0.091,0.116,0.197c0.051,0.146,0.128,0.367,0.402,0.375c0.335,0.01,0.499-0.332,0.658-0.662
		c0.126-0.264,0.257-0.537,0.451-0.61c0.261-0.098,0.726,0.034,0.958,0.154c0.062,0.032,0.139,0.015,0.181-0.042
		c0.354-0.471,1.028-0.74,1.641-0.94c0.649-0.213,0.653-0.207,0.855,0.099l0.237,0.334c0.384,0.489,1.283,0.514,2.152,0.537
		c0.763,0.021,1.552,0.042,1.788,0.388C445.11,277.567,445.107,277.797,444.993,278.112z"/>
	<path fill="#040000" d="M365.719,278.944c-0.312,0.057-0.642,0.213-0.96,0.363c-0.349,0.165-0.71,0.336-0.989,0.338
		c-0.21,0.001-0.444-0.119-0.692-0.246c-0.436-0.223-0.966-0.492-1.418-0.003c-0.135-0.351-0.324-0.769-0.497-0.873
		c-0.075-0.045-0.577-0.065-0.823-0.034c-0.014,0-0.028,0-0.028,0c0.004,0,0.007,0.004,0.011,0.004
		c-0.05,0.008-0.1,0.015-0.116,0.028c-0.034,0.028-0.052,0.069-0.052,0.111c0,0.017,0.003,0.033,0.009,0.05
		c0.036,0.098,0.124,0.096,0.202,0.095c0.006,0,0.01-0.006,0.015-0.006c0.151-0.01,0.567-0.019,0.65,0.007
		c0.063,0.04,0.263,0.423,0.451,0.961c0.018,0.052,0.065,0.09,0.12,0.096c0.055,0.006,0.109-0.02,0.138-0.067
		c0.328-0.529,0.656-0.395,1.208-0.112c0.268,0.137,0.545,0.279,0.825,0.277c0.342-0.002,0.715-0.179,1.11-0.365
		c0.302-0.143,0.613-0.29,0.888-0.34c0.078-0.014,0.13-0.089,0.116-0.167C365.872,278.982,365.797,278.93,365.719,278.944z"/>
	<path fill="#040000" d="M384.691,281.476c-0.28-0.036-0.562,0.012-0.834,0.058c-0.327,0.056-0.637,0.108-0.935,0.023
		c-0.156-0.045-0.27-0.123-0.39-0.205c-0.203-0.14-0.434-0.299-0.849-0.223c-0.141,0.026-0.225,0.134-0.292,0.221
		c-0.06,0.078-0.1,0.125-0.149,0.132c0-0.001-0.134-0.04-0.134-0.04l-0.168-0.031c0.001,0,0.002,0.001,0.004,0.001
		c-0.042,0-0.092,0.004-0.152,0.009l-0.509,0.037c-0.121-0.015-0.286-0.134-0.432-0.239c-0.163-0.117-0.305-0.219-0.446-0.225
		c-0.192-0.008-0.353,0.112-0.482,0.209c-0.051,0.038-0.127,0.095-0.156,0.099c-0.1-0.013-0.136-0.07-0.208-0.199
		c-0.057-0.102-0.128-0.229-0.269-0.315c-0.429-0.262-0.828-0.154-1.214-0.05c-0.222,0.06-0.433,0.116-0.651,0.107
		c0,0-0.328-0.083-0.328-0.083c-0.167-0.062-0.357-0.131-0.602-0.084c-0.202,0.039-0.311,0.123-0.399,0.19
		c-0.101,0.078-0.152,0.117-0.347,0.071c-0.103-0.024-0.18-0.097-0.269-0.182c-0.128-0.122-0.288-0.274-0.563-0.283
		c-0.196-0.006-0.357,0.083-0.499,0.162c-0.137,0.076-0.255,0.141-0.385,0.121c-0.095-0.015-0.179-0.089-0.276-0.175
		c-0.131-0.116-0.293-0.261-0.539-0.286c-0.233-0.024-0.441,0.069-0.643,0.16l-0.304,0.117c-0.074,0.028-0.128,0.117-0.1,0.191
		c0.028,0.074,0.094,0.117,0.169,0.089l0.352-0.134c0.174-0.078,0.339-0.152,0.496-0.136c0.153,0.016,0.262,0.112,0.377,0.215
		c0.12,0.107,0.244,0.217,0.423,0.245c0.227,0.035,0.408-0.065,0.568-0.154c0.125-0.069,0.234-0.13,0.35-0.126
		c0.165,0.005,0.257,0.093,0.374,0.203c0.104,0.099,0.222,0.211,0.401,0.253c0.328,0.078,0.467-0.028,0.589-0.122
		c0.074-0.057,0.144-0.11,0.278-0.136c0.167-0.032,0.298,0.016,0.449,0.071l0.415,0.101c0.263,0.012,0.504-0.053,0.738-0.116
		c0.357-0.096,0.666-0.179,0.99,0.018c0.076,0.046,0.118,0.122,0.167,0.21c0.078,0.139,0.175,0.313,0.431,0.344
		c0.128,0.016,0.238-0.067,0.356-0.154c0.098-0.073,0.209-0.156,0.299-0.152c0.055,0.002,0.19,0.1,0.289,0.171
		c0.174,0.125,0.372,0.267,0.579,0.291c0.001,0,0.554-0.037,0.554-0.037s0.151-0.012,0.157-0.012l-0.001,0
		c0,0.003,0.041,0.017,0.041,0.017l0.272,0.053c0.167-0.024,0.26-0.145,0.335-0.241c0.041-0.053,0.084-0.108,0.116-0.114
		c0.297-0.054,0.438,0.043,0.634,0.177c0.128,0.088,0.272,0.188,0.474,0.245c0.361,0.103,0.717,0.042,1.062-0.016
		c0.263-0.044,0.511-0.087,0.749-0.056c0.079,0.01,0.151-0.046,0.161-0.125C384.825,281.558,384.77,281.486,384.691,281.476z"/>
	<path fill="#040000" d="M418.961,281.673c-0.195,0.105-0.384,0.044-0.603-0.027c-0.152-0.049-0.31-0.1-0.475-0.089
		c-0.414,0.028-0.695,0.239-0.968,0.443c-0.195,0.146-0.386,0.273-0.613,0.339c-0.111-0.223-0.238-0.378-0.397-0.429
		c-0.273-0.087-0.547,0.09-0.812,0.261c-0.189,0.122-0.384,0.249-0.573,0.282c-0.255,0.045-0.487,0.019-0.712-0.005
		c-0.425-0.046-0.864-0.094-1.413,0.322c-0.064,0.048-0.076,0.138-0.028,0.202c0.048,0.064,0.138,0.076,0.202,0.028
		c0.458-0.346,0.806-0.309,1.209-0.265c0.245,0.026,0.498,0.054,0.793,0.002c0.246-0.043,0.476-0.192,0.68-0.324
		c0.218-0.141,0.424-0.275,0.567-0.229c0.102,0.033,0.199,0.162,0.287,0.385c0.025,0.064,0.093,0.101,0.161,0.088
		c0.339-0.064,0.585-0.249,0.824-0.427c0.25-0.187,0.486-0.364,0.814-0.386c0.11-0.007,0.235,0.033,0.368,0.076
		c0.234,0.076,0.525,0.17,0.829,0.006c0.07-0.038,0.096-0.125,0.058-0.195C419.119,281.662,419.031,281.635,418.961,281.673z"/>
	<path fill="#040000" d="M424.1,278.496l-0.278,0.104c-0.221,0.09-0.395,0.161-0.631,0.102c-0.148-0.038-0.288-0.144-0.437-0.257
		c-0.12-0.091-0.248-0.174-0.385-0.238c0.032-0.077,0.06-0.165,0.06-0.258c0-0.074-0.019-0.146-0.069-0.208
		c-0.192-0.235-0.673-0.093-1.097,0.031l-0.341,0.086c-0.271,0.008-0.336-0.015-0.351-0.023c0.01-0.005,0.015-0.048,0.015-0.048
		c0.006-0.041,0.013-0.091,0.013-0.146c0-0.132-0.039-0.299-0.227-0.477c-0.258-0.244-0.519-0.207-0.692-0.183
		c-0.076,0.011-0.149,0.021-0.176,0.001c-0.018-0.014-0.063-0.069-0.09-0.284c-0.017-0.137,0.02-0.209,0.064-0.292
		c0.085-0.162,0.138-0.319-0.062-0.593c-0.117-0.159-0.289-0.217-0.44-0.268c-0.115-0.039-0.224-0.075-0.292-0.151
		c-0.095-0.105-0.141-0.272-0.189-0.448c-0.08-0.294-0.18-0.66-0.575-0.814c-0.305-0.12-0.563-0.035-0.79,0.04
		c-0.199,0.065-0.37,0.122-0.567,0.056c-0.074-0.025-0.109-0.07-0.164-0.149c-0.083-0.119-0.196-0.282-0.514-0.274
		c-0.175,0.004-0.31,0.123-0.43,0.227c-0.077,0.068-0.156,0.137-0.214,0.145c-0.53,0.071-0.702-0.415-0.751-0.627
		c-0.015-0.063-0.069-0.108-0.134-0.111c-0.636-0.028-0.991,0.302-1.367,0.65l-0.417,0.36c-0.06,0.052-0.074,0.149-0.022,0.209
		c0.052,0.06,0.135,0.073,0.195,0.021l0.439-0.379c0.337-0.312,0.61-0.559,1.067-0.57c0.163,0.513,0.543,0.797,1.028,0.733
		c0.144-0.019,0.257-0.118,0.365-0.214c0.087-0.076,0.176-0.154,0.247-0.156c0.163-0.004,0.199,0.048,0.27,0.15
		c0.063,0.09,0.141,0.202,0.309,0.258c0.287,0.096,0.532,0.015,0.748-0.056c0.207-0.068,0.386-0.127,0.595-0.045
		c0.26,0.102,0.326,0.343,0.402,0.622c0.055,0.201,0.111,0.409,0.253,0.565c0.119,0.132,0.276,0.185,0.415,0.231
		c0.127,0.043,0.237,0.08,0.3,0.166c0.111,0.152,0.095,0.183,0.039,0.289c-0.052,0.099-0.122,0.235-0.094,0.461
		c0.031,0.247,0.093,0.395,0.201,0.477c0.123,0.094,0.266,0.074,0.392,0.056c0.159-0.023,0.296-0.042,0.453,0.107
		c0.158,0.15,0.143,0.259,0.127,0.374c-0.012,0.086-0.028,0.193,0.053,0.284c0.086,0.096,0.237,0.127,0.577,0.116l0.414-0.097
		c0.178-0.052,0.722-0.212,0.793-0.125c0,0,0.032,0.061-0.087,0.287c-0.021,0.039-0.022,0.085-0.004,0.125
		c0.018,0.041,0.053,0.07,0.096,0.081c0.149,0.038,0.289,0.145,0.438,0.257c0.165,0.125,0.335,0.254,0.54,0.306
		c0.329,0.083,0.574-0.017,0.811-0.114l0.255-0.096c0.074-0.028,0.12-0.114,0.092-0.188
		C424.25,278.508,424.175,278.468,424.1,278.496z"/>
	<path fill="#040000" d="M440.626,278.234c-0.253-0.131-1.124-0.239-1.435-0.178c-0.529,0.103-0.797,0.479-1.034,0.81
		c-0.158,0.221-0.308,0.431-0.519,0.551c-0.173,0.098-0.294,0.034-0.51-0.1c-0.235-0.145-0.555-0.343-1.009-0.111
		c-0.553,0.283-0.516,0.667-0.477,1.074l0.019,0.236c0.033,0.586-0.004,0.6-0.22,0.677c-0.136,0.049-0.321,0.116-0.558,0.29
		c-0.507,0.374-0.296,0.755-0.143,1.034c0.133,0.24,0.207,0.399,0.12,0.582c-0.139,0.291-0.41,0.232-0.841,0.101l-0.45-0.101
		c-0.34-0.013-0.659,0.064-0.967,0.139c-0.287,0.069-0.561,0.135-0.85,0.134c0-0.01,0.001-0.02,0.001-0.03
		c0-0.318-0.086-0.563-0.256-0.731c-0.275-0.272-0.712-0.293-1.166-0.262c0.075-0.139,0.137-0.284,0.137-0.424
		c0-0.079-0.019-0.155-0.063-0.224c-0.224-0.35-0.93-0.228-1.554-0.121c0,0-0.186,0.026-0.329,0.046
		c-0.005-0.51-0.271-0.688-0.441-0.748c-0.526-0.184-1.312,0.253-1.638,0.753c-0.043,0.067-0.024,0.156,0.042,0.199
		c0.067,0.043,0.156,0.024,0.199-0.042c0.282-0.433,0.951-0.762,1.301-0.639c0.195,0.069,0.277,0.28,0.243,0.627
		c-0.004,0.044,0.004,0.088,0.036,0.118c0.031,0.031,0.068,0.046,0.111,0.04l0.525-0.071c0.399-0.069,1.142-0.196,1.263-0.008
		c0.021,0.032,0.066,0.168-0.212,0.572c-0.032,0.046-0.034,0.107-0.005,0.155c0.029,0.048,0.083,0.075,0.138,0.07
		c0.481-0.048,0.97-0.076,1.211,0.163c0.139,0.138,0.192,0.36,0.163,0.681c-0.003,0.038,0.008,0.076,0.033,0.105
		c0.025,0.03,0.06,0.048,0.098,0.051c0.387,0.032,0.739-0.053,1.08-0.135c0.302-0.073,0.588-0.142,0.888-0.13l0.377,0.088
		c0.392,0.119,0.93,0.283,1.185-0.253c0.157-0.33-0.001-0.616-0.128-0.846c-0.168-0.304-0.23-0.448,0.061-0.663
		c0.202-0.149,0.359-0.205,0.484-0.25c0.365-0.131,0.451-0.258,0.41-0.964l-0.02-0.247c-0.038-0.397-0.057-0.596,0.321-0.79
		c0.309-0.158,0.503-0.039,0.726,0.099c0.211,0.13,0.474,0.292,0.804,0.105c0.267-0.152,0.442-0.397,0.611-0.634
		c0.225-0.316,0.438-0.613,0.855-0.695c0.265-0.052,1.066,0.057,1.247,0.151c0.071,0.037,0.158,0.009,0.194-0.062
		C440.724,278.357,440.697,278.271,440.626,278.234z"/>
	<path fill="#040000" d="M424.896,276.572c-0.039-0.069-0.127-0.094-0.196-0.055c-0.265,0.149-0.455,0.197-0.5,0.181
		c-0.066-0.031-0.076-0.051-0.076-0.051l0.013-0.074c0.01-0.042,0.023-0.095,0.023-0.154c0-0.059-0.013-0.124-0.054-0.192
		l-0.031-0.052c-0.116-0.195-0.224-0.356-0.513-0.552c0.048-0.051,0.096-0.102,0.096-0.102c0.175-0.165,0.389-0.368,0.389-0.654
		c0-0.024-0.001-0.048-0.005-0.073c-0.055-0.45-0.823-0.836-1.12-0.913c-0.077-0.02-0.156,0.026-0.176,0.103
		c-0.02,0.077,0.026,0.156,0.103,0.176c0.292,0.077,0.875,0.412,0.907,0.67c0.022,0.181-0.132,0.328-0.296,0.483l-0.238,0.258
		c-0.03,0.032-0.036,0.067-0.03,0.111c0.006,0.043,0.039,0.073,0.076,0.095c0.354,0.207,0.431,0.336,0.559,0.549l0.032,0.053
		c0.019,0.031,0.015,0.059-0.003,0.129c-0.028,0.11-0.078,0.316,0.223,0.456c0.19,0.089,0.519-0.056,0.761-0.192
		C424.911,276.729,424.936,276.641,424.896,276.572z"/>
</g>
<rect x="382.405" y="336.782" fill="#D3D3D4" width="45.125" height="16.375"/>
<rect x="386.905" y="316.157" fill="#D3D3D4" width="34" height="10.125"/>
<rect x="408.905" y="341.157" fill="#FFFFFF" width="9.625" height="5.75"/>
<polygon fill="#9FA0A0" points="383.03,326.282 375.53,337.282 433.53,337.282 426.405,326.282 "/>
<path fill="#9FA0A0" d="M404.655,300.407c0,0-19.25,15.375-19.625,15.5s39.5,0.25,39.5,0.25L404.655,300.407z"/>
<rect x="409.78" y="320.782" fill="#FFFFFF" width="6.25" height="5.375"/>
<rect x="392.03" y="340.282" fill="#B5B5B6" width="7" height="13"/>
<g>
	<path fill="#040000" d="M419.593,340.023h-1h-10.425v8.134h11.425V340.023z M417.593,346.158c-1.408,0-6.017,0-7.425,0
		c0-1.128,0-3.006,0-4.134c1.409,0,6.017,0,7.425,0C417.593,343.152,417.593,345.029,417.593,346.158z"/>
	<path fill="#040000" d="M427.729,326.166l-0.503-0.805h-0.554h-4.835v-8.124h5.921l-23.065-17.695l-0.608,0.463l-22.618,17.232
		h4.857v8.124h-4.023l-8.515,12.772h7.75v16.607h47.033v-16.607h6.639l-4.285-6.856 M404.689,302.06
		c1.004,0.771,13.649,10.471,17.177,13.178c-4.664,0-29.786,0-34.473,0C390.949,312.528,403.682,302.827,404.689,302.06z
		 M388.324,317.237h31.513v8.124h-2.649l-0.167-5.835h-0.972h-7.434v5.835h-20.292V317.237z M415.188,325.361h-4.571
		c0-0.942,0-2.857,0-3.835c1.171,0,3.317,0,4.462,0C415.107,322.515,415.163,324.492,415.188,325.361z M398.293,352.741
		c-1.932,0-3.781,0-5.48,0c0-2.113,0-9.708,0-11.166c1.269,0,4.211,0,5.48,0C398.293,342.939,398.293,349.952,398.293,352.741z
		 M426.57,352.741c-1.08,0-14.648,0-26.277,0v-13.166h-1h-8.48v13.166c-3.99,0-6.808,0-7.276,0c0-1.459,0-11.231,0-14.607h43.033
		C426.57,341.669,426.57,351.3,426.57,352.741z M377.523,336.134c1.445-2.167,5.385-8.077,5.848-8.772c1.031,0,41.679,0,42.747,0
		c0.457,0.732,4.146,6.634,5.483,8.772C428.328,336.134,380.909,336.134,377.523,336.134z M429.784,329.454l-0.961-1.538"/>
</g>
<rect x="437.544" y="291.194" fill="#898989" stroke="#000000" stroke-width="4" stroke-miterlimit="10" width="35.25" height="63.088"/>
<rect x="440.452" y="294.624" fill="#FFFFFF" stroke="#000000" stroke-width="4" stroke-miterlimit="10" width="7.639" height="9.918"/>
<rect x="451.226" y="294.624" fill="#FFFFFF" stroke="#000000" stroke-width="4" stroke-miterlimit="10" width="7.639" height="9.918"/>
<rect x="461.999" y="294.624" fill="#FFFFFF" stroke="#000000" stroke-width="4" stroke-miterlimit="10" width="7.639" height="9.918"/>
<rect x="440.452" y="310.151" fill="#FFFFFF" stroke="#000000" stroke-width="4" stroke-miterlimit="10" width="7.639" height="9.918"/>
<rect x="451.226" y="310.151" fill="#FFFFFF" stroke="#000000" stroke-width="4" stroke-miterlimit="10" width="7.639" height="9.918"/>
<rect x="461.999" y="310.151" fill="#FFFFFF" stroke="#000000" stroke-width="4" stroke-miterlimit="10" width="7.639" height="9.918"/>
<rect x="440.452" y="325.099" fill="#FFFFFF" stroke="#000000" stroke-width="4" stroke-miterlimit="10" width="7.639" height="9.918"/>
<rect x="451.226" y="325.099" fill="#FFFFFF" stroke="#000000" stroke-width="4" stroke-miterlimit="10" width="7.639" height="9.918"/>
<rect x="461.999" y="325.099" fill="#FFFFFF" stroke="#000000" stroke-width="4" stroke-miterlimit="10" width="7.639" height="9.918"/>
<rect x="440.452" y="340.547" fill="#FFFFFF" stroke="#000000" stroke-width="4" stroke-miterlimit="10" width="7.639" height="9.918"/>
<rect x="451.226" y="340.547" fill="#FFFFFF" stroke="#000000" stroke-width="4" stroke-miterlimit="10" width="7.639" height="9.918"/>
<rect x="461.999" y="340.547" fill="#FFFFFF" stroke="#000000" stroke-width="4" stroke-miterlimit="10" width="7.639" height="9.918"/>
<line fill="none" stroke="#B3B3B4" stroke-width="10" stroke-miterlimit="10" x1="367.681" y1="359.001" x2="485.726" y2="359.001"/>
</svg>
