<?xml version="1.0" encoding="utf-8"?>
<!-- Generator: Adobe Illustrator 17.1.0, SVG Export Plug-In . SVG Version: 6.00 Build 0)  -->
<!DOCTYPE svg PUBLIC "-//W3C//DTD SVG 1.1//EN" "http://www.w3.org/Graphics/SVG/1.1/DTD/svg11.dtd">
<svg version="1.1" id="Ebene_1" xmlns="http://www.w3.org/2000/svg" xmlns:xlink="http://www.w3.org/1999/xlink" x="0px" y="0px"
	 width="100px" height="100px" viewBox="0 0 100 100" enable-background="new 0 0 100 100" xml:space="preserve">
<circle fill="#B2B2B2" cx="50" cy="50" r="50"/>
<g>
	<path fill="#E7E7E7" d="M51.9,35.3c0.8,0.3,1.3-0.6,2-0.9c0,0.2,0,0.4,0,0.5c0.3-0.3,0.7-0.4,1.1-0.3c0.6,0.1,0.5,0.2,0.5,0.7
		c0.6-0.3,1.1,0.5,1.4,0.2c0.2-0.2,0.5-0.5,0.7-0.2c0.2,0.2,0,0.6,0.1,0.7c0.3,0.3,1-0.7,1.1-0.8c0.3-0.5,0.5-1,0.7-1.5
		c0.2,0.2,0.4,0.4,0.5,0.5c0.2-1.2,1.5-0.8,2.3-1.2c-0.7,0.2-1.3-0.2-2-0.2c0.1-0.2,0.1-0.4,0.1-0.6c-0.4,0-0.4,0.2-0.6,0.5
		c-0.3,0.4-0.4,0.1-0.8-0.1c-1.1-0.4-1.6,1.1-0.9,1.8c-0.1-0.1-1.2,0-1.4,0.1c-0.4,0-1,0.1-1.3-0.2c-0.2-0.3-0.3-0.6-0.7-0.7
		c-0.5-0.1-0.8-0.8-1.2,0C53.3,34.4,52.8,35,51.9,35.3C52.8,35.7,53.1,34.9,51.9,35.3z"/>
	<path fill="#C9CACA" d="M65.2,32.9c0-0.3,0-0.5-0.3-0.6c-0.4-0.1-0.2-0.4-0.3-0.8c-0.1-0.3-0.2-0.7-0.6-0.8c-0.2,0-0.3-0.1-0.5-0.2
		c-0.1-0.1-0.1-0.3-0.3-0.4c-0.3-0.1-0.5,0.3-0.7,0.5c-0.3,0.4-0.7,0.1-1,0.5c-0.2,0.2,0,0.6-0.2,0.8c-0.3,0.4-0.3,0.4-0.8,0.3
		c0,0.2,0,0.4-0.1,0.6c0.7,0,1.3,0.3,2,0.2c-0.8,0.5-2.1,0.1-2.3,1.2c-0.2-0.2-0.4-0.4-0.5-0.5c-0.3,0.5-0.5,1-0.7,1.5
		c-0.1,0.2-0.8,1.1-1.1,0.8c-0.2-0.2,0.1-1.3-0.7-0.6c-0.3,0.3-0.2,0.3-0.5,0c-0.3-0.3-0.7-0.3-1.1-0.1c0-0.4,0.1-0.5-0.3-0.6
		c-0.5-0.1-1-0.1-1.3,0.3c0-0.2,0-0.4,0-0.5c-0.7,0.3-1.1,1.2-2,0.9c1-0.4,1.5-1,1.9-1.9c-0.2,0.1-0.4,0.3-0.7,0.4
		c-0.2-0.4-0.5-0.8-0.4-1.3c0.1-0.5,0.6-0.7,0.8-1.1c0.4-0.7-0.3-1.8-1-2c-0.3-0.1-0.5,0.3-0.8,0.2c-0.3-0.1-0.3-0.6-0.7-0.7
		c-0.4-0.2-0.9,0.2-1.3,0.3c-0.5,0.1-0.8-0.4-1.2-0.4c-0.5,0-0.9,0.9-1.4,1.1c-0.2,0.1-0.4-0.3-0.7-0.4c-0.4-0.2-0.7-0.2-1.1-0.1
		c-0.4,0-0.7-0.3-1.1-0.2c-0.4,0.1-0.6,0.3-0.9,0c-0.7-0.7-1.6,0.4-2,1c-1.3-0.1-2.6,0.1-3.8,0.1c-1.3,0-2.6,0.1-3.8,0.2
		c-2.6,0.2-5.1,0.8-7.6,1.2c-1.2,0.2-2.5,0.2-3.8,0.5c-0.5,0.1-1.1,0.4-1.6,0.4c-0.5,0-1.1-0.2-1.6-0.1c-0.1,0-1.4,0.6-1.4,0.6
		c0.2-1.3-1.2-0.8-1.2,0c0-0.8-0.9-0.4-1.3-0.3c-0.2-0.7,0.3-1.9-0.5-2.3c-1.1-0.5-1.4,0.7-1.6,1.5C13,32.2,12.8,33,12.4,33
		c-0.3,0.1-0.8-0.2-1,0.2c-0.3,0.5-0.1,1.2-0.1,1.7c0.1,0.7-0.2,1.4,0.6,1.8c0.5,0.3,1,0.2,1.5,0.2c0.6,0,1.1,0.3,1.6,0.3
		c0.7,0.1,1.3,0,2-0.2c0.8-0.2,1.4,0,2.3,0.1c0.7,0.1,1.3-0.2,1.9-0.2c0.6,0,1.1,0.3,1.7,0.4c0.7,0.1,1.4-0.1,2.1-0.1
		c0.8,0,1.7,0,2.5,0.1c1.4,0.1,2.6-0.4,3.9,0c1.4,0.4,2.9-0.2,4.4-0.1c1.5,0.1,2.9,0.3,4.4,0.4c0.7,0.1,1.5,0,2.2,0.1
		c0.8,0.2,1.4-0.2,2.2-0.2c0.7-0.1,1.5,0,2.2,0c0.7-0.1,1.4-0.4,2.1-0.3c0.7,0.1,1.4,0.3,2.1,0.3c0.6,0,1.3-0.5,1.8-0.2
		c0.6,0.3,0.9,0.3,1.5,0.3c0.6,0,1-0.1,1.6-0.2c0.6-0.1,1.2,0.4,1.8,0.4c0.7,0,1.4-0.4,2-0.5c0.8-0.2,1.3,0.3,2,0.5
		c0.8,0.3,1.6-0.5,2.2-1c0.6-0.6,1.1-1.1,0.7-1.9C64.2,33.8,65.1,33.8,65.2,32.9C65.3,32.8,65.2,33.4,65.2,32.9z"/>
	<path fill="#040000" d="M26.3,28.7c0,0.3-0.2,1.3,0,1.5c0.1,0.1,0.5,0.1,0.6,0.1c1.1,0.2,2.3,0.5,3.4,0.7c2.9,0.6,5.9,1.3,8.8,1.9
		c0.5,0.1,1.1,0.4,1.6,0.3c0.7-0.2,1.4-0.6,1.5-1.4c0.1-0.8,0-2.2-1-2.4c-1.2-0.2-2.4-0.1-3.5-0.3c-0.9-0.2-1.7-0.5-2.6-0.5
		C32.1,28.7,29.2,28.7,26.3,28.7z"/>
	<path fill="#E7E7E7" d="M19.6,34.2c0.2-0.3,0.4-0.5,0.6-0.7c0.3-0.3,0.5-0.8,0.9-0.4c0.5,0.4,1.1,0.4,1.7,0.2
		c1.8-0.5,3.3,0.1,5.1,0.3c1.9,0.2,3.9,0.4,5.8,0.4c0.9,0,1.9,0.1,2.8-0.1c0.7-0.1,1.1-0.6,1.6-1c0.5-0.4,1.1-0.8,1.7-0.6
		c0.5,0.1,0.6,0.7,1.2,0.8c0.6,0.1,1.2-0.4,1.8-0.2c0.2,0.1,0.3,0.4,0.4,0.6c0.2,0.3,0.6,0.1,0.9,0.1c0.5,0,1.4-0.4,1.6,0.3
		c0.2,0.6,0.5,0.6,1,0.2c0.8-0.6,1.3,1.2,2.2,0.7c-0.4,0.5-1.5,0.5-2.1,0.6c-0.8,0.1-1.8,0.3-2.4-0.4c-0.7-0.8-1.6,0.1-2.4,0.3
		c-0.4,0.1-0.9,0.3-1.3,0.1c-0.5-0.3-0.7-0.9-1.3-0.8c-0.5,0.1-0.9,0.4-1.4,0.6c-0.6,0.2-1.1,0-1.7,0c-0.6-0.1-0.8,0.2-1.2,0.6
		c-0.5,0.5-0.8,0-1.3-0.2c-0.5-0.2-1.2,0.2-1.7,0.3c-0.6,0.1-1.1-0.1-1.6-0.3c-0.6-0.2-1.2-0.1-1.8-0.2c-0.5,0-1.2,0.2-1.7,0.1
		c-0.4-0.1-0.4-0.7-1-0.4c-0.5,0.3-0.8,0.6-1.4,0.5c-0.8-0.1-1.8-0.2-2.6,0c-0.6,0.1-0.8,0.2-1.4,0.1c-0.4-0.1-0.7,0.1-1.1,0.2
		c-0.3,0.1-0.6,0.2-1,0.3c-0.5,0.1-0.4-0.2-0.9-0.4c-0.9-0.4-1.9,0.2-2.9,0c-0.7-0.2-1.5-1.3-0.3-1.3c0.4,0,0.7,0.2,0.8,0.6
		c0.4-0.2,1-0.3,1.4-0.4c0.7-0.1,1.4-0.3,2.1-0.3C19.1,34.1,19.8,34,19.6,34.2C20,33.8,19.9,33.9,19.6,34.2z"/>
	<path fill="#E6E6E7" d="M26.2,29.6c3.1,0.1,6.2,0.2,9.3,0.3c1.6,0.1,3.1,0.1,4.7,0.2c0.3,0,0.5,0,0.7,0.2c0.7,0.6,0.7,2.4-0.1,2.9
		c1.8-0.2,1.9-3.5,0.1-3.7c-2.1-0.3-4.2-0.4-6.3-0.6c-1.3-0.1-2.6-0.3-3.9-0.2c-1.1,0.1-2.1,0.1-3.2,0.2c-0.4,0-0.8,0.1-1.2,0.1
		C26.1,28.9,26.3,29.3,26.2,29.6z"/>
	<path fill="#E6E6E6" d="M21.7,30.7c0.7-0.3,1.4-0.7,2.1-0.7c1,0,2.1,0,3.1,0.1c3.1,0.1,6.2,0.1,9.2,0.2c0.8,0,1.5,0,2.3,0.1
		c0.3,0,0.8,0.3,1,0.5c1,0.7,1.2,1.5,1,2.6c-0.3,2.3-3.4,1.1-4.8,0.7C31,33.1,26.4,31.9,21.7,30.7z"/>
	<path fill="#A6A6A7" d="M22.2,30.7c-1.8,0.1-2,3.2-0.3,3.6c0.6,0.2,1.3,0.1,1.9,0.1c3,0.1,6,0.2,9,0.3c1.3,0.1,2.7,0.1,4,0.2
		c0.4,0,1.1,0.2,1.6,0c1.8-0.6,1.2-3.1-0.3-3.7c-0.6-0.2-1.2-0.1-1.8-0.2C31.6,31,26.9,30.8,22.2,30.7z"/>
	<path fill="#9FA0A0" d="M24.9,27.2c-1.7,0.4-3.5,0.7-5.2,1.1c-0.7,0.1-1.1,0-1.2,0.7c-0.1,0.5-0.2,1-0.3,1.5
		c-0.1,0.3-0.4,0.4-0.7,0.5c0.5,0.1,1,0.3,1.5,0.4c0.3,0.1,1-0.3,1.3-0.4c1-0.3,2-0.6,3.1-1c0.4-0.1,2.7,0.2,2.7-0.1
		c0-0.4,0.2-1.1-0.1-1.4C25.7,28.1,25.3,27.6,24.9,27.2z"/>
	<path fill="#B5B5B6" d="M60,19.1c-0.2,0.1-0.5,0.1-0.7,0.3c-0.2-0.2-0.4-0.1-0.5,0c-0.2-0.1-0.4-0.1-0.6,0.1
		c-0.2,0.3-0.3,0.2-0.5,0.5c-0.2,0.2-0.1,0.4-0.3,0.7c-0.2,0.2-0.3,0.2-0.6,0.4c-0.6,0.3,0.2,0.7,0.5,0.7c1.2,0.1,2.6,0.4,3.5-0.7
		C61.4,20.3,61.3,18.5,60,19.1C59.7,19.2,60.4,18.9,60,19.1z"/>
	<path fill="#C9CACA" d="M63.8,17.6c-0.6-0.1-0.4-0.8-0.5-1.3c0-0.2,0-0.4,0-0.6c-0.1-0.1,0-0.4,0-0.5c0-0.3-0.2-0.2-0.3-0.3
		c-0.7-0.6-1.3-1.2-2-1.8c-1.9-1.6-3.7-3.3-5.6-4.9C54.9,7.9,54.5,7.4,54,7c-0.5-0.3-2.8-0.8-3,0.1c-0.2,0.7,0.1,0.7,0.7,1.1
		c0.6,0.5,1.3,0.9,0.7,1.7c-0.5,0.6,0.7,1.3,1.1,1.6c1.2,0.9,2.4,1.7,3.6,2.6c1,0.7,1.9,1.4,2.9,2.1c0.5,0.4,1.1,0.6,1.2,1.2
		c0.3,0.9-0.9,2.5-1.5,3.2c-0.3,0.4-0.7,1-1.2,0.9c-0.4,0-1-0.3-1.1,0.3c1.5,0.5,2.6,1.1,4.2,0.8c1.3-0.3,2.2-1.2,2.1-2.6
		C63.6,19.2,63.7,18.4,63.8,17.6z M55,9.2c2.4,2,4.8,4,7.2,5.9c-0.4,0.1-1.5,0.4-1.8,0.1c-0.6-0.6-1.3-1.3-1.9-1.9
		c-0.8-0.9-1.7-1.7-2.5-2.6C55.7,10.4,54.8,9.8,55,9.2z M62.2,16.9c-0.5-0.1-0.1-0.3-0.2-0.5c-0.2-0.2-0.5-0.4-0.7-0.5
		c0.3-0.1,1.3-0.4,1.5-0.2c0.3,0.3,0.2,1.2,0.2,1.6C62.7,17.2,62.4,17.1,62.2,16.9z"/>
	<path fill="#C9CACA" d="M41.9,12.1c-0.1-0.5-0.3-1-0.4-1.5c1.6-0.3,3-0.9,4.5-1.5c1.7-0.7,3.5-1.4,5.2-2.1c0.3,0.8,0.2,0.7-0.6,1
		c-1,0.4-2,0.8-3,1.2c-1.6,0.6-3.2,1.3-4.8,1.9c0.1,0.2,0.1,0.4,0.2,0.5C42.6,11.8,42.3,12,41.9,12.1z"/>
	<path fill="#9FA0A0" d="M41.5,14.7c-1.1,2.7-2.2,5.5-3,8.3c-0.3,1.3-0.9,3.6,0.6,4.5c0.3,0.2,0.7,0.2,0.9,0.2
		c0.5-0.1,0.4-0.2,0.5-0.7c0.4-2.2,0.6-4.5,1.2-6.7c0.7-2.4,1.1-5.2,2.6-7.2c0,0,0,0,0,0C43.4,13.5,42.4,14.1,41.5,14.7z M41.3,20.3
		c-0.5,2.1-1,4.2-1.5,6.3c-0.4-0.7-0.8-0.9-0.6-1.7c0.4-1.2,0.7-2.4,1.1-3.6c0.4-1.3,0.8-2.6,1.2-4c0.2-0.7,0.3-1.9,1.3-1.9
		C42.2,17.1,41.8,18.7,41.3,20.3z"/>
	<path fill="#727171" d="M37.9,24.9c0.5-2.7,0.9-5.3,1.4-8c0.3-1.6,0.4-3.7,1.7-4.7c0.9-0.7,2.2-0.7,3.3-0.9
		c2.6-0.5,5.2-0.9,7.7-1.4c0.8-0.1,1.1,0.5,0.8,1.1c-0.2,0.3-1,0.5-1.3,0.6c-1,0.3-2,0.5-3,0.8c-1.5,0.4-3.1,0.7-4.6,1.2
		c-1,0.4-1.8,0.9-2.2,1.9c-0.3,0.8-0.5,1.5-0.8,2.3c-0.8,2.6-1.6,5.1-2.4,7.7C38.3,25.3,38.1,25.1,37.9,24.9z"/>
	<path fill="#9FA0A0" d="M37.7,25.4c-0.4,0.4-0.8,0.8-1.2,1.2c-0.3,0.3-0.8,0.5-0.8,1c0,0.4-0.2,1.2,0.1,1.5
		c0.5,0.6,0.6,0.5,1.4,0.5c0.2,0,1.4,0.1,1.5,0c0.2-0.3,0.4-0.6,0.7-0.8c0.4-0.3,0.7-0.1,0.7-0.7c0-0.6-0.6-0.7-0.9-1.1
		c-0.3-0.4-0.6-0.9-0.7-1.4C38.3,25.4,37.9,25.5,37.7,25.4z"/>
	<path fill="#727171" d="M37.7,24.8c-0.5,0-1,0-1.5,0c-0.4,0-0.6-0.8-0.7-1.2c-0.2-0.5-0.5-0.3-1.1-0.3c-0.6,0.1-1.1,0.1-1.7,0.2
		c0.1,0.7,0.2,1.4,0.3,2c0.1,0.8,0.1,0.7,0.9,0.8c0.9,0.1,1.7,0.5,2.6,0.7C37.7,27.3,37.4,25.2,37.7,24.8z"/>
	<path fill="#9FA0A0" d="M38.6,25.4c-0.1-0.7-1-1-1.1-0.1C37.4,26.1,38.5,26.2,38.6,25.4z"/>
	<path fill="#727171" d="M25.4,25.8c-0.4,0.3-0.8,0.4-0.8,0.8c0,0.6,0,1.2,0,1.8c0,0.9,3.2,0.7,3.8,0.8c1.6,0.1,3.2,0.2,4.8,0.3
		c0.5,0,1-0.1,1.5-0.2c0.9-0.2,1.1-0.3,1.1-1.2c0-0.2-0.1-0.6,0-0.8c0.1-0.2,0.5-0.3,0.4-0.5c-0.1-0.7,0-0.6-0.7-0.7
		c-0.9,0-1.9-0.1-2.8-0.1C30.3,26,27.8,25.9,25.4,25.8z"/>
	<path fill="#9FA0A0" d="M25.7,21.7c-0.4,0.8-0.6,1.7-0.7,2.6c-0.1,0.4-0.4,1.6,0.1,1.8c1.7,0.7,3.9,0.5,5.7,0.5
		c0.7,0,1.3,0.1,1.9-0.2c0.2-0.1,0.7-0.2,0.7-0.5c0.1-1.2-0.7-2.5-1.6-3.2c-1-0.8-2.3-1-3.5-1.1C27.6,21.6,26.3,21.4,25.7,21.7z"/>
	<path fill="#727171" d="M25.8,15.5c0.1-0.9,0.2-1.3,1.3-1.3c1-0.1,2-0.1,3-0.1c1.1,0,2.1-0.1,3.2,0.1c0.5,0.1,1.2,0.2,1.6,0.5
		c0.2,0.1,0.4,0.5,0.1,0.6C31.9,15.3,28.9,15.4,25.8,15.5z"/>
	<path fill="#9F9E9F" d="M25.8,15.2c-0.1,1.1-0.2,2.2,0,3.3c0.3,1.1,0.9,2,0.8,3.2c0.3,0,1.1,0.2,1.1-0.2c0-0.5,0-0.9-0.1-1.3
		c-0.2-1.1-0.4-2.2-0.4-3.2c0-0.7-0.2-1.1,0.5-1.1c2.4-0.1,5,0,7.4-0.5C33.7,15.1,32.4,15,31,15C29.3,15.1,27.6,15.2,25.8,15.2z"/>
	<path fill="#314044" d="M35,25.1c0.2,0.1,0.7,0.2,0.8,0.4c0.1,0.3-1,0.2-1.1,0.2C33.4,25.6,34.2,24.4,35,25.1z"/>
	<path fill="#314044" d="M35.7,24.4c-0.1,0-0.6,0.1-0.7,0.2c-0.2,0.3,0.1,0.4,0.3,0.4c0.3,0,0.8,0.1,1,0
		C36.8,24.7,35.8,24.4,35.7,24.4z"/>
	<path fill="#4C656B" d="M31.6,22.7c0.2,0,1.6,0,1.6,0.2c0,0.6,0,1.2-0.1,1.8C32.7,24,32.3,23.1,31.6,22.7z"/>
	<path fill="#040000" d="M22.1,32.6c-0.2-0.2-0.6-0.7-0.9-0.5c0.1-1.5,2.1-0.9,3.1-0.9c2.3,0.1,4.7,0.1,7,0.2
		c1.9,0.1,3.7,0.1,5.6,0.2c0.4,0,0.7,0,1.1,0.2c1.2,0.5,1.2,2.3,0,2.9c-0.1-0.7-0.4-1.5-1-1.9c-0.4-0.4-1.1-0.3-1.6-0.4
		c-1.8-0.1-3.5-0.2-5.3-0.2c-1.9-0.1-3.8-0.1-5.8-0.2C23.7,31.9,22.1,31.4,22.1,32.6z"/>
	<path fill="#BDD7D6" d="M33,22.2c-0.1,0.2-0.1,0.4-0.2,0.6c0.4-0.1,0.3,0.3,0.3,0.6c0,0.4,0.1,0.3,0.5,0.3c0.2,0,0.3,1.5,0.3,1.7
		c0.2-0.1,1.1-0.3,1.1-0.5c0-0.3,0-0.4,0.3-0.4c0.3,0,0.3,0,0.2-0.3c0-0.4,0-1.4-0.4-1.6C34.7,22.2,33.7,22.1,33,22.2z"/>
	<path fill="#BDD7D6" d="M31.4,19.3c-0.3,0.7-0.6,1.5-0.8,2.3c-0.1,0.5-0.2,0.5,0.3,0.7c0.2,0.1,0.5,0.4,0.8,0.4
		c0.4,0,0.7,0.1,1.1,0.1c0.3,0,0.2-0.5,0.2-0.7c0.1-0.4,1.1-0.6,1.5-0.7c-0.1-0.2-0.2-0.8-0.5-0.7c-0.2,0.1-0.9,0.4-1,0.2
		c-0.2-0.4-0.3-0.9-0.5-1.3C32.4,19.3,31.6,19.3,31.4,19.3z"/>
	<path fill="#FFFFFF" d="M34.6,20c0.9,0,0.9,1.4,0,1.4C33.7,21.4,33.7,20,34.6,20z"/>
	<path fill="#FFFFFF" d="M30.6,17.6c-0.2,0.7-0.4,1.4,0.4,1.8c0.6,0.3,1.2,0.2,1.8,0c0.5-0.2,0.4-0.6,0.6-1c0.1-0.1,0.3-0.2,0.3-0.2
		c0.2-0.2-0.2-0.2-0.2-0.2c-0.1-0.5-0.4-0.9-0.6-1.4C32.3,16.9,31.4,17.2,30.6,17.6z"/>
	<path fill="#959494" d="M30.6,17.6c0.2,0.4,0.6,2,1,2c-0.1-0.5-0.2-1-0.3-1.5C31.2,17.5,31.3,17.5,30.6,17.6z"/>
	<path fill="#E6E6E6" d="M29.7,18.1c0-0.7,0.2-1.6,0.8-2c1-0.7,2.3-0.1,3,0.8C32.4,17.6,30.8,17.4,29.7,18.1z"/>
	<path fill="#040000" d="M32.8,17.6c0.2,0,0.2,0.4,0,0.4C32.6,17.9,32.6,17.6,32.8,17.6z"/>
	<path fill="#FFFFFF" d="M37.2,32c1.4,0,1.4,2.1,0,2.1C35.8,34.1,35.8,32,37.2,32z"/>
	<path fill="#040000" d="M22.2,34.1c2,0.2,4,0.2,6.1,0.3c2.9,0.1,5.7,0.2,8.6,0.4c0.6,0,1.1,0.1,1.5-0.2c1.3-1.1,0.3-2.9-1.1-2.9
		c-2.3-0.1-4.6-0.2-6.9-0.2c-2.3-0.1-4.7-0.2-7-0.2c-0.4,0-0.9,0-1.3,0C20.4,31,20.8,33.8,22.2,34.1C22.3,34.1,21.6,34,22.2,34.1z
		 M21.2,32.4c0-1.3,1-1.1,1.9-1.1c1.3,0,2.5,0.1,3.8,0.1c3,0.1,6,0.2,9,0.3c0.6,0,1.3,0,1.9,0.1c0.9,0.3,1.4,1.1,1,2
		c-0.1,0.3-0.5,0.8-1,0.8c-2.3-0.1-4.6-0.2-6.9-0.3c-2.2-0.1-4.3-0.2-6.5-0.3C23.1,33.9,21.1,34.2,21.2,32.4
		C21.2,32,21.2,32.4,21.2,32.4z"/>
	<path fill="#040000" d="M22.5,33.5c4.6,0.2,9.2,0.4,13.9,0.6c0.6,0,1,0.4,1.6,0c1-0.8,0-2.5-1.2-2c-0.4,0.2-0.3,0.3-0.7,0.3
		c-0.4,0-0.9,0-1.3-0.1c-3-0.1-6.1-0.2-9.1-0.4c-0.9,0-1.8-0.1-2.8-0.1c-0.2,0-0.4,0-0.6,0C21.7,32,21.8,33.4,22.5,33.5z M37.2,32.1
		c1.3,0,1.3,2,0,2C35.9,34.1,35.9,32.1,37.2,32.1z M22.2,32c0.3-0.3,1.6,0,2,0c1.5,0.1,2.9,0.1,4.4,0.2c2.5,0.1,5.1,0.2,7.6,0.3
		c-0.3,0.4-0.2,1,0.1,1.4c-2.6-0.1-5.1-0.2-7.7-0.3c-1.6-0.1-3.2-0.1-4.8-0.2c-0.4,0-0.8,0-1.2,0C22.1,33.3,21.8,32.4,22.2,32
		C22.3,31.9,22.1,32.1,22.2,32z"/>
	<path fill="#040000" d="M65.2,32.5c-0.1-0.2-0.4-0.3-0.6-0.3c0.1-0.3,0.1-0.6-0.1-0.9c-0.1-0.2-0.3-0.6-0.5-0.8
		c-0.1-0.1-0.8-0.5-0.9-0.5c-0.3,0-0.5,0.2-0.6,0.4c-0.2,0.4-0.4,0.3-0.8,0.4c-0.6,0.2-0.3,1.4-1,1.2c-0.3-0.1-0.6,0-0.7,0.3
		c0,0.1-0.3,0.6-0.4,0.5c-0.8-1-2.2,0.4-1.4,1.4c-0.3,0.1-0.7,0-1.1,0.1c-0.4,0-0.9,0.1-1.3,0c-0.2-0.1-0.3-0.4-0.5-0.5
		c-0.2-0.1-0.7-0.1-0.7-0.3c0-0.3-0.3-0.5-0.5-0.4c-0.3,0-0.8,0.9-1.1,0.4c-0.5-0.8-0.1-1.2,0.5-1.6c0.7-0.6,0.2-1.6-0.4-2.1
		c-0.3-0.2-0.5-0.3-0.9-0.2c-0.1,0-0.5,0.2-0.6,0c-0.3-0.7-1.1-0.6-1.6-0.3c-0.7,0.4-0.9-0.6-1.7-0.3c-0.4,0.1-0.6,0.5-0.9,0.8
		c-0.5,0.5-0.4,0.3-0.7,0c-0.3-0.2-1-0.6-1.4-0.3c-0.5,0.3-0.9-0.5-1.6-0.1c-0.6,0.3-0.6-0.6-1.3-0.3c-0.3,0.1-0.5,0.4-0.7,0.6
		c-0.2,0.2-0.3-0.1-0.5-0.2c-0.8-0.1-1.6-0.1-2.4-0.2c0.1-0.2,1.1-0.7,1.1-0.7c0.1-0.2-0.1-0.6,0-0.7c0.2-0.4,0.4-0.1,0.5-0.7
		c0.3-1.4,0.5-2.8,0.8-4.2c0.4-2.2,1-4.3,1.6-6.5c0.1-0.2,0.3-0.8,0.3-1c0.7-0.3,0.2-1.6,1.1-1.8c1.8-0.5,3.6-1,5.4-1.5
		c0.9-0.3,1.9-0.3,2.7-0.8c0.6-0.3,1.4,0.7,1.9,1c1.6,1.2,3.2,2.3,4.9,3.5c0.5,0.4,1.1,0.8,1.6,1.1c0.7,0.5,0.1,1.3-0.2,1.9
		c-0.2-0.3-1,0.1-1.3,0.2c-0.4,0.2-0.5,0.3-0.9,0.2c-0.4,0-0.4,0.4-0.7,0.5c-0.2,0.1-0.6,0.7-0.6,0.9c-0.8,0.1-0.8,1.2,0,1
		c0.1,0.3,1.3,0.5,1.7,0.6c0.8,0.2,1.3,0.5,2.2,0.4c1-0.1,2.1-0.5,2.5-1.6c0.3-0.7,0-1.4,0.1-2.1c0-0.3,0.4-1.4,0.1-1.6
		c-0.4-0.2-0.3-1.1-0.3-1.5c0-0.3,0.2-0.7-0.1-1c-0.2-0.2-0.5-0.3-0.7-0.5c-2.1-1.9-4.2-3.7-6.4-5.6c-0.9-0.8-1.7-1.9-2.9-2.2
		c-0.7-0.2-1.4-0.1-2.1,0.2c-0.2,0.1-0.3,0.3-0.5,0.4c-2.4,0.9-4.8,1.9-7.3,2.8c-0.2,0.1-2.1,0.7-2.2,0.7c-0.1,0.1,0.1,0.7,0.2,0.9
		c0.1,0.3-0.3,0.3-0.5,0.4c-0.7,0.4-1.2,1.2-1.4,2c-0.5,2.5-1,5-1.4,7.4c-0.2,1-0.3,2.1-0.5,3.1c-0.1,0.4-0.9,0.1-1.2,0.1
		c-0.9,0-0.9-0.8-1-1.5c-0.2-0.8-0.4-0.9-1.2-1c0.4-0.1,1-0.2,1.5-0.3c-0.1-0.2-0.1-0.4-0.2-0.6c-0.2,0.1-1.2,0.5-1.2,0.5
		c0.1,0.3-1.3,0.2-1.4,0.2c0.3-0.3,0.9-0.4,1.3-0.5c0.4-0.1,0.7-0.1,0.9-0.5c0.1-0.3,0.3-0.4,0.7-0.6c0.4-0.2-0.1-0.9-0.3-0.8
		c-0.2,0.1-0.4,0.4-0.7,0.5c-0.2,0.2-0.7-0.2-1,0.2c-0.4,0.4-0.2,0.4-0.8,0.5c-0.5,0.1-0.4-0.4-0.5-0.8c-0.1-0.4,0.5-0.5,0.7-0.8
		c0.2-0.3,0.1-0.5,0.4-0.7c0.3-0.2-0.1-0.5-0.2-0.7c-0.1-0.2-0.1-0.4-0.2-0.6c0.1,0,0.2,0,0.1-0.2c-0.3-0.7-1.2-1.2-1.9-1.2
		c1-0.1,2-0.2,3-0.3c0.4,0,0.8-0.1,0.5-0.6c-0.6-0.9-3-0.8-3.9-0.8c-1.4,0-2.9-0.1-4.3,0.1c-1,0.1-1.2,0.2-1.3,1.2
		c-0.1,1.3-0.1,2.7,0.3,3.9c0.1,0.5,0.3,1.1,0.6,1.6c0.1,0.2,0,0.5,0,0.7c0,0-0.9,0-1,0.3c-0.5,0.8-0.6,1.9-0.7,2.8
		c0,0.4,0,0.7,0,1.1c0,0.3-0.4,0.4-0.4,0.6c-0.1,0.2,0.2,0.9-0.1,1c-0.5,0.1-1,0.2-1.6,0.3c-1.4,0.3-2.7,0.5-4.1,0.8
		c-0.4,0.1-0.3,0.3-0.4,0.7c-0.1,0.4-0.2,0.9-0.3,1.3c0,0.2-0.6,0.3-0.6,0.5c0,0.2,1.4,0.5,1.5,0.5c0.7-0.2,1.5-0.4,2.2-0.6
		c-0.5,0.4-0.5,1.5-1,1.6c-0.4,0-0.8-0.1-1.2-0.1c-0.5,0-0.7,0.3-1,0.6c-0.2,0.2-0.2-0.7-0.6-0.8c-0.4-0.1-0.7,0.5-0.9,0.8
		c-0.2-0.6-0.7-0.5-1.2-0.4c-0.1-0.6,0.2-1.7-0.3-2.1c-1.5-1.1-1.8,1.2-2.2,2.1c-0.3,0.6-0.5,0.4-1,0.3c-0.5-0.1-0.7,0.7-0.7,1.1
		c0,1-0.3,2.4,0.8,2.8c0.7,0.3,1.6,0.2,2.3,0.3c1.1,0.2,2,0.3,3.1,0c0.6-0.2,1,0,1.6,0.1c0.6,0.1,1.2,0,1.7,0
		c1.2-0.1,2.3,0.3,3.4,0.3c0.7,0,1.4-0.2,2.1-0.2c0.6,0,1.1,0.1,1.7,0.1c1.1-0.1,2.2-0.2,3.2-0.1c1.1,0.1,2,0.2,3.1,0
		c1.4-0.2,2.7,0,4.1,0.2c1.1,0.2,2.2,0.2,3.3,0.3c1.3,0.1,2.5-0.2,3.8-0.2c1.3,0,2.5-0.5,3.8-0.2c0.7,0.1,1.3,0.2,2,0.1
		c0.5-0.1,1-0.3,1.4-0.2c0.9,0.2,1.5,0.5,2.5,0.3c1-0.1,1.8,0.2,2.7,0.2c0.5,0,1-0.1,1.5-0.3c0.8-0.3,1.4-0.1,2.2,0.2
		c1.1,0.4,2.4-0.7,3.1-1.6c0.6-0.9-0.3-1.2-0.2-2C64.5,33.7,65.7,33.2,65.2,32.5z M61.6,31.2c0.2-0.3,0.6-0.1,0.9-0.4
		c0.2-0.3,0.3-0.7,0.8-0.5c0.4,0.2,0.7,0.5,0.9,0.8c0.2,0.3,0.3,0.5,0.3,0.8c-0.1,0.5-0.9,0.3-1.3,0.2c-0.3-0.1-0.4-0.3-0.6-0.5
		c-0.3-0.3-0.9,0.1-1.2,0.2C61.4,31.6,61.4,31.4,61.6,31.2C61.7,31.1,61.5,31.4,61.6,31.2z M41.3,29.5c0.8,0.3,0.9,1.7,0.7,2.4
		c-0.2,0.8-0.7,1.1-1.5,1.2c0.2-2.7-2.4-2.7-4.3-2.8c-1.5,0-3.1-0.1-4.6-0.1c-0.9,0-1.7,0-2.6-0.1c-0.7,0-0.6,0-0.6-0.7
		c1.7,0.1,3.4,0.2,5.1,0.2c0.4,0,0.9-0.1,1.3-0.2c0.3-0.1,0.7-0.4,0.9-0.2c0.1,0.1,0.3,0.5,0.4,0.5c0.3,0.1,0.8,0,1.1,0
		c0.3,0,1,0.1,1.3,0c0.2,0,0.1-0.3,0.4-0.3c0.3,0,0.6,0,0.9,0.1C40.3,29.5,40.8,29.5,41.3,29.5C41.3,29.6,41.2,29.5,41.3,29.5z
		 M39.5,32.9c0-1.3-1.4-1.8-2.4-1.9c-1.4,0-2.8-0.1-4.3-0.1c-3.6-0.1-7.2-0.2-10.7-0.3c0.7-0.3,1.2-0.5,1.9-0.5c0.8,0,1.6,0,2.3,0.1
		c2.3,0.1,4.7,0.1,7,0.2c1.6,0,3.2,0.1,4.8,0.1c2.5,0.1,3.1,3.9,0.5,4.3C39.4,34.5,39.5,33.7,39.5,32.9
		C39.5,31.3,39.5,34.1,39.5,32.9z M21.7,30.5c0-0.4,0-0.7,0-1.1c0.3,0.3,0.7,0.6,1.1,0.7C22.4,30.3,22.1,30.4,21.7,30.5
		C21.7,30.3,22,30.4,21.7,30.5z M26.2,30c0.1-0.2,0-0.5,0-0.8c0.6,0,1.3,0.1,2,0.1c0.1,0.1,0,0.6,0,0.7C27.5,30.1,26.9,30.1,26.2,30
		C26.2,30,26.8,30,26.2,30z M39.9,28.4c-0.8,0.2-1.1,1.1-1.8,1.1c-0.6,0-1.7,0.2-2.1-0.2c-0.5-0.5-0.3-1.2-0.2-1.9
		c0-0.5,0.6-0.3,0.8-0.3c0.6-0.1,0.8-0.7,0.9-1.2c0.3,0.2,0.7,0.2,0.9,0c0.1,0.6,0.5,1.2,1,1.6C39.9,27.8,39.9,27.8,39.9,28.4
		C39,28.6,39.9,28.3,39.9,28.4z M32.9,22.5c0.1,0,0.2,0,0.3,0c0,0.2-0.2,0.3-0.4,0.2C32.9,22.7,32.9,22.5,32.9,22.5
		C33,22.5,32.9,22.5,32.9,22.5z M32.9,22.9c0.4,0-0.1,0.8-0.2,1C32.6,23.7,32.8,23.1,32.9,22.9z M32.5,23.6
		c-0.2-0.3-0.5-0.6-0.8-0.8c0.3,0,0.6,0.1,0.9,0.1C32.6,23.1,32.5,23.3,32.5,23.6z M32.9,24c0,0.1,0,0.2,0,0.3
		C32.8,24.1,32.9,24.1,32.9,24z M33.5,22.6c0.3,0,1.2,0,1.4,0.4c0.1,0.5,0.1,1,0.1,1.5c0,0.7-0.4,0.5-1,0.7c0-0.5-0.1-1-0.1-1.4
		c0-0.4-0.3-0.3-0.7-0.3C33.2,23.2,33.4,22.9,33.5,22.6z M35.1,25.1c0.1,0,0.6,0.2,0.6,0.4c0-0.1-1.6,0.3-1.7-0.1
		C34.3,25.3,34.7,25.2,35.1,25.1z M33.1,24.6c0-0.2,0-0.5,0-0.7c0-0.3,0.5-0.3,0.5-0.1c0,0.5-0.1,1.8,0.4,1.9c-0.2,0-0.5,0-0.7,0
		C33.3,25.7,33.1,24.7,33.1,24.6z M37.3,26c-0.1,0.3-0.2,0.8-0.6,0.9c-0.2,0.1-0.5,0.2-0.5-0.1c0-0.1,0-0.6-0.1-0.6
		c-0.4,0-0.9,0-1.3,0c-0.4,0-1.4,0.2-1.5-0.3C34.7,25.9,36,25.9,37.3,26z M39.6,26.7c0,0.2-0.1,0.3-0.1,0.5
		c-0.1-0.1-1.2-1.5-0.9-1.6C38.9,25.2,39.4,26.5,39.6,26.7z M39.1,25.4c0.5-1.7,1-3.5,1.6-5.2c0.3-1.1,0.7-2.2,1-3.3
		c0.2-0.5,0.2-1.3,0.9-1.4c-1,3.6-2,7.3-2.9,11C39.4,26.1,39.2,25.8,39.1,25.4z M40.3,27.4c-0.8,0.4-0.6-0.5-0.5-1
		c0.2-0.9,0.4-1.7,0.6-2.6c0.2-0.8,0.4-1.7,0.6-2.5c0.1-0.2,0.1-0.5,0.2-0.7c0-0.2,0.3-0.2,0.3,0C41.1,22.8,40.7,25.1,40.3,27.4
		C40.2,27.4,40.3,27.3,40.3,27.4z M41.6,20.3c-0.1,0-0.2,0-0.2,0c0.2-0.8,0.5-1.6,0.7-2.5c0.2-0.6,0.3-1.1,0.5-1.7
		c0.1-0.4,0-0.5,0.4-0.6C42.5,17.1,42,18.7,41.6,20.3z M43.4,14.7c-0.1,0.9-1.2,0.3-1.6,1c-0.1,0.2-0.1,0.3-0.2,0.5
		c-0.3,1.1-0.6,2.1-1,3.2c-0.4,1.3-0.8,2.7-1.2,4c-0.1,0.4-0.3,2-0.9,2c0-0.7,0.3-1.3,0.5-2c0.5-1.5,1-3,1.4-4.4
		c0.6-2,0.9-4.7,3.2-5.3C43.5,14,43.4,14.4,43.4,14.7C43.3,14.9,43.4,14.2,43.4,14.7z M57.4,21.3c-0.1,0.4-0.8,0.2-0.6-0.1
		c0.1-0.2,0.5-0.2,0.6-0.3c0.1-0.2-0.1-0.3,0.2-0.5c0.2-0.1-0.1-0.3,0.2-0.4c0.3-0.2,0.2,0.1,0.3-0.3c0.1-0.2,0.9-0.1,1.1-0.2
		c0.2,0,0.3-0.2,0.5-0.3c0.2,0,0.3-0.2,0.5-0.3c0.7-0.3-0.3,1.2-0.4,1.4c-0.2,0.2-0.8,1.1-1.1,1.1C58.5,21.4,57.4,21.1,57.4,21.3z
		 M63.6,17.6c-0.1,0.5-0.1,1-0.2,1.5c-0.4-0.7-1.4-1.4-1.4-2.2C62.5,17.2,63,17.4,63.6,17.6C63.6,17.7,63.5,17.6,63.6,17.6z
		 M62.8,17.1c-0.3-0.1-0.7-0.2-0.9-0.4c0-0.4-0.5-0.6-0.8-0.8c0.3,0,1.5-0.4,1.6,0C62.8,16.3,62.8,16.7,62.8,17.1z M63,17.2
		c0-0.4,0-0.9-0.1-1.4c0.4,0,0.3,1.1,0.4,1.5C63.2,17.3,63.1,17.2,63,17.2z M62.9,15.1c0.5,0.1,0.1,1-0.4,0.5
		c-0.1-0.1-0.6,0-0.7,0.1c-0.3,0-1.5,0.4-1.7,0.3c-0.4-0.1-0.3-0.2-0.1-0.5c0.3,0,0.6,0,0.9-0.1c0.4,0,0.9-0.1,1.3-0.1
		C62.4,15.2,62.8,15,62.9,15.1C63,15.1,62.8,15,62.9,15.1z M60.5,15.2c-0.9-0.9-1.9-1.9-2.8-2.8c-0.6-0.6-1.3-1.2-1.9-1.9
		c-0.3-0.3-1-0.8-0.9-1.3c2.4,1.9,4.7,3.9,7.1,5.8C61.8,15.1,60.7,15.4,60.5,15.2z M51,7.1c2.3-1.4,4.2,1.2,5.8,2.6
		c2,1.7,3.9,3.5,5.9,5.2c-0.5,0.2-0.5,0.1-0.9-0.3c-0.6-0.5-1.3-1.1-1.9-1.6c-1.4-1.2-2.9-2.4-4.3-3.5c-0.2-0.2-0.8-0.8-0.8-0.1
		c0,0.6,1,1.3,1.4,1.7c1.4,1.4,2.8,2.8,4.2,4.1c-0.6,0-1,0.7-0.2,0.8c0.3,0.1,0.5-0.1,0.8-0.2c0.1,0.1,0.3,0.3,0.5,0.4
		c0.5,0.4,0.2,0.6,0.4,1.1c0,0.3,0.8,1,1,1.2c1,1.4,0.8,3.4-1.1,3.8c-1.5,0.4-2.8-0.3-4.3-0.7c0.3-0.7,0.9,0.2,1.3-0.1
		c0.5-0.4,1-0.9,1.3-1.4c0.4-0.7,0.8-1.4,1.1-2.1c0-0.1,0.2-0.3,0.1-0.4c-0.1-0.2-0.1-1.1-0.1-1.1c-0.2,0-0.2,0.1-0.2,0.3
		c-1.5-1.1-3.1-2.2-4.6-3.3c-1-0.7-1.9-1.4-2.9-2.1c-0.2-0.2-0.4-0.3-0.7-0.5c-0.3-0.2,0.4-0.9-0.5-1.1c0.6-0.4,0.1-1-0.3-1.3
		c-0.3-0.2-0.6-0.5-0.9-0.7C50.9,7.6,50.9,7.6,51,7.1C51.3,7,51,7.2,51,7.1z M52.1,9.9c-3.1,0.6-6.2,1-9.3,1.6
		c0.1-0.3-0.2-0.2,0.2-0.4c0.4-0.1,0.7-0.3,1.1-0.4c1.2-0.5,2.4-0.9,3.6-1.4c1-0.4,2-0.8,3-1.2C51.5,7.8,53.1,9.6,52.1,9.9z
		 M50.7,7.4c-0.1,0.2-0.1,0.4,0.1,0.5c-2.7,1.1-5.4,2.1-8.1,3.2c-0.2-0.7,0-0.6,0.7-0.8c1-0.4,1.9-0.7,2.9-1.1
		C47.8,8.5,49.3,7.9,50.7,7.4z M41.5,10.8c0.2,0,0.8-0.3,0.9-0.1c0.1,0.2,0.1,0.6,0.3,0.8c-0.3,0.1-0.7,0.1-1,0.2
		C41.6,11.4,41.6,11.1,41.5,10.8C41.6,10.8,41.5,10.9,41.5,10.8z M38.3,21.7c0.4-2.4,0.9-4.8,1.4-7.2c0.5-2.7,2.6-2.7,4.8-3.2
		c1.6-0.3,3.2-0.6,4.8-0.9c0.8-0.1,1.5-0.3,2.3-0.4c1.3-0.2,1.4,0.7,0.4,1.3c-0.8,0.4-1.9,0.4-2.7,0.7c-1.8,0.5-3.5,1-5.3,1.5
		c-2.4,0.6-2.6,2.2-3.2,4.3c-0.8,2.4-1.5,4.8-2.3,7.2c-0.1-0.2-0.3-0.3-0.5-0.2C38,23.7,38.2,22.7,38.3,21.7z M37.9,24.9
		c0.6,0,0.6,1,0,1C37.3,25.9,37.3,24.9,37.9,24.9z M36.4,25c0.2-0.2,0.8-0.1,1.1-0.1c-0.3,0.3-0.1,0.5-0.1,0.9c-0.6,0-1.2,0-1.8-0.1
		c0.6-0.1,0.1-0.5-0.2-0.7C35.6,25.1,36.2,25.2,36.4,25z M36.2,24.8c0-0.1-1.1,0.4-1.1-0.2C35.3,24.3,36.2,24.7,36.2,24.8
		C36.2,24.8,36.2,24.7,36.2,24.8z M35.1,22.6c0.1,0.3,0.2,0.6,0.2,0.9c0.1,0.5,0.3,0.8-0.2,1c0-0.5,0-1-0.2-1.5
		c-0.2-0.5-1-0.5-1.4-0.5C33.9,22.2,35,22.3,35.1,22.6C35.3,22.8,35.1,22.5,35.1,22.6z M33.4,22.2c-0.1,0.1-0.3,0.1-0.5,0.1
		c0,0,0-0.1,0-0.1C33.1,22.3,33.3,22.2,33.4,22.2z M33.6,21.5c0.1-0.2,0.3-0.2,0.4-0.1C33.9,21.4,33.8,21.5,33.6,21.5z M34.5,20.1
		c0.8,0,0.7,1.2,0,1.2C33.7,21.3,33.7,20.1,34.5,20.1z M32.6,20.8c-0.3,0.1-0.4-1-0.7-0.9c-0.1,0.1,0.4,1.2,0.5,1.1
		c0.2,0.1,1.1-0.2,1.3-0.3c0,0.5,0.1,0.3-0.3,0.7c-0.3,0.2-0.4,0.3-0.7,0.4c-0.3,0-0.9,0-1-0.3c-0.1-0.2-0.3-1.3-0.4-1.3
		c-0.3,0,0.2,1.3,0.3,1.5c0.2,0.2,0.9,0.3,1.2,0.3c0,0.1,0,0.7-0.1,0.7c-0.2,0-0.9-0.2-1.1-0.1c-0.3-0.2-0.5-0.4-0.8-0.5
		c-0.4-0.2-0.2-0.3-0.1-0.7c0.2-0.6,0.4-1.2,0.6-1.8c0.1,0.3,0.6,0.1,0.8,0.1C32.5,19.6,32.5,20.4,32.6,20.8z M27.8,20.7
		c-0.2-0.5-0.8-4.8-0.4-4.8c1.3-0.1,2.5-0.1,3.8-0.2c-1.1,0.2-1.6,1.2-1.6,2.2c0,0.7,0.9,1.4,1.6,1.6c-0.3,0.7-0.8,1.7-0.8,2.4
		c-0.8-0.3-1.7-0.3-2.5-0.4C27.8,21.4,27.8,21,27.8,20.7C27.3,19.4,27.8,20.8,27.8,20.7z M30.7,17.7c0-0.1,0-0.1,0.2-0.1
		c0.2,0.6,0.3,1.3,0.5,2C31.3,19.6,30.8,18,30.7,17.7z M31.2,19.4c-0.1,0-0.2-0.1-0.2-0.1c0,0,0.1-0.1,0.1-0.1
		C31.1,19.2,31.1,19.3,31.2,19.4z M31,18.9c-0.2-0.1-0.8-0.8-0.3-0.8C30.8,18.2,30.9,18.7,31,18.9z M33.5,18.3
		C33.5,18.3,33.5,18.3,33.5,18.3C33.5,18.3,33.5,18.3,33.5,18.3z M33.4,18c0,0.1,0.2,0.1,0.2,0.1c0,0.1-0.2,0-0.3,0.1
		c-0.1,0.1-0.1,0.5-0.2,0.6c0-0.1-0.6-0.4-0.7-0.3C32.4,18.7,33,19,33.1,19c-0.2,0.3-1.4,0.9-1.5,0.4c-0.1-0.6-0.2-1.2-0.4-1.8
		c0.7-0.2,1.3-0.4,2-0.5C33.3,17.2,33.4,17.8,33.4,18z M33.2,16.9c-1.2,0.3-2.4,0.5-3.6,1C29.7,15.7,32,15.2,33.2,16.9
		C32.7,17,32.9,16.4,33.2,16.9z M25.9,14.7c0.3-0.4,1.3-0.4,1.8-0.4c0.9-0.1,1.8-0.1,2.7-0.1c0.8,0,4.3-0.3,4.6,0.9
		c-3.1-0.2-6.1,0-9.2,0.1C25.8,15,25.8,14.8,25.9,14.7C25.9,14.6,25.8,14.9,25.9,14.7z M25.7,16.5c0-0.3-0.2-1.1,0.2-1.2
		c0.3,0,0.6,0,0.9,0c1.1,0,2.1-0.1,3.2-0.1c1.6-0.1,3-0.1,4.6,0c-2.2,0.2-4.4,0.4-6.7,0.5c-0.1,0-1,0-1,0.1c0,0.5,0,1,0,1.5
		c0.1,1.4,0.5,2.8,0.5,4.3c-0.3,0-0.6,0-0.9,0c0-0.6-0.1-0.8-0.3-1.3C25.9,19.1,25.7,17.8,25.7,16.5z M25.7,21.8
		c1.7-0.1,3.8-0.2,5.3,0.7c1,0.6,1.8,1.6,2,2.8c0.1,0.3,0.3,0.8-0.1,0.9c-0.3,0.1-0.7,0.3-1,0.3c-2,0-4,0.1-6-0.2
		c-0.3,0-0.6-0.1-0.9-0.2c-0.2-0.1-0.1-0.8,0-1C25,24,25.1,22.7,25.7,21.8C26.1,21.8,25,22.9,25.7,21.8z M24.6,26.4
		c0.4-0.2,0.6,0,1,0.1c0.6,0.1,1.2,0.2,1.8,0.2c1.3,0.1,2.5,0.1,3.8,0.1c0.8,0,1.2-0.1,1.9-0.4c0.7-0.2,1.7,0,2.4,0
		c-0.7,0.2-1.4,0.5-2.1,0.5c-1.5,0-2.9,0-4.4,0c-1.3,0-2.6-0.1-3.8-0.3c0,0-0.9-0.1-0.5,0c0.4,0.2,1,0.3,1.5,0.3
		c1.7,0.2,3.3,0.2,5,0.2c0.9,0,1.9,0,2.8-0.1c0.6,0,1.4-0.4,2-0.6c0,0.3,0.1,0.4-0.1,0.6c-0.2,0.2-0.3,0.2-0.3,0.5
		c0,0.7,0.2,1.4-0.6,1.6c-1.2,0.4-2.7,0.2-4,0.2c-1.7-0.1-3.4-0.1-5.1-0.3C24.2,28.9,24.6,27.8,24.6,26.4
		C24.6,26.3,24.6,26.5,24.6,26.4z M24.4,28.6c0.1,0,0.3,0.3,0.4,0.3c0.3,0.2,0.6,0.3,1,0.3c0.5,0,0.2,0.4,0.3,0.8
		c-1.4,0-3.4,0.3-4.4-0.8C22.6,29,23.5,28.8,24.4,28.6z M24.4,27.5c0,0.4,0.2,0.9-0.2,1c-0.7,0.2-1.5,0.3-2.2,0.5
		c-0.7,0.1-1.4,0.3-2.1,0.4c-0.4,0.1-0.8-0.6-1.1-0.8C20.6,28.2,22.5,27.8,24.4,27.5z M18.9,31.3c-0.4-0.1-0.8-0.2-1.1-0.3
		c0.7-0.4,0.7-1.4,0.8-2.2c0.2,0.2,1,0.7,0.9,1C19.2,30.2,19.1,30.8,18.9,31.3C18.7,31.2,19,30.9,18.9,31.3z M19.1,31.3
		c0.1-0.4,0.3-1.4,0.6-1.6c0.3-0.3,1.4-0.3,1.8-0.4c0,0.4,0,0.9,0,1.3C21.5,30.7,19.4,31.2,19.1,31.3z M20.6,32.4
		c0-1.2,0.7-1.6,1.7-1.6c1.2,0,2.3,0.1,3.5,0.1c3.1,0.1,6.2,0.2,9.2,0.3c1.7,0.1,4.7-0.2,4.2,2.5c-0.2,1.1-1.2,1.2-2.1,1.1
		c-1.2-0.1-2.4-0.1-3.6-0.2c-3-0.1-5.9-0.3-8.9-0.4C23.2,34.3,20.6,34.7,20.6,32.4C20.6,31.8,20.6,32.5,20.6,32.4z M65.1,33.1
		c-0.2,0.5-0.9,0.7-0.8,1.4c0.1,0.5,0.6,0.8,0.4,1.3c-0.2,0.6-1.7,1.9-2.4,1.9c-0.5,0.1-1-0.3-1.5-0.4c-0.6-0.2-1-0.1-1.6,0.1
		c-1.3,0.5-2.4-0.2-3.7,0c-0.7,0.1-1.4,0.2-2,0c-0.6-0.2-1-0.4-1.7-0.2c-1.2,0.2-2.3-0.1-3.5-0.1c-0.7,0-1.3,0.2-2,0.3
		c-0.6,0.1-1.2,0-1.9,0c-1.1,0.1-2.1,0.2-3.2,0.1c-2.5-0.1-4.8-0.8-7.3-0.4c-1.5,0.2-2.8-0.2-4.2-0.1c-1,0-1.9,0.2-2.9,0.1
		c-1.4-0.1-2.7,0.3-4.1,0c-1.1-0.2-2.1-0.1-3.2,0c-0.5,0-1-0.3-1.6-0.3c-0.6,0-1.1,0.3-1.7,0.4c-0.8,0.1-1.7-0.2-2.5-0.3
		c-0.7-0.1-2.1,0-2.4-0.9c-0.1-0.3,0-0.7,0-1.1c0-0.5-0.1-1,0.1-1.5c0.2-0.4,0.4-0.3,0.7-0.2c0.5,0.1,0.8-0.5,0.9-0.9
		c0.2-0.5,0.2-1.2,0.6-1.6c0.3-0.3,1-0.4,1.3,0c0.1,0.2,0,2.1,0.2,2c0.3,0.1,0.7-0.5,1,0c0.1,0.1,0.1,0.6,0.3,0.3
		c0.3-0.4,1-1.4,1-0.3c0,0.9,0.9-0.3,1.1-0.3c0.6-0.1,1.2,0.3,1.7,0.1c0,2.2,2.5,1.9,4,2c3,0.1,5.9,0.3,8.9,0.4
		c1.2,0.1,2.4,0.1,3.6,0.2c0.8,0,1.6,0.1,2.4-0.2c0.3-0.1,0.6-0.5,0.9-0.6c0.4-0.1,0.8-0.1,1,0.3c0.1,0.1,0.6-0.2,0.8-0.1
		c0.4,0.2,0.5,0.1,1,0.1c0.5,0,1,0.1,1.5,0.1c0.3,0,0.4-0.1,0.7,0c0.3,0.1,0.5-0.3,0.3-0.3c-0.2,0,0,0.2-0.2,0.2
		c-0.1,0-0.2-0.1-0.2-0.1c-0.3-0.1-0.5,0.1-0.8,0c-0.4-0.1-0.6,0.2-1,0.1c-0.4-0.1-0.5,0.1-0.9,0c-0.4-0.1-0.4-0.3-0.8-0.2
		c-0.5,0.2-0.8-0.3-1.4-0.1c0.1-0.2,0.1-0.8,0.3-0.8c0.2,0,0.3,0,0.5-0.1c0.9-0.2,1.2-1.1,1.2-1.9c0-0.5-0.1-1-0.3-1.4
		c-0.2-0.3,0.5-0.7,0.8-0.8c0.5-0.2,0.5,0.7,1.2,0.3c0.5-0.3,0.6,0.1,1,0.2c0.4,0.2,0.5-0.2,0.9-0.2c0.1,0,0.8,0.4,0.9,0.4
		c0.1,0.1,0.1,0.3,0.3,0.4c0.2,0,0.5-0.2,0.6-0.4c0.3-0.3,0.8-1.1,1.4-0.7c0.7,0.5,0.7,0.4,1.5,0.1c0.4-0.2,0.9-0.1,1.1,0.4
		c0.1,0.4,0.7,0.1,0.9,0.1c0.4-0.1,0.8,0.5,1,0.8c0.7,1.2-0.8,1.2-0.8,2.2c0,0.4,0.1,1,0.4,1.1c0.3,0.2,0.5-0.2,0.7-0.3
		c0.1-0.1,0.3-0.3,0.5-0.2c0.3,0.1,0,0.3,0.2,0.4c0.5,0.3,0.7,0.2,1.1,0.7c0.4,0.5,2,0.2,2.6,0.1c0.3-0.1,0-0.3-0.1-0.5
		c-0.3-0.4,0-1,0.4-1.2c0.2-0.1,0.5-0.2,0.7-0.1c0.2,0.1,0,0.3,0.3,0.4c0.5,0,0.3-0.8,0.9-0.8c0.1,0,0.4,0.2,0.5,0.1
		c0.2-0.2,0.5-0.4,0.7-0.5c0.4-0.2,0.6-0.3,0.9,0.1C63,32.6,65.4,32.1,65.1,33.1z"/>
	<path fill="#040000" d="M16.2,33.6c-0.4,0.1-0.9,0.6-1.4,0.4c-0.3-0.1-0.8-0.5-1.1-0.1c-0.2-0.5-0.3-0.6-0.8-0.6
		c-0.4,0.1,0.5,0.3,0.5,0.3c0,0.1,0.2,0.7,0.4,0.5c0.2-0.3,0.5-0.2,0.7-0.1c0.3,0.2,0.6,0.2,1,0.1C15.6,34,16.5,33.5,16.2,33.6
		C16,33.6,16.2,33.6,16.2,33.6z"/>
	<path fill="#040000" d="M27.9,35.2c-0.6-0.1-0.9,0.1-1.5-0.2c-0.4-0.2-0.5,0.2-0.8,0.1c-0.1,0-0.3,0.1-0.5,0
		c-0.2,0-0.3-0.3-0.5-0.3c-0.2,0-0.4,0.3-0.5,0.1c-0.3-0.5-1.8-0.2-2.2-0.1c-0.2,0.1-0.3-0.2-0.4-0.2c-0.3-0.2-0.6,0.3-0.9,0
		c-0.1-0.1-1.1-0.2-1,0.1c0.1,0.2,0.2,0,0.3,0c0.5-0.2,0.4,0.1,0.8,0.2c0.2,0,0.4-0.2,0.6-0.2c0.3,0,0.4,0.4,0.7,0.3
		c0.4-0.1,0.7,0,1.1-0.1c0.3-0.1,0.6-0.2,0.8,0c0.2,0.1,0.2,0.5,0.6,0.2c0.3-0.2,0.5,0.2,0.8,0.2c0.2,0,0.3,0,0.5,0
		c0.1,0,0.2,0,0.3-0.1c0.2-0.2,0.4,0,0.6,0.1c0.3,0.1,0.5,0.1,0.8,0.1C27.4,35.4,28.2,35.2,27.9,35.2C27.7,35.1,27.9,35.2,27.9,35.2
		z"/>
	<path fill="#040000" d="M49,35.3c-0.3,0.2-0.7-0.2-1.1,0.1c-0.1,0.1-0.2,0.2-0.4,0.2c-0.3,0.2-0.2-0.1-0.4-0.2
		c-0.3-0.1-0.7,0.4-1.1,0.4c-0.1,0-1.4,0-1.1,0.3c0,0,1-0.1,1.1-0.1c0.3,0,0.8-0.4,1-0.4c0.4,0.1,0.2,0.4,0.8,0
		c0.2-0.1,1.3-0.3,1.3-0.3C49.1,35.3,49.1,35.3,49,35.3C48.9,35.3,49.1,35.3,49,35.3z"/>
	<path fill="#040000" d="M52.2,33.3c-0.4,0.2-1,0.1-1-0.3c0-0.5-0.9,0.1-1.1-0.1c0.2-0.1-0.3-0.5-0.4-0.5c-0.5-0.1-0.3,0-0.3-0.5
		c0-0.4-0.6-0.4-0.7-0.7c-0.2-0.6-0.5-0.5-1-0.4c-0.3,0-0.4-0.4-0.7-0.2c-0.3,0.2-0.6,0.3-0.7-0.2c-0.1-0.3-0.8,0.3-0.9,0.3
		c-0.1,0.1-0.4,0.6-0.1,0.3c0.3-0.2,0.5-0.5,0.9-0.5c0.2,0.7,0.6,0.2,1,0.2c0.3,0,0.4,0.4,0.8,0.2c0.6-0.2,0.5,0.4,0.8,0.7
		c0.3,0.3,0.5,0.1,0.4,0.5c-0.1,0.5,0.2,0.5,0.5,0.5c0.4,0.1,0.1,0.5,0.4,0.5c0.2,0,0.9-0.2,1-0.1c-0.2,0.3,0.2,0.4,0.4,0.6
		c0.2,0.1,0.4,0.1,0.7,0C52.1,33.5,52.4,33.2,52.2,33.3z"/>
	<path fill="#040000" d="M62.4,33.2c-0.8-0.4-1.2,0.1-1.7,0.6c-0.3,0.4-0.5,0-0.9,0c-0.5,0-0.6,0.4-0.5,0.8c0,0.4,0,0.4-0.3,0.6
		c-0.6,0.3-0.3,0.5-0.2,1c0.1,0.4-0.4,0.3-0.6,0.2c-0.5-0.1-0.9,0.1-1.3,0.1c0-0.5-0.4-0.7-0.9-0.6c0.4-0.7-0.8-0.5-1.1-0.4
		c0-1.2-1.4,0-1.3,0.1c0.1,0,0.6-0.4,0.7-0.4c0.4-0.1,0.2,0.3,0.4,0.5c0.2,0.2,1.2-0.3,1.2,0c0,0.1-0.3,0.5-0.1,0.4
		c0.3,0,0.7-0.1,0.8,0.3c0.1,0.4-0.1,0.4,0.4,0.3c0.4-0.1,0.7-0.1,1.1-0.1c0.3,0.1,0.6,0.2,0.7-0.2c0.2-0.3-0.4-0.7,0-0.9
		c0.6-0.4,0.5-0.4,0.5-1.1c0-0.3,0.4-0.4,0.7-0.2c0.4,0.2,0.6,0,0.9-0.3c0.2-0.3,0.4-0.4,0.7-0.4C61.7,33.2,62.6,33.3,62.4,33.2
		C62.2,33.1,62.4,33.2,62.4,33.2z"/>
	<path fill="#040000" d="M52.7,32.1c0-0.1-0.4,0-0.5,0c0.1-0.2-0.2-0.5-0.4-0.6c0.3-0.4,0.4-0.7-0.1-0.9C50.9,30.1,52,31,52,31.1
		c0.1,0.6-0.6,0.2-0.1,0.8C52.1,32,52,32,52,32.2C52.1,32.5,52.8,32.3,52.7,32.1C52.6,32.1,52.7,32.2,52.7,32.1z"/>
</g>
<path fill="#D3D3D4" d="M26.5,69.4c9.2,0,18.4,0,27.7,0c0.3,0,0.2,0.9,0.2,1.2c0,1.5,0,3,0,4.5c0,1.3,0,2.7,0,4
	c0,0.5,0.1,0.5-0.4,0.5c-5.2,0-10.4,0-15.6,0c-3.9,0-7.8,0-11.7,0c-0.3,0-0.2-0.4-0.2-0.7c0-1.1,0-2.3,0-3.4
	C26.5,73.4,26.5,71.4,26.5,69.4z"/>
<path fill="#D3D3D4" d="M29.3,56.6c4.9,0,9.7,0,14.6,0c2.1,0,4.2,0,6.2,0c0.4,0,0.2,1.6,0.2,1.9c0,1.4,0,2.8,0,4.2
	c0,0.4-0.6,0.2-0.9,0.2c-1.1,0-2.1,0-3.2,0c-3.2,0-6.3,0-9.5,0c-2.3,0-4.6,0-6.9,0c-0.7,0-0.4-0.4-0.4-1c0-1.5,0-3,0-4.5
	C29.3,57.1,29.3,56.8,29.3,56.6z"/>
<path fill="#FFFFFF" d="M42.8,72.1c1.8,0,3.5,0,5.3,0c0.8,0,0.6,0.1,0.6,0.9c0,0.6,0,1.1,0,1.7c0,0.1,0.1,0.8,0,0.9
	c-0.3,0.2-1.8,0-2.1,0c-1.1,0-2.2,0-3.2,0c-0.8,0-0.6-0.1-0.6-0.9C42.8,73.8,42.8,72.9,42.8,72.1z"/>
<path fill="#9FA0A0" d="M26.9,62.9c-1.5,2.3-3.1,4.5-4.6,6.8c10,0,19.9,0,29.9,0c1.9,0,3.9,0,5.8,0c-1.3-2.1-2.7-4.1-4-6.2
	c-0.3-0.4-0.3-0.6-0.7-0.6c-0.8,0-1.5,0-2.3,0c-6,0-12,0-18,0C30.9,62.9,28.9,62.9,26.9,62.9z"/>
<path fill="#9FA0A0" d="M40.2,46.9c-2,1.6-4,3.2-6,4.8c-1.4,1.1-2.8,2.2-4.2,3.3c-0.1,0.1-1.9,1.4-1.9,1.5c0,0.1,1,0,1.1,0
	c0.9,0,1.8,0,2.8,0c2.8,0,5.6,0,8.4,0c4.1,0,8.1,0,12.2,0C48.4,53.4,44.3,50.1,40.2,46.9z"/>
<path fill="#FFFFFF" d="M43.4,59.5c1.3,0,2.5,0,3.8,0c-0.1,0,0.3,3.1,0.1,3.3c-0.1,0.2-1.4,0-1.6,0c-0.7,0-1.4,0-2.2,0
	C43.3,62.8,43.4,59.8,43.4,59.5z"/>
<path fill="#B5B5B6" d="M32.4,71.5c1.1,0,2.2,0,3.4,0c0.1,0,0.9,0,0.9,0c0,0.4,0,0.7,0,1.1c0,1.4,0,2.8,0,4.2c0,0.6,0,1.3,0,1.9
	c0,0.1,0.1,0.7,0,0.8c-0.1,0.1-0.9,0-1.1,0c-0.7,0-1.5,0-2.2,0c-0.1,0-0.9,0-0.9,0c0-0.4,0-0.7,0-1.1C32.4,76.2,32.4,73.8,32.4,71.5
	z"/>
<g>
	<path fill="#040000" d="M49.4,71.4c-2.2,0-4.3,0-6.5,0c-0.1,0-0.6-0.1-0.6,0c0,0.5,0,1,0,1.5c0,1.2,0,2.3,0,3.5c0,0,6,0,6.6,0
		c0.1,0,0.4,0.1,0.4-0.1c0-0.5,0-1.1,0-1.6C49.4,73.6,49.4,72.5,49.4,71.4z M48.2,75.2c-1.1,0-2.2,0-3.3,0c-0.4,0-1.3,0.2-1.3-0.2
		c0-0.8,0-1.5,0-2.3c1.1,0,2.2,0,3.3,0c0.4,0,1.3-0.2,1.3,0.2C48.2,73.6,48.2,74.4,48.2,75.2C47.3,75.2,48.2,74.5,48.2,75.2z"/>
	<path fill="#040000" d="M54.4,62.8c-0.3-0.5-0.4-0.5-0.9-0.5c-0.7,0-1.4,0-2.1,0c-0.4,0-0.7,0.2-0.7-0.2c0-0.6,0-1.3,0-1.9
		c0-0.3-0.1-2.9,0.1-2.9c1.2,0,2.4,0,3.5,0c-3.9-3-7.9-6.1-11.8-9.1c-0.7-0.6-1.4-1.1-2.1-1.7c-0.4-0.3-0.6,0.1-0.9,0.3
		c-2,1.5-3.9,3-5.9,4.5c-2.6,2-5.2,4-7.8,5.9c0.9,0,1.8,0,2.8,0c0.5,0,0.2,1.3,0.2,1.7c0,1,0,2.1,0,3.1c0,0.3-1.8,0.2-2.2,0.2
		c-0.5,0-0.6,0.5-0.9,0.9c-0.6,0.9-1.2,1.8-1.8,2.7c-0.9,1.4-1.9,2.9-2.8,4.3c1.2,0,2.5,0,3.7,0c0.1,0,1.1,0,1.1,0
		c0,0.3,0,0.6,0,0.9c0,2.8,0,5.7,0,8.5c0,0.4-0.2,0.9,0.2,0.9c0.6,0,1.3,0,1.9,0c2.6,0,5.2,0,7.9,0c5.8,0,11.5,0,17.3,0
		c0.5,0,1.1,0,1.6,0c0.2,0,0.1-1.2,0.1-1.4c0-2.8,0-5.6,0-8.4c0-0.7,0.3-0.5,1-0.5c1,0,2.1,0,3.1,0c-0.9-1.4-1.8-2.8-2.6-4.2
		 M40.2,47.9c3.5,2.7,7.1,5.4,10.6,8.1c-7.1,0-14.2,0-21.2,0C33.1,53.3,36.7,50.6,40.2,47.9C40.8,48.4,39.6,48.4,40.2,47.9z
		 M30.1,57.3c5,0,9.9,0,14.9,0c1.2,0,2.3,0,3.5,0c0.3,0,1.1-0.2,1.1,0.2c0,1.4,0,2.8,0,4.2c0,0.3,0.2,0.7-0.2,0.7
		c-0.2,0-1.4,0.1-1.4-0.1c0-0.6,0-1.3-0.1-1.9c0-0.2,0.1-1.4,0-1.6c-0.1-0.1-0.9,0-1.1,0c-0.8,0-1.5,0-2.3,0c-0.6,0-1.1,0-1.7,0
		c-0.2,0-0.1,0.9-0.1,1.1c0,0.4,0.3,2.6-0.2,2.6c-2.7,0-5.3,0-8,0c-1.2,0-2.5,0-3.7,0c-0.1,0-0.5,0.1-0.6,0c-0.1-0.1,0-1.2,0-1.4
		C30.1,59.7,30.1,58.5,30.1,57.3z M46.7,62.3c-0.5,0-1.1,0-1.6,0c-0.3,0-0.6,0-1,0c-0.4,0-0.2-0.4-0.2-0.7c0-0.5,0-1.1,0-1.6
		c0.7,0,1.3,0,2,0c0.7,0,0.8-0.1,0.8,0.7C46.7,61.2,46.7,61.7,46.7,62.3z M36.3,79.2c-0.6,0-1.3,0-1.9,0c-0.4,0-1.4,0.2-1.4-0.2
		c0-0.8,0-1.6,0-2.4c0-0.9,0-1.7,0-2.6c0-0.3-0.2-1.7,0.2-1.7c0.9,0,1.9,0,2.8,0c0.5,0,0.4,0,0.4,0.4c0,0.4,0,0.7,0,1.1
		C36.3,75.7,36.3,77.4,36.3,79.2C35.1,79.2,36.3,77.5,36.3,79.2z M53.7,79.2c-3.9,0-7.8,0-11.7,0c-1.4,0-2.8,0-4.2,0
		c-0.5,0-0.3-0.3-0.3-0.8c0-1.5,0-3,0-4.4c0-0.7,0-1.3,0-2c0-0.1,0.1-0.8,0-0.9c-0.1-0.1-0.9,0-1,0c-0.7,0-1.5,0-2.2,0
		c-0.3,0-2.6-0.2-2.6,0.2c0,1.2,0,2.5,0,3.7c0,1.3,0,2.7,0,4c0,0.7-1.3,0.3-1.8,0.3c-0.9,0-1.8,0-2.6,0c-0.1,0,0-9,0-9
		c4.6,0,9.3,0,13.9,0c3.8,0,7.5,0,11.3,0c0.4,0,0.7,0,1.1,0c0.4,0,0.2,1.4,0.2,1.7C53.7,74.3,53.7,76.8,53.7,79.2
		C53,79.2,53.7,78.3,53.7,79.2z M23.5,69c1-1.5,2-3.1,3.1-4.6c0.5-0.7,0.5-0.8,1.3-0.8c2.3,0,4.7,0,7,0c5.8,0,11.7,0,17.5,0
		c0.8,0,1-0.1,1.4,0.5c1,1.6,2,3.3,3,4.9c-10.7,0-21.4,0-32.1,0C24.3,69,23.9,69,23.5,69C24.4,67.6,25.6,69,23.5,69z M55.7,64.8
		l-0.6-1"/>
</g>
<path fill="#898989" stroke="#000000" stroke-width="4" stroke-miterlimit="10" d="M60.5,41.2c4.8,0,9.7,0,14.5,0c2.3,0,4.6,0,6.8,0
	c0.3,0,0.4-0.1,0.4,0.2c0,0.5,0,1,0,1.5c0,11.2,0,22.4,0,33.6c0,1.2,0,2.5,0,3.7c0,0.1-3.6,0-3.9,0c-5.7,0-11.3,0-17,0
	c-0.1,0-0.8,0.1-0.8,0c0-0.4,0-0.8,0-1.2c0-2,0-4.1,0-6.1c0-6.3,0-12.6,0-19C60.5,49.7,60.5,45.4,60.5,41.2z"/>
<path fill="#FFFFFF" stroke="#000000" stroke-width="4" stroke-miterlimit="10" d="M62.3,43.3c0.9,0,1.8,0,2.7,0c0.4,0,2-0.2,2,0.2
	c0,1.1,0,2.2,0,3.3c0,0.6,0,1.2,0,1.8c0,0.1,0.1,0.8,0,0.9c-0.1,0.1-0.8,0-0.9,0c-0.6,0-1.2,0-1.9,0c-0.4,0-2,0.2-2-0.2
	C62.3,47.2,62.3,45.3,62.3,43.3z"/>
<path fill="#FFFFFF" stroke="#000000" stroke-width="4" stroke-miterlimit="10" d="M68.9,43.3c0.9,0,1.8,0,2.7,0c0.4,0,2-0.2,2,0.2
	c0,1.1,0,2.2,0,3.3c0,0.6,0,1.2,0,1.8c0,0.1,0.1,0.8,0,0.9c-0.1,0.1-0.8,0-0.9,0c-0.6,0-1.2,0-1.9,0c-0.4,0-2,0.2-2-0.2
	C68.9,47.2,68.9,45.3,68.9,43.3z"/>
<path fill="#FFFFFF" stroke="#000000" stroke-width="4" stroke-miterlimit="10" d="M75.5,43.3c0.9,0,1.8,0,2.7,0c0.4,0,2-0.2,2,0.2
	c0,1.1,0,2.2,0,3.3c0,0.6,0,1.2,0,1.8c0,0.1,0.1,0.8,0,0.9c-0.1,0.1-0.8,0-0.9,0c-0.6,0-1.2,0-1.9,0c-0.4,0-2,0.2-2-0.2
	C75.5,47.2,75.5,45.3,75.5,43.3z"/>
<path fill="#FFFFFF" stroke="#000000" stroke-width="4" stroke-miterlimit="10" d="M62.3,52.9c0.9,0,1.8,0,2.7,0c0.4,0,2-0.2,2,0.2
	c0,1.1,0,2.2,0,3.3c0,0.6,0,1.2,0,1.8c0,0.1,0.1,0.8,0,0.9c-0.1,0.1-0.8,0-0.9,0c-0.6,0-1.2,0-1.9,0c-0.4,0-2,0.2-2-0.2
	C62.3,56.8,62.3,54.9,62.3,52.9z"/>
<path fill="#FFFFFF" stroke="#000000" stroke-width="4" stroke-miterlimit="10" d="M68.9,52.9c0.9,0,1.8,0,2.7,0c0.4,0,2-0.2,2,0.2
	c0,1.1,0,2.2,0,3.3c0,0.6,0,1.2,0,1.8c0,0.1,0.1,0.8,0,0.9c-0.1,0.1-0.8,0-0.9,0c-0.6,0-1.2,0-1.9,0c-0.4,0-2,0.2-2-0.2
	C68.9,56.8,68.9,54.9,68.9,52.9z"/>
<path fill="#FFFFFF" stroke="#000000" stroke-width="4" stroke-miterlimit="10" d="M75.5,52.9c0.9,0,1.8,0,2.7,0c0.4,0,2-0.2,2,0.2
	c0,1.1,0,2.2,0,3.3c0,0.6,0,1.2,0,1.8c0,0.1,0.1,0.8,0,0.9c-0.1,0.1-0.8,0-0.9,0c-0.6,0-1.2,0-1.9,0c-0.4,0-2,0.2-2-0.2
	C75.5,56.8,75.5,54.9,75.5,52.9z"/>
<path fill="#FFFFFF" stroke="#000000" stroke-width="4" stroke-miterlimit="10" d="M62.3,62.1c0.9,0,1.8,0,2.7,0c0.4,0,2-0.2,2,0.2
	c0,1.1,0,2.2,0,3.3c0,0.6,0,1.2,0,1.8c0,0.1,0.1,0.8,0,0.9c-0.1,0.1-0.8,0-0.9,0c-0.6,0-1.2,0-1.9,0c-0.4,0-2,0.2-2-0.2
	C62.3,66.1,62.3,64.1,62.3,62.1z"/>
<path fill="#FFFFFF" stroke="#000000" stroke-width="4" stroke-miterlimit="10" d="M68.9,62.1c0.9,0,1.8,0,2.7,0c0.4,0,2-0.2,2,0.2
	c0,1.1,0,2.2,0,3.3c0,0.6,0,1.2,0,1.8c0,0.1,0.1,0.8,0,0.9c-0.1,0.1-0.8,0-0.9,0c-0.6,0-1.2,0-1.9,0c-0.4,0-2,0.2-2-0.2
	C68.9,66.1,68.9,64.1,68.9,62.1z"/>
<path fill="#FFFFFF" stroke="#000000" stroke-width="4" stroke-miterlimit="10" d="M75.5,62.1c0.9,0,1.8,0,2.7,0c0.4,0,2-0.2,2,0.2
	c0,1.1,0,2.2,0,3.3c0,0.6,0,1.2,0,1.8c0,0.1,0.1,0.8,0,0.9c-0.1,0.1-0.8,0-0.9,0c-0.6,0-1.2,0-1.9,0c-0.4,0-2,0.2-2-0.2
	C75.5,66.1,75.5,64.1,75.5,62.1z"/>
<path fill="#FFFFFF" stroke="#000000" stroke-width="4" stroke-miterlimit="10" d="M62.3,71.7c0.9,0,1.8,0,2.7,0c0.4,0,2-0.2,2,0.2
	c0,1.1,0,2.2,0,3.3c0,0.6,0,1.2,0,1.8c0,0.1,0.1,0.8,0,0.9c-0.1,0.1-0.8,0-0.9,0c-0.6,0-1.2,0-1.9,0c-0.4,0-2,0.2-2-0.2
	C62.3,75.6,62.3,73.7,62.3,71.7z"/>
<path fill="#FFFFFF" stroke="#000000" stroke-width="4" stroke-miterlimit="10" d="M68.9,71.7c0.9,0,1.8,0,2.7,0c0.4,0,2-0.2,2,0.2
	c0,1.1,0,2.2,0,3.3c0,0.6,0,1.2,0,1.8c0,0.1,0.1,0.8,0,0.9c-0.1,0.1-0.8,0-0.9,0c-0.6,0-1.2,0-1.9,0c-0.4,0-2,0.2-2-0.2
	C68.9,75.6,68.9,73.7,68.9,71.7z"/>
<path fill="#FFFFFF" stroke="#000000" stroke-width="4" stroke-miterlimit="10" d="M75.5,71.7c0.9,0,1.8,0,2.7,0c0.4,0,2-0.2,2,0.2
	c0,1.1,0,2.2,0,3.3c0,0.6,0,1.2,0,1.8c0,0.1,0.1,0.8,0,0.9c-0.1,0.1-0.8,0-0.9,0c-0.6,0-1.2,0-1.9,0c-0.4,0-2,0.2-2-0.2
	C75.5,75.6,75.5,73.7,75.5,71.7z"/>
</svg>
