<?xml version="1.0" encoding="utf-8"?>
<!-- Generator: Adobe Illustrator 17.1.0, SVG Export Plug-In . SVG Version: 6.00 Build 0)  -->
<!DOCTYPE svg PUBLIC "-//W3C//DTD SVG 1.1//EN" "http://www.w3.org/Graphics/SVG/1.1/DTD/svg11.dtd">
<svg version="1.1" id="Ebene_1" xmlns="http://www.w3.org/2000/svg" xmlns:xlink="http://www.w3.org/1999/xlink" x="0px" y="0px"
	 width="100px" height="100px" viewBox="0 0 100 100" enable-background="new 0 0 100 100" xml:space="preserve">
<circle fill="#B2B2B2" cx="50" cy="50" r="50"/>
<path d="M91.8,54c-0.7-0.4-1.1,0.3-1.3,0.8c-0.3,0.5-0.9,0.8-1.5,0.7c1.4-1.8,2.2-5.7-0.7-6.5c-3.7-1-4.4,3.9-3.2,6.3
	c-0.6,0-1.1,0-1.2-0.6c-0.1-0.4-0.2-0.8-0.3-1.2c-0.3-0.9-0.6-1.7-1-2.5c-0.7-1.6-1.6-3-2.7-4.4c-2.2-2.8-5.2-5.1-8.4-6.6
	c-8.4-4-18.2-3.7-27-1.4c-1.1,0.3-2.2,0.6-3.3,1c-0.6,0.2-1.1,0.4-1.7,0.6c-0.3,0.1-1.4,0.7-1.7,0.6c-0.9-0.3-1.9-0.6-2.8-0.8
	c2.3-1.4,1.9-4.4,0.8-6.4c-0.6,0.4-1.2,0.7-1.8,0.9c-1.1,0.5-2.2,0.5-3.3,0.7c-1.7,0.3-3.4,1.4-3.9,3.2c-0.1,0.2-0.2,2.4-0.1,2.4
	c-0.1,0-0.3,0.1-0.4,0.1c-0.7,0.2-1.3,0.4-1.9,0.6c-5.8,2.2-10.2,6.9-11.6,13c-0.3,1-0.4,2.1-0.5,3.2c0,0.1-0.1,1.4-0.1,1.4
	c-0.2,0-0.4,0-0.6,0c-0.7,0-1.5,0-2.2,0c-0.2,0-1.4-0.2-1.5,0c-0.1,0.1,0,0.6,0,0.7c0,0.6,0,1.3,0,1.9c0,1.6,0,3.2,0,4.8
	c0,0.1,0,2.4,0,2.4c1.2,0,2.4,0,3.6,0c0.3,0,2.3-0.2,2.5,0c0.3,0.5,0.6,1,1,1.4c1.9,2.3,4.4,4,7.2,5c2.2,0.8,4.5,1.1,6.8,1.1
	c0.6,0,0.6-0.1,0.7,0.4c0.1,0.5,0.2,0.9,0.2,1.4c0.5,3,1,6,1.6,9c0.1,0.4,0.1,1.8,0.4,2.1c0.2,0.2,1.2,0,1.4,0c0.7,0,1.4,0,2.1,0
	c0.3,0,0.6-9.9,0.6-11c8.1,5,19,3.5,26.7-1.4c0.4,2.4,2.4,4.2,4.5,5.1c0.4,0.1,2.2,0.5,2.3,0.7c0.1,0.5,0.1,1.1,0.2,1.6
	c0.2,1.5,0.4,2.9,0.6,4.4c0,0.1,0,0.7,0.1,0.7c0.7,0,1.3,0,2,0c0.5,0,1.1,0,1.6,0c0.1,0,0.2-0.8,0.3-0.9c0.4-1.5,0.8-2.9,1.2-4.4
	c0.1-0.5,0.2-1.2,0.5-1.6c6.1-6.5,9.5-16.1,8.3-24.9c0.9,0.1,1.7,0,2.5-0.4c0.9,0.5,1.9,0.7,2.8,0.5c0.8-0.1,1.5-0.6,2-1.2
	C92.1,55.8,92.7,54.5,91.8,54C91.3,53.7,92.2,54.2,91.8,54z M23.5,56.4c-3,0-3-5.2,0-5.2C26.4,51.1,26.4,56.4,23.5,56.4z M87.6,54
	c-0.2,0.2-0.6,0.9-0.9,0.5c-0.3-0.3-0.4-0.8-0.5-1.2c-0.1-0.7-0.1-1.8,0.6-2.2c0.4-0.2,1.3-0.2,1.5,0.3C88.6,52.2,88,53.4,87.6,54
	C87.4,54.2,88.3,53,87.6,54z"/>
<path fill="#FFFFFF" d="M45.7,41.5c4.9,0,9.8,0,14.7,0c1.9,0,3.7,0,5.6,0c0,0,0,3,0,3.3c0,0.5-0.5,0.3-1,0.3c-4.6,0-9.2,0-13.8,0
	c-1.7,0-3.5,0-5.2,0c-0.5,0-0.4,0-0.4-0.6C45.7,43.5,45.7,42.5,45.7,41.5z"/>
<path stroke="#000000" stroke-miterlimit="10" d="M56,3c9.6,0,16.3,9.3,14.9,18.5C69.5,30.6,60.2,37.2,51.2,34
	C44,31.5,39.9,23.8,41,16.4C42.2,9,48.4,3,56,3z"/>
<text transform="matrix(1.0655 0 0 1 44.1006 27.3728)" fill="#FFFFFF" font-family="'KozGoPr6N-Regular-90ms-RKSJ-H'" font-size="22.0801">￥</text>
</svg>
