<?xml version="1.0" encoding="utf-8"?>
<!-- Generator: Adobe Illustrator 17.1.0, SVG Export Plug-In . SVG Version: 6.00 Build 0)  -->
<!DOCTYPE svg PUBLIC "-//W3C//DTD SVG 1.1//EN" "http://www.w3.org/Graphics/SVG/1.1/DTD/svg11.dtd">
<svg version="1.1" id="Ebene_1" xmlns="http://www.w3.org/2000/svg" xmlns:xlink="http://www.w3.org/1999/xlink" x="0px" y="0px"
	 width="100px" height="100px" viewBox="0 0 100 100" enable-background="new 0 0 100 100" xml:space="preserve">
<circle fill="#B2B2B2" cx="50" cy="50" r="50"/>
<path fill="#C9CACA" d="M69.5,17.9c3.8,7.8,7.5,15.6,11.3,23.4c-7.2,0-14.4,0-21.6,0c0.8-4.6,1.6-9.1,2.4-13.7
	c0.5-2.7,1-5.4,1.4-8.1c0.1-0.6,0.2-1.2,0.3-1.8c0-0.2,2,0,2.3,0C67,17.8,68.3,17.9,69.5,17.9z"/>
<path fill="#EFEFEF" d="M59.7,19.3c2.4-0.1,4.8-0.2,7.2-0.4c0.4,0,1.2-0.3,1.4,0.1c0.3,0.7,0.6,1.3,0.9,2c2.4,5.4,4.8,10.7,7.3,16.1
	c0.4,0.8,0.7,1.6,1.1,2.4c-4.9,0-9.9,0-14.8,0c-0.3,0-1.5,0.2-1.7,0c-0.2-0.1-0.1-1.2-0.2-1.4c-0.3-2.8-0.6-5.6-0.9-8.4
	c-0.4-3.5-0.8-6.9-1.1-10.4"/>
<path fill="#C9CACA" d="M62.7,11.5c2.4,7.9,4.8,15.9,7.3,23.8c-7.2,0-14.4,0-21.6,0c0.8-4.6,1.6-9.1,2.4-13.7c0.5-2.7,1-5.4,1.4-8.1
	c0.1-0.6,0.2-1.2,0.3-1.8c0-0.2,1.4-0.1,1.6-0.1C56.9,11.6,59.8,11.5,62.7,11.5z"/>
<path fill="#C9CACA" d="M27.9,17.7c-3.8,7.8-7.6,15.6-11.3,23.4c7.2,0,14.4,0,21.6,0c-0.8-4.6-1.6-9.1-2.4-13.7
	c-0.5-2.7-1-5.4-1.4-8.1c-0.1-0.6-0.2-1.2-0.3-1.8c0-0.2-2,0-2.3,0C30.5,17.6,29.2,17.6,27.9,17.7z"/>
<path fill="#EFEFEF" d="M37.3,19.5c-2.4-0.1-4.8-0.2-7.2-0.4c-0.4,0-1.2-0.3-1.4,0.1c-0.3,0.7-0.6,1.3-0.9,2
	c-2.4,5.4-4.8,10.7-7.3,16.1c-0.4,0.8-0.7,1.6-1.1,2.4c4.9,0,9.9,0,14.8,0c0.3,0,1.5,0.2,1.7,0c0.2-0.1,0.1-1.2,0.2-1.4
	c0.3-2.8,0.6-5.6,0.9-8.4c0.4-3.5,0.8-6.9,1.1-10.4"/>
<path fill="#C9CACA" d="M34.6,11.6c-2.4,7.9-4.8,15.9-7.3,23.8c7.2,0,14.4,0,21.6,0c-0.8-4.6-1.6-9.1-2.4-13.7
	c-0.5-2.7-1-5.4-1.4-8.1c-0.1-0.6-0.2-1.2-0.3-1.8c0-0.2-1.4-0.1-1.6-0.1C40.3,11.7,37.4,11.7,34.6,11.6z"/>
<path fill="#EFEFEF" d="M44.4,13.9c-2.4-0.1-4.8-0.2-7.2-0.4c-0.3,0-1.4-0.3-1.5,0.1c-0.2,0.7-0.4,1.4-0.6,2.1
	c-1.5,5.6-3,11.1-4.5,16.7c-0.1,0.5-0.3,1-0.4,1.5c5.6,0,11.1,0,16.7,0c-0.5-6.7-1-13.4-1.6-20"/>
<path fill="#EFEFEF" d="M52.6,13.6c2.4-0.1,4.8-0.2,7.2-0.4c0.3,0,1.4-0.3,1.5,0.1c0.2,0.7,0.4,1.4,0.6,2.1c1.5,5.6,3,11.1,4.5,16.7
	c0.1,0.5,0.3,1,0.4,1.5c-5.6,0-11.1,0-16.7,0c0.5-6.7,1-13.4,1.6-20"/>
<path fill="#C9CACA" d="M41.8,5.3c-1.5,8-3,16-4.5,23.9c7.2,0,14.4,0,21.6,0c-0.8-4.6-1.6-9.1-2.4-13.7c-0.5-2.7-1-5.4-1.4-8.1
	c-0.1-0.6-0.2-1.2-0.3-1.8c0-0.2-1.1-0.1-1.3-0.1C49.6,5.5,45.7,5.4,41.8,5.3z"/>
<path fill="#EFEFEF" d="M52,7.4c-2.4-0.1-4.9-0.2-7.3-0.4c-0.3,0-1.4-0.3-1.5,0.1c-0.1,0.7-0.2,1.5-0.3,2.2
	C42,15,41.1,20.6,40.2,26.2c-0.1,0.4-0.1,0.8-0.2,1.2c5.6,0,11.1,0,16.7,0c-1.3-6.7-2.5-13.4-3.8-20"/>
<path fill="#C7C19D" d="M39.5,14.3c2.9,0,2.9,4.4,0,4.4C36.6,18.7,36.6,14.3,39.5,14.3z"/>
<path fill="#C7C19D" d="M31.4,20.5c2.9,0,2.9,4.4,0,4.4S28.4,20.5,31.4,20.5z"/>
<path fill="#CCCCB0" d="M37.4,29.2c4.8,0,9.6,0,14.4,0c2.3,0,4.5,0,6.8,0c0.7,0,0.4,0.4,0.4,1.1c0,1.4,0,2.9,0,4.3
	c0,0.6-0.2,0.4-0.7,0.4c-1,0-2,0-3,0c-3.1,0-6.2,0-9.4,0c-2.5,0-5.1,0-7.6,0c-0.3,0-0.9,0.2-0.9-0.2c0-1.4,0-2.8,0-4.2
	C37.4,30.2,37.4,29.7,37.4,29.2z"/>
<path fill="#CCCCB0" d="M26.8,35.3c9.7,0,19.4,0,29.1,0c4.3,0,8.7,0,13,0c0.3,0,0.5-0.1,0.5,0.2c0,1.4,0,2.8,0,4.2
	c0,0.3,0.2,1.4-0.1,1.4c-0.4,0-0.9,0-1.3,0c-11.3,0-22.6,0-33.9,0c-2.3,0-4.5,0-6.8,0c-0.7,0-0.5-0.3-0.5-1.1
	C26.8,38.4,26.8,36.9,26.8,35.3z"/>
<path fill="#CCCCB0" d="M16.2,41.6c7.9,0,15.8,0,23.7,0c11.9,0,23.8,0,35.7,0c1.5,0,3,0,4.6,0c0.4,0,0.7,0,1.1,0
	c0.4,0,0.2,0.5,0.2,0.8c0,1.5,0,2.9,0,4.4c0,0.4,0.2,0.6-0.2,0.6c-1,0-2,0-3,0c-11.2,0-22.4,0-33.6,0c-9.3,0-18.7,0-28,0
	c-0.6,0-0.5-0.1-0.5-0.8C16.2,44.9,16.2,43.3,16.2,41.6z"/>
<path fill="#FFFFFF" d="M57.1,18.3c-5.8,0-11.6,0-17.4,0c0.2-1,0.3-2,0.5-3c0.1-0.5,0.4-0.3,0.9-0.3c2.4,0,4.8,0,7.2,0
	c2.4,0,4.9,0,7.3,0c0.4,0,0.9-0.2,1,0.2C56.7,16.2,56.9,17.3,57.1,18.3z"/>
<path fill="#FFFFFF" d="M38.5,24.6c-2.5,0-5.1,0-7.6,0c0.2-1,0.3-2,0.5-3c0.1-0.6,0.9-0.3,1.5-0.3c2.1,0,4.1,0,6.2,0
	C38.8,22.4,38.7,23.5,38.5,24.6z"/>
<path d="M61.3,14.2c0.6,0.4,0.6,1.4,0.7,2c0.2,1.1,0.8,2,0.9,3.2c0.1,1.4-3.6-0.2-4.2-0.6c-1.3-0.8-2.2-1.9-1.2-3.4
	C58.2,14.3,60,13.3,61.3,14.2C61.8,14.6,59.2,12.8,61.3,14.2z"/>
<path d="M68.6,20.5c0.6,0.4,0.7,1.3,1,2c0.3,1,1,1.9,1.2,2.9c0.2,0.7-0.1,0.8-0.8,0.7c-1-0.1-2-0.3-2.9-0.8
	c-1.3-0.6-3.1-1.5-2.4-3.3C65.3,20.5,67.2,19.7,68.6,20.5C69.2,20.9,66.3,19.1,68.6,20.5z"/>
<path fill="#FFFFFF" d="M29.1,30.5c-2.3,0-4.7,0.1-7,0.1c0.1-0.9,0.3-1.8,0.4-2.7c0.1-0.8,0.3-0.6,1.1-0.6c2,0,4,0.1,5.9,0.1
	C29.4,28.5,29.3,29.5,29.1,30.5z"/>
<path fill="#FFFFFF" d="M65.9,24.6c-2,0.1-4.1,0.1-6.1,0.2c-0.4,0-0.8,0-1.1,0c-0.3,0-0.2-0.2-0.3-0.4c-0.3-1-0.5-2-0.8-3
	c2.1,0,4.1-0.1,6.2-0.1c0.5,0,1.4-0.3,1.5,0.3C65.5,22.6,65.7,23.6,65.9,24.6z"/>
<path d="M53.3,7.3c0.5,0.5,0.3,1.7,0.4,2.4c0.1,1.1,0.4,2.1,0.4,3.2c-0.1,1.5-3.3-0.3-3.9-0.8c-1.3-1-1.6-2.3-0.5-3.7
	C50.4,7.3,52.1,6.2,53.3,7.3C53.7,7.7,51.5,5.7,53.3,7.3z"/>
<path fill="#FFFFFF" d="M75.1,30.5c-2,0-4-0.1-5.9-0.1c-0.5,0-1.3,0.2-1.4-0.3c-0.3-0.9-0.5-1.8-0.8-2.8c2,0,4-0.1,6.1-0.1
	c0.5,0,1.4-0.3,1.5,0.3C74.8,28.5,75,29.5,75.1,30.5z"/>
<path fill="#C7C19D" d="M47,8c2.9,0,2.9,4.4,0,4.4S44.1,8,47,8z"/>
<g>
	<g>
		<path fill="#3A2B11" d="M39.5,27.6c0.1-0.1,0.1-0.4,0.1-0.6c0.9,0.1,1.8,0.2,2.7,0.3c0,0.1,0,0.3,0,0.3c-0.7-0.1-1.4-0.1-2.1-0.2
			c0,0.1,0,0.2,0,0.3C39.9,27.7,39.7,27.6,39.5,27.6z"/>
		<path fill="#3A2B11" d="M42,26.6c-0.5,0.2-1.2,0.1-1.7,0c-0.4-0.1-1.1-0.6-0.4-0.9c0.5-0.2,1.2-0.1,1.7,0
			C42.1,25.8,42.7,26.4,42,26.6C41.9,26.7,42.2,26.6,42,26.6z M40.9,26.4c1,0.1,1.1-0.4,0.1-0.5C40,25.8,39.9,26.3,40.9,26.4
			C41.5,26.4,40.4,26.3,40.9,26.4z"/>
		<path fill="#3A2B11" d="M42.1,25.4c-0.5,0.2-1.2,0.1-1.7,0c-0.4-0.1-1.1-0.6-0.4-0.9c0.5-0.2,1.2-0.1,1.7,0
			C42.2,24.6,42.9,25.2,42.1,25.4C42,25.5,42.3,25.4,42.1,25.4z M41,25.2c1,0.1,1.1-0.4,0.1-0.5C40.1,24.6,40.1,25.1,41,25.2
			C41.6,25.2,40.5,25.1,41,25.2z"/>
		<path fill="#3A2B11" d="M42.2,24.2c-0.5,0.2-1.2,0.1-1.7,0c-0.4-0.1-1.1-0.6-0.4-0.9c0.5-0.2,1.2-0.1,1.7,0
			C42.3,23.4,43,23.9,42.2,24.2z M41.1,24c1,0.1,1.1-0.4,0.1-0.5C40.2,23.4,40.2,23.9,41.1,24C41.7,24,40.6,23.9,41.1,24z"/>
		<path fill="#3A2B11" d="M42.3,23c-0.5,0.2-1.2,0.1-1.7,0c-0.4-0.1-1.1-0.6-0.4-0.9c0.5-0.2,1.2-0.1,1.7,0
			C42.4,22.2,43.1,22.7,42.3,23C42.2,23.1,42.5,22.9,42.3,23z M41.3,22.8c1,0.1,1.1-0.4,0.1-0.5C40.3,22.2,40.3,22.7,41.3,22.8
			C41.8,22.8,40.7,22.7,41.3,22.8z"/>
	</g>
	<g>
		<path fill="#3A2B11" d="M29.5,33.7c0.1-0.1,0.1-0.4,0.1-0.6c0.9,0.1,1.8,0.2,2.6,0.3c0,0.5-1.1,0.2-1.4,0.2
			c-0.2,0-0.5-0.1-0.7-0.1c-0.1,0,0.1,0.3-0.1,0.2C29.9,33.7,29.7,33.7,29.5,33.7z"/>
		<path fill="#3A2B11" d="M32.2,32.7c-0.5,0.2-1.2,0.1-1.7,0c-0.5-0.1-0.9-0.7-0.2-0.9c0.5-0.2,1.2-0.1,1.7,0
			C32.5,31.9,32.9,32.4,32.2,32.7z M31.1,32.4c0.5,0.1,1.4-0.3,0.4-0.4c-0.3,0-0.9-0.2-1.1,0C30.1,32.3,31.1,32.4,31.1,32.4z"/>
		<path fill="#3A2B11" d="M32.5,31.5c-0.5,0.2-1.2,0.1-1.7,0c-0.5-0.1-0.9-0.7-0.2-0.9c0.5-0.2,1.2-0.1,1.7,0
			C32.8,30.7,33.2,31.2,32.5,31.5C32.4,31.5,32.7,31.4,32.5,31.5z M31.4,31.2c0.5,0.1,1.4-0.3,0.4-0.4c-0.3,0-0.9-0.2-1.1,0
			C30.4,31.1,31.4,31.2,31.4,31.2C32,31.3,30.9,31.2,31.4,31.2z"/>
		<path fill="#3A2B11" d="M32.8,30.3c-0.5,0.2-1.2,0.1-1.7,0c-0.5-0.1-0.9-0.7-0.2-0.9c0.5-0.2,1.2-0.1,1.7,0
			C33,29.5,33.5,30,32.8,30.3z M31.7,30c0.5,0.1,1.4-0.3,0.4-0.4c-0.3,0-0.9-0.2-1.1,0C30.7,29.9,31.7,30,31.7,30
			C32.3,30.1,31.2,30,31.7,30z"/>
		<path fill="#3A2B11" d="M33.1,29.1c-0.5,0.2-1.2,0.1-1.7,0c-0.5-0.1-0.9-0.7-0.2-0.9c0.5-0.2,1.2-0.1,1.7,0
			C33.3,28.3,33.8,28.8,33.1,29.1C32.9,29.1,33.3,29,33.1,29.1z M32,28.8c0.5,0.1,1.4-0.3,0.4-0.4c-0.3,0-0.9-0.2-1.1,0
			C31,28.7,32,28.8,32,28.8C32.6,28.9,31.5,28.8,32,28.8z"/>
	</g>
	<g>
		<path fill="#3A2B11" d="M19,39.8c0.1-0.1,0.2-0.4,0.2-0.5c0.3,0,0.6,0.1,0.9,0.1c0.6,0.1,1.3,0.2,1.9,0.2c0,0.5-1.2,0.2-1.6,0.2
			c-0.2,0-0.5-0.1-0.7-0.1c-0.1,0,0,0.2-0.1,0.2C19.3,39.8,19.2,39.8,19,39.8z"/>
		<path fill="#3A2B11" d="M21.9,38.9c-0.6,0.2-1.3,0.1-1.8-0.1c-0.6-0.1-0.9-0.7-0.2-0.9c0.6-0.2,1.3-0.1,1.8,0.1
			C22.3,38.2,22.6,38.7,21.9,38.9C21.8,39,22.2,38.9,21.9,38.9z M20.8,38.7c0.9,0.1,1.3-0.3,0.2-0.4C20.1,38.2,19.7,38.6,20.8,38.7
			C21.4,38.7,20.3,38.6,20.8,38.7z"/>
		<path fill="#3A2B11" d="M22.3,37.8c-0.6,0.2-1.3,0.1-1.8-0.1c-0.6-0.1-0.9-0.7-0.2-0.9c0.6-0.2,1.3-0.1,1.8,0.1
			C22.7,37.1,23,37.6,22.3,37.8z M21.2,37.6c0.9,0.1,1.3-0.3,0.2-0.4C20.5,37,20.1,37.4,21.2,37.6C21.8,37.6,20.7,37.5,21.2,37.6z"
			/>
		<path fill="#3A2B11" d="M22.7,36.7c-0.6,0.2-1.3,0.1-1.8-0.1c-0.6-0.1-0.9-0.7-0.2-0.9c0.6-0.2,1.3-0.1,1.8,0.1
			C23.1,36,23.5,36.5,22.7,36.7C22.6,36.7,23,36.6,22.7,36.7z M21.6,36.4c0.9,0.1,1.3-0.3,0.2-0.4C20.9,35.9,20.5,36.3,21.6,36.4
			C22.2,36.5,21.1,36.4,21.6,36.4z"/>
		<path fill="#3A2B11" d="M23.1,35.6c-0.6,0.2-1.3,0.1-1.8-0.1c-0.6-0.1-0.9-0.7-0.2-0.9c0.6-0.2,1.3-0.1,1.8,0.1
			C23.5,34.8,23.9,35.4,23.1,35.6C23,35.6,23.4,35.5,23.1,35.6z M22,35.3c0.9,0.1,1.3-0.3,0.2-0.4C21.3,34.8,20.9,35.2,22,35.3
			C22.6,35.4,21.5,35.2,22,35.3z"/>
	</g>
	<g>
		<path fill="#3A2B11" d="M47.5,25.9c-0.1,0-0.2,0-0.3,0c0-0.1,0-0.3,0-0.4c0.1,0,0.2,0,0.3,0c0-0.3,0-0.6,0-0.9c0.2,0,0.4,0,0.6,0
			c0,0.2-0.1,0.8,0,0.9c0.2,0.2,0.2-0.7,0.2-0.7c0.2,0,0.4,0,0.5,0c-0.1,0.5-0.1,1.3,0,1.8c-0.2,0-0.4,0-0.5,0c0-0.1,0-1-0.2-0.7
			c-0.1,0.1,0,0.7,0,0.9c-0.2,0-0.4,0-0.6,0C47.5,26.5,47.5,26.2,47.5,25.9z M49.4,26.1c0.1,0,0.2,0,0.3,0c-0.1-0.3-0.1-0.6-0.3-0.9
			c0.2-0.1,0.3-0.2,0.5-0.3c0,0.1,0,0.1,0.1,0.1c0.2-0.3,0-0.4,0.4-0.3c0.1,0,0.3,0,0.4,0.1c0.3,0.2,0.2,1.1,0.2,1.3
			c-0.1,0.6-1.4-0.2-1.2,0.6c-0.3,0-0.6,0-1,0c0.1-0.7,0.1-1.5,0-2.2c0.3,0,0.6,0,1,0c0.2,0.6-0.4,0.2-0.4,0.5c0,0.4,0,0.9,0,1.3
			c0,0,0.1,0,0.1,0C49.4,26.3,49.5,26.2,49.4,26.1z M50.3,26.1c0.2,0,0.1-0.6,0.1-0.7c0-0.3-0.3-0.2-0.5-0.2
			C50.1,25.4,50.1,26,50.3,26.1z"/>
		<path fill="#3A2B11" d="M48,24.1c0,0.1,0,0.2,0,0.4c-0.2,0-0.4,0-0.7,0c0.1-0.7,0.1-1.5,0-2.2c0.2,0,0.4,0,0.7,0
			c0,0.3,0,0.6,0,0.9c0,0.4,0.1,0.3,0.5,0.3c0-0.3,0-0.7,0-1c0.6,0.1,1.2,0,1.7,0.1c0.2,0,0.5,0,0.7,0.2c0.5,0.5-0.2,0.6-0.6,0.7
			c0.3-0.8-0.7-0.6-1.3-0.6c0,0.4-0.1,0.6,0.3,0.7c0.6,0.1,1.2,0.3,1.7,0.7c-0.4,0.1-0.4,0.3-0.7,0.1c-0.2-0.1-0.4-0.2-0.7-0.3
			c-0.5-0.2-1.1-0.2-1.7-0.2C48,23.8,48,24.1,48,24.1z"/>
		<path fill="#3A2B11" d="M50.5,21.6c0.2,0,0.3,0,0.5,0c0,0.1,0,0.3,0,0.4c-1.2-0.1-2.5-0.1-3.7,0c0.1-0.6,0.1-1.4,0-2.1
			c0.7,0.1,1.5,0,2.2,0c0.3,0,0.6,0,0.9,0c0.1,0,0.4,0,0.5,0.2c0.3,0.6-0.2,0.6-0.6,0.7c0.1-0.5,0-0.4-0.4-0.4c-0.5,0-0.4,0-0.4,0.5
			c0,0.1,0,0.8,0,0.8C49.9,21.6,50.2,21.6,50.5,21.6z M49,20.3c-0.3,0-0.6,0-0.9,0c-0.2,0-0.3,0.3-0.2,0.5c0.1,0.1,0.7,0,0.9,0
			C49.1,20.8,49,20.5,49,20.3z M47.9,21.1c0,0.2-0.1,0.5,0.2,0.5c0.1,0,0.8,0.1,0.9,0c0.1-0.1,0-0.5-0.2-0.5
			C48.5,21.1,48.2,21.1,47.9,21.1z"/>
	</g>
</g>
<g>
	<path fill="#040000" d="M56.6,25.8c0,0.4,0.1,0.9,0.1,1.3c-0.6,0-1.3,0-1.9,0c-0.2,0-0.2,0.8,0,0.8c0.9,0,1.9,0,2.8,0
		c-0.1-0.7-0.2-1.4-0.2-2.2C57.1,25.8,56.9,25.8,56.6,25.8z"/>
	<path fill="#040000" d="M44.8,26.2c-0.8,0-1.4,0.5-1.7,1.2c0.1,0,0.6,0.3,0.7,0.2c0.1-0.4,0.5-0.7,0.9-0.7c0.3,0,1.1,0.3,0.6,0.6
		c0,0.2,0.3,0.5,0.4,0.6C47,27.4,45.9,26.2,44.8,26.2C44,26.2,45.5,26.2,44.8,26.2z"/>
	<path fill="#040000" d="M44.5,24.3c0-0.5-0.4-0.9-1-1c0,0.2-0.1,0.5-0.1,0.7c0,0.2,0.5,0.2,0.2,0.8c-0.2,0.4-0.5,0.8-0.8,0.9
		c0,0.2,0.2,0.6,0.2,0.7C43.8,26.1,44.5,25.1,44.5,24.3C44.5,23.7,44.5,25,44.5,24.3z"/>
	<path fill="#040000" d="M55.5,26.5c1.3-0.7,0.5-4.2-1.1-3.7C52.6,23.4,53.7,27.5,55.5,26.5C55.8,26.3,55.1,26.7,55.5,26.5z
		 M54.8,25.7c-0.4-0.3-0.6-0.9-0.5-1.3c0-0.1,0.2-0.9,0.4-0.8C55.5,23.6,55.6,26.3,54.8,25.7C54.5,25.5,54.9,25.8,54.8,25.7z"/>
	<path fill="#040000" d="M53.7,7.9C54,9,54.2,10,54.4,11c0.1,0.6,0.3,1.2,0.4,1.8c0.1,0.5-0.2,0.4-0.7,0.5c-0.2-1-0.5-2.1-0.7-3.1
		c-0.1-0.6-0.3-1.2-0.4-1.8C53,7.9,53.3,8,53.7,7.9z"/>
	<path fill="#040000" d="M49.5,6.7c0,0.4,0.2,0.8-0.3,0.8c-0.7,0-1.3,0-2,0.1c-1.2,0-2.4,0.1-3.6,0.1c0-0.4-0.2-0.8,0.3-0.8
		c0.7,0,1.3,0,2-0.1C47.1,6.8,48.3,6.7,49.5,6.7z"/>
	<path fill="#040000" d="M58.2,15.6c0.6-0.5,1.3-0.8,2.1-1.1c0.2-0.1,0.6-0.2,0.7-0.3c0.2-0.3-0.1-0.7-0.5-0.6
		c-0.5,0-1.3,0.5-1.7,0.7c-0.3,0.2-1,0.5-1.1,0.8C57.4,15.6,57.9,15.9,58.2,15.6C58.7,15.2,58,15.8,58.2,15.6z"/>
	<path fill="#040000" d="M61.9,14.7c0.3,1,0.6,2,0.9,2.9c0.2,0.6,0.3,1.1,0.5,1.7c0.2,0.5-0.2,0.4-0.6,0.5c-0.3-1-0.6-2-0.9-2.9
		c-0.2-0.6-0.3-1.1-0.5-1.7C61.1,14.8,61.4,14.9,61.9,14.7z"/>
	<path fill="#040000" d="M69.4,21.2c0.5,0.9,0.9,1.8,1.4,2.7c0.3,0.5,0.5,1,0.8,1.6c0.2,0.5-0.1,0.4-0.5,0.6
		c-0.5-0.9-0.9-1.8-1.4-2.7c-0.3-0.5-0.5-1-0.8-1.6C68.6,21.4,68.9,21.4,69.4,21.2z"/>
	<path fill="#040000" d="M67.4,32.6c-0.8,0.3-0.7,0.3-0.4,1.1c-0.6,0-1.3,0-1.9,0c0,0-0.2,0.8,0.1,0.8c1,0,1.9,0,2.9,0
		C67.8,33.8,67.6,33.2,67.4,32.6z"/>
	<path fill="#040000" d="M66,31c0-0.8-0.5-2.1-1.5-2.1c-0.7,0-1,0.9-1.1,1.4c-0.2,0.9,0.2,2,1.1,2.3C65.7,33.2,66.1,31.9,66,31
		C65.9,30.1,66.1,32.1,66,31z M65,32c-0.4,0.2-0.8-0.6-0.8-0.9c-0.1-0.4,0-1,0.3-1.3C64.7,29.5,65.8,31.6,65,32
		C65,32,65.2,31.9,65,32z"/>
	<path fill="#040000" d="M64.4,27.9c0.7-0.3,1.5-1.7,0.9-2.4c-0.3-0.3-0.7,0-0.7,0.3c0.1,0.5,0,1-0.4,1.3c-0.3,0.2-0.6,0.2-1,0.1
		c-0.3-0.1-0.9-0.9-1.1-0.2C61.8,28,63.9,28.2,64.4,27.9C65.1,27.6,63.7,28.3,64.4,27.9z"/>
	<path fill="#040000" d="M75.8,39.4c0,0.2-0.1,0.8,0.1,0.8c0.4,0,0.8,0,1.3,0c0.8,0,1.7,0,2.5,0c-0.5-0.8-0.9-1.6-1.4-2.3
		c-0.1,0.1-0.6,0.3-0.7,0.4c-0.1,0.2,0.6,1,0.7,1.1C77.4,39.4,76.6,39.4,75.8,39.4z"/>
	<path fill="#040000" d="M74.1,36.6c-0.1,0.8,0.3,1.6,1,2c0.9,0.6,1.8,0.2,1.8-0.9c0-0.9-0.6-2.3-1.6-2.5
		C74.4,35.1,74.1,36,74.1,36.6z M75,36c0.8-0.1,1.3,2.2,0.8,2.1C75.2,38.1,74.3,36,75,36C75.3,36,75,36,75,36z"/>
	<path fill="#040000" d="M74.4,33.8c0.5-0.3,1.2-2.2,0.2-2.3c-0.7-0.1,0,1.6-1,1.8c-0.3,0.1-2.1-1-1.8,0
		C72.1,34.2,73.7,34.2,74.4,33.8C75,33.3,73.8,34.2,74.4,33.8z"/>
	<path fill="#040000" d="M33.1,33.3c0.1,0.1,0.6,0.4,0.7,0.3c0.2-0.4,0.5-0.7,0.9-0.7c0.2,0,1.1,0.1,0.8,0.4c-0.3,0.3,0,0.4,0.2,0.8
		c0.8-0.5,0.8-1.5-0.2-1.9C34.6,31.9,33.5,32.4,33.1,33.3z"/>
	<path fill="#040000" d="M34.9,30.2c0-0.5-0.4-0.8-0.9-0.9c0,0.2-0.1,0.5-0.1,0.7c0,0.2,0.4,0.1,0.2,0.6c-0.2,0.4-0.6,0.9-1.1,1
		c0,0.2,0.2,0.6,0.2,0.7C34,32.1,34.9,31.1,34.9,30.2C34.9,30,34.9,31,34.9,30.2z"/>
	<path fill="#040000" d="M25.1,39.1c0.1,0,0.3,0,0.4,0c-0.2,0.2-0.4,0.1-0.2,0.4c0.1,0.2,0.2,0.3,0.3,0.5c0.9-0.5,1.1-1.6-0.2-1.7
		c-1-0.1-1.9,0.5-2.4,1.3c0.4,0.3,0.5,0.5,0.8,0.2C24.2,39.4,24.6,39.1,25.1,39.1C25.3,39,24.9,39.1,25.1,39.1z"/>
	<path fill="#040000" d="M25.3,36.3c0-0.5-0.4-0.7-0.8-0.8c0,0.2-0.1,0.5-0.1,0.7c0,0.2,0.3,0.2,0,0.6c-0.3,0.4-0.8,0.9-1.3,1
		c-0.1,0.1,0.2,0.6,0.2,0.7C24.1,38.3,25.3,37.3,25.3,36.3C25.3,36.1,25.3,37.2,25.3,36.3z"/>
	<path fill="#040000" d="M82.2,41c-0.5-1.2-1.3-2.4-1.9-3.6c-1.4-2.7-2.8-5.4-4.3-8c-1.4-2.7-2.9-5.4-4.3-8.1
		c-0.5-0.9-0.9-1.8-1.4-2.7c-0.2-0.3-0.3-0.8-0.5-1c-0.2-0.4-0.9-0.3-1.3-0.3c-0.8,0-1.6,0-2.4,0c-0.2,0-1.1,0.1-1.3,0
		c-0.2-0.1-0.3-1-0.4-1.2c-0.4-1.4-0.8-2.7-1.2-4.1c-0.3-1-1.5-0.7-2.3-0.7c-1.4,0-2.8,0-4.2,0c-0.5,0-0.6-1.8-0.7-2.2
		c-0.2-1.2-0.5-2.4-0.7-3.6C55.1,4.7,53.6,5,53.1,5c-3,0-6,0-9.1,0c-0.7,0-1.5-0.2-2.2,0c-0.9,0-1,2.7-1.1,3.3c0,0.2-0.4,3-0.6,3
		c-1.3,0-2.6,0-3.8,0c-0.8,0-2.3-0.3-2.5,0.6c-0.4,1.3-0.8,2.7-1.2,4c-0.1,0.4-0.3,0.9-0.4,1.3c0,0.1-1,0-1.1,0c-0.8,0-1.5,0-2.3,0
		c-0.4,0-1.2-0.1-1.5,0.2c-0.3,0.3-0.4,0.8-0.6,1.1c-0.4,0.9-0.9,1.8-1.3,2.7c-2.6,5.5-5.2,10.9-7.9,16.4c-0.4,0.8-0.8,1.7-1.2,2.5
		c-0.1,0.3-0.5,0.9-0.5,1.2c0,1.2,0,2.4,0,3.6c0,0.5-0.4,2.9,0.6,2.9c4.9,0,9.8,0,14.7,0c9.1,0,18.2,0,27.3,0c3.7,0,7.3,0,11,0
		c3.1,0,6.1,0,9.2,0c0.9,0,1.8,0,2.7,0c0.6,0,1.1-0.1,1.1-0.9c0-1.1,0-2.2,0-3.4C82.3,43,82.6,41.5,82.2,41
		C82.2,41,82.3,41.1,82.2,41z M59,46.7c-3.8,0-7.6,0-11.5,0c-2.3,0-4.6,0-6.9,0c-0.6,0-1.1,0-1.7,0c-0.3,0-0.1-1.5-0.1-1.8
		c1.9,0.2,3.9,0,5.8,0c0.6,0,5.8,0.4,5.8-0.4c0-0.8-5.2-0.4-5.8-0.4c-1.9,0-3.9-0.2-5.8,0c0-0.2,0-0.4,0-0.7c1.9,0.1,3.9,0,5.8,0
		c0.6,0,5.8,0.4,5.8-0.4c0-0.8-5.2-0.4-5.8-0.4c-1.9,0-3.9-0.2-5.8,0c0-0.2-0.2-0.9,0.1-0.9c0.4,0,0.8,0,1.3,0c1.5,0,3.1,0,4.6,0
		c1.6,0,3.3,0,4.9,0c2.8,0,5.6,0,8.5,0c0.3,0,0.5,0,0.8,0c0,0,0,1.1,0,1.2C59,44.3,59,45.5,59,46.7z M22,30.9c0.3,0,0.6,0.1,0.8,0.1
		c-0.3,0.2-0.9,0.4-0.6,0.8c-0.3-0.1-0.7,0-0.6,0.4c0.1,0.4,0.8,0.5,1.1,0.5c0.3,0,1,0.2,1.3-0.2c0.3-0.5-0.5-0.6-0.7-0.8
		c0.3-0.2,0.9-0.4,0.7-0.8c1.4,0,2.8,0,4.3,0c-0.2,0.8-0.5,1.6-0.7,2.4c-0.2,0.6-0.7,1.5-0.7,2.1c0,1.8,0,3.6,0,5.3
		c0,0.1-8.5,0-9.4,0C18.9,37.5,20.5,34.2,22,30.9C22.1,30.9,20,35.2,22,30.9z M23.4,28.1c1.8,0,3.7,0,5.5,0
		c-0.1,0.3-0.2,1.5-0.5,1.7c-0.2,0.2-1.3,0-1.6,0c-1.4,0-2.8,0-4.3,0C22.9,29.2,23.1,28.7,23.4,28.1z M32,22.1c2.1,0,4.2,0,6.3,0
		c0,0.2-0.2,1.7-0.3,1.7c-0.7,0-1.3,0-2,0c-1.5,0-3,0-4.5,0C31.5,23.6,31.9,22.1,32,22.1z M56.2,16c0.1,0.6,0.2,1.2,0.3,1.7
		c-5.4,0-10.9,0-16.3,0c0.1-0.6-0.1-1.7,0.6-1.7c0.5,0,1,0,1.5,0c1.8,0,3.6,0,5.4,0C50.6,16,53.4,16,56.2,16z M46,14.8
		c0.3-1.1,1.6-1.5,2.6-1.6c1.2-0.1,2,0.7,2.7,1.6C49.5,14.8,47.8,14.8,46,14.8z M74,28c0.3,0.6,0.6,1.2,1,1.8c-1.5-0.1-2.9,0-4.4,0
		c-0.7,0-1.3,0-2,0c-0.1,0-0.5-1.5-0.5-1.7c1,0,1.9,0,2.9,0c0.6,0,1.3,0,1.9,0C73.2,28.1,73.7,28.2,74,28C74.3,28.6,73.9,28,74,28z
		 M38.1,34.8c0-0.3-0.1-2.1,0.1-2.1c0.4,0,0.8,0,1.2,0c1.5,0,3,0,4.5,0c1.4,0,2.9,0,4.3,0c0.3,0,0.7,0,1,0c0.5,0,0.6-0.8,0-0.8
		c-2.6,0-5.1,0-7.7,0c-1.1,0-2.2,0-3.3,0c-0.3,0-0.2-0.6-0.1-0.6c0.4,0,0.7,0,1.1,0c2.9,0,5.9,0,8.8,0c0.4,0,0.7,0,1.1,0
		c0.5,0,0.7-0.8,0.1-0.8c-0.9,0-1.8,0-2.7,0c-2.7,0-5.5,0-8.2,0c-0.3,0-0.3-0.5-0.1-0.5c0.3,0,0.6,0,0.9,0c1.2,0,2.4,0,3.6,0
		c3.4,0,6.7,0,10.1,0c0.5,0,6.1-0.1,6.1,0.1c0,0.5,0.1,4.6-0.1,4.6c-0.8,0-1.5,0-2.3,0c-3.2,0-6.3,0-9.5,0
		C44.1,34.8,41.1,34.8,38.1,34.8C38.1,34.4,39.2,34.8,38.1,34.8z M31.1,25c0.4,0,0.5,0,0.8,0.2c-0.3,0.2-0.7,0.4-0.5,0.8
		c-0.3-0.1-0.6,0.1-0.5,0.4c0.1,0.4,0.8,0.5,1.1,0.5c0.3,0,1,0.2,1.3-0.2c0.3-0.5-0.6-0.7-0.9-0.9c0.3-0.2,0.7-0.4,0.6-0.8
		c1.6,0,3.2,0,4.8,0c-0.1,0.7-0.3,1.5-0.4,2.2c-0.1,0.7-0.5,1.7-0.4,2.4c0.3,1.6,0.1,3.4,0.1,5.1c0,0.3-0.6,0.1-0.9,0.1
		c-1,0-2,0-3.1,0c-1.6,0-3.3,0-4.9,0C29.1,31.5,30.1,28.2,31.1,25z M60,29.5c0-0.6-0.2-1.3-0.4-1.9c-0.2-0.9-0.3-1.7-0.5-2.6
		c2.1,0,4.1,0,6.2,0c0.5,0,0.5-0.1,0.7,0.4c0.4,1.3,0.8,2.7,1.2,4c0.5,1.8,1.1,3.6,1.6,5.5c-2.6,0-5.3,0-7.9,0c-0.1,0-0.8,0.1-0.9,0
		c-0.2-0.2,0-1.2,0-1.4C60,32.1,60,30.8,60,29.5z M65,22.1c0.1,0.3,0.6,1.7,0.3,1.7c-0.3,0-0.5,0-0.8,0c-1,0-2.1,0-3.1,0
		c-0.8,0-1.6,0-2.4,0c-0.3,0-0.4-1.4-0.5-1.7C60.7,22.1,62.9,22.3,65,22.1C65.2,22.6,65,22.1,65,22.1z M58.4,21
		c-0.1-0.4-0.1-0.7-0.2-1.1c0.5,0.2,1,0.6,1.3,1.1C59.1,21,58.7,21,58.4,21z M58.8,28.9c-6.9,0-13.7,0-20.6,0
		c0.3-1.7,0.6-3.4,0.9-5.2c0.2-1.2,0.5-2.5,0.7-3.7c0.1-0.4,0-1.2,0.4-1.2c0.4,0,0.4,0,0.7,0.2c-0.2,0.2-0.7,0.4-0.5,0.7
		c-0.4-0.1-0.6,0.3-0.4,0.6c0.3,0.3,1,0.3,1.3,0.4c0.3,0,1,0.1,1-0.4c0-0.4-0.7-0.5-1-0.8c0.2-0.2,0.6-0.4,0.5-0.8
		c4.2,0,8.4,0,12.6,0c-0.6,0.2,0,1.6-1,1.9c-0.4,0.1-0.8-0.1-1.1-0.4c-0.3-0.4-0.9,0.1-0.6,0.5c0.6,0.7,1.6,0.9,2.4,0.4
		c0.5-0.3,1.5-2,0.6-2.4c0.6,0,1.2,0,1.7,0c0.4,0,0.7,2.8,0.8,3.3C57.9,24.4,58.3,26.7,58.8,28.9z M39,18.2c-2.8,0.2-1.5-4,0.6-3.4
		C39.4,15.9,39.2,17,39,18.2z M30.2,24c-1.2-0.5-0.4-2.9,0.8-2.7C30.7,22.2,30.5,23.1,30.2,24z M27.8,40.7c0-0.4-0.2-1.7,0.2-1.7
		c0.4,0,0.9,0,1.3,0c1.5,0,3,0,4.5,0c1.4,0,2.8,0,4.2,0c0.3,0,0.6,0,0.9,0c0.6,0,0.5-0.8,0-0.8c-2.6,0-5.2,0-7.8,0c-1,0-2.1,0-3.1,0
		c-0.3,0-0.3-0.6,0-0.6c0.4,0,0.8,0,1.2,0c2.9,0,5.9,0,8.8,0c0.3,0,0.7,0,1,0c0.5,0,0.6-0.8,0-0.8c-1,0-1.9,0-2.9,0
		c-2.7,0-5.4,0-8.1,0c-0.4,0-0.3-0.9,0-0.9c0.6,0,1.2,0,1.7,0c1.7,0,3.4,0,5,0c4.4,0,8.9,0,13.3,0c0.3,0,0.1,3.2,0.1,3.6
		c0,0.3,0,0.7,0,1c0,0.2-0.4,0.1-0.6,0.1c-0.5,0-1,0-1.5,0c-3.3,0-6.7,0-10,0C33.3,40.7,30.6,40.7,27.8,40.7
		C27.8,40.4,28.8,40.7,27.8,40.7z M49.3,40.7c0-0.6,0-1.2,0-1.7c0-0.2,0.4-0.1,0.5-0.1c1.3,0,2.6,0,3.9,0c1.6,0,3.1,0,4.7,0
		c0.4,0,2.1,0.3,2.4-0.2c0.5-0.8-1.8-0.6-2.1-0.6c-1.5,0-3.1,0-4.6,0c-1.4,0-2.7,0-4.1,0c-0.2,0-0.5,0-0.7,0c0.1,0-0.2-0.6,0.2-0.6
		c2.7,0,5.5,0,8.2,0c0.9,0,1.8,0,2.7,0c0.6,0,0.5-0.8-0.1-0.8c-0.4,0-0.7,0-1.1,0c-2.9,0-5.9,0-8.8,0c-0.4,0-0.7,0-1.1,0
		c-0.3,0,0-0.7-0.1-0.7c1,0,1.9,0,2.9,0c3,0,6,0,9,0c2.2,0,4.5,0,6.7,0c0.3,0,0.6,0,0.9,0c0.4,0,0.2,0.7,0.2,1c0,1.3,0,2.5,0,3.8
		C62.5,40.7,55.9,40.7,49.3,40.7z M70.1,35c-0.4-1.3-0.8-2.7-1.2-4c1.1,0,2.1,0,3.2,0c0.6,0,2.9,0.4,3.3-0.3
		c1.8,3.4,3.6,6.8,5.4,10.1c-3,0-6.1,0-9.1,0c-0.4,0-0.9,0-1.3,0c-0.1,0,0-1,0-1.1c0-0.9,0-1.9,0-2.8C70.3,36.4,70.5,35.3,70.1,35z
		 M68.9,18.4c1.5,2.8,3,5.7,4.5,8.5c-1.3,0-2.7,0-4,0c-0.6,0-1.1,0-1.7,0c-0.1,0-0.4-1.2-0.5-1.4c0.4,0.2,2,0.9,2.3,0.3
		c0.4-0.7-1.3-0.7-1.7-0.9c-0.5-0.2-0.9-0.3-1.1-0.8c-0.2-0.5-0.3-1-0.5-1.5c-0.1-0.4-0.2-0.8-0.3-1.1c-0.1-0.3,0.9-0.6,1.2-0.7
		c0.3-0.1,1-0.8,0.2-0.9c-0.4-0.1-1.3,0.5-1.7,0.7c-0.2-0.7-0.4-1.5-0.7-2.2C66.4,18.4,67.7,18.4,68.9,18.4
		C69.1,18.7,68.5,18.4,68.9,18.4z M62.1,12.4c0.9,2.8,1.7,5.7,2.6,8.5c-1.2,0-2.5,0-3.7,0c-0.7,0-0.7-0.3-1.3-0.9
		c-0.4-0.4-0.9-0.8-1.4-0.9c-0.4-0.1-0.4-0.4-0.4-0.8c0.5,0.6,1.6,1,2.3,1.3c0.3,0.1,2.3,0.8,1.9-0.1c-0.2-0.4-1.9-0.7-2.4-0.9
		c-0.4-0.2-1.7-1.3-2-0.7c-0.4-1.8-0.7-3.7-1.1-5.5C58.5,12.4,60.3,12.4,62.1,12.4C62.2,12.7,61.5,12.4,62.1,12.4z M42.4,6.1
		c3.2,0,6.3,0,9.5,0c0.6,0,1.3,0,1.9,0c0.5,0,0.5,0.1,0.6,0.6c0.5,2.7,1.1,5.4,1.6,8.1c-1.2,0-2.3,0-3.5,0c-0.4,0-0.8-0.8-1.1-1.1
		c-0.9-1-1.9-1.5-3.2-1.3c0.4-0.2,0.8-0.4,1.1-0.8c0.4,0.6,3.8,2.4,4.3,1.5c0.4-0.7-1.4-0.8-1.8-0.9c-0.4-0.2-0.7-0.4-1.1-0.6
		c-0.3-0.2-0.7-0.6-1.1-0.6c0.2-0.5,0.3-1.5-0.1-2c0.3-0.1,0.6-0.4,0.9-0.6c0.4-0.2,0.8-0.3,1.2-0.5c0.2-0.1,1.6-0.9,0.5-1
		c-0.7-0.1-3.6,1.4-3,2c-0.5,0.1-0.2,0.8-0.1,1.1c0,0.4-0.1,0.9-0.5,1.2c-0.6,0.6-1.7,0.8-2.4,0.4c-1.6-0.8-0.4-3.9,1.4-3.3
		c0.3,0.1,1.1,0.8,1.4,0.3c0.3-0.5-0.7-0.9-1-1c-0.8-0.3-1.6-0.3-2.3,0.3c-1.8,1.6-1.1,4.9,1.6,4.6c-0.6,0.2-1.2,0.6-1.6,1.1
		c-0.3,0.4-0.2,1-0.7,1c-0.7,0-1.5,0-2.2,0c0.1-0.9,0.2-1.8,0.4-2.7c0.1-0.4,0.1-0.9,0.2-1.3c0.1-0.5-0.7-0.7-0.8-0.1
		c-0.1,1-0.3,2-0.4,3c-0.1,0.4-0.1,0.7-0.2,1.1c0,0-1,0-1.2,0C41.3,11.9,41.9,9,42.4,6.1C43.2,6.1,42.3,6.5,42.4,6.1z M34.9,12.4
		c1.7,0,3.5,0,5.2,0c-0.1,0.4,0,0.5-0.4,0.6c-0.6,0-1.1,0-1.7,0.1c-0.6,0-1.1,0-1.7,0.1c-0.5,0-0.3,0.3-0.3,0.8
		c1.3-0.1,2.5-0.1,3.8-0.2c0,0.4-0.4,0.1-0.6,0.1c-0.4,0-0.8,0.1-1.1,0.4c-0.6,0.4-1.1,1.1-1.3,1.8c-0.5,1.6,0.5,2.9,2.1,2.9
		c-0.1,0.6-0.2,1.2-0.3,1.7c-0.1,0.5-0.2,0.3-0.7,0.3c-1.2,0-2.4,0-3.7,0c0.2-0.9,0.5-1.7,0.7-2.6c0.1-0.4,0.2-0.8,0.3-1.3
		c0.1-0.5-0.6-0.7-0.7-0.2c-0.3,1-0.5,2-0.8,2.9c-0.1,0.4-0.2,0.7-0.3,1.1c0,0.1-1,0-1.1,0C33.2,18.1,34,15.3,34.9,12.4
		C35.5,12.4,34.8,12.7,34.9,12.4z M28.1,18.4c1.3,0,2.5,0,3.8,0c-0.1,0.2,0,0.5-0.3,0.5c-0.4,0-0.9,0.1-1.3,0.1
		c-0.4,0-0.8,0-1.2,0.1c-0.2,0,0,0.6,0,0.8c0.8-0.1,1.6-0.1,2.5-0.2c0,0.2-0.1,0.3-0.1,0.5c-0.1,0.4-0.2,0.3-0.6,0.3
		c-0.9,0-1.5,0.9-1.8,1.6c-0.2,0.8-0.2,1.8,0.5,2.4c0.6,0.5,0.5,0.3,0.3,1c-0.1,0.5-0.3,0.9-0.4,1.4c0,0.2-0.5,0.1-0.6,0.1
		c-0.9,0-1.9,0-2.8,0c0.4-0.9,0.8-1.8,1.1-2.6c0.2-0.4,0.3-0.8,0.5-1.2c0.2-0.5-0.5-0.8-0.7-0.3c-0.4,1-0.9,2-1.3,2.9
		c-0.2,0.4-0.3,0.7-0.5,1.1c-0.1,0.1-0.9,0-1.1,0C25.3,24.1,26.7,21.3,28.1,18.4C28.5,18.4,27.9,18.7,28.1,18.4z M17,44.9
		c2.4,0,4.7,0,7.1,0c1.2,0,2.4,0,3.6,0c0.3,0,0.7,0,0.7-0.4c0-0.5-0.5-0.4-0.8-0.4c-2.8,0-5.6,0-8.5,0c-0.5,0-1.1,0-1.6,0
		c-0.4,0-0.6,0.2-0.6-0.3c0-0.5,0.1-0.3,0.5-0.3c0.6,0,1.1,0,1.7,0c2.8,0,5.6,0,8.5,0c0.2,0,0.6,0.1,0.8-0.2
		c0.3-0.5-0.4-0.6-0.7-0.6c-1.2,0-2.4,0-3.6,0c-1.6,0-3.2,0-4.8,0c-0.5,0-1.1,0-1.6,0c-0.1,0-0.6,0.1-0.7,0c0-0.9,0-0.8,0.8-0.8
		c0.7,0,1.4,0,2.1,0c1.7,0,3.4,0,5.1,0c4.3,0,8.5-0.1,12.8-0.1c0,0,0.1,4.8-0.1,4.8c-0.8,0-1.5,0-2.3,0c-3.2,0-6.3,0-9.5,0
		c-2.1,0-4.2,0-6.3,0c-0.7,0-1.3,0-2,0c-0.2,0-0.4,0-0.5,0C16.9,46.7,17,45.2,17,44.9z M81.2,46.7c-3.7,0-7.4,0-11.1,0
		c-2.3,0-4.7,0-7,0c-0.7,0-1.4,0-2.2,0c-0.2,0-0.4,0-0.6,0c-0.3,0-0.1-1.5-0.1-1.8c0.5,0.2,1.3,0,1.8,0c1.3,0,2.7,0,4,0
		c0.6,0,5.8,0.4,5.8-0.4c0-0.8-5.2-0.4-5.8-0.4c-1.3,0-2.7,0-4,0c-0.6,0-1.3-0.1-1.8,0c0-0.2,0-0.5,0-0.7c0.6,0.1,1.3,0,1.8,0
		c1.3,0,2.7,0,4,0c0.6,0,5.8,0.4,5.8-0.4c0-0.8-5.2-0.4-5.8-0.4c-1.3,0-2.7,0-4,0c-0.6,0-1.3-0.1-1.8,0c0-0.6-0.2-0.9,0.3-0.9
		c0.4,0,0.9,0,1.3,0c1.4,0,2.8,0,4.1,0c1.5,0,3.1,0.1,4.6,0.1c2.7,0,5.4,0,8.2,0c0.3,0,2.4-0.1,2.4,0.1
		C81.2,43.6,81.2,45.2,81.2,46.7C80.1,46.7,81.2,45.9,81.2,46.7z"/>
</g>
<g>
	<path fill="#1F2D2F" d="M47,58.3c0,3.9,0,7.9,0,11.8c0,0.7,0,1.5,0,2.2c0,0.4-0.6,0.2-0.9,0.2c-2,0-4,0-6,0
		c3.5,4.8,7.1,9.7,10.6,14.5c3.6-4.8,7.3-9.7,10.9-14.5c-2.4,0-4.7,0-7.1,0c-0.2,0-0.1-5.2-0.1-5.6c0-2.7,0-5.5,0-8.2
		c0-0.7-0.5-0.4-1.2-0.4c-1.5,0-3.1,0-4.6,0C48.1,58.3,47.6,58.3,47,58.3z"/>
	<path fill="none" stroke="#131E1F" stroke-width="0.9882" stroke-miterlimit="2.6131" d="M47,58.3c0,3.9,0,7.9,0,11.8
		c0,0.7,0,1.5,0,2.2c0,0.4-0.6,0.2-0.9,0.2c-2,0-4,0-6,0c3.5,4.8,7.1,9.7,10.6,14.5c3.6-4.8,7.3-9.7,10.9-14.5c-2.4,0-4.7,0-7.1,0
		c-0.2,0-0.1-5.2-0.1-5.6c0-2.7,0-5.5,0-8.2c0-0.7-0.5-0.4-1.2-0.4c-1.5,0-3.1,0-4.6,0C48.1,58.3,47.6,58.3,47,58.3z"/>
	<path fill="#FFFFFF" d="M47.8,57.8c0,3.9,0,7.9,0,11.8c0,0.7,0,1.5,0,2.2c0,0.4-0.6,0.2-0.9,0.2c-2,0-4,0-6,0
		c3.5,4.8,7.1,9.7,10.6,14.5c3.6-4.8,7.2-9.7,10.9-14.5c-2.4,0-4.7,0-7.1,0c-0.2,0-0.1-5.2-0.1-5.6c0-2.7,0-5.5,0-8.2
		c0-0.7-0.5-0.4-1.2-0.4c-1.5,0-3.1,0-4.6,0C48.8,57.8,48.3,57.8,47.8,57.8z"/>
	<path fill="none" stroke="#131E1F" stroke-width="0.9882" stroke-miterlimit="2.6131" d="M47.8,57.8c0,3.9,0,7.9,0,11.8
		c0,0.7,0,1.5,0,2.2c0,0.4-0.6,0.2-0.9,0.2c-2,0-4,0-6,0c3.5,4.8,7.1,9.7,10.6,14.5c3.6-4.8,7.2-9.7,10.9-14.5c-2.4,0-4.7,0-7.1,0
		c-0.2,0-0.1-5.2-0.1-5.6c0-2.7,0-5.5,0-8.2c0-0.7-0.5-0.4-1.2-0.4c-1.5,0-3.1,0-4.6,0C48.8,57.8,48.3,57.8,47.8,57.8z"/>
</g>
<g>
	<path fill="#1F2D2F" d="M62.3,65.4c2.8,2.8,5.6,5.6,8.4,8.5c0.5,0.5,1,1,1.5,1.5c0.3,0.3-0.4,0.7-0.6,0.9c-1.4,1.4-2.8,2.8-4.2,4.2
		c5.9,0.9,11.8,1.8,17.6,2.7c-0.8-6-1.6-12-2.4-18c-1.7,1.7-3.4,3.4-5.1,5.1c-3.3-3.4-6.6-6.7-10-10.1
		C65.8,61.9,64.1,63.6,62.3,65.4z"/>
	<path fill="none" stroke="#131E1F" stroke-width="0.9882" stroke-miterlimit="2.6131" d="M62.3,65.4c2.8,2.8,5.6,5.6,8.4,8.5
		c0.5,0.5,1,1,1.5,1.5c0.3,0.3-0.4,0.7-0.6,0.9c-1.4,1.4-2.8,2.8-4.2,4.2c5.9,0.9,11.8,1.8,17.6,2.7c-0.8-6-1.6-12-2.4-18
		c-1.7,1.7-3.4,3.4-5.1,5.1c-3.3-3.4-6.6-6.7-10-10.1C65.8,61.9,64.1,63.6,62.3,65.4z"/>
	<path fill="#FFFFFF" d="M62.5,64.5c2.8,2.8,5.6,5.6,8.4,8.5c0.5,0.5,1,1,1.5,1.5c0.3,0.3-0.4,0.7-0.6,0.9c-1.4,1.4-2.8,2.8-4.2,4.2
		c5.9,0.9,11.8,1.8,17.7,2.6c-0.8-6-1.6-12-2.4-18c-1.7,1.7-3.4,3.4-5.1,5.1c-3.3-3.4-6.6-6.7-10-10.1C66,61,64.3,62.8,62.5,64.5z"
		/>
	<path fill="none" stroke="#131E1F" stroke-width="0.9882" stroke-miterlimit="2.6131" d="M62.5,64.5c2.8,2.8,5.6,5.6,8.4,8.5
		c0.5,0.5,1,1,1.5,1.5c0.3,0.3-0.4,0.7-0.6,0.9c-1.4,1.4-2.8,2.8-4.2,4.2c5.9,0.9,11.8,1.8,17.7,2.6c-0.8-6-1.6-12-2.4-18
		c-1.7,1.7-3.4,3.4-5.1,5.1c-3.3-3.4-6.6-6.7-10-10.1C66,61,64.3,62.8,62.5,64.5z"/>
</g>
<g>
	<path fill="#1F2D2F" d="M32.3,59.1c-3.3,3.4-6.6,6.7-10,10.1c-1.6-1.6-3.3-3.3-4.9-4.9c-0.9,5.9-1.7,11.9-2.6,17.8
		c5.9-0.8,11.9-1.6,17.8-2.5c-1.7-1.7-3.3-3.3-5-5c-0.3-0.3,0.6-0.8,0.8-1c1-1,1.9-1.9,2.9-2.9c1.9-2,3.9-3.9,5.8-5.9
		c0.5-0.5,0.2-0.6-0.4-1.1c-1.1-1.1-2.2-2.2-3.3-3.3C33.1,60,32.7,59.5,32.3,59.1z"/>
	<path fill="none" stroke="#131E1F" stroke-width="0.9882" stroke-miterlimit="2.6131" d="M32.3,59.1c-3.3,3.4-6.6,6.7-10,10.1
		c-1.6-1.6-3.3-3.3-4.9-4.9c-0.9,5.9-1.7,11.9-2.6,17.8c5.9-0.8,11.9-1.6,17.8-2.5c-1.7-1.7-3.3-3.3-5-5c-0.3-0.3,0.6-0.8,0.8-1
		c1-1,1.9-1.9,2.9-2.9c1.9-2,3.9-3.9,5.8-5.9c0.5-0.5,0.2-0.6-0.4-1.1c-1.1-1.1-2.2-2.2-3.3-3.3C33.1,60,32.7,59.5,32.3,59.1z"/>
	<path fill="#FFFFFF" d="M33.2,59.3c-3.3,3.4-6.6,6.7-10,10.1c-1.6-1.6-3.3-3.3-4.9-4.9c-0.9,5.9-1.7,11.9-2.6,17.8
		c5.9-0.8,11.9-1.6,17.8-2.5c-1.7-1.7-3.3-3.3-5-5c-0.3-0.3,0.6-0.8,0.8-1c1-1,1.9-1.9,2.9-2.9c1.9-2,3.9-3.9,5.8-5.9
		c0.5-0.5,0.2-0.5-0.4-1.1c-1.1-1.1-2.2-2.2-3.2-3.3C34,60.1,33.6,59.7,33.2,59.3z"/>
	<path fill="none" stroke="#131E1F" stroke-width="0.9882" stroke-miterlimit="2.6131" d="M33.2,59.3c-3.3,3.4-6.6,6.7-10,10.1
		c-1.6-1.6-3.3-3.3-4.9-4.9c-0.9,5.9-1.7,11.9-2.6,17.8c5.9-0.8,11.9-1.6,17.8-2.5c-1.7-1.7-3.3-3.3-5-5c-0.3-0.3,0.6-0.8,0.8-1
		c1-1,1.9-1.9,2.9-2.9c1.9-2,3.9-3.9,5.8-5.9c0.5-0.5,0.2-0.5-0.4-1.1c-1.1-1.1-2.2-2.2-3.2-3.3C34,60.1,33.6,59.7,33.2,59.3z"/>
</g>
</svg>
