<?xml version="1.0" encoding="utf-8"?>
<!-- Generator: Adobe Illustrator 17.0.1, SVG Export Plug-In . SVG Version: 6.00 Build 0)  -->
<!DOCTYPE svg PUBLIC "-//W3C//DTD SVG 1.1//EN" "http://www.w3.org/Graphics/SVG/1.1/DTD/svg11.dtd">
<svg version="1.1" id="レイヤー_1" xmlns="http://www.w3.org/2000/svg" xmlns:xlink="http://www.w3.org/1999/xlink" x="0px"
	 y="0px" width="841.89px" height="595.28px" viewBox="0 0 841.89 595.28" enable-background="new 0 0 841.89 595.28"
	 xml:space="preserve">
<rect x="350.103" y="227.438" fill="#A660A3" stroke="#A660A3" stroke-width="2" stroke-miterlimit="10" width="141.732" height="141.732"/>
<polygon fill="#C9CACA" points="449.922,259.764 466.629,293.929 434.717,293.929 440.912,259.389 "/>
<polyline fill="#EFEFEF" points="435.426,261.713 435.846,261.692 448.082,261.078 461.826,291.111 437.389,291.116 
	434.144,261.676 "/>
<polygon fill="#C9CACA" points="439.785,250.378 450.485,285.106 418.573,285.106 424.768,250.566 "/>
<polygon fill="#C9CACA" points="388.538,259.389 371.831,293.554 403.743,293.554 397.548,259.014 "/>
<polyline fill="#EFEFEF" points="402.283,262.088 401.863,262.067 389.627,261.453 375.883,291.486 400.32,291.491 403.564,262.051 
	"/>
<polygon fill="#C9CACA" points="398.299,250.566 387.599,285.294 419.511,285.294 413.316,250.754 "/>
<polyline fill="#EFEFEF" points="412.776,253.823 412.349,253.802 399.919,253.195 391.771,283.042 416.363,283.042 
	414.058,253.785 "/>
<polyline fill="#EFEFEF" points="424.933,253.448 425.36,253.427 437.79,252.82 445.937,282.666 421.346,282.666 423.651,253.41 "/>
<polygon fill="#C9CACA" points="408.999,241.368 402.429,276.284 434.341,276.284 428.146,241.743 "/>
<polyline fill="#EFEFEF" points="424.067,244.437 423.639,244.416 411.14,243.809 406.371,273.656 430.962,273.656 425.345,244.4 
	"/>
<ellipse fill="#C7C19D" cx="405.621" cy="257.7" rx="3.379" ry="3.191"/>
<ellipse fill="#C7C19D" cx="393.607" cy="266.71" rx="3.379" ry="3.192"/>
<rect x="402.429" y="276.284" fill="#CCCCB0" width="31.912" height="8.448"/>
<rect x="386.849" y="285.106" fill="#CCCCB0" width="62.886" height="8.447"/>
<rect x="371.268" y="294.304" fill="#CCCCB0" width="96.299" height="8.448"/>
<polygon fill="#FFFFFF" points="431.525,260.328 405.808,260.328 406.559,255.447 430.587,255.447 "/>
<polygon fill="#FFFFFF" points="404.118,269.526 392.855,269.526 393.606,264.645 404.869,264.645 "/>
<path d="M437.702,254.364c0.803,0.54,0.826,2.611,1.121,3.42c0.438,1.2,0.896,2.263,1.058,3.526c0.174,1.363,0.24,1.603-1.622,1.286
	c-1.087-0.185-2.56-0.488-3.521-0.994c-0.567-0.299-2.291-1.295-2.647-1.672C429.396,257.071,434.591,252.275,437.702,254.364z"/>
<path d="M448.565,263.565c0.895,0.531,1.193,2.556,1.604,3.347c0.608,1.175,1.218,2.215,1.552,3.452
	c0.361,1.333,0.46,1.567-1.488,1.251c-1.137-0.184-2.685-0.485-3.736-0.983c-0.62-0.294-2.517-1.273-2.931-1.644
	C440.428,266.184,445.104,261.512,448.565,263.565z"/>
<polygon fill="#FFFFFF" points="390.227,278.161 379.903,278.349 380.654,273.468 390.978,273.655 "/>
<polygon fill="#FFFFFF" points="444.478,269.525 433.591,269.902 432.277,264.832 443.54,264.644 "/>
<path d="M425.908,244.212c0.678,0.603,0.423,2.813,0.591,3.685c0.249,1.294,0.535,2.443,0.517,3.796
	c-0.019,1.46,0.01,1.718-1.685,1.318c-0.991-0.233-2.325-0.606-3.154-1.178c-0.49-0.338-1.965-1.457-2.247-1.872
	C417.796,246.822,423.284,241.879,425.908,244.212z"/>
<polygon fill="#FFFFFF" points="458.182,278.16 447.481,277.973 446.168,273.468 457.243,273.279 "/>
<ellipse fill="#C7C19D" cx="416.696" cy="248.501" rx="3.379" ry="3.191"/>
<g>
	<g>
		<path fill="#3A2B11" d="M405.554,273.903c0.036-0.08,0.046-0.138,0.058-0.271l0.028-0.289c0.015-0.162,0.018-0.191,0.008-0.284
			c0.247,0.035,0.444,0.058,0.753,0.087l2.456,0.23c0.281,0.027,0.479,0.04,0.709,0.049l-0.047,0.497
			c-0.214-0.034-0.434-0.06-0.706-0.085l-2.39-0.224l-0.009,0.091c-0.008,0.089-0.007,0.179,0.007,0.281L405.554,273.903z"/>
		<path fill="#3A2B11" d="M409.3,272.476c-0.162,0.061-0.346,0.101-0.536,0.117c-0.338,0.028-0.703,0.024-1.082-0.012
			c-0.492-0.046-0.998-0.151-1.285-0.265c-0.465-0.184-0.705-0.445-0.678-0.732c0.021-0.221,0.194-0.4,0.488-0.513
			c0.162-0.061,0.345-0.101,0.536-0.118c0.338-0.028,0.702-0.023,1.086,0.013c0.492,0.045,1.002,0.151,1.289,0.265
			c0.456,0.181,0.696,0.445,0.668,0.734C409.767,272.188,409.599,272.363,409.3,272.476z M407.689,272.111
			c0.838,0.079,1.281,0.003,1.302-0.223c0.021-0.223-0.39-0.377-1.225-0.455c-0.801-0.075-1.234,0.004-1.255,0.225
			C406.491,271.872,406.925,272.038,407.689,272.111z"/>
		<path fill="#3A2B11" d="M409.465,270.714c-0.162,0.061-0.345,0.102-0.536,0.118c-0.338,0.028-0.702,0.024-1.082-0.012
			c-0.492-0.045-0.998-0.15-1.285-0.265c-0.465-0.184-0.705-0.445-0.678-0.732c0.021-0.221,0.194-0.4,0.488-0.513
			c0.162-0.061,0.345-0.101,0.536-0.117c0.338-0.028,0.702-0.024,1.086,0.012c0.492,0.046,1.002,0.151,1.289,0.266
			c0.456,0.18,0.696,0.444,0.668,0.733C409.932,270.427,409.764,270.602,409.465,270.714z M407.854,270.35
			c0.839,0.079,1.281,0.002,1.302-0.223c0.021-0.223-0.39-0.376-1.224-0.455c-0.801-0.075-1.234,0.004-1.255,0.225
			C406.656,270.111,407.09,270.278,407.854,270.35z"/>
		<path fill="#3A2B11" d="M409.63,268.954c-0.162,0.061-0.345,0.101-0.536,0.118c-0.338,0.028-0.702,0.023-1.082-0.012
			c-0.492-0.046-0.998-0.151-1.285-0.266c-0.465-0.184-0.705-0.445-0.678-0.732c0.021-0.221,0.193-0.4,0.488-0.513
			c0.162-0.061,0.345-0.101,0.536-0.118c0.338-0.028,0.702-0.023,1.086,0.012c0.492,0.046,1.002,0.151,1.29,0.266
			c0.455,0.181,0.696,0.444,0.668,0.734C410.096,268.666,409.929,268.841,409.63,268.954z M408.019,268.589
			c0.839,0.079,1.281,0.003,1.302-0.223c0.021-0.223-0.39-0.377-1.224-0.455c-0.801-0.075-1.234,0.004-1.255,0.225
			C406.822,268.35,407.255,268.518,408.019,268.589z"/>
		<path fill="#3A2B11" d="M409.795,267.193c-0.162,0.061-0.345,0.101-0.536,0.117c-0.338,0.028-0.702,0.024-1.082-0.011
			c-0.492-0.046-0.998-0.151-1.285-0.265c-0.465-0.184-0.705-0.445-0.678-0.732c0.021-0.221,0.193-0.4,0.488-0.513
			c0.162-0.061,0.345-0.101,0.536-0.118c0.338-0.028,0.702-0.024,1.086,0.012c0.493,0.046,1.002,0.151,1.29,0.266
			c0.455,0.181,0.695,0.444,0.668,0.733C410.262,266.905,410.094,267.081,409.795,267.193z M408.184,266.828
			c0.839,0.079,1.281,0.003,1.302-0.223c0.021-0.223-0.39-0.376-1.224-0.455c-0.801-0.075-1.234,0.004-1.255,0.225
			C406.987,266.59,407.42,266.756,408.184,266.828z"/>
	</g>
	<g>
		<path fill="#3A2B11" d="M390.876,282.725c0.047-0.079,0.066-0.138,0.098-0.27l0.07-0.29c0.039-0.162,0.046-0.191,0.049-0.284
			c0.242,0.035,0.435,0.058,0.74,0.087l2.422,0.23c0.278,0.026,0.473,0.04,0.703,0.048l-0.119,0.497
			c-0.209-0.034-0.425-0.06-0.694-0.084l-2.357-0.225l-0.022,0.091c-0.021,0.089-0.033,0.179-0.034,0.281L390.876,282.725z"/>
		<path fill="#3A2B11" d="M394.831,281.297c-0.171,0.061-0.36,0.101-0.553,0.118c-0.343,0.028-0.706,0.024-1.08-0.012
			c-0.485-0.046-0.976-0.151-1.246-0.265c-0.438-0.184-0.64-0.445-0.571-0.732c0.053-0.221,0.252-0.4,0.563-0.513
			c0.171-0.061,0.36-0.101,0.553-0.118c0.343-0.028,0.705-0.023,1.084,0.012c0.485,0.046,0.98,0.151,1.251,0.266
			c0.429,0.181,0.631,0.444,0.561,0.734C395.339,281.01,395.146,281.185,394.831,281.297z M393.273,280.933
			c0.827,0.079,1.281,0.003,1.335-0.223c0.054-0.223-0.335-0.376-1.158-0.455c-0.79-0.075-1.235,0.003-1.288,0.225
			C392.111,280.694,392.52,280.861,393.273,280.933z"/>
		<path fill="#3A2B11" d="M395.254,279.537c-0.171,0.06-0.36,0.101-0.553,0.117c-0.342,0.028-0.705,0.024-1.08-0.011
			c-0.485-0.046-0.975-0.151-1.246-0.265c-0.438-0.184-0.64-0.445-0.571-0.732c0.053-0.221,0.252-0.4,0.563-0.513
			c0.171-0.06,0.36-0.101,0.553-0.118c0.342-0.028,0.706-0.024,1.085,0.012c0.485,0.046,0.98,0.152,1.25,0.266
			c0.429,0.181,0.631,0.444,0.561,0.733C395.762,279.249,395.569,279.425,395.254,279.537z M393.696,279.172
			c0.827,0.079,1.28,0.003,1.334-0.223c0.054-0.223-0.335-0.376-1.157-0.455c-0.791-0.075-1.235,0.004-1.288,0.225
			C392.533,278.933,392.943,279.1,393.696,279.172z"/>
		<path fill="#3A2B11" d="M395.676,277.776c-0.17,0.061-0.36,0.101-0.553,0.117c-0.342,0.028-0.705,0.024-1.08-0.012
			c-0.485-0.046-0.975-0.151-1.246-0.265c-0.438-0.184-0.64-0.446-0.571-0.733c0.053-0.221,0.252-0.4,0.563-0.512
			c0.17-0.061,0.36-0.102,0.553-0.118c0.342-0.028,0.705-0.023,1.085,0.012c0.485,0.046,0.98,0.152,1.25,0.266
			c0.43,0.181,0.631,0.444,0.562,0.734C396.185,277.488,395.992,277.663,395.676,277.776z M394.119,277.411
			c0.828,0.079,1.281,0.003,1.335-0.222c0.053-0.223-0.335-0.376-1.158-0.455c-0.791-0.075-1.235,0.003-1.288,0.225
			C392.956,277.173,393.365,277.339,394.119,277.411z"/>
		<path fill="#3A2B11" d="M396.099,276.015c-0.171,0.061-0.36,0.101-0.553,0.117c-0.342,0.028-0.706,0.024-1.08-0.012
			c-0.485-0.046-0.976-0.151-1.246-0.265c-0.438-0.184-0.64-0.445-0.571-0.732c0.053-0.221,0.252-0.4,0.563-0.513
			c0.17-0.061,0.36-0.101,0.553-0.118c0.342-0.028,0.705-0.023,1.084,0.012c0.485,0.046,0.98,0.152,1.251,0.266
			c0.429,0.181,0.631,0.444,0.562,0.734C396.608,275.727,396.415,275.903,396.099,276.015z M394.542,275.65
			c0.827,0.079,1.281,0.003,1.335-0.222c0.053-0.224-0.335-0.377-1.158-0.455c-0.79-0.075-1.235,0.003-1.288,0.225
			C393.379,275.412,393.788,275.578,394.542,275.65z"/>
	</g>
	<g>
		<path fill="#3A2B11" d="M375.322,291.683c0.057-0.074,0.083-0.128,0.128-0.251l0.099-0.27c0.055-0.151,0.065-0.178,0.077-0.265
			c0.255,0.037,0.459,0.061,0.782,0.094l2.562,0.259c0.293,0.03,0.5,0.046,0.745,0.058l-0.17,0.463
			c-0.22-0.035-0.449-0.063-0.732-0.092l-2.494-0.252l-0.031,0.085c-0.03,0.083-0.051,0.167-0.061,0.262L375.322,291.683z"/>
		<path fill="#3A2B11" d="M379.662,290.417c-0.187,0.053-0.393,0.088-0.6,0.1c-0.368,0.02-0.754,0.009-1.15-0.031
			c-0.513-0.052-1.027-0.159-1.305-0.271c-0.451-0.18-0.644-0.429-0.546-0.696c0.076-0.206,0.303-0.37,0.644-0.47
			c0.187-0.054,0.393-0.088,0.6-0.1c0.367-0.02,0.754-0.009,1.155,0.032c0.514,0.052,1.032,0.159,1.31,0.271
			c0.442,0.177,0.634,0.427,0.535,0.697C380.229,290.157,380.008,290.318,379.662,290.417z M378.033,290.047
			c0.875,0.088,1.365,0.026,1.442-0.185c0.076-0.208-0.325-0.358-1.195-0.447c-0.836-0.085-1.317-0.019-1.393,0.188
			C376.814,289.803,377.236,289.967,378.033,290.047z"/>
		<path fill="#3A2B11" d="M380.265,288.776c-0.187,0.054-0.392,0.088-0.599,0.1c-0.368,0.02-0.754,0.009-1.15-0.031
			c-0.513-0.051-1.027-0.159-1.305-0.271c-0.451-0.18-0.644-0.428-0.546-0.696c0.076-0.206,0.303-0.37,0.644-0.47
			c0.187-0.053,0.393-0.088,0.6-0.1c0.367-0.02,0.754-0.009,1.155,0.032c0.513,0.051,1.032,0.159,1.31,0.271
			c0.442,0.177,0.634,0.428,0.535,0.697C380.832,288.516,380.611,288.676,380.265,288.776z M378.636,288.406
			c0.875,0.088,1.365,0.026,1.442-0.185c0.076-0.208-0.324-0.358-1.195-0.446c-0.836-0.085-1.317-0.019-1.393,0.187
			C377.417,288.161,377.839,288.325,378.636,288.406z"/>
		<path fill="#3A2B11" d="M380.868,287.134c-0.187,0.054-0.392,0.088-0.6,0.1c-0.367,0.021-0.754,0.01-1.15-0.03
			c-0.513-0.052-1.027-0.159-1.305-0.271c-0.451-0.18-0.644-0.428-0.546-0.696c0.076-0.206,0.303-0.37,0.644-0.47
			c0.187-0.054,0.393-0.088,0.6-0.1c0.368-0.02,0.754-0.01,1.155,0.031c0.513,0.052,1.032,0.159,1.31,0.271
			c0.442,0.177,0.634,0.428,0.535,0.697C381.435,286.874,381.214,287.035,380.868,287.134z M379.239,286.765
			c0.875,0.088,1.365,0.026,1.442-0.185c0.076-0.208-0.324-0.359-1.195-0.447c-0.836-0.085-1.317-0.019-1.393,0.187
			C378.02,286.519,378.442,286.684,379.239,286.765z"/>
		<path fill="#3A2B11" d="M381.471,285.492c-0.187,0.054-0.392,0.088-0.6,0.1c-0.367,0.02-0.754,0.01-1.15-0.03
			c-0.513-0.052-1.027-0.159-1.305-0.271c-0.451-0.18-0.644-0.428-0.546-0.696c0.076-0.206,0.303-0.37,0.644-0.47
			c0.187-0.054,0.393-0.088,0.6-0.1c0.367-0.02,0.754-0.01,1.155,0.031c0.513,0.052,1.032,0.159,1.31,0.272
			c0.442,0.176,0.634,0.427,0.535,0.697C382.038,285.233,381.817,285.393,381.471,285.492z M379.842,285.123
			c0.875,0.088,1.365,0.026,1.442-0.185c0.076-0.208-0.325-0.359-1.195-0.447c-0.836-0.085-1.317-0.019-1.393,0.188
			C378.623,284.878,379.045,285.042,379.842,285.123z"/>
	</g>
	<g>
		<path fill="#3A2B11" d="M417.352,271.436c-0.216,0-0.282,0.004-0.402,0.018v-0.576c0.114,0.014,0.186,0.018,0.402,0.018v-0.848
			c0-0.196-0.012-0.345-0.036-0.446h0.817c-0.019,0.111-0.03,0.237-0.03,0.432v0.862h0.246v-0.747c0-0.167-0.005-0.254-0.023-0.345
			h0.781c-0.018,0.104-0.023,0.188-0.023,0.345v2.009c0,0.15,0.006,0.251,0.023,0.342h-0.781c0.018-0.09,0.023-0.181,0.023-0.342
			v-0.722h-0.246v0.831c0,0.202,0.006,0.324,0.03,0.436h-0.817c0.024-0.098,0.036-0.248,0.036-0.45V271.436z M420.249,271.687
			c0.132,0.01,0.18,0.01,0.391,0.014c-0.096-0.548-0.271-1.005-0.487-1.256l0.685-0.38c0.012,0.039,0.024,0.056,0.036,0.084
			c0.024,0.035,0.024,0.035,0.036,0.07c0.012,0.028,0.018,0.032,0.03,0.059c0.133-0.147,0.199-0.282,0.247-0.505
			c0.48,0.01,0.661,0.027,0.866,0.076c0.408,0.098,0.462,0.251,0.462,1.295c0,0.973-0.072,1.085-0.691,1.085h-1.142v0.506
			c-0.168-0.014-0.282-0.018-0.451-0.018h-0.486c-0.193,0-0.325,0.004-0.469,0.014c0.018-0.108,0.024-0.202,0.024-0.394v-2.358
			c0-0.192-0.006-0.279-0.024-0.405c0.132,0.011,0.234,0.014,0.439,0.014h0.505c0.186,0,0.306-0.003,0.462-0.017v0.548h-0.607v2.079
			h0.174V271.687z M421.529,271.702c0.09,0,0.121-0.014,0.145-0.066c0.024-0.063,0.036-0.22,0.036-0.54
			c0-0.565-0.018-0.698-0.114-0.747c-0.066-0.031-0.282-0.049-0.649-0.049c0.222,0.454,0.367,0.918,0.433,1.403H421.529z"/>
		<path fill="#3A2B11" d="M418.08,268.722c0,0.181,0.012,0.37,0.036,0.527h-0.973c0.024-0.154,0.036-0.321,0.036-0.524v-2.145
			c0-0.195-0.012-0.356-0.036-0.52h0.973c-0.023,0.157-0.036,0.338-0.036,0.513v1.203c0.349,0.007,0.499,0.011,0.709,0.021v-0.952
			c0-0.224-0.006-0.359-0.03-0.489c0.162,0.015,0.162,0.015,0.877,0.028c0.991,0.018,1.857,0.083,2.223,0.164
			c0.487,0.108,0.625,0.272,0.625,0.733c0,0.111-0.012,0.233-0.036,0.418c-0.378,0.022-0.625,0.056-0.92,0.129
			c0.06-0.188,0.103-0.408,0.103-0.533c0-0.133-0.048-0.199-0.168-0.238c-0.216-0.063-0.925-0.115-1.827-0.128v0.928
			c0.619,0.063,1.1,0.161,1.574,0.317c0.601,0.202,0.961,0.401,1.376,0.761c-0.348,0.122-0.564,0.22-0.817,0.38
			c-0.3-0.283-0.517-0.422-0.871-0.569c-0.481-0.202-1.076-0.324-1.821-0.377c-0.313-0.024-0.511-0.032-0.998-0.035V268.722z"/>
		<path fill="#3A2B11" d="M421.776,265.125c0.397,0,0.601-0.003,0.757-0.018v0.583c-0.234-0.018-0.462-0.024-0.788-0.024h-3.996
			c-0.276,0-0.439,0.004-0.619,0.014c0.018-0.129,0.024-0.23,0.024-0.457v-2.115c0-0.233-0.006-0.345-0.024-0.439
			c0.18,0.014,0.367,0.018,0.757,0.018h3.882c0.349,0,0.577,0.083,0.655,0.241c0.042,0.076,0.061,0.209,0.061,0.39
			c0,0.094-0.006,0.237-0.012,0.402c-0.336,0.031-0.553,0.069-0.89,0.16c0.036-0.23,0.054-0.387,0.054-0.492
			c0-0.136-0.024-0.164-0.132-0.164h-1.111v1.901H421.776z M419.54,263.224h-1.515v0.705h1.515V263.224z M418.026,264.455v0.67
			h1.515v-0.67H418.026z"/>
	</g>
</g>
<g>
	<path fill="#040000" d="M430.872,271.278c0,0,0.134,1.199,0.212,1.909c-0.863,0-3.031,0-3.031,0v1.126h4.29l-0.351-3.16
		L430.872,271.278z"/>
	<path fill="#040000" d="M413.357,271.789c-1.164-0.012-2.08,0.655-2.452,1.784l1.07,0.352c0.292-0.888,0.984-1.014,1.37-1.01
		c0.611,0.006,1.098,0.326,1.165,0.544c0.044,0.144-0.213,0.335-0.293,0.39l0.64,0.927c0.919-0.635,0.816-1.363,0.729-1.646
		C415.352,272.364,414.415,271.801,413.357,271.789z"/>
	<path fill="#040000" d="M412.948,268.998c-0.049-0.768-0.564-1.292-1.414-1.436l-0.188,1.111c0.457,0.077,0.47,0.278,0.478,0.397
		c0.042,0.644-0.727,1.685-1.393,1.887l0.329,1.078C411.917,271.683,413.021,270.15,412.948,268.998z"/>
	<path fill="#040000" d="M429.178,272.265c0.45-0.25,0.966-0.866,0.87-2.376c-0.089-1.402-0.885-2.968-2.014-3.052
		c-0.474-0.035-1.327,0.179-1.72,2.009c0-0.001-0.03,0.154-0.031,0.157c-0.035,0.198-0.05,0.391-0.05,0.578
		c0,1.115,0.571,2.027,1.215,2.485C428.022,272.475,428.669,272.549,429.178,272.265z M428.101,271.149
		c-0.449-0.319-0.862-1.066-0.707-1.951l0.022-0.113c0.188-0.875,0.458-1.13,0.535-1.124c0.252,0.019,0.898,0.815,0.974,2
		c0.052,0.825-0.126,1.228-0.294,1.321C428.513,271.346,428.305,271.294,428.101,271.149z"/>
	
		<rect x="423.033" y="248.548" transform="matrix(0.2169 0.9762 -0.9762 0.2169 577.4924 -221.6888)" fill="#040000" width="7.788" height="1.126"/>
	
		<rect x="415.523" y="239.677" transform="matrix(0.0325 0.9995 -0.9995 0.0325 646.4642 -179.7619)" fill="#040000" width="1.127" height="8.733"/>
	<path fill="#040000" d="M433.114,256.436c0.769-0.664,1.823-1.08,2.754-1.446l1.059-0.441c0.287-0.12,0.401-0.439,0.281-0.727
		c-0.119-0.287-0.471-0.414-0.758-0.294l-0.995,0.414c-1.014,0.4-2.163,0.852-3.077,1.642c-0.235,0.204-0.262,0.559-0.058,0.794
		C432.523,256.614,432.878,256.64,433.114,256.436z"/>
	
		<rect x="435.437" y="258.31" transform="matrix(0.2976 0.9547 -0.9547 0.2976 555.6727 -237.4844)" fill="#040000" width="7.57" height="1.127"/>
	
		<rect x="447.124" y="267.602" transform="matrix(0.4522 0.8919 -0.8919 0.4522 486.1473 -255.2299)" fill="#040000" width="7.472" height="1.126"/>
	<path fill="#040000" d="M446.694,281.151l-1.053,0.402c0,0,0.242,0.634,0.46,1.207c-0.986,0-2.843,0-2.843,0v1.126h4.478
		L446.694,281.151z"/>
	<path fill="#040000" d="M444.69,278.899c-0.089-1.402-0.885-2.968-2.014-3.052c-0.474-0.035-1.327,0.179-1.72,2.01
		c0-0.001-0.03,0.154-0.031,0.157c-0.035,0.197-0.05,0.391-0.05,0.578c0,1.115,0.571,2.027,1.215,2.485
		c0.574,0.408,1.22,0.482,1.73,0.199C444.27,281.026,444.786,280.41,444.69,278.899z M443.272,280.292
		c-0.117,0.065-0.325,0.013-0.529-0.132c-0.449-0.32-0.862-1.066-0.708-1.952l0.022-0.113c0.188-0.874,0.458-1.129,0.535-1.124
		c0.252,0.019,0.898,0.815,0.974,2.001C443.619,279.796,443.441,280.199,443.272,280.292z"/>
	<path fill="#040000" d="M442.356,274.32c0.959-0.465,1.782-1.64,1.454-3.219c-0.064-0.305-0.362-0.5-0.666-0.437
		c-0.305,0.063-0.5,0.362-0.438,0.666c0.219,1.052-0.316,1.722-0.842,1.977c-0.493,0.238-1.233,0.237-1.835-0.481
		c-0.199-0.239-0.555-0.27-0.793-0.07c-0.238,0.2-0.27,0.555-0.07,0.793C440.004,274.549,441.256,274.852,442.356,274.32z"/>
	<path fill="#040000" d="M459.129,291.048l-0.015,1.126l5.711,0.08l-2.077-3.401l-0.961,0.587c0,0,0.556,0.91,1.014,1.659
		C461.551,291.082,459.129,291.048,459.129,291.048z"/>
	<path fill="#040000" d="M456.585,287.02c0,0-0.008,0.154-0.008,0.156c-0.001,0.03-0.001,0.061-0.001,0.091
		c0,1.348,0.912,2.424,1.778,2.863c0.675,0.342,1.327,0.331,1.789-0.03c0.374-0.293,0.754-0.927,0.441-2.285
		c-0.324-1.406-1.485-2.912-2.633-2.824C457.495,285.027,456.71,285.337,456.585,287.02z M458.036,286.116
		c0.328-0.025,1.185,0.802,1.45,1.953c0.172,0.745,0.057,1.071-0.039,1.145c-0.078,0.061-0.294,0.06-0.585-0.087
		c-0.597-0.302-1.186-1.058-1.16-1.917l0.005-0.105C457.762,286.372,457.953,286.122,458.036,286.116z"/>
	<path fill="#040000" d="M457.013,282.883c0.939-0.643,1.245-1.832,0.779-3.028c-0.113-0.29-0.439-0.433-0.729-0.32
		c-0.29,0.113-0.433,0.439-0.32,0.729c0.277,0.711,0.14,1.343-0.366,1.69c-0.524,0.359-1.425,0.381-2.256-0.379
		c-0.23-0.21-0.585-0.195-0.796,0.035c-0.21,0.23-0.194,0.585,0.035,0.796C454.646,283.583,456.122,283.495,457.013,282.883z"/>
	<path fill="#040000" d="M396.162,282.207l1.023,0.472c0.483-1.047,1.391-1.071,1.758-1.033c0.522,0.055,0.862,0.308,0.897,0.462
		c0.018,0.076-0.095,0.239-0.382,0.417l0.592,0.958c0.997-0.615,0.954-1.342,0.889-1.626c-0.159-0.695-0.914-1.23-1.878-1.331
		C398.081,280.424,396.805,280.812,396.162,282.207z"/>
	<path fill="#040000" d="M398.757,277.661c-0.018-0.331-0.182-1.122-1.32-1.314l-0.188,1.111c0.373,0.063,0.38,0.193,0.384,0.264
		c0.03,0.563-0.894,1.732-1.703,1.962l0.307,1.083C397.404,280.436,398.824,278.908,398.757,277.661z"/>
	<path fill="#040000" d="M384.323,290.612c0.316-0.035,0.519,0.007,0.638,0.052c-0.069,0.078-0.186,0.185-0.451,0.333l0.548,0.984
		c1.007-0.561,1.151-1.133,1.093-1.514c-0.069-0.462-0.466-0.814-1.063-0.94c-1.139-0.243-2.804,0.314-3.783,1.847l0.949,0.606
		C382.979,290.846,384.021,290.646,384.323,290.612z"/>
	<path fill="#040000" d="M384.609,286.625c-0.013-0.293-0.155-0.994-1.184-1.174l-0.194,1.11c0.17,0.03,0.239,0.077,0.25,0.091
		c0.007,0.018,0.013,0.138-0.1,0.37c-0.346,0.705-1.361,1.578-2.049,1.763l0.293,1.088
		C382.918,289.525,384.663,287.823,384.609,286.625z"/>
	<path fill="#040000" d="M468.538,293.433c-0.012-0.03-0.021-0.061-0.037-0.089l-18.23-34.118c-0.147-0.276-0.435-0.447-0.747-0.447
		l-6.674,0.014l-2.479-8.144c-0.108-0.356-0.438-0.599-0.81-0.599l-8.973,0.019c-0.011,0-0.021,0.003-0.031,0.003l-1.722-8.542
		c-0.08-0.394-0.426-0.678-0.828-0.678H409.14c-0.407,0-0.756,0.29-0.831,0.691l-1.581,8.525l-8.58-0.018
		c-0.372-0.001-0.701,0.242-0.81,0.599l-2.48,8.144l-6.673-0.014c-0.324-0.001-0.62,0.184-0.762,0.476l-16.541,34.119
		c-0.009,0.019-0.014,0.039-0.022,0.058c-0.126,0.147-0.205,0.336-0.205,0.545v8.635c0,0.467,0.378,0.845,0.845,0.845h32.288h31.444
		h32.663c0.466,0,0.845-0.378,0.845-0.845v-8.635C468.741,293.768,468.663,293.58,468.538,293.433z M434.389,301.767h-29.754v-2.591
		c0.016,0.002,0.031,0.01,0.048,0.01h16.519c0.312,0,0.563-0.252,0.563-0.564c0-0.311-0.251-0.563-0.563-0.563h-16.519
		c-0.017,0-0.031,0.008-0.048,0.01v-0.958c0.016,0.001,0.031,0.01,0.048,0.01h16.519c0.312,0,0.563-0.252,0.563-0.563
		c0-0.311-0.251-0.563-0.563-0.563h-16.519c-0.017,0-0.031,0.008-0.048,0.01v-1.276h13.235h1.407h15.112V301.767z M379.85,278.75
		c0.006,0,0.012,0.001,0.018,0.001l0.933,0.002c0.052,0.072,0.112,0.139,0.184,0.186c0,0,0.012,0.008,0.013,0.008
		c-0.239,0.166-0.465,0.323-0.665,0.394c-0.178,0.063-0.314,0.211-0.359,0.396c-0.011,0.044-0.017,0.09-0.017,0.135
		c0,0.105,0.056,0.197,0.112,0.287c-0.06-0.021-0.129-0.029-0.187-0.051c-0.29-0.113-0.616,0.03-0.729,0.32
		c-0.113,0.29,0.029,0.616,0.32,0.729c0.761,0.297,1.652,0.409,2.648,0.332c0.277-0.021,0.497-0.241,0.518-0.519
		c0.001-0.014,0.002-0.029,0.002-0.043c0-0.259-0.178-0.488-0.435-0.548c-0.275-0.064-0.516-0.211-0.741-0.39
		c0.06-0.041,0.122-0.08,0.181-0.12l0.627-0.378c0.166-0.1,0.26-0.327,0.264-0.52c0-0.003,0-0.006,0-0.009
		c0-0.067-0.016-0.137-0.04-0.206l6.279,0.013l-1.78,5.846c-0.176,0.155-0.289,0.379-0.289,0.632v7.884h-13.83
		C373.977,290.862,376.848,284.942,379.85,278.75z M381.864,274.595l8.178,0.018l-0.752,2.469l-8.623-0.018
		C381.068,276.238,381.468,275.412,381.864,274.595z M394.54,265.866l9.249,0.048l-0.458,2.47l-9.612-0.048
		c0.252-0.829,0.505-1.658,0.754-2.478C394.496,265.861,394.517,265.866,394.54,265.866z M430.209,256.902
		c0.169,0.839,0.34,1.686,0.511,2.534h-24.012c0.158-0.848,0.315-1.696,0.47-2.534H430.209z M415.183,255.213
		c0.123-0.437,0.388-0.838,0.803-1.196c0.948-0.816,2.56-1.285,3.833-1.115c1.382,0.185,2.237,1.21,3.129,2.312H415.183z
		 M456.463,274.4c0.471,0.881,0.948,1.773,1.425,2.667c-0.017-0.001-0.033-0.005-0.05-0.005l-9.419,0.02l-0.751-2.469l8.264-0.018
		C456.134,274.594,456.318,274.519,456.463,274.4z M403.602,284.403c0-0.553,0-1.769,0-3.05h16.473c0.311,0,0.563-0.252,0.563-0.564
		c0-0.311-0.252-0.563-0.563-0.563h-16.473c0-0.323,0-0.64,0-0.939h16.473c0.311,0,0.563-0.252,0.563-0.563
		c0-0.312-0.252-0.563-0.563-0.563h-16.473c0-0.286,0-0.53,0-0.704c1.559,0,29.04,0,30.599,0c0,1.226,0,5.72,0,6.945
		C432.642,284.403,405.161,284.403,403.602,284.403z M393.205,270.023l0.889,0.004c0.056,0.076,0.122,0.143,0.2,0.188
		c0,0,0.06,0.035,0.099,0.057c-0.182,0.144-0.359,0.284-0.516,0.344c-0.183,0.069-0.318,0.229-0.355,0.421
		c-0.007,0.035-0.01,0.07-0.01,0.105c0,0.093,0.066,0.166,0.11,0.248c-0.019-0.007-0.042-0.009-0.061-0.016
		c-0.293-0.107-0.616,0.044-0.722,0.336c-0.107,0.292,0.044,0.615,0.336,0.722c0.806,0.293,1.71,0.404,2.689,0.328
		c0.278-0.022,0.498-0.243,0.518-0.521c0.001-0.014,0.001-0.027,0.001-0.041c0-0.261-0.181-0.49-0.44-0.549
		c-0.322-0.073-0.618-0.246-0.902-0.452c0.034-0.026,0.073-0.053,0.106-0.079l0.533-0.361c0.155-0.105,0.252-0.326,0.252-0.515
		c0-0.007-0.001-0.013-0.001-0.02c-0.002-0.061-0.017-0.124-0.037-0.186l7.123,0.036l-1.185,6.386
		c-0.035,0.189-0.001,0.374,0.079,0.533v7.412h-13.086C389.456,282.335,391.284,276.332,393.205,270.023z M435.89,276.618
		c0-0.001,0-0.003,0-0.004v-0.001c0-0.013-0.003-0.025-0.004-0.039c-0.002-0.043-0.004-0.085-0.013-0.128l-1.285-6.373l9.915-0.05
		c1.921,6.31,3.749,12.313,4.379,14.38H435.89V276.618z M443.236,265.859c0.24,0.788,0.482,1.583,0.724,2.379
		c-0.072,0.02-0.137,0.053-0.198,0.1l-9.514,0.048l-0.498-2.47l9.419-0.049C443.192,265.866,443.213,265.861,443.236,265.859z
		 M433.41,264.227l-0.315-1.565c0.777,0.298,1.384,0.881,1.96,1.557L433.41,264.227z M434.013,275.768h-30.334
		c0.429-2.314,1.547-8.34,2.716-14.642h0.974c0.059,0.08,0.13,0.152,0.214,0.199c0,0,0.091,0.051,0.18,0.1
		c-0.153,0.139-0.303,0.275-0.436,0.329c-0.182,0.075-0.312,0.239-0.343,0.434c-0.004,0.029-0.007,0.058-0.007,0.087
		c0,0.091,0.069,0.158,0.111,0.238c-0.283-0.08-0.582,0.067-0.684,0.346c-0.105,0.293,0.049,0.614,0.34,0.721
		c0.825,0.296,1.729,0.406,2.685,0.325c0.277-0.023,0.496-0.245,0.516-0.522c0-0.013,0.001-0.026,0.001-0.039
		c0-0.261-0.182-0.491-0.44-0.549c-0.353-0.079-0.688-0.277-1.014-0.507c0.026-0.024,0.057-0.047,0.082-0.07l0.458-0.353
		c0.14-0.108,0.232-0.321,0.232-0.503c0-0.013,0-0.026-0.001-0.038c-0.005-0.065-0.022-0.133-0.046-0.198h18.639
		c-0.253,0.097-0.411,0.357-0.354,0.63c0.219,1.052-0.317,1.722-0.842,1.977c-0.493,0.238-1.234,0.237-1.835-0.481
		c-0.2-0.239-0.555-0.27-0.793-0.07c-0.239,0.2-0.27,0.555-0.07,0.793c0.838,1.001,2.09,1.305,3.189,0.772
		c0.96-0.465,1.782-1.64,1.454-3.219c-0.04-0.194-0.18-0.335-0.353-0.401h2.71c0.033,0,0.065-0.006,0.097-0.01
		C432.329,267.414,433.544,273.441,434.013,275.768z M404.868,260.096c-0.832,0.071-1.822-0.122-2.216-0.887
		c-0.515-1,0.018-2.686,1.164-3.681c0.584-0.508,1.236-0.656,1.985-0.46L404.868,260.096z M391.852,268.666
		c-0.283-0.12-0.539-0.319-0.652-0.651c-0.202-0.6-0.505-2.121,1.054-3.295c0.173-0.129,0.494-0.107,0.815-0.054L391.852,268.666z
		 M388.396,293.038c0-0.471,0-1.424,0-2.488h16.473c0.311,0,0.563-0.252,0.563-0.563c0-0.311-0.252-0.563-0.563-0.563h-16.473
		c0-0.317,0-0.633,0-0.939h16.473c0.311,0,0.563-0.252,0.563-0.563c0-0.311-0.252-0.563-0.563-0.563h-16.473
		c0-0.537,0-0.988,0-1.266c1.503,0,14.032,0,14.032,0c0.057,0,0.113-0.006,0.167-0.017c0.052,0.011,0.106,0.017,0.162,0.017h15.674
		c0,0.525,0,5.67,0,6.946c-0.096,0-0.288,0-0.562,0C413.667,293.038,389.858,293.038,388.396,293.038z M420.121,293.038v-2.676
		h16.474c0.311,0,0.563-0.252,0.563-0.563c0-0.311-0.252-0.563-0.563-0.563h-16.474v-0.939h16.474c0.311,0,0.563-0.252,0.563-0.563
		c0-0.311-0.252-0.563-0.563-0.563h-16.474v-1.079h14.924c0.04,0,0.077-0.006,0.115-0.011c0.04,0.005,0.079,0.012,0.121,0.012
		c0,0,12.529,0,14.032,0c0,1.226,0,5.72,0,6.946C447.979,293.038,427.097,293.038,420.121,293.038z M450.713,284.616l-1.78-5.846
		l8.908-0.019c0.31,0,0.578-0.17,0.724-0.418c3.38,6.326,6.654,12.452,7.908,14.799h-15.47v-7.884
		C451.002,284.995,450.889,284.771,450.713,284.616z M449.019,260.469c0.188,0.353,3.166,5.924,6.645,12.437l-8.511,0.019
		l-0.627-2.06c0.965,0.438,1.979,0.741,2.936,0.726c0.311-0.005,0.559-0.261,0.554-0.572c-0.005-0.311-0.261-0.559-0.572-0.554
		c-1.082,0.017-2.32-0.502-3.373-1.093l-1.373-4.51c0.472-0.326,0.858-0.467,1.316-0.635l0.955-0.385
		c0.289-0.117,0.4-0.433,0.284-0.721c-0.116-0.288-0.472-0.416-0.76-0.3l-0.866,0.349c-0.414,0.151-0.813,0.297-1.271,0.572
		l-0.993-3.261C444.913,260.478,448.348,260.471,449.019,260.469z M438.937,251.741c0.142,0.467,1.828,6.003,3.787,12.438
		l-6.213,0.033l-0.054-0.064c-0.909-1.124-1.941-2.376-3.612-2.724l-0.22-1.093c0.024,0.026,0.043,0.057,0.073,0.079
		c1.743,1.259,3.572,2.029,5.591,2.352c0.307,0.049,0.596-0.16,0.645-0.467c0.049-0.307-0.16-0.596-0.467-0.645
		c-1.841-0.295-3.513-0.999-5.109-2.153c-0.252-0.182-0.604-0.126-0.787,0.126c-0.03,0.042-0.044,0.09-0.062,0.136l-1.613-8.001
		C432.284,251.754,437.985,251.743,438.937,251.741z M409.842,242.542c1.253,0,16.238,0,17.472,0
		c0.105,0.523,1.237,6.136,2.555,12.671h-5.456l-0.534-0.64c-0.963-1.191-2.056-2.54-3.911-2.788
		c-0.496-0.066-1.026-0.048-1.558,0.027c0.08-0.033,0.16-0.067,0.237-0.105c0.546-0.268,0.988-0.622,1.321-1.037
		c0.038,0.063,0.088,0.119,0.152,0.165c1.512,1.093,3.727,2.39,5.688,2.359c0.312-0.005,0.56-0.261,0.555-0.572
		c-0.005-0.311-0.261-0.559-0.572-0.554c-1.739,0.027-3.886-1.333-5.011-2.146c-0.097-0.07-0.208-0.094-0.319-0.096
		c0.311-0.791,0.309-1.708-0.047-2.65c-0.029-0.077-0.074-0.142-0.128-0.197c0.089-0.019,0.177-0.052,0.251-0.117
		c0.769-0.664,1.823-1.08,2.754-1.446l1.059-0.441c0.287-0.12,0.401-0.439,0.282-0.726c-0.12-0.287-0.471-0.414-0.758-0.294
		l-0.996,0.414c-1.014,0.4-2.163,0.853-3.077,1.642c-0.235,0.204-0.262,0.559-0.058,0.794c0.01,0.012,0.025,0.017,0.037,0.028
		c-0.03,0.006-0.061,0.004-0.09,0.015c-0.292,0.11-0.439,0.435-0.329,0.726c0.727,1.926-0.605,2.826-1.21,3.123
		c-1.183,0.581-2.885,0.519-3.571-0.596c-0.698-1.132-0.214-2.85,0.675-3.744c0.292-0.293,1.18-1.186,3.403,0.306
		c0.258,0.174,0.608,0.105,0.781-0.153c0.173-0.259,0.105-0.608-0.153-0.782c-2.475-1.662-3.992-1.007-4.829-0.165
		c-1.213,1.219-1.857,3.471-0.835,5.129c0.722,1.17,2.078,1.597,3.397,1.471c-0.663,0.244-1.279,0.581-1.767,1.001
		c-0.673,0.58-1.087,1.281-1.224,2.05h-3.676l0.802-5.884c0.042-0.308-0.174-0.592-0.482-0.634
		c-0.308-0.042-0.591,0.174-0.634,0.482l-0.823,6.037h-1.722C408.703,248.684,409.744,243.074,409.842,242.542z M398.772,251.741
		c0.878,0.002,5.795,0.012,7.643,0.016l-0.146,0.788l-5.819,0.24l0.046,1.125l5.562-0.23l-0.051,0.278
		c-1.079-0.257-2.086-0.016-2.93,0.718c-1.366,1.188-2.273,3.401-1.426,5.047c0.509,0.987,1.64,1.541,3.007,1.508l-0.555,2.995
		l-6.326-0.033l1.496-5.719c0.079-0.301-0.102-0.608-0.402-0.687c-0.301-0.079-0.609,0.101-0.687,0.402l-1.569,5.997l-1.629-0.009
		C396.944,257.743,398.63,252.208,398.772,251.741z M388.713,260.469c0.695,0.001,4.094,0.009,5.632,0.012l-0.239,0.786
		l-4.065,0.247l0.068,1.124l3.647-0.222l-0.355,1.164c-0.567-0.107-1.264-0.182-1.823,0.24c-1.488,1.121-2.028,2.824-1.444,4.555
		c0.217,0.644,0.701,1.114,1.39,1.372l-0.968,3.178l-5.066-0.011l2.469-5.625c0.125-0.285-0.005-0.618-0.289-0.742
		c-0.285-0.125-0.617,0.005-0.742,0.289l-2.667,6.076l-1.578-0.003C385.833,266.409,388.531,260.844,388.713,260.469z
		 M372.346,299.186h16.379c0.311,0,0.563-0.252,0.563-0.564c0-0.311-0.252-0.563-0.563-0.563h-16.379c0-0.318,0-0.634,0-0.939
		h16.379c0.311,0,0.563-0.252,0.563-0.563c0-0.311-0.252-0.563-0.563-0.563h-16.379c0-0.496,0-0.911,0-1.173
		c1.517,0,15.252,0,15.252,0c0.138,0,0.265-0.036,0.38-0.094h14.966c0,1.733,0,5.954,0,7.039c-1.559,0-29.039,0-30.598,0
		C372.346,301.283,372.346,300.288,372.346,299.186z M467.052,301.767c-1.561,0-29.413,0-30.974,0c0-0.455,0-1.464,0-2.61
		c0.046,0.013,0.091,0.029,0.141,0.029h16.519c0.312,0,0.563-0.252,0.563-0.564c0-0.311-0.252-0.563-0.563-0.563h-16.519
		c-0.05,0-0.094,0.016-0.141,0.028c0-0.334,0-0.669,0-0.996c0.046,0.012,0.091,0.028,0.141,0.028h16.519
		c0.312,0,0.563-0.252,0.563-0.563c0-0.311-0.252-0.563-0.563-0.563h-16.519c-0.05,0-0.094,0.016-0.141,0.028
		c0-0.502,0-0.948,0-1.295h13.653c0.114,0.058,0.242,0.094,0.379,0.094c0,0,15.409,0,16.941,0
		C467.052,296.048,467.052,300.541,467.052,301.767z"/>
</g>
<g>
	<polygon fill-rule="evenodd" clip-rule="evenodd" fill="#1F2D2F" points="416.684,318.626 416.684,339.406 406.478,339.406 
		422.15,360.553 438.198,339.406 427.624,339.406 427.624,318.626 416.684,318.626 	"/>
	<polygon fill="none" stroke="#131E1F" stroke-width="0.9882" stroke-miterlimit="2.6131" points="416.684,318.626 416.684,339.406 
		406.478,339.406 422.15,360.553 438.198,339.406 427.624,339.406 427.624,318.626 416.684,318.626 	"/>
	<polygon fill-rule="evenodd" clip-rule="evenodd" fill="#FFFFFF" points="417.781,317.897 417.781,338.678 407.567,338.678 
		423.247,359.824 439.287,338.678 428.713,338.678 428.713,317.897 417.781,317.897 	"/>
	<polygon fill="none" stroke="#131E1F" stroke-width="0.9882" stroke-miterlimit="2.6131" points="417.781,317.897 417.781,338.678 
		407.567,338.678 423.247,359.824 439.287,338.678 428.713,338.678 428.713,317.897 417.781,317.897 	"/>
</g>
<g>
	<polygon fill-rule="evenodd" clip-rule="evenodd" fill="#1F2D2F" points="439.27,329.042 453.964,343.736 446.747,350.953 
		472.782,354.824 469.177,328.523 461.7,336.001 447.006,321.307 439.27,329.042 	"/>
	<polygon fill="none" stroke="#131E1F" stroke-width="0.9882" stroke-miterlimit="2.6131" points="439.27,329.042 453.964,343.736 
		446.747,350.953 472.782,354.824 469.177,328.523 461.7,336.001 447.006,321.307 439.27,329.042 	"/>
	<polygon fill-rule="evenodd" clip-rule="evenodd" fill="#FFFFFF" points="439.53,327.751 454.224,342.445 447.002,349.668 
		473.042,353.533 469.432,327.238 461.954,334.715 447.26,320.021 439.53,327.751 	"/>
	<polygon fill="none" stroke="#131E1F" stroke-width="0.9882" stroke-miterlimit="2.6131" points="439.53,327.751 454.224,342.445 
		447.002,349.668 473.042,353.533 469.432,327.238 461.954,334.715 447.26,320.021 439.53,327.751 	"/>
</g>
<g>
	<polygon fill-rule="evenodd" clip-rule="evenodd" fill="#1F2D2F" points="394.957,319.83 380.263,334.524 373.046,327.308 
		369.175,353.342 395.476,349.738 387.999,342.26 402.693,327.566 394.957,319.83 	"/>
	<polygon fill="none" stroke="#131E1F" stroke-width="0.9882" stroke-miterlimit="2.6131" points="394.957,319.83 380.263,334.524 
		373.046,327.308 369.175,353.342 395.476,349.738 387.999,342.26 402.693,327.566 394.957,319.83 	"/>
	<polygon fill-rule="evenodd" clip-rule="evenodd" fill="#FFFFFF" points="396.248,320.091 381.554,334.785 374.331,327.562 
		370.466,353.603 396.761,349.992 389.284,342.515 403.978,327.821 396.248,320.091 	"/>
	<polygon fill="none" stroke="#131E1F" stroke-width="0.9882" stroke-miterlimit="2.6131" points="396.248,320.091 381.554,334.785 
		374.331,327.562 370.466,353.603 396.761,349.992 389.284,342.515 403.978,327.821 396.248,320.091 	"/>
</g>
</svg>
