<?xml version="1.0" encoding="utf-8"?>
<!-- Generator: Adobe Illustrator 17.0.1, SVG Export Plug-In . SVG Version: 6.00 Build 0)  -->
<!DOCTYPE svg PUBLIC "-//W3C//DTD SVG 1.1//EN" "http://www.w3.org/Graphics/SVG/1.1/DTD/svg11.dtd">
<svg version="1.1" id="レイヤー_1" xmlns="http://www.w3.org/2000/svg" xmlns:xlink="http://www.w3.org/1999/xlink" x="0px"
	 y="0px" width="841.89px" height="595.28px" viewBox="0 0 841.89 595.28" enable-background="new 0 0 841.89 595.28"
	 xml:space="preserve">
<rect x="350.121" y="226.526" fill="#FFFFFF" stroke="#A660A3" stroke-width="2" stroke-miterlimit="10" width="141.732" height="141.732"/>
<g>
	<polygon fill="#FFFFFF" points="377.871,269.972 375.121,273.722 377.371,276.472 380.371,273.222 	"/>
	<polygon fill="#FFFFFF" points="433.871,260.222 431.121,263.972 433.371,266.722 436.371,263.472 	"/>
	<polygon fill="#FFFFFF" points="455.371,275.972 452.621,279.722 454.871,282.472 457.871,279.222 	"/>
	<ellipse fill="#CCCCCC" cx="424.746" cy="295.722" rx="10.375" ry="3.5"/>
	<ellipse fill="#E0E1E1" cx="441.246" cy="300.472" rx="10.375" ry="3.5"/>
	<ellipse fill="#CCCCCC" cx="449.746" cy="308.222" rx="10.375" ry="3.5"/>
	<ellipse fill="#CCCCCC" cx="458.246" cy="316.472" rx="10.375" ry="3.5"/>
	<ellipse fill="#CCCCCC" cx="438.746" cy="316.222" rx="10.375" ry="3.5"/>
	<ellipse fill="#CCCCCC" cx="440.496" cy="308.972" rx="10.375" ry="3.5"/>
	<ellipse fill="#CCCCCC" cx="430.496" cy="303.722" rx="10.375" ry="3.5"/>
	<ellipse fill="#CCCCCC" cx="422.996" cy="307.972" rx="10.375" ry="3.5"/>
	<ellipse fill="#CCCCCC" cx="413.746" cy="301.472" rx="10.375" ry="3.5"/>
	<path fill="#E0E1E1" d="M405.746,305.972c-5.729,0-10.375,1.567-10.375,3.5s4.646,3.5,10.375,3.5c2.877,0,5.48-0.396,7.359-1.034
		c-0.02-1.655-0.069-3.348-0.194-4.994C411.048,306.343,408.528,305.972,405.746,305.972z"/>
	<ellipse fill="#CCCCCC" cx="397.496" cy="314.722" rx="10.375" ry="3.5"/>
	<ellipse fill="#CCCCCC" cx="386.746" cy="329.222" rx="10.375" ry="3.5"/>
	<ellipse fill="#CCCCCC" cx="410.996" cy="336.472" rx="9.875" ry="3.5"/>
	<ellipse fill="#E0E1E1" cx="417.246" cy="316.222" rx="10.375" ry="3.5"/>
	<path fill="#84949A" d="M414.621,296.555c0.005,1.127-0.084,2.693,0.296,3.704c0.389,1.032,1.284,1.393,2.37,1.843
		c2.125,0.879,4.478,1.175,6.834,1.287c2.586,0.123,4.847-0.424,7.204-1.13c0.958-0.287,2.602-0.21,3.292-0.912
		c0.75-0.763,0.372-3.239-0.162-4.233c-1.749,2.329-7.337,2.945-9.999,2.774c-3.094-0.198-6.94-1.368-9.5-3.167L414.621,296.555z"/>
	<path fill="#84949A" d="M420.288,303.722c0.005,1.127-0.085,2.693,0.296,3.704c0.389,1.032,1.284,1.393,2.37,1.843
		c2.125,0.879,4.478,1.175,6.834,1.287c2.586,0.123,4.847-0.424,7.204-1.13c0.958-0.287,2.602-0.21,3.292-0.912
		c0.75-0.763,0.372-3.239-0.162-4.233c-1.749,2.329-7.337,2.945-9.999,2.774c-3.094-0.198-6.94-1.368-9.5-3.167L420.288,303.722z"/>
	<path fill="#B7B8B8" d="M407.455,317.055c0.005,1.127-0.085,2.693,0.296,3.704c0.389,1.032,1.284,1.394,2.37,1.843
		c2.125,0.879,4.478,1.175,6.834,1.287c2.586,0.123,4.847-0.424,7.204-1.13c0.958-0.287,2.602-0.21,3.292-0.912
		c0.75-0.763,0.372-3.239-0.162-4.232c-1.749,2.329-7.337,2.944-9.999,2.774c-3.094-0.198-6.94-1.368-9.5-3.167L407.455,317.055z"/>
	<path fill="#84949A" d="M427.455,317.055c0.005,1.127-0.085,2.693,0.296,3.704c0.389,1.032,1.284,1.394,2.37,1.843
		c2.125,0.879,4.478,1.175,6.834,1.287c2.586,0.123,4.847-0.424,7.204-1.13c0.958-0.287,2.602-0.21,3.292-0.912
		c0.75-0.763,0.372-3.239-0.162-4.232c-1.749,2.329-7.337,2.944-9.999,2.774c-3.094-0.198-6.94-1.368-9.5-3.167L427.455,317.055z"/>
	<path fill="#84949A" d="M448.288,316.888c0.005,1.127-0.084,2.693,0.296,3.704c0.389,1.032,1.284,1.394,2.37,1.843
		c2.125,0.879,4.478,1.175,6.834,1.287c2.586,0.123,4.847-0.424,7.204-1.13c0.958-0.287,2.602-0.21,3.292-0.912
		c0.75-0.763,0.372-3.239-0.162-4.232c-1.749,2.329-7.337,2.944-9.999,2.774c-3.094-0.198-6.94-1.368-9.501-3.167L448.288,316.888z"
		/>
	<path fill="#84949A" d="M431.121,309.721c0.005,1.127-0.084,2.693,0.296,3.704c0.389,1.032,1.284,1.394,2.37,1.843
		c2.125,0.879,4.478,1.175,6.834,1.287c2.586,0.123,4.847-0.424,7.204-1.13c0.958-0.287,2.602-0.21,3.292-0.912
		c0.75-0.763,0.372-3.239-0.162-4.232c-1.749,2.329-7.337,2.944-9.999,2.774c-3.094-0.198-6.94-1.368-9.5-3.167L431.121,309.721z"/>
	<path fill="#B7B8B8" d="M395.121,309.554c0.005,1.127-0.084,2.693,0.296,3.704c0.389,1.032,1.284,1.394,2.37,1.843
		c2.125,0.879,4.478,1.175,6.834,1.287c2.586,0.123,4.847-0.424,7.204-1.13c0.958-0.287,2.602-0.211,3.292-0.912
		c0.749-0.763,0.371-3.239-0.162-4.232c-1.749,2.329-7.338,2.944-9.999,2.774c-3.094-0.198-6.94-1.368-9.501-3.167L395.121,309.554z
		"/>
	<path fill="#84949A" d="M387.121,314.888c0.005,1.127-0.084,2.693,0.296,3.704c0.389,1.032,1.284,1.394,2.37,1.843
		c2.125,0.879,4.478,1.175,6.834,1.287c2.586,0.123,4.847-0.424,7.204-1.13c0.958-0.287,2.602-0.211,3.292-0.912
		c0.749-0.763,0.371-3.239-0.162-4.232c-1.749,2.329-7.338,2.944-9.999,2.774c-3.094-0.198-6.94-1.368-9.501-3.167L387.121,314.888z
		"/>
	<path fill="#84949A" d="M404.158,305.884c0.795,0.901,2.543,1.517,3.63,1.838c0.72,0.212,3.152,1.28,3.837,0.975
		c0.648-0.289,2.249-3.014,2.649-3.617c-2.498,0.106-5.211-0.332-7.522-1.291c-0.588-0.244-2.309-1.53-2.963-1.175
		C402.971,303.058,403.679,305.341,404.158,305.884z"/>
	<path fill="#B7B8B8" d="M451.121,301.055c-1.297,1.212-3.827,2.02-5.509,2.5c-1.423,0.407-3.067,0.956-4.632,0.859
		c-0.064,1.015-0.064,2.097,0,3.112c2.561,1.027,5.962-0.33,8.307-1.346c1.033-0.448,1.99-0.699,2.379-1.783
		c0.296-0.825,0.412-2.716,0.121-3.175L451.121,301.055z"/>
	<path fill="#84949A" d="M460.455,307.888c-0.318,2.396-4.663,3.526-6.667,3.5c-1.143-0.015-1.813-0.537-2.505,0.491
		c-0.498,0.74-0.521,2.174-0.808,2.971c1.843,0.915,5.641,0.081,7.48-0.583c0.723-0.261,2.465-0.577,2.841-1.204
		c0.304-0.507,0.275-3.35-0.008-3.841L460.455,307.888z"/>
	<path fill="#84949A" d="M376.454,329.721c0.005,1.127-0.084,2.693,0.296,3.704c0.389,1.032,1.284,1.394,2.37,1.843
		c2.125,0.879,4.478,1.175,6.834,1.287c2.586,0.123,4.847-0.424,7.204-1.13c0.958-0.287,2.602-0.211,3.292-0.912
		c0.749-0.763,0.371-3.239-0.162-4.232c-1.749,2.329-7.338,2.944-9.999,2.774c-3.094-0.198-6.94-1.368-9.501-3.167L376.454,329.721z
		"/>
	<path fill="#84949A" d="M401.621,336.721c0.005,1.127-0.08,2.693,0.28,3.704c0.366,1.032,1.21,1.394,2.234,1.843
		c2.004,0.879,4.222,1.175,6.443,1.287c2.438,0.123,4.569-0.424,6.792-1.13c0.904-0.287,2.454-0.211,3.104-0.912
		c0.706-0.763,0.35-3.239-0.153-4.232c-1.649,2.329-6.918,2.944-9.428,2.774c-2.917-0.198-6.543-1.368-8.957-3.167L401.621,336.721z
		"/>
	<path fill="#84949A" d="M412.955,308.388c0.005,1.127-0.085,2.693,0.296,3.704c0.389,1.032,1.284,1.393,2.37,1.843
		c2.125,0.879,4.478,1.175,6.834,1.287c2.586,0.123,4.847-0.424,7.204-1.13c0.958-0.287,2.602-0.21,3.292-0.912
		c0.75-0.763,0.372-3.239-0.162-4.233c-1.749,2.329-7.337,2.945-9.999,2.774c-3.094-0.198-6.94-1.368-9.5-3.167L412.955,308.388z"/>
	<g>
		<path fill="#040000" d="M387.085,325.18c-5.448,0-10.964,1.463-10.964,4.259V334c0,0.18,0.065,0.354,0.182,0.49
			c0.224,0.259,2.406,2.538,10.083,2.716c7.733,0.179,11.213-2.321,11.357-2.427c0.192-0.141,0.305-0.365,0.305-0.604v-4.912
			c0-0.093-0.019-0.181-0.05-0.263C397.453,326.49,392.24,325.18,387.085,325.18z M387.085,326.68c5.777,0,9.464,1.634,9.464,2.759
			s-3.687,2.759-9.464,2.759s-9.464-1.634-9.464-2.759S381.308,326.68,387.085,326.68z M386.421,335.706
			c-5.847-0.136-8.175-1.561-8.8-2.044c0-0.254,0-1.096,0-1.962c2.009,1.317,5.751,1.998,9.464,1.998
			c3.713,0,7.455-0.68,9.464-1.998c0,0.891,0,1.755,0,2.055C395.631,334.285,392.418,335.845,386.421,335.706z"/>
		<path fill="#040000" d="M411.144,332.692c-4.997,0-10.056,1.355-10.056,3.947v4.157c0,0.18,0.065,0.354,0.182,0.49
			c0.206,0.239,2.213,2.334,9.236,2.498c7.068,0.164,10.257-2.126,10.389-2.224c0.191-0.141,0.305-0.365,0.305-0.603v-4.476
			c0-0.09-0.019-0.175-0.047-0.254C420.643,333.903,415.867,332.692,411.144,332.692z M411.144,334.192
			c5.144,0,8.556,1.473,8.556,2.447c0,0.974-3.413,2.447-8.556,2.447c-5.144,0-8.556-1.473-8.556-2.447
			C402.588,335.665,406,334.192,411.144,334.192z M410.541,342.283c-5.291-0.123-7.384-1.396-7.953-1.833c0-0.237,0-0.917,0-1.637
			c1.869,1.169,5.225,1.772,8.556,1.772c3.331,0,6.687-0.603,8.556-1.772c0,0.742,0,1.443,0,1.719
			C418.832,341.027,415.924,342.408,410.541,342.283z"/>
		<path fill="#040000" d="M469.571,315.841c-0.474-2.131-4.37-3.371-8.423-3.714v-4.092c0-0.094-0.019-0.183-0.051-0.265
			c-0.483-2.188-4.543-3.428-8.726-3.736v-3.543c0-0.093-0.019-0.181-0.05-0.264c-0.546-2.509-5.759-3.82-10.914-3.82
			c-1.974,0-3.868,0.187-5.53,0.541v-1.019c0-0.093-0.019-0.181-0.05-0.264c-0.546-2.509-5.758-3.82-10.913-3.82
			c-5.448,0-10.964,1.463-10.964,4.259v1.011l-0.385-0.006c-5.448,0-10.964,1.463-10.964,4.259v3.607
			c-3.785,0.384-7.82,1.606-8.001,3.951c-0.011,0.052-0.019,0.106-0.019,0.162v1.327c-3.7,0.375-7.817,1.611-8.002,3.951
			c-0.011,0.052-0.018,0.105-0.018,0.16v4.561c0,0.18,0.065,0.354,0.182,0.49c0.224,0.259,2.406,2.538,10.083,2.716
			c4.964,0.115,8.177-0.881,9.859-1.62v0.344c0,0.18,0.065,0.353,0.182,0.49c0.224,0.259,2.406,2.538,10.083,2.716
			c6.156,0.143,9.609-1.41,10.837-2.104c0.997,0.744,3.646,2.141,9.59,2.279c7.465,0.173,10.957-2.144,11.32-2.401
			c1.201,0.77,3.88,1.926,9.259,2.051c7.733,0.179,11.213-2.321,11.357-2.427c0.191-0.142,0.305-0.365,0.305-0.603v-4.912
			C469.621,316.012,469.602,315.923,469.571,315.841z M468.121,316.281c0,1.125-3.686,2.759-9.464,2.759s-9.464-1.634-9.464-2.759
			c0-0.115-0.028-0.223-0.074-0.32l0.366,0.017c7.222,0.168,10.732-2,11.283-2.374C465.503,313.954,468.121,315.387,468.121,316.281
			z M396.081,311.349c2.009,1.318,5.751,1.998,9.464,1.998c2.312,0,4.552-0.266,6.388-0.748c0.025,0.047,0.045,0.096,0.081,0.136
			c0.102,0.118,0.613,0.656,1.863,1.223c-1.558,0.645-4.499,1.501-8.995,1.397c-5.847-0.136-8.175-1.561-8.8-2.044
			C396.081,313.057,396.081,312.215,396.081,311.349z M404.101,305.213c0-0.389,0-0.979,0-1.583
			c1.917,1.258,5.413,1.935,8.955,1.994c-0.715,0.534-1.148,1.169-1.207,1.899c-0.005,0.023-0.006,0.048-0.009,0.072
			c-4.767-0.255-6.88-1.392-7.601-1.904c0.002-0.031,0.005-0.061,0.003-0.093C404.233,305.453,404.181,305.322,404.101,305.213z
			 M415.45,298.366c2.008,1.318,5.751,1.998,9.464,1.998c3.713,0,7.455-0.68,9.463-1.998c0,0.891,0,1.755,0,2.055
			c-0.918,0.53-4.131,2.09-10.127,1.951c-5.847-0.135-8.175-1.561-8.8-2.044C415.45,300.075,415.45,299.233,415.45,298.366z
			 M413.331,311.908c0-0.254,0-1.096,0-1.962c2.008,1.318,5.751,1.998,9.464,1.998c2.041,0,4.025-0.203,5.737-0.586
			c0.125-0.028,0.233-0.088,0.324-0.167c0.403,0.023,0.822,0.041,1.26,0.051c0.759,0.018,1.465,0.003,2.143-0.026
			c0,0.361,0,0.904,0,1.258c-1.005,0.444-4.226,1.616-10.127,1.479C416.285,313.816,413.957,312.391,413.331,311.908z
			 M430.152,309.741c-5.847-0.135-8.175-1.561-8.8-2.044c0-0.254,0-1.096,0-1.962c2.008,1.318,5.75,1.998,9.463,1.998
			c3.713,0,7.456-0.68,9.464-1.998c0,0.891,0,1.755,0,2.055C439.361,308.321,436.148,309.881,430.152,309.741z M420.034,308.525
			c0.143,0.166,1.087,1.154,3.747,1.894c-0.327,0.011-0.653,0.024-0.985,0.024c-5.777,0-9.464-1.634-9.464-2.759
			c0-0.848,2.311-2.158,6.52-2.604v2.955C419.852,308.215,419.916,308.389,420.034,308.525z M433.385,313.596
			c0.231-0.134,0.374-0.381,0.374-0.649v-0.745c0.062,0.042,0.129,0.078,0.205,0.1c1.913,0.56,4.341,0.869,6.838,0.869
			c3.713,0,7.455-0.68,9.463-1.998c0,0.891,0,1.755,0,2.055c-0.918,0.531-4.131,2.091-10.127,1.951
			c-3.777-0.087-6.081-0.707-7.413-1.27C433.13,313.739,433.352,313.615,433.385,313.596z M451.766,312.429
			c3.015-0.16,6.108-0.817,7.882-1.977c0,0.897,0,1.772,0,2.075c-0.832,0.481-3.558,1.803-8.524,1.944
			c0.197-0.118,0.315-0.201,0.338-0.218c0.191-0.141,0.305-0.365,0.305-0.603V312.429z M450.266,308.912
			c0,1.125-3.687,2.759-9.463,2.759c-2.158,0-4.245-0.243-5.948-0.683c4.434-0.611,6.509-2.092,6.62-2.174
			c0.128-0.095,0.217-0.228,0.265-0.376c2.989-0.023,5.285-0.447,6.941-0.938C449.843,308.037,450.266,308.579,450.266,308.912z
			 M441.779,306.938v-2.016c3.589-0.044,7.151-0.721,9.092-1.995c0,0.891,0,1.755,0,2.055
			C450.008,305.482,447.11,306.888,441.779,306.938z M430.815,306.232c-4.417,0-7.605-0.955-8.864-1.908
			c0.007-0.048,0.009-0.097,0.007-0.148c-0.009-0.171-0.077-0.324-0.181-0.445c0.745,0.07,1.553,0.119,2.439,0.14
			c7.733,0.179,11.213-2.32,11.357-2.427c0.097-0.072,0.174-0.165,0.226-0.271c2.914,0.584,4.48,1.592,4.48,2.299
			C440.279,304.598,436.592,306.232,430.815,306.232z M415.472,314.869c0.113-0.06,0.202-0.146,0.269-0.245
			c1.508,0.422,3.568,0.763,6.356,0.828c1.505,0.035,2.843-0.013,4.03-0.111c0.029,0.025,0.058,0.05,0.091,0.071
			c0.569,0.357,0.896,0.738,0.896,1.045c0,1.125-3.686,2.759-9.463,2.759c-5.291,0-8.819-1.369-9.377-2.464
			C411.961,316.431,414.292,315.492,415.472,314.869z M431.1,314.859c0.028-0.01,0.053-0.024,0.08-0.037
			c1.443,0.817,4.125,1.746,8.924,1.857c3.017,0.07,5.378-0.27,7.154-0.714c0.024,0.086,0.062,0.17,0.118,0.246
			c0.112,0.151,0.166,0.288,0.166,0.42c0,1.124-3.686,2.758-9.464,2.758s-9.464-1.634-9.464-2.758
			C428.614,316.208,429.265,315.49,431.1,314.859z M459.647,308.21c0,0.959-2.806,2.437-7.882,2.713v-2.186
			c0-0.093-0.019-0.18-0.05-0.262c-0.111-0.495-0.435-1.072-1.196-1.638c0.993-0.432,1.496-0.792,1.547-0.83
			c0.155-0.115,0.255-0.284,0.289-0.47C457.054,305.895,459.647,307.313,459.647,308.21z M441.407,297.908
			c5.777,0,9.464,1.634,9.464,2.759c0,1.1-3.532,2.683-9.092,2.752v-0.121c0-0.106-0.022-0.206-0.062-0.298
			c-0.358-1.504-2.434-2.696-5.839-3.337v-1.176C437.509,298.109,439.409,297.908,441.407,297.908z M424.914,293.347
			c5.777,0,9.463,1.634,9.463,2.759s-3.687,2.759-9.463,2.759c-5.777,0-9.464-1.634-9.464-2.759S419.137,293.347,424.914,293.347z
			 M413.565,298.61l0.385,0.006v2.051c0,0.18,0.064,0.354,0.182,0.49c0.169,0.197,1.466,1.552,5.422,2.275
			c-1.704,0.445-3.813,0.696-5.989,0.696c-5.777,0-9.464-1.634-9.464-2.759C404.101,300.244,407.788,298.61,413.565,298.61z
			 M402.821,306.461c0.348,0.373,2.454,2.301,9.011,2.636v1.975c-1.759,0.499-3.978,0.774-6.286,0.774
			c-5.777,0-9.464-1.634-9.464-2.759C396.081,308.226,398.421,306.888,402.821,306.461z M394.581,311.923v1.726
			c0,0.18,0.065,0.354,0.182,0.49c0.203,0.235,2.019,2.133,8.089,2.615c-1.554,0.339-3.395,0.531-5.327,0.531
			c-5.777,0-9.464-1.634-9.464-2.759C388.062,313.7,390.328,312.375,394.581,311.923z M406.499,319.109
			c-1.387,0.68-4.485,1.804-9.637,1.685c-5.847-0.136-8.175-1.561-8.8-2.044c0-0.254,0-1.096,0-1.962
			c2.009,1.317,5.751,1.998,9.464,1.998c3.789,0,7.189-0.68,9.161-1.824v2.088C406.623,319.062,406.56,319.08,406.499,319.109z
			 M416.987,322.724c-5.847-0.135-8.175-1.561-8.801-2.044c0-0.254,0-1.096,0-1.962c2.009,1.317,5.751,1.998,9.464,1.998
			s7.455-0.68,9.463-1.998c0,0.891,0,1.755,0,2.055C426.196,321.303,422.983,322.863,416.987,322.724z M437.415,322.899
			c-5.847-0.135-8.175-1.561-8.801-2.044v-1.962c2.008,1.317,5.751,1.998,9.464,1.998c3.713,0,7.456-0.68,9.464-1.998
			c0,0.891,0,1.755,0,2.055C446.624,321.478,443.411,323.038,437.415,322.899z M457.994,322.548
			c-5.847-0.136-8.175-1.561-8.801-2.044c0-0.254,0-1.096,0-1.962c2.008,1.317,5.751,1.998,9.464,1.998
			c3.713,0,7.456-0.68,9.464-1.998c0,0.891,0,1.755,0,2.055C467.203,321.127,463.99,322.687,457.994,322.548z"/>
	</g>
	<path fill="#040000" d="M385.369,272.478h-4.06c-0.126,0-0.244,0.034-0.348,0.089l-2.371-2.949v-7.581
		c0-0.414-0.336-0.75-0.75-0.75c-0.414,0-0.75,0.336-0.75,0.75v7.581l-2.299,2.859h-3.795c-0.414,0-0.75,0.336-0.75,0.75
		s0.336,0.75,0.75,0.75h3.606l2.488,3.093v7.499c0,0.414,0.336,0.75,0.75,0.75c0.414,0,0.75-0.336,0.75-0.75v-7.499l2.514-3.125
		c0.065,0.019,0.133,0.032,0.205,0.032h4.06c0.414,0,0.75-0.336,0.75-0.75S385.784,272.478,385.369,272.478z M377.84,275.61
		c-0.604-0.751-1.394-1.733-1.822-2.265c0.427-0.532,1.217-1.514,1.822-2.266c0.604,0.751,1.395,1.734,1.822,2.266
		C379.235,273.877,378.445,274.859,377.84,275.61z"/>
	<path fill="#040000" d="M462.703,278.811h-4.06c-0.126,0-0.244,0.034-0.348,0.089l-2.371-2.949v-7.581
		c0-0.414-0.336-0.75-0.75-0.75c-0.415,0-0.75,0.336-0.75,0.75v7.581l-2.299,2.859h-3.795c-0.415,0-0.75,0.336-0.75,0.75
		s0.335,0.75,0.75,0.75h3.606l2.488,3.093v7.499c0,0.414,0.335,0.75,0.75,0.75c0.414,0,0.75-0.336,0.75-0.75v-7.499l2.514-3.125
		c0.065,0.019,0.133,0.032,0.205,0.032h4.06c0.414,0,0.75-0.336,0.75-0.75S463.117,278.811,462.703,278.811z M455.174,281.944
		c-0.604-0.751-1.395-1.733-1.822-2.265c0.427-0.532,1.217-1.514,1.822-2.266c0.604,0.751,1.395,1.734,1.822,2.266
		C456.568,280.21,455.778,281.192,455.174,281.944z"/>
	<path fill="#040000" d="M441.703,263.145h-4.06c-0.126,0-0.244,0.034-0.348,0.089l-2.371-2.949v-7.581
		c0-0.414-0.336-0.75-0.75-0.75c-0.415,0-0.75,0.336-0.75,0.75v7.581l-2.299,2.859h-3.795c-0.415,0-0.75,0.336-0.75,0.75
		s0.335,0.75,0.75,0.75h3.606l2.488,3.093v7.499c0,0.414,0.335,0.75,0.75,0.75c0.414,0,0.75-0.336,0.75-0.75v-7.499l2.514-3.125
		c0.065,0.019,0.133,0.032,0.205,0.032h4.06c0.414,0,0.75-0.336,0.75-0.75S442.117,263.145,441.703,263.145z M434.174,266.277
		c-0.604-0.751-1.395-1.733-1.822-2.265c0.427-0.532,1.217-1.514,1.822-2.266c0.604,0.751,1.395,1.734,1.822,2.266
		C435.568,264.543,434.778,265.526,434.174,266.277z"/>
</g>
</svg>
