<?xml version="1.0" encoding="utf-8"?>
<!-- Generator: Adobe Illustrator 17.1.0, SVG Export Plug-In . SVG Version: 6.00 Build 0)  -->
<!DOCTYPE svg PUBLIC "-//W3C//DTD SVG 1.1//EN" "http://www.w3.org/Graphics/SVG/1.1/DTD/svg11.dtd">
<svg version="1.1" id="Ebene_1" xmlns="http://www.w3.org/2000/svg" xmlns:xlink="http://www.w3.org/1999/xlink" x="0px" y="0px"
	 width="100px" height="100px" viewBox="0 0 100 100" enable-background="new 0 0 100 100" xml:space="preserve">
<circle fill="#B2B2B2" cx="50" cy="50" r="50"/>
<g>
	<path fill="#FFFFFF" d="M16.6,26.1c-0.7,1-1.4,2-2.1,3c-0.3,0.4,1.4,2.1,1.7,2.5c0.8-0.9,1.6-1.8,2.5-2.7
		C18.7,28.7,16.8,26.3,16.6,26.1z"/>
	<path fill="#FFFFFF" d="M62.5,17.8c-0.7,1-1.4,2-2.1,3c-0.3,0.4,1.4,2.1,1.7,2.5c0.8-0.9,1.6-1.8,2.5-2.7
		C64.6,20.5,62.7,18.1,62.5,17.8z"/>
	<path fill="#FFFFFF" d="M80.1,31.1c-0.7,1-1.4,2-2.1,3c-0.3,0.4,1.4,2.1,1.7,2.5c0.8-0.9,1.6-1.8,2.5-2.7
		C82.3,33.8,80.4,31.4,80.1,31.1z"/>
	<path fill="#CCCCCC" d="M55,44.9c2,0,4.1,0.2,6,0.9c0.9,0.3,2.5,0.9,2.5,2.1s-1.6,1.8-2.5,2.1c-1.9,0.7-4,0.9-6,0.9
		c-2,0-4.1-0.2-6-0.9c-0.9-0.3-2.5-0.9-2.5-2.1s1.6-1.8,2.5-2.1C50.9,45.1,53,44.9,55,44.9z"/>
	<path fill="#E0E1E1" d="M68.6,48.9c2,0,4.1,0.2,6,0.9c0.9,0.3,2.5,0.9,2.5,2.1s-1.6,1.8-2.5,2.1c-1.9,0.7-4,0.9-6,0.9
		s-4.1-0.2-6-0.9C61.7,53.6,60,53,60,51.8s1.6-1.8,2.5-2.1C64.4,49.1,66.5,48.9,68.6,48.9z"/>
	<path fill="#CCCCCC" d="M75.5,55.4c2,0,4.1,0.2,6,0.9c0.9,0.3,2.5,0.9,2.5,2.1s-1.6,1.8-2.5,2.1c-1.9,0.7-4,0.9-6,0.9
		s-4.1-0.2-6-0.9c-0.9-0.3-2.5-0.9-2.5-2.1s1.6-1.8,2.5-2.1C71.4,55.6,73.5,55.4,75.5,55.4z"/>
	<path fill="#CCCCCC" d="M82.5,62.4c2,0,4.1,0.2,6,0.9c0.9,0.3,2.5,0.9,2.5,2.1s-1.6,1.8-2.5,2.1c-1.9,0.7-4,0.9-6,0.9
		c-2,0-4.1-0.2-6-0.9c-0.9-0.3-2.5-0.9-2.5-2.1s1.6-1.8,2.5-2.1C78.4,62.6,80.5,62.4,82.5,62.4z"/>
	<path fill="#CCCCCC" d="M66.5,62.2c2,0,4.1,0.2,6,0.9c0.9,0.3,2.5,0.9,2.5,2.1c0,1.2-1.6,1.8-2.5,2.1c-1.9,0.7-4,0.9-6,0.9
		c-2,0-4.1-0.2-6-0.9c-0.9-0.3-2.5-0.9-2.5-2.1c0-1.2,1.6-1.8,2.5-2.1C62.4,62.4,64.5,62.2,66.5,62.2z"/>
	<path fill="#CCCCCC" d="M67.9,56.1c2,0,4.1,0.2,6,0.9c0.9,0.3,2.5,0.9,2.5,2.1c0,1.2-1.6,1.8-2.5,2.1c-1.9,0.7-4,0.9-6,0.9
		c-2,0-4.1-0.2-6-0.9c-0.9-0.3-2.5-0.9-2.5-2.1c0-1.2,1.6-1.8,2.5-2.1C63.8,56.3,65.9,56.1,67.9,56.1z"/>
	<path fill="#CCCCCC" d="M59.7,51.6c2,0,4.1,0.2,6,0.9c0.9,0.3,2.5,0.9,2.5,2.1c0,1.2-1.6,1.8-2.5,2.1c-1.9,0.7-4,0.9-6,0.9
		c-2,0-4.1-0.2-6-0.9c-0.9-0.3-2.5-0.9-2.5-2.1c0-1.2,1.6-1.8,2.5-2.1C55.6,51.8,57.7,51.6,59.7,51.6z"/>
	<path fill="#CCCCCC" d="M53.6,55.2c2,0,4.1,0.2,6,0.9c0.9,0.3,2.5,0.9,2.5,2.1c0,1.2-1.6,1.8-2.5,2.1c-1.9,0.7-4,0.9-6,0.9
		c-2,0-4.1-0.2-6-0.9c-0.9-0.3-2.5-0.9-2.5-2.1c0-1.2,1.6-1.8,2.5-2.1C49.5,55.4,51.6,55.2,53.6,55.2z"/>
	<path fill="#CCCCCC" d="M46,49.7c2,0,4.1,0.2,6,0.9c0.9,0.3,2.5,0.9,2.5,2.1c0,1.2-1.6,1.8-2.5,2.1c-1.9,0.7-4,0.9-6,0.9
		c-2,0-4.1-0.2-6-0.9c-0.9-0.3-2.5-0.9-2.5-2.1c0-1.2,1.6-1.8,2.5-2.1C41.9,49.9,44,49.7,46,49.7z"/>
	<path fill="#E0E1E1" d="M39.4,56.5c-1.7,0-3.4,0.2-5,0.6c-1.1,0.3-2.4,0.7-3.2,1.5c-1.6,1.9,2.3,3.1,3.5,3.3
		c3.3,0.8,7,0.7,10.2-0.2c0.4-0.1,0.5,0,0.5-0.5c0-0.5,0-1,0-1.5c0-0.5,0-1-0.1-1.5c0-0.6,0-0.7-0.6-0.9
		C43,56.6,41.2,56.5,39.4,56.5z"/>
	<path fill="#CCCCCC" d="M32.7,60.9c2,0,4.1,0.2,6,0.9c0.9,0.3,2.5,0.9,2.5,2.1c0,1.2-1.6,1.8-2.5,2.1c-1.9,0.7-4,0.9-6,0.9
		c-2,0-4.1-0.2-6-0.9c-0.9-0.3-2.5-0.9-2.5-2.1c0-1.2,1.6-1.8,2.5-2.1C28.6,61.1,30.6,60.9,32.7,60.9z"/>
	<path fill="#CCCCCC" d="M23.8,73.2c2,0,4.1,0.2,6,0.9c0.9,0.3,2.5,0.9,2.5,2.1c0,1.2-1.6,1.8-2.5,2.1c-1.9,0.7-4,0.9-6,0.9
		s-4.1-0.2-6-0.9c-0.9-0.3-2.5-0.9-2.5-2.1c0-1.2,1.6-1.8,2.5-2.1C19.7,73.4,21.8,73.2,23.8,73.2z"/>
	<path fill="#CCCCCC" d="M43.7,79.3c1.9,0,3.9,0.2,5.7,0.9c0.9,0.3,2.4,1,2.4,2.1c0,1.1-1.5,1.8-2.4,2.1c-1.8,0.7-3.8,0.9-5.7,0.9
		c-1.9,0-3.9-0.2-5.7-0.9c-0.9-0.3-2.4-1-2.4-2.1c0-1.1,1.5-1.8,2.4-2.1C39.8,79.5,41.8,79.3,43.7,79.3z"/>
	<path fill="#E0E1E1" d="M48.9,62.2c2,0,4.1,0.2,6,0.9c0.9,0.3,2.5,0.9,2.5,2.1c0,1.2-1.6,1.8-2.5,2.1c-1.9,0.7-4,0.9-6,0.9
		c-2,0-4.1-0.2-6-0.9c-0.9-0.3-2.5-0.9-2.5-2.1c0-1.2,1.6-1.8,2.5-2.1C44.8,62.4,46.8,62.2,48.9,62.2z"/>
	<path fill="#84949A" d="M46.7,48.5c0,2-0.1,3.7,1.9,4.6c2.3,1,4.9,1.4,7.3,1.2c1.2-0.1,2.3-0.3,3.4-0.6c1-0.3,2-0.4,2.9-0.7
		c1.6-0.5,1.3-2.8,0.6-4c-1.5,2.1-5.1,2.4-7.4,2.4c-1.6,0-3.2-0.3-4.7-0.8c-0.8-0.3-1.6-0.6-2.3-1C47.9,49.3,47.3,48.8,46.7,48.5z"
		/>
	<path fill="#84949A" d="M51.4,54.6c0,2-0.1,3.7,1.9,4.6c2.3,1,4.9,1.4,7.3,1.2c1.2-0.1,2.3-0.3,3.4-0.6c1-0.3,2-0.4,2.9-0.7
		c1.6-0.5,1.3-2.8,0.6-4c-1.5,2.1-5.1,2.4-7.4,2.4c-1.6,0-3.2-0.3-4.7-0.8c-0.8-0.3-1.6-0.6-2.3-1C52.5,55.3,52,54.9,51.4,54.6z"/>
	<path fill="#B7B8B8" d="M40.8,65.8c0,2-0.1,3.7,1.9,4.6c2.3,1,4.9,1.4,7.3,1.2c1.2-0.1,2.3-0.3,3.4-0.6c1-0.3,2-0.4,2.9-0.7
		c1.6-0.5,1.3-2.8,0.6-4c-1.5,2.1-5.1,2.4-7.4,2.4c-1.6,0-3.2-0.3-4.7-0.8c-0.8-0.3-1.6-0.6-2.3-1C42,66.6,41.5,66.1,40.8,65.8z"/>
	<path fill="#84949A" d="M57.2,65.8c0,2-0.1,3.7,1.9,4.6c2.3,1,4.9,1.4,7.3,1.2c1.2-0.1,2.3-0.3,3.4-0.6c1-0.3,2-0.4,2.9-0.7
		c1.6-0.5,1.3-2.8,0.6-4c-1.5,2.1-5.1,2.4-7.4,2.4c-1.6,0-3.2-0.3-4.7-0.8c-0.8-0.3-1.6-0.6-2.3-1C58.4,66.6,57.9,66.1,57.2,65.8z"
		/>
	<path fill="#84949A" d="M74.3,65.7c0,2-0.1,3.7,1.9,4.6c2.3,1,4.9,1.4,7.3,1.2c1.2-0.1,2.3-0.3,3.4-0.6c1-0.3,2-0.4,2.9-0.7
		c1.6-0.5,1.3-2.8,0.6-4c-1.5,2.1-5.1,2.4-7.4,2.4c-1.6,0-3.2-0.3-4.7-0.8c-0.8-0.3-1.6-0.6-2.3-1C75.5,66.5,75,66,74.3,65.7z"/>
	<path fill="#84949A" d="M60.2,59.6c0,2-0.1,3.7,1.9,4.6c2.3,1,4.9,1.4,7.3,1.2c1.2-0.1,2.3-0.3,3.4-0.6c1-0.3,2-0.4,2.9-0.7
		c1.6-0.5,1.3-2.8,0.6-4c-1.5,2.1-5.1,2.4-7.4,2.4c-1.6,0-3.2-0.3-4.7-0.8c-0.8-0.3-1.6-0.6-2.3-1C61.4,60.4,60.9,59.9,60.2,59.6z"
		/>
	<path fill="#B7B8B8" d="M30.7,59.5c0,2-0.1,3.7,1.9,4.6c2.3,1,4.9,1.4,7.3,1.2c1.2-0.1,2.3-0.3,3.4-0.6c1-0.3,2-0.4,2.9-0.7
		c1.6-0.5,1.3-2.8,0.6-4c-1.5,2.1-5.1,2.4-7.4,2.4c-1.6,0-3.2-0.3-4.7-0.8c-0.8-0.3-1.6-0.6-2.3-1C31.9,60.3,31.3,59.8,30.7,59.5z"
		/>
	<path fill="#84949A" d="M24.1,64c0,2-0.1,3.7,1.9,4.6c2.3,1,4.9,1.4,7.3,1.2c1.2-0.1,2.3-0.3,3.4-0.6c1-0.3,2-0.4,2.9-0.7
		c1.6-0.5,1.3-2.8,0.6-4c-1.5,2.1-5.1,2.4-7.4,2.4c-1.6,0-3.2-0.3-4.7-0.8c-0.8-0.3-1.6-0.6-2.3-1C25.3,64.8,24.8,64.3,24.1,64z"/>
	<path fill="#84949A" d="M38.1,56.4c0.7,0.8,1.8,1.2,2.8,1.5c0.9,0.3,1.7,0.7,2.6,0.9c1.5,0.3,2.3-2,3-3c-2.5,0.1-5-0.4-7.2-1.7
		c-0.5-0.3-1.6-0.9-1.7,0.1C37.4,54.8,37.7,55.9,38.1,56.4C38.8,57.2,37.7,55.9,38.1,56.4z"/>
	<path fill="#B7B8B8" d="M76.7,52.3c-1.4,1.4-3.7,1.9-5.5,2.4c-0.6,0.2-1.2,0.3-1.7,0.4c-0.4,0-0.7,0.1-1.1,0c0,0.4,0,0.7,0,1.1
		c0,0.5-0.2,1.4,0.3,1.6c0.6,0.2,1.2,0.2,1.8,0.2c1.2-0.1,2.3-0.4,3.4-0.9c0.9-0.3,2-0.7,2.7-1.3c0.7-0.6,0.8-1.6,0.8-2.4
		C77.4,52.8,77.4,52.5,76.7,52.3z"/>
	<path fill="#84949A" d="M84.3,58.1c-0.3,2.1-3.4,2.9-5.1,2.9c-1.1,0.1-2.1-0.5-2.6,0.9c-0.2,0.6-0.2,1.2-0.4,1.9
		c-0.1,0.5,1.1,0.5,1.5,0.6c1.3,0,2.5-0.2,3.7-0.6c0.9-0.3,2.4-0.5,3.1-1.2c0.5-0.5,0.3-1.9,0.2-2.5C84.7,59.4,84.5,58.8,84.3,58.1z
		"/>
	<path fill="#84949A" d="M15.4,76.5c0,2-0.1,3.7,1.9,4.6c2.3,1,4.9,1.4,7.3,1.2c1.2-0.1,2.3-0.3,3.4-0.6c1-0.3,2-0.4,2.9-0.7
		c1.6-0.5,1.3-2.8,0.6-4c-1.5,2.1-5.1,2.4-7.4,2.4c-1.6,0-3.2-0.3-4.7-0.8c-0.8-0.3-1.6-0.6-2.3-1C16.6,77.3,16,76.8,15.4,76.5z"/>
	<path fill="#84949A" d="M36,82.5c0,1.9-0.2,3.7,1.8,4.6c2.1,1,4.7,1.4,7,1.2c1.2-0.1,2.3-0.4,3.4-0.7c0.9-0.3,1.8-0.3,2.7-0.6
		c1.4-0.5,1-2.9,0.4-3.9c-1.4,2-4.8,2.4-7,2.4c-1.5,0-2.9-0.3-4.3-0.8c-0.8-0.3-1.6-0.6-2.3-1C37.2,83.2,36.7,82.8,36,82.5z"/>
	<path fill="#84949A" d="M45.3,58.5c0,2-0.1,3.7,1.9,4.6c2.3,1,4.9,1.4,7.3,1.2c1.2-0.1,2.3-0.3,3.4-0.6c1-0.3,2-0.4,2.9-0.7
		c1.6-0.5,1.3-2.8,0.6-4c-1.5,2.1-5.1,2.4-7.4,2.4c-1.6,0-3.2-0.3-4.7-0.8c-0.8-0.3-1.6-0.6-2.3-1C46.5,59.3,46,58.8,45.3,58.5z"/>
	<g>
		<path fill="#040000" d="M24.1,72.7c-2.5,0-5.3,0.2-7.5,1.5c-1.4,0.8-1.5,1.9-1.5,3.3c0,0.8-0.4,2.5,0.3,3.1
			c0.7,0.7,1.7,1.1,2.6,1.4c4.1,1.3,9.3,1.2,13.3-0.4c0.5-0.2,1.8-0.6,1.8-1.4c0-1.3,0-2.6,0-3.8c0-1.3-1.2-2.1-2.3-2.6
			C28.7,72.9,26.3,72.7,24.1,72.7z M24.1,74c1.9,0,3.9,0.2,5.7,0.8c0.6,0.2,2.1,0.7,2.1,1.5c0,0.8-1.5,1.3-2.1,1.5
			c-1.8,0.6-3.8,0.8-5.7,0.8s-3.9-0.2-5.7-0.8c-0.6-0.2-2.1-0.7-2.1-1.5c0-0.8,1.5-1.3,2.1-1.5C20.3,74.2,22.2,74,24.1,74z
			 M23.6,81.6c-1.9,0-3.9-0.2-5.7-0.9c-0.4-0.2-0.8-0.4-1.2-0.6c-0.5-0.3-0.3-1.3-0.3-1.9c2.2,1.5,5.2,1.7,7.8,1.7
			c2.5,0,5.6-0.2,7.8-1.7c0,0.7,0.3,1.6-0.4,1.9c-0.5,0.2-1,0.5-1.5,0.6C27.9,81.5,25.7,81.7,23.6,81.6
			C18.8,81.5,28.5,81.7,23.6,81.6z"/>
		<path fill="#040000" d="M43.9,79.1c-2.3,0-5.2,0.2-7.2,1.6c-1.3,0.9-1,2.2-1,3.6c0,0.8-0.2,1.8,0.5,2.4c1.1,0.8,2.5,1.2,3.8,1.5
			c3.7,0.7,8.5,0.7,11.8-1.4c0.8-0.5,0.5-2,0.5-2.8c0-1.5,0-2.6-1.5-3.5C48.6,79.3,46.1,79.1,43.9,79.1z M43.9,80.3
			c1.6,0,3.3,0.2,4.9,0.7c0.6,0.2,2,0.6,2.1,1.3c0.1,0.7-1.4,1.2-1.8,1.4c-1.7,0.6-3.5,0.8-5.2,0.8c-1.7,0-3.5-0.2-5.1-0.7
			c-0.5-0.2-1.9-0.6-1.9-1.3c0-0.7,1.4-1.2,1.9-1.3C40.4,80.5,42.1,80.3,43.9,80.3z M43.4,87.2c-1.7,0-3.5-0.2-5.1-0.8
			c-0.4-0.1-0.8-0.3-1.2-0.6c-0.5-0.3-0.3-1-0.3-1.6c2,1.3,4.7,1.5,7,1.5s5-0.2,7-1.5c0,0.7,0.2,1.3-0.4,1.7c-0.5,0.2-1,0.4-1.5,0.6
			C47.2,87,45.3,87.2,43.4,87.2C39,87.1,47.8,87.3,43.4,87.2z"/>
		<path fill="#040000" d="M91.8,64.8c-0.3-1.5-2.3-2.2-3.6-2.6c-1.1-0.3-2.2-0.5-3.3-0.6c-0.1-0.2,0-1,0-1.1c0-0.9,0.2-2.2-0.2-3.1
			c-0.8-1.5-3.1-2-4.6-2.3c-0.4-0.1-2.3-0.2-2.3-0.5c0-0.5,0-1.1,0-1.6c0-1.2,0-2-1-2.8c-1.5-1.2-3.7-1.5-5.5-1.7
			c-2.3-0.2-4.7-0.2-7,0.3c0-1.6-0.6-2.4-2.1-3.1c-2.2-1-4.9-1.3-7.3-1.2c-2.2,0-4.6,0.3-6.7,1.3c-1.5,0.7-2,1.6-2,3.2
			c-2.4-0.1-4.9,0.2-7.1,1.2c-0.8,0.3-1.6,0.8-2,1.6c-0.3,0.5-0.2,1.1-0.2,1.7c0,0.7,0,1.4,0,2.1c0,0.2-2.7,0.6-3.1,0.7
			c-1.9,0.6-3.4,1.4-3.4,3.5c0,0.6,0,0.5-0.6,0.5c-0.6,0.1-1.2,0.2-1.8,0.3c-1.1,0.3-2.3,0.7-3.2,1.4c-1.2,1-0.9,2.3-0.9,3.7
			c0,0.8-0.3,1.9,0.4,2.5c0.9,0.8,2.1,1.2,3.2,1.5c4,1,9,1,12.8-0.8c-0.1,0.8,0.7,1.2,1.3,1.6c1.6,0.9,3.5,1.2,5.3,1.3
			c2.6,0.2,5.2,0.1,7.7-0.5c0.7-0.2,1.4-0.4,2.1-0.7c0.6-0.3,0.7-0.5,1.2-0.1c1.4,0.9,3.1,1.2,4.7,1.5c2.6,0.3,5.4,0.3,8-0.2
			c1.3-0.3,2.6-0.7,3.8-1.4c0.4-0.2,0.4-0.1,0.8,0.1c0.7,0.4,1.5,0.6,2.2,0.8c4.1,1.1,9.3,1,13.2-0.9c0.8-0.4,1.2-0.6,1.2-1.6
			c0-0.8,0-1.6,0-2.3C91.8,65.9,92,65.3,91.8,64.8C91.4,63,91.8,64.9,91.8,64.8z M90.6,65.2c0,0.8-1.5,1.3-2.1,1.5
			c-1.8,0.6-3.8,0.8-5.7,0.8s-3.9-0.2-5.7-0.8c-0.6-0.2-1.1-0.4-1.6-0.8c-0.4-0.3-0.4-0.6-0.6-1c3,0.2,6.3-0.2,8.9-1.6
			c0.2-0.1,0.4-0.2,0.6-0.4c1.1,0.1,2.2,0.2,3.2,0.5C88.5,63.6,90.6,64.2,90.6,65.2z M31.5,61c2.2,1.5,5.2,1.7,7.8,1.7
			c1.4,0,2.9-0.1,4.3-0.4c0.5-0.1,0.8-0.3,1.1,0c0.4,0.4,0.9,0.7,1.4,0.9c-3,1.3-6.5,1.4-9.7,1c-1.3-0.2-2.6-0.4-3.8-0.9
			c-0.3-0.1-0.6-0.3-0.9-0.5C31.3,62.5,31.5,61.5,31.5,61C33.1,62.1,31.5,61.8,31.5,61z M38.1,55.8c0-0.4,0-0.9,0-1.3
			c2.1,1.4,4.9,1.6,7.3,1.7c-0.4,0.3-0.7,0.6-0.9,1.1c-0.2,0.6-0.1,0.6-0.9,0.5c-1.1-0.1-2.1-0.2-3.1-0.5c-0.6-0.2-1.1-0.4-1.7-0.6
			c-0.2-0.1-0.3-0.2-0.5-0.3C38.1,56.2,38.2,56.1,38.1,55.8C38.1,55.5,38.1,55.9,38.1,55.8z M47.4,50c2.2,1.5,5.2,1.7,7.8,1.7
			c2.5,0,5.6-0.2,7.8-1.7c0,0.7,0.3,1.6-0.4,1.9c-0.5,0.2-1,0.5-1.5,0.6c-1.9,0.6-4,0.8-6,0.8c-2,0-4.1-0.2-5.9-0.9
			c-0.5-0.2-0.9-0.4-1.3-0.6C47.1,51.6,47.4,50.7,47.4,50C49,51.2,47.4,50.8,47.4,50z M45.6,61.5c0-0.6,0-1.1,0-1.7
			c2,1.3,4.7,1.6,7,1.7c1.5,0,3,0,4.4-0.3c0.7-0.1,1.3-0.3,2-0.3c0.7,0,1.4,0,2.1,0c0,0.7,0.2,1-0.5,1.3c-0.5,0.2-1,0.3-1.5,0.5
			c-1.8,0.4-3.7,0.6-5.5,0.6C51.1,63.2,47.7,63.1,45.6,61.5C45.6,61.3,46.2,61.9,45.6,61.5z M59.4,59.7c-1.9,0-3.9-0.2-5.7-0.9
			c-0.4-0.2-0.8-0.4-1.2-0.6c-0.5-0.3-0.3-1.3-0.3-1.9c2.2,1.5,5.2,1.7,7.8,1.7c2.5,0,5.6-0.2,7.8-1.7c0,0.7,0.3,1.6-0.4,1.9
			c-0.5,0.2-1,0.5-1.5,0.6C63.8,59.5,61.6,59.7,59.4,59.7C54.7,59.5,64.4,59.8,59.4,59.7z M51.1,58.6c0.7,0.9,2,1.3,3.1,1.6
			c-1.8,0.1-3.6,0-5.3-0.5c-1-0.2-2.2-0.6-3-1.3c-1.7-1.7,4.4-2.7,5-2.8C51,56.4,50.7,58.1,51.1,58.6C51.3,58.8,51.1,58.5,51.1,58.6
			z M62.1,62.9c0.4-0.2,0.3-0.8,0.3-1.2c0.8,0.5,2.3,0.6,3.2,0.7c1.4,0.2,2.7,0.2,4.1,0.1c2.1-0.1,4.5-0.4,6.3-1.6
			c0,0.4,0.2,1.6-0.1,1.8c-0.3,0.2-0.6,0.3-1,0.5c-1.1,0.5-2.4,0.8-3.6,0.9c-3.1,0.4-6.8,0.4-9.7-0.9C61.7,63.1,61.9,63,62.1,62.9
			C62.3,62.8,62.1,62.9,62.1,62.9z M77.2,61.9c2.1-0.1,4.6-0.4,6.5-1.7c0,0.5,0.2,1.6-0.2,1.9c-0.4,0.2-0.9,0.4-1.4,0.6
			c-1.7,0.6-3.6,0.9-5.4,0.9C77.3,63.2,77.2,62.6,77.2,61.9z M76,59c0,1.3-3,1.8-3.8,2c-2.9,0.6-6,0.5-8.8-0.2
			c1.8-0.3,3.9-0.7,5.4-1.8c0.4-0.3,0-0.3,0.6-0.3c0.5,0,1,0,1.4-0.1c0.7-0.1,1.4-0.2,2.2-0.3c0.6-0.1,1.2-0.2,1.7-0.4
			C75.1,58,76,58.4,76,59z M69,57.3c0-0.4,0-0.9,0-1.3c0-0.1,0-0.3,0-0.4c0.6,0,1.2,0,1.8-0.1c1.9-0.2,4-0.5,5.6-1.6
			c0,0.6,0.3,1.6-0.3,1.9c-0.5,0.2-0.9,0.4-1.4,0.6C72.9,57,70.9,57.3,69,57.3z M60,56.7c-1.6,0-3.3-0.1-4.9-0.6
			c-0.6-0.2-1.2-0.3-1.7-0.6c-0.2-0.1-0.4-0.2-0.6-0.3c-0.2-0.1-0.1-0.4-0.3-0.6c2.8,0.3,5.8,0.2,8.5-0.7c0.7-0.2,2.6-0.7,3-1.5
			c0.8,0.2,5,1.2,3.2,2.7C65.4,56.6,62.3,56.7,60,56.7z M47.4,64c0.4-0.2,0.2-0.2,0.7-0.1c0.2,0.1,0.5,0.1,0.7,0.2
			c0.7,0.1,1.3,0.2,2,0.3c1.5,0.2,3,0.2,4.5,0.1c0.7,0,1-0.1,1.4,0.4c0.2,0.2,0.4,0.5,0.2,0.8c-0.4,0.6-1.2,0.9-1.8,1.1
			c-2.6,1-5.6,1.1-8.4,0.7c-1.4-0.2-4.5-0.5-5.2-1.9C43.5,65.4,45.6,65,47.4,64C47.5,63.9,46.4,64.5,47.4,64z M60.2,64
			c0.2-0.1,0.8,0.4,1,0.4c0.6,0.2,1.2,0.4,1.8,0.6c1.9,0.4,3.8,0.6,5.7,0.5c1,0,2-0.1,2.9-0.2c0.4-0.1,0.7-0.1,1.1-0.2
			c0.5-0.1,0.7-0.3,0.9,0.2c0.3,0.8-1.2,1.4-1.7,1.5c-3.3,1.3-7.4,1.3-10.8,0.4c-0.9-0.2-2.3-0.6-2.9-1.4
			C57.6,64.9,59.7,64.2,60.2,64C60.2,64,58.7,64.5,60.2,64z M83.6,58.4c0,0.7-1.1,1.1-1.6,1.3c-1.5,0.6-3.2,0.9-4.9,1
			c0-1.3,0.2-2.5-1-3.5c0.4-0.2,0.8-0.4,1.1-0.6c0.4-0.3,0.2-0.5,0.7-0.5c1,0.1,2.1,0.3,3.1,0.6C81.7,56.9,83.6,57.4,83.6,58.4z
			 M68.7,49.7c2.3,0,5.5,0.1,7.4,1.7c1.5,1.3-2.1,2.3-2.8,2.5c-0.7,0.2-1.4,0.3-2.1,0.4c-0.5,0.1-1.9,0.3-2.1,0c0-1-1.1-1.8-1.9-2.2
			c-0.6-0.3-1.3-0.5-1.9-0.7c-0.1,0-1-0.2-1-0.3c0-0.2,0-0.4,0-0.6c0-0.6,1.1-0.5,1.6-0.6C66.7,49.7,67.7,49.7,68.7,49.7z
			 M55.2,45.8c1.9,0,3.9,0.2,5.7,0.8c0.6,0.2,2.1,0.7,2.1,1.5c0,0.8-1.5,1.3-2.1,1.5c-1.8,0.6-3.8,0.8-5.7,0.8
			c-1.9,0-3.9-0.2-5.7-0.8c-0.6-0.2-2.1-0.7-2.1-1.5s1.5-1.3,2.1-1.5C51.3,46,53.3,45.8,55.2,45.8z M45.8,50.3
			c0.6-0.2,0.3,0.8,0.3,1.2c0,0.4,0,0.8,0.3,1.1c1.1,1.1,2.8,1.5,4.3,1.8c-2.5,0.7-5.1,0.7-7.7,0.4c-1.5-0.2-3.6-0.5-4.7-1.6
			c-0.8-0.8,0.4-1.5,1-1.8C41.4,50.5,43.7,50.3,45.8,50.3z M37,56.9c1.1,1.2,3,1.6,4.5,1.9c0.8,0.2,1.7,0.3,2.5,0.3
			c0.6,0,0.4,0.6,0.4,1.1c0,0.2,0,0.3,0,0.5c0,0.1-1.1,0.3-1.2,0.3c-1,0.2-2.1,0.3-3.2,0.3c-1.8,0.1-3.7-0.1-5.5-0.5
			c-0.9-0.2-2.1-0.6-2.8-1.3C30.2,57.9,36.4,56.9,37,56.9C37.3,57.2,33.4,57.2,37,56.9z M30.3,61.5c0,1.1-0.1,1.8,0.8,2.4
			c1.7,1.1,4,1.5,6,1.7c-2.1,0.5-4.3,0.6-6.5,0.4c-1.6-0.2-3.4-0.4-4.8-1.3C22.7,62.9,29.3,61.6,30.3,61.5z M40,67.6
			c-2.9,1.5-6.5,1.6-9.7,1.3c-1.4-0.1-2.9-0.4-4.3-0.9c-0.3-0.1-0.7-0.3-1-0.5c-0.5-0.3-0.2-1.3-0.2-1.8c2.2,1.5,5.2,1.7,7.8,1.7
			c2.5,0,5.3-0.2,7.5-1.5C40.2,66.2,40.4,67.4,40,67.6C38.9,68.2,40.1,67.6,40,67.6z M48.6,70.6c-1.9,0-3.9-0.2-5.7-0.9
			c-0.4-0.2-0.8-0.4-1.2-0.6c-0.5-0.3-0.3-1.3-0.3-1.9c2.2,1.5,5.2,1.7,7.8,1.7c2.5,0,5.6-0.2,7.8-1.7c0,0.7,0.3,1.6-0.4,1.9
			c-0.5,0.2-1,0.5-1.5,0.6C53,70.5,50.8,70.7,48.6,70.6C43.9,70.5,53.6,70.7,48.6,70.6z M65.4,70.8c-2.1,0-4.2-0.3-6.1-1.1
			c-0.4-0.2-0.8-0.4-1.1-0.6c-0.2-0.3,0-1.3,0-1.7c2.2,1.5,5.2,1.7,7.8,1.7c2.5,0,5.6-0.2,7.8-1.7c0,0.7,0.3,1.6-0.4,1.9
			c-0.5,0.2-1,0.5-1.5,0.6C69.8,70.6,67.6,70.8,65.4,70.8C60.6,70.7,70.3,70.9,65.4,70.8z M82.3,70.5c-1.9,0-3.9-0.2-5.7-0.9
			c-0.4-0.2-0.8-0.4-1.2-0.6c-0.5-0.3-0.3-1.3-0.3-1.9c2.2,1.5,5.2,1.7,7.8,1.7c2.5,0,5.6-0.2,7.8-1.7c0,0.7,0.3,1.6-0.4,1.9
			c-0.5,0.2-1,0.5-1.5,0.6C86.6,70.3,84.4,70.5,82.3,70.5C77.5,70.4,87.2,70.6,82.3,70.5z"/>
	</g>
	<path fill="#040000" d="M22.7,28.2c-1.1,0-2.2,0.1-3.3,0c-0.4,0-0.3,0.1-0.5-0.2c-0.2-0.3-0.4-0.5-0.6-0.8
		c-0.3-0.4-0.9-0.9-1.1-1.4c-0.1-0.3,0-0.7,0-1c0-0.8,0-1.6,0-2.3c0-0.7,0-1.4,0-2.1c0-0.4,0.1-0.9,0-1.2c-0.3-0.8-1.2-0.2-1.2,0.4
		c0,0.6,0,1.2,0,1.8c0,1.4,0,2.8,0,4.2c0,0.3-0.1,0.4-0.3,0.7c-0.5,0.6-0.9,1.2-1.4,1.8c-0.2,0.3-0.6,0.2-1,0.2c-0.7,0-1.4,0-2.2,0
		c-0.9,0-1,1.3-0.1,1.3c0.6,0,1.3,0,1.9,0c0.3,0,0.9-0.1,1.1,0.1c0.5,0.6,0.9,1.2,1.4,1.7c0.2,0.2,0.6,0.6,0.6,0.8c0,0.5,0,1,0,1.6
		c0,1.4,0,2.9,0,4.3c0,0.5,0.2,1.3,0.9,0.9c0.5-0.2,0.4-0.9,0.4-1.3c0-1.5,0-3,0-4.5c0-0.4,0-0.8,0-1.1c0-0.3,0.7-1,0.9-1.2
		c0.4-0.5,0.7-1,1.1-1.4c0.1-0.1,1.2,0,1.4,0c0.6,0,1.3,0,1.9,0C23.3,29.4,23.7,28.2,22.7,28.2z M16.5,30.8c-0.5-0.6-1-1.3-1.5-1.9
		c0.5-0.6,1-1.3,1.5-1.9c0.5,0.6,1,1.3,1.5,1.9C17.5,29.5,17,30.2,16.5,30.8C16,30.2,17,30.2,16.5,30.8z"/>
	<path fill="#040000" d="M86.2,33.5c-1.1,0-2.2,0.1-3.3,0c-0.4,0-0.3,0.1-0.5-0.2c-0.2-0.3-0.4-0.5-0.6-0.8
		c-0.3-0.4-0.9-0.9-1.1-1.4c-0.1-0.3,0-0.7,0-1c0-0.8,0-1.6,0-2.3c0-0.7,0-1.4,0-2.1c0-0.4,0.1-0.9,0-1.2c-0.3-0.8-1.2-0.2-1.2,0.4
		c0,0.6,0,1.2,0,1.8c0,1.4,0,2.8,0,4.2c0,0.3-0.1,0.4-0.3,0.7c-0.5,0.6-0.9,1.2-1.4,1.8c-0.2,0.3-0.6,0.2-1,0.2c-0.7,0-1.4,0-2.2,0
		c-0.9,0-1,1.3-0.1,1.3c0.6,0,1.3,0,1.9,0c0.3,0,0.9-0.1,1.1,0.1c0.5,0.6,0.9,1.2,1.4,1.7c0.2,0.2,0.6,0.6,0.6,0.8c0,0.5,0,1,0,1.6
		c0,1.4,0,2.9,0,4.3c0,0.5,0.2,1.3,0.9,0.9c0.5-0.2,0.4-0.9,0.4-1.3c0-1.5,0-3,0-4.5c0-0.4,0-0.8,0-1.1c0-0.3,0.7-1,0.9-1.2
		c0.4-0.5,0.7-1,1.1-1.4c0.1-0.1,1.2,0,1.4,0c0.6,0,1.3,0,1.9,0C86.8,34.8,87.1,33.5,86.2,33.5z M80,36.2c-0.5-0.6-1-1.3-1.5-1.9
		c0.5-0.6,1-1.3,1.5-1.9c0.5,0.6,1,1.3,1.5,1.9C81,34.9,80.5,35.5,80,36.2C79.5,35.5,80.5,35.5,80,36.2z"/>
	<path fill="#040000" d="M68.9,20.3c-1.1,0-2.2,0.1-3.3,0c-0.4,0-0.3,0.1-0.5-0.2c-0.2-0.3-0.4-0.5-0.6-0.8
		c-0.3-0.4-0.9-0.9-1.1-1.4c-0.1-0.3,0-0.7,0-1c0-0.8,0-1.6,0-2.3c0-0.7,0-1.4,0-2.1c0-0.4,0.1-0.9,0-1.2c-0.3-0.8-1.2-0.2-1.2,0.4
		c0,0.6,0,1.2,0,1.8c0,1.4,0,2.8,0,4.2c0,0.3-0.1,0.4-0.3,0.7c-0.5,0.6-0.9,1.2-1.4,1.8c-0.2,0.3-0.6,0.2-1,0.2c-0.7,0-1.4,0-2.2,0
		c-0.9,0-1,1.3-0.1,1.3c0.6,0,1.3,0,1.9,0c0.3,0,0.9-0.1,1.1,0.1c0.5,0.6,0.9,1.2,1.4,1.7c0.2,0.2,0.6,0.6,0.6,0.8c0,0.5,0,1,0,1.6
		c0,1.4,0,2.9,0,4.3c0,0.5,0.2,1.3,0.9,0.9c0.5-0.2,0.4-0.9,0.4-1.3c0-1.5,0-3,0-4.5c0-0.4,0-0.8,0-1.1c0-0.3,0.7-1,0.9-1.2
		c0.4-0.5,0.7-1,1.1-1.4c0.1-0.1,1.2,0,1.4,0c0.6,0,1.3,0,1.9,0C69.6,21.6,69.9,20.3,68.9,20.3z M62.7,22.9c-0.5-0.6-1-1.3-1.5-1.9
		c0.5-0.6,1-1.3,1.5-1.9c0.5,0.6,1,1.3,1.5,1.9C63.7,21.7,63.2,22.3,62.7,22.9C62.3,22.3,63.2,22.3,62.7,22.9z"/>
</g>
</svg>
