<?xml version="1.0" encoding="utf-8"?>
<!-- Generator: Adobe Illustrator 17.0.1, SVG Export Plug-In . SVG Version: 6.00 Build 0)  -->
<!DOCTYPE svg PUBLIC "-//W3C//DTD SVG 1.1//EN" "http://www.w3.org/Graphics/SVG/1.1/DTD/svg11.dtd">
<svg version="1.1" id="レイヤー_1" xmlns="http://www.w3.org/2000/svg" xmlns:xlink="http://www.w3.org/1999/xlink" x="0px"
	 y="0px" width="841.89px" height="595.28px" viewBox="0 0 841.89 595.28" enable-background="new 0 0 841.89 595.28"
	 xml:space="preserve">
<rect x="350.547" y="227.318" fill="#FFFFFF" stroke="#A660A3" stroke-width="2" stroke-miterlimit="10" width="141.732" height="141.732"/>
<path fill-rule="evenodd" clip-rule="evenodd" fill="#FFFFFF" stroke="#000000" stroke-miterlimit="10" d="M480.961,345.602v-78.674
	c-11.066-17.324-49.801-13.423-56.843,11.284h-1.408c-12.257-26.641-48.174-28.04-62.257-11.284v78.674l2.616,6.247l22.129-22.723
	l23.136,2.556l16.698,3.411c0,0,18.107-6.533,18.91-6.25C444.749,329.126,480.961,345.602,480.961,345.602L480.961,345.602z"/>
<path fill-rule="evenodd" clip-rule="evenodd" stroke="#000000" stroke-width="0.5" stroke-miterlimit="10" d="M360.317,266.698
	l-0.076,0.09v78.896l2.764,6.602c0,0,22.129-22.722,22.255-22.852c0.155,0.017,23.058,2.547,23.058,2.547
	c0,0.001,16.726,3.418,16.726,3.418l0.041-0.015c7.179-2.59,18.113-6.392,18.812-6.247c0.785,0.275,36.637,16.586,36.999,16.75
	l0.278,0.127v-79.202l-0.055-0.086c-5.812-9.099-19.666-13-33.691-9.486c-11.944,2.993-20.474,10.523-23.446,20.671
	c-0.203,0-0.993,0-1.161,0c-5.195-11.181-14.874-18.767-27.277-21.364C381.966,253.705,367.809,257.784,360.317,266.698
	L360.317,266.698z M395.482,257.141c12.332,2.582,21.939,10.123,27.051,21.234l0.063,0.136h1.667l0.054-0.188
	c2.864-10.049,11.315-17.518,23.186-20.492c13.626-3.414,27.584,0.464,33.246,9.219c0,0.244,0,77.326,0,78.139
	c-3.568-1.623-35.978-16.365-36.754-16.637c-0.811-0.286-15.864,5.114-18.973,6.236c-0.083-0.017-16.656-3.403-16.656-3.403
	c-0.014-0.002-23.228-2.566-23.228-2.566s-21.632,22.212-22.004,22.594c-0.214-0.511-2.412-5.761-2.467-5.893
	c0-0.163,0-78.157,0-78.447C368.09,258.323,382.061,254.331,395.482,257.141L395.482,257.141z"/>
<path fill-rule="evenodd" clip-rule="evenodd" stroke="#000000" stroke-miterlimit="10" d="M361.397,269.363l-0.043,0.045v77.331
	h0.213c0,0,0-77.016,0-77.175c7.405-7.775,18.834-11.589,30.589-10.199c12.53,1.481,23.26,8.72,29.439,19.86l0.034,0.061
	l3.853-0.236l0.03-0.068c3.87-8.961,11.465-15.397,21.387-18.125c12.471-3.428,26.453-0.297,33.999,7.613l0.127-0.241
	c-7.592-7.957-21.641-11.11-34.167-7.667c-9.955,2.737-17.583,9.198-21.494,18.194c-0.099,0.006-3.537,0.217-3.638,0.223
	c-6.22-11.171-16.987-18.428-29.553-19.914C380.346,257.667,368.841,261.516,361.397,269.363L361.397,269.363z"/>
<path fill-rule="evenodd" clip-rule="evenodd" stroke="#000000" stroke-miterlimit="10" d="M362.401,272.206l-0.04,0.045v76.474
	h0.212c0,0,0-76.168,0-76.324c7.795-8.655,20.706-12.32,33.713-9.56c10.861,2.304,19.77,8.641,23.832,16.952l0.032,0.065h6.547
	l0.032-0.063c4.446-8.81,13.252-15.049,24.162-17.117c11.9-2.256,23.599,0.908,29.803,8.06l0.134-0.233
	c-6.247-7.202-18.009-10.392-29.965-8.125c-10.941,2.074-19.782,8.334-24.272,17.177c-0.102,0-6.229,0-6.332,0
	c-4.11-8.345-13.052-14.703-23.941-17.013C383.232,259.769,370.236,263.471,362.401,272.206L362.401,272.206z"/>
<path fill-rule="evenodd" clip-rule="evenodd" d="M362.912,275.249l-0.055,0.086v79.592l0.373-0.609
	c9.905-16.176,41.37-19.986,53.65-10.159l0.049,0.039h12.786l0.049-0.039c12.281-9.827,43.745-6.017,53.65,10.159l0.373,0.609
	v-79.592l-0.055-0.086c-6.913-10.825-25.352-12.718-39.184-8.295c-8.354,2.672-13.801,7.204-15.025,12.454
	c-0.263,0-12.14,0-12.403,0c-1.224-5.249-6.668-9.781-15.02-12.452C388.268,262.53,369.826,264.422,362.912,275.249L362.912,275.249
	z M402.007,267.541c8.314,2.659,13.699,7.125,14.775,12.252l0.045,0.214h12.991l0.045-0.214c1.077-5.128,6.463-9.594,14.78-12.254
	c13.678-4.374,31.871-2.557,38.72,8.034c0,0.244,0,76.303,0,77.789c-4.849-7.427-14.284-12.721-26.043-14.557
	c-11.182-1.746-21.787,0.092-27.71,4.792c-0.097,0-12.478,0-12.575,0c-5.922-4.7-16.529-6.538-27.71-4.792
	c-11.759,1.836-21.194,7.13-26.043,14.557c0-1.486,0-77.545,0-77.789C370.133,264.981,388.327,263.164,402.007,267.541
	L402.007,267.541z"/>
<path fill-rule="evenodd" clip-rule="evenodd" d="M429.66,279.408h-12.886v64.79h13.099v-64.79H429.66L429.66,279.408z
	 M429.447,280.007c0,0.592,0,62.999,0,63.591c-0.404,0-11.845,0-12.249,0c0-0.592,0-62.999,0-63.591
	C417.602,280.007,429.044,280.007,429.447,280.007L429.447,280.007z"/>
<path fill-rule="evenodd" clip-rule="evenodd" stroke="#000000" stroke-width="0.5" stroke-miterlimit="10" d="M360.317,263.757
	l-0.076,0.09v78.896l2.764,6.602c0,0,22.129-22.722,22.255-22.852c0.155,0.017,23.058,2.547,23.058,2.547
	c0,0.001,16.726,3.418,16.726,3.418l0.041-0.015c7.179-2.59,18.113-6.392,18.812-6.247c0.785,0.275,36.637,16.586,36.999,16.75
	l0.278,0.127v-79.202l-0.055-0.086c-5.812-9.099-19.666-13-33.691-9.486c-11.944,2.993-20.474,10.523-23.446,20.671
	c-0.203,0-0.993,0-1.161,0c-5.195-11.181-14.874-18.767-27.277-21.364C381.966,250.764,367.809,254.843,360.317,263.757
	L360.317,263.757z M395.482,254.2c12.332,2.582,21.939,10.123,27.051,21.234l0.063,0.136h1.667l0.054-0.188
	c2.864-10.049,11.315-17.518,23.186-20.492c13.626-3.414,27.584,0.464,33.246,9.219c0,0.244,0,77.326,0,78.139
	c-3.568-1.623-35.978-16.365-36.754-16.637c-0.811-0.286-15.864,5.114-18.973,6.236c-0.083-0.017-16.656-3.403-16.656-3.403
	c-0.014-0.002-23.228-2.566-23.228-2.566s-21.632,22.212-22.004,22.594c-0.214-0.511-2.412-5.761-2.467-5.893
	c0-0.163,0-78.157,0-78.447C368.09,255.382,382.061,251.391,395.482,254.2L395.482,254.2z"/>
<path fill-rule="evenodd" clip-rule="evenodd" stroke="#000000" stroke-width="0.5" stroke-miterlimit="10" d="M360.317,261.151
	l-0.076,0.09v78.896l2.764,6.602c0,0,22.129-22.722,22.255-22.852c0.155,0.017,23.058,2.547,23.058,2.547
	c0,0.001,16.726,3.418,16.726,3.418l0.041-0.015c7.179-2.59,18.113-6.392,18.812-6.247c0.785,0.275,36.637,16.586,36.999,16.75
	l0.278,0.127v-79.202l-0.055-0.086c-5.812-9.099-19.666-13-33.691-9.486c-11.944,2.993-20.474,10.523-23.446,20.671
	c-0.203,0-0.993,0-1.161,0c-5.195-11.181-14.874-18.767-27.277-21.364C381.966,248.158,367.809,252.236,360.317,261.151
	L360.317,261.151z M395.482,251.594c12.332,2.582,21.939,10.123,27.051,21.234l0.063,0.136h1.667l0.054-0.188
	c2.864-10.049,11.315-17.518,23.186-20.492c13.626-3.414,27.584,0.464,33.246,9.219c0,0.244,0,77.326,0,78.139
	c-3.568-1.623-35.978-16.365-36.754-16.637c-0.811-0.286-15.864,5.114-18.973,6.236c-0.083-0.017-16.656-3.403-16.656-3.403
	c-0.014-0.002-23.228-2.566-23.228-2.566s-21.632,22.212-22.004,22.594c-0.214-0.511-2.412-5.761-2.467-5.893
	c0-0.163,0-78.157,0-78.447C368.09,252.776,382.061,248.784,395.482,251.594L395.482,251.594z"/>
<path fill-rule="evenodd" clip-rule="evenodd" stroke="#000000" stroke-width="0.5" stroke-miterlimit="10" d="M360.317,257.61
	l-0.076,0.09v78.896l2.764,6.602c0,0,22.129-22.722,22.255-22.852c0.155,0.017,23.058,2.547,23.058,2.547
	c0,0.001,16.726,3.418,16.726,3.418l0.041-0.015c7.179-2.59,18.113-6.392,18.812-6.247c0.785,0.275,36.637,16.586,36.999,16.75
	l0.278,0.127v-79.202l-0.055-0.086c-5.812-9.099-19.666-13-33.691-9.486c-11.944,2.993-20.474,10.523-23.446,20.671
	c-0.203,0-0.993,0-1.161,0c-5.195-11.181-14.874-18.767-27.277-21.364C381.966,244.617,367.809,248.696,360.317,257.61
	L360.317,257.61z M395.482,248.053c12.332,2.582,21.939,10.123,27.051,21.234l0.063,0.136h1.667l0.054-0.188
	c2.864-10.049,11.315-17.518,23.186-20.492c13.626-3.414,27.584,0.464,33.246,9.219c0,0.244,0,77.326,0,78.139
	c-3.568-1.623-35.978-16.365-36.754-16.637c-0.811-0.286-15.864,5.114-18.973,6.236c-0.083-0.017-16.656-3.403-16.656-3.403
	c-0.014-0.002-23.228-2.566-23.228-2.566s-21.632,22.212-22.004,22.594c-0.214-0.511-2.412-5.761-2.467-5.893
	c0-0.163,0-78.157,0-78.447C368.09,249.235,382.061,245.243,395.482,248.053L395.482,248.053z"/>
<path fill-rule="evenodd" clip-rule="evenodd" stroke="#000000" stroke-width="2" stroke-miterlimit="10" d="M360.317,254.412
	l-0.076,0.09v78.896l2.764,6.602c0,0,22.129-22.722,22.255-22.852c0.155,0.017,23.058,2.547,23.058,2.547
	c0,0.001,16.726,3.418,16.726,3.418l0.041-0.015c7.179-2.59,18.113-6.392,18.812-6.247c0.785,0.275,36.637,16.586,36.999,16.75
	l0.278,0.127v-79.202l-0.055-0.086c-5.812-9.099-19.666-13-33.691-9.486c-11.944,2.993-20.474,10.523-23.446,20.671
	c-0.203,0-0.993,0-1.161,0c-5.195-11.181-14.874-18.767-27.277-21.364C381.966,241.419,367.809,245.498,360.317,254.412
	L360.317,254.412z M395.482,244.855c12.332,2.582,21.939,10.123,27.051,21.234l0.063,0.136h1.667l0.054-0.188
	c2.864-10.049,11.315-17.518,23.186-20.492c13.626-3.414,27.584,0.464,33.246,9.219c0,0.244,0,77.326,0,78.139
	c-3.568-1.623-35.978-16.365-36.754-16.637c-0.811-0.286-15.864,5.114-18.973,6.236c-0.083-0.017-16.656-3.403-16.656-3.403
	c-0.014-0.002-23.228-2.566-23.228-2.566s-21.632,22.212-22.004,22.594c-0.214-0.511-2.412-5.761-2.467-5.893
	c0-0.163,0-78.157,0-78.447C368.09,246.037,382.061,242.045,395.482,244.855L395.482,244.855z"/>
<path fill-rule="evenodd" clip-rule="evenodd" d="M429.66,279.708h-12.674c-3.219-15.335-42.851-21.583-53.916-4.258v78.672
	c10.26-16.755,41.845-19.883,53.916-10.223h12.674c12.071-9.66,43.655-6.532,53.916,10.223V275.45
	C472.511,258.125,432.88,264.373,429.66,279.708L429.66,279.708z"/>
<polygon fill-rule="evenodd" clip-rule="evenodd" fill="#898989" stroke="#000000" stroke-width="3" stroke-miterlimit="10" points="
	416.986,279.708 429.66,279.708 429.66,343.898 416.986,343.898 416.986,279.708 "/>
<g>
	<path d="M426.001,297.831c0,2.093-1.196,3.784-2.678,3.784c-1.482,0-2.678-1.69-2.678-3.784c0-2.094,1.196-3.784,2.678-3.784
		C424.817,294.047,426.001,295.754,426.001,297.831z M421.056,297.831c0,1.765,1.018,3.204,2.268,3.204s2.268-1.438,2.268-3.204
		c0-1.766-1.018-3.203-2.268-3.203C422.062,294.627,421.056,296.082,421.056,297.831z"/>
	<path d="M426.001,306.23c0,2.094-1.196,3.784-2.678,3.784c-1.482,0-2.678-1.69-2.678-3.784c0-2.093,1.196-3.783,2.678-3.783
		C424.817,302.447,426.001,304.154,426.001,306.23z M421.056,306.23c0,1.766,1.018,3.204,2.268,3.204s2.268-1.438,2.268-3.204
		s-1.018-3.203-2.268-3.203C422.062,303.027,421.056,304.482,421.056,306.23z"/>
	<path d="M424.4,311.823c0.637,0.689,1.375,1.682,1.708,2.388l-0.339,0.387c-0.107-0.235-0.256-0.505-0.435-0.782
		c-1.673,0.102-3.47,0.186-4.553,0.235c-0.006,0.067-0.048,0.102-0.095,0.109l-0.149-0.689l1.006-0.024
		c0.381-0.766,0.833-1.9,1.095-2.741l0.5,0.286c-0.012,0.05-0.065,0.075-0.131,0.075c-0.256,0.715-0.648,1.64-1,2.362l2.987-0.117
		c-0.285-0.412-0.601-0.815-0.904-1.144L424.4,311.823z M421.431,318.541v-3.573h3.779v3.539h-0.417v-0.327h-2.963v0.361H421.431z
		 M424.793,315.514h-2.963v2.11h2.963V315.514z"/>
	<path d="M422.687,320.762v3.775c0,0.445-0.095,0.58-0.571,0.58c-0.012-0.144-0.065-0.362-0.119-0.496h0.321
		c0.042,0,0.054-0.018,0.054-0.093v-3.254h-0.5v5.667h-0.351v-5.667h-0.476v3.909h-0.321v-4.422h0.797v-1.623l0.458,0.051
		c-0.006,0.051-0.036,0.093-0.107,0.101v1.472H422.687z M424.508,323.536c0.089,0.445,0.202,0.857,0.351,1.228
		c0.304-0.303,0.655-0.698,0.881-1.009l0.327,0.412c-0.018,0.025-0.041,0.042-0.077,0.042c-0.012,0-0.029,0-0.048-0.009
		c-0.231,0.286-0.606,0.664-0.916,0.95c0.285,0.597,0.66,1.051,1.125,1.32c-0.09,0.109-0.209,0.336-0.269,0.487
		c-0.887-0.589-1.434-1.824-1.726-3.422h-0.506v2.572c0.375-0.066,0.786-0.143,1.196-0.227l0.018,0.471
		c-0.72,0.16-1.476,0.328-1.945,0.421c-0.006,0.059-0.042,0.101-0.084,0.117l-0.143-0.622l0.583-0.093v-2.64h-0.512v-0.496h0.512
		v-3.666h2.541v0.514h-2.166v0.731h1.97v0.462h-1.97v0.748h1.97v0.454h-1.97v0.757h2.429v0.496H424.508z"/>
</g>
</svg>
