<?xml version="1.0" encoding="utf-8"?>
<!-- Generator: Adobe Illustrator 17.1.0, SVG Export Plug-In . SVG Version: 6.00 Build 0)  -->
<!DOCTYPE svg PUBLIC "-//W3C//DTD SVG 1.1//EN" "http://www.w3.org/Graphics/SVG/1.1/DTD/svg11.dtd">
<svg version="1.1" id="Ebene_1" xmlns="http://www.w3.org/2000/svg" xmlns:xlink="http://www.w3.org/1999/xlink" x="0px" y="0px"
	 width="100px" height="100px" viewBox="0 0 100 100" enable-background="new 0 0 100 100" xml:space="preserve">
<circle fill="#B2B2B2" cx="50" cy="50" r="50"/>
<path fill="#C9CACA" stroke="#000000" stroke-width="3" stroke-miterlimit="10" d="M15.1,32.6c8.9,0,17.9,0,26.8,0
	c1.6,0,25.8,0,25.8,0c0,9.7,0,19.4,0,29c0,5.2,0,10.5,0,15.7c0,0.9,0,1.8,0,2.6c0,0-2.1,0-2.2,0c-11.4,0-22.8,0-34.1,0
	c-4.8,0-9.5,0-14.3,0c-0.1,0-2,0-2,0c0-1,0-2,0-2.9c0-11.7,0-23.4,0-35C15.1,38.9,15.1,35.8,15.1,32.6z"/>
<path fill="#C9CACA" stroke="#000000" stroke-width="3" stroke-linejoin="round" stroke-miterlimit="10" d="M83.4,22.7
	c-8.9,0-17.9,0-26.8,0c-6,0-12.1,0-18.1,0c-1.9,0-3.8,0-5.8,0c-0.4,0-1.6-0.2-2,0c-5.2,3.3-10.4,6.6-15.6,9.9c8.9,0,17.9,0,26.8,0
	c6,0,12.1,0,18.1,0c1.9,0,3.8,0,5.8,0c0.4,0,1.6,0.2,2,0C73,29.3,78.2,26,83.4,22.7z"/>
<path fill="#C9CACA" stroke="#000000" stroke-width="3" stroke-linejoin="round" stroke-miterlimit="10" d="M83.6,22.7
	c-4.2,2.6-8.4,5.2-12.6,7.9c-0.9,0.6-1.8,1.1-2.7,1.7c-0.2,0.1-0.6,0.2-0.6,0.4c0,1.1,0,2.3,0,3.4c0,11.8,0,23.5,0,35.3
	c0,2.9,0,5.8,0,8.6c4.2-2.6,8.4-5.2,12.6-7.9c0.9-0.6,1.8-1.1,2.7-1.7c0.2-0.1,0.6-0.2,0.6-0.4c0-1.1,0-2.3,0-3.4
	c0-11.8,0-23.5,0-35.3C83.6,28.5,83.6,25.6,83.6,22.7z"/>
<path fill="#FFFFFF" stroke="#000000" stroke-width="2" stroke-miterlimit="10" d="M39.4,24.8c4.7,0,9.3,0,14,0c2.7,0,5.4,0,8.2,0
	c0.5,0,1.1,0,1.6,0c-0.1,0,0.4,1.6-0.1,1.6c-4.6,0-9.2,0-13.8,0c-2.5,0-5.1,0-7.6,0c-0.7,0-1.3,0-2,0C39.1,26.4,39.4,25.3,39.4,24.8
	z"/>
<path fill="#FFFFFF" stroke="#000000" stroke-width="2" stroke-miterlimit="10" d="M33.9,28.1c4.7,0,9.3,0,14,0c2.7,0,5.4,0,8.2,0
	c0.5,0,1.1,0,1.6,0c-0.1,0,0.4,1.6-0.1,1.6c-4.6,0-9.2,0-13.8,0c-2.5,0-5.1,0-7.6,0c-0.7,0-1.3,0-2,0C33.6,29.6,33.9,28.5,33.9,28.1
	z"/>
<path fill="none" stroke="#000000" stroke-width="3" stroke-miterlimit="10" d="M43.2,5.3c5,0,9.9,0,14.9,0c1,0,2.1,0,3.1,0
	c0.5,0,0.6-0.1,0.6,0.3c0,2.6,0,5.1,0,7.7c0,2.5,0,5,0,7.4c0,0.4-0.4,0.2-0.8,0.2c-1.1,0-2.2,0-3.3,0c-1.1,0-14.5,0-14.5,0
	C43.2,15.7,43.2,10.5,43.2,5.3z"/>
<path fill="none" stroke="#000000" stroke-width="3" stroke-miterlimit="10" d="M30.3,46.9c1.6,0,3.1,1.2,3.1,2.8
	c0,1.7-1.6,2.8-3.1,2.8s-3.1-1.2-3.1-2.8C27.1,48.1,28.7,46.9,30.3,46.9z"/>
<path fill="none" stroke="#000000" stroke-width="3" stroke-miterlimit="10" d="M48.6,46.9c1.6,0,3.1,1.2,3.1,2.8
	c0,1.7-1.6,2.8-3.1,2.8s-3.1-1.2-3.1-2.8C45.5,48.1,47,46.9,48.6,46.9z"/>
<path d="M30.2,48.8c1.8,0,1.8,2.6,0,2.6S28.4,48.8,30.2,48.8z"/>
<path d="M48.6,48.8c1.8,0,1.8,2.6,0,2.6S46.8,48.8,48.6,48.8z"/>
<path fill="none" stroke="#000000" stroke-width="3" stroke-miterlimit="10" d="M36.2,44.8c0,0-4.1-6.1-10.8,0"/>
<path fill="none" stroke="#000000" stroke-width="3" stroke-miterlimit="10" d="M54,44.8c0,0-4.1-6.1-10.8,0"/>
<path fill="#FFFFFF" stroke="#000000" stroke-width="3" stroke-miterlimit="10" d="M30,56.4c4.9,0,9.9,0,14.8,0
	c0.3,0,4.4-0.1,4.4,0.1c0,1.9,0,3.7,0,5.6c0,5.4,0,10.8,0,16.2c0,0.4,0,0.3-0.4,0.3c-0.9,0-1.9,0-2.8,0c-3.1,0-6.3,0-9.4,0
	c-2.2,0-4.3,0-6.5,0c-0.3,0-0.1-3.3-0.1-3.7c0-5.8,0-11.5,0-17.3C30,57.2,30,56.8,30,56.4z"/>
<g>
	<path d="M38,62c-0.4,0.1-0.9,0.1-1.3,0.2c-0.3,0-0.1,0.9-0.1,1.1c0,0.3,0.1,0.7-0.2,0.9c-0.3,0.1-0.6,0.1-0.9,0.1
		c-0.2,0-0.4,0-0.6,0c-0.5,0-0.3-0.1-0.6-0.3c0.3,0,1.5,0.2,1.5-0.2c0-0.5,0-1,0-1.4c-0.5,0.1-1,0.2-1.5,0.2c0,0.3-0.5-0.3-0.5-0.4
		c0.2,0,2-0.2,2-0.3c0-0.4,0-0.8,0-1.1c0-0.3-1.5-0.1-1.8-0.1c-0.2,0-0.2-0.4,0-0.4c0.4,0,0.8,0,1.2,0c0.2,0,0.5,0.1,0.5-0.1
		c0-0.3,0-0.7,0-1c0.4,0,0.7,0,1.1,0c-0.1,0.3-0.2,0-0.2,0.4c0,0.1,0,0.7,0,0.7c0.2,0,1.4-0.1,1.4,0.1c0,0.5-0.9,0.3-1.3,0.3
		c-0.3,0-0.1,0.9-0.1,1.2C36.9,61.8,38,61.4,38,62z M43.8,61.6c0.2,0,0.4,0.1,0.6,0.1c-0.6,0.7-1.4,1.3-2.3,1.6
		c1.1,0.4,2.2,0.6,3.3,0.7c-0.2,0.1-0.4,0.2-0.6,0.3c-0.4,0-0.7-0.1-1-0.1c-0.7-0.1-1.4-0.3-2.1-0.5c-0.5-0.2-1.4,0.2-1.9,0.4
		c-0.4,0.1-0.7,0.1-1.1,0.2c-0.6,0.1-0.7,0-1.2-0.2c1.1-0.1,2.3-0.3,3.3-0.7c-0.7-0.3-1.3-0.7-1.8-1.3c0.2,0,0.4-0.1,0.6-0.1
		c-0.3,0-0.5,0-0.8,0c-0.3,0-0.3-0.3-0.3-0.3c0.5,0,1,0,1.5,0C41.2,61.7,42.5,61.8,43.8,61.6z M40,59.8c0,0.4-0.1,0.7-0.3,1
		c-0.2,0.2-0.5,0.4-0.8,0.5c-0.6,0.3-0.6,0.1-1.2-0.1c0.5-0.1,1.3-0.4,1.4-1c0-0.1,0-0.8,0.1-0.8c0.9,0,1.9,0,2.8,0
		c0.4,0,0.7,0,1.1,0c0.2,0,0.1,0.6,0.1,0.8c0,0.5-0.1,0.7,0.5,0.7c0.6,0,0.8,0,0.9-0.7c0.5,0.2,0.9,0.1,0.6,0.7
		c-0.2,0.3-0.6,0.3-0.9,0.3c-0.5,0-1.8,0.2-1.8-0.5c0-0.8,0.2-1-0.6-1C41.2,59.8,40.6,59.8,40,59.8z M39.7,62
		c0.5,0.5,1.1,0.9,1.7,1.1c0.7-0.3,1.3-0.6,1.8-1.1C42,62,40.8,62,39.7,62z"/>
	<path d="M37.6,68.8c-0.3,0.3-1.2,0.4-1.6,0.6c-0.4,0.1-0.8,0.3-1.3,0.4c-0.4,0.1-0.5-0.1-0.9-0.2c0.9-0.2,1.8-0.4,2.7-0.8
		C36.9,68.6,37.3,68.7,37.6,68.8z M33.9,65c2.4,0,4.8,0,7.2,0c1.2,0,2.4,0,3.7,0c0.1,0,0.7,0,0.4,0.3c-0.2,0.2-1.4,0-1.6,0
		c-0.7,0-1.3,0-2,0c-0.2,0-0.2,0-0.2,0.2c0,0.3,0.1,0.2,0.4,0.2c0.7,0,1.4,0,2.1,0c0.7,0,0.5,0.3,0.5,1c0,0.4-0.1,0.3-0.4,0.3
		c-0.6,0-1.2,0-1.7,0c-1.6,0-3.2,0-4.7,0c-0.8,0-1.6,0-2.5,0c0,0,0-1.1,0-1.3c0-0.1,1.4,0,1.5,0c0.2,0,1.3,0.1,1.3-0.1
		c0-0.6-0.3-0.4-0.9-0.4c-0.7,0-1.4,0-2.1,0C34.4,65.3,33.8,65.5,33.9,65z M34,68.5c-0.2-0.5,0.7-0.3,1.1-0.3c1,0,2.1,0,3.1,0
		c2.2,0,4.3,0,6.5,0c0.5,0,0.7,0.3,0.1,0.3c-1.1,0-2.2,0-3.3,0c-0.4,0-0.9,0-1.3,0c-0.4,0-0.2,0.3-0.2,0.7c0,0.3,0,0.6-0.4,0.7
		c-0.3,0.1-0.6,0.1-1,0.1c-0.2,0-0.4,0-0.6,0c-0.5,0-0.3-0.1-0.6-0.3c0.5,0,1.2,0.1,1.7,0c0.1,0,0-0.7,0-0.8c0-0.5-0.5-0.3-1-0.3
		C36.7,68.5,35.3,68.5,34,68.5z M35.5,67.5c1.4,0,2.9,0,4.3,0c0.9,0,1.9,0,2.8,0c0.1,0,1.3-0.1,0.9,0.3c-0.1,0.1-1.2,0-1.4,0
		c-1,0-2,0-2.9,0c-0.9,0-1.9,0-2.8,0C36.1,67.8,35.3,68,35.5,67.5z M35.6,66.1c0,0.6-0.1,0.7,0.5,0.7c0.2,0,1.4,0.2,1.5,0
		c0.1-0.1,0-0.5,0-0.7c0-0.1-0.4-0.1-0.5-0.1C36.6,66.1,36.1,66.1,35.6,66.1z M40.5,65.8c0.1-0.6-0.1-0.5-0.7-0.5
		c-0.2,0-1.3-0.2-1.4,0c0,0,0,0.5,0,0.5c0.2,0,0.4,0,0.6,0C39.5,65.8,40,65.8,40.5,65.8z M38.4,66.1c0,0.6-0.1,0.7,0.5,0.7
		c0.3,0,1.4,0.2,1.6,0c0.1-0.1,0-0.6,0-0.7c0-0.1-0.4-0.1-0.5-0.1C39.5,66.1,38.9,66.1,38.4,66.1z M43.4,66.1c-0.5,0-1.1,0-1.6,0
		c-0.1,0-0.4-0.1-0.5,0c0,0,0,0.7,0,0.7c0.2,0.2,1.4,0,1.6,0C43.5,66.8,43.4,66.7,43.4,66.1z M44.3,69.8c-1-0.4-2-0.7-3-0.9
		c1.1-0.4,2.5,0.3,3.6,0.7C44.8,69.6,44.6,69.7,44.3,69.8z"/>
	<path d="M37.2,72c0,0.1-0.2,0-0.2,0.1c0,0.2,0,0.3,0,0.5c0,0.1,0.5,0.1,0.7,0.1c0.4,0,0.8,0,1.2,0c0.3,0,0.2,0.4,0.2,0.4
		c-0.7,0-1.3,0-2,0c0,0,0,0.2,0,0.2c0,0.2,0.5,0.3,0.6,0.3c0.5,0.2,0.9,0.4,1.4,0.6c-0.1,0.1-0.4,0.3-0.5,0.3
		c-0.5-0.3-1-0.5-1.4-0.7c0,0.4,0,0.8,0,1.2c0,0.6,0.1,0.6-0.6,0.6c-0.4,0-0.2-1.5-0.2-1.9c-0.3,0.3-0.7,0.6-1,0.8
		c-0.2,0.1-0.4,0.2-0.6,0.4c-0.4,0.2-0.4,0-0.8-0.1c0.8-0.4,1.6-1,2.2-1.6c-0.5,0-1,0-1.5,0c-0.1,0-0.5,0.1-0.5,0
		c-0.1-0.1,0-0.4,0.1-0.4c0.6,0,1.1,0,1.7,0c0.6,0,0.5-0.1,0.5-0.8c0.2,0,0.4,0,0.7,0c-0.3-0.6-0.6-0.8-1.2-0.8
		c-0.2,0-0.7,0.5-0.9,0.6c-0.4,0.2-0.5,0.1-0.9,0c0.7-0.3,1.4-0.9,1.8-1.5c0.2-0.1,0.7,0.1,1,0.1c-0.1,0.1-0.2,0.1-0.3,0.1
		c-0.1,0.1-0.2,0.3-0.3,0.4c1.1,0,2.2,0,3.3,0c0.1,0,0.2,0.2,0.1,0.3c-0.1,0.1-0.5,0-0.6,0c-0.6,0-1.1,0-1.7,0
		c0.2,0.2,0.4,0.4,0.6,0.6c-0.2,0-0.4,0.1-0.6,0.1C37.1,72,37.2,72,37.2,72z M41.4,70.5c-0.1,0-0.2,0.1-0.3,0.1
		c-0.1,0.1-0.2,0.3-0.4,0.4c1.4,0,2.8,0,4.2,0c0.1,0,0.4,0.1,0.2,0.3c-0.1,0.1-0.7,0-0.8,0c-0.7,0-1.4,0-2.1,0
		c0.3,0.2,0.6,0.4,0.8,0.6c-0.2,0-0.5,0.2-0.7,0.1c-0.3-0.3-0.8-0.8-1.2-0.8c-0.4,0-0.7-0.1-1,0.2c-0.3,0.2-0.6,0.3-0.8,0.5
		c-0.4,0.2-0.5,0-0.9-0.1c0.8-0.3,1.6-0.8,2.1-1.5C40.7,70.2,41.2,70.4,41.4,70.5z M39.5,75.5c0-0.8,0-1.6,0-2.4
		c0-0.8-0.2-0.9,0.6-0.9c1,0,2,0,3.1,0c0.3,0,1.5-0.2,1.5,0.1c0,0.9,0,1.9,0,2.8c0,0.4,0.1,0.3-0.3,0.3c-0.2,0-0.4,0-0.5,0
		c-0.1,0,0.1-0.2-0.1-0.2c-0.9,0-1.9,0-2.8,0c-0.2,0-0.6-0.1-0.6,0.1C40.3,75.6,39.7,75.5,39.5,75.5z M43.8,72.5c-0.7,0-1.5,0-2.2,0
		c-0.4,0-0.8,0-1.2,0c-0.2,0-0.2,0.5-0.1,0.6c0.2,0.2,1.9,0,2.2,0c0.4,0,0.8,0,1.2,0C43.9,73.1,43.8,72.7,43.8,72.5z M40.3,74
		c0.7,0,1.5,0,2.2,0c0.4,0,0.8,0,1.2,0c0.2,0,0.2-0.5,0.1-0.6c-0.2-0.2-1.9,0-2.2,0c-0.4,0-0.8,0-1.2,0C40.1,73.4,40.3,73.8,40.3,74
		z M40.3,74.9c0.7,0,1.5,0,2.2,0c0.4,0,0.8,0,1.2,0c0.2,0,0.2-0.5,0.1-0.6c-0.2-0.2-1.9,0-2.2,0c-0.4,0-0.8,0-1.2,0
		C40.1,74.3,40.3,74.7,40.3,74.9z"/>
</g>
<text transform="matrix(1 0 0 0.6821 47.9189 7.5286)" font-family="'KozGoPr6N-Regular-90ms-RKSJ-H'" font-size="8.1624" glyph-orientation-vertical="0" writing-mode="tb">〇〇</text>
<text transform="matrix(1 0 0 0.6821 56.0815 7.5286)" font-family="'KozGoPr6N-Regular-90ms-RKSJ-H'" font-size="8.1624" glyph-orientation-vertical="0" writing-mode="tb">〇〇</text>
</svg>
