<?xml version="1.0" encoding="utf-8"?>
<!-- Generator: Adobe Illustrator 17.0.1, SVG Export Plug-In . SVG Version: 6.00 Build 0)  -->
<!DOCTYPE svg PUBLIC "-//W3C//DTD SVG 1.1//EN" "http://www.w3.org/Graphics/SVG/1.1/DTD/svg11.dtd">
<svg version="1.1" id="レイヤー_1" xmlns="http://www.w3.org/2000/svg" xmlns:xlink="http://www.w3.org/1999/xlink" x="0px"
	 y="0px" width="841.89px" height="595.28px" viewBox="0 0 841.89 595.28" enable-background="new 0 0 841.89 595.28"
	 xml:space="preserve">
<rect x="350.547" y="226.462" fill="#FFFFFF" stroke="#A660A3" stroke-width="2" stroke-miterlimit="10" width="141.732" height="141.732"/>
<rect x="370.175" y="281.68" fill="#C9CACA" stroke="#000000" stroke-width="3" stroke-miterlimit="10" width="77.333" height="76.667"/>
<polygon fill="#C9CACA" stroke="#000000" stroke-width="3" stroke-linejoin="round" stroke-miterlimit="10" points="470.508,265.68 
	393.175,265.68 370.175,281.68 447.508,281.68 "/>
<polygon fill="#C9CACA" stroke="#000000" stroke-width="3" stroke-linejoin="round" stroke-miterlimit="10" points="470.842,265.68 
	447.508,281.68 447.508,358.347 470.842,342.347 "/>
<rect x="405.897" y="269.028" fill="#FFFFFF" stroke="#000000" stroke-width="2" stroke-miterlimit="10" width="35.057" height="2.559"/>
<rect x="397.803" y="274.274" fill="#FFFFFF" stroke="#000000" stroke-width="2" stroke-miterlimit="10" width="35.057" height="2.559"/>
<rect x="411.365" y="237.426" fill="none" stroke="#000000" stroke-width="3" stroke-miterlimit="10" width="27.252" height="25.333"/>
<circle fill="none" stroke="#000000" stroke-width="3" stroke-miterlimit="10" cx="392.429" cy="309.331" r="4.606"/>
<circle fill="none" stroke="#000000" stroke-width="3" stroke-miterlimit="10" cx="419.375" cy="309.331" r="4.606"/>
<circle cx="392.351" cy="309.905" r="2.109"/>
<circle cx="419.375" cy="309.905" r="2.109"/>
<path fill="none" stroke="#000000" stroke-width="3" stroke-miterlimit="10" d="M401.129,301.399c0,0-6.013-9.852-15.865,0"/>
<path fill="none" stroke="#000000" stroke-width="3" stroke-miterlimit="10" d="M427.307,301.399c0,0-6.013-9.852-15.865,0"/>
<rect x="391.96" y="320.014" fill="#FFFFFF" stroke="#000000" stroke-width="3" stroke-miterlimit="10" width="28.292" height="35.89"/>
<g>
	<path d="M403.725,329.154l-2.088,0.378v2.719c0,0.648-0.594,0.747-2.989,0.729c-0.054-0.145-0.234-0.396-0.396-0.559
		c0.846,0.009,1.621,0.009,1.854,0.009c0.234-0.009,0.342-0.045,0.342-0.171v-2.521c-0.846,0.153-1.621,0.288-2.232,0.387
		c0,0.072-0.09,0.126-0.216,0.145l-0.504-0.712c0.811-0.107,1.837-0.261,2.953-0.44v-2.106h-2.737v-0.567h2.737v-1.818l1.548,0.045
		c-0.018,0.071-0.108,0.107-0.36,0.126v1.647h2.07v0.567h-2.07v1.917l1.944-0.306L403.725,329.154z M412.314,328.551l0.81,0.18
		c-0.036,0.045-0.108,0.063-0.162,0.091c-0.684,1.053-1.836,1.89-3.277,2.557c1.333,0.495,2.971,0.864,4.861,1.071
		c-0.288,0.126-0.63,0.369-0.81,0.54c-1.963-0.252-3.637-0.657-5.023-1.216c-1.531,0.559-3.295,0.964-5.15,1.216
		c-0.126-0.153-0.414-0.405-0.666-0.531c1.765-0.207,3.457-0.576,4.916-1.099c-1.152-0.576-2.053-1.27-2.683-2.089l0.918-0.135
		h-1.584v-0.558h7.634L412.314,328.551z M406.696,325.562v0.352c0,0.783-0.468,1.765-2.467,2.422
		c-0.162-0.126-0.594-0.352-0.828-0.441c1.818-0.576,2.143-1.359,2.143-1.989v-0.909h5.941v2.224c0,0.197,0.072,0.233,0.414,0.233
		h1.081c0.36,0,0.432-0.135,0.468-1.107c0.252,0.1,0.72,0.189,1.026,0.234c-0.09,1.116-0.378,1.396-1.369,1.396h-1.386
		c-1.081,0-1.404-0.153-1.404-0.756v-1.657H406.696z M406.246,329.136c0.576,0.711,1.422,1.342,2.502,1.854
		c1.152-0.504,2.071-1.125,2.683-1.854H406.246z"/>
	<path d="M403.275,340.152c-0.054,0.055-0.198,0.09-0.396,0.072c-1.08,0.576-2.809,1.17-4.339,1.53
		c-0.216-0.107-0.612-0.297-0.882-0.387c1.513-0.333,3.241-0.892,4.25-1.485L403.275,340.152z M397.801,334.004h16.421v0.504h-5.6
		v0.747h4.321v2.098h-13.792v-2.098h4.087v-0.747h-5.438V334.004z M397.874,339.657v-0.504h16.295v0.504h-7.544v1.666
		c0,0.621-0.576,0.675-3.385,0.675c-0.054-0.171-0.234-0.396-0.396-0.559c0.63,0.01,1.188,0.019,1.603,0.019
		c0.955,0,0.955-0.009,0.955-0.153v-1.647H397.874z M400.106,337.982h11.83v0.496h-11.83V337.982z M400.286,335.732v1.144h2.953
		v-1.144H400.286z M407.47,335.255v-0.747h-3.097v0.747H407.47z M404.374,335.732v1.144h3.097v-1.144H404.374z M411.738,335.732
		h-3.115v1.144h3.115V335.732z M413.124,341.719c-0.937-0.414-2.863-1.053-4.411-1.494l0.9-0.324
		c1.531,0.405,3.457,1.018,4.465,1.44L413.124,341.719z"/>
	<path d="M402.663,345.29c-0.018,0.054-0.108,0.1-0.36,0.117v1.071h3.025v0.567h-3.025v0.521c0.756,0.315,2.485,1.126,2.899,1.351
		l-0.774,0.478c-0.396-0.261-1.35-0.792-2.125-1.206v2.8h-1.152v-3.025c-0.792,0.828-1.818,1.666-2.773,2.206
		c-0.162-0.145-0.504-0.352-0.792-0.469c1.17-0.585,2.467-1.674,3.241-2.655h-2.935v-0.567h3.259v-1.242l0.99,0.036
		c-0.162-0.324-0.54-0.811-0.936-1.216h-0.918c-0.522,0.504-1.134,0.973-1.747,1.323c-0.234-0.099-0.648-0.252-0.936-0.324
		c1.062-0.566,2.053-1.521,2.665-2.466l1.405,0.216c-0.036,0.063-0.18,0.099-0.378,0.09c-0.144,0.207-0.306,0.423-0.504,0.63h4.969
		v0.531h-3.349c0.36,0.36,0.685,0.766,0.829,1.045l-0.882,0.18L402.663,345.29z M408.839,342.806c-0.036,0.054-0.18,0.09-0.378,0.09
		c-0.162,0.207-0.342,0.423-0.558,0.63h6.41v0.531h-4.339c0.522,0.352,1.008,0.738,1.242,1.026l-1.044,0.216
		c-0.252-0.333-0.882-0.837-1.494-1.242h-1.369c-0.594,0.486-1.314,0.928-2.052,1.252c-0.216-0.1-0.648-0.262-0.937-0.343
		c1.26-0.521,2.431-1.422,3.079-2.376L408.839,342.806z M405.94,350.979v-5.419h7.562v5.365h-1.224v-0.324h-5.149v0.378H405.94z
		 M412.278,346.109h-5.149v0.954h5.149V346.109z M407.128,348.549h5.149v-0.972h-5.149V348.549z M407.128,350.053h5.149v-0.99
		h-5.149V350.053z"/>
</g>
<text transform="matrix(1 0 0 0.75 418.3746 241.0922)" font-family="'KozGoPr6N-Regular-90ms-RKSJ-H'" font-size="12" glyph-orientation-vertical="0" writing-mode="tb">〇〇</text>
<text transform="matrix(1 0 0 0.75 430.3746 241.0922)" font-family="'KozGoPr6N-Regular-90ms-RKSJ-H'" font-size="12" glyph-orientation-vertical="0" writing-mode="tb">〇〇</text>
</svg>
