<?xml version="1.0" encoding="utf-8"?>
<!-- Generator: Adobe Illustrator 17.1.0, SVG Export Plug-In . SVG Version: 6.00 Build 0)  -->
<!DOCTYPE svg PUBLIC "-//W3C//DTD SVG 1.1//EN" "http://www.w3.org/Graphics/SVG/1.1/DTD/svg11.dtd">
<svg version="1.1" id="Ebene_1" xmlns="http://www.w3.org/2000/svg" xmlns:xlink="http://www.w3.org/1999/xlink" x="0px" y="0px"
	 width="100px" height="100px" viewBox="0 0 100 100" enable-background="new 0 0 100 100" xml:space="preserve">
<circle fill="#B2B2B2" cx="50" cy="50" r="50"/>
<g>
	<g>
		<line fill="none" stroke="#000000" stroke-width="3" stroke-miterlimit="10" x1="20.5" y1="81.3" x2="82.1" y2="81.3"/>
		<g>
			<g>
				<line fill="none" stroke="#000000" stroke-width="3" stroke-miterlimit="10" x1="20.5" y1="81.3" x2="20.5" y2="79.7"/>
				<line fill="none" stroke="#000000" stroke-width="3" stroke-miterlimit="10" x1="82.1" y1="81.3" x2="82.1" y2="79.7"/>
			</g>
		</g>
	</g>
	<g>
		<g>
			<text transform="matrix(1.2312 0 0 1 17.9023 82.5214)" font-family="'KozGoPr6N-Regular-90ms-RKSJ-H'" font-size="2.3468">0</text>
			<text transform="matrix(1.2312 0 0 1 17.9023 69.1708)" font-family="'KozGoPr6N-Regular-90ms-RKSJ-H'" font-size="2.3468">1</text>
			<text transform="matrix(1.2312 0 0 1 17.9023 55.8212)" font-family="'KozGoPr6N-Regular-90ms-RKSJ-H'" font-size="2.3468">2</text>
			<text transform="matrix(1.2312 0 0 1 17.9023 42.4697)" font-family="'KozGoPr6N-Regular-90ms-RKSJ-H'" font-size="2.3468">3</text>
			<text transform="matrix(1.2312 0 0 1 17.9023 29.12)" font-family="'KozGoPr6N-Regular-90ms-RKSJ-H'" font-size="2.3468">4</text>
			<text transform="matrix(1.2312 0 0 1 17.9023 15.7695)" font-family="'KozGoPr6N-Regular-90ms-RKSJ-H'" font-size="2.3468">5</text>
		</g>
		<line fill="none" stroke="#000000" stroke-width="3" stroke-miterlimit="10" x1="20.5" y1="81.3" x2="20.5" y2="14.6"/>
		<g>
			<g>
				<line fill="none" stroke="#000000" stroke-width="3" stroke-miterlimit="10" x1="20.5" y1="81.3" x2="22" y2="81.3"/>
				<line fill="none" stroke="#000000" stroke-width="3" stroke-miterlimit="10" x1="20.5" y1="68" x2="22" y2="68"/>
				<line fill="none" stroke="#000000" stroke-width="3" stroke-miterlimit="10" x1="20.5" y1="54.6" x2="22" y2="54.6"/>
				<line fill="none" stroke="#000000" stroke-width="3" stroke-miterlimit="10" x1="20.5" y1="41.3" x2="22" y2="41.3"/>
				<line fill="none" stroke="#000000" stroke-width="3" stroke-miterlimit="10" x1="20.5" y1="27.9" x2="22" y2="27.9"/>
				<line fill="none" stroke="#000000" stroke-width="3" stroke-miterlimit="10" x1="20.5" y1="14.6" x2="22" y2="14.6"/>
			</g>
		</g>
	</g>
	<g>
		<g>
			<g>
				<path fill="#9F9F9F" stroke="#000000" stroke-width="3" stroke-miterlimit="10" d="M70.2,14.6c2.8,0,5.6-0.1,8.4,0
					c0.6,0,0.5,0.2,0.5,0.8c0,0.8,0,1.6,0,2.4c0,1.7,0,3.5,0,5.2c0,6.6,0,13.2,0,19.8c0,6.6,0,13.2,0,19.8c0,1.6,0.2,18.7-0.1,18.7
					c-1.5,0.1-3,0-4.4,0c-1.4,0-2.8,0.1-4.2,0c-0.4,0-0.2-7.9-0.2-8.7c0-6.5,0-13,0-19.4C70.2,40.4,70.2,27.5,70.2,14.6
					C72.6,14.6,70.2,18.6,70.2,14.6z"/>
			</g>
		</g>
		<g>
			<g>
				<path fill="#404040" stroke="#000000" stroke-width="3" stroke-miterlimit="10" d="M59,27.9c2.8,0,5.6-0.1,8.4,0
					c0.6,0,0.5,0.2,0.5,0.7c0,0.8,0,1.5,0,2.3c0,1.7,0,3.4,0,5.2c0,6.7,0,13.3,0,20c0,6.7,0,13.3,0,20c0,1.5,0,3.1,0,4.6
					c0,0.7,0.1,0.7-0.7,0.7c-0.9,0-1.8,0-2.7,0c-1.5,0-3.1,0-4.6,0c-0.7,0-0.9,0.2-0.9-0.6c0-0.9,0-1.8,0-2.8
					C59,61.3,59,44.6,59,27.9C61.5,27.9,59,32.7,59,27.9z"/>
			</g>
		</g>
		<g>
			<g>
				<path fill="#808080" stroke="#000000" stroke-width="3" stroke-miterlimit="10" d="M47.9,41.3c2.8,0,5.6-0.1,8.4,0
					c0.6,0,0.4,0.2,0.4,0.7c0,0.7,0,1.5,0,2.2c0,1.7,0,3.4,0,5.1c0,6.6,0,13.1,0,19.7c0,3.3,0,6.6,0,10c0,0.7,0,1.5,0,2.2
					c0,0.4-1.2,0.2-1.4,0.2c-1.7,0-3.3,0-5,0c-0.7,0-1.4,0-2.1,0c-0.5,0-0.3-0.7-0.3-1c0-1.6,0-3.3,0-4.9c0-3.3,0-6.6,0-9.8
					C47.9,57.4,47.9,49.4,47.9,41.3C50.4,41.3,47.9,47,47.9,41.3z"/>
			</g>
		</g>
		<g>
			<g>
				<path fill="#DFDFDF" stroke="#000000" stroke-width="3" stroke-miterlimit="10" d="M36.5,54.6c2.8,0,5.5,0,8.3,0
					c0.5,0,0.6,0,0.6,0.5c0,0.7,0,1.5,0,2.2c0,1.6,0,3.1,0,4.7c0,3.1,0,6.3,0,9.4c0,1.6,0,3.1,0,4.7c0,1.6-0.1,3.2,0,4.8
					c0.1,0.6-0.6,0.4-1.1,0.4c-0.8,0-1.5,0-2.3,0c-1.5,0-3.1,0-4.6,0c-0.2,0-0.9,0.2-0.9-0.2c0-0.7,0-1.4,0-2.1c0-1.7,0-3.3,0-5
					C36.5,67.5,36.5,61.1,36.5,54.6C38.9,54.6,36.5,61.4,36.5,54.6z"/>
			</g>
		</g>
		<g>
			<g>
				<path stroke="#000000" stroke-width="3" stroke-miterlimit="10" d="M25.3,68c2.2,0,4.4,0,6.7,0c0.6,0,1.3-0.2,1.9,0
					c0.6,0.1,0.3,2.1,0.3,2.6c0,2.2,0,4.4,0,6.6c0,1.1-0.1,2.2,0,3.3c0.1,1.1-0.4,0.9-1.4,0.9c-2.2,0-4.4,0-6.7,0
					c-0.7,0-0.8,0.2-0.8-0.5c0-0.6,0-1.1,0-1.7C25.3,75.4,25.3,71.7,25.3,68C27.8,68,25.3,71.3,25.3,68z"/>
			</g>
		</g>
	</g>
</g>
</svg>
