<?xml version="1.0" encoding="utf-8"?>
<!-- Generator: Adobe Illustrator 17.1.0, SVG Export Plug-In . SVG Version: 6.00 Build 0)  -->
<!DOCTYPE svg PUBLIC "-//W3C//DTD SVG 1.1//EN" "http://www.w3.org/Graphics/SVG/1.1/DTD/svg11.dtd">
<svg version="1.1" id="Ebene_1" xmlns="http://www.w3.org/2000/svg" xmlns:xlink="http://www.w3.org/1999/xlink" x="0px" y="0px"
	 width="100px" height="100px" viewBox="0 0 100 100" enable-background="new 0 0 100 100" xml:space="preserve">
<circle fill="#B2B2B2" cx="50" cy="50" r="50"/>
<g>
	<g>
		<line fill="none" stroke="#000000" stroke-width="3" stroke-miterlimit="10" x1="20.5" y1="81.3" x2="82.1" y2="81.3"/>
		<g>
			<g>
				<line fill="none" stroke="#000000" stroke-width="3" stroke-miterlimit="10" x1="20.5" y1="81.3" x2="20.5" y2="79.7"/>
				<line fill="none" stroke="#000000" stroke-width="3" stroke-miterlimit="10" x1="82.1" y1="81.3" x2="82.1" y2="79.7"/>
			</g>
		</g>
	</g>
	<g>
		<g>
			<text transform="matrix(1.2312 0 0 1 17.9023 82.5214)" font-family="'KozGoPr6N-Regular-90ms-RKSJ-H'" font-size="2.3468">0</text>
			<text transform="matrix(1.2312 0 0 1 17.9023 69.1708)" font-family="'KozGoPr6N-Regular-90ms-RKSJ-H'" font-size="2.3468">1</text>
			<text transform="matrix(1.2312 0 0 1 17.9023 55.8212)" font-family="'KozGoPr6N-Regular-90ms-RKSJ-H'" font-size="2.3468">2</text>
			<text transform="matrix(1.2312 0 0 1 17.9023 42.4697)" font-family="'KozGoPr6N-Regular-90ms-RKSJ-H'" font-size="2.3468">3</text>
			<text transform="matrix(1.2312 0 0 1 17.9023 29.12)" font-family="'KozGoPr6N-Regular-90ms-RKSJ-H'" font-size="2.3468">4</text>
			<text transform="matrix(1.2312 0 0 1 17.9023 15.7695)" font-family="'KozGoPr6N-Regular-90ms-RKSJ-H'" font-size="2.3468">5</text>
		</g>
		<line fill="none" stroke="#000000" stroke-width="3" stroke-miterlimit="10" x1="20.5" y1="81.3" x2="20.5" y2="14.6"/>
		<g>
			<g>
				<line fill="none" stroke="#000000" stroke-width="3" stroke-miterlimit="10" x1="20.5" y1="81.3" x2="22" y2="81.3"/>
				<line fill="none" stroke="#000000" stroke-width="3" stroke-miterlimit="10" x1="20.5" y1="68" x2="22" y2="68"/>
				<line fill="none" stroke="#000000" stroke-width="3" stroke-miterlimit="10" x1="20.5" y1="54.6" x2="22" y2="54.6"/>
				<line fill="none" stroke="#000000" stroke-width="3" stroke-miterlimit="10" x1="20.5" y1="41.3" x2="22" y2="41.3"/>
				<line fill="none" stroke="#000000" stroke-width="3" stroke-miterlimit="10" x1="20.5" y1="27.9" x2="22" y2="27.9"/>
				<line fill="none" stroke="#000000" stroke-width="3" stroke-miterlimit="10" x1="20.5" y1="14.6" x2="22" y2="14.6"/>
			</g>
		</g>
	</g>
	<g>
		<g>
			<g>
				<path fill="#9F9F9F" stroke="#000000" stroke-width="3" stroke-miterlimit="10" d="M70.2,14.6c2.5,0,5,0,7.5,0
					c0.1,0,1.4-0.1,1.4,0.1c0,0.3,0,0.5,0,0.8c0,3.6,0,7.2,0,10.8c0,12.6,0,25.1,0,37.7c0,4.7,0,9.4,0,14.1c0,1,0,2.1,0,3.1
					c0,0.3,0,0.3-0.3,0.3c-1.3,0-2.6,0-3.9,0c-1.4,0-2.8,0-4.2,0c-0.3,0-0.5,0.1-0.5-0.2c0-1,0-1.9,0-2.9c0-4.6,0-9.2,0-13.9
					c0-12.6,0-25.1,0-37.7C70.2,22.7,70.2,18.6,70.2,14.6z"/>
			</g>
		</g>
		<g>
			<g>
				<path fill="#404040" stroke="#000000" stroke-width="3" stroke-miterlimit="10" d="M59,27.9c2.5,0,5,0,7.5,0
					c0.2,0,1.4-0.1,1.4,0.1c0,0.3,0,0.6,0,1c0,4.2,0,8.5,0,12.7c0,11.9,0,23.7,0,35.6c0,1.3,0,2.5,0,3.8c0,0.3,0.1,0.3-0.3,0.3
					c-1.3,0-2.6,0-3.9,0c-1.4,0-2.8,0-4.2,0c-0.4,0-0.5,0.1-0.5-0.2c0-1.2,0-2.4,0-3.5c0-11.8,0-23.6,0-35.4
					C59,37.5,59,32.7,59,27.9z"/>
			</g>
		</g>
		<g>
			<g>
				<path fill="#808080" stroke="#000000" stroke-width="3" stroke-miterlimit="10" d="M47.9,41.3c2.5,0,5,0,7.5,0
					c0.2,0,1.4-0.1,1.4,0.1c0,0.4,0,0.8,0,1.3c0,5.1,0,10.1,0,15.2c0,6.1,0,12.2,0,18.3c0,1.6,0,3.2,0,4.8c0,0.3,0.1,0.4-0.3,0.4
					c-1.3,0-2.6,0-3.9,0c-1.4,0-2.8,0-4.2,0c-0.4,0-0.5,0.1-0.5-0.3c0-1.5,0-3,0-4.5c0-6,0-12.1,0-18.1C47.9,52.7,47.9,47,47.9,41.3
					z"/>
			</g>
		</g>
		<g>
			<g>
				<path fill="#DFDFDF" stroke="#000000" stroke-width="3" stroke-miterlimit="10" d="M36.5,54.6c2.5,0,5,0,7.5,0
					c0.2,0,1.4-0.2,1.4,0.1c0,0.6,0,1.2,0,1.8c0,5.9,0,11.8,0,17.7c0,2.2,0,4.3,0,6.5c0,0.4,0.1,0.6-0.3,0.6c-1.3,0-2.6,0-3.9,0
					c-1.4,0-2.8,0-4.2,0c-0.5,0-0.5,0.1-0.5-0.4c0-2,0-4.1,0-6.1C36.5,68.1,36.5,61.4,36.5,54.6z"/>
			</g>
		</g>
		<g>
			<g>
				<path stroke="#000000" stroke-width="3" stroke-miterlimit="10" d="M25.3,68c2.5,0,5,0,7.5,0c0.4,0,1.4-0.3,1.4,0.2
					c0,1,0,2.1,0,3.1c0,3,0,5.9,0,8.9c0,0.4,0.2,1.1-0.3,1.1c-1.3,0-2.6,0-3.9,0c-1.6,0-3.2,0-4.7,0c0,0,0-3.2,0-3.3
					C25.3,74.7,25.3,71.3,25.3,68z"/>
			</g>
		</g>
	</g>
</g>
</svg>
