<?xml version="1.0" encoding="utf-8"?>
<!-- Generator: Adobe Illustrator 17.0.1, SVG Export Plug-In . SVG Version: 6.00 Build 0)  -->
<!DOCTYPE svg PUBLIC "-//W3C//DTD SVG 1.1//EN" "http://www.w3.org/Graphics/SVG/1.1/DTD/svg11.dtd">
<svg version="1.1" id="レイヤー_1" xmlns="http://www.w3.org/2000/svg" xmlns:xlink="http://www.w3.org/1999/xlink" x="0px"
	 y="0px" width="841.89px" height="595.28px" viewBox="0 0 841.89 595.28" enable-background="new 0 0 841.89 595.28"
	 xml:space="preserve">
<rect x="350.547" y="226.711" fill="#FFFFFF" stroke="#A660A3" stroke-width="2" stroke-miterlimit="10" width="141.732" height="141.732"/>
<polygon fill-rule="evenodd" clip-rule="evenodd" fill="#ECEDEE" points="360.837,261.857 360.806,261.194 360.806,260.52 
	361.576,254.782 363.832,249.402 367.375,244.544 372.063,240.284 377.735,236.763 384.241,234.111 391.399,232.426 399.073,231.84 
	406.755,232.426 413.913,234.111 420.412,236.763 426.084,240.284 430.779,244.544 434.322,249.402 436.562,254.782 437.349,260.52 
	437.333,261.194 437.309,261.857 436.165,280.473 436.197,279.854 436.205,279.202 435.434,273.616 433.266,268.421 
	429.826,263.693 425.282,259.563 419.768,256.151 413.468,253.564 406.509,251.945 399.073,251.358 391.63,251.945 384.686,253.564 
	378.378,256.151 372.873,259.563 368.337,263.693 364.889,268.421 362.704,273.616 361.95,279.202 361.965,279.854 361.989,280.473 
	360.837,261.857 "/>
<polygon fill="none" stroke="#131E1F" stroke-width="0.8555" stroke-miterlimit="2.6131" points="360.837,261.857 360.806,261.194 
	360.806,260.52 361.576,254.782 363.832,249.402 367.375,244.544 372.063,240.284 377.735,236.763 384.241,234.111 391.399,232.426 
	399.073,231.84 406.755,232.426 413.913,234.111 420.412,236.763 426.084,240.284 430.779,244.544 434.322,249.402 436.562,254.782 
	437.349,260.52 437.333,261.194 437.309,261.857 436.165,280.473 436.197,279.854 436.205,279.202 435.434,273.616 433.266,268.421 
	429.826,263.693 425.282,259.563 419.768,256.151 413.468,253.564 406.509,251.945 399.073,251.358 391.63,251.945 384.686,253.564 
	378.378,256.151 372.873,259.563 368.337,263.693 364.889,268.421 362.704,273.616 361.95,279.202 361.965,279.854 361.989,280.473 
	360.837,261.857 "/>
<polygon fill-rule="evenodd" clip-rule="evenodd" fill="#111010" points="437.309,261.857 436.237,267.377 433.806,272.518 
	430.183,277.169 425.496,281.212 419.895,284.559 413.524,287.081 406.541,288.657 399.073,289.232 391.614,288.657 
	384.631,287.081 378.259,284.559 372.659,281.212 367.963,277.169 364.333,272.518 361.918,267.377 360.837,261.857 
	361.989,280.473 363.038,285.831 365.374,290.808 368.901,295.329 373.445,299.253 378.871,302.491 385.06,304.937 391.828,306.48 
	399.073,307.034 406.311,306.48 413.095,304.937 419.268,302.491 424.71,299.253 429.254,295.329 432.765,290.808 435.125,285.831 
	436.165,280.473 437.309,261.857 "/>
<polygon fill="none" stroke="#131E1F" stroke-width="0.8555" stroke-miterlimit="2.6131" points="437.309,261.857 436.237,267.377 
	433.806,272.518 430.183,277.169 425.496,281.212 419.895,284.559 413.524,287.081 406.541,288.657 399.073,289.232 
	391.614,288.657 384.631,287.081 378.259,284.559 372.659,281.212 367.963,277.169 364.333,272.518 361.918,267.377 
	360.837,261.857 361.989,280.473 363.038,285.831 365.374,290.808 368.901,295.329 373.445,299.253 378.871,302.491 385.06,304.937 
	391.828,306.48 399.073,307.034 406.311,306.48 413.095,304.937 419.268,302.491 424.71,299.253 429.254,295.329 432.765,290.808 
	435.125,285.831 436.165,280.473 437.309,261.857 "/>
<polygon fill-rule="evenodd" clip-rule="evenodd" fill="#FFFFFF" points="437.349,260.52 436.562,266.291 434.322,271.659 
	430.779,276.528 426.084,280.788 420.412,284.298 413.913,286.961 406.755,288.646 399.073,289.232 391.399,288.646 
	384.241,286.961 377.735,284.298 372.063,280.788 367.375,276.528 363.832,271.659 361.576,266.291 360.806,260.52 361.576,254.782 
	363.832,249.402 367.375,244.544 372.063,240.284 377.735,236.763 384.241,234.111 391.399,232.426 399.073,231.84 406.755,232.426 
	413.913,234.111 420.412,236.763 426.084,240.284 430.779,244.544 434.322,249.402 436.562,254.782 437.349,260.52 "/>
<polygon fill="none" stroke="#131E1F" stroke-width="0.8555" stroke-miterlimit="2.6131" points="437.349,260.52 436.562,266.291 
	434.322,271.659 430.779,276.528 426.084,280.788 420.412,284.298 413.913,286.961 406.755,288.646 399.073,289.232 
	391.399,288.646 384.241,286.961 377.735,284.298 372.063,280.788 367.375,276.528 363.832,271.659 361.576,266.291 360.806,260.52 
	361.576,254.782 363.832,249.402 367.375,244.544 372.063,240.284 377.735,236.763 384.241,234.111 391.399,232.426 399.073,231.84 
	406.755,232.426 413.913,234.111 420.412,236.763 426.084,240.284 430.779,244.544 434.322,249.402 436.562,254.782 437.349,260.52 
	"/>
<polygon fill-rule="evenodd" clip-rule="evenodd" fill="#DCDDDD" points="433.409,260.52 433.361,259.292 433.234,258.074 
	433.011,256.879 432.71,255.705 432.32,254.542 431.859,253.412 431.319,252.293 430.7,251.206 430.016,250.141 429.254,249.109 
	428.428,248.109 427.53,247.131 426.568,246.196 425.552,245.294 424.471,244.414 423.335,243.588 422.136,242.795 420.888,242.034 
	419.593,241.327 418.243,240.654 416.853,240.034 415.415,239.447 413.937,238.915 412.412,238.436 410.855,238.013 
	409.266,237.632 407.637,237.306 405.977,237.035 404.285,236.828 402.577,236.676 400.837,236.578 399.073,236.546 397.31,236.578 
	395.57,236.676 393.854,236.828 392.17,237.035 390.509,237.306 388.881,237.632 387.284,238.013 385.727,238.436 384.21,238.915 
	382.724,239.447 381.286,240.034 379.896,240.654 378.545,241.327 377.25,242.034 376.003,242.795 374.811,243.588 373.675,244.414 
	372.595,245.294 371.57,246.196 370.609,247.131 369.719,248.109 368.893,249.109 368.13,250.141 367.439,251.206 366.819,252.293 
	366.279,253.412 365.819,254.542 365.437,255.705 365.127,256.879 364.913,258.074 364.778,259.292 364.738,260.52 364.778,261.759 
	364.913,262.965 365.127,264.171 365.437,265.345 365.819,266.508 366.279,267.638 366.819,268.758 367.439,269.844 368.13,270.899 
	368.893,271.942 369.719,272.942 370.609,273.909 371.57,274.854 372.595,275.757 373.675,276.626 374.811,277.463 376.003,278.256 
	377.25,279.017 378.545,279.723 379.896,280.397 381.286,281.016 382.724,281.603 384.21,282.125 385.727,282.614 387.284,283.038 
	388.881,283.418 390.509,283.744 392.17,284.016 393.854,284.223 395.57,284.375 397.31,284.472 399.073,284.494 400.837,284.472 
	402.577,284.375 404.285,284.223 405.977,284.016 407.637,283.744 409.266,283.418 410.855,283.038 412.412,282.614 
	413.937,282.125 415.415,281.603 416.853,281.016 418.243,280.397 419.593,279.723 420.888,279.017 422.136,278.256 
	423.335,277.463 424.471,276.626 425.552,275.757 426.568,274.854 427.53,273.909 428.428,272.942 429.254,271.942 430.016,270.899 
	430.7,269.844 431.319,268.758 431.859,267.638 432.32,266.508 432.71,265.345 433.011,264.171 433.234,262.965 433.361,261.759 
	433.409,260.52 "/>
<polyline fill="none" stroke="#131E1F" stroke-width="0.8555" stroke-miterlimit="2.6131" points="433.409,260.52 433.361,259.292 
	433.234,258.074 433.011,256.879 432.71,255.705 432.32,254.542 431.859,253.412 431.319,252.293 430.7,251.206 430.016,250.141 
	429.254,249.109 428.428,248.109 427.53,247.131 426.568,246.196 425.552,245.294 424.471,244.414 423.335,243.588 422.136,242.795 
	420.888,242.034 419.593,241.327 418.243,240.654 416.853,240.034 415.415,239.447 413.937,238.915 412.412,238.436 
	410.855,238.013 409.266,237.632 407.637,237.306 405.977,237.035 404.285,236.828 402.577,236.676 400.837,236.578 
	399.073,236.546 397.31,236.578 395.57,236.676 393.854,236.828 392.17,237.035 390.509,237.306 388.881,237.632 387.284,238.013 
	385.727,238.436 384.21,238.915 382.724,239.447 381.286,240.034 379.896,240.654 378.545,241.327 377.25,242.034 376.003,242.795 
	374.811,243.588 373.675,244.414 372.595,245.294 371.57,246.196 370.609,247.131 369.719,248.109 368.893,249.109 368.13,250.141 
	367.439,251.206 366.819,252.293 366.279,253.412 365.819,254.542 365.437,255.705 365.127,256.879 364.913,258.074 
	364.778,259.292 364.738,260.52 364.778,261.759 364.913,262.965 365.127,264.171 365.437,265.345 365.819,266.508 366.279,267.638 
	366.819,268.758 367.439,269.844 368.13,270.899 368.893,271.942 369.719,272.942 370.609,273.909 371.57,274.854 372.595,275.757 
	373.675,276.626 374.811,277.463 376.003,278.256 377.25,279.017 378.545,279.723 379.896,280.397 381.286,281.016 382.724,281.603 
	384.21,282.125 385.727,282.614 387.284,283.038 388.881,283.418 390.509,283.744 392.17,284.016 393.854,284.223 395.57,284.375 
	397.31,284.472 399.073,284.494 400.837,284.472 402.577,284.375 404.285,284.223 405.977,284.016 407.637,283.744 409.266,283.418 
	410.855,283.038 412.412,282.614 413.937,282.125 415.415,281.603 416.853,281.016 418.243,280.397 419.593,279.723 
	420.888,279.017 422.136,278.256 423.335,277.463 424.471,276.626 425.552,275.757 426.568,274.854 427.53,273.909 428.428,272.942 
	429.254,271.942 430.016,270.899 430.7,269.844 431.319,268.758 431.859,267.638 432.32,266.508 432.71,265.345 433.011,264.171 
	433.234,262.965 433.361,261.759 433.409,260.52 "/>
<polygon fill-rule="evenodd" clip-rule="evenodd" fill="#FFFFFF" points="431.581,264.997 431.542,263.976 431.415,262.965 
	431.208,261.965 430.93,260.976 430.565,260.009 430.136,259.064 429.627,258.14 429.055,257.227 428.412,256.347 427.705,255.488 
	426.926,254.651 426.092,253.836 425.202,253.054 424.249,252.293 423.24,251.576 422.175,250.88 421.063,250.217 419.895,249.587 
	418.688,248.989 417.425,248.435 416.13,247.913 414.787,247.424 413.405,246.989 411.983,246.587 410.529,246.229 409.043,245.914 
	407.526,245.642 405.977,245.414 404.396,245.24 402.799,245.109 401.171,245.033 399.526,245.011 397.882,245.033 396.261,245.109 
	394.656,245.24 393.083,245.414 391.534,245.642 390.017,245.914 388.523,246.229 387.069,246.587 385.655,246.989 384.273,247.424 
	382.931,247.913 381.628,248.435 380.372,248.989 379.157,249.587 377.997,250.217 376.885,250.88 375.82,251.576 374.811,252.293 
	373.858,253.054 372.96,253.836 372.126,254.651 371.356,255.488 370.649,256.347 370.005,257.227 369.425,258.14 368.925,259.064 
	368.488,260.009 368.13,260.976 367.844,261.965 367.646,262.965 367.519,263.976 367.479,264.997 367.519,266.03 367.646,267.04 
	367.844,268.04 368.13,269.019 368.488,269.986 368.925,270.931 369.425,271.855 370.005,272.768 370.649,273.648 371.356,274.518 
	372.126,275.354 372.96,276.159 373.858,276.941 374.811,277.702 375.82,278.43 376.885,279.125 377.997,279.788 379.157,280.419 
	380.372,281.006 381.628,281.571 382.931,282.092 384.273,282.571 385.655,283.016 387.069,283.418 388.523,283.777 
	390.017,284.092 391.534,284.353 393.083,284.581 394.656,284.755 396.261,284.885 397.882,284.962 399.526,284.983 
	401.171,284.962 402.799,284.885 404.396,284.755 405.977,284.581 407.526,284.353 409.043,284.092 410.529,283.777 
	411.983,283.418 413.405,283.016 414.787,282.571 416.13,282.092 417.425,281.571 418.688,281.006 419.895,280.419 421.063,279.788 
	422.175,279.125 423.24,278.43 424.249,277.702 425.202,276.941 426.092,276.159 426.926,275.354 427.705,274.518 428.412,273.648 
	429.055,272.768 429.627,271.855 430.136,270.931 430.565,269.986 430.93,269.019 431.208,268.04 431.415,267.04 431.542,266.03 
	431.581,264.997 "/>
<polyline fill="none" stroke="#A2A5A6" stroke-width="0.8555" stroke-miterlimit="2.6131" points="431.581,264.997 431.542,263.976 
	431.415,262.965 431.208,261.965 430.93,260.976 430.565,260.009 430.136,259.064 429.627,258.14 429.055,257.227 428.412,256.347 
	427.705,255.488 426.926,254.651 426.092,253.836 425.202,253.054 424.249,252.293 423.24,251.576 422.175,250.88 421.063,250.217 
	419.895,249.587 418.688,248.989 417.425,248.435 416.13,247.913 414.787,247.424 413.405,246.989 411.983,246.587 410.529,246.229 
	409.043,245.914 407.526,245.642 405.977,245.414 404.396,245.24 402.799,245.109 401.171,245.033 399.526,245.011 397.882,245.033 
	396.261,245.109 394.656,245.24 393.083,245.414 391.534,245.642 390.017,245.914 388.523,246.229 387.069,246.587 385.655,246.989 
	384.273,247.424 382.931,247.913 381.628,248.435 380.372,248.989 379.157,249.587 377.997,250.217 376.885,250.88 375.82,251.576 
	374.811,252.293 373.858,253.054 372.96,253.836 372.126,254.651 371.356,255.488 370.649,256.347 370.005,257.227 369.425,258.14 
	368.925,259.064 368.488,260.009 368.13,260.976 367.844,261.965 367.646,262.965 367.519,263.976 367.479,264.997 367.519,266.03 
	367.646,267.04 367.844,268.04 368.13,269.019 368.488,269.986 368.925,270.931 369.425,271.855 370.005,272.768 370.649,273.648 
	371.356,274.518 372.126,275.354 372.96,276.159 373.858,276.941 374.811,277.702 375.82,278.43 376.885,279.125 377.997,279.788 
	379.157,280.419 380.372,281.006 381.628,281.571 382.931,282.092 384.273,282.571 385.655,283.016 387.069,283.418 
	388.523,283.777 390.017,284.092 391.534,284.353 393.083,284.581 394.656,284.755 396.261,284.885 397.882,284.962 
	399.526,284.983 401.171,284.962 402.799,284.885 404.396,284.755 405.977,284.581 407.526,284.353 409.043,284.092 
	410.529,283.777 411.983,283.418 413.405,283.016 414.787,282.571 416.13,282.092 417.425,281.571 418.688,281.006 419.895,280.419 
	421.063,279.788 422.175,279.125 423.24,278.43 424.249,277.702 425.202,276.941 426.092,276.159 426.926,275.354 427.705,274.518 
	428.412,273.648 429.055,272.768 429.627,271.855 430.136,270.931 430.565,269.986 430.93,269.019 431.208,268.04 431.415,267.04 
	431.542,266.03 431.581,264.997 "/>
<polygon fill-rule="evenodd" clip-rule="evenodd" fill="#EFEFEF" points="415.486,253.706 415.463,253.521 415.399,253.347 
	415.296,253.173 415.153,252.999 414.97,252.825 414.747,252.662 414.493,252.499 414.199,252.336 413.874,252.184 413.516,252.032 
	413.127,251.88 412.698,251.739 412.245,251.608 411.76,251.467 411.252,251.347 410.712,251.217 410.148,251.108 409.56,250.989 
	408.94,250.891 408.305,250.793 407.645,250.695 406.962,250.608 406.263,250.532 405.548,250.467 404.809,250.402 404.054,250.347 
	403.284,250.304 402.497,250.261 401.695,250.228 400.885,250.206 400.066,250.195 399.232,250.185 398.39,250.195 397.572,250.206 
	396.761,250.228 395.959,250.261 395.173,250.304 394.402,250.347 393.647,250.402 392.909,250.467 392.194,250.532 
	391.494,250.608 390.811,250.695 390.152,250.793 389.516,250.891 388.897,250.989 388.309,251.108 387.745,251.217 
	387.205,251.347 386.696,251.467 386.212,251.608 385.759,251.739 385.33,251.88 384.94,252.032 384.583,252.184 384.257,252.336 
	383.963,252.499 383.709,252.662 383.487,252.825 383.304,252.999 383.161,253.173 383.058,253.347 382.994,253.521 
	382.978,253.706 382.994,253.89 383.058,254.064 383.161,254.238 383.304,254.412 383.487,254.586 383.709,254.749 383.963,254.912 
	384.257,255.075 384.583,255.227 384.94,255.379 385.33,255.531 385.759,255.673 386.212,255.803 386.696,255.944 387.205,256.064 
	387.745,256.194 388.309,256.303 388.897,256.412 389.516,256.521 390.152,256.618 390.811,256.716 391.494,256.792 
	392.194,256.879 392.909,256.944 393.647,257.01 394.402,257.064 395.173,257.107 395.959,257.151 396.761,257.183 397.572,257.205 
	398.39,257.216 399.232,257.216 400.066,257.216 400.885,257.205 401.695,257.183 402.497,257.151 403.284,257.107 404.054,257.064 
	404.809,257.01 405.548,256.944 406.263,256.879 406.962,256.792 407.645,256.716 408.305,256.618 408.94,256.521 409.56,256.412 
	410.148,256.303 410.712,256.194 411.252,256.064 411.76,255.944 412.245,255.803 412.698,255.673 413.127,255.531 413.516,255.379 
	413.874,255.227 414.199,255.075 414.493,254.912 414.747,254.749 414.97,254.586 415.153,254.412 415.296,254.238 415.399,254.064 
	415.463,253.89 415.486,253.706 "/>
<polygon fill-rule="evenodd" clip-rule="evenodd" fill="#B5B5B6" points="420.436,296.731 419.482,295.069 419.109,292.721 
	419.911,289.439 421.81,288.081 422.525,288.255 423.168,288.743 468.419,335.377 467.76,334.888 467.045,334.714 465.146,336.084 
	464.344,339.366 464.717,341.692 465.678,343.376 420.436,296.731 "/>
<polygon fill="none" stroke="#131E1F" stroke-width="0.8555" stroke-miterlimit="2.6131" points="420.436,296.731 419.482,295.069 
	419.109,292.721 419.911,289.439 421.81,288.081 422.525,288.255 423.168,288.743 468.419,335.377 467.76,334.888 467.045,334.714 
	465.146,336.084 464.344,339.366 464.717,341.692 465.678,343.376 420.436,296.731 "/>
<polygon fill-rule="evenodd" clip-rule="evenodd" points="425.067,303.98 424.821,303.339 424.551,301.535 424.884,298.84 
	426.481,295.438 428.769,293.308 430.763,293.112 432.177,293.819 432.725,294.286 482.345,338.898 483.617,340.659 
	486.032,345.147 486.961,348.038 487.358,351.168 486.945,354.374 485.46,357.504 482.973,360.395 480.161,361.351 476.244,360.004 
	470.429,355.961 469.388,354.961 467.561,353.005 465.059,350.233 462,346.778 454.676,338.409 446.548,329.03 438.58,319.771 
	431.709,311.762 428.984,308.577 426.878,306.11 425.536,304.545 425.067,303.98 "/>
<polygon fill="none" stroke="#131E1F" stroke-width="0.8555" stroke-miterlimit="2.6131" points="425.067,303.98 424.821,303.339 
	424.551,301.535 424.884,298.84 426.481,295.438 428.769,293.308 430.763,293.112 432.177,293.819 432.725,294.286 482.345,338.898 
	483.617,340.659 486.032,345.147 486.961,348.038 487.358,351.168 486.945,354.374 485.46,357.504 482.973,360.395 480.161,361.351 
	476.244,360.004 470.429,355.961 469.388,354.961 467.561,353.005 465.059,350.233 462,346.778 454.676,338.409 446.548,329.03 
	438.58,319.771 431.709,311.762 428.984,308.577 426.878,306.11 425.536,304.545 425.067,303.98 "/>
<polygon fill-rule="evenodd" clip-rule="evenodd" fill="#DCDDDD" points="431.025,311.348 430.437,310.566 429.421,308.393 
	429.111,305.132 430.596,301.068 432.511,298.709 434.322,297.568 435.983,297.394 437.397,297.959 439.526,299.622 
	440.765,300.916 441.361,301.752 441.504,302.046 440.797,301.513 438.962,300.72 436.491,300.872 433.853,303.198 432.352,306.599 
	432.098,309.61 432.527,311.87 433.011,313.109 433.011,313.414 432.296,312.74 431.438,311.816 431.025,311.348 "/>
<polygon fill="none" stroke="#131E1F" stroke-width="0.8555" stroke-miterlimit="2.6131" points="431.025,311.348 430.437,310.566 
	429.421,308.393 429.111,305.132 430.596,301.068 432.511,298.709 434.322,297.568 435.983,297.394 437.397,297.959 
	439.526,299.622 440.765,300.916 441.361,301.752 441.504,302.046 440.797,301.513 438.962,300.72 436.491,300.872 433.853,303.198 
	432.352,306.599 432.098,309.61 432.527,311.87 433.011,313.109 433.011,313.414 432.296,312.74 431.438,311.816 431.025,311.348 
	"/>
<polygon fill-rule="evenodd" clip-rule="evenodd" fill="#131E1F" points="435.839,311.74 472.701,350.527 473.805,351.288 
	476.419,352.614 479.517,352.983 482.059,350.918 483.442,347.94 483.998,346.299 484.085,345.615 484.046,345.484 484.586,346.56 
	485.412,349.451 485.356,353.668 483.188,358.678 480.614,360.319 477.476,359.928 474.433,358.417 472.129,356.743 
	469.945,354.428 465.591,349.603 459.831,343.115 453.42,335.834 447.105,328.639 441.663,322.423 437.849,318.054 436.412,316.391 
	435.522,315.391 433.996,313.337 433.52,312.359 433.536,311.642 434.235,311.381 435.839,311.74 "/>
<polygon fill-rule="evenodd" clip-rule="evenodd" fill="#FFFFFF" points="440.09,302.828 482.059,340.833 482.345,341.789 
	482.727,343.648 482.417,344.756 480.629,343.55 477.833,340.681 472.749,335.54 466.187,328.954 458.973,321.727 451.951,314.685 
	445.905,308.632 443.522,306.252 441.679,304.415 440.511,303.241 440.09,302.828 "/>
</svg>
