<?xml version="1.0" encoding="utf-8"?>
<!-- Generator: Adobe Illustrator 17.1.0, SVG Export Plug-In . SVG Version: 6.00 Build 0)  -->
<!DOCTYPE svg PUBLIC "-//W3C//DTD SVG 1.1//EN" "http://www.w3.org/Graphics/SVG/1.1/DTD/svg11.dtd">
<svg version="1.1" id="Ebene_1" xmlns="http://www.w3.org/2000/svg" xmlns:xlink="http://www.w3.org/1999/xlink" x="0px" y="0px"
	 width="100px" height="100px" viewBox="0 0 100 100" enable-background="new 0 0 100 100" xml:space="preserve">
<circle fill="#B2B2B2" cx="50" cy="50" r="50"/>
<path fill="#ECEDEE" d="M15.7,24.7c-0.2-2.4,0.6-4.4,1.5-6.6c0.8-2,2.7-3.5,4.2-5c1.5-1.4,3.5-2.3,5.4-3.1c1.8-0.8,3.9-1.5,5.9-1.6
	c1.3-0.1,2.6-0.2,3.9-0.3c1.1-0.1,2.3,0.2,3.4,0.3c1.9,0.1,3.9,0.7,5.7,1.4c1,0.4,2,0.7,2.9,1.3c0.9,0.6,2,1.1,2.8,1.8
	c0.8,0.7,1.9,1.4,2.5,2.3c0.6,0.8,1.5,1.7,1.9,2.7c0.5,1.3,1.2,2.5,1.4,4c0.2,1.2,0.3,2.3,0.2,3.6c-0.2,3.2-0.4,6.4-0.6,9.6
	c0.2-2.3-0.6-4.4-1.5-6.4c-0.4-1-1.2-1.8-1.8-2.6c-0.6-0.9-1.6-1.5-2.4-2.2c-1.6-1.5-3.7-2.3-5.7-3.1c-1.8-0.8-3.8-1.2-5.8-1.4
	c-1.1-0.1-2.2-0.3-3.2-0.2c-1.3,0.1-2.5,0.2-3.8,0.3c-2.1,0.2-4.3,1.1-6.3,1.9c-3.9,1.6-7.3,4.7-9,8.6c-0.7,1.7-1.1,3.4-1,5.2
	C16.1,31.6,15.9,28.1,15.7,24.7z"/>
<path fill="none" stroke="#131E1F" stroke-width="0.8555" stroke-miterlimit="2.6131" d="M15.7,24.7c-0.2-2.4,0.6-4.4,1.5-6.6
	c0.8-2,2.7-3.5,4.2-5c1.5-1.4,3.5-2.3,5.4-3.1c1.8-0.8,3.9-1.5,5.9-1.6c1.3-0.1,2.6-0.2,3.9-0.3c1.1-0.1,2.3,0.2,3.4,0.3
	c1.9,0.1,3.9,0.7,5.7,1.4c1,0.4,2,0.7,2.9,1.3c0.9,0.6,2,1.1,2.8,1.8c0.8,0.7,1.9,1.4,2.5,2.3c0.6,0.8,1.5,1.7,1.9,2.7
	c0.5,1.3,1.2,2.5,1.4,4c0.2,1.2,0.3,2.3,0.2,3.6c-0.2,3.2-0.4,6.4-0.6,9.6c0.2-2.3-0.6-4.4-1.5-6.4c-0.4-1-1.2-1.8-1.8-2.6
	c-0.6-0.9-1.6-1.5-2.4-2.2c-1.6-1.5-3.7-2.3-5.7-3.1c-1.8-0.8-3.8-1.2-5.8-1.4c-1.1-0.1-2.2-0.3-3.2-0.2c-1.3,0.1-2.5,0.2-3.8,0.3
	c-2.1,0.2-4.3,1.1-6.3,1.9c-3.9,1.6-7.3,4.7-9,8.6c-0.7,1.7-1.1,3.4-1,5.2C16.1,31.6,15.9,28.1,15.7,24.7z"/>
<path fill="#111010" d="M57.4,24.7c-0.2,0.9-0.2,2.2-0.6,3.1c-0.4,0.9-0.7,2.1-1.4,2.9c-0.6,0.8-1.2,1.9-2,2.6
	c-0.8,0.7-1.6,1.7-2.5,2.2c-1,0.6-2,1.2-3,1.8c-0.9,0.6-2.2,0.9-3.2,1.3c-1.9,0.7-4,1-6,1.1c-2,0.2-4.3,0.3-6.3-0.2
	c-1.2-0.3-2.4-0.6-3.7-0.8c-1.1-0.2-2.1-0.8-3.1-1.2c-2-0.8-3.7-2.2-5.3-3.6c-1.7-1.5-2.7-3.3-3.7-5.3c-0.6-1.2-0.7-2.5-0.9-3.8
	c0.3,4.4,0.4,8.9,1.2,13.2c0.1,0.4,0.4,0.9,0.6,1.3c0.2,0.5,0.4,1.1,0.7,1.5c0.6,0.8,1.2,1.9,2,2.5c1.6,1.4,3.4,3.1,5.4,3.9
	c1.1,0.4,2.2,0.9,3.3,1.3c1,0.4,2.3,0.5,3.3,0.8c2,0.5,4.1,0.4,6.1,0.3c2-0.2,4.2-0.4,6.2-1.1c1-0.4,2.2-0.7,3.1-1.3
	c0.9-0.6,2.1-1.1,2.9-1.8c0.8-0.7,1.6-1.4,2.4-2.1c0.7-0.6,1.2-1.6,1.8-2.3c1.1-1.5,1.6-3.4,1.9-5.2c0.3-1.7,0.3-3.5,0.4-5.2
	C57.2,28.7,57.3,26.7,57.4,24.7z"/>
<path fill="none" stroke="#131E1F" stroke-width="0.8555" stroke-miterlimit="2.6131" d="M57.4,24.7c-0.2,0.9-0.2,2.2-0.6,3.1
	c-0.4,0.9-0.7,2.1-1.4,2.9c-0.6,0.8-1.2,1.9-2,2.6c-0.8,0.7-1.6,1.7-2.5,2.2c-1,0.6-2,1.2-3,1.8c-0.9,0.6-2.2,0.9-3.2,1.3
	c-1.9,0.7-4,1-6,1.1c-2,0.2-4.3,0.3-6.3-0.2c-1.2-0.3-2.4-0.6-3.7-0.8c-1.1-0.2-2.1-0.8-3.1-1.2c-2-0.8-3.7-2.2-5.3-3.6
	c-1.7-1.5-2.7-3.3-3.7-5.3c-0.6-1.2-0.7-2.5-0.9-3.8c0.3,4.4,0.4,8.9,1.2,13.2c0.1,0.4,0.4,0.9,0.6,1.3c0.2,0.5,0.4,1.1,0.7,1.5
	c0.6,0.8,1.2,1.9,2,2.5c1.6,1.4,3.4,3.1,5.4,3.9c1.1,0.4,2.2,0.9,3.3,1.3c1,0.4,2.3,0.5,3.3,0.8c2,0.5,4.1,0.4,6.1,0.3
	c2-0.2,4.2-0.4,6.2-1.1c1-0.4,2.2-0.7,3.1-1.3c0.9-0.6,2.1-1.1,2.9-1.8c0.8-0.7,1.6-1.4,2.4-2.1c0.7-0.6,1.2-1.6,1.8-2.3
	c1.1-1.5,1.6-3.4,1.9-5.2c0.3-1.7,0.3-3.5,0.4-5.2C57.2,28.7,57.3,26.7,57.4,24.7z"/>
<path fill="#FFFFFF" d="M57.4,24c-0.3,2.2-0.5,4.2-1.7,6.2c-1.1,2-2.8,3.5-4.5,5c-0.8,0.7-2,1.2-2.9,1.8c-0.9,0.6-2,0.9-3,1.3
	c-1.8,0.7-3.8,1.2-5.7,1.3c-1.1,0.1-2.2,0.3-3.3,0.2c-1.3-0.1-2.6-0.2-3.9-0.3c-2-0.2-4.1-0.9-5.9-1.7c-1.9-0.8-3.8-1.7-5.3-3.1
	c-1.6-1.4-3.3-3-4.1-5c-0.8-1.9-1.7-4-1.4-6.2c0.3-2.2,0.6-4.3,2-6.2c1.2-1.7,2.6-3.5,4.4-4.7C23,12,24,11.2,25,10.8
	c1.2-0.5,2.3-1,3.5-1.4c1-0.4,2.2-0.5,3.3-0.8c1-0.2,1.9-0.3,2.9-0.3c1-0.1,1.9-0.1,2.9-0.1c1.1,0.1,2.3,0,3.3,0.3
	c1.2,0.3,2.5,0.6,3.7,0.9c1.1,0.3,2.1,0.9,3.1,1.3c1.9,0.8,3.6,2.1,5.1,3.5c1.2,1.1,2.5,2.5,3.2,4.1c0.3,0.8,0.9,1.8,1.1,2.6
	C57.2,21.9,57.3,22.9,57.4,24z"/>
<path fill="none" stroke="#131E1F" stroke-width="0.8555" stroke-miterlimit="2.6131" d="M57.4,24c-0.3,2.2-0.5,4.2-1.7,6.2
	c-1.1,2-2.8,3.5-4.5,5c-0.8,0.7-2,1.2-2.9,1.8c-0.9,0.6-2,0.9-3,1.3c-1.8,0.7-3.8,1.2-5.7,1.3c-1.1,0.1-2.2,0.3-3.3,0.2
	c-1.3-0.1-2.6-0.2-3.9-0.3c-2-0.2-4.1-0.9-5.9-1.7c-1.9-0.8-3.8-1.7-5.3-3.1c-1.6-1.4-3.3-3-4.1-5c-0.8-1.9-1.7-4-1.4-6.2
	c0.3-2.2,0.6-4.3,2-6.2c1.2-1.7,2.6-3.5,4.4-4.7C23,12,24,11.2,25,10.8c1.2-0.5,2.3-1,3.5-1.4c1-0.4,2.2-0.5,3.3-0.8
	c1-0.2,1.9-0.3,2.9-0.3c1-0.1,1.9-0.1,2.9-0.1c1.1,0.1,2.3,0,3.3,0.3c1.2,0.3,2.5,0.6,3.7,0.9c1.1,0.3,2.1,0.9,3.1,1.3
	c1.9,0.8,3.6,2.1,5.1,3.5c1.2,1.1,2.5,2.5,3.2,4.1c0.3,0.8,0.9,1.8,1.1,2.6C57.2,21.9,57.3,22.9,57.4,24z"/>
<path fill="#DCDDDD" d="M55.3,24c-0.3-8.9-10.1-12.8-17.7-13.2c-7.4-0.4-17.7,3-19.5,11.2c-1.9,8.8,8,14.2,15.3,15.1
	c7.5,0.9,17.7-1.5,21.1-9.1C55,26.6,55.2,25.3,55.3,24z"/>
<path fill="none" stroke="#131E1F" stroke-width="0.8555" stroke-miterlimit="2.6131" d="M55.3,24c-0.3-8.9-10.1-12.8-17.7-13.2
	c-7.4-0.4-17.7,3-19.5,11.2c-1.9,8.8,8,14.2,15.3,15.1c7.5,0.9,17.7-1.5,21.1-9.1C55,26.6,55.2,25.3,55.3,24"/>
<path fill="#FFFFFF" d="M54.3,26.4c-0.2-4.2-3.4-7-7-8.8c-3.7-1.8-8-2.4-12.1-2.2c-6.7,0.3-18.6,4.9-15.3,13.7
	c1.4,3.9,5.7,6,9.3,7.2c3.8,1.2,8.1,1.4,12,0.7C46.8,36.2,54,33,54.3,26.4z"/>
<path fill="none" stroke="#A2A5A6" stroke-width="0.8555" stroke-miterlimit="2.6131" d="M54.3,26.4c-0.2-4.2-3.4-7-7-8.8
	c-3.7-1.8-8-2.4-12.1-2.2c-6.7,0.3-18.6,4.9-15.3,13.7c1.4,3.9,5.7,6,9.3,7.2c3.8,1.2,8.1,1.4,12,0.7C46.8,36.2,54,33,54.3,26.4"/>
<path fill="#EFEFEF" d="M45.5,20.2c-0.1-1.3-3.3-1.5-4.3-1.7c-1.8-0.3-3.7-0.3-5.6-0.3c-1.9,0.1-3.8,0.2-5.6,0.6
	c-1.1,0.3-3.5,1.2-1.4,2.1c2.6,1.2,6.1,1.2,9,1.1c1.6,0,3.1-0.2,4.7-0.4C43.1,21.6,45.4,21.3,45.5,20.2z"/>
<path fill="#B5B5B6" d="M48.2,44c-0.6-1.1-0.8-1.9-0.5-3.1c0.2-0.7,0.2-0.9,0.7-1.3c0.5-0.4,0.7-0.5,1.3,0c0.8,0.7,1.5,1.6,2.3,2.4
	c4.1,4.3,8.2,8.5,12.3,12.8c3.4,3.5,6.8,7.1,10.1,10.6c-0.4-0.4-0.7-0.4-1.1-0.1c-0.7,0.5-0.7,0.6-0.9,1.4c-0.3,1.2-0.1,2,0.5,3.1
	C66,62.5,59.1,55.3,52.2,48.1C50.9,46.7,49.5,45.3,48.2,44z"/>
<path fill="none" stroke="#131E1F" stroke-width="0.8555" stroke-miterlimit="2.6131" d="M48.2,44c-0.6-1.1-0.8-1.9-0.5-3.1
	c0.2-0.7,0.2-0.9,0.7-1.3c0.5-0.4,0.7-0.5,1.3,0c0.8,0.7,1.5,1.6,2.3,2.4c4.1,4.3,8.2,8.5,12.3,12.8c3.4,3.5,6.8,7.1,10.1,10.6
	c-0.4-0.4-0.7-0.4-1.1-0.1c-0.7,0.5-0.7,0.6-0.9,1.4c-0.3,1.2-0.1,2,0.5,3.1C66,62.5,59.1,55.3,52.2,48.1
	C50.9,46.7,49.5,45.3,48.2,44z"/>
<path d="M50.7,48c-0.4-0.7-0.4-2.2-0.1-2.9c0.3-0.6,0.5-1.1,0.8-1.7c0.2-0.4,0.8-0.8,1.2-1.2c0.6-0.6,1.8,0,2.3,0.5
	c0.3,0.2,0.5,0.5,0.8,0.7c3.8,3.5,7.6,6.9,11.4,10.4c4.3,3.9,8.5,7.7,12.8,11.6c0.8,0.7,1.7,1.4,2.3,2.2c1.3,1.8,2.1,3.8,2.4,6
	c0.1,1-0.1,2-0.5,2.9c-0.2,0.4-0.4,0.8-0.7,1.2c-0.3,0.3-0.8,1.2-1.2,1.4c-0.4,0.2-1,0.5-1.5,0.5c-0.5,0-1.3-0.5-1.8-0.6
	c-1-0.4-1.9-1.2-2.8-1.9c-1.6-1.1-2.8-2.7-4.1-4.2c-1.6-1.8-3.2-3.7-4.8-5.5C61.7,61,56.2,54.6,50.7,48C50.8,48,50.8,48,50.7,48z"/>
<path fill="none" stroke="#131E1F" stroke-width="0.8555" stroke-miterlimit="2.6131" d="M50.7,48c-0.4-0.7-0.4-2.2-0.1-2.9
	c0.3-0.6,0.5-1.1,0.8-1.7c0.2-0.4,0.8-0.8,1.2-1.2c0.6-0.6,1.8,0,2.3,0.5c0.3,0.2,0.5,0.5,0.8,0.7c3.8,3.5,7.6,6.9,11.4,10.4
	c4.3,3.9,8.5,7.7,12.8,11.6c0.8,0.7,1.7,1.4,2.3,2.2c1.3,1.8,2.1,3.8,2.4,6c0.1,1-0.1,2-0.5,2.9c-0.2,0.4-0.4,0.8-0.7,1.2
	c-0.3,0.3-0.8,1.2-1.2,1.4c-0.4,0.2-1,0.5-1.5,0.5c-0.5,0-1.3-0.5-1.8-0.6c-1-0.4-1.9-1.2-2.8-1.9c-1.6-1.1-2.8-2.7-4.1-4.2
	c-1.6-1.8-3.2-3.7-4.8-5.5C61.7,61,56.2,54.6,50.7,48C50.8,48,50.8,48,50.7,48z"/>
<path fill="#DCDDDD" d="M54,52c-0.8-1.1-0.9-2-1-3.3c0-0.5,0.4-1.3,0.6-1.8c0.2-0.6,0.5-0.9,0.9-1.5c0.8-1,1.8-1.3,3-0.9
	c0.8,0.3,1.9,1.5,2.3,2.3c-0.8-0.6-1.5-0.7-2.5-0.7c-0.6,0-1.6,1-1.8,1.6c-0.5,1.1-0.7,1.7-0.8,2.9c-0.1,0.9,0.5,1.7,0.5,2.5
	C54.7,52.8,54.3,52.4,54,52z"/>
<path fill="none" stroke="#131E1F" stroke-width="0.8555" stroke-miterlimit="2.6131" d="M54,52c-0.8-1.1-0.9-2-1-3.3
	c0-0.5,0.4-1.3,0.6-1.8c0.2-0.6,0.5-0.9,0.9-1.5c0.8-1,1.8-1.3,3-0.9c0.8,0.3,1.9,1.5,2.3,2.3c-0.8-0.6-1.5-0.7-2.5-0.7
	c-0.6,0-1.6,1-1.8,1.6c-0.5,1.1-0.7,1.7-0.8,2.9c-0.1,0.9,0.5,1.7,0.5,2.5C54.7,52.8,54.3,52.4,54,52z"/>
<path fill="#131E1F" d="M56.6,52.3c6.5,7,13.1,13.9,19.6,20.9c0.9,1,2.1,1.6,3.5,1.8c0.6,0.1,0.7,0.1,1.2-0.2c0.4-0.3,0.9-0.6,1.1-1
	c0.3-0.7,1.1-1.9,1-2.8c0.5,0.9,0.7,1.9,0.7,3c0,0.4,0.1,1.2,0,1.6c-0.3,0.6-0.5,1.2-0.8,1.8c-0.2,0.4-0.2,0.8-0.6,1.1
	c-0.4,0.3-0.9,0.8-1.4,0.8c-1.2-0.1-2.2-0.3-3.2-1c-1.8-1.4-3.2-3.1-4.8-4.8c-1.3-1.5-2.6-3-3.9-4.5c-2.6-3-5.2-5.9-7.7-8.9
	c-1.2-1.4-2.4-2.8-3.6-4.2c-0.6-0.8-1.3-1.5-1.9-2.3c-0.2-0.2-0.6-0.8-0.4-1.1C55.6,51.9,56.3,52.2,56.6,52.3z"/>
<path fill="#FFFFFF" d="M58.9,47.3c7.2,6.6,14.4,13.2,21.6,19.8c1.1,1,1.9,1.7,1.4,3.3c-1.9-1.3-3.4-3.2-5-4.8
	c-1.3-1.4-2.7-2.7-4-4.1c-3.2-3.3-6.4-6.5-9.7-9.8C61.9,50.3,60.4,48.8,58.9,47.3z"/>
</svg>
