<?xml version="1.0" encoding="utf-8"?>
<!-- Generator: Adobe Illustrator 17.1.0, SVG Export Plug-In . SVG Version: 6.00 Build 0)  -->
<!DOCTYPE svg PUBLIC "-//W3C//DTD SVG 1.1//EN" "http://www.w3.org/Graphics/SVG/1.1/DTD/svg11.dtd">
<svg version="1.1" id="Ebene_1" xmlns="http://www.w3.org/2000/svg" xmlns:xlink="http://www.w3.org/1999/xlink" x="0px" y="0px"
	 width="100px" height="100px" viewBox="0 0 100 100" enable-background="new 0 0 100 100" xml:space="preserve">
<circle fill="#B2B2B2" cx="50" cy="50" r="50"/>
<path fill="#FFFFFF" d="M70.8,35.3c-0.3-4.3-2-11.3-7-12.4c0.6-0.8,1.2-1.6,1.8-2.4c0.3-0.4,0.6-0.8,0.9-1.2c0.2-0.2,0.7-0.2,1-0.3
	c-0.5,1-0.4,2.2,1,2.3c1.9,0,1.8-1.6,1.2-2.9c-0.4-0.8-0.2-2-0.3-2.9C68.8,11,66.6,6.3,61.5,6c-2.5-0.2-5,0.6-7.3,1.6
	c-1.8,1.9-2.6,3.9-1.3,6.4c0.2,0.5,0.1,0.8,0,1.3c-0.1,0.9-0.1,1.8,0,2.7c0.2,2.3,1.2,4.7,3.5,5.6c-1.1,1.1-2.1,2.2-3.1,3.3
	c-0.8,0.9-1.5,1.8-2.2,2.7c-0.4,0.6-1,1.3-1.1,2c-1-1.4-2.6-2.5-4.2-2.9c-1.8-0.5-3.8-0.3-5.5,0.3c-1.8,0.6-3.3,1.7-5,2.3
	c-1.4,0.5-2.9,1.4-3.6,2.8c-0.4,0.9-0.3,2.1-0.3,3.1c0,1.3-0.1,2.5-0.2,3.8c-0.1,0.9-0.2,1.8-0.3,2.7c-0.2,1.7,1.4,1.4,2.6,1.4
	c0.1,0,0.9-0.1,0.9,0c0.2,0.3,0.5,0.6,0.7,0.8c0.6,0.7,1.1,1.4,1.7,2.1c-2.3,1.3-4.2,3.6-5.4,5.9c-1.1,2.2-1.7,4.8-1.3,7.3
	c0.1,0.3,1.1,2.8,1.2,2.7c-0.4,0.5-0.8,1-1.1,1.5c-0.5,0.7-1,1.5-1.4,2.4c-0.3,0.6-0.2,1.3-0.4,1.9c-0.6,1.6-1,3.3-1.2,5
	c-0.1,1.3-0.2,2.7,0,4c0.1,0.7,0.2,1.4,0.4,2.2c0.1,0.4,0.1,0.3-0.1,0.6c-0.9,1.2-1.7,2.3-2.6,3.5c-0.6,0.8-0.7,0.9-0.7,1.9
	c0,0.5-0.2,1.5,0.4,1.5c1.9,0,3.7,0,5.6-0.1c4.1,0,8.2-0.1,12.3-0.1c-0.1-0.2-0.8-1.6-0.7-1.7c0.6-0.5,1.1-0.9,1.7-1.4
	c0.8-0.7,1.7-1.4,2.5-2c0.3-0.3,1.1-0.7,1.3-1.1c0.2-0.3,0-1.1,0-1.4c0-1,0-2.1,0.1-3.1c0-1.5,0.1-3,0.1-4.5
	c1.3,2.4,2.7,4.9,4.5,6.9c1.1,1.2,2.2,2,3.9,1.8c1.9-0.2,3.6-1.5,4.5-3.2c0.9-1.8,0.8-4.1,0.8-6.1c0-2.2-0.1-4.4-0.7-6.5
	c-0.2-0.9-0.6-1.7-1.1-2.5c-0.3-0.4-1.1-0.9-1-1.4c0.5-1.2,0.9-2.3,1.4-3.5c0.3-0.7,0.2-1.7,0.3-2.4c0.2-1.6,0.4-3.2,0.6-4.7
	c0.1-0.6,0.2-1.2,0.2-1.8c0-0.1,0-0.7,0.1-0.8c0.1-0.1,0.7,0,0.8,0c0.7,0,1.4-0.1,2.1-0.2c1.6-0.1,3.2-0.3,4.7-0.9
	c1.5-0.6,1.3-2.2,1.2-3.6c-0.1-0.9-0.2-1.7-0.4-2.5c0-0.2-0.3-0.9-0.2-1.1C70.5,39,70.9,37.1,70.8,35.3
	C70.6,32.1,70.9,38.5,70.8,35.3z M35.1,79.3c-0.7,0.1-1.4,0.2-2.1,0.2c-0.2,0-0.2-1.8-0.3-2c-0.1-1.4-0.1-2.9,0.3-4.2
	c0.3-0.3,1.7-0.2,2.1-0.2C35.1,75.2,35.1,77.3,35.1,79.3z M41,79.4c-0.5-1.7,0.1-3.8,0.5-5.5c0.1-0.5,0.2-0.4,0.7-0.4
	c0.8,0,1.5,0,2.3,0c0.4,0,0.3,0,0.4,0.4c0,0.7,0.1,1.4,0.1,2c0.1,1.2,0.2,2.4,0.3,3.6C43.9,79.5,42.5,79.4,41,79.4z M55.1,46.7
	c-0.2-0.1-1.4-0.4-1.5-0.6c-0.1-0.6-0.3-1.2-0.4-1.8c-0.2-0.6-0.3-1.3-0.5-1.9c0-0.1,0.3-0.5,0.3-0.6c0.1-0.4,0.2-0.8,0.2-1.2
	c0-1.5-0.3-2.9-0.7-4.3c-0.1-0.2,0.8-1.1,0.9-1.3c0.4-0.5,0.8-1,1.1-1.6C56.8,37.4,57.2,42.6,55.1,46.7z"/>
<path fill="#FFFFFF" d="M48,82.5c2.2,0,2.2,3.9,0,3.9S45.8,82.5,48,82.5z"/>
<path d="M67.2,25.7c0.5-0.2,0.5-1,0-1.3c-0.4-0.2-1,0.2-1.4,0.3c-1.2,0.4-2.4,0.6-3.6,0.8c-1.3,0.1-2.6,0.2-3.9-0.1
	c-0.5-0.1-1.1-0.2-1.5-0.5c-0.4-0.2-0.9-0.8-1.3-0.8c-1,0-0.7,1-0.2,1.5c0.4,0.4,0.9,0.6,1.4,0.8c1.2,0.5,2.5,0.6,3.7,0.6
	C62.6,27.1,65.2,26.7,67.2,25.7C67.5,25.5,64.7,27,67.2,25.7z"/>
<path d="M52.9,27.8c2.6,1.5,5.7,2,8.7,1.9c1.5-0.1,3.1-0.3,4.5-0.7c0.7-0.2,1.5-0.5,2.2-0.8c0.6-0.3,0.5-1.2-0.1-1.3
	c-0.6-0.1-1.5,0.4-2,0.6c-0.7,0.2-1.5,0.4-2.3,0.5c-1.6,0.3-3.3,0.3-4.9,0.2c-1.4-0.1-2.9-0.5-4.2-1c-0.5-0.2-1.2-0.8-1.8-0.7
	C52.5,26.6,52.4,27.5,52.9,27.8C57.2,30.2,52.6,27.6,52.9,27.8z"/>
<path d="M63.1,40.3c-1.4-0.4-2.8-0.6-4.2-0.7c-0.7,0-1.8-0.3-2.4,0c-0.6,0.2-0.6,1.1,0,1.3c0.7,0.2,1.7,0.1,2.4,0.1
	c0.7,0.1,1.5,0.1,2.2,0.2c0.6,0.1,1.3,0.4,1.8,0.4C63.7,41.6,63.8,40.5,63.1,40.3C61.4,39.8,63.5,40.4,63.1,40.3z"/>
<path d="M60,42.8c-0.8,0-1.5,0.1-2.3,0c-0.5,0-1.3-0.4-1.7,0.1c-0.5,0.6,0.2,1.1,0.7,1.2c1,0.2,2.1,0.1,3.1,0.1
	C60.8,44.2,61,42.7,60,42.8z"/>
<path d="M70.1,34.1c-0.8,0-1.6,0-2.3-0.1c-0.5,0-0.9,0-1.4-0.1c-0.4,0-0.3-0.1-0.6-0.3c-0.4-0.2-1,0-1.5,0c-1.6,0.1-3.3,0.1-4.9-0.1
	c-1.1-0.1-2.3-0.3-3.4-0.3c-0.4,0-0.9,0.1-1,0.6c-0.1,0.4,0.1,0.8,0.5,0.9c0.4,0.1,0.8,0,1.2,0c0.6,0,1.2,0.1,1.8,0.2
	c0.9,0.1,1.9,0.2,2.8,0.2c0.8,0,1.6,0,2.4,0c0.6,0,1.2-0.1,1.9-0.1c0.1,0,0.4,0.4,0.7,0.4c0.8,0,1.6,0.1,2.5,0.1c0.4,0,1,0.1,1.4,0
	C71,35.5,71,34.1,70.1,34.1z"/>
<path d="M70.1,38.1c-1.1-0.7-2.4-1-3.6-1.3c-0.3-0.1-0.7-0.3-1-0.1C65,36.9,65,37.8,65.6,38c0.9,0.4,2,0.5,2.9,0.9
	c0.4,0.2,1,0.7,1.5,0.5C70.6,39.1,70.6,38.4,70.1,38.1C69,37.4,70.5,38.3,70.1,38.1z"/>
<path d="M67.9,43c0.4,0.2,0.9,0,1-0.5c0.1-0.7-0.7-1-1.1-1.3c-0.9-0.8-2.3-2.5-3.6-2.5c0.6,0,1.1-0.6,0.7-1.1
	c-0.4-0.5-1.8-0.3-2.4-0.4c-2-0.2-3.9-0.7-5.9-0.8c-0.6,0-1.5,0.4-0.9,1.1c0.4,0.6,1.8,0.3,2.4,0.4c2,0.3,4,0.7,6.1,0.7
	c-0.5,0-0.8,0.6-0.5,1.1c0.3,0.4,1,0.6,1.4,0.9C66.1,41.4,66.9,42.3,67.9,43C68.3,43.1,67.3,42.6,67.9,43z"/>
<path d="M69,43.4c-0.7,0.3-1.6,0.1-2.3,0.1c-0.9,0-1,1.4-0.1,1.4c0.7,0.2,1.9,0.1,2.6-0.1C70.3,44.5,69.9,43,69,43.4
	C68.6,43.6,69.3,43.2,69,43.4z"/>
<path d="M55.2,31.9c1.9,0.6,4.1,0.3,6.1,0.3c0.8,0,1.5,0,2.3,0c0.5,0,1.5,0.2,1.9-0.2c0.5,1.3,3.3-0.5,3.9-0.9
	c0.3-0.2,0.4-0.7,0.2-1c-0.3-0.5-0.8-0.3-1.2,0c-0.4,0.3-0.9,0.5-1.4,0.7c-0.4,0.2-1,0.2-1.3,0.4c-0.3-0.9-3.1-0.5-3.9-0.5
	c-1.8,0-3.7,0.2-5.4-0.1c-0.5-0.1-0.9-0.4-1.4-0.5c-0.2,0-0.5,0.1-0.6,0.3c-0.3-0.3-0.6-0.5-1-0.8c-0.5-0.3-1.4-1.4-2-0.9
	c-1,0.7,0.5,1.5,1,1.9c0.5,0.4,1.1,0.8,1.6,1.3C54.1,32.4,55.1,32.9,55.2,31.9C56.6,32.4,55.2,32.1,55.2,31.9z"/>
<path d="M53.7,33.9c-0.7-0.2-1.5-0.7-2-1.3c-0.8-0.9-1.9,0-1.1,0.9c0.6,0.7,1.4,1.2,2.2,1.6c0.4,0.2,0.9,0.3,1.2-0.1
	C54.4,34.7,54.2,34.1,53.7,33.9C53.1,33.8,54.1,34,53.7,33.9z"/>
<path fill="#FFFFFF" d="M55.7,46.8c1-1.2,2.7-2.1,4.1-2.7c0.7-0.3,1.6-0.5,2.3-0.3c0.5,0.2,1.1,0.8,1,1.4c-0.3,1.1-2.6,1.2-3.4,1.4
	c-0.6,0.1-1.3,0.3-1.8,0.6c-0.3,0.2-0.3,0.5-0.7,0.4C56.7,47.4,56.2,47.1,55.7,46.8z"/>
<path fill="#FFFFFF" d="M75.1,74c0.4-1.2,1.5-4.5-0.3-5.1c-1.6-0.6-3.7,1.3-4.3,2.7C70,73.1,69.4,76,71.2,77
	C72.9,77.9,74.7,75.4,75.1,74C75.5,72.9,74.6,75.7,75.1,74z"/>
<path fill="#FFFFFF" d="M33,73.4c0.7,0,1.6,0.1,2.3-0.1c0.5-0.2,1.5-1.6,0.8-1.9c-0.7-0.3-1.6-0.4-2.3,0
	C32.9,71.9,33.5,72.7,33,73.4z"/>
<path fill="#FFFFFF" d="M41.7,73.5c0.6,0,1.2,0,1.8,0c0.4,0,0.7,0,1.1,0c0.5,0,0.4-0.2,0.6-0.6c0.1-0.5,0.2-1.1,0.2-1.7
	c0-0.7,0.1-1.2-0.7-1.1C42.8,70.2,42.9,72.6,41.7,73.5z"/>
<path fill="#FFFFFF" d="M56.8,47.3c0.1,3.1,0.1,6.2,0,9.3c0,1.1,0,2.4-0.3,3.5c-0.3,0.8-1.2,0.6-1.8,0.5c0.5-1.6,0.2-3.4,0.1-5
	c-1.8,0.1-3.2,1.4-4.6,2.3c-0.5-1.4-1-2.9-1.6-4.3c-0.5-1.3-1.4-2.4-2-3.6c-1.1-1.9,0.4-2.8,2.1-3.1c1.7-0.3,3.4-0.4,5.2-0.4
	C54.3,46.4,56.8,46.4,56.8,47.3C56.9,49.6,56.8,45.8,56.8,47.3z"/>
<path fill="#FFFFFF" d="M47.5,68.6c0.1-2.3,0.1-4.3,1.5-6.3c1.2-1.7,2.9-3.1,5-3.8c0.6,1.8-0.2,2.9-1.4,4.1
	c-1.6,1.6-2.5,3.4-3.1,5.6c-0.3,1.1-0.6,2.3-0.9,3.4c-0.1,0.4-0.2,1.6-0.9,1.1C46.5,72,47.4,69.7,47.5,68.6
	C47.5,67.1,47.4,69.4,47.5,68.6z"/>
<path d="M69.4,24.4c0.2,0.4,0,0.9,0.3,1.3c0.2,0.3,0.4,0.7,0.7,0.9c0.4,0.3,0.9,0.2,0.9,0.7c0,0.5,0,1,0,1.5c0,0.5,0.1,1,0.2,1.5
	c0.1,0.5,0.2,0.6,0.6,0.5c0.7-0.2,1.4-0.5,2-0.9c0.5-0.3,1.1-0.8,0.9-1.4c-0.2-0.5-1-0.7-1.4-0.9c-0.6-0.2-1.1-0.5-1-1.3
	c0.1-0.4,0.2-0.8,0.1-1.2c-0.1-0.5-0.4-0.8-0.6-1.2c-0.3-0.7,0.1-1.4-0.1-2.1c-0.2-0.7-0.8-0.6-1.1-1c-0.5-0.8-0.6-1.9-1-2.7
	c-0.7-1.3-1.6,1-1.7,1.5c-0.1,0.9-0.1,1.8-0.2,2.7c0,0.4,0,0.9,0.3,1.2C68.7,24,69.2,24,69.4,24.4C69.6,24.7,69.1,23.9,69.4,24.4z"
	/>
<path d="M64.4,5.6c2.4,0.6,4.7,2,5.6,4.4c0.9,2.3,0.4,5-0.6,7.2c-2.3-2-5.5-3-8.5-3.3c-2.1-0.3-4.8,0.3-6.7-1.1
	C52,11,54.2,8.1,55.8,6.9C58.2,5.2,61.7,4.9,64.4,5.6C70.5,7,62,5,64.4,5.6z"/>
<path fill="#FFFFFF" d="M32.5,41.9c0.7-2.1-0.2-4.5,0-6.7c0.2-2.2,1.8-3.7,3.6-4.8c2.2-1.4,5-2.5,7.7-1.7c2.5,0.7,4.5,2.8,6,4.8
	c1.5,2.1,2.6,4.1,2.9,6.7c0.2,1.1,0.3,2.2,0.6,3.3c0.3,1,0.6,2.2,0.2,3.2c-0.9,2.7-4.5,1.7-6.4,1.1c-2.7-0.9-5.5-2-8.4-2.4
	c-1-0.2-2.1-0.2-3.2-0.1c-0.9,0.1-1.9,0.4-2.8,0.1c-0.6-0.2-1.5-0.8-1.4-1.5C31.7,43.1,32.3,42.5,32.5,41.9
	C32.8,41.1,32,43.3,32.5,41.9z"/>
<path fill="#FFFFFF" d="M37.8,31.8c-0.2,0.8-1.5,1.3-2.2,1.8c-1,0.7-1.8,1.8-2.3,2.9c-1.2,2.3-0.7,4.9,0.3,7.2
	c1.7,3.9,6.1,6.3,10.3,5.4c2.1-0.4,4.1-2,4.6-4.1c0.3-1.1,0-2.2,0-3.2c-0.1-1.1,0-2.3-0.5-3.4c-0.7-1.9-3.5-1.6-5.2-1.9
	c-2.1-0.4-3.6-2.2-4.7-3.9C38.1,32.3,38,32,37.8,31.8z"/>
<path fill="#FFFFFF" d="M40.3,62.7c-2.4,0.1-3.3,3.5-1.1,4.6c1.2,0.6,2.7-0.4,2.1-1.8c-0.3-0.6-0.8-1-1-1.6
	C40.3,63.5,40.3,63.1,40.3,62.7z"/>
<path fill="#FFFFFF" d="M34.2,61.7c-0.3-0.9-1.6-1-2.3-0.6c-1.1,0.5-1.3,2-1.1,3c0.6-0.4,1.2-0.8,1.8-1.3
	C33.1,62.5,33.9,62.2,34.2,61.7z"/>
<path fill="#FFFFFF" d="M66.1,44.3c0.3,1.7-0.1,3.6-2.1,3.8c-0.7,0.1-1.6,0-2-0.7c-0.4-0.8,0.5-1,0.7-1.7c0.4-1.2-1.6-3.3,0.1-4
	C64.6,40.9,65.8,42.8,66.1,44.3C66.3,45.7,65.9,42.9,66.1,44.3z"/>
<path fill="#FFFFFF" d="M56.7,9.8c-2.8,1-3.9,5.6-3.7,8.3c0.3,3.6,3.3,7.1,7.1,6.8c1.8-0.1,3.9-0.9,4.8-2.6c0.4-0.8,0.6-1.9,1.4-2.3
	c0.3-0.2,0.8-0.1,1.2-0.1c0.5,0,0.9-0.2,1.3-0.6c0.4-0.5,1.1-1.3,0.8-2c-0.2-0.5-1-0.7-1.4-0.9c-0.9-0.5-0.5-1.5-1.2-2.2
	c-0.6-0.7-1.7-0.8-2.4-1.5c-0.3,0.5-0.5,1.1-0.9,1.5c-0.9-1-1.9-1.8-2.6-2.9c-0.5,0.5-0.8,1.1-1.2,1.6c-0.4-0.6-0.9-1.2-1.1-1.9
	c-0.5,0.6-0.8,1.2-1.3,1.8C57,11.8,56.9,10.7,56.7,9.8z"/>
<path fill="#FFFFFF" d="M57.8,20.7c0.9,0,1.7,0.1,2.6,0.3c-0.1,0.7-0.6,1.9-1.5,1.4C58.4,22.2,57.7,21.4,57.8,20.7z"/>
<path d="M57.3,56.3c-0.2,2.5-1.6,5.3,1.6,6.3c0.2-1.2,0.8-2.3,1.2-3.5c0.9,2.7,2.2,5.3,3.9,7.6c0.8,1.1,1.6,2.2,2.6,3.2
	c0.8,0.8,1.6,1.9,2.7,2.4c1.5,0.7,3.5-0.9,4.6-1.8c1.1-0.8,3.1-2.1,2-3.5c-1.1-1.5-2.9-2.4-4.3-3.8c-2-1.9-3.6-3.9-3.7-6.8
	c-0.1-2.7,0.6-5.3,0.5-8c0-0.7-0.1-0.6-0.7-0.6c-0.4,0-0.9,0-1.3,0c-1.1,0-2.2,0-3.3,0.1c-1.2,0.1-2.5,0.2-3.7,0.4
	c-0.7,0.1-1.9,0.3-2.3,1c-0.5,0.9-0.2,2.2-0.1,3.1C57.1,53.7,57.5,55.1,57.3,56.3C57.1,59.2,57.5,53.9,57.3,56.3z"/>
<path fill="#FFFFFF" d="M31.1,56.5c-0.2,1.3-0.7,4.5,1,5.1c1,0.3,2.1-0.2,3.1-0.4c0.3-0.1,0.4,0.1,0.5-0.2c0.1-0.2,0.2-0.4,0.3-0.5
	c0.4-0.4,0.9-0.7,1.4-0.9c1.4-0.6,4-0.7,4.4,1.3c0.1,0.4-0.1,0.7-0.4,0.9c-0.5,0.4-0.5,0-1-0.4c-0.6-0.5-1.9-0.8-2.2,0.2
	c2.5,0.3,1.3,4.7,4.1,4.2c1.9-0.4,4.1-1.6,5.6-3c1.7-1.5,2.1-3.7,2.2-5.8c0.1-2.2-0.2-4.5-1.3-6.5c-0.5-0.9-1.2-2-2.4-2.2
	c-1.3-0.2-2.6,0.3-3.8,0.6c-1.4,0.3-2.8,0.2-4.2,0.4c-1.2,0.2-2.4,0.7-3.4,1.4C33,52,31.4,54.1,31.1,56.5
	C30.9,57.7,31.5,53.3,31.1,56.5z"/>
<path d="M28.9,70.9c-0.2,2.7-1,5.4-0.6,8.2c0.4,2.6,3.1,2,5,1.9c-0.3-1.6-0.2-3.3,0-5c0.1-0.7,0.3-1.5,0.5-2.2
	c0.1-0.4,0.4-0.9,0.4-1.3c0-1-1.7-1.1-2.3-1.1C30.7,71.4,29.6,71.7,28.9,70.9z"/>
<path d="M36,77.6c0.1,1,0.1,3,1.4,3.3c0.8,0.2,1.7,0.1,2.6,0c0.3,0,0.6-0.1,1-0.1c0-0.6,0.1-1.3,0.1-1.9c0.1-2.1,0.5-4.4,1.9-6.1
	c0.6-0.7,1.5-1.2,2-1.9c0.7-0.9,0.9-2.2,1-3.4c0-0.6,0-1.1,0-1.7c0-0.5-0.6-0.4-1.1-0.4c-0.6,0-1.3,0.1-1.9,0.5
	c-1.2,1-0.8,2.9-1.7,4.1c-0.9,1.2-2.8,1.2-4,2.2C35.9,73.6,35.9,75.8,36,77.6C36.1,78.2,35.8,75.5,36,77.6z"/>
<path fill="#FFFFFF" d="M32,83.6c1.6-1.8-0.4-3.8-2.3-2.7C27.3,82.3,30.2,85.6,32,83.6z"/>
<path fill="#FFFFFF" d="M41,81.2c-1.3-0.2-2.9-0.3-4,0.4c-1.5,0.8-1.3,2.7,0.4,3.1c1.1,0.3,2.1-0.7,2.7-1.6C40.1,83,41,81.2,41,81.2
	C39.6,81,41,81.2,41,81.2z"/>
<path fill="#FFFFFF" d="M35.6,60.3c-0.6,0.8-1.3,1.3-2.1,1.8c-1,0.6-1.8,1.4-2.5,2.4c-0.6,0.9-1.1,1.8-1.4,2.8
	c-0.2,0.7-0.6,1.6-0.3,2.3c0.7,1.7,3.9,1.1,5.3,1.2c1.8,0.1,3.8,0.8,5.5,0.1c0.9-0.3,1.4-1,1.8-1.8c0.2-0.4,1.4-2.9,0.8-3
	c-1.4-0.3-2.1,1-3.4,1.2c-1.2,0.2-2.6-2-2.3-3.1c0.3-1,2.3-1.1,3.1-1.7c-0.7-0.4-1.4-0.8-2.2-1c0.3,0.1,1.1-0.8,1.5-0.9
	c0.8-0.3,1.3,0.7,1.4,1.3c1.6-0.8,1-2.9-0.5-3.4C38.7,58.1,36.6,58.9,35.6,60.3C34.7,61.6,36.6,59,35.6,60.3z"/>
<path fill="#FFFFFF" d="M27.9,82.8c-0.9,1.3-2.2,2.5-2.7,4c-0.8,2.4,2.4,2.3,4,2.4c3.1,0.2,6.2,0.2,9.4,0.1c1.2,0,2.3,0.2,3.5,0.1
	c1.4-0.1,2.1-1,2.7-2.1c0.6-1,1-1.9,1.2-3.1c0.2-1.3,0.6-2.6,0.7-3.9c0-0.6-0.1-0.6-0.7-0.7c-0.4-0.1-0.9-0.2-1.3-0.3
	c-1-0.2-2-0.4-3-0.2c-1,0.2-1,1.1-1.4,1.9c-0.5,1.1-1.6,2-2.3,2.9c-0.5,0.6-1.2,1.5-2.1,1.3c-1.2-0.4-1-1.8-0.6-2.6
	c0.3-0.6,0.6-1.2,1.1-1.8c-0.3-0.2-0.7-0.4-0.9-0.7c-0.3-0.4-0.7-0.4-1.2-0.4c-0.5-0.1-0.9-0.1-1.4-0.1c-0.1,0.2-0.1,0.3-0.2,0.5
	c-0.4,1-0.8,2-1.3,3c-0.4,0.6-1,1.7-1.8,1.7C28.6,84.7,28.2,83.5,27.9,82.8z"/>
<g>
	<path d="M38.9,41.5c-0.3,0.7,0.4,1.2,1,1.5c0.2,0.1,0.6,0.3,0.9,0.1c0.2-0.2,0.1-0.5,0-0.6c-0.3-0.2-0.7-0.3-0.9-0.6
		c0.1-0.1,0.2-0.4,0.2-0.5c0.1-0.2,0-0.6-0.3-0.6C39.3,40.7,39,41.2,38.9,41.5C38.8,41.8,39.1,41,38.9,41.5z"/>
	<path d="M43,45c0.3,0.3,2.1,1.8,2.5,1c0.2-0.6-1.7-1.4-2.1-1.8c-0.3-0.2-0.7-0.9-1.1-0.8c-0.5,0.1-0.3,0.6-0.1,0.9
		c0.6,0.7-1,1.2-1.5,1.2c-0.8,0-1.7-0.3-2.1-1c-0.2-0.4,0.2-0.4,0.3-0.8c0.1-0.4-0.5-0.6-0.7-0.3c-0.5,0.6-2,1.5-2.1,2.2
		c-0.1,0.4,0.5,0.7,0.7,0.3c0.3-0.4,0.7-0.7,1.1-1.1C38.7,46.6,42,46.9,43,45C43.6,45.5,42.6,45.9,43,45z"/>
	<path d="M42.3,40.8c0.7,0,0.3-1.6,1.5-1.1c0.5,0.2,0.3,0.6,0.6,0.9c0.4,0.6,0.8-0.2,0.7-0.6c-0.2-0.8-1.1-1.4-1.9-1.2
		c-0.4,0.1-0.8,0.4-1,0.8C41.9,39.9,41.7,40.8,42.3,40.8C42.5,40.8,42.1,40.8,42.3,40.8z"/>
	<path d="M36.9,39.1c0.3,0,0.5,0.2,0.6,0.5c0.1,0.3,0.4,1.2,0.8,0.5c0.5-0.8-0.7-1.7-1.4-1.8c-0.9,0-1.7,0.6-1.8,1.5
		c-0.1,0.5,0.8,0.6,0.8,0.1C36,39.4,36.4,39.1,36.9,39.1C37.1,39.1,36.5,39.1,36.9,39.1z"/>
	<path d="M35.9,36.2c0.7-0.5,1.7-0.3,2.4,0c0.3,0.1,0.8,0.5,1.1,0c0.2-0.4-0.2-0.6-0.5-0.7c-0.7-0.3-1.6-0.6-2.4-0.4
		c-0.4,0.1-1,0.2-1.2,0.6C35.1,36.1,35.6,36.5,35.9,36.2C36.6,35.7,35.7,36.4,35.9,36.2z"/>
	<path d="M29.9,69.1c1.9,0.4,3.9,0.4,5.9,0.3c1,0,1.9-0.1,2.9-0.1c0.3,0,0.9,0.1,1.2-0.1c0.4-0.2,0.2-0.8-0.2-0.8
		c-1.9,0-3.9,0.2-5.8,0.2c-1,0-1.9,0-2.8-0.2c-0.3,0-0.9-0.3-1.2-0.2C29.5,68.4,29.5,69,29.9,69.1C32.1,69.6,29.7,69,29.9,69.1z"/>
	<path d="M45.1,81.2c-1-0.7-2.8,4.8-3.9,4.8c-2.6,0-5.2-0.1-7.7-0.1c-2.6,0-5.2-0.1-7.8-0.1c-0.8,0-0.9,0.8-0.1,0.8
		c0.9,0,1.9,0,2.8,0c4,0,8.1,0.1,12.1,0.1c0.4,0,0.8,0,1.1,0c0.4,0,0.8-0.8,0.9-1.1C43,85.3,45.8,81.7,45.1,81.2z"/>
	<path d="M55.2,68.1c0.7,0,0.5-1.9,0.5-2.4c0-0.4,0.3-1.6-0.3-1.6C54.6,64.1,54.4,68.2,55.2,68.1z"/>
	<path d="M55.6,75.2c0-0.2-0.2-0.4-0.4-0.5c-0.5,0-0.5,0.5-0.5,0.8c0,1,0.2,2,0.2,3c0,0.3,0.3,0.5,0.6,0.4c0.3-0.2,0.2-0.7,0.2-1
		C55.7,77,55.5,76.1,55.6,75.2z"/>
	<path d="M57.8,67.6c-0.4,0.5-1,0.8-1.5,1.3c-0.4,0.4,0.2,1,0.6,0.6c0.4-0.4,0.9-0.7,1.3-1.1C58.7,67.9,58.2,67.1,57.8,67.6
		C57.6,67.9,57.9,67.4,57.8,67.6z"/>
	<path d="M56.6,72.2c0,0.7,2.5,0.7,2.5,0C59,71.5,56.6,71.5,56.6,72.2z"/>
	<path d="M56.9,74.2c-0.3-0.3-0.8-0.1-0.7,0.3c0.1,0.5,0.7,1.1,0.9,1.6c0.2,0.5,1,0.1,0.8-0.3C57.7,75.2,57.3,74.7,56.9,74.2
		C56.8,74,57.3,74.6,56.9,74.2z"/>
	<path d="M53.2,74.1c-0.5,0.4-1,0.7-1.4,1.2c-0.2,0.2-0.8,1.4,0.1,1.1c0.5-0.2,1.1-1,1.5-1.3c0.2-0.2,0.5-0.3,0.5-0.6
		C53.9,74.1,53.5,73.9,53.2,74.1C52.5,74.7,53.4,74,53.2,74.1z"/>
	<path d="M52.8,72.4c0.5,0.1,0.7-0.7,0.2-0.8c-0.7-0.2-1.5-0.2-2.2-0.4c-0.5-0.2-0.7,0.7-0.2,0.8C51.3,72.3,52.1,72.3,52.8,72.4
		C53.1,72.5,52.6,72.4,52.8,72.4z"/>
	<path d="M53,69.4c0.3,0.5,1,0,0.7-0.4c-0.3-0.6-0.7-1.1-1.2-1.6c-0.4-0.4-1,0.2-0.6,0.6C52.3,68.4,52.7,68.9,53,69.4
		C53.1,69.6,52.7,69,53,69.4z"/>
	<path d="M75.1,68.5c0.3-0.5-1.8-2.4-2.1-2.9c-0.7-0.8-1.3-1.5-2.1-2.2c-1.7-1.6-3.3-3-3.4-5.5c-0.1-2.9,0.9-5.8,1.1-8.7
		c0-0.3,0-0.7,0-1c0-0.1,0.4-0.2,0.5-0.2c0.5-0.2,1-0.5,1.2-1c0.5-1,0.2-2.4,0-3.4c-0.1-0.5-0.2-2.3-0.7-2.7c0.6-1,1.1-1.9,1.4-3
		c0.5-2.2-0.3-4.3-0.9-6.4c-0.8-2.8-1.7-8.3-5.5-8.3c0.5-0.5,0.9-1,1.2-1.6c0.2-0.4,0.7-1.8,1-1.8c-0.2,0.9,0.1,1.9,1,2
		c-0.6,1.2-0.3,3.2,1.3,3.2c-0.3,0.9,0.1,2,1,2.4c0.2,0.1,0.3,0.1,0.5,0.1c0,0.3-0.1,0.7-0.2,1c-0.1,0.6-0.2,1.3,0,1.9
		c0.2,0.8,0.6,1,1.2,0.5c0.5-0.5,1.1-0.9,1.6-1.4c0.6-0.5,2.1-1.4,0.8-1.9c-0.5-0.2-0.9-0.5-1.3-0.8c-0.2-0.2-0.4-0.3-0.6-0.5
		c0.1-0.2,0.1-0.5,0.1-0.7c0-0.4-0.1-0.9-0.4-1.3c-0.3-0.5-0.7-0.5-0.6-1c0.2-1-0.3-2.1-1.3-2.5c0.2-0.4,0.3-0.9,0.1-1.3
		c-0.2-0.5-0.7-0.8-0.5-1.3c0.2-0.5,0.3-1.1,0.1-1.6c0.3-0.3,0.4-1.2,0.5-1.6c0.4-2.1,0.1-4.3-1.1-6.1c-2.2-3.3-6.6-4.5-10.4-3.7
		c-3.6,0.8-7.9,3.5-7,7.8c0.1,0.6,0.3,1.1,0.6,1.6c0.1,0.2-0.2,1.1-0.2,1.4c-0.1,1.2,0,2.4,0.2,3.5c0.4,1.9,1.4,3.7,3.2,4.6
		c-2.7,1.4-4.6,4.6-6,7.2c-2.5-2.4-6-3.9-9.5-3c-1.7,0.4-3.2,1.4-4.5,2.6c-1.7,0.2-3,1.1-3.8,2.6c-0.8,1.5-1,3.3-1,5
		c0.1,1.6,0,3-0.3,4.6c-0.3,1.3-0.2,2.8,1.4,3c0.4,0,0.8,0,1.2-0.1c0.7-0.2,0.6-0.2,1,0.4c0.6,0.8,1.3,1.5,2.1,2
		c-4.2,2.1-6.2,6.6-6.8,11c-0.1,1.1-0.1,2.2,0.2,3.3c0.2,0.5,0.4,1.1,0.7,1.5c0.3,0.4,0,0.4-0.2,0.7c-0.3,0.3-0.6,0.6-0.8,1
		c-0.7,0.9-1.5,2-1.5,3.2c0,0.3,0,0.5,0.1,0.8c-0.1,0.3-0.2,0.6-0.3,0.8c-0.2,0.7-0.4,1.4-0.6,2.1c-0.5,2.6-0.6,5.3,0.1,7.9
		c0.1,0.2,0.1,0.6,0.3,0.7c-0.2,0.2-0.3,0.4-0.5,0.6c-0.5,0.5-1,1.1-1.4,1.6c-0.9,1-2,2-2,3.5c0,0.4,0,1.2,0.3,1.6
		c0.1,0.6,1.5,0.4,1.9,0.5c1.7,0.1,3.3,0.1,5,0.1c3.2-0.1,6.5-0.3,9.7-0.2c1.3,0.1,2.3,0.2,3.3-0.9c0.9-1,1.6-2.5,2.2-3.7
		c-0.1,2,2.1,3.9,3.8,2.1c1.4-1.5,0.6-5-1.8-4.6c0-1.2,0-2.3-0.1-3.5c0-0.9,0-1.7,0-2.6c0-0.5,0-0.9,0-1.4c0-0.2,0-0.4,0-0.7
		c-0.1-0.3,0-0.4,0.2-0.5c0.3,3.3,1.6,7.2,4.6,9c2.6,1.6,5.6,0.5,7.4-1.8c2.3-3,3-7.1,2.6-10.8c-0.2-2-0.7-3.9-1.6-5.7
		c-0.4-0.8-0.9-1.5-1.5-2.2c-0.5-0.6,0-2.5,0.2-3.3c0.4,2.4,1.7,4.3,3,6.2c1.5,2.2,3.1,4.5,4.9,6.5c0.5,0.6,1.2,1.4,2,1.6
		c-0.1,1.3,0.1,4,1.9,4.1c1.7,0.1,2.9-1.9,3.5-3.2C75.7,72.2,76.1,70.1,75.1,68.5C75.3,68.3,76.5,70.7,75.1,68.5z M69.2,41.9
		c0.3,1.3,0.9,3.2,0.5,4.6c-0.4,1.3-2.7,1-3.8,1.2c0.8-0.7,1.1-1.8,0.9-2.9c-0.1-0.5,0.6-0.8,0.9-1.2c0.5-0.6,1-1.3,1.4-1.9
		C69.2,41.7,69.2,41.8,69.2,41.9z M58,48c-0.3-0.1,0.3-0.7,0.5-0.8c0.4-0.3,1-0.4,1.5-0.5c0.6-0.1,0.9-0.2,1.2,0.2
		c0.3,0.5,0.7,0.9,1.2,1.1C61,48.3,59.4,48.4,58,48C58,48,59.3,48.4,58,48z M55.2,59.9c-0.1,0-0.1,0-0.2,0c0.2-2,0.3-4,0.5-6
		c0.1-1.3,0.2-2.6,0.3-3.9c0-0.4,0.4-1.7,0-2c-0.8-0.6-0.8,1.9-0.8,2.2c-0.1,1.4-0.2,2.8-0.3,4.2c0,0.3,0,0.6-0.1,0.9
		c0,0-0.9,0.5-1,0.5c-1,0.6-1.9,1.2-2.9,1.7c0.2-1.6,0.1-3.3-0.6-4.8c-0.3-0.8-0.8-1.5-1.3-2.3c-0.4-0.6-1.1-1.7-1.7-2.1
		c0.4,0.2,1.2,0.1,1.7,0.1c0.6,0.1,1.2,0.1,1.8,0.1c1.2,0,2.6-0.2,3.3-1.3c0.3-0.4,0.3-0.2,0.8-0.2c0.3,0,0.7,0.1,1,0.1
		c0.5,0.1,1,0.1,1.4,0.4c0.2,0.1,0,1.1,0,1.3c-0.3,3.7-0.7,7.4-1,11.1C55.8,59.9,55.5,59.9,55.2,59.9z M54.4,57.2
		c-1.5,1-3.1,2-4.5,3c0.3-0.5,0.5-1.1,0.6-1.6c0.1-0.4,0.1-0.2,0.4-0.4c0.4-0.2,0.8-0.5,1.2-0.7c0.8-0.5,1.6-1,2.4-1.5
		C54.5,56.3,54.5,57.1,54.4,57.2C53.5,57.8,54.4,57.2,54.4,57.2z M46.8,70c0,2.2,0,4.3,0.1,6.5c0,1.1,0,2.2,0.1,3.3
		c0,0.5,0,0.9,0,1.4c0,0.4,0.2,0.8-0.3,0.8c0-0.5,0.4-2.3-0.5-2.2c0.1-0.3-0.1-0.9-0.1-1.2c0-0.5-0.1-1.1-0.1-1.6c0-1.5,0-3,0-4.4
		c0-1.6,0.1-3.3,0.2-4.9c0-0.7,0.1-1.5,0.1-2.2c0-0.3,0-0.6,0-0.9c0.5-0.4,1-0.8,1.4-1.2C47.2,65.4,46.8,67.7,46.8,70z M32,81.4
		c0.1,0.8-0.1,1.8-0.8,2.3c-0.9,0.6-2.2,0.3-2.7-0.7c-0.2-0.4-0.3-0.8-0.3-1.3c0-0.6,0.6-0.3,1.1-0.3c0.9,0,1.8-0.1,2.7-0.1
		C32,81.3,32,81.4,32,81.4C32.1,82.5,31.9,81.4,32,81.4z M35.7,71.7c0.1,0,0.1,0,0.2,0c-0.2,0.4-0.3,0.8-0.4,1.2
		c-0.6-0.1-1.2-0.2-1.8-0.2c0.1-0.3,0.3-0.7,0.5-1C34.7,71.7,35.2,71.7,35.7,71.7z M42.9,66.3c0.9-0.3,1.8-0.7,2.6-1.2
		c0,0.8-0.1,1.6-0.1,2.5c0,0.6-0.1,1.2-0.1,1.8c0,0.6-0.4,0.5-0.9,0.8c-1.4,0.8-2.5,2.1-3,3.6c-0.6,1.5-0.7,3.2-0.8,4.8
		c0,0.4,0,0.7,0,1.1c0,0.4,0.1,0.9-0.3,0.9c-0.9,0.1-1.9,0-2.8-0.1c-0.4-0.1-0.7-0.1-1.1-0.2c-0.4-0.1-0.5-0.1-0.5-0.6
		c0-1.1-0.1-2.2,0-3.2c0-1,0.1-2,0.3-3c0.1-0.5,0.3-1,0.5-1.5c0.2-0.5,0.9-0.3,1.4-0.2c1.5,0.1,2.7,0.4,3.7-1c0.5-0.7,0.8-1.6,1-2.4
		C42.8,68,43.3,66.7,42.9,66.3C43.8,66,43,66.4,42.9,66.3z M45.2,72.9c-0.8,0-1.7,0-2.5,0c0.6-1,1.5-1.7,2.5-2.2
		C45.2,71.4,45.2,72.2,45.2,72.9z M33.1,78.6c0-1.1-0.1-2.2,0-3.3c0-0.5,0.1-0.9,0.2-1.4c0.1-0.6,0.8-0.3,1.3-0.3
		c0.7,0.1,0.7,0.1,0.6,0.8c-0.1,0.6-0.1,1.2-0.1,1.8c0,1,0,2.1,0,3.1c-0.4,0-0.7,0-1.1,0C33.2,79.3,33.1,79.5,33.1,78.6
		C33.1,76.9,33.1,78.8,33.1,78.6z M36.6,81.2c1.1,0.3,2.3,0.3,3.4,0.3c-0.8,1.1-1.5,3.2-3.2,3c-0.7-0.1-1.1-0.6-1.1-1.3
		C35.7,82.3,36.2,81.9,36.6,81.2C37.7,81.4,36.6,81.2,36.6,81.2z M42.3,73.8c1,0,1.9,0,2.9,0c0,1.2,0,2.4,0,3.6c0,0.7,0,1.6,0.2,2.3
		c-1.3-0.1-2.6-0.1-3.9-0.2C41.5,77.6,41.6,75.5,42.3,73.8z M37.7,49c0-0.1,1,0.3,1.2,0.3c0.7,0.2,1.4,0.3,2.1,0.4
		C40.1,51.5,37.4,51.4,37.7,49C37.7,49,37.6,50.1,37.7,49z M47,48.2C47.1,48.3,47,48.2,47,48.2C47,48.2,47,48.2,47,48.2z M53.2,36.9
		c0.3-1,0.7-1.8,1.4-2.5c0.8,2.3,1.6,4.5,1.5,7c0,1-0.2,1.9-0.4,2.9c-0.1,0.5-0.3,1-0.5,1.4c-0.4,0.8-0.3,0.4-1.1,0.5
		c0.3-1.6-0.8-2.6-0.9-4.1c0-0.8,0.2-1.6,0.2-2.4C53.5,38.7,53.5,37.8,53.2,36.9C53.3,36.8,53.4,37.7,53.2,36.9z M56.7,46.5
		c0.9-0.9,1.9-1.3,3.1-1.5c0.6-0.1,1.2-0.2,1.7-0.3c0.3-0.1,0.7-0.2,1-0.3c0.2,0.1,0.2,0.7,0.2,0.9c-0.2,0.9-2.3,0.6-3.1,0.7
		c-0.6,0.1-1.1,0.2-1.6,0.5c-0.3,0.2-0.3,0.4-0.6,0.3C57.2,46.6,57,46.6,56.7,46.5C57.9,45.3,57.1,46.6,56.7,46.5z M65.8,44.2
		c0.4,1.1,0.3,2.4-0.8,3.1c-1,0.7-2.5,0.4-3.1-0.6c0.3,0,1.1-0.1,1.3-0.4c0.3-0.5,0.4-1,0.3-1.5c-0.2-1.5-1.3-1.1-2.4-0.8
		c0.1-1.2,0.9-2.5,2.2-2.2C64.6,41.9,65.5,43.1,65.8,44.2C66.4,46,65.2,42.3,65.8,44.2z M67.9,19.7c0-0.1,1.1-0.5,1.3-0.6
		c0.4,0.4,0.6,1,0.2,1.4C68.5,21.4,67.6,20.8,67.9,19.7C67.9,19.7,67.8,20.1,67.9,19.7z M72.1,29.5c-0.2,0.2-0.4,0.4-0.7,0.6
		c-0.1-0.8,0.1-1.6,0.2-2.4c0.1-0.4,0.2-0.7,0.6-0.4c0.4,0.3,0.9,0.6,1.4,0.9C73.2,28.6,72.6,29.1,72.1,29.5z M71,24.3
		c0.8,0.3,1,2.4-0.1,2.4c-0.6,0-0.9-0.7-0.8-1.2C70.1,25.2,70.7,24.2,71,24.3C71.5,24.5,71,24.3,71,24.3z M70.7,22.8
		c-0.1,1.4-2.1,1.9-2.1,0.2c0-0.9,0.5-1.2,1.1-1.7c0.2,0.3,0.6,0.3,0.8,0.6C70.6,22.2,70.7,22.5,70.7,22.8
		C70.7,23.4,70.7,22.3,70.7,22.8z M53.5,9.2c2.1-3,6.7-4.1,10.1-3.3c4.6,1.1,7.1,5.2,5.8,9.8c-0.4-0.4-1-0.5-1.6-0.6
		c0-0.4,0.1-0.8,0.1-1.3c0-0.5-0.7-0.8-0.8-0.2c-0.7-0.8-2-1.6-2.1-2.8c-0.1-0.5-0.9-0.4-0.8,0.1c0,0.9,0,1.8-0.3,2.6
		c-1-0.9-1.8-2.1-2.1-3.4c-0.1-0.2,0-0.6-0.2-0.8c-0.4-0.4-0.7,0.1-0.8,0.4c-0.3,0.8-0.5,1.6-0.9,2.4c-0.3-0.7-0.2-2.4-0.8-2.8
		c-0.6-0.5-1.3,1.6-1.5,2c0-0.6,0-1.2,0-1.7c0-0.9-0.6-0.7-1.1-0.3c-1.4,1-2.9,2.3-3.5,4C52.5,11.9,52.7,10.4,53.5,9.2
		C55.3,6.6,52.6,10.5,53.5,9.2z M53.5,19.6c-0.5-1.7-0.5-3.6,0-5.3c0.5-1.8,1.8-3.1,3.3-4.2c0,0.7,0,1.5,0.1,2.2
		c-0.8-0.4-1.7,0-2.1,0.7c-0.2,0.3,0,0.6,0.3,0.6c0.4,0,0.6-0.6,1-0.7c0.4,0,0.5,0.3,0.8,0.4c0.2,0.1,0.8-0.2,0.8-0.4
		c0.4-0.5,0.7-1.4,1-1.9c0.1,0.7,0.3,2.1,1.1,2.4c0.8,0.3,1.3-1.8,1.4-2.3c0.2,0.5,0.4,1,0.7,1.4c-0.4,0-1.3,0.7-0.7,1.1
		c0.2,0.1,0.5,0,0.6-0.1c0.2-0.3,0.6,0,0.8,0.1c0.3,0.3,1,1.3,1.5,1.2c0.6-0.1,0.8-1.6,0.8-2.1c0.4,0.5,1.3,1.7,1.9,1.9
		c0.6,0.2-0.3,1.2,0.4,1.4c0.5,0.2,1.1-0.1,1.6,0.3c0.9,0.7,0.2,2-0.6,2.4c-0.6,0.3-1.2,0-1.7,0.1C66,19,65.8,20,65.6,20.4
		c-1.1,2.3-3.4,3.9-6,3.9C56.6,24.2,54.3,22.4,53.5,19.6C52.9,17.2,53.8,20.8,53.5,19.6z M56.6,24.6c0.6-0.2,1.6,0.4,2.3,0.4
		c0.9,0.1,1.8,0.1,2.7-0.2c0.8-0.2,1.6-0.6,2.3-1.1c0.3,0.3,1.1,0.1,1.5,0.2c2.2,0.7,3,3.7,3.5,5.6c0.6,2.2,1.6,4.6,1.5,6.9
		c-0.1,1.6-0.9,3-1.7,4.2c-0.6,0.9-1.3,2.2-2.3,2.9c-0.5-1.2-1.3-2.3-2.6-2.7c0.7-1.4,1.8-2.6,2.4-4.1c0.7-1.7,0.2-3.4-0.2-5.1
		c-0.2-0.8-0.4-1.6-0.5-2.5c-0.1-0.9-0.9-0.9-0.8,0.1c0.2,1.9,1,3.6,1.1,5.5c0.1,1.8-1.2,3.2-2.1,4.7c-0.2,0.3-0.4,0.6-0.5,0.9
		c-0.2,0.5-0.4,0.3-0.8,0.4c-0.5,0.1-1,0.5-1.3,0.9c-0.4,0.5-0.6,1.1-0.7,1.6c0,0.1,0,0.6-0.1,0.7c-0.3,0.1-0.7,0.1-1,0.2
		c-0.6,0.1-1.2,0.3-1.8,0.6c-0.3,0.1-1.6,1.4-1.6,1.4c0.9-2,1.4-4.2,1.2-6.4c-0.1-1.3-0.4-2.5-0.7-3.7c-0.4-1.2-1-2.5-1.3-3.7
		c-0.2-1.2,0.2-2.2,0.5-3.3c0.1-0.3,0.3-1.4-0.4-1.1c-0.4,0.2-0.5,1.3-0.6,1.7c-0.3,1.1-0.5,2.2-0.2,3.3c0.2,0.6,0,0.5-0.4,1
		c-0.4,0.5-0.8,1-1.1,1.5c-0.5-1.3-1.3-2.4-2.2-3.4c-0.4-0.4,0.1-0.9,0.4-1.3c0.3-0.6,0.7-1.1,1-1.6C53.2,27.5,54.6,25.3,56.6,24.6
		C56.6,24.6,54.4,25.4,56.6,24.6z M43.6,28.9c4.6,0.6,8.7,5.2,9.1,9.8c0.1,1.2-0.3,2.3-0.2,3.5c0.1,1.2,1,2.2,0.9,3.5
		c-0.1,2.8-3.8,1.9-5.6,1.8c0.4-0.5,0.8-1,1.1-1.5c0.3-0.5,0.9-1.5,0.8-2.1c-0.1-0.7-0.5-1.4-0.6-2.2c-0.1-1,0.1-1.7-0.3-2.5
		c-0.3-0.6-0.6-1.2-1-1.8c0.3,0,1.6,0.1,1.1-0.6c-0.2-0.4-1.2-0.2-1.6-0.2c-1.1-0.1-2.1-0.2-3.2-0.5c-1.4-0.4-2.8-1.1-3.9-2.2
		c-0.7-0.7-1.2-1.5-1.5-2.4c-0.1-0.3-0.1-1.3-0.4-1.5C39.9,29,41.8,28.6,43.6,28.9C46.6,29.3,41.8,28.6,43.6,28.9z M31.6,44.9
		c-0.7-0.6,0-2.2,0.2-3c0.3-1.6,0-3.1,0.1-4.7c0.1-1.5,0.5-3.2,1.6-4.4c0.5-0.6,1.2-0.9,2-1.1c0.5-0.1,0.7-0.1,1.1-0.4
		c0.3-0.3,0.7-0.6,1.1-0.9c0,0.5,0.4,0.9-0.1,1.2c-0.3,0.2-0.6,0.3-0.9,0.5c-1,0.7-1.9,1.6-2.6,2.7c-0.7,1.2-0.9,2.5-1.1,3.9
		c-0.3,2.1-0.2,4.3,0.6,6.2C33,45.1,32.1,45.3,31.6,44.9C31.3,44.6,32,45.2,31.6,44.9z M35,45.8c-2.8-4-1.5-11.5,3.1-13.6
		c0.9,2.3,3,3.8,5.3,4.5c0.9,0.3,1.8,0.5,2.7,0.6c0.4,0,0.6,0,0.8,0.3c0.2,0.3,0.3,0.6,0.5,0.9c0.3,0.5,0.6,1,0.8,1.5
		c0.2,0.3,0,0.8,0,1.2c0,0.5,0.1,1,0.2,1.6c0.2,0.7,0.5,1.1,0.2,1.8c-0.3,0.7-0.7,1.5-1.2,2.1c-1,1.2-2.3,2-3.8,2.3
		C40.6,49.4,36.8,48.4,35,45.8C32.8,42.6,36.3,47.6,35,45.8z M46,48.9c-0.2,0.9-0.4,2.3-1.2,2.9c-1.1,0.8-2.5-1-2.7-1.9
		C43.5,49.8,44.9,49.6,46,48.9C45.6,51.1,44.9,49.5,46,48.9z M31.5,55.3c1-2.8,2.7-5,5.5-6.3c-0.5,3,3,3.8,4.6,1.6
		c0.5,1.3,2,2.7,3.5,2.1c1.2-0.5,1.5-2.3,1.8-3.4c2.7,3,4.2,6.7,2.3,10.6c-0.8,1.7-2.2,3.2-3.8,4.3c-0.7,0.5-1.6,0.9-2.4,1.3
		c-0.2,0.1-0.4,0.1-0.6,0.2c-0.5,0.1-0.5,0.3-0.7-0.2c-0.3-0.6-0.6-1.2-0.8-1.8c-0.2-0.4-0.5-0.9,0-1.2c0.5-0.2,0.9-0.5,1.3-0.9
		c0.8-0.6,1.5-1.4,2.1-2.2c1-1.4,1.3-3.2,2.2-4.7c0.2-0.3,1.2-1,0.4-1.3c-0.6-0.2-1.1,0.9-1.3,1.3c-0.5,1-0.8,2.1-1.3,3.1
		c-0.4,0.9-1.1,1.7-1.8,2.4c-0.7-2.7-4.4-2.1-6-0.6c-0.4,0.4-0.8,0.9-0.9,1.5c-0.3,0-0.6,0.1-0.8,0.2c-0.4,0.1-0.5-0.2-0.8-0.4
		c0-0.5-0.6-1.1-0.7-1.7c-0.2-0.8-0.1-1.7,0-2.5c0.3-1.4,1-2.8,2-3.8c0.3-0.3,1.3-0.7,1-1.2c-0.3-0.6-1.1,0.2-1.4,0.4
		c-2.2,1.9-3.4,5.6-2.1,8.3c-1.2-0.1-2,0.8-2.2,1.9C29.8,60.1,30.7,57.5,31.5,55.3C32.6,52.1,30.6,57.8,31.5,55.3z M39.9,63.3
		c0.2,0.6,0.5,1.2,0.7,1.7c0.1,0.2,0.2,0.4,0.3,0.6c0.2,0.4,0,0.4-0.2,0.8c-0.6,0.9-1.4,0.9-2.1,0.2c-0.6-0.6-1-1.7-0.7-2.5
		C38.2,63.2,39.2,63.3,39.9,63.3C40.1,63.9,39.9,63.3,39.9,63.3z M41.4,61.1c-0.1-1-1.1-1.3-1.9-1.1c-0.5,0.1-1,0.3-1.5,0.6
		c-0.2,0.1-0.4,0.3-0.5,0.4c-0.4,0-0.8,0-1.1,0c0.5-1.2,2.1-1.9,3.4-1.8C40.5,59.2,42.5,60.3,41.4,61.1C41.4,60.4,41.5,61,41.4,61.1
		z M40.4,60.8c0.3,0.1,0.1,0.5,0.2,0.8c-0.3,0.2-1.5-0.3-1.9-0.4C39.1,60.9,39.9,60.6,40.4,60.8C40.5,60.9,40,60.7,40.4,60.8z
		 M31.3,63.6c0.1-0.7-0.1-1.3,0.3-1.9c0.5-0.7,1.4-0.3,2,0C32.7,62.2,32,62.9,31.3,63.6C31.4,63.6,31.5,63.4,31.3,63.6z M32.4,63.7
		c2.1-2,4.6-2.1,7.3-1.4c0,0,0,0.1,0,0.1c-2.2-0.1-3.4,1.6-2.5,3.6c0.4,0.9,1.2,1.8,2.2,1.9c0.5,0,0.9-0.1,1.2-0.4
		c0.2-0.2,0.4-0.4,0.6-0.6c0.3-0.4,0.5-0.3,1-0.4c-0.4,1.4-0.6,4.5-2.5,4.6c-0.9,0-1.8-0.2-2.7-0.2c-1.4,0-2.8,0.1-4.2,0
		c-1.7-0.1-4.9-0.1-4-2.7C29.6,66.5,31.1,65,32.4,63.7z M28.4,70.6c1.1,1.1,3.3,1.1,4.8,1.1c-0.9,1.6-1,3.6-1,5.5
		c0,0.9,0,1.8,0.1,2.7c0,0.6,0,0.5-0.5,0.6c-0.4,0-0.8,0.1-1.2,0.1c-0.5,0-1,0.1-1.5,0.1c-0.5,0-1.1,0.2-1.2-0.3
		c-0.3-1.1-0.4-2.2-0.4-3.3C27.4,74.8,27.7,72.6,28.4,70.6C29.3,71.5,27.8,72.4,28.4,70.6z M44.4,85.3c-0.3,0.6-0.6,1.2-1,1.7
		c-0.6,1-1.2,1.2-2.3,1.1c-2.4-0.1-4.8-0.1-7.1,0c-2.9,0.1-5.9,0.2-8.8,0c-0.3,0-0.5,0-0.8-0.1c-0.1-0.3-0.1-0.7-0.2-1
		c-0.1-0.6,0.1-1.1,0.4-1.5c0.8-1.1,1.8-2,2.7-3c0.6,3.2,5.2,2.9,5.4-0.3c0-0.3,0-0.6,0-0.9c0-0.2,0.3-0.2,0.4-0.5
		c0-0.7-0.1-0.7,0.5-0.7c0.4,0,0.8,0,1.2,0c0.3,0,0.2-0.1,0.2,0.3c0,0.3,0.4,0.4,0.6,0.5c-1.3,1.5-1.2,4.4,1.3,4.4
		c2.1,0,2.8-2.3,3.9-3.7c0.2-0.2,0.5-0.5,0.5-0.8c0-0.1,0-0.5,0-0.6c1.3,0,2.7,0.1,4,0.2c0.1,0,0.3,0,0.4,0c0,0.3,0,0.6,0,0.9
		c0,0.4-0.1,0.8-0.1,1.2C45.5,83.6,44.9,84.4,44.4,85.3z M49.6,84.5c0,2.3-2.8,2.3-2.8,0C46.7,82.2,49.6,82.2,49.6,84.5z M47.7,72.3
		c0-3.2,0.1-6.4,1.1-9.5c0.2-0.8,0.6-1.1,1.2-1.6c1.4-1,2.9-2,4.3-2.9c0,0.4-0.1,0.8-0.1,1.1c-0.1,0.7-0.2,0.5-0.8,0.8
		c-1.2,0.5-2.2,1.4-3,2.4c-0.9,1.2-1.6,2.7-2,4.2c-0.2,0.9-0.4,1.8-0.5,2.7C47.9,70,48.1,72.1,47.7,72.3
		C47.7,71.4,47.7,72.2,47.7,72.3z M60.8,71.5c0,2.3-0.5,4.8-1.7,6.8c-0.8,1.4-2.2,2.9-3.9,2.9c-1.8,0-3.1-1.5-3.9-2.9
		c-1.2-2.1-1.7-4.5-1.7-6.8c0-2.3,0.5-4.8,1.7-6.8c0.8-1.4,2.2-2.9,3.9-2.9c1.8,0,3.1,1.5,3.9,2.9C60.3,66.7,60.8,69.1,60.8,71.5z
		 M59.5,56.7c-0.4,0.4-0.5,1.3-0.7,1.8c-0.2,0.8-0.3,1.6-0.3,2.4c-0.2-0.2-1.6-0.8-1.6-0.9c0-0.2,0-0.4,0.1-0.6c0.1-1,0.2-2,0.3-2.9
		c0.2-2.5,0.5-5.1,0.7-7.6c0.8,0.2,1.7,0.3,2.5,0.3C59.9,51.6,59.4,54.2,59.5,56.7C59.4,56.8,59.4,54.4,59.5,56.7z M61.8,62.1
		c-2.2-3.6-1.5-7.9-0.8-11.8c0-0.2,0.1-1,0.2-1.2c1.2-0.1,2.3-0.2,3.4-0.4c1-0.2,2.1-0.3,3.1-0.4c0.1,4-2.7,9.1-0.2,12.8
		c0.9,1.3,2.1,2.3,3.2,3.3c0.7,0.7,1.4,1.5,2,2.3c0.4,0.5,0.8,0.9,1.2,1.3c0.4,0.4-0.1,0.9-0.5,1.3c-0.6,0.7-1.3,1.3-2,1.8
		c-0.3,0.2-1.5,1.1-1.8,1c-0.8-0.3-1.5-1.3-2.1-2C65.5,67.6,63.5,64.8,61.8,62.1C60.7,60.3,64,65.6,61.8,62.1z M73,75.3
		c-0.5,0.5-1.4,1.3-2,0.6c-0.6-0.7-0.7-1.9-0.6-2.8c0-0.6,1.4-1.1,2-1.5c0.9-0.6,1.6-1.4,2.2-2.2C75.4,71.2,74.4,73.9,73,75.3
		C72.6,75.8,74.3,74,73,75.3z"/>
	<path d="M57.3,21.1c0.2,0.6,0.5,1.4,1,1.9c1,0.7,2-0.1,2.4-1c0.2-0.3,0.5-1,0.2-1.4c-0.3-0.3-1.2-0.2-1.6-0.2
		C58.6,20.3,56.6,19.7,57.3,21.1z M60.2,21.3c-0.2,0.5-0.6,1.4-1.3,1.1c-0.4-0.2-0.6-0.9-0.7-1.3C58.8,21.2,59.5,21.2,60.2,21.3
		C60,21.8,59.5,21.2,60.2,21.3z"/>
</g>
<path d="M55.6,15.8c0.7,0,0.7,1.1,0,1.1S54.9,15.8,55.6,15.8z"/>
<path d="M62.4,16.6c0.7,0,0.7,1.1,0,1.1S61.6,16.6,62.4,16.6z"/>
<path d="M55.3,70.4c0.8,0,0.8,2.2,0,2.2C54.6,72.7,54.6,70.4,55.3,70.4z"/>
</svg>
