<?xml version="1.0" encoding="utf-8"?>
<!-- Generator: Adobe Illustrator 17.0.1, SVG Export Plug-In . SVG Version: 6.00 Build 0)  -->
<!DOCTYPE svg PUBLIC "-//W3C//DTD SVG 1.1//EN" "http://www.w3.org/Graphics/SVG/1.1/DTD/svg11.dtd">
<svg version="1.1" id="レイヤー_1" xmlns="http://www.w3.org/2000/svg" xmlns:xlink="http://www.w3.org/1999/xlink" x="0px"
	 y="0px" width="841.89px" height="595.28px" viewBox="0 0 841.89 595.28" enable-background="new 0 0 841.89 595.28"
	 xml:space="preserve">
<rect x="350.146" y="227.34" fill="#A660A3" stroke="#A660A3" stroke-width="2" stroke-miterlimit="10" width="141.732" height="141.732"/>
<path fill="#FFFFFF" d="M455.238,280.749c-0.287-4.868-2.864-17.182-10.882-18.899l4.295-5.727l1.432-0.286
	c0,0-1.826,3.687,2.005,3.436c3.831-0.251,1.222-4.724,1.222-4.724s1.069-26.775-23.844-16.18
	c-1.432,1.432-5.154,4.582-1.718,10.309c0,0-2.291,11.168,5.154,14.318c0,0-9.736,9.736-10.022,12.313
	c0,0-6.586-10.309-21.763-0.859c0,0-7.159,1.719-7.159,6.586c0,4.868-0.573,11.454-0.573,11.454s-1.718,4.295,2.577,3.437
	l2.625-0.131l3.675,4.426c0,0-7.732,4.009-10.309,13.745c-0.573,4.009-0.859,7.446,1.718,10.595c0,0-4.868,5.441-4.582,8.591
	c0,0-3.723,8.877-1.145,17.754l-5.441,7.159l0.286,3.723l28.349-0.287l-1.146-2.577l8.591-6.873l0.287-13.745
	c0,0,6.3,12.027,10.595,13.173c4.295,1.145,10.022-2.005,10.595-8.305c0.573-6.3,0.859-17.754-4.009-21.19l2.291-5.727l2.004-14.891
	c0,0,12.313-0.287,13.458-2.864s-0.572-9.736-0.572-9.736S455.524,285.616,455.238,280.749z M399.684,348.042l-3.464,0.374
	c0,0-0.831-5.958,0.171-9.466l3.293-0.358V348.042z M408.892,348.181c-0.816-3.011,1.03-9.016,1.03-9.016l5.128-0.038l0.671,9.201
	L408.892,348.181z M430.897,298.216l-2.291-0.859l-1.432-5.727c2.004-1.718-0.286-9.45-0.286-9.45l3.15-4.295
	C436.051,288.48,430.897,298.216,430.897,298.216z"/>
<ellipse fill="#CFD0D0" cx="419.729" cy="355.917" rx="2.577" ry="3.007"/>
<path d="M449.697,266.034c0.533-0.261,0.752-0.905,0.491-1.437c-0.262-0.532-0.905-0.752-1.438-0.491
	c-3.727,1.83-13.751,2.99-16.573,0.011c-0.408-0.431-1.087-0.45-1.518-0.042c-0.431,0.408-0.449,1.088-0.041,1.518
	C434.564,269.76,445.806,267.945,449.697,266.034z"/>
<path d="M427.443,269.232c6.703,3.702,16.172,3.976,24.123,0.697c0.548-0.226,0.81-0.854,0.583-1.402
	c-0.226-0.548-0.853-0.81-1.401-0.583c-7.372,3.041-16.112,2.808-22.267-0.591c-0.519-0.287-1.172-0.099-1.459,0.42
	C426.735,268.292,426.924,268.945,427.443,269.232z"/>
<path d="M443.285,288.305c-2.575-0.719-5.922-1.094-9.948-1.113c-0.593-0.003-1.076,0.476-1.079,1.069
	c-0.003,0.593,0.476,1.076,1.068,1.079c3.835,0.019,6.991,0.367,9.381,1.035c0.571,0.159,1.164-0.174,1.323-0.746
	C444.189,289.057,443.856,288.465,443.285,288.305z"/>
<path d="M438.486,292.131l-1.375,0.028c-1.283,0.04-2.61,0.08-3.725-0.208c-0.574-0.149-1.16,0.196-1.309,0.77
	c-0.148,0.574,0.196,1.16,0.77,1.309c1.411,0.366,2.895,0.32,4.328,0.276l1.31-0.027c0.593-0.012,1.085-0.503,1.074-1.096
	C439.547,292.59,439.079,292.119,438.486,292.131z"/>
<path d="M454.164,278.816l-3.582-0.115l-2.402-0.099c-0.097-0.004-0.188,0.009-0.278,0.029c-0.179-0.445-0.639-0.731-1.137-0.664
	c-1.761,0.238-3.653,0.224-5.484,0.211l-1.292-0.006c-1.148,0-2.342-0.16-3.605-0.33c-1.589-0.213-3.233-0.434-4.807-0.311
	c-0.591,0.046-1.033,0.563-0.987,1.154c0.046,0.591,0.563,1.033,1.154,0.987c1.347-0.105,2.808,0.091,4.354,0.298
	c1.278,0.172,2.6,0.349,3.891,0.349l1.276,0.006c1.905,0.014,3.876,0.028,5.788-0.231c0.036-0.005,0.069-0.016,0.104-0.024
	c0.156,0.382,0.527,0.66,0.965,0.678l2.357,0.097l3.686,0.118c0.593,0.019,1.054-0.447,1.073-1.04
	C455.256,279.331,454.757,278.835,454.164,278.816z"/>
<path d="M454.276,284.976c-1.707-0.999-3.634-1.504-5.497-1.993l-0.991-0.263c-0.573-0.152-1.167,0.187-1.32,0.76
	c-0.152,0.574,0.182,1.16,0.755,1.312l1.011,0.269c1.723,0.453,3.504,0.92,4.958,1.77c0.512,0.3,1.17,0.127,1.469-0.385
	C454.96,285.933,454.788,285.276,454.276,284.976z"/>
<path d="M450.829,292.414c0.512,0.3,1.169,0.127,1.469-0.384c0.299-0.512,0.127-1.169-0.385-1.469
	c-0.811-0.475-1.528-1.117-2.287-1.795c-1.166-1.042-2.372-2.122-4.096-2.789c-0.131-0.051-0.265-0.072-0.397-0.071
	c0.086-0.001,0.172,0.001,0.258-0.002c0.593-0.019,1.059-0.514,1.04-1.107c-0.019-0.593-0.514-1.058-1.106-1.04
	c-2.135,0.066-4.201-0.269-6.388-0.624c-2.015-0.327-4.097-0.665-6.25-0.665c-0.594,0-1.074,0.481-1.074,1.074
	c0,0.593,0.48,1.074,1.074,1.074c1.98,0,3.887,0.31,5.906,0.637c2.099,0.34,4.267,0.689,6.503,0.653
	c-0.413,0.019-0.795,0.274-0.954,0.684c-0.215,0.553,0.061,1.175,0.613,1.389c1.359,0.527,2.37,1.431,3.439,2.388
	C448.999,291.085,449.831,291.829,450.829,292.414z"/>
<path d="M452.456,293.075c-0.632,0.268-1.602,0.217-2.541,0.168l-1.12-0.039c-0.593-0.021-1.052,0.443-1.073,1.036
	c-0.021,0.592,0.48,1.09,1.073,1.112l1.009,0.036c1.126,0.058,2.403,0.125,3.49-0.336c0.546-0.231,0.801-0.862,0.57-1.408
	C453.633,293.099,453.002,292.844,452.456,293.075z"/>
<path d="M430.959,275.524c2.142,0.698,4.971,0.612,7.322,0.539l1.716-0.039l4.146-0.001l2.075,0.001
	c0.275,0,0.523-0.106,0.714-0.277c0.154,0.42,0.558,0.717,1.03,0.706c2.014-0.048,4.962-2.033,5.087-2.117
	c0.491-0.333,0.619-1.001,0.286-1.492c-0.332-0.491-1-0.619-1.491-0.286c-1.215,0.824-3.064,1.727-3.933,1.748
	c-0.266,0.006-0.503,0.113-0.687,0.277c-0.15-0.411-0.542-0.706-1.005-0.707l-2.074-0.001l-4.15,0.001l-1.779,0.04
	c-2.405,0.076-5.7,0.179-7.361-0.76c-0.462-0.261-1.034-0.14-1.358,0.259c-0.619-0.535-1.28-0.989-1.929-1.432l-1.5-1.086
	c-0.48-0.348-1.201-0.279-1.549,0.201c-0.348,0.48-0.291,1.112,0.188,1.461l1.649,1.198c1.022,0.698,1.989,1.357,2.686,2.273
	c0.359,0.472,1.033,0.563,1.505,0.203C430.781,276.054,430.922,275.796,430.959,275.524z"/>
<path d="M428.664,278.636c-0.973-0.256-2.609-1.352-3.302-2.212c-0.372-0.462-1.048-0.535-1.51-0.163
	c-0.462,0.372-0.535,1.048-0.163,1.51c0.985,1.223,3.014,2.57,4.43,2.942c0.574,0.15,1.161-0.193,1.311-0.766
	C429.581,279.374,429.238,278.787,428.664,278.636z"/>
<path fill="#DCDDDD" d="M431.828,298.36c1.422-1.714,9.069-6.739,11.178-3.881c2.679,3.63-7.612,2.748-8.413,5.153
	c-0.819-0.229-1.658-0.602-2.335-1.057L431.828,298.36z"/>
<path d="M462.056,339.931c0.584-1.658,1.73-5.849,0.329-7.342c-1.847-1.969-5.992,0.966-7.032,2.825
	c-0.985,1.76-1.884,6.345-0.624,8.015C457.418,346.993,461.175,342.43,462.056,339.931z"/>
<path d="M396.391,338.95c2.998,0,4.702,0.379,5.127-2.962c-2.516-1.055-5.243-0.737-4.912,2.533L396.391,338.95z"/>
<path d="M409.922,339.165c1.705,0,3.435,0.057,5.128-0.038c0.601-1.562,0.731-3.343,0.634-5.08
	c-2.727-1.018-4.377,2.719-5.332,4.688L409.922,339.165z"/>
<path d="M433.529,299.047c0.095,3.549,0.016,7.129,0.016,10.686c0,2.326-0.033,4.621-0.262,6.919c-0.264,2.65-0.389,3.22-3.15,2.719
	c0.622-2.144,0.264-5.338,0.164-7.667c-2.672,0.097-5.032,2.234-7.237,3.553c-1.224-3.219-2.107-6.575-3.866-9.564
	c-1.123-1.907-3.548-4.137-1.629-6.271C419.283,297.509,433.47,296.847,433.529,299.047z"/>
<path d="M418.942,331.648c0.088-2.27-0.062-4.386,0.644-6.421c1.417-4.085,5.278-7.741,9.406-9.026
	c1.593,4.751-2.427,5.466-4.64,9.009c-2.171,3.476-2.609,6.949-3.653,10.769c-0.269,0.98-0.377,2.98-1.82,1.727
	C417.89,336.848,418.897,332.8,418.942,331.648z"/>
<path fill="#FFFFFF" d="M453.105,264.04c0.318,0.531-0.028,1.148,0.248,1.675c0.631,1.204,1.178,2.126,2.711,2.4
	c0.1,1.881-0.255,4.282,0.714,5.944c1.14-0.095,5.164-1.586,5.293-3.189c0.146-1.799-3.137-1.485-3.795-2.835
	c-0.315-0.646,0.333-1.935,0.182-2.744c-0.168-0.902-0.949-1.437-1.088-2.137c-0.34-1.71,0.888-3.442-1.451-4.132
	c-1.296-0.383-1.701-8.18-4.104-3.654c-0.672,1.266-0.659,3.205-0.683,4.598c-0.013,0.727-0.175,1.945,0.16,2.605
	C451.772,263.516,452.68,263.331,453.105,264.04z"/>
<path fill="#9D9D9E" d="M445.38,235.233c9.413,2.13,11.183,9.863,7.796,17.708c-3.564-3.109-8.41-4.369-12.983-5.045
	c-2.945-0.435-9.178,0.281-11.324-2.32c-2.732-3.312,1.695-7.849,4.579-9.172C437.022,234.764,441.552,234.367,445.38,235.233z"/>
<path fill="#D7D7D8" d="M395.604,290.763c0.394-1.147,0.372-2.169,0.293-3.422c-0.378-5.962-1.429-9.636,4.145-13.394
	c4.304-2.902,10.106-5.327,15.176-2.719c4.046,2.08,6.724,5.207,9.17,8.891c2.231,3.36,2.632,5.83,3.072,9.793
	c0.353,3.171,2.835,7.557-0.286,9.744c-3.117,2.185-7.216,0.309-10.295-0.628c-5.231-1.593-10.371-3.773-15.887-3.341
	c-1.766,0.138-3.944,0.896-5.611-0.225C392.721,293.673,394.879,292.875,395.604,290.763z"/>
<path fill="#FFFFFF" d="M403.908,275.38c-0.341,1.091-3.072,2.312-4.194,3.42c-1.358,1.341-2.9,3.584-3.49,5.381
	c-1.174,3.581,0.434,8.566,2.363,11.613c3.81,6.021,14.283,8.781,19.763,3.478c2.16-2.09,2.733-4.362,2.31-7.308
	c-0.307-2.129,0.078-6.101-1.552-7.783c-1.497-1.546-6.318-1.294-8.542-2.096c-3.269-1.178-3.996-3.203-6.013-5.632L403.908,275.38z
	"/>
<path d="M407.774,322.628c-3.716,0.121-5.262,5.37-1.728,7.086c1.706,0.829,3.737-0.206,3.505-2.039
	c-0.195-1.542-1.913-2.228-1.776-3.974V322.628z"/>
<path d="M398.324,321.125c-0.391-1.415-2.731-1.533-3.877-0.811c-1.406,0.886-1.694,2.907-1.46,4.445
	c1.719-0.917,3.102-2.368,4.907-3.205L398.324,321.125z"/>
<path d="M447.983,294.493c0.373,2.058,0.347,4.299-1.766,5.386c-1.156,0.594-3.881,0.693-4.598-0.701
	c-0.759-1.477,0.648-1.333,1.048-2.618c0.324-1.041-0.058-1.313-0.288-2.251c-0.401-1.645-1.566-3.29,0.943-4.05
	C446.004,289.448,447.597,292.361,447.983,294.493z"/>
<path fill="#FFFFFF" d="M433.331,241.661c-3.854,1.407-6.016,8.638-5.799,12.242c0.337,5.6,3.998,10.042,10.094,10.738
	c2.14,0.244,5.975-1.075,7.517-2.577c1.506-1.467,1.74-4.072,3.211-4.95c0.76-0.454,2.116,0.133,3.039-0.372
	c0.668-0.366,1.662-1.51,1.916-2.194c1.009-2.711-1.821-2.053-2.974-3.637c-0.605-0.831-0.28-1.898-0.972-2.635
	c-0.855-0.91-2.743-1.379-3.731-2.302c-0.409,0.79-0.757,1.625-1.343,2.274c-1.328-1.476-2.956-2.678-4.128-4.364
	c-0.821,0.744-1.265,1.596-1.945,2.435c-0.71-0.884-1.375-1.813-1.707-2.881c-0.711,0.86-1.345,1.964-2.057,2.71
	c-0.48-1.014-0.652-2.132-0.906-3.199L433.331,241.661z"/>
<path fill="#D3D3D4" d="M435.05,258.413c1.356,0.031,2.732,0.22,4.058,0.461c-0.753,3.529-2.807,2.652-4.058,0.183V258.413z"/>
<path fill="#FFFFFF" d="M434.319,312.905c-0.369,4.284-2.791,8.07,2.534,9.624c0.343-1.8,1.255-3.573,1.855-5.333
	c2.158,6.728,6.459,13.001,11.425,17.945c2.547,2.536,3.542,3.293,6.816,1.519c1.394-0.756,6.604-4.257,6.827-5.862
	c0.284-2.055-4.851-5.005-6.262-6.37c-1.943-1.88-4.558-4.203-5.769-6.718c-2.546-5.291,0.158-12.178-0.267-17.731
	c-4.024-0.21-13.708-0.043-16.858,1.389C431.936,302.586,434.635,309.231,434.319,312.905z"/>
<path fill="#6F6E6F" d="M393.386,313.107c-0.25,1.801-0.455,6.067,0.581,7.163c1.734,1.833,4.531-0.047,6.535-0.047
	c0.335-1.915,3.975-3.099,5.77-3.107c2.139-0.011,5.812,3.04,2.578,4.324c-0.779-1.385-3.599-2.563-4.259-0.65
	c4.91,0.543,1.04,8.655,8.045,5.838c3.209-1.291,7.715-3.518,9.177-6.92c1.803-4.197,1.578-11.471-0.572-15.493
	c-1.037-1.941-2.112-3.537-3.924-3.787c-2.505-0.344-5.305,1.008-7.818,1.264c-2.11,0.215-4.279-0.013-6.325,0.641
	C398.55,303.812,394.063,308.231,393.386,313.107z"/>
<path fill="#FFFFFF" d="M389.948,335.156c-0.286,3.476-1.339,6.652-1.146,10.31c0.118,2.233,0.133,3.958,1.855,4.874
	c1.455,0.773,4.471,0.317,6.119,0.237c-0.596-3.517-0.29-7.02,0.616-10.567c0.589-2.307,1.385-2.625-0.573-3.707
	c-1.676-0.926-4.467,0.086-6.3-0.574L389.948,335.156z"/>
<path fill="#FFFFFF" d="M401.11,345.465c0.084,0.847,0.571,4.094,1.204,4.601c1.131,0.906,4.999,0.312,6.491,0.224
	c0.235-4.531,0.214-9.193,3.41-12.628c1.482-1.593,2.636-1.63,3.498-3.645c0.957-2.236,0.912-4.721,0.845-7.123
	c-4.628-0.399-5.432,0.672-6.214,4.537c-0.853,4.221-3.185,3.409-6.203,5.118C401.072,338.288,400.785,342.192,401.11,345.465z"/>
<path d="M394.758,354.572c2.456-2.715-0.574-5.794-3.581-4.063C387.464,352.648,392.017,357.601,394.758,354.572z"/>
<path d="M408.817,350.942c-2.092-0.303-6.223-0.438-7.46,1.598c-0.872,1.436-0.745,2.395,0.639,3.26
	C406.1,358.366,408.831,350.944,408.817,350.942z"/>
<path fill="#929292" d="M400.472,318.966c-1.435,2.041-2.933,2.311-4.886,3.919c-2.164,1.782-3.737,4.21-4.517,6.848
	c-0.67,2.266-1.299,3.982,1.408,4.874c1.744,0.575,4.234,0.342,6.05,0.431c3.935,0.192,8.864,2.089,11.233-1.676
	c1.073-1.706,1.853-3.34,2.078-5.383c-3.696-1.18-5.271,4.748-8.305-0.238c-2.732-4.488,1.671-3.481,4.005-5.273
	c-1.087-0.646-2.206-1.275-3.395-1.593c0.317,0.085,1.864-1.68,2.856-1.471c1.088,0.229,1.517,1.015,1.662,2.046
	c2.321-1.121,1.728-4.21-0.478-5.042C405.748,315.489,401.932,316.89,400.472,318.966z"/>
<path fill="#C3C4C4" d="M388.445,353.34c-1.657,2.221-7.752,8.613-1.99,9.45c6.173,0.897,12.947,0.65,19.176,0.645
	c1.847-0.002,4.737,0.436,6.438-0.216c1.514-0.581,2.252-2.257,3.169-3.692c1.065-1.667,1.259-2.817,1.509-4.855
	c0.214-1.742,1.124-4.118,0.884-5.804c-1.764-0.437-7.118-1.817-8.739-0.686c-0.627,0.438-0.883,2.149-1.322,2.844
	c-0.751,1.189-1.854,2.114-2.699,3.184c-0.977,1.238-3.312,4.561-5.064,1.928c-1.101-1.654,0.833-4.626,1.78-5.81
	c-0.676-0.3-1.269-0.829-1.578-1.461c-1.298-0.25-2.427-0.535-3.79-0.45c-0.905,1.999-3.975,11.857-7.346,6.212L388.445,353.34z"/>
<path d="M405.54,290.217c-0.168,0.387-0.208,0.783-0.019,1.023c0.49,0.625,1.471,1.396,2.325,1.591
	c0.347,0.08,0.692-0.138,0.772-0.484c0.011-0.049,0.016-0.097,0.016-0.145c0-0.294-0.202-0.56-0.501-0.627
	c-0.335-0.077-0.817-0.376-1.205-0.723c0.127-0.192,0.206-0.384,0.268-0.537l0.116-0.246c0.051-0.107,0.077-0.233,0.077-0.359
	c0-0.21-0.075-0.418-0.238-0.531C406.604,288.802,405.851,289.497,405.54,290.217z"/>
<path d="M411.914,295.554c0.942,0.77,1.993,1.419,2.99,1.827c0.329,0.134,0.706-0.023,0.84-0.353
	c0.135-0.33-0.023-0.706-0.352-0.841c-1.399-0.572-2.99-1.739-4.051-2.974c-0.232-0.27-0.639-0.3-0.909-0.068
	c-0.27,0.232-0.3,0.639-0.068,0.909c0.177,0.205,0.367,0.406,0.565,0.605c-0.043,0.052-0.08,0.11-0.106,0.176
	c-0.43,1.124-1.834,1.448-2.905,1.384c-1.249-0.075-2.728-0.696-3.027-1.884c-0.004-0.015-0.01-0.027-0.015-0.042
	c0.163-0.177,0.323-0.359,0.472-0.552c0.218-0.281,0.167-0.686-0.115-0.904c-0.281-0.218-0.686-0.167-0.904,0.114
	c-0.458,0.591-1.046,1.12-1.615,1.631c-0.522,0.469-1.062,0.955-1.519,1.5c-0.229,0.273-0.193,0.679,0.08,0.908
	c0.272,0.229,0.679,0.193,0.907-0.08c0.399-0.476,0.882-0.91,1.393-1.37c0.098-0.088,0.198-0.179,0.297-0.269
	c0.705,1.415,2.422,2.141,3.968,2.233C409.706,297.617,411.268,296.858,411.914,295.554z"/>
<path d="M410.848,289.125c0.356,0.002,0.646-0.284,0.649-0.64c0.007-0.97,0.706-1.11,1.007-1.126
	c0.642-0.033,1.34,0.366,1.432,1.192c0.039,0.353,0.357,0.609,0.711,0.57c0.354-0.04,0.609-0.358,0.569-0.711
	c-0.178-1.603-1.564-2.401-2.779-2.338c-1.101,0.057-2.217,0.823-2.228,2.404C410.206,288.832,410.492,289.122,410.848,289.125z"/>
<path d="M402.401,286.5c0.3,0.015,1,0.156,1.007,1.125c0.002,0.356,0.293,0.643,0.649,0.64c0.356-0.002,0.642-0.293,0.64-0.648
	c-0.011-1.582-1.127-2.347-2.229-2.404c-1.215-0.063-2.601,0.735-2.779,2.338c-0.039,0.353,0.216,0.672,0.569,0.711
	c0.354,0.039,0.672-0.216,0.711-0.569C401.061,286.865,401.759,286.466,402.401,286.5z"/>
<path d="M400.922,282.13c1.122-0.813,3.123-0.323,4.495,0.344c0.32,0.155,0.705,0.022,0.861-0.298
	c0.156-0.32,0.022-0.705-0.298-0.861c-0.86-0.418-3.823-1.67-5.814-0.228c-0.288,0.208-0.353,0.612-0.144,0.9
	C400.23,282.274,400.634,282.339,400.922,282.13z"/>
<path fill="#FFFFFF" d="M391.525,332.348c3.396,0.766,7.23,0.597,10.938,0.433c1.531-0.067,2.978-0.131,4.381-0.131
	c0.356,0,0.644-0.289,0.644-0.645s-0.288-0.644-0.644-0.644c-1.431,0-2.892,0.064-4.438,0.132
	c-3.623,0.159-7.369,0.325-10.598-0.403c-0.347-0.078-0.692,0.14-0.77,0.487C390.96,331.925,391.178,332.27,391.525,332.348z"/>
<path fill="#FFFFFF" d="M415.214,350.939c-0.298-0.195-0.697-0.111-0.892,0.187c0,0-4.318,6.604-4.675,7.15
	c-0.687-0.008-25.132-0.283-25.132-0.283c-0.356-0.004-0.648,0.281-0.652,0.637c-0.004,0.355,0.281,0.647,0.637,0.651l25.485,0.287
	c0.22,0.002,0.426-0.107,0.547-0.292l4.868-7.445C415.595,351.533,415.512,351.134,415.214,350.939z"/>
<path d="M430.918,330.932c0.355-0.011,0.635-0.308,0.624-0.664c-0.03-0.946,0.054-1.852,0.142-2.811l0.145-2.016
	c0.026-0.355-0.243-0.638-0.598-0.664c-0.355-0.026-0.665,0.267-0.69,0.622l-0.14,1.94c-0.088,0.956-0.179,1.943-0.147,2.969
	C430.264,330.664,430.562,330.943,430.918,330.932z"/>
<path d="M431.54,341.79c0.026-0.355-0.24-0.664-0.595-0.69c-0.355-0.026-0.664,0.24-0.69,0.596
	c-0.073,0.993,0.034,1.946,0.137,2.868c0.089,0.795,0.173,1.547,0.148,2.312c-0.012,0.356,0.268,0.653,0.623,0.665
	c0.355,0.012,0.653-0.268,0.665-0.623c0.028-0.858-0.065-1.691-0.155-2.497C431.571,343.517,431.476,342.664,431.54,341.79z"/>
<path d="M435.003,330.14c-0.33,0.362-0.724,0.674-1.141,1.004c-0.386,0.306-0.784,0.622-1.137,0.987
	c-0.248,0.256-0.241,0.664,0.015,0.911c0.256,0.248,0.664,0.241,0.911-0.015c0.294-0.304,0.643-0.58,1.012-0.873
	c0.439-0.348,0.892-0.707,1.292-1.145c0.24-0.263,0.221-0.67-0.042-0.91C435.65,329.859,435.243,329.877,435.003,330.14z"/>
<path d="M433.116,337.16c0,0.356,0.289,0.645,0.644,0.645h2.577c0.356,0,0.645-0.289,0.645-0.645c0-0.355-0.288-0.644-0.645-0.644
	h-2.577C433.405,336.516,433.116,336.805,433.116,337.16z"/>
<path d="M433.681,340.182c-0.229-0.272-0.636-0.307-0.908-0.078c-0.272,0.229-0.308,0.636-0.078,0.908
	c0.513,0.609,1.001,1.39,1.337,2.14c0.145,0.325,0.526,0.47,0.852,0.325c0.325-0.146,0.47-0.527,0.324-0.852
	C434.824,341.769,434.268,340.879,433.681,340.182z"/>
<path d="M427.939,340.077c-1.183,0.869-1.985,1.583-2.683,2.389c-0.232,0.269-0.203,0.676,0.065,0.908
	c0.269,0.233,0.676,0.204,0.909-0.065c0.631-0.729,1.37-1.385,2.471-2.193c0.287-0.21,0.349-0.614,0.138-0.9
	C428.629,339.928,428.225,339.867,427.939,340.077z"/>
<path d="M427.31,337.501c0.346,0.083,0.694-0.13,0.777-0.476c0.083-0.346-0.13-0.694-0.476-0.777
	c-0.523-0.126-1.078-0.192-1.614-0.256c-0.609-0.073-1.238-0.148-1.793-0.31c-0.341-0.1-0.699,0.096-0.799,0.438
	c-0.1,0.342,0.097,0.699,0.438,0.799c0.656,0.191,1.34,0.273,2.001,0.352C426.368,337.334,426.861,337.393,427.31,337.501z"/>
<path d="M427.476,332.902c0.178,0.309,0.573,0.413,0.88,0.235c0.308-0.178,0.413-0.572,0.235-0.88
	c-0.439-0.757-1.147-1.702-1.805-2.408c-0.243-0.261-0.65-0.275-0.911-0.032c-0.26,0.242-0.274,0.65-0.031,0.911
	C426.433,331.359,427.089,332.233,427.476,332.902z"/>
<path d="M462.065,331.495c0.168-0.257,0.145-0.6-0.086-0.817c-1.064-0.999-1.969-2.068-2.926-3.2
	c-0.889-1.051-1.809-2.137-2.859-3.151l-1.236-1.143c-1.648-1.495-3.7-3.356-4.339-5.076c-1.057-2.845-0.325-6.745,0.382-10.518
	c0.478-2.551,0.931-4.961,0.873-7.101c-0.001-0.038-0.007-0.074-0.015-0.11c1.196-0.272,2.276-0.78,2.815-1.852
	c0.791-1.573,0.139-4.852-0.597-8.075l-0.213-0.958c-0.037-0.167-0.138-0.304-0.269-0.396c0.728-1.178,1.217-2.075,1.23-2.1
	c2.074-4.089,1.136-7.154-0.052-11.035l-0.535-1.927c-1.209-4.543-3.184-11.958-8.349-12.045c1.394-1.314,2.3-2.943,3.219-5.14
	c0.095,0.01,0.188,0.01,0.282,0.016c-0.389,2.1,0.691,2.804,1.195,3.012c0.134,0.055,0.274,0.094,0.418,0.123
	c-0.592,1.157-0.644,2.602-0.049,3.645c0.455,0.798,1.201,1.235,2.11,1.266c-0.169,0.551-0.173,1.185,0.013,1.821
	c0.35,1.199,1.249,1.987,2.31,2.053c-0.043,0.332-0.101,0.673-0.162,1.026c-0.251,1.46-0.512,2.97,0.224,4.35
	c0.092,0.173,0.26,0.292,0.452,0.328c0.192,0.036,0.393-0.019,0.541-0.146l1.76-1.507c1.09-0.924,2.218-1.88,3.175-2.789
	c0.164-0.156,0.234-0.385,0.185-0.606c-0.048-0.22-0.208-0.399-0.422-0.472c-1.242-0.421-2.556-1.439-3.388-2.099
	c0.023-0.094,0.051-0.185,0.068-0.284c0.243-1.436-0.311-3.253-1.616-3.839c0.116-0.325,0.192-0.672,0.214-1.038
	c0.093-1.514-0.712-2.801-2.052-3.305c0.641-1.126,0.331-2.408-0.832-3.48c0.362-0.593,0.559-1.247,0.559-1.887
	c0-0.344-0.06-0.679-0.167-0.999c0.094-0.077,0.168-0.181,0.208-0.305c1.315-4.183,0.988-8.027-0.946-11.115
	c-2.063-3.294-5.971-5.658-10.456-6.324c-4.931-0.732-12.315,1.421-15.45,5.793c-1.889,2.635-2.025,5.707-0.394,8.884
	c0.004,0.008,0.009,0.014,0.014,0.022c-0.543,2.541-0.506,5.443,0.193,7.984c0.841,3.061,2.495,5.314,4.783,6.517
	c0.013,0.007,0.026,0.013,0.039,0.02c-3.961,2.028-7.965,8.559-9.336,10.954c-2.802-2.696-6.087-4.413-9.492-4.874
	c-4.392-0.595-8.645,0.865-12.315,4.209c-2.057,0.207-3.756,1.066-5.033,2.591c-1.584,1.892-2.46,4.806-2.46,8.034
	c0,0.623,0.032,1.257,0.099,1.898c0.073,0.708,0.107,1.292,0.107,1.81c0,1.282-0.206,2.166-0.524,3.535l-0.285,1.254
	c-0.103,0.471-0.147,0.886-0.147,1.251c0,1.133,0.426,1.79,0.842,2.161c0.92,0.819,2.463,0.892,4.463,0.215
	c0.178,0.309,0.37,0.615,0.583,0.915c0.861,1.213,1.941,2.228,3.23,3.043c-4.437,2.164-7.116,5.281-8.88,10.308
	c-1.323,3.771-3.52,10.042-0.017,14.274c-2.312,2.37-4.938,5.603-4.304,8.213c-2.232,5.066-2.678,12.218-1.076,17.454
	c0.034,0.112,0.101,0.206,0.183,0.281c-0.515,0.734-1.573,1.85-2.605,2.937c-1.267,1.334-2.463,2.594-2.996,3.466
	c-0.822,1.344-0.402,3.182-0.064,4.658l0.015,0.067c0.061,0.265,0.282,0.464,0.552,0.496c5.054,0.601,10.089,0.398,14.958,0.203
	c3.4-0.137,6.917-0.278,10.435-0.148l1.147,0.058c1.837,0.109,2.597,0.155,4.042-1.429c0.548-0.602,0.986-1.413,1.408-2.198
	l0.743-1.29c0.55-0.821,0.981-1.509,1.326-2.132c-0.003,0.064-0.008,0.126-0.008,0.191c0,2.25,1.574,4.081,3.507,4.081
	c1.935,0,3.508-1.831,3.508-4.081s-1.573-4.081-3.508-4.081c-0.176,0-0.347,0.02-0.516,0.05c-0.042-2.025-0.163-7.947-0.228-12.947
	c0.146-0.026,0.275-0.104,0.372-0.215c0.825,8.61,5.535,15.018,11.397,15.018c6.463,0,11.526-7.787,11.526-17.727
	c0-6.371-2.082-11.854-5.277-14.972c0.045-1.581,0.19-3.183,0.596-4.712c0.349,2.064,1.05,4.078,2.277,6.007
	c0.098,0.153,9.767,15.055,13.23,15.885c-0.201,2.461,0.428,5.184,2.112,6.015c0.847,0.417,2.266,0.501,4.214-1.47
	C462.13,340.329,464.108,334.887,462.065,331.495z M452.821,290.738c0.438,1.921,1.35,5.919,0.702,7.21
	c-0.582,1.158-2.527,1.329-4.243,1.479l-1.382,0.148l-0.246,0.038c1.119-1.009,1.854-2.66,1.324-4.948
	c1.154-0.591,2.605-2.485,3.775-4.246L452.821,290.738z M435.349,300.169c-0.044-0.011-0.088-0.017-0.131-0.019
	c0.007-0.1,0.014-0.188,0.02-0.272c0.925-1.492,2.652-1.59,4.48-1.689c0.106-0.006,0.213-0.012,0.32-0.018
	c0.006,0.016,0.01,0.033,0.018,0.048c0.523,1.045,1.301,1.747,2.176,2.164C439.795,300.641,437.431,300.691,435.349,300.169z
	 M431.04,318.288c-0.113,0-0.224,0.008-0.336,0.013l1.408-17.743c0.028-0.355-0.236-0.665-0.591-0.693
	c-0.355-0.028-0.665,0.236-0.693,0.591l-0.84,10.579c-0.095,0.008-0.19,0.034-0.277,0.085l-5.729,3.386
	c0.843-5.556-1.5-9.502-5.495-13.862c-0.051-0.056-0.113-0.096-0.178-0.129c0.084,0.04,0.177,0.063,0.275,0.063
	c0.662,0,1.458,0.076,2.3,0.157c2.613,0.249,5.573,0.532,7.296-1.071c0.371-0.344,0.657-0.764,0.868-1.248
	c0.104,0.089,0.235,0.148,0.382,0.157c2.09,0.116,4.163,0.525,4.542,0.888c-0.048,1.361-1.228,13.945-1.701,18.924
	C431.866,318.322,431.457,318.288,431.04,318.288z M429.693,314.28c-1.353,0.857-4.755,3.03-7.072,4.661
	c0.4-0.804,0.72-1.625,0.943-2.454c0.041-0.152,0.077-0.301,0.113-0.45c0.131,0.013,0.267-0.013,0.389-0.085l5.804-3.43
	l-0.138,1.738C429.719,314.268,429.706,314.272,429.693,314.28z M417.94,333.724c0,4.939,0.215,15.524,0.272,18.255
	c-0.182,0-0.363,0-0.505,0c0.067-0.777,0.069-1.654,0.046-2.762c-0.007-0.336-0.273-0.611-0.609-0.63l-0.257-0.014
	c0.051-0.123,0.066-0.262,0.031-0.401c-0.656-2.625-0.097-16.024,0.297-22.866c0.765-0.579,1.491-1.214,2.163-1.895
	C418.674,325.98,417.94,329.946,417.94,333.724z M394.75,351.277c0.212,1.603-0.242,2.851-1.278,3.513
	c-0.958,0.614-2.264,0.608-3.249-0.015c-1.074-0.679-1.555-1.922-1.355-3.502c0.001-0.012,0-0.024,0.001-0.036
	c1.68,0.033,3.365-0.069,5.003-0.177l0.901-0.055C394.748,351.091,394.738,351.182,394.75,351.277z M400.518,336.408
	c0.108-0.002,0.213-0.004,0.319-0.006c-0.239,0.571-0.433,1.183-0.596,1.819c-0.8-0.149-1.811-0.325-2.833-0.307
	c0.219-0.534,0.492-1.028,0.824-1.472C399.008,336.436,399.778,336.422,400.518,336.408z M411.881,328.117
	c1.371-0.432,2.72-1.074,3.992-1.878c-0.079,1.46-0.215,4.136-0.331,7.156c-0.022,0.007-0.045,0.011-0.067,0.021
	c-6.731,2.777-6.983,9.07-7.227,15.155c0,0-0.038,0.858-0.063,1.429c-2.04,0.228-5.286-0.033-7.26-0.758
	c-0.009-0.194-0.018-0.399-0.027-0.601c0-0.009,0.003-0.017,0.003-0.025c0-0.022-0.004-0.044-0.007-0.065
	c-0.044-1.028-0.083-2.137-0.083-3.298c0-3.133,0.278-6.498,1.453-8.871c0.783-0.005,1.453,0.004,1.945,0.053l0.932,0.101
	c2.019,0.231,3.352,0.384,4.802-1.559c1.127-1.51,1.927-4.969,2.118-6.315C412.092,328.453,412.018,328.256,411.881,328.117z
	 M415.388,338.234h-3.861c0.856-1.396,2.108-2.559,3.962-3.418C415.45,335.942,415.415,337.095,415.388,338.234z M396.548,346.915
	c-0.073-2.57-0.147-5.365,0.434-7.689c0.94-0.09,1.914,0.057,2.985,0.255c-0.505,2.771-0.486,5.873-0.387,8.49h-3.005
	C396.568,347.624,396.558,347.274,396.548,346.915z M401.982,350.896c1.69,0.372,3.697,0.527,5.336,0.466
	c-0.325,0.438-0.632,0.92-0.947,1.422c-1.096,1.748-2.131,3.4-4.045,3.207c-0.864-0.087-1.42-0.489-1.654-1.194
	c-0.37-1.118,0.152-2.778,1.163-3.702C401.9,351.037,401.948,350.969,401.982,350.896z M410.871,339.523h4.49
	c-0.073,4.006-0.027,7.626,0.307,8.962c0.002,0.008,0.006,0.015,0.008,0.021c-2.081-0.117-4.065-0.221-6.126-0.242
	C409.682,345.001,409.837,341.987,410.871,339.523z M403.759,301.736c0.007-0.05,0.006-0.099,0.001-0.148
	c1.524,0.622,3.262,1.035,5.209,1.237c-0.827,1.401-2.481,2.083-3.713,1.813C404.08,304.38,403.548,303.349,403.759,301.736z
	 M418.221,300.467c0.013,0.008,0.027,0.015,0.04,0.022c-0.016-0.007-0.034-0.007-0.051-0.012
	C418.215,300.474,418.217,300.47,418.221,300.467z M427.926,283.103c0.018-0.051,0.031-0.103,0.035-0.159
	c0.075-1.016,1.256-2.694,2.224-3.72c0.114,0.298,0.228,0.594,0.342,0.884c0.481,1.233,0.937,2.398,1.256,3.727
	c1.309,5.45,0.99,9.115-1.177,13.525c-0.001,0.002-0.001,0.005-0.003,0.008c-0.35-0.031-0.713-0.06-1.102-0.081
	c-0.043-0.002-0.086,0-0.127,0.006c0.068-0.405,0.102-0.84,0.092-1.31c-0.023-1.005-0.392-1.85-0.748-2.667
	c-0.263-0.601-0.511-1.169-0.64-1.812c-0.143-0.712-0.016-1.492,0.119-2.317c0.095-0.582,0.193-1.185,0.195-1.785
	C428.397,285.872,428.236,284.431,427.926,283.103z M433.345,297.819c1.851-1.847,3.559-2.139,5.695-2.499
	c0.999-0.168,2.129-0.364,3.356-0.742v0c0.362,0.513,0.4,1.19,0.121,1.86c-0.045,0.009-0.09,0.021-0.134,0.04
	c-0.729,0.313-1.704,0.366-2.736,0.422c-1.707,0.093-3.603,0.202-4.913,1.538C434.416,298.196,433.952,297.99,433.345,297.819z
	 M447.546,294.332c0.913,2.739-0.309,4.355-1.755,4.955c-1.396,0.579-3.313,0.307-4.347-1.246c0.475-0.069,0.931-0.174,1.352-0.342
	c0.265,0.054,0.546-0.061,0.688-0.309c0.683-1.195,0.67-2.557-0.033-3.554c-0.134-0.189-0.35-0.283-0.565-0.271
	c-0.155-0.233-0.449-0.348-0.729-0.259c-0.674,0.215-1.309,0.364-1.923,0.487c0.225-1.967,1.189-3.236,2.62-3.416
	C444.463,290.175,446.592,291.468,447.546,294.332z M450.709,256.846c0.004-0.017,0.004-0.034,0.007-0.051
	c0.749-0.137,1.423-0.436,1.977-0.895c0.525,0.491,0.976,1.18,0.534,1.907c-0.426,0.701-1.511,1.145-2.15,0.881
	C450.434,258.423,450.571,257.42,450.709,256.846z M457.369,271.854c0,0-0.54,0.463-1.047,0.897
	c-0.041-0.227-0.066-0.46-0.066-0.701c0-0.634,0.118-1.315,0.239-2.018c0.087-0.504,0.167-1.021,0.212-1.536
	c0.167-0.125,0.29-0.217,0.528-0.396c0.781,0.607,1.631,1.221,2.523,1.674C458.997,270.461,458.184,271.163,457.369,271.854z
	 M455.603,263.891c0.74,0.251,1.109,1.518,0.947,2.482c-0.072,0.427-0.302,1.142-1.029,1.137c-0.648-0.004-1.055-0.615-1.207-1.137
	c-0.174-0.597-0.113-1.351,0.415-1.693c0.12-0.078,0.204-0.189,0.251-0.313c0.208-0.144,0.396-0.313,0.565-0.504
	C455.564,263.873,455.582,263.883,455.603,263.891z M455.133,261.632c-0.05,0.814-0.527,1.73-1.482,1.941
	c-0.74,0.164-1.27-0.026-1.577-0.564c-0.427-0.75-0.334-2.139,0.483-3.011c0.049-0.052,0.079-0.112,0.107-0.174
	c0.314-0.122,0.615-0.289,0.886-0.497c0.074,0.118,0.185,0.214,0.327,0.264C454.873,259.945,455.179,260.877,455.133,261.632z
	 M428.33,240.838c2.86-3.99,9.658-5.945,14.213-5.269c4.117,0.612,7.688,2.755,9.553,5.733c1.664,2.658,1.99,5.841,0.978,9.467
	c-0.509-0.438-1.304-0.828-2.525-0.856c0.025-0.279,0.066-0.557,0.081-0.832l0.093-1.181c0.001-0.017,0.002-0.034,0.002-0.052
	c0-0.336-0.254-0.645-0.591-0.672c-0.343-0.027-0.64,0.192-0.684,0.528l-0.837-0.845c-1.077-1.044-2.298-2.227-2.481-3.367
	c-0.054-0.336-0.359-0.572-0.698-0.539c-0.331,0.032-0.582,0.311-0.582,0.641c0,0.008,0,0.015,0.001,0.022
	c0.011,0.315,0.019,0.634,0.019,0.952c0,1.03-0.098,2.058-0.453,2.997c-1.716-1.504-3.191-4.045-3.423-6.027
	c-0.033-0.287-0.254-0.517-0.54-0.561c-0.285-0.045-0.566,0.106-0.686,0.369c-0.292,0.639-0.52,1.322-0.739,1.982
	c-0.237,0.71-0.485,1.433-0.808,2.101c-0.313-0.667-0.467-1.464-0.615-2.302c-0.1-0.565-0.204-1.149-0.366-1.703
	c-0.076-0.26-0.306-0.444-0.576-0.462c-0.27-0.018-0.522,0.135-0.632,0.382c-0.413,0.932-0.867,1.854-1.324,2.766
	c-0.019-0.467-0.03-0.937-0.031-1.425L434.646,241c-0.004-0.228-0.129-0.426-0.328-0.539c-0.199-0.112-0.442-0.1-0.639,0.015
	c-2.027,1.176-4.03,3.238-5.549,4.903c-0.127,0.139-0.177,0.317-0.162,0.49c-0.186,0.369-0.357,0.757-0.508,1.165
	C426.697,244.795,426.984,242.715,428.33,240.838z M428.338,256.635c-1.003-3.646-0.549-8.076,1.104-10.771
	c0.002-0.004,0.003-0.008,0.005-0.012c1.086-1.167,2.503-2.577,3.934-3.611c0.003,0.179,0.008,0.448,0.008,0.448
	c0.003,0.966,0.008,1.957,0.154,2.942c-0.413-0.219-0.87-0.31-1.339-0.259c-0.804,0.086-1.552,0.582-2.002,1.325
	c-0.185,0.305-0.087,0.7,0.218,0.885c0.305,0.184,0.7,0.087,0.885-0.218c0.239-0.396,0.637-0.668,1.037-0.711
	c0.345-0.037,0.674,0.098,0.951,0.391c0.244,0.259,0.652,0.27,0.911,0.025c0.039-0.037,0.061-0.083,0.088-0.126
	c0.253,0.013,0.494-0.12,0.61-0.348l0.441-0.874c0.348-0.688,0.7-1.39,1.046-2.1c0.225,1.251,0.496,2.518,1.405,3.484
	c0.134,0.142,0.324,0.216,0.519,0.201c0.194-0.015,0.372-0.117,0.482-0.278c0.698-1.019,1.083-2.173,1.455-3.288
	c0.287,0.74,0.672,1.484,1.121,2.191c-0.554,0.05-1.02,0.308-1.294,0.773c-0.181,0.307-0.078,0.702,0.229,0.882
	c0.307,0.181,0.701,0.078,0.882-0.228c0.147-0.25,0.675-0.167,1.097,0.038c0.068,0.033,0.139,0.051,0.211,0.059
	c0.558,0.649,1.167,1.22,1.797,1.662c0.148,0.104,0.334,0.141,0.511,0.101s0.329-0.152,0.419-0.31
	c0.512-0.898,0.741-1.875,0.848-2.85c0.502,0.612,1.089,1.187,1.646,1.727l1.03,1.039c0.158,0.159,0.387,0.226,0.597,0.192
	c-0.027,0.512-0.054,0.997-0.136,1.444c-0.037,0.198,0.022,0.402,0.158,0.551c0.136,0.149,0.333,0.226,0.534,0.207
	c1.315-0.12,2.269,0.218,2.687,0.95c0.37,0.648,0.272,1.533-0.249,2.256c-0.343,0.476-1.37,1.536-3.509,1.11
	c-0.304-0.06-0.606,0.103-0.723,0.39c-1.488,3.669-2.742,5.57-6.239,7.135c-2.844,1.272-6.09,1.028-9.387-0.705
	C429.997,261.049,428.857,258.524,428.338,256.635z M433.119,264.388c0.112-0.04,0.205-0.11,0.276-0.196
	c3.141,1.26,6.223,1.282,8.996,0.041c0.776-0.347,1.449-0.714,2.05-1.107c0.142,0.165,0.362,0.255,0.593,0.217
	c4.813-0.797,6.782,6.603,7.959,11.024l0.548,1.973c1.146,3.744,1.974,6.448,0.135,10.074c-1.142,2.25-3.896,6.224-5.092,7.016
	c-0.926-2.353-2.512-3.67-4.061-4.148c0.433-0.929,1.032-1.839,1.675-2.797c1.124-1.676,2.285-3.409,2.519-5.374
	c0.224-1.89-0.323-3.894-0.853-5.832c-0.393-1.438-0.799-2.926-0.86-4.295c-0.016-0.355-0.317-0.631-0.672-0.616
	c-0.355,0.016-0.631,0.317-0.615,0.672c0.067,1.513,0.493,3.071,0.904,4.578c0.52,1.903,1.011,3.7,0.815,5.341
	c-0.196,1.658-1.222,3.188-2.309,4.809c-0.712,1.062-1.447,2.159-1.931,3.304c-0.171-0.001-0.341,0.006-0.505,0.026
	c-1.67,0.21-3.539,1.613-3.775,4.919c0,0.005,0.001,0.01,0,0.015c-0.03,0.005-0.061,0.011-0.09,0.016
	c-2.279,0.385-4.432,0.748-6.682,3.155c-0.088,0.095-0.131,0.211-0.152,0.33c-0.014-0.002-0.029-0.004-0.043-0.006
	c2.112-4.485,2.416-8.453,1.085-13.994c-0.34-1.415-0.832-2.675-1.309-3.894c-0.349-0.893-0.709-1.815-1.016-2.809
	c-0.525-1.703-0.157-2.928,0.268-4.346c0.208-0.691,0.422-1.406,0.555-2.228c0.057-0.352-0.182-0.682-0.534-0.739
	c-0.352-0.057-0.682,0.182-0.738,0.533c-0.119,0.738-0.321,1.412-0.517,2.063c-0.445,1.484-0.906,3.019-0.266,5.096
	c0.072,0.233,0.147,0.461,0.224,0.686c-0.011,0.009-0.023,0.012-0.034,0.021c-0.621,0.583-1.704,1.835-2.385,3.119
	c-0.262-0.656-0.565-1.272-0.915-1.84c-0.857-1.389-1.814-2.649-2.847-3.771C425.573,271.765,429.746,265.594,433.119,264.388z
	 M412.917,270.87c4.717,0.639,9.221,3.919,12.354,9c1.526,2.474,1.839,5.458,1.832,7.525c-0.002,0.499-0.088,1.025-0.179,1.582
	c-0.147,0.902-0.299,1.836-0.11,2.778c0.156,0.778,0.444,1.437,0.722,2.074c0.335,0.767,0.624,1.429,0.641,2.181
	c0.029,1.25-0.258,2.136-0.875,2.71c-1.299,1.208-3.954,0.955-6.296,0.731c-0.56-0.054-1.096-0.103-1.601-0.133
	c1.224-1.359,2.213-3.087,2.938-5.189c0.063-0.182,0.039-0.385-0.061-0.549c-0.014-0.021-1.296-2.162-0.771-5.576
	c0.022-0.143-0.005-0.288-0.075-0.414l-2.051-3.647c0.394,0.013,0.79,0.025,1.204,0.025c0.355,0,0.645-0.289,0.645-0.644
	c0-0.356-0.289-0.645-0.645-0.645c-15.172,0-15.665-9.289-15.678-9.685c-0.007-0.189-0.096-0.355-0.23-0.469
	C407.274,271.056,410.068,270.484,412.917,270.87z M394.23,295.374c-0.532-0.474-0.453-1.444-0.293-2.174l0.281-1.238
	c0.449-1.932,0.721-3.098,0.444-5.769c-0.376-3.623,0.397-6.977,2.067-8.972c1.096-1.309,2.569-2.04,4.378-2.172
	c0.146-0.011,0.284-0.071,0.392-0.171c0.69-0.641,1.403-1.206,2.133-1.7c0.023,0.252,0.097,0.818,0.313,1.565
	c-0.818,0.343-6.862,3.111-7.47,10.174c-0.059,0.237-0.456,1.917-0.456,4.188c0,1.868,0.271,4.125,1.223,6.282
	C395.839,295.832,394.746,295.833,394.23,295.374z M399.474,296.727c-3.395-4.777-1.76-11.457-1.743-11.524
	c0.009-0.035,0.015-0.071,0.018-0.107c0.498-6.221,5.74-8.75,6.631-9.137c1.259,2.954,4.606,7.179,13.478,7.902
	c0.472,0.84,2.19,3.895,2.353,4.183c-0.076,0.567-0.117,1.108-0.117,1.608c0,2.197,0.624,3.703,0.929,4.309
	c-1.941,5.377-5.632,7.953-10.982,7.657c-0.004-0.001-0.008-0.003-0.012-0.004c-0.014-0.002-0.028,0.002-0.042,0.001
	c-0.17-0.01-0.336-0.014-0.509-0.029C404.841,301.177,401.476,299.543,399.474,296.727z M416.684,301.513
	c-0.712,3.29-1.481,4.261-2.006,4.485c-0.771,0.33-1.544-0.008-2.056-0.349c-0.94-0.626-1.699-1.723-1.952-2.719
	C412.947,302.957,414.96,302.479,416.684,301.513z M393.985,311.244c1.699-4.843,4.181-7.679,8.505-9.709
	c-0.002,0.012-0.006,0.022-0.008,0.035c-0.355,2.708,1.058,4.011,2.498,4.327c1.558,0.342,3.519-0.341,4.717-1.861
	c0.457,1.045,1.256,2.05,2.211,2.687c1.098,0.732,2.262,0.896,3.277,0.461c1.502-0.643,2.251-3.073,2.728-5.249
	c3.073,3.424,4.954,6.476,4.954,10.371c0,1.192-0.176,2.464-0.547,3.849c-1.355,5.054-6.854,9.988-12.171,11.05
	c-0.23-0.552-0.483-1.1-0.74-1.631c-0.528-1.092-1.012-2.13-1.216-3.169c2.825-1.295,5.21-3.886,6.431-5.808
	c0.432-0.68,0.861-1.805,1.315-2.997c0.497-1.303,1.421-3.729,1.955-3.88c0.284-0.081,0.472-0.34,0.472-0.622
	c0-0.057-0.008-0.114-0.023-0.171c-0.096-0.342-0.445-0.543-0.787-0.45c-1.084,0.295-1.789,1.959-2.82,4.665
	c-0.43,1.128-0.837,2.194-1.199,2.764c-0.599,0.943-1.455,1.988-2.457,2.939c-0.446-1.724-1.934-2.8-4.053-2.863
	c-2.774-0.082-6.071,1.626-6.687,4.242c-0.589,0.097-1.175,0.244-1.754,0.45c-0.038-0.143-0.123-0.274-0.254-0.365
	c-0.201-0.139-0.393-0.255-0.582-0.362c-0.006-0.127-0.05-0.254-0.135-0.363c-1.145-1.467-1.498-3.598-0.997-6.001
	c0.61-2.923,2.426-5.648,4.518-6.781c0.313-0.169,0.429-0.561,0.259-0.874c-0.169-0.313-0.561-0.429-0.873-0.26
	c-2.444,1.324-4.471,4.328-5.166,7.651c-0.473,2.263-0.257,4.336,0.58,5.987c-0.873-0.105-1.506,0.14-1.887,0.369
	c-0.803,0.483-1.309,1.354-1.491,2.48C391.484,319.003,392.642,315.07,393.985,311.244z M407.127,323.484
	c0.283,0.909,0.705,1.79,1.122,2.65c0.213,0.44,0.417,0.865,0.601,1.287c-0.121,0.06-0.226,0.156-0.292,0.287
	c-0.675,1.344-1.486,1.857-2.411,1.526c-1.424-0.512-2.658-2.81-2.315-4.314c0.325-1.43,1.937-1.57,3.231-1.436
	C407.085,323.486,407.106,323.484,407.127,323.484z M409.526,320.141c-0.088-1.011-0.754-1.423-1.084-1.566
	c-1.528-0.663-4.09,0.471-4.943,1.549c-0.588-0.05-1.177-0.067-1.766-0.043c0.721-1.717,3.174-2.875,5.256-2.813
	c1.036,0.031,2.794,0.392,2.934,2.467c0.002,0.033,0.009,0.063,0.016,0.094C409.803,319.936,409.665,320.041,409.526,320.141z
	 M407.929,319.757c0.126,0.055,0.422,0.183,0.284,0.97c-0.014,0.083-0.011,0.164,0.005,0.242c-0.051,0.027-0.102,0.053-0.154,0.079
	c-0.931-0.271-1.892-0.516-2.867-0.693C406.046,319.842,407.304,319.486,407.929,319.757z M393.797,324.049
	c0.014-0.066,0.021-0.135,0.013-0.207c-0.17-1.476,0.167-2.622,0.903-3.063c0.639-0.384,1.591-0.221,2.639,0.432
	c-0.834,0.435-1.648,1.011-2.43,1.761l-0.301,0.288C394.37,323.499,394.092,323.764,393.797,324.049z M395.51,324.193l0.304-0.29
	c3.304-3.165,7.21-2.868,11.016-1.859c0,0.02-0.005,0.039-0.003,0.059c0.003,0.025,0.009,0.05,0.011,0.075
	c-3.277-0.205-4.073,1.631-4.262,2.457c-0.488,2.145,1.094,5.079,3.136,5.812c0.716,0.257,2.483,0.558,3.846-1.885
	c0.096,0.033,0.199,0.052,0.305,0.036c0.313-0.048,0.627-0.112,0.94-0.185c-0.006,0.022-0.013,0.044-0.016,0.067
	c-0.191,1.341-0.96,4.501-1.875,5.726c-1.007,1.35-1.719,1.268-3.623,1.049l-0.955-0.103c-0.904-0.088-2.265-0.062-3.842-0.031
	c-0.696,0.013-1.458,0.028-2.244,0.033c-0.182-0.089-0.395-0.089-0.573,0.001c-3.293-0.005-6.836-0.234-7.694-1.511
	C388.269,331.091,393.529,326.079,395.51,324.193z M389.246,334.757c1.33,1.299,4.32,1.625,7.45,1.677
	c-1.241,2.172-1.486,4.995-1.486,7.799c0,0.916,0.026,1.83,0.051,2.719c0.023,0.817,0.045,1.604,0.045,2.34
	c0,0.135-0.005,0.26-0.007,0.391c-0.615,0.037-1.51,0.092-1.51,0.092c-1.744,0.115-3.541,0.225-5.299,0.164
	c-0.512-1.853-0.773-3.957-0.773-6.122C387.717,340.678,388.241,337.441,389.246,334.757z M414.119,357.141l-0.807,1.396
	c-0.386,0.716-0.784,1.457-1.226,1.941c-1.03,1.129-1.294,1.114-3.013,1.011l-1.176-0.06c-3.567-0.132-7.109,0.011-10.534,0.148
	c-4.671,0.188-9.497,0.368-14.3-0.157c-0.15-0.674-0.297-1.393-0.297-2.046c0-0.48,0.078-0.918,0.287-1.26
	c0.462-0.755,1.667-2.024,2.832-3.251c0.63-0.664,1.241-1.307,1.757-1.891c0.231,1.232,0.874,2.247,1.894,2.892
	c1.399,0.884,3.26,0.888,4.632,0.01c1.46-0.934,2.137-2.671,1.86-4.768c-0.009-0.063-0.028-0.121-0.053-0.176
	c0.327-0.024,0.591-0.29,0.602-0.618c0.012-0.339,0.015-0.693,0.015-1.054h3.043c0.007,0.162,0.015,0.326,0.022,0.481
	c0.011,0.246,0.162,0.464,0.388,0.561c0.176,0.076,0.366,0.147,0.563,0.214c-1.143,1.297-1.64,3.225-1.157,4.686
	c0.396,1.197,1.372,1.932,2.747,2.072c2.711,0.274,4.128-1.988,5.266-3.805c0.513-0.819,0.998-1.592,1.535-2.089
	c0.084-0.078,0.133-0.174,0.166-0.275c0.163-0.11,0.275-0.287,0.283-0.494l0.046-1.058c2.104,0.02,4.135,0.13,6.277,0.25
	c0,0,0.353,0.019,0.701,0.039c0.002,0.181,0.007,0.378,0.007,0.545C416.479,353.138,416.131,354.136,414.119,357.141z
	 M422.235,355.917c0,1.54-0.996,2.792-2.22,2.792c-1.223,0-2.219-1.252-2.219-2.792c0-1.539,0.996-2.792,2.219-2.792
	C421.239,353.125,422.235,354.378,422.235,355.917z M419.251,337.224c-0.014-1.318-0.022-2.522-0.022-3.5
	c0-5.704,1.715-11.542,2.183-12.242c0.387-0.496,4.338-3.157,8.194-5.618l-0.207,2.599c-5.658,1.191-9.884,8.471-9.884,17.552
	c0,0.372,0.009,0.739,0.023,1.104C419.436,337.145,419.341,337.18,419.251,337.224z M439.735,336.015
	c0,8.074-3.981,14.896-8.695,14.896c-4.713,0-8.695-6.822-8.695-14.896c0-8.075,3.981-14.897,8.695-14.897
	C435.754,321.119,439.735,327.941,439.735,336.015z M437.613,313.5c-0.056,0.053-0.104,0.115-0.139,0.189
	c-0.955,2-1.308,4.16-1.432,6.297c-0.79-0.572-1.633-1.008-2.516-1.296c0.006-0.026,0.013-0.053,0.016-0.081
	c0.058-0.602,1.168-12.275,1.574-17.172c1.23,0.299,2.551,0.415,3.912,0.415l-0.174,0.935
	C438.188,306.346,437.509,309.972,437.613,313.5z M441.249,321.646c-1.762-2.77-2.351-5.787-2.351-8.902
	c0-3.189,0.617-6.483,1.224-9.72l0.224-1.206c2.183-0.109,4.42-0.454,6.507-0.777l1.237-0.19l1.303-0.139
	c0.384-0.034,0.786-0.069,1.191-0.119c0.044,1.987-0.39,4.306-0.85,6.76c-0.74,3.945-1.505,8.024-0.324,11.204
	c0.748,2.014,2.929,3.992,4.681,5.582l1.207,1.116c1.004,0.969,1.902,2.03,2.771,3.056c0.811,0.958,1.651,1.939,2.583,2.867
	c-1.721,2.874-4.559,4.552-6.847,5.694c-0.054,0.027-0.101,0.063-0.144,0.102C452.032,336.872,444.669,327.02,441.249,321.646z
	 M458.803,341.862c-0.778,0.787-1.883,1.637-2.729,1.22c-1.045-0.516-1.66-2.909-1.347-5.234c2.152-1.1,4.683-2.662,6.481-5.177
	C462.387,335.467,460.765,339.878,458.803,341.862z"/>
<path d="M434.223,259.046c0.004,0.013,0.021,0.052,0.026,0.065l0.254,0.621c0.402,1.033,0.952,2.447,2.437,2.543
	c1.765,0.115,2.913-1.735,3.231-3.501c0.034-0.186-0.016-0.376-0.135-0.522c-0.119-0.146-0.296-0.232-0.484-0.237
	c-1.52-0.033-3.056-0.178-4.834-0.454c-0.222-0.034-0.446,0.049-0.591,0.221c-0.145,0.172-0.19,0.406-0.119,0.62L434.223,259.046z
	 M438.712,259.257c-0.302,0.871-0.882,1.786-1.688,1.733c-0.619-0.04-0.924-0.708-1.319-1.724c0,0-0.063-0.151-0.122-0.296
	C436.676,259.113,437.717,259.21,438.712,259.257z"/>
<circle cx="431.613" cy="251.755" r="0.859"/>
<circle cx="442.137" cy="253.044" r="0.859"/>
<ellipse cx="431.184" cy="336.158" rx="0.859" ry="1.718"/>
</svg>
