<?xml version="1.0" encoding="utf-8"?>
<!-- Generator: Adobe Illustrator 17.1.0, SVG Export Plug-In . SVG Version: 6.00 Build 0)  -->
<!DOCTYPE svg PUBLIC "-//W3C//DTD SVG 1.1//EN" "http://www.w3.org/Graphics/SVG/1.1/DTD/svg11.dtd">
<svg version="1.1" id="Ebene_1" xmlns="http://www.w3.org/2000/svg" xmlns:xlink="http://www.w3.org/1999/xlink" x="0px" y="0px"
	 width="100px" height="100px" viewBox="0 0 100 100" enable-background="new 0 0 100 100" xml:space="preserve">
<circle fill="#B2B2B2" cx="50" cy="50" r="50"/>
<path fill="#FFFFFF" d="M46.7,62.6c2.5,0,2.5,5.2,0,5.2C44.2,67.9,44.2,62.6,46.7,62.6z"/>
<path d="M44.4,65.2c0,1.3,0.8,3.1,2.3,3.1c1.5,0,2.3-1.8,2.3-3.1s-0.8-3.1-2.3-3.1C45.2,62.2,44.4,63.9,44.4,65.2z M45.3,65.2
	c0-0.8,0.4-2.2,1.4-2.2c1,0,1.4,1.3,1.4,2.2s-0.4,2.2-1.4,2.2C45.7,67.4,45.3,66.1,45.3,65.2z"/>
<path fill="#9FA0A0" d="M44.2,50.3c1.2,2.9,2.2,5.9,3,8.9c0.3,1,0.5,2,0.7,3c0.1,0.7,0.3,1-0.4,1.3c-1.2,0.5-2.3,1-3.5,1.4
	C44.1,60,44.2,55.1,44.2,50.3z"/>
<path d="M44.2,49.8c-0.6,0.1-0.4,1.7-0.4,2.1c0,1.5,0,3-0.1,4.5c0,2.7-0.1,5.5-0.1,8.2c0,1.2,1.4,0.3,2,0.1c0.7-0.3,1.4-0.6,2.1-0.9
	c0.8-0.3,0.8-0.7,0.7-1.6c-0.6-3.9-2-7.8-3.5-11.5C44.8,50.5,44.6,49.7,44.2,49.8z M44.6,52.5c0.9,2.4,1.7,4.8,2.3,7.3
	c0.1,0.6,1,3,0.4,3.3c-0.9,0.4-1.9,0.8-2.8,1.2C44.5,60.3,44.6,56.4,44.6,52.5C45.6,55.2,44.6,55.6,44.6,52.5z"/>
<path fill="#D3D3D4" d="M34.7,81.8c-0.4,0.9-1.2,1.7-2.2,2.1c-1,0.3-4.5-0.3-3.4-1.9c0.5-0.6,1.4-1.3,2.2-1.1
	C32.5,81.2,33.6,81.5,34.7,81.8z"/>
<path d="M30.7,80.3c-1.2,0.5-3.2,1.9-1.7,3.2c1.4,1.3,3.6,1.2,5-0.1c0.4-0.4,1.1-1.1,1.1-1.7c0-0.5-0.7-0.6-1-0.7
	c-0.7-0.2-1.4-0.4-2.1-0.6C31.7,80.5,31.1,80.2,30.7,80.3C30.4,80.5,30.8,80.3,30.7,80.3z M30.3,83.3c-1.6-0.7-0.6-1.5,0.6-2
	c1,0.3,2.1,0.6,3.1,0.9C33.2,83.4,31.8,83.9,30.3,83.3C29.6,83,32.3,84.1,30.3,83.3z"/>
<path fill="#D3D3D4" d="M43.3,80.6c0.5,0.3,1.1,0.8,1.4,1.4c0.6,1.1-0.8,1.9-1.8,2c-1.6,0.1-3-1.5-3.7-2.8
	C40.6,81,42,80.8,43.3,80.6z"/>
<path d="M43.3,80.2c-1.2,0.1-2.3,0.3-3.5,0.4c-0.4,0.1-1.2,0.1-0.9,0.8c0.2,0.4,0.5,0.8,0.8,1.2c1,1.3,2.6,2.3,4.3,1.5
	c1-0.5,1.6-1.4,1-2.5C44.8,81.2,43.9,80.1,43.3,80.2z M43.2,81.1c0.4,0.3,1.2,0.8,1.2,1.4c0,0.5-0.9,0.9-1.3,0.9
	c-1.3,0.2-2.4-1-3.1-2C41.1,81.4,42.2,81.2,43.2,81.1C43.8,81.4,43,81.1,43.2,81.1z"/>
<path fill="#FFFFFF" d="M31.1,77.8c0.2-1.9,0.3-3.8,0.5-5.7c1,0.3,2,0.6,3,0.9c0.5,0.1,0.9,0.3,1.4,0.4c0.1,0,0,0.6,0,0.7
	c-0.1,1.3-0.3,2.6-0.4,3.9c-0.1,0.7,0,0.8-0.8,0.8C33.5,78.9,32.2,78.5,31.1,77.8z"/>
<path d="M31.4,71.7c-0.4,0.3-0.3,1.6-0.3,2c-0.1,1.1-0.2,2.3-0.3,3.4c0,0.2,0,0.4-0.1,0.7c-0.1,0.7,1.7,1.2,2.2,1.3
	c0.7,0.2,2.2,0.5,2.8,0.1C36,79,36,78.6,36,78.4c0.1-1,0.2-2.1,0.3-3.1c0-0.4,0.5-2.1-0.1-2.3c-0.6-0.4-1.7-0.5-2.4-0.7
	C33.3,72.1,31.8,71.4,31.4,71.7C31.2,71.8,31.5,71.7,31.4,71.7z M32,72.7c0.4,0.1,3.6,0.9,3.6,1.1c-0.1,1.3-0.3,2.7-0.4,4
	c0,0.4,0.1,0.5-0.4,0.5c-0.6,0-1.2-0.1-1.8-0.2c-0.2-0.1-1.4-0.4-1.4-0.7c0-0.2,0-0.5,0.1-0.7C31.8,75.4,31.9,74.1,32,72.7
	C32.7,72.9,31.9,73.6,32,72.7z"/>
<path fill="#FFFFFF" d="M35.5,78.8c-0.1,0.8-0.2,1.6-0.2,2.5c-0.1,1.1-2.4,0.5-2.9,0.3c-0.5-0.2-1.5-0.5-1.5-1.1
	c0.1-0.9,0.1-1.7,0.2-2.6C32.4,78.6,34,79.1,35.5,78.8z"/>
<path d="M30.9,77.4c-0.4,0.2-0.3,1.2-0.3,1.5c0,0.5-0.2,1.2-0.1,1.8c-0.1,1,2.8,1.6,3.4,1.7c1.9,0.1,1.9-1.5,2-2.9
	c0.1-1-0.1-1.1-1.1-1.1c-0.7,0-1.4-0.1-2.1-0.3C32.3,78,31.3,77.2,30.9,77.4z M31.5,78.6c1.1,0.6,2.3,0.8,3.6,0.7
	c-0.1,0.6-0.1,1.2-0.2,1.8c-0.4,0.5-1.2,0.4-1.7,0.2c-0.6-0.2-1.1-0.4-1.7-0.7C31.1,80.4,31.5,79,31.5,78.6
	C32.7,79.2,31.4,79.2,31.5,78.6z M35.6,79.3C35.6,79.3,35.6,79.3,35.6,79.3C35.6,79.3,35.6,79.3,35.6,79.3z"/>
<path fill="#FFFFFF" d="M39.1,78.3c0-1.8,0-3.6,0-5.5c0-0.3,4-1,4.6-1.2c0,1.4-0.1,2.8-0.1,4.2c0,0.6,0,1.2-0.1,1.8
	c0,0.3-1.4,0.6-1.6,0.6C40.9,78.5,40,78.5,39.1,78.3z"/>
<path d="M43.5,71.2c-0.8,0.2-1.7,0.4-2.5,0.6c-0.5,0.1-2.1,0.2-2.4,0.7c-0.3,0.6,0,1.7,0,2.4c0,1.1,0,2.1,0,3.2
	c0,1.4,2.9,0.8,3.7,0.5c0.5-0.1,1.5-0.4,1.5-1c0-0.3,0-0.7,0-1c0-1.2,0.1-2.3,0.1-3.5C44,72.8,44.3,71,43.5,71.2z M43.2,72.3
	c0,1.4-0.1,2.8-0.1,4.2c0,0.3,0,0.5,0,0.8c0,0.4-0.7,0.5-1,0.5c-0.6,0.2-2.5,0.6-2.5-0.2c0-1.4,0-2.7,0-4.1c0-0.5,0.8-0.5,1.2-0.6
	C41.5,72.6,42.4,72.4,43.2,72.3C43.2,73.2,42.4,72.4,43.2,72.3z"/>
<path fill="#FFFFFF" d="M43.4,77.7c0,0.8-0.1,1.6-0.1,2.4c0,0.8-0.6,0.9-1.4,1.1c-0.5,0.2-2.9,0.7-2.9-0.4c0-0.8,0-1.7,0-2.5
	C40.5,78.6,42.1,78.4,43.4,77.7z"/>
<path d="M43.2,77.3c-1.1,0.6-2.5,0.8-3.8,0.7c-1-0.1-0.9,0.5-0.9,1.2c0,0.6,0,1.2,0,1.8c0,0.8,1.4,1,2,1c0.8,0,3.1-0.4,3.1-1.4
	C43.8,80.1,44.2,76.8,43.2,77.3C42,77.9,43.4,77.2,43.2,77.3z M39,78.8C39,78.8,39,78.8,39,78.8C39,78.8,39,78.8,39,78.8z M43,78.4
	c0,0.6,0,1.3-0.1,1.9c-0.5,0.3-1.1,0.5-1.7,0.6c-0.6,0.1-1.3,0.2-1.7-0.2c0-0.6,0-1.3,0-1.9C40.7,79,41.9,78.8,43,78.4
	C43,79.1,41.9,78.8,43,78.4z"/>
<path fill="#FFFFFF" d="M27.8,50.3c-3.2,0-3.3,5.1-3.4,7.2c0,0.8-0.1,10.7,0.3,10.7c0.7,0,6.4,0.3,6.4,0.1c0.3-2.7,0.3-5.4,0-8.1
	C30.8,56.8,30.2,52.9,27.8,50.3z"/>
<path d="M24,55.4c-0.3,4.2-0.2,8.5,0.1,12.7c0.1,1,1.7,0.7,2.3,0.7c1.4,0,2.9,0.1,4.3,0.1c0.8,0,0.7-1.1,0.7-1.7
	c0.1-1.5,0.1-3,0.1-4.5c-0.1-3.8-0.5-8.2-2.7-11.5c-0.7-1.1-1.3-1.6-2.5-1C24.7,51.2,24.2,53.5,24,55.4C23.6,60.6,24.5,49.8,24,55.4
	z M24.7,60c0-2.3-0.1-4.8,0.6-7c0.3-0.9,0.9-1.9,1.9-2.2c0.9-0.3,2.1,3.1,2.3,3.8c0.6,2,0.9,4.1,1.1,6.2c0.1,2,0.1,4,0,6
	c0,0.3,0,0.7-0.1,1c-0.2,0-0.4,0-0.5,0c-0.8,0-1.5,0-2.3-0.1c-0.7,0-1.4,0-2.1-0.1c-0.7,0-0.7,0-0.7-0.7
	C24.8,64.7,24.7,62.4,24.7,60z"/>
<path fill="#FFFFFF" d="M45.6,57.5c0-2.4-0.2-5-1-7.3c-0.2-0.5-0.1-0.5-0.6-0.4c-0.8,0.1-1.6,0.3-2.4,0.4c0.9,3.1,1.7,6.2,2.6,9.3
	c0.1,0.4,0.3,2,0.7,2.3C45.5,62.2,45.6,57.7,45.6,57.5z"/>
<path d="M44.3,49.3c-0.5,0.1-1,0.2-1.5,0.2c-0.4,0.1-1.4,0-1.6,0.4c-0.3,0.5,0.3,1.7,0.4,2.1c0.8,2.8,1.6,5.6,2.4,8.4
	c0.1,0.5,0.3,2.2,1.2,1.8c0.9-0.3,0.8-2.2,0.9-3c0.1-2.4,0-5-0.5-7.4C45.4,51.5,45,49.1,44.3,49.3z M44.1,50.2
	c0.5,1.3,0.8,2.7,0.9,4.1c0.2,2.1,0.4,4.5-0.1,6.6C44,57.4,43,54,42,50.6C42.7,50.4,43.4,50.3,44.1,50.2
	C44.4,51,43.7,50.3,44.1,50.2z"/>
<path fill="#9FA0A0" d="M44.9,64.5c0.8,2.4,1.6,4.8,2.4,7.2c0.2,0.5-1.2,0.6-1.6,0.7c-2,0.5-4.1,0.8-6.1,0.9c-2.9,0.2-5.8,0-8.6-0.7
	c-0.4-0.1-3-0.7-2.9-1c0.2-0.6,0.4-1.3,0.6-1.9c0.2-0.7,0.4-1.5,0.7-2.2c0-0.1,0.2-0.9,0.3-1c1-0.4,1.9-0.7,2.9-1.1
	c2.2-0.9,4.4-1.7,6.7-2.6c0.1-0.1,0.5,0.1,0.7,0.2c0.6,0.2,1.3,0.4,1.9,0.6C42.8,63.9,43.9,64.2,44.9,64.5z"/>
<path d="M39.1,62.4c-2.4,0.9-4.8,1.9-7.2,2.8c-0.7,0.3-2,0.5-2.5,1c-0.2,0.3-0.3,0.8-0.4,1.2c-0.2,0.8-0.5,1.6-0.7,2.4
	c-0.2,0.6-0.3,1.1-0.5,1.7c-0.3,1,1.7,1.2,2.4,1.4c2.8,0.8,5.8,1,8.7,0.9c2.2-0.1,4.4-0.4,6.5-0.9c0.5-0.1,2.5-0.3,2.5-1
	c0-0.3-0.2-0.7-0.3-0.9c-0.2-0.7-0.5-1.4-0.7-2.2c-0.5-1.4-0.9-2.8-1.4-4.3c-0.3-0.9-1.8-0.9-2.5-1.2c-0.8-0.2-1.6-0.5-2.5-0.7
	C40.1,62.6,39.4,62.3,39.1,62.4z M39.2,63.3c0.9,0.3,1.9,0.6,2.8,0.8c0.5,0.1,2.4,0.4,2.6,0.9c0.7,2.2,1.4,4.4,2.2,6.6
	c-3,0.9-6.1,1.3-9.2,1.3c-2.4,0-4.8-0.2-7.2-0.9c-0.6-0.2-1.2-0.4-1.8-0.6c0.1-0.2,0.1-0.4,0.2-0.6c0.2-0.7,0.4-1.4,0.6-2.1
	c0.2-0.7,0.2-1.7,0.9-2c1-0.4,2-0.8,3-1.2C35.3,64.8,37.3,64.1,39.2,63.3C39.5,63.4,39,63.4,39.2,63.3z"/>
<g>
	<path fill="#9FA0A0" d="M37,67.3c-2.9,0.1-5.8,0.2-8.7,0.3c0.5-1.7,0.8-3.5,1.1-5.3c0.4-2.3,0.7-4.6,0.9-6.9
		c0.1-1.5,0.2-2.9,0.3-4.4c0-0.8-0.2-1.2,0.5-1.2c3,0.1,5.9,0.2,8.9,0.3c0.5,0,2-0.2,2.2,0.3c0.5,1.3,1,2.6,1.4,4
		c1.2,3.9,1.9,7.9,2.4,11.9c-1.6,0.2-3.2,0.3-4.9,0.5c-0.6,0.1-0.8,0.2-1.2-0.3c-0.5-0.7-0.9-1.4-1.4-2.1
		C38.1,65.5,37.6,66.4,37,67.3z"/>
	<path d="M30.3,49.8c-0.3,5.8-0.7,12-2.4,17.6C27.7,68.3,29,68,29.4,68c1.3,0,2.7-0.1,4-0.1c1.1,0,2.2-0.1,3.3-0.1
		c1,0,1.5-1.7,1.9-2.4c0.3,0.5,0.8,1.7,1.4,2c0.3,0.2,1,0,1.3-0.1c1.5-0.1,2.9-0.3,4.4-0.4c0.8-0.1,0.7-0.6,0.6-1.4
		c-0.2-1.5-0.4-3-0.7-4.5c-0.4-2.1-0.9-4.1-1.5-6.2c-0.4-1.3-0.9-2.7-1.4-4c-0.4-1.2-0.9-1.1-2-1.1c-3-0.1-6.1-0.2-9.1-0.3
		C31.4,49.4,30.4,49.2,30.3,49.8C29.7,62,30.3,49.6,30.3,49.8z M31.1,50.3c3.5,0.1,7.1,0.3,10.6,0.4c0.3,0,0.7,1.7,0.8,2
		c0.4,1.1,0.7,2.1,1,3.2c0.9,3.3,1.5,6.6,1.9,10c-1.7,0.2-3.4,0.3-5.1,0.5c-0.3,0-1.2-1.7-1.4-2c-0.6-0.9-1,0.2-1.3,0.7
		c-0.2,0.3-0.7,1.7-1.1,1.7c-0.8,0-1.6,0.1-2.3,0.1c-1.8,0.1-3.6,0.1-5.4,0.2C30.4,61.7,30.8,55.9,31.1,50.3
		C31.9,50.4,30.6,60.1,31.1,50.3z"/>
</g>
<path fill="#FFFFFF" d="M41.5,48.8c1,1.8,0.9,3.9-1.5,4.2c-2.1,0.3-2.5-1.6-2-3.3c-0.1,1.6-0.8,3.7-2.6,4c-2.8,0.5-4.1-2-3.6-4.4
	c0.1-0.4,0.5-0.3,0.9-0.3c1.1,0,2.2-0.1,3.4-0.1C37.8,48.9,39.7,48.9,41.5,48.8z"/>
<path d="M41.5,48.4c-2.9,0.1-5.8,0.2-8.7,0.2c-0.3,0-0.7-0.1-1,0c-0.8,0-0.6,2.3-0.5,2.7c0.5,3.1,4.9,3.9,6.4,1.1
	c0.9,1.6,3.6,1.2,4.5-0.1c0.5-0.8,0.5-1.8,0.2-2.6C42.2,49.4,42,48.4,41.5,48.4z M37.6,49.4c-0.3,0.3-0.3,1.1-0.3,1.5
	c-0.2,0.7-0.5,1.4-1,1.9c-1,0.9-3,0.6-3.8-0.5c-0.5-0.6-0.6-1.4-0.5-2.2c0.1-0.7,0.1-0.6,0.7-0.6C34.4,49.5,36,49.4,37.6,49.4
	C37.6,49.5,35,49.5,37.6,49.4z M41.2,49.3c0.9,1.7,0.3,3.3-1.7,3.2c-0.9,0-1.3-0.6-1.3-1.5c0.1-0.4,0.4-1.3,0-1.6
	C39.2,49.4,40.2,49.3,41.2,49.3C41.4,49.7,41.1,49.3,41.2,49.3z"/>
<path fill="#D3D3D4" d="M50.9,37.8c0.8,1.5-4.8,1.2-5.7,1.3c-3.5,0.1-7,0.5-10.4,0.8c-3.5,0.3-7,0.7-10.5,0.7
	c-0.8,0-1.9,0.1-2.6-0.2c-0.4-0.2,0.1-0.5,0.3-0.7c2.6-3,6.1-5.5,9.9-6.8C38.7,30.5,45.6,33.2,50.9,37.8z"/>
<path d="M29.8,33.1c-2.4,1.1-4.5,2.6-6.4,4.4c-0.6,0.5-1.1,1.1-1.7,1.7c-0.2,0.3-0.7,0.6-0.7,1c-0.3,1.5,4.7,0.9,5.3,0.9
	c5.6-0.3,11.2-0.9,16.7-1.3c2.2-0.2,4.6,0.1,6.8-0.3c0.5-0.1,1-0.3,1.4-0.6c0.9-1-0.5-1.9-1.2-2.4C44.1,31.8,36.7,29.9,29.8,33.1
	C24.4,35.6,34.7,30.9,29.8,33.1z M30.2,34.1c3.2-1.5,6.7-2,10.2-1.3c3.8,0.7,7.2,2.8,10.1,5.3c-1.1,0.9-3.4,0.4-4.7,0.4
	c-2.9,0.1-5.9,0.4-8.8,0.6c-2.8,0.2-5.5,0.5-8.3,0.7c-2,0.1-4.2,0.4-6.2,0.2C24.5,37.6,27.2,35.5,30.2,34.1
	C37,31,26.2,35.9,30.2,34.1z"/>
<path fill="#FFFFFF" d="M25.2,41.2c-1.5-0.5-2.2,1-1.8,2.3c0.2,0.7,0.8,1.1,1.5,1.2c0.1,0,0.6-0.1,0.6,0.1c0.5,1.9,2.1,3.5,3.8,4.5
	c3.4,1.9,7.9,2.2,11.6,0.9c1.9-0.7,3.6-1.9,4.6-3.7c0.3-0.5,0.6-1.9,1.2-1.9c0.7,0,1.4-0.2,1.8-0.7c0.6-0.7,0.8-2.3-0.1-2.8
	c-0.5-0.3-1.1-0.3-1.6-0.1c0.1-1.6-0.2-3.4-0.8-4.9c-1.2-3-3.8-4.4-6.9-4.8c-2.9-0.4-6,0.1-8.6,1.6C27.4,34.6,25.7,37.8,25.2,41.2z"
	/>
<path d="M29.7,32.7c-2.1,1.5-3.6,3.6-4.4,6c-0.2,0.6-0.4,1.3-0.5,1.9c-0.5-0.1-1.1,0-1.5,0.4c-0.8,0.8-0.7,2.5,0,3.3
	c0.5,0.7,1.7,0.5,1.9,1.1c0.2,0.4,0.4,0.8,0.6,1.2c0.8,1.2,1.8,2.2,3.1,2.9c3.3,1.9,7.7,2.2,11.3,1.2c1.9-0.5,3.6-1.5,4.8-3
	c0.3-0.4,0.6-0.9,0.9-1.4c0.2-0.3,0.5-1.4,0.8-1.4c1.3-0.1,2.3-0.8,2.5-2.1c0.3-1.5-0.6-2.7-2.1-2.6c0-2.8-0.9-5.9-3.2-7.8
	C40.2,29.5,33.6,30,29.7,32.7C27.2,34.4,32.8,30.5,29.7,32.7z M25.4,41.6c0.4-0.2,0.4-1.2,0.5-1.6c0.2-0.6,0.3-1.2,0.6-1.8
	c0.5-1.2,1.1-2.3,2-3.2c1.8-2,4.3-3.1,6.9-3.4c4.5-0.5,9.2,1,10.5,5.7c0.3,1.1,0.4,2.2,0.4,3.4c0,0.6,0.2,0.7,0.8,0.7
	c1.3-0.1,1.8,1.2,1,2.2c-0.3,0.4-0.9,0.6-1.4,0.6c-0.3,0-0.7-0.1-0.8,0.3c-0.4,1.2-1,2.3-1.9,3.3c-1.4,1.5-3.4,2.3-5.5,2.6
	c-4,0.6-9.2-0.1-11.7-3.6c-0.4-0.6-0.8-1.3-1-2c-0.2-0.7-1.7-0.2-2-1.1c-0.2-0.5-0.2-1.3,0.1-1.7C24.3,41.2,25,41.9,25.4,41.6
	C25.5,41.5,25.3,41.7,25.4,41.6z"/>
<path d="M35.9,43.9c0,0.2-0.1,0.5,0,0.6c0,0.6,0.9,0.6,0.9,0c0-0.1,0-0.5,0-0.6C36.8,43.3,35.9,43.3,35.9,43.9z"/>
<path d="M48,40.9c0-0.2-3.2-2.3-3.5-2.5c-0.9-0.6-1.7-1.3-2.5-2c-0.5-0.4-1.2-0.9-1.5-1.6c-1.9,2.2-4.7,3.8-7.6,4.3
	c1.4-0.9,2.4-2.7,3-4.3c-2,2.2-4.7,3.5-7.4,4.6c-1.3,0.6-2.6,1.1-4,1.4c-0.1,0-0.1-0.4-0.1-0.4c-0.4-2.1-0.3-4.4,0.6-6.4
	c0.7-1.5,1.8-2.7,3.2-3.6c1.4-0.9,2.9-1.2,4.5-1.7c3-1,6.6-1,9.5,0.4C46.2,31.3,49,36.4,48,40.9C48,40.9,48.8,37.1,48,40.9z"/>
<path d="M32.2,28.4c-5,1.1-8.6,4.7-8.5,10.1c0,0.9,0.1,1.7,0.4,2.6c0.2,0.9,2.6-0.3,3.1-0.5c2.5-1,5.1-2.1,7.2-3.8
	c-0.3,0.5-0.7,1-1.1,1.4c-0.3,0.3-0.9,0.6-0.9,1c0,0.9,1.9,0.1,2.3,0c2.1-0.7,4.1-1.9,5.6-3.5c0.9,1,2.1,1.9,3.1,2.7
	c1.3,1,2.6,2,4,2.9c0.9,0.6,1-0.8,1-1.5c0.2-2.2-0.4-4.1-1.5-6c-2-3.3-4.9-5.6-8.8-6C36.2,27.5,34.1,27.7,32.2,28.4
	C28.7,29.2,32.6,28.3,32.2,28.4z M24.6,38.1c0-3.7,2-6.6,5.3-8.1c1.6-0.7,3.5-1.2,5.3-1.4c2.7-0.4,5.5,0.1,7.7,1.6
	c3.1,2.1,5.3,6.2,4.7,9.9c-2-1.4-4.1-2.8-5.9-4.5c-0.3-0.3-0.6-0.5-0.8-0.8c-0.6-0.8-0.9,0-1.4,0.4c-1.4,1.3-3.2,2.4-5,3
	c0.5-0.6,2.2-2.7,1.8-3.6c-0.3-0.7-1.1,0.3-1.4,0.6c-0.6,0.5-1.2,1-1.8,1.4c-2.4,1.6-5.4,2.9-8.2,3.7C24.7,39.7,24.6,38.9,24.6,38.1
	z"/>
<path d="M40.8,38.3c-0.2,0.1-0.3,0.4-0.3,0.6c0.1,0.4,0.5,0.3,0.8,0.2c0.7-0.2,0.9,0.4,1.5,0.5c1,0,0-1-0.3-1.2
	C42.1,37.9,41.5,38,40.8,38.3C40.6,38.4,41.9,37.8,40.8,38.3z"/>
<path d="M29.4,39.1c-0.2,0.2-0.2,0.7,0.1,0.8c0.3,0.1,0.6-0.3,0.9-0.4c0.3-0.2,0.7-0.3,1.1-0.2c0.4,0.1,0.7,0.6,1.1,0.5
	c1.1-0.3-0.5-1.4-1-1.4C30.8,38.2,30,38.6,29.4,39.1C29.2,39.3,30.4,38.2,29.4,39.1z"/>
<path fill="#D3D3D4" d="M48.5,35.2c-0.6-4.7-4.6-8.1-9-9.1c-4-0.8-8.4-0.3-11.6,2.3c-2.5,2-4.1,5-4.2,8.2
	C31.9,36.2,40.2,35.7,48.5,35.2z"/>
<path d="M26.9,28.6c-2,1.8-3.4,4.4-3.7,7.1c-0.2,1.3,0.1,1.5,1.1,1.5c2.4-0.1,4.8-0.3,7.3-0.4c5.5-0.3,11.1-0.6,16.6-0.9
	c1.1-0.1,0.7-1.1,0.5-1.9c-0.6-2-1.7-3.8-3.1-5.2C40.7,24.1,31.8,24,26.9,28.6C24.6,30.7,28.9,26.7,26.9,28.6z M27.5,29.4
	c6.1-5.7,18.5-3.4,20.4,5.3c-7.9,0.5-15.8,0.9-23.7,1.4C24.4,33.5,25.6,31.1,27.5,29.4C29.4,27.7,25.6,31.2,27.5,29.4z"/>
<path fill="#D3D3D4" d="M50.9,37.8c-0.7-0.8-1.3-1.5-2-2.3c-0.4-0.4-0.6-0.9-1.2-1c-2.5-0.7-5-1-7.6-1.1c-4.5-0.2-9.1,0.3-13.4,1.9
	c-0.6,0.2-1.2,0.4-1.8,0.7c-0.3,0.1-1.3,0.4-1.4,0.7c-0.2,0.3-0.4,0.7-0.6,1c-0.6,0.9-1.1,1.8-1.7,2.7c4.9-2.7,10.6-4.5,16.2-4.4
	C42.1,36.1,46.5,36.4,50.9,37.8z"/>
<path d="M23.4,36.2c-0.4,0.2-0.6,0.9-0.8,1.2c-0.4,0.7-0.9,1.4-1.3,2.1c-0.2,0.4-0.8,1.1-0.1,1.4c0.3,0.1,0.8-0.2,1.1-0.4
	c4.1-2.1,8.6-3.7,13.2-4c2.7-0.2,5.6,0,8.3,0.3c1.6,0.1,3.1,0.4,4.7,0.7c0.6,0.1,2.4,1,2.9,0.7c0.8-0.6-1.6-2.8-2-3.2
	c-0.7-0.8-1-1-2-1.2c-1.8-0.4-3.6-0.7-5.4-0.8C35.6,32.5,29.1,33.3,23.4,36.2C23.3,36.2,35.3,30.2,23.4,36.2z M47.9,35.1
	c0.5,0.5,0.9,1.1,1.4,1.6c-3.6-1-7.4-1.2-11-1.3c-5.5-0.2-10.7,1.3-15.6,3.6c0.3-0.6,0.7-1.1,1-1.7c0.3-0.5,0.8-0.6,1.3-0.9
	c1.5-0.7,3-1.2,4.6-1.6c2.8-0.7,5.7-1.1,8.6-1.1C41.4,33.9,44.8,34.2,47.9,35.1C48,35.2,46.6,34.8,47.9,35.1z"/>
<path d="M41.7,41.8c-0.6,0.1-0.9,0.8-1,1.4c-0.1,0.4,0.4,0.8,0.7,0.5c0.2-0.2,0.2-0.7,0.4-0.9c0.1-0.1,1.4,1.7,1.4,0.4
	C43.2,42.5,42.3,41.7,41.7,41.8z"/>
<path d="M30.9,42.1c-0.7,0-1.5,1.2-1.4,1.8c0.1,0.4,0.7,0.5,0.8,0.1c0.1-0.3,0.3-0.8,0.6-1c0.2-0.1,1.5,1.7,1.5,0.4
	C32.4,42.9,31.5,42.1,30.9,42.1C30.3,42.2,31.7,42.1,30.9,42.1z"/>
<path d="M24.5,54.5c0,0.7,1.3,0.5,1.7,0.6c0.4,0,1.9,0.4,2-0.4c0-0.7-1.3-0.5-1.7-0.6C26,54.1,24.5,53.7,24.5,54.5z"/>
<path d="M24.5,55.9c0,0.8,3,1,3,0.2C27.5,55.3,24.5,55.1,24.5,55.9C24.5,56.1,24.5,55.6,24.5,55.9z"/>
<path fill="#9FA0A0" d="M38.3,60.3c1.3,0,1.3,2.2,0,2.2S37,60.3,38.3,60.3z"/>
<path d="M36.9,61.4c0,2,2.9,2,2.9,0C39.8,59.5,36.9,59.5,36.9,61.4z M37.8,61.4c0-0.8,1.2-0.8,1.2,0S37.8,62.2,37.8,61.4z"/>
<path fill="#9FA0A0" d="M38.2,55.4c1.3,0,1.3,2.2,0,2.2C36.9,57.6,36.9,55.4,38.2,55.4z"/>
<path d="M36.8,56.5c0,2,2.9,2,2.9,0C39.6,54.5,36.8,54.5,36.8,56.5z M37.6,56.5c0-0.8,1.2-0.8,1.2,0C38.8,57.3,37.6,57.3,37.6,56.5z
	"/>
<path d="M35.3,25.7c-0.1,0.6,0.8,0.6,1.1,0.8c0.7,0.3,1.4,0.7,2.1,1.2c0.9,0.7,1.6,1.7,2.1,2.7c0.3,0.7,0.6,1.4,0.7,2.1
	c0.1,0.3,0,0.8,0.4,1c0.3,0.1,0.6-0.2,0.6-0.5c-0.4-2.5-1.6-4.9-3.8-6.4C38.2,26.4,35.5,24.6,35.3,25.7C35.3,26,35.4,25.5,35.3,25.7
	z"/>
<path fill="#FFFFFF" d="M26.5,65.5c2.5,0,2.5,5.2,0,5.2S24,65.5,26.5,65.5z"/>
<path d="M24.2,68.1c0,1.3,0.8,3.1,2.3,3.1s2.3-1.8,2.3-3.1S28.1,65,26.5,65C25,65,24.2,66.8,24.2,68.1z M25.1,68.1
	c0-0.8,0.4-2.2,1.4-2.2c1,0,1.4,1.3,1.4,2.2c0,0.8-0.4,2.2-1.4,2.2C25.5,70.3,25.1,68.9,25.1,68.1z"/>
<path d="M33.8,25.7c-1,0.3-1.9,1-2.6,1.8c-0.7,0.8-1.3,1.9-1.7,2.9C29.3,31,28,34.9,29,35c0.7,0.1,0.6-1.7,0.7-2.1
	c0.1-0.7,0.3-1.5,0.6-2.2c0.4-1.1,1-2.1,1.8-2.9c0.4-0.4,0.9-0.8,1.5-1.1c0.1-0.1,0.3-0.1,0.4-0.2C34.5,26.4,34.4,25.5,33.8,25.7
	C33.6,25.7,34,25.6,33.8,25.7z"/>
<path fill="#9FA0A0" d="M27.9,52.3c3.1-0.1,2.7,4,2.5,6c-0.3,2.9-0.7,5.9-1.2,8.8c-1.3-0.4-2.6-0.8-4-1.1c-0.1,0-1-0.2-1-0.3
	c0.1-0.5,0.1-0.9,0.2-1.4c0.3-2,0.7-3.9,1.1-5.9C26.1,56.4,26.7,54.1,27.9,52.3z"/>
<path d="M27.8,51.9c-0.6,0-1.1,1.6-1.3,2.1c-0.4,0.9-0.7,1.9-1,2.8c-0.5,1.9-0.9,3.8-1.3,5.8c-0.2,1-0.3,2.1-0.5,3.1
	c-0.1,0.8,2.6,1.2,3.2,1.4c0.6,0.2,2.5,1.1,2.6,0.1c0.3-1.5,0.5-3,0.7-4.6C30.7,60,32.6,51.5,27.8,51.9z M28.1,52.8
	c2.9,0.3,1.9,5,1.7,6.9c-0.3,2.3-0.6,4.6-1,6.9c-1.3-0.4-2.5-0.7-3.8-1.1c-0.5-0.2-0.3-0.5-0.2-1c0.1-0.7,0.2-1.3,0.3-2
	C25.7,59.2,26.3,55.6,28.1,52.8C28.4,52.8,26.1,56.1,28.1,52.8z"/>
<path fill="#FFFFFF" d="M30.9,50.2c2.4,3.4,2,8-0.3,11.3c0.3-3.4,0.1-9.1-3.7-10.5C27.9,50,29.7,50,30.9,50.2z"/>
<path d="M26.6,50.6c-0.6,0.6,0.7,1,1,1.2c0.5,0.4,0.9,0.9,1.3,1.4c0.7,1.2,1,2.6,1.2,3.9c0.1,1.1,0.2,2.2,0.2,3.3c0,0.3,0,0.6,0,0.9
	c0,0.1,0,0.2,0.1,0.4c0.4,0.7,1-0.4,1.1-0.6c1.9-3.1,2-6.9,0.4-10.1c-0.6-1.1-0.9-1.3-2.3-1.3C28.6,49.7,27.3,49.9,26.6,50.6
	C26.5,50.7,26.7,50.5,26.6,50.6z M30.7,50.6c1.8,2.7,1.9,6.2,0.4,9.1c0-3-0.5-7.1-3.3-8.8C28.7,50.6,29.7,50.5,30.7,50.6
	C31,51.2,29.3,50.5,30.7,50.6z"/>
<path d="M24.7,45.8c2.2,0,2.2,3.7,0,3.7S22.5,45.8,24.7,45.8z"/>
<path d="M22.6,47.6c0,3,4.3,3,4.3,0C26.9,44.6,22.6,44.6,22.6,47.6z M23.4,47.6c0-1.8,2.6-1.8,2.6,0C26,49.4,23.4,49.4,23.4,47.6z"
	/>
<path d="M47,45.5c2.2,0,2.2,3.7,0,3.7C44.8,49.2,44.8,45.5,47,45.5z"/>
<path d="M44.9,47.4c0,3,4.3,3,4.3,0C49.2,44.4,44.9,44.4,44.9,47.4z M45.7,47.4c0-1.8,2.6-1.8,2.6,0C48.3,49.2,45.7,49.2,45.7,47.4z
	"/>
<path d="M21.5,51.8c0.9,0,0.9,1.4,0,1.4C20.6,53.3,20.6,51.8,21.5,51.8z"/>
<path d="M20.4,52.5c0,1.5,2.2,1.5,2.2,0S20.4,51,20.4,52.5z M21.2,52.5c0-0.3,0.5-0.3,0.5,0C21.7,52.9,21.2,52.9,21.2,52.5z"/>
<path d="M50.9,50.6c0.9,0,0.9,1.4,0,1.4S50.1,50.6,50.9,50.6z"/>
<path d="M49.8,51.3c0,1.5,2.2,1.5,2.2,0S49.8,49.8,49.8,51.3z M50.7,51.3c0-0.3,0.5-0.3,0.5,0C51.1,51.6,50.7,51.6,50.7,51.3z"/>
<path d="M22.9,49.2c1.5,0,1.5,2.5,0,2.5S21.4,49.2,22.9,49.2z"/>
<path d="M21.3,50.5c0,2.2,3.1,2.2,3.1,0C24.5,48.3,21.3,48.3,21.3,50.5z M22.2,50.5c0-1,1.4-1,1.4,0C23.6,51.5,22.2,51.5,22.2,50.5z
	"/>
<path d="M49.2,48.6c1.5,0,1.5,2.5,0,2.5S47.7,48.6,49.2,48.6z"/>
<path d="M49.1,48.2c-2.2,0.1-1.7,3.9,0.5,3.3C51.4,51,51,48.1,49.1,48.2C48.7,48.2,50,48.1,49.1,48.2z M48.7,50.4
	c-0.7-0.6,0.2-1.8,1-1.1C50.3,49.9,49.4,51.1,48.7,50.4C48.6,50.3,48.9,50.6,48.7,50.4z M50.8,49.8L50.8,49.8L50.8,49.8L50.8,49.8z"
	/>
<path fill="#B5B5B6" d="M36.1,49.4c1.9,0,2.9-0.9,3.1-2.9c-1.9,0-3.9-0.1-5.8-0.1c-0.2,0.2,0.4,1.4,0.5,1.5
	C34.3,48.7,35.1,49.4,36.1,49.4C37,49.3,33.8,49.4,36.1,49.4z"/>
<path d="M33.1,46c-0.4,0.5,0.4,2,0.7,2.5c0.6,0.8,1.4,1.3,2.4,1.3c1.4,0,2.7-0.5,3.2-1.9c0.2-0.6,0.7-1.9-0.3-1.9
	c-0.6,0-1.3,0-1.9,0c-0.9,0-1.7,0-2.6-0.1C34.2,45.9,33.4,45.7,33.1,46C33,46.1,33.2,45.9,33.1,46z M34,46.8c1.6,0,3.2,0.1,4.7,0.1
	c-0.2,1.3-1,1.9-2.3,2C35,48.9,34.3,48.1,34,46.8C34.8,46.8,34.2,47.6,34,46.8z M36.1,48.9L36.1,48.9C36.1,48.9,36.1,48.9,36.1,48.9
	z"/>
<g>
	<path fill="#FFFFFF" d="M43.7,53.1c-0.1,0.2-0.7,1.7-1,1.4c-0.5-0.4-0.9-1.4-1-1.9C41.7,51.1,44.4,51.4,43.7,53.1z"/>
	<path d="M41.5,51.8c-0.5,0.9,0.2,2.2,0.7,2.9c0.6,0.7,1.1,0.2,1.4-0.4c0.5-0.8,1-2.1,0.1-2.8C43.1,50.9,42,51.1,41.5,51.8
		C41.3,52.2,41.8,51.4,41.5,51.8z M42.3,52.9C42,52.3,42.5,52,43,52.1c0.8,0.2,0,1.4-0.2,1.8C42.6,53.6,42.4,53.2,42.3,52.9
		C42.2,52.8,42.5,53.4,42.3,52.9z M44.1,53.3L44.1,53.3L44.1,53.3L44.1,53.3z"/>
	<path fill="#FFFFFF" d="M41.9,55.8c0.1-0.2,0.7-1.7,1-1.4c0.5,0.4,0.9,1.4,1,1.9C43.9,57.8,41.2,57.5,41.9,55.8z"/>
	<path d="M41.5,55.6c-1,2.4,2.9,2.9,2.8,0.6c0-0.7-0.6-2.1-1.3-2.3C42.2,53.7,41.7,55.2,41.5,55.6C41.4,55.9,42,54.5,41.5,55.6z
		 M42.3,56.6c-0.3-0.4,0.3-1.3,0.5-1.6c0.3,0.4,0.6,0.9,0.6,1.4C43.4,56.9,42.5,57,42.3,56.6C42.2,56.5,42.4,56.7,42.3,56.6z
		 M41.5,55.6L41.5,55.6L41.5,55.6z"/>
	<path fill="#FFFFFF" d="M44.1,55.4c-0.2-0.1-1.6-0.7-1.3-1.1c0.3-0.5,1.2-1,1.8-1C46,53.3,45.7,56.2,44.1,55.4
		C43.4,55.1,44.9,55.8,44.1,55.4z"/>
	<path d="M44,53c-0.5,0.2-1.8,0.8-1.6,1.6c0.2,0.7,1.5,1.4,2.2,1.4C46.7,56.2,46.2,51.9,44,53C42.9,53.6,44.5,52.8,44,53z
		 M44.3,53.9c0.7-0.3,0.9,0.5,0.7,1c-0.3,0.6-1.3-0.2-1.6-0.4C43.7,54.2,44,54,44.3,53.9C44.5,53.8,43.9,54.1,44.3,53.9z"/>
	<path fill="#FFFFFF" d="M41.3,53.4c0.2,0.1,1.6,0.7,1.3,1.1c-0.3,0.5-1.2,1-1.8,1C39.4,55.6,39.7,52.6,41.3,53.4z"/>
	<path d="M40.1,53c-0.7,0.5-0.8,1.7-0.3,2.4c0.7,1,1.8,0.4,2.6-0.1c0.6-0.4,1-0.9,0.4-1.5C42.2,53.2,40.9,52.4,40.1,53z M40.6,55
		c-0.3-0.2-0.3-1,0-1.2c0.4-0.3,1.2,0.4,1.5,0.6C41.8,54.6,41,55.3,40.6,55C40.4,54.9,40.7,55.1,40.6,55z"/>
	<path fill="#FFFFFF" d="M42.8,53.5c1.2,0,1.2,2,0,2C41.6,55.5,41.6,53.5,42.8,53.5z"/>
	<path d="M41.5,54.5c0,1.8,2.7,1.8,2.7,0S41.5,52.6,41.5,54.5z M42.3,54.5c0-0.7,1-0.7,1,0C43.3,55.1,42.3,55.1,42.3,54.5z"/>
</g>
<g>
	<path fill="#D3D3D4" d="M87.3,39.7c0-0.4-0.1-0.7-0.1-1.1c0.3,0.1,0.6,0.2,0.9,0.3c0-0.8-0.6-1.7-1.2-2.3c-0.5-0.4-1.6-1.4-2.3-1.1
		c-0.5,0.2,0.3,1.9,0.4,2.1C85.5,38.6,86.3,39.6,87.3,39.7z"/>
</g>
<g>
	<path fill="#D3D3D4" d="M77.3,22.4c0-0.4-0.1-0.7-0.1-1.1c0.3,0.1,0.6,0.2,0.9,0.3c0-0.8-0.6-1.7-1.2-2.3c-0.5-0.4-1.6-1.4-2.3-1.1
		c-0.5,0.2,0.3,1.9,0.4,2.1C75.5,21.3,76.3,22.3,77.3,22.4z"/>
</g>
<g>
	<path fill="#D3D3D4" d="M63.6,16.6c0-0.4-0.1-0.7-0.1-1.1c0.3,0.1,0.6,0.2,0.9,0.3c0-0.8-0.6-1.7-1.2-2.3c-0.5-0.4-1.6-1.4-2.3-1.1
		c-0.5,0.2,0.3,1.9,0.4,2.1C61.8,15.4,62.5,16.4,63.6,16.6z"/>
</g>
<g>
	<path fill="#D3D3D4" d="M29.3,18.4c0.1-0.3,0.3-0.6,0.4-1c0.2,0.3,0.4,0.5,0.6,0.8c0.5-1,0.3-2.3-0.1-3.3c-0.1-0.3-0.7-1.8-1.3-1.6
		c-0.5,0.1-0.6,1.7-0.6,2.1C28.3,16.4,28.5,17.7,29.3,18.4z"/>
</g>
<g>
	<path fill="#D3D3D4" d="M51,23.8c0.3-0.2,0.6-0.3,0.9-0.5c0,0.3,0,0.7,0.1,1c0.9-0.4,1.4-1.5,1.6-2.4c0.1-0.4,0.5-2.2-0.1-2.4
		c-0.5-0.2-1.4,1.1-1.6,1.3C51.2,21.7,50.7,22.8,51,23.8z"/>
</g>
<g>
	<path fill="#D3D3D4" d="M13.5,29.4c0.3-0.2,0.6-0.3,0.9-0.5c0,0.3,0,0.7,0.1,1c0.9-0.4,1.4-1.5,1.6-2.4c0.1-0.4,0.5-2.2-0.1-2.4
		c-0.5-0.2-1.4,1.1-1.6,1.3C13.7,27.2,13.3,28.3,13.5,29.4z"/>
</g>
<g>
	<g>
		<path fill="#D3D3D4" d="M19.6,39.4c-0.3,0.1-0.6,0.2-0.9,0.3c0-0.3,0.1-0.7,0.1-1c-0.8,0.2-1.5,1-1.8,1.7
			c-0.2,0.4-1.1,2.3-0.5,2.8c0.4,0.3,1.6-0.7,1.8-1C19.1,41.5,19.7,40.5,19.6,39.4z"/>
	</g>
	<g>
		<path fill="#D3D3D4" d="M21.3,45.7c-0.2-0.3-0.4-0.5-0.6-0.8c0.3-0.1,0.6-0.2,0.9-0.2c-0.5-0.8-1.6-1.2-2.5-1.2
			c-0.4,0-2.1-0.1-2.2,0.5c-0.1,0.6,1.2,1.3,1.5,1.5C19.3,45.8,20.4,46.1,21.3,45.7z"/>
	</g>
	<g>
		<path fill="#D3D3D4" d="M16.6,49.5c0.2-0.3,0.3-0.6,0.5-0.9c0.2,0.3,0.4,0.5,0.5,0.8c0.6-0.9,0.4-2.3,0-3.3
			c-0.1-0.3-0.6-1.8-1.2-1.7c-0.5,0.1-0.7,1.7-0.7,2.1C15.7,47.5,15.8,48.7,16.6,49.5z"/>
	</g>
	<g>
		<path fill="#D3D3D4" d="M11.5,45.8c0.3,0,0.7,0.1,1,0.1c-0.2,0.3-0.3,0.6-0.5,0.9c0.9,0.2,1.9-0.3,2.6-0.9c0.5-0.4,1.4-1.2,1.3-2
			c0-0.6-1.7-0.1-2,0C12.9,44.2,11.9,44.8,11.5,45.8z"/>
	</g>
	<g>
		<path fill="#D3D3D4" d="M12.5,39.5c0.1,0.3,0.2,0.7,0.3,1c-0.3-0.1-0.6-0.1-0.9-0.2c0.1,0.8,0.8,1.6,1.5,2
			c0.3,0.2,2.1,1.3,2.5,0.7c0.3-0.5-0.6-1.7-0.8-2C14.4,40.3,13.6,39.5,12.5,39.5z"/>
	</g>
</g>
<g>
	<g>
		<path fill="#D3D3D4" d="M47.9,9.2c-0.3,0.1-0.6,0.2-0.9,0.3c0-0.3,0.1-0.7,0.1-1c-0.8,0.2-1.5,1-1.8,1.7c-0.2,0.4-1.1,2.3-0.5,2.8
			c0.4,0.3,1.6-0.7,1.8-1C47.4,11.3,48,10.3,47.9,9.2z"/>
	</g>
	<g>
		<path fill="#D3D3D4" d="M49.6,15.4c-0.2-0.3-0.4-0.5-0.6-0.8c0.3-0.1,0.6-0.2,0.9-0.2c-0.5-0.8-1.6-1.2-2.5-1.2
			c-0.4,0-2.1-0.1-2.2,0.5c-0.1,0.6,1.2,1.3,1.5,1.5C47.6,15.6,48.7,15.9,49.6,15.4z"/>
	</g>
	<g>
		<path fill="#D3D3D4" d="M44.9,19.2c0.2-0.3,0.3-0.6,0.5-0.9c0.2,0.3,0.4,0.5,0.5,0.8c0.6-0.9,0.4-2.3,0-3.3
			c-0.1-0.3-0.6-1.8-1.2-1.7c-0.5,0.1-0.7,1.7-0.7,2.1C44,17.2,44.1,18.4,44.9,19.2z"/>
	</g>
	<g>
		<path fill="#D3D3D4" d="M39.8,15.6c0.3,0,0.7,0.1,1,0.1c-0.2,0.3-0.3,0.6-0.5,0.9c0.9,0.2,1.9-0.3,2.6-0.9c0.5-0.4,1.4-1.2,1.3-2
			c0-0.6-1.7-0.1-2,0C41.2,13.9,40.2,14.5,39.8,15.6z"/>
	</g>
	<g>
		<path fill="#D3D3D4" d="M40.8,9.2c0.1,0.3,0.2,0.7,0.3,1c-0.3-0.1-0.6-0.1-0.9-0.2c0.1,0.8,0.8,1.6,1.5,2c0.3,0.2,2.1,1.3,2.5,0.7
			c0.3-0.5-0.6-1.7-0.8-2C42.7,10,41.9,9.2,40.8,9.2z"/>
	</g>
</g>
<g>
	<g>
		<path fill="#D3D3D4" d="M88.5,45.6c-0.3,0.1-0.6,0.2-0.9,0.3c0-0.3,0.1-0.7,0.1-1c-0.8,0.2-1.5,1-1.8,1.7
			c-0.2,0.4-1.1,2.3-0.5,2.8c0.4,0.3,1.6-0.7,1.8-1C88,47.7,88.6,46.7,88.5,45.6z"/>
	</g>
	<g>
		<path fill="#D3D3D4" d="M90.2,51.8c-0.2-0.3-0.4-0.5-0.6-0.8c0.3-0.1,0.6-0.2,0.9-0.2C90,50,88.9,49.6,88,49.5
			c-0.4,0-2.1-0.1-2.2,0.5c-0.1,0.6,1.2,1.3,1.5,1.5C88.2,52,89.3,52.3,90.2,51.8z"/>
	</g>
	<g>
		<path fill="#D3D3D4" d="M85.5,55.6c0.2-0.3,0.3-0.6,0.5-0.9c0.2,0.3,0.4,0.5,0.5,0.8c0.6-0.9,0.4-2.3,0-3.3
			c-0.1-0.3-0.6-1.8-1.2-1.7c-0.5,0.1-0.7,1.7-0.7,2.1C84.6,53.6,84.7,54.9,85.5,55.6z"/>
	</g>
	<g>
		<path fill="#D3D3D4" d="M80.4,52c0.3,0,0.7,0.1,1,0.1c-0.2,0.3-0.3,0.6-0.5,0.9c0.9,0.2,1.9-0.3,2.6-0.9c0.5-0.4,1.4-1.2,1.3-2
			c0-0.6-1.7-0.1-2,0C81.8,50.3,80.8,51,80.4,52z"/>
	</g>
	<g>
		<path fill="#D3D3D4" d="M81.4,45.7c0.1,0.3,0.2,0.7,0.3,1c-0.3-0.1-0.6-0.1-0.9-0.2c0.1,0.8,0.8,1.6,1.5,2
			c0.3,0.2,2.1,1.3,2.5,0.7c0.3-0.5-0.6-1.7-0.8-2C83.3,46.4,82.5,45.6,81.4,45.7z"/>
	</g>
</g>
<path fill="#767676" d="M76.5,49.9c3.2,0,3.3,5.1,3.4,7.2c0,0.8,0.1,10.7-0.3,10.7c-0.7,0-6.4,0.3-6.4,0.1c-0.3-2.7-0.3-5.4,0-8.1
	C73.5,56.3,74.1,52.4,76.5,49.9z"/>
<path d="M76.5,49.4c-0.6,0-1.4,1.6-1.7,2.1c-0.5,0.9-0.8,1.8-1.1,2.8c-0.6,2-0.9,4-1,6c-0.2,2.5-0.2,5.1,0.1,7.7
	c0.1,0.8,2.9,0.4,3.3,0.3c0.8,0,1.5,0,2.3-0.1c0.3,0,0.9,0.1,1.2,0c0.8,0,0.6-3,0.6-3.5c0.1-2.5,0.2-4.9,0.1-7.4
	C80.3,55,80.2,49.2,76.5,49.4C76.4,49.4,76.7,49.4,76.5,49.4z M73.5,63.5c0-3.8,0.3-8,2.1-11.4c0.2-0.3,0.9-1.8,1.3-1.7
	c0.3,0.1,0.6,0.2,0.9,0.4c1.3,1,1.6,3,1.7,4.6c0.2,2.6,0.2,5.1,0.1,7.7c0,1-0.1,2.1-0.1,3.1c0,0.3,0,0.7-0.1,1
	c0,0.2-0.3,0.2-0.6,0.2c-1.4,0-2.8,0.1-4.2,0.1c-0.7,0-0.9,0.2-0.9-0.5C73.5,65.8,73.5,64.6,73.5,63.5z"/>
<path fill="#D3D3D4" d="M67.9,81c-0.2,0.7,0,1.5,0.4,2.1c0.5,0.6,1.3,0.9,2,1c0.9,0.1,2.9,0.3,3.5-0.5c0.5-0.7-1-2.5-1.7-2.5
	C70.8,81.1,69.4,81,67.9,81z"/>
<path d="M67.5,80.9c-0.5,2,1,3.5,2.9,3.8c1.3,0.2,5.1,0.2,3.8-2.1c-0.4-0.7-1-1.3-1.7-1.7c-0.3-0.2-1.1-0.1-1.4-0.1
	C70.6,80.6,67.7,80.1,67.5,80.9C67.5,80.9,67.6,80.6,67.5,80.9z M68.7,82.8c-0.3-0.4-0.4-0.9-0.4-1.4c0.8,0,1.7,0.1,2.5,0.1
	c0.4,0,0.7,0,1.1,0c0.5,0,0.9,0.6,1.3,1c1,1.1-0.3,1.2-1.3,1.2C70.8,83.8,69.4,83.7,68.7,82.8C68.4,82.4,69.3,83.6,68.7,82.8z"/>
<path fill="#D3D3D4" d="M61.3,80.6C60.7,81,59,82.5,60,83.3c1.3,1.1,4.1,0.7,5.1-0.7c0.2-0.3,1-1.7,0.3-1.8
	C64.1,80.8,62.7,80.7,61.3,80.6z"/>
<path d="M61.1,80.2c-1,0.8-2.9,2.9-0.9,3.7c2,0.9,4.8,0.5,5.7-1.7c0.1-0.4,0.5-1.4,0.1-1.7c-0.3-0.2-0.9-0.1-1.2-0.1
	c-0.7-0.1-1.4-0.1-2.2-0.2C62.2,80.2,61.4,79.9,61.1,80.2C60.8,80.4,61.2,80.1,61.1,80.2z M60.9,83.2c-1.6-0.4,0-2.2,1-2.1
	c1.1,0.1,2.2,0.2,3.4,0.2C64.8,83.4,62.7,83.6,60.9,83.2C60.5,83.1,62.5,83.6,60.9,83.2z"/>
<path fill="#FFFFFF" d="M72.5,78.2c0.1-1.9,0.2-3.8,0.3-5.7c-1,0.1-2.1,0.3-3.1,0.4c-0.5,0.1-1,0.1-1.4,0.2c-0.1,0-0.1,0.6-0.1,0.7
	c0,1.3-0.1,2.6-0.1,3.9c0,0.7-0.1,0.8,0.7,0.9C69.9,78.9,71.3,78.7,72.5,78.2z"/>
<path d="M72.7,72c-0.8,0.1-1.5,0.2-2.3,0.3c-0.6,0.1-1.7,0-2.3,0.3c-0.6,0.1-0.4,1.6-0.4,2c0,1.1-0.1,2.2-0.1,3.3
	c0,0.2-0.1,0.5,0.1,0.7c0.5,0.7,2.4,0.5,3.1,0.4c0.5-0.1,2.1-0.2,2.2-1c0-0.3,0-0.6,0-0.9c0.1-1.1,0.1-2.2,0.2-3.3
	C73.1,73.6,73.4,71.9,72.7,72z M72.3,73c-0.1,1.3-0.1,2.6-0.2,3.9c0,0.3,0,0.5,0,0.8c0,0.4-0.8,0.4-1.1,0.5
	c-0.6,0.1-2.5,0.4-2.5-0.4c0-1.4,0.1-2.7,0.1-4.1C68.6,73.2,71.7,73.1,72.3,73C72.2,73.9,71.5,73.1,72.3,73z"/>
<path fill="#FFFFFF" d="M68,78.5c0,0.8-0.1,1.6-0.1,2.5c0,1.2,2.3,0.9,2.8,0.7c0.5-0.1,1.6-0.2,1.6-0.8c0-0.9,0.1-1.8,0.1-2.6
	C71,78.8,69.4,79,68,78.5z"/>
<path d="M72.3,77.8c-1.2,0.5-2.6,0.7-3.9,0.4c-1-0.3-0.9,0.4-0.9,1.2c0,0.5-0.2,1.4,0,1.9c0.4,0.8,1.2,1.1,2,1.1
	c0.6,0,3.2-0.2,3.3-1.2C72.8,80.7,73.2,77.4,72.3,77.8C70.8,78.4,72.4,77.7,72.3,77.8z M72,78.8c0,0.7-0.1,1.3-0.1,2
	c-0.6,0.2-1.2,0.4-1.8,0.5c-0.5,0.1-1.3,0.1-1.7-0.3c-0.3-0.4-0.1-1.5-0.1-1.9C69.6,79.4,70.8,79.2,72,78.8
	C72,79.5,70.7,79.3,72,78.8z"/>
<path fill="#FFFFFF" d="M65.6,78.2c0-1.8,0-3.6,0-5.5c0-0.3-4-1-4.6-1.2c0,1.4,0.1,2.8,0.1,4.2c0,0.6,0,1.2,0.1,1.8
	c0,0.3,1.4,0.6,1.6,0.6C63.8,78.4,64.7,78.4,65.6,78.2z"/>
<path d="M60.8,71.3c-0.4,0.4-0.1,1.7-0.1,2.2c0,1.1,0.1,2.3,0.1,3.4c0,0.3,0,0.5,0,0.8c0,0.7,1.7,1,2.2,1.1c0.7,0.1,2.3,0.4,2.9-0.1
	c0.2-0.2,0.2-0.6,0.2-0.8c0-1.1,0-2.2,0-3.3c0-0.4,0.3-2.1-0.3-2.2c-0.6-0.4-1.8-0.4-2.5-0.6C62.8,71.5,61.2,70.9,60.8,71.3z
	 M61.5,72.2c0.6,0.1,3.7,0.6,3.7,1.1c0,1.4,0,2.7,0,4.1c0,0.4,0.1,0.5-0.4,0.5c-0.6,0.1-1.2,0-1.8-0.1c-0.2,0-1.4-0.3-1.4-0.5
	c0-0.2,0-0.4,0-0.7C61.6,75.1,61.6,73.7,61.5,72.2C62.3,72.4,61.5,73.1,61.5,72.2z"/>
<path fill="#FFFFFF" d="M61.3,77.6c0,0.8,0.1,1.6,0.1,2.4c0,0.8,0.6,0.9,1.4,1.1c0.5,0.2,2.9,0.7,2.9-0.4c0-0.8,0-1.7,0-2.5
	C64.2,78.6,62.6,78.3,61.3,77.6z"/>
<path d="M61,77.2c-0.4,0.3-0.2,1.1-0.2,1.5c0,0.6,0,1.2,0.1,1.9c0,1,2.9,1.4,3.6,1.3c1.9-0.2,1.5-1.7,1.5-3.2c0-0.9-0.3-0.9-1.2-0.8
	c-0.7,0.1-1.4,0-2.1-0.2C62.4,77.6,61.4,77,61,77.2C60.9,77.3,61.1,77.1,61,77.2z M61.7,78.3c1.1,0.5,2.3,0.6,3.5,0.4
	c0,0.6,0,1.2,0,1.8c0,0.5-1.1,0.5-1.5,0.4c-0.6-0.1-1.2-0.3-1.8-0.6C61.5,80.2,61.7,78.8,61.7,78.3C62.8,78.8,61.7,79,61.7,78.3z
	 M65.7,78.7C65.7,78.7,65.7,78.7,65.7,78.7C65.7,78.7,65.7,78.7,65.7,78.7z"/>
<path fill="#9FA0A0" d="M60.2,72.9c-0.2-3.4-0.3-6.9-0.5-10.3c4.7,0,9.5,0.1,14.2,0.1c0,2.1,0,4.2-0.1,6.3c0,1.1,0,2.2,0,3.4
	c0,0.6,0,0.5-0.6,0.5C68.9,72.9,64.5,72.9,60.2,72.9z"/>
<path d="M59.4,62.3c-0.4,0.5,0,2.1,0,2.7c0.1,1.6,0.2,3.3,0.2,4.9c0,1,0.1,2,0.1,3c0,0.7,1.4,0.5,1.9,0.5c3.1,0,6.3,0,9.4,0
	c0.9,0,1.8,0,2.8,0c0.7,0,0.5-1.5,0.5-2c0-2.5,0-5.1,0.1-7.6c0-0.4,0.2-1.6-0.4-1.6c-0.6,0-1.1,0-1.7,0c-2.6,0-5.2,0-7.8,0
	c-1.2,0-2.3,0-3.5,0C60.6,62.1,59.7,61.9,59.4,62.3z M60.1,63c4.5,0,8.9,0,13.4,0.1c0,2.9-0.1,5.7-0.1,8.6c0,0.3,0.1,0.7-0.2,0.7
	c-0.4,0-0.9,0-1.3,0c-1.6,0-3.3,0-4.9,0c-1.6,0-3.2,0-4.8,0c-0.5,0-0.9,0-1.4,0c-0.4,0-0.3-0.2-0.3-0.6C60.4,68.9,60.3,66,60.1,63
	C61,63,60.2,63.9,60.1,63z"/>
<path d="M66.3,65.6c0,1.3,0,2.7,0,4c0,0.8,0,1.6,0,2.4c0,0.2,0,0.4,0,0.5c0,0.6,0.9,0.6,0.9,0c0.1-0.3,0-0.9,0-1.3
	c0-0.9,0-1.8,0-2.7c0-0.8,0-1.6,0-2.4c0-0.2,0-0.4,0-0.5C67.2,65.1,66.3,65,66.3,65.6z"/>
<path fill="#9FA0A0" d="M58.7,53.7c-0.7,1.4-1.3,3-1.5,4.5c-0.1,0.9,0,2,0.7,2.7c0.6,0.5,1.5,0.7,2.1,0.2c1.1-1.1,0.9-3.5,0.8-4.9
	c0-0.2,0-1.1-0.1-1.2C60,54.5,59.3,54.1,58.7,53.7z"/>
<path d="M58.6,53.3c-0.4,0.1-0.7,1.1-0.8,1.4c-0.4,1-0.7,2-0.9,3.1c-0.2,1.1-0.2,2.3,0.5,3.2c0.7,1,2.3,1.4,3.1,0.3
	c1.1-1.4,0.9-3.9,0.8-5.6c-0.1-0.6-0.1-0.9-0.6-1.2C60.2,54.1,59.1,53.1,58.6,53.3z M58.7,60.8c-2.3-0.9-0.5-5,0.2-6.5
	c0.5,0.3,1,0.6,1.4,0.9c0.1,0.9,0.2,1.9,0.1,2.8C60.3,59,60.2,61.4,58.7,60.8C58.2,60.7,59.2,61.1,58.7,60.8z"/>
<path fill="#767676" d="M59.4,51.2c0.3-0.9,0.6-1.8,0.9-2.8c0.6,0.3,1.2,0.6,1.9,0.9c0.7,0.3,0.7,0.2,0.5,0.9
	c-0.5,1.5-1,2.9-1.5,4.4C60.5,53.5,60,52.4,59.4,51.2z"/>
<path d="M60.1,48c-0.5,0.2-0.7,1.7-0.8,2.1c-0.2,0.6-0.4,1-0.1,1.6c0.4,0.8,0.8,1.6,1.2,2.4c0.2,0.4,0.8,1.5,1.1,0.5
	c0.5-1.5,1.1-3.1,1.6-4.6c0.2-0.7-0.2-0.9-0.8-1.1C61.9,48.8,60.6,47.8,60.1,48C60,48.1,60.2,48,60.1,48z M60.6,49.1
	c0.4,0.2,0.9,0.4,1.3,0.6c0.6,0.3,0.4,0.4,0.2,0.9c-0.3,1-0.7,1.9-1,2.9c-0.4-0.8-0.8-1.6-1.2-2.3C60.1,50.5,60.3,49.8,60.6,49.1
	C61,49.3,60.4,49.7,60.6,49.1z"/>
<g>
	<path fill="#9FA0A0" d="M67.3,66.8c2.9,0.1,5.8,0.2,8.7,0.3c-0.5-1.7-0.8-3.5-1.1-5.3c-0.4-2.3-0.7-4.6-0.9-6.9
		c-0.1-1.5-0.2-2.9-0.3-4.4c0-0.8,0.2-1.2-0.5-1.2c-3,0.1-5.9,0.2-8.9,0.3c-0.5,0-2-0.2-2.2,0.3c-0.5,1.3-1,2.6-1.4,4
		c-1.2,3.9-1.9,7.9-2.4,11.9c1.6,0.2,3.2,0.3,4.9,0.5c0.6,0.1,0.8,0.2,1.2-0.3c0.5-0.7,0.9-1.4,1.4-2.1C66.2,65,66.7,65.9,67.3,66.8
		z"/>
	<path d="M73.6,48.9c-2.5,0.1-5,0.2-7.5,0.3c-1.2,0-2.4,0.1-3.6,0.1c-0.9,0-1,1.3-1.3,2c-1.4,3.7-2.3,7.6-2.9,11.5
		c-0.1,0.6-0.9,3.5,0,3.6c0.3,0.1,0.9,0.1,1.3,0.1c1.4,0.1,2.9,0.3,4.3,0.4c0.9,0.1,1.4-1.4,1.8-2c0.4,0.7,0.9,2.4,1.8,2.4
		c1.1,0,2.3,0.1,3.4,0.1c1.3,0,2.7,0.1,4,0.1c0.5,0,1.8,0.3,1.5-0.6c-0.5-1.6-0.8-3.2-1-4.9c-0.3-1.9-0.6-3.9-0.8-5.8
		c-0.1-1.3-0.2-2.5-0.3-3.8C74.2,51.9,74.3,48.9,73.6,48.9z M62.3,50.3C62.3,50.3,62.3,50.3,62.3,50.3
		C62.2,50.3,62.3,50.3,62.3,50.3z M73.2,49.9c0.3,5.6,0.8,11.4,2.2,16.8c-1.7-0.1-3.5-0.1-5.2-0.2c-0.8,0-1.6-0.1-2.4-0.1
		c-0.6,0-0.9-1-1.2-1.5c-0.2-0.3-0.8-1.8-1.3-1.1c-0.5,0.7-1,1.4-1.4,2.2c-1.7-0.2-3.4-0.3-5.1-0.5c0.4-3.4,1-6.7,1.9-10
		c0.3-1,0.6-2,1-3c0.1-0.3,0.6-2.2,0.9-2.2C66.1,50.1,69.6,50,73.2,49.9C73.7,59.6,72.4,49.9,73.2,49.9z"/>
</g>
<path fill="#767676" d="M73.4,49.7c-2.4,3.4-2,8,0.3,11.3c-0.3-3.4-0.1-9.1,3.7-10.5C76.4,49.5,74.7,49.6,73.4,49.7z"/>
<path d="M73.4,49.2c-0.5,0.1-0.9,1.3-1.1,1.7c-0.6,1.4-1,3-0.9,4.6c0,0.9,0.2,1.9,0.5,2.7c0.2,0.7,0.9,2.9,1.7,3.2
	c0.8,0.2,0.5-1.5,0.5-1.9c0-2.4,0.2-5.3,1.7-7.2c0.4-0.5,0.9-0.9,1.4-1.2c0.5-0.2,0.9-0.6,0.4-1.1C76.4,49.1,74.7,49.1,73.4,49.2
	C73.2,49.3,76.5,48.9,73.4,49.2z M76.5,50.4c-2.8,1.7-3.3,5.8-3.3,8.8c-1.1-2.2-1.3-4.8-0.5-7.1c0.2-0.7,0.5-1.4,0.9-2
	C74.6,50.1,75.6,50.1,76.5,50.4C73.6,52.2,75.9,50.2,76.5,50.4z"/>
<path fill="#9FA0A0" d="M73.1,55.4c0,1.6,0.2,3.1,0.5,4.7c0.4,1.7,1.7,4.2,3.5,1.9c1.5-1.9,0.5-5.1-0.3-7.1c-0.3-0.8-0.2-0.8-1-0.5
	C74.9,54.8,74,55.1,73.1,55.4z"/>
<path d="M76.4,53.7c-0.8,0.3-1.6,0.6-2.4,0.9c-0.7,0.3-1.4,0.3-1.3,1.2c0.1,2.2,0.2,5,1.5,6.8c0.9,1.2,2.3,0.9,3.2-0.2
	c0.8-1,0.9-2.3,0.8-3.6C78.2,58.3,77.4,53.4,76.4,53.7z M76.3,54.7c0.6,1.6,1.2,3.4,1.1,5.1c-0.1,1.1-1.5,3.8-2.6,2
	c-0.8-1.3-1-3.2-1.1-4.7c0-0.4-0.1-0.8-0.1-1.1c0-0.4,0.3-0.4,0.6-0.5C74.9,55.3,75.6,55,76.3,54.7C76.6,55.6,75.8,54.9,76.3,54.7z"
	/>
<path fill="#FFFFFF" d="M62.8,48.4c-1,1.8-0.9,3.9,1.5,4.2c2.1,0.3,2.5-1.6,2-3.3c0.1,1.6,0.8,3.7,2.6,4c2.8,0.5,4.1-2,3.6-4.4
	c-0.1-0.4-0.5-0.3-0.9-0.3c-1.1,0-2.2-0.1-3.4-0.1C66.5,48.5,64.7,48.4,62.8,48.4z"/>
<path d="M62.5,48.1c-0.7,1.1-1.1,2.7-0.3,3.8c0.9,1.3,3.7,1.7,4.5,0.1c1.4,2.7,5.6,2.2,6.4-0.8c0.2-0.6,0.4-2.4-0.2-3
	c-0.3-0.2-0.9-0.1-1.3-0.1c-1.8,0-3.7-0.1-5.5-0.1c-0.8,0-1.6,0-2.3-0.1C63.4,47.9,62.7,47.8,62.5,48.1C62.4,48.2,62.6,48,62.5,48.1
	z M64.2,52c-1.5-0.3-1.9-1.4-1.3-2.7c0.2-0.6,0.3-0.5,0.9-0.5c0.8,0,1.6,0,2.4,0.1c-0.4,0.4,0.1,1.4,0,2C66,52,65.1,52.2,64.2,52
	C63.4,51.9,65,52.2,64.2,52z M66.8,49.1c0-0.1-0.1-0.1-0.1-0.2c1.6,0,3.1,0.1,4.7,0.1c0.4,0,0.8-0.1,0.9,0.3
	c0.1,0.8,0.1,1.6-0.3,2.3c-0.7,1.2-2.6,1.6-3.7,0.9C67,51.7,67.2,50.3,66.8,49.1z"/>
<path fill="#D3D3D4" d="M52.6,37.1c-0.8,1.5,4.8,1.2,5.7,1.3c3.5,0.1,7,0.5,10.4,0.8c3.5,0.3,7,0.7,10.5,0.7c0.8,0,1.9,0.1,2.6-0.2
	c0.4-0.2-0.1-0.5-0.3-0.7c-2.6-3-6.1-5.5-9.9-6.8C64.8,29.9,57.9,32.5,52.6,37.1z"/>
<path d="M52.3,36.7c-0.5,0.4-0.2,1.2,0.2,1.6c0.6,0.4,1.4,0.5,2.1,0.6c2.4,0.2,4.8,0.1,7.3,0.3c5.4,0.4,10.8,1.1,16.2,1.3
	c0.4,0,5.5,0.3,4.3-1.2c-2.4-3.1-5.8-5.6-9.4-7.1C65.7,29.1,58.1,31.7,52.3,36.7C52.3,36.8,61.1,29.1,52.3,36.7z M73.3,33.4
	c3,1.4,5.7,3.5,7.9,5.9c-1.9,0.2-4,0-5.9-0.1c-2.9-0.2-5.8-0.5-8.6-0.7c-2.9-0.3-5.7-0.5-8.6-0.6c-1.1,0-2.3,0.1-3.4-0.1
	c-0.5,0-1.2-0.1-1.6-0.4c2.9-2.5,6.3-4.6,10.1-5.3C66.6,31.4,70.2,32,73.3,33.4C77.3,35.2,66.6,30.3,73.3,33.4z"/>
<path fill="#FFFFFF" d="M78.4,40.5c1.3-0.5,2,0.6,1.9,1.9c-0.1,0.7-0.4,1.4-1.2,1.6c-0.1,0-1,0.1-1,0.1c-0.4,1.4-1.3,2.8-2.3,3.8
	c-2.6,2.5-6.3,3.1-9.8,2.7c-2.1-0.3-4.1-0.4-6-1.6c-1.7-1.2-2.7-3-2.8-5.1c-1.3,0.1-2.5-0.6-2.6-2c-0.1-1.4,1-2,2.2-1.7
	c-0.1-1.6,0.2-3.4,0.8-4.9c1.2-3,3.8-4.4,6.9-4.8c2.9-0.4,6,0.1,8.6,1.6C76.1,33.9,77.8,37.1,78.4,40.5z"/>
<path d="M62.3,30.5c-4.1,1.2-5.9,5.2-6,9.2c-3.1-0.2-2.7,4.2,0,4.6c0.3,0.1,0.4-0.1,0.5,0.3c0,0.2,0.1,0.5,0.1,0.7
	c0.1,0.5,0.3,0.9,0.5,1.3c0.4,0.9,1.1,1.7,1.9,2.4c1.9,1.5,4.2,1.7,6.6,2c2.3,0.3,4.7,0.2,6.8-0.7c2.5-1,4.5-3,5.5-5.4
	c0.3-0.6,1.2-0.4,1.8-0.9c0.8-0.8,1-2.5,0.3-3.4c-0.3-0.4-0.8-0.6-1.4-0.6c-0.4,0-0.5-1.2-0.6-1.6c-0.4-1.3-1-2.5-1.8-3.6
	C73.4,30.2,67.4,29,62.3,30.5C56.9,32,66.4,29.3,62.3,30.5z M57.1,40.6c0.2-0.2,0.1-0.7,0.1-0.9c0-0.6,0-1.1,0.1-1.7
	c0.2-1.6,0.8-3.2,1.8-4.4c3.2-3.9,10.4-3.4,14.2-0.7c2,1.4,3.4,3.5,4.2,5.9c0.2,0.6,0.3,1.3,0.4,1.9c0.1,0.5,0.6,0.3,0.9,0.3
	c1.2-0.1,1.3,1.7,0.6,2.4c-0.4,0.4-1.6,0.1-1.8,0.7c-0.1,0.2-0.1,0.4-0.2,0.6c-0.4,0.9-0.9,1.8-1.6,2.5c-1.3,1.5-3.1,2.4-5.1,2.8
	c-1.4,0.3-2.8,0.3-4.1,0.2c-1.5-0.1-3.1-0.2-4.5-0.7c-2.4-0.8-4.2-2.8-4.5-5.4c-0.1-1.2-1.8-0.4-2.4-1.5c-0.3-0.5-0.4-1.6,0.2-1.9
	C56,40.5,56.8,40.9,57.1,40.6C57.2,40.5,57,40.7,57.1,40.6z"/>
<path d="M66.8,43.2c0,0.2-0.1,0.5,0,0.6c0,0.6,0.9,0.6,0.9,0c0-0.1,0-0.5,0-0.6C67.6,42.6,66.8,42.6,66.8,43.2z"/>
<path d="M59.9,38.4c-0.5,0.3-0.1,1.1,0.4,0.8c0.2,0,0.5-0.3,0.7-0.4c0.3-0.1,0.6,0,0.9,0.2c0.3,0.1,0.6-0.2,0.6-0.5
	c-0.1-0.4-0.6-0.5-0.9-0.5C61,37.7,60.5,38.1,59.9,38.4z"/>
<path d="M70.4,38.9c-0.3,0.3,0,0.9,0.4,0.8c0.4-0.1,0.5-0.4,0.9-0.4c0.4,0,0.9,0.2,1.2,0.4c0.3,0.2,0.7,0.7,1.1,0.5
	c1.1-0.4-1-1.5-1.3-1.7C72,38.3,71,38.2,70.4,38.9C70.2,39.1,71.3,37.8,70.4,38.9z"/>
<path fill="#FFFFFF" d="M74.7,51.6c2.5,0,2.5,5.2,0,5.2S72.2,51.6,74.7,51.6z"/>
<path d="M72.4,54.2c0,1.3,0.8,3.1,2.3,3.1s2.3-1.8,2.3-3.1s-0.8-3.1-2.3-3.1S72.4,52.9,72.4,54.2z M73.3,54.2c0-0.8,0.4-2.2,1.4-2.2
	s1.4,1.3,1.4,2.2c0,0.8-0.4,2.2-1.4,2.2C73.7,56.3,73.3,55,73.3,54.2z"/>
<path fill="#FFFFFF" d="M59.4,51.2c2.5,0,2.5,5.2,0,5.2C56.9,56.5,56.9,51.2,59.4,51.2z"/>
<path d="M57.1,53.9c0,1.3,0.8,3.1,2.3,3.1s2.3-1.8,2.3-3.1s-0.8-3.1-2.3-3.1S57.1,52.6,57.1,53.9z M58,53.9c0-0.8,0.4-2.2,1.4-2.2
	c1,0,1.4,1.3,1.4,2.2c0,0.8-0.4,2.2-1.4,2.2C58.4,56,58,54.7,58,53.9z"/>
<path fill="#9FA0A0" d="M66,59.9c1.3,0,1.3,2.2,0,2.2C64.7,62.1,64.7,59.9,66,59.9z"/>
<path d="M64.5,61c0,2,2.9,2,2.9,0C67.4,59,64.5,59,64.5,61z M65.4,61c0-0.8,1.2-0.8,1.2,0S65.4,61.8,65.4,61z"/>
<path fill="#9FA0A0" d="M66.1,54.9c1.3,0,1.3,2.2,0,2.2C64.8,57.1,64.8,54.9,66.1,54.9z"/>
<path d="M64.7,56c0,2,2.9,2,2.9,0C67.6,54,64.7,54,64.7,56z M65.5,56c0-0.8,1.2-0.8,1.2,0S65.5,56.8,65.5,56z"/>
<g>
	<path fill="#FFFFFF" d="M71.5,53.6c-0.1,0.2-0.7,1.7-1,1.4c-0.5-0.4-0.9-1.4-1-1.9C69.4,51.7,72.1,52,71.5,53.6
		C71.1,54.4,71.8,52.8,71.5,53.6z"/>
	<path d="M69.3,52.4c-0.5,0.9,0.2,2.2,0.7,2.9c0.6,0.7,1.1,0.2,1.4-0.4c0.5-0.8,1-2.1,0.1-2.8C70.8,51.5,69.7,51.6,69.3,52.4
		C69,52.8,69.5,51.9,69.3,52.4z M70,53.4c-0.2-0.6,0.2-0.9,0.8-0.8c0.8,0.2,0,1.4-0.2,1.8C70.3,54.2,70.2,53.8,70,53.4
		C70,53.3,70.2,53.9,70,53.4z"/>
	<path fill="#FFFFFF" d="M69.6,56.4c0.1-0.2,0.7-1.7,1-1.4c0.5,0.4,0.9,1.4,1,1.9C71.6,58.3,69,58,69.6,56.4
		C70,55.6,69.3,57.2,69.6,56.4z"/>
	<path d="M69.2,56.2c-1,2.4,2.9,2.9,2.8,0.6c0-0.7-0.6-2.1-1.3-2.3C69.9,54.2,69.4,55.7,69.2,56.2z M70.5,55.5
		c0.3,0.4,1.1,1.6,0.3,1.8C69.4,57.7,70.2,56.1,70.5,55.5C70.7,55.7,70.4,55.7,70.5,55.5z"/>
	<path fill="#FFFFFF" d="M71.9,56c-0.2-0.1-1.6-0.7-1.3-1.1c0.3-0.5,1.2-1,1.8-1C73.7,53.8,73.4,56.7,71.9,56
		C71.1,55.6,72.6,56.3,71.9,56z"/>
	<path d="M71.7,53.6c-0.5,0.2-1.8,0.8-1.6,1.6c0.2,0.7,1.3,1.2,1.9,1.4C74.3,57.2,74.1,52.4,71.7,53.6
		C70.6,54.1,72.2,53.3,71.7,53.6z M72.1,54.4c0.7-0.3,0.9,0.5,0.7,1c-0.3,0.6-1.3-0.2-1.6-0.4C71.4,54.8,71.7,54.6,72.1,54.4
		C72.3,54.3,71.6,54.6,72.1,54.4z"/>
	<path fill="#FFFFFF" d="M69,53.9c0.2,0.1,1.6,0.7,1.3,1.1c-0.3,0.5-1.2,1-1.8,1C67.2,56.1,67.5,53.2,69,53.9z"/>
	<path d="M67.8,53.6c-0.7,0.5-0.8,1.7-0.3,2.4c0.7,1,1.8,0.4,2.6-0.1c0.6-0.4,1-0.9,0.4-1.5C69.9,53.7,68.7,53,67.8,53.6z
		 M68.3,55.5c-0.3-0.2-0.3-1,0-1.2c0.4-0.3,1.2,0.4,1.5,0.6C69.5,55.2,68.7,55.8,68.3,55.5C68.2,55.4,68.4,55.6,68.3,55.5z"/>
	<path fill="#FFFFFF" d="M70.5,54.1c1.2,0,1.2,2,0,2C69.3,56,69.3,54.1,70.5,54.1z"/>
	<path d="M69.2,55c0,1.8,2.7,1.8,2.7,0C71.8,53.2,69.2,53.2,69.2,55z M70,55c0-0.7,1-0.7,1,0C71,55.7,70,55.7,70,55z"/>
</g>
<path d="M60,42c-0.2,0.3,0.1,0.9,0.5,0.7c0.4-0.2,0.5-0.6,0.9-0.8c0.7-0.3,1.6,1.5,2,0.7c0.3-0.8-1.1-1.6-1.7-1.7
	C61,40.9,60.4,41.5,60,42C59.9,42.2,60,42,60,42z"/>
<path d="M71,42.5c-0.2,0.4,0.1,0.9,0.5,0.7c0.4-0.2,0.5-1,1.1-0.7c0.4,0.2,1.3,2,1.8,1.2c0.3-0.5-0.6-1.4-0.9-1.7
	C72.6,41.1,71.6,41.5,71,42.5C70.8,42.7,71.4,41.7,71,42.5z"/>
<path d="M69.2,25.3c-0.1,0.5,0.6,0.6,0.9,0.8c0.6,0.3,1.2,0.8,1.7,1.4c0.7,0.9,1.3,1.9,1.6,3c0.3,0.8,0.4,1.6,0.6,2.4
	c0.1,0.4,0,1,0.2,1.3c0.3,0.4,0.8,0.1,0.8-0.3c-0.3-2.7-1-5.5-3-7.5C71.7,26.1,69.5,24.2,69.2,25.3z"/>
<path d="M56.2,36.8c-0.6,0.7,0.1,2.5,0.3,3.2c0.7-1.3,1.4-2.7,2.1-4c0.2,0.7,0.5,1.4,0.7,2.2c0.8-0.8,1.5-1.6,2.3-2.5
	C59.8,35.7,57.8,35.9,56.2,36.8z"/>
<path d="M56,36.4c-0.8,0.5-0.4,4,0.4,4.1c0.4,0.1,0.7-0.8,0.9-1.1c0.4-0.8,0.8-1.5,1.2-2.3c0.1,0.3,0.3,1.7,0.9,1.5
	c0.2-0.1,0.5-0.4,0.6-0.6c0.6-0.7,1.2-1.3,1.8-2c0.9-1-1.2-0.8-1.6-0.8C58.9,35.4,57.3,35.6,56,36.4C55.8,36.5,58.2,35.1,56,36.4z
	 M57.8,36.6c-0.4,0.7-0.8,1.5-1.2,2.2c-0.1-0.4-0.2-0.9-0.2-1.3C56.4,36.9,57.3,36.8,57.8,36.6C57.4,37.4,57.4,36.8,57.8,36.6z
	 M60.6,36.2c-0.4,0.4-0.7,0.8-1.1,1.1c-0.1-0.3-0.2-0.7-0.3-1C59.7,36.3,60.1,36.2,60.6,36.2C60.1,36.7,60.2,36.2,60.6,36.2z
	 M56,36.4C56,36.4,56,36.4,56,36.4C56,36.4,56,36.4,56,36.4z"/>
<path d="M68.1,35.6c0.5,0.9,1,1.9,1.6,2.8c0.2-0.8,0.4-1.6,0.6-2.5c0.9,0.7,1.7,1.4,2.6,2.1c0.2-0.4,0.4-0.9,0.6-1.3
	c0.7,1,1.4,2,2.1,2.9c0.3-0.6,0.6-1.2,0.9-1.9c0.6,1.1,1.1,2.2,1.7,3.3c0.3-0.8,0.6-1.7,0.9-2.5c0.1-0.2-1.3-0.8-1.5-0.9
	C74.6,36.3,71.2,35,68.1,35.6z"/>
<path d="M68,35.1c-1,0.2,0.6,2.4,0.8,2.7c0.2,0.3,0.4,1.1,0.9,1c0.6-0.1,0.7-1.7,0.8-2.1c0.6,0.5,1.2,1,1.9,1.5
	c0.7,0.5,0.9-0.1,1.1-0.7c0.5,0.7,1.1,1.4,1.6,2.2c0.7,0.9,1.1-0.4,1.3-1c0.4,0.8,0.8,1.6,1.2,2.4c0.4,0.7,0.8,0.3,1-0.3
	c0.3-0.8,1.3-2.3,0.3-2.9C75.7,36.1,71.7,34.5,68,35.1C67.9,35.1,72.8,34.3,68,35.1z M69.8,35.9c-0.1,0.4-0.2,0.8-0.3,1.2
	c-0.2-0.4-0.4-0.8-0.7-1.2C69.1,35.9,69.4,35.9,69.8,35.9C69.7,36.1,69.4,35.9,69.8,35.9z M71.2,36.1c0.6,0.1,1.2,0.2,1.8,0.4
	c-0.1,0.3-0.2,0.5-0.3,0.8C72.1,36.9,71.6,36.5,71.2,36.1C71.8,36.2,71.7,36.5,71.2,36.1z M74,36.8c0.7,0.2,1.3,0.5,2,0.8
	c-0.2,0.4-0.4,0.8-0.6,1.2C74.9,38.1,74.5,37.4,74,36.8C74.7,37,74.3,37.2,74,36.8z M77,38c0.4,0.2,0.8,0.4,1.3,0.6
	c0.3,0.2-0.2,1-0.3,1.3C77.6,39.3,77.3,38.6,77,38C77.6,38.3,77.2,38.5,77,38z"/>
<path fill="#D3D3D4" d="M55.1,34.5c0.6-4.7,4.6-8.1,9-9.1c4-0.8,8.4-0.3,11.6,2.3c2.5,2,4.1,5,4.2,8.2C71.7,35.5,63.4,35,55.1,34.5z
	"/>
<path d="M65.3,24.7c-3.9,0.5-7.4,2.5-9.3,5.9c-0.2,0.4-2.2,4.4-0.9,4.4c5.1,0.3,10.2,0.6,15.3,0.9c2.2,0.1,4.5,0.3,6.7,0.4
	c0.8,0,2.1,0.4,2.9,0.2c1.4,0.1-0.4-4.6-0.7-5.2c-0.8-1.6-2-3.1-3.5-4.2C72.8,24.9,69,24.3,65.3,24.7C55.6,26,71.1,24,65.3,24.7z
	 M65.4,25.8c6.4-0.8,13.3,2.6,14,9.6c-7.9-0.5-15.8-0.9-23.7-1.4C56.7,29.3,60.8,26.4,65.4,25.8C70.8,25.1,57.9,26.8,65.4,25.8z"/>
<path fill="#D3D3D4" d="M52.6,37.1c0.7-0.8,1.3-1.5,2-2.3c0.4-0.4,0.6-0.9,1.2-1c2.5-0.7,5-1,7.6-1.1c4.5-0.2,9.1,0.3,13.4,1.9
	c0.6,0.2,1.2,0.4,1.8,0.7c0.3,0.1,1.3,0.4,1.4,0.7c0.2,0.3,0.4,0.7,0.6,1c0.6,0.9,1.1,1.8,1.7,2.7c-4.9-2.7-10.6-4.5-16.2-4.4
	C61.5,35.4,57,35.7,52.6,37.1z"/>
<path d="M55.3,33.4c-0.4,0.1-0.8,0.8-1,1.1c-0.5,0.6-1.1,1.2-1.6,1.9c-0.3,0.3-0.9,1.2-0.1,1.3c0.4,0.1,1-0.3,1.4-0.4
	c3.3-1,6.8-1.2,10.2-1.4c3-0.1,5.8,0,8.7,0.7c2.3,0.6,4.6,1.4,6.7,2.4c0.4,0.2,2.5,1.6,3,1.1c0.4-0.4-0.2-1-0.4-1.4
	c-0.4-0.7-0.9-1.4-1.3-2.2c-0.5-0.9-0.8-1.1-1.8-1.6c-1.6-0.7-3.2-1.3-4.9-1.7c-3-0.8-6.1-1.1-9.2-1.1
	C61.8,32.2,58.4,32.5,55.3,33.4C55.2,33.5,55.4,33.4,55.3,33.4z M79.6,36.4c0.4,0.7,0.8,1.3,1.2,2C76,36,70.7,34.6,65.3,34.8
	c-3.7,0.1-7.5,0.2-11,1.3c0.4-0.5,1-1.5,1.6-1.7c0.5-0.1,1-0.2,1.5-0.3c1.8-0.4,3.6-0.6,5.4-0.7C68.5,33,74.4,33.8,79.6,36.4
	C79.7,36.5,68.7,31,79.6,36.4z"/>
<path d="M67.7,24.7c-1.1,0.2-2.2,0.8-3,1.5c-0.9,0.7-1.6,1.5-2.2,2.5c-0.4,0.7-1.8,3.4-1.1,4.1c0.7,0.6,0.9-1.2,1-1.5
	c0.2-0.7,0.5-1.4,0.8-2c0.5-1,1.3-1.8,2.2-2.5c0.6-0.4,1.3-0.8,2-1c0.2-0.1,0.3-0.1,0.5-0.1C68.3,25.5,68.3,24.5,67.7,24.7
	C67.7,24.7,67.9,24.6,67.7,24.7z"/>
<path d="M70.7,46.3c-1.6,0.8-3.5,1.1-5.3,0.7c-0.4-0.1-0.8-0.2-1.2-0.4c-0.6-0.3-1.1,0.5-0.5,0.8c0.9,0.5,2.1,0.8,3.1,0.8
	c1,0,1.9-0.1,2.8-0.4c0.4-0.1,1.3-0.3,1.6-0.8C71.5,46.6,71.2,46,70.7,46.3C67.1,48.1,71,46.1,70.7,46.3z"/>
<path d="M70.2,25.4c-0.2,0.5,0.4,0.8,0.7,1c0.6,0.5,1.2,1,1.6,1.6c0.7,0.9,1.2,1.9,1.4,3c0.1,0.7,0.2,1.4,0.2,2
	c0,0.3-0.1,0.6,0.2,0.7c0.3,0.2,0.6,0,0.7-0.3c0.2-2.3-0.6-4.6-2.1-6.4C72.7,26.8,70.7,24.5,70.2,25.4
	C70.1,25.6,70.3,25.2,70.2,25.4z"/>
<path d="M79.7,53.8c-0.7,0.1-1.3,0.1-2,0.2c-0.2,0-0.5,0.1-0.7,0.1c-0.6,0.1-0.5,1,0.1,0.9c0.5,0.1,1.4-0.2,2-0.2
	c0.2,0,0.5-0.1,0.7-0.1C80.3,54.7,80.2,53.8,79.7,53.8z"/>
<path d="M79.7,55.8c-0.5,0-1,0.1-1.5,0.1c-0.1,0-0.4,0-0.5,0c-0.6,0-0.5,1,0.1,0.9c0.4,0.1,1.1-0.1,1.5-0.1c0.1,0,0.4,0,0.5,0
	C80.3,56.7,80.2,55.8,79.7,55.8z"/>
</svg>
